<svg width="120" height="120" viewBox="0 0 120 120" fill="none" xmlns="http://www.w3.org/2000/svg">
<g clip-path="url(#clip0_688_16873)">
<path d="M83.282 65.8038C80.0754 78.6678 67.0421 86.4877 54.1965 83.2809C41.3321 80.0743 33.5122 67.0415 36.719 54.1961C39.9257 41.3321 52.94 33.5122 65.8044 36.719C78.65 39.9069 86.4888 52.9397 83.282 65.8038Z" fill="url(#paint0_linear_688_16873)"/>
<path d="M71.4281 57.0095C71.8969 53.822 69.4781 52.097 66.1406 50.9532L67.2281 46.622L64.6031 45.9657L63.5531 50.1845C62.8594 50.0157 62.1469 49.847 61.4344 49.697L62.4844 45.4595L59.8594 44.8032L58.7906 49.1157C58.2094 48.9845 57.6469 48.8532 57.1031 48.722V48.7032L53.4656 47.8032L52.7719 50.6157C52.7719 50.6157 54.7219 51.0657 54.6844 51.0845C55.7531 51.347 55.9406 52.0595 55.9031 52.622L54.6656 57.5532C54.7406 57.572 54.8344 57.5907 54.9469 57.647C54.8531 57.6282 54.7594 57.6095 54.6656 57.572L52.9406 64.472C52.8094 64.7907 52.4719 65.2782 51.7406 65.0907C51.7594 65.1282 49.8281 64.622 49.8281 64.622L48.5156 67.6407L51.9469 68.5032C52.5844 68.672 53.2031 68.822 53.8219 68.9907L52.7344 73.3595L55.3594 74.0157L56.4469 69.6845C57.1594 69.872 57.8719 70.0595 58.5469 70.2282L57.4781 74.5407L60.1031 75.197L61.1906 70.8282C65.6906 71.672 69.0656 71.3345 70.4719 67.2657C71.6156 64.0032 70.4156 62.1095 68.0531 60.872C69.7969 60.4782 71.0906 59.3345 71.4281 57.0095ZM65.4094 65.447C64.6031 68.7095 59.0906 66.947 57.3094 66.497L58.7531 60.7032C60.5344 61.1532 66.2719 62.0345 65.4094 65.447ZM66.2344 56.9532C65.4844 59.9345 60.9094 58.4157 59.4281 58.0407L60.7406 52.7907C62.2219 53.1657 67.0031 53.8595 66.2344 56.9532Z" fill="white"/>
</g>
<defs>
<linearGradient id="paint0_linear_688_16873" x1="59.987" y1="35.9885" x2="59.987" y2="83.9951" gradientUnits="userSpaceOnUse">
<stop stop-color="#F9AA4B"/>
<stop offset="1" stop-color="#F7931A"/>
</linearGradient>
<clipPath id="clip0_688_16873">
<rect width="48" height="48" fill="white" transform="translate(36 36)"/>
</clipPath>
</defs>
</svg>
