<svg width="80" height="80" viewBox="0 0 80 80" fill="none" xmlns="http://www.w3.org/2000/svg">
<path d="M26.7377 35.7525L25.278 37.2278C23.6218 38.834 23.5675 41.4971 25.1609 43.171C25.1986 43.2132 25.2404 43.2513 25.278 43.2893L37.0388 55.2941C37.319 55.5816 37.641 55.8225 38.0007 56.0001V41.4506L26.7377 35.7525Z" fill="#3D89F5"/>
<path d="M53.2621 35.7525L54.7217 37.2278C56.3779 38.834 56.4323 41.4971 54.8388 43.171C54.8012 43.2132 54.7594 43.2513 54.7217 43.2893L42.961 55.2941C42.6807 55.5816 42.3587 55.8225 41.999 56.0001V41.4506L53.2621 35.7525Z" fill="#1656B9"/>
<path d="M50.4356 32.7399L43.0746 25.2834C41.4686 23.6095 38.8212 23.5672 37.165 25.1904C37.1357 25.22 37.1022 25.2496 37.073 25.2834L29.6953 32.7399L40.0341 37.9561L50.4356 32.7399Z" fill="#85B5F8"/>
</svg>
