<svg
  width="120"
  height="120"
  viewBox="0 0 120 120"
  fill="none"
  xmlns="http://www.w3.org/2000/svg"
>
<path
    d="M40.1065 53.6289L37.917 55.8418C35.4327 58.2512 35.3512 62.2457 37.7414 64.7566C37.7979 64.82 37.8606 64.8771 37.917 64.9341L55.5582 82.9413C55.9785 83.3725 56.4616 83.7339 57.0011 84.0002V62.176L40.1065 53.6289Z"
    fill="#3D89F5"
  />
<path
    d="M79.8907 53.6289L82.0801 55.8418C84.5644 58.2512 84.646 62.2457 82.2558 64.7566C82.1993 64.82 82.1366 64.8771 82.0801 64.9341L64.439 82.9413C64.0187 83.3725 63.5356 83.7339 62.9961 84.0002V62.176L79.8907 53.6289Z"
    fill="#1656B9"
  />
<path
    d="M75.6533 49.1099L64.6119 37.9251C62.2029 35.4143 58.2318 35.3509 55.7475 37.7856C55.7036 37.83 55.6534 37.8744 55.6094 37.9251L44.543 49.1099L60.0511 56.9342L75.6533 49.1099Z"
    fill="#85B5F8"
  />
</svg>
