<svg width="80" height="80" viewBox="0 0 80 80" fill="none" xmlns="http://www.w3.org/2000/svg">
<g clip-path="url(#clip0_270_10917)">
<path d="M46.1653 42.56L49.788 46.1813L39.984 55.9853L30.1813 46.1827L33.804 42.56L39.9853 48.7733L46.1653 42.56ZM52.348 36.3787L56 40L52.38 43.6213L48.7573 40L52.348 36.3787ZM39.9853 36.3787L43.6067 39.968L39.984 43.5907L36.3627 40L39.984 36.38L39.9853 36.3787ZM27.6213 36.3787L31.2133 40L27.624 43.5893L24 40L27.6213 36.3787ZM39.9867 24.0133L49.7893 33.7867L46.1667 37.4067L39.9853 31.2253L33.8053 37.4387L30.1827 33.8173L39.9853 24.0147L39.9867 24.0133Z" fill="#F3BA2F"/>
</g>
<defs>
<clipPath id="clip0_270_10917">
<rect width="32" height="32" fill="white" transform="translate(24 24)"/>
</clipPath>
</defs>
</svg>
