<svg width="80" height="80" viewBox="0 0 80 80" fill="none" xmlns="http://www.w3.org/2000/svg">
<g clip-path="url(#clip0_270_13284)">
<path d="M62.0533 36.9443C62.4152 36.9443 62.7539 37.063 63.0516 37.2867C63.3628 37.5196 63.5322 37.8848 63.5689 38.3232C63.5706 38.3291 63.57 38.3355 63.5673 38.3409C63.5645 38.3464 63.5598 38.3506 63.554 38.3528L63.5414 38.3551H62.8364C62.8261 38.3551 62.8157 38.35 62.8112 38.3416L62.8088 38.3323C62.7263 37.6977 61.9529 37.5241 61.486 37.8347C61.1608 38.0538 61.0967 38.5561 61.4082 38.8117C61.5301 38.9122 61.6705 38.9924 61.813 39.0698L62.19 39.2749L62.521 39.4447C62.6864 39.5297 62.8501 39.6176 63.0058 39.7203C63.5414 40.0765 63.7197 40.6153 63.6234 41.2133C63.5139 41.8252 62.9737 42.4142 61.93 42.4142C61.5316 42.4142 61.1471 42.3046 60.7947 42.0398C60.4194 41.7613 60.2821 41.4554 60.2821 40.9029C60.2821 40.8927 60.2898 40.8824 60.2994 40.8779L60.3095 40.8756H61.0738C61.0875 40.8756 61.1013 40.8891 61.1013 40.9029C61.1013 40.9531 61.1104 41.0673 61.1287 41.1267C61.2342 41.4554 61.5361 41.6654 61.9255 41.6882C62.2824 41.7111 62.6394 41.5148 62.7767 41.2316C62.9279 40.9211 62.818 40.5285 62.4702 40.314L62.4255 40.2868L62.2604 40.1924L62.0612 40.0834L61.0995 39.5764L61.0412 39.5439L61.0234 39.5332C60.021 38.9121 60.1904 36.9443 62.0534 36.9443H62.0533ZM66.6221 37.0493C66.6324 37.0493 66.6427 37.057 66.6473 37.0666L66.6496 37.0767V39.1314C66.6496 39.1496 66.6672 39.1621 66.6836 39.1569L66.6953 39.1496L68.7141 37.0584C68.717 37.0551 68.7206 37.0525 68.7246 37.0507L68.7325 37.0493H69.7075C69.7258 37.0493 69.7382 37.0669 69.7331 37.0833L69.7258 37.095L67.3452 39.5606C67.3422 39.5639 67.3401 39.568 67.339 39.5723C67.3379 39.5767 67.3379 39.5812 67.339 39.5856L67.3452 39.5971L69.9911 42.3228C70.0057 42.3338 69.9999 42.3566 69.9875 42.3675L69.9774 42.3732H69.0024L68.9932 42.3703L68.9841 42.3639L66.6954 40.008C66.6844 39.9934 66.6617 39.9992 66.653 40.0139L66.6495 40.0263V42.3458C66.6495 42.356 66.6419 42.3663 66.6323 42.3707L66.6221 42.3731H65.8574C65.8472 42.3731 65.8369 42.3655 65.8324 42.3559L65.83 42.3458V37.0767C65.83 37.0664 65.8377 37.0562 65.8474 37.0516L65.8574 37.0493H66.6221ZM27.7396 37.0447C27.7488 37.0447 27.756 37.0468 27.7611 37.0522L27.7672 37.063L28.3942 39.1268C28.3956 39.1314 28.3981 39.1357 28.4016 39.1391C28.405 39.1425 28.4093 39.1449 28.4139 39.1463C28.4186 39.1476 28.4235 39.1477 28.4282 39.1466C28.4329 39.1455 28.4373 39.1432 28.4409 39.1399L28.4492 39.1268L29.0764 37.0631C29.0796 37.0564 29.0849 37.0508 29.0916 37.0474L29.1038 37.0447H30.262C30.2723 37.0447 30.2826 37.0525 30.287 37.0621L30.2894 37.0722V42.3413C30.2894 42.3515 30.2816 42.3618 30.272 42.3663L30.262 42.3686H29.4974C29.4872 42.3686 29.4769 42.361 29.4724 42.3514L29.47 42.3413V38.3371C29.47 38.3103 29.4383 38.2996 29.4223 38.3153L29.415 38.3279L28.7834 40.4054L28.7376 40.5514C28.7344 40.5581 28.729 40.5636 28.7224 40.567L28.7102 40.5697H28.1242C28.115 40.5697 28.1078 40.5677 28.1028 40.5623L28.0967 40.5514L28.051 40.4054L27.4194 38.3279C27.4116 38.3051 27.3786 38.3045 27.3678 38.3234L27.3643 38.3371V42.3413C27.3643 42.3515 27.3566 42.3618 27.3469 42.3663L27.3369 42.3686H26.5723C26.562 42.3686 26.5517 42.361 26.5473 42.3514L26.5449 42.3413V37.0722C26.5449 37.0618 26.5527 37.0516 26.5623 37.0471L26.5723 37.0447H27.7396ZM49.9366 37.0447C49.9457 37.0447 49.9529 37.0468 49.9579 37.0522L49.964 37.063L50.5913 39.1268C50.5927 39.1314 50.5952 39.1356 50.5987 39.139C50.6021 39.1424 50.6063 39.1449 50.611 39.1462C50.6156 39.1475 50.6205 39.1476 50.6252 39.1465C50.6299 39.1454 50.6343 39.1431 50.6379 39.1399L50.6463 39.1268L51.2731 37.0631C51.2763 37.0564 51.2817 37.0508 51.2884 37.0474L51.3005 37.0447H52.4634C52.4737 37.0447 52.484 37.0525 52.4885 37.0621L52.4908 37.0722V42.3413C52.4908 42.3515 52.4832 42.3618 52.4735 42.3663L52.4634 42.3686H51.6991C51.6888 42.3686 51.6785 42.361 51.674 42.3514L51.6717 42.3413V38.3371C51.6717 38.3103 51.6398 38.2996 51.6239 38.3153L51.6167 38.3279L50.9848 40.4054L50.9391 40.5514C50.9359 40.5582 50.9305 40.5636 50.9238 40.567L50.9116 40.5697H50.3257C50.3164 40.5697 50.3093 40.5677 50.3042 40.5623L50.2981 40.5514L50.2523 40.4054L49.6209 38.3279C49.6132 38.3051 49.5801 38.3045 49.5693 38.3234L49.5658 38.3371V42.3413C49.5658 42.3515 49.5582 42.3618 49.5485 42.3663L49.5384 42.3686H48.7738C48.7635 42.3686 48.7531 42.361 48.7487 42.3514L48.7463 42.3413V37.0722C48.7463 37.0618 48.754 37.0516 48.7637 37.0471L48.7738 37.0447H49.9366ZM41.4405 37.0447C41.4461 37.0444 41.4516 37.046 41.4563 37.0491C41.4609 37.0522 41.4644 37.0568 41.4663 37.0621L41.4679 37.0722V37.7296C41.4679 37.7399 41.4602 37.7502 41.4506 37.7546L41.4405 37.757H40.0443V42.3413C40.0443 42.3515 40.0366 42.3618 40.0269 42.3663L40.0168 42.3686H39.2524C39.2421 42.3686 39.2318 42.361 39.2273 42.3514L39.225 42.3413V37.757H37.8286C37.8182 37.757 37.8079 37.7493 37.8035 37.7396L37.8011 37.7296V37.0722C37.8011 37.0617 37.8089 37.0515 37.8185 37.047L37.8286 37.0446H41.4402L41.4405 37.0447ZM45.2078 37.0265C45.217 37.0265 45.2242 37.0284 45.2292 37.0338L45.2353 37.0447L46.6726 42.3319C46.6742 42.3384 46.6736 42.3451 46.671 42.3512C46.6683 42.3572 46.6637 42.3622 46.6579 42.3653L46.6452 42.3685H45.9496C45.9419 42.3677 45.9348 42.3644 45.9292 42.3591L45.9222 42.3502L45.5056 40.8116C45.5023 40.8048 45.497 40.7994 45.4903 40.796L45.4781 40.7933H43.9398C43.9306 40.7933 43.9234 40.7953 43.9184 40.8007L43.9123 40.8116L43.4958 42.3502C43.4926 42.357 43.4872 42.3624 43.4806 42.3658L43.4683 42.3685H42.7725C42.766 42.3684 42.7596 42.3661 42.7546 42.3619C42.7495 42.3577 42.7461 42.3519 42.7448 42.3454L42.745 42.3319L44.1824 37.0447C44.1856 37.038 44.191 37.0325 44.1976 37.0291L44.2098 37.0265H45.2077H45.2078ZM57.073 37.0265C57.0822 37.0265 57.0893 37.0284 57.0944 37.0338L57.1006 37.0447L58.5377 42.3319C58.5393 42.3384 58.5387 42.3452 58.536 42.3512C58.5333 42.3573 58.5287 42.3622 58.5229 42.3653L58.5102 42.3685H57.8147C57.8107 42.3685 57.8067 42.3677 57.803 42.3661C57.7993 42.3645 57.796 42.3621 57.7933 42.3591L57.7872 42.3502L57.3707 40.8116C57.3675 40.8048 57.3621 40.7994 57.3554 40.796L57.3431 40.7933H55.8051C55.7959 40.7933 55.7888 40.7953 55.7837 40.8007L55.7776 40.8116L55.3612 42.3502C55.3579 42.357 55.3526 42.3624 55.3459 42.3658L55.3336 42.3685H54.6378C54.6312 42.3684 54.6249 42.3661 54.6198 42.3619C54.6148 42.3577 54.6113 42.3519 54.61 42.3454L54.6102 42.3319L56.0475 37.0447C56.0507 37.038 56.0561 37.0325 56.0628 37.0291L56.0751 37.0265H57.0729H57.073ZM35.7369 37.0493C35.7471 37.0493 35.7574 37.057 35.7619 37.0666L35.7642 37.0767V37.7341C35.7642 37.7445 35.7566 37.7548 35.7469 37.7592L35.7368 37.7616H33.4205C33.4102 37.7616 33.3999 37.7693 33.3954 37.7789L33.3931 37.789V39.1862C33.3931 39.1964 33.4008 39.2067 33.4104 39.2112L33.4205 39.2135H35.4575C35.4678 39.2135 35.4782 39.2212 35.4827 39.2308L35.4851 39.2409V39.8983C35.4851 39.9087 35.4773 39.919 35.4676 39.9234L35.4575 39.9258H33.4205C33.4102 39.9258 33.3999 39.9335 33.3954 39.9431L33.3931 39.9532V41.5878C33.3931 41.6 33.3972 41.6081 33.404 41.6136L33.4159 41.6198H35.8329C35.8432 41.6198 35.8535 41.6274 35.8581 41.6372L35.8604 41.6471V42.3412C35.8604 42.3514 35.8527 42.3617 35.8431 42.3662L35.8329 42.3685H32.6011C32.5908 42.3685 32.5805 42.3609 32.576 42.3512L32.5737 42.3412V37.0767C32.5737 37.0664 32.5814 37.0562 32.591 37.0516L32.6011 37.0493H35.7368H35.7369ZM44.7365 37.9807C44.7351 37.9761 44.7326 37.9718 44.7291 37.9684C44.7257 37.965 44.7214 37.9625 44.7168 37.9612C44.7121 37.9599 44.7072 37.9598 44.7025 37.9609C44.6978 37.962 44.6934 37.9643 44.6898 37.9676L44.6815 37.9807L44.123 40.0399C44.1195 40.0536 44.1265 40.0673 44.1378 40.0733L44.1504 40.0765H45.2674C45.274 40.0763 45.2803 40.074 45.2853 40.0698C45.2903 40.0656 45.2938 40.0598 45.2951 40.0534L45.2949 40.0399L44.7365 37.9807ZM56.6016 37.9807C56.6002 37.9761 56.5977 37.9718 56.5943 37.9684C56.5908 37.965 56.5866 37.9625 56.5819 37.9612C56.5772 37.9599 56.5723 37.9598 56.5676 37.9609C56.5629 37.962 56.5585 37.9643 56.5549 37.9676L56.5466 37.9807L55.9881 40.0399C55.9846 40.0536 55.9916 40.0673 56.0029 40.0733L56.0155 40.0765H57.1326C57.1391 40.0764 57.1455 40.074 57.1505 40.0698C57.1556 40.0656 57.159 40.0598 57.1603 40.0534L57.1601 40.0399L56.6016 37.9807Z" fill="#161616"/>
<path d="M21.691 34L16.5557 37.7998L17.5106 35.5605L21.691 34Z" fill="#E17726"/>
<path d="M10.2896 34.0045L14.4587 35.5607L15.3655 37.8294L10.2896 34.0045ZM19.624 42.0811L21.8937 42.1243L21.1005 44.819L18.3309 44.0565L19.624 42.0811ZM12.3441 42.0811L13.6324 44.0565L10.8674 44.8191L10.0791 42.1243L12.3441 42.0811Z" fill="#E27625"/>
<path d="M15.2424 37.2516L15.3352 40.2474L12.5596 40.1211L13.3491 38.93L13.3591 38.9185L15.2424 37.2516ZM16.6974 37.2181L18.6094 38.9187L18.6194 38.9301L19.4089 40.1211L16.6339 40.2474L16.6974 37.2181ZM13.7139 42.0897L15.2294 43.2706L13.4689 44.1206L13.7139 42.0897ZM18.2549 42.0896L18.4948 44.1206L16.7393 43.2705L18.2549 42.0896Z" fill="#E27625"/>
<path d="M16.7781 43.1593L18.5596 44.0219L16.9024 44.8095L16.9197 44.289L16.7781 43.1593ZM15.1901 43.1596L15.0542 44.2804L15.0653 44.8089L13.4043 44.0219L15.1901 43.1596Z" fill="#D5BFB2"/>
<path d="M14.676 40.6384L15.1416 41.6168L13.5566 41.1525L14.676 40.6384ZM17.2932 40.6385L18.418 41.1525L16.8279 41.6166L17.2932 40.6385Z" fill="#233447"/>
<path d="M13.8354 42.0798L13.5792 44.1854L12.2061 42.1258L13.8354 42.0798ZM18.134 42.0798L19.7635 42.1258L18.3852 44.1855L18.134 42.0798ZM19.4495 40.0021L18.2635 41.2106L17.3494 40.7928L16.9116 41.713L16.6247 40.1306L19.4495 40.0021ZM12.5194 40.0021L15.3447 40.1306L15.0577 41.713L14.6199 40.7929L13.7104 41.2106L12.5194 40.0021Z" fill="#CC6228"/>
<path d="M12.4395 39.7541L13.781 41.1154L13.8275 42.4595L12.4395 39.7541ZM19.5312 39.7516L18.1407 42.4618L18.193 41.1154L19.5312 39.7516ZM15.279 39.8369L15.333 40.1769L15.4665 41.0236L15.3807 43.6239L14.9751 41.535L14.975 41.5134L15.279 39.8369ZM16.6896 39.8322L16.9944 41.5134L16.9943 41.535L16.5877 43.6292L16.5716 43.1054L16.5082 41.0081L16.6896 39.8322Z" fill="#E27525"/>
<path d="M18.3114 41.0613L18.2661 42.2291L16.8507 43.3318L16.5647 43.1296L16.8853 41.4777L18.3114 41.0613ZM13.6611 41.0614L15.0824 41.4778L15.403 43.1296L15.1169 43.3318L13.7016 42.2289L13.6611 41.0614Z" fill="#F5841F"/>
<path d="M13.1338 43.7641L14.9444 44.622L14.9368 44.2556L15.0883 44.1227H16.8805L17.0374 44.2552L17.0258 44.6213L18.8251 43.7662L17.9496 44.4897L16.8909 45.2168H15.0738L14.0159 44.4867L13.1338 43.7641Z" fill="#C0AC9D"/>
<path d="M16.6483 43.0451L16.9043 43.226L17.0543 44.4229L16.8372 44.2396H15.132L14.9189 44.4267L15.0641 43.2261L15.3202 43.0451H16.6483Z" fill="#161616"/>
<path d="M21.3515 34.1052L21.9679 35.9544L21.5829 37.8243L21.857 38.0358L21.4861 38.3188L21.7649 38.5341L21.3958 38.8703L21.6224 39.0344L21.0209 39.7369L18.5539 39.0186L18.5326 39.0071L16.7549 37.5075L21.3515 34.1052ZM10.6164 34.1052L15.2132 37.5075L13.4353 39.0071L13.414 39.0186L10.947 39.7369L10.3456 39.0344L10.572 38.8704L10.203 38.5341L10.4813 38.319L10.1048 38.0352L10.3893 37.8236L10 35.9546L10.6164 34.1052Z" fill="#763E1A"/>
<path d="M18.4332 38.8615L21.0472 39.6226L21.8964 42.2398H19.656L18.1122 42.2593L19.2349 40.0711L18.4332 38.8615ZM13.5347 38.8615L12.7328 40.0711L13.8557 42.2593L12.3127 42.2398H10.0762L10.9207 39.6226L13.5347 38.8615ZM17.6382 35.5479L16.907 37.5226L16.7518 40.1901L16.6925 41.0263L16.6878 43.1622H15.2801L15.2755 41.0302L15.216 40.1894L15.0607 37.5226L14.3297 35.5479H17.6382Z" fill="#F5841F"/>
</g>
<defs>
<clipPath id="clip0_270_13284">
<rect width="60" height="11.2499" fill="white" transform="translate(10 34)"/>
</clipPath>
</defs>
</svg>
