<svg width="120" height="120" viewBox="0 0 120 120" fill="none" xmlns="http://www.w3.org/2000/svg">
<g clip-path="url(#clip0_688_16847)">
<path d="M93.079 55.4165C93.6218 55.4165 94.1298 55.5946 94.5765 55.9301C95.0432 56.2794 95.2974 56.8273 95.3524 57.4849C95.3549 57.4937 95.3541 57.5032 95.3499 57.5114C95.3458 57.5197 95.3387 57.526 95.33 57.5292L95.3111 57.5327H94.2536C94.2381 57.5327 94.2226 57.525 94.2158 57.5125L94.2123 57.4984C94.0885 56.5466 92.9284 56.2863 92.2281 56.7521C91.7403 57.0808 91.6441 57.8342 92.1113 58.2176C92.2942 58.3684 92.5047 58.4886 92.7185 58.6048L93.284 58.9124L93.7806 59.1671C94.0286 59.2946 94.2741 59.4264 94.5078 59.5805C95.3111 60.1147 95.5786 60.923 95.4341 61.82C95.2699 62.7379 94.4596 63.6214 92.8941 63.6214C92.2964 63.6214 91.7197 63.457 91.1911 63.0598C90.6281 62.6419 90.4221 62.1831 90.4221 61.3543C90.4221 61.339 90.4337 61.3236 90.4481 61.3169L90.4632 61.3134H91.6097C91.6302 61.3134 91.651 61.3338 91.651 61.3543C91.651 61.4297 91.6647 61.601 91.6921 61.6901C91.8503 62.1831 92.3031 62.4981 92.8872 62.5324C93.4227 62.5667 93.9581 62.2723 94.1641 61.8474C94.3909 61.3818 94.226 60.7927 93.7043 60.471L93.6373 60.4303L93.3896 60.2886L93.0908 60.1251L91.6483 59.3647L91.5608 59.3158L91.5341 59.2998C90.0305 58.3682 90.2846 55.4165 93.0792 55.4165H93.079ZM99.9321 55.574C99.9476 55.574 99.9631 55.5856 99.9699 55.6L99.9734 55.6151V58.6971C99.9734 58.7245 99.9998 58.7431 100.024 58.7354L100.042 58.7245L103.07 55.5877C103.075 55.5827 103.08 55.5788 103.086 55.5761L103.098 55.574H104.56C104.588 55.574 104.606 55.6004 104.599 55.625L104.588 55.6426L101.017 59.341C101.012 59.3459 101.009 59.352 101.007 59.3585C101.006 59.365 101.006 59.3719 101.008 59.3784L101.017 59.3956L104.986 63.4843C105.008 63.5008 104.999 63.5349 104.98 63.5512L104.965 63.5598H103.503L103.489 63.5554L103.475 63.546L100.042 60.0121C100.026 59.9901 99.9915 59.9989 99.9785 60.0209L99.9733 60.0395V63.5187C99.9733 63.534 99.9618 63.5495 99.9474 63.5562L99.9321 63.5597H98.7852C98.7699 63.5597 98.7544 63.5482 98.7476 63.5338L98.744 63.5187V55.6151C98.744 55.5997 98.7556 55.5844 98.7701 55.5775L98.7852 55.574H99.9321ZM41.6085 55.5671C41.6222 55.5671 41.6331 55.5703 41.6406 55.5784L41.6498 55.5946L42.5904 58.6902C42.5924 58.6972 42.5962 58.7035 42.6014 58.7086C42.6065 58.7137 42.6129 58.7175 42.6199 58.7194C42.6269 58.7214 42.6343 58.7215 42.6414 58.7199C42.6484 58.7182 42.655 58.7148 42.6603 58.7099L42.6728 58.6902L43.6136 55.5947C43.6184 55.5846 43.6264 55.5763 43.6364 55.5712L43.6547 55.5671H45.392C45.4074 55.5671 45.4229 55.5787 45.4296 55.5932L45.4331 55.6083V63.512C45.4331 63.5273 45.4215 63.5428 45.4071 63.5495L45.392 63.553H44.2452C44.2299 63.553 44.2144 63.5416 44.2076 63.5271L44.204 63.512V57.5056C44.204 57.4656 44.1564 57.4494 44.1325 57.4729L44.1216 57.4919L43.1741 60.6082L43.1054 60.8272C43.1006 60.8373 43.0925 60.8455 43.0826 60.8506L43.0643 60.8546H42.1854C42.1715 60.8546 42.1608 60.8516 42.1532 60.8435L42.1441 60.8272L42.0755 60.6082L41.1281 57.4919C41.1165 57.4577 41.0669 57.4568 41.0507 57.4851L41.0455 57.5056V63.512C41.0455 63.5273 41.0339 63.5428 41.0194 63.5495L41.0043 63.553H39.8575C39.8421 63.553 39.8266 63.5416 39.8199 63.5271L39.8164 63.512V55.6083C39.8164 55.5928 39.828 55.5775 39.8424 55.5707L39.8575 55.5671H41.6085ZM74.9039 55.5671C74.9176 55.5671 74.9284 55.5703 74.9359 55.5784L74.9451 55.5946L75.886 58.6902C75.8881 58.6972 75.8919 58.7035 75.897 58.7085C75.9022 58.7136 75.9085 58.7173 75.9155 58.7193C75.9225 58.7213 75.9298 58.7214 75.9369 58.7198C75.9439 58.7181 75.9504 58.7147 75.9558 58.7099L75.9685 58.6902L76.9087 55.5947C76.9135 55.5846 76.9215 55.5763 76.9316 55.5712L76.9498 55.5671H78.6941C78.7096 55.5671 78.725 55.5787 78.7317 55.5932L78.7352 55.6083V63.512C78.7352 63.5273 78.7238 63.5428 78.7092 63.5495L78.6941 63.553H77.5477C77.5322 63.553 77.5167 63.5416 77.51 63.5271L77.5065 63.512V57.5056C77.5065 57.4656 77.4587 57.4494 77.4348 57.4729L77.4241 57.4919L76.4763 60.6082L76.4077 60.8272C76.4028 60.8373 76.3947 60.8455 76.3847 60.8506L76.3664 60.8546H75.4875C75.4736 60.8546 75.4629 60.8516 75.4554 60.8435L75.4462 60.8272L75.3775 60.6082L74.4304 57.4919C74.4188 57.4577 74.3692 57.4568 74.353 57.4851L74.3478 57.5056V63.512C74.3478 63.5273 74.3363 63.5428 74.3218 63.5495L74.3066 63.553H73.1597C73.1442 63.553 73.1287 63.5416 73.1221 63.5271L73.1185 63.512V55.6083C73.1185 55.5928 73.13 55.5775 73.1446 55.5707L73.1597 55.5671H74.9039ZM62.1597 55.5671C62.1681 55.5667 62.1765 55.569 62.1834 55.5737C62.1904 55.5784 62.1957 55.5852 62.1984 55.5932L62.2009 55.6083V56.5944C62.2009 56.6099 62.1893 56.6253 62.1749 56.632L62.1597 56.6355H60.0655V63.512C60.0655 63.5273 60.0539 63.5428 60.0393 63.5495L60.0242 63.553H58.8776C58.8621 63.553 58.8467 63.5416 58.84 63.5271L58.8365 63.512V56.6355H56.7419C56.7264 56.6355 56.7109 56.6239 56.7042 56.6095L56.7007 56.5944V55.6083C56.7007 55.5926 56.7123 55.5773 56.7267 55.5705L56.7419 55.567H62.1594L62.1597 55.5671ZM67.8107 55.5397C67.8246 55.5397 67.8353 55.5427 67.8429 55.5508L67.852 55.5671L70.0079 63.498C70.0103 63.5076 70.0095 63.5177 70.0055 63.5268C70.0014 63.5359 69.9945 63.5434 69.9858 63.5481L69.9668 63.5528H68.9234C68.9119 63.5516 68.9012 63.5467 68.8928 63.5387L68.8823 63.5254L68.2574 61.2174C68.2525 61.2073 68.2445 61.1991 68.2345 61.194L68.2162 61.19H65.9088C65.8949 61.19 65.8842 61.193 65.8766 61.2011L65.8675 61.2174L65.2427 63.5254C65.2379 63.5355 65.2299 63.5437 65.2199 63.5488L65.2014 63.5528H64.1578C64.148 63.5526 64.1385 63.5491 64.1309 63.5428C64.1233 63.5365 64.1181 63.5278 64.1162 63.5182L64.1165 63.498L66.2726 55.5671C66.2775 55.557 66.2855 55.5488 66.2955 55.5438L66.3138 55.5397H67.8105H67.8107ZM85.6086 55.5397C85.6223 55.5397 85.633 55.5427 85.6405 55.5508L85.6499 55.5671L87.8056 63.498C87.808 63.5076 87.8071 63.5178 87.8031 63.5268C87.799 63.5359 87.7921 63.5434 87.7833 63.5481L87.7643 63.5528H86.7211C86.715 63.5528 86.709 63.5516 86.7035 63.5492C86.698 63.5468 86.693 63.5432 86.6889 63.5387L86.6798 63.5254L86.055 61.2174C86.0502 61.2073 86.0422 61.1991 86.0322 61.194L86.0137 61.19H83.7066C83.6929 61.19 83.6822 61.193 83.6746 61.2011L83.6655 61.2174L83.0408 63.5254C83.0359 63.5355 83.0279 63.5437 83.0179 63.5488L82.9995 63.5528H81.9557C81.9458 63.5526 81.9363 63.5491 81.9288 63.5428C81.9212 63.5365 81.916 63.5278 81.914 63.5182L81.9144 63.498L84.0703 55.5671C84.0751 55.557 84.0832 55.5488 84.0932 55.5438L84.1116 55.5397H85.6084H85.6086ZM53.6044 55.574C53.6197 55.574 53.6351 55.5856 53.6418 55.6L53.6453 55.6151V56.6013C53.6453 56.6167 53.6339 56.6322 53.6193 56.6389L53.6042 56.6424H50.1297C50.1143 56.6424 50.0988 56.654 50.0921 56.6684L50.0886 56.6835V58.7793C50.0886 58.7946 50.1002 58.8101 50.1146 58.8168L50.1297 58.8203H53.1853C53.2008 58.8203 53.2163 58.8319 53.2231 58.8463L53.2266 58.8614V59.8476C53.2266 59.863 53.215 59.8785 53.2004 59.8852L53.1853 59.8887H50.1297C50.1143 59.8887 50.0988 59.9003 50.0921 59.9147L50.0886 59.9298V62.3818C50.0886 62.4 50.0948 62.4122 50.105 62.4204L50.1229 62.4298H53.7483C53.7638 62.4298 53.7793 62.4412 53.7861 62.4558L53.7896 62.4707V63.5119C53.7896 63.5271 53.778 63.5426 53.7636 63.5493L53.7483 63.5528H48.9007C48.8852 63.5528 48.8698 63.5414 48.8631 63.5268L48.8596 63.5119V55.6151C48.8596 55.5997 48.8712 55.5844 48.8856 55.5775L48.9007 55.574H53.6042H53.6044ZM67.1037 56.9711C67.1017 56.9641 67.0979 56.9578 67.0927 56.9527C67.0876 56.9476 67.0812 56.9439 67.0742 56.9419C67.0672 56.9399 67.0598 56.9398 67.0527 56.9414C67.0457 56.9431 67.0391 56.9465 67.0338 56.9514L67.0213 56.9711L66.1835 60.0599C66.1782 60.0805 66.1888 60.101 66.2057 60.11L66.2246 60.1147H67.9002C67.91 60.1145 67.9195 60.111 67.927 60.1047C67.9345 60.0984 67.9397 60.0897 67.9417 60.0801L67.9413 60.0599L67.1037 56.9711ZM84.9014 56.9711C84.8994 56.9641 84.8956 56.9578 84.8904 56.9527C84.8852 56.9476 84.8789 56.9439 84.8719 56.9419C84.8649 56.9399 84.8575 56.9398 84.8504 56.9414C84.8434 56.9431 84.8368 56.9465 84.8314 56.9514L84.819 56.9711L83.9812 60.0599C83.9759 60.0805 83.9865 60.101 84.0033 60.11L84.0223 60.1147H85.6979C85.7077 60.1146 85.7172 60.1111 85.7248 60.1048C85.7324 60.0985 85.7376 60.0898 85.7395 60.0801L85.7392 60.0599L84.9014 56.9711Z" fill="white"/>
<path d="M32.537 51L24.834 56.6997L26.2664 53.3407L32.537 51Z" fill="#E17726"/>
<path d="M15.4348 51.0068L21.6885 53.3412L23.0487 56.7443L15.4348 51.0068ZM29.4366 63.1217L32.8411 63.1866L31.6512 67.2286L27.4968 66.0849L29.4366 63.1217ZM18.5166 63.1217L20.4491 66.0849L16.3016 67.2288L15.1191 63.1866L18.5166 63.1217Z" fill="#E27625"/>
<path d="M22.8641 55.8774L23.0034 60.3712L18.8398 60.1817L20.0241 58.3951L20.0392 58.3779L22.8641 55.8774ZM25.0466 55.8271L27.9146 58.3781L27.9296 58.3953L29.1138 60.1817L24.9513 60.3712L25.0466 55.8271ZM20.5713 63.1347L22.8446 64.906L20.2039 66.1809L20.5713 63.1347ZM27.3829 63.1345L27.7427 66.1809L25.1094 64.9058L27.3829 63.1345Z" fill="#E27625"/>
<path d="M25.1662 64.7388L27.8384 66.0327L25.3527 67.2141L25.3785 66.4333L25.1662 64.7388ZM22.7842 64.7393L22.5803 66.4205L22.597 67.2132L20.1055 66.0327L22.7842 64.7393Z" fill="#D5BFB2"/>
<path d="M22.013 60.9575L22.7114 62.4251L20.334 61.7287L22.013 60.9575ZM25.9389 60.9577L27.626 61.7287L25.2409 62.4249L25.9389 60.9577Z" fill="#233447"/>
<path d="M20.7526 63.1195L20.3684 66.2779L18.3086 63.1886L20.7526 63.1195ZM27.2006 63.1195L29.6448 63.1886L27.5773 66.2781L27.2006 63.1195ZM29.1737 60.0029L27.3948 61.8157L26.0236 61.1891L25.3668 62.5693L24.9365 60.1958L29.1737 60.0029ZM18.7786 60.0029L23.0165 60.1958L22.586 62.5693L21.9293 61.1893L20.5651 61.8157L18.7786 60.0029Z" fill="#CC6228"/>
<path d="M18.6582 59.6311L20.6705 61.6732L20.7403 63.6892L18.6582 59.6311ZM29.2959 59.6274L27.2101 63.6927L27.2885 61.6732L29.2959 59.6274ZM22.9175 59.7554L22.9986 60.2653L23.1988 61.5354L23.0701 65.4359L22.4617 62.3025L22.4615 62.2701L22.9175 59.7554ZM25.0334 59.7484L25.4906 62.2701L25.4904 62.3025L24.8806 65.4438L24.8564 64.6581L24.7613 61.5121L25.0334 59.7484Z" fill="#E27525"/>
<path d="M27.4676 61.5918L27.3996 63.3434L25.2766 64.9975L24.8475 64.6943L25.3284 62.2163L27.4676 61.5918ZM20.4922 61.592L22.624 62.2165L23.105 64.6943L22.6759 64.9975L20.5528 63.3433L20.4922 61.592Z" fill="#F5841F"/>
<path d="M19.6992 65.646L22.4152 66.9329L22.4038 66.3832L22.631 66.1839H25.3192L25.5546 66.3827L25.5372 66.9318L28.2361 65.6492L26.9229 66.7344L25.3349 67.8251H22.6092L21.0223 66.7299L19.6992 65.646Z" fill="#C0AC9D"/>
<path d="M24.9729 64.5679L25.357 64.8391L25.582 66.6345L25.2562 66.3596H22.6985L22.3789 66.6401L22.5967 64.8393L22.9808 64.5679H24.9729Z" fill="white"/>
<path d="M32.0272 51.1577L32.9518 53.9315L32.3744 56.7363L32.7855 57.0535L32.2292 57.478L32.6474 57.801L32.0937 58.3053L32.4336 58.5515L31.5314 59.6052L27.8309 58.5278L27.7989 58.5106L25.1323 56.2611L32.0272 51.1577ZM15.9246 51.1577L22.8197 56.2611L20.153 58.5106L20.121 58.5278L16.4205 59.6052L15.5184 58.5515L15.858 58.3054L15.3045 57.801L15.7219 57.4784L15.1571 57.0527L15.5839 56.7352L15 53.9317L15.9246 51.1577Z" fill="#763E1A"/>
<path d="M27.6508 58.2921L31.5717 59.4338L32.8456 63.3597H29.485L27.1693 63.3888L28.8533 60.1065L27.6508 58.2921ZM20.303 58.2921L19.1002 60.1065L20.7845 63.3888L18.47 63.3597H15.1152L16.3821 59.4338L20.303 58.2921ZM26.4583 53.3218L25.3614 56.2838L25.1287 60.2851L25.0397 61.5393L25.0327 64.7432H22.9211L22.9142 61.5453L22.8249 60.2841L22.592 56.2838L21.4955 53.3218H26.4583Z" fill="#F5841F"/>
</g>
<defs>
<clipPath id="clip0_688_16847">
<rect width="90" height="16.8748" fill="white" transform="translate(15 51)"/>
</clipPath>
</defs>
</svg>
