<svg width="120" height="120" viewBox="0 0 120 120" fill="none" xmlns="http://www.w3.org/2000/svg">
<path d="M60.566 39.0079C57.8524 38.9322 55.1511 39.4014 52.6219 40.3877C50.0927 41.3739 47.787 42.8573 45.8409 44.75C43.8949 46.6427 42.3481 48.9064 41.2919 51.4072C40.2358 53.908 39.6917 56.5952 39.692 59.3099C39.692 59.8279 39.712 60.3419 39.752 60.8559C39.8068 61.5827 39.6454 62.3094 39.2881 62.9447C38.9308 63.5799 38.3936 64.0953 37.744 64.4259L36 65.3159V69.4639L41.136 66.8459L42.8 65.9979L44.44 65.1639L73.86 50.1719L77.166 48.4879L84 45.0059V40.8579L77.226 44.3139L71.446 47.2599L43.536 61.4759C43.4423 60.7557 43.3955 60.0302 43.396 59.3039C43.3998 56.4075 44.1603 53.5623 45.602 51.0502C47.0437 48.5381 49.1167 46.4462 51.6156 44.9817C54.1146 43.5172 56.9527 42.731 59.849 42.7009C62.7453 42.6707 65.5991 43.3977 68.128 44.8099L71.436 43.1239L71.93 42.8719C68.6179 40.4683 64.6568 39.1215 60.566 39.0079ZM84 49.1559L46.11 68.4479L42.804 70.1359L36 73.6059V77.7499L42.756 74.3059L48.536 71.3599L76.476 57.1259C76.5697 57.8501 76.6164 58.5796 76.616 59.3099C76.6141 62.2096 75.8539 65.0584 74.4108 67.5735C72.9677 70.0887 70.8919 72.1826 68.3894 73.6475C65.8869 75.1125 63.0448 75.8974 60.1452 75.9245C57.2456 75.9516 54.3894 75.2198 51.86 73.8019L51.658 73.9099L48.072 75.7379C51.1019 77.9373 54.6808 79.2563 58.4133 79.5492C62.1458 79.8421 65.8867 79.0975 69.2225 77.3976C72.5583 75.6977 75.3593 73.1087 77.316 69.9167C79.2727 66.7247 80.3088 63.0539 80.31 59.3099C80.31 58.7899 80.29 58.2659 80.25 57.7499C80.1953 57.0234 80.3565 56.2969 80.7134 55.6617C81.0703 55.0265 81.607 54.511 82.256 54.1799L84 53.2899V49.1559Z" fill="white"/>
</svg>
