<svg width="120" height="120" viewBox="0 0 120 120" fill="none" xmlns="http://www.w3.org/2000/svg">
<g clip-path="url(#clip0_688_16926)">
<path d="M52.0059 45.7093C52.0059 45.7093 50.2272 46.7364 50.2272 48.7872V59.0376C50.2272 59.0376 50.2272 61.0916 48.4484 60.0647C46.6696 59.0378 46.6696 56.987 46.6696 56.987V46.7366C46.6696 46.6085 46.676 46.4838 46.6887 46.3622C46.8839 44.5579 48.4452 43.6557 48.4452 43.6557L44.891 41.6047C44.891 41.6047 44.8878 41.6047 44.8847 41.6078C44.7791 41.6686 43.1123 42.6957 43.1123 44.6824V54.9328C43.1123 54.9328 43.1123 56.9868 41.3333 55.9599C39.5545 54.933 39.5545 52.8821 39.5545 52.8821V42.6318C39.5545 40.5809 41.3333 39.554 41.3333 39.554L37.7788 37.5C37.7788 37.5 36 38.5269 36 40.5777V50.8281C36 50.8281 36 56.9868 41.3331 60.0645C42.9681 61.0084 44.1006 61.0819 44.8877 60.7331C45.6746 61.9905 46.8072 63.2255 48.442 64.1692C53.7751 67.2469 53.7751 61.0914 53.7751 61.0914V50.8411C53.7751 48.787 55.5541 47.7633 55.5541 47.7633C55.0072 47.0756 54.521 46.6083 54.0954 46.362C53.7326 46.152 53.036 45.9345 52.0059 45.7095V45.7093Z" fill="#808285"/>
<path d="M71.558 63.1518C71.558 57.0732 76.8911 60.074 76.8911 60.074L84 64.1787V68.2835L76.8911 64.1787C76.8911 64.1787 76.8686 64.1658 76.829 64.1457L76.8056 64.1343C76.4505 63.9606 75.1125 63.4248 75.1125 65.209C75.1125 67.2596 76.8911 68.2867 76.8911 68.2867L80.4456 70.3374C80.4456 70.3374 84 72.3914 84 78.5469C84 84.7023 78.6668 81.6244 78.6668 81.6244L71.558 77.5198V73.4151L78.67 77.5198C78.67 77.5198 80.4488 78.5469 80.4488 76.4928C80.4488 74.442 78.67 73.4151 78.67 73.4151L76.8911 72.3882C76.785 72.3246 71.558 69.1696 71.558 63.1518ZM66.2248 53.9189C67.2877 54.041 68.0083 54.2114 68.3867 54.4301C68.7982 54.6678 69.2623 55.1821 69.7792 55.9728C69.7792 55.9728 68.0004 56.9999 68.0004 59.0505L68.0002 69.3172C67.9955 69.6622 67.8403 75.3641 62.6671 72.3788C57.4941 69.3933 57.3387 63.5092 57.3342 63.1587L57.334 63.1424L60.8883 65.1964V65.2032C60.8902 65.3335 60.9483 67.2817 62.6671 68.274C64.3915 69.2696 64.4444 67.3699 64.4459 67.2527V56.9967C64.4459 54.9459 66.2248 53.9189 66.2248 53.9189ZM57.3404 54.9682L60.8947 57.019V61.1236L57.3404 59.073V54.968V54.9682Z" fill="#BCBEC0"/>
<path d="M76.8899 45.7094C75.2519 44.7626 73.7835 44.3017 72.5325 44.1163C72.2062 43.4029 71.4064 42.5646 69.7812 41.6368C64.4479 38.5912 59.1179 41.605 59.1179 41.605L52.0059 45.7093L55.5604 47.7601L62.6691 43.6554C62.6691 43.6554 64.4479 42.6283 66.2236 43.6554C68.0024 44.6823 66.2236 45.7093 66.2236 45.7093L59.1148 49.8139L62.6691 51.8647L69.7844 47.7567C69.8899 47.6961 71.6111 46.765 73.3323 47.7601C75.1111 48.787 73.3323 49.8107 73.3323 49.8107L66.2236 53.9156L69.778 55.9694L78.6657 50.8376C78.6657 50.8376 82.22 48.787 76.8901 45.7093L76.8899 45.7094Z" fill="#F16822"/>
</g>
<defs>
<clipPath id="clip0_688_16926">
<rect width="48" height="44.9989" fill="white" transform="translate(36 37.5)"/>
</clipPath>
</defs>
</svg>
