<svg width="120" height="120" viewBox="0 0 120 120" fill="none" xmlns="http://www.w3.org/2000/svg">
<g clip-path="url(#clip0_688_16584)">
<path d="M50.7891 83.8268C50.7065 83.8268 50.6175 83.8059 50.5556 83.7222L47.9065 80.2385V83.792H47.3025V79.4163C47.3025 79.2421 47.4466 79.1028 47.6115 79.1028C47.7075 79.1028 47.7898 79.1305 47.8515 79.2142L50.4938 82.6909V79.1516H51.0977V83.52C51.0977 83.7012 50.9535 83.8266 50.7889 83.8266M55.7855 83.8685C55.1818 83.8685 54.5502 83.7431 53.96 83.5202L54.1041 83.0184C54.6463 83.1927 55.2365 83.3181 55.7855 83.3181C56.5474 83.3181 56.9454 83.0463 56.9454 82.6632C56.9454 82.3149 56.6364 82.1405 55.5728 81.6389C54.509 81.1373 54.0906 80.8169 54.0906 80.1897C54.0906 79.4025 54.6943 79.0819 55.8335 79.0819C56.3071 79.0819 57.0346 79.1795 57.4533 79.305L57.3573 79.8205C56.8971 79.7091 56.321 79.6325 55.8472 79.6325C55.0445 79.6325 54.715 79.7856 54.715 80.1689C54.715 80.5451 54.955 80.7052 56.0807 81.2279C57.268 81.7783 57.5699 82.057 57.5699 82.6283C57.5699 83.4576 56.7874 83.8685 55.7855 83.8685ZM60.4319 79.1517H61.0564V83.7917H60.4319V79.1517ZM66.3687 81.6878H64.8174V83.2625H66.3687C66.897 83.2625 67.2196 82.928 67.2196 82.461C67.2196 82.0221 66.8834 81.6878 66.3687 81.6878ZM66.0665 79.6811H64.8174V81.1653H66.0665C66.5675 81.1653 66.9313 80.8447 66.9313 80.3988C66.9313 79.96 66.6155 79.6811 66.0665 79.6811ZM66.3755 83.7919H64.5089C64.4674 83.7925 64.4263 83.7848 64.3879 83.7693C64.3494 83.7538 64.3145 83.7307 64.2851 83.7015C64.2556 83.6723 64.2323 83.6376 64.2165 83.5993C64.2007 83.561 64.1927 83.5199 64.193 83.4784V79.465C64.193 79.2977 64.3303 79.1516 64.5089 79.1516H66.0529C67 79.1516 67.5627 79.6183 67.5627 80.3499C67.5627 80.747 67.3293 81.1164 66.9724 81.3323C67.5012 81.4926 67.8577 81.9315 67.8577 82.461C67.8577 83.1994 67.247 83.7917 66.3755 83.7917M70.8569 83.7919C70.6856 83.7919 70.5483 83.6456 70.5483 83.4784V79.1517H71.1726V83.2276H73.6571V83.7919H70.8569ZM77.9143 83.8685C76.6378 83.8685 75.8692 83.3948 75.8692 82.4403C75.8692 81.9874 76.1232 81.5554 76.6174 81.3533C76.2192 81.1025 76.0133 80.7472 76.0133 80.3571C76.0133 79.4931 76.6792 79.0819 77.9281 79.0819C78.3469 79.0819 78.9369 79.1307 79.4312 79.2422L79.3625 79.7577C78.8411 79.6741 78.3536 79.6255 77.88 79.6255C77.0702 79.6255 76.6378 79.8484 76.6378 80.3849C76.6378 80.8101 77.0359 81.1444 77.5644 81.1444H78.6349C78.7859 81.1444 78.9026 81.2628 78.9026 81.4091C78.9026 81.5624 78.7859 81.6808 78.6349 81.6808H77.4821C76.8781 81.6808 76.4939 81.9802 76.4939 82.4403C76.4939 83.1161 77.1184 83.318 77.9007 83.318C78.3263 83.318 78.9026 83.2625 79.3692 83.151L79.4587 83.6595C79.0125 83.785 78.429 83.8685 77.9143 83.8685ZM42.6551 80.022L43.7489 82.7624L42.0971 81.4413L42.6551 80.022ZM44.5982 83.3937L42.9159 79.2834C42.868 79.1648 42.7719 79.1021 42.6551 79.1021C42.5973 79.101 42.5405 79.1178 42.4926 79.1503C42.4447 79.1827 42.408 79.2292 42.3876 79.2834L40.541 83.7919H41.1725L41.9036 81.9331L44.0848 83.7221C44.1726 83.7942 44.2358 83.8266 44.3182 83.8266C44.4828 83.8266 44.6271 83.7014 44.6271 83.5203C44.6271 83.4908 44.6167 83.4441 44.5982 83.3939V83.3937ZM79.4919 55.4845C79.4919 66.2205 70.7894 74.923 60.0531 74.923C49.3179 74.923 40.6145 66.2205 40.6145 55.4845C40.6145 44.7493 49.3179 36.0459 60.0531 36.0459C70.7892 36.0459 79.4919 44.7493 79.4919 55.4845Z" fill="white"/>
<path d="M60.3806 47.9206L65.4108 60.336L57.8127 54.3508L60.3806 47.9207V47.9206ZM69.3168 63.196L61.5792 44.5748C61.3583 44.0378 60.9167 43.7534 60.3806 43.7534C59.8435 43.7534 59.3697 44.0378 59.1487 44.5748L50.6562 64.9999H53.5614L56.9232 56.5786L66.956 64.6837C67.3593 65.01 67.6505 65.1576 68.0289 65.1576C68.7868 65.1576 69.4494 64.5892 69.4494 63.7693C69.4494 63.6358 69.4022 63.4238 69.3168 63.196Z" fill="#1B2847"/>
</g>
<defs>
<clipPath id="clip0_688_16584">
<rect width="39.0129" height="48" fill="white" transform="translate(40.5 36)"/>
</clipPath>
</defs>
</svg>
