<svg width="80" height="80" viewBox="0 0 80 80" fill="none" xmlns="http://www.w3.org/2000/svg">
<path d="M33.8604 55.8846C33.8053 55.8846 33.746 55.8707 33.7047 55.8149L31.9386 53.4924V55.8614H31.536V52.9443C31.536 52.8281 31.6321 52.7353 31.742 52.7353C31.806 52.7353 31.8608 52.7538 31.902 52.8096L33.6635 55.1274V52.7678H34.0661V55.6801C34.0661 55.8009 33.97 55.8845 33.8603 55.8845M37.1913 55.9124C36.7888 55.9124 36.3677 55.8288 35.9743 55.6802L36.0704 55.3457C36.4319 55.4619 36.8253 55.5455 37.1913 55.5455C37.6993 55.5455 37.9646 55.3643 37.9646 55.1089C37.9646 54.8767 37.7586 54.7604 37.0495 54.426C36.3403 54.0916 36.0614 53.8781 36.0614 53.4599C36.0614 52.9351 36.4639 52.7214 37.2233 52.7214C37.5391 52.7214 38.024 52.7864 38.3032 52.8701L38.2392 53.2138C37.9324 53.1395 37.5483 53.0884 37.2325 53.0884C36.6973 53.0884 36.4777 53.1905 36.4777 53.446C36.4777 53.6968 36.6377 53.8036 37.3881 54.152C38.1797 54.519 38.3809 54.7048 38.3809 55.0856C38.3809 55.6385 37.8593 55.9124 37.1913 55.9124ZM40.2889 52.7679H40.7052V55.8612H40.2889V52.7679ZM44.2468 54.4586H43.2126V55.5084H44.2468C44.599 55.5084 44.814 55.2854 44.814 54.9741C44.814 54.6815 44.5899 54.4586 44.2468 54.4586ZM44.0453 53.1208H43.2126V54.1103H44.0453C44.3793 54.1103 44.6218 53.8965 44.6218 53.5993C44.6218 53.3067 44.4113 53.1208 44.0453 53.1208ZM44.2513 55.8613H43.0069C42.9793 55.8617 42.9518 55.8566 42.9262 55.8463C42.9006 55.8359 42.8773 55.8206 42.8577 55.8011C42.8381 55.7817 42.8225 55.7585 42.812 55.7329C42.8015 55.7074 42.7961 55.68 42.7963 55.6524V52.9768C42.7963 52.8652 42.8878 52.7678 43.0069 52.7678H44.0363C44.6676 52.7678 45.0428 53.079 45.0428 53.5667C45.0428 53.8314 44.8872 54.0777 44.6492 54.2216C45.0018 54.3285 45.2395 54.6211 45.2395 54.9741C45.2395 55.4664 44.8323 55.8612 44.2513 55.8612M47.2389 55.8613C47.1247 55.8613 47.0332 55.7638 47.0332 55.6524V52.7679H47.4494V55.4852H49.1057V55.8613H47.2389ZM51.9438 55.9124C51.0928 55.9124 50.5804 55.5966 50.5804 54.9603C50.5804 54.6583 50.7498 54.3703 51.0792 54.2356C50.8138 54.0684 50.6765 53.8315 50.6765 53.5715C50.6765 52.9955 51.1205 52.7214 51.9531 52.7214C52.2322 52.7214 52.6256 52.7539 52.9551 52.8283L52.9093 53.1719C52.5617 53.1161 52.2367 53.0837 51.921 53.0837C51.3811 53.0837 51.0928 53.2324 51.0928 53.5901C51.0928 53.8735 51.3583 54.0964 51.7106 54.0964H52.4242C52.5249 54.0964 52.6027 54.1753 52.6027 54.2728C52.6027 54.375 52.5249 54.454 52.4242 54.454H51.6557C51.253 54.454 50.9969 54.6536 50.9969 54.9603C50.9969 55.4108 51.4132 55.5454 51.9348 55.5454C52.2185 55.5454 52.6027 55.5084 52.9138 55.4341L52.9734 55.7731C52.676 55.8568 52.287 55.9124 51.9438 55.9124ZM28.4377 53.3481L29.1669 55.175L28.0657 54.2943L28.4377 53.3481ZM29.7331 55.5959L28.6116 52.8557C28.5797 52.7766 28.5156 52.7348 28.4377 52.7348C28.3992 52.7341 28.3613 52.7453 28.3294 52.7669C28.2974 52.7886 28.273 52.8196 28.2594 52.8557L27.0283 55.8613H27.4493L27.9367 54.6222L29.3908 55.8148C29.4493 55.8629 29.4915 55.8845 29.5465 55.8845C29.6562 55.8845 29.7524 55.801 29.7524 55.6803C29.7524 55.6606 29.7455 55.6295 29.7331 55.596V55.5959ZM52.9956 36.9898C52.9956 44.1471 47.1939 49.9488 40.0364 49.9488C32.8795 49.9488 27.0773 44.1471 27.0773 36.9898C27.0773 29.8329 32.8795 24.0307 40.0364 24.0307C47.1938 24.0307 52.9956 29.8329 52.9956 36.9898Z" fill="#1A1918"/>
<path d="M40.2544 31.9471L43.6079 40.224L38.5424 36.2338L40.2544 31.9472V31.9471ZM46.2119 42.1307L41.0535 29.7165C40.9062 29.3585 40.6118 29.169 40.2544 29.169C39.8963 29.169 39.5804 29.3585 39.4331 29.7165L33.7715 43.3333H35.7082L37.9495 37.7191L44.638 43.1225C44.9069 43.34 45.101 43.4384 45.3532 43.4384C45.8585 43.4384 46.3002 43.0595 46.3002 42.5129C46.3002 42.4239 46.2688 42.2826 46.2119 42.1307Z" fill="white"/>
</svg>
