<svg width="120" height="120" viewBox="0 0 120 120" fill="none" xmlns="http://www.w3.org/2000/svg">
<path fill-rule="evenodd" clip-rule="evenodd" d="M82.6986 50.4705C80.1076 49.7968 77.3799 50.8927 75.9756 53.1722C74.5931 55.4645 74.8808 58.3929 76.6827 60.3724C78.4846 62.3521 81.3731 62.913 83.7849 61.7517C84.0265 61.6393 84.2305 61.3895 84.5468 61.4976C84.6133 62.7923 84.4427 63.5042 83.889 64.2285C82.3779 66.2057 79.5889 66.0017 78.1695 63.8079C77.6116 62.9464 76.9761 62.7132 76.2629 63.1086C75.5095 63.5292 75.3679 64.2701 75.8883 65.1734C76.6082 66.4349 77.7553 67.3976 79.1227 67.8875C79.3683 67.9792 79.3349 67.9792 79.7097 68.1206C80.1383 68.2871 81.458 68.3288 82.07 68.2164C82.3342 68.1616 82.5945 68.0878 82.8483 67.9956C85.3922 67.2678 87.171 64.9752 87.2443 62.3302C87.29 60.253 87.2984 58.1759 87.2401 56.0986C87.1421 53.423 85.2931 51.1317 82.6986 50.4705ZM77.7449 56.3195C77.737 55.6438 77.9298 54.9809 78.2988 54.4148C78.6677 53.8487 79.1963 53.4048 79.8177 53.1391C80.439 52.8735 81.1252 52.7982 81.7894 52.9226C82.4535 53.047 83.0659 53.3657 83.5489 53.8382C84.032 54.3108 84.364 54.916 84.503 55.5773C84.642 56.2386 84.5817 56.9262 84.3298 57.5533C84.0778 58.1803 83.6456 58.7185 83.0877 59.0998C82.5298 59.4811 81.8714 59.6884 81.1957 59.6954C80.7473 59.7009 80.3022 59.618 79.8858 59.4512C79.4695 59.2845 79.0902 59.0372 78.7697 58.7236C78.4491 58.41 78.1936 58.0362 78.0177 57.6236C77.8419 57.2111 77.7491 56.7679 77.7449 56.3195ZM100.178 54.5251C99.262 51.6945 96.444 49.8961 93.559 50.3207C90.6232 50.7369 88.4213 53.2195 88.3591 56.1843C88.2968 59.1491 90.3926 61.7219 93.3085 62.2609C96.2245 62.7997 99.1013 61.1459 100.103 58.3549C100.279 57.9401 100.403 57.5053 100.474 57.0602C100.527 56.4725 100.502 55.8803 100.398 55.2994C100.338 55.0377 100.264 54.7793 100.178 54.5251ZM94.3458 59.6952C92.4893 59.6578 91.0107 58.1293 91.0354 56.2724C91.0599 54.4157 92.5782 52.9267 94.4351 52.9384C96.292 52.95 97.7915 54.4581 97.7926 56.3151C97.7892 56.7637 97.6973 57.2071 97.5221 57.62C97.3468 58.0329 97.0918 58.4071 96.7715 58.7212C96.4513 59.0353 96.0722 59.283 95.6559 59.4501C95.2397 59.6173 94.7945 59.7006 94.346 59.6952H94.3458ZM66.8551 55.0246C66.6866 54.2082 66.3476 53.4367 65.8603 52.7604C65.373 52.0841 64.7483 51.5183 64.0272 51.1002C63.3061 50.6821 62.5048 50.421 61.6757 50.334C60.8467 50.247 60.0087 50.3361 59.2164 50.5954C58.4122 50.8397 57.6676 51.249 57.0303 51.7971C56.393 52.3452 55.877 53.0201 55.5151 53.7788C55.1532 54.5375 54.9534 55.3632 54.9284 56.2034C54.9035 57.0436 55.054 57.8798 55.3702 58.6586C56.673 61.8307 60.6193 63.2835 63.7288 61.7308C64.0952 61.5476 64.3699 61.2812 64.7238 61.8307C64.8727 62.065 65.1031 62.236 65.3706 62.3105C65.6381 62.3851 65.9237 62.358 66.1724 62.2345C66.4304 62.1423 66.6507 61.9675 66.7991 61.7371C66.9474 61.5067 67.0154 61.2338 66.9925 60.9607C66.9883 60.099 66.9925 59.2373 66.9925 58.1549C66.9384 57.2558 67.1048 56.1279 66.8551 55.0246ZM60.9731 59.6952C59.0332 59.6702 57.5097 58.1591 57.5639 56.3151C57.6531 54.4463 59.1857 52.9723 61.0564 52.9557C61.5036 52.9643 61.9445 53.0617 62.3537 53.2423C62.7628 53.423 63.1319 53.6832 63.4395 54.0079C63.7471 54.3325 63.987 54.7151 64.1453 55.1334C64.3036 55.5517 64.3771 55.9972 64.3616 56.4442C64.3408 58.3381 62.9004 59.7202 60.9731 59.6952Z" fill="white"/>
<path fill-rule="evenodd" clip-rule="evenodd" d="M75.4855 51.5082C75.4188 50.6381 74.6863 50.1927 73.5498 50.3176C70.8553 50.5867 68.6649 52.6073 68.1797 55.2713C67.9799 56.312 68.134 57.3736 68.0882 58.2477C68.0882 59.1884 68.084 59.9544 68.0882 60.7203C68.0966 61.7736 68.5627 62.3563 69.3953 62.3646C70.2279 62.3772 70.7358 61.786 70.7482 60.7494C70.7608 59.2843 70.7358 57.8147 70.7566 56.3494C70.7815 54.5178 72.0511 53.0609 73.8619 52.9859C74.9358 52.9402 75.5394 52.2283 75.4855 51.5082Z" fill="white"/>
<path fill-rule="evenodd" clip-rule="evenodd" d="M30.6665 70.9514C30.6697 70.9514 30.6729 70.9611 30.6729 70.9804L30.6826 71.3845C30.7021 71.2811 30.7216 71.1776 30.7441 71.071C30.728 70.8739 30.5729 70.9741 30.6666 70.9514H30.6665ZM39.1473 59.8981C39.1441 59.9013 39.1377 59.9013 39.1345 59.9045C39.1377 59.9077 39.1441 59.9109 39.1473 59.9142C39.1441 59.9109 39.1473 59.9045 39.1473 59.8981ZM33.8048 46.3301V46.3333H33.8145C33.8113 46.3333 33.8081 46.3301 33.8048 46.3301Z" fill="#FEFEFE"/>
<path fill-rule="evenodd" clip-rule="evenodd" d="M38.3438 73.5801C38.3859 73.1116 38.3632 72.6364 38.4215 72.171C38.5507 71.1465 38.4279 70.0993 38.6962 69.0878C38.8287 68.5641 38.4052 67.9502 38.9482 67.4911L38.8126 67.0451C38.7553 66.929 38.7269 66.8009 38.7297 66.6715C38.7325 66.5421 38.7665 66.4153 38.8287 66.3018C38.7968 65.4034 38.8509 64.5041 38.9903 63.616C39.0386 62.3813 39.0905 61.1467 39.139 59.9089C39.1358 59.9056 39.1293 59.9024 39.1261 59.8992C36.4855 61.1112 33.9968 59.4143 33.5735 57.3783C33.2956 56.0402 33.4441 54.7765 34.4881 53.7552C34.6626 53.5839 34.8113 53.3867 34.9729 53.1993C35.3995 50.6428 35.1022 48.2964 32.9174 46.4671C33.2438 46.2797 33.5379 46.3862 33.803 46.3378V46.3346C31.1236 45.6624 27.8722 47.4948 26.796 50.2936C26.4612 51.1208 26.3102 52.0108 26.3532 52.902C29.0099 51.6707 31.3918 53.1411 32.0479 55.3809C32.73 57.7112 30.9135 60.1771 28.4993 60.2128C27.808 60.216 27.1202 60.1137 26.4598 59.9089C26.5083 61.1952 26.558 62.4817 26.6086 63.768C26.7269 64.6072 26.7778 65.4545 26.7605 66.3018L26.7798 66.9028L26.7605 67.3037C26.9286 68.116 27.0291 68.9408 27.061 69.7697C27.0552 69.7485 27.0509 69.727 27.0481 69.7052C27.0514 69.7278 27.0578 69.7471 27.061 69.7697C27.1256 71.1757 27.1645 72.5846 27.2647 73.9907C27.3066 74.5724 27.0966 74.8634 26.5601 75.0119C25.9265 75.1898 25.3027 75.403 24.6758 75.6035C25.5032 75.7075 26.3376 75.7442 27.1709 75.7134C28.0662 75.694 28.4733 75.2965 28.5607 74.4077C28.6155 73.8421 28.6641 73.2766 28.7158 72.711L28.8904 69.634H29.0164V72.5589C29.0325 73.0017 29.0389 73.4477 29.0679 73.8905C29.1973 75.9557 29.2587 75.9428 27.1999 76.3598C27.1528 76.3744 27.1073 76.3939 27.0642 76.4178C27.187 76.4987 27.3098 76.5796 27.4326 76.6635C27.4705 76.6697 27.5035 76.6921 27.5231 76.7249C28.0144 76.7282 28.509 76.7702 28.9936 76.7249C29.876 76.641 30.293 76.169 30.3576 75.2931C30.3963 74.7308 30.4546 74.1684 30.5031 73.6061C30.4529 72.8635 30.5117 72.1176 30.6776 71.3921L30.668 70.9882C30.668 70.9688 30.6615 70.9559 30.6615 70.9591C30.5677 70.9817 30.7228 70.8815 30.7389 71.0787C30.7551 70.9914 30.7745 70.9042 30.7907 70.8169V74.204C30.8004 74.6015 30.8133 74.9958 30.8198 75.3933C30.8359 76.8316 30.7455 76.9608 29.375 77.3714C28.9969 77.4845 28.6026 77.5524 28.2278 77.6784C27.9563 77.7721 27.6105 77.7204 27.3551 78.0404C28.4701 77.9985 29.5141 78.1244 30.5515 77.9563C31.6246 77.7818 32.0511 77.3488 32.2709 76.3015C32.4325 75.5324 32.5004 74.7406 32.7946 73.9617C32.8278 74.0149 32.856 74.0711 32.8785 74.1297C33.0273 74.8569 33.1758 75.5873 33.3181 76.3145C33.5186 77.3326 33.9322 77.7657 34.9665 77.9468C36.0362 78.1308 37.1189 78.0048 38.2275 78.0306C38.0691 77.7592 37.8203 77.8045 37.62 77.7462C36.9315 77.5459 36.2301 77.3746 35.5546 77.142C35.0633 76.9707 34.7111 76.6569 34.7175 76.0527C34.7337 74.3979 34.724 72.743 34.724 71.0884H34.9244C34.9955 72.1259 35.0796 73.1601 35.1346 74.1976C35.2606 76.5957 35.545 76.8576 37.9528 76.7249C38.0886 76.4987 38.4215 76.6766 38.5473 76.4341C37.9689 76.4309 37.4647 76.1529 36.9347 75.9752C36.7918 75.926 36.6692 75.8307 36.5861 75.7044C36.5031 75.5781 36.4643 75.4278 36.4758 75.277C36.5016 73.5771 36.437 71.8707 36.6664 70.177C36.8053 71.599 36.9152 73.0242 37.0251 74.4464C37.0768 75.1122 37.3775 75.6326 38.0757 75.6777C39.0193 75.7425 39.9663 75.6939 40.9132 75.6939C40.4209 75.4653 39.9107 75.2772 39.3878 75.1315C38.2307 74.7599 38.2373 74.7567 38.3438 73.5803V73.5801ZM31.0655 49.3305C31.0634 49.5579 30.9722 49.7754 30.8114 49.9362C30.6506 50.097 30.4331 50.1883 30.2057 50.1903C29.6983 50.2 29.3169 49.9092 29.3072 49.2498C29.3094 49.1367 29.3345 49.0252 29.3811 48.922C29.4276 48.8189 29.4947 48.7263 29.5781 48.6499C29.6615 48.5734 29.7595 48.5147 29.8663 48.4772C29.9731 48.4398 30.0863 48.4244 30.1992 48.4321C30.8036 48.4224 31.0751 48.8296 31.0655 49.3305ZM34.9504 63.4673C34.9536 64.7762 33.9515 65.9172 32.8075 65.9139C31.7279 65.9107 30.6258 64.6373 30.6647 63.4349C30.6064 63.0795 30.545 62.7208 30.4643 62.223C31.2368 62.7498 31.8863 63.2896 32.7558 63.3091C33.6446 63.3252 34.3427 62.8693 35.0699 62.3362C35.2249 62.7627 34.8339 63.0956 34.9502 63.4673H34.9504Z" fill="#FE733E"/>
<path fill-rule="evenodd" clip-rule="evenodd" d="M26.7608 66.2953C26.6963 66.2727 26.6348 66.2436 26.5734 66.2208C25.707 65.8422 24.9088 65.3236 24.2109 64.6857C21.6447 62.4686 19.951 59.6923 19.5406 56.3246C19.0752 52.4979 19.9317 48.9654 22.485 45.9303C24.8153 43.1638 27.7854 41.5512 31.3308 41.1795C35.2706 40.7691 38.8097 41.8712 41.7896 44.5924C44.2223 46.7522 45.7591 49.7439 46.0978 52.9793C46.447 55.7566 45.8711 58.5715 44.4592 60.9884C43.1437 63.2346 41.3921 65.0575 39.0231 66.2112C38.9583 66.2434 38.8937 66.2758 38.8291 66.305C38.7661 66.4182 38.7317 66.5451 38.7289 66.6746C38.7261 66.8041 38.755 66.9324 38.813 67.0483C38.8636 66.9938 38.9198 66.9451 38.981 66.9029C42.5588 65.009 45.0409 62.1938 46.2014 58.2767C46.3014 57.9438 46.4566 57.779 46.8282 57.8178C47.3325 57.8694 47.4682 57.5334 47.4682 57.1132C47.4714 55.5004 47.4724 53.8888 47.4714 52.2781C47.4714 51.9323 47.3873 51.5509 47.0286 51.5121C46.3693 51.4346 46.2885 50.9529 46.1559 50.4844C45.4265 47.8132 43.8529 45.4494 41.67 43.7458C37.1129 40.1677 32.1097 39.5212 26.861 41.939C22.96 43.7328 20.4745 46.8452 19.3498 51.0113C19.2788 51.2697 19.3111 51.5768 18.8716 51.4863C18.2444 51.357 18.0085 51.7254 18.0053 52.2813C17.9957 53.8942 18.0021 55.5036 18.0021 57.1164C18.0021 57.653 18.2736 57.9374 18.7907 57.8114C19.2659 57.6949 19.3788 57.9309 19.476 58.2928C19.8961 59.825 20.5987 61.2653 21.5477 62.5396C22.9374 64.4239 24.6309 65.9364 26.7835 66.8997C26.777 66.6992 26.7706 66.4956 26.7609 66.2953H26.7608Z" fill="#B5D2F3"/>
<path fill-rule="evenodd" clip-rule="evenodd" d="M26.7601 67.3008C26.2819 68.642 25.0086 68.6097 23.9258 68.9459C24.7401 69.1559 25.5677 69.3982 26.3821 69.2593C26.8668 69.1752 26.9605 69.3497 27.0316 69.6375C27.0381 69.6601 27.0413 69.6826 27.0477 69.7052C27.0509 69.7247 27.0574 69.7474 27.0606 69.77C27.0287 68.94 26.9282 68.1142 26.7603 67.3008H26.7601Z" fill="#FE684B"/>
<path fill-rule="evenodd" clip-rule="evenodd" d="M38.697 69.0879C39.7311 69.5564 40.7072 69.0846 41.7059 68.9488C40.7298 68.5352 39.4662 68.7485 38.9522 67.4912C38.406 67.9501 38.8294 68.5644 38.697 69.0879Z" fill="#FE6446"/>
<path fill-rule="evenodd" clip-rule="evenodd" d="M30.7913 70.8076C30.7752 70.8948 30.7559 70.9821 30.7396 71.0693C30.7203 71.1727 30.6977 71.2762 30.6782 71.3829C30.5123 72.1084 30.4535 72.8543 30.5037 73.5968C30.7461 73.7228 30.5682 74.0557 30.7913 74.1914V70.8076Z" fill="#FED6C8"/>
<path fill-rule="evenodd" clip-rule="evenodd" d="M28.8913 69.6211L28.7168 72.6981C28.817 72.6463 28.9171 72.5978 29.0173 72.5461V69.6211H28.8913Z" fill="#FEEBE3"/>
<path fill-rule="evenodd" clip-rule="evenodd" d="M25.8516 76.7139H27.5193C27.4903 76.6946 27.4581 76.6751 27.4289 76.6525C27.3053 76.5718 27.1825 76.4898 27.0604 76.4068C26.6371 76.3975 26.2193 76.5035 25.8516 76.7139Z" fill="#FE9166"/>
<path fill-rule="evenodd" clip-rule="evenodd" d="M37.9492 76.7137H39.5718C39.2749 76.4971 38.9102 76.3939 38.5438 76.4227C38.418 76.6684 38.0818 76.4875 37.9492 76.7137Z" fill="#FE8F64"/>
<path fill-rule="evenodd" clip-rule="evenodd" d="M39.0252 66.2046C41.3943 65.0541 43.1428 63.2312 44.4615 60.9817C45.8733 58.5648 46.4493 55.75 46.1002 52.9729C45.7643 49.7366 44.227 46.7439 41.7918 44.586C38.812 41.8677 35.2729 40.7623 31.3332 41.1761C27.7909 41.5446 24.8175 43.1606 22.4871 45.9271C19.9309 48.962 19.0777 52.4947 19.543 56.3212C19.9534 59.6921 21.6471 62.4652 24.2133 64.6824C24.9115 65.3199 25.7096 65.8385 26.5758 66.2175C26.6372 66.2433 26.6986 66.2692 26.7633 66.2919C26.7806 65.4446 26.7298 64.5972 26.6114 63.758C26.5468 63.7128 26.4822 63.6676 26.4174 63.6191C25.7781 63.1246 25.1814 62.5775 24.6333 61.9836C24.4621 61.8091 24.2487 61.6605 24.2487 61.3761C23.8675 61.6507 23.5928 61.4601 23.3697 61.1563C22.118 59.5141 21.3893 57.5332 21.2786 55.4713C21.1882 53.6031 21.3562 51.7866 22.1416 50.0382C23.101 47.8784 24.7066 46.0694 26.7372 44.8605C27.0863 44.6472 27.2867 44.838 27.529 44.9964C27.6441 44.9918 27.7568 44.963 27.8599 44.9117C27.963 44.8605 28.054 44.7879 28.127 44.6989L28.098 44.6311C27.8911 44.1947 27.8814 43.7002 28.3792 43.5839C28.8801 43.4643 29.1645 43.8715 29.1678 44.3984C32.9072 43.1703 36.3849 43.668 39.5231 46.0629C41.8695 47.8534 43.214 50.2548 43.6244 53.1829C44.1545 56.9482 42.8811 60.0703 40.2567 62.7108C39.9469 63.0285 39.5918 63.2986 39.2029 63.5124C39.1352 63.5478 39.0672 63.5802 38.9994 63.6126C38.86 64.5007 38.8059 65.4 38.8378 66.2984C38.896 66.2694 38.9573 66.237 39.0253 66.2046H39.0252Z" fill="#E2F5FC"/>
<path fill-rule="evenodd" clip-rule="evenodd" d="M40.2502 62.7198C42.8713 60.0791 44.1447 56.957 43.6178 53.1919C43.2074 50.2604 41.863 47.859 39.5164 46.0718C36.3782 43.6769 32.8974 43.1823 29.1612 44.4073C29.1548 44.4105 29.1483 44.4169 29.1419 44.4202C28.8477 44.6077 28.6182 45.0115 28.1948 44.7595C28.169 44.7434 28.1464 44.7305 28.1205 44.7112C28.0477 44.8004 27.9567 44.8731 27.8537 44.9243C27.7506 44.9756 27.6377 45.0043 27.5227 45.0084C27.5128 45.0471 27.4999 45.0827 27.4871 45.1216C27.2188 45.8745 26.4139 46.0718 25.8741 46.5242C24.4266 47.6987 23.3243 49.2433 22.6842 50.994C21.6565 53.8575 21.8666 56.663 23.2433 59.3713C23.4719 59.8106 23.7368 60.2301 24.0353 60.6254C24.1979 60.8407 24.2718 61.1102 24.242 61.3783V61.388C24.242 61.6694 24.4554 61.8211 24.6266 61.9956C25.1754 62.5888 25.7721 63.1359 26.4107 63.6311C26.4753 63.6763 26.5401 63.7248 26.6047 63.77C26.5562 62.4837 26.5066 61.1974 26.456 59.9111C26.4528 59.9111 26.4528 59.9079 26.4495 59.9079C25.3313 59.1742 24.5103 58.2369 24.3682 56.8407C24.1903 55.1182 24.9144 53.8446 26.3235 52.9171C26.33 52.9139 26.3364 52.9075 26.3429 52.9042C26.2993 52.013 26.4504 51.123 26.7856 50.296C27.862 47.5004 31.1133 45.6644 33.7926 46.3368C33.7944 46.3366 33.7962 46.3368 33.7978 46.3373C33.7995 46.3379 33.801 46.3388 33.8023 46.34C35.5799 46.6275 37.0407 47.439 38.0879 48.9288C38.9328 50.0757 39.35 51.482 39.2674 52.9041C40.276 53.6701 41.0905 54.5686 41.2229 55.897C41.4007 57.6842 40.638 58.9899 39.1351 59.9014V59.9175C39.0866 61.1521 39.0349 62.3867 38.9864 63.6245C39.0575 63.5923 39.1253 63.5601 39.1901 63.5245C39.5828 63.3124 39.9404 63.0409 40.2502 62.7196V62.7198Z" fill="#CDECF6"/>
<path fill-rule="evenodd" clip-rule="evenodd" d="M35.8964 52.7582C37.005 52.2119 38.0814 52.506 39.1511 52.8584C39.1898 52.8713 39.2319 52.8842 39.2707 52.8971C39.3541 51.4748 38.9368 50.0683 38.091 48.9218C37.0438 47.4318 35.583 46.6206 33.8054 46.333H33.7957C33.5307 46.3846 33.2366 46.2747 32.9102 46.4622C35.0951 48.2916 35.3955 50.638 34.9657 53.1943C35.0336 53.1621 35.0982 53.1331 35.166 53.1007C35.415 52.9876 35.6575 52.8777 35.8964 52.7582Z" fill="#FE6B3C"/>
<path fill-rule="evenodd" clip-rule="evenodd" d="M41.2292 55.8929C41.0967 54.5646 40.2822 53.6661 39.2738 52.9001C39.2352 52.8872 39.1931 52.8743 39.1543 52.8614C38.0811 52.509 37.0082 52.2149 35.8997 52.7612C35.6604 52.8807 35.4147 52.9938 35.1724 53.107C35.1047 53.1392 35.0399 53.1684 34.9721 53.2007C34.8105 53.3849 34.6617 53.5854 34.4872 53.7566C33.44 54.7779 33.2947 56.0415 33.5727 57.3797C33.9959 59.419 36.4846 61.1159 39.1285 59.9071C39.1317 59.9038 39.1382 59.9038 39.1414 59.9006C40.6443 58.986 41.4101 57.677 41.2292 55.8929ZM37.2766 59.4643C36.6702 59.4579 36.0793 59.2717 35.5788 58.9292C35.0783 58.5868 34.6907 58.1036 34.465 57.5407C34.2393 56.9779 34.1857 56.3607 34.311 55.7673C34.4363 55.174 34.7348 54.6311 35.1688 54.2076C35.6028 53.784 36.1527 53.4987 36.7489 53.3879C37.3451 53.277 37.9608 53.3456 38.518 53.5849C39.0753 53.8242 39.5489 54.2235 39.8791 54.7321C40.2093 55.2408 40.3811 55.836 40.3728 56.4424C40.3753 56.8463 40.2964 57.2465 40.1407 57.6192C39.9851 57.9919 39.7559 58.3293 39.4669 58.6114C39.1778 58.8935 38.8349 59.1144 38.4585 59.261C38.0822 59.4075 37.6801 59.4766 37.2764 59.4643H37.2766Z" fill="#FE6142"/>
<path fill-rule="evenodd" clip-rule="evenodd" d="M26.3334 52.9103C24.9242 53.8378 24.2002 55.1113 24.3781 56.8339C24.5202 58.2301 25.3412 59.1674 26.4594 59.9011C26.4627 59.9011 26.4627 59.9043 26.4659 59.9043C27.1262 60.1092 27.814 60.2116 28.5053 60.208C30.9164 60.1726 32.736 57.7098 32.0539 55.3763C31.398 53.1366 29.0127 51.6659 26.3592 52.8973C26.35 52.9002 26.3413 52.9046 26.3334 52.9102V52.9103ZM28.2596 59.4647C27.8535 59.4706 27.4503 59.3961 27.0731 59.2454C26.6959 59.0948 26.3523 58.871 26.062 58.5869C25.7717 58.3029 25.5405 57.9642 25.3817 57.5904C25.2228 57.2167 25.1395 56.8151 25.1366 56.409C25.1336 56.0029 25.211 55.6002 25.3643 55.2241C25.5177 54.848 25.7439 54.506 26.03 54.2178C26.3161 53.9295 26.6564 53.7007 27.0313 53.5445C27.4062 53.3884 27.8084 53.3079 28.2145 53.3079C28.6219 53.2998 29.027 53.3727 29.406 53.5224C29.7851 53.672 30.1307 53.8954 30.4227 54.1797C30.7148 54.4639 30.9475 54.8033 31.1074 55.1782C31.2673 55.553 31.3511 55.9559 31.3541 56.3635C31.3571 56.771 31.2792 57.175 31.1248 57.5522C30.9704 57.9294 30.7427 58.2722 30.4548 58.5606C30.167 58.8491 29.8247 59.0776 29.4479 59.2328C29.071 59.388 28.6671 59.4668 28.2596 59.4647Z" fill="#FE6143"/>
<path fill-rule="evenodd" clip-rule="evenodd" d="M31.0683 63.718C30.9488 63.5984 30.8614 63.4368 30.6612 63.4336C30.6223 64.636 31.7212 65.9094 32.8039 65.9126C33.9512 65.9158 34.9499 64.775 34.9466 63.466C34.5137 63.689 34.2389 64.1479 33.7412 64.2837C32.7489 64.5551 31.8376 64.4872 31.0683 63.7182V63.718Z" fill="#070909"/>
<path fill-rule="evenodd" clip-rule="evenodd" d="M35.0705 62.331C34.3433 62.8644 33.6483 63.3199 32.7563 63.3038C31.8836 63.2877 31.2373 62.7447 30.4648 62.2178C30.5488 62.7157 30.6071 63.0711 30.6653 63.4298C30.8656 63.4363 30.9529 63.5946 31.0725 63.7142C31.8385 64.4835 32.7531 64.5513 33.7453 64.2798C34.2431 64.1441 34.5178 63.6884 34.9508 63.4622C34.8344 63.0905 35.2255 62.7576 35.0705 62.331Z" fill="#FDFCFB"/>
<path fill-rule="evenodd" clip-rule="evenodd" d="M30.1967 48.4331C30.0836 48.4244 29.9699 48.439 29.8626 48.476C29.7553 48.513 29.6568 48.5717 29.5732 48.6484C29.4896 48.7251 29.4226 48.8181 29.3764 48.9217C29.3302 49.0254 29.3058 49.1374 29.3047 49.2509C29.3144 49.9102 29.6958 50.1978 30.2032 50.1914C30.4306 50.1893 30.6481 50.0981 30.8089 49.9373C30.9697 49.7765 31.0609 49.559 31.063 49.3316C31.0726 48.8274 30.8011 48.4202 30.1967 48.4331Z" fill="#FEA777"/>
<path fill-rule="evenodd" clip-rule="evenodd" d="M24.2442 61.3693C24.2741 61.1011 24.2001 60.8316 24.0375 60.6163C23.7402 60.2203 23.4754 59.8009 23.2455 59.3622C21.8688 56.6539 21.6555 53.8484 22.6864 50.9849C23.3266 49.2342 24.429 47.6896 25.8765 46.5151C26.4163 46.0627 27.221 45.8687 27.4893 45.1125C27.503 45.0754 27.5149 45.0375 27.5247 44.9994C27.2824 44.841 27.0819 44.6502 26.7329 44.8635C24.7022 46.0724 23.0965 47.8814 22.1371 50.0412C21.3516 51.7898 21.1835 53.6061 21.2741 55.4742C21.3869 57.5358 22.1153 59.5161 23.3653 61.1593C23.5883 61.463 23.8662 61.6538 24.2442 61.3791V61.3694V61.3693Z" fill="#FDFEFE"/>
<path fill-rule="evenodd" clip-rule="evenodd" d="M29.1372 44.4187C29.1437 44.4155 29.1501 44.409 29.1566 44.4058C29.1501 43.8789 28.8689 43.4717 28.368 43.5913C27.8702 43.711 27.8801 44.2054 28.0868 44.6387L28.1158 44.7063C28.1397 44.7241 28.1645 44.7402 28.1903 44.7548C28.6137 45.0102 28.8432 44.6031 29.1372 44.4187Z" fill="#FBFDFE"/>
<path fill-rule="evenodd" clip-rule="evenodd" d="M40.376 56.4442C40.3872 56.0403 40.3173 55.6383 40.1704 55.262C40.0236 54.8856 39.8027 54.5425 39.521 54.2529C39.2392 53.9633 38.9023 53.7332 38.5301 53.5761C38.1579 53.419 37.758 53.3381 37.3539 53.3382C36.9496 53.3301 36.5476 53.4021 36.1712 53.5501C35.7948 53.6981 35.4514 53.9191 35.1609 54.2005C34.8703 54.4818 34.6383 54.8179 34.4783 55.1893C34.3183 55.5608 34.2333 55.9602 34.2284 56.3646C34.2235 56.769 34.2987 57.1704 34.4497 57.5456C34.6006 57.9208 34.8244 58.2625 35.108 58.5508C35.3917 58.8391 35.7296 59.0684 36.1023 59.2255C36.475 59.3826 36.8751 59.4644 37.2795 59.4661C37.6831 59.4779 38.0848 59.4083 38.4609 59.2616C38.8371 59.1149 39.1798 58.8939 39.4687 58.6119C39.7576 58.33 39.9868 57.9927 40.1427 57.6203C40.2985 57.2479 40.3778 56.8479 40.3758 56.4442H40.376ZM37.4316 56.7803C37.3077 56.7926 37.1825 56.7786 37.0643 56.7392C36.9461 56.6999 36.8376 56.636 36.7458 56.5518C36.654 56.4676 36.581 56.365 36.5315 56.2507C36.4821 56.1363 36.4573 56.0128 36.4589 55.8883C36.4508 55.7585 36.4699 55.6284 36.5148 55.5064C36.5597 55.3843 36.6295 55.273 36.7198 55.1794C36.81 55.0857 36.9188 55.0119 37.0391 54.9626C37.1594 54.9133 37.2887 54.8895 37.4187 54.8928C37.9875 54.9347 38.3075 55.2678 38.3754 55.8625C38.2977 56.3925 38.0264 56.7706 37.4316 56.7803ZM28.2107 53.3092C27.8045 53.3093 27.4024 53.3897 27.0275 53.5459C26.6526 53.7021 26.3123 53.9309 26.0263 54.2192C25.7402 54.5074 25.514 54.8495 25.3606 55.2255C25.2073 55.6016 25.1299 56.0043 25.1329 56.4104C25.1359 56.8165 25.2192 57.2181 25.378 57.5918C25.5369 57.9656 25.7681 58.3043 26.0584 58.5883C26.3487 58.8723 26.6923 59.0961 27.0695 59.2468C27.4466 59.3974 27.8499 59.4719 28.2559 59.4661C28.6635 59.4682 29.0674 59.3893 29.4442 59.2341C29.821 59.0789 30.1633 58.8505 30.4512 58.562C30.739 58.2735 30.9668 57.9307 31.1211 57.5536C31.2755 57.1764 31.3534 56.7723 31.3505 56.3648C31.3475 55.9573 31.2636 55.5544 31.1037 55.1795C30.9438 54.8046 30.7111 54.4652 30.4191 54.181C30.127 53.8968 29.7814 53.6733 29.4024 53.5237C29.0233 53.374 28.6183 53.3011 28.2108 53.3092H28.2107ZM28.2139 56.7803C28.0896 56.7917 27.9644 56.7767 27.8463 56.7363C27.7282 56.6959 27.62 56.631 27.5288 56.5458C27.4376 56.4607 27.3654 56.3573 27.3169 56.2423C27.2684 56.1273 27.2448 56.0034 27.2476 55.8786C27.2407 55.7486 27.2611 55.6186 27.3074 55.4969C27.3537 55.3752 27.425 55.2645 27.5166 55.172C27.6082 55.0795 27.7182 55.0072 27.8394 54.9596C27.9606 54.9121 28.0904 54.8904 28.2205 54.896C28.3461 54.8977 28.4702 54.9242 28.5856 54.9738C28.7011 55.0235 28.8056 55.0954 28.8932 55.1854C28.9808 55.2755 29.0499 55.3819 29.0964 55.4986C29.1429 55.6153 29.1659 55.7401 29.1642 55.8657C29.093 56.412 28.7957 56.7739 28.214 56.7803H28.2139Z" fill="#FEFEFE"/>
<path fill-rule="evenodd" clip-rule="evenodd" d="M37.4132 54.8969C37.2831 54.893 37.1535 54.9164 37.033 54.9656C36.9124 55.0147 36.8034 55.0885 36.713 55.1822C36.6226 55.276 36.5528 55.3876 36.5081 55.5099C36.4633 55.6321 36.4446 55.7624 36.4532 55.8924C36.4514 56.017 36.476 56.1406 36.5253 56.2551C36.5747 56.3696 36.6477 56.4723 36.7396 56.5566C36.8315 56.6408 36.9401 56.7047 37.0585 56.744C37.1768 56.7832 37.3021 56.797 37.4261 56.7844C38.0175 56.7747 38.2922 56.3966 38.3699 55.8666C38.302 55.2718 37.982 54.9389 37.4132 54.8969Z" fill="#090B0B"/>
<path fill-rule="evenodd" clip-rule="evenodd" d="M28.2242 54.9003C28.0941 54.8947 27.9643 54.9163 27.8431 54.9639C27.7219 55.0114 27.6119 55.0838 27.5203 55.1763C27.4287 55.2688 27.3575 55.3794 27.3111 55.5011C27.2648 55.6228 27.2444 55.7528 27.2513 55.8829C27.2485 56.0076 27.2722 56.1316 27.3206 56.2466C27.3691 56.3616 27.4413 56.465 27.5326 56.5502C27.6238 56.6353 27.7321 56.7002 27.8501 56.7406C27.9682 56.781 28.0935 56.796 28.2178 56.7846C28.7995 56.7781 29.0968 56.416 29.168 55.87C29.113 55.272 28.7833 54.9456 28.2242 54.9003Z" fill="#090C0C"/>
</svg>
