<svg width="80" height="80" viewBox="0 0 80 80" fill="none" xmlns="http://www.w3.org/2000/svg">
<path fill-rule="evenodd" clip-rule="evenodd" d="M55.1324 33.647C53.405 33.1979 51.5866 33.9285 50.6504 35.4482C49.7288 36.9763 49.9205 38.9286 51.1218 40.2483C52.3231 41.5681 54.2487 41.942 55.8566 41.1678C56.0176 41.0928 56.1536 40.9263 56.3645 40.9984C56.4089 41.8615 56.2951 42.3361 55.926 42.819C54.9186 44.1372 53.0592 44.0012 52.113 42.5386C51.7411 41.9642 51.3174 41.8088 50.842 42.0724C50.3397 42.3528 50.2452 42.8467 50.5922 43.4489C51.0721 44.29 51.8369 44.9317 52.7485 45.2583C52.9122 45.3194 52.89 45.3194 53.1398 45.4138C53.4256 45.5247 54.3053 45.5525 54.7133 45.4776C54.8895 45.441 55.063 45.3918 55.2322 45.3304C56.9281 44.8452 58.114 43.3168 58.1628 41.5535C58.1933 40.1687 58.1989 38.7839 58.16 37.399C58.0947 35.6153 56.8621 34.0878 55.1324 33.647ZM51.8299 37.5463C51.8247 37.0959 51.9532 36.654 52.1992 36.2766C52.4452 35.8991 52.7976 35.6032 53.2118 35.4261C53.626 35.249 54.0835 35.1988 54.5262 35.2817C54.969 35.3647 55.3773 35.5771 55.6993 35.8922C56.0213 36.2072 56.2427 36.6107 56.3353 37.0515C56.428 37.4924 56.3878 37.9508 56.2198 38.3688C56.0519 38.7869 55.7637 39.1457 55.3918 39.3999C55.0199 39.6541 54.5809 39.7922 54.1305 39.7969C53.8315 39.8006 53.5348 39.7453 53.2572 39.6341C52.9797 39.523 52.7268 39.3581 52.5131 39.1491C52.2994 38.94 52.129 38.6908 52.0118 38.4158C51.8946 38.1407 51.8328 37.8453 51.8299 37.5463ZM66.7852 36.3501C66.1747 34.463 64.296 33.2641 62.3727 33.5471C60.4155 33.8246 58.9476 35.4796 58.9061 37.4562C58.8645 39.4327 60.2618 41.1479 62.2057 41.5073C64.1497 41.8665 66.0676 40.7639 66.7353 38.9033C66.8525 38.6267 66.9355 38.3368 66.9824 38.0401C67.0182 37.6484 67.0014 37.2535 66.9323 36.8662C66.892 36.6918 66.8429 36.5195 66.7852 36.3501ZM62.8972 39.7968C61.6595 39.7719 60.6738 38.7529 60.6903 37.515C60.7066 36.2771 61.7188 35.2845 62.9567 35.2923C64.1947 35.3 65.1943 36.3054 65.1951 37.5434C65.1928 37.8424 65.1315 38.1381 65.0147 38.4133C64.8979 38.6886 64.7279 38.9381 64.5144 39.1475C64.3009 39.3568 64.0481 39.522 63.7706 39.6334C63.4931 39.7448 63.1963 39.8004 62.8973 39.7968H62.8972ZM44.5701 36.6831C44.4577 36.1388 44.2318 35.6244 43.9069 35.1736C43.582 34.7227 43.1655 34.3456 42.6848 34.0668C42.204 33.788 41.6698 33.614 41.1172 33.556C40.5645 33.498 40.0058 33.5574 39.4776 33.7303C38.9414 33.8931 38.4451 34.166 38.0202 34.5314C37.5954 34.8968 37.2513 35.3467 37.01 35.8525C36.7688 36.3583 36.6356 36.9088 36.619 37.469C36.6023 38.0291 36.7026 38.5866 36.9135 39.1058C37.782 41.2205 40.4128 42.189 42.4859 41.1539C42.7301 41.0317 42.9133 40.8541 43.1492 41.2205C43.2485 41.3767 43.4021 41.4907 43.5804 41.5404C43.7587 41.5901 43.9491 41.572 44.1149 41.4897C44.2869 41.4282 44.4338 41.3116 44.5327 41.1581C44.6316 41.0045 44.6769 40.8225 44.6617 40.6405C44.6589 40.066 44.6617 39.4915 44.6617 38.77C44.6256 38.1705 44.7366 37.4186 44.5701 36.6831ZM40.6487 39.7968C39.3555 39.7801 38.3398 38.7727 38.3759 37.5434C38.4354 36.2975 39.4571 35.3149 40.7043 35.3038C41.0024 35.3095 41.2964 35.3745 41.5691 35.4949C41.8419 35.6153 42.0879 35.7888 42.293 36.0052C42.498 36.2217 42.658 36.4767 42.7635 36.7556C42.8691 37.0344 42.9181 37.3315 42.9077 37.6295C42.8938 38.8921 41.9336 39.8134 40.6487 39.7968Z" fill="black"/>
<path fill-rule="evenodd" clip-rule="evenodd" d="M50.3236 34.3388C50.2792 33.7587 49.7908 33.4618 49.0332 33.5451C47.2369 33.7244 45.7766 35.0715 45.4532 36.8475C45.32 37.5413 45.4226 38.249 45.3921 38.8318C45.3921 39.4589 45.3893 39.9696 45.3921 40.4802C45.3977 41.1824 45.7085 41.5708 46.2635 41.5764C46.8186 41.5848 47.1572 41.1907 47.1655 40.4996C47.1738 39.5228 47.1572 38.5432 47.171 37.5663C47.1877 36.3452 48.0341 35.3739 49.2413 35.324C49.9572 35.2934 50.3596 34.8189 50.3236 34.3388Z" fill="#010101"/>
<path fill-rule="evenodd" clip-rule="evenodd" d="M20.4437 47.3009C20.4458 47.3009 20.448 47.3074 20.448 47.3203L20.4544 47.5897C20.4674 47.5207 20.4804 47.4518 20.4954 47.3806C20.4847 47.2493 20.3813 47.3161 20.4438 47.3009H20.4437ZM26.0976 39.932C26.0954 39.9342 26.0911 39.9342 26.089 39.9363C26.0911 39.9385 26.0954 39.9406 26.0976 39.9428C26.0954 39.9406 26.0976 39.9363 26.0976 39.932ZM22.5359 30.8867V30.8889H22.5424C22.5402 30.8889 22.5381 30.8867 22.5359 30.8867Z" fill="#FEFEFE"/>
<path fill-rule="evenodd" clip-rule="evenodd" d="M25.5632 49.0534C25.5912 48.741 25.5761 48.4242 25.615 48.114C25.7011 47.431 25.6193 46.7329 25.7981 46.0585C25.8864 45.7094 25.6041 45.3001 25.9661 44.9941L25.8757 44.6967C25.8375 44.6193 25.8186 44.5339 25.8205 44.4476C25.8223 44.3614 25.845 44.2768 25.8864 44.2012C25.8652 43.6023 25.9013 43.0027 25.9942 42.4107C26.0264 41.5875 26.061 40.7645 26.0933 39.9392C26.0912 39.9371 26.0869 39.9349 26.0847 39.9328C24.3243 40.7408 22.6652 39.6096 22.383 38.2522C22.1977 37.3602 22.2967 36.5177 22.9927 35.8368C23.109 35.7226 23.2082 35.5911 23.3159 35.4662C23.6003 33.7619 23.4021 32.1976 21.9456 30.978C22.1632 30.8531 22.3592 30.9241 22.536 30.8919V30.8897C20.7498 30.4416 18.5821 31.6632 17.8646 33.5291C17.6415 34.0805 17.5408 34.6738 17.5694 35.268C19.3406 34.4471 20.9285 35.4274 21.3659 36.9206C21.8206 38.4741 20.6097 40.1181 19.0002 40.1418C18.5393 40.144 18.0808 40.0758 17.6405 39.9392C17.6729 40.7968 17.706 41.6544 17.7397 42.512C17.8186 43.0714 17.8525 43.6363 17.841 44.2012L17.8539 44.6019L17.841 44.8691C17.953 45.4107 18.02 45.9605 18.0413 46.5131C18.0374 46.499 18.0346 46.4847 18.0327 46.4701C18.0349 46.4852 18.0392 46.4981 18.0413 46.5131C18.0844 47.4505 18.1103 48.3898 18.1771 49.3271C18.205 49.7149 18.0651 49.9089 17.7074 50.008C17.285 50.1266 16.8691 50.2687 16.4512 50.4023C17.0028 50.4717 17.5591 50.4962 18.1146 50.4756C18.7114 50.4627 18.9829 50.1977 19.0411 49.6051C19.0776 49.2281 19.1101 48.851 19.1446 48.474L19.2609 46.4227H19.3449V48.3726C19.3556 48.6678 19.3599 48.9651 19.3793 49.2603C19.4655 50.6371 19.5065 50.6285 18.1339 50.9065C18.1025 50.9163 18.0722 50.9292 18.0435 50.9452C18.1253 50.9991 18.2072 51.0531 18.289 51.109C18.3143 51.1131 18.3363 51.128 18.3494 51.15C18.6769 51.1521 19.0066 51.1801 19.3297 51.15C19.918 51.094 20.196 50.7794 20.2391 50.1954C20.2648 49.8205 20.3037 49.4456 20.3361 49.0707C20.3026 48.5757 20.3418 48.0784 20.4524 47.5947L20.446 47.3254C20.446 47.3125 20.4417 47.3039 20.4417 47.3061C20.3791 47.3211 20.4825 47.2543 20.4932 47.3858C20.5041 47.3276 20.517 47.2695 20.5278 47.2112V49.4694C20.5343 49.7344 20.5429 49.9972 20.5472 50.2622C20.5579 51.2211 20.4976 51.3072 19.584 51.5809C19.3319 51.6563 19.069 51.7016 18.8192 51.7856C18.6382 51.8481 18.4076 51.8136 18.2374 52.0269C18.9807 51.999 19.6767 52.0829 20.3683 51.9709C21.0837 51.8545 21.3681 51.5659 21.5146 50.8677C21.6223 50.3549 21.6676 49.8271 21.8637 49.3078C21.8858 49.3432 21.9046 49.3807 21.9197 49.4198C22.0188 49.9046 22.1179 50.3916 22.2127 50.8764C22.3464 51.555 22.6221 51.8438 23.3116 51.9645C24.0248 52.0872 24.7466 52.0032 25.4856 52.0204C25.38 51.8395 25.2142 51.8697 25.0807 51.8308C24.6217 51.6973 24.154 51.5831 23.7037 51.428C23.3762 51.3138 23.1414 51.1046 23.1457 50.7018C23.1564 49.5986 23.15 48.4954 23.15 47.3923H23.2836C23.331 48.0839 23.3871 48.7734 23.4237 49.4651C23.5077 51.0638 23.6973 51.2384 25.3025 51.15C25.393 50.9991 25.615 51.1177 25.6989 50.9561C25.3132 50.9539 24.9771 50.7686 24.6238 50.6501C24.5285 50.6173 24.4468 50.5538 24.3914 50.4696C24.3361 50.3854 24.3102 50.2852 24.3179 50.1847C24.335 49.0514 24.292 47.9138 24.4449 46.7847C24.5375 47.7327 24.6108 48.6828 24.6841 49.6309C24.7185 50.0748 24.919 50.4218 25.3844 50.4518C26.0135 50.495 26.6448 50.4626 27.2761 50.4626C26.9479 50.3102 26.6078 50.1848 26.2592 50.0877C25.4878 49.84 25.4922 49.8378 25.5632 49.0535V49.0534ZM20.711 32.887C20.7096 33.0386 20.6488 33.1836 20.5416 33.2908C20.4344 33.398 20.2894 33.4589 20.1378 33.4602C19.7995 33.4667 19.5452 33.2728 19.5388 32.8332C19.5402 32.7578 19.557 32.6834 19.588 32.6147C19.6191 32.5459 19.6638 32.4842 19.7194 32.4332C19.775 32.3823 19.8403 32.3431 19.9115 32.3182C19.9827 32.2932 20.0582 32.283 20.1335 32.288C20.5364 32.2816 20.7174 32.553 20.711 32.887ZM23.3009 42.3115C23.3031 43.1841 22.635 43.9448 21.8723 43.9426C21.1526 43.9405 20.4178 43.0915 20.4438 42.2899C20.4049 42.053 20.364 41.8139 20.3102 41.482C20.8252 41.8332 21.2582 42.1931 21.8378 42.206C22.4304 42.2168 22.8958 41.9129 23.3806 41.5574C23.4839 41.8418 23.2232 42.0637 23.3008 42.3115H23.3009Z" fill="#FE733E"/>
<path fill-rule="evenodd" clip-rule="evenodd" d="M17.8405 44.1969C17.7975 44.1818 17.7565 44.1624 17.7156 44.1472C17.138 43.8948 16.6059 43.5491 16.1406 43.1238C14.4298 41.6457 13.3007 39.7948 13.0271 37.5497C12.7168 34.9986 13.2878 32.6436 14.99 30.6202C16.5435 28.7759 18.5236 27.7008 20.8872 27.453C23.5138 27.1794 25.8732 27.9141 27.8597 29.7283C29.4815 31.1681 30.5061 33.1626 30.7318 35.3196C30.9647 37.171 30.5807 39.0476 29.6395 40.6589C28.7625 42.1564 27.5947 43.3717 26.0154 44.1408C25.9722 44.1623 25.9291 44.1839 25.8861 44.2033C25.8441 44.2788 25.8211 44.3634 25.8193 44.4497C25.8174 44.5361 25.8366 44.6216 25.8753 44.6988C25.909 44.6625 25.9465 44.6301 25.9874 44.6019C28.3725 43.3393 30.0273 41.4626 30.8009 38.8511C30.8676 38.6292 30.9711 38.5193 31.2188 38.5452C31.555 38.5796 31.6455 38.3556 31.6455 38.0754C31.6476 37.0003 31.6483 35.9258 31.6476 34.8521C31.6476 34.6215 31.5915 34.3673 31.3524 34.3414C30.9128 34.2897 30.859 33.9686 30.7706 33.6562C30.2843 31.8754 29.2353 30.2996 27.78 29.1639C24.7419 26.7785 21.4065 26.3475 17.9073 27.9594C15.3067 29.1552 13.6497 31.2301 12.8999 34.0075C12.8525 34.1798 12.8741 34.3846 12.581 34.3242C12.163 34.238 12.0057 34.4836 12.0036 34.8542C11.9971 35.9295 12.0014 37.0024 12.0014 38.0776C12.0014 38.4353 12.1824 38.6249 12.5271 38.5409C12.8439 38.4632 12.9192 38.6206 12.984 38.8619C13.2641 39.8834 13.7325 40.8436 14.3651 41.6931C15.2916 42.9493 16.4206 43.9576 17.8557 44.5998C17.8514 44.4662 17.8471 44.3304 17.8406 44.1969H17.8405Z" fill="#B5D2F3"/>
<path fill-rule="evenodd" clip-rule="evenodd" d="M17.8407 44.8672C17.5219 45.7614 16.673 45.7398 15.9512 45.964C16.4941 46.1039 17.0458 46.2655 17.5887 46.1729C17.9118 46.1168 17.9743 46.2332 18.0217 46.425C18.026 46.4401 18.0282 46.4551 18.0325 46.4701C18.0346 46.4831 18.0389 46.4983 18.0411 46.5133C18.0198 45.96 17.9528 45.4094 17.8408 44.8672H17.8407Z" fill="#FE684B"/>
<path fill-rule="evenodd" clip-rule="evenodd" d="M25.7973 46.0586C26.4868 46.371 27.1375 46.0564 27.8033 45.9659C27.1525 45.6901 26.3102 45.8324 25.9675 44.9941C25.6033 45.3001 25.8856 45.7096 25.7973 46.0586Z" fill="#FE6446"/>
<path fill-rule="evenodd" clip-rule="evenodd" d="M20.5276 47.2051C20.5168 47.2632 20.5039 47.3214 20.4931 47.3795C20.4802 47.4485 20.4651 47.5175 20.4522 47.5886C20.3415 48.0722 20.3023 48.5695 20.3358 49.0645C20.4974 49.1485 20.3788 49.3705 20.5276 49.4609V47.2051Z" fill="#FED6C8"/>
<path fill-rule="evenodd" clip-rule="evenodd" d="M19.2609 46.4141L19.1445 48.4654C19.2113 48.4309 19.2781 48.3986 19.3449 48.3641V46.4141H19.2609Z" fill="#FEEBE3"/>
<path fill-rule="evenodd" clip-rule="evenodd" d="M17.2344 51.1426H18.3462C18.3269 51.1297 18.3054 51.1167 18.2859 51.1017C18.2035 51.0478 18.1216 50.9932 18.0403 50.9379C17.7581 50.9316 17.4795 51.0023 17.2344 51.1426Z" fill="#FE9166"/>
<path fill-rule="evenodd" clip-rule="evenodd" d="M25.2988 51.1425H26.3806C26.1826 50.9981 25.9395 50.9293 25.6952 50.9485C25.6113 51.1123 25.3872 50.9917 25.2988 51.1425Z" fill="#FE8F64"/>
<path fill-rule="evenodd" clip-rule="evenodd" d="M26.0161 44.1364C27.5956 43.3694 28.7612 42.1541 29.6403 40.6544C30.5816 39.0432 30.9655 37.1667 30.7328 35.3153C30.5089 33.1577 29.484 31.1626 27.8606 29.724C25.874 27.9118 23.5146 27.1749 20.8882 27.4507C18.5266 27.6964 16.5444 28.7737 14.9907 30.618C13.2866 32.6413 12.7178 34.9964 13.028 37.5475C13.3016 39.7947 14.4307 41.6435 16.1415 43.1216C16.607 43.5466 17.1391 43.8923 17.7165 44.145C17.7575 44.1622 17.7984 44.1795 17.8416 44.1946C17.8531 43.6297 17.8192 43.0648 17.7403 42.5053C17.6972 42.4752 17.6541 42.445 17.6109 42.4127C17.1848 42.0831 16.7869 41.7184 16.4216 41.3224C16.3074 41.206 16.1652 41.107 16.1652 40.9174C15.911 41.1004 15.7278 40.9734 15.5792 40.7709C14.7447 39.6761 14.2589 38.3555 14.1851 36.9808C14.1248 35.7354 14.2368 34.5244 14.7604 33.3588C15.4 31.919 16.4704 30.713 17.8242 29.907C18.0569 29.7648 18.1905 29.892 18.352 29.9976C18.4287 29.9946 18.5039 29.9753 18.5726 29.9412C18.6413 29.907 18.702 29.8586 18.7507 29.7993L18.7314 29.7541C18.5934 29.4632 18.587 29.1335 18.9188 29.0559C19.2528 28.9762 19.4424 29.2477 19.4445 29.5989C21.9375 28.7802 24.2559 29.112 26.3481 30.7086C27.9123 31.9023 28.8087 33.5032 29.0823 35.4552C29.4357 37.9655 28.5867 40.0469 26.8372 41.8072C26.6306 42.019 26.3939 42.1991 26.1346 42.3416C26.0895 42.3652 26.0442 42.3868 25.999 42.4084C25.906 43.0004 25.87 43.6 25.8912 44.1989C25.93 44.1796 25.9709 44.158 26.0162 44.1364H26.0161Z" fill="#E2F5FC"/>
<path fill-rule="evenodd" clip-rule="evenodd" d="M26.8341 41.8132C28.5815 40.0528 29.4305 37.9714 29.0792 35.4612C28.8056 33.5069 27.9093 31.906 26.3449 30.7145C24.2528 29.1179 21.9322 28.7882 19.4415 29.6048C19.4372 29.607 19.4329 29.6113 19.4286 29.6134C19.2324 29.7385 19.0795 30.0077 18.7972 29.8397C18.78 29.8289 18.7649 29.8203 18.7476 29.8074C18.6991 29.8669 18.6385 29.9154 18.5698 29.9496C18.501 29.9837 18.4258 30.0028 18.3491 30.0056C18.3425 30.0314 18.3339 30.0552 18.3254 30.081C18.1465 30.583 17.6099 30.7145 17.2501 31.0161C16.2851 31.7991 15.5502 32.8289 15.1234 33.996C14.4383 35.905 14.5784 37.7753 15.4962 39.5809C15.6486 39.8738 15.8252 40.1534 16.0242 40.4169C16.1326 40.5605 16.1819 40.7401 16.162 40.9189V40.9253C16.162 41.1129 16.3042 41.2141 16.4184 41.3304C16.7843 41.7259 17.1821 42.0906 17.6078 42.4208C17.6509 42.4508 17.694 42.4832 17.7371 42.5134C17.7048 41.6558 17.6717 40.7983 17.638 39.9407C17.6358 39.9407 17.6358 39.9386 17.6337 39.9386C16.8882 39.4495 16.3409 38.8246 16.2461 37.8938C16.1275 36.7455 16.6103 35.8964 17.5497 35.2781C17.554 35.2759 17.5583 35.2716 17.5626 35.2695C17.5335 34.6753 17.6343 34.082 17.8578 33.5307C18.5753 31.6669 20.7429 30.4429 22.5291 30.8912C22.5302 30.8911 22.5314 30.8912 22.5325 30.8916C22.5337 30.8919 22.5347 30.8926 22.5355 30.8934C23.7206 31.085 24.6945 31.626 25.3926 32.6192C25.9558 33.3838 26.234 34.3213 26.1789 35.2694C26.8513 35.7801 27.3943 36.3791 27.4826 37.2646C27.6011 38.4562 27.0927 39.3266 26.0907 39.9343V39.945C26.0584 40.7681 26.0239 41.5911 25.9916 42.4164C26.039 42.3949 26.0842 42.3734 26.1274 42.3496C26.3892 42.2083 26.6276 42.0273 26.8341 41.8131V41.8132Z" fill="#CDECF6"/>
<path fill-rule="evenodd" clip-rule="evenodd" d="M23.9303 35.1721C24.6694 34.8079 25.3869 35.004 26.1001 35.2389C26.1259 35.2475 26.1539 35.2561 26.1798 35.2647C26.2354 34.3165 25.9572 33.3788 25.3934 32.6145C24.6952 31.6212 23.7214 31.0804 22.5363 30.8887H22.5298C22.3531 30.923 22.1571 30.8498 21.9395 30.9748C23.3961 32.1944 23.5963 33.7587 23.3098 35.4629C23.3551 35.4414 23.3981 35.4221 23.4434 35.4005C23.6093 35.3251 23.771 35.2518 23.9303 35.1721Z" fill="#FE6B3C"/>
<path fill-rule="evenodd" clip-rule="evenodd" d="M27.4855 37.262C27.3972 36.3764 26.8541 35.7774 26.1819 35.2667C26.1561 35.2581 26.1281 35.2495 26.1022 35.2409C25.3868 35.006 24.6714 34.81 23.9325 35.1741C23.773 35.2538 23.6092 35.3292 23.4476 35.4046C23.4025 35.4261 23.3593 35.4456 23.3141 35.4672C23.2063 35.5899 23.1072 35.7236 22.9908 35.8378C22.2927 36.5186 22.1958 37.361 22.3811 38.2531C22.6633 39.6127 24.3224 40.7439 26.085 39.938C26.0872 39.9359 26.0915 39.9359 26.0936 39.9337C27.0955 39.324 27.6061 38.4513 27.4855 37.262ZM24.8504 39.6428C24.4461 39.6386 24.0522 39.5144 23.7186 39.2862C23.3849 39.0579 23.1265 38.7357 22.976 38.3605C22.8255 37.9852 22.7898 37.5738 22.8733 37.1782C22.9568 36.7826 23.1559 36.4208 23.4452 36.1384C23.7345 35.856 24.1011 35.6658 24.4986 35.5919C24.8961 35.518 25.3066 35.5637 25.678 35.7233C26.0495 35.8828 26.3653 36.149 26.5854 36.4881C26.8055 36.8272 26.9201 37.224 26.9145 37.6283C26.9162 37.8975 26.8636 38.1643 26.7598 38.4128C26.6561 38.6612 26.5033 38.8862 26.3106 39.0743C26.1179 39.2623 25.8893 39.4096 25.6384 39.5073C25.3875 39.605 25.1194 39.6511 24.8503 39.6428H24.8504Z" fill="#FE6142"/>
<path fill-rule="evenodd" clip-rule="evenodd" d="M17.5556 35.2736C16.6161 35.8919 16.1335 36.7408 16.2521 37.8893C16.3468 38.8201 16.8941 39.445 17.6396 39.934C17.6418 39.934 17.6418 39.9362 17.6439 39.9362C18.0841 40.0728 18.5427 40.1411 19.0036 40.1387C20.6109 40.1151 21.824 38.4732 21.3693 36.9175C20.932 35.4244 19.3418 34.444 17.5728 35.2649C17.5667 35.2668 17.5609 35.2697 17.5556 35.2735V35.2736ZM18.8397 39.6431C18.569 39.6471 18.3002 39.5974 18.0487 39.4969C17.7973 39.3965 17.5682 39.2473 17.3747 39.058C17.1812 38.8686 17.027 38.6428 16.9211 38.3936C16.8152 38.1444 16.7597 37.8768 16.7577 37.606C16.7557 37.3353 16.8073 37.0668 16.9096 36.8161C17.0118 36.5654 17.1626 36.3373 17.3533 36.1452C17.5441 35.953 17.7709 35.8005 18.0209 35.6964C18.2708 35.5922 18.5389 35.5386 18.8097 35.5386C19.0813 35.5332 19.3513 35.5818 19.604 35.6816C19.8567 35.7813 20.0871 35.9303 20.2818 36.1198C20.4765 36.3093 20.6317 36.5355 20.7383 36.7854C20.8448 37.0354 20.9008 37.3039 20.9027 37.5756C20.9047 37.8473 20.8528 38.1167 20.7499 38.3681C20.6469 38.6196 20.4951 38.8481 20.3032 39.0404C20.1113 39.2328 19.8831 39.3851 19.6319 39.4885C19.3807 39.592 19.1114 39.6445 18.8397 39.6431Z" fill="#FE6143"/>
<path fill-rule="evenodd" clip-rule="evenodd" d="M20.7116 42.4787C20.6319 42.399 20.5736 42.2912 20.4401 42.2891C20.4142 43.0906 21.1468 43.9396 21.8686 43.9417C22.6335 43.9439 23.2992 43.1833 23.2971 42.3107C23.0085 42.4593 22.8253 42.7653 22.4935 42.8558C21.832 43.0367 21.2244 42.9915 20.7116 42.4788V42.4787Z" fill="#070909"/>
<path fill-rule="evenodd" clip-rule="evenodd" d="M23.381 41.554C22.8962 41.9096 22.4329 42.2133 21.8382 42.2025C21.2564 42.1918 20.8255 41.8298 20.3105 41.4785C20.3665 41.8104 20.4054 42.0474 20.4442 42.2865C20.5777 42.2908 20.6359 42.3964 20.7156 42.4761C21.2263 42.989 21.836 43.0342 22.4975 42.8532C22.8294 42.7627 23.0125 42.459 23.3012 42.3081C23.2236 42.0603 23.4843 41.8384 23.381 41.554Z" fill="#FDFCFB"/>
<path fill-rule="evenodd" clip-rule="evenodd" d="M20.1318 32.2888C20.0564 32.2829 19.9806 32.2926 19.9091 32.3173C19.8375 32.342 19.7719 32.3811 19.7161 32.4323C19.6604 32.4834 19.6157 32.5454 19.5849 32.6145C19.5541 32.6836 19.5378 32.7583 19.5371 32.8339C19.5436 33.2735 19.7978 33.4652 20.1361 33.4609C20.2877 33.4596 20.4327 33.3987 20.5399 33.2915C20.6471 33.1843 20.7079 33.0393 20.7093 32.8877C20.7157 32.5516 20.5347 32.2802 20.1318 32.2888Z" fill="#FEA777"/>
<path fill-rule="evenodd" clip-rule="evenodd" d="M16.1628 40.9128C16.1827 40.734 16.1334 40.5544 16.025 40.4109C15.8268 40.1468 15.6502 39.8672 15.497 39.5748C14.5792 37.7693 14.437 35.8989 15.1243 33.99C15.5511 32.8228 16.286 31.7931 17.251 31.0101C17.6109 30.7084 18.1473 30.5791 18.3262 30.075C18.3353 30.0503 18.3433 30.025 18.3498 29.9996C18.1883 29.894 18.0546 29.7668 17.822 29.909C16.4682 30.7149 15.3977 31.9209 14.7581 33.3608C14.2344 34.5265 14.1224 35.7374 14.1827 36.9828C14.2579 38.3572 14.7435 39.6774 15.5768 40.7729C15.7255 40.9754 15.9108 41.1025 16.1628 40.9194V40.9129V40.9128Z" fill="#FDFEFE"/>
<path fill-rule="evenodd" clip-rule="evenodd" d="M19.4242 29.6125C19.4285 29.6103 19.4328 29.606 19.4371 29.6039C19.4328 29.2526 19.2453 28.9812 18.9113 29.0609C18.5795 29.1407 18.5861 29.4703 18.7239 29.7591L18.7432 29.8042C18.7591 29.816 18.7757 29.8268 18.7929 29.8366C19.0752 30.0068 19.2281 29.7354 19.4242 29.6125Z" fill="#FBFDFE"/>
<path fill-rule="evenodd" clip-rule="evenodd" d="M26.918 37.6295C26.9254 37.3602 26.8788 37.0922 26.7809 36.8413C26.683 36.5904 26.5358 36.3616 26.348 36.1686C26.1602 35.9756 25.9355 35.8221 25.6874 35.7174C25.4392 35.6127 25.1726 35.5587 24.9033 35.5588C24.6337 35.5534 24.3657 35.6014 24.1148 35.7001C23.8639 35.7987 23.6349 35.9461 23.4412 36.1336C23.2475 36.3212 23.0929 36.5453 22.9862 36.7929C22.8795 37.0405 22.8229 37.3068 22.8196 37.5764C22.8163 37.846 22.8665 38.1136 22.9671 38.3638C23.0677 38.6139 23.2169 38.8416 23.406 39.0339C23.5951 39.2261 23.8204 39.3789 24.0688 39.4837C24.3173 39.5884 24.584 39.6429 24.8537 39.644C25.1227 39.6519 25.3905 39.6056 25.6413 39.5077C25.892 39.4099 26.1205 39.2626 26.3131 39.0746C26.5057 38.8866 26.6585 38.6618 26.7624 38.4135C26.8663 38.1653 26.9192 37.8986 26.9179 37.6295H26.918ZM24.9551 37.8535C24.8724 37.8617 24.789 37.8524 24.7102 37.8262C24.6314 37.7999 24.5591 37.7573 24.4978 37.7012C24.4366 37.6451 24.388 37.5767 24.355 37.5004C24.322 37.4242 24.3055 37.3419 24.3066 37.2589C24.3012 37.1723 24.3139 37.0856 24.3438 37.0043C24.3738 36.9229 24.4203 36.8486 24.4805 36.7862C24.5407 36.7238 24.6132 36.6746 24.6934 36.6417C24.7736 36.6088 24.8598 36.593 24.9465 36.5952C25.3257 36.6231 25.539 36.8452 25.5842 37.2417C25.5325 37.595 25.3516 37.8471 24.9551 37.8535ZM18.8078 35.5395C18.537 35.5395 18.2689 35.5932 18.019 35.6973C17.7691 35.8014 17.5422 35.9539 17.3515 36.1461C17.1608 36.3383 17.01 36.5663 16.9077 36.817C16.8055 37.0677 16.7539 37.3362 16.7559 37.607C16.7579 37.8777 16.8134 38.1454 16.9193 38.3946C17.0252 38.6437 17.1794 38.8695 17.3729 39.0589C17.5664 39.2482 17.7955 39.3974 18.047 39.4978C18.2984 39.5983 18.5672 39.648 18.8379 39.644C19.1096 39.6454 19.3789 39.5929 19.6301 39.4894C19.8813 39.386 20.1095 39.2336 20.3014 39.0413C20.4933 38.849 20.6452 38.6205 20.7481 38.369C20.851 38.1176 20.903 37.8482 20.901 37.5765C20.899 37.3048 20.8431 37.0363 20.7365 36.7863C20.6299 36.5364 20.4747 36.3102 20.28 36.1207C20.0853 35.9312 19.8549 35.7822 19.6022 35.6825C19.3495 35.5827 19.0795 35.5341 18.8079 35.5395H18.8078ZM18.8099 37.8535C18.7271 37.8611 18.6436 37.8511 18.5648 37.8242C18.4861 37.7972 18.414 37.754 18.3532 37.6972C18.2924 37.6405 18.2442 37.5715 18.2119 37.4949C18.1796 37.4182 18.1639 37.3356 18.1657 37.2524C18.1611 37.1657 18.1747 37.079 18.2056 36.9979C18.2365 36.9168 18.284 36.843 18.3451 36.7813C18.4061 36.7197 18.4794 36.6714 18.5602 36.6397C18.641 36.6081 18.7276 36.5936 18.8143 36.5974C18.8981 36.5985 18.9808 36.6161 19.0577 36.6492C19.1347 36.6823 19.2044 36.7302 19.2628 36.7903C19.3212 36.8503 19.3672 36.9213 19.3982 36.9991C19.4292 37.0769 19.4446 37.1601 19.4435 37.2438C19.396 37.608 19.1978 37.8492 18.81 37.8535H18.8099Z" fill="#FEFEFE"/>
<path fill-rule="evenodd" clip-rule="evenodd" d="M24.9421 36.5979C24.8554 36.5954 24.769 36.611 24.6886 36.6437C24.6082 36.6765 24.5356 36.7257 24.4753 36.7882C24.4151 36.8507 24.3685 36.925 24.3387 37.0066C24.3089 37.0881 24.2964 37.175 24.3021 37.2616C24.3009 37.3447 24.3173 37.4271 24.3502 37.5034C24.3831 37.5797 24.4318 37.6482 24.4931 37.7044C24.5543 37.7606 24.6268 37.8031 24.7056 37.8293C24.7845 37.8555 24.8681 37.8647 24.9507 37.8563C25.345 37.8498 25.5281 37.5977 25.5799 37.2444C25.5347 36.8479 25.3213 36.626 24.9421 36.5979Z" fill="#090B0B"/>
<path fill-rule="evenodd" clip-rule="evenodd" d="M18.8155 36.6002C18.7288 36.5965 18.6422 36.6109 18.5614 36.6426C18.4806 36.6743 18.4073 36.7225 18.3462 36.7842C18.2852 36.8459 18.2377 36.9196 18.2068 37.0008C18.1759 37.0819 18.1623 37.1686 18.1669 37.2552C18.165 37.3384 18.1808 37.421 18.2131 37.4977C18.2454 37.5744 18.2936 37.6434 18.3544 37.7001C18.4152 37.7569 18.4874 37.8001 18.5661 37.8271C18.6448 37.854 18.7283 37.864 18.8112 37.8564C19.199 37.8521 19.3972 37.6107 19.4447 37.2466C19.408 36.848 19.1882 36.6304 18.8155 36.6002Z" fill="#090C0C"/>
</svg>
