<svg width="120" height="120" viewBox="0 0 120 120" fill="none" xmlns="http://www.w3.org/2000/svg">
<g clip-path="url(#clip0_688_16637)">
<path d="M46.3145 55.6428C46.3145 56.4148 46.3982 57.0406 46.5441 57.4995C46.7294 58.0159 46.9525 58.5179 47.2115 59.0014C47.3159 59.1683 47.3574 59.3351 47.3574 59.4813C47.3574 59.6897 47.2324 59.8984 46.9612 60.1071L45.6471 60.9832C45.4594 61.1084 45.2716 61.171 45.1045 61.171C44.8961 61.171 44.6874 61.0666 44.4787 60.8788C44.1976 60.5768 43.9462 60.2485 43.7279 59.8984C43.5192 59.5441 43.3105 59.1474 43.0811 58.6677C41.454 60.5867 39.4095 61.5465 36.9481 61.5465C35.1959 61.5465 33.7982 61.0457 32.7759 60.0446C31.7539 59.043 31.2324 57.708 31.2324 56.0392C31.2324 54.2662 31.8582 52.8268 33.1308 51.742C34.403 50.6573 36.0929 50.1149 38.2415 50.1149C38.9508 50.1149 39.6809 50.1774 40.4527 50.2817C41.2246 50.3861 42.0173 50.5529 42.8518 50.7407V49.2179C42.8518 47.6323 42.5178 46.5269 41.8711 45.8802C41.2037 45.2334 40.0771 44.9204 38.4709 44.9204C37.7408 44.9204 36.9899 45.0041 36.218 45.1919C35.4462 45.3794 34.6951 45.609 33.965 45.9011C33.6313 46.047 33.381 46.1304 33.2349 46.1723C33.0889 46.2141 32.9846 46.2348 32.9012 46.2348C32.609 46.2348 32.4631 46.0261 32.4631 45.5881V44.5658C32.4631 44.2321 32.505 43.9818 32.609 43.8359C32.7134 43.6897 32.9012 43.5438 33.1933 43.3979C33.9234 43.0223 34.7995 42.7093 35.8215 42.459C36.844 42.1878 37.9288 42.0628 39.076 42.0628C41.5586 42.0628 43.3735 42.6259 44.5417 43.7525C45.689 44.8788 46.2732 46.5894 46.2732 48.8842V55.6428H46.315H46.3145ZM37.8451 58.8137C38.5337 58.8137 39.2429 58.6886 39.9937 58.4381C40.7448 58.1879 41.4124 57.7289 41.9755 57.1031C42.3094 56.7069 42.5597 56.2688 42.6847 55.7681C42.81 55.2675 42.8934 54.6624 42.8934 53.9531V53.0771C42.2608 52.9231 41.62 52.8047 40.9741 52.7224C40.3238 52.6398 39.6689 52.598 39.0133 52.5972C37.6155 52.5972 36.5935 52.8684 35.9052 53.4317C35.2166 53.995 34.8829 54.7876 34.8829 55.8306C34.8829 56.811 35.1332 57.5411 35.6547 58.0419C36.1554 58.5634 36.8856 58.8137 37.8451 58.8137ZM54.5962 61.0666C54.2206 61.0666 53.9704 61.0041 53.8035 60.8579C53.6367 60.7329 53.4905 60.4408 53.3655 60.0446L48.4634 43.9193C48.3379 43.502 48.2754 43.2308 48.2754 43.0848C48.2754 42.7511 48.4422 42.5631 48.7761 42.5631H50.8204C51.2166 42.5631 51.4881 42.6259 51.634 42.7718C51.8008 42.8971 51.9261 43.1892 52.0511 43.5854L55.5557 57.3952L58.81 43.5854C58.9143 43.1683 59.0396 42.8971 59.2062 42.7718C59.3733 42.6468 59.6654 42.5634 60.0409 42.5634H61.7096C62.1058 42.5634 62.3773 42.6259 62.5439 42.7718C62.711 42.8971 62.8569 43.1892 62.9403 43.5854L66.2365 57.562L69.8451 43.5854C69.9701 43.1683 70.1163 42.8971 70.2622 42.7718C70.4291 42.6468 70.7003 42.5634 71.0758 42.5634H73.0157C73.3497 42.5634 73.5374 42.7302 73.5374 43.0848C73.5374 43.1892 73.5165 43.2935 73.4956 43.4185C73.4747 43.5438 73.4331 43.7106 73.3497 43.9402L68.3221 60.0653C68.1971 60.4826 68.0511 60.7538 67.884 60.8788C67.7172 61.0041 67.446 61.0875 67.0916 61.0875H65.2976C64.9012 61.0875 64.63 61.025 64.4629 60.8788C64.296 60.7329 64.1501 60.4617 64.0667 60.0446L60.8331 46.5894L57.6206 60.0234C57.5165 60.4408 57.3913 60.712 57.2244 60.8579C57.0576 61.0041 56.7654 61.0666 56.3902 61.0666H54.5959H54.5962ZM81.402 61.6299C80.3172 61.6299 79.2324 61.5046 78.1895 61.2544C77.1463 61.0041 76.333 60.7327 75.7906 60.4201C75.4567 60.2321 75.2271 60.0237 75.1439 59.8359C75.0627 59.6518 75.02 59.453 75.0187 59.2517V58.1879C75.0187 57.7498 75.1855 57.5411 75.4985 57.5411C75.6263 57.5416 75.7531 57.5628 75.8741 57.6039C75.9991 57.6457 76.1868 57.7289 76.3955 57.8123C77.1323 58.1364 77.9015 58.3812 78.6901 58.5425C79.5072 58.7083 80.3388 58.7921 81.1726 58.7927C82.4867 58.7927 83.509 58.5634 84.2182 58.1044C84.9275 57.6455 85.303 56.9781 85.303 56.1227C85.303 55.5387 85.1152 55.0588 84.7397 54.6624C84.3642 54.2662 83.6549 53.9116 82.6329 53.5776L79.608 52.639C78.0852 52.1591 76.9588 51.4499 76.2703 50.5111C75.582 49.5932 75.2273 48.5712 75.2273 47.4864C75.2273 46.6103 75.4151 45.8383 75.7906 45.1707C76.1659 44.5033 76.6667 43.9193 77.2925 43.4604C77.9183 42.9805 78.6276 42.6259 79.462 42.3756C80.2963 42.1253 81.1724 42.021 82.0903 42.021C82.5492 42.021 83.0291 42.0419 83.4881 42.1044C83.968 42.1669 84.406 42.2504 84.844 42.3338C85.2612 42.4381 85.6576 42.5425 86.0331 42.6677C86.4087 42.7927 86.7005 42.918 86.9092 43.043C87.2013 43.2101 87.4098 43.3769 87.535 43.5647C87.6603 43.7316 87.7228 43.9609 87.7228 44.253V45.2334C87.7228 45.6715 87.5559 45.9011 87.2429 45.9011C87.0761 45.9011 86.8049 45.8174 86.4505 45.6506C85.2611 45.1082 83.9261 44.837 82.4451 44.837C81.256 44.837 80.3172 45.0248 79.6705 45.4212C79.024 45.8174 78.6901 46.4226 78.6901 47.2777C78.6901 47.8619 78.8987 48.3625 79.3159 48.7589C79.7332 49.1551 80.505 49.5516 81.6107 49.9062L84.5728 50.845C86.0747 51.3249 87.1595 51.9923 87.8062 52.8475C88.4529 53.7029 88.766 54.6833 88.766 55.7681C88.766 56.6651 88.5779 57.4786 88.2233 58.1879C87.848 58.8971 87.3473 59.5229 86.7005 60.0237C86.0538 60.5451 85.2821 60.9207 84.3851 61.1919C83.4462 61.484 82.4658 61.6299 81.402 61.6299V61.6299Z" fill="white"/>
<path d="M85.3462 71.7683C78.4832 76.8375 68.5117 79.5285 59.9381 79.5285C47.9223 79.5285 37.0959 75.0851 28.9186 67.7005C28.2718 67.1165 28.8558 66.3239 29.6275 66.7826C38.4725 71.9145 49.3826 75.0226 60.6683 75.0226C68.2823 75.0226 76.6474 73.4373 84.3451 70.183C85.4923 69.6613 86.4728 70.9341 85.3462 71.7683V71.7683ZM88.2042 68.5141C87.3282 67.3877 82.4049 67.9717 80.1729 68.2429C79.5052 68.3265 79.4009 67.7423 80.006 67.3043C83.9277 64.5505 90.3738 65.3434 91.1246 66.2611C91.8757 67.1999 90.9159 73.6458 87.2445 76.7332C86.6814 77.2131 86.1391 76.9628 86.3893 76.337C87.2236 74.2716 89.0803 69.6197 88.2042 68.5141V68.5141Z" fill="#FF9900"/>
</g>
<defs>
<clipPath id="clip0_688_16637">
<rect width="63" height="37.6517" fill="white" transform="translate(28.5 42)"/>
</clipPath>
</defs>
</svg>
