<svg width="80" height="80" viewBox="0 0 80 80" fill="none" xmlns="http://www.w3.org/2000/svg">
<g clip-path="url(#clip0_270_10943)">
<path d="M30.877 37.0951C30.877 37.6098 30.9328 38.027 31.0301 38.333C31.1536 38.6772 31.3023 39.0119 31.475 39.3342C31.5446 39.4455 31.5723 39.5567 31.5723 39.6541C31.5723 39.7931 31.4889 39.9322 31.3081 40.0714L30.4321 40.6554C30.3069 40.7389 30.1817 40.7806 30.0703 40.7806C29.9314 40.7806 29.7922 40.711 29.6531 40.5858C29.4658 40.3845 29.2981 40.1656 29.1526 39.9322C29.0134 39.696 28.8743 39.4315 28.7214 39.1118C27.6367 40.3911 26.2736 41.0309 24.6327 41.0309C23.4646 41.0309 22.5328 40.6971 21.8512 40.0297C21.1699 39.362 20.8223 38.4719 20.8223 37.3594C20.8223 36.1774 21.2395 35.2178 22.0878 34.4946C22.936 33.7715 24.0626 33.4099 25.495 33.4099C25.9678 33.4099 26.4546 33.4515 26.9691 33.5211C27.4837 33.5907 28.0122 33.7019 28.5685 33.8271V32.8119C28.5685 31.7548 28.3459 31.0179 27.9147 30.5867C27.4698 30.1556 26.7187 29.9469 25.6479 29.9469C25.1612 29.9469 24.6606 30.0027 24.146 30.1279C23.6315 30.2529 23.1308 30.4059 22.644 30.6007C22.4215 30.698 22.2547 30.7536 22.1572 30.7815C22.0599 30.8094 21.9904 30.8231 21.9348 30.8231C21.74 30.8231 21.6427 30.684 21.6427 30.392V29.7105C21.6427 29.488 21.6706 29.3212 21.74 29.2239C21.8096 29.1264 21.9348 29.0291 22.1295 28.9319C22.6163 28.6815 23.2003 28.4728 23.8817 28.306C24.5633 28.1252 25.2865 28.0418 26.0513 28.0418C27.7064 28.0418 28.9163 28.4172 29.6951 29.1683C30.46 29.9192 30.8494 31.0596 30.8494 32.5894V37.0951H30.8773H30.877ZM25.2307 39.2091C25.6898 39.2091 26.1626 39.1257 26.6631 38.9587C27.1638 38.7919 27.6089 38.4859 27.9843 38.0687C28.2069 37.8045 28.3738 37.5125 28.4571 37.1787C28.5406 36.845 28.5962 36.4415 28.5962 35.9687V35.3847C28.1745 35.282 27.7473 35.2031 27.3167 35.1482C26.8832 35.0932 26.4466 35.0653 26.0095 35.0647C25.0776 35.0647 24.3963 35.2455 23.9374 35.6211C23.4784 35.9966 23.2559 36.525 23.2559 37.2203C23.2559 37.8739 23.4228 38.3607 23.7704 38.6946C24.1043 39.0422 24.591 39.2091 25.2307 39.2091ZM36.3981 40.711C36.1477 40.711 35.9809 40.6693 35.8697 40.5719C35.7584 40.4886 35.661 40.2938 35.5776 40.0297L32.3096 29.2795C32.2259 29.0013 32.1842 28.8205 32.1842 28.7232C32.1842 28.5007 32.2955 28.3754 32.5181 28.3754H33.8809C34.1451 28.3754 34.326 28.4172 34.4233 28.5145C34.5345 28.598 34.6181 28.7927 34.7014 29.0569L37.0378 38.2634L39.2073 29.0569C39.2769 28.7788 39.3604 28.598 39.4714 28.5145C39.5828 28.4312 39.7776 28.3755 40.0279 28.3755H41.1404C41.4045 28.3755 41.5855 28.4172 41.6966 28.5145C41.808 28.598 41.9053 28.7927 41.9609 29.0569L44.1583 38.3746L46.5641 29.0569C46.6474 28.7788 46.7449 28.598 46.8421 28.5145C46.9534 28.4312 47.1342 28.3755 47.3845 28.3755H48.6778C48.9004 28.3755 49.0256 28.4868 49.0256 28.7232C49.0256 28.7927 49.0117 28.8623 48.9977 28.9456C48.9838 29.0291 48.9561 29.1404 48.9004 29.2934L45.5487 40.0435C45.4654 40.3217 45.3681 40.5025 45.2567 40.5858C45.1454 40.6693 44.9646 40.725 44.7284 40.725H43.5324C43.2681 40.725 43.0873 40.6833 42.9759 40.5858C42.8647 40.4886 42.7674 40.3078 42.7118 40.0297L40.556 31.0596L38.4144 40.0156C38.345 40.2938 38.2615 40.4746 38.1503 40.5719C38.039 40.6693 37.8443 40.711 37.5941 40.711H36.3979H36.3981ZM54.2686 41.0866C53.5455 41.0866 52.8223 41.003 52.127 40.8362C51.4315 40.6693 50.8893 40.4884 50.5277 40.28C50.3051 40.1547 50.152 40.0157 50.0966 39.8906C50.0424 39.7678 50.014 39.6352 50.0131 39.5011V38.7919C50.0131 38.4998 50.1243 38.3607 50.333 38.3607C50.4182 38.361 50.5027 38.3751 50.5834 38.4025C50.6667 38.4304 50.7919 38.4859 50.931 38.5415C51.4222 38.7575 51.935 38.9207 52.4607 39.0283C53.0054 39.1388 53.5599 39.1947 54.1157 39.1951C54.9918 39.1951 55.6733 39.0422 56.1461 38.7362C56.619 38.4303 56.8693 37.9853 56.8693 37.4151C56.8693 37.0257 56.7441 36.7058 56.4938 36.4415C56.2434 36.1774 55.7706 35.941 55.0893 35.7184L53.0726 35.0926C52.0574 34.7727 51.3065 34.2999 50.8475 33.674C50.3886 33.0621 50.1522 32.3807 50.1522 31.6575C50.1522 31.0735 50.2774 30.5588 50.5277 30.1137C50.7779 29.6688 51.1118 29.2795 51.529 28.9735C51.9462 28.6536 52.419 28.4172 52.9754 28.2504C53.5315 28.0835 54.1156 28.0139 54.7275 28.0139C55.0335 28.0139 55.3534 28.0279 55.6594 28.0696C55.9793 28.1112 56.2713 28.1669 56.5633 28.2225C56.8414 28.292 57.1057 28.3616 57.3561 28.4451C57.6064 28.5284 57.801 28.6119 57.9401 28.6953C58.1349 28.8067 58.2738 28.9179 58.3573 29.0431C58.4408 29.1543 58.4825 29.3072 58.4825 29.502V30.1556C58.4825 30.4476 58.3713 30.6007 58.1626 30.6007C58.0514 30.6007 57.8706 30.5449 57.6343 30.4337C56.8414 30.0721 55.9514 29.8913 54.9641 29.8913C54.1713 29.8913 53.5455 30.0165 53.1143 30.2808C52.6833 30.5449 52.4607 30.9483 52.4607 31.5184C52.4607 31.9079 52.5998 32.2416 52.8779 32.5059C53.1561 32.77 53.6706 33.0343 54.4078 33.2707L56.3825 33.8966C57.3838 34.2166 58.107 34.6615 58.5381 35.2316C58.9693 35.8019 59.178 36.4555 59.178 37.1787C59.178 37.7766 59.0526 38.319 58.8162 38.7919C58.566 39.2647 58.2322 39.6819 57.801 40.0157C57.3699 40.3634 56.8554 40.6137 56.2574 40.7945C55.6315 40.9893 54.9779 41.0866 54.2686 41.0866Z" fill="#252F3E"/>
<path d="M56.8974 47.8453C52.3221 51.2248 45.6744 53.0188 39.9588 53.0188C31.9482 53.0188 24.7306 50.0565 19.279 45.1334C18.8479 44.7441 19.2372 44.2157 19.7517 44.5215C25.6483 47.9428 32.9217 50.0148 40.4455 50.0148C45.5215 50.0148 51.0983 48.958 56.23 46.7884C56.9949 46.4406 57.6485 47.2892 56.8974 47.8453ZM58.8028 45.6758C58.2188 44.9249 54.9366 45.3142 53.4486 45.495C53.0035 45.5508 52.9339 45.1613 53.3373 44.8693C55.9518 43.0334 60.2492 43.5621 60.7497 44.1738C61.2504 44.7997 60.6106 49.0969 58.163 51.1552C57.7876 51.4751 57.426 51.3083 57.5929 50.8911C58.149 49.5141 59.3869 46.4129 58.8028 45.6758Z" fill="#FF9900"/>
</g>
<defs>
<clipPath id="clip0_270_10943">
<rect width="42" height="25.1011" fill="white" transform="translate(19 28)"/>
</clipPath>
</defs>
</svg>
