<svg width="80" height="80" viewBox="0 0 80 80" fill="none" xmlns="http://www.w3.org/2000/svg">
<path d="M41.0036 26.4316C41.0867 26.2033 41.0894 25.9535 41.0113 25.7235C40.9331 25.4934 40.7787 25.297 40.5737 25.1666C40.3687 25.0362 40.1253 24.9797 39.8838 25.0065C39.6424 25.0333 39.4172 25.1417 39.2457 25.3138L30.7124 33.8471C30.6164 33.9433 30.5396 34.057 30.4863 34.182L24.0863 49.1154C24.0167 49.2777 23.9885 49.4547 24.0042 49.6306C24.02 49.8065 24.0791 49.9758 24.1764 50.1232C24.2737 50.2706 24.406 50.3915 24.5616 50.4751C24.7171 50.5588 24.891 50.6024 25.0676 50.6023H31.4676C31.6868 50.6022 31.9007 50.5346 32.0801 50.4086C32.2595 50.2826 32.3958 50.1044 32.4703 49.8983L41.0036 26.4316ZM45.2383 29.894C45.152 29.7034 45.0116 29.5423 44.8345 29.4309C44.6573 29.3195 44.4513 29.2626 44.2421 29.2674C44.0329 29.2721 43.8298 29.3383 43.6579 29.4577C43.486 29.5771 43.3531 29.7444 43.2756 29.9388L39.0089 40.6055C38.9411 40.7757 38.9182 40.9605 38.9425 41.142C38.9668 41.3236 39.0374 41.4959 39.1476 41.6423L44.6602 48.9916L33.2639 52.789C33.0226 52.8683 32.8175 53.0311 32.6855 53.2481C32.5535 53.4652 32.5034 53.7222 32.544 53.9729C32.5846 54.2237 32.7134 54.4517 32.9072 54.6159C33.1009 54.7802 33.3469 54.8699 33.6009 54.869H54.9343C55.1128 54.8689 55.2884 54.8241 55.445 54.7386C55.6017 54.6531 55.7344 54.5296 55.831 54.3795C55.9275 54.2295 55.9849 54.0576 55.9979 53.8795C56.0108 53.7015 55.9788 53.5231 55.905 53.3607L45.2383 29.894Z" fill="#008AD8"/>
</svg>
