<svg width="120" height="120" viewBox="0 0 120 120" fill="none" xmlns="http://www.w3.org/2000/svg">
<path d="M61.5054 39.6474C61.6301 39.305 61.6342 38.9302 61.5169 38.5852C61.3996 38.2401 61.1681 37.9454 60.8606 37.7499C60.553 37.5543 60.188 37.4696 59.8257 37.5097C59.4635 37.5499 59.1259 37.7125 58.8686 37.9706L46.0686 50.7706C45.9246 50.9149 45.8094 51.0855 45.7294 51.273L36.1294 73.673C36.0251 73.9165 35.9828 74.1821 36.0064 74.4459C36.03 74.7098 36.1187 74.9637 36.2646 75.1847C36.4105 75.4058 36.6091 75.5872 36.8424 75.7127C37.0757 75.8381 37.3365 75.9037 37.6014 75.9034H47.2014C47.5302 75.9033 47.851 75.8018 48.1202 75.6129C48.3893 75.4239 48.5936 75.1567 48.7054 74.8474L61.5054 39.6474ZM67.8574 44.841C67.728 44.5551 67.5174 44.3135 67.2517 44.1463C66.986 43.9792 66.677 43.8939 66.3632 43.901C66.0494 43.9082 65.7446 44.0075 65.4868 44.1866C65.2291 44.3657 65.0296 44.6166 64.9134 44.9082L58.5134 60.9082C58.4116 61.1635 58.3773 61.4407 58.4137 61.7131C58.4501 61.9855 58.5561 62.2439 58.7214 62.4634L66.9902 73.4874L49.8958 79.1834C49.5339 79.3024 49.2262 79.5466 49.0283 79.8722C48.8303 80.1978 48.755 80.5833 48.816 80.9594C48.8769 81.3355 49.0701 81.6775 49.3607 81.9239C49.6514 82.1703 50.0204 82.3049 50.4014 82.3034H82.4014C82.6691 82.3034 82.9325 82.2361 83.1675 82.1079C83.4025 81.9796 83.6016 81.7944 83.7464 81.5693C83.8913 81.3442 83.9774 81.0863 83.9968 80.8193C84.0162 80.5523 83.9683 80.2847 83.8574 80.041L67.8574 44.841Z" fill="#008AD8"/>
</svg>
