<svg width="120" height="120" viewBox="0 0 120 120" fill="none" xmlns="http://www.w3.org/2000/svg">
<g clip-path="url(#clip0_688_16836)">
<path d="M47.2446 50.4594L36.4864 44.0719C35.8587 43.6976 35.1416 43.5 34.4108 43.5C33.68 43.5 32.9628 43.6976 32.3352 44.0719L21.5747 50.4594C20.9384 50.8432 20.4127 51.3857 20.0491 52.0337C19.6854 52.6817 19.4962 53.413 19.5001 54.1561V66.9285C19.4966 67.6712 19.686 68.4021 20.0496 69.0497C20.4133 69.6972 20.9388 70.2394 21.5747 70.623L32.3329 77.0082C32.9607 77.3823 33.6778 77.5798 34.4086 77.5798C35.1393 77.5798 35.8565 77.3823 36.4842 77.0082L47.2425 70.6232C47.8792 70.2396 48.4054 69.6972 48.7694 69.0491C49.1334 68.4011 49.3229 67.6696 49.3193 66.9263V54.1561C49.3231 53.413 49.1339 52.6817 48.7703 52.0337C48.4066 51.3857 47.8809 50.8432 47.2446 50.4594Z" fill="white"/>
<path d="M47.2446 50.4594L36.4864 44.0719C35.8587 43.6976 35.1416 43.5 34.4108 43.5C33.68 43.5 32.9628 43.6976 32.3352 44.0719L21.5747 50.4594C20.9384 50.8432 20.4127 51.3857 20.0491 52.0337C19.6854 52.6817 19.4962 53.413 19.5001 54.1561V66.9285C19.4966 67.6712 19.686 68.4021 20.0496 69.0497C20.4133 69.6972 20.9388 70.2394 21.5747 70.623L32.3329 77.0082C32.9607 77.3823 33.6778 77.5798 34.4086 77.5798C35.1393 77.5798 35.8565 77.3823 36.4842 77.0082L47.2425 70.6232C47.8792 70.2396 48.4054 69.6972 48.7694 69.0491C49.1334 68.4011 49.3229 67.6696 49.3193 66.9263V54.1561C49.3231 53.413 49.1339 52.6817 48.7703 52.0337C48.4066 51.3857 47.8809 50.8432 47.2446 50.4594ZM32.7099 76.3555L21.9517 69.9704C21.429 69.6537 20.9972 69.2071 20.6982 68.6741C20.3992 68.141 20.2433 67.5397 20.2455 66.9285V54.1561C20.2431 53.5449 20.3989 52.9434 20.6979 52.4104C20.9969 51.8773 21.4289 51.4307 21.9517 51.1142L32.7099 44.7269C33.2239 44.4203 33.8112 44.2584 34.4097 44.2584C35.0081 44.2584 35.5954 44.4203 36.1094 44.7269L46.8591 51.1142C47.2968 51.3794 47.6715 51.7369 47.9568 52.1618C48.2422 52.5867 48.4313 53.0688 48.5112 53.5744C48.1536 52.8139 47.35 52.6049 46.4129 53.1436L36.2428 59.4425C34.974 60.1814 34.039 61.0151 34.0368 62.5446V75.0867C34.0368 76.0022 34.4052 76.5947 34.974 76.7692C34.7878 76.8032 34.5989 76.8214 34.4095 76.8229C33.8113 76.8225 33.2242 76.661 32.7099 76.3555Z" fill="#2F3A3E"/>
<path d="M44.4258 68.1629L41.7458 69.7654C41.7107 69.7796 41.6804 69.8036 41.6586 69.8346C41.6368 69.8656 41.6245 69.9022 41.623 69.9401V70.6444C41.623 70.7306 41.6813 70.7651 41.7523 70.7242L44.4731 69.0697C44.5397 69.0198 44.5716 68.9358 44.555 68.8544V68.2359C44.5528 68.1564 44.4903 68.1219 44.4258 68.1629Z" fill="#3AB14A"/>
<path d="M38.7199 62.2623C38.806 62.2193 38.8772 62.2623 38.8792 62.3853L38.8879 63.3202C39.2102 63.1738 39.5697 63.1302 39.9177 63.1952C39.9844 63.2125 40.0124 63.3028 39.9867 63.4106L39.7819 64.2313C39.7664 64.2933 39.7345 64.35 39.6892 64.3951C39.6734 64.4109 39.6552 64.4238 39.6354 64.4338C39.6111 64.447 39.583 64.4516 39.5557 64.4468C39.2165 64.3717 38.8614 64.4287 38.5627 64.6062C38.3486 64.7026 38.1661 64.8575 38.0362 65.053C37.9062 65.2484 37.8341 65.4766 37.828 65.7113C37.828 66.1422 38.0435 66.2607 38.7952 66.2735C39.7884 66.2909 40.2192 66.7238 40.2301 67.7255C40.2184 68.2421 40.0944 68.75 39.8668 69.2139C39.6391 69.6777 39.3132 70.0865 38.9117 70.4118L38.9289 71.3297C38.9282 71.3858 38.9134 71.4408 38.8859 71.4897C38.8584 71.5386 38.8192 71.5799 38.7717 71.6097L38.2287 71.922C38.1425 71.9652 38.0715 71.922 38.0692 71.8014V70.8987C37.6041 71.0927 37.1322 71.1379 36.8305 71.0174C36.7747 70.9957 36.7487 70.9117 36.7725 70.8149L36.9686 69.9854C36.9834 69.9197 37.017 69.8598 37.0655 69.813C37.0808 69.7983 37.0982 69.7861 37.1172 69.7765C37.1311 69.7702 37.1461 69.767 37.1613 69.767C37.1765 69.767 37.1916 69.7702 37.2055 69.7765C37.5895 69.8805 37.9991 69.8286 38.345 69.632C38.5899 69.5139 38.7979 69.331 38.9464 69.1032C39.0949 68.8754 39.1782 68.6113 39.1874 68.3395C39.1874 67.8742 38.9311 67.6803 38.3257 67.676C37.5437 67.676 36.8177 67.5252 36.8027 66.3835C36.8116 65.8909 36.9294 65.4063 37.1476 64.9646C37.3659 64.5228 37.6792 64.1349 38.0651 63.8285L38.0262 62.8893C38.026 62.8324 38.0404 62.7765 38.0679 62.7267C38.0954 62.677 38.1352 62.6351 38.1835 62.605L38.7198 62.2623H38.7199Z" fill="white"/>
<path d="M81.3014 53.2059C82.5649 52.8243 83.9157 52.8431 85.1681 53.2597C85.792 53.4672 86.3752 53.7813 86.8916 54.1882C87.3943 54.5885 87.8093 55.0878 88.1109 55.6552C88.4242 56.2539 88.5911 56.9183 88.5978 57.594C88.599 57.6634 88.5859 57.7324 88.5592 57.7966C88.5326 57.8607 88.4929 57.9186 88.4428 57.9667C88.3384 58.0667 88.1994 58.1223 88.0549 58.1218H86.1656C86.036 58.1244 85.9099 58.0801 85.8105 57.9969C85.7111 57.9138 85.6451 57.7975 85.6249 57.6695C85.5848 57.3454 85.4954 57.0294 85.3599 56.7324C85.242 56.4776 85.076 56.2479 84.871 56.0559C84.6624 55.8668 84.4186 55.7204 84.1536 55.625C83.5532 55.4262 82.9069 55.4127 82.2988 55.5862C82.0401 55.6564 81.7958 55.7717 81.5771 55.9267C81.3809 56.0665 81.2182 56.2483 81.1009 56.4587C80.9821 56.6803 80.9234 56.9291 80.9309 57.1805C80.9247 57.433 81.0003 57.6808 81.1462 57.887C81.3176 58.1121 81.5313 58.3017 81.7753 58.445C82.0651 58.6206 82.3727 58.765 82.6929 58.8759C83.0287 58.991 83.3671 59.0987 83.7076 59.199C84.0858 59.3123 84.4601 59.438 84.8301 59.5759C85.2126 59.7187 85.586 59.8849 85.9481 60.0737C86.3057 60.2604 86.6472 60.4766 86.9691 60.7199C87.292 60.9642 87.5817 61.2495 87.8308 61.5687C88.0853 61.8876 88.2882 62.2445 88.432 62.6264C88.5786 63.0414 88.6514 63.4788 88.6472 63.9189C88.6603 64.5821 88.484 65.2352 88.1389 65.8017C87.8122 66.323 87.3782 66.7688 86.8658 67.1094C86.3373 67.4574 85.755 67.7157 85.1424 67.8741C84.5298 68.0391 83.8983 68.1231 83.2639 68.1241C82.5666 68.1242 81.8732 68.0203 81.2066 67.8159C80.5538 67.6195 79.9384 67.3151 79.3862 66.9154C78.8477 66.5242 78.3947 66.0272 78.0549 65.4549C77.7009 64.8488 77.5088 64.1618 77.4969 63.46C77.4951 63.3903 77.5078 63.3211 77.5341 63.2566C77.5605 63.192 77.5999 63.1337 77.6499 63.0852C77.7544 62.9839 77.8943 62.9275 78.0399 62.9279H79.9204C80.0497 62.9252 80.1756 62.9692 80.2749 63.052C80.3743 63.1347 80.4404 63.2506 80.4612 63.3782C80.503 63.7156 80.6074 64.0421 80.7692 64.3412C80.9166 64.6065 81.115 64.84 81.3529 65.0284C81.6001 65.2225 81.8814 65.3686 82.1824 65.4592C82.8362 65.6462 83.5275 65.6596 84.1881 65.4979C84.4568 65.4353 84.7126 65.3267 84.9443 65.1769C85.1501 65.0422 85.3243 64.8643 85.4546 64.6557C85.5821 64.4402 85.6449 64.1927 85.6356 63.9426C85.6472 63.6659 85.5719 63.3925 85.4203 63.1606C85.2524 62.9202 85.0359 62.7176 84.7848 62.566C84.4898 62.3838 84.1755 62.235 83.8476 62.1222C83.4743 61.9915 83.1152 61.8738 82.7706 61.7689C82.2384 61.6139 81.7043 61.4114 81.1614 61.183C80.6087 60.9538 80.0858 60.6587 79.6039 60.3042C79.1264 59.9532 78.7193 59.5154 78.4039 59.0137C78.0717 58.4687 77.9021 57.8401 77.9149 57.202C77.9062 56.5557 78.073 55.9192 78.3974 55.3602C78.7081 54.8336 79.1248 54.3773 79.6211 54.0202C80.131 53.6557 80.6991 53.3804 81.3012 53.2059H81.3014ZM71.6589 53.1368C71.7723 53.1348 71.8834 53.1685 71.9765 53.2331C72.0697 53.2977 72.1402 53.3899 72.1782 53.4967L76.7602 67.2644C76.7861 67.3422 76.7923 67.4252 76.7784 67.506C76.7645 67.5868 76.7309 67.663 76.6804 67.7276C76.6295 67.7937 76.5643 67.8473 76.4897 67.8846C76.4151 67.9219 76.333 67.9419 76.2497 67.9431H74.4208C74.3063 67.9451 74.1942 67.9107 74.1005 67.8449C74.0068 67.7791 73.9364 67.6852 73.8994 67.5769L72.8739 64.3777H68.8455L67.8007 67.5789C67.7632 67.6864 67.6929 67.7793 67.5998 67.8447C67.5066 67.91 67.3953 67.9444 67.2815 67.9431H65.4418C65.3584 67.9419 65.2763 67.9219 65.2017 67.8846C65.1271 67.8473 65.0619 67.7937 65.011 67.7276C64.9607 67.6629 64.9274 67.5866 64.9138 67.5058C64.9003 67.4249 64.907 67.342 64.9334 67.2644L69.6082 53.4945C69.6466 53.3887 69.7171 53.2974 69.8097 53.2333C69.9023 53.1693 70.0126 53.1356 70.1252 53.137L71.6589 53.1368ZM92.2459 53.137C92.3817 53.1411 92.5107 53.1969 92.6066 53.293C92.7025 53.3891 92.758 53.5182 92.7618 53.654V59.0567H97.6111V53.654C97.615 53.5132 97.6746 53.3798 97.7767 53.2828C97.8789 53.1859 98.0153 53.1335 98.1561 53.137H99.9259C100.062 53.1411 100.191 53.1969 100.287 53.293C100.382 53.3891 100.438 53.5182 100.442 53.654V67.4239C100.438 67.5646 100.378 67.6981 100.276 67.795C100.174 67.8919 100.038 67.9444 99.8968 67.9409H98.127C97.9913 67.9367 97.8623 67.8809 97.7664 67.7848C97.6705 67.6887 97.615 67.5596 97.6112 67.4239V61.5772H92.7618V67.4239C92.7579 67.5646 92.6983 67.6981 92.5962 67.795C92.494 67.8919 92.3576 67.9444 92.2168 67.9409H90.4643C90.3286 67.9367 90.1996 67.8809 90.1037 67.7848C90.0079 67.6887 89.9523 67.5596 89.9485 67.4239V53.654C89.9525 53.5132 90.012 53.3798 90.1142 53.2828C90.2164 53.1859 90.3528 53.1335 90.4935 53.137H92.2459ZM58.4275 53.1347C59.0645 53.1408 59.6985 53.221 60.3168 53.3739C60.92 53.5195 61.4935 53.768 62.0122 54.1085C62.5183 54.4438 62.9394 54.8923 63.2423 55.4184C63.563 56.002 63.7201 56.6614 63.6969 57.3269C63.6941 58.0994 63.4161 58.8457 62.9127 59.4317C62.6854 59.6959 62.423 59.9279 62.1328 60.121L62.2707 60.2029C62.6342 60.4267 62.9587 60.7083 63.2315 61.0366C63.5045 61.3638 63.7195 61.7354 63.867 62.1352C64.0153 62.5572 64.0883 63.002 64.0825 63.4492C64.1008 64.1231 63.9466 64.7906 63.6345 65.3881C63.3382 65.9397 62.9241 66.4193 62.4215 66.7927C61.906 67.1713 61.3288 67.4577 60.7155 67.6394C60.081 67.8318 59.4223 67.9326 58.7593 67.9387H54.09C53.9543 67.9345 53.8253 67.8787 53.7294 67.7826C53.6336 67.6865 53.578 67.5574 53.5742 67.4217V53.6518C53.5782 53.511 53.6377 53.3776 53.7398 53.2807C53.842 53.1838 53.9783 53.1313 54.1191 53.1347H58.4275ZM58.8885 61.5019H56.519V65.4226H58.8066C59.1165 65.4181 59.4239 65.3658 59.7178 65.2676C59.9893 65.1782 60.2435 65.0434 60.4698 64.8689C60.6744 64.709 60.8414 64.5061 60.9588 64.2744C61.0819 64.0247 61.1432 63.7491 61.1375 63.4707C61.1496 63.186 61.0956 62.9021 60.9803 62.6414C60.8743 62.4129 60.7191 62.2106 60.5258 62.049C60.3167 61.8765 60.077 61.745 59.8192 61.6614C59.5184 61.5632 59.2049 61.5094 58.8885 61.5019ZM70.892 58.1197L69.6944 61.8121H72.0639L70.892 58.1197ZM58.475 55.666H56.5125V59.0116H58.5332C58.8251 59.0063 59.115 58.9613 59.3948 58.8781C59.6517 58.8045 59.8942 58.6879 60.1122 58.5334C60.3078 58.3943 60.4715 58.2151 60.5925 58.0078C60.7093 57.7951 60.7659 57.5546 60.7563 57.3121C60.7652 57.0567 60.7073 56.8035 60.5883 56.5774C60.4764 56.3803 60.3191 56.2127 60.1295 56.0885C59.9065 55.9447 59.66 55.8411 59.4013 55.7824C59.0976 55.7102 58.7871 55.6712 58.475 55.6661V55.666ZM65.7735 70.3019C65.8403 70.3895 65.8899 70.4889 65.92 70.5949C65.953 70.7075 65.9696 70.8243 65.9695 70.9417L65.9675 71.2024C65.9675 71.3198 65.9509 71.4365 65.9179 71.5492C65.8882 71.6548 65.8392 71.7542 65.7735 71.8421C65.7092 71.9268 65.6268 71.996 65.5322 72.0446C65.4266 72.0969 65.3098 72.1228 65.192 72.1201C65.0811 72.1235 64.9711 72.0999 64.8713 72.0515C64.7715 72.0031 64.6849 71.9313 64.6189 71.8421C64.5541 71.754 64.5058 71.6547 64.4766 71.5492C64.4444 71.4364 64.4285 71.3196 64.4293 71.2024V70.9417C64.4293 70.863 64.4364 70.7844 64.4508 70.7069C64.4641 70.6332 64.4851 70.5609 64.5133 70.4916C64.541 70.4251 64.5765 70.3622 64.6189 70.3041C64.6596 70.2472 64.7091 70.197 64.7654 70.1554C64.8238 70.1132 64.8885 70.0805 64.957 70.0584C65.033 70.0347 65.1123 70.0231 65.192 70.0241C65.304 70.0208 65.4152 70.0443 65.5164 70.0926C65.6175 70.1409 65.7057 70.2127 65.7735 70.3019ZM91.127 70.0261C91.225 70.0255 91.3224 70.0408 91.4155 70.0714C91.5007 70.0995 91.5802 70.1426 91.6503 70.1986C91.7164 70.2521 91.7709 70.3188 91.8098 70.3946C91.8493 70.4728 91.8699 70.5591 91.8699 70.6466H91.5168C91.5126 70.5984 91.501 70.5512 91.4823 70.5066C91.4644 70.4648 91.438 70.4275 91.4048 70.3967C91.3699 70.3648 91.3288 70.3406 91.2841 70.3256C91.2314 70.3077 91.176 70.299 91.1203 70.2998C91.0709 70.2994 91.0215 70.3059 90.9738 70.3191C90.9318 70.3312 90.8924 70.3508 90.8576 70.3774C90.8254 70.4015 90.7989 70.4324 90.78 70.4678C90.761 70.5051 90.7514 70.5465 90.752 70.5884C90.752 70.6324 90.7657 70.6753 90.7908 70.7112C90.8177 70.7482 90.8512 70.7797 90.8898 70.8039C90.9345 70.8322 90.9822 70.8553 91.0321 70.8728C91.0852 70.8915 91.1412 70.9088 91.2001 70.9246C91.2877 70.9489 91.3735 70.9799 91.4564 71.0171C91.5339 71.0516 91.6065 71.0965 91.6718 71.1506C91.7318 71.2003 91.7815 71.2611 91.8183 71.3294C91.8557 71.4022 91.8742 71.4829 91.8721 71.5643C91.8739 71.648 91.8531 71.7305 91.812 71.8034C91.7717 71.873 91.7164 71.9325 91.6503 71.9779C91.5786 72.0262 91.4992 72.0619 91.4155 72.0834C91.3242 72.1079 91.2301 72.1202 91.1355 72.1201C91.0697 72.1205 91.0041 72.1147 90.9394 72.1029C90.8759 72.0915 90.8139 72.0734 90.7543 72.0491C90.6956 72.0254 90.6399 71.995 90.5881 71.9586C90.5381 71.9233 90.4932 71.8813 90.4548 71.8336C90.375 71.734 90.3316 71.6101 90.3319 71.4824H90.6873C90.691 71.5386 90.7057 71.5935 90.7305 71.6441C90.7532 71.6887 90.7854 71.7278 90.8253 71.7581C90.8665 71.7896 90.9132 71.813 90.9631 71.8271C91.0199 71.8433 91.0786 71.8513 91.1376 71.8509C91.1877 71.8513 91.2376 71.8456 91.2863 71.8334C91.3293 71.8228 91.3701 71.8047 91.4068 71.7797C91.4405 71.7569 91.4685 71.7267 91.4888 71.6914C91.5086 71.6528 91.5175 71.6096 91.5146 71.5664C91.5152 71.522 91.5041 71.4781 91.4823 71.4394C91.4594 71.401 91.4285 71.3679 91.3918 71.3424C91.3491 71.3123 91.3027 71.2877 91.2539 71.2691C91.1969 71.2464 91.1386 71.227 91.0794 71.2111C90.9943 71.1877 90.9108 71.1589 90.8294 71.1249C90.7525 71.0919 90.6802 71.0492 90.6143 70.9978C90.5513 70.9501 90.4978 70.8909 90.4568 70.8233C90.4157 70.7528 90.3949 70.6723 90.3966 70.5906C90.3953 70.5077 90.4161 70.4259 90.4568 70.3536C90.4969 70.284 90.5511 70.2239 90.6163 70.1769C90.6869 70.1266 90.7655 70.0887 90.8489 70.0649C90.9392 70.0387 91.0328 70.0257 91.1268 70.0261H91.127ZM80.306 70.0219C80.4067 70.0204 80.5071 70.0349 80.6034 70.0649C80.6825 70.0923 80.7557 70.1347 80.8188 70.1899C80.882 70.2454 80.9328 70.3138 80.9676 70.3903C81.0052 70.4733 81.0285 70.5621 81.0364 70.6529H80.6896C80.682 70.6019 80.6682 70.552 80.6485 70.5044C80.631 70.4624 80.6054 70.4244 80.5732 70.3924C80.5407 70.3608 80.5018 70.3365 80.4591 70.3212C80.4077 70.304 80.3538 70.296 80.2996 70.2976C80.232 70.2955 80.1653 70.3135 80.1079 70.3494C80.0531 70.3859 80.0074 70.4346 79.9744 70.4916C79.9364 70.5583 79.9103 70.6313 79.8968 70.7069C79.8799 70.7877 79.8713 70.87 79.8709 70.9526V71.2066C79.8718 71.2886 79.8812 71.3702 79.8989 71.4503C79.9131 71.5262 79.9408 71.5993 79.9809 71.6654C80.0163 71.7235 80.065 71.7722 80.1229 71.8078C80.1883 71.8455 80.263 71.8641 80.3384 71.8616H80.4419C80.476 71.8578 80.5099 71.8513 80.5431 71.8421C80.5737 71.8331 80.6033 71.8208 80.6314 71.8056C80.6562 71.792 80.6782 71.7738 80.6959 71.7518V71.3446H80.3083V71.0839H81.0429L81.0536 71.8358C81.0158 71.8785 80.9731 71.917 80.9264 71.9499C80.8747 71.9862 80.8191 72.0166 80.7606 72.0404C80.6966 72.0663 80.6302 72.0858 80.5624 72.0986C80.4872 72.1132 80.4107 72.1204 80.3341 72.1201C80.216 72.1226 80.0989 72.0983 79.9916 72.0489C79.8941 72.003 79.808 71.9361 79.7394 71.8529C79.6687 71.7663 79.6153 71.6669 79.5822 71.5601C79.5452 71.443 79.5263 71.3209 79.5262 71.1981V70.9461C79.5254 70.8234 79.5435 70.7013 79.58 70.5841C79.6124 70.4778 79.6643 70.3784 79.7331 70.2911C79.8014 70.2052 79.8887 70.1361 79.9881 70.0894C80.0875 70.0427 80.1963 70.0196 80.3061 70.0219H80.306ZM66.995 70.0434V71.4091C66.9956 71.4677 67.0043 71.5256 67.0209 71.5816C67.0344 71.6306 67.057 71.6765 67.0877 71.7173C67.117 71.7548 67.1545 71.785 67.1975 71.8056C67.2454 71.8278 67.2976 71.8388 67.3505 71.8379C67.4046 71.8388 67.4583 71.8278 67.5077 71.8056C67.552 71.7855 67.5912 71.7551 67.6219 71.7173C67.6536 71.677 67.677 71.6308 67.6908 71.5816C67.7072 71.5256 67.7159 71.4677 67.7167 71.4091V70.0434L68.0657 70.0521V71.4179C68.0657 71.5159 68.0475 71.6131 68.0119 71.7042C67.9788 71.7851 67.9297 71.8584 67.8675 71.9198C67.8062 71.9815 67.733 72.0298 67.652 72.0619C67.5575 72.0964 67.4575 72.1132 67.3569 72.1116C67.2585 72.1131 67.1605 72.0963 67.0682 72.0619C66.9848 72.0307 66.909 71.9821 66.8459 71.9193C66.7827 71.8566 66.7337 71.7811 66.702 71.6979C66.6661 71.6058 66.6479 71.5079 66.6482 71.4091V70.0434H66.995ZM96.1138 70.0564V70.3342H95.0906V70.9094H95.976V71.1766H95.0928V71.8228H96.1248V72.0965H94.7373V70.0564H96.1138ZM59.4378 70.0564V70.3342H58.4147V70.9094H59.298V71.1766H58.4147V71.8228H59.4465V72.0965H58.0613V70.0564H59.438H59.4378ZM74.5392 70.0564V70.3342H73.5159V70.9094H74.3992V71.1766H73.5159V71.8228H74.5477V72.0965H73.1627V70.0564H74.5392ZM63.0398 70.0499C63.137 70.0505 63.2339 70.062 63.3285 70.0844C63.412 70.1032 63.4914 70.1367 63.5633 70.1834C63.6297 70.2269 63.6846 70.2862 63.7227 70.3558C63.7628 70.4321 63.7821 70.5175 63.7787 70.6036C63.7803 70.6974 63.7491 70.7888 63.6905 70.8621C63.6279 70.9369 63.5469 70.994 63.4555 71.0279C63.512 71.0426 63.5656 71.0659 63.615 71.0969C63.6597 71.1248 63.6991 71.1606 63.7313 71.2024C63.7968 71.2867 63.8318 71.3908 63.8305 71.4976C63.8324 71.5863 63.8132 71.6741 63.7745 71.7539C63.7379 71.8269 63.6848 71.8903 63.6194 71.9391C63.5486 71.9905 63.469 72.0285 63.3845 72.0511C63.2891 72.078 63.1906 72.0917 63.0915 72.0921L62.3548 72.0899V70.0499H63.0398ZM82.6347 70.0521L83.3176 72.0921H82.9538L82.8114 71.6181H82.1414L81.9951 72.0921H81.6288L82.3246 70.0521H82.6347ZM85.2521 70.0521V70.3299H84.7891V71.8141H85.2521V72.0921H83.977V71.8141H84.4314V70.3299H83.9769V70.0521H85.2521ZM78.3112 70.0521L78.9941 72.0921H78.6301L78.4964 71.6181H77.8266L77.6801 72.0921H77.3139L78.0096 70.0521H78.3112ZM99.4228 70.0499V71.8164H100.446V72.0901H99.0695V70.0499H99.4228ZM97.2686 70.0499V71.8164H98.2918V72.0901H96.9153V70.0499H97.2686ZM69.5112 70.0456C69.6138 70.0459 69.7159 70.0597 69.8149 70.0866C69.9019 70.109 69.9837 70.1477 70.0562 70.2006C70.1233 70.251 70.1772 70.3168 70.2134 70.3924C70.2525 70.4767 70.2716 70.5688 70.2695 70.6616C70.2704 70.7252 70.2609 70.7886 70.2414 70.8491C70.2232 70.904 70.1963 70.9557 70.1617 71.0021C70.1271 71.0481 70.0858 71.0888 70.0389 71.1226C69.9894 71.1582 69.9359 71.1879 69.8795 71.2111L70.3342 72.0726V72.0901H69.9572L69.5477 71.2907H69.188V72.0856H68.8327V70.0456H69.5112ZM86.4241 70.0499L87.1199 71.4501V70.0499H87.4774L87.4754 72.0899H87.1199L86.4219 70.6876V72.0899H86.0666V70.0499H86.4241ZM71.3187 70.0499L72.0144 71.4501V70.0499H72.372V72.0899H72.0165L71.3187 70.6876V72.0899H70.9611V70.0499H71.3187ZM92.8718 70.0499V70.9116H93.6063V70.0499H93.9511L93.9488 72.0899H93.6063V71.1786H92.8739V72.0899H92.5293V70.0499H92.8718ZM55.2545 70.0499L55.2458 70.3278H54.5866V72.0899H54.2353V70.3278H53.5891V70.0499H55.2543H55.2545ZM56.198 70.0499V70.9116H56.9283V70.0499H57.273V72.0899H56.9281V71.1786H56.198V72.0899H55.8555V70.0499H56.198ZM65.1918 70.3084C65.1216 70.306 65.0523 70.3256 64.9937 70.3644C64.941 70.4016 64.8981 70.4512 64.8687 70.5087C64.8365 70.5723 64.8147 70.6406 64.8042 70.7112C64.792 70.7867 64.7855 70.8631 64.7847 70.9396V71.2024C64.786 71.2789 64.7931 71.3554 64.8063 71.4308C64.8173 71.5012 64.8392 71.5694 64.871 71.6333C64.9001 71.6914 64.9429 71.7417 64.9959 71.7797C65.0545 71.8187 65.1238 71.8382 65.194 71.8358C65.265 71.8382 65.335 71.8186 65.3945 71.7797C65.4482 71.7414 65.4924 71.6914 65.5237 71.6333C65.5574 71.57 65.5807 71.5015 65.5927 71.4308C65.606 71.3554 65.6132 71.2789 65.6142 71.2024L65.612 70.9396C65.6112 70.863 65.6041 70.7866 65.5905 70.7112C65.5785 70.6404 65.5552 70.572 65.5215 70.5087C65.4904 70.4511 65.4461 70.4016 65.3922 70.3644C65.3328 70.3257 65.2629 70.3061 65.192 70.3084H65.1918ZM63.113 71.1636L62.7102 71.1658V71.8121H63.0958C63.1477 71.8119 63.1992 71.804 63.2488 71.7884C63.2919 71.7742 63.3321 71.7522 63.3674 71.7237C63.4008 71.6969 63.428 71.6631 63.447 71.6246C63.4663 71.5835 63.4759 71.5386 63.475 71.4933C63.4756 71.4461 63.4668 71.3992 63.4492 71.3554C63.4337 71.3159 63.4093 71.2805 63.378 71.2519C63.3447 71.223 63.3059 71.201 63.2639 71.1874C63.2152 71.1717 63.1642 71.1637 63.113 71.1636ZM76.6266 71.0624V71.3316H75.4461V71.0624H76.6266ZM78.1647 70.5324L77.9169 71.3316H78.4082L78.1647 70.5324ZM82.4797 70.5324L82.2319 71.3316H82.7231L82.4797 70.5324ZM69.5134 70.3191H69.1902L69.188 71.0193H69.5132C69.568 71.0198 69.6226 71.0118 69.6749 70.9956C69.7212 70.9807 69.7643 70.9573 69.802 70.9266C69.8378 70.8976 69.8665 70.8608 69.886 70.8191C69.9065 70.7729 69.9168 70.7229 69.916 70.6724C69.917 70.6208 69.9075 70.5695 69.8882 70.5216C69.8704 70.4794 69.8431 70.4418 69.8084 70.4118C69.7713 70.3803 69.7281 70.3569 69.6814 70.3429C69.6267 70.327 69.5702 70.3191 69.5132 70.3191H69.5134ZM63.0463 70.3299H62.7102V70.9094H63.0485C63.0986 70.9094 63.1486 70.9029 63.1972 70.8901C63.2397 70.879 63.2799 70.86 63.3155 70.8341C63.3485 70.8102 63.3757 70.7793 63.3953 70.7436C63.4154 70.7058 63.4257 70.6636 63.4253 70.6208C63.4265 70.5754 63.417 70.5304 63.3975 70.4894C63.3789 70.453 63.3515 70.4219 63.3177 70.3989C63.2811 70.3743 63.2401 70.3567 63.197 70.3471C63.1475 70.3361 63.097 70.3304 63.0463 70.3299Z" fill="white"/>
</g>
<defs>
<clipPath id="clip0_688_16836">
<rect width="81" height="34.3299" fill="white" transform="translate(19.5 43.5)"/>
</clipPath>
</defs>
</svg>
