<svg width="120" height="120" viewBox="0 0 120 120" fill="none" xmlns="http://www.w3.org/2000/svg">
<path d="M67.442 54.1865H64.0078V64.6674H67.442C70.734 64.6674 72.7624 62.6567 72.7624 59.4362C72.7624 56.1988 70.734 54.1865 67.442 54.1865ZM71.6948 59.4177C71.6948 62.0871 70.0753 63.6705 67.3528 63.6705H65.0553V55.1649H67.3328C70.064 55.1826 71.6924 56.7667 71.6924 59.4177H71.6948ZM81.7491 60.8396C81.7491 62.5828 80.5923 63.6865 78.7415 63.6865C76.9083 63.6865 75.7531 62.602 75.7531 60.8749V54.1833H74.704V60.891C74.704 63.1507 76.3235 64.6634 78.7608 64.6634C81.1812 64.6634 82.7999 63.1507 82.7999 60.891V54.1833H81.7491V60.8396ZM92.9048 62.5314C92.8871 62.549 91.6597 63.8303 89.5775 63.8303C87.1394 63.8303 85.307 61.9088 85.307 59.3462C85.307 56.872 87.1225 55.0043 89.5421 55.0043C91.4813 55.0043 92.6558 56.0727 92.6751 56.0887L92.8357 56.2494L93.476 55.4846L93.3515 55.3601C93.2984 55.3071 92.034 54.0266 89.5437 54.0266C86.5184 54.0266 84.2418 56.3217 84.2418 59.3647C84.2418 62.4976 86.5369 64.8449 89.5976 64.8449C92.1682 64.8449 93.566 63.3146 93.619 63.2431L93.7435 63.1009L93.0671 62.3715L92.9048 62.5314ZM103.332 54.1865H101.98L97.2211 58.6714H96.5808V54.1873H95.5309V64.6682H96.5808V59.6675H97.2211L102.168 64.6674H103.501L98.1192 59.151L103.332 54.1865Z" fill="#00ADEE"/>
<path d="M15 54.1864H19.2351C21.335 54.1864 22.7938 55.1295 22.7938 56.9177C22.7938 57.7893 22.3664 58.697 21.584 59.1428V59.1782C22.7938 59.5517 23.2212 60.6194 23.2212 61.5448C23.2212 63.8222 21.3173 64.6584 19.2351 64.6584H15V54.1864ZM19.2528 58.2431C19.893 58.2431 20.1782 57.7804 20.1782 57.2824C20.1782 56.802 19.8938 56.3923 19.2174 56.3923H17.5626V58.2608H19.2528V58.2431ZM19.4584 62.4606C20.2055 62.4606 20.5799 61.9448 20.5799 61.3576C20.5799 60.7704 20.224 60.2892 19.4769 60.2892H17.5626V62.4598L19.4584 62.4606ZM24.5193 54.1864H27.09V62.4606H31.3604V64.6673H24.5193V54.1864ZM38.8626 62.4606H35.5891L34.9665 64.6673H32.3155L35.8743 54.1864H38.5774L42.1361 64.6673H39.5028L38.8626 62.4606ZM37.2078 56.5706L36.7804 58.3676L36.1755 60.396H38.24L37.6536 58.3676C37.4576 57.7089 37.2262 56.5706 37.2262 56.5706H37.2078ZM47.9562 54C50.5541 54 51.8884 55.4781 51.8884 55.4781L50.6963 57.4173C50.6963 57.4173 49.521 56.3577 48.0807 56.3577C46.07 56.3577 45.1269 57.8358 45.1269 59.3461C45.1269 60.8941 46.1592 62.4951 48.0807 62.4951C49.6632 62.4951 50.857 61.2138 50.857 61.2138L52.1744 63.0823C52.1744 63.0823 50.6963 64.844 47.957 64.844C44.6827 64.844 42.4583 62.5128 42.4583 59.3991C42.4583 56.3561 44.8072 54.0072 47.957 54.0072L47.9562 54ZM53.72 54.1864H56.2906V58.2255H56.6465L59.3336 54.1864H62.0914L58.7464 59.2047V59.2401L62.2697 64.685H59.4051L56.6738 60.4322H56.3179V64.685H53.7473V54.1856L53.72 54.1864Z" fill="white"/>
</svg>
