<svg width="80" height="80" viewBox="0 0 80 80" fill="none" xmlns="http://www.w3.org/2000/svg">
<g clip-path="url(#clip0_270_10995)">
<path d="M25 52.2929V52.2729C25 50.284 26.4989 48.6553 28.6475 48.6553C29.967 48.6553 30.7564 49.0954 31.4057 49.7344L30.4262 50.8638C29.8865 50.3742 29.3368 50.0744 28.6371 50.0744C27.458 50.0744 26.6085 51.0539 26.6085 52.2534V52.2733C26.6085 53.4728 27.4381 54.4722 28.6371 54.4722C29.4368 54.4722 29.9264 54.1522 30.4761 53.6526L31.4556 54.642C30.7364 55.411 29.9371 55.8909 28.5877 55.8909C26.5292 55.8909 25 54.302 25 52.2929M33.4707 48.7752H35.0093V51.5435H37.8476V48.7752H39.3873V55.7709H37.8476V52.9626H35.0093V55.771H33.4707V48.7754V48.7752ZM41.8631 48.7772H47.2245V50.1682H43.4167V51.6096H46.7672V53.0009H43.4166V54.4934H47.275V55.8841H41.8631V48.7772ZM49.5162 48.7752H54.8425V50.1745H51.0545V51.6634H54.3927V53.0625H51.0545V55.7709H49.5162V48.7752ZM40.1342 38.9102C37.5814 38.9102 35.5041 36.8333 35.5041 34.2804C35.5041 31.7272 37.5814 29.6499 40.1342 29.6499C42.2418 29.6499 44.0233 31.0653 44.5819 32.9953H46.3734C45.777 30.0968 43.2066 27.9107 40.1342 27.9107C36.6223 27.9107 33.7648 30.7681 33.7648 34.2804C33.7648 37.7925 36.6223 40.6499 40.1342 40.6499C43.2066 40.6499 45.777 38.4641 46.3733 35.5657H44.5818C44.0234 37.495 42.2418 38.9102 40.1342 38.9102Z" fill="#435363"/>
<path d="M37.0127 37.4015C37.8125 38.2011 38.9167 38.6966 40.1341 38.6966V36.8505C39.7965 36.8507 39.4622 36.7844 39.1503 36.6551C38.8385 36.5259 38.5552 36.3364 38.3168 36.0974L37.0127 37.4015Z" fill="#435363"/>
<path d="M35.7178 34.2801C35.7178 34.9119 35.8525 35.513 36.0925 36.0572L37.7812 35.3145C37.6374 34.9886 37.5632 34.6363 37.5635 34.2801C37.5635 32.8605 38.7143 31.71 40.1335 31.71V29.8639C37.6986 29.8639 35.7178 31.8451 35.7178 34.2801Z" fill="#F38B00"/>
<path d="M41.7351 30.1649L41.0654 31.8859C41.6099 32.0981 42.066 32.4892 42.359 32.9948H44.3585C43.9639 31.6989 42.988 30.654 41.7351 30.165" fill="#435363"/>
<path d="M41.0664 36.6743L41.7356 38.3952C42.9886 37.9061 43.9645 36.8608 44.3595 35.5648H42.36C42.067 36.0706 41.6109 36.4618 41.0664 36.6743Z" fill="#F38B00"/>
<path d="M31.9642 36.7504C31.935 36.6536 31.9073 36.5563 31.8814 36.4586L31.8766 36.4406C31.8529 36.3499 31.8306 36.2587 31.8097 36.1672C31.7877 36.0698 31.7672 35.972 31.7483 35.8739C31.7416 35.8384 31.7354 35.8029 31.7296 35.7674C31.7184 35.7039 31.7072 35.641 31.6973 35.5769C31.6891 35.5225 31.6815 35.468 31.6745 35.4134C31.6233 35.0376 31.5977 34.6589 31.5976 34.2797H29.8535C29.8532 34.6975 29.8794 35.1101 29.9285 35.5174C29.9293 35.5262 29.9308 35.535 29.932 35.5437C29.9457 35.6547 29.9608 35.7654 29.9779 35.875C29.9827 35.9054 29.9879 35.9357 29.9931 35.9662C30.0083 36.0564 30.0238 36.1465 30.0413 36.2361C30.0501 36.284 30.0605 36.3311 30.0705 36.3785C30.0851 36.4498 30.1003 36.5212 30.1166 36.5922C30.131 36.6544 30.1465 36.7165 30.1625 36.7787C30.1766 36.8341 30.19 36.8896 30.2047 36.9449C30.2247 37.0183 30.2458 37.0909 30.2669 37.1638C30.2757 37.1942 30.2837 37.2252 30.2929 37.2551H30.2937C30.413 37.6512 30.5562 38.0396 30.7225 38.4183L32.3207 37.7155C32.1825 37.4013 32.0635 37.079 31.9644 36.7504H31.9642Z" fill="#435363"/>
<path d="M40.1347 42.8173C37.7812 42.8173 35.6477 41.8589 34.1022 40.313L32.8668 41.5484C34.7272 43.4088 37.2961 44.5609 40.1347 44.5609C45.3773 44.5609 49.7025 40.6368 50.335 35.5657H48.575C47.9533 39.6649 44.4053 42.8173 40.1347 42.8173ZM40.1347 25.7436C42.047 25.7436 43.8133 26.3755 45.2382 27.4418L46.283 26.0415C44.568 24.7594 42.4402 24 40.1347 24C35.7725 24 32.0452 26.7171 30.5527 30.5516L32.1796 31.1846C33.4213 28.0033 36.5191 25.7436 40.1347 25.7436Z" fill="#F38B00"/>
<path d="M48.5747 32.9953H50.3347C50.1509 31.5179 49.6463 30.0985 48.8562 28.8367L47.374 29.7615C47.9914 30.7459 48.4 31.8465 48.5746 32.9953" fill="#435363"/>
<path d="M46.5914 32.9953H48.3572C47.8965 30.0342 45.8686 27.5856 43.1512 26.525L42.5205 28.1466C44.5871 28.9536 46.1501 30.7741 46.5914 32.9953Z" fill="#F38B00"/>
<path d="M40.1338 27.6966L40.1343 25.9576H40.1338C36.6087 25.9576 33.589 28.1606 32.3779 31.2624L33.9985 31.893C34.9567 29.4393 37.3454 27.6966 40.1338 27.6966Z" fill="#435363"/>
<path d="M33.5504 34.2801H31.8115C31.8115 37.7773 33.9805 40.7763 37.0436 42.0056L37.6895 40.3916C35.2661 39.4189 33.5504 37.0467 33.5504 34.2801Z" fill="#F38B00"/>
<path d="M40.1338 40.8635V42.6029C44.286 42.6029 47.7374 39.546 48.3573 35.5648H46.5909C45.9918 38.5827 43.3246 40.8635 40.1338 40.8635Z" fill="#435363"/>
</g>
<defs>
<clipPath id="clip0_270_10995">
<rect width="29.8978" height="32" fill="white" transform="translate(25 24)"/>
</clipPath>
</defs>
</svg>
