<svg width="120" height="120" viewBox="0 0 120 120" fill="none" xmlns="http://www.w3.org/2000/svg">
<path d="M53.5695 60C53.5681 59.2505 53.7146 58.508 54.0005 57.8151C54.2864 57.1223 54.7062 56.4926 55.2358 55.9622C55.7654 55.4317 56.3944 55.011 57.0868 54.724C57.7792 54.4369 58.5215 54.2893 59.271 54.2895C62.421 54.2895 64.9905 56.859 64.9905 60C64.9905 63.141 62.421 65.7105 59.271 65.7105C57.7589 65.7053 56.3103 65.1018 55.242 64.0317C54.1736 62.9616 53.5723 61.5121 53.5695 60ZM59.2725 36C48.0705 36 38.6865 43.68 36.0225 54.0465C36 54.1245 36 54.189 36 54.291C36 54.915 36.5085 55.4475 37.1475 55.4475H46.8195C47.0387 55.451 47.2539 55.3889 47.4375 55.2691C47.6212 55.1494 47.7648 54.9775 47.85 54.7755C49.8495 50.4555 54.21 47.4315 59.28 47.4315C66.21 47.4315 71.85 53.0715 71.85 60.009C71.85 66.9465 66.21 72.5865 59.2725 72.5865C54.21 72.5865 49.845 69.5865 47.85 65.2425C47.6565 64.86 47.2725 64.5705 46.8195 64.5705H37.1475C36.9967 64.5699 36.8472 64.5992 36.7077 64.6566C36.5682 64.7141 36.4415 64.7986 36.3348 64.9053C36.2281 65.0119 36.1436 65.1387 36.0861 65.2782C36.0287 65.4177 35.9994 65.5671 36 65.718C36 65.796 36.03 65.868 36.03 65.9595C38.6715 76.32 48.0705 84 59.2725 84C72.522 84 83.2725 73.2495 83.2725 60C83.2725 46.758 72.522 36 59.2725 36Z" fill="white"/>
</svg>
