<svg
  width="120"
  height="120"
  viewBox="0 0 120 120"
  fill="none"
  xmlns="http://www.w3.org/2000/svg"
>
<path
    d="M31.2387 64.4032H30.8994L30 66.4564H30.3733L30.5769 65.9643H31.5442L31.7478 66.4564H32.1211L31.2218 64.4032H31.2387ZM31.4254 65.6419H30.7297L31.086 64.8274L31.4424 65.6419H31.4254ZM34.2932 64.4032H33.9368V65.574C33.9368 65.7607 33.8859 65.8964 33.8011 65.9983C33.7162 66.1001 33.5805 66.134 33.4278 66.134C33.2581 66.134 33.1393 66.0831 33.0544 65.9813C32.9696 65.8795 32.9187 65.7437 32.9187 65.5401V64.3862H32.5623V65.5571C32.5623 65.7098 32.5793 65.8286 32.6302 65.9473C32.6641 66.0661 32.732 66.151 32.7999 66.2358C32.8678 66.3037 32.9696 66.3716 33.0714 66.4055C33.1732 66.4395 33.292 66.4564 33.4278 66.4564C33.5635 66.4564 33.6823 66.4395 33.7841 66.4055C33.8859 66.3716 33.9877 66.3037 34.0556 66.2358C34.1235 66.151 34.1914 66.0661 34.2253 65.9473C34.2592 65.8286 34.2932 65.6928 34.2932 65.5401V64.3862V64.4032ZM36.7876 65.4213C36.7876 65.2856 36.7537 65.1498 36.7028 65.014C36.6519 64.8953 36.584 64.7765 36.4822 64.6916C36.3804 64.6068 36.2786 64.5219 36.1428 64.471C36.007 64.4201 35.8713 64.3862 35.7016 64.3862H34.938V66.4225H35.7016C35.8543 66.4225 36.007 66.3885 36.1428 66.3376C36.2786 66.2867 36.3973 66.2189 36.4822 66.117C36.584 66.0322 36.6519 65.9134 36.7028 65.7946C36.7537 65.6758 36.7876 65.5401 36.7876 65.3874V65.4213ZM36.4143 65.4213C36.4143 65.5231 36.3973 65.608 36.3634 65.6928C36.3295 65.7777 36.2786 65.8455 36.2276 65.9134C36.1598 65.9813 36.0919 66.0152 36.007 66.0492C35.9222 66.0831 35.8204 66.1001 35.7186 66.1001H35.3113V64.7086H35.7186C35.8204 64.7086 35.9222 64.7256 36.007 64.7595C36.0919 64.7935 36.1767 64.8444 36.2276 64.9122C36.2955 64.9801 36.3295 65.048 36.3634 65.1328C36.3973 65.2177 36.4143 65.3025 36.4143 65.4043V65.4213ZM37.3985 64.4032V66.4395H37.7549V64.4032H37.3985ZM39.316 64.7425H39.9608V64.4032H38.2979V64.7425H38.9427V66.4564H39.299V64.7425H39.316ZM40.5208 64.4032V66.4395H40.8772V64.4032H40.5208ZM42.9983 65.8116L41.9123 64.4032H41.5729V66.4395H41.9292V64.9801L43.0492 66.4395H43.3547V64.4032H42.9983V65.8116ZM45.8491 66.151V65.2856H44.9837V65.591H45.5097V65.9813C45.4418 66.0322 45.374 66.0661 45.2891 66.1001C45.2043 66.134 45.1194 66.134 45.0176 66.134C44.9158 66.134 44.814 66.117 44.7291 66.0831C44.6443 66.0492 44.5764 65.9983 44.5085 65.9304C44.4407 65.8625 44.4067 65.7946 44.3728 65.6928C44.3389 65.608 44.3219 65.5062 44.3219 65.4043C44.3219 65.3025 44.3389 65.2177 44.3728 65.1159C44.4067 65.031 44.4576 64.9462 44.5085 64.8783C44.5595 64.8104 44.6443 64.7595 44.7122 64.7256C44.797 64.6916 44.8819 64.6747 44.9667 64.6747C45.0346 64.6747 45.0855 64.6747 45.1364 64.6916C45.1873 64.7086 45.2382 64.7086 45.2891 64.7425C45.34 64.7595 45.374 64.7765 45.4249 64.8104C45.4588 64.8444 45.5097 64.8613 45.5437 64.8953L45.7643 64.6238C45.7133 64.5729 45.6624 64.5389 45.5946 64.505C45.5437 64.471 45.4758 64.4371 45.4249 64.4201C45.357 64.4032 45.2891 64.3862 45.2212 64.3692C45.1534 64.3523 45.0685 64.3523 44.9837 64.3523C44.831 64.3523 44.6952 64.3862 44.5595 64.4371C44.4237 64.488 44.3219 64.5729 44.2201 64.6577C44.1352 64.7595 44.0504 64.8613 43.9995 64.9971C43.9486 65.1328 43.9146 65.2686 43.9146 65.4043C43.9146 65.5571 43.9316 65.6928 43.9825 65.8286C44.0334 65.9643 44.1013 66.0661 44.2031 66.1679C44.288 66.2698 44.4067 66.3376 44.5425 66.3885C44.6782 66.4395 44.814 66.4734 44.9837 66.4734C45.0685 66.4734 45.1534 66.4734 45.2382 66.4564C45.3231 66.4394 45.3909 66.4225 45.4588 66.3885C45.5267 66.3546 45.5946 66.3207 45.6624 66.2867C45.7303 66.2528 45.7812 66.2019 45.8321 66.1679L45.8491 66.151ZM47.2236 65.7098V65.3704H46.3582V65.7098H47.2236ZM49.1411 65.574V66.4395H49.4974V64.4032H49.1411V65.2516H48.1739V64.4032H47.8175V66.4395H48.1739V65.574H49.1411ZM51.2283 64.3862H50.8889L49.9896 66.4395H50.3629L50.5665 65.9473H51.5337L51.7374 66.4395H52.1107L51.2113 64.3862H51.2283ZM51.415 65.6249H50.7192L51.0756 64.8104L51.4319 65.6249H51.415ZM54.3676 66.4395L53.8246 65.6589C53.8924 65.6419 53.9603 65.608 54.0282 65.574C54.0791 65.5401 54.147 65.4892 54.1809 65.4383C54.2318 65.3874 54.2488 65.3195 54.2827 65.2686C54.2997 65.2007 54.3167 65.1328 54.3167 65.048C54.3167 64.9462 54.2997 64.8613 54.2658 64.7765C54.2318 64.6916 54.1809 64.6238 54.113 64.5729C54.0452 64.5219 53.9603 64.471 53.8755 64.4371C53.7737 64.4032 53.6718 64.3862 53.5531 64.3862H52.6367V66.4225H52.9931V65.7098H53.4343L53.9433 66.4225H54.3676V66.4395ZM53.9433 65.065C53.9433 65.1668 53.9094 65.2516 53.8246 65.3195C53.7567 65.3874 53.6549 65.4213 53.5191 65.4213H52.9931V64.7425H53.5191C53.6549 64.7425 53.7567 64.7765 53.8246 64.8274C53.8924 64.8783 53.9433 64.9631 53.9433 65.0819V65.065ZM56.7432 65.4213C56.7432 65.2856 56.7093 65.1498 56.6584 65.014C56.6075 64.8953 56.5396 64.7765 56.4378 64.6916C56.336 64.6068 56.2342 64.5219 56.0984 64.471C55.9627 64.4201 55.8269 64.3862 55.6572 64.3862H54.8936V66.4225H55.6572C55.8099 66.4225 55.9627 66.3885 56.0984 66.3376C56.2342 66.2867 56.3529 66.2189 56.4378 66.117C56.5396 66.0322 56.6075 65.9134 56.6584 65.7946C56.7093 65.6758 56.7432 65.5401 56.7432 65.3874V65.4213ZM56.3699 65.4213C56.3699 65.5231 56.353 65.608 56.319 65.6928C56.2851 65.7777 56.2342 65.8455 56.1833 65.9134C56.1154 65.9813 56.0475 66.0152 55.9627 66.0492C55.8778 66.0831 55.776 66.1001 55.6742 66.1001H55.2669V64.7086H55.6742C55.776 64.7086 55.8778 64.7256 55.9627 64.7595C56.0475 64.7935 56.1324 64.8444 56.1833 64.9122C56.2511 64.9801 56.2851 65.048 56.319 65.1328C56.353 65.2177 56.3699 65.3025 56.3699 65.4043V65.4213ZM58.8474 64.4032H57.3372V66.4395H58.8644V66.117H57.6935V65.574H58.7117V65.2516H57.6935V64.7256H58.8474V64.4032ZM60.8667 65.8116L59.7807 64.4032H59.4413V66.4395H59.7977V64.9801L60.9176 66.4395H61.2231V64.4032H60.8667V65.8116ZM61.9188 64.4032V66.4395H62.2752V64.4032H61.9188ZM64.3963 65.8116L63.3103 64.4032H62.9709V66.4395H63.3272V64.9801L64.4472 66.4395H64.7526V64.4032H64.3963V65.8116ZM67.2471 66.151V65.2856H66.3817V65.591H66.9077V65.9813C66.8398 66.0322 66.772 66.0661 66.6871 66.1001C66.6023 66.134 66.5174 66.134 66.4156 66.134C66.3138 66.134 66.212 66.117 66.1271 66.0831C66.0423 66.0492 65.9744 65.9983 65.9065 65.9304C65.8387 65.8625 65.8047 65.7946 65.7708 65.6928C65.7368 65.608 65.7199 65.5062 65.7199 65.4043C65.7199 65.3025 65.7368 65.2177 65.7708 65.1159C65.8047 65.031 65.8556 64.9462 65.9065 64.8783C65.9574 64.8104 66.0423 64.7595 66.1102 64.7256C66.195 64.6916 66.2799 64.6747 66.3647 64.6747C66.4326 64.6747 66.4835 64.6747 66.5344 64.6916C66.5853 64.7086 66.6362 64.7086 66.6871 64.7425C66.738 64.7595 66.772 64.7765 66.8229 64.8104C66.8568 64.8444 66.9077 64.8613 66.9416 64.8953L67.1622 64.6238C67.1113 64.5729 67.0604 64.5389 66.9926 64.505C66.9416 64.471 66.8738 64.4371 66.8229 64.4201C66.755 64.4032 66.6871 64.3862 66.6192 64.3692C66.5514 64.3523 66.4665 64.3523 66.3817 64.3523C66.229 64.3523 66.0932 64.3862 65.9574 64.4371C65.8217 64.488 65.7199 64.5729 65.6181 64.6577C65.5332 64.7595 65.4484 64.8613 65.3975 64.9971C65.3465 65.1328 65.3126 65.2686 65.3126 65.4043C65.3126 65.5571 65.3296 65.6928 65.3805 65.8286C65.4314 65.9643 65.4993 66.0661 65.6011 66.1679C65.6859 66.2698 65.8047 66.3376 65.9405 66.3885C66.0762 66.4395 66.212 66.4734 66.3817 66.4734C66.4665 66.4734 66.5514 66.4734 66.6362 66.4564C66.7211 66.4394 66.7889 66.4225 66.8568 66.3885C66.9247 66.3546 66.9926 66.3207 67.0604 66.2867C67.1283 66.2528 67.1792 66.2019 67.2301 66.1679L67.2471 66.151ZM68.6216 65.7098V65.3704H67.7562V65.7098H68.6216ZM70.9803 66.1001L70.7427 65.8625C70.6579 65.9473 70.573 66.0152 70.4712 66.0492C70.3864 66.1001 70.2676 66.117 70.1488 66.117C70.047 66.117 69.9621 66.1001 69.8773 66.0661C69.7924 66.0322 69.7246 65.9813 69.6567 65.9134C69.5888 65.8455 69.5549 65.7777 69.5209 65.6758C69.487 65.591 69.47 65.4892 69.47 65.3874C69.47 65.2856 69.487 65.1837 69.5209 65.0989C69.5549 65.014 69.6058 64.9292 69.6567 64.8783C69.7246 64.8104 69.7924 64.7595 69.8773 64.7256C69.9621 64.6916 70.047 64.6747 70.1488 64.6747C70.2676 64.6747 70.3694 64.6916 70.4542 64.7425C70.5391 64.7935 70.6239 64.8444 70.7088 64.9292L70.9463 64.6577C70.8954 64.6068 70.8445 64.5729 70.7936 64.5219C70.7427 64.488 70.6748 64.4541 70.6239 64.4201C70.5561 64.3862 70.4882 64.3692 70.4203 64.3523C70.3355 64.3353 70.2506 64.3353 70.1658 64.3353C70.013 64.3353 69.8603 64.3692 69.7415 64.4201C69.6058 64.471 69.504 64.5559 69.4022 64.6407C69.3173 64.7425 69.2325 64.8444 69.1816 64.9801C69.1307 65.1159 69.0967 65.2516 69.0967 65.3874C69.0967 65.5401 69.1307 65.6758 69.1816 65.7946C69.2325 65.9304 69.3003 66.0322 69.4022 66.134C69.487 66.2358 69.6058 66.3037 69.7246 66.3546C69.8433 66.4055 69.9961 66.4395 70.1318 66.4395C70.2336 66.4395 70.3185 66.4395 70.3864 66.4225C70.4712 66.4055 70.5391 66.3885 70.607 66.3546C70.6748 66.3207 70.7427 66.2867 70.7936 66.2358C70.8445 66.1849 70.9124 66.134 70.9633 66.0831L70.9803 66.1001ZM73.4917 65.4043C73.4917 65.2686 73.4578 65.1159 73.4069 64.9971C73.3559 64.8613 73.2881 64.7595 73.1863 64.6577C73.0844 64.5559 72.9826 64.488 72.8469 64.4371C72.7111 64.3862 72.5754 64.3523 72.4227 64.3523C72.2699 64.3523 72.1172 64.3862 71.9984 64.4371C71.8627 64.488 71.7609 64.5729 71.659 64.6577C71.5572 64.7595 71.4894 64.8613 71.4384 64.9971C71.3875 65.1328 71.3536 65.2686 71.3536 65.4043C71.3536 65.5401 71.3875 65.6928 71.4384 65.8116C71.4894 65.9473 71.5572 66.0492 71.659 66.151C71.7609 66.2528 71.8627 66.3207 71.9984 66.3716C72.1342 66.4225 72.2699 66.4564 72.4227 66.4564C72.5754 66.4564 72.7281 66.4225 72.8469 66.3716C72.9826 66.3207 73.0844 66.2358 73.1863 66.151C73.2881 66.0492 73.3559 65.9473 73.4069 65.8116C73.4578 65.6758 73.4917 65.5401 73.4917 65.4043ZM73.1184 65.4043C73.1184 65.5062 73.1014 65.591 73.0675 65.6928C73.0335 65.7777 72.9826 65.8625 72.9317 65.9304C72.8638 65.9983 72.796 66.0492 72.7111 66.0831C72.6263 66.117 72.5414 66.134 72.4396 66.134C72.3378 66.134 72.253 66.117 72.1511 66.0831C72.0663 66.0492 71.9984 65.9983 71.9305 65.9304C71.8627 65.8625 71.8287 65.7946 71.7948 65.6928C71.7609 65.608 71.7439 65.5062 71.7439 65.4043C71.7439 65.3025 71.7609 65.2177 71.7948 65.1159C71.8287 65.031 71.8796 64.9462 71.9305 64.8783C71.9984 64.8104 72.0663 64.7595 72.1511 64.7256C72.236 64.6916 72.3208 64.6747 72.4227 64.6747C72.5245 64.6747 72.6093 64.6916 72.7111 64.7256C72.796 64.7595 72.8638 64.8104 72.9317 64.8783C72.9996 64.9462 73.0335 65.014 73.0675 65.1159C73.1014 65.2007 73.1184 65.3025 73.1184 65.4043ZM75.7316 64.9631V66.4225H76.088V64.3862H75.6977L75.0698 65.3534L74.442 64.3862H74.0517V66.4225H74.408V64.9631L75.0529 65.9134H75.0698L75.7147 64.9462L75.7316 64.9631ZM78.3449 65.065C78.3449 64.9631 78.3279 64.8613 78.2939 64.7765C78.26 64.6916 78.2091 64.6238 78.1412 64.5559C78.0734 64.488 77.9885 64.4541 77.9037 64.4201C77.8018 64.3862 77.7 64.3692 77.5812 64.3692H76.7837V66.4055H77.14V65.7437H77.5473C77.6661 65.7437 77.7679 65.7267 77.8697 65.6928C77.9715 65.6589 78.0564 65.6249 78.1243 65.5571C78.1921 65.5062 78.26 65.4213 78.2939 65.3365C78.3448 65.2516 78.3618 65.1498 78.3618 65.031L78.3449 65.065ZM77.9885 65.0819C77.9885 65.2007 77.9546 65.2856 77.8697 65.3534C77.7849 65.4213 77.6831 65.4552 77.5473 65.4552H77.1231V64.7256H77.5473C77.6831 64.7256 77.7849 64.7595 77.8697 64.8104C77.9546 64.8783 77.9885 64.9631 77.9885 65.0819ZM78.8709 66.4225H80.2963V66.1001H79.2272V64.3862H78.8709V66.4225ZM80.8563 64.3862V66.4225H81.2126V64.3862H80.8563ZM82.9604 64.3692H82.6211L81.7217 66.4225H82.095L82.2986 65.9304H83.2659L83.4695 66.4225H83.8428L82.9435 64.3692H82.9604ZM83.1471 65.608H82.4514L82.8077 64.7935L83.1641 65.608H83.1471ZM85.7943 65.7946L84.7083 64.3862H84.3689V66.4225H84.7252V64.9631L85.8452 66.4225H86.1506V64.3862H85.7943V65.7946ZM88.5942 66.1001L88.3566 65.8625C88.2718 65.9473 88.1869 66.0152 88.0851 66.0492C88.0002 66.1001 87.8815 66.117 87.7627 66.117C87.6609 66.117 87.576 66.1001 87.4912 66.0661C87.4063 66.0322 87.3385 65.9813 87.2706 65.9134C87.2027 65.8455 87.1688 65.7777 87.1348 65.6758C87.1009 65.591 87.0839 65.4892 87.0839 65.3874C87.0839 65.2856 87.1009 65.1837 87.1348 65.0989C87.1688 65.014 87.2197 64.9292 87.2706 64.8783C87.3385 64.8104 87.4063 64.7595 87.4912 64.7256C87.576 64.6916 87.6609 64.6747 87.7627 64.6747C87.8815 64.6747 87.9833 64.6916 88.0681 64.7425C88.153 64.7935 88.2378 64.8444 88.3227 64.9292L88.5602 64.6577C88.5093 64.6068 88.4584 64.5729 88.4075 64.5219C88.3566 64.488 88.2887 64.4541 88.2378 64.4201C88.1699 64.3862 88.1021 64.3692 88.0342 64.3523C87.9493 64.3353 87.8645 64.3353 87.7797 64.3353C87.6269 64.3353 87.4742 64.3692 87.3554 64.4201C87.2197 64.471 87.1179 64.5559 87.016 64.6407C86.9312 64.7425 86.8464 64.8444 86.7954 64.9801C86.7445 65.1159 86.7106 65.2516 86.7106 65.3874C86.7106 65.5401 86.7445 65.6758 86.7954 65.7946C86.8464 65.9304 86.9142 66.0322 87.016 66.134C87.1009 66.2358 87.2197 66.3037 87.3385 66.3546C87.4572 66.4055 87.61 66.4395 87.7457 66.4395C87.8475 66.4395 87.9324 66.4395 88.0002 66.4225C88.0851 66.4055 88.153 66.3885 88.2208 66.3546C88.2887 66.3207 88.3566 66.2867 88.4075 66.2358C88.4584 66.1849 88.5263 66.134 88.5772 66.0831L88.5942 66.1001ZM90.6305 64.3862H89.1202V66.4225H90.6474V66.1001H89.4766V65.5571H90.4947V65.2346H89.4766V64.7086H90.6305V64.3862Z"
    fill="#F3F3F3"
  />
<path
    d="M83.7249 62.7913V59.092L78.5494 53.051H80.8402L84.6413 57.5478L88.4424 53.051H90.6144L85.4219 59.092V62.7913H83.7249ZM72.5423 58.7526V57.2593H77.4803V58.7526H72.5423ZM71.3036 62.7913V61.6883L71.3206 57.6836C71.3375 57.2933 71.4224 56.9539 71.5412 56.6145C71.6939 56.2242 71.8975 55.9018 72.169 55.6303C72.4405 55.3588 72.7629 55.1382 73.1363 54.9855C73.5096 54.8328 73.9168 54.7479 74.358 54.7479H77.9046V53.051H74.358C73.6793 53.051 73.0514 53.1698 72.4745 53.3904C71.8975 53.611 71.4054 53.9334 70.9812 54.3576C70.557 54.7649 70.2176 55.274 69.997 55.8679C69.7594 56.4788 69.6406 57.1745 69.6406 57.8193V62.7913H71.3375H71.3036Z"
    fill="#FF3D00"
  />
<path
    d="M63.6163 61.0774C64.0575 61.0774 64.4817 60.9925 64.8551 60.8398C65.2284 60.6871 65.5508 60.4495 65.8223 60.178C66.0938 59.8895 66.3144 59.5671 66.4671 59.1599C66.6198 58.7696 66.6877 58.3454 66.6877 57.8872C66.6877 57.429 66.6198 57.0048 66.4671 56.6145C66.3144 56.2242 66.1108 55.8848 65.8223 55.6133C65.5508 55.3418 65.2284 55.1212 64.8551 54.9685C64.4817 54.8158 64.0745 54.731 63.6163 54.731H61.2406C60.7994 54.731 60.3922 54.8158 60.0189 54.9685C59.6456 55.1212 59.3231 55.3418 59.0516 55.6133C58.7801 55.8848 58.5765 56.2242 58.4238 56.5976C58.2711 56.9878 58.2032 57.4121 58.2032 57.8702C58.2032 58.3284 58.2711 58.7526 58.4238 59.1429C58.5765 59.5332 58.7801 59.8726 59.0516 60.1611C59.3231 60.4495 59.6456 60.6701 60.0189 60.8228C60.3922 60.9756 60.7994 61.0604 61.2406 61.0604H63.6163V61.0774ZM61.2406 62.7743C60.5619 62.7743 59.934 62.6385 59.3571 62.384C58.7801 62.1295 58.288 61.7731 57.8638 61.3319C57.4396 60.8907 57.1002 60.3647 56.8796 59.7538C56.642 59.1429 56.5232 58.4811 56.5232 57.7854C56.5232 57.0727 56.642 56.4109 56.8796 55.8339C57.1172 55.24 57.4396 54.7479 57.8638 54.3237C58.288 53.8995 58.7971 53.594 59.3571 53.3565C59.934 53.1359 60.5619 53.0171 61.2406 53.0171H63.6163C64.329 53.0171 64.9738 53.1359 65.5508 53.3734C66.1447 53.611 66.6368 53.9334 67.061 54.3576C67.4853 54.7819 67.8077 55.274 68.0452 55.8679C68.2828 56.4618 68.4016 57.1066 68.4016 57.8024C68.4016 58.5151 68.2828 59.1599 68.0452 59.7708C67.8077 60.3816 67.4853 60.9077 67.061 61.3489C66.6368 61.7901 66.1277 62.1464 65.5508 62.401C64.9738 62.6555 64.329 62.7913 63.6333 62.7913H61.2576L61.2406 62.7743ZM44.9843 62.7743V61.0774H52.298C52.7561 61.0774 53.1125 60.9586 53.35 60.721C53.5876 60.4835 53.7234 60.178 53.7234 59.7877C53.7234 59.3635 53.6046 59.0581 53.35 58.8375C53.1125 58.6338 52.7561 58.5151 52.298 58.5151H47.8181C47.36 58.5151 46.9527 58.4472 46.5794 58.3114C46.2061 58.1757 45.9006 57.989 45.6461 57.7345C45.3915 57.4969 45.1879 57.1915 45.0522 56.8521C44.9164 56.5127 44.8485 56.1394 44.8485 55.7321C44.8485 55.3418 44.9164 54.9685 45.0352 54.6461C45.1709 54.3067 45.3576 54.0183 45.6121 53.7807C45.8667 53.5431 46.1891 53.3565 46.5624 53.2037C46.9357 53.068 47.36 53.0001 47.8521 53.0001H54.8433V54.697H47.8521C47.4618 54.697 47.1563 54.7988 46.9357 55.0194C46.7151 55.2231 46.6133 55.5285 46.6133 55.9018C46.6133 56.2751 46.7151 56.5636 46.9357 56.7672C47.1563 56.9709 47.4448 57.0727 47.8351 57.0727H52.298C53.2822 57.0727 54.0458 57.3103 54.5548 57.7684C55.0639 58.2266 55.3184 58.9393 55.3184 59.8895C55.3184 60.2968 55.2506 60.6871 55.1318 61.0265C55.013 61.3828 54.8263 61.6713 54.5718 61.9258C54.3173 62.1804 54.0118 62.384 53.6215 62.5198C53.2482 62.6555 52.7901 62.7403 52.281 62.7403H44.9673L44.9843 62.7743ZM41.5056 62.7743V53.034H43.2025V62.7743H41.5056ZM34.7519 62.7743C34.0732 62.7743 33.4453 62.6385 32.8684 62.384C32.2914 62.1295 31.7993 61.7731 31.3581 61.3319C30.9339 60.8907 30.5945 60.3647 30.3739 59.7538C30.1364 59.1429 30.0176 58.4811 30.0176 57.7854C30.0176 57.0727 30.1364 56.4109 30.3739 55.8339C30.6115 55.24 30.9339 54.7479 31.3581 54.3237C31.7824 53.8995 32.2914 53.594 32.8684 53.3565C33.4453 53.1359 34.0732 53.0171 34.7519 53.0171H40.0293V54.714H34.7519C34.3107 54.714 33.9035 54.7988 33.5302 54.9516C33.1569 55.1043 32.8344 55.3249 32.5799 55.5964C32.3084 55.8679 32.1048 56.2073 31.9521 56.5806C31.7993 56.9709 31.7315 57.3951 31.7315 57.8533C31.7315 58.3114 31.7993 58.7357 31.9521 59.1259C32.1048 59.5162 32.3084 59.8556 32.5799 60.1441C32.8514 60.4326 33.1738 60.6532 33.5302 60.8059C33.9035 60.9586 34.3107 61.0434 34.7519 61.0434H40.0293V62.7403H34.7519V62.7743Z"
    fill="white"
  />
</svg>
