<svg width="120" height="120" viewBox="0 0 120 120" fill="none" xmlns="http://www.w3.org/2000/svg">
<g clip-path="url(#clip0_688_16821)">
<path d="M39.1121 83.9479H36V76.7831H39.1121C41.3544 76.7831 42.477 77.9124 42.477 80.1701C42.477 82.6871 41.3544 83.9479 39.1121 83.9479ZM37.3309 82.7948H38.9111C40.401 82.7948 41.145 81.9199 41.145 80.169C41.145 78.6786 40.401 77.9334 38.9111 77.9334H37.3309V82.7946V82.7948ZM43.8714 83.9479H42.5051L45.5526 76.7831H46.983L50.097 83.9479H48.6654L47.7617 81.9936H45.4622L45.9193 80.8423H47.4111L46.2354 78.1506L43.8716 83.9479H43.8714ZM49.3446 76.7831H54.7926V77.9351H52.734V83.9479H51.4039V77.9351H49.344L49.3446 76.7831ZM55.4766 83.9479H54.1106L57.1586 76.7831H58.5891L61.7023 83.9479H60.2708L59.3672 81.9936H57.0673L57.5233 80.8423H59.0151L57.8394 78.1506L55.4769 83.9479H55.4766ZM65.697 83.9479H62.5849V76.7831H65.697C67.9404 76.7831 69.0619 77.9124 69.0619 80.1701C69.0619 82.6871 67.9404 83.9479 65.697 83.9479ZM63.915 82.7948H65.4966C66.9853 82.7948 67.731 81.9199 67.731 80.169C67.731 78.6786 66.9851 77.9334 65.4966 77.9334H63.915V82.7946V82.7948ZM69.9624 80.3754C69.9624 77.946 71.1654 76.7316 73.5684 76.7316C75.9347 76.7316 77.1174 77.946 77.1174 80.3754C77.1174 82.7904 75.9349 83.9994 73.5684 83.9994C71.2716 83.9989 70.071 82.7904 69.9624 80.3754ZM73.5684 82.8444C75.0139 82.8444 75.7369 82.0116 75.7369 80.3449C75.7369 78.7039 75.0139 77.8824 73.5684 77.8824C72.0853 77.8824 71.3441 78.7037 71.3441 80.3449C71.3449 82.0117 72.0859 82.8442 73.5684 82.8442M82.6691 81.0486V82.7256C82.362 82.806 82.0866 82.845 81.846 82.845C80.2181 82.845 79.4059 81.9851 79.4059 80.265C79.4059 78.6769 80.2686 77.883 81.9911 77.883C82.7111 77.883 83.3801 78.0169 83.9993 78.2843V77.0814C83.3809 76.848 82.6781 76.7304 81.891 76.7304C79.314 76.7304 78.0247 77.9076 78.0247 80.2644C78.0247 82.752 79.2919 83.9981 81.8256 83.9981C82.6974 83.9981 83.4216 83.871 84 83.6166V79.8684H81.8512L81.402 81.0474H82.6691V81.0486ZM72.0071 63.0281L68.8402 60.939L66.1986 65.352L63.126 64.4539L60.4206 68.583L60.5593 69.8826L75.2694 67.1719L74.415 57.9804L72.0071 63.0281ZM58.2894 59.0659L60.6499 58.7411C61.0314 58.9129 61.2971 58.9781 61.755 59.0946C62.4684 59.28 63.2934 59.4583 64.5156 58.8426C64.8 58.7016 65.3929 58.1599 65.6321 57.8507L75.3019 56.097L76.2881 68.0359L59.7216 71.0214L58.2894 59.0659ZM76.251 54.7639L75.2964 54.9457L73.4625 36L42.2179 39.6229L46.0676 70.86L49.7252 70.329C49.4331 69.912 48.9782 69.4074 48.2017 68.7619C47.1247 67.8671 47.5052 66.3469 48.1412 65.3869C48.9817 63.765 53.3132 61.704 53.0677 59.112C52.9796 58.1694 52.8302 56.943 51.9548 56.1019C51.9218 56.451 51.9812 56.7863 51.9812 56.7863C51.9812 56.7863 51.6217 56.328 51.4431 55.7034C51.2653 55.4634 51.1256 55.3871 50.9366 55.0669C50.8016 55.437 50.8196 55.8666 50.8196 55.8666C50.8196 55.8666 50.5256 55.1724 50.4782 54.5861C50.3042 54.8484 50.2603 55.3464 50.2603 55.3464C50.2603 55.3464 49.8787 54.252 49.9659 53.6621C49.7917 53.1491 49.2752 52.131 49.4211 49.8174C50.3743 50.4851 52.4737 50.3269 53.2916 49.1214C53.5627 48.7219 53.7493 47.6321 53.1561 45.4841C52.7751 44.1071 51.8317 42.0564 51.4641 41.2781L51.4202 41.31C51.6141 41.937 52.0136 43.2504 52.1672 43.8881C52.6316 45.8201 52.7559 46.4934 52.5381 47.3844C52.3524 48.159 51.9081 48.6654 50.7812 49.2319C49.6543 49.8 48.1586 48.417 48.0643 48.3409C46.9693 47.4684 46.1222 46.0459 46.0281 45.354C45.9296 44.5974 46.4642 44.1431 46.7336 43.5246C46.3477 43.6344 45.9182 43.8306 45.9182 43.8306C45.9182 43.8306 46.4312 43.2996 47.0636 42.8406C47.3049 42.6845 47.536 42.5131 47.7555 42.3276C47.3558 42.321 47.0312 42.3324 47.0312 42.3324C47.0312 42.3324 47.6978 41.9724 48.3883 41.7101C47.8832 41.688 47.3991 41.7066 47.3991 41.7066C47.3991 41.7066 48.8863 41.0411 50.0606 40.5534C50.8682 40.2221 51.6572 40.32 52.1006 40.9614C52.6826 41.8014 53.2941 42.2574 54.5893 42.54C55.3851 42.1871 55.6262 42.0066 56.6257 41.7337C57.5053 40.7659 58.1961 40.641 58.1961 40.641C58.1961 40.641 57.8533 40.9554 57.7616 41.4491C58.2602 41.0561 58.8068 40.728 58.8068 40.728C58.8068 40.728 58.5949 40.989 58.3976 41.4041L58.4432 41.4726C59.0252 41.1234 59.7092 40.8486 59.7092 40.8486C59.7092 40.8486 59.5136 41.0959 59.2843 41.4156C59.7236 41.412 60.6133 41.4343 60.9591 41.4731C62.9983 41.5181 63.4213 39.2959 64.2038 39.0169C65.1836 38.667 65.6216 38.4551 67.2913 40.0956C68.7236 41.5044 69.8432 44.0244 69.2871 44.589C68.8208 45.0577 67.9014 44.406 66.8827 43.1364C66.3446 42.4639 65.9372 41.6689 65.7465 40.6584C65.5856 39.8059 64.9592 39.3114 64.9592 39.3114C64.9592 39.3114 65.3222 40.1214 65.3222 40.8349C65.3222 41.2249 65.3709 42.6821 65.9961 43.5006C65.9342 43.62 65.9053 44.0921 65.8371 44.1829C65.1097 43.3039 63.5481 42.675 63.2931 42.4897C64.1552 43.1959 66.1363 44.8181 66.8972 46.374C67.6172 47.8446 67.1931 49.1929 67.5572 49.5414C67.6611 49.641 69.1052 51.441 69.3831 52.3451C69.8677 53.9209 69.4118 55.5774 68.7774 56.6046L67.0057 56.8806C66.7466 56.8086 66.5721 56.7726 66.3397 56.6381C66.4682 56.4112 66.7226 55.8461 66.7251 55.7291L66.6248 55.554C66.0735 56.3351 65.1501 57.0936 64.3826 57.5291C63.3782 58.0986 62.2207 58.0104 61.4672 57.7776C59.3287 57.1181 57.3062 55.6729 56.8183 55.293C56.8183 55.293 56.8033 55.596 56.8952 55.6642C57.4341 56.2729 58.6693 57.3726 59.8641 58.14L57.3182 58.4201L58.5219 67.7904C57.9883 67.8666 57.9051 67.9044 57.3212 67.9873C56.8063 66.1686 55.8218 64.9811 54.7453 64.2894C53.7962 63.6791 52.4871 63.5419 51.2342 63.7901L51.1537 63.8839C52.0251 63.7931 53.0533 63.9191 54.1101 64.5881C55.1469 65.244 55.9826 66.9379 56.2903 67.9571C56.6846 69.2603 56.9571 70.6549 55.8962 72.1327C55.1421 73.1831 52.9401 73.7634 51.1603 72.5077C51.6356 73.272 52.2776 73.8966 53.1427 74.0141C54.4268 74.1889 55.6453 73.9656 56.4842 73.1048C57.2001 72.3684 57.5803 70.8289 57.4802 69.2076L58.6136 69.0431L59.0228 71.9531L77.7817 69.6941L76.2512 54.7639H76.251ZM64.8379 46.8611C64.7856 46.9806 64.7029 47.0591 64.8264 47.448L64.8336 47.4701L64.8534 47.5208L64.905 47.637C65.1276 48.0924 65.3719 48.5214 65.781 48.741C65.8898 48.7226 65.9996 48.7107 66.1099 48.7056C66.4939 48.6887 66.7361 48.7494 66.8891 48.8321C66.903 48.7553 66.906 48.6439 66.8976 48.4789C66.8676 47.9021 67.0116 46.9219 65.9034 46.4059C65.4853 46.212 64.8984 46.2714 64.7029 46.5139C64.7381 46.5186 64.77 46.5259 64.7951 46.5341C65.0916 46.6369 64.8911 46.7389 64.8379 46.8611ZM67.9447 52.2409C67.7994 52.1602 67.1201 52.1921 66.6426 52.2491C65.733 52.3566 64.7507 52.6716 64.536 52.8397C64.1449 53.142 64.3223 53.6689 64.6116 53.8854C65.4221 54.4909 66.1326 54.897 66.882 54.798C67.3421 54.7374 67.7483 54.0084 68.0359 53.3471C68.2327 52.8919 68.2327 52.4002 67.9446 52.2409M59.892 47.5744C60.1481 47.3308 58.6146 47.0109 57.4241 47.8228C56.5464 48.4217 56.5181 49.7057 57.3589 50.4334C57.4429 50.5054 57.5124 50.5564 57.5766 50.5984C57.8515 50.4681 58.1345 50.3557 58.4239 50.2618C58.9674 50.0856 59.4199 49.9942 59.7911 49.9457C59.9689 49.7469 60.1759 49.3972 60.1241 48.7637C60.0534 47.9038 59.403 48.0399 59.892 47.5744Z" fill="#F2F2F2"/>
</g>
<defs>
<clipPath id="clip0_688_16821">
<rect width="48" height="48" fill="white" transform="translate(36 36)"/>
</clipPath>
</defs>
</svg>
