<svg
  width="89"
  height="23"
  viewBox="0 0 89 23"
  fill="none"
  xmlns="http://www.w3.org/2000/svg"
>
<path
    d="M24.3022 4.4448L24.9749 4.93189C26.1451 5.87565 26.8178 6.94126 26.964 8.15898C28.2218 7.91543 29.8305 8.09813 30.5327 8.58522L31.1762 8.98105L31.0592 9.22476C30.8543 9.68126 30.7959 9.80311 30.7667 9.86396C29.6259 12.1473 27.3735 12.1777 26.3205 12.1473C23.6586 18.8146 17.984 22.4983 10.3199 22.4983C6.78065 22.4983 4.08957 21.3719 2.27587 19.1494C-0.12258 16.227 -0.12258 12.4213 0.0820727 11.2035L0.140668 10.9598H21.2892C22.4006 10.9598 23.2492 10.6556 23.6586 10.4119C23.2198 9.7421 23.0735 8.98105 23.0443 8.5548C22.9565 7.33708 23.2492 6.05835 23.8342 5.14501L24.3022 4.44498V4.4448ZM42.6265 5.85853C42.8626 5.85853 43.0623 5.93753 43.226 6.09585C43.3895 6.25401 43.4714 6.45365 43.4714 6.69512V14.2249C43.4714 15.4798 43.0315 16.5418 42.1519 17.4105C41.2617 18.2902 40.1997 18.7299 38.9663 18.7299C37.7221 18.7299 36.6601 18.2902 35.7807 17.4105C34.9011 16.5311 34.4613 15.4691 34.4613 14.2249C34.4613 12.9806 34.9011 11.9188 35.7807 11.0393C36.6601 10.1595 37.7221 9.71997 38.9663 9.71997C40.0336 9.71997 40.9748 10.0498 41.7899 10.7094V6.69512C41.7899 6.45382 41.8691 6.25401 42.0273 6.09585C42.1854 5.93753 42.3852 5.85853 42.6265 5.85853ZM48.9338 9.71997C50.1674 9.71997 51.2292 10.1597 52.1194 11.0392C52.5593 11.4791 52.8879 11.9644 53.105 12.4952C53.3222 13.0262 53.4334 13.6028 53.4389 14.2249C53.4389 15.4798 52.999 16.5418 52.1196 17.4105C51.2294 18.2902 50.1674 18.7299 48.934 18.7299C47.6896 18.7299 46.6278 18.2902 45.7484 17.4105C44.8686 16.5311 44.4288 15.4691 44.4288 14.2249C44.4288 12.9806 44.8687 11.9188 45.7482 11.0393C46.6278 10.1595 47.6896 9.71997 48.9338 9.71997ZM58.8854 9.71997C60.017 9.71997 60.9959 10.0847 61.8217 10.8141C62.0148 10.9856 62.1112 11.1975 62.1112 11.4495C62.1112 11.6908 62.0321 11.892 61.8739 12.0527C61.7158 12.2137 61.516 12.2942 61.2747 12.2942C61.0753 12.2958 60.8818 12.2275 60.7276 12.1011C60.4542 11.8706 60.1672 11.6962 59.8668 11.5783C59.5664 11.4602 59.2394 11.4013 58.8854 11.4013C58.4939 11.4013 58.1266 11.4749 57.7833 11.6225C57.4476 11.7649 57.1418 11.9696 56.8822 12.2258C56.6234 12.4825 56.4171 12.7872 56.2748 13.1228C56.1274 13.466 56.0536 13.8333 56.0536 14.2249C56.0536 14.6164 56.1274 14.9837 56.2748 15.327C56.4171 15.6626 56.6234 15.9673 56.8822 16.2241C57.1418 16.4802 57.4476 16.6849 57.7833 16.8273C58.1266 16.9748 58.4939 17.0486 58.8854 17.0486C59.2394 17.0486 59.5664 16.9909 59.8668 16.8757C60.1672 16.7603 60.4514 16.5873 60.7195 16.3567C60.8698 16.2441 61.0467 16.185 61.2505 16.1797C61.4918 16.1797 61.6916 16.2588 61.8497 16.417C62.0081 16.5753 62.0871 16.775 62.0871 17.0164C62.0871 17.2524 61.9986 17.4589 61.8217 17.6358C60.9903 18.3652 60.0117 18.7299 58.8854 18.7299C57.6412 18.7299 56.5792 18.2902 55.6998 17.4105C54.8201 16.5311 54.3804 15.4691 54.3804 14.2249C54.3804 12.9806 54.8201 11.9188 55.6998 11.0393C56.5792 10.1595 57.6412 9.71997 58.8854 9.71997ZM63.9056 5.85853C64.1362 5.85853 64.3332 5.94029 64.4967 6.10398C64.6604 6.26749 64.7422 6.46713 64.7422 6.70325V12.978L69.5529 9.84857C69.6869 9.76284 69.8371 9.71997 70.0033 9.71997C70.1214 9.71997 70.2313 9.74141 70.3331 9.78427C70.4351 9.82714 70.5236 9.88746 70.5986 9.96525C70.6737 10.043 70.734 10.1329 70.7796 10.2349C70.8251 10.336 70.8484 10.4456 70.8481 10.5564C70.8481 10.8568 70.7409 11.0794 70.5262 11.2243L67.1557 13.4125L70.6147 17.306C70.7703 17.4776 70.8481 17.6733 70.8481 17.8933C70.8481 18.0058 70.8252 18.1132 70.7796 18.215C70.7355 18.3147 70.6743 18.406 70.5986 18.4846C70.5236 18.5624 70.4351 18.6225 70.3331 18.6654C70.2287 18.7089 70.1165 18.7308 70.0033 18.7299C69.7781 18.7299 69.5902 18.6575 69.4402 18.5126L65.7236 14.3375L64.7422 14.9811V17.8852C64.7422 18.1158 64.6604 18.3142 64.4967 18.4805C64.3332 18.6467 64.1362 18.7299 63.9056 18.7299C63.6695 18.7299 63.4698 18.6467 63.3062 18.4805C63.1426 18.3142 63.0607 18.1158 63.0607 17.8852V6.70325C63.0607 6.46713 63.1426 6.26749 63.3062 6.10381C63.4698 5.94029 63.6695 5.85836 63.9056 5.85836V5.85853ZM76.2624 9.71997C77.4958 9.71997 78.5578 10.1597 79.448 11.0392C79.8877 11.4737 80.2177 11.9577 80.4375 12.4913C80.6574 13.0248 80.7673 13.6027 80.7673 14.2249C80.7673 14.4662 80.6856 14.666 80.5219 14.8242C80.3584 14.9824 80.1586 15.0615 79.9226 15.0615H73.5514C73.64 15.3513 73.7759 15.6245 73.9536 15.8699C74.1272 16.1105 74.3375 16.3222 74.5769 16.4974C74.8173 16.6726 75.0833 16.8097 75.3655 16.9037C75.6524 17.0002 75.9514 17.0486 76.2624 17.0486C76.6164 17.0486 76.9408 16.995 77.2357 16.8877C77.5307 16.7805 77.8044 16.6196 78.0564 16.4049C78.2115 16.273 78.4076 16.1991 78.6112 16.1957C78.8527 16.1957 79.0525 16.2749 79.2106 16.4331C79.369 16.5914 79.448 16.791 79.448 17.0325C79.448 17.2684 79.3676 17.4695 79.2067 17.6358C78.3753 18.3652 77.394 18.7299 76.2624 18.7299C75.018 18.7299 73.9562 18.2902 73.0768 17.4105C72.1971 16.5311 71.7574 15.4691 71.7574 14.2249C71.7574 12.9806 72.1971 11.9188 73.0768 11.0393C73.9562 10.1595 75.018 9.71997 76.2624 9.71997ZM86.1977 9.71997C86.4337 9.71997 86.687 9.73605 86.9579 9.7682C87.2288 9.80035 87.4782 9.85808 87.7062 9.94105C87.934 10.0242 88.1231 10.1381 88.2731 10.2829C88.4235 10.4278 88.4985 10.6155 88.4985 10.8461C88.4985 10.9641 88.4757 11.0742 88.4301 11.1761C88.3859 11.2758 88.3247 11.367 88.2491 11.4455C88.1741 11.5233 88.0856 11.5836 87.9836 11.6265C87.8791 11.6699 87.7669 11.6918 87.6538 11.6908C87.5518 11.6908 87.4339 11.6614 87.2998 11.6023C86.9621 11.4683 86.5946 11.4013 86.1977 11.4013C85.8062 11.4013 85.4389 11.4749 85.0956 11.6225C84.7523 11.77 84.4535 11.971 84.1985 12.2258C83.9439 12.4805 83.7427 12.7796 83.5953 13.1228C83.4479 13.466 83.3741 13.8333 83.3741 14.2249V17.8933C83.3741 18.1239 83.2923 18.3209 83.1286 18.4844C82.9651 18.6481 82.7681 18.7299 82.5375 18.7299C82.3015 18.7299 82.1017 18.6481 81.9382 18.4844C81.7745 18.3209 81.6928 18.1239 81.6928 17.8933V10.5566C81.6928 10.326 81.7745 10.1288 81.9382 9.96542C82.1017 9.80173 82.3015 9.71997 82.5375 9.71997C82.7681 9.71997 82.9651 9.80173 83.1286 9.96542C83.2923 10.1288 83.3741 10.326 83.3741 10.5566V10.7173C83.7676 10.4005 84.2106 10.1505 84.6853 9.97735C85.1572 9.80571 85.6614 9.7198 86.1977 9.7198V9.71997ZM38.9663 11.4011C38.5694 11.4011 38.1994 11.4761 37.8561 11.6263C37.513 11.7765 37.2153 11.9789 36.9631 12.2337C36.7111 12.4885 36.5113 12.7873 36.3639 13.1308C36.2164 13.4739 36.1426 13.8386 36.1426 14.2248C36.1426 14.6109 36.2164 14.9756 36.3639 15.3189C36.5113 15.662 36.7111 15.961 36.9631 16.2158C37.2153 16.4704 37.5128 16.673 37.8561 16.8232C38.1994 16.9732 38.5694 17.0484 38.9663 17.0484C39.3578 17.0484 39.7251 16.9732 40.0684 16.8232C40.4037 16.6784 40.7082 16.4709 40.9655 16.2117C41.2209 15.9531 41.4256 15.6488 41.5687 15.3147C41.7161 14.9742 41.7899 14.6109 41.7899 14.2248C41.7899 13.8386 41.7161 13.4753 41.5687 13.1346C41.4256 12.8005 41.2209 12.4962 40.9655 12.2377C40.7082 11.9785 40.4037 11.771 40.0684 11.6263C39.7251 11.4761 39.358 11.4011 38.9663 11.4011ZM48.934 11.4011C48.5371 11.4011 48.167 11.4761 47.8237 11.6263C47.4805 11.7765 47.1828 11.9789 46.9308 12.2337C46.6788 12.4885 46.479 12.7873 46.3314 13.1308C46.1839 13.4739 46.1101 13.8386 46.1101 14.2248C46.1101 14.6109 46.1839 14.9756 46.3314 15.3189C46.479 15.662 46.6788 15.961 46.9308 16.2158C47.1828 16.4704 47.4805 16.673 47.8237 16.8232C48.167 16.9732 48.5371 17.0484 48.934 17.0484C49.3255 17.0484 49.6928 16.9732 50.036 16.8232C50.3713 16.6784 50.6758 16.4709 50.9331 16.2117C51.1886 15.9531 51.3932 15.6488 51.5364 15.3147C51.6838 14.9742 51.7576 14.6109 51.7576 14.2248C51.7576 13.8386 51.6838 13.4753 51.5364 13.1346C51.3932 12.8005 51.1886 12.4962 50.9331 12.2377C50.6758 11.9785 50.3713 11.771 50.036 11.6263C49.6928 11.4761 49.3255 11.4011 48.934 11.4011ZM76.2624 11.4011C75.9566 11.4011 75.6591 11.4493 75.3694 11.5458C75.0848 11.6398 74.8162 11.7767 74.5729 11.952C74.3316 12.1263 74.1198 12.3382 73.9455 12.5796C73.7683 12.8242 73.6349 13.0977 73.5514 13.388H78.9733C78.8844 13.0976 78.7471 12.8242 78.5671 12.5796C78.3914 12.3395 78.1798 12.1279 77.9397 11.9521C77.6994 11.777 77.4334 11.64 77.1513 11.5459C76.8649 11.4495 76.5646 11.4005 76.2624 11.4011ZM5.63985 7.30631V10.3509H2.42227V7.30666H5.63985V7.30631ZM9.44252 7.30631V10.3509H6.22494V7.30666H9.44252V7.30631ZM13.2452 7.30631V10.3509H10.0274V7.30666H13.2454L13.2452 7.30631ZM17.0479 7.30631V10.3509H13.8301V7.30666H17.048L17.0479 7.30631ZM20.8505 7.30631V10.3509H17.6328V7.30666H20.8505V7.30631ZM17.0479 3.65316V6.69754H13.8301V3.65333H17.048L17.0479 3.65316ZM13.2452 3.65316V6.69754H10.0274V3.65333H13.2454L13.2452 3.65316ZM9.44252 3.65316V6.69754H6.22494V3.65333H9.44252V3.65316ZM17.0479 0V3.04438H13.8301V0H17.048H17.0479Z"
    fill="#2396ED"
  />
</svg>
