<svg
  width="89"
  height="17"
  viewBox="0 0 89 17"
  fill="none"
  xmlns="http://www.w3.org/2000/svg"
>
<path
    d="M27.671 3.40856L30.7651 11.4596L33.8591 3.40856H35.1342L30.288 16.0286H29.0127L30.1328 13.1121L26.4066 3.40856H27.6709H27.671ZM80.0588 3.41962V4.51757H77.12C76.1109 4.51757 75.49 4.80589 75.1018 5.18305C74.6472 5.61535 74.4916 6.21428 74.4916 6.66888V9.88495C74.4916 10.3395 74.6472 10.9272 75.1018 11.371C75.4786 11.7481 76.1109 12.0364 77.12 12.0364H80.0588V13.1342H77.242C75.6784 13.1342 74.7357 12.6685 74.159 12.103C73.2903 11.2555 73.2618 10.0554 73.2609 9.85729V6.69671C73.2618 6.49845 73.2903 5.29834 74.159 4.45102C74.7467 3.88546 75.6895 3.41962 77.242 3.41962H80.0588ZM64.0675 3.41962V4.51757H62.0157C61.4391 4.51757 61.04 4.62837 60.7959 4.87244C60.552 5.10527 60.43 5.51562 60.43 6.07012V13.1231H59.2102V5.98145C59.2212 5.43801 59.3099 4.85014 59.5982 4.40677C60.1195 3.57484 61.1176 3.41979 61.8605 3.41979H64.0675V3.41962ZM25.4418 0.503103V10.5613C25.4307 11.1048 25.331 11.6926 25.0537 12.1362C24.5324 12.9569 23.5344 13.1231 22.7915 13.1231H21.6491C20.0855 13.1231 19.1427 12.6575 18.5663 12.0917C17.7269 11.2731 17.6718 10.1254 17.6681 9.86974L17.668 9.8369V6.69498L17.6681 6.66214C17.6718 6.40666 17.7269 5.25859 18.5663 4.44014C19.154 3.87457 20.0965 3.40873 21.6491 3.40873H24.2107V0.50293H25.4418V0.503103ZM39.5701 3.40856C41.0342 3.43068 41.9323 3.88546 42.4979 4.43996C43.3414 5.27293 43.3829 6.44677 43.385 6.67458V13.1233H42.1651V6.66905C42.1651 6.21445 42.0099 5.62676 41.5664 5.18305C41.1892 4.81712 40.4684 4.52881 39.5036 4.51757C38.5389 4.52881 37.8179 4.81712 37.4409 5.18305C36.9863 5.62676 36.8422 6.21445 36.8422 6.66905V13.1233H35.6222V6.67458C35.6244 6.44677 35.6659 5.27276 36.5094 4.43996C37.075 3.88546 37.9733 3.43068 39.437 3.40856H39.5701ZM84.6833 3.40856C86.1471 3.43068 87.0453 3.88546 87.6108 4.43996C88.5092 5.31597 88.5092 6.56914 88.4981 6.70224V8.72062H81.9552V9.86282C81.9552 10.3174 82.1104 10.9051 82.5541 11.3488C82.9309 11.7148 83.6519 12.0031 84.6167 12.0143H87.4335V13.1231H84.5502C83.0863 13.101 82.188 12.6462 81.6224 12.0917C80.7644 11.2444 80.7362 10.0443 80.7353 9.84623V6.68565C80.7362 6.48739 80.7644 5.28728 81.6224 4.43996C82.188 3.88546 83.0865 3.43068 84.5502 3.40856H84.6833ZM54.5968 0.50293V3.41962H57.1584V4.51757H54.5968V10.4839C54.5968 11.0382 54.7188 11.4264 54.9627 11.6593C55.2068 11.9033 55.6059 12.0141 56.1827 12.0141H58.2343V13.1121H56.0273C55.2844 13.1121 54.2863 12.9569 53.765 12.1251C53.4767 11.6816 53.388 11.0937 53.377 10.5504V0.503103H54.5968V0.50293ZM48.1314 3.40856C49.6951 3.40856 50.6378 3.87439 51.2144 4.43996C52.0685 5.27293 52.1105 6.44677 52.1126 6.67458V10.5504C52.1015 11.0937 52.0019 11.6816 51.7245 12.1251C51.2034 12.9458 50.2051 13.1121 49.4622 13.1121H46.9892C46.2462 13.1121 45.2481 12.9569 44.727 12.1251C44.4387 11.6816 44.3498 11.0937 44.3387 10.5504V10.1622C44.3498 9.61876 44.4497 9.03106 44.727 8.58753C45.2481 7.76683 46.2463 7.60055 46.9892 7.60055H50.8819V6.65782C50.8819 6.20322 50.7263 5.61552 50.2717 5.17181C49.8949 4.79483 49.2626 4.50634 48.2535 4.50634H45.4142V3.40856H48.1314ZM68.3148 3.40856C69.8784 3.40856 70.8211 3.87439 71.3977 4.43996C72.2518 5.27293 72.2938 6.44677 72.2959 6.67458V10.5504C72.285 11.0937 72.1852 11.6816 71.9078 12.1251C71.3867 12.9458 70.3885 13.1121 69.6455 13.1121H67.1726C66.4295 13.1121 65.4314 12.9569 64.9103 12.1251C64.622 11.6816 64.5331 11.0937 64.5221 10.5504V10.1622C64.5331 9.61876 64.633 9.03106 64.9103 8.58753C65.4314 7.76683 66.4297 7.60055 67.1726 7.60055H71.0652V6.65782C71.0652 6.20322 70.9096 5.61552 70.455 5.17181C70.0782 4.79483 69.4459 4.50634 68.4368 4.50634H65.5977V3.40856H68.3148ZM24.1997 4.51757H21.5162C20.5069 4.51757 19.8858 4.80589 19.4978 5.18305C19.0432 5.62659 18.8878 6.21428 18.8878 6.66888V9.87389C18.8878 10.3285 19.043 10.9162 19.4978 11.3599C19.8748 11.7369 20.5069 12.0254 21.5162 12.0254H22.625C23.2018 12.0254 23.6009 11.9033 23.845 11.6703C24.0889 11.4264 24.2109 11.0382 24.1998 10.4949V4.51757H24.1997ZM50.8929 8.69833H47.1668C46.5901 8.69833 46.1908 8.82036 45.947 9.05319C45.7031 9.28619 45.581 9.67424 45.581 10.2288V10.4949C45.581 11.0382 45.6918 11.4264 45.9359 11.6703C46.1798 11.9144 46.5791 12.0254 47.1557 12.0254H49.3072C49.8838 12.0254 50.2831 11.9033 50.527 11.6703C50.7711 11.4264 50.8929 11.0382 50.8929 10.4949V8.69833ZM71.0762 8.69833H67.3501C66.7735 8.69833 66.3742 8.82036 66.1303 9.05319C65.8864 9.28619 65.7643 9.67424 65.7643 10.2288V10.4949C65.7643 11.0382 65.8751 11.4264 66.1192 11.6703C66.3631 11.9144 66.7624 12.0254 67.339 12.0254H69.4905C70.0671 12.0254 70.4664 11.9033 70.7103 11.6703C70.9544 11.4264 71.0762 11.0382 71.0762 10.4949V8.69833ZM84.628 4.51757C83.6631 4.52864 82.9423 4.81695 82.5653 5.18305C82.1107 5.62659 81.9664 6.21428 81.9664 6.66888V7.62267H87.2895V6.66888C87.2895 6.21428 87.1343 5.62659 86.6906 5.18288C86.3136 4.81695 85.5928 4.52864 84.628 4.5174V4.51757Z"
    fill="white"
  />
<path
    d="M0.000967828 6.28078V6.52467C0.0452177 6.33627 0.122828 6.20317 0.278221 5.99229C0.599724 5.58212 1.12104 5.47115 1.33175 5.44902C2.39634 5.30486 3.97119 5.13858 5.55692 5.09416C8.36265 5.00549 10.2146 5.23832 10.2146 5.23832L14.1513 1.5011C14.1513 1.5011 12.0886 1.11288 9.7375 0.835622C8.52138 0.687336 7.301 0.576429 6.07807 0.503056C6.02276 0.503056 5.47931 0.436509 4.96906 0.924468C4.41455 1.45685 1.59777 4.1293 0.466629 5.20496C-0.0432821 5.69291 0.000967828 6.23636 0.000967828 6.28078Z"
    fill="#B4DC00"
  />
<path
    d="M14.0069 11.0605C12.9421 11.2047 11.3674 11.382 9.7817 11.4375C6.97598 11.5262 5.11299 11.2934 5.11299 11.2934L1.17578 15.0416C1.17578 15.0416 3.26071 15.452 5.61166 15.7182C7.05324 15.8845 8.32888 15.9733 9.10499 16.0175C9.1603 16.0175 9.24914 15.9733 9.30463 15.9733C9.35994 15.9733 9.90339 15.8734 10.4136 15.3856C10.9681 14.8532 14.3171 11.0272 14.0067 11.0605H14.0069Z"
    fill="#6F2DA8"
  />
<path
    d="M14.0067 11.0604C12.9419 11.2046 11.3672 11.3819 9.78149 11.4374C9.78149 11.4374 10.0809 15.8178 9.02734 16.0064C9.08266 16.0064 9.80362 15.9732 10.3137 15.4853C10.8682 14.9529 14.3171 11.0271 14.0067 11.0603V11.0604Z"
    fill="#591F91"
  />
<path
    d="M9.26147 16.0287C9.18386 16.0287 9.10625 16.0177 9.01758 16.0177C9.21722 15.9845 9.35032 15.9179 9.56102 15.7627C9.98243 15.4631 10.1154 14.942 10.1598 14.7313C10.3482 13.6778 10.6033 12.1142 10.7253 10.5282C10.9471 7.73358 10.814 5.87059 10.814 5.87059L14.7509 2.12231C14.7509 2.12231 15.0392 4.20707 15.2055 6.56926C15.3054 8.11075 15.3386 9.47489 15.3498 10.2289C15.3498 10.2842 15.3942 10.8276 14.884 11.3156C14.3295 11.848 11.5127 14.5317 10.3926 15.6075C9.86023 16.0953 9.31696 16.0287 9.26147 16.0287Z"
    fill="#73BE28"
  />
</svg>
