<svg width="120" height="120" viewBox="0 0 120 120" fill="none" xmlns="http://www.w3.org/2000/svg">
<path fill-rule="evenodd" clip-rule="evenodd" d="M60 36C46.74 36 36 46.74 36 60C36 70.62 42.87 79.59 52.41 82.77C53.61 82.98 54.06 82.26 54.06 81.63C54.06 81.06 54.03 79.17 54.03 77.16C48 78.27 46.44 75.69 45.96 74.34C45.69 73.65 44.52 71.52 43.5 70.95C42.66 70.5 41.46 69.39 43.47 69.36C45.36 69.33 46.71 71.1 47.16 71.82C49.32 75.45 52.77 74.43 54.15 73.8C54.36 72.24 54.99 71.19 55.68 70.59C50.34 69.99 44.76 67.92 44.76 58.74C44.76 56.13 45.69 53.97 47.22 52.29C46.98 51.69 46.14 49.23 47.46 45.93C47.46 45.93 49.47 45.3 54.06 48.39C55.98 47.85 58.02 47.58 60.06 47.58C62.1 47.58 64.14 47.85 66.06 48.39C70.65 45.27 72.66 45.93 72.66 45.93C73.98 49.23 73.14 51.69 72.9 52.29C74.43 53.97 75.36 56.1 75.36 58.74C75.36 67.95 69.75 69.99 64.41 70.59C65.28 71.34 66.03 72.78 66.03 75.03C66.03 78.24 66 80.82 66 81.63C66 82.26 66.45 83.01 67.65 82.77C72.4144 81.1614 76.5544 78.0994 79.4873 74.0147C82.4203 69.9301 83.9986 65.0286 84 60C84 46.74 73.26 36 60 36Z" fill="white"/>
</svg>
