<svg width="80" height="80" viewBox="0 0 80 80" fill="none" xmlns="http://www.w3.org/2000/svg">
<path fill-rule="evenodd" clip-rule="evenodd" d="M40 24C31.16 24 24 31.16 24 40C24 47.08 28.58 53.06 34.94 55.18C35.74 55.32 36.04 54.84 36.04 54.42C36.04 54.04 36.02 52.78 36.02 51.44C32 52.18 30.96 50.46 30.64 49.56C30.46 49.1 29.68 47.68 29 47.3C28.44 47 27.64 46.26 28.98 46.24C30.24 46.22 31.14 47.4 31.44 47.88C32.88 50.3 35.18 49.62 36.1 49.2C36.24 48.16 36.66 47.46 37.12 47.06C33.56 46.66 29.84 45.28 29.84 39.16C29.84 37.42 30.46 35.98 31.48 34.86C31.32 34.46 30.76 32.82 31.64 30.62C31.64 30.62 32.98 30.2 36.04 32.26C37.32 31.9 38.68 31.72 40.04 31.72C41.4 31.72 42.76 31.9 44.04 32.26C47.1 30.18 48.44 30.62 48.44 30.62C49.32 32.82 48.76 34.46 48.6 34.86C49.62 35.98 50.24 37.4 50.24 39.16C50.24 45.3 46.5 46.66 42.94 47.06C43.52 47.56 44.02 48.52 44.02 50.02C44.02 52.16 44 53.88 44 54.42C44 54.84 44.3 55.34 45.1 55.18C48.2762 54.1076 51.0362 52.0662 52.9916 49.3432C54.9469 46.6201 55.999 43.3524 56 40C56 31.16 48.84 24 40 24Z" fill="black"/>
</svg>
