<svg width="120" height="120" viewBox="0 0 120 120" fill="none" xmlns="http://www.w3.org/2000/svg">
<path d="M59.9966 81.7166L68.8348 54.5156H51.1582L59.9964 81.7166H59.9966Z" fill="#E24329"/>
<path d="M59.9981 81.7166L51.1598 54.5156H38.7734L59.9981 81.7166Z" fill="#FC6D26"/>
<path d="M38.7753 54.5156L36.0896 62.7819C35.9702 63.1494 35.9701 63.5453 36.0895 63.9128C36.2089 64.2803 36.4416 64.6005 36.7542 64.8277L60 81.7168L38.7751 54.5158L38.7753 54.5156Z" fill="#FCA326"/>
<path d="M38.7734 54.5153H51.1598L45.8368 38.1322C45.5629 37.2892 44.3703 37.2894 44.0965 38.1322L38.7734 54.5153Z" fill="#E24329"/>
<path d="M60.0002 81.7166L68.8384 54.5156H81.2249L60 81.7166H60.0002Z" fill="#FC6D26"/>
<path d="M81.2247 54.5156L83.9105 62.7819C84.0299 63.1494 84.0299 63.5453 83.9104 63.9128C83.791 64.2803 83.5583 64.6006 83.2457 64.8277L60 81.7168L81.2247 54.5158V54.5156Z" fill="#FCA326"/>
<path d="M81.2263 54.5153H68.8398L74.163 38.1322C74.4369 37.2892 75.6295 37.2894 75.9032 38.1322L81.2263 54.5153Z" fill="#E24329"/>
</svg>
