<svg width="120" height="120" viewBox="0 0 120 120" fill="none" xmlns="http://www.w3.org/2000/svg">
<path d="M81.4725 57.1834C81.3933 56.3768 81.2616 55.4511 80.9978 54.4198C80.7009 53.2775 80.2855 52.1696 79.7584 51.114C79.1277 49.8477 78.3534 48.6585 77.451 47.5701C77.0687 47.1075 76.6467 46.6579 76.1985 46.2215C76.8708 43.5372 75.381 41.21 75.381 41.21C72.8098 41.0512 71.1748 42.0166 70.5684 42.4529C70.4629 42.4133 70.3705 42.3603 70.2651 42.3206C69.83 42.1487 69.3816 41.9769 68.907 41.8315C68.4368 41.6835 67.9619 41.5512 67.483 41.4346C66.9952 41.3156 66.5075 41.2231 66.0063 41.1437C65.9139 41.1306 65.835 41.1173 65.7426 41.104C64.6219 37.5076 61.4047 36 61.4047 36C57.8052 38.2875 57.1327 41.4876 57.1327 41.4876C57.1327 41.4876 57.1194 41.5537 57.0931 41.6727C56.8953 41.7257 56.6976 41.7918 56.4997 41.8446C56.2229 41.9239 55.9461 42.0297 55.6824 42.1355C55.4076 42.24 55.135 42.3502 54.8648 42.466C54.3172 42.7065 53.7804 42.9713 53.2562 43.2596C52.742 43.5505 52.2412 43.8677 51.7531 44.1983L51.6213 44.1454C46.6372 42.2412 42.2203 44.5289 42.2203 44.5289C41.8116 49.8447 44.2112 53.19 44.6859 53.7984C44.5672 54.129 44.4617 54.4595 44.3563 54.7901C43.9871 55.9934 43.7102 57.2231 43.5389 58.5057C43.5124 58.6909 43.4861 58.876 43.4728 59.0611C38.8581 61.3486 37.5 66.0165 37.5 66.0165C41.3369 70.4462 45.8198 70.7239 45.8198 70.7239L45.8331 70.7108C46.4 71.7287 47.0592 72.6941 47.7976 73.6065C48.1088 73.9846 48.4343 74.3508 48.7733 74.7042C47.3756 78.7239 48.9711 82.056 48.9711 82.056C53.243 82.2147 56.0516 80.1784 56.6448 79.7157C57.0694 79.8635 57.5006 79.9914 57.937 80.0991C59.2479 80.4411 60.5917 80.6406 61.9452 80.6942C62.2749 80.7073 62.6178 80.7206 62.9474 80.7073H63.4221L63.633 80.6942V80.7073C65.6504 83.59 69.184 84 69.184 84C71.7023 81.342 71.8472 78.6974 71.8472 78.1289V77.8908C72.3747 77.5207 72.8758 77.1238 73.3505 76.6875C74.3525 75.7751 75.2359 74.7305 75.9742 73.6065L76.172 73.2892C79.02 73.4479 81.0374 71.5172 81.0374 71.5172C80.5627 68.5421 78.875 67.0876 78.519 66.8098C78.519 66.8098 78.5058 66.7967 78.4794 66.7834C78.4531 66.7701 78.4531 66.757 78.4531 66.757C78.4399 66.7437 78.4136 66.7305 78.3872 66.7173C78.4003 66.5322 78.4136 66.3602 78.4268 66.1752C78.4531 65.8578 78.4531 65.5272 78.4531 65.2099V64.7073L78.4399 64.509L78.4268 64.2445C78.4268 64.152 78.4136 64.0727 78.4003 63.9933C78.3872 63.9139 78.3872 63.8215 78.374 63.7421L78.3477 63.4909L78.3081 63.2397C78.2553 62.9091 78.2026 62.5916 78.1235 62.261C77.8202 60.9785 77.3192 59.762 76.6732 58.6645C76.0231 57.5837 75.2091 56.6111 74.2603 55.7819C73.3372 54.962 72.2955 54.3008 71.2144 53.8115C70.1202 53.3223 68.9861 53.0049 67.8522 52.8594C67.2853 52.78 66.7184 52.7536 66.1514 52.7669H65.7293L65.5184 52.7802C65.4393 52.7802 65.3601 52.7933 65.2942 52.7933C65.0068 52.8191 64.7209 52.8589 64.4373 52.9124C63.3034 53.1239 62.2353 53.5339 61.2992 54.1024C60.3631 54.6711 59.5456 55.3719 58.8863 56.1652C58.2415 56.9415 57.7251 57.8165 57.3569 58.7569C57.0112 59.6451 56.8066 60.5821 56.7504 61.5338C56.7372 61.7586 56.7372 61.9967 56.7372 62.2215V62.3934L56.7504 62.5785C56.7635 62.6843 56.7635 62.8033 56.7767 62.9091C56.8163 63.3718 56.9085 63.8215 57.0272 64.2445C57.2777 65.1041 57.6733 65.8842 58.161 66.5453C58.6489 67.2065 59.2423 67.7488 59.862 68.1851C60.4817 68.6082 61.154 68.9124 61.8135 69.1106C62.4727 69.309 63.132 69.3884 63.7517 69.3884H64.0944C64.134 69.3884 64.1735 69.3884 64.2129 69.3751C64.2788 69.3751 64.3447 69.3618 64.4108 69.3618C64.4239 69.3618 64.4504 69.3618 64.4634 69.3487L64.5293 69.3354C64.5689 69.3354 64.6085 69.3223 64.648 69.3223C64.7272 69.309 64.7931 69.2958 64.8722 69.2826C64.9514 69.2694 65.0172 69.2561 65.0831 69.2297C65.2282 69.2033 65.3601 69.1503 65.4919 69.1106C65.7557 69.0181 66.0194 68.9122 66.2434 68.7933C66.4808 68.6743 66.6917 68.5288 66.9027 68.3965C66.9555 68.3568 67.0214 68.3173 67.0742 68.2643C67.2851 68.0925 67.3247 67.7752 67.1533 67.5636C67.0081 67.3785 66.7446 67.3255 66.5335 67.4446L66.3752 67.524C66.1922 67.6168 66.0027 67.6964 65.8083 67.7621C65.6105 67.828 65.3997 67.8809 65.1886 67.9206C65.0831 67.9337 64.9777 67.947 64.859 67.9603C64.8063 67.9603 64.7535 67.9734 64.6876 67.9734H64.3711C64.3052 67.9734 64.2393 67.9734 64.1734 67.9603H64.0944C64.0681 67.9603 64.0285 67.9603 64.0022 67.947C63.9363 67.9337 63.8835 67.9337 63.8176 67.9206C63.3297 67.8545 62.8419 67.7091 62.3803 67.4974C61.8932 67.2791 61.4437 66.9845 61.0487 66.6247C60.64 66.2544 60.284 65.8181 60.007 65.3156C59.73 64.8132 59.5323 64.2578 59.4401 63.676C59.4006 63.3851 59.3742 63.0809 59.3873 62.79C59.3873 62.7107 59.4006 62.6313 59.4006 62.5519V62.4462C59.4006 62.4065 59.4138 62.3668 59.4138 62.3271C59.4269 62.1685 59.4534 62.0098 59.4797 61.8512C59.7039 60.5817 60.3366 59.3387 61.3125 58.4C61.563 58.1619 61.8265 57.9503 62.1035 57.7521C62.3854 57.552 62.6856 57.3793 63 57.2362C63.3147 57.0899 63.6411 56.9705 63.9759 56.8794C64.3053 56.7867 64.6482 56.7338 65.0042 56.6943C65.1757 56.681 65.3471 56.6677 65.5317 56.6677H65.9404L66.0855 56.681C66.4677 56.7074 66.837 56.7603 67.2062 56.8528C67.9446 57.0115 68.6697 57.2893 69.3421 57.6594C70.6871 58.4132 71.8341 59.5768 72.5329 60.9785C72.8891 61.6792 73.1394 62.433 73.2581 63.2131C73.2844 63.4115 73.3109 63.6099 73.324 63.8084L73.3372 63.9536L73.3505 64.0991V64.6678C73.3505 64.7602 73.3372 64.919 73.3372 65.0115C73.324 65.2232 73.2977 65.448 73.2714 65.6595C73.245 65.871 73.2055 66.0826 73.1659 66.2941C73.1253 66.503 73.0769 66.7103 73.0209 66.9156C72.913 67.3329 72.7808 67.7436 72.6252 68.1455C72.3039 68.9462 71.8878 69.7054 71.3858 70.4066C70.3707 71.8083 68.9861 72.9455 67.404 73.6727C66.6128 74.0297 65.7822 74.2942 64.9252 74.4264C64.5032 74.5057 64.0681 74.5454 63.633 74.5585H62.9737C62.7402 74.5585 62.5069 74.5452 62.2749 74.5188C61.3519 74.4528 60.4421 74.2809 59.5456 74.0297C58.6622 73.7785 57.8052 73.4215 56.9877 72.9983C55.3658 72.1256 53.9024 70.9354 52.7685 69.494C52.2005 68.7787 51.7058 68.008 51.2917 67.1934C50.8838 66.386 50.557 65.54 50.316 64.6678C50.0786 63.7951 49.9335 62.9091 49.8677 62.0098L49.8544 61.838V60.6611C49.8677 60.2247 49.9072 59.762 49.96 59.3123C50.0127 58.8627 50.0918 58.4 50.184 57.9503C50.2764 57.5009 50.3819 57.0512 50.5137 56.6016C50.7602 55.7282 51.0732 54.875 51.4499 54.0496C52.2014 52.4363 53.1772 50.995 54.3506 49.8446C54.6406 49.5538 54.944 49.2891 55.2603 49.0247C55.5791 48.7719 55.909 48.5337 56.2493 48.3108C56.5789 48.086 56.9348 47.8875 57.291 47.7024C57.4672 47.6063 57.6476 47.5181 57.8315 47.4379C58.0159 47.3587 58.201 47.2792 58.3853 47.2C58.7545 47.0412 59.1368 46.9091 59.5323 46.79C59.6247 46.7636 59.7302 46.7372 59.8224 46.6976C59.9148 46.671 60.0203 46.6446 60.1125 46.6182C60.3103 46.5652 60.5082 46.5124 60.706 46.4727C60.7982 46.4463 60.9037 46.433 61.0092 46.4067C61.1146 46.3801 61.207 46.367 61.3125 46.3404C61.4179 46.3273 61.5103 46.3007 61.6156 46.2876L61.7606 46.2612L61.9189 46.2346C62.0244 46.2215 62.1168 46.2082 62.2222 46.1949C62.3409 46.1818 62.4462 46.1685 62.5649 46.1553C62.6573 46.1421 62.8154 46.1289 62.9078 46.1156C62.9737 46.1025 63.0529 46.1025 63.1188 46.0892L63.2638 46.0761L63.3297 46.0628H63.4088C63.5275 46.0495 63.633 46.0495 63.7517 46.0364L63.9231 46.0231H64.055C64.1472 46.0231 64.2527 46.01 64.3449 46.01C64.7316 45.9968 65.1186 45.9968 65.5053 46.01C66.2701 46.0364 67.0216 46.129 67.7467 46.2612C69.2103 46.539 70.5816 47.0016 71.8341 47.623C73.0866 48.2314 74.1944 48.9851 75.17 49.805C75.2359 49.8578 75.2887 49.9107 75.3546 49.9637C75.4073 50.0165 75.4733 50.0695 75.526 50.1224C75.6447 50.228 75.7502 50.3338 75.8689 50.4396C75.9876 50.5455 76.093 50.6513 76.1985 50.757C76.3072 50.864 76.4127 50.9743 76.5149 51.0876C76.9237 51.524 77.3059 51.9603 77.6486 52.41C78.2859 53.2339 78.8464 54.1146 79.3233 55.0412L79.4025 55.1999L79.4816 55.3586C79.5342 55.4644 79.5871 55.5702 79.6266 55.6761C79.6793 55.7819 79.7188 55.8743 79.7717 55.9801C79.8112 56.0859 79.8639 56.1785 79.9034 56.2843C80.0617 56.681 80.22 57.0643 80.3387 57.4213C80.5364 58.0033 80.6814 58.519 80.8001 58.9685C80.8182 59.0567 80.8693 59.1346 80.9428 59.1863C81.0164 59.2379 81.1068 59.2594 81.1957 59.2463C81.3935 59.233 81.5384 59.0744 81.5384 58.876C81.5516 58.4 81.5384 57.8315 81.4725 57.1834Z" fill="url(#paint0_linear_688_16735)"/>
<defs>
<linearGradient id="paint0_linear_688_16735" x1="59.5193" y1="94.776" x2="59.5193" y2="50.9467" gradientUnits="userSpaceOnUse">
<stop stop-color="#FFF100"/>
<stop offset="1" stop-color="#F05A28"/>
</linearGradient>
</defs>
</svg>
