<svg width="80" height="80" viewBox="0 0 80 80" fill="none" xmlns="http://www.w3.org/2000/svg">
<g clip-path="url(#clip0_270_11122)">
<path d="M49.242 36.9902C49.242 42.3202 45.016 46.6452 39.8002 46.6452C34.5843 46.6452 30.3584 42.3202 30.3584 36.9902C30.3584 31.66 34.5844 27.3351 39.8002 27.3351C45.0161 27.3351 49.2421 31.66 49.2421 36.9902" fill="#D33833"/>
<path d="M30.7469 39.381C30.7469 39.381 30.0616 29.3149 39.3436 29.0255L38.6963 27.9442L33.6632 29.6346L32.2241 31.2869L30.9678 33.6931L30.252 36.4952L30.4652 38.3684" fill="#EF3D3A"/>
<path d="M33.3349 30.4037C31.6826 32.1017 30.6546 34.4394 30.6546 37.0282C30.6546 39.6171 31.6826 41.9547 33.3349 43.6527C34.9948 45.3507 37.2716 46.3939 39.7995 46.3939C42.3275 46.3939 44.6042 45.3507 46.2641 43.6528C47.9165 41.9547 48.9444 39.6171 48.9444 37.0282C48.9444 34.4393 47.9165 32.1017 46.2641 30.4037C44.6043 28.7133 42.3275 27.6626 39.7995 27.6626C37.2792 27.6626 34.9949 28.7057 33.3349 30.4037ZM32.9161 44.0562C31.1573 42.2593 30.0684 39.7694 30.0684 37.0282C30.0684 34.287 31.1573 31.7971 32.9161 29.9925C34.6751 28.1955 37.1117 27.0762 39.7996 27.0762C42.4874 27.0762 44.924 28.1955 46.683 29.9925C48.4418 31.7895 49.5307 34.2794 49.5307 37.0282C49.5307 39.7693 48.4418 42.2593 46.683 44.0562C44.924 45.8608 42.4874 46.9725 39.7995 46.9725C37.1117 46.9725 34.6751 45.8608 32.9161 44.0562Z" fill="#231F20"/>
<path d="M43.7742 37.0434L42.3351 37.2566L40.3934 37.4774L39.1371 37.5079L37.9112 37.4699L36.9746 37.1805L36.1446 36.2819L35.4974 34.4469L35.3527 34.0509L34.4923 33.7616L33.9897 32.9317L33.6318 31.7438L34.0278 30.7007L34.9644 30.3732L35.7182 30.7311L36.076 31.5231L36.5101 31.4545L36.6547 31.2718L36.5101 30.4417L36.472 29.3986L36.6852 27.9595L36.6776 27.1372L37.3324 26.0864L38.4822 25.2564L40.4924 24.396L42.7234 24.7233L44.6651 26.1244L45.5636 27.5635L46.1422 28.6067L46.287 31.1956L45.8529 33.4266L45.061 35.4064L44.3148 36.4647" fill="#F0D6B7"/>
<path d="M42.5562 43.2644L37.4165 43.4776V44.338L37.8505 47.3609L37.6373 47.6122L34.0433 46.3863L33.7921 45.9522L33.4342 41.8862L32.589 39.4496L32.4062 38.8709L35.2845 36.8912L36.183 36.5333L36.9749 37.5078L37.6602 38.1171L38.4521 38.3683L38.8099 38.475L39.244 40.3481L39.5714 40.7441L40.4013 40.4547L39.8227 41.5739L42.9445 43.0511L42.5562 43.2643" fill="#335061"/>
<path d="M34.0284 30.7159L34.965 30.3885L35.7188 30.7463L36.0767 31.5383L36.5107 31.4697L36.6174 31.0357L36.4041 30.2057L36.6173 28.226L36.4346 27.1447L37.0818 26.3909L38.4828 25.2792L38.0868 24.7386L36.1071 25.7132L35.2772 26.3605L34.8127 27.3655L34.097 28.3402L33.8838 29.49L34.0284 30.7159Z" fill="#6D6B6D"/>
<path d="M35.5057 27.3351C35.5057 27.3351 36.0462 26.0026 38.2011 25.3554C40.3559 24.7081 38.3078 24.8909 38.3078 24.8909L35.97 25.7894L35.0716 26.6878L34.6757 27.4036L35.5057 27.3351ZM34.4244 30.4646C34.4244 30.4646 33.6705 27.9442 36.5488 27.5864L36.4422 27.1523L34.4625 27.6168L33.8838 29.49L34.0284 30.7159L34.4244 30.4646Z" fill="#DCD9D8"/>
<path d="M35.5737 33.8073L36.0457 33.3504C36.0457 33.3504 36.2589 33.3733 36.297 33.6246C36.3351 33.8759 36.4417 36.145 37.9874 37.3633C38.1321 37.4774 36.8376 37.1805 36.8376 37.1805L35.6878 35.3835M42.1905 33.122C42.1905 33.122 42.2743 32.0332 42.5712 32.1169C42.8682 32.2007 42.8682 32.4976 42.8682 32.4976C42.8682 32.4976 42.1525 32.9545 42.1905 33.122ZM45.1754 29.1321C45.1754 29.1321 44.5814 29.2539 44.5281 29.7793C44.4748 30.3047 45.1754 29.8859 45.2819 29.8479M40.8276 29.1702C40.8276 29.1702 40.0356 29.2768 40.0356 29.7793C40.0356 30.2818 40.9342 30.2438 41.1854 30.0306M35.9391 31.5078C35.9391 31.5078 34.5762 30.6778 34.4316 31.4697C34.2869 32.2616 33.9671 32.8326 34.6447 33.6626L34.1802 33.518L33.7463 32.4063L33.6016 31.325L34.4316 30.4646L35.3681 30.5331L35.9087 30.9672L35.9392 31.5078M36.5864 29.2387C36.5864 29.2387 37.1955 26.0711 40.287 25.4619C42.8301 24.9594 44.1702 25.5686 44.6728 26.1472C44.6728 26.1472 42.4037 23.4518 40.2488 24.2741C38.094 25.1041 36.5102 26.6117 36.5482 27.5788C36.6092 29.2386 36.5863 29.2386 36.5863 29.2386M44.924 26.5051C44.924 26.5051 43.8809 26.4671 43.8428 27.4036C43.8428 27.4036 43.8428 27.5483 43.9114 27.693C43.9114 27.693 44.7413 26.7564 45.2439 27.2589" fill="#F7E4CD"/>
<path d="M40.3636 27.792C40.3636 27.792 40.1809 26.3605 38.9626 27.1904C38.1706 27.731 38.2468 28.4848 38.3839 28.6296C38.5285 28.7742 38.4905 29.0635 38.5971 28.8656C38.7037 28.6676 38.6732 28.0204 39.0692 27.8376C39.4575 27.6549 40.1123 27.457 40.3636 27.792Z" fill="#F7E4CD"/>
<path d="M36.9828 37.5079L33.6019 39.0154C33.6019 39.0154 35.003 44.5892 34.2872 46.3177L33.7847 46.1349L33.7466 44.0105L32.81 39.9902L32.4141 38.8784L35.9395 36.5027L36.9827 37.5078M37.3254 40.5917L37.8051 41.178V43.3328H37.2341C37.2341 43.3328 37.1656 41.8252 37.1656 41.6425C37.1656 41.4597 37.2341 40.8125 37.2341 40.8125M37.3407 43.6603L35.7188 43.7288L36.1833 44.0563L37.333 44.239" fill="#49728B"/>
<path d="M42.8761 43.3024L44.2085 43.2644L44.5359 46.569L43.173 46.7518L42.876 43.3024" fill="#335061"/>
<path d="M43.2344 43.3024L45.2445 43.1958C45.2445 43.1958 46.0745 41.1095 46.0745 41.0029C46.0745 40.8962 46.7903 37.98 46.7903 37.98L45.1684 36.2896L44.841 36.0003L43.9806 36.8607V40.2034L43.2344 43.3024Z" fill="#335061"/>
<path d="M44.1323 43.0511L42.876 43.3024L43.0588 44.3076C43.5232 44.5207 44.3151 43.9497 44.3151 43.9497M44.1704 36.7541L46.6908 38.6272L46.7593 37.7668L44.8558 36.0079L44.1705 36.7541" fill="#49728B"/>
<path d="M38.5894 50.3838L37.8432 47.3609L37.4701 45.1299L37.4092 43.4776L40.7823 43.2948H42.8763L42.686 47.0715L43.0133 49.9878L42.9753 50.5285L40.2417 50.7417L38.5894 50.3838Z" fill="white"/>
<path d="M42.4119 43.2644C42.4119 43.2644 42.2291 47.0031 42.7698 49.6681C42.7698 49.6681 41.6885 50.3533 40.1123 50.5285L43.1353 50.4219L43.4931 50.2087L43.0591 44.3152L42.9449 43.0511" fill="#DCD9D8"/>
<path d="M44.5898 46.2873L45.9908 45.8913L48.6482 45.7466L49.0442 44.5207L48.3284 42.3963L47.4985 42.2897L46.3487 42.6476L45.2522 43.1883L44.6659 43.0816L44.209 43.2644" fill="white"/>
<path d="M44.5664 45.5639C44.5664 45.5639 45.503 45.1299 45.6477 45.168L45.2517 43.1883L45.7162 43.0055C45.7162 43.0055 46.0436 44.8787 46.0436 45.0918C46.0436 45.0918 48.0538 45.1984 48.2365 45.1984C48.2365 45.1984 48.6705 44.3684 48.564 43.508L48.9599 44.6578L48.998 45.305L48.4193 46.1654L47.7721 46.3101L46.6908 46.2721L46.3329 45.8076L45.0766 45.9903L44.6806 46.135" fill="#DCD9D8"/>
<path d="M43.1502 43.0131L42.3582 41.0029L41.5283 39.815C41.5283 39.815 41.7111 39.3125 41.9624 39.3125H42.7924L43.5843 39.6018L43.5157 40.9344L43.1502 43.0131Z" fill="white"/>
<path d="M43.3106 42.3278C43.3106 42.3278 42.3055 40.3861 42.3055 40.0968C42.3055 40.0968 42.4883 39.6627 42.7395 39.7694C42.9909 39.876 43.5315 40.1654 43.5315 40.1654V39.48L42.3055 39.2288L41.4756 39.3354L42.8766 42.6552L43.1659 42.6933" fill="#DCD9D8"/>
<path d="M38.9087 37.584L37.9112 37.4774L36.9746 37.1881V37.5155L37.4314 38.0181L38.8706 38.6653" fill="white"/>
<path d="M37.3021 37.6906C37.3021 37.6906 38.4138 38.1551 38.7793 38.0485L38.8173 38.4826L37.8123 38.2693L37.2031 37.8353L37.3021 37.6906Z" fill="#DCD9D8"/>
<path d="M44.5893 39.4344C43.9801 39.4191 43.4242 39.343 42.9445 39.2059C42.975 39.0079 42.9141 38.8176 42.9674 38.6729C43.1045 38.5739 43.3252 38.5739 43.5308 38.5511C43.3557 38.4673 43.1045 38.4292 42.9065 38.4826C42.8988 38.3455 42.8379 38.2617 42.7998 38.1551C43.1425 38.0333 43.9497 37.2338 44.4065 37.4926C44.6273 37.6221 44.7187 38.3378 44.7339 38.6957C44.7491 38.9851 44.7035 39.2744 44.5893 39.4344Z" fill="#D33833"/>
<path d="M44.5893 39.4344C43.9801 39.4191 43.4242 39.343 42.9445 39.2059C42.975 39.0079 42.9141 38.8176 42.9674 38.6729C43.1045 38.5739 43.3252 38.5739 43.5308 38.5511C43.3557 38.4673 43.1045 38.4292 42.9065 38.4826C42.8988 38.3455 42.8379 38.2617 42.7998 38.1551C43.1425 38.0333 43.9497 37.2338 44.4065 37.4926C44.6273 37.6221 44.7187 38.3378 44.7339 38.6957C44.7491 38.9851 44.7035 39.2744 44.5893 39.4344Z" fill="black" stroke="#D33833" stroke-width="0.623501"/>
<path d="M41.6728 38.4368C41.6728 38.4826 41.6728 38.5282 41.6651 38.5739C41.4748 38.6958 41.1701 38.6958 40.9569 38.8023C41.2616 38.8175 41.5052 38.8937 41.7184 38.9927C41.7107 39.1069 41.7107 39.2288 41.7032 39.343C41.3529 39.579 41.0331 39.9369 40.622 40.1653C40.424 40.272 39.7463 40.5461 39.5407 40.4927C39.4265 40.4623 39.4113 40.3176 39.3656 40.1806C39.2666 39.8913 39.0382 39.4191 39.0153 38.9775C38.9924 38.4216 38.9316 37.485 39.5331 37.5992C40.0203 37.6906 40.5838 37.9115 40.9569 38.1171C41.193 38.2541 41.3225 38.4064 41.6728 38.4368Z" fill="#D33833"/>
<path d="M41.6728 38.4368C41.6728 38.4826 41.6728 38.5282 41.6651 38.5739C41.4748 38.6958 41.1701 38.6958 40.9569 38.8023C41.2616 38.8175 41.5052 38.8937 41.7184 38.9927C41.7107 39.1069 41.7107 39.2288 41.7032 39.343C41.3529 39.579 41.0331 39.9369 40.622 40.1653C40.424 40.272 39.7463 40.5461 39.5407 40.4927C39.4265 40.4623 39.4113 40.3176 39.3656 40.1806C39.2666 39.8913 39.0382 39.4191 39.0153 38.9775C38.9924 38.4216 38.9316 37.485 39.5331 37.5992C40.0203 37.6906 40.5838 37.9115 40.9569 38.1171C41.193 38.2541 41.3225 38.4064 41.6728 38.4368Z" fill="black" stroke="#D33833" stroke-width="0.623501"/>
<path d="M42.0153 39.0993C41.962 38.7947 41.901 38.711 41.9239 38.4444C42.7386 37.9038 42.8833 39.3734 42.0152 39.0993" fill="#D33833"/>
<path d="M42.0153 39.0993C41.962 38.7947 41.901 38.711 41.9239 38.4444C42.7386 37.9038 42.8833 39.3734 42.0152 39.0993H42.0153Z" fill="black" stroke="#D33833" stroke-width="0.623501"/>
<path d="M43.1886 39.343C43.1886 39.343 42.9373 38.9851 43.12 38.8785C43.3028 38.7719 43.4779 38.8785 43.5845 38.6958C43.6912 38.513 43.5845 38.4064 43.6226 38.1932C43.6607 37.98 43.8358 37.9419 44.0186 37.9039C44.2013 37.8657 44.7038 37.7972 44.7724 37.9724L44.5592 37.3251L44.1252 37.1805L42.7622 37.9724L42.6937 38.3684V39.1602M39.4119 40.5308C39.3662 39.9673 39.3205 39.4115 39.2748 38.848C39.1987 38.0105 39.4728 38.155 40.2037 38.155C40.318 38.155 40.889 38.2846 40.9271 38.3684C41.1251 38.7719 40.5997 38.6805 41.1555 38.9851C41.62 39.2364 42.45 38.8328 42.2596 38.2617C42.153 38.1323 41.7114 38.2237 41.5515 38.1399L40.7063 37.7059C40.3485 37.5231 39.5261 37.249 39.1454 37.5079C38.1783 38.1627 39.2063 39.8075 39.5489 40.4927" fill="#EF3D3A"/>
<path d="M40.363 27.792C39.3808 27.5635 38.8935 28.2031 38.5965 28.8655C38.33 28.8047 38.4366 28.4392 38.5052 28.2565C38.6802 27.7768 39.3884 27.1295 39.967 27.2209C40.2107 27.2513 40.5457 27.4798 40.363 27.792ZM45.1372 28.9036H45.1829C45.4037 29.3605 45.5941 29.8479 45.8758 30.259C45.6855 30.7007 44.4596 31.0814 44.4748 30.3047C44.7413 30.1905 45.1982 30.2818 45.4342 30.1296C45.2972 29.7565 45.1068 29.4366 45.1372 28.9037M40.858 28.9189C41.0712 29.3072 41.1396 29.7108 41.4366 30.0002C41.5737 30.1296 41.8326 30.2895 41.7032 30.6549C41.6727 30.7387 41.4519 30.9291 41.3224 30.9672C40.858 31.1042 39.7691 30.9976 40.1346 30.4113C40.5229 30.4266 41.0407 30.6626 41.3301 30.3808C41.1092 30.0306 40.7133 29.33 40.858 28.9189ZM44.9621 32.8326C44.2616 33.2819 43.4772 33.7769 42.3199 33.6626C42.0763 33.4494 41.9773 32.9697 42.2209 32.6576C42.3427 32.8708 42.2666 33.2667 42.6169 33.3276C43.2717 33.4418 44.0331 32.924 44.5052 32.749C44.7945 32.254 44.4824 32.0789 44.2159 31.759C43.6753 31.1118 42.9595 30.3047 42.9823 29.3377C43.2032 29.1778 43.2184 29.5814 43.2489 29.6499C43.5306 30.3047 44.2388 31.1499 44.7489 31.7134C44.8783 31.8504 45.0839 31.9875 45.1068 32.0789C45.1753 32.3377 44.9317 32.6575 44.9621 32.8327M35.6877 32.3606C35.4669 32.2311 35.4137 31.6829 35.1548 31.6676C34.7817 31.6449 34.8502 32.3835 34.8502 32.8174C34.599 32.589 34.5532 31.8732 34.736 31.5078C34.5228 31.4011 34.4314 31.622 34.3096 31.6981C34.4695 30.5941 35.9314 31.188 35.6878 32.3606M45.4037 33.2971C45.0763 33.9215 44.6118 34.6068 43.6524 34.6297C43.6296 34.4317 43.6144 34.1195 43.6524 33.9977C44.391 33.9215 44.8479 33.5484 45.4037 33.2971ZM40.8047 33.7007C41.4138 34.0205 42.5407 34.0586 43.3783 34.0357C43.424 34.2185 43.424 34.4469 43.424 34.6677C42.3504 34.7134 41.0864 34.4469 40.8047 33.7007ZM40.6905 34.2946C41.1168 35.3606 42.5712 35.2388 43.7971 35.2084C43.7438 35.3454 43.6296 35.5129 43.4773 35.5662C43.0813 35.7261 42.0001 35.848 41.4519 35.5586C41.1092 35.3759 40.8808 34.957 40.6905 34.7134C40.6067 34.5992 40.1498 34.3022 40.6905 34.2946Z" fill="#231F20"/>
<path d="M44.9095 40.1653C44.4145 41.0181 43.9349 41.8938 43.3486 42.64C43.5922 41.9166 43.6988 40.6983 43.7369 39.7694C44.2547 39.5257 44.6963 39.8227 44.9095 40.1654" fill="#81B0C4"/>
<path d="M47.5823 43.2263C47.0264 43.3405 46.6381 43.8811 46.0898 43.8431C46.3944 43.4242 46.9122 43.2415 47.5823 43.2263ZM47.8259 44.0943C47.3691 44.14 46.836 44.2162 46.3792 44.1781C46.6 43.8431 47.4376 43.9649 47.8259 44.0943ZM47.9858 44.8482C47.4757 44.8558 46.8436 44.8482 46.3564 44.8101C46.6457 44.4979 47.6584 44.6959 47.9858 44.8482Z" fill="#231F20"/>
<path d="M43.95 46.904C44.0261 47.5436 44.2774 48.1909 44.247 48.8914C43.9652 48.9827 43.8053 49.0665 43.4246 49.0665C43.4018 48.4726 43.318 47.5589 43.3408 46.9878C43.5235 47.003 43.7977 46.8584 43.95 46.904Z" fill="#DCD9D8"/>
<path d="M43.1276 37.4623C42.8687 37.6297 42.6555 37.8353 42.4042 38.0181C41.856 38.0485 41.559 37.98 41.1631 37.6678C41.1707 37.645 41.2087 37.6526 41.2087 37.6221C41.795 37.881 42.5412 37.5155 43.1276 37.4622" fill="#F0D6B7"/>
<path d="M40.0664 41.4445C40.2263 40.7516 40.8583 40.3861 41.4294 40.0054C42.0156 40.7517 42.3736 41.711 42.7695 42.64C41.8329 42.3583 40.8811 41.909 40.0664 41.4445Z" fill="#81B0C4"/>
<path d="M43.3409 46.9954C43.318 47.5665 43.3941 48.4726 43.4246 49.0741C43.8054 49.0741 43.9652 48.9904 44.247 48.899C44.2775 48.1984 44.0262 47.5512 43.95 46.9116C43.7977 46.8584 43.5236 47.003 43.3409 46.9954ZM37.4626 43.7669C37.7139 46.0588 38.0717 47.9776 38.7341 50.0107C40.2037 50.4599 41.9703 50.498 43.2724 50.0944C43.0363 48.9523 43.1353 47.5589 42.9983 46.3329C42.8916 45.4116 42.9449 44.4903 42.8003 43.5537C41.2241 43.2263 39.0007 43.4776 37.4626 43.7669ZM43.1734 43.569C43.1581 44.5512 43.219 45.5258 43.2952 46.508C43.6759 46.4548 43.9272 46.4167 44.2775 46.3329C44.1632 45.3887 44.1785 44.3152 43.9424 43.4776C43.6759 43.4852 43.4398 43.4776 43.1734 43.5689V43.569ZM45.0845 43.409C44.9018 43.371 44.6962 43.409 44.5287 43.409C44.6125 44.2086 44.8028 45.0918 44.8714 45.937C45.1379 45.9446 45.2825 45.8152 45.5034 45.7771C45.5186 45.0385 45.4425 44.0182 45.0845 43.409ZM47.9857 46.0588C48.5491 45.9218 48.8994 45.2365 48.7395 44.5283C48.6329 44.0562 48.4501 43.1578 48.2445 42.8531C48.0998 42.6324 47.6963 42.3354 47.3689 42.541C46.8435 42.876 45.9221 42.975 45.5414 43.3786C45.7318 44.0182 45.7927 44.8863 45.8688 45.6933C46.5237 45.7315 47.3232 45.5107 47.8715 45.7466C47.4907 45.8685 47.0034 45.8685 46.676 46.0512C46.9501 46.1807 47.5745 46.1579 47.9857 46.0589V46.0588ZM42.7622 42.64C42.3662 41.711 42.0084 40.7517 41.422 40.0054C40.851 40.3861 40.2266 40.7517 40.0591 41.4445C40.8814 41.909 41.8333 42.3583 42.7622 42.64ZM43.7368 39.7694C43.6987 40.6983 43.5921 41.9166 43.3485 42.64C43.9348 41.8862 44.4145 41.0181 44.9094 40.1653C44.6962 39.8227 44.2546 39.5257 43.7369 39.7693L43.7368 39.7694ZM42.6327 39.3811C42.4119 39.3582 42.2216 39.6399 41.9322 39.5181C41.8637 39.5942 41.8027 39.6704 41.7342 39.7465C42.3738 40.5231 42.6708 41.6197 43.1658 42.5258C43.4323 41.6502 43.4018 40.6983 43.4628 39.7465C43.0972 39.7617 42.8917 39.4039 42.6327 39.381V39.3811ZM41.9246 38.4444C41.9017 38.7109 41.9627 38.7947 42.0159 39.0993C42.884 39.3734 42.7393 37.9038 41.9246 38.4444ZM40.9575 38.1247C40.5844 37.919 40.021 37.6982 39.5337 37.6069C38.9322 37.4926 38.993 38.4292 39.0159 38.9851C39.0388 39.4267 39.2672 39.8912 39.3662 40.1882C39.4119 40.3252 39.4271 40.4699 39.5413 40.5003C39.7469 40.5461 40.4322 40.2796 40.6226 40.1729C41.0337 39.9521 41.3535 39.5943 41.7038 39.3506C41.7114 39.2364 41.7114 39.1145 41.719 39.0003C41.5058 38.8937 41.2698 38.8252 40.9575 38.81C41.1632 38.7033 41.4754 38.7033 41.6657 38.5816C41.6657 38.5358 41.6657 38.4902 41.6734 38.4444C41.3231 38.4064 41.1936 38.2541 40.9575 38.1247ZM37.3788 37.4774C37.0667 37.7972 38.2544 38.2237 38.6276 38.2465C38.6276 38.0485 38.7418 37.8582 38.7189 37.7135C38.2697 37.6374 37.6834 37.6906 37.3788 37.4774ZM41.2165 37.6221C41.2165 37.6526 41.1784 37.645 41.1708 37.6678C41.5744 37.98 41.8713 38.0485 42.4119 38.0181C42.6556 37.843 42.8764 37.6298 43.1353 37.4622C42.5414 37.5155 41.7951 37.881 41.2165 37.6221H41.2165ZM44.7343 38.6882C44.7191 38.3378 44.6276 37.6145 44.4069 37.485C43.95 37.2185 43.1429 38.0257 42.8003 38.1475C42.8383 38.2541 42.8993 38.3378 42.9069 38.4749C43.1125 38.4216 43.3561 38.4597 43.5312 38.5434C43.3256 38.5663 43.1048 38.5663 42.9678 38.6653C42.9221 38.8099 42.983 39.0003 42.9449 39.1983C43.4246 39.3354 43.9805 39.4039 44.5897 39.4267C44.7038 39.2744 44.7495 38.9851 44.7343 38.6882ZM36.8534 37.782C36.7544 37.7135 36.092 36.853 36.0006 36.8911C34.8052 37.3633 33.6859 38.178 32.6883 38.9546C33.6401 41.0029 34.0285 43.508 34.097 45.9218C35.186 46.4319 36.1453 47.1705 37.6301 47.2467C37.455 46.036 37.3027 44.9471 37.2037 43.8049C36.8306 43.6451 36.2976 43.8126 35.9474 43.7593C35.9474 43.3405 36.4803 43.5766 36.526 43.2948C36.5565 43.0816 36.229 43.0664 36.3357 42.7314C36.6098 42.8303 36.7544 43.0511 37.0438 43.1349C37.3103 42.5562 37.0438 41.5283 37.0819 41.041C37.0895 40.9496 37.1275 40.5384 37.3331 40.6069C37.5159 40.6679 37.3255 41.711 37.3408 42.1679C37.356 42.5943 37.2874 42.9979 37.4626 43.2644C38.8941 43.0664 40.3485 42.9445 41.9017 42.8989C41.5591 42.7542 41.1555 42.6172 40.7139 42.3659C40.4703 42.2288 39.7165 41.9471 39.6479 41.7186C39.5337 41.3531 39.9372 41.1628 40.0058 40.8506C39.2824 41.2465 39.1454 40.4699 38.9702 39.9292C38.8179 39.4343 38.7266 39.0613 38.6885 38.7795C38.0565 38.4597 37.3864 38.1627 36.8534 37.782ZM44.1023 36.9901C45.0998 36.5105 45.2825 38.7947 44.8866 39.5334C44.9475 39.7541 45.1531 39.8379 45.2369 40.0358C44.681 41.0334 44.0643 41.9623 43.4931 42.9445C43.912 42.678 44.5211 42.8989 45.016 42.7009C45.1988 42.6324 45.3283 42.2136 45.4653 41.8786C45.8459 40.9648 46.2419 39.8074 46.4171 38.9395C46.4552 38.7415 46.5694 38.3074 46.5389 38.1323C46.4932 37.8125 46.0668 37.5764 45.8459 37.3861C45.4425 37.0205 45.1911 36.7085 44.7647 36.3657C44.6049 36.6171 44.2393 36.7845 44.1023 36.9902V36.9901ZM34.5767 28.1498C34.1046 28.6752 34.2036 29.6499 34.257 30.3503C35.1174 29.8098 36.2519 30.3961 36.2443 31.3098C36.6554 31.3021 36.3966 30.7997 36.3205 30.4722C36.0767 29.4138 36.7316 28.2717 36.3508 27.3047C35.6123 27.3655 35.0108 27.6625 34.5767 28.1499V28.1498ZM37.9727 25.1117C36.8991 25.4163 35.5209 26.2006 35.0793 27.1675C35.4219 27.1143 35.658 26.9468 35.993 26.9239C36.1225 26.9163 36.29 26.9772 36.4346 26.9392C36.724 26.863 36.9753 26.2082 37.196 25.9645C37.4093 25.7285 37.6681 25.6219 37.8433 25.4087C37.9575 25.3554 38.125 25.3554 38.1326 25.1878C38.087 25.1345 38.0336 25.0965 37.9727 25.1117ZM43.5693 25.401C42.45 24.7691 40.5617 24.297 39.3738 24.8909C38.4144 25.3706 37.12 26.1624 36.6783 27.16C37.0895 28.1269 36.5565 29.0102 36.5184 29.9924C36.5032 30.5179 36.7621 30.9672 36.7849 31.5383C36.6402 31.7743 36.2138 31.7971 35.9169 31.7819C35.8179 31.2793 35.6428 30.7159 35.1249 30.6549C34.394 30.5712 33.8534 31.1804 33.8229 31.8124C33.7849 32.5586 34.394 33.7921 35.262 33.7084C35.597 33.6779 35.6808 33.3428 36.0463 33.3428C36.2443 33.7388 35.7418 33.8606 35.6884 34.1423C35.6732 34.2185 35.7265 34.5002 35.7646 34.6373C35.9245 35.2845 36.2747 36.1297 36.6174 36.6247C37.059 37.2566 37.9195 37.348 38.8484 37.4089C39.0159 37.051 39.6251 37.0815 40.0209 37.1729C39.5413 36.9826 39.0997 36.5257 38.7342 36.1221C38.3154 35.6576 37.889 35.1627 37.8661 34.5536C38.6657 35.6576 39.3205 36.6247 40.7672 37.112C41.8637 37.4774 43.1429 36.9444 43.9881 36.3505C44.3383 36.1068 44.5439 35.7109 44.7952 35.3606C45.7242 34.0205 46.1582 32.1169 46.0668 30.2666C46.0287 29.5052 46.0287 28.7438 45.7698 28.2336C45.5034 27.7006 44.5973 27.2133 44.0642 27.7006C43.9652 27.1752 44.5059 26.8554 45.1378 27.0458C44.6887 26.4595 44.2166 25.7665 43.5693 25.401ZM45.6556 42.6172C46.5313 42.1831 48.1608 41.4521 48.7014 42.6172C48.9071 43.0511 49.143 43.7745 49.242 44.2238C49.3867 44.8482 49.0821 46.1731 48.4349 46.3786C47.8638 46.5614 47.2014 46.5538 46.5161 46.4167C46.4323 46.3482 46.3486 46.2339 46.2801 46.1121C45.7928 46.0969 45.3283 46.135 44.9475 46.3406C44.9856 46.706 44.7419 46.7594 44.5059 46.8356C44.3383 47.5132 44.8485 48.3964 44.7267 49.0056C44.6429 49.4472 44.1023 49.5157 43.7064 49.5919C43.6911 49.8356 43.7216 50.0412 43.7521 50.2468C43.6607 50.5818 43.2571 50.7721 42.8688 50.8178C41.5972 50.9701 39.6708 51.0386 38.4525 50.597C38.1098 49.7595 37.8433 48.7467 37.5616 47.795C36.3737 47.9243 35.4067 47.2847 34.5006 46.8584C34.1884 46.7137 33.7544 46.6299 33.6325 46.3787C33.5184 46.135 33.564 45.6705 33.5335 45.2365C33.465 44.1172 33.3965 43.0359 33.1072 41.8938C32.9777 41.376 32.7417 40.9268 32.5818 40.4319C32.4295 39.975 32.1706 39.4039 32.1021 38.947C32.0031 38.2694 32.6427 38.2312 33.0463 37.9343C33.6783 37.4774 34.1732 37.2261 34.8584 36.815C35.0641 36.6932 35.6732 36.3886 35.7417 36.2439C35.8788 35.9622 35.5057 35.5663 35.4067 35.3454C35.2468 34.9952 35.163 34.6982 35.1402 34.3555C34.5691 34.2642 34.1275 33.9215 33.8687 33.5408C33.4346 32.9012 33.13 31.721 33.5108 30.8301C33.5412 30.7616 33.6859 30.6169 33.7087 30.5103C33.7544 30.2971 33.6249 30.0153 33.6173 29.7869C33.5793 28.6219 33.8153 27.6168 34.5996 27.2665C34.9194 25.995 36.0615 25.5762 37.1352 24.9442C37.5388 24.7081 37.9804 24.5559 38.4372 24.3883C40.0743 23.7868 42.5947 23.901 43.9576 24.9289C44.5363 25.363 45.4576 26.2843 45.7851 26.9544C46.6607 28.7133 46.5922 31.66 45.9831 33.8073C45.8993 34.0967 45.7851 34.5154 45.6176 34.8657C45.5034 35.1094 45.1455 35.5891 45.1835 35.8022C45.2293 36.0231 46.0059 36.6094 46.1735 36.7693C46.4704 37.0586 47.0415 37.4394 47.0871 37.8049C47.1405 38.1932 46.9197 38.7262 46.8055 39.0993C46.4399 40.3481 46.0745 41.4979 45.6556 42.6172Z" fill="#231F20"/>
<path d="M39.8305 33.9672C39.8762 33.9063 40.135 33.8073 40.5005 33.9825C40.5005 33.9825 40.0665 34.051 40.1046 34.7744L39.9219 34.7363C39.9295 34.7439 39.7391 34.0891 39.8305 33.9672Z" fill="#F7E4CD"/>
<path d="M42.9829 40.1501C42.9829 40.2567 42.8916 40.3481 42.7849 40.3481C42.6783 40.3481 42.5869 40.2567 42.5869 40.1501C42.5869 40.0434 42.6783 39.9521 42.7849 39.9521C42.8992 39.9521 42.9829 40.0434 42.9829 40.1501ZM43.1809 41.0714C43.1809 41.1781 43.0896 41.2694 42.9829 41.2694C42.8763 41.2694 42.7849 41.1781 42.7849 41.0714C42.7849 40.9648 42.8763 40.8734 42.9829 40.8734C43.0971 40.8734 43.1809 40.9572 43.1809 41.0714Z" fill="#1D1919"/>
<path d="M32.8098 52.7214C32.7488 52.7291 32.6955 52.7367 32.6498 52.7443C32.6042 52.752 32.5585 52.7595 32.4975 52.7748C32.429 52.7899 32.3909 52.8204 32.3757 52.8661C32.3605 52.9118 32.3453 52.9575 32.3453 53.0184V54.8762C32.3452 55.0396 32.3088 55.2009 32.2386 55.3484C32.1701 55.4931 32.0787 55.6073 31.957 55.7062C31.8351 55.7976 31.698 55.8738 31.5457 55.9195C31.3935 55.9652 31.2335 55.9956 31.0661 55.9956C30.7691 55.9956 30.533 55.9271 30.3503 55.7824C30.1676 55.6377 30.0762 55.4474 30.0762 55.1962C30.0762 55.0514 30.1142 54.9296 30.198 54.8306C30.2818 54.7316 30.396 54.6859 30.5407 54.6859C30.6777 54.6859 30.7843 54.724 30.868 54.8078C30.9518 54.8915 30.9899 54.9905 30.9899 55.1048C30.9899 55.2038 30.9518 55.3028 30.8832 55.3864C30.8148 55.4702 30.731 55.554 30.6397 55.6225V55.653C30.6549 55.6835 30.6853 55.7139 30.731 55.7367C30.7767 55.7596 30.83 55.7672 30.8757 55.7672C31.066 55.7672 31.2183 55.6986 31.3249 55.5616C31.4315 55.4245 31.4849 55.219 31.4849 54.9448V53.0413C31.4849 52.9879 31.4772 52.9346 31.462 52.8965C31.4467 52.8585 31.4011 52.828 31.3325 52.7975C31.2869 52.7748 31.2259 52.7595 31.1574 52.7443C31.0889 52.729 31.0356 52.7214 30.9899 52.7138V52.5311H32.7869V52.7214H32.8098ZM35.6271 55.3408C35.5737 55.4321 35.5052 55.5159 35.4291 55.5997C35.3529 55.6835 35.2616 55.7443 35.1626 55.8053C35.056 55.8662 34.9494 55.9118 34.8428 55.9423C34.7361 55.9728 34.6067 55.988 34.4697 55.988C34.2336 55.988 34.0357 55.9576 33.8605 55.889C33.693 55.8205 33.5484 55.7367 33.4417 55.6225C33.3275 55.5083 33.2514 55.3789 33.1905 55.2265C33.1349 55.0674 33.1066 54.9001 33.1067 54.7316C33.1067 54.5717 33.1371 54.4118 33.1981 54.2672C33.259 54.1225 33.3427 53.9855 33.4494 53.8712C33.556 53.757 33.693 53.6656 33.8605 53.5971C34.0345 53.526 34.2208 53.4897 34.4088 53.4904C34.6295 53.4904 34.8123 53.521 34.957 53.5742C35.1016 53.6275 35.2159 53.7037 35.3072 53.7951C35.3986 53.8864 35.4595 53.9931 35.5052 54.1148C35.5433 54.2367 35.5661 54.3662 35.5661 54.5031V54.6555H33.9595C33.9595 54.9829 34.0204 55.2266 34.1498 55.3941C34.2717 55.5616 34.4773 55.6454 34.7438 55.6454C34.896 55.6454 35.0255 55.6072 35.1474 55.5235C35.269 55.4412 35.3726 55.335 35.4519 55.2114L35.6271 55.3408ZM34.7209 54.4347C34.7209 54.3434 34.7133 54.2444 34.7057 54.1454C34.6981 54.0464 34.6829 53.9626 34.6524 53.9017C34.6219 53.8255 34.5915 53.7722 34.5382 53.7341C34.4925 53.6961 34.4315 53.6809 34.3631 53.6809C34.2412 53.6809 34.1422 53.7417 34.0737 53.8635C33.9976 53.9855 33.9595 54.1834 33.9519 54.4499L34.7209 54.4347ZM38.985 55.9042H37.5535V55.7291C37.584 55.7291 37.622 55.7214 37.6601 55.7139C37.7058 55.7062 37.7362 55.6986 37.7591 55.691C37.7896 55.6758 37.8123 55.6454 37.8276 55.6149C37.8428 55.5845 37.8505 55.5311 37.8505 55.4702V54.3586C37.8505 54.1986 37.82 54.0768 37.7591 53.9931C37.6982 53.9093 37.6144 53.8712 37.4926 53.8712C37.4316 53.8712 37.3707 53.8789 37.3175 53.9017C37.2641 53.9169 37.2108 53.9473 37.1575 53.9855C37.1119 54.0158 37.0738 54.0463 37.0433 54.0844C37.0129 54.1148 36.99 54.1453 36.9748 54.1758V55.4473C36.9748 55.5007 36.9824 55.5463 36.9976 55.5845C37.0129 55.6225 37.0433 55.653 37.0738 55.6682C37.1014 55.6868 37.1325 55.6997 37.1651 55.7062L37.2794 55.7291V55.9042H35.8326V55.7291C35.8707 55.7291 35.9088 55.7214 35.9545 55.7139C35.9926 55.7062 36.0306 55.6986 36.0611 55.691C36.1143 55.6758 36.1448 55.6454 36.1677 55.6072C36.1829 55.5692 36.1981 55.5235 36.1981 55.4626V54.0768C36.1981 54.0311 36.1829 53.9778 36.1601 53.9321C36.1372 53.8865 36.0992 53.8483 36.0611 53.8179C36.0306 53.8027 36.0002 53.7798 35.9544 53.7722C35.9078 53.7566 35.8589 53.7489 35.8098 53.7494V53.5742L36.9444 53.5134L36.9824 53.5514V53.8941H36.9901C37.0456 53.8484 37.099 53.8001 37.1499 53.7494C37.206 53.7008 37.2645 53.6551 37.3251 53.6123C37.386 53.5742 37.4621 53.5437 37.5535 53.5133C37.6448 53.4829 37.7515 53.4752 37.8581 53.4752C38.1169 53.4752 38.3073 53.5514 38.4367 53.6961C38.5662 53.8407 38.6271 54.0387 38.6271 54.2824V55.4475C38.6271 55.5083 38.6348 55.5541 38.6499 55.5845C38.6652 55.6226 38.7033 55.6455 38.7489 55.6683C38.7718 55.6759 38.8023 55.6911 38.8403 55.6987C38.8784 55.7064 38.9165 55.714 38.9698 55.7216V55.9043H38.985V55.9042ZM42.2592 55.9042H41.1399C41.0218 55.6933 40.8948 55.4875 40.7591 55.2875C40.6449 55.12 40.5383 54.96 40.4393 54.823L40.3023 54.9448V55.4626C40.3023 55.5159 40.31 55.5693 40.3251 55.5997C40.3403 55.6377 40.3708 55.6606 40.4241 55.6835C40.4545 55.6986 40.485 55.7062 40.5231 55.7139C40.5612 55.7215 40.5993 55.7291 40.6373 55.7291V55.9042H39.1601V55.7291C39.1982 55.7291 39.2362 55.7214 39.282 55.7139C39.32 55.7062 39.3581 55.6986 39.3886 55.691C39.4419 55.6758 39.4723 55.6454 39.4952 55.6072C39.5104 55.5692 39.5256 55.5235 39.5256 55.4626V52.8128C39.5256 52.7595 39.5104 52.7061 39.4875 52.6529C39.4647 52.5996 39.4342 52.5539 39.3886 52.5234C39.3581 52.5082 39.3124 52.4854 39.2515 52.4778C39.1906 52.4626 39.1373 52.4549 39.084 52.4549V52.2798L40.2642 52.2189L40.3023 52.2569V54.7087C40.4165 54.6022 40.5535 54.4803 40.6983 54.3433C40.8429 54.2062 40.9647 54.092 41.0485 54.0007C41.1018 53.9473 41.1322 53.9093 41.1322 53.8788C41.1399 53.8483 41.1399 53.8331 41.1399 53.8255C41.1399 53.7951 41.117 53.7722 41.0637 53.757C41.0104 53.7417 40.9419 53.7189 40.8353 53.7037V53.5362H42.0383V53.7037C41.8784 53.7494 41.7566 53.7875 41.6728 53.8255C41.5891 53.8636 41.4977 53.9169 41.3987 53.9778C41.334 54.0217 41.2705 54.0674 41.2084 54.1148C41.1475 54.1606 41.079 54.2215 40.9952 54.29C41.1475 54.5184 41.2921 54.724 41.4216 54.9144C41.5511 55.1047 41.6881 55.3103 41.8328 55.5235C41.8784 55.5997 41.9394 55.6454 42.0155 55.6758C42.0917 55.6986 42.1602 55.7139 42.2363 55.7215V55.9042H42.2592ZM43.7821 55.9042H42.282V55.7291C42.32 55.7291 42.3658 55.7214 42.4038 55.7139C42.4419 55.7062 42.48 55.6986 42.5028 55.691C42.5561 55.6758 42.5866 55.6454 42.6094 55.6072C42.6323 55.5692 42.6399 55.5235 42.6399 55.4626V54.0768C42.6399 54.0235 42.6246 53.9702 42.6018 53.9321C42.5819 53.8908 42.5501 53.8563 42.5105 53.8331C42.48 53.8179 42.4419 53.7951 42.381 53.7798C42.32 53.7646 42.2668 53.7494 42.2211 53.7494V53.5742L43.3861 53.5134L43.4242 53.5514V55.4397C43.4242 55.4931 43.4394 55.5387 43.4622 55.5845C43.4851 55.6225 43.5232 55.653 43.5612 55.6682C43.595 55.6854 43.6308 55.6982 43.6679 55.7062C43.7059 55.7139 43.744 55.7215 43.7897 55.7291V55.9042H43.782H43.7821ZM43.4394 52.6682C43.4394 52.7899 43.3937 52.8889 43.3023 52.9727C43.211 53.0565 43.0967 53.1021 42.9749 53.1021C42.8455 53.1021 42.7389 53.0565 42.6399 52.9727C42.5486 52.8889 42.5028 52.7823 42.5028 52.6681C42.5028 52.5463 42.5485 52.4473 42.6399 52.3559C42.7312 52.2722 42.8455 52.2265 42.9749 52.2265C43.1044 52.2265 43.211 52.2722 43.3023 52.3559C43.3937 52.4397 43.4394 52.5463 43.4394 52.6682ZM47.14 55.9042H45.7084V55.7291C45.7388 55.7291 45.777 55.7214 45.815 55.7139C45.8607 55.7062 45.8912 55.6986 45.914 55.691C45.9444 55.6758 45.9673 55.6454 45.9826 55.6149C45.9977 55.5845 46.0053 55.5311 46.0053 55.4702V54.3586C46.0053 54.1986 45.9749 54.0768 45.914 53.9931C45.8531 53.9093 45.7693 53.8712 45.6475 53.8712C45.5866 53.8712 45.5256 53.8789 45.4724 53.9017C45.4191 53.9245 45.3657 53.9473 45.3125 53.9855C45.2667 54.0158 45.2287 54.0463 45.1982 54.0844C45.1678 54.1148 45.1449 54.1453 45.1297 54.1758V55.4473C45.1297 55.5007 45.1374 55.5463 45.1525 55.5845C45.1678 55.6225 45.1982 55.653 45.2287 55.6682C45.2515 55.6835 45.282 55.6986 45.3201 55.7062L45.4343 55.7291V55.9042H43.9876V55.7291C44.0256 55.7291 44.0637 55.7214 44.1094 55.7139C44.1474 55.7062 44.1856 55.6986 44.216 55.691C44.2693 55.6758 44.2997 55.6454 44.3226 55.6072C44.3378 55.5692 44.3531 55.5235 44.3531 55.4626V54.0768C44.3531 54.0311 44.3378 53.9778 44.3149 53.9321C44.2922 53.8865 44.2541 53.8483 44.216 53.8179C44.1856 53.8027 44.1551 53.7798 44.1094 53.7722C44.0627 53.7566 44.0139 53.7489 43.9647 53.7494V53.5742L45.0993 53.5134L45.1374 53.5514V53.8941H45.1449C45.2005 53.8484 45.2539 53.8001 45.3049 53.7494C45.361 53.7008 45.4194 53.6551 45.48 53.6123C45.5409 53.5742 45.617 53.5437 45.7084 53.5133C45.7998 53.4829 45.9064 53.4752 46.013 53.4752C46.2719 53.4752 46.4622 53.5514 46.5916 53.6961C46.7211 53.8407 46.782 54.0387 46.782 54.2824V55.4475C46.782 55.5083 46.7897 55.5541 46.8049 55.5845C46.8201 55.6226 46.8581 55.6455 46.9039 55.6683C46.9267 55.6759 46.9571 55.6911 46.9952 55.6987C47.0333 55.7064 47.0714 55.714 47.1247 55.7216V55.9043H47.1399L47.14 55.9042ZM48.4572 55.988C48.305 55.988 48.1527 55.9652 48.008 55.9195C47.8633 55.8738 47.7492 55.8281 47.6654 55.7748L47.5968 55.9347H47.4141L47.3836 55.0514H47.5588C47.5816 55.12 47.6197 55.2037 47.6806 55.2951C47.7339 55.3864 47.8024 55.4626 47.8709 55.5387C47.9495 55.6099 48.0365 55.6713 48.1299 55.7215C48.2288 55.7672 48.3278 55.7976 48.4344 55.7976C48.5791 55.7976 48.6857 55.7672 48.7542 55.7139C48.8227 55.6606 48.8609 55.5692 48.8609 55.455C48.8609 55.3941 48.8456 55.3408 48.8151 55.2951C48.7847 55.257 48.739 55.219 48.6857 55.1885C48.6248 55.158 48.5563 55.1276 48.4801 55.1048C48.404 55.0819 48.3126 55.059 48.206 55.021C48.0994 54.9905 48.008 54.96 47.9319 54.922C47.8557 54.8915 47.7719 54.8383 47.6958 54.7697C47.6273 54.7088 47.5664 54.6327 47.5283 54.5489C47.4826 54.4651 47.4674 54.3586 47.4674 54.2367C47.4674 54.0158 47.5588 53.8331 47.7492 53.6961C47.9395 53.559 48.1832 53.4904 48.4878 53.4904C48.6324 53.4904 48.7619 53.5058 48.8837 53.5362C49.0055 53.5666 49.1045 53.5971 49.1882 53.6351L49.2416 53.4981H49.4243L49.4623 54.3052H49.2948C49.2416 54.1377 49.1426 54.0007 49.0132 53.8788C48.8761 53.757 48.7314 53.6961 48.5791 53.6961C48.4573 53.6961 48.3583 53.7189 48.2898 53.7722C48.2212 53.8255 48.1831 53.8941 48.1831 53.9855C48.1831 54.1072 48.2364 54.191 48.3354 54.2443C48.4344 54.2976 48.5791 54.351 48.7619 54.3966C49.0436 54.4727 49.2492 54.5717 49.3862 54.6936C49.5157 54.823 49.5842 54.9829 49.5842 55.1732C49.5842 55.4321 49.4852 55.6377 49.2796 55.7748C49.0512 55.9118 48.7847 55.988 48.4573 55.988H48.4572Z" fill="#231F20"/>
</g>
<defs>
<clipPath id="clip0_270_11122">
<rect width="19.6455" height="32" fill="white" transform="translate(30 24)"/>
</clipPath>
</defs>
</svg>
