<svg width="120" height="120" viewBox="0 0 120 120" fill="none" xmlns="http://www.w3.org/2000/svg">
<g clip-path="url(#clip0_688_16140)">
<path d="M84 83.292H36L51.98 49.206L61.606 56.282L74.16 36.708L84 83.292ZM66.4 75.93H66.504C67.6917 75.9322 68.8339 75.4733 69.69 74.65C70.1289 74.2519 70.4781 73.7649 70.7143 73.2215C70.9505 72.678 71.0684 72.0905 71.06 71.498C71.0794 70.9277 70.9709 70.3603 70.7425 69.8374C70.5141 69.3145 70.1716 68.8493 69.74 68.476C69.0121 67.7454 68.031 67.3229 67 67.296H66.92C66.7855 67.2952 66.6515 67.3134 66.522 67.35L69.056 63.584L67.036 62.174L66.082 63.584L63.642 67.312C63.222 67.932 62.87 68.476 62.652 68.852C62.428 69.252 62.232 69.672 62.072 70.102C61.8897 70.5595 61.796 71.0475 61.796 71.54C61.7902 72.1252 61.9076 72.705 62.1405 73.2418C62.3735 73.7787 62.7167 74.2605 63.148 74.656C63.992 75.478 65.126 75.938 66.304 75.936L66.4 75.93ZM55.67 71.876L58.466 75.832H61.458L58.168 71.242L61.088 67.184L59.148 65.842L58.294 66.972L55.666 70.678V63.228L53.046 61.092V75.832H55.666V71.872L55.67 71.876ZM66.404 73.46C65.8929 73.46 65.4028 73.257 65.0414 72.8956C64.68 72.5342 64.477 72.0441 64.477 71.533C64.477 71.0219 64.68 70.5318 65.0414 70.1704C65.4028 69.809 65.8929 69.606 66.404 69.606H66.422C66.6758 69.6061 66.9269 69.6576 67.1603 69.7573C67.3936 69.8569 67.6044 70.0028 67.78 70.186C67.9647 70.3558 68.1118 70.5624 68.2117 70.7925C68.3116 71.0226 68.3621 71.2711 68.36 71.522C68.3542 72.0366 68.1459 72.5282 67.7801 72.8902C67.4143 73.2522 66.9206 73.4555 66.406 73.456L66.404 73.46Z" fill="#7D64FF"/>
</g>
<defs>
<clipPath id="clip0_688_16140">
<rect width="48" height="48" fill="white" transform="translate(36 36)"/>
</clipPath>
</defs>
</svg>
