<svg width="120" height="120" viewBox="0 0 120 120" fill="none" xmlns="http://www.w3.org/2000/svg">
<path d="M15.0008 69.44C15.2505 69.0178 15.6243 68.6829 16.0712 68.4811C16.5181 68.2792 17.0163 68.2203 17.4979 68.3123C19.7733 68.5598 22.0709 68.5466 24.3438 68.271C25.0907 68.172 25.8467 68.1671 26.5944 68.2545L30.0931 68.5433C30.4534 68.568 30.812 68.6192 31.1649 68.6942C31.3187 68.7164 31.462 68.7854 31.5754 68.8918C31.6888 68.9981 31.7668 69.1368 31.7988 69.289C31.8353 69.4558 31.8132 69.63 31.7363 69.7823C31.6594 69.9347 31.5325 70.0559 31.3767 70.1255C31.0676 70.3029 30.7197 70.4035 30.3627 70.4167L26.6035 70.2386C25.5185 70.2056 24.4328 70.2377 23.3512 70.3309C21.8549 70.4794 20.3471 70.4893 18.85 70.359C18.0198 70.2864 17.1789 70.3326 16.3438 70.3177C15.8326 70.3879 15.3215 70.1808 15 69.7733L15.0008 69.44ZM31.7659 54.5792L31.8895 57.427C31.9101 58.0408 31.8903 58.6644 31.8318 59.2666C31.6504 60.5412 31.6504 61.8347 31.8318 63.1093C31.9101 63.662 31.8928 64.223 31.7823 64.7699C31.7696 64.9616 31.7184 65.1488 31.6317 65.3202C31.545 65.4916 31.4246 65.6437 31.2777 65.7674C31.1308 65.8911 30.9605 65.9839 30.7769 66.0401C30.5933 66.0964 30.4003 66.115 30.2094 66.0948C29.291 66.0453 28.3792 65.9117 27.4856 65.6972C26.8345 65.4961 26.2792 65.064 25.9241 64.482C25.5562 63.9556 25.2177 63.4092 24.9101 62.8453C24.3809 61.8587 23.7288 60.943 22.9703 60.1197C22.5251 59.5834 22.1237 59.0142 21.765 58.4186C21.6871 58.2703 21.5987 58.1277 21.5004 57.9921C21.4365 57.9077 21.3502 57.8428 21.2515 57.8048C21.1527 57.7668 21.0453 57.757 20.9413 57.7768C20.8373 57.7965 20.7408 57.8448 20.6628 57.9164C20.5848 57.988 20.5283 58.0799 20.4996 58.1818C20.4279 58.3963 20.3924 58.6191 20.3949 58.8443L20.3124 62.6968C20.3033 62.9201 20.2544 63.1399 20.1682 63.346C20.0365 63.592 19.9644 63.8655 19.9576 64.1445C19.9509 64.4235 20.0097 64.7002 20.1294 64.9522C20.1754 65.0421 20.1995 65.1414 20.2 65.2424C20.2005 65.3433 20.1772 65.4429 20.1321 65.5331C20.087 65.6234 20.0214 65.7018 19.9404 65.7619C19.8595 65.8221 19.7655 65.8624 19.6661 65.8795C19.1951 66.0603 18.6931 66.1461 18.1888 66.1319C17.6845 66.1178 17.1881 66.0039 16.7279 65.797C16.2218 65.5908 15.8953 65.0958 15.9035 64.5488L15.8046 61.7819C15.7444 61.2078 15.9629 60.6385 16.3924 60.2525C16.5771 60.0817 16.7345 59.8837 16.8599 59.6651C17.1443 59.2526 17.1261 58.7164 16.8162 58.332C15.9782 57.2275 15.612 55.8355 15.798 54.4613L15.8599 51.701L15.8664 51.0303C15.8416 50.8895 15.8534 50.7447 15.9006 50.6098C15.9478 50.4749 16.029 50.3544 16.1362 50.2599C16.2434 50.1655 16.3732 50.1002 16.5129 50.0704C16.6526 50.0406 16.7976 50.0473 16.934 50.0898C17.633 50.0873 18.3257 49.9579 18.9786 49.7079C19.1383 49.6343 19.3118 49.5957 19.4877 49.5946C19.6635 49.5935 19.8375 49.6299 19.9981 49.7014C20.1588 49.7729 20.3023 49.8779 20.4192 50.0093C20.5361 50.1407 20.6237 50.2956 20.676 50.4635C20.7815 50.6912 20.8623 50.9296 20.9563 51.1631C21.0224 51.3634 21.1327 51.5462 21.2792 51.6979C21.4256 51.8495 21.6044 51.9662 21.8021 52.0392C22.2215 52.2051 22.5727 52.5076 22.7988 52.898L25.427 56.6878C25.6959 57.0803 26.0066 57.4424 26.3537 57.7677C26.7288 58.1084 27.0396 58.002 27.1006 57.4856C27.2176 56.6854 27.2547 55.8744 27.2119 55.066C27.1386 53.812 27.1527 52.5545 27.2539 51.3025C27.1731 50.8736 27.3199 50.4347 27.6414 50.141C27.9629 49.8473 28.4147 49.7417 28.8326 49.8622L29.7593 49.915C30.1982 49.89 30.631 50.0277 30.975 50.3018C31.3189 50.5758 31.55 50.967 31.6241 51.4007C31.7195 51.7511 31.7753 52.1111 31.7906 52.474L31.7988 54.5718L31.7659 54.5792ZM51.7856 59.1107C51.7246 58.2198 51.8054 57.3255 52.0247 56.461C52.232 55.7879 52.6376 55.1931 53.1883 54.7544C53.739 54.3158 54.4092 54.0538 55.1113 54.0026C56.4198 53.7555 57.7729 54.037 58.8747 54.7855C58.9901 54.8663 59.1088 54.9389 59.2324 55.0041C59.3154 55.0705 59.4111 55.1189 59.5137 55.1463C59.6163 55.1737 59.7235 55.1795 59.8284 55.1633C59.9334 55.1471 60.0338 55.1092 60.1234 55.0522C60.2129 54.9951 60.2896 54.92 60.3487 54.8317C60.8199 54.4669 61.3854 54.2445 61.9788 54.1907C62.5721 54.1369 63.1684 54.254 63.6974 54.5281C64.4064 55.0396 64.6669 55.9751 64.3264 56.7802C63.8356 57.9753 63.7369 59.2954 64.0445 60.5503L64.3083 63.134L64.5284 65.9653C64.5573 66.9222 64.2423 67.8577 63.6413 68.6018C63.0948 69.3072 62.4097 69.8929 61.6298 70.3243C61.2176 70.6312 60.6735 70.6972 60.1995 70.4992C59.1856 70.0746 58.047 70.0584 57.0214 70.4539C56.1723 70.7566 55.2522 70.8102 54.3734 70.609C53.7942 70.4977 53.2506 70.2474 52.7894 69.8795C52.3282 69.5116 51.9631 69.0373 51.7254 68.4971C51.5755 68.2918 51.4997 68.0416 51.5105 67.7875C51.5213 67.5335 51.618 67.2906 51.7848 67.0988C52.1574 66.7325 52.7246 66.6533 53.1846 66.9008L53.5696 67.0641L53.9447 67.2506C55.1154 67.6837 56.3371 67.9518 57.5202 68.337C57.7945 68.4056 58.0803 68.4147 58.3585 68.3638C58.6366 68.313 58.9007 68.2033 59.1331 68.0421C59.3655 67.8809 59.5608 67.672 59.7061 67.4292C59.8513 67.1864 59.9431 66.9154 59.9752 66.6343C60.0654 66.1148 60.0815 65.5852 60.023 65.0611C60.0294 64.9606 60.0091 64.8602 59.964 64.7702C59.919 64.6801 59.8509 64.6036 59.7666 64.5485C59.6824 64.4934 59.585 64.4617 59.4845 64.4565C59.384 64.4514 59.284 64.473 59.1945 64.5191C58.7708 64.6536 58.3644 64.8359 57.9827 65.0636C57.2819 65.4885 56.455 65.6411 55.6471 65.5173C54.4806 65.3457 53.5053 64.5422 53.1129 63.4302C52.8937 62.768 52.5444 62.1563 52.0857 61.631C51.8961 61.3587 51.7972 61.0345 51.7996 60.7037C51.756 60.1741 51.7881 59.6313 51.7881 59.1083L51.7856 59.1107ZM60.1648 59.9571C60.087 59.4381 59.9741 58.9249 59.8268 58.4211C59.685 57.9642 59.4019 57.5641 59.0184 57.2784C58.6348 56.9927 58.1706 56.8362 57.6925 56.8314C57.2207 56.8928 56.7785 57.0957 56.424 57.4133C56.0696 57.7309 55.8194 58.1483 55.7065 58.6108C55.6734 58.6875 55.652 58.7687 55.643 58.8517C55.6331 59.5447 55.6628 60.236 55.7304 60.9256C55.7963 61.706 56.3627 62.3512 57.1278 62.5153C57.9522 62.7546 58.8425 62.5087 59.4295 61.8818C59.89 61.3443 60.1507 60.6641 60.1673 59.9563L60.1648 59.9571ZM35.2926 62.8791V62.2084C35.2366 61.5534 35.4889 60.9091 35.9753 60.476C36.4616 60.0429 37.1269 59.8449 37.7724 59.9646C37.9119 59.9743 38.0504 59.9939 38.1871 60.0231C38.4733 60.0942 38.7719 60.0994 39.0604 60.0386C39.349 59.9777 39.62 59.8523 39.8532 59.6717C40.533 59.173 41.348 58.8926 42.1904 58.8674C42.5779 58.8426 42.9629 58.7849 43.3363 58.671C43.695 58.5844 44.0041 58.3575 44.1954 58.0416C44.3866 57.7256 44.4427 57.3461 44.352 56.9881C44.3413 56.7456 44.2308 56.5179 44.047 56.3612C43.8631 56.2044 43.6224 56.1277 43.3817 56.1533C41.9724 56.0782 40.589 56.5531 39.5227 57.4781C39.3726 57.6404 39.1667 57.7397 38.9464 57.7562C38.1401 57.7603 37.3363 57.6803 36.5556 57.5169C36.3267 57.4895 36.1127 57.3889 35.9454 57.2301C35.7781 57.0714 35.6665 56.8628 35.627 56.6355C35.5876 56.4082 35.6225 56.1742 35.7265 55.9683C35.8305 55.7624 35.9981 55.5955 36.2044 55.4925C36.8253 54.9681 37.5466 54.576 38.324 54.34C39.1015 54.1039 39.9189 54.029 40.7263 54.1198C41.6115 54.2538 42.513 54.2385 43.3932 54.0744C45.535 53.8228 47.5177 55.2376 47.9769 57.3461C48.0181 57.7339 47.9802 58.1249 47.8639 58.4961C47.6034 59.2996 47.6496 60.1708 47.9959 60.9405C48.1309 61.333 48.1515 61.7559 48.0552 62.1598C47.9228 62.8161 47.9279 63.4928 48.07 64.1471C48.2267 64.5348 48.1607 64.9786 47.9019 65.307C47.643 65.6353 47.2259 65.7995 46.8137 65.7376C46.3685 65.7458 45.92 65.7293 45.4748 65.7574C44.9719 65.8382 44.4592 65.6724 44.0981 65.3119C43.9687 65.1593 43.7823 65.0661 43.5828 65.0537C43.3833 65.0413 43.1871 65.1115 43.0387 65.2459C42.8963 65.3803 42.7288 65.4852 42.5457 65.5545L38.5202 66.2557C37.9341 66.2716 37.3521 66.1534 36.8186 65.91C36.3461 65.7609 35.9379 65.456 35.6607 65.0451C35.3834 64.6342 35.2534 64.1415 35.2918 63.6472L35.2968 62.8882L35.2926 62.8791ZM40.9785 63.9483C41.1178 63.9572 41.2575 63.9452 41.3932 63.9128L44.3776 62.6424C44.4782 62.5881 44.5634 62.5091 44.6252 62.4129C44.6871 62.3167 44.7235 62.2064 44.7312 62.0923C44.7389 61.9781 44.7175 61.8639 44.669 61.7603C44.6206 61.6567 44.5467 61.5671 44.4542 61.4998C43.9785 60.8151 43.1187 60.514 42.319 60.7491C42.0189 60.8068 41.7131 60.8316 41.4081 60.8184C41.0466 60.8259 40.6864 60.8617 40.3306 60.9256C39.9734 61.0177 39.6665 61.2461 39.4757 61.562C39.2849 61.8778 39.2254 62.2559 39.31 62.6151C39.2935 63.2891 39.8071 63.8583 40.479 63.9087C40.6438 63.9367 40.8128 63.9375 40.9794 63.9483H40.9785ZM89.0989 59.9225C89.0405 61.1302 88.7311 62.3126 88.1904 63.3939C87.8136 64.0539 87.2703 64.6008 86.6158 64.9836C86.2003 65.2806 85.6677 65.3655 85.1813 65.2105C84.918 65.1108 84.6307 65.0934 84.3573 65.1604C84.0838 65.2274 83.8371 65.3757 83.6496 65.5858C83.4441 65.7931 83.1855 65.9398 82.9023 66.0099C82.6191 66.08 82.322 66.0709 82.0436 65.9834C81.3042 65.8415 80.5515 65.7731 79.7988 65.7797C79.2382 65.7764 78.6966 65.5784 78.2671 65.2187L76.5061 63.9441C76.1269 63.6934 75.8961 63.2743 75.8812 62.8206C75.8401 61.9546 75.6478 61.1025 75.3132 60.3028C74.9719 59.2452 75.178 58.0878 75.8631 57.2125C75.9703 57.05 76.1352 56.932 76.3223 56.8801C76.6614 56.7876 76.9764 56.6226 77.2457 56.3966C77.5149 56.1706 77.732 55.8889 77.8821 55.5708C78.239 54.6634 79.2217 54.1915 80.1492 54.4629C80.3124 54.5042 80.4822 54.5124 80.6488 54.4827C81.859 54.3161 83.0865 54.3227 84.2943 54.5042C86.0436 54.5124 87.629 55.5378 88.3553 57.1308C88.8004 57.997 89.056 58.949 89.0997 59.9225H89.0989ZM84.5012 60.3762C84.5896 59.5074 84.4046 58.6326 83.9719 57.8741C83.8175 57.5655 83.5901 57.2993 83.3095 57.0986C83.029 56.8979 82.7037 56.7688 82.3619 56.7224C82.0201 56.6761 81.6722 56.7139 81.3484 56.8327C81.0245 56.9515 80.7346 57.1475 80.5037 57.4039C79.3643 58.8641 79.2225 60.8687 80.145 62.4732C80.4588 62.8507 80.8742 63.1302 81.342 63.2785C81.8098 63.4268 82.3102 63.4376 82.784 63.3098C83.2413 63.1705 83.6455 62.8955 83.9431 62.5212C84.2406 62.1468 84.4174 61.6908 84.4501 61.2135L84.502 60.3746L84.5012 60.3762ZM97.2769 53.8475L100.096 54.1758C100.663 54.3202 101.202 54.5556 101.693 54.8729C101.972 55.0577 102.196 55.3138 102.342 55.6146C102.513 55.8472 102.544 56.1533 102.424 56.4148C102.305 56.6763 102.054 56.8537 101.765 56.8767C100.689 57.3272 99.4649 57.2381 98.4649 56.6359C98.099 56.4317 97.7017 56.2901 97.2893 56.2168C97.0426 56.1594 96.7861 56.1586 96.539 56.2143C96.2919 56.27 96.0606 56.3808 95.8623 56.5385C95.6092 56.6788 95.4517 56.946 95.4501 57.2356C95.4484 57.5252 95.6009 57.7941 95.8515 57.9393C95.9551 58.034 96.078 58.1049 96.2118 58.1472C97.1846 58.4953 98.1986 58.7123 99.2266 58.7923C99.8444 58.759 100.456 58.9294 100.968 59.2774C101.397 59.5354 101.839 59.7717 102.292 59.9852C103.062 60.3201 103.542 61.0989 103.497 61.937C103.431 63.8262 102.702 65.0364 100.841 65.3556C100.144 65.4121 99.4658 65.6085 98.8466 65.9331C98.6438 66.0271 98.4229 66.0758 98.1994 66.0758L96.3643 66.2326C94.9456 66.1454 93.5616 65.7574 92.3041 65.0941C92.1681 64.9968 92.0403 64.8862 91.9266 64.7641C91.7492 64.6421 91.6141 64.4679 91.5399 64.2657C91.4657 64.0635 91.4562 63.8432 91.5126 63.6353C91.569 63.4274 91.6885 63.2422 91.8547 63.1053C92.0209 62.9683 92.2255 62.8864 92.4402 62.8709C93.2019 62.7018 93.9843 62.644 94.7625 62.7001C95.1648 62.809 95.5267 63.0301 95.807 63.3386C96.1072 63.614 96.4654 63.8184 96.855 63.9367C97.2447 64.0551 97.656 64.0844 98.0585 64.0225C98.4187 63.9813 98.7674 63.8691 99.0857 63.6942C99.4154 63.5292 99.6281 63.1769 99.605 62.8016C99.582 62.4262 99.333 62.1028 98.9785 61.9816C98.8285 61.909 98.6611 61.8768 98.5069 61.8116C97.9876 61.6169 97.4789 61.3909 96.9851 61.1352C96.3144 60.7239 95.5265 60.5463 94.7444 60.6303C93.3923 60.8654 92.07 60.0776 91.6323 58.7741C91.1656 57.4691 91.5976 56.0122 92.6999 55.1724C93.6496 54.3722 94.8565 53.9399 96.0989 53.9572C96.4946 53.9671 96.8919 53.9284 97.2778 53.8417L97.2769 53.8475ZM71.9983 58.8946C71.9711 59.251 71.9777 59.6098 72.0197 59.9654L72.3413 64.2997C72.3691 64.5464 72.3395 64.7962 72.2549 65.0295C72.1702 65.2629 72.0327 65.4734 71.8531 65.6447C71.6735 65.816 71.4568 65.9434 71.2198 66.0169C70.9828 66.0904 70.7321 66.108 70.4872 66.0684C69.5639 66.0907 68.6982 65.6172 68.2176 64.8268C67.737 64.0365 67.7147 63.0499 68.1599 62.239C68.4947 61.4665 68.5668 60.6054 68.3652 59.788L67.8458 56.2358C67.8153 55.9305 67.8409 55.6212 67.9216 55.3242C68.0206 54.6857 68.5779 54.2204 69.2242 54.2377C69.7537 54.2032 70.2851 54.2134 70.8128 54.2682C71.211 54.2724 71.5902 54.4431 71.8573 54.7385C72.1244 55.0338 72.2572 55.4281 72.2225 55.8249V56.8314C72.2596 56.8429 72.0824 58.2124 72 58.8954L71.9983 58.8946ZM70.1434 49.533H70.394C70.9818 49.467 71.5515 49.7623 71.8351 50.2812C72.1187 50.8001 72.061 51.4395 71.6883 51.8998C71.5284 52.205 71.2127 52.3948 70.8689 52.3948C70.3136 52.4152 69.7575 52.3912 69.2061 52.323C68.8779 52.3147 68.5688 52.1679 68.3553 51.9105C68.1418 51.6531 68.0437 51.3331 68.0857 51.0072C68.0832 50.2499 68.643 49.6089 69.3924 49.5099C69.6413 49.4876 69.8928 49.5099 70.1426 49.5099V49.5322L70.1434 49.533Z" fill="white"/>
</svg>
