<svg width="120" height="120" viewBox="0 0 120 120" fill="none" xmlns="http://www.w3.org/2000/svg">
<g clip-path="url(#clip0_688_17079)">
<path d="M27.0157 56.9464V62.2316L22.4395 64.8747V68.178L29.8782 63.8838V55.2942L27.0157 56.9464Z" fill="#00AC69"/>
<path d="M22.4388 54.3044L27.015 56.9465L29.8775 55.2942L22.4388 51L15 55.2942L17.8614 56.9465L22.4388 54.3044Z" fill="#1CE783"/>
<path d="M19.5774 61.2417V66.5269L22.4388 68.178V59.5895L15 55.2942V58.5986L19.5774 61.2417Z" fill="white"/>
<path d="M40.0885 55.2825C38.4871 55.2825 37.7285 56.2939 37.7285 56.2939H37.6443L37.4768 55.451H35.5371V64.0482H37.6443V59.0775C37.6443 57.9818 38.4007 57.2232 39.4985 57.2232C40.5964 57.2232 41.3528 57.9796 41.3528 59.0775V64.0482H43.46V58.9068C43.46 56.7153 42.0271 55.2825 40.0885 55.2825Z" fill="white"/>
<path d="M62.8134 61.0981H62.6924L61.2596 55.4509H59.1157L57.6828 61.0981H57.5629L56.1289 55.4509H53.9375L56.1289 64.0481H58.6953L60.1271 58.4852H60.2481L61.681 64.0481H64.2463L66.4377 55.4509H64.2463L62.8134 61.0981Z" fill="white"/>
<path d="M72.89 56.2094H72.8058L72.6372 55.453H70.8672V64.049H72.9743V59.0784C72.9743 57.9826 73.48 57.4769 74.5758 57.4769H75.6563V55.4519H74.4029C74.1093 55.4525 73.8199 55.5213 73.5574 55.6527C73.2949 55.7842 73.0664 55.9747 72.89 56.2094Z" fill="white"/>
<path d="M80.3173 55.2825C77.7898 55.2825 75.9355 57.1368 75.9355 59.7496C75.9355 62.3625 77.685 64.2168 80.3173 64.2168C82.4493 64.2168 83.7331 62.9622 84.268 62.0394L82.3337 61.35C82.1424 61.7001 81.3709 62.3733 80.3173 62.3733C79.0887 62.3733 78.2113 61.6039 78.0427 60.4282H84.4473C84.5066 60.1513 84.5348 59.8686 84.5316 59.5854C84.5316 57.1368 82.6773 55.2825 80.3173 55.2825ZM78.0427 58.991C78.2955 57.8953 79.0541 57.0525 80.3173 57.0525C81.4984 57.0525 82.2559 57.8953 82.4245 58.991H78.0427Z" fill="white"/>
<path d="M49.1895 55.2825C46.6609 55.2825 44.8066 57.1368 44.8066 59.7496C44.8066 62.3625 46.5529 64.2168 49.1895 64.2168C51.3215 64.2168 52.6042 62.9622 53.139 62.0394L51.2048 61.35C51.0135 61.7001 50.2431 62.3733 49.1895 62.3733C47.9609 62.3733 47.0824 61.6039 46.9138 60.4282H53.3195C53.3787 60.1513 53.407 59.8686 53.4038 59.5854C53.4038 57.1368 51.5495 55.2825 49.1895 55.2825ZM46.9138 58.991C47.1666 57.8953 47.9252 57.0525 49.1895 57.0525C50.3695 57.0525 51.1281 57.8953 51.2966 58.991H46.9138Z" fill="white"/>
<path d="M91.8982 52.0569H89.791V54.164H91.8982V52.0569Z" fill="white"/>
<path d="M97.7129 62.2782C96.4486 62.2782 95.4372 61.2668 95.4372 59.7496C95.4372 58.2325 96.4486 57.221 97.7129 57.221C98.9772 57.221 99.4829 58.0639 99.6515 58.5696L101.56 57.891C101.097 56.6905 99.9627 55.2825 97.7129 55.2825C95.1844 55.2825 93.3301 57.1368 93.3301 59.7496C93.3301 62.3625 95.1844 64.2168 97.7129 64.2168C99.9822 64.2168 101.117 62.7861 101.571 61.5283L99.6515 60.8453C99.4829 61.4353 98.9772 62.2782 97.7129 62.2782Z" fill="white"/>
<path d="M84.7656 53.9295H85.9618V64.0481H88.069V52.0569H84.7656V53.9295Z" fill="white"/>
<path d="M91.8982 55.4509H89.791V64.0481H91.8982V55.4509Z" fill="white"/>
<path d="M102.699 62.3991C102.538 62.3967 102.38 62.4423 102.245 62.5302C102.11 62.618 102.004 62.7441 101.94 62.8924C101.877 63.0406 101.859 63.2044 101.889 63.3628C101.919 63.5212 101.996 63.6671 102.109 63.7819C102.222 63.8968 102.367 63.9753 102.525 64.0077C102.683 64.04 102.847 64.0246 102.996 63.9635C103.145 63.9023 103.273 63.7982 103.362 63.6643C103.452 63.5305 103.5 63.3729 103.5 63.2117C103.504 63.105 103.486 62.9987 103.447 62.8993C103.408 62.7999 103.349 62.7095 103.274 62.6334C103.199 62.5574 103.11 62.4975 103.011 62.4572C102.912 62.4169 102.806 62.3971 102.699 62.3991ZM102.699 63.9C102.563 63.9024 102.429 63.864 102.314 63.7898C102.199 63.7156 102.109 63.609 102.055 63.4834C102.001 63.3579 101.986 63.2191 102.011 63.0848C102.036 62.9505 102.101 62.8268 102.197 62.7293C102.292 62.6318 102.415 62.5651 102.549 62.5376C102.683 62.51 102.822 62.5229 102.948 62.5747C103.075 62.6264 103.183 62.7146 103.259 62.828C103.335 62.9415 103.376 63.075 103.376 63.2117C103.379 63.3017 103.364 63.3914 103.331 63.4753C103.298 63.5592 103.249 63.6355 103.185 63.6995C103.122 63.7636 103.046 63.814 102.963 63.8478C102.879 63.8815 102.79 63.8978 102.699 63.8957V63.9Z" fill="white"/>
<path d="M103.048 63.0616C103.048 63.0226 103.04 62.9841 103.024 62.9484C103.009 62.9127 102.986 62.8806 102.957 62.8541C102.929 62.8276 102.895 62.8072 102.858 62.7942C102.822 62.7812 102.783 62.7758 102.744 62.7785H102.383V63.6257H102.507V63.3318H102.621L102.913 63.6257H103.068L102.775 63.3318C102.847 63.3318 102.916 63.3034 102.967 63.2528C103.018 63.2023 103.048 63.1336 103.048 63.0616ZM102.508 63.2075V62.9028H102.744C102.766 62.9 102.789 62.9021 102.811 62.9088C102.833 62.9155 102.853 62.9267 102.87 62.9417C102.887 62.9567 102.901 62.9751 102.91 62.9958C102.92 63.0164 102.925 63.0389 102.925 63.0616C102.925 63.1513 102.868 63.2075 102.744 63.2075H102.508Z" fill="white"/>
</g>
<defs>
<clipPath id="clip0_688_17079">
<rect width="88.5" height="17.1781" fill="white" transform="translate(15 51)"/>
</clipPath>
</defs>
</svg>
