<svg width="120" height="120" viewBox="0 0 120 120" fill="none" xmlns="http://www.w3.org/2000/svg">
<g clip-path="url(#clip0_689_7009)">
<path d="M59.7696 36.1882C47.6136 36.1882 48.3726 41.4805 48.3726 41.4805L48.3861 46.9634H59.9863V48.6095H43.7786C43.7786 48.6095 36 47.7239 36 60.0373C36 72.3511 42.7894 71.9144 42.7894 71.9144H46.8413V66.2003C46.8413 66.2003 46.6228 59.3843 53.5223 59.3843H65.0276C65.0276 59.3843 71.4917 59.4891 71.4917 53.1125V42.569C71.4917 42.569 72.4734 36.1882 59.7696 36.1882ZM53.3732 39.8754C53.6473 39.8751 53.9188 39.9292 54.1721 40.0344C54.4254 40.1396 54.6556 40.2939 54.8494 40.4885C55.0432 40.6831 55.1969 40.9141 55.3017 41.1684C55.4065 41.4227 55.4603 41.6952 55.4601 41.9704C55.4603 42.2456 55.4065 42.5182 55.3017 42.7725C55.1969 43.0268 55.0432 43.2578 54.8494 43.4524C54.6556 43.647 54.4254 43.8013 54.1721 43.9065C53.9188 44.0117 53.6473 44.0658 53.3732 44.0655C53.0991 44.0658 52.8276 44.0117 52.5743 43.9065C52.321 43.8013 52.0908 43.647 51.897 43.4524C51.7032 43.2578 51.5495 43.0268 51.4447 42.7725C51.3399 42.5182 51.2861 42.2456 51.2863 41.9704C51.2861 41.6952 51.3399 41.4227 51.4447 41.1684C51.5495 40.9141 51.7032 40.6831 51.897 40.4885C52.0908 40.2939 52.321 40.1396 52.5743 40.0344C52.8276 39.9292 53.0991 39.8751 53.3732 39.8754Z" fill="url(#paint0_linear_689_7009)"/>
<path d="M60.1149 84.0103C72.2709 84.0103 71.5119 78.718 71.5119 78.718L71.4984 73.2353H59.898V71.5892H76.1056C76.1056 71.5892 83.8843 72.4748 83.8843 60.161C83.8843 47.8474 77.0949 48.2841 77.0949 48.2841H73.043V53.998C73.043 53.998 73.2615 60.814 66.362 60.814H54.8566C54.8566 60.814 48.3926 60.7092 48.3926 67.086V77.6297C48.3926 77.6297 47.411 84.0103 60.1147 84.0103H60.1149ZM66.5113 80.3235C66.2372 80.3237 65.9657 80.2697 65.7124 80.1645C65.4591 80.0593 65.2289 79.905 65.0351 79.7104C64.8412 79.5158 64.6875 79.2848 64.5827 79.0305C64.478 78.7762 64.4242 78.5036 64.4244 78.2284C64.4241 77.9532 64.4779 77.6807 64.5827 77.4263C64.6875 77.172 64.8412 76.9409 65.035 76.7463C65.2288 76.5517 65.459 76.3974 65.7123 76.2922C65.9656 76.187 66.2371 76.1329 66.5113 76.1332C66.7854 76.1329 67.0569 76.187 67.3102 76.2922C67.5635 76.3974 67.7936 76.5517 67.9875 76.7463C68.1813 76.9409 68.335 77.1719 68.4398 77.4262C68.5446 77.6805 68.5984 77.953 68.5981 78.2282C68.5984 78.5034 68.5446 78.776 68.4398 79.0303C68.335 79.2846 68.1813 79.5156 67.9875 79.7102C67.7936 79.9048 67.5635 80.0591 67.3102 80.1643C67.0569 80.2695 66.7854 80.3236 66.5113 80.3233V80.3235Z" fill="url(#paint1_linear_689_7009)"/>
</g>
<defs>
<linearGradient id="paint0_linear_689_7009" x1="40.6016" y1="40.4895" x2="64.4235" y2="63.9816" gradientUnits="userSpaceOnUse">
<stop stop-color="#387EB8"/>
<stop offset="1" stop-color="#366994"/>
</linearGradient>
<linearGradient id="paint1_linear_689_7009" x1="55.1672" y1="55.6347" x2="80.7445" y2="79.7193" gradientUnits="userSpaceOnUse">
<stop stop-color="#FFE052"/>
<stop offset="1" stop-color="#FFC331"/>
</linearGradient>
<clipPath id="clip0_689_7009">
<rect width="48" height="48" fill="white" transform="translate(36 36)"/>
</clipPath>
</defs>
</svg>
