<svg width="120" height="120" viewBox="0 0 120 120" fill="none" xmlns="http://www.w3.org/2000/svg">
<path d="M60.0002 36C46.7458 36 36 46.7027 36 59.9061C36 73.1089 46.7458 83.8123 60.0002 83.8123C73.2546 83.8123 84 73.1089 84 59.9061C84 46.7025 73.2542 36 60.0002 36ZM60.0002 80.7427C56.2292 80.7427 53.1716 78.2335 53.1716 75.1389H66.8288C66.8288 78.2329 63.7714 80.7427 60.0002 80.7427ZM71.2789 73.2831H48.7204V69.2083H71.2793V73.2829H71.2789V73.2831ZM71.1979 67.1113H48.7847C48.7101 67.0257 48.6339 66.9413 48.5619 66.8545C46.2529 64.0615 45.7089 62.6036 45.1809 61.1176C45.1719 61.0687 47.9809 61.6891 49.9727 62.1355C49.9727 62.1355 50.9976 62.3718 52.4961 62.6439C51.0574 60.9641 50.2029 58.8286 50.2029 56.6456C50.2029 51.8534 53.8929 47.6659 52.5617 44.2812C53.8573 44.3862 55.2429 47.0049 55.3367 51.0993C56.7141 49.2032 57.2904 45.7408 57.2904 43.618C57.2904 41.4199 58.7445 38.8666 60.1989 38.7793C58.9024 40.9078 60.5346 42.7323 61.9858 47.2587C62.5299 48.9589 62.4606 51.8202 62.8806 53.6347C63.0201 49.866 63.6705 44.3671 66.0707 42.4688C65.0119 44.8595 66.2274 47.8511 67.0588 49.2893C68.4002 51.6097 69.2132 53.3676 69.2132 56.6925C69.2132 58.9218 68.3869 61.0205 66.9932 62.6613C68.5779 62.3651 69.6724 62.098 69.6724 62.098L74.8192 61.0978C74.8196 61.0975 74.0717 64.1611 71.1979 67.1113Z" fill="#DA4E31"/>
</svg>
