<svg width="80" height="80" viewBox="0 0 80 80" fill="none" xmlns="http://www.w3.org/2000/svg">
<g clip-path="url(#clip0_270_11216)">
<path d="M21.7207 39.7207V35.2477H18.2973L16.473 33.4136V30H12V34.473H15.4233L17.2576 36.3072V38.671L15.4233 40.5054H12V44.9784H16.473V41.5648L18.3072 39.7305H21.7207V39.7207ZM13.491 31.491H14.982V32.982H13.491V31.491ZM14.982 43.4775H13.491V41.9865H14.982V43.4775Z" fill="#FFAE1A"/>
<path d="M26.6747 49.4414H24.7031V39.7207H26.6747V40.3092C26.9886 39.9266 27.6949 39.5637 28.4502 39.5637C30.5198 39.5637 31.6872 41.2803 31.6872 43.2813C31.6872 45.2824 30.5101 46.9793 28.4502 46.9793C27.6851 46.9793 26.9886 46.6163 26.6747 46.2338V49.4414ZM26.6747 44.4388C26.7989 44.6863 26.9894 44.8944 27.225 45.0399C27.4605 45.1853 27.7319 45.2625 28.0088 45.2627C29.0779 45.2627 29.7057 44.4094 29.7057 43.2813C29.7057 42.1337 29.0682 41.2803 28.0088 41.2803C27.7322 41.2821 27.4615 41.3599 27.2262 41.5052C26.9909 41.6505 26.8001 41.8578 26.6747 42.1042V44.4388ZM38.8379 46.8224H36.8662V46.1749C36.6227 46.435 36.3278 46.6416 36.0002 46.7818C35.6726 46.9219 35.3195 46.9926 34.9633 46.9892C33.3743 46.9892 32.4719 45.9396 32.4719 44.3702V39.7305H34.4435V43.968C34.4435 44.7135 34.8063 45.2235 35.5911 45.2235C36.1993 45.2235 36.7191 44.8605 36.8662 44.2427V39.7305H38.8477V46.8224H38.8378H38.8379ZM42.114 49.4413H40.1425V39.7208H42.1141V40.3094C42.428 39.9267 43.1343 39.5639 43.8896 39.5639C45.9593 39.5639 47.1265 41.2804 47.1265 43.2815C47.1265 45.2825 45.9495 46.9794 43.8896 46.9794C43.1244 46.9794 42.428 46.6164 42.1141 46.2339V49.4415L42.114 49.4413ZM42.114 44.4387C42.2382 44.6862 42.4287 44.8943 42.6643 45.0398C42.8998 45.1853 43.1712 45.2625 43.4481 45.2627C44.5172 45.2627 45.145 44.4094 45.145 43.2813C45.145 42.1337 44.5075 41.2803 43.4481 41.2803C43.1715 41.2821 42.9008 41.3599 42.6655 41.5052C42.4302 41.6505 42.2394 41.8578 42.114 42.1042V44.4388V44.4387ZM49.9612 49.4413H47.9896V39.7208H49.9612V40.3094C50.2751 39.9267 50.9814 39.5639 51.7366 39.5639C53.8063 39.5639 54.9735 41.2804 54.9735 43.2815C54.9735 45.2825 53.7965 46.9794 51.7366 46.9794C50.9715 46.9794 50.2751 46.6164 49.9612 46.2339V49.4415V49.4413ZM49.9612 44.4387C50.0854 44.6862 50.2759 44.8943 50.5114 45.0398C50.747 45.1853 51.0184 45.2625 51.2953 45.2627C52.3644 45.2627 52.9922 44.4094 52.9922 43.2813C52.9922 42.1337 52.3546 41.2803 51.2953 41.2803C51.0187 41.2821 50.748 41.3599 50.5127 41.5052C50.2774 41.6505 50.0866 41.8578 49.9612 42.1042V44.4388V44.4387ZM62.0459 44.4977C61.7908 46.0082 60.6824 46.9793 58.8972 46.9793C56.8275 46.9793 55.4542 45.4688 55.4542 43.2813C55.4542 41.1332 56.8864 39.5637 58.8677 39.5637C60.9472 39.5637 62.0949 41.0056 62.0949 43.095V43.7031H57.3572C57.4161 44.7722 58.0242 45.4001 58.8972 45.4001C59.5643 45.4001 60.0546 45.1156 60.2116 44.5074H62.0459V44.4977ZM57.4062 42.4966H60.1527C60.133 41.7511 59.6917 41.1626 58.8776 41.1626C58.1222 41.1626 57.5828 41.6236 57.4062 42.4966ZM63.3798 41.3096H62.3009V39.7208H63.3797V37.7981H65.3318V39.7207H66.8914V41.3098H65.3317V44.4191C65.3317 44.9783 65.6358 45.2334 66.1459 45.2334C66.4461 45.2315 66.7405 45.1503 66.9992 44.9979V46.7439C66.7246 46.8911 66.2538 46.9695 65.7242 46.9695C64.2822 46.9695 63.3699 46.2535 63.3699 44.684V41.3098H63.3797L63.3798 41.3096Z" fill="black"/>
</g>
<defs>
<clipPath id="clip0_270_11216">
<rect width="55" height="19.4431" fill="white" transform="translate(12 30)"/>
</clipPath>
</defs>
</svg>
