<svg width="120" height="120" viewBox="0 0 120 120" fill="none" xmlns="http://www.w3.org/2000/svg">
<g clip-path="url(#clip0_688_16689)">
<path d="M32.581 59.581V52.8716H27.446L24.7095 50.1204V45H18V51.7095H23.1349L25.8864 54.4608V58.0065L23.1349 60.7581H18V67.4676H24.7095V62.3472L27.4608 59.5957H32.581V59.581ZM20.2365 47.2365H22.473V49.473H20.2365V47.2365ZM22.473 65.2162H20.2365V62.9798H22.473V65.2162Z" fill="#FFAE1A"/>
<path d="M40.0121 74.162H37.0547V59.5809H40.0121V60.4638C40.4829 59.8898 41.5423 59.3455 42.6752 59.3455C45.7797 59.3455 47.5308 61.9204 47.5308 64.9219C47.5308 67.9235 45.7651 70.4688 42.6752 70.4688C41.5277 70.4688 40.4829 69.9244 40.0121 69.3506V74.162ZM40.0121 66.6581C40.1983 67.0293 40.4841 67.3415 40.8374 67.5597C41.1908 67.7779 41.5978 67.8937 42.0132 67.894C43.6169 67.894 44.5585 66.614 44.5585 64.9219C44.5585 63.2004 43.6022 61.9204 42.0132 61.9204C41.5983 61.923 41.1923 62.0397 40.8393 62.2577C40.4864 62.4757 40.2002 62.7865 40.0121 63.1563V66.6581ZM58.2569 70.2334H55.2993V69.2623C54.934 69.6524 54.4917 69.9623 54.0003 70.1726C53.509 70.3828 52.9793 70.4887 52.4449 70.4837C50.0615 70.4837 48.7078 68.9093 48.7078 66.5551V59.5956H51.6652V65.9519C51.6652 67.0701 52.2095 67.8352 53.3867 67.8352C54.2989 67.8352 55.0786 67.2907 55.2993 66.3639V59.5956H58.2716V70.2334H58.2567H58.2569ZM63.171 74.1618H60.2138V59.5811H63.1712V60.4639C63.642 59.89 64.7015 59.3457 65.8344 59.3457C68.9389 59.3457 70.6897 61.9206 70.6897 64.9221C70.6897 67.9236 68.9242 70.469 65.8344 70.469C64.6866 70.469 63.642 69.9246 63.1712 69.3508V74.1621L63.171 74.1618ZM63.171 66.658C63.3573 67.0292 63.643 67.3414 63.9964 67.5596C64.3497 67.7779 64.7568 67.8936 65.1721 67.894C66.7759 67.894 67.7175 66.614 67.7175 64.9219C67.7175 63.2004 66.7612 61.9204 65.1721 61.9204C64.7573 61.923 64.3512 62.0397 63.9983 62.2577C63.6453 62.4757 63.3592 62.7865 63.171 63.1563V66.6581V66.658ZM74.9418 74.1618H71.9844V59.5811H74.9418V60.4639C75.4126 59.89 76.472 59.3457 77.605 59.3457C80.7095 59.3457 82.4603 61.9206 82.4603 64.9221C82.4603 67.9236 80.6948 70.469 77.605 70.469C76.4572 70.469 75.4126 69.9246 74.9418 69.3508V74.1621V74.1618ZM74.9418 66.658C75.128 67.0292 75.4138 67.3414 75.7671 67.5596C76.1205 67.7779 76.5275 67.8936 76.9429 67.894C78.5466 67.894 79.4883 66.614 79.4883 64.9219C79.4883 63.2004 78.5319 61.9204 76.9429 61.9204C76.5281 61.923 76.122 62.0397 75.769 62.2577C75.4161 62.4757 75.1299 62.7865 74.9418 63.1563V66.6581V66.658ZM93.0688 66.7464C92.6861 69.0122 91.0236 70.4688 88.3458 70.4688C85.2413 70.4688 83.1814 68.203 83.1814 64.9219C83.1814 61.6996 85.3296 59.3455 88.3016 59.3455C91.4208 59.3455 93.1423 61.5084 93.1423 64.6424V65.5545H86.0358C86.1241 67.1583 87.0363 68.1001 88.3458 68.1001C89.3464 68.1001 90.0819 67.6732 90.3174 66.7611H93.0688V66.7464ZM86.1093 63.7449H90.2291C90.1996 62.6266 89.5375 61.7438 88.3164 61.7438C87.1834 61.7438 86.3742 62.4354 86.1093 63.7449ZM95.0697 61.9644H93.4513V59.5811H95.0696V56.697H97.9976V59.5809H100.337V61.9645H97.9975V66.6286C97.9975 67.4673 98.4536 67.85 99.2188 67.85C99.6692 67.8472 100.111 67.7253 100.499 67.4968V70.1158C100.087 70.3366 99.3806 70.4542 98.5863 70.4542C96.4232 70.4542 95.0549 69.3801 95.0549 67.026V61.9645H95.0696L95.0697 61.9644Z" fill="white"/>
</g>
<defs>
<clipPath id="clip0_688_16689">
<rect width="82.5" height="29.1646" fill="white" transform="translate(18 45)"/>
</clipPath>
</defs>
</svg>
