<svg width="120" height="120" viewBox="0 0 120 120" fill="none" xmlns="http://www.w3.org/2000/svg">
<g clip-path="url(#clip0_688_17168)">
<path d="M24.1916 59.1928H20.5573L21.3447 55.63H24.7057C25.812 55.63 26.4627 56.2255 26.4627 57.0942C26.4627 58.2395 25.6233 59.1928 24.1916 59.1928ZM30.1882 56.7428C30.1882 54.296 28.301 52.5 25.0018 52.5H18.2862L15 67.4669H18.7417L19.874 62.3261H22.0637L24.2404 67.4669H27.9724L25.6525 62.0788C28.4344 61.6428 30.1882 59.4108 30.1882 56.7428Z" fill="white"/>
<path d="M36.6425 61.8641L39.8507 56.3458L41.0643 61.8641H36.6458H36.6425ZM38.3344 52.5L29.6406 67.4669H33.3726L34.827 64.9844H41.7508L42.2974 67.4669H46.0294L42.7529 52.5H38.3344ZM56.7438 59.1928H53.425L54.2059 55.63H57.0951C58.2339 55.63 58.9335 56.1734 58.9335 57.0942C58.9335 58.2395 58.0713 59.1928 56.747 59.1928M57.4758 52.5H51.1474L47.8612 67.4669H51.5964L52.7352 62.3196H56.9064C60.4725 62.3196 62.6329 59.6321 62.6329 56.7981C62.6329 54.2733 60.6644 52.5033 57.4726 52.5033" fill="white"/>
<path d="M69.8626 52.5H66.1208L62.8281 67.4669H66.5699L69.8626 52.5Z" fill="white"/>
<path d="M96.6605 52.5H84.8627C85.0417 52.6822 85.2206 52.8709 85.3833 53.0694C86.7043 54.6702 87.4006 56.681 87.4006 58.8935C87.4006 62.3098 85.9625 65.3911 83.6523 67.4669H90.8755L94.3081 58.9358H90.0133L90.7291 55.6268H99.2602L94.7799 67.4669H96.5369C100.627 67.4929 103.392 64.0961 103.392 59.9704C103.392 55.8448 100.757 52.5 96.6573 52.5" fill="#E85E26"/>
<path d="M75.8303 64.3434H73.7642L75.6839 55.63H77.6361C79.777 55.63 80.9776 57.2341 80.9776 59.2416C80.9776 61.9422 79.0514 64.3434 75.8368 64.3434M83.3267 54.9403C82.0448 53.3785 79.9267 52.5 77.4278 52.5H72.6319L69.3359 67.4669H75.3715C77.7142 67.4669 79.5167 66.9463 80.893 66.1166C83.6912 64.4182 84.6835 61.4313 84.6835 58.8935C84.6835 57.3122 84.189 55.9717 83.33 54.9403" fill="white"/>
</g>
<defs>
<clipPath id="clip0_688_17168">
<rect width="88.5" height="14.9669" fill="white" transform="translate(15 52.5)"/>
</clipPath>
</defs>
</svg>
