<svg width="120" height="120" viewBox="0 0 120 120" fill="none" xmlns="http://www.w3.org/2000/svg">
<path fill-rule="evenodd" clip-rule="evenodd" d="M61.5146 66.7041C60.0623 67.779 58.079 67.3667 57.0914 65.7849C56.1038 64.2031 56.483 62.0422 57.9354 60.9649C59.3869 59.89 61.371 60.3031 62.3586 61.8849C63.3469 63.4659 62.9684 65.6277 61.5146 66.7041ZM63.4854 61.0507C62.075 58.7871 59.2455 58.2016 57.1694 59.7392C55.0919 61.2769 54.5528 64.3579 55.9653 66.6191C57.2144 68.6228 59.5733 69.3094 61.5382 68.3766L63.2976 71.4888L64.6939 70.4557L62.9352 67.3434C64.4553 65.6966 64.7366 63.052 63.4854 61.0507Z" fill="white"/>
<path d="M100.846 68.4928H99.7586C99.7586 58.9563 92.5339 51.1981 83.6543 51.1981V50.0142C93.1341 50.0142 100.846 58.3018 100.846 68.4928Z" fill="#499CD2"/>
<path d="M101.602 62.1318C100.298 56.1495 95.8466 51.1563 90.2656 49.4108L90.516 48.4619C96.4063 50.3044 101.104 55.5792 102.483 61.9032L101.602 62.1318Z" fill="#489CD2"/>
<path d="M102.843 56.5178C101.498 53.3237 99.2047 50.5379 96.3906 48.6746L96.767 48C99.7055 49.946 102.095 52.8521 103.5 56.1881L102.843 56.5178Z" fill="#489CD2"/>
<path d="M15 67.9878C15.654 68.3728 16.6615 68.6616 17.7927 68.6616C20.2672 68.6616 21.5222 67.3717 21.5222 65.6006C21.5045 64.2338 20.8328 63.329 19.189 62.713C18.1285 62.3279 17.7927 62.0777 17.7927 61.6349C17.7927 61.1729 18.1639 60.8841 18.8179 60.8841C19.5425 60.8841 20.3026 61.1921 20.6914 61.4039L21.151 59.4018C20.6207 59.113 19.737 58.8435 18.7295 58.8435C16.5908 58.8435 15.2121 60.1718 15.2121 61.9429C15.1944 63.0402 15.8838 64.0991 17.6866 64.7536C18.6764 65.1001 18.9416 65.3504 18.9416 65.8317C18.9416 66.3129 18.6057 66.6017 17.7927 66.6017C16.9973 66.6017 15.9721 66.2359 15.4772 65.9087L15 67.9878Z" fill="white"/>
<path d="M26.2825 68.6808C28.5803 68.6808 30.825 67.1022 30.825 63.6755C30.825 60.8264 29.0575 58.8435 26.4239 58.8435C23.6312 58.8435 21.793 60.7879 21.793 63.8295C21.793 66.8712 23.7372 68.6808 26.2648 68.6808H26.2825ZM26.3178 66.5824C25.1866 66.5824 24.568 65.3696 24.568 63.7718C24.568 62.3665 25.0629 60.9419 26.3355 60.9419C27.5551 60.9419 28.05 62.3665 28.05 63.7525C28.05 65.4466 27.396 66.5824 26.3355 66.5824H26.3178Z" fill="white"/>
<path d="M31.5766 68.469H34.2632V63.0402C34.2632 62.7707 34.2809 62.5012 34.3516 62.3087C34.546 61.7697 34.9879 61.2114 35.7302 61.2114C36.7024 61.2114 37.0912 62.0392 37.0912 63.252V68.469H39.7779V62.9055C39.7779 60.1333 38.4522 58.8435 36.6847 58.8435C35.2353 58.8435 34.3692 59.7483 34.0157 60.3643H33.9627L33.839 59.0553H31.5059C31.5412 59.9023 31.5766 60.8841 31.5766 62.0584V68.469Z" fill="white"/>
<path d="M48.2438 62.9055C48.2438 60.6916 47.3424 58.8435 44.4613 58.8435C42.8882 58.8435 41.704 59.3248 41.103 59.6906L41.5979 61.5579C42.1635 61.1921 43.1003 60.8649 43.9841 60.8649C45.3097 60.8649 45.5572 61.5772 45.5572 62.0777V62.1932C42.4994 62.1932 40.4844 63.3483 40.4844 65.7931C40.4844 67.2947 41.5272 68.6808 43.2771 68.6808C44.3022 68.6808 45.186 68.2765 45.7516 67.5258H45.8046L45.9637 68.469H48.3852C48.2792 67.9493 48.2438 67.083 48.2438 66.1974V62.9055ZM45.6455 65.0424C45.6455 65.2156 45.6279 65.3889 45.5925 65.5429C45.4158 66.1397 44.8502 66.6209 44.1962 66.6209C43.5952 66.6209 43.1357 66.2552 43.1357 65.5044C43.1357 64.3878 44.2315 64.022 45.6455 64.022V65.0424Z" fill="white"/>
<path d="M49.5434 68.469H52.23V63.714C52.23 63.4638 52.2477 63.252 52.283 63.0595C52.4598 62.1354 53.1314 61.5772 54.1212 61.5772C54.4217 61.5772 54.6338 61.6157 54.8459 61.6542V58.9013C54.6515 58.8628 54.5278 58.8435 54.2803 58.8435C53.4319 58.8435 52.3891 59.421 51.9472 60.8071H51.8765L51.7704 59.0553H49.4727C49.5257 59.8638 49.5434 60.7686 49.5434 62.1547V68.469Z" fill="white"/>
<path d="M72.3658 59.2039H70.8104V64.9022C70.8104 65.2294 70.7574 65.5375 70.669 65.7685C70.3862 66.5385 69.6615 67.3278 68.6186 67.3278C67.2223 67.3278 66.7097 66.115 66.7097 64.3439V59.2039H65.1543V64.6519C65.1543 67.9053 66.7627 68.7331 68.1061 68.7331C69.6261 68.7331 70.5452 67.7513 70.9341 67.0006H70.9694L71.0578 68.5214H72.4365C72.3835 67.7898 72.3658 66.9428 72.3658 65.961V59.2039Z" fill="white"/>
<path d="M74.0473 66.1149C74.0473 66.9427 74.0296 67.886 73.9766 68.5213H75.3199L75.4083 66.9812H75.4436C76.0976 68.2133 77.0697 68.7331 78.307 68.7331C80.2159 68.7331 82.1602 67.0775 82.1602 63.7278C82.1602 60.9171 80.6755 58.992 78.5544 58.992C77.1758 58.992 76.186 59.6465 75.638 60.6861H75.6027V54.853H74.0473V66.1149ZM75.6027 63.1117C75.6027 62.8422 75.638 62.6112 75.6911 62.3995C75.9915 61.1289 76.9814 60.3203 78.0419 60.3203C79.7033 60.3203 80.5871 61.9182 80.5871 63.8048C80.5871 65.9417 79.6326 67.3855 77.9888 67.3855C76.8753 67.3855 75.9562 66.5769 75.6557 65.4026C75.6204 65.2101 75.6027 64.9984 75.6027 64.7866V63.1117Z" fill="white"/>
<path d="M90.1076 64.1707C90.1429 63.9782 90.1606 63.728 90.1606 63.3814C90.1606 61.6681 89.4359 58.9922 86.6432 58.9922C84.151 58.9922 82.6133 61.2061 82.6133 64.0167C82.6133 66.8081 84.2041 68.714 86.82 68.714C88.181 68.714 89.1354 68.3867 89.6834 68.1172L89.4006 66.9044C88.835 67.1739 88.1456 67.3857 87.0321 67.3857C85.4767 67.3857 84.151 66.4424 84.1157 64.1707H90.1076ZM84.1333 62.9579C84.2571 61.7836 84.9287 60.205 86.5195 60.205C88.2517 60.205 88.6759 61.8799 88.6582 62.9579H84.1333Z" fill="white"/>
</svg>
