<svg width="80" height="80" viewBox="0 0 80 80" fill="none" xmlns="http://www.w3.org/2000/svg">
<g clip-path="url(#clip0_270_11054)">
<path d="M33.9443 38.2314C35.7046 38.2314 36.0987 39.2579 36.0987 40.4425V41.6224H33.031V41.9055C33.0428 42.5615 33.2788 42.821 34.1141 42.821C34.6839 42.8182 35.2501 42.7307 35.7942 42.5615L36.0089 43.5998C35.3612 43.8332 34.6776 43.9514 33.9891 43.949C32.264 43.949 31.6648 43.149 31.6648 41.8252V40.3742C31.6648 39.2132 32.1838 38.2315 33.9441 38.2315L33.9443 38.2314ZM45.5115 38.2291C47.2365 38.2291 47.7461 38.8379 47.7461 40.2136L47.7415 43.8357H46.6134L46.512 43.4629C46.0254 43.7796 45.4574 43.9484 44.8767 43.949C43.8739 43.949 43.4444 43.2599 43.4444 42.3138C43.4444 41.1976 43.9304 40.7682 45.0466 40.7682H46.3657V40.1923C46.3657 39.5835 46.1958 39.3689 45.3156 39.3689C44.8038 39.3746 44.2939 39.4315 43.7935 39.5387L43.6237 38.4887C44.2386 38.3188 44.8735 38.2315 45.5115 38.2291ZM54.6553 38.2291C56.5383 38.2291 57.0457 39.2673 57.0457 40.3953V41.7828C57.048 42.9107 56.5383 43.949 54.6553 43.949C52.7675 43.949 52.265 42.9107 52.265 41.7828V40.3954C52.265 39.2673 52.7722 38.2291 54.6553 38.2291ZM32.8187 36.3224V37.5755H30.7185V43.8357H29.3028L29.298 37.5755H27.2002V36.3224H32.8187ZM50.934 35.8717C51.3327 35.8704 51.7297 35.9236 52.1139 36.0298L51.9699 37.0893C51.71 37.0334 51.4452 37.0034 51.1794 36.9997C50.6391 36.9997 50.5588 37.2357 50.5588 37.6534V38.3424H51.9581L51.8803 39.4372H50.5612V43.8357H49.1855V39.4372H48.3053V38.3424H49.1855V37.5755C49.1855 36.4358 49.7165 35.8717 50.934 35.8717ZM65.5478 38.8167C66.2343 38.465 66.9882 38.2646 67.7588 38.2291C68.672 38.2291 69.0001 38.8709 69.0001 39.8526V43.8357H67.6243V40.0013C67.6243 39.7086 67.4993 39.5622 67.1854 39.5622C66.6802 39.6179 66.1923 39.7787 65.753 40.0342V43.8358H64.3678V40.0012C64.3678 39.7085 64.2427 39.5621 63.929 39.5621C63.4247 39.6221 62.9377 39.7826 62.4966 40.0341V43.8357H61.1208V38.3422H62.1709L62.3054 38.8141C62.9911 38.4673 63.7419 38.2679 64.5094 38.229C64.7218 38.2089 64.9352 38.2545 65.1208 38.3596C65.3065 38.4647 65.4555 38.6242 65.5476 38.8166L65.5478 38.8167ZM39.6359 38.2291L39.7775 39.4939C39.2708 39.7226 38.7824 39.99 38.3168 40.2938V43.8334H36.9412V38.3424H38.1021L38.1918 38.9511C38.6394 38.6482 39.1249 38.4054 39.6359 38.2291ZM43.0008 38.2291L43.1377 39.4939C42.6326 39.7228 42.1458 39.9902 41.6818 40.2938V43.8334H40.3061V38.3424H41.4671L41.5567 38.9511C42.0044 38.6482 42.4899 38.4054 43.0008 38.2291ZM60.4507 38.2291L60.5876 39.4939C60.0825 39.7228 59.5958 39.9902 59.1318 40.2938V43.8334H57.7561V38.3424H58.917L59.0067 38.9511C59.4543 38.6481 59.9399 38.4053 60.4508 38.2291H60.4507ZM46.3657 41.7592H45.3512C44.9004 41.7592 44.7753 41.8843 44.7753 42.2996C44.7753 42.7149 44.9004 42.8517 45.3275 42.8517C45.6919 42.8461 46.049 42.7488 46.3658 42.5686V41.7592H46.3657ZM54.6554 39.4018C53.9216 39.4018 53.6407 39.7299 53.6407 40.3457V41.823C53.6407 42.4435 53.9239 42.7668 54.6554 42.7668C55.3869 42.7668 55.67 42.4388 55.67 41.823V40.3503C55.67 39.7298 55.3893 39.4017 54.6554 39.4017V39.4018ZM33.9561 39.357C33.2789 39.357 33.0429 39.718 33.0429 40.2372V40.5157H34.7915V40.2372C34.7915 39.718 34.6334 39.357 33.9561 39.357Z" fill="black"/>
<path d="M18.5898 42.1981L22.4597 39.9658V35.4942L18.5898 37.7312V42.1981Z" fill="#4040B2"/>
<path d="M14.2947 35.4942L18.1646 37.7312V42.1981L14.2947 39.9636M10 37.4692L13.8699 39.7039V35.2346L10 33M14.2947 44.9236L18.1646 47.1582V42.6889L14.2947 40.4543" fill="#5C4EE5"/>
</g>
<defs>
<clipPath id="clip0_270_11054">
<rect width="59" height="14.1738" fill="white" transform="translate(10 33)"/>
</clipPath>
</defs>
</svg>
