<svg width="120" height="120" viewBox="0 0 120 120" fill="none" xmlns="http://www.w3.org/2000/svg">
<path d="M30 46.5001H38.0747L48.0074 56.4175L57.9272 46.5001H66.0302L39.0628 73.3961H31.0261L43.9979 60.4269L30 46.5V46.5001ZM41.4867 73.3961H46.2007L55.6079 63.9994L55.6004 73.3961H59.0086L59.0095 59.2277H55.5872L41.4867 73.3961ZM60.3957 73.3961H63.4501L63.4398 64.4105L68.1512 69.1378L72.8504 64.4198L72.8523 73.3961H75.9048V59.2277H72.8805L68.1559 63.9407L63.437 59.2277H60.3929L60.3957 73.3961ZM80.0895 70.7075L80.0913 59.2279H77.4565V73.3961H90L87.3984 70.7026L80.0895 70.7075Z" fill="white"/>
</svg>
