<svg width="120" height="120" viewBox="0 0 120 120" fill="none" xmlns="http://www.w3.org/2000/svg">
<path d="M15 49.5H103.5V70.8435H15V49.5Z" fill="#D31F26"/>
<path d="M18.784 52.7571H31.5788V54.2862L21.2858 65.9082H31.8265V67.5981H18.5332V66.0661L28.8325 54.447H18.784V52.7571ZM40.4876 54.7335L37.4968 62.1219H43.4878L40.4876 54.7335ZM39.243 52.7571H41.7416L47.9549 67.5981H45.6626L44.1768 63.7972H36.8301L35.3474 67.5981H33.0234L39.243 52.7571ZM52.5204 60.5109V65.9491H56.0572C57.2425 65.9491 58.1209 65.725 58.6924 65.2766C59.2638 64.8283 59.5496 64.1461 59.5496 63.23C59.5496 62.3032 59.2638 61.6161 58.6924 61.1834C58.1209 60.7507 57.2414 60.5197 56.0572 60.5197H52.5204V60.5109ZM52.5204 54.4061V58.8794H55.7842C56.8636 58.8794 57.6573 58.6952 58.1907 58.3239C58.4609 58.1233 58.6741 57.8652 58.8118 57.5718C58.9495 57.2784 59.0077 56.9585 58.9813 56.6398C59.0043 56.3212 58.9433 56.0021 58.8035 55.7099C58.6636 55.4176 58.449 55.1609 58.178 54.9616C57.6478 54.5903 56.8446 54.4061 55.7715 54.4061H52.5204ZM50.317 52.7571H55.9556C57.6489 52.7571 58.9442 53.0748 59.8417 53.7102C60.2902 54.0272 60.6485 54.4397 60.8858 54.9123C61.123 55.3849 61.2321 55.9035 61.2037 56.4235C61.2483 57.1986 61.0029 57.9643 60.5084 58.5929C59.988 59.1567 59.253 59.5156 58.4542 59.5958C59.4434 59.751 60.3422 60.2207 60.9942 60.9232C61.6107 61.6377 61.9304 62.5313 61.8958 63.4434C61.8958 64.7689 61.4005 65.7922 60.41 66.5134C59.4194 67.2346 58.0119 67.5952 56.1874 67.5952H50.3138L50.317 52.7571ZM67.6074 60.5109V65.9491H71.1411C72.3285 65.9491 73.2048 65.7269 73.7763 65.2766C74.3477 64.8264 74.6335 64.1452 74.6335 63.23C74.6335 62.3149 74.3477 61.6161 73.7763 61.1834C73.2048 60.7507 72.3285 60.5197 71.1411 60.5197H67.6074V60.5109ZM67.6074 54.4061V58.8794H70.8776C71.957 58.8794 72.7592 58.6943 73.2841 58.3239C73.5543 58.1233 73.7675 57.8652 73.9052 57.5718C74.0429 57.2784 74.1011 56.9585 74.0747 56.6398C74.0992 56.3222 74.0402 56.0037 73.9026 55.7116C73.7649 55.4194 73.5528 55.1621 73.2841 54.9616C72.755 54.5913 71.9528 54.4061 70.8776 54.4061H67.6074ZM65.4041 52.7571H71.0331C72.7137 52.7571 74.008 53.0748 74.916 53.7102C75.3652 54.0269 75.7241 54.4392 75.9619 54.9119C76.1997 55.3845 76.3093 55.9032 76.2812 56.4235C76.3263 57.1991 76.0796 57.9653 75.5828 58.5929C75.0636 59.1565 74.3296 59.5154 73.5318 59.5958C74.5207 59.7517 75.4192 60.2213 76.0717 60.9232C76.6871 61.6381 77.0057 62.5317 76.9702 63.4434C76.9702 64.7689 76.476 65.7922 75.4875 66.5134C74.4991 67.2346 73.0915 67.5952 71.2649 67.5952H65.4041V52.7571ZM86.879 52.7571H89.2919L93.1208 58.0871L96.9879 52.7571H99.3309L94.2987 59.7098L99.9659 67.604H97.5466L93.0796 61.388L88.5712 67.5981H86.2282L91.9112 59.7624L86.879 52.7571ZM80.4975 52.7571H82.7009V67.5981H80.4975V52.7571Z" fill="white"/>
</svg>
