<svg width="120" height="120" viewBox="0 0 120 120" fill="none" xmlns="http://www.w3.org/2000/svg">
<path d="M24.2323 74.0882L16.7981 61.2152C16.4006 60.5273 16.4006 59.6785 16.7981 58.9906L24.2323 46.1119C24.6289 45.4248 25.3619 45.0016 26.1632 45H41.042C41.8329 45.004 42.5626 45.4264 42.9569 46.1119L50.3991 58.9914C50.7965 59.6793 50.7965 60.5281 50.3991 61.216L42.9488 74.0882C42.5522 74.7753 41.8192 75.1985 41.0179 75.2001H26.1415C25.3498 75.1977 24.6193 74.7737 24.2226 74.0882H24.2323Z" fill="#4386FA"/>
<path opacity="0.1" d="M38.2369 55.9407C38.2369 55.9407 40.3046 60.8984 37.4862 63.7095C34.6678 66.5207 29.5371 64.7209 29.5371 64.7209L39.9747 75.1987H41.0343C41.8276 75.1971 42.5606 74.7739 42.9653 74.0868L47.8876 65.5633L38.2369 55.9407Z" fill="white"/>
<path d="M40.676 66.0947L38.391 63.8202C38.3665 63.7947 38.3383 63.773 38.3074 63.7559C39.2729 62.505 39.7253 60.9331 39.5725 59.3603C39.4198 57.7876 38.6733 56.3321 37.4852 55.2904C36.297 54.2487 34.7565 53.6989 33.1772 53.7532C31.598 53.8074 30.0988 54.4615 28.9849 55.5823C26.6734 57.9115 26.5712 61.6431 28.7532 64.0865C29.8052 65.2658 31.2667 66.0003 32.8407 66.141C34.4147 66.2816 35.9833 65.8177 37.2276 64.8436C37.2442 64.8729 37.2645 64.9 37.288 64.9241L39.5729 67.2091C39.6061 67.2422 39.6455 67.2685 39.6888 67.2863C39.7322 67.3041 39.7787 67.3131 39.8256 67.3128C39.9201 67.3126 40.0108 67.2753 40.0782 67.2091L40.684 66.6032C40.7172 66.5701 40.7435 66.5307 40.7613 66.4873C40.7791 66.4439 40.7881 66.3975 40.7878 66.3506C40.7875 66.2561 40.7503 66.1654 40.684 66.0979L40.676 66.0947ZM33.3971 64.6176C32.4729 64.6173 31.5694 64.3431 30.801 63.8296C30.0326 63.316 29.4336 62.5862 29.0798 61.7324C28.3557 59.9865 28.7564 57.9751 30.0936 56.6395C30.7473 55.9864 31.58 55.5418 32.4864 55.3618C33.3927 55.1817 34.3321 55.2744 35.1858 55.628C36.0396 55.9816 36.7694 56.5803 37.283 57.3484C37.7966 58.1166 38.0711 59.0198 38.0716 59.9438C38.07 62.5241 35.9798 64.6151 33.3987 64.6167L33.3971 64.6176ZM30.4106 59.6944V61.6254C30.7083 62.1508 31.1387 62.5876 31.6593 62.8942V59.6904L30.4106 59.6944ZM32.7438 58.0933V63.3126C33.1565 63.3882 33.5806 63.3882 33.9925 63.3126V58.0853L32.7438 58.0933ZM36.3579 61.623V60.4805H35.1092V62.8893C35.629 62.5836 36.0586 62.1492 36.3579 61.6246V61.623Z" fill="white"/>
<path d="M68.4665 51.6939H62.8265V53.3691H66.8349C66.6353 55.7216 64.6786 56.7241 62.8346 56.7241C61.6639 56.7321 60.5375 56.2735 59.7048 55.4505C58.8721 54.6274 58.4014 53.5058 58.3982 52.3352V52.2596C58.3781 51.0736 58.8359 49.9295 59.6678 49.0856C60.4997 48.2416 61.6374 47.7661 62.8233 47.7701C63.9521 47.7717 65.0359 48.211 65.8469 48.9971L67.0215 47.7878C65.8828 46.6879 64.3539 46.0854 62.771 46.1127C61.67 46.0895 60.5829 46.3618 59.6228 46.9012C58.6627 47.4407 57.8646 48.2275 57.3117 49.1798C56.7588 50.1322 56.4711 51.2154 56.4787 52.3166C56.4862 53.4178 56.7887 54.4969 57.3547 55.4416C57.9214 56.3861 58.7309 57.1614 59.6988 57.6869C60.6668 58.2125 61.758 58.469 62.8587 58.4298C66.1445 58.4233 68.5711 56.1649 68.5711 52.8236C68.5783 52.45 68.5438 52.0768 68.4681 51.7108L68.4665 51.6939ZM73.1064 50.4847C72.5916 50.474 72.0797 50.5652 71.6002 50.7529C71.1206 50.9406 70.6829 51.2212 70.3121 51.5785C69.9413 51.9358 69.6448 52.3629 69.4395 52.8352C69.2342 53.3074 69.1242 53.8156 69.1158 54.3305V54.415C69.1029 56.6114 70.8738 58.4024 73.0702 58.4153C75.2667 58.4281 77.0576 56.6573 77.0705 54.4608C77.0705 51.838 75.0108 50.4847 73.1145 50.4847H73.1064ZM73.1282 52.0455C74.2682 52.0455 75.3407 52.9531 75.3407 54.4641C75.3407 55.975 74.2642 56.8649 73.1161 56.8649C71.8529 56.8649 70.8633 55.8592 70.8633 54.4464C70.8633 53.0335 71.836 52.0512 73.1185 52.0512L73.1282 52.0455ZM81.7467 50.4847C81.2328 50.4756 80.7222 50.568 80.2441 50.7564C79.7659 50.9448 79.3296 51.2257 78.9601 51.5828C78.5906 51.94 78.2951 52.3665 78.0906 52.838C77.8861 53.3095 77.7765 53.8166 77.7681 54.3305V54.415C77.7552 56.6114 79.5261 58.4024 81.7225 58.4153C83.919 58.4281 85.7099 56.6573 85.7228 54.4608C85.7228 51.846 83.6607 50.4887 81.7507 50.4887L81.7467 50.4847ZM81.7708 52.0455C82.9109 52.0455 83.9833 52.9531 83.9833 54.4641C83.9833 55.975 82.9068 56.8649 81.7587 56.8649C80.4956 56.8649 79.5059 55.8592 79.5059 54.4464C79.5059 53.0335 80.4787 52.0512 81.7603 52.0512L81.7708 52.0455ZM90.2348 50.4847C88.1188 50.4847 86.4348 52.3465 86.4348 54.4431C86.4027 56.5672 88.0745 58.3292 90.1986 58.4072C90.6111 58.4288 91.023 58.3524 91.4003 58.1842C91.7776 58.0159 92.1097 57.7607 92.3693 57.4393V58.2222C92.3693 59.5899 91.5406 60.4106 90.2895 60.4106C89.39 60.3993 88.5879 59.841 88.2636 59.0026L86.751 59.6318C87.2877 60.7718 88.3658 61.9747 90.2992 61.9747C92.4152 61.9747 94.0323 60.6415 94.0323 57.8473V50.7269H92.3701V51.3922C92.0998 51.0972 91.7695 50.8636 91.4012 50.707C91.0331 50.5505 90.6356 50.4747 90.2356 50.4847H90.2348ZM90.3893 52.0295C91.432 52.0295 92.5053 52.9209 92.5053 54.448C92.5053 55.975 91.4352 56.8335 90.3651 56.8335C89.2251 56.8335 88.1767 55.926 88.1767 54.452C88.1767 52.9394 89.2742 52.0335 90.3933 52.0335L90.3893 52.0295ZM101.412 50.4847C99.4044 50.4847 97.7237 52.0809 97.7237 54.4391C97.7051 54.9581 97.7922 55.4754 97.9798 55.9596C98.1673 56.4439 98.4514 56.8849 98.8148 57.2559C99.1781 57.6269 99.6131 57.9201 100.093 58.1178C100.573 58.3154 101.089 58.4134 101.608 58.4056C102.262 58.4086 102.907 58.2519 103.486 57.949C104.066 57.6462 104.563 57.2063 104.933 56.6678L103.564 55.7602C103.162 56.4441 102.425 56.8584 101.633 56.8488C101.226 56.8647 100.823 56.758 100.477 56.5424C100.131 56.3268 99.8576 56.0122 99.6924 55.6395L105.001 53.439L104.733 52.7954C104.21 51.4212 102.902 50.5056 101.432 50.4863L101.412 50.4847ZM101.482 51.9973C102.093 51.9715 102.665 52.3014 102.949 52.8437L99.3948 54.3321C99.2403 53.1832 100.328 52.0037 101.475 52.0037L101.482 51.9973ZM95.1869 58.1715H96.9304V46.5029H95.1861L95.1869 58.1715ZM56.8108 71.6077V63.9587H59.5801C60.1596 63.9467 60.7203 64.1641 61.1402 64.5638C61.5682 64.9379 61.8079 65.4826 61.7935 66.0522C61.8109 66.3932 61.72 66.731 61.5337 67.0172C61.3474 67.3033 61.0753 67.5232 60.7564 67.6452V67.6879C61.1321 67.8053 61.462 68.0395 61.6961 68.3557C61.9306 68.6687 62.0548 69.0507 62.0493 69.4418C62.0638 70.0348 61.8192 70.6044 61.3791 71.0027C60.9324 71.4084 60.3458 71.6252 59.7426 71.6077H56.8188H56.8108ZM57.7924 64.9017V67.2486H59.5761C59.7386 67.2531 59.9002 67.224 60.051 67.1633C60.2017 67.1025 60.3383 67.0113 60.4523 66.8954C60.9044 66.4609 60.9221 65.7449 60.4925 65.2903L60.4619 65.2597C60.2431 65.028 59.9365 64.8993 59.6187 64.9057H57.806L57.7924 64.9017ZM57.7924 68.1642V70.6744H59.7716C60.4667 70.6809 61.0364 70.1241 61.0444 69.4273C61.045 69.2634 61.012 69.101 60.9474 68.9503C60.8828 68.7996 60.7879 68.6638 60.6687 68.5512C60.5458 68.4279 60.3991 68.331 60.2376 68.2664C60.076 68.2018 59.9029 68.1709 59.729 68.1754H57.79L57.7924 68.1642ZM64.2635 64.5702C64.263 64.7304 64.207 64.8854 64.105 65.0089C64.0029 65.1324 63.8612 65.2166 63.704 65.2473C63.5468 65.2779 63.3838 65.2531 63.2429 65.177C63.1019 65.1009 62.9917 64.9783 62.9311 64.8301C62.8697 64.6819 62.8617 64.5171 62.9083 64.3637C62.955 64.2103 63.0535 64.0779 63.187 63.989C63.3204 63.9002 63.4806 63.8605 63.6401 63.8767C63.7997 63.8929 63.9486 63.964 64.0615 64.0778C64.1943 64.2065 64.2675 64.3851 64.2643 64.571L64.2635 64.5702ZM64.0607 66.3837V71.6133H63.0751V66.3837H64.0607ZM67.6008 74.093C67.3224 74.0954 67.0376 74.0576 66.7785 73.9804C66.5314 73.9138 66.2951 73.8119 66.077 73.6779C65.8711 73.5425 65.6873 73.3762 65.5323 73.1847C65.3842 73.0044 65.2692 72.7985 65.1911 72.5796L66.1301 72.1934C66.2311 72.493 66.4264 72.7518 66.6868 72.9312C66.9523 73.1163 67.2701 73.2128 67.5944 73.2096C68.061 73.2361 68.5172 73.0624 68.8463 72.7285C69.1625 72.3624 69.3242 71.8877 69.2968 71.4042V70.8876H69.2542C69.065 71.1684 68.8053 71.3946 68.5011 71.5433C68.1809 71.7043 67.8277 71.7871 67.4713 71.7847C66.7938 71.7879 66.1494 71.4951 65.7061 70.9834C65.2227 70.4372 64.9625 69.7293 64.9771 69.0001C64.9588 68.2724 65.2183 67.565 65.7028 67.0217C66.1429 66.5036 66.789 66.2059 67.4681 66.2091C67.826 66.2068 68.1793 66.2898 68.4987 66.4513C68.8029 66.6 69.0626 66.8262 69.2518 67.107H69.2944V66.3724H70.2341V71.3848C70.2744 72.1146 70.0169 72.829 69.5181 73.3625C69.2642 73.6036 68.9646 73.7915 68.637 73.915C68.3094 74.0386 67.9603 74.0952 67.6105 74.0817L67.6008 74.093ZM67.6346 70.8852C67.8585 70.8912 68.081 70.8475 68.286 70.757C68.4909 70.6666 68.6732 70.5317 68.8197 70.3622C69.1296 69.9765 69.2985 69.4965 69.2985 69.0017C69.2985 68.5069 69.1296 68.0269 68.8197 67.6412C68.5261 67.2928 68.09 67.0965 67.6346 67.1062C67.18 67.0997 66.7456 67.2961 66.4495 67.6412C66.114 68.0169 65.9482 68.5126 65.9683 69.0041C65.9477 69.5017 66.1201 69.988 66.4495 70.3614C66.7472 70.7042 67.18 70.8989 67.6346 70.8925V70.8852ZM80.4376 71.6117L79.6636 72.113L79.1383 71.3326C78.5676 71.6183 77.9388 71.7683 77.3006 71.771C76.2547 71.7936 75.2313 71.3736 74.5007 70.6125C72.9882 69.0178 72.9882 66.5196 74.5007 64.9258C74.8679 64.5567 75.3043 64.2637 75.785 64.0638C76.2657 63.8639 76.7812 63.761 77.3018 63.761C77.8225 63.761 78.3379 63.8639 78.8186 64.0638C79.2994 64.2637 79.7358 64.5567 80.1029 64.9258C80.4743 65.2962 80.7663 65.7383 80.9612 66.2252C81.1561 66.7121 81.2498 67.2336 81.2366 67.7579C81.2399 68.3345 81.1215 68.9053 80.889 69.433C80.663 69.9528 80.3292 70.4187 79.9098 70.7999L80.4376 71.6117ZM77.3063 70.8313C77.7532 70.8312 78.1941 70.7277 78.5944 70.5288L77.7029 69.1884L78.4769 68.6654L79.3619 70.001C79.6551 69.7124 79.8845 69.3655 80.0355 68.9827C80.1864 68.6 80.2554 68.1899 80.2381 67.7788C80.2679 66.9646 79.9702 66.1737 79.3949 65.5904C79.1275 65.3086 78.8039 65.0861 78.4451 64.9373C78.0863 64.7884 77.7002 64.7165 77.3119 64.7263C76.9218 64.7168 76.534 64.7888 76.1733 64.9376C75.8126 65.0863 75.4868 65.3087 75.2168 65.5904C74.1065 66.8375 74.1065 68.7282 75.2168 69.9672C75.4873 70.2512 75.8142 70.4754 76.1766 70.6253C76.5389 70.7752 76.9287 70.8476 77.3207 70.8377L77.3063 70.8313ZM86.8283 71.6061H85.8869V70.8739H85.8443C85.6777 71.1475 85.4396 71.3704 85.1548 71.5176C84.8595 71.6847 84.5262 71.7731 84.1869 71.7743C83.9152 71.7917 83.6429 71.7516 83.3877 71.6568C83.1325 71.562 82.9001 71.4145 82.7057 71.2239C82.3372 70.7895 82.1522 70.2263 82.1924 69.6583V66.3692H83.1739V69.5875C83.1965 70.4457 83.6256 70.8748 84.4612 70.8748C84.65 70.8751 84.8364 70.8323 85.0061 70.7496C85.1758 70.6669 85.3243 70.5465 85.4404 70.3976C85.7059 70.0779 85.8467 69.673 85.8371 69.2576V66.3724H86.8186V71.6021L86.8283 71.6061ZM90.3233 71.7783C89.6056 71.7992 88.9129 71.5104 88.4213 70.9866C87.9185 70.4451 87.6505 69.7266 87.6747 68.988C87.6521 68.2559 87.9144 67.5414 88.4052 66.9968C88.6455 66.7485 88.9326 66.5503 89.25 66.4137C89.5673 66.277 89.9086 66.2046 90.2541 66.2007C90.5995 66.1967 90.9424 66.2613 91.2628 66.3906C91.5832 66.5199 91.8748 66.7114 92.1207 66.9541C92.6163 67.5431 92.8641 68.3026 92.8102 69.0701V69.1763H88.6933C88.6907 69.4068 88.7348 69.6354 88.823 69.8484C88.9112 70.0614 89.0417 70.2542 89.2066 70.4153C89.3949 70.599 89.6243 70.7352 89.8757 70.8126C90.1271 70.8901 90.3933 70.9066 90.6524 70.8607C90.9114 70.8149 91.1558 70.708 91.3654 70.549C91.575 70.39 91.7437 70.1834 91.8576 69.9463L92.7346 70.3727C92.5109 70.8015 92.173 71.1612 91.7578 71.4106C91.3266 71.6616 90.835 71.7887 90.337 71.7791L90.3233 71.7783ZM88.7512 68.3589H91.7522C91.7313 68.0089 91.5712 67.683 91.3073 67.4513C91.0072 67.21 90.6234 67.0748 90.234 67.0949C89.8848 67.0869 89.5445 67.2092 89.2782 67.436C89.0046 67.675 88.8196 67.9992 88.7488 68.3557L88.7512 68.3589ZM94.6856 71.6061H93.7041V66.3764H94.6438V67.2317H94.6865C94.8015 66.934 95.022 66.683 95.2915 66.5213C95.5594 66.3362 95.8732 66.2316 96.199 66.2195C96.4472 66.2136 96.6941 66.258 96.9247 66.3499L96.623 67.3025C96.4376 67.2394 96.2416 67.2137 96.0462 67.2269C95.6728 67.2285 95.3196 67.3926 95.0783 67.6774C94.812 67.9603 94.6648 68.3348 94.6671 68.7233V71.6117L94.6856 71.6061ZM102.372 66.3764L99.0971 73.9353H98.0809L99.2902 71.2963L97.1444 66.378H98.2145L99.7753 70.1418H99.797L101.31 66.378H102.372V66.3764Z" fill="white"/>
</svg>
