<svg width="80" height="80" viewBox="0 0 80 80" fill="none" xmlns="http://www.w3.org/2000/svg">
<path d="M16.1548 49.3921L11.1987 40.8101C10.9338 40.3515 10.9338 39.7856 11.1987 39.327L16.1548 30.7413C16.4193 30.2832 16.9079 30.0011 17.4421 30H27.3613C27.8886 30.0027 28.3751 30.2843 28.6379 30.7413L33.5994 39.3276C33.8644 39.7862 33.8644 40.3521 33.5994 40.8107L28.6326 49.3921C28.3681 49.8502 27.8795 50.1323 27.3453 50.1334H17.4277C16.8999 50.1318 16.4128 49.8491 16.1484 49.3921H16.1548Z" fill="#4386FA"/>
<path opacity="0.1" d="M25.4903 37.2937C25.4903 37.2937 26.8687 40.5989 24.9898 42.473C23.1109 44.3471 19.6904 43.1472 19.6904 43.1472L26.6488 50.1324H27.3552C27.8841 50.1314 28.3727 49.8492 28.6425 49.3912L31.9241 43.7088L25.4903 37.2937Z" fill="black"/>
<path d="M27.1183 44.0632L25.595 42.5469C25.5787 42.5299 25.5599 42.5154 25.5392 42.504C26.1829 41.67 26.4845 40.6221 26.3827 39.5736C26.2808 38.5251 25.7832 37.5548 24.9911 36.8603C24.199 36.1658 23.172 35.7994 22.1191 35.8355C21.0663 35.8717 20.0668 36.3077 19.3242 37.0549C17.7832 38.6077 17.7151 41.0954 19.1698 42.7244C19.8711 43.5106 20.8454 44.0003 21.8948 44.094C22.9441 44.1878 23.9898 43.8785 24.8194 43.2292C24.8305 43.2487 24.844 43.2667 24.8596 43.2828L26.3829 44.8061C26.405 44.8282 26.4313 44.8457 26.4602 44.8576C26.4891 44.8695 26.5201 44.8755 26.5514 44.8753C26.6144 44.8751 26.6748 44.8503 26.7198 44.8061L27.1237 44.4022C27.1458 44.3801 27.1633 44.3538 27.1752 44.3249C27.187 44.296 27.1931 44.265 27.1929 44.2338C27.1927 44.1708 27.1678 44.1103 27.1237 44.0654L27.1183 44.0632ZM22.2657 43.0784C21.6496 43.0783 21.0473 42.8955 20.535 42.5531C20.0227 42.2108 19.6234 41.7242 19.3875 41.155C18.9048 39.991 19.1719 38.6501 20.0634 37.7597C20.4992 37.3244 21.0543 37.0279 21.6586 36.9079C22.2628 36.7879 22.889 36.8496 23.4582 37.0854C24.0274 37.3211 24.5139 37.7202 24.8563 38.2324C25.1987 38.7445 25.3817 39.3466 25.3821 39.9626C25.381 41.6828 23.9875 43.0768 22.2668 43.0779L22.2657 43.0784ZM20.2747 39.7963V41.0836C20.4731 41.4339 20.7601 41.7252 21.1071 41.9295V39.7937L20.2747 39.7963ZM21.8302 38.729V42.2084C22.1053 42.2588 22.388 42.2588 22.6626 42.2084V38.7236L21.8302 38.729ZM24.2396 41.082V40.3204H23.4071V41.9263C23.7536 41.7225 24.04 41.4328 24.2396 41.0831V41.082Z" fill="white"/>
<path d="M45.6434 34.4627H41.8834V35.5794H44.5556C44.4226 37.1478 43.1181 37.8161 41.8887 37.8161C41.1083 37.8215 40.3574 37.5158 39.8022 36.9671C39.2471 36.4183 38.9333 35.6706 38.9312 34.8902V34.8398C38.9178 34.0492 39.2229 33.2864 39.7776 32.7238C40.3322 32.1611 41.0906 31.8441 41.8812 31.8468C42.6338 31.8479 43.3563 32.1407 43.8969 32.6648L44.68 31.8586C43.9209 31.1254 42.9016 30.7237 41.8464 30.7419C41.1124 30.7264 40.3876 30.908 39.7475 31.2676C39.1075 31.6272 38.5755 32.1517 38.2068 32.7866C37.8382 33.4216 37.6464 34.1437 37.6515 34.8778C37.6565 35.612 37.8582 36.3314 38.2355 36.9612C38.6133 37.5908 39.1529 38.1077 39.7982 38.458C40.4436 38.8084 41.171 38.9794 41.9048 38.9533C44.0954 38.949 45.7131 37.4434 45.7131 35.2158C45.7179 34.9667 45.6949 34.7179 45.6444 34.474L45.6434 34.4627ZM48.7366 33.6565C48.3934 33.6494 48.0522 33.7102 47.7325 33.8353C47.4128 33.9605 47.121 34.1475 46.8738 34.3857C46.6266 34.624 46.4289 34.9087 46.292 35.2235C46.1551 35.5384 46.0818 35.8772 46.0762 36.2204V36.2767C46.0676 37.741 47.2482 38.935 48.7125 38.9436C50.1768 38.9522 51.3708 37.7716 51.3794 36.3073C51.3794 34.5587 50.0062 33.6565 48.742 33.6565H48.7366ZM48.7511 34.6971C49.5112 34.6971 50.2262 35.3021 50.2262 36.3095C50.2262 37.3168 49.5085 37.91 48.7431 37.91C47.901 37.91 47.2412 37.2395 47.2412 36.2977C47.2412 35.3558 47.8897 34.7009 48.7447 34.7009L48.7511 34.6971ZM54.4968 33.6565C54.1542 33.6505 53.8138 33.7121 53.4951 33.8377C53.1763 33.9633 52.8855 34.1505 52.6391 34.3886C52.3928 34.6268 52.1958 34.9111 52.0594 35.2254C51.9231 35.5397 51.85 35.8778 51.8444 36.2204V36.2767C51.8358 37.741 53.0164 38.935 54.4807 38.9436C55.945 38.9522 57.139 37.7716 57.1476 36.3073C57.1476 34.5641 55.7728 33.6592 54.4995 33.6592L54.4968 33.6565ZM54.5129 34.6971C55.2729 34.6971 55.9879 35.3021 55.9879 36.3095C55.9879 37.3168 55.2702 37.91 54.5048 37.91C53.6627 37.91 53.003 37.2395 53.003 36.2977C53.003 35.3558 53.6515 34.7009 54.5059 34.7009L54.5129 34.6971ZM60.1556 33.6565C58.7449 33.6565 57.6222 34.8977 57.6222 36.2955C57.6008 37.7115 58.7154 38.8862 60.1314 38.9382C60.4065 38.9526 60.681 38.9017 60.9325 38.7895C61.1841 38.6774 61.4055 38.5072 61.5786 38.293V38.8149C61.5786 39.7267 61.0261 40.2738 60.192 40.2738C59.5924 40.2663 59.0576 39.8941 58.8414 39.3352L57.833 39.7546C58.1908 40.5146 58.9096 41.3165 60.1985 41.3165C61.6091 41.3165 62.6872 40.4278 62.6872 38.5649V33.818H61.5791V34.2616C61.3989 34.0649 61.1787 33.9091 60.9332 33.8048C60.6877 33.7004 60.4227 33.6499 60.1561 33.6565H60.1556ZM60.2585 34.6864C60.9537 34.6864 61.6692 35.2807 61.6692 36.2987C61.6692 37.3168 60.9558 37.8891 60.2424 37.8891C59.4824 37.8891 58.7835 37.2841 58.7835 36.3014C58.7835 35.293 59.5151 34.6891 60.2612 34.6891L60.2585 34.6864ZM67.6069 33.6565C66.2686 33.6565 65.1481 34.7207 65.1481 36.2928C65.1357 36.6388 65.1938 36.9837 65.3189 37.3065C65.4439 37.6293 65.6333 37.9233 65.8755 38.1707C66.1178 38.418 66.4077 38.6135 66.7279 38.7453C67.048 38.877 67.3916 38.9423 67.7378 38.9372C68.1737 38.9392 68.6035 38.8347 68.9899 38.6328C69.3762 38.4309 69.7074 38.1376 69.9546 37.7786L69.0417 37.1736C68.7735 37.6295 68.2822 37.9057 67.7544 37.8993C67.4828 37.9099 67.2143 37.8387 66.9836 37.695C66.753 37.5513 66.5708 37.3416 66.4607 37.0931L69.9997 35.6261L69.821 35.197C69.4724 34.2809 68.6003 33.6705 67.6203 33.6576L67.6069 33.6565ZM67.6536 34.6649C68.0612 34.6478 68.442 34.8677 68.6314 35.2292L66.2622 36.2215C66.1592 35.4555 66.8844 34.6692 67.6487 34.6692L67.6536 34.6649ZM63.4569 38.7811H64.6193V31.002H63.4564L63.4569 38.7811ZM37.8729 47.7386V42.6392H39.7191C40.1054 42.6312 40.4792 42.7762 40.7591 43.0426C41.0445 43.292 41.2043 43.6551 41.1947 44.0349C41.2063 44.2622 41.1457 44.4874 41.0215 44.6782C40.8973 44.869 40.7159 45.0155 40.5033 45.0969V45.1253C40.7538 45.2036 40.9737 45.3597 41.1298 45.5705C41.2861 45.7792 41.3689 46.0339 41.3652 46.2946C41.3749 46.6899 41.2118 47.0697 40.9184 47.3352C40.6206 47.6057 40.2296 47.7502 39.8274 47.7386H37.8783H37.8729ZM38.5273 43.2679V44.8325H39.7164C39.8247 44.8355 39.9325 44.8161 40.033 44.7756C40.1335 44.7351 40.2246 44.6743 40.3005 44.597C40.602 44.3074 40.6138 43.83 40.3273 43.5269L40.307 43.5065C40.1611 43.3521 39.9567 43.2663 39.7448 43.2705H38.5364L38.5273 43.2679ZM38.5273 45.4429V47.1164H39.8468C40.3102 47.1206 40.6899 46.7495 40.6953 46.285C40.6957 46.1757 40.6737 46.0674 40.6306 45.9669C40.5875 45.8665 40.5243 45.7759 40.4448 45.7009C40.3629 45.6187 40.2651 45.5541 40.1574 45.511C40.0497 45.468 39.9343 45.4473 39.8183 45.4504H38.5257L38.5273 45.4429ZM42.8413 43.0469C42.841 43.1537 42.8037 43.257 42.7357 43.3393C42.6676 43.4217 42.5732 43.4778 42.4684 43.4983C42.3636 43.5187 42.2549 43.5022 42.1609 43.4514C42.067 43.4007 41.9935 43.319 41.9531 43.2201C41.9122 43.1214 41.9068 43.0115 41.9379 42.9092C41.969 42.807 42.0347 42.7187 42.1237 42.6594C42.2126 42.6002 42.3194 42.5738 42.4258 42.5845C42.5321 42.5953 42.6314 42.6427 42.7067 42.7186C42.7952 42.8044 42.844 42.9235 42.8419 43.0474L42.8413 43.0469ZM42.7062 44.2559V47.7423H42.0491V44.2559H42.7062ZM45.0662 49.3954C44.8806 49.397 44.6908 49.3718 44.518 49.3203C44.3533 49.2759 44.1957 49.208 44.0503 49.1187C43.9131 49.0284 43.7906 48.9175 43.6872 48.7899C43.5885 48.6697 43.5118 48.5324 43.4598 48.3865L44.0857 48.129C44.1531 48.3288 44.2833 48.5013 44.4569 48.6209C44.6339 48.7443 44.8458 48.8086 45.0619 48.8065C45.373 48.8242 45.6772 48.7083 45.8965 48.4857C46.1073 48.2417 46.2151 47.9252 46.1969 47.6029V47.2585H46.1685C46.0424 47.4457 45.8692 47.5965 45.6664 47.6956C45.453 47.8029 45.2175 47.8582 44.9799 47.8566C44.5282 47.8587 44.0986 47.6635 43.8031 47.3223C43.4808 46.9582 43.3074 46.4863 43.3171 46.0002C43.3049 45.515 43.4779 45.0434 43.8009 44.6812C44.0943 44.3358 44.525 44.1373 44.9777 44.1395C45.2163 44.1379 45.4519 44.1933 45.6648 44.3009C45.8676 44.4001 46.0407 44.5509 46.1669 44.7381H46.1953V44.2484H46.8218V47.59C46.8486 48.0765 46.677 48.5528 46.3444 48.9084C46.1752 49.0692 45.9755 49.1944 45.757 49.2768C45.5386 49.3591 45.3059 49.3969 45.0727 49.3879L45.0662 49.3954ZM45.0888 47.2569C45.238 47.2609 45.3864 47.2317 45.523 47.1714C45.6596 47.1111 45.7812 47.0212 45.8788 46.9082C46.0854 46.6511 46.198 46.3311 46.198 46.0012C46.198 45.6714 46.0854 45.3514 45.8788 45.0942C45.6831 44.862 45.3923 44.7311 45.0888 44.7375C44.7857 44.7332 44.4961 44.8641 44.2987 45.0942C44.075 45.3447 43.9645 45.6751 43.9779 46.0028C43.9642 46.3345 44.0791 46.6587 44.2987 46.9077C44.4971 47.1362 44.7857 47.266 45.0888 47.2617V47.2569ZM53.6241 47.7412L53.1081 48.0754L52.7579 47.5551C52.3775 47.7456 51.9582 47.8456 51.5328 47.8474C50.8355 47.8625 50.1532 47.5825 49.6662 47.0751C48.6578 46.012 48.6578 44.3465 49.6662 43.284C49.9109 43.0379 50.2019 42.8426 50.5224 42.7093C50.8428 42.576 51.1865 42.5074 51.5336 42.5074C51.8807 42.5074 52.2243 42.576 52.5448 42.7093C52.8653 42.8426 53.1562 43.0379 53.401 43.284C53.6485 43.5308 53.8432 43.8256 53.9732 44.1502C54.1031 44.4748 54.1656 44.8225 54.1567 45.172C54.159 45.5564 54.08 45.937 53.925 46.2887C53.7743 46.6353 53.5518 46.9459 53.2722 47.2L53.6241 47.7412ZM51.5365 47.221C51.8345 47.2209 52.1284 47.1519 52.3953 47.0193L51.801 46.1257L52.317 45.777L52.907 46.6674C53.1024 46.475 53.2554 46.2437 53.356 45.9886C53.4566 45.7334 53.5026 45.46 53.4911 45.1859C53.5109 44.6431 53.3125 44.1159 52.929 43.727C52.7507 43.5392 52.535 43.3908 52.2958 43.2916C52.0566 43.1924 51.7992 43.1444 51.5403 43.1509C51.2802 43.1446 51.0217 43.1926 50.7812 43.2918C50.5407 43.391 50.3236 43.5392 50.1436 43.727C49.4034 44.5584 49.4034 45.8189 50.1436 46.6449C50.3239 46.8342 50.5418 46.9837 50.7834 47.0836C51.025 47.1836 51.2848 47.2318 51.5462 47.2252L51.5365 47.221ZM57.8845 47.7375H57.257V47.2494H57.2286C57.1175 47.4317 56.9588 47.5803 56.7689 47.6785C56.572 47.7899 56.3498 47.8488 56.1236 47.8496C55.9425 47.8612 55.761 47.8345 55.5908 47.7713C55.4207 47.7081 55.2658 47.6098 55.1362 47.4827C54.8905 47.1931 54.7671 46.8176 54.7939 46.4389V44.2462H55.4483V46.3917C55.4633 46.9639 55.7494 47.2499 56.3065 47.2499C56.4324 47.2501 56.5566 47.2216 56.6697 47.1665C56.7829 47.1113 56.8819 47.0311 56.9593 46.9318C57.1363 46.7187 57.2302 46.4488 57.2237 46.1718V44.2484H57.8781V47.7348L57.8845 47.7375ZM60.2146 47.8523C59.7361 47.8662 59.2743 47.6737 58.9466 47.3245C58.6113 46.9635 58.4327 46.4845 58.4488 45.9921C58.4338 45.504 58.6086 45.0277 58.9358 44.6646C59.096 44.4991 59.2874 44.367 59.499 44.2759C59.7106 44.1848 59.9381 44.1365 60.1684 44.1339C60.3987 44.1312 60.6273 44.1743 60.8409 44.2605C61.0545 44.3467 61.2489 44.4744 61.4128 44.6362C61.7432 45.0288 61.9084 45.5351 61.8725 46.0468V46.1176H59.1279C59.1261 46.2713 59.1556 46.4237 59.2144 46.5657C59.2732 46.7077 59.3602 46.8362 59.4701 46.9436C59.5956 47.0661 59.7485 47.1569 59.9162 47.2085C60.0838 47.2601 60.2612 47.2711 60.4339 47.2406C60.6066 47.21 60.7696 47.1388 60.9093 47.0328C61.049 46.9268 61.1615 46.789 61.2374 46.6309L61.8221 46.9152C61.673 47.2011 61.4477 47.4409 61.1709 47.6071C60.8834 47.7745 60.5557 47.8592 60.2237 47.8528L60.2146 47.8523ZM59.1665 45.5727H61.1672C61.1532 45.3393 61.0465 45.1221 60.8705 44.9676C60.6705 44.8067 60.4146 44.7166 60.155 44.73C59.9222 44.7247 59.6953 44.8062 59.5178 44.9574C59.3354 45.1168 59.2121 45.3329 59.1649 45.5705L59.1665 45.5727ZM63.1228 47.7375H62.4684V44.251H63.0949V44.8212H63.1233C63.2 44.6227 63.347 44.4554 63.5267 44.3476C63.7053 44.2242 63.9145 44.1545 64.1317 44.1464C64.2972 44.1425 64.4618 44.1721 64.6155 44.2333L64.4144 44.8684C64.2908 44.8263 64.1601 44.8092 64.0298 44.818C63.7809 44.8191 63.5455 44.9285 63.3845 45.1184C63.207 45.307 63.1089 45.5566 63.1104 45.8156V47.7412L63.1228 47.7375ZM68.2468 44.251L66.0637 49.2903H65.3863L66.1925 47.531L64.762 44.2521H65.4753L66.5159 46.7613H66.5304L67.5388 44.2521H68.2468V44.251Z" fill="#767677"/>
</svg>
