<svg width="80" height="80" viewBox="0 0 80 80" fill="none" xmlns="http://www.w3.org/2000/svg">
<g clip-path="url(#clip0_270_10718)">
<path d="M24.829 49.218C25.1728 49.218 25.4852 49.2961 25.6571 49.4523C25.6884 49.7023 25.454 50.1086 25.3134 50.1086C25.1415 50.0461 24.9853 50.0148 24.7821 50.0148C23.9697 50.0148 23.5634 50.8585 23.5634 51.6866C23.5634 52.2022 23.7353 52.5147 24.1572 52.5147C24.5946 52.5147 25.0321 52.2179 25.2821 51.9991C25.3446 52.046 25.4227 52.1866 25.4227 52.3429C25.4227 52.5147 25.3759 52.6866 25.204 52.8585C24.9228 53.1397 24.4384 53.3897 23.7353 53.3897C22.9385 53.3897 22.376 52.9366 22.376 51.8741C22.4072 50.4679 23.3134 49.218 24.829 49.218ZM27.4539 52.4679C27.8914 52.4679 28.6883 51.7023 28.907 50.2336C28.9226 50.1398 28.9226 50.1242 28.9382 50.0304C28.8445 49.9992 28.7039 49.968 28.5789 49.968C28.2508 49.968 27.907 50.0617 27.6102 50.4836C27.2977 50.921 27.1571 51.4679 27.1571 51.9054C27.1571 52.2647 27.2664 52.4679 27.4539 52.4679ZM26.0165 52.0616C26.0165 51.5304 26.1883 50.6242 26.8602 49.9523C27.4383 49.3586 28.1258 49.218 28.7664 49.218C29.1882 49.218 29.7507 49.3586 30.1101 49.4211C30.0163 49.8117 29.8132 51.296 29.7038 52.1554C29.657 52.5147 29.6413 53.0303 29.657 53.2178C29.3601 53.3428 28.8133 53.3741 28.657 53.3741C28.5789 53.3741 28.5633 53.0147 28.5789 52.6554C28.5945 52.546 28.6101 52.3741 28.6101 52.296C28.2664 52.8741 27.5789 53.3585 26.8602 53.3585C26.3446 53.3741 26.0165 52.9366 26.0165 52.0616ZM32.3288 49.218C32.6881 49.218 33.0475 49.3586 33.2037 49.5148C33.1881 49.7648 33.0006 50.1867 32.6881 50.0617C32.5475 50.0148 32.4225 49.9836 32.235 49.9836C32.0006 49.9836 31.7819 50.0929 31.7819 50.3117C31.7819 50.4836 31.9069 50.6086 32.5006 51.0304C32.9225 51.3429 33.0944 51.6241 33.0944 52.0148C33.0944 52.671 32.485 53.3741 31.4069 53.3741C30.9694 53.3741 30.5788 53.2022 30.4694 53.0303C30.3132 52.7647 30.4382 52.2335 30.6101 52.3272C30.8444 52.4366 31.2194 52.5616 31.5319 52.5616C31.8288 52.5616 32.0163 52.421 32.0163 52.2491C32.0163 52.0929 31.8756 51.9679 31.3444 51.5773C30.8913 51.2335 30.7507 50.921 30.7507 50.5773C30.7507 49.8273 31.3913 49.218 32.3288 49.218ZM35.4068 49.218C35.7661 49.218 36.1255 49.3586 36.2817 49.5148C36.2661 49.7648 36.0786 50.1867 35.7661 50.0617C35.6255 50.0148 35.5005 49.9836 35.313 49.9836C35.0787 49.9836 34.8599 50.0929 34.8599 50.3117C34.8599 50.4836 34.9849 50.6086 35.5786 51.0304C36.0005 51.3429 36.1724 51.6241 36.1724 52.0148C36.1724 52.671 35.563 53.3741 34.4849 53.3741C34.0474 53.3741 33.6725 53.2022 33.5475 53.0303C33.3912 52.7647 33.5162 52.2335 33.6881 52.3272C33.9224 52.4366 34.2974 52.5616 34.6099 52.5616C34.9068 52.5616 35.0943 52.421 35.0943 52.2491C35.0943 52.0929 34.9537 51.9679 34.4224 51.5773C33.9693 51.2335 33.8287 50.921 33.8287 50.5773C33.8287 49.8273 34.4693 49.218 35.4068 49.218ZM38.2035 52.4679C38.641 52.4679 39.4379 51.7023 39.6566 50.2336C39.6722 50.1398 39.6722 50.1242 39.6879 50.0304C39.5941 49.9992 39.4535 49.968 39.3285 49.968C39.0004 49.968 38.6567 50.0617 38.3598 50.4836C38.0473 50.921 37.9067 51.4679 37.9067 51.9054C37.9223 52.2647 38.0161 52.4679 38.2035 52.4679ZM36.7661 52.0616C36.7661 51.5304 36.938 50.6242 37.6098 49.9523C38.1879 49.3586 38.8754 49.218 39.516 49.218C39.9379 49.218 40.5003 49.3586 40.8597 49.4211C40.766 49.8117 40.5628 51.296 40.4535 52.1554C40.4066 52.5147 40.391 53.0303 40.4066 53.2178C40.1097 53.3428 39.5629 53.3741 39.4066 53.3741C39.3285 53.3741 39.3129 53.0147 39.3285 52.6554C39.3441 52.546 39.3598 52.3741 39.3598 52.296C39.016 52.8741 38.3285 53.3585 37.6098 53.3585C37.1098 53.3741 36.7661 52.9366 36.7661 52.0616ZM42.8753 50.3742C43.2815 49.718 43.8127 49.218 44.5627 49.218C45.2033 49.218 45.4064 49.8117 45.2814 50.6398C45.2189 51.0304 45.1096 51.5929 45.0471 52.1085C44.9846 52.546 44.9377 52.9366 44.9533 53.2022C44.7189 53.3116 44.0471 53.3585 43.8908 53.3585C43.8283 53.3585 43.8127 52.8741 43.9065 52.3585C43.9846 51.9366 44.1252 51.1554 44.2033 50.7023C44.2502 50.4367 44.2346 50.1242 43.9846 50.1242C43.6565 50.1242 42.8753 50.6554 42.4846 52.8116C42.4534 52.9835 42.3909 53.0928 42.2815 53.1553C42.1409 53.2335 41.8597 53.3116 41.2816 53.3116C41.3909 52.7647 41.5628 51.6554 41.6878 50.8273C41.7972 50.0773 41.844 49.593 41.8284 49.4055C41.9847 49.3586 42.7815 49.1867 42.8596 49.1867C42.9534 49.1867 42.969 49.468 42.8909 50.1242C42.8753 50.1867 42.8753 50.2804 42.8596 50.3429H42.8753V50.3742ZM47.4063 52.4522C47.797 52.4522 48.5938 51.7179 48.8125 50.4211C48.8282 50.3429 48.8438 50.2179 48.8594 50.1398C48.7501 50.0305 48.5938 49.968 48.3438 49.968C47.4376 49.968 47.047 51.046 47.047 51.8273C47.0626 52.2335 47.2032 52.4522 47.4063 52.4522ZM46.8282 53.3741C46.2501 53.3741 45.9064 52.8585 45.9064 51.9991C45.9064 50.5617 46.8126 49.2336 48.3282 49.2336C48.5938 49.2336 48.8438 49.3117 48.9844 49.3898C49.0625 48.9836 49.25 47.718 49.2657 47.343C49.5156 47.2962 50.0469 47.218 50.2969 47.218C50.3906 47.218 50.4219 47.3118 50.3906 47.5462C50.1719 48.8899 49.7969 51.4523 49.7188 52.0148C49.6719 52.4991 49.6563 52.9678 49.6719 53.2335C49.3907 53.3585 48.8125 53.3897 48.6563 53.3897C48.5938 53.3897 48.5626 52.9835 48.5782 52.6085C48.5938 52.4991 48.6094 52.3272 48.6094 52.296C48.1251 53.0147 47.5157 53.3741 46.8282 53.3741ZM52.0468 50.4992C52.5155 49.4523 53.078 49.218 53.453 49.218C53.5624 49.218 53.7499 49.2961 53.828 49.3742C53.8592 49.6711 53.6249 50.2492 53.4218 50.4836C53.3124 50.4367 53.1874 50.3742 53.0312 50.3742C52.7343 50.3742 52.1249 50.8429 51.7499 52.8741C51.7187 53.046 51.6718 53.1085 51.5781 53.1553C51.4218 53.2491 50.8281 53.3116 50.5469 53.3272C50.6875 52.5929 50.9062 51.1085 51 50.2336C51.0312 50.0148 51.0312 49.593 51.0156 49.4367C51.1875 49.3586 51.8593 49.2024 51.9999 49.2024C52.0781 49.2024 52.1406 49.6867 52.0156 50.4836H52.0468V50.4992ZM55.1873 52.4679C55.6248 52.4679 56.4217 51.7023 56.6404 50.2336C56.656 50.1398 56.656 50.1242 56.6716 50.0304C56.5779 49.9992 56.4373 49.968 56.3123 49.968C55.9842 49.968 55.6404 50.0617 55.3436 50.4836C55.0311 50.921 54.8905 51.4679 54.8905 51.9054C54.9061 52.2647 54.9998 52.4679 55.1873 52.4679ZM53.7499 52.0616C53.7499 51.5304 53.9217 50.6242 54.5936 49.9523C55.1717 49.3586 55.8592 49.218 56.4998 49.218C56.9216 49.218 57.4841 49.3586 57.8435 49.4211C57.7497 49.8117 57.5466 51.296 57.4372 52.1554C57.3904 52.5147 57.3747 53.0303 57.3904 53.2178C57.0935 53.3428 56.5466 53.3741 56.3904 53.3741C56.3123 53.3741 56.2967 53.0147 56.3123 52.6554C56.3279 52.546 56.3435 52.3741 56.3435 52.296C55.9998 52.8741 55.3123 53.3585 54.5936 53.3585C54.0936 53.3741 53.7499 52.9366 53.7499 52.0616Z" fill="#373535"/>
<path d="M52.1085 34.1091C52.4053 37.5309 47.0149 40.7964 40.062 41.3901C33.1091 41.9838 27.25 39.687 26.9531 36.2653C26.6562 32.8435 32.0467 29.578 38.9996 28.9843C45.9368 28.3906 51.8116 30.6717 52.1085 34.1091Z" fill="#BBE6FB"/>
<path d="M39.1872 29.3749C36.531 29.328 33.4374 30.3905 31.125 31.3748C30.8906 32.0623 30.75 32.7967 30.75 33.5623C30.75 37.6246 34.4217 40.9214 38.9528 40.9214C43.4839 40.9214 47.1713 37.6402 47.1713 33.5623C47.1713 32.2811 46.7963 31.0624 46.1557 30.0155C44.312 29.7343 41.7652 29.4218 39.1872 29.3749Z" fill="white"/>
<path d="M38.9685 29.3749C37.4998 29.2812 34.9687 30.0468 32.8594 30.8124C32.5312 31.5623 32.3594 32.3904 32.3594 33.2654C32.3594 36.8278 35.5936 39.7183 38.9998 39.7183C42.3903 39.7183 45.3902 36.8278 45.6402 33.2654C45.7183 32.1092 45.3277 31.0155 44.7652 30.078C42.5934 29.703 40.281 29.4687 38.9685 29.3749Z" fill="white"/>
<path d="M35.2031 32.8123C35.3906 32.4061 35.6562 32.2186 35.9218 31.8905C35.8906 31.8123 35.8281 31.5467 35.8281 31.4686C35.8281 31.0624 36.1562 30.7499 36.5468 30.7499C36.6405 30.7499 36.7343 30.7655 36.8124 30.7967C38.0155 29.8749 39.5936 29.4843 41.1873 29.8437C41.3279 29.8749 41.4685 29.9218 41.6091 29.953C40.0467 29.7343 38.2655 30.2968 37.0624 31.2655C37.0936 31.3592 37.203 31.5936 37.203 31.703C37.203 32.1092 36.9374 32.2029 36.5468 32.2029C36.453 32.2029 36.3749 32.1873 36.2812 32.1561C36.0156 32.5154 35.6718 33.2185 35.5156 33.656C36.1874 34.2497 36.7812 34.4685 37.5624 34.7654C37.5624 34.7341 37.5936 34.6872 37.5936 34.656C37.5936 33.4529 38.6561 32.4686 39.8592 32.4686C40.9373 32.4686 41.8435 33.2498 42.0153 34.281C42.5622 33.9373 43.0778 33.6716 43.4684 33.1717C43.3747 33.0623 43.2809 32.7342 43.2809 32.5779C43.2809 32.2186 43.5778 31.9217 43.9372 31.9217C43.984 31.9217 44.0309 31.9217 44.0934 31.9373C44.2965 31.5155 44.4528 31.078 44.5465 30.6249C42.656 29.2187 38.9998 29.4218 38.9998 29.4218C38.9998 29.4218 36.0937 29.2656 34.125 30.2343C34.2656 31.1405 34.6406 32.0467 35.2031 32.8123Z" fill="#373535"/>
<path d="M44.2346 32.2654C44.3752 32.3904 44.4377 32.4842 44.5002 32.5936C44.6721 32.906 44.3284 33.2029 43.9534 33.2029C43.9221 33.2029 43.8753 33.2029 43.844 33.1873C43.4378 33.8279 42.719 34.6404 42.0784 35.0622C43.0628 35.2185 43.9846 35.6091 44.7033 36.2184C45.2346 35.2653 45.6408 33.8748 45.6408 32.7029C45.6408 31.8123 45.2502 31.1561 44.6565 30.6718C44.6409 31.1561 44.3752 31.828 44.2346 32.2654ZM36.2974 38.3277C36.6255 37.4215 37.4224 36.734 38.188 36.1247C38.0786 35.9684 37.9067 35.5935 37.8442 35.4216C36.9224 35.1403 36.1099 34.6091 35.4693 33.9216C35.4693 33.9373 35.4537 33.9685 35.4537 33.9841C35.3287 34.5154 35.3131 35.0622 35.3756 35.5778C35.813 35.656 36.1568 36.0466 36.1568 36.5153C36.1568 36.7965 35.9068 37.1871 35.7193 37.3746C35.9068 37.7809 36.0474 37.9996 36.2974 38.3277Z" fill="#373535"/>
<path d="M36.2342 39.0777C35.8436 38.6871 35.578 37.9215 35.328 37.4371C35.2811 37.4371 35.2343 37.4527 35.1874 37.4527C34.6562 37.4527 34.1093 37.0153 34.2343 36.4997C34.2968 36.2184 34.4999 36.0309 34.8124 35.8747C34.7343 35.2809 34.7187 34.4529 34.8593 33.8435C34.8905 33.6716 34.9843 33.5935 35.0312 33.4216C34.4531 32.5779 34.0781 31.453 34.0781 30.3436V30.2186C33.0937 30.7186 32.3594 31.4842 32.3594 32.7029C32.3594 35.4059 33.9218 38.0621 36.2342 39.0933V39.0777ZM41.9372 35.3434C41.6403 36.1872 40.8278 36.8121 39.8747 36.8121C39.3591 36.8121 38.8904 36.6403 38.531 36.3434C37.7654 36.9371 37.0623 37.984 36.7186 38.9058C36.8748 39.0777 36.9842 39.2183 37.1717 39.3746C37.7029 39.5152 38.4529 39.3746 39.031 39.3746C41.3591 39.3746 43.4371 38.3433 44.6246 36.5153C43.8121 35.9528 42.8746 35.4216 41.9372 35.3434Z" fill="#373535"/>
<path d="M35.1406 33.1248C35.3281 32.7186 35.5468 32.3592 35.8124 32.0155C35.7812 31.9373 35.7656 31.8436 35.7656 31.7655C35.7656 31.3592 36.0937 31.0467 36.4843 31.0467C36.578 31.0467 36.6718 31.0624 36.7499 31.0936C37.953 30.1718 39.5311 29.7812 41.1248 30.1405C41.2654 30.1718 41.406 30.2187 41.5466 30.2499C39.9842 30.0312 38.3592 30.5155 37.1561 31.4842C37.1874 31.578 37.2186 31.6717 37.2186 31.7655C37.2186 32.1717 36.8905 32.4842 36.4999 32.4842C36.4062 32.4842 36.328 32.4686 36.2343 32.4373C35.9687 32.7967 35.7343 33.2029 35.5781 33.6404C36.1562 34.2498 36.8593 34.7497 37.6405 35.031V34.9216C37.6405 33.7185 38.6248 32.7342 39.8279 32.7342C40.906 32.7342 41.8122 33.5154 41.9841 34.5466C42.531 34.2029 42.9997 33.7654 43.4059 33.2498C43.3122 33.1404 43.2497 32.9998 43.2497 32.8436C43.2497 32.4842 43.5465 32.1873 43.9059 32.1873C43.9528 32.1873 43.9997 32.1873 44.0622 32.203C44.2653 31.7811 44.4215 31.3436 44.5153 30.8905C42.6247 29.4843 38.9686 29.6874 38.9686 29.6874C38.9686 29.6874 36.0624 29.5312 34.0938 30.4999C34.2031 31.453 34.5781 32.3592 35.1406 33.1248Z" fill="#1287B1"/>
<path d="M44.3284 32.3748C44.469 32.4998 44.5471 32.6717 44.5471 32.8592C44.5471 33.2185 44.2502 33.5154 43.8909 33.5154C43.8596 33.5154 43.8128 33.5154 43.7815 33.4998C43.3753 34.1404 42.8284 34.6872 42.1878 35.0935C43.1253 35.2341 44.0159 35.6403 44.7502 36.2497C45.2814 35.2966 45.5939 34.1872 45.5939 33.0154C45.5939 32.1248 45.2033 31.4686 44.6096 30.9842C44.5784 31.4686 44.4846 31.9373 44.3284 32.3748ZM36.3911 38.5308C36.7193 37.6246 37.2817 36.8278 38.0473 36.2184C37.938 36.0622 37.8442 35.9059 37.7817 35.7184C36.8599 35.4372 36.0474 34.906 35.4068 34.2185C35.4068 34.2341 35.3912 34.2654 35.3912 34.281C35.2662 34.8122 35.2506 35.3591 35.3131 35.8747C35.7505 35.9528 36.0943 36.3434 36.0943 36.8121C36.0943 37.0934 35.9693 37.3434 35.7818 37.5152C35.938 37.8746 36.1568 38.2183 36.3911 38.5308Z" fill="#1287B1"/>
<path d="M36.2342 39.0621C35.8436 38.6715 35.5155 38.234 35.2655 37.7496C35.2186 37.7496 35.1718 37.7652 35.1249 37.7652C34.5937 37.7652 34.1718 37.3434 34.1718 36.8122C34.1718 36.4372 34.3906 36.1091 34.703 35.9528C34.6249 35.3591 34.6562 34.7654 34.7968 34.156C34.828 33.9841 34.8905 33.8123 34.9374 33.6404C34.3593 32.7967 34.0156 31.7655 34.0156 30.6561V30.5311C33.0312 31.0311 32.2969 31.7967 32.2969 33.0154C32.2969 35.7184 33.9062 38.0465 36.2186 39.0777C36.2342 39.0777 36.2342 39.0777 36.2342 39.0621ZM41.8747 35.6559C41.5778 36.4997 40.7653 37.1246 39.8122 37.1246C39.2966 37.1246 38.8279 36.9528 38.4685 36.6559C37.7029 37.2496 37.1248 38.0621 36.7655 38.984C36.9217 39.1558 37.0936 39.3121 37.2655 39.4683C37.7967 39.6089 38.3592 39.6871 38.9373 39.6871C41.2653 39.6871 43.3277 38.484 44.5152 36.6559C43.734 36.0934 42.8121 35.7341 41.8747 35.6559Z" fill="#1287B1"/>
<path d="M41.9529 35.0935L43.9684 34.6091L41.9373 34.4997L43.5935 33.2498L41.7185 33.9216L42.9841 32.1561L41.2185 33.3279L41.8279 31.2655L40.6248 32.9686L40.5936 30.8124L39.7967 32.7342L39.1405 30.7968L39.1717 33.0779L38.0312 31.0311L38.6561 33.2029L36.7968 31.8592L38.2499 33.6873L35.9375 32.8436L37.7499 34.1873L35.4219 34.2654L37.8124 34.8747L35.4219 35.3903L37.7812 35.5622L35.7969 36.8278L37.8437 36.0934L36.4218 37.8903L38.2187 36.4372L37.578 38.8433L38.9686 36.8747L38.7811 39.1871L39.5624 37.0778L40.2342 39.2808L40.3905 37.0622L41.3904 38.9527L40.7967 36.7965L42.6091 38.2027L41.4373 36.4059L43.4372 37.1872L41.906 35.6872L43.9528 35.8435L41.9529 35.0935Z" fill="white"/>
<path d="M20.4385 38.9527C26.7039 32.6873 31.7037 30.7499 36.2504 29.8749C36.8441 29.7655 36.9691 28.4374 36.9691 28.4374C36.9691 28.4374 37.0473 29.4062 37.4691 29.5311C37.891 29.6561 38.4378 28.0156 38.4378 28.0156C38.4378 28.0156 37.9379 29.4843 38.4378 29.578C38.9378 29.6561 39.8753 28.1406 39.8753 28.1406C39.8753 28.1406 39.5003 29.4374 39.7503 29.5311C40.0003 29.6093 41.2659 27.6406 41.2659 27.6406C41.2659 27.6406 40.5159 28.9374 41.219 29.078C41.9377 29.203 42.9846 28.1874 42.9846 28.1874C42.9846 28.1874 42.1721 29.1093 42.5314 29.2499C44.0939 29.7968 45.3438 27.7812 45.3438 27.7812C45.3438 27.7812 45.047 28.6718 44.297 29.6405C45.9376 30.0624 47.1563 27.5937 47.1563 27.5937L45.9376 30.0624C46.5626 30.3749 49.0781 27.4687 49.0781 27.4687C49.0781 27.4687 47.7813 29.7343 47.0157 30.203C47.4375 30.5467 48.9531 29.1874 48.9531 29.1874C48.9531 29.1874 47.7344 30.703 48.2031 30.7811C48.875 31.328 51.3593 27.9687 51.3593 27.9687C51.3593 27.9687 50.3905 29.953 48.9687 31.4998C50.1562 32.1092 53.1248 28.2812 53.1248 28.2812C53.1248 28.2812 53.0467 29.4999 50.8905 31.4373C52.4842 31.2342 54.5466 28.2031 54.5466 28.2031C54.5466 28.2031 53.7967 30.4686 51.9842 32.0779C53.5467 31.9217 56.0622 28.0468 56.0622 28.0468C56.0622 28.0468 55.0935 30.7342 53.1248 32.2967C55.3122 32.781 58.4684 29.5155 58.4684 29.5155C58.4684 29.5155 57.2341 31.8279 55.6091 32.781C57.4215 33.4685 59.9058 30.6092 59.9058 30.6092C59.9058 30.6092 57.4216 34.4372 53.4686 34.2654C52.1717 34.2029 48.25 30.328 39.844 30.6405C28.7194 31.0467 26.3758 35.7653 20.4385 38.9527Z" fill="#373535" fill-opacity="0.35"/>
<path d="M20.6885 38.484C26.9539 32.2186 31.9537 30.2811 36.5004 29.4062C37.0942 29.2968 37.2191 27.9687 37.2191 27.9687C37.2191 27.9687 37.2973 28.9374 37.7191 29.0624C38.141 29.1874 38.6878 27.5469 38.6878 27.5469C38.6878 27.5469 38.1879 29.0156 38.6878 29.1093C39.1878 29.1874 40.1253 27.6719 40.1253 27.6719C40.1253 27.6719 39.7503 28.9687 40.0003 29.0624C40.2503 29.1406 41.5159 27.1719 41.5159 27.1719C41.5159 27.1719 40.7659 28.4687 41.469 28.6093C42.1877 28.7343 43.2346 27.7187 43.2346 27.7187C43.2346 27.7187 42.4221 28.6406 42.7815 28.7812C44.3439 29.328 45.5939 27.3125 45.5939 27.3125C45.5939 27.3125 45.297 28.2031 44.547 29.1718C46.1876 29.5937 47.4063 27.125 47.4063 27.125L46.1876 29.5937C46.8126 29.9374 49.3437 27.0312 49.3437 27.0312C49.3437 27.0312 48.0469 29.2968 47.2813 29.7655C47.7032 30.0624 49.2187 28.7187 49.2187 28.7187C49.2187 28.7187 48 30.2343 48.4688 30.3124C49.1406 30.8592 51.6249 27.5 51.6249 27.5C51.6249 27.5 50.6406 29.4843 49.2187 31.0311C50.4062 31.6248 53.3905 27.7968 53.3905 27.7968C53.3905 27.7968 53.3123 29.0156 51.1562 30.953C52.7499 30.7499 54.8123 27.7187 54.8123 27.7187C54.8123 27.7187 54.0623 29.9843 52.2499 31.5936C53.8123 31.4373 56.3279 27.5625 56.3279 27.5625C56.3279 27.5625 55.3591 30.2499 53.3905 31.8123C55.5779 32.2967 58.734 29.0312 58.734 29.0312C58.734 29.0312 57.4997 31.3436 55.8747 32.2967C57.6872 32.9842 60.1715 30.1249 60.1715 30.1249C60.1715 30.1249 57.6872 33.9529 53.7342 33.781C52.4374 33.7185 48.5156 29.8437 40.1097 30.1561C28.9851 30.578 26.6258 35.281 20.6885 38.484Z" fill="#373535"/>
<path d="M20.2822 39.6402C23.5946 41.2964 26.6258 39.3902 30.4381 40.4683C33.3443 41.2807 36.8754 42.2963 41.6721 41.5932C46.4688 40.9057 50.5624 38.8121 52.5311 35.0935C53.1404 33.4373 55.6247 35.4684 55.6247 35.4684C55.6247 35.4684 53.8123 34.7185 53.8592 35.0622C53.906 35.4216 56.5778 36.6559 56.5778 36.6559C56.5778 36.6559 54.156 35.9059 54.3123 36.4684C54.4529 37.0309 57.3434 39.3121 57.3434 39.3121C57.3434 39.3121 54.0467 36.8434 53.7811 37.1871C53.4998 37.5309 55.1716 38.8902 55.1716 38.8902C55.1716 38.8902 52.4217 37.1871 51.453 37.6871C50.7499 38.0465 54.3123 40.3745 54.3123 40.3745C54.3123 40.3745 51.9999 38.609 51.453 39.0777C50.9062 39.5464 54.0623 43.3275 54.0623 43.3275C54.0623 43.3275 50.4687 39.4527 50.1093 39.6402C49.7499 39.8277 51.0936 41.687 51.0936 41.687C51.0936 41.687 49.3437 39.7495 48.8593 40.0777C48.375 40.4214 51.3905 45.4368 51.3905 45.4368C51.3905 45.4368 48.125 40.2964 46.7657 41.1557C48.875 45.7962 48.0938 46.4524 48.0938 46.4524C48.0938 46.4524 47.8281 41.7182 45.1876 41.8432C43.8595 41.9057 45.8126 45.3743 45.8126 45.3743C45.8126 45.3743 44.0158 42.2026 42.8127 42.2651C45.0157 46.4524 44.2345 48.1399 44.2345 48.1399C44.2345 48.1399 44.5939 44.5619 41.6096 42.5776C42.7502 43.5932 40.8909 48.1399 40.8909 48.1399C40.8909 48.1399 42.5158 41.437 39.6878 42.7182C39.2347 42.9213 39.6565 46.0618 39.6565 46.0618C39.6565 46.0618 39.0941 42.4682 38.2347 42.6557C37.7347 42.7651 35.0786 47.6399 35.0786 47.6399C35.0786 47.6399 37.2504 42.3744 36.5942 42.5932C36.1098 42.7494 35.2036 44.9212 35.2036 44.9212C35.2036 44.9212 35.6411 42.7807 35.2036 42.6557C34.7661 42.5307 32.2974 44.9212 32.2974 44.9212C32.2974 44.9212 34.1255 42.7807 33.813 42.3276C33.3286 41.6557 32.7818 41.6245 32.1099 41.8901C31.1412 42.2651 29.8444 44.0306 29.8444 44.0306C29.8444 44.0306 31.1412 42.2338 30.9225 41.5776C30.5631 40.4995 26.8289 43.6557 26.8289 43.6557C26.8289 43.6557 29.0319 41.5776 28.5319 41.1245C28.032 40.687 25.2821 40.812 24.4383 40.812C21.9228 40.8433 21.0478 40.2495 20.2822 39.6402Z" fill="#373535" fill-opacity="0.35"/>
<path d="M20.1416 39.2652C23.454 40.9214 26.4851 39.0152 30.2975 40.0933C33.2036 40.9058 36.7348 41.9214 41.5315 41.2183C46.3282 40.5308 50.4218 38.4371 52.3905 34.7185C52.9998 33.0623 55.4841 35.0935 55.4841 35.0935C55.4841 35.0935 53.6717 34.3435 53.7185 34.6872C53.7654 35.0466 56.4372 36.2809 56.4372 36.2809C56.4372 36.2809 54.0154 35.531 54.1717 36.0934C54.3123 36.6559 57.2028 38.9371 57.2028 38.9371C57.2028 38.9371 53.9373 36.4528 53.6717 36.7965C53.4061 37.1403 55.0622 38.4996 55.0622 38.4996C55.0622 38.4996 52.3123 36.7965 51.3436 37.2965C50.6405 37.6559 54.2029 39.9839 54.2029 39.9839C54.2029 39.9839 51.8905 38.2184 51.3436 38.6871C50.7968 39.1558 53.9529 42.9369 53.9529 42.9369C53.9529 42.9369 50.3749 39.0621 50.0156 39.2496C49.6562 39.4371 50.9999 41.2964 50.9999 41.2964C50.9999 41.2964 49.2187 39.3746 48.7343 39.7027C48.25 40.0464 51.2499 45.0619 51.2499 45.0619C51.2499 45.0619 47.9844 39.9058 46.6407 40.7651C48.7656 45.4212 47.9687 46.0775 47.9687 46.0775C47.9687 46.0775 47.7031 41.3433 45.0626 41.4682C43.7345 41.5307 45.6876 44.9994 45.6876 44.9994C45.6876 44.9994 43.9064 41.8432 42.7033 41.9057C44.9064 46.0931 44.1251 47.7805 44.1251 47.7805C44.1251 47.7805 44.4845 44.2025 41.5002 42.2182C42.6408 43.2338 40.7815 47.7805 40.7815 47.7805C40.7815 47.7805 42.4064 41.0776 39.5784 42.3588C39.1253 42.562 39.5472 45.7025 39.5472 45.7025C39.5472 45.7025 38.9847 42.1089 38.1253 42.2963C37.6254 42.4057 34.9692 47.2805 34.9692 47.2805C34.9692 47.2805 37.141 42.0151 36.4848 42.2338C36.0004 42.3901 35.0942 44.5619 35.0942 44.5619C35.0942 44.5619 35.5317 42.4213 35.0942 42.2963C34.6567 42.1713 32.1881 44.5619 32.1881 44.5619C32.1881 44.5619 34.0161 42.4213 33.7036 41.9682C33.2193 41.2964 32.6724 41.2651 32.0006 41.5307C31.0318 41.9057 29.735 43.6713 29.735 43.6713C29.735 43.6713 31.0318 41.8745 30.8131 41.2183C30.4537 40.1402 26.7195 43.2963 26.7195 43.2963C26.7195 43.2963 28.9225 41.2183 28.4226 40.7651C27.9226 40.3277 25.1727 40.4527 24.329 40.4527C21.7822 40.4683 20.9072 39.8746 20.1416 39.2652Z" fill="#373535"/>
</g>
<defs>
<clipPath id="clip0_270_10718">
<rect width="40" height="26.4053" fill="white" transform="translate(20 27)"/>
</clipPath>
</defs>
</svg>
