<svg width="120" height="120" viewBox="0 0 120 120" fill="none" xmlns="http://www.w3.org/2000/svg">
<g clip-path="url(#clip0_688_15938)">
<path d="M36.6796 73.4999C37.1952 73.4999 37.6639 73.6171 37.9217 73.8514C37.9686 74.2264 37.617 74.8358 37.4061 74.8358C37.1483 74.742 36.9139 74.6952 36.6092 74.6952C35.3905 74.6952 34.7812 75.9607 34.7812 77.2029C34.7812 77.9763 35.039 78.445 35.6718 78.445C36.328 78.445 36.9842 77.9997 37.3592 77.6716C37.453 77.7419 37.5702 77.9529 37.5702 78.1872C37.5702 78.445 37.4998 78.7028 37.242 78.9606C36.8202 79.3825 36.0936 79.7575 35.039 79.7575C33.8437 79.7575 33 79.0778 33 77.4841C33.0469 75.3748 34.4062 73.4999 36.6796 73.4999ZM40.6169 78.3747C41.2731 78.3747 42.4684 77.2263 42.7965 75.0233C42.82 74.8827 42.82 74.8592 42.8434 74.7186C42.7028 74.6717 42.4919 74.6249 42.3044 74.6249C41.8122 74.6249 41.2966 74.7655 40.8513 75.3983C40.3826 76.0545 40.1716 76.8748 40.1716 77.531C40.1716 78.07 40.3357 78.3747 40.6169 78.3747ZM38.4607 77.7654C38.4607 76.9685 38.7185 75.6092 39.7263 74.6014C40.5935 73.7108 41.6247 73.4999 42.5856 73.4999C43.2184 73.4999 44.0621 73.7108 44.6012 73.8046C44.4605 74.3905 44.1559 76.617 43.9918 77.906C43.9215 78.445 43.8981 79.2184 43.9215 79.4997C43.4762 79.6872 42.6559 79.7341 42.4215 79.7341C42.3044 79.7341 42.2809 79.195 42.3044 78.656C42.3278 78.4919 42.3512 78.2341 42.3512 78.1169C41.8356 78.9841 40.8044 79.7106 39.7263 79.7106C38.9529 79.7341 38.4607 79.0778 38.4607 77.7654ZM47.9292 73.4999C48.4682 73.4999 49.0073 73.7108 49.2416 73.9452C49.2182 74.3202 48.9369 74.953 48.4682 74.7655C48.2573 74.6952 48.0698 74.6483 47.7885 74.6483C47.437 74.6483 47.1089 74.8123 47.1089 75.1405C47.1089 75.3983 47.2964 75.5858 48.187 76.2186C48.8198 76.6873 49.0776 77.1091 49.0776 77.6951C49.0776 78.6794 48.1635 79.7341 46.5464 79.7341C45.8902 79.7341 45.3043 79.4763 45.1402 79.2184C44.9058 78.82 45.0933 78.0232 45.3511 78.1638C45.7027 78.3279 46.2652 78.5153 46.7339 78.5153C47.1792 78.5153 47.4604 78.3044 47.4604 78.0466C47.4604 77.8122 47.2495 77.6248 46.4527 77.0388C45.773 76.5232 45.5621 76.0545 45.5621 75.5389C45.5621 74.4139 46.523 73.4999 47.9292 73.4999ZM52.5462 73.4999C53.0852 73.4999 53.6243 73.7108 53.8586 73.9452C53.8352 74.3202 53.554 74.953 53.0852 74.7655C52.8743 74.6952 52.6868 74.6483 52.4056 74.6483C52.054 74.6483 51.7259 74.8123 51.7259 75.1405C51.7259 75.3983 51.9134 75.5858 52.804 76.2186C53.4368 76.6873 53.6946 77.1091 53.6946 77.6951C53.6946 78.6794 52.7806 79.7341 51.1634 79.7341C50.5072 79.7341 49.9447 79.4763 49.7572 79.2184C49.5229 78.82 49.7104 78.0232 49.9682 78.1638C50.3197 78.3279 50.8822 78.5153 51.3509 78.5153C51.7962 78.5153 52.0775 78.3044 52.0775 78.0466C52.0775 77.8122 51.8665 77.6248 51.0697 77.0388C50.39 76.5232 50.1791 76.0545 50.1791 75.5389C50.1791 74.4139 51.14 73.4999 52.5462 73.4999ZM56.7414 78.3747C57.3976 78.3747 58.5929 77.2263 58.921 75.0233C58.9444 74.8827 58.9444 74.8592 58.9678 74.7186C58.8272 74.6717 58.6163 74.6249 58.4288 74.6249C57.9366 74.6249 57.421 74.7655 56.9757 75.3983C56.507 76.0545 56.2961 76.8748 56.2961 77.531C56.3195 78.07 56.4601 78.3747 56.7414 78.3747ZM54.5852 77.7654C54.5852 76.9685 54.843 75.6092 55.8508 74.6014C56.7179 73.7108 57.7491 73.4999 58.71 73.4999C59.3428 73.4999 60.1865 73.7108 60.7256 73.8046C60.585 74.3905 60.2803 76.617 60.1162 77.906C60.0459 78.445 60.0225 79.2184 60.0459 79.4997C59.6006 79.6872 58.7803 79.7341 58.546 79.7341C58.4288 79.7341 58.4054 79.195 58.4288 78.656C58.4522 78.4919 58.4757 78.2341 58.4757 78.1169C57.9601 78.9841 56.9288 79.7106 55.8508 79.7106C55.1008 79.7341 54.5852 79.0778 54.5852 77.7654ZM63.7489 75.2342C64.3583 74.2499 65.1551 73.4999 66.2801 73.4999C67.241 73.4999 67.5457 74.3905 67.3582 75.6326C67.2644 76.2186 67.1004 77.0623 67.0066 77.8357C66.9129 78.4919 66.8426 79.0778 66.866 79.4762C66.5145 79.6403 65.5067 79.7106 65.2723 79.7106C65.1786 79.7106 65.1551 78.9841 65.2957 78.2107C65.4129 77.5779 65.6239 76.406 65.741 75.7264C65.8113 75.328 65.7879 74.8592 65.4129 74.8592C64.9208 74.8592 63.7489 75.6561 63.163 78.8903C63.1161 79.1481 63.0224 79.3122 62.8583 79.4059C62.6474 79.5231 62.2255 79.6403 61.3584 79.6403C61.5224 78.82 61.7802 77.156 61.9677 75.9139C62.1318 74.7889 62.2021 74.0624 62.1787 73.7811C62.413 73.7108 63.6083 73.453 63.7255 73.453C63.8661 73.453 63.8895 73.8749 63.7724 74.8592C63.7489 74.953 63.7489 75.0936 63.7255 75.1873H63.7489V75.2342ZM70.5456 78.3513C71.1315 78.3513 72.3267 77.2498 72.6549 75.3045C72.6783 75.1873 72.7017 74.9998 72.7252 74.8827C72.5611 74.7186 72.3267 74.6249 71.9518 74.6249C70.5924 74.6249 70.0065 76.242 70.0065 77.4138C70.03 78.0232 70.2409 78.3513 70.5456 78.3513ZM69.6784 79.7341C68.8112 79.7341 68.2956 78.9606 68.2956 77.6716C68.2956 75.5155 69.655 73.5233 71.9283 73.5233C72.3267 73.5233 72.7017 73.6405 72.9127 73.7577C73.0299 73.1483 73.3111 71.25 73.3345 70.6875C73.7095 70.6172 74.5064 70.5 74.8813 70.5C75.022 70.5 75.0688 70.6406 75.022 70.9922C74.6939 73.0077 74.1314 76.8513 74.0142 77.6951C73.9439 78.4216 73.9204 79.1247 73.9439 79.5231C73.522 79.7106 72.6549 79.7575 72.4205 79.7575C72.3267 79.7575 72.2799 79.1481 72.3033 78.5857C72.3267 78.4216 72.3502 78.1638 72.3502 78.1169C71.6236 79.195 70.7096 79.7341 69.6784 79.7341ZM77.5063 75.4217C78.2094 73.8514 79.0531 73.4999 79.6156 73.4999C79.7796 73.4999 80.0609 73.6171 80.178 73.7343C80.2249 74.1796 79.8734 75.0467 79.5687 75.3983C79.4046 75.328 79.2171 75.2342 78.9828 75.2342C78.5375 75.2342 77.6234 75.9373 77.061 78.9841C77.0141 79.2419 76.9438 79.3356 76.8032 79.4059C76.5688 79.5466 75.6782 79.6403 75.2563 79.6637C75.4673 78.5622 75.7954 76.3357 75.936 75.0233C75.9829 74.6952 75.9829 74.0624 75.9594 73.828C76.2172 73.7108 77.225 73.4765 77.4359 73.4765C77.5531 73.4765 77.6469 74.203 77.4594 75.3983H77.5063V75.4217ZM82.217 78.3747C82.8733 78.3747 84.0685 77.2263 84.3966 75.0233C84.4201 74.8827 84.4201 74.8592 84.4435 74.7186C84.3029 74.6717 84.092 74.6249 83.9045 74.6249C83.4123 74.6249 82.8967 74.7655 82.4514 75.3983C81.9827 76.0545 81.7717 76.8748 81.7717 77.531C81.7952 78.07 81.9358 78.3747 82.217 78.3747ZM80.0609 77.7654C80.0609 76.9685 80.3187 75.6092 81.3264 74.6014C82.1936 73.7108 83.2248 73.4999 84.1857 73.4999C84.8185 73.4999 85.6622 73.7108 86.2013 73.8046C86.0606 74.3905 85.756 76.617 85.5919 77.906C85.5216 78.445 85.4982 79.2184 85.5216 79.4997C85.0763 79.6872 84.256 79.7341 84.0216 79.7341C83.9045 79.7341 83.881 79.195 83.9045 78.656C83.9279 78.4919 83.9513 78.2341 83.9513 78.1169C83.4357 78.9841 82.4045 79.7106 81.3264 79.7106C80.5765 79.7341 80.0609 79.0778 80.0609 77.7654Z" fill="white"/>
<path d="M78.1627 51.1636C78.608 56.2962 70.5223 61.1945 60.093 62.0851C49.6637 62.9757 40.875 59.5305 40.4297 54.3979C39.9844 49.2652 48.07 44.367 58.4993 43.4764C68.9052 42.5858 77.7174 46.0075 78.1627 51.1636Z" fill="#BBE6FB"/>
<path d="M58.7808 44.0623C54.7966 43.992 50.1561 45.5857 46.6875 47.0622C46.3359 48.0934 46.125 49.1949 46.125 50.3433C46.125 56.4369 51.6326 61.382 58.4293 61.382C65.2259 61.382 70.7569 56.4603 70.7569 50.3433C70.7569 48.4215 70.1945 46.5935 69.2336 45.0232C66.468 44.6013 62.6479 44.1326 58.7808 44.0623Z" fill="white"/>
<path d="M58.4528 44.0623C56.2497 43.9216 52.453 45.07 49.289 46.2184C48.7969 47.3434 48.5391 48.5855 48.5391 49.898C48.5391 55.2416 53.3905 59.5773 58.4997 59.5773C63.5854 59.5773 68.0853 55.2416 68.4602 49.898C68.5774 48.1637 67.9915 46.5231 67.1478 45.1169C63.8901 44.5544 60.4215 44.2029 58.4528 44.0623Z" fill="white"/>
<path d="M52.8046 49.2185C53.0859 48.6091 53.4843 48.3279 53.8827 47.8357C53.8358 47.7185 53.7421 47.3201 53.7421 47.2029C53.7421 46.5936 54.2343 46.1249 54.8202 46.1249C54.9608 46.1249 55.1014 46.1483 55.2186 46.1952C57.0232 44.8124 59.3903 44.2265 61.7809 44.7655C61.9918 44.8124 62.2027 44.8827 62.4137 44.9296C60.07 44.6015 57.3982 45.4452 55.5936 46.8983C55.6405 47.0389 55.8045 47.3904 55.8045 47.5545C55.8045 48.1638 55.4061 48.3045 54.8202 48.3045C54.6796 48.3045 54.5624 48.281 54.4218 48.2342C54.0233 48.7732 53.5077 49.8278 53.2734 50.4841C54.2811 51.3747 55.1717 51.7028 56.3436 52.1481C56.3436 52.1012 56.3904 52.0309 56.3904 51.984C56.3904 50.1794 57.9841 48.7029 59.7888 48.7029C61.4059 48.7029 62.7652 49.8747 63.023 51.4215C63.8433 50.9059 64.6167 50.5075 65.2026 49.7575C65.062 49.5935 64.9214 49.1013 64.9214 48.8669C64.9214 48.3279 65.3667 47.8826 65.9057 47.8826C65.976 47.8826 66.0464 47.8826 66.1401 47.906C66.4448 47.2733 66.6791 46.617 66.8198 45.9374C63.9839 43.8281 58.4997 44.1327 58.4997 44.1327C58.4997 44.1327 54.1405 43.8984 51.1875 45.3514C51.3984 46.7108 51.9609 48.0701 52.8046 49.2185Z" fill="#373535"/>
<path d="M66.3519 48.3981C66.5629 48.5856 66.6566 48.7262 66.7503 48.8903C67.0081 49.359 66.4925 49.8043 65.9301 49.8043C65.8832 49.8043 65.8129 49.8043 65.766 49.7809C65.1567 50.7418 64.0786 51.9605 63.1177 52.5933C64.5942 52.8276 65.9769 53.4136 67.055 54.3276C67.8519 52.898 68.4612 50.8121 68.4612 49.0543C68.4612 47.7184 67.8753 46.7341 66.9847 46.0076C66.9613 46.7341 66.5629 47.7419 66.3519 48.3981ZM54.4461 57.4915C54.9383 56.1322 56.1335 55.101 57.2819 54.187C57.1179 53.9526 56.8601 53.3901 56.7663 53.1323C55.3836 52.7105 54.1648 51.9136 53.2039 50.8824C53.2039 50.9058 53.1805 50.9527 53.1805 50.9761C52.993 51.773 52.9696 52.5933 53.0633 53.3667C53.7196 53.4839 54.2352 54.0698 54.2352 54.7729C54.2352 55.1947 53.8602 55.7807 53.5789 56.0619C53.8602 56.6713 54.0711 56.9994 54.4461 57.4915Z" fill="#373535"/>
<path d="M54.3514 58.6165C53.7654 58.0306 53.367 56.8822 52.992 56.1556C52.9217 56.1556 52.8514 56.1791 52.7811 56.1791C51.9843 56.1791 51.164 55.5228 51.3515 54.7494C51.4452 54.3276 51.7499 54.0463 52.2186 53.812C52.1014 52.9214 52.078 51.6792 52.2889 50.7652C52.3358 50.5074 52.4764 50.3902 52.5467 50.1324C51.6796 48.8668 51.1171 47.1794 51.1171 45.5154V45.3279C49.6406 46.0779 48.5391 47.2263 48.5391 49.0543C48.5391 53.1089 50.8827 57.0931 54.3514 58.6399V58.6165ZM62.9057 53.0151C62.4604 54.2807 61.2417 55.2182 59.8121 55.2182C59.0387 55.2182 58.3356 54.9604 57.7965 54.5151C56.6482 55.4057 55.5935 56.9759 55.0779 58.3587C55.3123 58.6165 55.4763 58.8274 55.7576 59.0618C56.5544 59.2727 57.6794 59.0618 58.5465 59.0618C62.0386 59.0618 65.1557 57.515 66.9369 54.7729C65.7181 53.9291 64.3119 53.1323 62.9057 53.0151Z" fill="#373535"/>
<path d="M52.7109 49.6872C52.9921 49.0779 53.3202 48.5388 53.7187 48.0232C53.6718 47.9061 53.6484 47.7654 53.6484 47.6483C53.6484 47.0389 54.1405 46.5702 54.7264 46.5702C54.8671 46.5702 55.0077 46.5936 55.1249 46.6405C56.9295 45.2577 59.2966 44.6718 61.6871 45.2108C61.8981 45.2577 62.109 45.328 62.3199 45.3749C59.9763 45.0468 57.5388 45.7733 55.7342 47.2264C55.7811 47.367 55.828 47.5076 55.828 47.6483C55.828 48.2576 55.3358 48.7263 54.7499 48.7263C54.6093 48.7263 54.4921 48.7029 54.3515 48.656C53.953 49.1951 53.6015 49.8044 53.3671 50.4607C54.2343 51.3747 55.2889 52.1247 56.4608 52.5465V52.3825C56.4608 50.5778 57.9373 49.1013 59.7419 49.1013C61.359 49.1013 62.7183 50.2732 62.9761 51.82C63.7964 51.3044 64.4995 50.6481 65.1089 49.8747C64.9683 49.7107 64.8745 49.4998 64.8745 49.2654C64.8745 48.7263 65.3198 48.281 65.8589 48.281C65.9292 48.281 65.9995 48.281 66.0932 48.3045C66.3979 47.6717 66.6323 47.0155 66.7729 46.3358C63.937 44.2265 58.4529 44.5312 58.4529 44.5312C58.4529 44.5312 54.0936 44.2968 51.1406 45.7499C51.3047 47.1795 51.8672 48.5388 52.7109 49.6872Z" fill="#1287B1"/>
<path d="M66.4925 48.5622C66.7035 48.7497 66.8207 49.0075 66.8207 49.2887C66.8207 49.8278 66.3754 50.2731 65.8363 50.2731C65.7894 50.2731 65.7191 50.2731 65.6723 50.2496C65.0629 51.2105 64.2426 52.0308 63.2817 52.6402C64.6879 52.8511 66.0238 53.4604 67.1253 54.3745C67.9222 52.9448 68.3909 51.2808 68.3909 49.5231C68.3909 48.1872 67.805 47.2029 66.9144 46.4763C66.8675 47.2029 66.7269 47.906 66.4925 48.5622ZM54.5867 57.7962C55.0789 56.4369 55.9226 55.2416 57.071 54.3276C56.9069 54.0932 56.7663 53.8589 56.6726 53.5776C55.2898 53.1558 54.0711 52.3589 53.1102 51.3277C53.1102 51.3511 53.0868 51.398 53.0868 51.4215C52.8993 52.2183 52.8758 53.0386 52.9696 53.812C53.6258 53.9292 54.1414 54.5151 54.1414 55.2182C54.1414 55.6401 53.9539 56.015 53.6727 56.2729C53.907 56.8119 54.2352 57.3275 54.5867 57.7962Z" fill="#1287B1"/>
<path d="M54.3514 58.5931C53.7654 58.0071 53.2733 57.3509 52.8983 56.6244C52.828 56.6244 52.7577 56.6478 52.6874 56.6478C51.8905 56.6478 51.2577 56.015 51.2577 55.2182C51.2577 54.6557 51.5858 54.1635 52.0546 53.9292C51.9374 53.0386 51.9843 52.148 52.1952 51.2339C52.2421 50.9761 52.3358 50.7183 52.4061 50.4605C51.539 49.1949 51.0233 47.6481 51.0233 45.9841V45.7966C49.5468 46.5466 48.4453 47.695 48.4453 49.5231C48.4453 53.5776 50.8593 57.0697 54.3279 58.6165C54.3514 58.6165 54.3514 58.6165 54.3514 58.5931ZM62.812 53.4839C62.3667 54.7494 61.148 55.6869 59.7184 55.6869C58.9449 55.6869 58.2418 55.4291 57.7028 54.9838C56.5544 55.8744 55.6872 57.0931 55.1482 58.4759C55.3826 58.7337 55.6404 58.968 55.8982 59.2024C56.695 59.4133 57.5387 59.5305 58.4059 59.5305C61.898 59.5305 64.9916 57.7259 66.7728 54.9838C65.601 54.1401 64.2182 53.601 62.812 53.4839Z" fill="#1287B1"/>
<path d="M62.9293 52.6402L65.9527 51.9136L62.9059 51.7496L65.3902 49.8746L62.5778 50.8824L64.4762 48.2341L61.8278 49.9918L62.7419 46.8982L60.9372 49.4528L60.8904 46.2185L59.6951 49.1012L58.7107 46.1951L58.7576 49.6168L57.0467 46.5466L57.9842 49.8043L55.1952 47.7888L57.3749 50.5309L53.9062 49.2653L56.6249 51.2808L53.1328 51.398L56.7186 52.312L53.1328 53.0855L56.6718 53.3433L53.6953 55.2416L56.7655 54.1401L54.6328 56.8353L57.328 54.6557L56.3671 58.265L58.4529 55.3119L58.1717 58.7806L59.3435 55.6166L60.3513 58.9212L60.5857 55.5932L62.0856 58.429L61.195 55.1948L63.9137 57.3041L62.1559 54.6088L65.1558 55.7807L62.859 53.5307L65.9292 53.7651L62.9293 52.6402Z" fill="white"/>
<path d="M30.6582 58.4291C40.0563 49.031 47.556 46.1248 54.3761 44.8124C55.2667 44.6483 55.4542 42.6562 55.4542 42.6562C55.4542 42.6562 55.5714 44.1093 56.2042 44.2968C56.837 44.4843 57.6573 42.0234 57.6573 42.0234C57.6573 42.0234 56.9073 44.2265 57.6573 44.3671C58.4072 44.4843 59.8134 42.2109 59.8134 42.2109C59.8134 42.2109 59.2509 44.1561 59.6259 44.2968C60.0009 44.414 61.8993 41.4609 61.8993 41.4609C61.8993 41.4609 60.7743 43.4062 61.829 43.6171C62.9071 43.8046 64.4773 42.2812 64.4773 42.2812C64.4773 42.2812 63.2586 43.664 63.7977 43.8749C66.1413 44.6952 68.0163 41.6719 68.0163 41.6719C68.0163 41.6719 67.571 43.0077 66.446 44.4608C68.9069 45.0936 70.7349 41.3906 70.7349 41.3906L68.9069 45.0936C69.8443 45.5623 73.6176 41.2031 73.6176 41.2031C73.6176 41.2031 71.6724 44.6014 70.524 45.3045C71.1568 45.8202 73.4301 43.7812 73.4301 43.7812C73.4301 43.7812 71.6021 46.0545 72.3052 46.1717C73.313 46.992 77.0394 41.9531 77.0394 41.9531C77.0394 41.9531 75.5863 44.9296 73.4536 47.2498C75.2348 48.1638 79.6877 42.4218 79.6877 42.4218C79.6877 42.4218 79.5705 44.2499 76.3363 47.156C78.7268 46.8514 81.8205 42.3046 81.8205 42.3046C81.8205 42.3046 80.6955 45.703 77.9768 48.1169C80.3205 47.8826 84.0938 42.0703 84.0938 42.0703C84.0938 42.0703 82.6408 46.1014 79.6877 48.4451C82.9689 49.1716 87.7031 44.2733 87.7031 44.2733C87.7031 44.2733 85.8516 47.742 83.4142 49.1716C86.1328 50.2028 89.8592 45.9139 89.8592 45.9139C89.8592 45.9139 86.1328 51.6559 80.2033 51.3981C78.2581 51.3043 72.3755 45.492 59.7666 45.9608C43.0796 46.5701 39.5641 53.648 30.6582 58.4291Z" fill="#373535" fill-opacity="0.35"/>
<path d="M31.0332 57.726C40.4313 48.3279 47.931 45.4217 54.7511 44.1092C55.6417 43.9452 55.8292 41.9531 55.8292 41.9531C55.8292 41.9531 55.9464 43.4061 56.5792 43.5936C57.212 43.7811 58.0323 41.3203 58.0323 41.3203C58.0323 41.3203 57.2823 43.5233 58.0323 43.664C58.7822 43.7811 60.1884 41.5078 60.1884 41.5078C60.1884 41.5078 59.6259 43.453 60.0009 43.5936C60.3759 43.7108 62.2743 40.7578 62.2743 40.7578C62.2743 40.7578 61.1493 42.703 62.204 42.914C63.2821 43.1015 64.8523 41.5781 64.8523 41.5781C64.8523 41.5781 63.6336 42.9609 64.1727 43.1718C66.5163 43.9921 68.3913 40.9687 68.3913 40.9687C68.3913 40.9687 67.946 42.3046 66.821 43.7577C69.2819 44.3905 71.1099 40.6875 71.1099 40.6875L69.2819 44.3905C70.2193 44.9061 74.0161 40.5469 74.0161 40.5469C74.0161 40.5469 72.0708 43.9452 70.9224 44.6483C71.5552 45.0936 73.8286 43.078 73.8286 43.078C73.8286 43.078 72.0005 45.3514 72.7036 45.4686C73.7114 46.2889 77.4378 41.25 77.4378 41.25C77.4378 41.25 75.9613 44.2264 73.8286 46.5467C75.6098 47.4373 80.0862 41.6953 80.0862 41.6953C80.0862 41.6953 79.969 43.5233 76.7347 46.4295C79.1253 46.1248 82.2189 41.5781 82.2189 41.5781C82.2189 41.5781 81.0939 44.9764 78.3753 47.3904C80.719 47.156 84.4923 41.3437 84.4923 41.3437C84.4923 41.3437 83.0392 45.3748 80.0862 47.7185C83.3673 48.445 88.1015 43.5468 88.1015 43.5468C88.1015 43.5468 86.25 47.0154 83.8126 48.445C86.5313 49.4762 90.2577 45.1873 90.2577 45.1873C90.2577 45.1873 86.5313 50.9293 80.6018 50.6715C78.6565 50.5778 72.7739 44.7655 60.165 45.2342C43.4781 45.867 39.9391 52.9214 31.0332 57.726Z" fill="#D3D3D3"/>
<path d="M30.4238 59.4602C35.3924 61.9445 39.9391 59.0852 45.6577 60.7023C50.0169 61.921 55.3136 63.4444 62.5086 62.3897C69.7037 61.3585 75.8441 58.218 78.7971 52.6401C79.7112 50.1558 83.4376 53.2026 83.4376 53.2026C83.4376 53.2026 80.7189 52.0776 80.7892 52.5932C80.8596 53.1323 84.8672 54.9838 84.8672 54.9838C84.8672 54.9838 81.2345 53.8588 81.4689 54.7025C81.6798 55.5462 86.0156 58.968 86.0156 58.968C86.0156 58.968 81.0705 55.265 80.6721 55.7806C80.2502 56.2962 82.7579 58.3352 82.7579 58.3352C82.7579 58.3352 78.6331 55.7806 77.18 56.5306C76.1254 57.0696 81.4689 60.5617 81.4689 60.5617C81.4689 60.5617 78.0003 57.9133 77.18 58.6164C76.3597 59.3195 81.0939 64.9912 81.0939 64.9912C81.0939 64.9912 75.7035 59.1789 75.1644 59.4602C74.6254 59.7414 76.641 62.5304 76.641 62.5304C76.641 62.5304 74.016 59.6242 73.2895 60.1164C72.563 60.632 77.0863 68.1552 77.0863 68.1552C77.0863 68.1552 72.188 60.4445 70.149 61.7335C73.3129 68.6942 72.1411 69.6786 72.1411 69.6786C72.1411 69.6786 71.7427 62.5772 67.7819 62.7647C65.7898 62.8585 68.7194 68.0614 68.7194 68.0614C68.7194 68.0614 66.0241 63.3038 64.2195 63.3975C67.5241 69.6786 66.3523 72.2097 66.3523 72.2097C66.3523 72.2097 66.8913 66.8427 62.4149 63.8663C64.1258 65.3896 61.3368 72.2097 61.3368 72.2097C61.3368 72.2097 63.7742 62.1554 59.5322 64.0772C58.8525 64.3819 59.4853 69.0926 59.4853 69.0926C59.4853 69.0926 58.6416 63.7022 57.3526 63.9834C56.6026 64.1475 52.6184 71.4597 52.6184 71.4597C52.6184 71.4597 55.8761 63.5616 54.8917 63.8897C54.1652 64.1241 52.8059 67.3818 52.8059 67.3818C52.8059 67.3818 53.4621 64.1709 52.8059 63.9834C52.1496 63.7959 48.4466 67.3818 48.4466 67.3818C48.4466 67.3818 51.1887 64.1709 50.72 63.4913C49.9935 62.4835 49.1732 62.4366 48.1654 62.835C46.7123 63.3975 44.7671 66.0459 44.7671 66.0459C44.7671 66.0459 46.7123 63.3507 46.3842 62.3663C45.8452 60.7492 40.2438 65.4834 40.2438 65.4834C40.2438 65.4834 43.5484 62.3663 42.7984 61.6866C42.0484 61.0304 37.9236 61.2179 36.658 61.2179C32.8847 61.2648 31.5722 60.3742 30.4238 59.4602Z" fill="#373535" fill-opacity="0.35"/>
<path d="M30.2129 58.8979C35.1815 61.3822 39.7282 58.5229 45.4467 60.1401C49.806 61.3588 55.1026 62.8821 62.2977 61.8275C69.4928 60.7963 75.6332 57.6558 78.5862 52.0778C79.5002 49.5935 83.2267 52.6403 83.2267 52.6403C83.2267 52.6403 80.508 51.5154 80.5783 52.031C80.6486 52.57 84.6563 54.4215 84.6563 54.4215C84.6563 54.4215 81.0236 53.2965 81.258 54.1403C81.4689 54.984 85.8047 58.4057 85.8047 58.4057C85.8047 58.4057 80.9064 54.6793 80.508 55.1949C80.1096 55.7105 82.5939 57.7495 82.5939 57.7495C82.5939 57.7495 78.469 55.1949 77.0159 55.9449C75.9613 56.4839 81.3048 59.976 81.3048 59.976C81.3048 59.976 77.8362 57.3277 77.0159 58.0308C76.1957 58.7339 80.9299 64.4055 80.9299 64.4055C80.9299 64.4055 75.5629 58.5932 75.0238 58.8745C74.4848 59.1557 76.5003 61.9447 76.5003 61.9447C76.5003 61.9447 73.8285 59.062 73.102 59.5541C72.3755 60.0697 76.8753 67.5929 76.8753 67.5929C76.8753 67.5929 71.977 59.8588 69.9615 61.1478C73.1489 68.132 71.9536 69.1163 71.9536 69.1163C71.9536 69.1163 71.5552 62.015 67.5944 62.2025C65.6023 62.2962 68.5319 67.4992 68.5319 67.4992C68.5319 67.4992 65.8601 62.765 64.0555 62.8587C67.36 69.1397 66.1882 71.6709 66.1882 71.6709C66.1882 71.6709 66.7272 66.3039 62.2508 63.3274C63.9617 64.8508 61.1727 71.6709 61.1727 71.6709C61.1727 71.6709 63.6102 61.6166 59.3681 63.5384C58.6885 63.843 59.3212 68.5538 59.3212 68.5538C59.3212 68.5538 58.4775 63.1634 57.1885 63.4446C56.4385 63.6087 52.4543 70.9209 52.4543 70.9209C52.4543 70.9209 55.712 63.0228 54.7277 63.3509C54.0011 63.5852 52.6418 66.8429 52.6418 66.8429C52.6418 66.8429 53.298 63.6321 52.6418 63.4446C51.9856 63.2571 48.2826 66.8429 48.2826 66.8429C48.2826 66.8429 51.0247 63.6321 50.5559 62.9525C49.8294 61.9447 49.0091 61.8978 48.0013 62.2962C46.5483 62.8587 44.603 65.507 44.603 65.507C44.603 65.507 46.5483 62.8118 46.2201 61.8275C45.6811 60.2104 40.0797 64.9446 40.0797 64.9446C40.0797 64.9446 43.3843 61.8275 42.6343 61.1478C41.8844 60.4916 37.7595 60.6791 36.4939 60.6791C32.6737 60.7025 31.3613 59.8119 30.2129 58.8979Z" fill="#D3D3D3"/>
</g>
<defs>
<clipPath id="clip0_688_15938">
<rect width="60" height="39.608" fill="white" transform="translate(30 40.5)"/>
</clipPath>
</defs>
</svg>
