<svg width="120" height="120" viewBox="0 0 120 120" fill="none" xmlns="http://www.w3.org/2000/svg">
<g clip-path="url(#clip0_688_15929)">
<path d="M39 59.97C39 62.0434 39.2907 64.0435 39.785 65.9627H68.9628C72.2722 65.9627 74.9553 63.2794 74.9553 59.97C74.9553 56.6592 72.272 53.9775 68.9628 53.9775H39.785C39.2907 55.8952 39 57.8967 39 59.97Z" fill="#72757E"/>
<path d="M79.3359 47.4772C80.1734 46.7057 80.9526 45.8772 81.6671 44.9888C77.2731 39.5132 70.5359 36 62.9704 36C53.5004 36 45.3506 41.5087 41.4629 49.4833H74.2227C76.1194 49.4833 77.9426 48.7627 79.3357 47.4772" fill="#FEC514"/>
<path d="M74.2229 70.457H41.4629C45.3522 78.4302 53.5006 83.9404 62.9704 83.9404C70.5359 83.9404 77.2731 80.4257 81.6671 74.9515C80.9534 74.0644 80.1741 73.2321 79.3359 72.4615C77.9426 71.1747 76.1194 70.457 74.2229 70.457Z" fill="#00BFB3"/>
</g>
<defs>
<clipPath id="clip0_688_15929">
<rect width="42.6683" height="48" fill="white" transform="translate(39 36)"/>
</clipPath>
</defs>
</svg>
