<svg width="120" height="120" viewBox="0 0 120 120" fill="none" xmlns="http://www.w3.org/2000/svg">
<path d="M68.634 50.8928L73.2918 46.235L73.6022 44.2737C65.1144 36.5558 51.622 37.4309 43.9704 46.0997C41.8453 48.5075 40.2685 51.5092 39.4277 54.6089L41.0959 54.3738L50.4113 52.8375L51.1305 52.1022C55.2743 47.5513 62.2806 46.9391 67.065 50.8111L68.634 50.8928Z" fill="#EA4335"/>
<path d="M79.9243 54.4744C78.8538 50.5319 76.6556 46.9875 73.5996 44.2764L67.0624 50.8136C68.4248 51.9268 69.5166 53.3349 70.2555 54.9316C70.9944 56.5283 71.3611 58.2719 71.3279 60.031V61.1914C74.5408 61.1914 77.1461 63.7963 77.1461 67.0095C77.1461 70.2228 74.5411 72.7624 71.3279 72.7624H59.6753L58.5312 74.0044V80.9829L59.6753 82.0778H71.3277C79.6855 82.1429 86.5139 75.4857 86.579 67.1279C86.5984 64.6337 86.001 62.1734 84.84 59.9658C83.679 57.7583 81.9904 55.8718 79.9243 54.4744Z" fill="#4285F4"/>
<path d="M48.046 82.0758H59.6822V72.7602H48.046C47.2222 72.76 46.4083 72.5817 45.66 72.2373L44.0092 72.7438L39.3187 77.4016L38.9102 78.987C41.5406 80.9731 44.7499 82.09 48.046 82.0758Z" fill="#34A853"/>
<path d="M48.0433 51.8585C39.6855 51.9085 32.9505 58.7245 33.0003 67.0825C33.014 69.3857 33.5533 71.6553 34.577 73.7185C35.6007 75.7817 37.0818 77.584 38.9075 78.9882L45.6573 72.2387C42.7291 70.9155 41.4276 67.4694 42.7506 64.5411C44.0735 61.6128 47.52 60.3113 50.448 61.6342C51.7384 62.2172 52.7719 63.2507 53.3548 64.5411L60.1046 57.7912C58.6879 55.9391 56.862 54.4398 54.7696 53.4106C52.6772 52.3814 50.3751 51.8502 48.0433 51.8585Z" fill="#FBBC05"/>
</svg>
