<svg width="120" height="120" viewBox="0 0 120 120" fill="none" xmlns="http://www.w3.org/2000/svg">
<g clip-path="url(#clip0_688_15996)">
<path d="M53.0229 49.3984L49.4462 49.9793L46.1831 51.41L43.4117 53.1533L40.7743 56.3717L39.2845 57.9499L37.8434 58.481L37.4625 57.5495L38.1288 56.5879L38.2785 55.2316L38.7247 55.2498L39.2123 55.6946L39.0807 54.313L38.5401 53.9502L38.557 53.4237L37.2764 54.1481L36.1169 55.5162L35.875 56.7387L36.3711 57.7178L36.8335 59.381L37.774 59.8263L38.7633 59.7778L39.7015 59.2327L39.0756 62.4066L39.7015 65.938L39.0126 67.5685L36.7561 69.9998L37.1572 71.4523L38.2262 73.1353L40.2417 74.5534L41.3107 74.7L42.4992 74.7401L41.7576 77.7844L44.4845 78.9017L47.8817 79.3489L49.044 78.5891L49.1334 76.5325L50.43 74.3867L50.5194 72.6881L53.6485 72.9117L56.5541 72.6436L53.6485 74.3867L54.1404 76.488L55.973 79.3489L57.761 80.1086L59.1916 79.5275L59.7725 78.3653L62.7677 76.0856L63.3488 76.577L68.0426 76.7561L68.9812 75.9964L69.0704 74.6548L68.7578 74.0742L68.534 70.4531L66.9696 67.324L67.2379 65.9382L68.1765 66.4301L70.814 68.8885L72.1104 68.9781L73.5407 68.3968L74.9714 67.324L75.6864 64.9995L79.8886 65.2676L82.4366 64.2845L84.4927 62.3621L85.968 59.5905L86.3253 56.3274L86.0125 52.5275L85.208 49.1305L84.4033 48.0577L83.286 47.7L81.3189 49.8455L79.5308 50.4714L77.9662 47.8786L76.4017 46.4483L75.5523 45.9119L72.1549 43.0956L69.4282 41.6203L66.7013 41.397L63.5276 41.9334L60.756 42.9612L58.8338 44.5259L57.3141 46.3589L55.7496 46.806L53.0225 49.3986" fill="#FFFF00"/>
<path d="M42.6497 57.4661C39.5866 61.0391 40.2671 65.372 41.116 69.6178C40.6631 68.4731 40.21 67.3284 39.7568 66.1838L39.2559 63.0353C39.3035 61.9621 39.351 60.8889 39.3991 59.8159L40.6866 56.7395L42.6183 53.8776L45.6232 51.3739L48.9141 50.0144L52.7777 49.5137L49.2003 53.5916C46.3279 54.523 44.6343 55.1508 42.6495 57.4661" fill="#FFFFCC"/>
<path d="M57.0716 46.5801C54.9423 48.6577 53.779 50.225 52.4236 52.6576C51.4544 54.3978 50.367 56.074 49.3476 57.7899C48.8323 58.6585 48.7836 59.3867 48.6294 60.3884L47.127 58.5997C47.3657 57.8842 47.6041 57.1688 47.8424 56.4535L50.2751 52.0894L55.4264 47.0095C55.9748 46.8663 56.5232 46.7235 57.0716 46.5801ZM67.5888 41.4292C65.883 42.0685 63.0506 42.2792 62.8541 44.2367C62.7142 45.6271 62.9589 46.3257 63.7969 47.7967C61.7271 45.6547 61.2151 45.9861 57.2149 46.6518L58.9318 44.2194L61.9367 42.359L65.8003 41.5005L67.589 41.4292" fill="#FFFFCC"/>
<path d="M72.2939 67.9091C72.8617 68.2597 72.8495 68.5136 72.7546 68.7539C73.2024 68.5746 73.6504 68.3953 74.0982 68.2167L74.9689 67.0475L75.615 65.382L74.7892 64.7612L71.1802 65.2219C71.0912 65.4649 71.0013 65.7081 70.9117 65.9515C70.9372 66.2968 70.9631 66.6425 70.9884 66.9878C71.1036 67.1928 71.219 67.3974 71.3344 67.6022C71.5134 67.6917 71.6923 67.7815 71.8716 67.8709C72.0127 67.8836 72.1532 67.8967 72.2939 67.9091ZM71.9581 61.7375C70.1489 62.2596 70.1631 62.4034 69.629 64.1982C70.3341 63.0668 70.8562 62.4958 71.9581 61.7375ZM83.9861 48.3075C83.6647 48.4562 83.3512 48.5275 83.1504 48.8217C82.7176 49.4549 82.3468 49.9875 81.6311 50.4319C81.2706 50.6559 80.8979 50.8011 80.5157 50.9202C80.1987 51.0187 80.008 50.9306 79.7382 51.1248C79.8985 51.1523 80.0586 51.1805 80.2187 51.2086H81.2776L82.583 50.4026L83.3508 49.5962L83.9861 48.3075ZM55.1706 52.3219C54.4592 54.2694 53.8371 55.9387 52.7593 57.7016C54.1405 56.2133 54.9781 54.9481 55.7693 53.2656C56.0768 52.6117 56.1348 51.8447 56.991 52.1299C57.0293 52.783 57.1673 53.4351 57.2057 54.0878C57.6683 50.7724 58.9726 49.3855 62.0047 48.0986L59.4325 48.406L57.0135 48.9434L55.8235 50.6709L55.1706 52.3219ZM61.0448 52.2451C61.6987 55.3225 62.6403 58.2764 63.0493 61.4028C63.3148 63.4343 63.3437 64.4102 62.3218 66.163C61.2047 66.0907 60.5112 66.2166 59.4306 66.5708C55.1291 67.9808 52.6618 70.0543 49.7637 65.8766L52.5395 67.1848C53.1991 67.0551 53.8587 66.9258 54.518 66.7956C55.6828 66.1177 56.8473 65.4394 58.0121 64.7612L60.7377 64.2233L61.6209 60.5382L60.968 55.6621C60.9427 54.8944 60.917 54.1266 60.8913 53.3588C60.9427 52.9876 60.994 52.6163 61.0448 52.2453M68.4545 71.2878C68.0932 73.7881 69.2867 75.1322 68.7925 75.8228C68.6526 76.0181 68.463 76.3594 68.2514 76.453C67.4952 76.7869 66.4556 76.3904 66.3815 76.5859H63.886L62.8879 76.1636L64.4235 74.3591C64.9225 73.2716 65.4218 72.1836 65.9207 71.0956L66.8804 67.7942H67.3797L68.4545 71.2878Z" fill="#CCCC00"/>
<path d="M64.2605 64.019C64.4632 65.1542 64.8153 65.424 65.3494 66.523C64.9939 68.3159 64.4229 70.4477 63.7357 72.0297C63.4459 72.6968 63.2122 73.0647 62.7009 73.5802C61.8382 74.4514 60.9664 75.2099 59.9884 75.965C59.2839 76.5077 58.7924 76.2356 57.9236 76.1126C57.554 76.7823 57.4522 77.1546 56.7719 77.4947C55.7261 78.0173 54.7902 76.8908 53.9693 76.2276C54.562 77.1536 55.1547 78.0789 55.747 79.0047C56.1566 79.3886 56.5662 79.7723 56.9757 80.1564L58.0124 80.3101L59.3942 79.4652C59.6376 79.0047 59.8806 78.5438 60.1238 78.0834C60.6357 77.6995 61.1478 77.3156 61.6594 76.9313C62.2867 76.394 62.9137 75.8564 63.5408 75.3189L64.7309 73.6296L65.8056 71.6333C66.2667 70.2513 66.7274 68.8691 67.1882 67.4871C67.2264 66.9623 67.2646 66.4377 67.3032 65.9127C66.7274 65.6571 66.1515 65.4008 65.5755 65.1449C65.1532 64.7484 64.6828 64.4158 64.2605 64.019ZM50.4873 72.0172C52.4249 72.0172 54.4713 71.9097 56.2463 71.0957C56.7483 70.3427 57.2442 69.7272 57.8586 69.0613C57.2994 70.1176 57.1239 70.7145 56.9757 71.9021L56.3998 72.7468C54.9408 72.785 53.482 72.8234 52.023 72.862C51.5493 72.8105 51.076 72.7595 50.6024 72.7085C50.5512 72.6568 50.5001 72.6057 50.4489 72.5547C50.462 72.3754 50.4746 72.1963 50.4873 72.0172ZM50.2188 70.6736L50.0681 69.3102C49.7372 71.303 49.8167 72.6386 48.8996 74.4237C48.2145 75.2172 47.371 75.9395 46.4049 76.3261C46.4866 76.8155 46.511 77.1213 46.4636 77.4801C46.2934 78.771 43.7116 78.2006 42.6493 78.1492L47.7614 79.4654L48.9131 79.0047C49.0413 78.2626 49.1694 77.52 49.2972 76.7779L50.3721 74.7817L50.564 73.553L50.2185 70.6738M47.3389 59.4245C47.2856 60.3938 47.2229 60.7977 47.6503 61.6532C48.1934 62.7408 48.8604 63.7629 49.4505 64.8378L49.6425 62.6878C48.8749 61.5999 48.1069 60.5123 47.3391 59.4248M39.458 66.744C39.2916 67.0975 39.1258 67.4515 38.9593 67.8052C39.4166 69.346 39.8235 70.322 40.6944 71.6679C40.5426 72.2132 40.4291 72.4518 40.0802 72.8962C39.3137 72.7785 38.633 72.7443 37.8562 72.7468C38.7136 73.4119 39.571 74.0778 40.4285 74.7433C40.8507 74.6661 41.2732 74.5893 41.6955 74.5127L42.9626 73.2459L41.1581 70.4431C40.5911 69.2102 40.0245 67.9769 39.458 66.744ZM83.9919 47.7979C84.5142 50.147 85.1879 52.3152 85.1252 54.7215C85.0485 57.6734 84.4733 61.4024 81.7379 63.1825C78.6748 65.1762 75.0789 64.2331 71.7182 63.3788L75.8262 65.0682C77.1059 65.1323 78.3858 65.1964 79.6656 65.2601C80.5358 65.0043 81.4061 64.7484 82.276 64.4923C82.9544 63.9292 83.6327 63.3664 84.3111 62.803L85.8466 59.5783L86.4225 55.8541C86.2691 54.6381 86.1151 53.4226 85.9618 52.2068L85.1172 48.598C84.7422 48.3311 84.3672 48.0643 83.9919 47.7979ZM38.2797 54.7999C36.8893 55.705 36.343 56.1024 36.4955 57.7799L36.911 59.287L37.5001 59.6857L38.2278 59.9282L39.5445 59.6163C39.7699 58.9175 39.995 58.2189 40.2201 57.5201L38.3491 58.4384H37.9161C37.7544 58.1901 37.5927 57.9417 37.4309 57.6934L38.0201 56.8272L38.3318 55.1813C38.4647 55.2216 38.5976 55.2623 38.7303 55.3024C38.8921 55.4298 39.0536 55.5567 39.2154 55.6835L39.146 54.8174L38.817 54.2631C38.7073 54.1703 38.5976 54.0783 38.4879 53.9857L38.2797 54.7999ZM69.4783 41.582C70.7127 42.7282 72.2273 43.7242 73.2145 45.1248C73.5965 45.6669 74.0209 45.9443 73.2082 46.7101C74.0669 46.4648 74.3862 46.4914 75.0738 46.5747C76.3246 46.7262 77.497 48.5043 77.5717 49.7783C77.5569 49.8975 77.2243 50.1681 76.2571 50.4352C76.2382 50.4723 75.7113 50.363 75.7243 50.3989C75.8249 50.6737 75.9591 50.7159 76.1643 50.8444C76.2086 51.1502 76.2373 51.6221 76.4457 51.9566C77.0542 51.9456 77.6491 52.0121 78.2449 52.13C78.4453 52.4626 78.4154 52.7952 78.3985 53.1281L79.0895 53.0131C79.0258 52.4883 78.9617 51.9638 78.8978 51.439C79.1024 51.0935 79.307 50.7478 79.512 50.4027L78.6288 48.406C78.0659 47.8686 77.5029 47.3309 76.9395 46.7935L76.7771 46.7854C76.1438 46.3968 75.5105 46.0081 74.8772 45.6194L71.7787 43.0845L69.4783 41.582ZM71.5574 51.0416C71.4922 51.1555 71.394 51.3373 71.268 51.4634C71.7821 51.9496 72.0358 52.2753 72.2191 52.9631C71.6378 53.2515 71.0569 53.5402 70.4758 53.8284L69.0005 55.2427C68.3532 54.8942 68.192 54.6267 67.8788 53.9623C67.5139 54.0591 67.1686 54.1522 66.8674 54.0414C67.0585 54.0429 67.1758 53.9952 67.3669 53.8771L68.3055 52.902C68.8582 52.4835 69.4108 52.0646 69.9634 51.6463L71.0487 51.2926C71.1868 51.2358 71.4193 51.0985 71.5574 51.0416Z" fill="#CCCC00"/>
<path d="M73.1621 52.776C71.3131 53.7716 69.5426 54.7726 68.5972 56.6632C68.5972 54.2635 71.0066 53.2071 73.1619 52.7758M68.2302 48.0552C66.8572 48.9913 65.8865 50.8804 66.0085 52.7214C65.5613 51.1272 65.7197 49.6209 67.0926 48.5199C67.3247 48.4074 67.556 48.2946 67.7879 48.1822C67.9353 48.14 68.0825 48.0978 68.2302 48.0552Z" fill="#CCCC00"/>
<path d="M86.705 52.4014C86.4561 50.8314 86.0433 49.3075 85.4704 48.2117C85.4008 48.0778 85.2949 47.9419 85.1637 47.8124C84.8792 47.5319 84.458 47.2661 84.0228 47.1166C83.5617 46.9579 83.0755 46.9257 82.6895 47.1273C82.5893 47.18 82.4961 47.2475 82.4132 47.3319C82.1633 47.585 81.9523 47.893 81.7412 48.2012C81.5064 48.5445 81.2702 48.8896 80.9876 49.1307C80.66 49.4108 80.2501 49.5808 79.8635 49.7361C79.7007 49.3413 79.5051 48.9609 79.2786 48.599C79.0143 48.1775 78.7133 47.7829 78.3822 47.3882C78.1399 47.0976 77.8653 46.8355 77.5635 46.6072C77.2779 46.3893 76.9856 46.2058 76.6452 45.9927C75.7325 45.4211 74.9552 44.7394 74.1625 44.0437C73.8022 43.7278 73.4384 43.4088 73.0826 43.1154C71.1947 41.5588 69.4339 40.8039 67.5507 40.6855C65.6804 40.5678 63.7055 41.0817 61.3737 42.0633C60.2481 42.5369 59.4124 43.0967 58.6843 43.7697C57.9889 44.4131 57.3985 45.1539 56.7495 46.0189C56.3719 46.0457 56.0374 46.1016 55.6959 46.2382C55.3196 46.3889 54.9407 46.6327 54.4868 47.0332C54.1709 47.312 53.8614 47.598 53.5587 47.8911C53.2814 48.1601 53.009 48.4342 52.7416 48.7131C50.6188 49.0542 48.8892 49.4307 47.3401 50.0305C45.756 50.6444 44.3597 51.4885 42.9256 52.76C42.3609 53.2588 41.8461 53.8115 41.3885 54.4101C40.9523 54.9815 40.579 55.5822 40.2514 56.2156C39.9645 56.5331 39.677 56.8535 39.3659 57.1338C39.0626 57.407 38.7392 57.6371 38.3769 57.7765L38.3771 57.7767C38.1664 57.8579 38.0793 57.9054 38.0698 57.9022C38.0592 57.8963 38.0533 57.8647 38.0385 57.8065C38.5589 57.3099 38.6407 56.5803 38.6888 55.856C38.7513 55.9307 38.8112 56.0226 38.8734 56.1188C38.9422 56.2249 39.0126 56.3344 39.097 56.4409L39.4503 56.8866L39.5743 56.3306C39.6785 55.8646 39.7566 55.2443 39.6351 54.7064C39.5566 54.3573 39.3946 54.0462 39.1124 53.8258C39.1394 53.7553 39.1649 53.6904 39.19 53.6263C39.2786 53.3995 39.3699 53.1669 39.4473 52.9471L39.6005 52.5115L39.1449 52.5904C38.5387 52.6958 37.236 53.4117 36.3184 54.3637C35.9778 54.7174 35.6848 55.1082 35.4926 55.5183C35.2927 55.945 35.203 56.3915 35.2806 56.8383C35.3481 57.2289 35.5437 57.6124 35.8987 57.9739C35.9634 58.2349 36.0231 58.4612 36.087 58.6654C36.1602 58.8976 36.2389 59.1054 36.3374 59.31C36.6044 59.8651 37.0301 60.2043 37.5228 60.3625C37.9187 60.4897 38.3566 60.496 38.7861 60.4019C38.6989 60.9135 38.6463 61.4304 38.6287 61.9491C38.6015 62.6737 38.6281 63.4741 38.7078 64.4031C38.7463 64.8348 38.8064 65.2643 38.888 65.6899C38.8078 65.9089 38.727 66.1283 38.6464 66.3472L38.2716 67.3675L37.4469 68.1848C37.1902 68.4386 36.9335 68.6929 36.677 68.9471C36.6559 68.9682 36.5692 69.0513 36.4907 69.127C35.9708 69.6274 35.8679 69.7267 36.0155 70.6071C36.1101 71.1706 36.294 71.7153 36.5603 72.2207C36.8156 72.7069 37.1581 73.1803 37.5977 73.6211C38.1461 74.1708 39.0451 74.8538 39.9863 75.2115C40.5241 75.4157 41.0785 75.5157 41.5988 75.4321C41.5722 75.5123 41.5465 75.592 41.5172 75.6726C41.4348 75.901 41.3434 76.1261 41.243 76.3471C40.6045 77.7467 41.2599 78.4775 42.2799 78.9426C42.7893 79.1747 43.3949 79.3324 43.9574 79.4792C44.0726 79.5088 44.1878 79.5391 44.3329 79.5784C44.9994 79.7585 46.1513 80.0895 47.2034 80.1559C48.3517 80.2285 49.3874 79.9914 49.665 78.9608C49.7747 78.5522 49.8386 78.2394 49.8645 77.9329C49.8883 77.6486 49.8793 77.3613 49.8459 77.0057C50.1733 76.2801 50.3121 76.0761 50.5515 75.7262C50.5983 75.657 50.6551 75.5743 50.6722 75.5481C50.9289 75.1678 51.0491 74.8979 51.0927 74.5939C51.1349 74.3005 51.0991 74.0082 51.0461 73.5614C51.0411 73.519 51.0335 73.457 51.0223 73.3749C51.6835 73.4608 52.3493 73.5064 53.016 73.5116C53.3505 73.5137 53.6849 73.5038 54.0192 73.4863C53.9338 73.53 53.85 73.5734 53.7585 73.6205L53.634 73.6844C52.7473 74.1404 52.7104 75.0042 52.9879 75.8928C53.2381 76.6941 53.7532 77.5123 54.0763 78.0099C54.7555 79.0567 55.4037 79.9429 56.1896 80.4244C57.0133 80.9292 57.9545 80.9887 59.1692 80.3312C59.7873 79.9967 59.9822 79.6556 60.2446 79.1957C60.3249 79.0555 60.4135 78.9026 60.5122 78.7517C60.7674 78.5826 61.403 78.0584 62.0267 77.5427C62.2391 77.3672 62.4513 77.1926 62.6907 76.9974C62.8556 77.1187 63.0548 77.2029 63.2954 77.2603C63.608 77.3351 63.9803 77.3689 64.4264 77.401C64.7603 77.4254 65.8492 77.4246 66.5526 77.4244C66.7699 77.4244 66.9502 77.4244 67.0584 77.425C67.7846 77.4294 68.3708 77.3913 68.8138 77.1402C69.2858 76.8726 69.5657 76.3986 69.6269 75.5486C69.6535 75.171 69.6585 74.9381 69.606 74.7004C69.5571 74.4777 69.4615 74.2758 69.2974 73.9805C69.2875 73.6132 69.2776 73.2458 69.2679 72.8784C69.2578 72.4888 69.2468 72.0988 69.2367 71.7092C69.2242 71.2498 69.1736 70.8765 69.0804 70.5093C68.988 70.1446 68.8559 69.7938 68.6792 69.3728C68.5693 69.1075 68.4653 68.8399 68.3674 68.57L68.1126 68.6632L68.1519 68.6489L68.3674 68.57V68.5689C68.2156 68.1593 68.0658 67.7604 67.8561 67.3337C67.8696 67.2515 67.8834 67.1629 67.8966 67.0684L68.3016 67.4586L68.8986 68.0338C69.3537 68.4723 69.7699 68.8712 70.2588 69.1593C70.7644 69.4578 71.3329 69.6309 72.069 69.5959C72.8398 69.5597 73.6645 69.235 74.3435 68.7341C75.0003 68.2491 75.5274 67.5953 75.7474 66.8716L75.9381 66.2438L76.0904 65.7429C77.1712 65.926 78.3313 65.985 79.4518 65.8678C80.533 65.7541 81.5775 65.4788 82.4784 64.9983C83.8026 64.2917 84.7955 63.251 85.509 62.0151H85.5095C86.3068 60.634 86.7533 59.0064 86.9229 57.3317C87.0589 55.9885 86.9847 54.1624 86.705 52.4014ZM72.702 63.6899C72.0792 63.4802 71.6461 63.1744 71.099 62.8295C71.2479 63.5009 71.3156 64.2109 71.1173 64.881C70.8026 65.9445 70.2943 67.6843 71.7381 68.0053C72.2876 68.1272 72.5369 68.1097 73.3125 67.7094C72.6847 67.8515 72.3681 67.817 71.9366 67.7368C71.5455 67.6649 71.3382 67.4166 71.2289 67.1236C71.3656 67.2221 71.5883 67.2757 71.9693 67.3675C73.0395 67.6256 74.0594 67.1101 74.2589 66.3681C74.3749 65.9344 74.3553 65.7066 74.6019 65.1156C74.8234 65.1841 75.0522 65.2464 75.2872 65.3033L74.8894 66.6003C74.5456 67.7225 73.2051 68.6273 72.0218 68.6065C70.9279 68.5873 70.2342 67.902 69.4788 67.2301C68.9587 66.7669 68.4579 66.3242 67.9618 65.8855C66.6003 65.4558 65.5089 64.9538 64.2452 64.0183C65.1446 65.0751 65.7544 65.6602 67.0086 66.186C66.8264 68.0464 66.1797 69.4031 65.6285 71.1836C65.3788 71.9885 63.4093 75.2147 62.8634 75.5292C62.4743 75.7534 60.0364 77.8066 59.578 78.0776C59.2363 78.5311 58.9366 79.158 58.423 79.4292C56.8583 80.2567 55.8528 78.6724 55.0108 77.3345C54.6275 76.7249 53.5627 74.9691 54.4908 74.4773C55.3683 74.0126 55.8598 73.6806 56.7551 73.0925C56.8868 73.3323 57.1122 73.5639 57.2593 73.8033L57.1618 73.0174C57.1028 72.5428 57.1053 72.1575 57.1428 71.6799C57.1795 71.2176 57.2158 70.7552 57.2521 70.2926C57.1173 70.7628 56.8482 71.2327 56.7138 71.7025C56.66 71.8906 56.6155 72.0425 56.5898 72.1834C54.5809 72.5939 52.5865 72.6194 50.5772 72.261C50.449 71.5171 50.2929 70.7419 50.1619 70.1861C50.1223 70.8084 50.1478 72.5291 50.1446 73.4926C50.1421 74.2389 50.1109 74.4946 49.7257 75.1295C49.3654 75.7239 49.2129 75.8588 48.7082 76.8633C48.7504 77.4971 48.751 77.9158 48.5827 78.5174C48.3028 79.5174 45.4778 78.7427 44.7328 78.5385C43.8151 78.2875 41.918 77.9141 42.3951 76.6908C42.8148 75.6142 43.081 74.4789 43.2863 72.9725C41.6049 70.5504 40.0415 67.2314 39.7414 64.2906C39.5083 62.0073 39.6481 60.6019 40.1421 59.2051C40.9251 56.9921 42.0207 55.0764 43.7781 53.5339C46.149 51.4535 48.365 50.6182 51.8352 50.0898C51.0008 51.0242 50.1752 52.0118 49.2754 53.0709C48.3644 54.143 47.8233 55.2259 47.2448 56.3989C46.4458 58.0187 46.4631 58.635 47.5221 60.0571C48.4348 61.2826 48.9276 61.8342 49.3262 63.0333C48.9972 63.7116 48.8774 64.2852 48.7668 65.2113C49.8843 66.4333 50.715 67.2702 51.8 67.528C52.8646 67.7811 53.7532 67.7322 54.7058 67.2453C56.8207 66.1641 58.7777 64.7678 61.1636 64.71C62.2674 61.9966 62.1558 59.7291 61.6259 57.1036C61.264 55.3105 61.1186 53.6128 61.0062 51.7848C60.5588 53.6674 60.4747 55.3228 60.8067 57.1981C61.207 59.4578 61.5181 61.9546 60.4049 63.9407C58.2473 64.1059 56.3985 65.4185 54.4541 66.4255C53.6724 66.8304 52.8587 66.8699 51.9936 66.6324C51.1906 66.4117 50.6487 65.8804 49.7837 64.8827C49.77 63.881 49.9961 63.4189 50.4562 62.5114C51.1953 61.0546 52.0109 59.6985 52.9061 58.2652C51.8101 59.5882 50.7715 60.6937 49.9088 62.024C49.5789 61.0845 49.1073 60.6074 48.3262 59.5494C47.5633 58.516 47.4835 58.0638 48.0541 56.8678C48.6276 55.6662 49.114 54.61 50.0904 53.5558C51.7772 51.734 53.3227 49.7066 55.1675 47.9124C56.1692 46.9383 56.5759 46.9719 57.9045 46.7706C59.1055 46.5884 60.2779 46.3587 61.5025 46.0744C60.3182 46.1847 59.1732 46.2252 58.0201 46.2536L57.9842 46.2547C59.119 44.8058 59.7773 43.9984 61.6198 43.1977C66.1565 41.2276 69.039 41.0146 72.6027 44.01C73.5263 44.7866 74.3329 45.5403 75.2693 46.21C74.9297 46.2391 74.6371 46.3001 74.25 46.4519C74.7211 46.3621 75.265 46.4511 75.754 46.5405C75.8911 46.6295 76.0324 46.7164 76.1765 46.8014C76.8377 47.191 77.213 47.4062 77.6601 48.029C78.1326 48.6873 78.5266 49.3452 78.8736 50.0704C78.6462 49.989 78.4553 49.9204 78.2853 49.87C78.0957 49.7831 77.8876 49.7444 77.6795 49.7573C77.4713 49.7701 77.2695 49.8342 77.0921 49.9439L77.0647 49.9565C76.6989 50.1347 76.1324 50.3377 75.7533 50.3993C75.9468 50.4659 76.3745 50.491 76.5762 50.4111C76.6032 50.4005 76.6306 50.3921 76.6589 50.3855C76.5653 50.5447 76.5077 50.7224 76.4901 50.9061C76.4665 51.1487 76.5135 51.393 76.6253 51.6096L76.6264 51.6119C76.6605 51.6925 76.7082 51.7665 76.7605 51.8201C76.5874 51.884 76.4104 51.957 76.2279 52.0361C77.0736 51.9074 77.8358 51.8852 78.6608 51.9939C78.7152 52.254 78.7701 52.5296 78.8211 52.81L78.5144 52.834C78.5062 52.8346 78.4979 52.8353 78.4897 52.8361C78.0993 52.5242 77.6644 52.5767 77.0702 52.7123C75.2629 53.1242 75.6875 54.1382 74.8565 55.6662C75.7196 54.6111 75.6555 53.5071 77.0622 53.1738C77.3899 53.0964 77.6131 52.9992 77.835 53.0325C77.4357 53.2333 77.0904 53.5664 76.9533 53.953C76.5673 55.0433 76.8069 55.9619 76.3828 56.9802C76.908 56.0699 76.9398 55.1814 77.4098 54.2234C77.5785 53.8796 78.2046 53.3291 78.5889 53.3206L78.9053 53.3137C78.9981 53.9195 79.0544 54.5212 79.0185 55.0203C78.9529 55.9311 78.7163 57.2829 78.5747 57.8003C79.0506 57.1884 79.2674 55.8927 79.4765 54.9802C79.6941 54.0306 79.6391 52.891 79.4486 51.8705C79.1871 50.4705 80.629 50.6983 81.4659 50.0386C82.0812 49.5534 82.505 48.7791 83.069 48.2303C83.6286 47.6861 84.5097 48.4857 84.7297 49.0175C85.6839 51.3265 86.1186 54.9589 85.8668 57.2865C85.5837 59.8982 84.3223 62.7494 82.0188 64.0352C79.0822 65.6741 75.6198 64.6728 72.702 63.6899ZM68.5294 75.2898C68.4337 76.3674 68.0745 76.4385 67.1282 76.422C66.6984 76.4144 64.9865 76.4066 64.5519 76.3693C63.9381 76.3164 63.5935 76.2615 63.406 76.1215C64.3703 75.4136 66.0088 72.4909 66.3284 71.4846C66.6663 70.4215 67.0361 69.4938 67.3111 68.5113C67.4377 68.922 67.5374 69.3289 67.7216 69.7651C68.0289 70.4941 68.1793 70.9444 68.2012 71.7263L68.2708 74.2012C68.5351 74.6635 68.5763 74.7622 68.5294 75.2895V75.2898ZM39.507 67.1264C40.1194 69.2447 41.1626 71.3264 42.3191 73.0765V73.1071C42.2464 73.4081 42.1626 73.7008 41.9869 73.936C41.1601 75.0421 39.0575 73.4186 38.4488 72.7976C37.7835 72.118 37.3383 71.3137 37.2322 70.559C37.155 70.0089 37.23 69.9954 37.6139 69.6061L39.1668 68.034L39.507 67.1264ZM38.3374 53.8041C38.1805 54.1409 38.0691 54.3964 37.9934 54.6592C37.6637 55.7978 38.1425 56.814 37.1088 57.6394C37.5945 58.6194 37.5722 59.0104 38.7021 58.5576C39.1379 58.3825 39.4973 58.1378 39.8184 57.848C39.663 58.2517 39.5201 58.6601 39.39 59.0727C39.3676 59.1423 39.3463 59.2125 39.3258 59.2821C38.5178 59.6251 37.4549 59.843 37.0482 58.9938C36.8508 58.5814 36.7392 58.1768 36.5952 57.6559C35.2644 56.2772 37.2537 54.4569 38.3374 53.8041ZM38.9915 55.2645C38.8272 55.1 38.6958 54.9889 38.4834 55.0129C38.5013 54.8737 38.5252 54.7393 38.5587 54.6132C38.5756 54.5482 38.5937 54.4845 38.6131 54.4206C38.8886 54.5811 38.9611 54.872 38.9915 55.2643V55.2645ZM78.8947 50.1149C78.9449 50.2208 78.9943 50.3286 79.0428 50.4376C79.0027 50.4672 78.9645 50.4982 78.9289 50.5309C78.8633 50.3779 78.7687 50.239 78.6502 50.1221C78.7296 50.1191 78.811 50.1166 78.8949 50.1149H78.8947ZM40.4752 56.373L40.475 56.3728V56.373H40.4752ZM50.7051 73.0592H50.7055H50.7051ZM62.6991 76.6399H62.6989H62.6991ZM67.5737 67.3744H67.5741L67.5739 67.3746L67.5737 67.3744ZM38.475 58.0303H38.4747L38.4657 58.0071L38.4747 58.0305L38.475 58.0303ZM85.2705 61.8772L85.2768 61.881L85.2705 61.8772ZM33.7792 57.6987C33.991 55.301 34.4572 54.2658 36.1606 52.4613C34.0239 53.9669 33.4907 54.6512 33.7792 57.6985" fill="black"/>
<path d="M33.2281 55.7403C33.4633 54.6612 33.6827 54.2539 34.3481 53.3682C33.2684 54.1223 33.1279 54.4319 33.2279 55.7403M58.2971 40.697C57.0169 41.0056 56.7729 41.2423 56.389 42.4971C57.0015 41.5783 57.3542 41.2794 58.2971 40.697Z" fill="black"/>
<path d="M60.3153 40.5144C57.7764 41.1366 57.0303 41.5791 56.187 44.5218C57.259 42.3665 58.0706 41.573 60.3153 40.5142M65.7835 51.2414C66.0541 50.0425 66.535 48.8872 68.3969 47.9933C65.929 48.6113 65.4662 49.648 65.7835 51.2416M81.4867 51.3243C82.9483 50.8033 83.6528 49.6282 84.0027 48.2458C83.4307 49.4044 82.5479 50.3734 81.3488 50.967C80.7052 51.2855 80.2941 51.1743 79.5755 51.1062C80.3064 51.3161 80.7694 51.5799 81.4867 51.3243ZM71.5304 52.4992C71.343 52.1062 71.0087 51.8025 70.5996 51.6536C70.9582 51.4622 71.3102 51.2612 71.5849 51.0113C70.7802 51.3838 69.8434 51.2929 69.1529 51.7592C68.5447 52.1701 67.7052 53.472 67.0872 54.024C67.5348 53.8502 67.9662 53.5496 68.3633 53.233C68.3655 53.5337 68.4496 53.8282 68.6065 54.0847C68.7635 54.3412 68.9874 54.5502 69.2541 54.689C69.0256 54.9883 68.8437 55.3204 68.7145 55.6741C69.8913 54.2794 71.5975 53.226 73.2018 52.7757C72.7534 52.7694 72.2225 52.8531 71.6817 53.0309C71.6615 52.8464 71.6104 52.6667 71.5304 52.4992ZM69.8373 63.0376C69.7802 63.3987 69.7017 63.8476 69.6445 64.2089C69.7974 63.8001 69.9814 63.3251 70.1592 62.9353C70.3478 62.5227 70.4539 62.4839 70.854 62.2663C71.1377 62.1119 71.6528 61.8997 71.9365 61.7453C71.6446 61.7944 71.1215 61.9018 70.8295 61.9509C70.0499 62.0825 69.9582 62.2698 69.8373 63.0376ZM56.5197 49.0946C55.6148 49.9889 54.7358 53.0579 54.4551 54.286C54.8974 53.2659 56.0044 50.4124 56.8536 49.6866C57.0881 49.486 57.252 49.3629 57.4281 49.2732C56.8202 50.2926 56.8649 50.5462 57.0782 51.9119C57.2594 50.5234 57.7395 49.987 58.5273 48.9511C59.3908 48.7345 60.1991 48.4748 61.085 48.1293C60.0872 48.2421 59.0884 48.3458 58.0888 48.4403C57.2497 48.5198 57.1145 48.5063 56.5194 49.0946" fill="black"/>
<path d="M68.8466 54.3188C68.7676 54.1526 68.7577 53.9618 68.8193 53.7883C68.8808 53.6148 69.0087 53.4729 69.1748 53.3936C69.2654 53.3507 69.3641 53.3278 69.4644 53.3265C69.5646 53.3252 69.6639 53.3456 69.7556 53.3862C69.8472 53.4267 69.929 53.4866 69.9955 53.5617C70.0619 53.6368 70.1113 53.7253 70.1404 53.8212C69.8101 54.0665 69.5074 54.3551 69.2535 54.6896C69.0826 54.6208 68.9312 54.496 68.8464 54.3188M76.5736 51.3295C76.6014 51.0437 76.845 50.833 77.1308 50.8606C77.2683 50.8742 77.3949 50.9416 77.4828 51.0482C77.5707 51.1548 77.6128 51.2919 77.5999 51.4295C77.594 51.4885 77.5781 51.546 77.5529 51.5997C77.2914 51.6446 77.0298 51.721 76.7602 51.8201C76.6476 51.7047 76.5577 51.4942 76.5736 51.3295Z" fill="#FFFFCC"/>
</g>
<defs>
<clipPath id="clip0_688_15996">
<rect width="54" height="40.4984" fill="white" transform="translate(33 40.5)"/>
</clipPath>
</defs>
</svg>
