<svg width="80" height="80" viewBox="0 0 80 80" fill="none" xmlns="http://www.w3.org/2000/svg">
<g clip-path="url(#clip0_270_10697)">
<path d="M35.348 32.9322L32.9635 33.3194L30.7881 34.2733L28.9405 35.4355L27.1822 37.581L26.189 38.6332L25.2283 38.9872L24.9743 38.3663L25.4185 37.7252L25.5184 36.821L25.8158 36.8331L26.1409 37.1297L26.0532 36.2086L25.6927 35.9667L25.704 35.6157L24.8503 36.0986L24.0773 37.0107L23.916 37.8257L24.2468 38.4785L24.555 39.5873L25.182 39.8841L25.8415 39.8518L26.467 39.4884L26.0498 41.6043L26.467 43.9586L26.0077 45.0456L24.5034 46.6665L24.7708 47.6348L25.4835 48.7568L26.8271 49.7022L27.5398 49.7999L28.3322 49.8266L27.8378 51.8562L29.6557 52.601L31.9205 52.8992L32.6953 52.3926L32.7549 51.0216L33.6193 49.5911L33.679 48.4587L35.765 48.6077L37.7021 48.429L35.765 49.5911L36.093 50.9919L37.3147 52.8992L38.5067 53.4057L39.4604 53.0183L39.8477 52.2435L41.8445 50.7236L42.2319 51.0513L45.3611 51.1707L45.9868 50.6642L46.0463 49.7698L45.8379 49.3827L45.6887 46.9687L44.6457 44.8826L44.8246 43.9587L45.4504 44.2866L47.2087 45.9256L48.0729 45.9853L49.0265 45.5978L49.9803 44.8826L50.457 43.333L53.2584 43.5117L54.9571 42.8563L56.3278 41.5746L57.3113 39.7269L57.5495 37.5515L57.341 35.0183L56.8047 32.7536L56.2682 32.0384L55.5234 31.7999L54.2119 33.2303L53.0199 33.6475L51.9768 31.919L50.9338 30.9655L50.3675 30.6079L48.1026 28.7303L46.2848 27.7468L44.4669 27.5979L42.3511 27.9555L40.5034 28.6407L39.2219 29.6839L38.2087 30.9058L37.1658 31.2039L35.3477 32.9323" fill="#FFFF00"/>
<path d="M28.4335 38.3107C26.3914 40.6927 26.845 43.5813 27.411 46.4118C27.109 45.6487 26.807 44.8856 26.5049 44.1225L26.1709 42.0235C26.2027 41.308 26.2343 40.5926 26.2664 39.8772L27.1247 37.8263L28.4125 35.9184L30.4158 34.2492L32.6097 33.3429L35.1855 33.0091L32.8006 35.7277C30.8856 36.3487 29.7566 36.7672 28.4333 38.3107" fill="#FFFFCC"/>
<path d="M38.0478 31.0533C36.6282 32.4384 35.8527 33.4833 34.9491 35.105C34.3029 36.2651 33.578 37.3826 32.8984 38.5266C32.5549 39.1056 32.5224 39.5911 32.4196 40.2589L31.418 39.0664C31.5772 38.5894 31.736 38.1124 31.895 37.6356L33.5167 34.7262L36.9509 31.3396C37.3165 31.2442 37.6821 31.149 38.0478 31.0533ZM45.0592 27.6194C43.922 28.0456 42.0338 28.1861 41.9027 29.4911C41.8095 30.418 41.9726 30.8838 42.5313 31.8644C41.1514 30.4364 40.8101 30.6574 38.1432 31.1012L39.2879 29.4795L41.2912 28.2393L43.8669 27.6669L45.0593 27.6194" fill="#FFFFCC"/>
<path d="M48.1969 45.2728C48.5754 45.5065 48.5673 45.6758 48.504 45.836C48.8025 45.7165 49.1012 45.5969 49.3998 45.4778L49.9802 44.6984L50.411 43.5881L49.8604 43.1742L47.4544 43.4813C47.3951 43.6433 47.3352 43.8055 47.2754 43.9677C47.2924 44.1979 47.3097 44.4284 47.3266 44.6586C47.4034 44.7953 47.4803 44.9317 47.5572 45.0682C47.6766 45.1278 47.7959 45.1877 47.9154 45.2474C48.0095 45.2558 48.1031 45.2645 48.1969 45.2728ZM47.973 41.1584C46.7669 41.5065 46.7764 41.6024 46.4203 42.7989C46.8904 42.0446 47.2384 41.664 47.973 41.1584ZM55.9917 32.205C55.7774 32.3042 55.5685 32.3517 55.4346 32.5479C55.146 32.97 54.8988 33.3251 54.4217 33.6214C54.1814 33.7707 53.9329 33.8674 53.6781 33.9469C53.4668 34.0126 53.3396 33.9538 53.1598 34.0833C53.2667 34.1016 53.3734 34.1204 53.4801 34.1391H54.186L55.0563 33.6018L55.5682 33.0642L55.9917 32.205ZM36.7814 34.8813C36.3071 36.1797 35.8924 37.2925 35.1738 38.4678C36.0946 37.4756 36.653 36.6322 37.1805 35.5104C37.3855 35.0745 37.4242 34.5632 37.9949 34.7533C38.0205 35.1887 38.1125 35.6235 38.1381 36.0586C38.4465 33.8483 39.3161 32.9237 41.3375 32.0658L39.6226 32.2707L38.01 32.629L37.2166 33.7807L36.7814 34.8813ZM40.6975 34.8301C41.1334 36.8818 41.7612 38.851 42.0338 40.9353C42.2109 42.2896 42.2301 42.9402 41.5488 44.1088C40.8041 44.0605 40.3417 44.1445 39.6214 44.3806C36.7537 45.3206 35.1089 46.7029 33.1768 43.9178L35.0273 44.7899C35.467 44.7035 35.9067 44.6173 36.3463 44.5305C37.1228 44.0785 37.8992 43.6263 38.6757 43.1742L40.4928 42.8156L41.0815 40.3589L40.6463 37.1082C40.6295 36.5963 40.6123 36.0845 40.5951 35.5726C40.6295 35.3251 40.6636 35.0776 40.6975 34.8303M45.6373 47.5253C45.3965 49.1922 46.1921 50.0882 45.8626 50.5486C45.7694 50.6788 45.643 50.9063 45.5019 50.9688C44.9978 51.1914 44.3047 50.927 44.2553 51.0573H42.5917L41.9263 50.7758L42.95 49.5728C43.2827 48.8478 43.6155 48.1225 43.9481 47.3972L44.5879 45.1962H44.9207L45.6373 47.5253Z" fill="#CCCC00"/>
<path d="M42.841 42.6794C42.9761 43.4362 43.2108 43.616 43.5669 44.3487C43.3299 45.5439 42.9493 46.9652 42.4911 48.0198C42.2979 48.4646 42.1421 48.7098 41.8013 49.0535C41.2261 49.6343 40.6449 50.1399 39.9929 50.6433C39.5232 51.0052 39.1956 50.8238 38.6164 50.7418C38.37 51.1883 38.3021 51.4364 37.8486 51.6631C37.1514 52.0116 36.5275 51.2605 35.9802 50.8184C36.3753 51.4357 36.7705 52.0526 37.1653 52.6698C37.4384 52.9257 37.7115 53.1815 37.9844 53.4376L38.6756 53.5401L39.5968 52.9768C39.759 52.6698 39.921 52.3626 40.0832 52.0556C40.4245 51.7997 40.7659 51.5437 41.1069 51.2875C41.5251 50.9294 41.9432 50.5709 42.3612 50.2126L43.1546 49.0864L43.871 47.7556C44.1784 46.8342 44.4856 45.9128 44.7928 44.9914C44.8183 44.6416 44.8437 44.2918 44.8694 43.9418C44.4856 43.7714 44.1017 43.6006 43.7176 43.43C43.4361 43.1656 43.1225 42.9439 42.841 42.6794ZM33.6588 48.0115C34.9506 48.0115 36.3149 47.9398 37.4982 47.3971C37.8328 46.8951 38.1634 46.4848 38.5731 46.0409C38.2003 46.7451 38.0833 47.143 37.9844 47.9347L37.6005 48.4979C36.6279 48.5234 35.6553 48.549 34.6827 48.5747C34.3668 48.5404 34.0513 48.5064 33.7356 48.4723C33.7014 48.4379 33.6674 48.4038 33.6332 48.3698C33.642 48.2503 33.6504 48.1309 33.6588 48.0115ZM33.4798 47.1158L33.3794 46.2068C33.1588 47.5354 33.2118 48.4258 32.6004 49.6158C32.1437 50.1449 31.5813 50.6263 30.9373 50.8841C30.9917 51.2103 31.008 51.4142 30.9764 51.6534C30.8629 52.514 29.1417 52.1338 28.4335 52.0995L31.8416 52.9769L32.6094 52.6698C32.6949 52.1751 32.7802 51.68 32.8655 51.1853L33.5821 49.8545L33.71 49.0354L33.4797 47.1159M31.5599 39.6164C31.5244 40.2625 31.4826 40.5318 31.7675 41.1022C32.1296 41.8272 32.5742 42.5086 32.9677 43.2252L33.0956 41.7919C32.5839 41.0666 32.0719 40.3416 31.5601 39.6165M26.306 44.496C26.195 44.7317 26.0845 44.9677 25.9735 45.2035C26.2784 46.2307 26.5497 46.8814 27.1303 47.7786C27.029 48.1421 26.9534 48.3012 26.7208 48.5975C26.2098 48.519 25.756 48.4962 25.2381 48.4979C25.8097 48.9413 26.3813 49.3852 26.953 49.8289C27.2345 49.7774 27.5161 49.7262 27.7977 49.6752L28.6424 48.8306L27.4394 46.9621C27.0614 46.1401 26.6837 45.3179 26.306 44.496ZM55.9953 31.8653C56.3434 33.4314 56.7926 34.8768 56.7508 36.481C56.6996 38.449 56.3162 40.935 54.4926 42.1217C52.4505 43.4508 50.0532 42.8221 47.8128 42.2526L50.5515 43.3788C51.4046 43.4215 52.2579 43.4643 53.111 43.5068C53.6912 43.3362 54.2714 43.1656 54.8513 42.9949C55.3036 42.6195 55.7558 42.2443 56.208 41.8687L57.2317 39.7189L57.6156 37.2361C57.5134 36.4254 57.4107 35.6151 57.3085 34.8045L56.7455 32.3987C56.4954 32.2208 56.2454 32.0429 55.9953 31.8653ZM25.5205 36.5333C24.5935 37.1367 24.2293 37.4016 24.331 38.52L24.608 39.5247L25.0007 39.7905L25.4859 39.9522L26.3636 39.7442C26.5139 39.2783 26.664 38.8126 26.814 38.3467L25.5667 38.959H25.278C25.1703 38.7934 25.0625 38.6278 24.9546 38.4623L25.3474 37.8848L25.5552 36.7875C25.6438 36.8144 25.7324 36.8415 25.8208 36.8683C25.9287 36.9532 26.0364 37.0378 26.1443 37.1224L26.098 36.545L25.8786 36.1754C25.8055 36.1136 25.7324 36.0522 25.6593 35.9905L25.5205 36.5333ZM46.3195 27.7214C47.1424 28.4855 48.1522 29.1495 48.8103 30.0832C49.065 30.4446 49.3479 30.6295 48.8061 31.1401C49.3786 30.9766 49.5914 30.9943 50.0499 31.0498C50.8837 31.1508 51.6653 32.3362 51.7151 33.1856C51.7052 33.265 51.4835 33.4454 50.8387 33.6235C50.8261 33.6482 50.4748 33.5754 50.4835 33.5993C50.5506 33.7825 50.64 33.8106 50.7769 33.8963C50.8064 34.1002 50.8255 34.4147 50.9645 34.6377C51.3701 34.6304 51.7667 34.6747 52.1639 34.7533C52.2975 34.9751 52.2776 35.1969 52.2663 35.4187L52.727 35.3421C52.6845 34.9923 52.6418 34.6425 52.5992 34.2927C52.7356 34.0623 52.872 33.8319 53.0086 33.6018L52.4199 32.2707C52.0446 31.9124 51.6692 31.554 51.2936 31.1957L51.1854 31.1903C50.7632 30.9312 50.341 30.6721 49.9188 30.413L47.8531 28.723L46.3195 27.7214ZM47.7056 34.0277C47.6621 34.1037 47.5966 34.2249 47.5127 34.309C47.8554 34.6331 48.0245 34.8502 48.1467 35.3088C47.7592 35.501 47.3719 35.6935 46.9845 35.8856L46.001 36.8285C45.5694 36.5962 45.462 36.4179 45.2532 35.9749C45.0099 36.0394 44.7797 36.1015 44.5789 36.0276C44.7063 36.0286 44.7845 35.9968 44.9119 35.9181L45.5377 35.268C45.9061 34.989 46.2745 34.7097 46.6429 34.4309L47.3664 34.1951C47.4585 34.1573 47.6135 34.0657 47.7056 34.0277Z" fill="#CCCC00"/>
<path d="M48.7744 35.1839C47.5418 35.8476 46.3614 36.515 45.7311 37.7754C45.7311 36.1756 47.3374 35.4713 48.7743 35.1838M45.4865 32.0367C44.5712 32.6608 43.924 33.9202 44.0053 35.1475C43.7072 34.0847 43.8128 33.0805 44.7281 32.3465C44.8828 32.2715 45.037 32.1963 45.1916 32.1214C45.2899 32.0932 45.388 32.0651 45.4865 32.0367Z" fill="#CCCC00"/>
<path d="M57.8027 34.9343C57.6368 33.8877 57.3616 32.8717 56.9796 32.1412C56.9332 32.0519 56.8626 31.9614 56.7752 31.875C56.5855 31.688 56.3047 31.5108 56.0146 31.4111C55.7072 31.3054 55.383 31.2838 55.1257 31.4183C55.0589 31.4534 54.9968 31.4984 54.9415 31.5547C54.7749 31.7234 54.6342 31.9287 54.4935 32.1342C54.337 32.3631 54.1795 32.5932 53.9911 32.7539C53.7727 32.9406 53.4994 33.054 53.2417 33.1575C53.1332 32.8943 53.0027 32.6407 52.8518 32.3994C52.6756 32.1184 52.4749 31.8553 52.2541 31.5922C52.0926 31.3984 51.9095 31.2237 51.7084 31.0715C51.518 30.9263 51.3231 30.8039 51.0961 30.6619C50.4877 30.2808 49.9695 29.8263 49.441 29.3626C49.2008 29.1519 48.9583 28.9393 48.7211 28.7437C47.4625 27.7059 46.2886 27.2026 45.0332 27.1238C43.7863 27.0453 42.4697 27.3878 40.9151 28.0423C40.1648 28.358 39.6076 28.7312 39.1222 29.1799C38.6586 29.6088 38.265 30.1026 37.8323 30.6793C37.5806 30.6972 37.3576 30.7344 37.1299 30.8256C36.8791 30.926 36.6265 31.0885 36.3239 31.3556C36.1133 31.5414 35.907 31.7321 35.7052 31.9275C35.5203 32.1068 35.3387 32.2895 35.1604 32.4755C33.7452 32.7028 32.5921 32.9538 31.5594 33.3538C30.5034 33.763 29.5725 34.3257 28.6164 35.1734C28.2399 35.506 27.8968 35.8744 27.5917 36.2735C27.3009 36.6544 27.052 37.0549 26.8336 37.4772C26.6424 37.6888 26.4507 37.9024 26.2433 38.0893C26.0411 38.2714 25.8255 38.4248 25.5839 38.5177L25.5841 38.5179C25.4436 38.572 25.3855 38.6037 25.3792 38.6016C25.3722 38.5976 25.3682 38.5765 25.3584 38.5377C25.7053 38.2067 25.7598 37.7203 25.7919 37.2374C25.8335 37.2872 25.8735 37.3485 25.9149 37.4126C25.9608 37.4833 26.0078 37.5563 26.064 37.6273L26.2995 37.9245L26.3822 37.5538C26.4517 37.2432 26.5037 36.8296 26.4227 36.471C26.3704 36.2383 26.2624 36.0309 26.0743 35.8839C26.0923 35.837 26.1093 35.7937 26.126 35.7509C26.1851 35.5997 26.246 35.4446 26.2976 35.2981L26.3997 35.0077L26.0959 35.0603C25.6918 35.1306 24.8233 35.6079 24.2116 36.2425C23.9845 36.4783 23.7892 36.7389 23.6611 37.0123C23.5278 37.2967 23.468 37.5944 23.5198 37.8923C23.5648 38.1527 23.6951 38.4083 23.9318 38.6494C23.975 38.8233 24.0148 38.9742 24.0574 39.1103C24.1062 39.2651 24.1586 39.4036 24.2243 39.54C24.4023 39.9102 24.6861 40.1363 25.0146 40.2417C25.2785 40.3265 25.5704 40.3307 25.8567 40.268C25.7986 40.6091 25.7636 40.9537 25.7518 41.2995C25.7337 41.7825 25.7514 42.3162 25.8046 42.9354C25.8302 43.2232 25.8703 43.5096 25.9247 43.7934C25.8712 43.9393 25.8174 44.0856 25.7636 44.2315L25.5138 44.9117L24.9639 45.4566C24.7928 45.6258 24.6217 45.7954 24.4507 45.9648C24.4366 45.9789 24.3788 46.0343 24.3265 46.0848C23.9799 46.4183 23.9113 46.4845 24.0097 47.0715C24.0728 47.4471 24.1954 47.8103 24.3729 48.1472C24.5431 48.4714 24.7714 48.7869 25.0645 49.0808C25.4301 49.4473 26.0294 49.9026 26.6569 50.1411C27.0154 50.2772 27.385 50.3438 27.7319 50.2882C27.7142 50.3416 27.697 50.3948 27.6775 50.4485C27.6226 50.6008 27.5616 50.7508 27.4947 50.8982C27.069 51.8312 27.5059 52.3184 28.186 52.6285C28.5256 52.7832 28.9293 52.8884 29.3043 52.9862C29.3811 53.0059 29.4579 53.0262 29.5546 53.0523C29.999 53.1724 30.7669 53.393 31.4683 53.4373C32.2338 53.4857 32.9243 53.3277 33.1093 52.6406C33.1825 52.3682 33.2251 52.1597 33.2424 51.9553C33.2582 51.7658 33.2522 51.5743 33.23 51.3372C33.4482 50.8535 33.5407 50.7175 33.7004 50.4842C33.7316 50.4381 33.7694 50.3829 33.7808 50.3655C33.9519 50.112 34.0321 49.932 34.0612 49.7293C34.0893 49.5337 34.0654 49.3388 34.0301 49.041C34.0267 49.0127 34.0217 48.9714 34.0142 48.9167C34.455 48.9739 34.8989 49.0044 35.3434 49.0078C35.5664 49.0092 35.7893 49.0026 36.0121 48.9909C35.9552 49.0201 35.8994 49.049 35.8383 49.0804L35.7554 49.123C35.1642 49.427 35.1396 50.0028 35.3246 50.5953C35.4914 51.1295 35.8348 51.675 36.0502 52.0067C36.503 52.7046 36.9352 53.2953 37.4591 53.6163C38.0082 53.9529 38.6357 53.9925 39.4455 53.5542C39.8575 53.3312 39.9875 53.1038 40.1624 52.7972C40.216 52.7037 40.275 52.6018 40.3408 52.5012C40.511 52.3885 40.9347 52.039 41.3505 51.6952C41.4921 51.5782 41.6335 51.4618 41.7931 51.3317C41.9031 51.4126 42.0359 51.4687 42.1963 51.5069C42.4047 51.5568 42.6529 51.5793 42.9503 51.6007C43.1729 51.617 43.8988 51.6165 44.3678 51.6163C44.5126 51.6163 44.6328 51.6163 44.705 51.6167C45.1891 51.6197 45.5799 51.5942 45.8752 51.4269C46.1899 51.2485 46.3765 50.9325 46.4173 50.3658C46.435 50.1141 46.4384 49.9588 46.4034 49.8004C46.3707 49.6519 46.307 49.5173 46.1976 49.3204C46.191 49.0755 46.1844 48.8306 46.1779 48.5857C46.1712 48.326 46.1639 48.066 46.1571 47.8062C46.1488 47.5 46.1151 47.2511 46.0529 47.0062C45.9913 46.7631 45.9033 46.5293 45.7855 46.2486C45.7122 46.0718 45.6429 45.8933 45.5776 45.7134L45.4078 45.7755L45.4339 45.766L45.5776 45.7134V45.7127C45.4764 45.4396 45.3766 45.1737 45.2368 44.8892C45.2458 44.8344 45.2549 44.7753 45.2638 44.7123L45.5338 44.9725L45.9317 45.3559C46.2352 45.6483 46.5126 45.9142 46.8386 46.1063C47.1756 46.3053 47.5546 46.4207 48.0454 46.3974C48.5592 46.3732 49.109 46.1568 49.5617 45.8228C49.9996 45.4995 50.351 45.0636 50.4976 44.5811L50.6248 44.1626L50.7263 43.8287C51.4468 43.9507 52.2202 43.9901 52.9672 43.9119C53.688 43.8361 54.3844 43.6526 54.985 43.3323C55.8678 42.8612 56.5297 42.1674 57.0054 41.3435H57.0057C57.5372 40.4227 57.8349 39.3377 57.9479 38.2212C58.0386 37.3257 57.9891 36.1084 57.8027 34.9343ZM48.4674 42.46C48.0521 42.3202 47.7634 42.1163 47.3987 41.8864C47.4979 42.334 47.5431 42.8073 47.4109 43.2541C47.2011 43.9631 46.8622 45.1229 47.8247 45.3369C48.1911 45.4182 48.3573 45.4066 48.8743 45.1397C48.4558 45.2344 48.2448 45.2114 47.9571 45.1579C47.6964 45.11 47.5581 44.9445 47.4853 44.7492C47.5764 44.8148 47.7249 44.8505 47.9789 44.9117C48.6924 45.0838 49.3723 44.7402 49.5053 44.2455C49.5826 43.9563 49.5696 43.8045 49.7339 43.4105C49.8816 43.4562 50.0342 43.4976 50.1908 43.5356L49.9256 44.4003C49.6964 45.1484 48.8028 45.7516 48.0139 45.7377C47.2846 45.7249 46.8221 45.268 46.3186 44.8202C45.9718 44.5114 45.638 44.2162 45.3072 43.9237C44.3995 43.6373 43.672 43.3026 42.8295 42.679C43.4291 43.3835 43.8356 43.7735 44.6718 44.1241C44.5503 45.3644 44.1191 46.2688 43.7517 47.4558C43.5852 47.9924 42.2722 50.1432 41.9083 50.3528C41.6489 50.5023 40.0236 51.8711 39.718 52.0518C39.4902 52.3541 39.2904 52.7721 38.948 52.9529C37.9049 53.5046 37.2345 52.4484 36.6732 51.5564C36.4177 51.15 35.7078 49.9795 36.3266 49.6516C36.9115 49.3418 37.2392 49.1205 37.8361 48.7284C37.9239 48.8883 38.0742 49.0427 38.1722 49.2023L38.1072 48.6783C38.0679 48.362 38.0695 48.105 38.0946 47.7867C38.119 47.4784 38.1432 47.1702 38.1674 46.8618C38.0776 47.1753 37.8981 47.4886 37.8086 47.8017C37.7727 47.9272 37.743 48.0284 37.7259 48.1223C36.3866 48.396 35.057 48.413 33.7175 48.1741C33.632 47.6781 33.528 47.1613 33.4406 46.7908C33.4142 47.2056 33.4312 48.3528 33.4291 48.9952C33.4274 49.4927 33.4066 49.6631 33.1498 50.0864C32.9096 50.4826 32.808 50.5726 32.4715 51.2423C32.4996 51.6648 32.5 51.944 32.3878 52.345C32.2012 53.0117 30.3179 52.4952 29.8212 52.3591C29.2094 52.1917 27.9447 51.9428 28.2627 51.1272C28.5426 50.4095 28.72 49.6527 28.8569 48.6484C27.736 47.0337 26.6937 44.821 26.4936 42.8605C26.3382 41.3383 26.4314 40.4013 26.7608 39.4702C27.2828 37.9948 28.0131 36.7177 29.1848 35.6893C30.7653 34.3024 32.2427 33.7455 34.5562 33.3933C33.9999 34.0162 33.4495 34.6746 32.8496 35.3807C32.2423 36.0954 31.8816 36.8174 31.4959 37.5994C30.9632 38.6792 30.9747 39.0901 31.6808 40.0381C32.2892 40.8551 32.6177 41.2228 32.8835 42.0223C32.6641 42.4745 32.5843 42.8568 32.5106 43.4743C33.2556 44.2889 33.8093 44.8469 34.5327 45.0187C35.2424 45.1875 35.8348 45.1548 36.4699 44.8303C37.8798 44.1095 39.1845 43.1786 40.7751 43.14C41.5109 41.3311 41.4365 39.8195 41.0833 38.0692C40.842 36.8738 40.7451 35.7419 40.6702 34.5233C40.3719 35.7783 40.3158 36.8819 40.5371 38.1322C40.804 39.6386 41.0114 41.3031 40.2693 42.6272C38.8309 42.7373 37.5983 43.6124 36.3021 44.2837C35.781 44.5537 35.2385 44.58 34.6618 44.4217C34.1264 44.2746 33.7652 43.9203 33.1885 43.2552C33.1794 42.5874 33.3301 42.2793 33.6368 41.6744C34.1295 40.7031 34.6733 39.7991 35.2701 38.8436C34.5394 39.7255 33.847 40.4625 33.2719 41.3494C33.052 40.7231 32.7375 40.405 32.2168 39.6996C31.7082 39.0108 31.655 38.7093 32.0354 37.912C32.4178 37.1108 32.742 36.4068 33.393 35.7039C34.5175 34.4894 35.5478 33.1378 36.7777 31.9417C37.4455 31.2923 37.7166 31.3146 38.6024 31.1805C39.403 31.059 40.1846 30.9059 41.001 30.7163C40.2115 30.7899 39.4482 30.8169 38.6794 30.8358L38.6555 30.8365C39.412 29.8706 39.8509 29.3323 41.0792 28.7985C44.1037 27.4852 46.0254 27.3431 48.4011 29.3401C49.0169 29.8578 49.5546 30.3603 50.1789 30.8067C49.9525 30.8261 49.7574 30.8668 49.4994 30.968C49.8134 30.9081 50.176 30.9675 50.502 31.0271C50.5934 31.0864 50.6876 31.1444 50.7837 31.201C51.2245 31.4607 51.4747 31.6042 51.7728 32.0194C52.0878 32.4583 52.3504 32.8969 52.5818 33.3803C52.4302 33.3261 52.3029 33.2804 52.1896 33.2468C52.0632 33.1888 51.9244 33.163 51.7857 33.1716C51.6469 33.1802 51.5124 33.2229 51.3941 33.296L51.3758 33.3044C51.132 33.4232 50.7543 33.5585 50.5016 33.5996C50.6305 33.644 50.9157 33.6607 51.0501 33.6074C51.0681 33.6004 51.0864 33.5948 51.1053 33.5904C51.0429 33.6965 51.0045 33.815 50.9928 33.9375C50.977 34.0992 51.0083 34.2621 51.0829 34.4064L51.0836 34.408C51.1064 34.4617 51.1382 34.5111 51.173 34.5468C51.0576 34.5894 50.9396 34.638 50.818 34.6908C51.3817 34.605 51.8899 34.5902 52.4399 34.6627C52.4762 34.836 52.5127 35.0198 52.5467 35.2067L52.3423 35.2227C52.3368 35.2231 52.3313 35.2236 52.3258 35.2241C52.0655 35.0162 51.7756 35.0512 51.3795 35.1416C50.1746 35.4162 50.4577 36.0922 49.9037 37.1108C50.4791 36.4075 50.4363 35.6715 51.3741 35.4493C51.5926 35.3977 51.7414 35.3328 51.8894 35.3551C51.6232 35.4889 51.393 35.711 51.3016 35.9687C51.0442 36.6956 51.204 37.308 50.9212 37.9869C51.2713 37.38 51.2926 36.7877 51.6059 36.149C51.7184 35.9198 52.1357 35.5528 52.3919 35.5472L52.6029 35.5425C52.6647 35.9464 52.7023 36.3476 52.6784 36.6803C52.6346 37.2875 52.4769 38.1887 52.3825 38.5336C52.6997 38.1257 52.8443 37.2619 52.9837 36.6535C53.1288 36.0205 53.0921 35.2607 52.9651 34.5804C52.7907 33.6471 53.752 33.799 54.31 33.3591C54.7202 33.0357 55.0027 32.5195 55.3787 32.1536C55.7518 31.7908 56.3391 32.3239 56.4858 32.6784C57.1219 34.2177 57.4118 36.6393 57.2439 38.1911C57.0552 39.9322 56.2142 41.833 54.6785 42.6902C52.7208 43.7828 50.4126 43.1153 48.4674 42.46ZM45.6856 50.1932C45.6218 50.9117 45.3823 50.9591 44.7515 50.9481C44.4649 50.943 43.3237 50.9378 43.034 50.9129C42.6248 50.8776 42.395 50.8411 42.27 50.7477C42.9129 50.2758 44.0052 48.3274 44.2183 47.6565C44.4435 46.9477 44.6901 46.3293 44.8734 45.6743C44.9578 45.9481 45.0243 46.2193 45.1471 46.5101C45.3519 46.9961 45.4522 47.2963 45.4668 47.8176L45.5132 49.4675C45.6894 49.7757 45.7169 49.8416 45.6856 50.1931V50.1932ZM26.3374 44.751C26.7456 46.1632 27.4411 47.551 28.2121 48.7177V48.7381C28.1636 48.9388 28.1078 49.134 27.9906 49.2907C27.4394 50.0282 26.0377 48.9458 25.6319 48.5318C25.1884 48.0787 24.8915 47.5426 24.8208 47.0394C24.7693 46.6727 24.8194 46.6637 25.0753 46.4041L26.1106 45.3561L26.3374 44.751ZM25.5576 35.8695C25.453 36.094 25.3788 36.2643 25.3283 36.4395C25.1085 37.1986 25.4277 37.8761 24.7385 38.4263C25.0624 39.0797 25.0475 39.3404 25.8008 39.0385C26.0913 38.9217 26.3309 38.7586 26.5449 38.5654C26.4413 38.8345 26.3461 39.1068 26.2593 39.3818C26.2444 39.4283 26.2302 39.4751 26.2166 39.5215C25.6779 39.7501 24.9693 39.8954 24.6982 39.3293C24.5665 39.0543 24.4922 38.7846 24.3961 38.4373C23.5089 37.5182 24.8351 36.3047 25.5576 35.8695ZM25.9937 36.8431C25.8842 36.7334 25.7965 36.6593 25.6549 36.6753C25.6669 36.5825 25.6828 36.493 25.7051 36.4089C25.7164 36.3656 25.7285 36.3231 25.7414 36.2805C25.9251 36.3875 25.9734 36.5814 25.9937 36.843V36.8431ZM52.5958 33.41C52.6293 33.4806 52.6622 33.5525 52.6945 33.6252C52.6678 33.6449 52.6424 33.6655 52.6186 33.6873C52.5749 33.5853 52.5118 33.4928 52.4328 33.4148C52.4857 33.4128 52.54 33.4111 52.596 33.41H52.5958ZM26.9828 37.5821L26.9827 37.5819V37.5821H26.9828ZM33.8027 48.7062H33.803H33.8027ZM41.7988 51.0934H41.7986H41.7988ZM45.0485 44.9164H45.0488L45.0486 44.9165L45.0485 44.9164ZM25.6493 38.6869H25.6492L25.6431 38.6714L25.6492 38.687L25.6493 38.6869ZM56.8463 41.2515L56.8506 41.2541L56.8463 41.2515ZM22.5188 38.4659C22.66 36.8674 22.9708 36.1773 24.1064 34.9743C22.682 35.978 22.3265 36.4342 22.5188 38.4657" fill="black"/>
<path d="M22.1517 37.1602C22.3085 36.4408 22.4548 36.1692 22.8984 35.5788C22.1786 36.0815 22.0849 36.2879 22.1516 37.1602M38.8644 27.1313C38.011 27.3371 37.8483 27.4948 37.5923 28.3314C38.0007 27.7189 38.2358 27.5196 38.8644 27.1313Z" fill="black"/>
<path d="M40.2105 27.0096C38.5179 27.4244 38.0205 27.7194 37.4583 29.6812C38.173 28.2444 38.7141 27.7153 40.2105 27.0094M43.856 34.1609C44.0364 33.3616 44.357 32.5915 45.5982 31.9955C43.953 32.4075 43.6445 33.0987 43.856 34.1611M54.3248 34.2162C55.2992 33.8689 55.7688 33.0855 56.0021 32.1638C55.6208 32.9363 55.0323 33.5823 54.2328 33.978C53.8038 34.1903 53.5298 34.1162 53.0507 34.0708C53.5379 34.2107 53.8466 34.3866 54.3248 34.2162ZM47.6873 34.9994C47.5623 34.7374 47.3395 34.535 47.0667 34.4357C47.3058 34.3081 47.5405 34.1741 47.7236 34.0075C47.1871 34.2558 46.5626 34.1952 46.1022 34.5061C45.6968 34.7801 45.1372 35.648 44.7251 36.016C45.0235 35.9001 45.3111 35.6997 45.5759 35.4887C45.5773 35.6891 45.6334 35.8854 45.738 36.0565C45.8426 36.2275 45.9919 36.3668 46.1697 36.4593C46.0174 36.6589 45.8961 36.8803 45.81 37.116C46.5945 36.1863 47.732 35.484 48.8016 35.1838C48.5026 35.1796 48.1487 35.2354 47.7881 35.3539C47.7747 35.2309 47.7406 35.1111 47.6873 34.9994ZM46.5585 42.0251C46.5204 42.2658 46.4681 42.5651 46.43 42.8059C46.532 42.5334 46.6546 42.2167 46.7731 41.9569C46.8988 41.6818 46.9696 41.6559 47.2363 41.5108C47.4255 41.4079 47.7688 41.2664 47.958 41.1635C47.7634 41.1963 47.4146 41.2678 47.22 41.3006C46.7003 41.3883 46.6391 41.5132 46.5585 42.0251ZM37.6801 32.7297C37.0768 33.3259 36.4909 35.3719 36.3037 36.1906C36.5986 35.5106 37.3366 33.6083 37.9027 33.1244C38.0591 32.9907 38.1683 32.9086 38.2857 32.8488C37.8805 33.5284 37.9103 33.6974 38.0525 34.608C38.1732 33.6823 38.4933 33.3247 39.0185 32.6341C39.5942 32.4897 40.1331 32.3166 40.7237 32.0862C40.0585 32.1614 39.3926 32.2305 38.7262 32.2935C38.1668 32.3465 38.0766 32.3375 37.68 32.7297" fill="black"/>
<path d="M45.8974 36.2125C45.8447 36.1017 45.8382 35.9745 45.8792 35.8589C45.9202 35.7432 46.0055 35.6486 46.1162 35.5958C46.1766 35.5672 46.2424 35.5519 46.3093 35.551C46.3761 35.5502 46.4423 35.5637 46.5034 35.5908C46.5645 35.6179 46.619 35.6578 46.6633 35.7078C46.7076 35.7579 46.7406 35.8169 46.76 35.8808C46.5397 36.0444 46.338 36.2367 46.1687 36.4597C46.0548 36.4139 45.9538 36.3307 45.8973 36.2125M51.0487 34.2197C51.0673 34.0291 51.2297 33.8887 51.4202 33.9071C51.5119 33.9161 51.5963 33.9611 51.6549 34.0322C51.7135 34.1032 51.7416 34.1946 51.733 34.2863C51.729 34.3257 51.7184 34.364 51.7016 34.3998C51.5272 34.4298 51.3529 34.4807 51.1732 34.5468C51.0981 34.4698 51.0382 34.3295 51.0487 34.2197Z" fill="#FFFFCC"/>
</g>
<defs>
<clipPath id="clip0_270_10697">
<rect width="36" height="26.999" fill="white" transform="translate(22 27)"/>
</clipPath>
</defs>
</svg>
