<svg width="120" height="120" viewBox="0 0 120 120" fill="none" xmlns="http://www.w3.org/2000/svg">
<g clip-path="url(#clip0_689_6931)">
<path d="M53.6099 73.106C53.6099 73.106 51.7539 74.1707 54.9308 74.531C58.7795 74.9641 60.7464 74.9021 64.9878 74.1101C64.9878 74.1101 66.103 74.7999 67.6601 75.3974C58.1523 79.4173 46.1418 75.1644 53.6099 73.106ZM52.448 67.8601C52.448 67.8601 50.3664 69.3803 53.5456 69.7046C57.6569 70.123 60.9037 70.1573 66.5219 69.0901C66.5219 69.0901 67.299 69.8672 68.5209 70.2923C57.0252 73.6085 44.2212 70.5538 52.448 67.8601Z" fill="#5382A1"/>
<path d="M62.2426 58.9617C64.5854 61.6225 61.6271 64.017 61.6271 64.017C61.6271 64.017 67.5756 60.9876 64.8437 57.1939C62.2922 53.6563 60.3354 51.8984 70.9283 45.8379C70.9283 45.8379 54.3011 49.9345 62.2426 58.9616" fill="#E76F00"/>
<path d="M74.8164 76.9863C74.8164 76.9863 76.1899 78.1026 73.3037 78.9663C67.8157 80.6065 50.4617 81.1018 45.6408 79.0317C43.9079 78.2881 47.1577 77.2559 48.1799 77.0393C49.246 76.8112 49.8553 76.8538 49.8553 76.8538C47.9281 75.5143 37.3983 79.4836 44.5068 80.6202C63.8924 83.7217 79.8447 79.2238 74.8164 76.9863ZM54.5012 62.4251C54.5012 62.4251 45.674 64.4935 51.3753 65.2444C53.7826 65.5624 58.5814 65.4905 63.0514 65.121C66.7046 64.8171 70.3728 64.1707 70.3728 64.1707C70.3728 64.1707 69.0847 64.7149 68.1528 65.3427C59.1887 67.6684 41.8719 66.5865 46.8572 64.2074C51.0733 62.197 54.5013 62.4251 54.5013 62.4251M70.3364 71.1569C79.4489 66.4856 75.2356 61.9967 72.2949 62.6015C71.574 62.7494 71.2527 62.8776 71.2527 62.8776C71.2527 62.8776 71.5203 62.4642 72.0313 62.2852C77.849 60.2674 82.3232 68.2362 70.1533 71.3923C70.1533 71.3925 70.2943 71.2682 70.3364 71.1569Z" fill="#5382A1"/>
<path d="M64.8424 36.0514C64.8424 36.0514 69.8891 41.0318 60.056 48.6897C52.171 54.8329 58.258 58.3355 60.0528 62.3374C55.4501 58.2407 52.0723 54.6343 54.3385 51.2779C57.6644 46.3507 66.8786 43.962 64.8424 36.0513" fill="#E76F00"/>
<path d="M55.3978 83.8149C64.1446 84.3673 77.5761 83.5085 77.8942 79.4255C77.8942 79.4255 77.2827 80.9735 70.6655 82.2026C63.2 83.5885 53.9924 83.4267 48.5312 82.5385C48.5314 82.5385 49.6492 83.4513 55.398 83.8149" fill="#5382A1"/>
</g>
<defs>
<clipPath id="clip0_689_6931">
<rect width="36" height="48" fill="white" transform="translate(42 36)"/>
</clipPath>
</defs>
</svg>
