<svg width="120" height="120" viewBox="0 0 120 120" fill="none" xmlns="http://www.w3.org/2000/svg">
<g clip-path="url(#clip0_688_16019)">
<path d="M27.3737 45.319C26.9652 44.9088 26.3984 44.6561 25.7664 44.6561C25.1361 44.6561 24.5737 44.9088 24.1703 45.319H24.16C23.9499 45.5297 23.7834 45.7799 23.6702 46.0551C23.5569 46.3302 23.4991 46.6251 23.5 46.9227C23.5 47.5542 23.7526 48.119 24.16 48.5224L24.1703 48.5335C24.5737 48.94 25.1361 49.1892 25.7665 49.1892C26.3984 49.1892 26.9652 48.94 27.3738 48.5335L27.3786 48.5224C27.7875 48.119 28.037 47.5542 28.037 46.9227C28.037 46.2946 27.7875 45.7264 27.3786 45.319H27.3738H27.3737ZM25.7664 76.346C26.3984 76.346 26.9652 76.0886 27.3737 75.686L27.3784 75.6739C27.7875 75.2721 28.037 74.7037 28.037 74.079C28.037 73.4476 27.7875 72.8819 27.3786 72.4726H27.3738C26.9652 72.0584 26.3984 71.8082 25.7665 71.8082C25.1361 71.8082 24.5737 72.0584 24.1703 72.4726H24.16C23.9497 72.6838 23.7832 72.9344 23.6699 73.21C23.5567 73.4857 23.4989 73.781 23.5 74.079C23.5 74.7039 23.7526 75.2723 24.16 75.6739L24.1703 75.686C24.3798 75.8956 24.6287 76.0618 24.9026 76.175C25.1765 76.2883 25.4701 76.3464 25.7665 76.346H25.7664ZM38.1158 69.4785C38.6771 69.3309 39.1852 68.9707 39.4957 68.4258L39.5375 68.3461C39.8136 67.8301 39.8639 67.2333 39.7163 66.704C39.6409 66.4153 39.5086 66.1447 39.3271 65.9079C39.1456 65.6711 38.9186 65.4729 38.6595 65.3251L38.6275 65.3036C38.1129 65.0189 37.5076 64.9459 36.94 65.1002C36.3764 65.241 35.87 65.6162 35.5613 66.1565C35.2487 66.6936 35.1837 67.3107 35.3332 67.8788C35.4874 68.4377 35.8489 68.9427 36.3895 69.2583H36.3927C36.9345 69.5698 37.547 69.6256 38.1158 69.4785ZM28.0914 58.1783C27.4966 57.585 26.6754 57.2129 25.7667 57.2129C24.8591 57.2129 24.0404 57.585 23.4465 58.1784C23.1421 58.4828 22.9008 58.8444 22.7366 59.2424C22.5724 59.6403 22.4885 60.0668 22.4897 60.4973C22.4885 61.3696 22.8324 62.207 23.4465 62.8265C24.0404 63.4163 24.8591 63.7849 25.7667 63.7849C26.6754 63.7849 27.4964 63.4163 28.0914 62.8265C28.7066 62.2076 29.0512 61.37 29.0498 60.4973C29.0511 60.0667 28.9671 59.64 28.8026 59.242C28.6381 58.844 28.3964 58.4825 28.0914 58.1784V58.1783ZM26.7841 54.3152C28.0774 54.5292 29.2703 55.1455 30.1933 56.0764H30.2001C30.3454 56.223 30.4837 56.3765 30.6146 56.5362L32.8776 55.2272C32.5795 54.3273 32.5538 53.3594 32.8039 52.445C33.1263 51.2379 33.9089 50.1574 35.0823 49.4803L35.1203 49.4561C36.281 48.7995 37.5999 48.6629 38.7903 48.9853C39.4111 49.1514 39.9931 49.4383 40.5028 49.8297C41.0126 50.2211 41.4401 50.7092 41.7609 51.266V51.2697C42.4348 52.4347 42.5713 53.7715 42.25 54.9749C42.0856 55.5958 41.7995 56.1778 41.4084 56.6873C41.0173 57.1967 40.5289 57.6235 39.9716 57.9427L39.6625 58.1253H39.6312C38.5472 58.6413 37.3551 58.7222 36.2604 58.4338C35.3615 58.1958 34.5373 57.6937 33.8915 56.9815L31.6316 58.2871C31.8992 58.9932 32.0359 59.7421 32.035 60.4972C32.035 61.2758 31.8915 62.0271 31.6316 62.7178L33.8915 64.0197C34.5215 63.3135 35.3454 62.8084 36.2604 62.5671C36.8806 62.3977 37.5283 62.354 38.1656 62.4384C38.8029 62.5228 39.4169 62.7336 39.9716 63.0586L40.0464 63.0934V63.097C41.175 63.7812 41.9327 64.8372 42.25 66.0301C42.4156 66.6489 42.4577 67.2942 42.3738 67.9293C42.2898 68.5643 42.0816 69.1766 41.7609 69.7312L41.72 69.8125L41.7153 69.8058C41.0385 70.9311 39.9716 71.6935 38.7938 72.0159C37.586 72.3345 36.2489 72.1984 35.0823 71.5274V71.5182C33.9089 70.8398 33.1263 69.7569 32.8039 68.5522C32.5539 67.6393 32.5795 66.6728 32.8776 65.7744L30.6147 64.4686C30.4839 64.626 30.3455 64.7771 30.2002 64.9212L30.1934 64.9284C29.2877 65.8372 28.1034 66.4686 26.7841 66.6788V69.2937C27.7241 69.4899 28.5659 69.9601 29.2251 70.6198L29.2287 70.6264C29.6832 71.0791 30.0436 71.6172 30.2892 72.2097C30.5348 72.8023 30.6607 73.4375 30.6598 74.079C30.6598 75.4221 30.1124 76.6407 29.2287 77.5249L29.2251 77.5388C28.3351 78.4225 27.1141 78.9699 25.7667 78.9699C24.4262 78.9699 23.2023 78.4225 22.3141 77.5388H22.3105V77.5249C21.426 76.6405 20.8773 75.4221 20.8773 74.079C20.8766 73.4374 21.0029 72.802 21.2489 72.2094C21.4949 71.6168 21.8557 71.0788 22.3106 70.6264V70.6198H22.3141C22.9729 69.9601 23.8162 69.4901 24.7528 69.2937V66.6788C23.4339 66.4686 22.2513 65.8372 21.3474 64.9284L21.3379 64.9212C20.2088 63.7885 19.502 62.2271 19.502 60.4973C19.502 58.7711 20.2088 57.2098 21.3377 56.0764H21.3472C22.2685 55.1453 23.4603 54.5289 24.7526 54.3152V51.7115C23.8294 51.5105 22.9832 51.0493 22.314 50.3823H22.3103V50.3752C21.4258 49.4874 20.8772 48.2701 20.8772 46.9227C20.8772 45.5822 21.4258 44.3543 22.3105 43.4701L22.314 43.4665C23.2021 42.5791 24.4259 42.0322 25.7665 42.0322C27.1139 42.0322 28.3349 42.5791 29.2249 43.4665V43.4701H29.2286C29.6821 43.9234 30.042 44.4616 30.2875 45.054C30.5331 45.6464 30.6595 46.2814 30.6596 46.9227C30.6596 48.2701 30.1123 49.4874 29.2286 50.3752L29.2249 50.3823C28.5553 51.0499 27.708 51.5113 26.7839 51.7115V54.3152H26.7841ZM39.4959 52.5786L39.4764 52.5502C39.1648 52.0241 38.6665 51.6734 38.1159 51.5223C37.5472 51.3712 36.9346 51.4347 36.3896 51.7473H36.3928C35.8491 52.0558 35.4852 52.5604 35.3333 53.126C35.2564 53.414 35.2369 53.7143 35.276 54.0099C35.3152 54.3054 35.4122 54.5903 35.5615 54.8483L35.5722 54.8622C35.7206 55.1166 35.9178 55.339 36.1526 55.5167C36.3874 55.6944 36.6551 55.8238 36.9402 55.8975C37.4996 56.0557 38.1227 55.9888 38.6598 55.6762L38.6888 55.6623C39.1956 55.3598 39.5644 54.8713 39.7164 54.301C39.8664 53.7362 39.8066 53.1189 39.4959 52.5786ZM49.537 53.3434H52.062V61.0513L55.7035 57.0236H58.7311L54.3349 61.69L58.7495 67.6051H55.8582L52.062 62.3215V67.6051H49.537V53.3434ZM61.6646 62.36C61.6646 63.6726 62.6086 65.5809 64.8831 65.5809C66.2904 65.5809 67.2165 64.8475 67.697 63.8863C67.9485 63.4199 68.0643 62.9213 68.1032 62.4024C68.1206 61.9003 68.0257 61.3782 67.8125 60.9145C67.3698 59.915 66.3871 59.0482 64.8644 59.0482C62.8223 59.0482 61.6645 60.7039 61.6645 62.3426V62.36H61.6646ZM70.6082 67.6051H68.0817V66.0827C67.4094 67.3139 66.0017 67.9319 64.517 67.9319C61.1242 67.9319 59.1398 65.2897 59.1398 62.3041C59.1398 58.9709 61.5487 56.6972 64.517 56.6972C66.4443 56.6972 67.6196 57.7187 68.0817 58.5675V57.0237H70.6082V67.6051ZM73.4673 58.9709H72.1587V57.0237H73.4673V56.4275C73.4673 53.2836 75.858 53.0939 77.6707 53.0728V55.0167C77.0331 55.0167 75.9936 55.0167 75.9936 56.5042V57.0239H77.6707V58.971H75.9936V67.6053H73.4672V58.971L73.4673 58.9709ZM79.3878 53.3434H81.9122V61.0513L85.5544 57.0236H88.5821L84.1858 61.69L88.5996 67.6051H85.7084L81.9122 62.3215V67.6051H79.3878V53.3434ZM91.5154 62.36C91.5154 63.6726 92.4591 65.5809 94.734 65.5809C96.1394 65.5809 97.0655 64.8475 97.5468 63.8863C97.799 63.4199 97.9152 62.9213 97.9534 62.4024C97.9708 61.9003 97.8758 61.3782 97.6623 60.9145C97.2203 59.915 96.2377 59.0482 94.7153 59.0482C92.673 59.0482 91.5154 60.7039 91.5154 62.3426V62.36ZM100.458 67.6051H97.9326V66.0827C97.2584 67.3139 95.8518 67.9319 94.3679 67.9319C90.9752 67.9319 88.9923 65.2897 88.9923 62.3041C88.9923 58.9709 91.4004 56.6972 94.3679 56.6972C96.294 56.6972 97.4705 57.7187 97.9326 58.5675V57.0237H100.458V67.6051Z" fill="white"/>
</g>
<defs>
<clipPath id="clip0_688_16019">
<rect width="81" height="37.0188" fill="white" transform="translate(19.5 42)"/>
</clipPath>
</defs>
</svg>
