<svg width="80" height="80" viewBox="0 0 80 80" fill="none" xmlns="http://www.w3.org/2000/svg">
<g clip-path="url(#clip0_270_10886)">
<path d="M18.2488 30.2127C17.9765 29.9392 17.5986 29.7708 17.1772 29.7708C16.7571 29.7708 16.3821 29.9392 16.1132 30.2127H16.1063C15.9663 30.3532 15.8553 30.5199 15.7798 30.7034C15.7043 30.8869 15.6657 31.0834 15.6663 31.2818C15.6663 31.7028 15.8348 32.0793 16.1063 32.3483L16.1132 32.3557C16.3821 32.6267 16.7571 32.7928 17.1774 32.7928C17.5986 32.7928 17.9765 32.6267 18.2489 32.3557L18.2521 32.3483C18.5247 32.0793 18.691 31.7028 18.691 31.2818C18.691 30.8631 18.5247 30.4843 18.2521 30.2127H18.2489H18.2488ZM17.1772 50.8973C17.5986 50.8973 17.9765 50.7257 18.2488 50.4573L18.252 50.4493C18.5247 50.1814 18.691 49.8025 18.691 49.386C18.691 48.9651 18.5247 48.5879 18.2521 48.3151H18.2489C17.9765 48.039 17.5986 47.8721 17.1774 47.8721C16.7571 47.8721 16.3821 48.039 16.1132 48.3151H16.1063C15.9662 48.4559 15.8551 48.6229 15.7796 48.8067C15.7041 48.9905 15.6656 49.1873 15.6663 49.386C15.6663 49.8026 15.8348 50.1815 16.1063 50.4493L16.1132 50.4573C16.2529 50.5971 16.4188 50.7079 16.6014 50.7834C16.784 50.8589 16.9797 50.8976 17.1774 50.8973H17.1772ZM25.4102 46.319C25.7844 46.2206 26.1231 45.9805 26.3302 45.6173L26.358 45.5641C26.5421 45.2201 26.5756 44.8223 26.4772 44.4694C26.4269 44.2769 26.3387 44.0965 26.2177 43.9386C26.0968 43.7807 25.9454 43.6487 25.7727 43.5501L25.7514 43.5358C25.4083 43.3459 25.0047 43.2973 24.6264 43.4001C24.2506 43.494 23.913 43.7442 23.7072 44.1043C23.4988 44.4624 23.4555 44.8738 23.5551 45.2526C23.658 45.6252 23.899 45.9618 24.2593 46.1722H24.2614C24.6227 46.3799 25.031 46.4171 25.4102 46.319ZM18.7273 38.7855C18.3307 38.39 17.7833 38.142 17.1775 38.142C16.5724 38.142 16.0266 38.39 15.6307 38.7857C15.4277 38.9886 15.2669 39.2296 15.1574 39.4949C15.0479 39.7602 14.992 40.0446 14.9928 40.3316C14.992 40.9131 15.2213 41.4713 15.6307 41.8844C16.0266 42.2776 16.5724 42.5233 17.1775 42.5233C17.7833 42.5233 18.3306 42.2776 18.7273 41.8844C19.1374 41.4717 19.3671 40.9133 19.3662 40.3316C19.3671 40.0445 19.3111 39.76 19.2014 39.4947C19.0918 39.2294 18.9306 38.9884 18.7273 38.7857V38.7855ZM17.8557 36.2102C18.7179 36.3528 19.5132 36.7637 20.1285 37.3843H20.1331C20.23 37.4821 20.3222 37.5843 20.4094 37.6908L21.9181 36.8182C21.7193 36.2182 21.7022 35.573 21.8689 34.9633C22.0839 34.1586 22.6056 33.4383 23.3879 32.9869L23.4132 32.9707C24.187 32.5331 25.0663 32.4419 25.8599 32.6569C26.2738 32.7676 26.6617 32.9589 27.0016 33.2198C27.3414 33.4808 27.6264 33.8062 27.8402 34.1774V34.1798C28.2895 34.9565 28.3806 35.8477 28.1663 36.65C28.0567 37.0639 27.866 37.4519 27.6053 37.7915C27.3445 38.1312 27.019 38.4157 26.6474 38.6285L26.4413 38.7502H26.4205C25.6978 39.0943 24.9031 39.1481 24.1733 38.9559C23.574 38.7973 23.0245 38.4625 22.594 37.9877L21.0874 38.8581C21.2658 39.3288 21.3569 39.8281 21.3564 40.3315C21.3564 40.8506 21.2607 41.3514 21.0874 41.8119L22.594 42.6798C23.014 42.2091 23.5632 41.8723 24.1733 41.7114C24.5867 41.5985 25.0185 41.5693 25.4434 41.6256C25.8683 41.6819 26.2776 41.8225 26.6474 42.0391L26.6973 42.0623V42.0647C27.4497 42.5209 27.9548 43.2249 28.1663 44.0201C28.2768 44.4326 28.3048 44.8629 28.2488 45.2862C28.1929 45.7096 28.054 46.1178 27.8402 46.4875L27.813 46.5417L27.8099 46.5372C27.3587 47.2874 26.6474 47.7957 25.8622 48.0106C25.057 48.223 24.1656 48.1323 23.3879 47.6849V47.6788C22.6056 47.2266 22.0839 46.5047 21.8689 45.7015C21.7023 45.0929 21.7194 44.4486 21.9181 43.8496L20.4095 42.9791C20.3222 43.084 20.23 43.1847 20.1332 43.2809L20.1286 43.2856C19.5248 43.8915 18.7353 44.3124 17.8557 44.4526V46.1958C18.4824 46.3266 19.0436 46.6401 19.4831 47.0799L19.4855 47.0843C19.7885 47.3861 20.0287 47.7448 20.1925 48.1398C20.3562 48.5349 20.4402 48.9584 20.4395 49.386C20.4395 50.2814 20.0746 51.0938 19.4855 51.6833L19.4831 51.6926C18.8897 52.2817 18.0757 52.6466 17.1775 52.6466C16.2838 52.6466 15.4678 52.2817 14.8758 51.6926H14.8733V51.6833C14.2837 51.0937 13.9179 50.2814 13.9179 49.386C13.9174 48.9583 14.0016 48.5347 14.1656 48.1396C14.3296 47.7446 14.5702 47.3859 14.8734 47.0843V47.0799H14.8758C15.3149 46.6401 15.8772 46.3267 16.5015 46.1958V44.4526C15.6222 44.3124 14.8339 43.8915 14.2312 43.2856L14.2249 43.2809C13.4722 42.5257 13.001 41.4848 13.001 40.3316C13.001 39.1807 13.4722 38.1399 14.2248 37.3843H14.2311C14.8453 36.7636 15.6399 36.3527 16.5014 36.2102V34.4744C15.886 34.3404 15.3218 34.0329 14.8756 33.5883H14.8732V33.5835C14.2836 32.9916 13.9178 32.1801 13.9178 31.2818C13.9178 30.3882 14.2836 29.5696 14.8733 28.9801L14.8756 28.9777C15.4677 28.3861 16.2836 28.0215 17.1774 28.0215C18.0756 28.0215 18.8896 28.3861 19.483 28.9777V28.9801H19.4854C19.7878 29.2823 20.0277 29.6411 20.1914 30.0361C20.3551 30.431 20.4393 30.8543 20.4394 31.2818C20.4394 32.1801 20.0745 32.9916 19.4854 33.5835L19.483 33.5883C19.0365 34.0333 18.4717 34.3409 17.8556 34.4744V36.2102H17.8557ZM26.3303 35.0525L26.3173 35.0335C26.1095 34.6828 25.7773 34.449 25.4103 34.3483C25.0311 34.2475 24.6228 34.2898 24.2594 34.4982H24.2616C23.8991 34.7039 23.6565 35.0403 23.5552 35.4174C23.5039 35.6094 23.4909 35.8096 23.517 36.0066C23.5431 36.2036 23.6078 36.3936 23.7073 36.5656L23.7145 36.5749C23.8134 36.7444 23.9449 36.8927 24.1014 37.0112C24.258 37.1296 24.4364 37.2159 24.6265 37.265C24.9994 37.3705 25.4148 37.3259 25.7729 37.1175L25.7922 37.1082C26.1301 36.9065 26.3759 36.5809 26.4773 36.2007C26.5773 35.8242 26.5374 35.4126 26.3303 35.0525ZM33.0244 35.5623H34.7077V40.7009L37.1353 38.0157H39.1538L36.2229 41.1267L39.166 45.0701H37.2385L34.7077 41.5477V45.0701H33.0244V35.5623ZM41.1094 41.5734C41.1094 42.4484 41.7388 43.7207 43.255 43.7207C44.1933 43.7207 44.8107 43.2317 45.131 42.5909C45.2987 42.28 45.3759 41.9475 45.4018 41.6016C45.4134 41.2669 45.3501 40.9188 45.208 40.6097C44.9129 39.9434 44.2577 39.3655 43.2426 39.3655C41.8812 39.3655 41.1093 40.4693 41.1093 41.5617V41.5734H41.1094ZM47.0718 45.0701H45.3875V44.0552C44.9392 44.8759 44.0008 45.288 43.011 45.288C40.7492 45.288 39.4262 43.5265 39.4262 41.5361C39.4262 39.3139 41.0321 37.7982 43.011 37.7982C44.2959 37.7982 45.0794 38.4792 45.3875 39.045V38.0159H47.0718V45.0701ZM48.9779 39.3139H48.1055V38.0159H48.9779V37.6183C48.9779 35.5224 50.5717 35.396 51.7801 35.3819V36.6778C51.3551 36.6778 50.6621 36.6778 50.6621 37.6695V38.016H51.7801V39.314H50.6621V45.0702H48.9778V39.314L48.9779 39.3139ZM52.9249 35.5623H54.6078V40.7009L57.036 38.0157H59.0544L56.1236 41.1267L59.0661 45.0701H57.1386L54.6078 41.5477V45.0701H52.9249V35.5623ZM61.0099 41.5734C61.0099 42.4484 61.639 43.7207 63.1557 43.7207C64.0926 43.7207 64.71 43.2317 65.0309 42.5909C65.199 42.28 65.2765 41.9475 65.3019 41.6016C65.3135 41.2669 65.2502 40.9188 65.1078 40.6097C64.8132 39.9434 64.1581 39.3655 63.1432 39.3655C61.7816 39.3655 61.0099 40.4693 61.0099 41.5617V41.5734ZM66.9719 45.0701H65.2881V44.0552C64.8386 44.8759 63.9009 45.288 62.9116 45.288C60.6498 45.288 59.3279 43.5265 59.3279 41.5361C59.3279 39.3139 60.9333 37.7982 62.9116 37.7982C64.1957 37.7982 64.98 38.4792 65.2881 39.045V38.0159H66.9719V45.0701Z" fill="#1A1919"/>
</g>
<defs>
<clipPath id="clip0_270_10886">
<rect width="54" height="24.6792" fill="white" transform="translate(13 28)"/>
</clipPath>
</defs>
</svg>
