<svg width="120" height="120" viewBox="0 0 120 120" fill="none" xmlns="http://www.w3.org/2000/svg">
<g clip-path="url(#clip0_688_16046)">
<path d="M42.2323 50.0768C44.0175 50.0768 45.4647 48.6065 45.4647 46.7928C45.4647 44.9791 44.0175 43.5088 42.2323 43.5088C40.4472 43.5088 39 44.9791 39 46.7928C39 48.6065 40.4472 50.0768 42.2323 50.0768Z" fill="#509EE3"/>
<path d="M42.2323 59.2721C44.0175 59.2721 45.4647 57.8018 45.4647 55.9881C45.4647 54.1744 44.0175 52.7041 42.2323 52.7041C40.4472 52.7041 39 54.1744 39 55.9881C39 57.8018 40.4472 59.2721 42.2323 59.2721Z" fill="#509EE3"/>
<path opacity="0.2" d="M51.2831 50.0768C53.0683 50.0768 54.5154 48.6065 54.5154 46.7928C54.5154 44.9791 53.0683 43.5088 51.2831 43.5088C49.4979 43.5088 48.0508 44.9791 48.0508 46.7928C48.0508 48.6065 49.4979 50.0768 51.2831 50.0768Z" fill="#509EE3"/>
<path d="M51.2831 59.3615C53.0683 59.3615 54.5154 57.8912 54.5154 56.0775C54.5154 54.2638 53.0683 52.7935 51.2831 52.7935C49.4979 52.7935 48.0508 54.2638 48.0508 56.0775C48.0508 57.8912 49.4979 59.3615 51.2831 59.3615Z" fill="#509EE3"/>
<path opacity="0.2" d="M60.3339 50.0768C62.1191 50.0768 63.5662 48.6065 63.5662 46.7928C63.5662 44.9791 62.1191 43.5088 60.3339 43.5088C58.5487 43.5088 57.1016 44.9791 57.1016 46.7928C57.1016 48.6065 58.5487 50.0768 60.3339 50.0768Z" fill="#509EE3"/>
<path opacity="0.2" d="M60.3339 39.568C62.1191 39.568 63.5662 38.0977 63.5662 36.284C63.5662 34.4703 62.1191 33 60.3339 33C58.5487 33 57.1016 34.4703 57.1016 36.284C57.1016 38.0977 58.5487 39.568 60.3339 39.568Z" fill="#509EE3"/>
<path opacity="0.2" d="M60.3339 59.3615C62.1191 59.3615 63.5662 57.8912 63.5662 56.0775C63.5662 54.2638 62.1191 52.7935 60.3339 52.7935C58.5487 52.7935 57.1016 54.2638 57.1016 56.0775C57.1016 57.8912 58.5487 59.3615 60.3339 59.3615Z" fill="#509EE3"/>
<path opacity="0.2" d="M69.3847 50.0768C71.1698 50.0768 72.617 48.6065 72.617 46.7928C72.617 44.9791 71.1698 43.5088 69.3847 43.5088C67.5995 43.5088 66.1523 44.9791 66.1523 46.7928C66.1523 48.6065 67.5995 50.0768 69.3847 50.0768Z" fill="#509EE3"/>
<path d="M78.4335 50.0768C80.2187 50.0768 81.6658 48.6065 81.6658 46.7928C81.6658 44.9791 80.2187 43.5088 78.4335 43.5088C76.6483 43.5088 75.2012 44.9791 75.2012 46.7928C75.2012 48.6065 76.6483 50.0768 78.4335 50.0768Z" fill="#509EE3"/>
<path d="M69.3847 59.3615C71.1698 59.3615 72.617 57.8912 72.617 56.0775C72.617 54.2638 71.1698 52.7935 69.3847 52.7935C67.5995 52.7935 66.1523 54.2638 66.1523 56.0775C66.1523 57.8912 67.5995 59.3615 69.3847 59.3615Z" fill="#509EE3"/>
<path d="M78.4335 59.3615C80.2187 59.3615 81.6658 57.8912 81.6658 56.0775C81.6658 54.2638 80.2187 52.7935 78.4335 52.7935C76.6483 52.7935 75.2012 54.2638 75.2012 56.0775C75.2012 57.8912 76.6483 59.3615 78.4335 59.3615Z" fill="#509EE3"/>
<path d="M42.2323 68.4672C44.0175 68.4672 45.4647 66.9969 45.4647 65.1832C45.4647 63.3695 44.0175 61.8992 42.2323 61.8992C40.4472 61.8992 39 63.3695 39 65.1832C39 66.9969 40.4472 68.4672 42.2323 68.4672Z" fill="#509EE3"/>
<path opacity="0.2" d="M51.2831 68.5565C53.0683 68.5565 54.5154 67.0862 54.5154 65.2725C54.5154 63.4588 53.0683 61.9885 51.2831 61.9885C49.4979 61.9885 48.0508 63.4588 48.0508 65.2725C48.0508 67.0862 49.4979 68.5565 51.2831 68.5565Z" fill="#509EE3"/>
<path d="M60.3339 68.5565C62.1191 68.5565 63.5662 67.0862 63.5662 65.2725C63.5662 63.4588 62.1191 61.9885 60.3339 61.9885C58.5487 61.9885 57.1016 63.4588 57.1016 65.2725C57.1016 67.0862 58.5487 68.5565 60.3339 68.5565Z" fill="#509EE3"/>
<path opacity="0.2" d="M69.3847 68.5565C71.1698 68.5565 72.617 67.0862 72.617 65.2725C72.617 63.4588 71.1698 61.9885 69.3847 61.9885C67.5995 61.9885 66.1523 63.4588 66.1523 65.2725C66.1523 67.0862 67.5995 68.5565 69.3847 68.5565Z" fill="#509EE3"/>
<path d="M78.4335 68.5565C80.2187 68.5565 81.6658 67.0862 81.6658 65.2725C81.6658 63.4588 80.2187 61.9885 78.4335 61.9885C76.6483 61.9885 75.2012 63.4588 75.2012 65.2725C75.2012 67.0862 76.6483 68.5565 78.4335 68.5565Z" fill="#509EE3"/>
<path d="M42.2323 77.6622C44.0175 77.6622 45.4647 76.1919 45.4647 74.3782C45.4647 72.5645 44.0175 71.0942 42.2323 71.0942C40.4472 71.0942 39 72.5645 39 74.3782C39 76.1919 40.4472 77.6622 42.2323 77.6622Z" fill="#509EE3"/>
<path opacity="0.2" d="M51.2831 77.7516C53.0683 77.7516 54.5154 76.2813 54.5154 74.4676C54.5154 72.6539 53.0683 71.1836 51.2831 71.1836C49.4979 71.1836 48.0508 72.6539 48.0508 74.4676C48.0508 76.2813 49.4979 77.7516 51.2831 77.7516Z" fill="#509EE3"/>
<path opacity="0.2" d="M60.3339 77.7516C62.1191 77.7516 63.5662 76.2813 63.5662 74.4676C63.5662 72.6539 62.1191 71.1836 60.3339 71.1836C58.5487 71.1836 57.1016 72.6539 57.1016 74.4676C57.1016 76.2813 58.5487 77.7516 60.3339 77.7516Z" fill="#509EE3"/>
<path opacity="0.2" d="M60.3339 86.9469C62.1191 86.9469 63.5662 85.4766 63.5662 83.6629C63.5662 81.8492 62.1191 80.3789 60.3339 80.3789C58.5487 80.3789 57.1016 81.8492 57.1016 83.6629C57.1016 85.4766 58.5487 86.9469 60.3339 86.9469Z" fill="#509EE3"/>
<path opacity="0.2" d="M69.3847 77.7516C71.1698 77.7516 72.617 76.2813 72.617 74.4676C72.617 72.6539 71.1698 71.1836 69.3847 71.1836C67.5995 71.1836 66.1523 72.6539 66.1523 74.4676C66.1523 76.2813 67.5995 77.7516 69.3847 77.7516Z" fill="#509EE3"/>
<path d="M78.4335 77.7516C80.2187 77.7516 81.6658 76.2813 81.6658 74.4676C81.6658 72.6539 80.2187 71.1836 78.4335 71.1836C76.6483 71.1836 75.2012 72.6539 75.2012 74.4676C75.2012 76.2813 76.6483 77.7516 78.4335 77.7516Z" fill="#509EE3"/>
</g>
<defs>
<clipPath id="clip0_688_16046">
<rect width="42.6683" height="54" fill="white" transform="translate(39 33)"/>
</clipPath>
</defs>
</svg>
