<svg width="120" height="120" viewBox="0 0 120 120" fill="none" xmlns="http://www.w3.org/2000/svg">
<path d="M60 73.6395C46.7415 73.6395 36 66.4455 36 57.561C36 48.687 46.7415 41.4915 60 41.4915C73.2585 41.4915 84 48.687 84 57.561C84 66.4455 73.2585 73.6395 60 73.6395ZM63.672 47.7735C53.6025 47.7735 45.4305 52.695 45.4305 58.7655C45.4305 64.836 53.6025 69.7575 63.672 69.7575C73.7415 69.7575 81.1875 66.39 81.1875 58.7655C81.1875 51.1395 73.749 47.7735 63.672 47.7735ZM72.546 66.39C73.3343 66.6238 74.1048 66.914 74.8515 67.2585C75.282 67.4685 75.672 67.7505 76.0155 68.0865C76.2255 68.313 76.4055 68.571 76.545 68.853L82.2735 78.5085H73.0155L68.688 70.383C68.2916 69.6746 67.8117 69.0164 67.2585 68.4225C67.1199 68.2667 66.9501 68.1418 66.7602 68.0558C66.5703 67.9698 66.3645 67.9245 66.156 67.923H63.96V78.501L55.7745 78.5085V51.477H72.219C72.219 51.477 79.7055 51.6105 79.7055 58.7355C79.7121 60.6833 78.9751 62.5602 77.6448 63.983C76.3145 65.4058 74.4914 66.2673 72.5475 66.3915L72.546 66.39ZM68.9925 57.336H64.032V61.9305H68.9925C69.2984 61.934 69.602 61.8757 69.8848 61.7591C70.1677 61.6426 70.4241 61.47 70.6387 61.2519C70.8533 61.0339 71.0217 60.7747 71.1337 60.4899C71.2457 60.2052 71.299 59.9008 71.2905 59.595C71.3078 59.2905 71.2599 58.9858 71.1499 58.7014C71.04 58.4169 70.8706 58.1592 70.653 57.9455C70.4355 57.7318 70.1748 57.567 69.8884 57.4621C69.6021 57.3573 69.2966 57.3148 68.9925 57.3375V57.336Z" fill="white"/>
</svg>
