<svg width="80" height="80" viewBox="0 0 80 80" fill="none" xmlns="http://www.w3.org/2000/svg">
<path d="M40 49.093C31.161 49.093 24 44.297 24 38.374C24 32.458 31.161 27.661 40 27.661C48.839 27.661 56 32.458 56 38.374C56 44.297 48.839 49.093 40 49.093ZM42.448 31.849C35.735 31.849 30.287 35.13 30.287 39.177C30.287 43.224 35.735 46.505 42.448 46.505C49.161 46.505 54.125 44.26 54.125 39.177C54.125 34.093 49.166 31.849 42.448 31.849ZM48.364 44.26C48.8896 44.4159 49.4032 44.6094 49.901 44.839C50.188 44.979 50.448 45.167 50.677 45.391C50.817 45.542 50.937 45.714 51.03 45.902L54.849 52.339H48.677L45.792 46.922C45.5278 46.4498 45.2078 46.011 44.839 45.615C44.7466 45.5112 44.6334 45.4279 44.5068 45.3706C44.3802 45.3132 44.243 45.283 44.104 45.282H42.64V52.334L37.183 52.339V34.318H48.146C48.146 34.318 53.137 34.407 53.137 39.157C53.1414 40.4556 52.6501 41.7068 51.7632 42.6554C50.8764 43.6039 49.6609 44.1782 48.365 44.261L48.364 44.26ZM45.995 38.224H42.688V41.287H45.995C46.199 41.2894 46.4013 41.2505 46.5899 41.1728C46.7785 41.0951 46.9494 40.9801 47.0925 40.8347C47.2355 40.6893 47.3478 40.5165 47.4224 40.3267C47.4971 40.1369 47.5327 39.9339 47.527 39.73C47.5385 39.527 47.5066 39.3239 47.4333 39.1343C47.36 38.9446 47.2471 38.7728 47.102 38.6304C46.957 38.4879 46.7832 38.378 46.5923 38.3081C46.4014 38.2382 46.1977 38.2099 45.995 38.225V38.224Z" fill="black"/>
</svg>
