<svg width="120" height="120" viewBox="0 0 120 120" fill="none" xmlns="http://www.w3.org/2000/svg">
<g clip-path="url(#clip0_689_6867)">
<path d="M36.3089 61.9866C37.9651 61.9866 40.3612 61.645 40.3612 59.6753C40.3661 59.5232 40.3523 59.3712 40.32 59.2225L39.3338 54.9384C39.1062 53.9959 38.9064 53.5684 37.2514 52.741C35.9673 52.0842 33.1701 51 32.3428 51C31.5723 51 31.3486 51.9929 30.4298 51.9929C29.5454 51.9929 28.8889 51.2515 28.0615 51.2515C27.2672 51.2515 26.7496 51.7931 26.3498 52.9063C26.3498 52.9063 25.2364 56.0466 25.0934 56.5019C25.0706 56.5855 25.0608 56.6721 25.0642 56.7587C25.0642 57.9794 29.8699 61.9814 36.3092 61.9814M40.6154 60.4748C40.8445 61.559 40.8445 61.6729 40.8445 61.8159C40.8445 63.6692 38.7608 64.6978 36.0217 64.6978C29.8313 64.7018 24.409 61.0746 24.409 58.677C24.4086 58.3433 24.4767 58.013 24.6089 57.7066C22.3819 57.8178 19.5 58.2149 19.5 60.7594C19.5 64.9269 29.3746 70.0632 37.1932 70.0632C43.1876 70.0632 44.6994 67.352 44.6994 65.2114C44.6994 63.5275 43.2433 61.6158 40.6181 60.4747" fill="#EE0000"/>
<path d="M40.6167 60.4747C40.8457 61.559 40.8457 61.6729 40.8457 61.8159C40.8457 63.6692 38.762 64.6979 36.0229 64.6979C29.8325 64.7018 24.4102 61.0746 24.4102 58.6771C24.4098 58.3433 24.4779 58.0131 24.6101 57.7066L25.0945 56.5072C25.0723 56.5891 25.0625 56.6739 25.0654 56.7587C25.0654 57.9794 29.8711 61.9814 36.3104 61.9814C37.9664 61.9814 40.3625 61.6397 40.3625 59.6699C40.3674 59.5179 40.3536 59.3658 40.3214 59.2172L40.6167 60.4748V60.4747ZM96.1839 63.2192C96.1839 64.7933 97.1304 65.5583 98.8567 65.5583C99.3882 65.5451 99.9164 65.4706 100.431 65.3361V63.5104C100.102 63.6146 99.7589 63.6663 99.414 63.6639C98.7032 63.6639 98.4397 63.4416 98.4397 62.773V59.9757H100.5V58.0958H98.4398V55.713L96.1891 56.2001V58.0958H94.6946V59.9757H96.1839V63.2192ZM89.1675 63.2616C89.1675 62.7743 89.656 62.5373 90.3934 62.5373C90.8441 62.54 91.2929 62.5959 91.7305 62.7042V63.6507C91.2993 63.8862 90.8145 64.0061 90.3232 63.9988C89.6004 63.9988 89.1675 63.7208 89.1675 63.2616ZM89.8559 65.5862C90.6502 65.5862 91.2909 65.4194 91.8894 65.0155V65.4617H94.116V60.7409C94.116 58.9458 92.906 57.9609 90.8872 57.9609C89.7592 57.9609 88.6445 58.2255 87.4452 58.7683L88.2526 60.4258C89.1158 60.0631 89.8413 59.8406 90.4807 59.8406C91.4075 59.8406 91.8867 60.2021 91.8867 60.9408V61.3022C91.3411 61.161 90.7796 61.0907 90.2161 61.0931C88.3216 61.0931 87.1803 61.8873 87.1803 63.3079C87.1803 64.6026 88.2102 65.5901 89.8533 65.5901M77.6155 65.4658H80.0104V61.6465H84.0204V65.4618H86.4219V55.7155H84.0296V59.4608H80.0197V55.7155H77.6249L77.6155 65.4658ZM68.4995 61.7723C68.4995 60.7131 69.3348 59.9055 70.4351 59.9055C71.0074 59.8939 71.5631 60.0981 71.9918 60.4774V63.0524C71.7841 63.2487 71.5396 63.4019 71.2724 63.5032C71.0053 63.6045 70.7207 63.652 70.4351 63.6428C69.3495 63.6428 68.4995 62.8352 68.4995 61.7775M72.0223 65.467H74.2504V55.2283L71.9999 55.7155V58.4864C71.4269 58.1616 70.7785 57.9935 70.12 57.9992C67.9767 57.9992 66.2915 59.6554 66.2915 61.7723C66.2853 62.2689 66.3782 62.7619 66.5646 63.2223C66.751 63.6827 67.0273 64.1014 67.3773 64.4538C67.7273 64.8063 68.144 65.0855 68.6031 65.2752C69.0622 65.4648 69.5544 65.5611 70.0511 65.5585C70.7614 65.5618 71.454 65.3378 72.0277 64.919L72.0223 65.467ZM61.7983 59.8036C62.5078 59.8036 63.1063 60.263 63.3433 60.9727H60.2719C60.4942 60.2406 61.0516 59.8036 61.7983 59.8036ZM58.0029 61.7893C58.0029 63.9341 59.7568 65.6047 62.0114 65.6047C63.2506 65.6047 64.1561 65.2698 65.0893 64.49L63.5988 63.1662C63.2506 63.5289 62.7356 63.7235 62.124 63.7235C61.7394 63.7343 61.3605 63.6285 61.0372 63.4198C60.714 63.2112 60.4614 62.9095 60.3129 62.5546H65.562V61.9945C65.562 59.6554 63.9892 57.9715 61.8446 57.9715C61.3405 57.9639 60.8399 58.0571 60.3723 58.2458C59.9048 58.4344 59.4796 58.7147 59.1219 59.07C58.7642 59.4254 58.4812 59.8486 58.2894 60.3149C58.0977 60.7813 58.0011 61.2812 58.0054 61.7854M54.12 57.7623C54.9142 57.7623 55.359 58.2627 55.359 58.8623C55.359 59.462 54.9143 59.9624 54.12 59.9624H51.7517V57.7622H54.12V57.7623ZM49.3539 65.4617H51.7487V61.9112H53.5717L55.4106 65.4618H58.0913L55.9467 61.563C56.4917 61.3413 56.958 60.9616 57.2854 60.4728C57.6129 59.984 57.7866 59.4084 57.7842 58.8201C57.7842 57.0659 56.4061 55.7155 54.3423 55.7155H49.3539V65.4618V65.4617Z" fill="white"/>
</g>
<defs>
<clipPath id="clip0_689_6867">
<rect width="81" height="19.1423" fill="white" transform="translate(19.5 51)"/>
</clipPath>
</defs>
</svg>
