<svg width="80" height="80" viewBox="0 0 80 80" fill="none" xmlns="http://www.w3.org/2000/svg">
<g clip-path="url(#clip0_270_12156)">
<path fill-rule="evenodd" clip-rule="evenodd" d="M57.3189 39.9966C57.2826 39.919 57.2663 39.88 57.2467 39.8428C56.7218 38.8443 56.1983 37.8458 55.668 36.8474C55.6149 36.7473 55.6216 36.6882 55.6943 36.6018C56.5295 35.6263 57.354 34.6454 58.1905 33.6739C58.2201 33.6396 58.2464 33.6033 58.2574 33.5422C58.0146 33.6055 57.7717 33.6681 57.5275 33.7324C56.5196 33.9996 55.5036 34.2654 54.5051 34.5366C54.4113 34.5618 54.3688 34.5345 54.3216 34.4565C53.7495 33.4998 53.1734 32.5405 52.5945 31.596C52.565 31.5465 52.5327 31.4985 52.4696 31.457C52.4232 31.712 52.3762 31.9657 52.3306 32.2207C52.17 33.1207 52.0095 34.0153 51.8503 34.9193C51.8329 35.0163 51.8091 35.1136 51.8007 35.2107C51.7928 35.3035 51.7449 35.3378 51.6604 35.3645C50.4717 35.7383 49.2857 36.1147 48.0983 36.4912C48.0463 36.5075 47.9951 36.5291 47.9391 36.5797C48.9106 36.9656 49.8821 37.3515 50.867 37.7441C50.8312 37.7726 50.8074 37.7947 50.7811 37.8116C50.1739 38.2042 49.5654 38.5969 48.9596 38.9908C48.8869 39.0383 48.8294 39.0451 48.7477 39.0083C48.0218 38.6817 47.2905 38.3606 46.5619 38.0368C46.2354 37.8911 45.9426 37.6981 45.7146 37.4175C45.1978 36.786 45.3003 36.0682 45.9885 35.6229C46.2138 35.4785 46.4702 35.372 46.7252 35.2883C47.8896 34.9092 49.0594 34.5435 50.2198 34.1765C50.3178 34.1453 50.3628 34.1016 50.3817 33.9957C50.5382 33.0944 50.6988 32.1877 50.8621 31.2971C50.9489 30.8155 50.9948 30.323 51.2291 29.8804C51.3188 29.7104 51.4261 29.5444 51.5556 29.4028C52.0197 28.8873 52.666 28.8684 53.1612 29.3585C53.3272 29.5245 53.4689 29.7188 53.5916 29.9198C54.1313 30.8009 54.663 31.6874 55.1973 32.5779C55.26 32.6827 55.3164 32.7038 55.432 32.6733C56.7341 32.3238 58.0362 31.9797 59.3449 31.6357C59.6148 31.5646 59.886 31.5388 60.1626 31.5905C60.763 31.7027 61.0261 32.1599 60.8224 32.7414C60.7303 33.0059 60.5701 33.2285 60.3906 33.4403C59.4812 34.5103 58.5691 35.5857 57.6651 36.6516C57.5908 36.739 57.5893 36.8014 57.6408 36.8999C58.1859 37.9267 58.7256 38.9508 59.2734 39.9897C59.4031 40.2353 59.5028 40.4916 59.5055 40.7736C59.5119 41.4159 59.0414 41.9421 58.4032 42.0366C58.0456 42.0888 57.7137 42.0124 57.3777 41.9091C56.5614 41.6567 55.7451 41.4085 54.922 41.1616C54.8461 41.1389 54.817 41.1088 54.8034 41.0272C54.7095 40.451 54.6064 39.8762 54.5066 39.3001C54.504 39.2843 54.5087 39.2674 54.5114 39.2321C55.4438 39.4898 56.3734 39.7435 57.3314 40.0093" fill="#E25A1C"/>
<path fill-rule="evenodd" clip-rule="evenodd" d="M55.6999 48.4296C54.9632 48.4285 54.2292 48.4248 53.4871 48.4281C53.3895 48.4281 53.3346 48.4001 53.2806 48.3173C52.409 46.9896 51.5266 45.6592 50.663 44.3369C50.6351 44.2948 50.6056 44.2542 50.556 44.1831C50.3685 45.6134 50.1836 47.0166 49.9988 48.4198H48.0693C48.092 48.2323 48.1121 48.0501 48.1359 47.8693C48.3234 46.4256 48.5137 44.9954 48.7025 43.5517C48.8834 42.1754 49.0628 40.7991 49.2463 39.4229C49.2516 39.3823 49.279 39.33 49.3122 39.3085C49.976 38.8753 50.6425 38.4463 51.3091 38.0172C51.3187 38.0109 51.3323 38.0103 51.3666 38.0003C51.1655 39.5385 50.9658 41.0632 50.7648 42.5879C50.7727 42.5931 50.7806 42.5989 50.7885 42.6042C51.8342 41.4465 52.8799 40.2834 53.9458 39.1096C53.9765 39.2877 54.0033 39.4401 54.0296 39.5926C54.1045 40.0284 54.1767 40.4669 54.2563 40.9028C54.2726 40.9907 54.2489 41.0444 54.1905 41.1065C53.5145 41.8135 52.8412 42.5232 52.1665 43.2384C52.137 43.2695 52.1091 43.3016 52.0753 43.3386C52.0969 43.3727 52.1154 43.4061 52.137 43.4366C53.2987 45.0692 54.4578 46.7018 55.6181 48.3344C55.6392 48.364 55.6697 48.3872 55.6956 48.4135V48.4393" fill="#3C3A3E"/>
<path fill-rule="evenodd" clip-rule="evenodd" d="M32.8968 44.1119C32.8673 43.9621 32.8462 43.7408 32.7793 43.5344C32.4555 42.5373 31.4341 41.9962 30.3776 42.2377C29.2159 42.5076 28.3807 43.4211 28.2727 44.6125C28.1837 45.4895 28.6559 46.3395 29.5329 46.6499C30.24 46.9049 30.9227 46.7983 31.5569 46.4192C32.3948 45.9172 32.8481 45.1711 32.9061 44.1119H32.8968ZM27.7966 47.8224C27.7396 48.2515 27.6848 48.6549 27.6319 49.0597C27.5614 49.5967 27.4903 50.1351 27.4228 50.6788C27.415 50.7416 27.396 50.7695 27.3285 50.7689C26.7982 50.7669 26.268 50.7675 25.7364 50.7664C25.7242 50.7664 25.7121 50.76 25.6836 50.7517C25.7157 50.498 25.7469 50.243 25.7801 49.9893C25.897 49.0988 26.0135 48.2083 26.1322 47.3178C26.2685 46.2977 26.3751 45.2804 26.5492 44.2684C26.8568 42.4739 28.3842 40.9357 30.1652 40.5444C31.2001 40.3204 32.1891 40.4242 33.0931 41.0072C33.9945 41.5874 34.5099 42.4374 34.6313 43.4899C34.7986 44.9876 34.2468 46.2289 33.1876 47.2678C32.4887 47.9438 31.6494 48.3729 30.6914 48.5186C29.697 48.6684 28.762 48.5028 27.9254 47.9168C27.8948 47.8953 27.8616 47.8764 27.809 47.8432" fill="#3C3A3E"/>
<path fill-rule="evenodd" clip-rule="evenodd" d="M26.9065 39.3219C26.3128 39.7645 25.7394 40.1909 25.1659 40.6186C25.0732 40.4729 24.9905 40.3272 24.8934 40.1909C24.6438 39.8414 24.3334 39.581 23.8828 39.55C23.5077 39.5235 23.1866 39.6468 22.9315 39.9237C22.7035 40.1706 22.6738 40.5228 22.8867 40.8021C23.1215 41.1097 23.3779 41.4012 23.641 41.6859C24.0768 42.1581 24.5315 42.6115 24.9633 43.0891C25.3559 43.5209 25.6703 44.0039 25.7675 44.6003C25.8829 45.3019 25.7428 45.9631 25.4112 46.5837C24.7973 47.7239 23.8326 48.3918 22.5508 48.5942C21.9868 48.6852 21.4255 48.6674 20.8777 48.5055C20.1477 48.291 19.639 47.812 19.3125 47.1427C19.1972 46.9039 19.1088 46.6516 19.0049 46.3952C19.6431 46.0539 20.2651 45.7206 20.8939 45.3846C20.9155 45.4369 20.9312 45.4806 20.9513 45.5223C21.0589 45.7368 21.147 45.9648 21.2792 46.1632C21.6746 46.7501 22.3114 46.9282 22.9523 46.6381C23.1183 46.5632 23.2788 46.4587 23.4151 46.3372C23.8307 45.9675 23.909 45.4521 23.6013 44.988C23.4246 44.7208 23.2033 44.4806 22.9874 44.2418C22.472 43.6697 21.935 43.1152 21.4357 42.5282C21.089 42.1261 20.8529 41.6593 20.7773 41.125C20.6957 40.5367 20.8132 39.9835 21.1187 39.4924C21.8783 38.2632 22.9807 37.6304 24.4379 37.6708C25.2704 37.7009 25.9356 38.0905 26.4483 38.7381C26.6008 38.9297 26.7438 39.1281 26.899 39.3358" fill="#3C3A3E"/>
<path fill-rule="evenodd" clip-rule="evenodd" d="M40.9932 45.8659C40.8962 46.6067 40.8043 47.3097 40.7098 48.0113C40.7046 48.0472 40.6766 48.0956 40.6466 48.1094C39.2028 48.7759 37.3138 48.6828 36.14 47.3416C35.5058 46.6211 35.24 45.763 35.2791 44.8185C35.3713 42.6192 37.1951 40.6897 39.3809 40.4199C40.656 40.2633 41.7692 40.6074 42.6327 41.5991C43.221 42.2738 43.4935 43.0833 43.453 43.9738C43.4267 44.5621 43.3344 45.1464 43.2615 45.7279C43.1576 46.5564 43.0442 47.3875 42.9349 48.2106C42.9307 48.2394 42.9249 48.269 42.9181 48.3065H41.2045C41.2271 48.1163 41.2482 47.9301 41.2725 47.7439C41.3969 46.7872 41.5342 45.8279 41.6435 44.8699C41.7115 44.2735 41.6688 43.6812 41.3953 43.1293C41.1052 42.5424 40.6194 42.2307 39.9785 42.1633C38.6535 42.0229 37.3879 42.9431 37.1181 44.2411C36.9319 45.102 37.2256 45.9277 37.9114 46.3865C38.5793 46.8304 39.2877 46.8317 40.0163 46.5444C40.386 46.3986 40.699 46.1666 40.9986 45.8549" fill="#3C3A3E"/>
<path fill-rule="evenodd" clip-rule="evenodd" d="M48.2787 40.6442C48.2001 41.2406 48.1221 41.8276 48.0439 42.4253C47.6796 42.4253 47.3234 42.4233 46.9672 42.4258C46.6784 42.428 46.4153 42.6147 46.3276 42.8846C46.2939 42.99 46.2813 43.1032 46.2665 43.2138C46.0857 44.5901 45.9062 45.9528 45.7268 47.3156C45.6814 47.661 45.6377 48.0064 45.5924 48.3572H43.7979C43.831 48.0941 43.8626 47.8391 43.8958 47.5841C44.0123 46.6963 44.1292 45.8031 44.2466 44.926C44.3484 44.1583 44.4396 43.3879 44.5597 42.6188C44.7202 41.5933 45.7403 40.6758 46.7725 40.6353C47.2663 40.6137 47.7615 40.6317 48.2702 40.6317" fill="#3C3A3E"/>
<path d="M57.8592 48.4296V47.674H57.8551L57.5582 48.4296H57.4639L57.1671 47.674H57.1623V48.4296H57.0139V47.5242H57.2446L57.5145 48.2123L57.7803 47.5242H58.0097V48.4296H57.8592ZM56.5451 47.6456V48.4296H56.3966V47.6456H56.1133V47.5243H56.8297V47.6456H56.5464" fill="#3C3A3E"/>
<path d="M29.2948 38.0536H29.7387L29.6337 37.3817L29.2948 38.0536ZM29.8088 38.4881H29.0708L28.836 38.9482H28.3125L29.4661 36.7894H29.9708L30.3634 38.9482H29.879L29.8094 38.4881" fill="#3C3A3E"/>
<path d="M32.4517 37.2306H32.1886L32.1001 37.7285H32.3632C32.5224 37.7285 32.6479 37.6242 32.6479 37.4276C32.6479 37.2974 32.5688 37.2306 32.4509 37.2306H32.4517ZM31.8148 36.7961H32.5057C32.8673 36.7961 33.1196 37.012 33.1196 37.3817C33.1196 37.8485 32.7904 38.1616 32.3208 38.1616H32.0226L31.8823 38.9509H31.4316L31.8121 36.7921" fill="#3C3A3E"/>
<path d="M34.6516 38.0536H35.0955L34.9907 37.3817L34.6516 38.0536ZM35.1643 38.4881H34.4263L34.1915 38.9482H33.668L34.8216 36.7894H35.3262L35.7189 38.9482H35.2345L35.1649 38.4881" fill="#3C3A3E"/>
<path d="M38.0242 38.8767C37.8717 38.9463 37.7044 38.9879 37.5357 38.9879C36.965 38.9879 36.6074 38.5601 36.6074 38.0245C36.6074 37.339 37.1836 36.7629 37.869 36.7629C38.0404 36.7629 38.1955 36.8041 38.3224 36.8735L38.2591 37.3903C38.1642 37.2855 38.0108 37.2122 37.8219 37.2122C37.4293 37.2122 37.0798 37.5671 37.0798 37.9786C37.0798 38.2916 37.2768 38.5372 37.5871 38.5372C37.7774 38.5372 37.9609 38.4639 38.085 38.3631L38.025 38.8759" fill="#3C3A3E"/>
<path d="M40.8579 38.0806H39.9201L39.7677 38.9482H39.3184L39.6989 36.7894H40.1495L39.9984 37.6421H40.9361L41.0886 36.7894H41.5393L41.1588 38.9482H40.7081L40.8592 38.0806" fill="#3C3A3E"/>
<path d="M42.4775 38.9441L42.858 36.7853H44.0535L43.9775 37.2198H43.2327L43.1568 37.6381H43.8408L43.7649 38.0725H43.0808L43.0048 38.507H43.7496L43.6737 38.9415H42.4782" fill="#3C3A3E"/>
</g>
<defs>
<clipPath id="clip0_270_12156">
<rect width="42" height="21.8116" fill="white" transform="translate(19 29)"/>
</clipPath>
</defs>
</svg>
