<svg
  width="120"
  height="120"
  viewBox="0 0 120 120"
  fill="none"
  xmlns="http://www.w3.org/2000/svg"
>
<path
    fill-rule="evenodd"
    clip-rule="evenodd"
    d="M85.9793 59.995C85.9248 59.8786 85.9004 59.8201 85.871 59.7642C85.0837 58.2665 84.2984 56.7689 83.503 55.2712C83.4233 55.121 83.4334 55.0323 83.5425 54.9028C84.7953 53.4395 86.0319 51.9681 87.2867 50.5109C87.3311 50.4595 87.3705 50.4051 87.3871 50.3134C87.0228 50.4083 86.6585 50.5022 86.2922 50.5987C84.7803 50.9995 83.2563 51.3982 81.7586 51.805C81.618 51.8428 81.5542 51.8018 81.4834 51.6848C80.6252 50.2498 79.761 48.8108 78.8928 47.3941C78.8484 47.3198 78.8001 47.2478 78.7053 47.1856C78.6357 47.5681 78.5653 47.9486 78.4969 48.3312C78.256 49.6811 78.0152 51.023 77.7764 52.379C77.7503 52.5245 77.7146 52.6704 77.7021 52.8161C77.6902 52.9554 77.6183 53.0068 77.4916 53.0469C75.7085 53.6075 73.9295 54.1722 72.1485 54.7368C72.0704 54.7613 71.9936 54.7937 71.9097 54.8696C73.3669 55.4485 74.8241 56.0273 76.3015 56.6162C76.2477 56.659 76.2121 56.6921 76.1726 56.7174C75.2619 57.3064 74.3491 57.8954 73.4403 58.4863C73.3313 58.5576 73.245 58.5677 73.1226 58.5125C72.0337 58.0227 70.9368 57.541 69.8438 57.0552C69.3541 56.8367 68.9149 56.5472 68.5728 56.1263C67.7977 55.1791 67.9515 54.1023 68.9837 53.4345C69.3217 53.2179 69.7062 53.058 70.0887 52.9325C71.8354 52.3638 73.5901 51.8153 75.3307 51.2648C75.4776 51.2181 75.5452 51.1525 75.5735 50.9936C75.8083 49.6416 76.0492 48.2816 76.2941 46.9458C76.4244 46.2233 76.4932 45.4845 76.8446 44.8207C76.9792 44.5657 77.1401 44.3167 77.3343 44.1042C78.0306 43.3311 79 43.3027 79.7428 44.0378C79.9917 44.2868 80.2043 44.5782 80.3884 44.8798C81.198 46.2014 81.9954 47.5311 82.7969 48.8669C82.891 49.0241 82.9756 49.0557 83.1491 49.01C85.1021 48.4858 87.0552 47.9697 89.0184 47.4536C89.4232 47.3469 89.83 47.3083 90.2449 47.3858C91.1455 47.5542 91.5402 48.2399 91.2346 49.1122C91.0964 49.5089 90.8561 49.8428 90.5869 50.1606C89.2228 51.7655 87.8547 53.3786 86.4986 54.9775C86.3871 55.1086 86.3849 55.2021 86.4622 55.3499C87.2799 56.8901 88.0894 58.4262 88.9111 59.9846C89.1056 60.353 89.2552 60.7375 89.2592 61.1605C89.2688 62.1239 88.563 62.9132 87.6057 63.0549C87.0694 63.1332 86.5715 63.0187 86.0675 62.8637C84.8431 62.4852 83.6186 62.1128 82.384 61.7424C82.2701 61.7084 82.2266 61.6633 82.2061 61.5408C82.0652 60.6766 81.9106 59.8144 81.7609 58.9502C81.757 58.9265 81.7641 58.9012 81.7681 58.8482C83.1667 59.2348 84.5611 59.6153 85.9981 60.014"
    fill="#E25A1C"
  />
<path
    fill-rule="evenodd"
    clip-rule="evenodd"
    d="M83.5513 72.6443C82.4462 72.6427 81.3452 72.6372 80.2321 72.6421C80.0858 72.6421 80.0034 72.6002 79.9224 72.4759C78.615 70.4844 77.2913 68.4888 75.996 66.5054C75.9541 66.4422 75.9098 66.3813 75.8355 66.2747C75.5542 68.42 75.2769 70.5249 74.9997 72.6298H72.1055C72.1395 72.3484 72.1696 72.0752 72.2052 71.804C72.4866 69.6384 72.7719 67.4931 73.0553 65.3275C73.3265 63.2631 73.5957 61.1987 73.8709 59.1343C73.8788 59.0734 73.9199 58.9951 73.9697 58.9627C74.9655 58.313 75.9653 57.6694 76.9651 57.0258C76.9795 57.0163 76.9999 57.0155 77.0513 57.0005C76.7497 59.3077 76.4502 61.5948 76.1486 63.8818C76.1606 63.8897 76.1723 63.8984 76.1843 63.9063C77.7528 62.1698 79.3213 60.4252 80.9202 58.6643C80.9662 58.9315 81.0064 59.1602 81.0459 59.3889C81.1582 60.0426 81.2665 60.7004 81.3859 61.3541C81.4104 61.4861 81.3748 61.5666 81.2872 61.6597C80.2732 62.7203 79.2632 63.7848 78.2513 64.8575C78.207 64.9043 78.1651 64.9524 78.1145 65.0079C78.1468 65.0591 78.1746 65.1091 78.207 65.1548C79.9495 67.6038 81.6881 70.0527 83.4287 72.5016C83.4602 72.546 83.506 72.5808 83.5448 72.6202V72.6589"
    fill="white"
  />
<path
    fill-rule="evenodd"
    clip-rule="evenodd"
    d="M49.3472 66.1679C49.3029 65.9432 49.2713 65.6113 49.1709 65.3016C48.6852 63.806 47.1531 62.9944 45.5683 63.3567C43.8257 63.7614 42.5729 65.1316 42.411 66.9188C42.2775 68.2343 42.9858 69.5094 44.3014 69.9749C45.3619 70.3574 46.386 70.1975 47.3372 69.6288C48.5941 68.8759 49.2741 67.7567 49.3611 66.1679H49.3472ZM41.6968 71.7336C41.6114 72.3772 41.5292 72.9824 41.4499 73.5896C41.344 74.3951 41.2374 75.2026 41.1362 76.0183C41.1244 76.1124 41.0959 76.1543 40.9947 76.1535C40.1993 76.1504 39.4039 76.1512 38.6065 76.1496C38.5883 76.1496 38.57 76.1401 38.5273 76.1276C38.5755 75.7471 38.6223 75.3645 38.6721 74.984C38.8475 73.6483 39.0222 72.3125 39.2003 70.9767C39.4047 69.4466 39.5646 67.9206 39.8257 66.4027C40.2871 63.7109 42.5782 61.4036 45.2498 60.8167C46.8021 60.4807 48.2856 60.6363 49.6417 61.5109C50.9936 62.3811 51.7668 63.6562 51.9489 65.2349C52.1999 67.4814 51.3721 69.3434 49.7833 70.9018C48.7349 71.9158 47.4761 72.5594 46.0391 72.778C44.5475 73.0026 43.1449 72.7543 41.8901 71.8753C41.8441 71.8429 41.7943 71.8146 41.7154 71.7648"
    fill="white"
  />
<path
    fill-rule="evenodd"
    clip-rule="evenodd"
    d="M40.3603 58.9828C39.4697 59.6467 38.6096 60.2862 37.7494 60.9278C37.6104 60.7092 37.4863 60.4906 37.3406 60.2862C36.9662 59.762 36.5006 59.3714 35.8247 59.3249C35.262 59.2852 34.7803 59.4702 34.3978 59.8855C34.0558 60.2559 34.0112 60.7841 34.3306 61.2031C34.6828 61.6645 35.0673 62.1017 35.462 62.5287C36.1157 63.2371 36.7978 63.9171 37.4454 64.6336C38.0344 65.2812 38.5059 66.0058 38.6517 66.9004C38.8249 67.9528 38.6146 68.9445 38.1174 69.8755C37.1965 71.5857 35.7494 72.5876 33.8267 72.8912C32.9807 73.0278 32.1387 73.0011 31.317 72.7582C30.2221 72.4364 29.4591 71.7179 28.9693 70.714C28.7962 70.3558 28.6637 69.9773 28.5078 69.5928C29.4651 69.0807 30.3981 68.5808 31.3413 68.0769C31.3737 68.1552 31.3974 68.2208 31.4275 68.2833C31.5888 68.6051 31.721 68.9472 31.9193 69.2447C32.5123 70.1251 33.4676 70.3922 34.429 69.9571C34.6779 69.8448 34.9188 69.6879 35.1232 69.5058C35.7465 68.9512 35.8639 68.1781 35.4025 67.4818C35.1373 67.0811 34.8054 66.7208 34.4816 66.3626C33.7085 65.5045 32.9029 64.6726 32.1541 63.7922C31.6339 63.1891 31.2798 62.4888 31.1664 61.6874C31.044 60.8049 31.2203 59.9751 31.6785 59.2384C32.8179 57.3947 34.4715 56.4454 36.6573 56.5062C37.9061 56.5513 38.9038 57.1356 39.6729 58.1071C39.9016 58.3945 40.1162 58.692 40.3489 59.0037"
    fill="white"
  />
<path
    fill-rule="evenodd"
    clip-rule="evenodd"
    d="M61.4908 68.7988C61.3452 69.9099 61.2074 70.9644 61.0657 72.0168C61.0578 72.0707 61.0159 72.1433 60.9708 72.164C58.8052 73.1638 55.9717 73.0241 54.2109 71.0124C53.2597 69.9316 52.861 68.6444 52.9197 67.2276C53.0579 63.9287 55.7936 61.0345 59.0724 60.6297C60.985 60.3949 62.6547 60.911 63.95 62.3986C64.8324 63.4105 65.2413 64.6249 65.1806 65.9607C65.1411 66.8431 65.0027 67.7194 64.8932 68.5918C64.7373 69.8344 64.5673 71.0812 64.4034 72.3158C64.3971 72.3591 64.3884 72.4034 64.3781 72.4597H61.8077C61.8417 72.1743 61.8733 71.895 61.9097 71.6157C62.0963 70.1807 62.3023 68.7417 62.4663 67.3047C62.5683 66.4102 62.5041 65.5217 62.0939 64.6939C61.6587 63.8135 60.9301 63.346 59.9688 63.2448C57.9813 63.0343 56.0829 64.4146 55.6781 66.3616C55.3988 67.6529 55.8394 68.8915 56.8681 69.5796C57.87 70.2455 58.9325 70.2475 60.0254 69.8164C60.58 69.5978 61.0495 69.2497 61.4988 68.7822"
    fill="white"
  />
<path
    fill-rule="evenodd"
    clip-rule="evenodd"
    d="M72.4185 60.9663C72.3007 61.8609 72.1837 62.7413 72.0663 63.6379C71.5199 63.6379 70.9855 63.6349 70.4512 63.6387C70.0181 63.6419 69.6235 63.9221 69.4919 64.3268C69.4413 64.4849 69.4225 64.6547 69.4002 64.8207C69.129 66.8851 68.8598 68.9292 68.5907 70.9734C68.5226 71.4915 68.4571 72.0096 68.3891 72.5358H65.6973C65.7471 72.1412 65.7944 71.7586 65.8442 71.3761C66.0189 70.0444 66.1943 68.7046 66.3704 67.389C66.523 66.2374 66.6598 65.0818 66.84 63.9281C67.0808 62.3899 68.6109 61.0137 70.1592 60.953C70.8999 60.9206 71.6427 60.9475 72.4057 60.9475"
    fill="white"
  />
<path
    d="M43.9422 57.0805H44.608L44.4506 56.0726L43.9422 57.0805ZM44.7133 57.7322H43.6062L43.254 58.4223H42.4688L44.1992 55.1841H44.9561L45.5451 58.4223H44.8185L44.7141 57.7322"
    fill="white"
  />
<path
    d="M48.6785 55.8458H48.2839L48.1511 56.5926H48.5457C48.7846 56.5926 48.9728 56.4361 48.9728 56.1413C48.9728 55.9459 48.8542 55.8458 48.6773 55.8458H48.6785ZM47.7232 55.1941H48.7595C49.3019 55.1941 49.6804 55.5179 49.6804 56.0724C49.6804 56.7727 49.1865 57.2423 48.4822 57.2423H48.0349L47.8244 58.4262H47.1484L47.7192 55.188"
    fill="white"
  />
<path
    d="M51.9774 57.0805H52.6433L52.486 56.0726L51.9774 57.0805ZM52.7465 57.7322H51.6394L51.2872 58.4223H50.502L52.2324 55.1841H52.9893L53.5783 58.4223H52.8517L52.7473 57.7322"
    fill="white"
  />
<path
    d="M57.0372 58.3149C56.8085 58.4194 56.5576 58.4817 56.3046 58.4817C55.4484 58.4817 54.9121 57.8401 54.9121 57.0366C54.9121 56.0085 55.7763 55.1443 56.8045 55.1443C57.0615 55.1443 57.2943 55.206 57.4845 55.3102L57.3896 56.0854C57.2473 55.9281 57.0172 55.8182 56.7338 55.8182C56.1449 55.8182 55.6207 56.3505 55.6207 56.9678C55.6207 57.4374 55.9162 57.8057 56.3817 57.8057C56.667 57.8057 56.9423 57.6958 57.1285 57.5446L57.0384 58.3137"
    fill="white"
  />
<path
    d="M61.2878 57.121H59.8812L59.6525 58.4223H58.9785L59.5493 55.1841H60.2252L59.9986 56.4632H61.4052L61.6339 55.1841H62.3099L61.7391 58.4223H61.0631L61.2898 57.121"
    fill="white"
  />
<path
    d="M63.7168 58.416L64.2875 55.1777H66.0807L65.9668 55.8294H64.8496L64.7356 56.4568H65.7618L65.6478 57.1085H64.6217L64.5077 57.7602H65.6249L65.511 58.4119H63.7178"
    fill="white"
  />
</svg>
