<svg width="80" height="80" viewBox="0 0 80 80" fill="none" xmlns="http://www.w3.org/2000/svg">
<path d="M51.912 31.289L41.588 25.328C41.133 25.06 40.586 24.903 40 24.903C39.414 24.903 38.867 25.061 38.396 25.336L38.411 25.328L28.087 31.289C27.6052 31.5688 27.2051 31.9699 26.9265 32.4524C26.6479 32.9348 26.5005 33.4819 26.499 34.039V45.961C26.5002 46.5155 26.646 47.0601 26.922 47.541C27.1981 48.0218 27.5948 48.4224 28.073 48.703L28.089 48.711L38.411 54.672C38.8939 54.9522 39.4427 55.0989 40.001 55.097C40.585 55.097 41.132 54.939 41.603 54.664L41.589 54.672L51.911 48.711C52.3928 48.4312 52.7929 48.0301 53.0715 47.5477C53.3501 47.0652 53.4975 46.5182 53.499 45.961V34.039C53.4983 33.4846 53.3527 32.9399 53.0768 32.459C52.801 31.9781 52.4043 31.5775 51.926 31.297L51.912 31.289ZM51.383 45.961C51.383 46.35 51.172 46.691 50.857 46.875L50.853 46.877L40.529 52.838C40.3671 52.9317 40.1832 52.9808 39.9961 52.9803C39.809 52.9798 39.6254 52.9296 39.464 52.835L39.469 52.837L29.145 46.876C28.9842 46.7832 28.8507 46.6497 28.7578 46.4889C28.665 46.3281 28.6161 46.1457 28.616 45.96V34.038C28.616 33.649 28.827 33.308 29.142 33.124L29.146 33.122L39.47 27.161C39.632 27.0677 39.8157 27.0187 40.0027 27.0188C40.1896 27.019 40.3732 27.0684 40.535 27.162L40.529 27.16L50.853 33.121C51.172 33.306 51.382 33.648 51.382 34.037L51.383 45.961Z" fill="black"/>
<path d="M46.0944 43.451H45.3364C45.156 43.4505 44.9785 43.4971 44.8214 43.586L44.8274 43.582L40.2534 46.094L34.9714 43.045V36.963L40.2534 33.912L44.8294 36.416C44.9754 36.498 45.1524 36.547 45.3374 36.547H46.0954C46.165 36.5469 46.2339 36.533 46.2982 36.5063C46.3624 36.4795 46.4208 36.4404 46.4699 36.391C46.519 36.3417 46.558 36.2832 46.5845 36.2189C46.611 36.1545 46.6246 36.0856 46.6244 36.016V35.3C46.6246 35.2057 46.5995 35.1131 46.5519 35.0317C46.5042 34.9503 46.4357 34.8831 46.3534 34.837L46.3494 34.835L41.2714 32.058C40.9509 31.8828 40.5904 31.7933 40.2251 31.7984C39.8598 31.8035 39.502 31.9029 39.1864 32.087L39.1964 32.081L33.9154 35.13C33.5945 35.317 33.328 35.5846 33.1423 35.9063C32.9565 36.2279 32.858 36.5925 32.8564 36.964V43.046C32.8564 43.825 33.2784 44.507 33.9054 44.874L33.9144 44.88L39.1954 47.929C39.5125 48.1113 39.8712 48.2089 40.237 48.2122C40.6027 48.2155 40.9631 48.1245 41.2834 47.948L41.2714 47.954L46.3514 45.167C46.4351 45.1216 46.5049 45.0544 46.5535 44.9725C46.6021 44.8906 46.6276 44.7972 46.6274 44.702V43.986C46.6272 43.8458 46.5714 43.7114 46.4722 43.6122C46.3731 43.5131 46.2387 43.4573 46.0984 43.457L46.0944 43.451Z" fill="black"/>
</svg>
