<svg width="80" height="80" viewBox="0 0 80 80" fill="none" xmlns="http://www.w3.org/2000/svg">
<path d="M20.9091 45.1345C21.4154 45.1345 21.901 45.3075 22.259 45.6154C22.617 45.9233 22.8182 46.3409 22.8182 46.7764C22.8182 47.2118 22.617 47.6294 22.259 47.9373C21.901 48.2452 21.4154 48.4182 20.9091 48.4182C20.4028 48.4182 19.9172 48.2452 19.5592 47.9373C19.2011 47.6294 19 47.2118 19 46.7764C19 46.3409 19.2011 45.9233 19.5592 45.6154C19.9172 45.3075 20.4028 45.1345 20.9091 45.1345ZM57.1818 48.4182H53.3636V35.2836H49.5455V32H61V35.2836H57.1818V48.4182ZM47.6364 32V35.2836H43.8182V38.5673H47.6364V41.8509H43.8182V45.1345H47.6364V48.4182H40V32H47.6364ZM38.0909 32V48.4182H34.2727L28.5455 38.5673V48.4182H24.7273V32H28.5455L34.2727 41.8509V32H38.0909Z" fill="black"/>
</svg>
