<svg width="120" height="120" viewBox="0 0 120 120" fill="none" xmlns="http://www.w3.org/2000/svg">
<g clip-path="url(#clip0_689_7019)">
<path d="M64.2812 51.0582L64.4129 51.1461C65.9612 52.1686 67.0713 53.5709 67.8016 55.2653C67.977 55.5281 67.8601 55.6743 67.5095 55.7618L66.9162 55.9137C65.5747 56.2593 64.5103 56.5499 63.1864 56.8955L62.4314 57.0921C62.1595 57.1594 62.0845 57.1311 61.7953 56.8018L61.7545 56.7551C61.3421 56.2877 61.0332 55.9755 60.4869 55.6969L60.3816 55.645C58.5411 54.7394 56.7592 55.0023 55.0941 56.0832C53.1075 57.3686 52.085 59.2675 52.1142 61.6337C52.1435 63.9707 53.7502 65.8987 56.058 66.2201C58.0445 66.483 59.7096 65.7819 61.0242 64.2921C61.2872 63.9707 61.5209 63.6202 61.8129 63.2112H56.175C55.5615 63.2112 55.4155 62.8315 55.62 62.3348L55.7212 62.0964C56.0967 61.2228 56.679 59.9673 57.0572 59.2494L57.1397 59.0948C57.2407 58.9198 57.4458 58.6832 57.8401 58.6832H67.2414C67.6636 57.3455 68.3487 56.0815 69.2624 54.8855C71.395 52.081 73.9657 50.6203 77.4421 50.0069C80.4218 49.481 83.2263 49.7732 85.7678 51.4968C88.0757 53.0742 89.5071 55.2069 89.8869 58.0112C90.3834 61.955 89.2441 65.1684 86.5274 67.9145C84.5993 69.8718 82.233 71.0987 79.5162 71.6537C78.7275 71.7998 77.9387 71.829 77.1792 71.9167C74.5208 71.8582 72.0961 71.0987 70.0512 69.3459C68.6129 68.1026 67.6222 66.5747 67.1299 64.7958C66.7845 65.4929 66.3736 66.1556 65.903 66.7751C63.7996 69.5504 61.0536 71.2739 57.5773 71.7415C54.7144 72.1212 52.056 71.566 49.7189 69.8133C47.5571 68.1773 46.3302 66.0156 46.0087 63.3281C45.6291 60.1438 46.5639 57.2809 48.492 54.7686C50.5662 52.0518 53.3121 50.3283 56.6716 49.7148C59.3668 49.2273 61.9494 49.5279 64.2813 51.0582H64.2812ZM78.1781 55.2444L78.0846 55.2653C75.3678 55.8787 73.6151 57.6022 72.9724 60.3483C72.4465 62.6269 73.5566 64.9348 75.66 65.8696C77.2666 66.5707 78.8734 66.483 80.4217 65.6943C82.7296 64.4966 83.9857 62.6269 84.1318 60.1146C84.1025 59.7349 84.1025 59.4427 84.0441 59.1505C83.5242 56.291 80.9194 54.6594 78.1781 55.2444ZM43.6425 60.5819C43.7593 60.5819 43.8178 60.6696 43.8178 60.7864L43.7593 61.4876C43.7593 61.6044 43.6425 61.6921 43.5548 61.6921L37.1864 61.6629C37.0696 61.6629 37.0404 61.5752 37.0987 61.4876L37.5077 60.7573C37.5662 60.6696 37.683 60.5819 37.7999 60.5819H43.6425ZM44.2852 57.8944C44.402 57.8944 44.4605 57.982 44.4313 58.0697L44.1975 58.7708C44.1683 58.8877 44.0515 58.946 43.9346 58.946L30.1168 58.9753C30 58.9753 29.9708 58.9168 30.0292 58.8292L30.6427 58.0405C30.7011 57.9528 30.8471 57.8944 30.964 57.8944H44.2852ZM45.8043 55.2068C45.9211 55.2068 45.9503 55.2944 45.8919 55.3821L45.3953 56.1416C45.3368 56.2293 45.1908 56.3169 45.1031 56.3169L34.5281 56.2876C34.4112 56.2876 34.382 56.2293 34.4403 56.1416L35.0538 55.3529C35.1123 55.2653 35.2583 55.2068 35.3752 55.2068H45.8043Z" fill="#00ACD7"/>
</g>
<defs>
<clipPath id="clip0_689_7019">
<rect width="60" height="22.5" fill="white" transform="translate(30 49.5)"/>
</clipPath>
</defs>
</svg>
