<svg width="80" height="80" viewBox="0 0 80 80" fill="none" xmlns="http://www.w3.org/2000/svg">
<g clip-path="url(#clip0_270_10590)">
<path d="M42.8541 34.0388L42.942 34.0974C43.9741 34.779 44.7142 35.7139 45.2011 36.8435C45.318 37.0187 45.2401 37.1161 45.0063 37.1745L44.6108 37.2757C43.7165 37.5061 43.0069 37.6999 42.1243 37.9303L41.6209 38.0614C41.4397 38.1062 41.3897 38.0874 41.1969 37.8678L41.1697 37.8367C40.8948 37.5251 40.6888 37.317 40.3246 37.1312L40.2544 37.0966C39.0274 36.4929 37.8395 36.6682 36.7294 37.3888C35.405 38.2457 34.7234 39.5116 34.7428 41.0891C34.7623 42.6471 35.8334 43.9325 37.372 44.1467C38.6963 44.322 39.8064 43.8546 40.6828 42.8614C40.8581 42.6471 41.0139 42.4134 41.2086 42.1407H37.45C37.041 42.1407 36.9437 41.8876 37.08 41.5565L37.1475 41.3975C37.3978 40.8152 37.786 39.9782 38.0381 39.4996L38.0931 39.3965C38.1605 39.2798 38.2972 39.1221 38.5601 39.1221H44.8276C45.1091 38.2303 45.5658 37.3876 46.1749 36.5903C47.5966 34.7207 49.3105 33.7468 51.628 33.3379C53.6145 32.9873 55.4842 33.1821 57.1785 34.3311C58.7171 35.3828 59.6714 36.8046 59.9246 38.6741C60.2556 41.3033 59.4961 43.4456 57.6849 45.2763C56.3995 46.5811 54.822 47.3991 53.0108 47.7691C52.485 47.8665 51.9591 47.886 51.4528 47.9444C49.6805 47.9054 48.0641 47.3991 46.7008 46.2306C45.7419 45.4017 45.0815 44.3831 44.7533 43.1971C44.523 43.6619 44.2491 44.1037 43.9353 44.5167C42.533 46.3669 40.7024 47.5159 38.3848 47.8276C36.4762 48.0807 34.704 47.7107 33.1459 46.5421C31.7048 45.4515 30.8868 44.0103 30.6725 42.2187C30.4194 40.0958 31.0426 38.1872 32.328 36.5124C33.7108 34.7011 35.5414 33.5521 37.7811 33.1432C39.5779 32.8182 41.2996 33.0185 42.8542 34.0388H42.8541ZM52.1187 36.8296L52.0564 36.8435C50.2452 37.2525 49.0767 38.4014 48.6483 40.2321C48.2977 41.7512 49.0377 43.2898 50.44 43.913C51.5111 44.3804 52.5823 44.322 53.6145 43.7961C55.153 42.9977 55.9905 41.7512 56.0879 40.0764C56.0684 39.8232 56.0684 39.6284 56.0294 39.4336C55.6828 37.5273 53.9462 36.4396 52.1187 36.8296ZM29.095 40.3879C29.1729 40.3879 29.2119 40.4464 29.2119 40.5243L29.1729 40.9917C29.1729 41.0696 29.095 41.128 29.0366 41.128L24.7909 41.1086C24.713 41.1086 24.6936 41.0501 24.7325 40.9917L25.0052 40.5048C25.0441 40.4464 25.122 40.3879 25.1999 40.3879H29.095ZM29.5234 38.5962C29.6013 38.5962 29.6403 38.6546 29.6209 38.7131L29.465 39.1805C29.4455 39.2584 29.3677 39.2973 29.2898 39.2973L20.0779 39.3168C20 39.3168 19.9805 39.2778 20.0195 39.2194L20.4284 38.6936C20.4674 38.6352 20.5648 38.5962 20.6427 38.5962H29.5234ZM30.5362 36.8045C30.6141 36.8045 30.6335 36.8629 30.5946 36.9214L30.2635 37.4277C30.2245 37.4861 30.1272 37.5446 30.0687 37.5446L23.0187 37.525C22.9408 37.525 22.9213 37.4861 22.9602 37.4277L23.3692 36.9019C23.4082 36.8435 23.5055 36.8045 23.5834 36.8045H30.5362Z" fill="#00ACD7"/>
</g>
<defs>
<clipPath id="clip0_270_10590">
<rect width="40" height="15" fill="white" transform="translate(20 33)"/>
</clipPath>
</defs>
</svg>
