<svg width="80" height="80" viewBox="0 0 80 80" fill="none" xmlns="http://www.w3.org/2000/svg">
<g clip-path="url(#clip0_270_10557)">
<path d="M19.9689 30C21.5853 30 23.1072 30.3777 24.5347 31.1091L24.7235 31.2036L24.5582 31.3333C24.1572 31.6519 23.8386 32.0648 23.6381 32.5367L23.5791 32.6664L23.4611 32.6074C22.364 32.0884 21.1959 31.817 19.9808 31.817C15.4858 31.817 11.8404 35.4743 11.8404 39.9574C11.8404 44.4405 15.4741 48.0978 19.969 48.0978C24.4639 48.0978 28.1094 44.4405 28.1094 39.9574C28.1094 38.8838 27.9089 37.8339 27.484 36.8428L27.4252 36.7131L27.5549 36.6541C28.0386 36.4771 28.4633 36.1821 28.8054 35.8046L28.9352 35.6395L29.0178 35.8282C29.6195 37.1377 29.9143 38.5299 29.9143 39.9338C29.9143 45.4197 25.4431 49.8909 19.9572 49.8909C14.4713 49.8909 10 45.4197 10 39.9338C10 34.448 14.4713 29.9766 19.9689 30.0001V30ZM19.9689 35.4271C22.4583 35.4271 24.4992 37.4564 24.5111 39.9692C24.5111 42.4821 22.4818 44.5112 19.969 44.5112C17.4561 44.5112 15.427 42.4821 15.427 39.9692C15.427 37.4562 17.4679 35.4271 19.969 35.4271H19.9689ZM26.4695 31.6754C27.6162 31.6754 28.5459 32.6051 28.5459 33.7519C28.5459 34.8985 27.6162 35.8282 26.4694 35.8282C25.3228 35.8282 24.3931 34.8986 24.3931 33.7518C24.3931 32.6051 25.3227 31.6754 26.4695 31.6754ZM65.3782 35.4153C66.1568 35.4153 66.8411 35.6748 67.3602 35.9816C68.0562 36.3945 68.5635 36.8075 69 37.4799L67.4898 38.5063C67.4898 38.5063 66.6641 37.2085 65.3192 37.2085C63.7264 37.2085 62.6883 38.4355 62.6883 39.9692C62.6883 41.5029 63.7383 42.7298 65.3191 42.7298C66.6641 42.7298 67.4781 41.4085 67.4781 41.4203L69 42.4349C68.5635 43.1073 68.0562 43.5085 67.3602 43.9332C66.8411 44.24 66.1449 44.4995 65.3782 44.4995C62.7473 44.4995 60.7416 42.5174 60.7298 39.9574C60.7416 37.3974 62.7473 35.4153 65.3781 35.4153H65.3782ZM42.6205 35.4271C44.8031 35.4271 47.1626 36.9726 47.1509 39.9692C47.1509 42.6 45.1333 44.4995 42.6559 44.4995C39.9188 44.4995 38.0783 42.3877 38.0783 39.922C38.0783 37.5035 39.9778 35.4271 42.6204 35.4271H42.6205ZM37.1463 35.6276V44.299H35.0464V35.6276H37.1463ZM59.8096 35.6276V44.299H57.7097V35.6276H59.8096ZM52.8608 35.4271C55.5153 35.4271 56.5063 37.2557 56.5417 39.5326V44.2872H54.4417V39.3202C54.4417 38.164 53.6512 37.1849 52.6485 37.1849C51.6102 37.1849 50.2182 38.0225 50.2182 39.0489V44.2989H48.1181V35.6275H49.8642L49.994 36.5596L50.004 36.5502C50.2712 36.3008 51.405 35.427 52.8608 35.427V35.4271ZM42.6442 37.2086C41.1811 37.2086 40.0604 38.3765 40.0604 39.9574C40.0604 41.5501 41.1929 42.7181 42.6323 42.7181C43.9536 42.7181 45.1806 41.6326 45.1806 39.9692C45.1806 38.2704 43.9418 37.2085 42.644 37.2085L42.6442 37.2086Z" fill="#3880FF"/>
</g>
<defs>
<clipPath id="clip0_270_10557">
<rect width="59" height="19.9355" fill="white" transform="translate(10 30)"/>
</clipPath>
</defs>
</svg>
