<svg width="89" height="30" viewBox="0 0 89 30" fill="none" xmlns="http://www.w3.org/2000/svg">
<g clip-path="url(#clip0_688_16271)">
<path d="M14.9534 0C17.378 0 19.6608 0.566607 21.8021 1.6637L22.0852 1.80543L21.8374 1.99989C21.2358 2.47783 20.7579 3.09715 20.4571 3.80498L20.3686 3.99961L20.1917 3.91111C18.5459 3.13259 16.7939 2.72552 14.9712 2.72552C8.22877 2.72552 2.76061 8.21149 2.76061 14.9361C2.76061 21.6607 8.21114 27.1467 14.9536 27.1467C21.6958 27.1467 27.1641 21.6607 27.1641 14.9361C27.1641 13.3256 26.8634 11.7508 26.2261 10.2643L26.1377 10.0696L26.3324 9.98114C27.0578 9.71564 27.695 9.27314 28.2082 8.70688L28.4028 8.45918L28.5267 8.74231C29.4292 10.7066 29.8715 12.7948 29.8715 14.9007C29.8715 23.1296 23.1647 29.8364 14.9358 29.8364C6.70698 29.8364 0 23.1296 0 14.9007C0 6.67207 6.70698 -0.0350889 14.9534 0.000172852V0ZM14.9534 8.14062C18.6875 8.14062 21.7489 11.1845 21.7667 14.9537C21.7667 18.7231 18.7228 21.7668 14.9536 21.7668C11.1842 21.7668 8.14044 18.7231 8.14044 14.9537C8.14044 11.1844 11.2018 8.14062 14.9536 8.14062H14.9534ZM24.7043 2.51309C26.4243 2.51309 27.8189 3.90765 27.8189 5.62787C27.8189 7.34775 26.4243 8.74231 24.7041 8.74231C22.9842 8.74231 21.5897 7.34792 21.5897 5.6277C21.5897 3.90765 22.9841 2.51309 24.7043 2.51309ZM83.0673 8.12298C84.2352 8.12298 85.2616 8.51225 86.0403 8.97238C87.0843 9.5917 87.8452 10.2112 88.5 11.2198L86.2348 12.7594C86.2348 12.7594 84.9961 10.8127 82.9788 10.8127C80.5896 10.8127 79.0324 12.6533 79.0324 14.9537C79.0324 17.2544 80.6074 19.0947 82.9786 19.0947C84.9961 19.0947 86.2171 17.1128 86.2171 17.1305L88.5 18.6524C87.8452 19.661 87.0843 20.2627 86.0403 20.8998C85.2616 21.36 84.2174 21.7492 83.0673 21.7492C79.1209 21.7492 76.1124 18.7762 76.0948 14.9361C76.1124 11.096 79.1209 8.12298 83.0671 8.12298H83.0673ZM48.9308 8.14062C52.2046 8.14062 55.7439 10.4589 55.7263 14.9537C55.7263 18.8999 52.7 21.7492 48.9839 21.7492C44.8781 21.7492 42.1175 18.5815 42.1175 14.883C42.1175 11.2552 44.9666 8.14062 48.9306 8.14062H48.9308ZM40.7195 8.44138V21.4485H37.5696V8.44138H40.7195ZM74.7144 8.44138V21.4485H71.5645V8.44138H74.7144ZM64.2913 8.14062C68.2729 8.14062 69.7594 10.8836 69.8125 14.299V21.4308H66.6626V13.9802C66.6626 12.246 65.4768 10.7773 63.9727 10.7773C62.4153 10.7773 60.3273 12.0338 60.3273 13.5733V21.4483H57.1772V8.4412H59.7963L59.9911 9.8394L60.0059 9.82523C60.4068 9.45118 62.1075 8.14044 64.2913 8.14044V8.14062ZM48.9662 10.8129C46.7717 10.8129 45.0906 12.5648 45.0906 14.9361C45.0906 17.3251 46.7894 19.0771 48.9484 19.0771C50.9304 19.0771 52.7709 17.4488 52.7709 14.9537C52.7709 12.4056 50.9127 10.8127 48.9661 10.8127L48.9662 10.8129Z" fill="#3880FF"/>
</g>
<defs>
<clipPath id="clip0_688_16271">
<rect width="88.5" height="29.9033" fill="white"/>
</clipPath>
</defs>
</svg>
