<svg width="120" height="120" viewBox="0 0 120 120" fill="none" xmlns="http://www.w3.org/2000/svg">
<g clip-path="url(#clip0_688_16287)">
<path d="M34.3573 69.5791H16.5V51.7288H34.3573L25.4286 60.6504L34.3573 69.5791Z" fill="url(#paint0_linear_688_16287)"/>
<path d="M62.2325 56.2057C63.4651 56.2057 64.6406 56.5416 65.6482 57.1025C66.6558 57.6599 67.4417 58.4994 67.9955 59.5106C68.5566 60.5754 68.8923 61.7509 68.8923 63.0372C68.8923 64.3235 68.6137 65.4988 68.0528 66.5635C67.4918 67.5712 66.7094 68.4108 65.7017 68.9717C64.6941 69.5898 63.5188 69.8685 62.2325 69.8685C60.9462 69.8685 59.7708 69.5326 58.7632 68.9717C57.6985 68.4108 56.9162 67.5712 56.3551 66.5635C55.7942 65.5559 55.5155 64.3233 55.5155 63.0372C55.5155 61.7509 55.7942 60.5754 56.3549 59.5106C56.916 58.503 57.7556 57.7207 58.7632 57.1025C59.7708 56.4844 60.9462 56.2057 62.2325 56.2057ZM55.9656 51.6717L47.848 60.3467L56.0764 69.5791H52.4391L44.6574 60.9577V69.5791H41.8027V51.729H44.6574V59.9572L52.382 51.6719H55.9656V51.6717ZM62.1825 58.771C61.4 58.771 60.7283 58.939 60.1672 59.3321C59.6065 59.6678 59.1598 60.1716 58.8239 60.8433C58.4881 61.4615 58.3202 62.244 58.3202 63.0836C58.3202 63.9231 58.4308 64.6519 58.7668 65.3238C59.1027 65.9382 59.5492 66.4421 60.1102 66.8351C60.7248 67.2281 61.3999 67.396 62.1254 67.396C62.8506 67.396 63.5222 67.2281 64.0832 66.8352C64.6442 66.4993 65.0909 65.9955 65.4266 65.3238C65.7626 64.6521 65.9305 63.9231 65.9305 63.0836C65.9305 62.244 65.8197 61.5152 65.4839 60.8433C65.148 60.2287 64.7014 59.7251 64.1403 59.3321C63.583 58.939 62.9113 58.771 62.1825 58.771ZM74.6627 53.2401H71.9186V55.4805C71.9186 55.8162 71.8615 56.0949 71.64 56.263C71.4721 56.4308 71.1934 56.5416 70.8575 56.5416H69.5141V58.8925H71.8651V65.9454C71.8651 66.6743 72.033 67.346 72.3116 67.9034C72.5887 68.4609 73.0404 68.9126 73.5979 69.1897C74.1587 69.5254 74.7733 69.6362 75.5558 69.6362H77.6817V67.1748H76.1133C75.7203 67.1748 75.3843 67.064 75.1057 66.728C74.8517 66.4106 74.7131 66.0163 74.7126 65.6098V58.8928H77.7353V56.5415H74.7125V53.2399H74.6625L74.6627 53.2401ZM79.8684 51H82.6659V69.5791H79.8684V51ZM85.8564 51.0571H88.7112V53.969H85.8565V51.0571H85.8564ZM85.8564 56.5416H88.6541V69.6327H85.8565V56.5416H85.8564ZM102.931 58.6673C102.538 57.885 101.981 57.2668 101.252 56.8774C100.523 56.4308 99.6837 56.2057 98.7333 56.2057C97.7257 56.2057 96.8288 56.4844 96.0465 56.9346C95.4319 57.3277 94.9281 57.885 94.5351 58.503V56.4879H91.8483V69.5791H94.6458V62.244C94.6458 61.515 94.7566 60.9004 95.0389 60.3395C95.3175 59.7786 95.7106 59.3892 96.1571 59.0532C96.6609 58.7746 97.2218 58.6067 97.8937 58.6067C98.5081 58.6067 98.9583 58.7175 99.405 58.9997C99.8515 59.2819 100.134 59.6143 100.355 60.0644C100.58 60.5111 100.691 61.072 100.691 61.6865V69.5219H103.489V61.3507C103.55 60.3467 103.328 59.4536 102.931 58.6675V58.6673Z" fill="white"/>
</g>
<defs>
<linearGradient id="paint0_linear_688_16287" x1="34.3557" y1="51.7339" x2="16.5087" y2="69.5807" gradientUnits="userSpaceOnUse">
<stop offset="0.00344" stop-color="#E44857"/>
<stop offset="0.4689" stop-color="#C711E1"/>
<stop offset="1" stop-color="#7F52FF"/>
</linearGradient>
<clipPath id="clip0_688_16287">
<rect width="87" height="19.0311" fill="white" transform="translate(16.5 51)"/>
</clipPath>
</defs>
</svg>
