<svg width="120" height="120" viewBox="0 0 120 120" fill="none" xmlns="http://www.w3.org/2000/svg">
<path d="M47.8488 65.989L49.6723 71.9054C50.082 73.2487 50.2528 74.1865 50.1844 74.721C51.1816 72.05 51.8784 69.1393 52.2749 65.989H54.4675C53.5247 71.1178 52.2812 74.8448 50.7377 77.1698C49.5352 78.9615 48.2177 79.8573 46.7831 79.8573C46.4006 79.8573 45.9291 79.7418 45.3695 79.5123V78.276C45.6429 78.3161 45.9636 78.3375 46.3325 78.3375C47.0018 78.3375 47.5412 78.152 47.9516 77.7818C48.443 77.3307 48.6889 76.8238 48.6889 76.2619C48.6889 75.8782 48.4971 75.0908 48.1152 73.8997L45.5746 65.989H47.8487H47.8488ZM33.8933 62.3525L37.2332 72.5427H37.2538L40.6141 62.3525H43.3596C43.9608 67.4061 44.3159 72.03 44.4248 76.2212H42.1102C42.0287 72.3033 41.8031 68.6191 41.4342 65.1681H41.4141L37.8893 76.2212H36.1266L32.6231 65.1681H32.6025C32.3426 68.4824 32.179 72.1665 32.1108 76.2212H30C30.1364 71.29 30.4778 66.6675 31.0241 62.3525H33.8934H33.8933Z" fill="#00758F"/>
<path d="M71.3077 62.1446C74.9003 62.1446 76.6966 64.4399 76.6966 69.0281C76.6966 71.5214 76.1564 73.4047 75.077 74.677C74.8825 74.9095 74.6674 75.1104 74.441 75.2965L76.9834 76.5536L76.9809 76.5534L76.0782 78.1123L72.7673 76.1804C72.2186 76.343 71.6147 76.4242 70.9567 76.4242C69.1927 76.4242 67.875 75.9101 67.0038 74.8832C66.0476 73.7471 65.5697 71.9587 65.5697 69.521C65.5697 67.0418 66.109 65.1656 67.1888 63.8917C68.1722 62.7264 69.5454 62.1445 71.3077 62.1445V62.1446ZM60.3061 62.1648C61.5901 62.1648 62.7577 62.5084 63.8093 63.1931L63.2752 64.3834C62.3753 64.0009 61.488 63.8088 60.6131 63.8088C59.9032 63.8088 59.3562 63.9797 58.9748 64.3235C58.5914 64.6643 58.3542 65.1028 58.3542 65.6374C58.3542 66.4589 58.9395 67.1713 60.02 67.7732C60.374 67.9667 60.7268 68.1624 61.0784 68.3604L61.159 68.4057L61.1994 68.4285L61.2802 68.4738L61.3205 68.4966L61.4011 68.542C62.2191 69.0032 62.9888 69.4433 62.9888 69.4433C64.0692 70.2103 64.6078 71.028 64.6078 72.3749C64.6078 73.5511 64.1768 74.5166 63.3176 75.2721C62.4578 76.0242 61.3027 76.4013 59.8561 76.4013C58.5032 76.4013 57.192 75.9673 55.9219 75.1064L56.516 73.9151C57.609 74.4629 58.5981 74.7366 59.4862 74.7366C60.3192 74.7366 60.9713 74.5506 61.4429 74.1833C61.9137 73.8134 62.1957 73.2974 62.1957 72.6431C62.1957 71.8196 61.6229 71.1157 60.5721 70.5252C60.2432 70.3435 59.9153 70.16 59.5883 69.9748L59.5078 69.9292C59.3599 69.8456 59.211 69.761 59.0651 69.6782L58.986 69.6332C58.2764 69.2296 57.6629 68.877 57.6629 68.877C56.6125 68.1086 56.0857 67.2841 56.0857 65.9257C56.0857 64.8022 56.4785 63.8941 57.263 63.2033C58.0493 62.511 59.0638 62.1648 60.3061 62.1648ZM80.9188 62.3504V74.5131H85.2826V76.2191H78.7056V62.3504H80.9188ZM87.7075 74.5184V74.8066H87.2277V76.2176H86.8609V74.8066H86.3625V74.5184H87.7076H87.7075ZM88.5934 74.5184L89.0541 75.6766L89.4772 74.5184H89.9972V76.2176H89.6515V74.9244L89.1698 76.2176H88.9206L88.4381 74.9244H88.4196V76.2176H88.0925V74.5184H88.5935H88.5934ZM71.0817 63.8502C68.9646 63.8502 67.9055 65.5975 67.9055 69.0896C67.9055 71.09 68.1861 72.5406 68.7464 73.4447C69.2653 74.2814 70.078 74.6989 71.1846 74.6989C73.3017 74.6989 74.3607 72.9381 74.3607 69.418C74.3607 67.4456 74.0801 66.0075 73.5205 65.1029C73.001 64.2681 72.1887 63.8502 71.0818 63.8502H71.0817Z" fill="#F29111"/>
<path d="M65.5352 39.8593C66.2375 38.1336 68.6931 39.4405 69.6461 40.0433C69.8797 40.1941 70.1476 40.5128 70.4153 40.6306C70.8331 40.647 71.2505 40.6797 71.669 40.6971C72.4539 40.8816 73.1892 41.0323 73.8077 41.3845C76.6821 43.0773 78.5532 44.8023 80.2753 47.6516C80.6432 48.2551 80.8271 48.9082 81.1277 49.5613C81.5449 50.5348 82.0136 51.5566 82.4978 52.4772C82.7146 52.9136 82.8823 53.3988 83.1834 53.7674C83.3009 53.9359 83.6348 53.9856 83.8344 54.0863C84.3861 54.3718 85.0545 54.5886 85.5734 54.9238C86.5424 55.528 87.4794 56.248 88.3311 56.9851C88.6485 57.2697 88.8649 57.6724 89.1673 57.9734V58.1252C88.8988 58.2076 88.6313 58.292 88.3635 58.3596C87.7787 58.5099 87.2606 58.4759 86.6931 58.6262C86.3425 58.7279 85.9072 58.8621 85.5394 58.8962L85.5734 58.9304C85.7897 59.5486 86.9602 60.0513 87.4955 60.4211C88.1457 60.8903 88.7481 61.4593 89.2331 62.1129C89.4005 62.2797 89.568 62.4314 89.7346 62.5977C89.8511 62.7662 89.8839 62.9842 90.0018 63.1344V63.1853C89.8713 63.1392 89.7774 63.0513 89.6885 62.9595L89.6354 62.904C89.5823 62.849 89.5287 62.7948 89.4677 62.7502C89.0988 62.4982 88.7324 62.1968 88.3635 61.9625C87.7293 61.5601 86.9937 61.3266 86.3425 60.9226C85.9743 60.6881 85.6233 60.4211 85.2724 60.1527C84.9542 59.9175 84.6038 59.4659 84.4039 59.1307C84.2861 58.9456 84.2699 58.7279 84.1354 58.594C84.1594 58.3703 84.3644 58.3038 84.5712 58.2492L84.6188 58.2367C84.6902 58.2182 84.76 58.1997 84.821 58.1752C85.6898 57.8063 86.7256 57.6724 88.0632 57.7059C88.0128 57.3701 87.177 56.9516 86.9102 56.7505C86.3746 56.3645 85.8076 55.9617 85.2394 55.6104C84.9384 55.4264 84.4196 55.2921 84.0861 55.1418C83.6348 54.9573 82.6318 54.773 82.3817 54.4216C81.9569 53.8678 81.6517 53.2072 81.3555 52.54L81.2749 52.3579C81.248 52.2972 81.221 52.2365 81.194 52.1759C80.8438 51.3723 80.4088 50.5345 80.0579 49.7118C79.8744 49.3104 79.7901 48.9581 79.5891 48.5732C78.3696 46.2109 76.5645 44.2331 74.376 42.8422C73.6569 42.3897 72.8549 41.9708 71.9697 41.6862C71.468 41.5347 70.8659 41.6184 70.3314 41.5022H69.9796C69.6794 41.4176 69.4287 41.0993 69.1945 40.9315C68.6771 40.5802 68.1589 40.3443 67.5401 40.0936C67.3233 39.9931 66.7042 39.7589 66.4881 39.9433C66.3543 39.9769 66.2865 40.0274 66.2535 40.1617C66.1204 40.3621 66.2375 40.664 66.3203 40.8488C66.5713 41.3843 66.922 41.7026 67.2403 42.1552C67.5234 42.5565 67.8751 43.0091 68.0758 43.4455C68.5089 44.3836 68.7106 45.4229 69.112 46.3609C69.2608 46.7136 69.4962 47.115 69.7129 47.4332C69.8965 47.6857 70.2304 47.8683 70.3314 48.188C70.5328 48.5231 70.03 49.629 69.9137 49.9802C69.4783 51.3545 69.5627 53.2648 70.064 54.456L70.0907 54.5188L70.1174 54.5824C70.3005 55.0187 70.4964 55.4885 70.9831 55.6105C71.0166 55.5772 70.9831 55.5947 71.0495 55.5772C71.1673 54.6552 71.2005 53.7673 71.5183 53.0459C71.7019 52.5948 72.0686 52.2759 72.32 51.9077C72.4876 52.0081 72.4876 52.3105 72.5874 52.5107C72.8049 53.0298 73.0385 53.599 73.3066 54.1197C73.8569 55.1919 74.4761 56.2315 75.1777 57.1695C75.4127 57.5045 75.7461 57.8733 76.0468 58.175C76.1807 58.2919 76.3307 58.3594 76.4314 58.5097H76.4642V58.5604C75.9629 58.3756 75.6451 57.8569 75.2452 57.5541C74.4924 56.9849 73.5909 56.1301 73.072 55.3099C72.8549 54.8391 72.6203 54.3878 72.3864 53.9193V53.8854C72.2865 54.0192 72.32 54.1521 72.2699 54.3546C72.0529 55.1919 72.22 56.1471 71.468 56.4483C70.6156 56.801 69.9797 55.8791 69.7129 55.4602C68.8603 54.0696 68.6267 51.7238 69.228 49.8301C69.3616 49.4109 69.3797 48.9082 69.613 48.5735C69.5626 48.2709 69.3294 48.1882 69.1945 48.0028C68.9606 47.6859 68.7603 47.3168 68.5771 46.9649C68.2253 46.2775 67.975 45.4561 67.708 44.7189C67.5905 44.4178 67.5569 44.1156 67.4398 43.8306C67.2401 43.3956 66.8721 42.9592 66.5881 42.5743C66.2036 42.0212 65.0838 40.9492 65.5352 39.8593ZM71.0163 43.1424C71.0609 43.1871 71.1148 43.2263 71.1706 43.2648L71.2379 43.311C71.3275 43.3731 71.4144 43.4385 71.4676 43.5275C71.5519 43.6454 71.5676 43.7618 71.6687 43.8799C71.6687 44.2827 71.5519 44.5505 71.3163 44.7174C71.3163 44.7174 71.3002 44.7349 71.2837 44.7513C71.1501 44.4829 71.033 44.2158 70.8985 43.9475C70.7328 43.7134 70.4985 43.5277 70.3635 43.2601H70.3311V43.2265C70.5328 43.1767 70.7328 43.1424 71.0163 43.1424Z" fill="#00758F"/>
</svg>
