<svg width="120" height="120" viewBox="0 0 120 120" fill="none" xmlns="http://www.w3.org/2000/svg">
<path d="M31.3636 67.7018C32.1231 67.7018 32.8515 67.9613 33.3885 68.4231C33.9256 68.885 34.2273 69.5114 34.2273 70.1646C34.2273 70.8177 33.9256 71.4441 33.3885 71.906C32.8515 72.3678 32.1231 72.6273 31.3636 72.6273C30.6042 72.6273 29.8758 72.3678 29.3387 71.906C28.8017 71.4441 28.5 70.8177 28.5 70.1646C28.5 69.5114 28.8017 68.885 29.3387 68.4231C29.8758 67.9613 30.6042 67.7018 31.3636 67.7018ZM85.7727 72.6273H80.0455V52.9255H74.3182V48H91.5V52.9255H85.7727V72.6273ZM71.4545 48V52.9255H65.7273V57.8509H71.4545V62.7764H65.7273V67.7018H71.4545V72.6273H60V48H71.4545ZM57.1364 48V72.6273H51.4091L42.8182 57.8509V72.6273H37.0909V48H42.8182L51.4091 62.7764V48H57.1364Z" fill="white"/>
</svg>
