<svg width="120" height="120" viewBox="0 0 120 120" fill="none" xmlns="http://www.w3.org/2000/svg">
<path d="M60.2107 81.0018C59.9934 81.0018 59.7905 80.9421 59.602 80.8374L57.6746 79.6564C57.3847 79.4919 57.5296 79.4321 57.6167 79.4022C58.0079 79.2677 58.0804 79.2377 58.4862 78.9987C58.5297 78.9686 58.5877 78.9836 58.6311 79.0135L60.1094 79.9255C60.1673 79.9554 60.2398 79.9554 60.2832 79.9255L66.0657 76.472C66.1237 76.4421 66.1528 76.3822 66.1528 76.3075V69.4155C66.1528 69.3406 66.1237 69.281 66.0657 69.251L60.2832 65.8124C60.2252 65.7824 60.1528 65.7824 60.1094 65.8124L54.3268 69.251C54.2689 69.2808 54.2398 69.3556 54.2398 69.4154V76.3074C54.2398 76.3673 54.2689 76.4419 54.3268 76.472L55.9065 77.4138C56.7616 77.8623 57.2978 77.339 57.2978 76.8158V70.0134C57.2978 69.9237 57.3703 69.834 57.4717 69.834H58.2108C58.2978 69.834 58.3847 69.9087 58.3847 70.0134V76.8158C58.3847 77.9968 57.7615 78.6846 56.6746 78.6846C56.3413 78.6846 56.0805 78.6846 55.3413 78.3107L53.8196 77.4138C53.4428 77.1896 53.2109 76.7709 53.2109 76.3224V69.4304C53.2109 68.9819 53.4428 68.5632 53.8196 68.339L59.602 64.8855C59.9644 64.6762 60.4572 64.6762 60.8195 64.8855L66.6019 68.339C66.9787 68.5632 67.2107 68.9819 67.2107 69.4304V76.3224C67.2107 76.7709 66.9787 77.1896 66.6019 77.4138L60.8195 80.8673C60.631 80.9571 60.4137 81.0018 60.2108 81.0018H60.2107ZM61.9933 76.2627C59.4572 76.2627 58.9354 75.0666 58.9354 74.05C58.9354 73.9603 59.0079 73.8706 59.1094 73.8706H59.863C59.9499 73.8706 60.0224 73.9304 60.0224 74.0202C60.1383 74.8125 60.4716 75.2012 62.0078 75.2012C63.2252 75.2012 63.7471 74.9171 63.7471 74.2443C63.7471 73.8556 63.602 73.5717 61.7035 73.3773C60.1238 73.2127 59.1383 72.854 59.1383 71.5534C59.1383 70.3423 60.1239 69.6247 61.776 69.6247C63.631 69.6247 64.5441 70.2826 64.6601 71.7176C64.6601 71.7627 64.6455 71.8074 64.6166 71.8523C64.5875 71.8822 64.5441 71.9121 64.5006 71.9121H63.7469C63.6745 71.9121 63.602 71.8523 63.5876 71.7775C63.4136 70.9553 62.9644 70.6862 61.776 70.6862C60.4427 70.6862 60.2832 71.1646 60.2832 71.5233C60.2832 71.9569 60.4716 72.0915 62.2687 72.3307C64.0513 72.57 64.8919 72.9138 64.8919 74.1994C64.8774 75.5151 63.834 76.2627 61.9933 76.2627Z" fill="#539E43"/>
<path d="M42.2679 54.0451C42.2679 53.776 42.123 53.5217 41.8911 53.3872L35.7463 49.7394C35.6447 49.6795 35.5289 49.6496 35.413 49.6346H35.3549C35.2391 49.6346 35.1231 49.6795 35.0216 49.7394L28.8768 53.3872C28.6448 53.5217 28.5 53.7759 28.5 54.0451L28.5145 63.8524C28.5145 63.9869 28.587 64.1215 28.7029 64.1813C28.8189 64.2561 28.9637 64.2561 29.0653 64.1813L32.7174 62.0285C32.9492 61.894 33.0942 61.6398 33.0942 61.3707V56.7809C33.0942 56.5119 33.239 56.2577 33.471 56.1232L35.0216 55.1962C35.1376 55.1214 35.268 55.0914 35.3984 55.0914C35.5289 55.0914 35.6593 55.1214 35.7608 55.1962L37.3115 56.1232C37.5434 56.2577 37.6883 56.5117 37.6883 56.7809V61.3707C37.6883 61.6398 37.8332 61.894 38.0651 62.0285L41.7172 64.1813C41.7736 64.218 41.8389 64.2374 41.9056 64.2374C41.9723 64.2374 42.0376 64.218 42.094 64.1813C42.21 64.1215 42.2825 63.9869 42.2825 63.8524L42.2679 54.0451ZM71.8037 40.5449C71.6878 40.485 71.5429 40.485 71.4413 40.5449C71.3254 40.6197 71.2529 40.7392 71.2529 40.8737V50.5915C71.2529 50.6812 71.2096 50.7708 71.1225 50.8307C71.0356 50.8755 70.9486 50.8755 70.8617 50.8307L69.3255 49.9188C69.2129 49.8526 69.0855 49.8178 68.9559 49.8178C68.8263 49.8178 68.6989 49.8526 68.5863 49.9188L62.4415 53.5816C62.2096 53.7161 62.0647 53.9703 62.0647 54.2394V61.55C62.0647 61.8191 62.2096 62.0734 62.4415 62.2079L68.5863 65.8707C68.6989 65.9369 68.8263 65.9717 68.9559 65.9717C69.0855 65.9717 69.2129 65.9369 69.3255 65.8707L75.4703 62.2079C75.7022 62.0734 75.8471 61.8192 75.8471 61.55V43.3257C75.8471 43.0416 75.7022 42.7875 75.4703 42.6529L71.8038 40.5449H71.8037ZM71.2385 59.1431C71.2385 59.2179 71.2096 59.2776 71.1515 59.3075L69.0501 60.5633C69.0208 60.578 68.9886 60.5857 68.9559 60.5857C68.9233 60.5857 68.891 60.578 68.8617 60.5633L66.7603 59.3075C66.7023 59.2776 66.6733 59.2029 66.6733 59.1431V56.6314C66.6733 56.5566 66.7023 56.4969 66.7603 56.467L68.8617 55.2111C68.891 55.1963 68.9233 55.1886 68.9559 55.1886C68.9886 55.1886 69.0208 55.1963 69.0501 55.2111L71.1515 56.467C71.2096 56.4967 71.2385 56.5716 71.2385 56.6314V59.1431ZM92.2526 56.5716C92.4846 56.4371 92.615 56.1829 92.615 55.9137V54.1347C92.615 53.8657 92.47 53.6115 92.2526 53.4769L86.1513 49.8291C86.0387 49.763 85.9113 49.7282 85.7817 49.7282C85.6521 49.7282 85.5247 49.763 85.4121 49.8291L79.2673 53.4918C79.0353 53.6263 78.8905 53.8805 78.8905 54.1496V61.4604C78.8905 61.7294 79.0354 61.9836 79.2673 62.1181L85.3686 65.7062C85.6006 65.8407 85.8759 65.8407 86.0934 65.7062L89.7889 63.5835C89.9048 63.5236 89.9773 63.389 89.9773 63.2545C89.9773 63.12 89.9048 62.9855 89.7889 62.9256L83.6151 59.2627C83.4991 59.188 83.4266 59.0684 83.4266 58.9339V56.6465C83.4266 56.512 83.4991 56.3775 83.6151 56.3176L85.5425 55.1813C85.5989 55.1447 85.6642 55.1253 85.7309 55.1253C85.7976 55.1253 85.8629 55.1447 85.9193 55.1813L87.8469 56.3176C87.9629 56.3924 88.0352 56.5119 88.0352 56.6465V58.4406C88.0352 58.5751 88.1077 58.7096 88.2237 58.7694C88.2801 58.806 88.3454 58.8255 88.4121 58.8255C88.4788 58.8255 88.5441 58.806 88.6005 58.7694L92.2526 56.5716Z" fill="white"/>
<path d="M85.6857 56.2256C85.7073 56.2109 85.7325 56.2031 85.7582 56.2031C85.784 56.2031 85.8092 56.2109 85.8307 56.2256L87.0046 56.9282C87.048 56.9582 87.077 57.003 87.077 57.0627V58.4682C87.077 58.5279 87.0482 58.5728 87.0046 58.6027L85.8307 59.3054C85.8092 59.32 85.784 59.3278 85.7582 59.3278C85.7325 59.3278 85.7073 59.32 85.6857 59.3054L84.5119 58.6027C84.4684 58.5728 84.4395 58.5279 84.4395 58.4682V57.0629C84.4395 57.003 84.4683 56.9581 84.5119 56.9283L85.6857 56.2256Z" fill="#539E43"/>
<path d="M58.6609 53.4918L52.5306 49.8589C52.4704 49.8276 52.4072 49.8025 52.3421 49.7842L45.4727 61.9239C45.5296 61.9956 45.5983 62.0563 45.6757 62.1033L51.8059 65.7363C51.9799 65.8409 52.1828 65.8708 52.3711 65.8109L58.8204 53.6414C58.7769 53.5817 58.7188 53.5366 58.6609 53.4919V53.4918Z" fill="url(#paint0_linear_688_16402)"/>
<path fill-rule="evenodd" clip-rule="evenodd" d="M51.5986 48.5215L51.5117 48.5664H51.6276L51.5986 48.5215Z" fill="url(#paint1_linear_688_16402)"/>
<path fill-rule="evenodd" clip-rule="evenodd" d="M58.674 62.0816C58.848 61.977 58.9784 61.7976 59.0364 61.6033L52.3117 49.7626C52.1377 49.7327 51.9493 49.7476 51.79 49.8523L45.7031 53.4703L52.2681 65.8192C52.3636 65.8031 52.4564 65.7729 52.5435 65.7296L58.6739 62.0818L58.674 62.0816Z" fill="url(#paint2_linear_688_16402)"/>
<path fill-rule="evenodd" clip-rule="evenodd" d="M59.2397 61.9615L59.1953 61.8867V61.9914L59.2395 61.9615H59.2397Z" fill="url(#paint3_linear_688_16402)"/>
<path fill-rule="evenodd" clip-rule="evenodd" d="M58.6744 62.0813L52.5586 65.7142C52.4722 65.7596 52.3792 65.7899 52.2832 65.8038L52.3992 66.0281L59.1816 61.9767V61.887L59.0077 61.5879C58.9788 61.7972 58.8483 61.9766 58.6744 62.0813Z" fill="url(#paint4_linear_688_16402)"/>
<path fill-rule="evenodd" clip-rule="evenodd" d="M58.6744 62.0813L52.5586 65.7142C52.4722 65.7596 52.3792 65.7899 52.2832 65.8038L52.3992 66.0281L59.1816 61.9767V61.887L59.0077 61.5879C58.9788 61.7972 58.8483 61.9766 58.6744 62.0813Z" fill="url(#paint5_linear_688_16402)"/>
<defs>
<linearGradient id="paint0_linear_688_16402" x1="51.2491" y1="58.6428" x2="68.2314" y2="49.6988" gradientUnits="userSpaceOnUse">
<stop offset="0.1376" stop-color="#41873F"/>
<stop offset="0.4032" stop-color="#54A044"/>
<stop offset="0.7136" stop-color="#66B848"/>
<stop offset="0.9081" stop-color="#6CC04A"/>
</linearGradient>
<linearGradient id="paint1_linear_688_16402" x1="46.3977" y1="48.5275" x2="57.6849" y2="48.5275" gradientUnits="userSpaceOnUse">
<stop offset="0.09192" stop-color="#6CC04A"/>
<stop offset="0.2864" stop-color="#66B848"/>
<stop offset="0.5968" stop-color="#54A044"/>
<stop offset="0.8624" stop-color="#41873F"/>
</linearGradient>
<linearGradient id="paint2_linear_688_16402" x1="45.1179" y1="57.7836" x2="59.2363" y2="57.7836" gradientUnits="userSpaceOnUse">
<stop offset="0.09192" stop-color="#6CC04A"/>
<stop offset="0.2864" stop-color="#66B848"/>
<stop offset="0.5968" stop-color="#54A044"/>
<stop offset="0.8624" stop-color="#41873F"/>
</linearGradient>
<linearGradient id="paint3_linear_688_16402" x1="54.8858" y1="61.9246" x2="59.2077" y2="61.9246" gradientUnits="userSpaceOnUse">
<stop offset="0.09192" stop-color="#6CC04A"/>
<stop offset="0.2864" stop-color="#66B848"/>
<stop offset="0.5968" stop-color="#54A044"/>
<stop offset="0.8624" stop-color="#41873F"/>
</linearGradient>
<linearGradient id="paint4_linear_688_16402" x1="45.1184" y1="63.8202" x2="59.2366" y2="63.8202" gradientUnits="userSpaceOnUse">
<stop offset="0.09192" stop-color="#6CC04A"/>
<stop offset="0.2864" stop-color="#66B848"/>
<stop offset="0.5968" stop-color="#54A044"/>
<stop offset="0.8624" stop-color="#41873F"/>
</linearGradient>
<linearGradient id="paint5_linear_688_16402" x1="61.2935" y1="52.2159" x2="57.4958" y2="71.5062" gradientUnits="userSpaceOnUse">
<stop stop-color="#41873F"/>
<stop offset="0.3288" stop-color="#418B3D"/>
<stop offset="0.6352" stop-color="#419637"/>
<stop offset="0.9319" stop-color="#3FA92D"/>
<stop offset="1" stop-color="#3FAE2A"/>
</linearGradient>
</defs>
</svg>
