<svg width="120" height="120" viewBox="0 0 120 120" fill="none" xmlns="http://www.w3.org/2000/svg">
<path d="M77.8675 46.9335L62.3815 37.992C61.699 37.59 60.8785 37.3545 59.9995 37.3545C59.1205 37.3545 58.3 37.5915 57.5935 38.004L57.616 37.992L42.13 46.9335C41.4074 47.3532 40.8072 47.9548 40.3893 48.6785C39.9714 49.4022 39.7503 50.2228 39.748 51.0585V68.9415C39.7498 69.7732 39.9685 70.5901 40.3826 71.3114C40.7966 72.0327 41.3917 72.6335 42.109 73.0545L42.133 73.0665L57.616 82.008C58.3404 82.4283 59.1636 82.6483 60.001 82.6455C60.877 82.6455 61.6975 82.4085 62.404 81.996L62.383 82.008L77.866 73.0665C78.5887 72.6468 79.1889 72.0452 79.6068 71.3215C80.0247 70.5977 80.2458 69.7772 80.248 68.9415V51.0585C80.2469 50.2268 80.0286 49.4099 79.6148 48.6885C79.2009 47.9671 78.6059 47.3663 77.8885 46.9455L77.8675 46.9335ZM77.074 68.9415C77.074 69.525 76.7575 70.0365 76.285 70.3125L76.279 70.3155L60.793 79.257C60.5501 79.3976 60.2743 79.4712 59.9937 79.4704C59.7131 79.4696 59.4376 79.3944 59.1955 79.2525L59.203 79.2555L43.717 70.314C43.4758 70.1747 43.2755 69.9745 43.1363 69.7333C42.997 69.4921 42.9236 69.2185 42.9235 68.94V51.057C42.9235 50.4735 43.24 49.962 43.7125 49.686L43.7185 49.683L59.2045 40.7415C59.4475 40.6015 59.7231 40.528 60.0035 40.5282C60.2839 40.5285 60.5593 40.6026 60.802 40.743L60.793 40.74L76.279 49.6815C76.7575 49.959 77.0725 50.472 77.0725 51.0555L77.074 68.9415Z" fill="white"/>
<path d="M69.1402 65.1764H68.0032C67.7325 65.1757 67.4663 65.2455 67.2307 65.3789L67.2397 65.3729L60.3787 69.1409L52.4557 64.5674V55.4444L60.3787 50.8679L67.2427 54.6239C67.4617 54.7469 67.7272 54.8204 68.0047 54.8204H69.1417C69.2461 54.8202 69.3494 54.7995 69.4458 54.7593C69.5422 54.7192 69.6297 54.6605 69.7034 54.5865C69.7771 54.5125 69.8355 54.4248 69.8753 54.3283C69.915 54.2317 69.9354 54.1283 69.9352 54.0239V52.9499C69.9354 52.8085 69.8978 52.6695 69.8263 52.5474C69.7549 52.4254 69.6521 52.3245 69.5287 52.2554L69.5227 52.2524L61.9057 48.0869C61.4248 47.8241 60.8842 47.69 60.3362 47.6976C59.7883 47.7052 59.2516 47.8543 58.7782 48.1304L58.7932 48.1214L50.8717 52.6949C50.3903 52.9755 49.9905 53.3768 49.7119 53.8593C49.4333 54.3419 49.2855 54.8888 49.2832 55.4459V64.5689C49.2832 65.7374 49.9162 66.7604 50.8567 67.3109L50.8702 67.3199L58.7917 71.8934C59.2673 72.1669 59.8054 72.3132 60.354 72.3182C60.9026 72.3232 61.4432 72.1867 61.9237 71.9219L61.9057 71.9309L69.5257 67.7504C69.6512 67.6823 69.7559 67.5815 69.8288 67.4587C69.9016 67.3359 69.94 67.1957 69.9397 67.0529V65.9789C69.9393 65.7686 69.8556 65.567 69.7069 65.4183C69.5581 65.2695 69.3565 65.1858 69.1462 65.1854L69.1402 65.1764Z" fill="white"/>
</svg>
