<svg width="120" height="120" viewBox="0 0 120 120" fill="none" xmlns="http://www.w3.org/2000/svg">
<g clip-path="url(#clip0_688_16347)">
<path d="M54.0585 61.6243H59.8073L56.7676 56.5569L51.1885 65.719H48.6496L55.4354 54.7133C55.7304 54.2687 56.2221 54 56.7676 54C57.295 54 57.7868 54.2593 58.0729 54.6948L64.8856 65.719H62.3466L61.1487 63.6716H55.3283L54.0587 61.6243H54.0585ZM80.4333 63.6715V54.1111H78.2787V64.6073C78.2787 64.8944 78.3859 65.1724 78.5915 65.3855C78.7971 65.5985 79.0742 65.719 79.3782 65.719H89.204L90.4736 63.6716H80.4331L80.4333 63.6715ZM44.7871 61.9576C46.8793 61.9576 48.578 60.2068 48.578 58.039C48.578 55.8711 46.8793 54.1109 44.7871 54.1109H35.361V65.7191H37.5149V56.1586H44.6442C45.6455 56.1586 46.4501 57.0018 46.4501 58.0394C46.4501 59.0768 45.6455 59.9198 44.6442 59.9198L38.57 59.9106L45.0017 65.7191H48.131L43.8037 61.958H44.7872L44.7871 61.9576ZM22.1023 65.719C19.0097 65.7191 16.5 63.1251 16.5 59.9198C16.5 56.7143 19.0097 54.1113 22.1023 54.1113H28.6137C31.707 54.1113 34.2149 56.7143 34.2149 59.9198C34.2149 63.1251 31.707 65.719 28.6136 65.719H22.1023ZM28.469 63.6716C30.4725 63.6716 32.0953 61.9948 32.0953 59.9196C32.0953 57.8446 30.4725 56.1586 28.469 56.1586H22.2464C20.2435 56.1586 18.6199 57.8446 18.6199 59.9198C18.6199 61.9948 20.2435 63.6716 22.2462 63.6716H28.4688H28.469ZM69.3827 65.719C66.2895 65.719 63.777 63.1251 63.777 59.9198C63.777 56.7143 66.2895 54.1113 69.3827 54.1113H77.1166L75.8558 56.1586H69.5258C67.5231 56.1586 65.896 57.8446 65.896 59.9198C65.896 61.9948 67.5231 63.6716 69.5258 63.6716H77.2952L76.0255 65.719H69.3827ZM95.7308 63.6716C94.0768 63.6716 92.6731 62.523 92.244 60.9387H101.453L102.722 58.8914H92.244C92.6731 57.3164 94.0768 56.1586 95.7308 56.1586H102.052L103.33 54.1109H95.5876C92.4942 54.1109 89.9819 56.7141 89.9819 59.9194C89.9819 63.1249 92.4942 65.7188 95.5876 65.7188H102.231L103.5 63.6716H95.7307H95.7308Z" fill="#EA1B22"/>
</g>
<defs>
<clipPath id="clip0_688_16347">
<rect width="87" height="11.7966" fill="white" transform="translate(16.5 54)"/>
</clipPath>
</defs>
</svg>
