<svg width="120" height="120" viewBox="0 0 120 120" fill="none" xmlns="http://www.w3.org/2000/svg">
<g clip-path="url(#clip0_688_16356)">
<path d="M82.3149 66.2428C82.0271 65.3975 81.2732 64.8088 80.2982 64.6675C79.8384 64.601 79.3119 64.6294 78.6888 64.7539C77.6028 64.9712 76.7972 65.0539 76.2092 65.0699C78.4286 61.4363 80.2333 57.2926 81.2722 53.3921C82.9522 47.085 82.0545 44.2117 81.0054 42.9121C78.2291 39.4721 74.1785 37.6241 69.2919 37.5675C66.6851 37.5366 64.3967 38.0357 63.2028 38.3946C62.0913 38.2044 60.8962 38.0983 59.6422 38.0786C57.2915 38.0423 55.2146 38.5392 53.4399 39.5604C52.4574 39.2383 50.8805 38.7841 49.0595 38.4943C44.7767 37.8124 41.3248 38.3437 38.7999 40.0733C35.7425 42.1675 34.3252 45.8061 34.5873 50.8879C34.6706 52.5014 35.6013 57.4104 37.0668 62.0661C37.9091 64.7421 38.8072 66.9643 39.7363 68.6715C41.0538 71.0924 42.4637 72.5181 44.0463 73.0301C44.9334 73.3166 46.5452 73.5173 48.2403 72.1483C48.4552 72.4006 48.7419 72.6513 49.1223 72.8843C49.6055 73.1797 50.1963 73.4212 50.7864 73.5643C52.9128 74.0797 54.9047 73.9508 56.604 73.2283C56.6145 73.5214 56.6225 73.8013 56.6293 74.0432C56.6405 74.4354 56.6518 74.8199 56.6666 75.1795C56.7673 77.6112 56.9379 79.5019 57.4434 80.8248C57.4712 80.8975 57.5085 81.0084 57.5478 81.1261C57.8 81.8748 58.2217 83.1283 59.2946 84.1099C60.4055 85.1268 61.7493 85.4386 62.9801 85.4386C63.5973 85.4386 64.1863 85.3601 64.7028 85.2528C66.5441 84.8701 68.6353 84.2872 70.148 82.1984C71.5783 80.2239 72.2735 77.2499 72.3993 72.5639C72.4157 72.4314 72.4307 72.3048 72.4451 72.1843L72.4751 71.9366L72.812 71.9654L72.8988 71.971C74.7742 72.0539 77.0673 71.6683 78.4757 71.0339C79.5885 70.5332 83.1545 68.7075 82.3149 66.2428Z" fill="black"/>
<path d="M79.1064 66.7222C73.5302 67.8377 73.1467 66.007 73.1467 66.007C79.0342 57.5355 81.4956 46.7822 79.3717 44.1504C73.5772 36.9713 63.5469 40.3666 63.3795 40.4546L63.3257 40.4641C62.2239 40.2422 60.9911 40.1102 59.6053 40.0882C57.0823 40.0482 55.1683 40.7297 53.7159 41.7977C53.7159 41.7977 35.8228 34.6497 36.6551 50.7875C36.8321 54.2206 41.7296 76.7644 47.571 69.9552C49.7061 67.4652 51.7691 65.3599 51.7691 65.3599C52.7936 66.0199 54.0202 66.3566 55.3061 66.2357L55.4061 66.1535C55.3749 66.4626 55.3892 66.765 55.446 67.123C53.9411 68.7533 54.3834 69.0395 51.3752 69.6401C48.3311 70.2484 50.1193 71.3313 51.2869 71.6146C52.7023 71.9577 55.9768 72.4439 58.1893 69.4404L58.1012 69.7832C58.6907 70.2412 59.1047 72.7619 59.0353 75.0472C58.9659 77.3322 58.9196 78.9012 59.3841 80.1266C59.8489 81.3521 60.3118 84.1093 64.2666 83.2877C67.5709 82.601 69.2833 80.8215 69.5216 77.8532C69.6906 75.743 70.0732 76.055 70.0972 74.1682L70.4042 73.2752C70.758 70.4146 70.4604 69.4917 72.4961 69.921L72.9911 69.9632C74.4892 70.0292 76.4505 69.7293 77.6016 69.2106C80.0799 68.0953 81.5499 66.233 79.1061 66.7222H79.1064Z" fill="#336791"/>
<path d="M54.7645 52.3227C54.262 52.2548 53.8069 52.3176 53.5767 52.4867C53.4473 52.5817 53.4072 52.6919 53.3963 52.7677C53.3674 52.9687 53.5126 53.1908 53.6018 53.3054C53.8542 53.6297 54.2228 53.8527 54.5877 53.9017C54.6406 53.909 54.6933 53.9123 54.7456 53.9123C55.354 53.9123 55.9073 53.4528 55.9561 53.1137C56.017 52.689 55.3812 52.4059 54.7645 52.3228M71.4115 52.3361C71.3635 52.0032 70.7526 51.9083 70.1729 51.9865C69.5939 52.0647 69.0325 52.3181 69.0794 52.6517C69.1169 52.9112 69.6001 53.3541 70.1719 53.3541C70.2203 53.3541 70.2691 53.351 70.3182 53.3443C70.6999 53.293 70.9801 53.0579 71.1132 52.9225C71.3157 52.7159 71.4331 52.4857 71.4115 52.3361Z" fill="white"/>
<path d="M80.9638 66.5953C80.7512 65.9719 80.0668 65.7713 78.9298 65.999C75.5539 66.6746 74.3449 66.2066 73.948 65.9232C76.572 62.0468 78.7307 57.361 79.8953 52.9892C80.4469 50.9182 80.7516 48.995 80.7765 47.4273C80.8041 45.7068 80.5018 44.4424 79.8786 43.6701C77.3657 40.5564 73.6776 38.8862 69.2132 38.8404C66.144 38.807 63.5509 39.5686 63.0482 39.7828C61.9896 39.5275 60.8355 39.3708 59.5791 39.3508C57.2751 39.3146 55.2835 39.8495 53.6346 40.9399C52.9183 40.6813 51.0673 40.0652 48.8037 39.7115C44.8902 39.1006 41.7803 39.5635 39.561 41.0881C36.913 42.9073 35.6905 46.1593 35.9273 50.7535C36.007 52.2992 36.9152 57.0541 38.3485 61.6077C40.2351 67.6012 42.286 70.9941 44.4437 71.6921C44.6963 71.7737 44.9875 71.8308 45.3087 71.8308C46.0958 71.8308 47.0608 71.4868 48.0649 70.3162C49.2896 68.8916 50.5564 67.5016 51.8638 66.1479C52.7121 66.5893 53.644 66.8359 54.597 66.8606C54.5989 66.8848 54.6013 66.909 54.6036 66.933C54.4395 67.1227 54.2789 67.3151 54.1217 67.5102C53.4613 68.3232 53.3239 68.4924 51.1982 68.9168C50.5935 69.0379 48.9876 69.3588 48.964 70.4504C48.9385 71.6432 50.8624 72.1441 51.0816 72.1972C51.8455 72.3826 52.5814 72.4741 53.2832 72.4741C54.99 72.4741 56.4921 71.9301 57.6925 70.8775C57.6555 75.1295 57.8383 79.3193 58.3648 80.5959C58.7961 81.641 59.8495 84.195 63.1768 84.1948C63.6651 84.1948 64.2025 84.1397 64.7937 84.0168C68.2663 83.295 69.7744 81.8066 70.3577 78.5253C70.6699 76.7717 71.2056 72.5842 71.4576 70.3381C71.9893 70.499 72.6739 70.5726 73.414 70.5724C74.9575 70.5724 76.7385 70.2544 77.8555 69.7517C79.1102 69.1866 81.3745 67.8001 80.9638 66.5953ZM72.694 51.4172C72.6825 52.0802 72.5884 52.6822 72.4886 53.3106C72.3812 53.9864 72.2702 54.6852 72.2423 55.5333C72.2147 56.3588 72.321 57.217 72.4238 58.047C72.6315 59.7233 72.8447 61.4492 72.0195 63.1521C71.8825 62.9165 71.7603 62.6731 71.6539 62.4232C71.5513 62.1821 71.3286 61.7948 71.0201 61.2588C69.8203 59.1722 67.0107 54.2861 68.449 52.2922C68.8774 51.6988 69.9647 51.0886 72.694 51.4172ZM69.3857 40.1832C73.3858 40.2688 76.5501 41.7199 78.7903 44.4959C80.5086 46.6252 78.6165 56.3137 73.1391 64.6721C73.084 64.6041 73.0286 64.5364 72.973 64.469L72.9036 64.385C74.319 62.1182 74.0423 59.8755 73.7959 57.8872C73.6946 57.0712 73.599 56.3004 73.6234 55.5764C73.6485 54.8092 73.7531 54.151 73.8544 53.5146C73.9787 52.7304 74.1053 51.919 74.0704 50.9624C74.0965 50.8621 74.107 50.7435 74.0933 50.6028C74.0042 49.6855 72.9242 46.9402 70.723 44.4555C69.5188 43.0964 67.7629 41.5755 65.3653 40.5497C66.3966 40.3424 67.8068 40.1492 69.3857 40.1832ZM47.0023 69.4595C45.8961 70.7493 45.1322 70.5021 44.881 70.421C43.2441 69.8915 41.3447 66.5366 39.6702 61.2166C38.2212 56.6133 37.3744 51.9844 37.3073 50.6864C37.0958 46.5813 38.122 43.7204 40.3575 42.183C43.9958 39.6812 49.9774 41.1786 52.381 41.9381C52.3465 41.9712 52.3105 42.0021 52.2763 42.0357C48.3321 45.8982 48.4257 52.4975 48.4354 52.901C48.435 53.0566 48.4485 53.277 48.4669 53.5801C48.5348 54.6901 48.6612 56.7559 48.3237 59.0953C48.0102 61.2693 48.7013 63.3972 50.2195 64.9333C50.3753 65.0907 50.539 65.2404 50.7102 65.3821C50.0344 66.0839 48.5657 67.6359 47.0023 69.4595ZM51.2172 64.0062C49.9935 62.7681 49.4378 61.0459 49.6922 59.2808C50.0485 56.8095 49.917 54.6572 49.8463 53.5008C49.8364 53.339 49.8276 53.1972 49.8225 53.0853C50.3987 52.5899 53.0689 51.2026 54.9732 51.6257C55.842 51.8186 56.3715 52.3924 56.5917 53.3793C57.7309 58.489 56.7424 60.6186 55.9482 62.3301C55.7845 62.6826 55.6298 63.0159 55.4978 63.3606L55.3954 63.6272C55.1363 64.301 54.8952 64.9275 54.7457 65.5224C53.4448 65.5188 52.1794 64.9799 51.2172 64.0061V64.0062ZM51.4168 70.8972C51.037 70.8052 50.6953 70.6453 50.4949 70.5128C50.6623 70.4364 50.9603 70.3324 51.477 70.2292C53.9777 69.7301 54.364 69.3777 55.2073 68.3393C55.4007 68.1012 55.6198 67.8313 55.9234 67.5026L55.9238 67.5022C56.3758 67.0113 56.5827 67.0946 56.9577 67.2455C57.2616 67.3673 57.5577 67.7368 57.6777 68.1433C57.7345 68.3353 57.7982 68.6997 57.5895 68.9833C55.8278 71.3753 53.2605 71.3446 51.4168 70.8972ZM64.5042 82.7066C61.4449 83.3422 60.3617 81.8286 59.6479 80.0982C59.1872 78.9812 58.9607 73.9437 59.1214 68.3806C59.1235 68.3066 59.1126 68.2352 59.0916 68.1679C59.0728 68.035 59.0442 67.9037 59.0061 67.7748C58.7672 66.9653 58.185 66.2882 57.4866 66.0075C57.2091 65.8961 56.6998 65.6915 56.0878 65.8433C56.2183 65.3219 56.4447 64.733 56.6901 64.0953L56.793 63.8272C56.9089 63.5248 57.0544 63.2115 57.2082 62.8799C58.0393 61.0893 59.1777 58.6368 57.9422 53.0962C57.4795 51.021 55.9341 50.0075 53.5915 50.243C52.1871 50.3839 50.9022 50.9333 50.2613 51.2484C50.1235 51.3161 49.9975 51.3815 49.8797 51.4452C50.0586 49.3542 50.7343 45.4466 53.2622 42.9742C54.8539 41.4179 56.9736 40.6492 59.5562 40.6906C64.645 40.7713 67.9082 43.3037 69.7498 45.4141C71.3368 47.2324 72.1961 49.0642 72.5391 50.0522C69.96 49.7979 68.206 50.2915 67.3168 51.5242C65.3824 54.2057 68.3751 59.4101 69.8134 61.9113C70.0772 62.3697 70.3048 62.7659 70.3765 62.9342C70.8448 64.035 71.4512 64.7699 71.8939 65.3062C72.0297 65.4706 72.1613 65.6301 72.2614 65.7693C71.4803 65.9877 70.0772 66.4922 70.2051 69.0142C70.102 70.2797 69.3686 76.2044 68.9961 78.2977C68.5043 81.0632 67.4548 82.0932 64.5042 82.7068V82.7066ZM77.2737 68.5364C76.4749 68.8959 75.1382 69.1655 73.8685 69.2235C72.466 69.2872 71.752 69.0712 71.584 68.9382C71.5052 67.3666 72.1084 67.2024 72.7468 67.0286C72.8471 67.0013 72.945 66.9746 73.0395 66.9426C73.0982 66.989 73.1625 67.035 73.233 67.0801C74.3603 67.8015 76.3708 67.8793 79.2094 67.3112L79.2405 67.3052C78.8576 67.6522 78.2025 68.1181 77.2737 68.5364Z" fill="white"/>
</g>
<defs>
<clipPath id="clip0_688_16356">
<rect width="48" height="48" fill="white" transform="translate(34.5 37.5)"/>
</clipPath>
</defs>
</svg>
