<svg width="120" height="120" viewBox="0 0 120 120" fill="none" xmlns="http://www.w3.org/2000/svg">
<path d="M65.8653 39.0017C65.8653 39.0017 76.5227 45.0941 79.3117 54.7726C81.8248 63.5152 79.8123 67.6876 79.8123 67.6876C81.0975 69.0879 82.1102 70.7157 82.7985 72.4875C83.4898 73.6258 83.896 74.9143 83.9825 76.2433C84.0691 77.5723 83.8334 78.9025 83.2956 80.1209C83.2956 80.1209 83.1242 76.5553 77.81 75.8165C72.9399 75.1308 71.1691 79.8724 61.8677 79.6427C56.714 79.5445 51.6626 78.1871 47.1539 75.6889C42.6451 73.1907 38.8159 69.6275 36 65.31C40.5444 67.7888 46.4979 71.6372 53.912 71.0458C61.326 70.4544 62.874 68.1762 62.874 68.1762C54.5402 61.5815 47.1636 53.8604 40.9558 45.2347C46.7842 50.1116 61.2215 59.8176 60.8855 59.5707C55.6046 54.4107 50.773 48.81 46.4431 42.8296C46.4431 42.8296 68.1041 60.6387 69.8475 60.5256C70.564 59.0496 74.2684 51.4093 65.8636 39L65.8653 39.0017Z" fill="url(#paint0_linear_688_16276)"/>
<defs>
<linearGradient id="paint0_linear_688_16276" x1="60.7535" y1="55.4583" x2="59.8472" y2="80.1415" gradientUnits="userSpaceOnUse">
<stop stop-color="#F88535"/>
<stop offset="1" stop-color="#FD2221"/>
</linearGradient>
</defs>
</svg>
