<svg width="80" height="80" viewBox="0 0 80 80" fill="none" xmlns="http://www.w3.org/2000/svg">
<path d="M43.9102 26.0011C43.9102 26.0011 51.0151 30.0627 52.8745 36.5151C54.5498 42.3435 53.2082 45.1251 53.2082 45.1251C54.065 46.0586 54.7401 47.1438 55.199 48.325C55.6598 49.0839 55.9306 49.9428 55.9883 50.8288C56.046 51.7149 55.8889 52.6017 55.5304 53.4139C55.5304 53.4139 55.4161 51.0369 51.8734 50.5443C48.6266 50.0872 47.4461 53.2482 41.2451 53.0951C37.8094 53.0296 34.4417 52.1247 31.4359 50.4593C28.4301 48.7938 25.8772 46.4183 24 43.54C27.0296 45.1925 30.9986 47.7581 35.9413 47.3639C40.884 46.9696 41.916 45.4508 41.916 45.4508C36.3602 41.0543 31.4424 35.907 27.3039 30.1564C31.1895 33.4078 40.8143 39.8784 40.5903 39.7138C37.0697 36.2738 33.8487 32.54 30.9621 28.5531C30.9621 28.5531 45.4027 40.4258 46.565 40.3504C47.0427 39.3664 49.5123 34.2729 43.9091 26L43.9102 26.0011Z" fill="url(#paint0_linear_270_10562)"/>
<defs>
<linearGradient id="paint0_linear_270_10562" x1="40.5023" y1="36.9722" x2="39.8982" y2="53.4277" gradientUnits="userSpaceOnUse">
<stop stop-color="#F88535"/>
<stop offset="1" stop-color="#FD2221"/>
</linearGradient>
</defs>
</svg>
