<svg width="120" height="120" viewBox="0 0 120 120" fill="none" xmlns="http://www.w3.org/2000/svg">
<g clip-path="url(#clip0_688_16262)">
<path d="M48.5527 36C47.0972 36.0032 45.6723 36.8295 44.9397 38.0899L33.5431 57.8869C32.8216 59.1507 32.8216 60.8027 33.5431 62.0665L44.9397 81.8638C45.6723 83.1242 47.0972 83.9507 48.5527 83.9537H71.346C72.8016 83.9505 74.2264 83.1242 74.9591 81.8638L86.3557 62.0665C87.0772 60.8027 87.0769 59.1507 86.3557 57.8869L74.9591 38.0899C74.2264 36.8293 72.8016 36.0029 71.346 36H48.5527ZM48.7597 47.5817C48.7911 47.5785 48.8239 47.5785 48.8553 47.5817H52.7866C52.874 47.5845 52.9592 47.6094 53.0344 47.654C53.1095 47.6986 53.1722 47.7615 53.2165 47.8368L59.8858 59.7215C59.9195 59.7804 59.941 59.8457 59.949 59.9131C59.9574 59.8457 59.9788 59.7804 60.0125 59.7215L66.6658 47.8368C66.7116 47.7594 66.7768 47.6951 66.8549 47.6504C66.9331 47.6057 67.0215 47.582 67.1115 47.5817H71.0431C71.3911 47.5846 71.6519 48.0232 71.4887 48.3314L64.9786 59.9768L71.4887 71.6063C71.6673 71.9162 71.4003 72.3749 71.0431 72.372H67.1115C67.0199 72.3701 66.9304 72.344 66.8522 72.2964C66.7739 72.2487 66.7096 72.1813 66.6658 72.1008L60.0125 60.216C59.9789 60.1571 59.9573 60.092 59.9492 60.0246C59.941 60.0921 59.9194 60.1572 59.8858 60.2162L53.2163 72.1008C53.1739 72.179 53.1122 72.245 53.037 72.2925C52.9618 72.34 52.8757 72.3673 52.7868 72.372H48.8551C48.4978 72.3752 48.2308 71.9162 48.4094 71.6063L54.9195 59.9768L48.4094 48.3314C48.2534 48.0501 48.4437 47.6417 48.7595 47.5817H48.7597Z" fill="#3498DB"/>
</g>
<defs>
<clipPath id="clip0_688_16262">
<rect width="53.8966" height="48" fill="white" transform="translate(33 36)"/>
</clipPath>
</defs>
</svg>
