<svg width="80" height="80" viewBox="0 0 80 80" fill="none" xmlns="http://www.w3.org/2000/svg">
<g clip-path="url(#clip0_270_10400)">
<path d="M35.7399 48.7374C35.7399 48.7374 34.5026 49.4472 36.6205 49.6874C39.1863 49.9761 40.4976 49.9348 43.3252 49.4068C43.3252 49.4068 44.0687 49.8666 45.1068 50.2649C38.7682 52.9449 30.7612 50.1097 35.7399 48.7374ZM34.9653 45.2401C34.9653 45.2401 33.5776 46.2536 35.6971 46.4698C38.4379 46.7487 40.6024 46.7716 44.3479 46.0601C44.3479 46.0601 44.866 46.5782 45.6806 46.8616C38.0168 49.0723 29.4808 47.0359 34.9653 45.2401Z" fill="#5382A1"/>
<path d="M41.495 39.3077C43.0569 41.0816 41.0847 42.6779 41.0847 42.6779C41.0847 42.6779 45.0504 40.6583 43.2291 38.1292C41.5281 35.7708 40.2236 34.5988 47.2855 30.5585C47.2855 30.5585 36.2007 33.2896 41.495 39.3076" fill="#E76F00"/>
<path d="M49.8783 51.3241C49.8783 51.3241 50.7939 52.0683 48.8698 52.6442C45.2111 53.7376 33.6418 54.0678 30.4278 52.6877C29.2726 52.192 31.4391 51.5039 32.1206 51.3594C32.8313 51.2074 33.2375 51.2358 33.2375 51.2358C31.9527 50.3428 24.9329 52.989 29.6718 53.7468C42.5956 55.8144 53.2305 52.8158 49.8783 51.3241ZM36.3348 41.6166C36.3348 41.6166 30.45 42.9956 34.2509 43.4962C35.8557 43.7082 39.0549 43.6603 42.0349 43.4139C44.4704 43.2114 46.9158 42.7804 46.9158 42.7804C46.9158 42.7804 46.0571 43.1432 45.4358 43.5617C39.4598 45.1122 27.9153 44.3909 31.2388 42.8049C34.0495 41.4646 36.3348 41.6166 36.3348 41.6166M46.8916 47.4379C52.9666 44.3237 50.1577 41.331 48.1972 41.7343C47.7167 41.8329 47.5024 41.9183 47.5024 41.9183C47.5024 41.9183 47.6809 41.6427 48.0215 41.5234C51.9 40.1782 54.8828 45.4908 46.7695 47.5948C46.7695 47.5949 46.8635 47.512 46.8916 47.4379Z" fill="#5382A1"/>
<path d="M43.2289 24.0343C43.2289 24.0343 46.5934 27.3545 40.038 32.4598C34.7813 36.5552 38.8393 38.8903 40.0358 41.5582C36.9674 38.8272 34.7155 36.4229 36.2263 34.1853C38.4436 30.9005 44.5864 29.308 43.2289 24.0342" fill="#E76F00"/>
<path d="M36.9312 55.8766C42.7624 56.2448 51.7167 55.6723 51.9288 52.9503C51.9288 52.9503 51.5212 53.9823 47.1097 54.8017C42.1327 55.7256 35.9943 55.6178 32.3535 55.0256C32.3536 55.0256 33.0988 55.6342 36.9313 55.8766" fill="#5382A1"/>
</g>
<defs>
<clipPath id="clip0_270_10400">
<rect width="24" height="32" fill="white" transform="translate(28 24)"/>
</clipPath>
</defs>
</svg>
