<svg width="80" height="80" viewBox="0 0 80 80" fill="none" xmlns="http://www.w3.org/2000/svg">
<g clip-path="url(#clip0_270_12096)">
<path fill-rule="evenodd" clip-rule="evenodd" d="M55.5391 31.1164C55.5504 31.1583 55.5562 31.2015 55.5563 31.245V37.997C55.5563 38.0836 55.5334 38.1688 55.49 38.2437C55.4466 38.3187 55.3841 38.3809 55.3089 38.424L49.6418 41.6868V48.1539C49.6418 48.3299 49.5483 48.4924 49.3957 48.581L37.5662 55.3908C37.5391 55.4062 37.5095 55.416 37.48 55.4265C37.4689 55.4302 37.4585 55.437 37.4468 55.44C37.3641 55.4618 37.2772 55.4618 37.1945 55.44C37.1809 55.4364 37.1686 55.429 37.1557 55.424C37.1286 55.4142 37.1003 55.4056 37.0745 55.3908L25.2474 48.581C25.1723 48.5378 25.1098 48.4756 25.0664 48.4006C25.023 48.3256 25.0001 48.2405 25 48.1539V27.8979C25 27.8536 25.0062 27.8105 25.0172 27.7687C25.0209 27.7545 25.0295 27.7416 25.0345 27.7274C25.0437 27.7016 25.0523 27.6751 25.0658 27.6511C25.0751 27.6351 25.0886 27.6222 25.0997 27.6074C25.1138 27.5877 25.1268 27.5674 25.1434 27.5502C25.1575 27.536 25.176 27.5256 25.192 27.5133C25.2098 27.4985 25.2258 27.4825 25.2462 27.4708H25.2468L31.1606 24.0659C31.2355 24.0228 31.3204 24.0001 31.4068 24.0001C31.4932 24.0001 31.578 24.0228 31.6529 24.0659L37.5668 27.4708H37.568C37.5877 27.4831 37.6043 27.4985 37.6222 27.5127C37.6382 27.525 37.656 27.536 37.6702 27.5496C37.6874 27.5674 37.6997 27.5877 37.7145 27.6074C37.7249 27.6222 37.7391 27.6351 37.7477 27.6511C37.7618 27.6757 37.7698 27.7016 37.7797 27.7274C37.7846 27.7416 37.7932 27.7545 37.7969 27.7693C37.8083 27.8112 37.814 27.8544 37.8142 27.8979V40.5496L42.7422 37.712V31.2444C42.7422 31.2013 42.7483 31.1576 42.7594 31.1164C42.7637 31.1016 42.7717 31.0887 42.7766 31.0745C42.7865 31.0487 42.7951 31.0222 42.8086 30.9982C42.8178 30.9822 42.8314 30.9693 42.8418 30.9545C42.8566 30.9348 42.8689 30.9145 42.8862 30.8973C42.9003 30.8831 42.9182 30.8727 42.9342 30.8604C42.9526 30.8456 42.9686 30.8296 42.9883 30.8179H42.9889L48.9034 27.413C48.9782 27.3698 49.0631 27.3471 49.1495 27.3471C49.2359 27.3471 49.3208 27.3698 49.3957 27.413L55.3095 30.8179C55.3305 30.8302 55.3465 30.8456 55.3649 30.8597C55.3803 30.872 55.3982 30.8831 55.4123 30.8967C55.4295 30.9145 55.4418 30.9348 55.4566 30.9545C55.4677 30.9693 55.4812 30.9822 55.4898 30.9982C55.504 31.0222 55.512 31.0487 55.5218 31.0745C55.5274 31.0887 55.5354 31.1016 55.5391 31.1164ZM54.5705 37.712V32.0973L52.5009 33.2887L49.6418 34.9348V40.5496L54.5711 37.712H54.5705ZM48.6566 47.869V42.2505L45.8443 43.8567L37.8135 48.44V54.1114L48.6566 47.869ZM25.9858 28.7502V47.869L36.8277 54.1108V48.4407L31.1637 45.2351L31.1618 45.2339L31.1594 45.2327C31.1403 45.2216 31.1243 45.2056 31.1065 45.192C31.0911 45.1797 31.0732 45.1699 31.0597 45.1564L31.0585 45.1545C31.0425 45.1391 31.0314 45.12 31.0178 45.1028C31.0055 45.0862 30.9908 45.072 30.9809 45.0548L30.9803 45.053C30.9692 45.0345 30.9625 45.0124 30.9545 44.9914C30.9465 44.973 30.936 44.9557 30.9311 44.936V44.9354C30.9249 44.912 30.9237 44.8874 30.9212 44.8634C30.9188 44.845 30.9138 44.8265 30.9138 44.808V44.8068V31.5877L28.0554 29.941L25.9858 28.7508V28.7502ZM31.4074 25.0616L26.48 27.8979L31.4062 30.7342L36.3329 27.8973L31.4062 25.0616H31.4074ZM33.9698 42.7625L36.8283 41.117V28.7502L34.7588 29.9416L31.8997 31.5877V43.9545L33.9698 42.7625ZM49.1495 28.4087L44.2228 31.245L49.1495 34.0813L54.0757 31.2444L49.1495 28.4087ZM48.6566 34.9348L45.7975 33.2887L43.728 32.0973V37.712L46.5865 39.3576L48.6566 40.5496V34.9348ZM37.32 47.5877L44.5465 43.4622L48.1588 41.4007L43.2357 38.5662L37.5674 41.8296L32.4012 44.8037L37.32 47.5877Z" fill="#FF2D20"/>
</g>
<defs>
<clipPath id="clip0_270_12096">
<rect width="30.7692" height="32" fill="white" transform="translate(25 24)"/>
</clipPath>
</defs>
</svg>
