<svg width="120" height="120" viewBox="0 0 120 120" fill="none" xmlns="http://www.w3.org/2000/svg">
<g clip-path="url(#clip0_688_16323)">
<path d="M89.2472 51.0074V53.8526H83.1322V68.821H80.0745V53.8527H73.8321V51.0074H89.2472ZM89.9346 67.1241C90.15 67.1241 90.3384 67.2015 90.4979 67.3568C90.6597 67.5118 90.7403 67.6976 90.7425 67.914C90.7421 68.056 90.7027 68.1952 90.6284 68.3163C90.5557 68.4358 90.4537 68.5348 90.3322 68.6041C90.2121 68.6758 90.0745 68.7133 89.9346 68.7123C89.7106 68.7123 89.5201 68.6347 89.3607 68.4796C89.2012 68.3244 89.1222 68.1365 89.1243 67.914C89.1224 67.6976 89.2012 67.5118 89.3607 67.3568C89.5201 67.2015 89.7106 67.1241 89.9346 67.1241ZM29.3322 68.821L18.0577 54.8076V68.8137H15V51H18.8219L33.0659 68.6877L33.0661 53.8527L33.0649 51.0074H48.4798V53.8526H36.1237V58.4297H46.0606V61.275H36.1237V65.9759H48.48V68.821H29.3322ZM58.2794 61.2478L60.2833 63.7392L56.1772 68.8421H52.1645L58.2794 61.2478ZM56.1772 51.0149L61.3507 57.4398L66.5079 51.0346L70.5094 51.0285L63.354 59.9278L70.521 68.8284H66.5079L52.1759 51.0149H56.1772ZM95.1532 61.2079H96.508V66.428C96.5061 66.9077 96.4022 67.3179 96.1994 67.6631C95.9943 68.0079 95.7103 68.2713 95.3459 68.4571C94.9833 68.6407 94.5586 68.7347 94.0758 68.7347C93.6345 68.7347 93.239 68.6552 92.8867 68.5C92.5345 68.3448 92.255 68.1121 92.0498 67.8058C91.8424 67.4997 91.7409 67.1179 91.7409 66.6607H93.0981C93.1002 66.8607 93.1457 67.0341 93.2326 67.1793C93.3182 67.3225 93.4435 67.438 93.5932 67.5118C93.7484 67.5896 93.9268 67.6283 94.1275 67.6283C94.3453 67.6283 94.5316 67.5834 94.6828 67.4914C94.8339 67.4015 94.9501 67.2669 95.031 67.0873C95.1096 66.9096 95.1511 66.6892 95.1532 66.4279V61.2077V61.2079ZM102.083 63.2493C102.05 62.933 101.905 62.6858 101.652 62.5104C101.397 62.3327 101.068 62.245 100.664 62.245C100.38 62.245 100.136 62.2879 99.9325 62.3716C99.7296 62.4573 99.5721 62.5715 99.4643 62.7166C99.3568 62.8614 99.3028 63.0268 99.2985 63.2127C99.2985 63.3677 99.3358 63.5025 99.4083 63.6147C99.4834 63.7323 99.5848 63.8309 99.7045 63.9027C99.8346 63.9844 99.9737 64.0509 100.119 64.1006C100.272 64.1537 100.426 64.1986 100.579 64.2354L101.285 64.409C101.569 64.4743 101.845 64.5619 102.108 64.6743C102.371 64.7846 102.609 64.9254 102.818 65.0948C103.028 65.2642 103.193 65.4684 103.316 65.7072C103.438 65.9461 103.5 66.2258 103.5 66.5483C103.5 66.9831 103.388 67.3649 103.162 67.6956C102.937 68.0243 102.611 68.2815 102.184 68.4673C101.76 68.6511 101.246 68.7449 100.641 68.7449C100.057 68.7449 99.5472 68.6551 99.1182 68.4755C98.6875 68.2979 98.3518 68.0364 98.1093 67.6935C97.8669 67.3505 97.7364 66.9321 97.7178 66.4401H99.0605C99.079 66.6973 99.1619 66.9117 99.3028 67.0852C99.4456 67.2567 99.6321 67.3832 99.8601 67.469C100.09 67.5528 100.347 67.5956 100.631 67.5956C100.927 67.5956 101.188 67.5507 101.414 67.4629C101.638 67.3751 101.813 67.2527 101.94 67.0933C102.068 66.936 102.133 66.7504 102.135 66.5381C102.133 66.3442 102.074 66.1829 101.963 66.0562C101.849 65.9297 101.691 65.8236 101.49 65.7378C101.287 65.6521 101.051 65.5745 100.782 65.5073L99.9242 65.2908C99.3047 65.1336 98.8138 64.8948 98.4553 64.5742C98.0949 64.2537 97.9167 63.8292 97.9167 63.2963C97.9167 62.8595 98.0368 62.4756 98.2794 62.1469C98.5196 61.8184 98.8491 61.5631 99.2655 61.3815C99.6838 61.1977 100.156 61.1078 100.682 61.1078C101.217 61.1078 101.685 61.1977 102.089 61.3815C102.493 61.5631 102.81 61.8162 103.04 62.1387C103.27 62.4614 103.39 62.8308 103.396 63.2493H102.083Z" fill="white"/>
</g>
<defs>
<clipPath id="clip0_688_16323">
<rect width="88.5" height="17.9766" fill="white" transform="translate(15 51)"/>
</clipPath>
</defs>
</svg>
