<svg width="120" height="120" viewBox="0 0 120 120" fill="none" xmlns="http://www.w3.org/2000/svg">
<path d="M60.3462 43.5C42.4884 43.5 28.5 51.0767 28.5 60.75C28.5 70.4233 42.4884 78 60.3462 78C78.2039 78 92.1923 70.4233 92.1923 60.75C92.1923 51.0767 78.2039 43.5 60.3462 43.5ZM57.0395 48.8077H60.516L59.412 54.1154H62.517C64.4862 54.1154 65.8078 54.3914 66.5615 55.0787C67.2966 55.7581 67.5195 56.8727 67.2249 58.3907L65.8449 64.7308H62.31L63.5812 58.8684C63.7351 58.0643 63.6741 57.5043 63.4034 57.2098C63.1353 56.9152 62.5435 56.7692 61.6572 56.7692H58.8733L57.1934 64.7308H53.7115L57.0395 48.8077ZM41.7692 54.1154H48.8444C52.2174 54.1154 54.2609 56.3765 53.4621 59.7495C52.5332 63.6692 50.0492 64.7308 45.474 64.7308H43.2872L42.5946 68.7115H39.0782L41.7692 54.1154ZM69.6346 54.1154H76.7098C80.0828 54.1154 82.1263 56.3765 81.3275 59.7495C80.3986 63.6692 77.912 64.7308 73.3394 64.7308H71.1526L70.46 68.7115H66.9436L69.6346 54.1154ZM44.7813 56.7692L43.7808 62.0769H46.0499C48.0137 62.0769 49.8396 61.854 50.1448 58.9242C50.2589 57.791 49.7865 56.7692 47.5175 56.7692H44.7813ZM72.6467 56.7692L71.6462 62.0769H73.9153C75.8791 62.0769 77.705 61.854 78.0102 58.9242C78.1243 57.791 77.6545 56.7692 75.3828 56.7692H72.6467Z" fill="white"/>
</svg>
