<svg width="80" height="80" viewBox="0 0 80 80" fill="none" xmlns="http://www.w3.org/2000/svg">
<g clip-path="url(#clip0_270_10351)">
<path d="M54.876 44.162C54.6841 43.5984 54.1815 43.2059 53.5315 43.1118C53.225 43.0674 52.874 43.0863 52.4586 43.1693C51.7346 43.3142 51.1975 43.3693 50.8055 43.38C52.2851 40.9576 53.4882 38.1952 54.1808 35.5948C55.3008 31.3901 54.7023 29.4746 54.003 28.6081C52.1521 26.3148 49.4517 25.0828 46.194 25.0451C44.4561 25.0245 42.9305 25.3572 42.1346 25.5965C41.3936 25.4697 40.5968 25.3989 39.7608 25.3858C38.1937 25.3616 36.8091 25.6929 35.626 26.3737C34.971 26.1589 33.9197 25.8561 32.7057 25.6629C29.8505 25.2084 27.5492 25.5626 25.866 26.7156C23.8277 28.1118 22.8828 30.5375 23.0576 33.9253C23.1131 35.001 23.7336 38.2737 24.7106 41.3775C25.2721 43.1615 25.8708 44.6429 26.4902 45.7811C27.3686 47.395 28.3085 48.3455 29.3636 48.6868C29.955 48.8778 31.0295 49.0116 32.1596 48.0989C32.3028 48.2672 32.494 48.4343 32.7476 48.5896C33.0697 48.7866 33.4636 48.9475 33.857 49.0429C35.2746 49.3866 36.6025 49.3006 37.7353 48.8189C37.7423 49.0143 37.7477 49.201 37.7522 49.3622C37.7597 49.6236 37.7672 49.88 37.7771 50.1198C37.8442 51.7409 37.958 53.0013 38.295 53.8833C38.3135 53.9318 38.3383 54.0057 38.3646 54.0841C38.5327 54.5833 38.8138 55.4189 39.5291 56.0733C40.2697 56.7513 41.1656 56.9592 41.9861 56.9592C42.3976 56.9592 42.7902 56.9068 43.1346 56.8353C44.3621 56.5801 45.7562 56.1915 46.7647 54.799C47.7182 53.4827 48.1817 51.5 48.2656 48.376C48.2765 48.2876 48.2865 48.2033 48.2961 48.1229L48.3161 47.9578L48.5407 47.977L48.5986 47.9807C49.8488 48.036 51.3776 47.7789 52.3165 47.356C53.0583 47.0222 55.4357 45.8051 54.876 44.162Z" fill="black"/>
<path d="M52.7386 44.4814C49.0211 45.225 48.7655 44.0046 48.7655 44.0046C52.6905 38.3569 54.3313 31.1881 52.9155 29.4335C49.0525 24.6475 42.3656 26.911 42.254 26.9697L42.2181 26.976C41.4836 26.8281 40.6617 26.7401 39.7378 26.7254C38.0558 26.6987 36.7798 27.153 35.8116 27.865C35.8116 27.865 23.8828 23.0997 24.4377 33.8583C24.5557 36.147 27.8207 51.1762 31.715 46.6367C33.1383 44.9767 34.5137 43.5732 34.5137 43.5732C35.1967 44.0132 36.0145 44.2377 36.8717 44.1571L36.9383 44.1023C36.9176 44.3083 36.9271 44.5099 36.965 44.7486C35.9617 45.8355 36.2566 46.0263 34.2511 46.4266C32.2217 46.8322 33.4138 47.5541 34.1922 47.743C35.1358 47.9717 37.3188 48.2958 38.7938 46.2935L38.7351 46.522C39.1281 46.8274 39.4041 48.5078 39.3578 50.0314C39.3116 51.5547 39.2807 52.6007 39.5903 53.4177C39.9002 54.2346 40.2088 56.0728 42.8453 55.5251C45.0482 55.0672 46.1898 53.8809 46.3487 51.902C46.4613 50.4952 46.7165 50.7032 46.7325 49.4454L46.9371 48.85C47.173 46.943 46.9746 46.3277 48.3317 46.6139L48.6617 46.642C49.6605 46.686 50.968 46.4861 51.7353 46.1403C53.3876 45.3968 54.3676 44.1552 52.7383 44.4814H52.7386Z" fill="#336791"/>
<path d="M36.5093 34.8818C36.1743 34.8366 35.871 34.8784 35.7175 34.9911C35.6312 35.0545 35.6045 35.128 35.5972 35.1785C35.578 35.3125 35.6747 35.4606 35.7342 35.537C35.9025 35.7532 36.1482 35.9018 36.3915 35.9345C36.4267 35.9394 36.4618 35.9416 36.4967 35.9416C36.9023 35.9416 37.2712 35.6353 37.3037 35.4092C37.3443 35.1261 36.9205 34.9373 36.5093 34.8819M47.6073 34.8908C47.5753 34.6688 47.1681 34.6056 46.7816 34.6577C46.3956 34.7098 46.0213 34.8788 46.0526 35.1012C46.0776 35.2742 46.3997 35.5694 46.781 35.5694C46.8132 35.5694 46.8457 35.5674 46.8785 35.5629C47.133 35.5287 47.3197 35.372 47.4085 35.2817C47.5435 35.144 47.6217 34.9905 47.6073 34.8908Z" fill="white"/>
<path d="M53.9752 44.3969C53.8335 43.9813 53.3772 43.8476 52.6192 43.9994C50.3686 44.4498 49.5626 44.1378 49.298 43.9488C51.0474 41.3646 52.4865 38.2407 53.2629 35.3261C53.6306 33.9455 53.8337 32.6634 53.8504 31.6183C53.8687 30.4712 53.6672 29.6283 53.2517 29.1134C51.5765 27.0377 49.1177 25.9242 46.1415 25.8937C44.0954 25.8714 42.3666 26.3791 42.0315 26.5219C41.3257 26.3517 40.5564 26.2472 39.7187 26.2339C38.1827 26.2098 36.855 26.5664 35.7557 27.2933C35.2782 27.1209 34.0442 26.7101 32.5351 26.4744C29.9261 26.0671 27.8529 26.3757 26.3734 27.3921C24.608 28.6049 23.793 30.7729 23.9509 33.8357C24.004 34.8661 24.6095 38.0361 25.565 41.0718C26.8227 45.0675 28.19 47.3294 29.6285 47.7948C29.7969 47.8492 29.991 47.8872 30.2051 47.8872C30.7299 47.8872 31.3732 47.6579 32.0426 46.8775C32.8591 45.9278 33.7036 45.0011 34.5752 44.0986C35.1407 44.3929 35.762 44.5573 36.3974 44.5738C36.3986 44.5899 36.4002 44.606 36.4017 44.622C36.2924 44.7485 36.1853 44.8768 36.0805 45.0069C35.6402 45.5488 35.5486 45.6617 34.1315 45.9446C33.7284 46.0253 32.6577 46.2392 32.642 46.967C32.625 47.7621 33.9076 48.0961 34.0537 48.1315C34.563 48.2551 35.0536 48.3161 35.5215 48.3161C36.6594 48.3161 37.6607 47.9534 38.461 47.2517C38.4364 50.0864 38.5582 52.8796 38.9092 53.7306C39.1967 54.4274 39.899 56.13 42.1172 56.1299C42.4427 56.1299 42.801 56.0932 43.1951 56.0112C45.5102 55.53 46.5156 54.5378 46.9045 52.3503C47.1126 51.1812 47.4697 48.3895 47.6377 46.8921C47.9922 46.9994 48.4486 47.0484 48.942 47.0483C49.971 47.0483 51.1584 46.8363 51.903 46.5012C52.7395 46.1244 54.249 45.2001 53.9752 44.3969ZM48.462 34.2781C48.4544 34.7202 48.3916 35.1215 48.3251 35.5404C48.2535 35.991 48.1795 36.4568 48.1609 37.0223C48.1425 37.5726 48.2134 38.1447 48.2819 38.698C48.4204 39.8156 48.5625 40.9661 48.0124 42.1014C47.921 41.9444 47.8396 41.7821 47.7686 41.6155C47.7002 41.4547 47.5517 41.1966 47.3461 40.8392C46.5462 39.4482 44.6731 36.1907 45.632 34.8615C45.9176 34.4659 46.6425 34.0591 48.462 34.2781ZM46.2565 26.7888C48.9232 26.8459 51.0327 27.8133 52.5262 29.664C53.6717 31.0835 52.4104 37.5425 48.7587 43.1147C48.722 43.0695 48.6851 43.0243 48.648 42.9794L48.6017 42.9234C49.5454 41.4122 49.3609 39.9171 49.1966 38.5915C49.1291 38.0475 49.0654 37.5337 49.0816 37.051C49.0984 36.5395 49.1681 36.1007 49.2356 35.6764C49.3185 35.1537 49.4029 34.6127 49.3796 33.975C49.397 33.9081 49.404 33.8291 49.3949 33.7352C49.3355 33.1237 48.6155 31.2935 47.148 29.6371C46.3452 28.731 45.1746 27.7171 43.5762 27.0332C44.2637 26.895 45.2039 26.7661 46.2565 26.7888ZM31.3342 46.3064C30.5967 47.1663 30.0875 47.0014 29.92 46.9474C28.8287 46.5944 27.5625 44.3578 26.4461 40.8111C25.4801 37.7423 24.9156 34.6563 24.8709 33.791C24.7299 31.0543 25.414 29.147 26.9044 28.122C29.3299 26.4541 33.3176 27.4524 34.92 27.9587C34.897 27.9808 34.873 28.0014 34.8502 28.0238C32.2207 30.5989 32.2831 34.9984 32.2896 35.2674C32.2894 35.3711 32.2984 35.518 32.3106 35.7201C32.3559 36.4601 32.4401 37.8373 32.2151 39.3969C32.0061 40.8463 32.4669 42.2648 33.479 43.2889C33.5829 43.3938 33.692 43.4937 33.8061 43.5881C33.3556 44.056 32.3765 45.0906 31.3342 46.3064ZM34.1441 42.6709C33.3284 41.8454 32.9579 40.6973 33.1275 39.5206C33.365 37.8731 33.2774 36.4381 33.2302 35.6672C33.2236 35.5594 33.2177 35.4648 33.2144 35.3903C33.5985 35.06 35.3786 34.1351 36.6481 34.4172C37.2274 34.5458 37.5804 34.9283 37.7271 35.5863C38.4866 38.9927 37.8276 40.4124 37.2981 41.5534C37.189 41.7884 37.0859 42.0106 36.9979 42.2404L36.9296 42.4181C36.7569 42.8674 36.5961 43.2851 36.4965 43.6817C35.6292 43.6792 34.7856 43.32 34.1441 42.6707V42.6709ZM34.2772 47.2648C34.024 47.2035 33.7962 47.0969 33.6626 47.0086C33.7742 46.9577 33.9729 46.8883 34.3174 46.8195C35.9845 46.4867 36.242 46.2518 36.8042 45.5596C36.9331 45.4008 37.0792 45.2209 37.2816 45.0018L37.2819 45.0015C37.5832 44.6743 37.7211 44.7298 37.9711 44.8304C38.1737 44.9116 38.3711 45.1579 38.4511 45.4289C38.489 45.5569 38.5315 45.7998 38.3924 45.9889C37.2179 47.5836 35.5064 47.5631 34.2772 47.2648ZM43.0021 55.1378C40.9626 55.5615 40.2405 54.5524 39.7646 53.3989C39.4575 52.6541 39.3065 49.2958 39.4136 45.5871C39.415 45.5378 39.4077 45.4901 39.3937 45.4453C39.3812 45.3567 39.3622 45.2692 39.3367 45.1832C39.1775 44.6436 38.7894 44.1922 38.3237 44.0051C38.1387 43.9307 37.7992 43.7944 37.3912 43.8956C37.4782 43.548 37.6291 43.1554 37.7927 42.7303L37.8614 42.5515C37.9386 42.3499 38.0356 42.1411 38.1381 41.92C38.6922 40.7263 39.4511 39.0912 38.6275 35.3975C38.319 34.014 37.2887 33.3384 35.727 33.4954C34.7907 33.5893 33.9341 33.9556 33.5069 34.1657C33.415 34.2107 33.331 34.2544 33.2525 34.2968C33.3717 32.9029 33.8222 30.2978 35.5075 28.6495C36.5686 27.612 37.9817 27.0995 39.7035 27.1271C43.096 27.1809 45.2715 28.8692 46.4992 30.2761C47.5572 31.4883 48.1301 32.7095 48.3587 33.3682C46.6394 33.1986 45.47 33.5277 44.8772 34.3495C43.5876 36.1372 45.5827 39.6067 46.5416 41.2743C46.7175 41.5798 46.8692 41.844 46.917 41.9562C47.2292 42.69 47.6335 43.18 47.9286 43.5375C48.0191 43.6471 48.1069 43.7534 48.1736 43.8463C47.6529 43.9918 46.7175 44.3282 46.8027 46.0095C46.734 46.8532 46.2451 50.803 45.9967 52.1985C45.6689 54.0421 44.9692 54.7288 43.0021 55.1379V55.1378ZM51.5151 45.691C50.9826 45.9306 50.0915 46.1104 49.245 46.1491C48.31 46.1915 47.834 46.0475 47.722 45.9589C47.6695 44.9111 48.0716 44.8017 48.4972 44.6858C48.5641 44.6676 48.6294 44.6498 48.6924 44.6284C48.7315 44.6594 48.7744 44.69 48.8214 44.7201C49.5729 45.2011 50.9132 45.2529 52.8056 44.8741L52.8264 44.8701C52.5711 45.1015 52.1344 45.4121 51.5151 45.691Z" fill="white"/>
</g>
<defs>
<clipPath id="clip0_270_10351">
<rect width="32" height="32" fill="white" transform="translate(23 25)"/>
</clipPath>
</defs>
</svg>
