<svg width="120" height="120" viewBox="0 0 120 120" fill="none" xmlns="http://www.w3.org/2000/svg">
<path d="M59.25 63.9961C61.8388 63.9961 63.9375 61.8974 63.9375 59.3086C63.9375 56.7198 61.8388 54.6211 59.25 54.6211C56.6612 54.6211 54.5625 56.7198 54.5625 59.3086C54.5625 61.8974 56.6612 63.9961 59.25 63.9961Z" fill="#00D8FF"/>
<path d="M59.25 70.0558C53.6159 70.1921 47.9959 69.4326 42.6 67.8058C40.1074 67.0157 37.7826 65.771 35.7431 64.1346C34.9649 63.5755 34.3168 62.8548 33.8433 62.0217C33.3698 61.1887 33.0821 60.263 33 59.3083C33 56.2089 36.405 53.1714 42.1087 51.1839C47.6489 49.4229 53.4374 48.5693 59.25 48.6564C64.9851 48.5763 70.696 49.4144 76.1662 51.1389C78.5668 51.9042 80.8127 53.0888 82.8 54.6377C83.565 55.1706 84.2033 55.8653 84.6699 56.6724C85.1365 57.4796 85.4199 58.3795 85.5 59.3083C85.5 62.5296 81.6938 65.7939 75.5625 67.8227C70.2711 69.3965 64.7697 70.1496 59.25 70.0558ZM59.25 50.8989C53.689 50.8246 48.1515 51.636 42.8456 53.3027C37.5956 55.1346 35.2425 57.6396 35.2425 59.3027C35.2425 61.0427 37.7719 63.7783 43.3256 65.6777C48.4876 67.2262 53.8624 67.947 59.25 67.8133C64.5308 67.9078 69.7949 67.1932 74.8594 65.6946C80.625 63.7839 83.25 61.0446 83.25 59.3083C83.1554 58.7125 82.9383 58.1428 82.6123 57.6351C82.2864 57.1275 81.8587 56.6929 81.3563 56.3589C79.5783 54.9848 77.5719 53.935 75.4294 53.2577C70.1963 51.6147 64.7343 50.8185 59.25 50.8989Z" fill="#00D8FF"/>
<path d="M48.5993 82.6903C47.7246 82.7103 46.8602 82.4981 46.0943 82.0753C43.4093 80.5265 42.4793 76.0603 43.6061 70.1259C44.8486 64.4467 47.0014 59.0058 49.9811 54.014C52.7763 49.0061 56.3546 44.4776 60.5805 40.6003C62.4427 38.9028 64.5909 37.5488 66.9255 36.6009C67.7699 36.2051 68.6911 36 69.6236 36C70.5562 36 71.4773 36.2051 72.3218 36.6009C75.1136 38.2096 76.038 43.1371 74.7349 49.4615C73.4541 54.8326 71.3572 59.9755 68.5174 64.7109C65.8206 69.6597 62.355 74.1487 58.2499 78.0103C56.3201 79.7742 54.0805 81.1658 51.6443 82.1146C50.6689 82.4766 49.6394 82.6712 48.5993 82.6903ZM51.9236 55.1278C49.0813 59.9077 47.018 65.1097 45.8111 70.5384C44.7743 76.004 45.7699 79.2909 47.2174 80.1271C48.7174 80.9953 52.3586 80.1721 56.7799 76.3096C60.6987 72.6102 64.0066 68.3131 66.5805 63.5784C69.301 59.0512 71.3124 54.1343 72.5449 48.9984C73.7711 43.0453 72.7118 39.4003 71.208 38.534C70.6444 38.3181 70.0421 38.2214 69.4393 38.2501C68.8364 38.2788 68.246 38.4323 67.7055 38.7009C65.6274 39.5584 63.7169 40.7758 62.0618 42.2971C58.0243 46.0111 54.6062 50.3464 51.9368 55.139L51.9236 55.1278Z" fill="#00D8FF"/>
<path d="M69.8946 82.7141C67.354 82.7141 64.1271 81.1766 60.7671 78.2872C56.4671 74.3746 52.8283 69.7923 49.9915 64.7178C47.0491 59.7948 44.9133 54.4326 43.6652 48.8347C43.1239 46.3719 43.0236 43.8326 43.369 41.3347C43.4488 40.4081 43.731 39.5103 44.1955 38.7046C44.6601 37.8989 45.2958 37.2049 46.0577 36.6716C48.8458 35.0572 53.5765 36.7166 58.4046 41.0028C62.4182 44.7944 65.8266 49.1792 68.5108 54.0041C71.4514 58.8122 73.6095 64.057 74.9046 69.5422C75.4692 72.0954 75.5563 74.7311 75.1615 77.316C75.0675 78.2692 74.7685 79.1909 74.285 80.0178C73.8015 80.8447 73.1449 81.5572 72.3602 82.1066C71.6068 82.5242 70.7558 82.7339 69.8946 82.7141ZM51.9321 63.5891C54.6535 68.4387 58.1295 72.8241 62.2296 76.581C66.4465 80.2091 69.7915 80.9891 71.2296 80.1435C72.7296 79.2716 73.8358 75.7128 72.6958 69.9547C71.4468 64.7177 69.3769 59.7114 66.5627 55.1216C64.0011 50.5037 60.7478 46.3051 56.9158 42.6716C52.3708 38.6366 48.6846 37.7347 47.1827 38.6047C46.7146 38.9851 46.3305 39.4584 46.0545 39.9948C45.7786 40.5312 45.6169 41.1189 45.5796 41.721C45.2815 43.9486 45.3786 46.2114 45.8665 48.4053C47.067 53.7587 49.1153 58.8859 51.934 63.5928L51.9321 63.5891Z" fill="#00D8FF"/>
</svg>
