<svg width="80" height="80" viewBox="0 0 80 80" fill="none" xmlns="http://www.w3.org/2000/svg">
<g clip-path="url(#clip0_245_36929)">
<path d="M34.671 30.4729C34.671 30.4729 33.4852 31.1576 33.4852 32.5248V39.3584C33.4852 39.3584 33.4852 40.7277 32.2993 40.0431C31.1135 39.3585 31.1135 37.9913 31.1135 37.9913V31.1577C31.1135 31.0724 31.1177 30.9892 31.1262 30.9081C31.2563 29.7053 32.2972 29.1038 32.2972 29.1038L29.9278 27.7364C29.9278 27.7364 29.9256 27.7364 29.9235 27.7386C29.8531 27.7791 28.7419 28.4638 28.7419 29.7883V36.6218C28.7419 36.6218 28.7419 37.9912 27.5559 37.3066C26.3701 36.622 26.3701 35.2548 26.3701 35.2548V28.4212C26.3701 27.054 27.5559 26.3693 27.5559 26.3693L25.1862 25C25.1862 25 24.0004 25.6846 24.0004 27.0518V33.8854C24.0004 33.8854 24.0004 37.9912 27.5558 40.043C28.6458 40.6722 29.4008 40.7212 29.9255 40.4888C30.4501 41.327 31.2052 42.1503 32.2951 42.7794C35.8505 44.8313 35.8505 40.7276 35.8505 40.7276V33.894C35.8505 32.5247 37.0365 31.8422 37.0365 31.8422C36.6718 31.3837 36.3477 31.0722 36.064 30.908C35.8221 30.768 35.3577 30.623 34.671 30.473V30.4729Z" fill="#808285"/>
<path d="M47.7049 42.101C47.7049 38.0486 51.2604 40.0492 51.2604 40.0492L55.9996 42.7856V45.5222L51.2604 42.7856C51.2604 42.7856 51.2454 42.777 51.219 42.7636L51.2034 42.756C50.9666 42.6403 50.0746 42.283 50.0746 43.4725C50.0746 44.8396 51.2604 45.5243 51.2604 45.5243L53.63 46.8914C53.63 46.8914 55.9996 48.2608 55.9996 52.3644C55.9996 56.4681 52.4442 54.4161 52.4442 54.4161L47.7049 51.6797V48.9432L52.4463 51.6797C52.4463 51.6797 53.6322 52.3644 53.6322 50.9951C53.6322 49.6278 52.4463 48.9432 52.4463 48.9432L51.2604 48.2586C51.1896 48.2163 47.7049 46.1129 47.7049 42.101ZM44.1495 35.9458C44.8581 36.0272 45.3385 36.1408 45.5907 36.2865C45.8651 36.445 46.1745 36.7879 46.5191 37.315C46.5191 37.315 45.3332 37.9998 45.3332 39.3668L45.3331 46.2113C45.33 46.4413 45.2265 50.2426 41.7777 48.2524C38.329 46.2621 38.2254 42.3393 38.2224 42.1057L38.2223 42.0948L40.5919 43.4641V43.4686C40.5931 43.5555 40.6319 44.8543 41.7777 45.5158C42.9273 46.1796 42.9626 44.9131 42.9636 44.835V37.9976C42.9636 36.6304 44.1495 35.9458 44.1495 35.9458ZM38.2265 36.6453L40.5961 38.0125V40.7489L38.2265 39.3818V36.6452V36.6453Z" fill="#BCBEC0"/>
<path d="M51.2603 30.4726C50.1684 29.8414 49.1894 29.5342 48.3554 29.4105C48.1379 28.9349 47.6047 28.3761 46.5212 27.7576C42.9657 25.7271 39.4124 27.7363 39.4124 27.7363L34.671 30.4725L37.0407 31.8397L41.7798 29.1033C41.7798 29.1033 42.9657 28.4186 44.1495 29.1033C45.3354 29.7879 44.1495 30.4725 44.1495 30.4725L39.4103 33.2089L41.7798 34.5762L46.5233 31.8375C46.5937 31.7971 47.7412 31.1764 48.8886 31.8397C50.0745 32.5243 48.8886 33.2068 48.8886 33.2068L44.1495 35.9434L46.5191 37.3126L52.4442 33.8914C52.4442 33.8914 54.8138 32.5243 51.2605 30.4725L51.2603 30.4726Z" fill="#F16822"/>
</g>
<defs>
<clipPath id="clip0_245_36929">
<rect width="32" height="29.9993" fill="white" transform="translate(24 25)"/>
</clipPath>
</defs>
</svg>
