<svg width="80" height="80" viewBox="0 0 80 80" fill="none" xmlns="http://www.w3.org/2000/svg">
<path d="M26.7377 35.7524L25.278 37.2277C23.6218 38.834 23.5675 41.497 25.1609 43.1709C25.1986 43.2132 25.2404 43.2512 25.278 43.2893L37.0388 55.2941C37.319 55.5815 37.641 55.8224 38.0007 56V41.4505L26.7377 35.7524Z" fill="#3D89F5"/>
<path d="M53.2618 35.7524L54.7215 37.2277C56.3777 38.834 56.432 41.497 54.8386 43.1709C54.8009 43.2132 54.7591 43.2512 54.7215 43.2893L42.9607 55.2941C42.6805 55.5815 42.3585 55.8224 41.9988 56V41.4505L53.2618 35.7524Z" fill="#1656B9"/>
<path d="M50.4355 32.7399L43.0746 25.2834C41.4685 23.6095 38.8211 23.5672 37.1649 25.1904C37.1356 25.22 37.1022 25.2496 37.0729 25.2834L29.6953 32.7399L40.034 37.9561L50.4355 32.7399Z" fill="#85B5F8"/>
</svg>
