<svg width="80" height="80" viewBox="0 0 80 80" fill="none" xmlns="http://www.w3.org/2000/svg">
<g clip-path="url(#clip0_245_36877)">
<path d="M55.5215 43.8692C53.3837 52.4452 44.6949 57.6585 36.1311 55.5206C27.5549 53.3829 22.3416 44.6944 24.4795 36.1307C26.6172 27.5547 35.2935 22.3415 43.8697 24.4794C52.4335 26.6046 57.6594 35.2931 55.5215 43.8692Z" fill="url(#paint0_linear_245_36877)"/>
<path d="M47.6181 38.0062C47.9306 35.8812 46.3181 34.7312 44.0931 33.9687L44.8181 31.0812L43.0681 30.6437L42.3681 33.4562C41.9056 33.3437 41.4306 33.2312 40.9556 33.1312L41.6556 30.3062L39.9056 29.8687L39.1931 32.7437C38.8056 32.6562 38.4306 32.5687 38.0681 32.4812V32.4687L35.6431 31.8687L35.1806 33.7437C35.1806 33.7437 36.4806 34.0437 36.4556 34.0562C37.1681 34.2312 37.2931 34.7062 37.2681 35.0812L36.4431 38.3687C36.4931 38.3812 36.5556 38.3937 36.6306 38.4312C36.5681 38.4187 36.5056 38.4062 36.4431 38.3812L35.2931 42.9812C35.2056 43.1937 34.9806 43.5187 34.4931 43.3937C34.5056 43.4187 33.2181 43.0812 33.2181 43.0812L32.3431 45.0937L34.6306 45.6687C35.0556 45.7812 35.4681 45.8812 35.8806 45.9937L35.1556 48.9062L36.9056 49.3437L37.6306 46.4562C38.1056 46.5812 38.5806 46.7062 39.0306 46.8187L38.3181 49.6937L40.0681 50.1312L40.7931 47.2187C43.7931 47.7812 46.0431 47.5562 46.9806 44.8437C47.7431 42.6687 46.9431 41.4062 45.3681 40.5812C46.5306 40.3187 47.3931 39.5562 47.6181 38.0062ZM43.6056 43.6312C43.0681 45.8062 39.3931 44.6312 38.2056 44.3312L39.1681 40.4687C40.3556 40.7687 44.1806 41.3562 43.6056 43.6312ZM44.1556 37.9687C43.6556 39.9562 40.6056 38.9437 39.6181 38.6937L40.4931 35.1937C41.4806 35.4437 44.6681 35.9062 44.1556 37.9687Z" fill="white"/>
</g>
<defs>
<linearGradient id="paint0_linear_245_36877" x1="39.9915" y1="23.9923" x2="39.9915" y2="55.9968" gradientUnits="userSpaceOnUse">
<stop stop-color="#F9AA4B"/>
<stop offset="1" stop-color="#F7931A"/>
</linearGradient>
<clipPath id="clip0_245_36877">
<rect width="32" height="32" fill="white" transform="translate(24 24)"/>
</clipPath>
</defs>
</svg>
