<svg width="80" height="80" viewBox="0 0 80 80" fill="none" xmlns="http://www.w3.org/2000/svg">
<g clip-path="url(#clip0_245_36870)">
<path d="M46.1653 42.5598L49.788 46.1812L39.984 55.9852L30.1813 46.1825L33.804 42.5598L39.9853 48.7732L46.1653 42.5598ZM52.348 36.3785L56 39.9998L52.38 43.6212L48.7573 39.9998L52.348 36.3785ZM39.9853 36.3785L43.6067 39.9678L39.984 43.5905L36.3627 39.9998L39.984 36.3798L39.9853 36.3785ZM27.6213 36.3785L31.2133 39.9998L27.624 43.5892L24 39.9998L27.6213 36.3785ZM39.9867 24.0132L49.7893 33.7865L46.1667 37.4065L39.9853 31.2252L33.8053 37.4385L30.1827 33.8172L39.9853 24.0145L39.9867 24.0132Z" fill="black"/>
</g>
<defs>
<clipPath id="clip0_245_36870">
<rect width="32" height="32" fill="white" transform="translate(24 24)"/>
</clipPath>
</defs>
</svg>
