<svg width="80" height="80" viewBox="0 0 80 80" fill="none" xmlns="http://www.w3.org/2000/svg">
<g clip-path="url(#clip0_245_36905)">
<path d="M58.1962 45.9541C56.541 47.5082 52.5958 47.1777 52.5958 44.1124C52.5958 40.8821 56.024 40.6327 58.1756 40.8289V40.8176C58.0965 39.1276 55.2504 39.5439 54.1141 40.4406C53.7587 39.9374 53.1558 39.0372 52.909 38.6308C54.2166 37.6339 57.4107 36.9068 59.0447 37.8243C59.6381 38.1565 60.1322 38.6411 60.476 39.2279C60.8199 39.8147 61.001 40.4826 61.0007 41.1627V46.6412H58.2721L58.1962 45.9541ZM47.461 45.8796C44.5579 48.1543 41.5808 45.9944 41.2098 43.0683C40.7478 39.4235 43.6725 36.529 47.4377 37.7905V34H50.3079V46.642H47.5458L47.461 45.8796ZM47.4375 42.8092V40.2778C46.1937 39.7187 44.2733 39.6971 44.0987 42.2387C43.9196 44.8418 47.2133 45.1064 47.4375 42.809M36.42 38.6145C37.2604 37.6004 38.4553 37.3082 40.0049 37.7378C39.7715 39.0057 39.6112 39.8623 39.5239 40.3074C37.2906 39.923 36.4682 40.5872 36.4585 42.5134V46.6547H33.5894V37.7004H36.3521L36.42 38.6145ZM26.395 38.4014C25.6029 38.977 25.0121 39.7875 24.7067 40.7178C24.3225 40.4389 23.8434 40.324 23.3745 40.3983C22.9057 40.4727 22.4856 40.7302 22.2067 41.1143C22.0686 41.3045 21.9693 41.52 21.9145 41.7486C21.8597 41.9771 21.8505 42.2143 21.8874 42.4464C21.9243 42.6785 22.0065 42.9011 22.1295 43.1014C22.2524 43.3017 22.4136 43.4759 22.6038 43.6139C22.9094 43.8359 23.2775 43.9555 23.6552 43.9555C24.033 43.9555 24.401 43.8359 24.7067 43.6139C25.0121 44.5442 25.6029 45.3546 26.395 45.9302C25.9007 46.29 25.3403 46.549 24.7459 46.6922C24.1515 46.8354 23.5346 46.8601 22.9307 46.765C22.3267 46.6698 21.7474 46.4566 21.2258 46.1375C20.7043 45.8184 20.2507 45.3997 19.891 44.9053C19.5311 44.4109 19.2722 43.8505 19.129 43.2561C18.9858 42.6617 18.961 42.0449 19.0562 41.4409C19.1514 40.837 19.3646 40.2577 19.6837 39.7361C20.0028 39.2145 20.4215 38.7609 20.9159 38.4012C21.7119 37.822 22.671 37.5099 23.6555 37.5099C24.6399 37.5099 25.599 37.822 26.395 38.4012M58.1647 42.7386C57.3081 42.7489 55.376 42.4421 55.4203 43.8504C55.4646 45.2588 58.1647 45.0123 58.1647 43.3841V42.7396M29.1392 43.9575C28.6645 43.9563 28.2098 43.7666 27.875 43.4301C27.5401 43.0937 27.3527 42.638 27.3538 42.1633C27.355 41.6888 27.5446 41.2341 27.8809 40.8993C28.2173 40.5645 28.6728 40.377 29.1474 40.378C29.6214 40.3791 30.0755 40.5681 30.4103 40.9036C30.7451 41.2391 30.9331 41.6937 30.9331 42.1677C30.9323 42.6428 30.7428 43.0982 30.4064 43.4338C30.07 43.7693 29.6141 43.9576 29.139 43.9573" fill="#E0081C"/>
</g>
<defs>
<clipPath id="clip0_245_36905">
<rect width="42" height="12.8627" fill="white" transform="translate(19 34)"/>
</clipPath>
</defs>
</svg>
