<svg width="80" height="80" viewBox="0 0 80 80" fill="none" xmlns="http://www.w3.org/2000/svg">
<path d="M40.3773 26.0053C38.5682 25.9548 36.7674 26.2676 35.0813 26.9251C33.3952 27.5826 31.858 28.5715 30.5606 29.8333C29.2633 31.0951 28.232 32.6043 27.5279 34.2715C26.8238 35.9387 26.4612 37.7301 26.4613 39.5399C26.4613 39.8853 26.4747 40.2279 26.5013 40.5706C26.5379 41.0551 26.4303 41.5396 26.1921 41.9631C25.9539 42.3866 25.5957 42.7302 25.1627 42.9506L24 43.5439V46.3093L27.424 44.5639L28.5333 43.9986L29.6267 43.4426L49.24 33.4479L51.444 32.3253L56 30.0039V27.2386L51.484 29.5426L47.6307 31.5066L29.024 40.9839C28.9615 40.5038 28.9304 40.0201 28.9307 39.5359C28.9332 37.605 29.4402 35.7082 30.4013 34.0335C31.3625 32.3587 32.7445 30.9641 34.4104 29.9878C36.0764 29.0115 37.9685 28.4873 39.8993 28.4672C41.8302 28.4471 43.7328 28.9318 45.4187 29.8733L47.624 28.7493L47.9533 28.5813C45.7452 26.9789 43.1045 26.081 40.3773 26.0053ZM56 32.7706L30.74 45.6319L28.536 46.7573L24 49.0706V51.8333L28.504 49.5373L32.3573 47.5733L50.984 38.0839C51.0464 38.5667 51.0776 39.0531 51.0773 39.5399C51.0761 41.4731 50.5693 43.3723 49.6072 45.049C48.6451 46.7258 47.2613 48.1217 45.5929 49.0984C43.9246 50.075 42.0299 50.5983 40.0968 50.6163C38.1638 50.6344 36.2596 50.1466 34.5733 49.2013L34.4387 49.2733L32.048 50.4919C34.0679 51.9582 36.4538 52.8376 38.9422 53.0328C41.4305 53.2281 43.9244 52.7317 46.1483 51.5984C48.3722 50.4651 50.2396 48.7391 51.544 46.6111C52.8484 44.4831 53.5392 42.0359 53.54 39.5399C53.54 39.1933 53.5267 38.8439 53.5 38.4999C53.4635 38.0156 53.571 37.5312 53.8089 37.1078C54.0469 36.6843 54.4047 36.3407 54.8373 36.1199L56 35.5266V32.7706Z" fill="#222222"/>
</svg>
