<svg width="80" height="80" viewBox="0 0 80 80" fill="none" xmlns="http://www.w3.org/2000/svg">
<g clip-path="url(#clip0_245_36920)">
<path d="M39.8464 24.1255C31.7424 24.1255 32.2484 27.6536 32.2484 27.6536L32.2574 31.3089H39.9909V32.4063H29.1858C29.1858 32.4063 24 31.8159 24 40.0248C24 48.234 28.5263 47.9429 28.5263 47.9429H31.2275V44.1335C31.2275 44.1335 31.0819 39.5895 35.6815 39.5895H43.3518C43.3518 39.5895 47.6611 39.6594 47.6611 35.4083V28.3794C47.6611 28.3794 48.3156 24.1255 39.8464 24.1255ZM35.5821 26.5836C35.7649 26.5834 35.9459 26.6194 36.1147 26.6896C36.2836 26.7597 36.437 26.8626 36.5663 26.9923C36.6955 27.122 36.798 27.2761 36.8678 27.4456C36.9377 27.6151 36.9735 27.7968 36.9734 27.9803C36.9735 28.1638 36.9377 28.3455 36.8678 28.515C36.798 28.6845 36.6955 28.8386 36.5663 28.9683C36.437 29.098 36.2836 29.2009 36.1147 29.271C35.9459 29.3412 35.7649 29.3772 35.5821 29.377C35.3994 29.3772 35.2184 29.3412 35.0495 29.271C34.8807 29.2009 34.7272 29.098 34.598 28.9683C34.4688 28.8386 34.3663 28.6845 34.2964 28.515C34.2266 28.3455 34.1907 28.1638 34.1909 27.9803C34.1907 27.7968 34.2266 27.6151 34.2964 27.4456C34.3663 27.2761 34.4688 27.122 34.598 26.9923C34.7272 26.8626 34.8807 26.7597 35.0495 26.6896C35.2184 26.6194 35.3994 26.5834 35.5821 26.5836Z" fill="url(#paint0_linear_245_36920)"/>
<path d="M40.0766 56.0067C48.1806 56.0067 47.6746 52.4785 47.6746 52.4785L47.6656 48.8234H39.932V47.726H50.7371C50.7371 47.726 55.9228 48.3164 55.9228 40.1072C55.9228 31.8981 51.3966 32.1893 51.3966 32.1893H48.6953V35.9985C48.6953 35.9985 48.841 40.5425 44.2413 40.5425H36.5711C36.5711 40.5425 32.2617 40.4726 32.2617 44.7239V51.7529C32.2617 51.7529 31.6073 56.0067 40.0765 56.0067H40.0766ZM44.3408 53.5488C44.1581 53.549 43.9771 53.513 43.8082 53.4429C43.6394 53.3727 43.4859 53.2698 43.3567 53.1401C43.2275 53.0104 43.125 52.8563 43.0552 52.6868C42.9853 52.5173 42.9494 52.3356 42.9496 52.1521C42.9494 51.9687 42.9853 51.7869 43.0551 51.6174C43.125 51.4478 43.2275 51.2938 43.3567 51.1641C43.4859 51.0343 43.6393 50.9314 43.8082 50.8613C43.9771 50.7911 44.1581 50.7551 44.3408 50.7553C44.5236 50.7551 44.7046 50.7911 44.8735 50.8613C45.0423 50.9314 45.1958 51.0343 45.325 51.164C45.4542 51.2937 45.5567 51.4478 45.6265 51.6173C45.6964 51.7868 45.7323 51.9685 45.7321 52.152C45.7323 52.3355 45.6964 52.5172 45.6265 52.6867C45.5567 52.8562 45.4542 53.0103 45.325 53.14C45.1958 53.2697 45.0423 53.3726 44.8735 53.4427C44.7046 53.5129 44.5236 53.5489 44.3408 53.5487V53.5488Z" fill="url(#paint1_linear_245_36920)"/>
</g>
<defs>
<linearGradient id="paint0_linear_245_36920" x1="27.0678" y1="26.993" x2="42.949" y2="42.6544" gradientUnits="userSpaceOnUse">
<stop stop-color="#387EB8"/>
<stop offset="1" stop-color="#366994"/>
</linearGradient>
<linearGradient id="paint1_linear_245_36920" x1="36.7781" y1="37.0896" x2="53.8297" y2="53.146" gradientUnits="userSpaceOnUse">
<stop stop-color="#FFE052"/>
<stop offset="1" stop-color="#FFC331"/>
</linearGradient>
<clipPath id="clip0_245_36920">
<rect width="32" height="32" fill="white" transform="translate(24 24)"/>
</clipPath>
</defs>
</svg>
