<svg width="80" height="80" viewBox="0 0 80 80" fill="none" xmlns="http://www.w3.org/2000/svg">
<g clip-path="url(#clip0_245_36938)">
<path d="M35.7394 48.7375C35.7394 48.7375 34.5021 49.4473 36.62 49.6875C39.1859 49.9762 40.4971 49.9349 43.3247 49.4069C43.3247 49.4069 44.0682 49.8667 45.1063 50.2651C38.7677 52.945 30.7607 50.1098 35.7394 48.7375ZM34.9649 45.2402C34.9649 45.2402 33.5771 46.2537 35.6966 46.4699C38.4375 46.7489 40.602 46.7717 44.3475 46.0602C44.3475 46.0602 44.8655 46.5783 45.6801 46.8617C38.0163 49.0725 29.4803 47.036 34.9649 45.2402Z" fill="#5382A1"/>
<path d="M41.4946 39.3078C43.0564 41.0817 41.0842 42.678 41.0842 42.678C41.0842 42.678 45.0499 40.6584 43.2286 38.1293C41.5277 35.7709 40.2231 34.5989 47.285 30.5586C47.285 30.5586 36.2002 33.2897 41.4946 39.3077" fill="#E76F00"/>
<path d="M49.8779 51.3242C49.8779 51.3242 50.7935 52.0684 48.8694 52.6442C45.2107 53.7377 33.6414 54.0678 30.4275 52.6878C29.2722 52.1921 31.4388 51.504 32.1202 51.3595C32.831 51.2075 33.2372 51.2358 33.2372 51.2358C31.9523 50.3429 24.9325 52.9891 29.6715 53.7468C42.5952 55.8144 53.2301 52.8159 49.8779 51.3242ZM36.3344 41.6167C36.3344 41.6167 30.4496 42.9957 34.2505 43.4963C35.8553 43.7083 39.0545 43.6604 42.0346 43.414C44.47 43.2114 46.9155 42.7804 46.9155 42.7804C46.9155 42.7804 46.0567 43.1433 45.4355 43.5618C39.4595 45.1123 27.9149 44.391 31.2384 42.805C34.0491 41.4647 36.3345 41.6167 36.3345 41.6167M46.8912 47.4379C52.9662 44.3238 50.1574 41.3311 48.1969 41.7343C47.7163 41.8329 47.5021 41.9184 47.5021 41.9184C47.5021 41.9184 47.6805 41.6428 48.0212 41.5235C51.8996 40.1783 54.8825 45.4908 46.7691 47.5949C46.7691 47.595 46.8632 47.5121 46.8912 47.4379Z" fill="#5382A1"/>
<path d="M43.2286 24.0343C43.2286 24.0343 46.593 27.3545 40.0377 32.4598C34.781 36.5552 38.839 38.8903 40.0355 41.5582C36.9671 38.8272 34.7152 36.4229 36.226 34.1853C38.4433 30.9005 44.586 29.308 43.2286 24.0342" fill="#E76F00"/>
<path d="M36.9314 55.8764C42.7625 56.2447 51.7169 55.6721 51.9289 52.9502C51.9289 52.9502 51.5213 53.9821 47.1098 54.8016C42.1328 55.7255 35.9944 55.6177 32.3537 55.0255C32.3538 55.0255 33.099 55.634 36.9315 55.8764" fill="#5382A1"/>
</g>
<defs>
<clipPath id="clip0_245_36938">
<rect width="24" height="32" fill="white" transform="translate(28 24)"/>
</clipPath>
</defs>
</svg>
