<svg width="80" height="80" viewBox="0 0 80 80" fill="none" xmlns="http://www.w3.org/2000/svg">
<g clip-path="url(#clip0_245_36293)">
<path d="M35.3482 32.9324L32.9637 33.3197L30.7883 34.2735L28.9407 35.4357L27.1824 37.5813L26.1892 38.6334L25.2285 38.9875L24.9746 38.3665L25.4188 37.7254L25.5186 36.8212L25.816 36.8333L26.1411 37.1299L26.0534 36.2088L25.693 35.967L25.7042 35.616L24.8505 36.0989L24.0776 37.0109L23.9163 37.826L24.247 38.4787L24.5552 39.5875L25.1823 39.8844L25.8418 39.852L26.4672 39.4887L26.05 41.6046L26.4672 43.9588L26.008 45.0458L24.5036 46.6667L24.7711 47.635L25.4837 48.757L26.8274 49.7024L27.54 49.8002L28.3324 49.8269L27.838 51.8564L29.6559 52.6013L31.9207 52.8994L32.6956 52.3929L32.7552 51.0219L33.6196 49.5913L33.6792 48.4589L35.7653 48.608L37.7023 48.4292L35.7653 49.5913L36.0932 50.9922L37.3149 52.8994L38.5069 53.4059L39.4606 53.0185L39.8479 52.2437L41.8447 50.7239L42.2321 51.0515L45.3613 51.1709L45.9871 50.6644L46.0465 49.7701L45.8382 49.3829L45.689 46.9689L44.646 44.8828L44.8248 43.959L45.4506 44.2869L47.2089 45.9258L48.0732 45.9856L49.0267 45.598L49.9805 44.8828L50.4572 43.3332L53.2586 43.5119L54.9573 42.8565L56.3281 41.5749L57.3116 39.7271L57.5498 37.5518L57.3413 35.0185L56.8049 32.7538L56.2685 32.0386L55.5236 31.8001L54.2122 33.2305L53.0202 33.6477L51.977 31.9192L50.9341 30.9657L50.3678 30.6081L48.1028 28.7306L46.285 27.7471L44.4671 27.5981L42.3513 27.9557L40.5036 28.641L39.2221 29.6841L38.209 30.9061L37.166 31.2042L35.3479 32.9325" fill="#FFFF00"/>
<path d="M28.4337 38.3109C26.3916 40.6929 26.8453 43.5815 27.4113 46.412C27.1093 45.6489 26.8072 44.8858 26.5051 44.1227L26.1711 42.0237C26.2029 41.3082 26.2346 40.5927 26.2666 39.8774L27.125 37.8265L28.4128 35.9186L30.416 34.2494L32.61 33.3431L35.1857 33.0093L32.8008 35.7279C30.8858 36.3489 29.7568 36.7673 28.4336 38.3109" fill="#FFFFCC"/>
<path d="M38.0473 31.0536C36.6277 32.4387 35.8522 33.4835 34.9486 35.1052C34.3024 36.2653 33.5775 37.3828 32.8979 38.5268C32.5544 39.1059 32.5219 39.5913 32.4191 40.2591L31.4175 39.0666C31.5767 38.5896 31.7356 38.1127 31.8945 37.6358L33.5162 34.7264L36.9504 31.3399C37.3161 31.2444 37.6817 31.1492 38.0473 31.0536ZM45.0587 27.6196C43.9215 28.0458 42.0333 28.1863 41.9022 29.4913C41.809 30.4182 41.9721 30.884 42.5308 31.8647C41.1509 30.4367 40.8096 30.6576 38.1428 31.1014L39.2874 29.4797L41.2907 28.2395L43.8664 27.6672L45.0588 27.6196" fill="#FFFFCC"/>
<path d="M48.1964 45.2729C48.575 45.5066 48.5668 45.6759 48.5035 45.8361C48.8021 45.7166 49.1007 45.597 49.3993 45.4779L49.9797 44.6985L50.4105 43.5881L49.8599 43.1743L47.4539 43.4814C47.3946 43.6434 47.3347 43.8055 47.2749 43.9678C47.2919 44.198 47.3092 44.4285 47.3261 44.6587C47.4029 44.7954 47.4798 44.9318 47.5567 45.0683C47.6761 45.1279 47.7954 45.1878 47.9149 45.2475C48.009 45.2559 48.1026 45.2646 48.1964 45.2729ZM47.9725 41.1585C46.7664 41.5066 46.7759 41.6025 46.4198 42.799C46.8899 42.0447 47.2379 41.664 47.9725 41.1585ZM55.9912 32.2051C55.7769 32.3043 55.568 32.3518 55.4341 32.548C55.1455 32.9701 54.8983 33.3252 54.4212 33.6215C54.1809 33.7708 53.9324 33.8675 53.6776 33.947C53.4663 34.0127 53.3391 33.9539 53.1593 34.0834C53.2662 34.1017 53.3729 34.1205 53.4796 34.1392H54.1855L55.0558 33.6019L55.5677 33.0643L55.9912 32.2051ZM36.7809 34.8814C36.3066 36.1797 35.8919 37.2926 35.1733 38.4679C36.0941 37.4757 36.6525 36.6323 37.18 35.5105C37.385 35.0746 37.4237 34.5633 37.9945 34.7534C38.0201 35.1888 38.112 35.6236 38.1376 36.0587C38.446 33.8484 39.3156 32.9238 41.337 32.0659L39.6221 32.2708L38.0095 32.6291L37.2161 33.7808L36.7809 34.8814ZM40.697 34.8302C41.1329 36.8819 41.7607 38.8511 42.0333 40.9354C42.2104 42.2897 42.2296 42.9403 41.5483 44.1089C40.8036 44.0606 40.3413 44.1446 39.6209 44.3807C36.7532 45.3207 35.1084 46.703 33.1763 43.9179L35.0268 44.79C35.4665 44.7035 35.9063 44.6173 36.3458 44.5306C37.1223 44.0786 37.8987 43.6264 38.6752 43.1743L40.4923 42.8157L41.0811 40.359L40.6458 37.1083C40.629 36.5964 40.6118 36.0845 40.5947 35.5727C40.629 35.3252 40.6631 35.0777 40.697 34.8304M45.6369 47.5254C45.396 49.1923 46.1916 50.0883 45.8621 50.5487C45.7689 50.6789 45.6425 50.9064 45.5014 50.9688C44.9973 51.1915 44.3042 50.9271 44.2548 51.0574H42.5912L41.9258 50.7759L42.9495 49.5729C43.2822 48.8479 43.615 48.1226 43.9476 47.3973L44.5874 45.1963H44.9203L45.6369 47.5254Z" fill="#CCCC00"/>
<path d="M42.8408 42.6792C42.9759 43.436 43.2106 43.6158 43.5666 44.3485C43.3297 45.5437 42.949 46.965 42.4909 48.0196C42.2977 48.4644 42.1419 48.7096 41.801 49.0533C41.2259 49.6341 40.6447 50.1397 39.9927 50.6432C39.523 51.005 39.1953 50.8236 38.6161 50.7416C38.3698 51.1881 38.3018 51.4363 37.8483 51.6629C37.1512 52.0114 36.5272 51.2603 35.9799 50.8182C36.3751 51.4356 36.7702 52.0525 37.1651 52.6696C37.4382 52.9256 37.7112 53.1813 37.9842 53.4374L38.6753 53.5399L39.5965 52.9766C39.7588 52.6696 39.9208 52.3624 40.0829 52.0554C40.4242 51.7995 40.7656 51.5436 41.1066 51.2873C41.5248 50.9292 41.9429 50.5707 42.361 50.2124L43.1543 49.0862L43.8708 47.7554C44.1782 46.8341 44.4853 45.9126 44.7926 44.9912C44.818 44.6414 44.8435 44.2917 44.8692 43.9417C44.4853 43.7712 44.1014 43.6004 43.7174 43.4298C43.4359 43.1654 43.1223 42.9437 42.8408 42.6792ZM33.6586 48.0113C34.9503 48.0113 36.3146 47.9396 37.4979 47.397C37.8326 46.895 38.1632 46.4846 38.5728 46.0407C38.2 46.7449 38.083 47.1429 37.9842 47.9346L37.6003 48.4977C36.6276 48.5232 35.6551 48.5488 34.6824 48.5745C34.3666 48.5402 34.0511 48.5062 33.7354 48.4721C33.7012 48.4377 33.6672 48.4037 33.633 48.3696C33.6417 48.2501 33.6501 48.1307 33.6586 48.0113ZM33.4796 47.1156L33.3792 46.2066C33.1585 47.5352 33.2116 48.4256 32.6001 49.6157C32.1434 50.1447 31.5811 50.6262 30.937 50.8839C30.9915 51.2101 31.0078 51.414 30.9761 51.6532C30.8626 52.5138 29.1415 52.1336 28.4333 52.0993L31.8414 52.9767L32.6091 52.6696C32.6946 52.1749 32.78 51.6798 32.8652 51.1851L33.5818 49.8543L33.7098 49.0352L33.4794 47.1157M31.5597 39.6162C31.5241 40.2623 31.4824 40.5316 31.7673 41.102C32.1293 41.827 32.574 42.5085 32.9674 43.2251L33.0954 41.7917C32.5837 41.0664 32.0717 40.3414 31.5598 39.6163M26.3057 44.4958C26.1948 44.7315 26.0843 44.9675 25.9733 45.2033C26.2782 46.2305 26.5494 46.8812 27.13 47.7785C27.0288 48.142 26.9531 48.301 26.7206 48.5973C26.2095 48.5188 25.7558 48.496 25.2379 48.4977C25.8095 48.9411 26.3811 49.385 26.9527 49.8287C27.2342 49.7772 27.5159 49.726 27.7974 49.675L28.6421 48.8304L27.4391 46.9619C27.0611 46.14 26.6834 45.3178 26.3057 44.4958ZM55.995 31.8651C56.3432 33.4312 56.7923 34.8766 56.7506 36.4808C56.6994 38.4488 56.3159 40.9348 54.4924 42.1215C52.4503 43.4506 50.053 42.8219 47.8125 42.2524L50.5512 43.3786C51.4044 43.4214 52.2576 43.4641 53.1108 43.5066C53.691 43.336 54.2712 43.1654 54.8511 42.9947C55.3033 42.6193 55.7555 42.2441 56.2078 41.8685L57.2315 39.7187L57.6154 37.2359C57.5131 36.4253 57.4105 35.6149 57.3083 34.8043L56.7452 32.3985C56.4952 32.2206 56.2452 32.0427 55.995 31.8651ZM25.5202 36.5331C24.5933 37.1365 24.2291 37.4014 24.3307 38.5198L24.6077 39.5245L25.0005 39.7903L25.4856 39.952L26.3634 39.744C26.5137 39.2782 26.6637 38.8124 26.8138 38.3465L25.5665 38.9588H25.2778C25.17 38.7932 25.0622 38.6277 24.9544 38.4621L25.3471 37.8846L25.555 36.7874C25.6435 36.8142 25.7321 36.8414 25.8206 36.8681C25.9284 36.953 26.0362 37.0377 26.144 37.1222L26.0978 36.5448L25.8784 36.1752C25.8053 36.1134 25.7321 36.0521 25.659 35.9903L25.5202 36.5331ZM46.3193 27.7212C47.1422 28.4853 48.152 29.1493 48.8101 30.083C49.0647 30.4444 49.3477 30.6293 48.8058 31.1399C49.3783 30.9764 49.5912 30.9941 50.0496 31.0497C50.8835 31.1506 51.6651 32.336 51.7148 33.1854C51.705 33.2648 51.4832 33.4453 50.8385 33.6233C50.8258 33.648 50.4746 33.5752 50.4833 33.5991C50.5504 33.7823 50.6398 33.8104 50.7766 33.8961C50.8062 34.1 50.8253 34.4145 50.9642 34.6376C51.3699 34.6303 51.7664 34.6745 52.1637 34.7532C52.2973 34.9749 52.2773 35.1967 52.2661 35.4186L52.7267 35.3419C52.6843 34.9921 52.6415 34.6423 52.5989 34.2925C52.7353 34.0622 52.8717 33.8317 53.0084 33.6016L52.4196 32.2705C52.0443 31.9122 51.669 31.5538 51.2934 31.1955L51.1851 31.1901C50.7629 30.9311 50.3407 30.6719 49.9186 30.4128L47.8529 28.7228L46.3193 27.7212ZM47.7054 34.0276C47.6619 34.1035 47.5964 34.2247 47.5124 34.3088C47.8551 34.6329 48.0243 34.85 48.1465 35.3086C47.7589 35.5008 47.3717 35.6933 46.9843 35.8854L46.0008 36.8283C45.5692 36.596 45.4618 36.4177 45.253 35.9747C45.0097 36.0393 44.7795 36.1013 44.5787 36.0274C44.7061 36.0284 44.7843 35.9967 44.9117 35.9179L45.5374 35.2678C45.9058 34.9888 46.2743 34.7096 46.6427 34.4307L47.3662 34.1949C47.4583 34.1571 47.6133 34.0655 47.7054 34.0276Z" fill="#CCCC00"/>
<path d="M48.7747 35.1838C47.542 35.8476 46.3616 36.5149 45.7314 37.7753C45.7314 36.1755 47.3377 35.4713 48.7745 35.1837M45.4867 32.0366C44.5714 32.6607 43.9243 33.9201 44.0056 35.1474C43.7074 34.0846 43.813 33.0804 44.7283 32.3464C44.883 32.2715 45.0373 32.1962 45.1918 32.1213C45.2901 32.0931 45.3883 32.065 45.4867 32.0366Z" fill="#CCCC00"/>
<path d="M57.8032 34.9344C57.6372 33.8878 57.3621 32.8718 56.9801 32.1413C56.9337 32.052 56.8631 31.9614 56.7757 31.8751C56.586 31.6881 56.3052 31.5109 56.0151 31.4112C55.7077 31.3055 55.3835 31.2839 55.1262 31.4184C55.0594 31.4535 54.9973 31.4985 54.942 31.5548C54.7754 31.7235 54.6347 31.9288 54.494 32.1343C54.3375 32.3632 54.18 32.5932 53.9915 32.754C53.7732 32.9407 53.4999 33.0541 53.2422 33.1576C53.1337 32.8944 53.0032 32.6408 52.8522 32.3995C52.676 32.1185 52.4754 31.8554 52.2546 31.5923C52.0931 31.3985 51.91 31.2238 51.7089 31.0716C51.5185 30.9263 51.3236 30.804 51.0966 30.662C50.4881 30.2809 49.97 29.8264 49.4415 29.3627C49.2013 29.152 48.9588 28.9394 48.7215 28.7438C47.463 27.706 46.2891 27.2027 45.0337 27.1239C43.7868 27.0454 42.4702 27.3879 40.9156 28.0424C40.1653 28.3581 39.6081 28.7313 39.1227 29.18C38.6591 29.6089 38.2655 30.1027 37.8328 30.6794C37.5811 30.6973 37.3581 30.7345 37.1304 30.8257C36.8795 30.9261 36.627 31.0886 36.3244 31.3557C36.1138 31.5415 35.9075 31.7322 35.7057 31.9276C35.5208 32.1069 35.3392 32.2896 35.1609 32.4756C33.7457 32.7029 32.5926 32.9539 31.5599 33.3539C30.5039 33.7631 29.573 34.3258 28.6169 35.1735C28.2404 35.506 27.8972 35.8745 27.5922 36.2735C27.3014 36.6545 27.0525 37.055 26.8341 37.4772C26.6429 37.6889 26.4512 37.9025 26.2438 38.0894C26.0416 38.2715 25.826 38.4249 25.5844 38.5178L25.5846 38.518C25.4441 38.5721 25.386 38.6038 25.3797 38.6016C25.3726 38.5977 25.3687 38.5766 25.3589 38.5378C25.7058 38.2068 25.7603 37.7204 25.7924 37.2375C25.834 37.2873 25.874 37.3486 25.9154 37.4127C25.9613 37.4834 26.0082 37.5564 26.0645 37.6274L26.3 37.9246L26.3827 37.5539C26.4522 37.2433 26.5042 36.8297 26.4232 36.4711C26.3709 36.2384 26.2629 36.031 26.0748 35.884C26.0928 35.8371 26.1098 35.7938 26.1265 35.751C26.1856 35.5998 26.2465 35.4447 26.2981 35.2982L26.4002 35.0078L26.0964 35.0604C25.6923 35.1307 24.8238 35.608 24.2121 36.2426C23.985 36.4784 23.7897 36.739 23.6616 37.0124C23.5283 37.2968 23.4685 37.5945 23.5203 37.8924C23.5653 38.1528 23.6956 38.4084 23.9323 38.6495C23.9755 38.8234 24.0152 38.9743 24.0579 39.1104C24.1066 39.2652 24.1591 39.4037 24.2248 39.5401C24.4028 39.9102 24.6866 40.1364 25.0151 40.2418C25.279 40.3266 25.5709 40.3308 25.8572 40.2681C25.7991 40.6092 25.764 40.9538 25.7523 41.2996C25.7342 41.7826 25.7519 42.3162 25.8051 42.9355C25.8307 43.2233 25.8708 43.5097 25.9251 43.7935C25.8717 43.9394 25.8178 44.0857 25.7641 44.2316L25.5143 44.9118L24.9644 45.4567C24.7933 45.6259 24.6222 45.7955 24.4512 45.9649C24.4371 45.979 24.3793 46.0344 24.327 46.0849C23.9804 46.4184 23.9117 46.4846 24.0102 47.0716C24.0732 47.4472 24.1959 47.8104 24.3734 48.1473C24.5436 48.4714 24.7719 48.787 25.065 49.0809C25.4306 49.4473 26.0299 49.9027 26.6573 50.1412C27.0159 50.2773 27.3855 50.3439 27.7324 50.2883C27.7147 50.3417 27.6975 50.3948 27.678 50.4486C27.6231 50.6008 27.5621 50.7509 27.4952 50.8983C27.0695 51.8313 27.5064 52.3185 28.1864 52.6286C28.526 52.7833 28.9298 52.8885 29.3048 52.9863C29.3816 53.006 29.4583 53.0263 29.5551 53.0524C29.9995 53.1725 30.7674 53.3931 31.4688 53.4374C32.2343 53.4858 32.9248 53.3277 33.1098 52.6407C33.1829 52.3683 33.2255 52.1598 33.2428 51.9554C33.2587 51.7659 33.2527 51.5744 33.2305 51.3373C33.4487 50.8535 33.5412 50.7176 33.7008 50.4843C33.7321 50.4382 33.7699 50.383 33.7813 50.3656C33.9524 50.1121 34.0326 49.9321 34.0617 49.7294C34.0898 49.5338 34.0659 49.3389 34.0306 49.0411C34.0272 49.0128 34.0222 48.9715 34.0147 48.9168C34.4555 48.974 34.8994 49.0045 35.3438 49.0079C35.5669 49.0093 35.7897 49.0027 36.0126 48.991C35.9557 49.0201 35.8998 49.0491 35.8388 49.0805L35.7559 49.1231C35.1647 49.4271 35.1401 50.0029 35.3251 50.5954C35.4919 51.1296 35.8353 51.675 36.0507 52.0068C36.5035 52.7047 36.9357 53.2954 37.4596 53.6164C38.0087 53.9529 38.6362 53.9926 39.446 53.5543C39.858 53.3313 39.9879 53.1039 40.1629 52.7973C40.2164 52.7038 40.2755 52.6019 40.3413 52.5013C40.5115 52.3885 40.9352 52.0391 41.351 51.6953C41.4926 51.5783 41.634 51.4619 41.7936 51.3318C41.9036 51.4126 42.0363 51.4688 42.1968 51.507C42.4052 51.5569 42.6534 51.5794 42.9508 51.6008C43.1734 51.6171 43.8993 51.6165 44.3682 51.6164C44.5131 51.6164 44.6333 51.6164 44.7054 51.6168C45.1896 51.6198 45.5804 51.5943 45.8757 51.427C46.1904 51.2485 46.377 50.9326 46.4178 50.3659C46.4355 50.1142 46.4389 49.9589 46.4038 49.8004C46.3712 49.652 46.3075 49.5174 46.1981 49.3205C46.1915 49.0756 46.1849 48.8307 46.1784 48.5858C46.1717 48.326 46.1644 48.066 46.1576 47.8063C46.1493 47.5 46.1156 47.2512 46.0534 47.0063C45.9918 46.7632 45.9038 46.5294 45.786 46.2487C45.7127 46.0719 45.6434 45.8934 45.5781 45.7135L45.4083 45.7756L45.4344 45.7661L45.5781 45.7135V45.7128C45.4769 45.4397 45.377 45.1738 45.2373 44.8893C45.2463 44.8345 45.2554 44.7754 45.2643 44.7124L45.5343 44.9726L45.9322 45.356C46.2357 45.6484 46.5131 45.9143 46.8391 46.1064C47.1761 46.3053 47.5551 46.4208 48.0459 46.3975C48.5597 46.3733 49.1095 46.1569 49.5622 45.8229C50.0001 45.4996 50.3515 45.0637 50.4981 44.5812L50.6252 44.1627L50.7268 43.8288C51.4473 43.9508 52.2207 43.9902 52.9677 43.912C53.6885 43.8362 54.3849 43.6527 54.9854 43.3324C55.8683 42.8613 56.5301 42.1675 57.0059 41.3436H57.0061C57.5377 40.4228 57.8354 39.3378 57.9484 38.2213C58.0391 37.3258 57.9896 36.1085 57.8032 34.9344ZM48.4679 42.4601C48.0526 42.3203 47.7639 42.1164 47.3992 41.8865C47.4984 42.3341 47.5436 42.8074 47.4114 43.2542C47.2016 43.9632 46.8627 45.123 47.8252 45.337C48.1915 45.4183 48.3578 45.4066 48.8748 45.1397C48.4563 45.2345 48.2453 45.2115 47.9576 45.158C47.6968 45.1101 47.5586 44.9446 47.4858 44.7493C47.5769 44.8149 47.7254 44.8506 47.9794 44.9118C48.6929 45.0839 49.3728 44.7402 49.5058 44.2456C49.5831 43.9564 49.57 43.8046 49.7344 43.4106C49.8821 43.4563 50.0346 43.4977 50.1913 43.5357L49.9261 44.4004C49.6969 45.1485 48.8032 45.7517 48.0144 45.7378C47.2851 45.725 46.8226 45.2681 46.3191 44.8203C45.9723 44.5115 45.6385 44.2163 45.3077 43.9238C44.4 43.6374 43.6725 43.3027 42.83 42.679C43.4296 43.3836 43.8361 43.7736 44.6723 44.1242C44.5508 45.3645 44.1196 46.2689 43.7522 47.4559C43.5857 47.9925 42.2727 50.1433 41.9088 50.3529C41.6494 50.5024 40.0241 51.8712 39.7185 52.0519C39.4907 52.3542 39.2909 52.7722 38.9485 52.953C37.9054 53.5046 37.235 52.4485 36.6737 51.5565C36.4182 51.1501 35.7083 49.9796 36.3271 49.6517C36.912 49.3419 37.2397 49.1205 37.8366 48.7285C37.9243 48.8884 38.0747 49.0428 38.1727 49.2024L38.1077 48.6784C38.0683 48.362 38.07 48.1051 38.0951 47.7868C38.1195 47.4785 38.1437 47.1703 38.1679 46.8619C38.078 47.1754 37.8986 47.4887 37.809 47.8018C37.7732 47.9273 37.7435 48.0285 37.7264 48.1224C36.3871 48.3961 35.0575 48.4131 33.718 48.1742C33.6325 47.6782 33.5284 47.1614 33.4411 46.7909C33.4147 47.2057 33.4317 48.3529 33.4296 48.9953C33.4279 49.4928 33.4071 49.6632 33.1503 50.0865C32.9101 50.4827 32.8085 50.5727 32.472 51.2424C32.5001 51.6649 32.5005 51.9441 32.3883 52.3451C32.2017 53.0118 30.3184 52.4953 29.8217 52.3592C29.2099 52.1918 27.9451 51.9429 28.2632 51.1273C28.5431 50.4096 28.7205 49.6528 28.8573 48.6485C27.7365 47.0338 26.6942 44.8211 26.4941 42.8606C26.3387 41.3384 26.4319 40.4014 26.7613 39.4703C27.2832 37.9949 28.0136 36.7178 29.1853 35.6894C30.7658 34.3025 32.2432 33.7456 34.5567 33.3934C34.0004 34.0163 33.45 34.6747 32.8501 35.3808C32.2428 36.0955 31.8821 36.8175 31.4963 37.5994C30.9637 38.6793 30.9752 39.0902 31.6813 40.0382C32.2897 40.8552 32.6182 41.2229 32.884 42.0224C32.6646 42.4746 32.5847 42.8569 32.5111 43.4744C33.2561 44.289 33.8098 44.847 34.5332 45.0188C35.2429 45.1876 35.8353 45.1549 36.4703 44.8304C37.8803 44.1096 39.185 43.1787 40.7756 43.1401C41.5114 41.3312 41.437 39.8195 41.0838 38.0693C40.8425 36.8739 40.7456 35.742 40.6706 34.5234C40.3724 35.7784 40.3163 36.882 40.5376 38.1323C40.8045 39.6387 41.0119 41.3032 40.2697 42.6273C38.8313 42.7374 37.5988 43.6125 36.3026 44.2838C35.7814 44.5538 35.2389 44.5801 34.6623 44.4217C34.1269 44.2747 33.7657 43.9204 33.189 43.2553C33.1798 42.5875 33.3306 42.2794 33.6373 41.6745C34.13 40.7032 34.6738 39.7992 35.2706 38.8436C34.5399 39.7256 33.8475 40.4626 33.2724 41.3495C33.0524 40.7232 32.738 40.4051 32.2173 39.6997C31.7087 39.0108 31.6555 38.7094 32.0359 37.912C32.4182 37.1109 32.7425 36.4069 33.3934 35.704C34.518 34.4895 35.5483 33.1379 36.7782 31.9418C37.446 31.2924 37.7171 31.3147 38.6028 31.1806C39.4035 31.0591 40.1851 30.906 41.0015 30.7164C40.2119 30.7899 39.4487 30.8169 38.6799 30.8359L38.656 30.8366C39.4125 29.8707 39.8514 29.3324 41.0797 28.7986C44.1042 27.4852 46.0259 27.3432 48.4016 29.3402C49.0174 29.8579 49.5551 30.3604 50.1793 30.8068C49.9529 30.8262 49.7579 30.8669 49.4999 30.9681C49.8139 30.9082 50.1765 30.9675 50.5025 31.0272C50.5939 31.0865 50.6881 31.1444 50.7841 31.2011C51.225 31.4608 51.4752 31.6043 51.7733 32.0195C52.0883 32.4584 52.3509 32.897 52.5823 33.3804C52.4307 33.3262 52.3034 33.2805 52.1901 33.2468C52.0637 33.1889 51.9249 33.1631 51.7861 33.1717C51.6474 33.1802 51.5129 33.223 51.3946 33.2961L51.3763 33.3045C51.1325 33.4233 50.7548 33.5586 50.5021 33.5997C50.631 33.6441 50.9162 33.6608 51.0506 33.6075C51.0686 33.6005 51.0869 33.5949 51.1057 33.5905C51.0434 33.6966 51.005 33.8151 50.9933 33.9376C50.9775 34.0993 51.0088 34.2622 51.0834 34.4065L51.0841 34.4081C51.1069 34.4618 51.1387 34.5112 51.1735 34.5469C51.0581 34.5895 50.9401 34.6381 50.8185 34.6909C51.3822 34.6051 51.8904 34.5903 52.4404 34.6627C52.4766 34.8361 52.5132 35.0199 52.5472 35.2068L52.3428 35.2228C52.3373 35.2232 52.3318 35.2237 52.3263 35.2242C52.066 35.0163 51.7761 35.0513 51.38 35.1417C50.1751 35.4163 50.4582 36.0923 49.9042 37.1109C50.4796 36.4076 50.4368 35.6716 51.3746 35.4494C51.5931 35.3978 51.7419 35.3329 51.8898 35.3552C51.6236 35.489 51.3935 35.7111 51.3021 35.9688C51.0447 36.6957 51.2045 37.3081 50.9217 37.987C51.2718 37.3801 51.2931 36.7878 51.6064 36.1491C51.7188 35.9199 52.1362 35.5529 52.3924 35.5472L52.6033 35.5426C52.6652 35.9465 52.7028 36.3477 52.6789 36.6804C52.6351 37.2876 52.4774 38.1888 52.383 38.5337C52.7002 38.1258 52.8448 37.262 52.9841 36.6536C53.1293 36.0206 53.0926 35.2608 52.9656 34.5805C52.7912 33.6472 53.7525 33.7991 54.3105 33.3592C54.7207 33.0358 55.0032 32.5196 55.3792 32.1537C55.7522 31.7909 56.3396 32.324 56.4863 32.6785C57.1224 34.2178 57.4123 36.6394 57.2444 38.1912C57.0556 39.9323 56.2147 41.8331 54.679 42.6903C52.7213 43.7829 50.4131 43.1154 48.4679 42.4601ZM45.6861 50.1933C45.6223 50.9118 45.3828 50.9592 44.752 50.9482C44.4654 50.9431 43.3241 50.9379 43.0345 50.913C42.6253 50.8777 42.3955 50.8412 42.2705 50.7478C42.9134 50.2759 44.0057 48.3275 44.2188 47.6566C44.444 46.9478 44.6905 46.3294 44.8739 45.6744C44.9583 45.9482 45.0248 46.2194 45.1476 46.5102C45.3524 46.9962 45.4527 47.2964 45.4673 47.8177L45.5137 49.4676C45.6899 49.7758 45.7173 49.8416 45.6861 50.1932V50.1933ZM26.3379 44.7511C26.7461 46.1633 27.4416 47.5511 28.2126 48.7178V48.7382C28.1641 48.9389 28.1083 49.1341 27.9911 49.2908C27.4399 50.0282 26.0382 48.9459 25.6324 48.5319C25.1889 48.0788 24.892 47.5427 24.8213 47.0395C24.7698 46.6728 24.8199 46.6638 25.0758 46.4042L26.111 45.3562L26.3379 44.7511ZM25.5581 35.8695C25.4535 36.0941 25.3793 36.2644 25.3288 36.4396C25.109 37.1987 25.4282 37.8762 24.739 38.4264C25.0629 39.0798 25.048 39.3405 25.8013 39.0385C26.0918 38.9218 26.3314 38.7587 26.5454 38.5655C26.4418 38.8346 26.3466 39.1069 26.2598 39.3819C26.2449 39.4283 26.2307 39.4752 26.2171 39.5216C25.6784 39.7502 24.9698 39.8955 24.6987 39.3293C24.567 39.0544 24.4926 38.7847 24.3966 38.4374C23.5094 37.5183 24.8356 36.3048 25.5581 35.8695ZM25.9942 36.8432C25.8846 36.7335 25.797 36.6594 25.6554 36.6754C25.6674 36.5826 25.6833 36.4931 25.7056 36.409C25.7169 36.3657 25.729 36.3232 25.7419 36.2806C25.9256 36.3876 25.9739 36.5815 25.9942 36.8431V36.8432ZM52.5963 33.4101C52.6298 33.4807 52.6627 33.5526 52.695 33.6253C52.6683 33.6449 52.6429 33.6656 52.6191 33.6874C52.5754 33.5854 52.5123 33.4928 52.4333 33.4149C52.4862 33.4129 52.5405 33.4112 52.5965 33.4101H52.5963ZM26.9833 37.5822L26.9832 37.582V37.5822H26.9833ZM33.8032 48.7063H33.8035H33.8032ZM41.7993 51.0934H41.7991H41.7993ZM45.049 44.9164H45.0493L45.0491 44.9166L45.049 44.9164ZM25.6498 38.687H25.6497L25.6436 38.6715L25.6497 38.6871L25.6498 38.687ZM56.8468 41.2516L56.851 41.2541L56.8468 41.2516ZM22.5193 38.4659C22.6605 36.8675 22.9713 36.1774 24.1069 34.9744C22.6825 35.9781 22.327 36.4343 22.5193 38.4658" fill="black"/>
<path d="M22.1517 37.1602C22.3085 36.4408 22.4548 36.1692 22.8984 35.5788C22.1786 36.0815 22.0849 36.2879 22.1516 37.1602M38.8644 27.1313C38.011 27.3371 37.8483 27.4948 37.5923 28.3314C38.0007 27.7189 38.2358 27.5196 38.8644 27.1313Z" fill="black"/>
<path d="M40.2103 27.0094C38.5177 27.4242 38.0203 27.7193 37.4581 29.681C38.1727 28.2442 38.7138 27.7152 40.2103 27.0093M43.8557 34.1608C44.0361 33.3615 44.3568 32.5913 45.598 31.9954C43.9528 32.4074 43.6442 33.0985 43.8557 34.1609M54.3246 34.216C55.2989 33.8687 55.7686 33.0853 56.0019 32.1637C55.6205 32.9361 55.032 33.5821 54.2326 33.9778C53.8036 34.1902 53.5295 34.1161 53.0504 34.0706C53.5377 34.2105 53.8463 34.3865 54.3246 34.216ZM47.687 34.9993C47.5621 34.7373 47.3392 34.5348 47.0665 34.4355C47.3055 34.308 47.5402 34.174 47.7233 34.0074C47.1869 34.2557 46.5624 34.1951 46.102 34.506C45.6966 34.7799 45.1369 35.6478 44.7249 36.0158C45.0233 35.9 45.3109 35.6996 45.5756 35.4885C45.5771 35.689 45.6332 35.8853 45.7378 36.0563C45.8424 36.2273 45.9916 36.3666 46.1695 36.4592C46.0172 36.6587 45.8959 36.8801 45.8098 37.1159C46.5943 36.1861 47.7318 35.4839 48.8013 35.1836C48.5024 35.1794 48.1484 35.2352 47.7879 35.3538C47.7744 35.2308 47.7403 35.1109 47.687 34.9993ZM46.5583 42.0249C46.5202 42.2657 46.4679 42.5649 46.4298 42.8058C46.5317 42.5333 46.6543 42.2166 46.7729 41.9567C46.8986 41.6817 46.9693 41.6558 47.2361 41.5107C47.4252 41.4077 47.7686 41.2663 47.9577 41.1633C47.7631 41.1961 47.4144 41.2677 47.2198 41.3004C46.7 41.3882 46.6389 41.5131 46.5583 42.0249ZM37.6799 32.7295C37.0766 33.3258 36.4906 35.3718 36.3035 36.1905C36.5983 35.5104 37.3363 33.6081 37.9025 33.1243C38.0588 32.9905 38.1681 32.9084 38.2855 32.8486C37.8802 33.5283 37.91 33.6973 38.0522 34.6078C38.173 33.6821 38.4931 33.3245 39.0183 32.6339C39.594 32.4895 40.1328 32.3164 40.7234 32.0861C40.0582 32.1613 39.3924 32.2304 38.7259 32.2933C38.1665 32.3464 38.0764 32.3374 37.6797 32.7295" fill="black"/>
<path d="M45.8976 36.2124C45.845 36.1015 45.8384 35.9743 45.8794 35.8587C45.9205 35.7431 46.0057 35.6484 46.1164 35.5956C46.1768 35.567 46.2427 35.5517 46.3095 35.5509C46.3763 35.55 46.4425 35.5636 46.5036 35.5906C46.5647 35.6177 46.6193 35.6576 46.6636 35.7076C46.7078 35.7577 46.7408 35.8167 46.7602 35.8806C46.54 36.0442 46.3382 36.2365 46.1689 36.4596C46.055 36.4137 45.954 36.3305 45.8975 36.2124M51.049 34.2195C51.0675 34.029 51.2299 33.8885 51.4205 33.9069C51.5121 33.9159 51.5965 33.9609 51.6551 34.032C51.7137 34.103 51.7418 34.1944 51.7332 34.2861C51.7293 34.3255 51.7187 34.3639 51.7019 34.3996C51.5275 34.4296 51.3531 34.4805 51.1734 34.5466C51.0983 34.4697 51.0384 34.3293 51.049 34.2195Z" fill="#FFFFCC"/>
</g>
<defs>
<clipPath id="clip0_245_36293">
<rect width="36" height="26.999" fill="white" transform="translate(22 27)"/>
</clipPath>
</defs>
</svg>
