<svg width="80" height="80" viewBox="0 0 80 80" fill="none" xmlns="http://www.w3.org/2000/svg">
<g clip-path="url(#clip0_245_36309)">
<path d="M26.0005 39.9799C26.0005 41.3621 26.1943 42.6955 26.5238 43.975H45.9757C48.1819 43.975 49.9707 42.1861 49.9707 39.9799C49.9707 37.7726 48.1818 35.9849 45.9757 35.9849H26.5238C26.1943 37.2633 26.0005 38.5976 26.0005 39.9799Z" fill="#343741"/>
<path d="M52.8909 31.6514C53.4492 31.1371 53.9687 30.5848 54.445 29.9926C51.5157 26.3421 47.0242 24 41.9805 24C35.6672 24 30.234 27.6724 27.6422 32.9889H49.4821C50.7465 32.9889 51.962 32.5084 52.8908 31.6514" fill="#FEC514"/>
<path d="M49.4821 46.9712H27.6421C30.235 52.2866 35.6672 55.9601 41.9804 55.9601C47.0241 55.9601 51.5155 53.617 54.4449 49.9675C53.9691 49.3761 53.4496 48.8212 52.8908 48.3075C51.9619 47.4496 50.7464 46.9712 49.4821 46.9712Z" fill="#00BFB3"/>
</g>
<defs>
<clipPath id="clip0_245_36309">
<rect width="28.4455" height="32" fill="white" transform="translate(26 24)"/>
</clipPath>
</defs>
</svg>
