<svg width="80" height="80" viewBox="0 0 80 80" fill="none" xmlns="http://www.w3.org/2000/svg">
<path d="M40.775 57.5L39.8362 57.1887C39.8362 57.1887 39.9612 52.4387 38.2425 52.105C37.1175 50.795 38.4087 -3.82127 42.5212 51.9187C41.741 52.3145 41.1439 52.9967 40.855 53.8225C40.7001 55.0422 40.6733 56.2747 40.775 57.5Z" fill="url(#paint0_linear_245_36339)"/>
<path d="M41.2825 52.9113C43.782 51.0298 45.6961 48.4775 46.8025 45.5512C47.9089 42.6248 48.162 39.4446 47.5325 36.3801C45.695 28.2738 41.3438 25.6088 40.875 24.5913C40.4706 23.9577 40.1254 23.2882 39.8438 22.5913L40.19 45.1776C40.19 45.1776 39.4725 52.0801 41.2825 52.9113Z" fill="url(#paint1_linear_245_36339)"/>
<path d="M39.3587 53.2113C39.3587 53.2113 31.7074 48 32.1499 38.7812C32.1912 36.0021 32.8285 33.2641 34.0186 30.7523C35.2087 28.2405 36.924 26.0133 39.0487 24.2213C39.297 24.0103 39.4942 23.7458 39.6257 23.4477C39.7571 23.1496 39.8192 22.8256 39.8074 22.5C40.2837 23.525 40.2062 37.8038 40.2562 39.4738C40.4499 45.97 39.8949 51.985 39.3587 53.2113Z" fill="url(#paint2_linear_245_36339)"/>
<defs>
<linearGradient id="paint0_linear_245_36339" x1="34.4646" y1="40.3154" x2="45.2541" y2="43.9768" gradientUnits="userSpaceOnUse">
<stop offset="0.231" stop-color="#999875"/>
<stop offset="0.563" stop-color="#9B9977"/>
<stop offset="0.683" stop-color="#A09F7E"/>
<stop offset="0.768" stop-color="#A9A889"/>
<stop offset="0.837" stop-color="#B7B69A"/>
<stop offset="0.896" stop-color="#C9C7B0"/>
<stop offset="0.948" stop-color="#DEDDCB"/>
<stop offset="0.994" stop-color="#F8F6EB"/>
<stop offset="1" stop-color="#FBF9EF"/>
</linearGradient>
<linearGradient id="paint1_linear_245_36339" x1="38.4212" y1="22.4299" x2="43.1912" y2="52.2161" gradientUnits="userSpaceOnUse">
<stop stop-color="#48A547"/>
<stop offset="1" stop-color="#3F9143"/>
</linearGradient>
<linearGradient id="paint2_linear_245_36339" x1="31.4918" y1="39.6938" x2="44.2926" y2="35.4068" gradientUnits="userSpaceOnUse">
<stop stop-color="#41A247"/>
<stop offset="0.352" stop-color="#4BA74B"/>
<stop offset="0.956" stop-color="#67B554"/>
<stop offset="1" stop-color="#69B655"/>
</linearGradient>
</defs>
</svg>
