<svg width="80" height="80" viewBox="0 0 80 80" fill="none" xmlns="http://www.w3.org/2000/svg">
<path d="M16.1548 49.3921L11.1987 40.8101C10.9338 40.3515 10.9338 39.7856 11.1987 39.327L16.1548 30.7413C16.4193 30.2832 16.9079 30.0011 17.4421 30H27.3613C27.8886 30.0027 28.3751 30.2843 28.6379 30.7413L33.5994 39.3276C33.8644 39.7862 33.8644 40.3521 33.5994 40.8107L28.6326 49.3921C28.3681 49.8502 27.8795 50.1323 27.3453 50.1334H17.4277C16.8999 50.1318 16.4128 49.8491 16.1484 49.3921H16.1548Z" fill="#4386FA"/>
<path opacity="0.1" d="M25.4904 37.2939C25.4904 37.2939 26.8689 40.5991 24.9899 42.4732C23.111 44.3473 19.6906 43.1474 19.6906 43.1474L26.649 50.1326H27.3554C27.8842 50.1316 28.3729 49.8494 28.6427 49.3914L31.9242 43.709L25.4904 37.2939Z" fill="black"/>
<path d="M27.1182 44.0632L25.5949 42.5468C25.5785 42.5298 25.5597 42.5153 25.5391 42.5039C26.1828 41.67 26.4844 40.6221 26.3826 39.5735C26.2807 38.525 25.7831 37.5548 24.991 36.8603C24.1989 36.1658 23.1718 35.7993 22.119 35.8354C21.0662 35.8716 20.0667 36.3077 19.3241 37.0549C17.7831 38.6077 17.715 41.0954 19.1696 42.7244C19.871 43.5105 20.8453 44.0002 21.8946 44.094C22.944 44.1877 23.9897 43.8785 24.8193 43.2291C24.8303 43.2486 24.8439 43.2666 24.8595 43.2827L26.3828 44.806C26.4049 44.8281 26.4312 44.8457 26.4601 44.8575C26.489 44.8694 26.52 44.8754 26.5512 44.8752C26.6143 44.875 26.6747 44.8502 26.7197 44.806L27.1236 44.4021C27.1457 44.3801 27.1632 44.3538 27.175 44.3249C27.1869 44.296 27.1929 44.265 27.1927 44.2337C27.1926 44.1707 27.1677 44.1103 27.1236 44.0653L27.1182 44.0632ZM22.2656 43.0784C21.6494 43.0782 21.0472 42.8954 20.5349 42.553C20.0226 42.2107 19.6233 41.7242 19.3874 41.1549C18.9047 39.991 19.1718 38.65 20.0632 37.7597C20.4991 37.3243 21.0542 37.0279 21.6584 36.9079C22.2627 36.7878 22.8889 36.8496 23.4581 37.0853C24.0272 37.3211 24.5138 37.7202 24.8562 38.2323C25.1986 38.7444 25.3816 39.3465 25.3819 39.9626C25.3809 41.6827 23.9874 43.0768 22.2667 43.0778L22.2656 43.0784ZM20.2746 39.7963V41.0836C20.473 41.4338 20.76 41.7251 21.107 41.9295V39.7936L20.2746 39.7963ZM21.8301 38.7289V42.2084C22.1052 42.2588 22.3879 42.2588 22.6625 42.2084V38.7235L21.8301 38.7289ZM24.2395 41.082V40.3203H23.407V41.9262C23.7535 41.7224 24.0399 41.4328 24.2395 41.083V41.082Z" fill="white"/>
<path d="M45.6434 34.4625H41.8834V35.5792H44.5556C44.4226 37.1476 43.1181 37.8159 41.8887 37.8159C41.1083 37.8213 40.3574 37.5155 39.8022 36.9668C39.2471 36.4181 38.9333 35.6704 38.9312 34.89V34.8395C38.9178 34.0489 39.2229 33.2862 39.7776 32.7235C40.3322 32.1609 41.0906 31.8439 41.8812 31.8466C42.6338 31.8476 43.3563 32.1405 43.8969 32.6645L44.68 31.8584C43.9209 31.1251 42.9016 30.7234 41.8464 30.7416C41.1124 30.7262 40.3876 30.9077 39.7475 31.2673C39.1075 31.6269 38.5755 32.1515 38.2068 32.7864C37.8382 33.4213 37.6464 34.1434 37.6515 34.8776C37.6565 35.6117 37.8582 36.3311 38.2355 36.9609C38.6133 37.5906 39.1529 38.1074 39.7982 38.4578C40.4436 38.8081 41.171 38.9791 41.9048 38.953C44.0954 38.9487 45.7131 37.4431 45.7131 35.2155C45.7179 34.9665 45.6949 34.7177 45.6444 34.4737L45.6434 34.4625ZM48.7366 33.6563C48.3934 33.6492 48.0522 33.7099 47.7325 33.8351C47.4128 33.9602 47.121 34.1473 46.8738 34.3855C46.6266 34.6237 46.4289 34.9084 46.292 35.2233C46.1551 35.5381 46.0818 35.8769 46.0762 36.2202V36.2765C46.0676 37.7408 47.2482 38.9348 48.7125 38.9434C50.1768 38.9519 51.3708 37.7714 51.3794 36.3071C51.3794 34.5585 50.0062 33.6563 48.742 33.6563H48.7366ZM48.7511 34.6969C49.5112 34.6969 50.2262 35.3019 50.2262 36.3092C50.2262 37.3165 49.5085 37.9098 48.7431 37.9098C47.901 37.9098 47.2412 37.2393 47.2412 36.2974C47.2412 35.3555 47.8897 34.7006 48.7447 34.7006L48.7511 34.6969ZM54.4968 33.6563C54.1542 33.6503 53.8138 33.7118 53.4951 33.8374C53.1763 33.9631 52.8855 34.1503 52.6391 34.3884C52.3928 34.6265 52.1958 34.9109 52.0594 35.2252C51.9231 35.5395 51.85 35.8776 51.8444 36.2202V36.2765C51.8358 37.7408 53.0164 38.9348 54.4807 38.9434C55.945 38.9519 57.139 37.7714 57.1476 36.3071C57.1476 34.5638 55.7728 33.659 54.4995 33.659L54.4968 33.6563ZM54.5129 34.6969C55.2729 34.6969 55.9879 35.3019 55.9879 36.3092C55.9879 37.3165 55.2702 37.9098 54.5048 37.9098C53.6627 37.9098 53.003 37.2393 53.003 36.2974C53.003 35.3555 53.6515 34.7006 54.5059 34.7006L54.5129 34.6969ZM60.1556 33.6563C58.7449 33.6563 57.6222 34.8975 57.6222 36.2953C57.6008 37.7113 58.7154 38.886 60.1314 38.938C60.4065 38.9524 60.681 38.9014 60.9325 38.7893C61.1841 38.6771 61.4055 38.507 61.5786 38.2927V38.8146C61.5786 39.7265 61.0261 40.2736 60.192 40.2736C59.5924 40.2661 59.0576 39.8938 58.8414 39.3349L57.833 39.7544C58.1908 40.5144 58.9096 41.3163 60.1985 41.3163C61.6091 41.3163 62.6872 40.4275 62.6872 38.5647V33.8177H61.5791V34.2613C61.3989 34.0647 61.1787 33.9089 60.9332 33.8045C60.6877 33.7002 60.4227 33.6496 60.1561 33.6563H60.1556ZM60.2585 34.6861C60.9537 34.6861 61.6692 35.2804 61.6692 36.2985C61.6692 37.3165 60.9558 37.8888 60.2424 37.8888C59.4824 37.8888 58.7835 37.2838 58.7835 36.3012C58.7835 35.2928 59.5151 34.6888 60.2612 34.6888L60.2585 34.6861ZM67.6069 33.6563C66.2686 33.6563 65.1481 34.7205 65.1481 36.2926C65.1357 36.6386 65.1938 36.9834 65.3189 37.3063C65.4439 37.6291 65.6333 37.9231 65.8755 38.1704C66.1178 38.4178 66.4077 38.6133 66.7279 38.745C67.048 38.8768 67.3916 38.9421 67.7378 38.9369C68.1737 38.9389 68.6035 38.8344 68.9899 38.6325C69.3762 38.4306 69.7074 38.1374 69.9546 37.7783L69.0417 37.1733C68.7735 37.6292 68.2822 37.9055 67.7544 37.899C67.4828 37.9097 67.2143 37.8385 66.9836 37.6948C66.753 37.551 66.5708 37.3413 66.4607 37.0929L69.9997 35.6259L69.821 35.1968C69.4724 34.2806 68.6003 33.6702 67.6203 33.6574L67.6069 33.6563ZM67.6536 34.6647C68.0612 34.6475 68.442 34.8674 68.6314 35.229L66.2622 36.2212C66.1592 35.4553 66.8844 34.669 67.6487 34.669L67.6536 34.6647ZM63.4569 38.7808H64.6193V31.0018H63.4564L63.4569 38.7808ZM37.8729 47.7383V42.639H39.7191C40.1054 42.6309 40.4792 42.7759 40.7591 43.0423C41.0445 43.2918 41.2043 43.6549 41.1947 44.0346C41.2063 44.262 41.1457 44.4872 41.0215 44.678C40.8973 44.8687 40.7159 45.0153 40.5033 45.0967V45.1251C40.7538 45.2034 40.9737 45.3595 41.1298 45.5703C41.2861 45.779 41.3689 46.0336 41.3652 46.2944C41.3749 46.6897 41.2118 47.0695 40.9184 47.335C40.6206 47.6054 40.2296 47.75 39.8274 47.7383H37.8783H37.8729ZM38.5273 43.2676V44.8322H39.7164C39.8247 44.8352 39.9325 44.8159 40.033 44.7753C40.1335 44.7348 40.2246 44.674 40.3005 44.5968C40.602 44.3071 40.6138 43.8297 40.3273 43.5267L40.307 43.5063C40.1611 43.3518 39.9567 43.266 39.7448 43.2703H38.5364L38.5273 43.2676ZM38.5273 45.4426V47.1161H39.8468C40.3102 47.1204 40.6899 46.7492 40.6953 46.2847C40.6957 46.1754 40.6737 46.0672 40.6306 45.9667C40.5875 45.8662 40.5243 45.7757 40.4448 45.7006C40.3629 45.6185 40.2651 45.5539 40.1574 45.5108C40.0497 45.4677 39.9343 45.4471 39.8183 45.4501H38.5257L38.5273 45.4426ZM42.8413 43.0466C42.841 43.1534 42.8037 43.2568 42.7357 43.3391C42.6676 43.4214 42.5732 43.4776 42.4684 43.498C42.3636 43.5185 42.2549 43.5019 42.1609 43.4512C42.067 43.4005 41.9935 43.3187 41.9531 43.2199C41.9122 43.1211 41.9068 43.0112 41.9379 42.909C41.969 42.8067 42.0347 42.7184 42.1237 42.6592C42.2126 42.6 42.3194 42.5735 42.4258 42.5843C42.5321 42.5951 42.6314 42.6425 42.7067 42.7184C42.7952 42.8042 42.844 42.9233 42.8419 43.0472L42.8413 43.0466ZM42.7062 44.2556V47.7421H42.0491V44.2556H42.7062ZM45.0662 49.3952C44.8806 49.3968 44.6908 49.3716 44.518 49.3201C44.3533 49.2757 44.1957 49.2078 44.0503 49.1184C43.9131 49.0282 43.7906 48.9173 43.6872 48.7896C43.5885 48.6695 43.5118 48.5321 43.4598 48.3863L44.0857 48.1288C44.1531 48.3285 44.2833 48.5011 44.4569 48.6206C44.6339 48.744 44.8458 48.8084 45.0619 48.8062C45.373 48.8239 45.6772 48.7081 45.8965 48.4855C46.1073 48.2414 46.2151 47.925 46.1969 47.6026V47.2583H46.1685C46.0424 47.4455 45.8692 47.5962 45.6664 47.6954C45.453 47.8027 45.2175 47.8579 44.9799 47.8563C44.5282 47.8585 44.0986 47.6632 43.8031 47.3221C43.4808 46.958 43.3074 46.486 43.3171 45.9999C43.3049 45.5148 43.4779 45.0432 43.8009 44.681C44.0943 44.3355 44.525 44.1371 44.9777 44.1392C45.2163 44.1377 45.4519 44.193 45.6648 44.3007C45.8676 44.3999 46.0407 44.5506 46.1669 44.7378H46.1953V44.2481H46.8218V47.5897C46.8486 48.0762 46.677 48.5525 46.3444 48.9081C46.1752 49.0689 45.9755 49.1942 45.757 49.2765C45.5386 49.3589 45.3059 49.3967 45.0727 49.3877L45.0662 49.3952ZM45.0888 47.2566C45.238 47.2607 45.3864 47.2315 45.523 47.1712C45.6596 47.1109 45.7812 47.021 45.8788 46.908C46.0854 46.6508 46.198 46.3309 46.198 46.001C46.198 45.6711 46.0854 45.3511 45.8788 45.094C45.6831 44.8617 45.3923 44.7309 45.0888 44.7373C44.7857 44.733 44.4961 44.8639 44.2987 45.094C44.075 45.3445 43.9645 45.6749 43.9779 46.0026C43.9642 46.3343 44.0791 46.6585 44.2987 46.9075C44.4971 47.136 44.7857 47.2658 45.0888 47.2615V47.2566ZM53.6241 47.741L53.1081 48.0752L52.7579 47.5549C52.3775 47.7453 51.9582 47.8454 51.5328 47.8472C50.8355 47.8622 50.1532 47.5822 49.6662 47.0748C48.6578 46.0117 48.6578 44.3463 49.6662 43.2837C49.9109 43.0376 50.2019 42.8423 50.5224 42.709C50.8428 42.5758 51.1865 42.5072 51.5336 42.5072C51.8807 42.5072 52.2243 42.5758 52.5448 42.709C52.8653 42.8423 53.1562 43.0376 53.401 43.2837C53.6485 43.5306 53.8432 43.8253 53.9732 44.1499C54.1031 44.4746 54.1656 44.8222 54.1567 45.1718C54.159 45.5562 54.08 45.9367 53.925 46.2885C53.7743 46.635 53.5518 46.9456 53.2722 47.1998L53.6241 47.741ZM51.5365 47.2207C51.8345 47.2206 52.1284 47.1516 52.3953 47.019L51.801 46.1254L52.317 45.7768L52.907 46.6672C53.1024 46.4747 53.2554 46.2435 53.356 45.9883C53.4566 45.7332 53.5026 45.4597 53.4911 45.1857C53.5109 44.6429 53.3125 44.1156 52.929 43.7268C52.7507 43.5389 52.535 43.3906 52.2958 43.2913C52.0566 43.1921 51.7992 43.1442 51.5403 43.1507C51.2802 43.1444 51.0217 43.1924 50.7812 43.2916C50.5407 43.3907 50.3236 43.539 50.1436 43.7268C49.4034 44.5581 49.4034 45.8186 50.1436 46.6446C50.3239 46.834 50.5418 46.9834 50.7834 47.0834C51.025 47.1833 51.2848 47.2316 51.5462 47.225L51.5365 47.2207ZM57.8845 47.7372H57.257V47.2491H57.2286C57.1175 47.4315 56.9588 47.5801 56.7689 47.6782C56.572 47.7896 56.3498 47.8486 56.1236 47.8493C55.9425 47.8609 55.761 47.8343 55.5908 47.7711C55.4207 47.7078 55.2658 47.6095 55.1362 47.4825C54.8905 47.1928 54.7671 46.8174 54.7939 46.4387V44.246H55.4483V46.3915C55.4633 46.9636 55.7494 47.2497 56.3065 47.2497C56.4324 47.2499 56.5566 47.2213 56.6697 47.1662C56.7829 47.1111 56.8819 47.0308 56.9593 46.9316C57.1363 46.7185 57.2302 46.4485 57.2237 46.1716V44.2481H57.8781V47.7346L57.8845 47.7372ZM60.2146 47.852C59.7361 47.866 59.2743 47.6734 58.9466 47.3242C58.6113 46.9632 58.4327 46.4843 58.4488 45.9919C58.4338 45.5038 58.6086 45.0275 58.9358 44.6643C59.096 44.4988 59.2874 44.3667 59.499 44.2756C59.7106 44.1845 59.9381 44.1363 60.1684 44.1336C60.3987 44.131 60.6273 44.174 60.8409 44.2602C61.0545 44.3464 61.2489 44.4741 61.4128 44.6359C61.7432 45.0285 61.9084 45.5349 61.8725 46.0466V46.1174H59.1279C59.1261 46.271 59.1556 46.4235 59.2144 46.5654C59.2732 46.7074 59.3602 46.836 59.4701 46.9434C59.5956 47.0658 59.7485 47.1566 59.9162 47.2083C60.0838 47.2599 60.2612 47.2709 60.4339 47.2403C60.6066 47.2098 60.7696 47.1385 60.9093 47.0325C61.049 46.9265 61.1615 46.7888 61.2374 46.6307L61.8221 46.915C61.673 47.2009 61.4477 47.4406 61.1709 47.6069C60.8834 47.7742 60.5557 47.859 60.2237 47.8526L60.2146 47.852ZM59.1665 45.5724H61.1672C61.1532 45.3391 61.0465 45.1219 60.8705 44.9674C60.6705 44.8065 60.4146 44.7164 60.155 44.7298C59.9222 44.7244 59.6953 44.8059 59.5178 44.9572C59.3354 45.1165 59.2121 45.3327 59.1649 45.5703L59.1665 45.5724ZM63.1228 47.7372H62.4684V44.2508H63.0949V44.821H63.1233C63.2 44.6225 63.347 44.4552 63.5267 44.3473C63.7053 44.224 63.9145 44.1542 64.1317 44.1462C64.2972 44.1423 64.4618 44.1718 64.6155 44.2331L64.4144 44.8682C64.2908 44.8261 64.1601 44.8089 64.0298 44.8177C63.7809 44.8188 63.5455 44.9282 63.3845 45.1181C63.207 45.3067 63.1089 45.5564 63.1104 45.8154V47.741L63.1228 47.7372ZM68.2468 44.2508L66.0637 49.29H65.3863L66.1925 47.5307L64.762 44.2519H65.4753L66.5159 46.761H66.5304L67.5388 44.2519H68.2468V44.2508Z" fill="#767677"/>
</svg>
