<svg width="80" height="80" viewBox="0 0 80 80" fill="none" xmlns="http://www.w3.org/2000/svg">
<g clip-path="url(#clip0_245_36318)">
<path d="M24.8288 49.2182C25.1725 49.2182 25.485 49.2963 25.6569 49.4526C25.6881 49.7025 25.4537 50.1088 25.3131 50.1088C25.1413 50.0463 24.985 50.015 24.7819 50.015C23.9694 50.015 23.5632 50.8588 23.5632 51.6869C23.5632 52.2025 23.7351 52.515 24.1569 52.515C24.5944 52.515 25.0319 52.2181 25.2819 51.9993C25.3444 52.0462 25.4225 52.1868 25.4225 52.3431C25.4225 52.515 25.3756 52.6868 25.2038 52.8587C24.9225 53.1399 24.4382 53.3899 23.7351 53.3899C22.9382 53.3899 22.3757 52.9368 22.3757 51.8743C22.407 50.4681 23.3132 49.2182 24.8288 49.2182ZM27.4537 52.4681C27.8912 52.4681 28.688 51.7025 28.9068 50.2338C28.9224 50.14 28.9224 50.1244 28.938 50.0307C28.8443 49.9994 28.7036 49.9682 28.5786 49.9682C28.2505 49.9682 27.9068 50.0619 27.6099 50.4838C27.2974 50.9213 27.1568 51.4681 27.1568 51.9056C27.1568 52.265 27.2662 52.4681 27.4537 52.4681ZM26.0162 52.0618C26.0162 51.5306 26.1881 50.6244 26.86 49.9525C27.4381 49.3588 28.1255 49.2182 28.7661 49.2182C29.188 49.2182 29.7505 49.3588 30.1098 49.4213C30.0161 49.8119 29.813 51.2962 29.7036 52.1556C29.6567 52.515 29.6411 53.0306 29.6567 53.2181C29.3599 53.343 28.813 53.3743 28.6568 53.3743C28.5786 53.3743 28.563 53.0149 28.5786 52.6556C28.5943 52.5462 28.6099 52.3743 28.6099 52.2962C28.2662 52.8743 27.5787 53.3587 26.86 53.3587C26.3443 53.3743 26.0162 52.9368 26.0162 52.0618ZM32.3285 49.2182C32.6879 49.2182 33.0472 49.3588 33.2035 49.5151C33.1879 49.765 33.0004 50.1869 32.6879 50.0619C32.5473 50.015 32.4223 49.9838 32.2348 49.9838C32.0004 49.9838 31.7817 50.0932 31.7817 50.3119C31.7817 50.4838 31.9066 50.6088 32.5004 51.0306C32.9222 51.3431 33.0941 51.6244 33.0941 52.015C33.0941 52.6712 32.4848 53.3743 31.4067 53.3743C30.9692 53.3743 30.5786 53.2024 30.4692 53.0306C30.313 52.7649 30.4379 52.2337 30.6098 52.3275C30.8442 52.4368 31.2192 52.5618 31.5317 52.5618C31.8285 52.5618 32.016 52.4212 32.016 52.2493C32.016 52.0931 31.8754 51.9681 31.3442 51.5775C30.8911 51.2337 30.7504 50.9213 30.7504 50.5775C30.7504 49.8275 31.391 49.2182 32.3285 49.2182ZM35.4065 49.2182C35.7659 49.2182 36.1252 49.3588 36.2815 49.5151C36.2659 49.765 36.0784 50.1869 35.7659 50.0619C35.6253 50.015 35.5003 49.9838 35.3128 49.9838C35.0784 49.9838 34.8597 50.0932 34.8597 50.3119C34.8597 50.4838 34.9847 50.6088 35.5784 51.0306C36.0003 51.3431 36.1721 51.6244 36.1721 52.015C36.1721 52.6712 35.5628 53.3743 34.4847 53.3743C34.0472 53.3743 33.6722 53.2024 33.5472 53.0306C33.391 52.7649 33.516 52.2337 33.6878 52.3275C33.9222 52.4368 34.2972 52.5618 34.6097 52.5618C34.9065 52.5618 35.094 52.4212 35.094 52.2493C35.094 52.0931 34.9534 51.9681 34.4222 51.5775C33.9691 51.2337 33.8285 50.9213 33.8285 50.5775C33.8285 49.8275 34.4691 49.2182 35.4065 49.2182ZM38.2033 52.4681C38.6408 52.4681 39.4376 51.7025 39.6564 50.2338C39.672 50.14 39.672 50.1244 39.6876 50.0307C39.5939 49.9994 39.4533 49.9682 39.3283 49.9682C39.0001 49.9682 38.6564 50.0619 38.3595 50.4838C38.0471 50.9213 37.9064 51.4681 37.9064 51.9056C37.9221 52.265 38.0158 52.4681 38.2033 52.4681ZM36.7659 52.0618C36.7659 51.5306 36.9377 50.6244 37.6096 49.9525C38.1877 49.3588 38.8752 49.2182 39.5158 49.2182C39.9376 49.2182 40.5001 49.3588 40.8595 49.4213C40.7657 49.8119 40.5626 51.2962 40.4532 52.1556C40.4063 52.515 40.3907 53.0306 40.4064 53.2181C40.1095 53.343 39.5626 53.3743 39.4064 53.3743C39.3283 53.3743 39.3126 53.0149 39.3283 52.6556C39.3439 52.5462 39.3595 52.3743 39.3595 52.2962C39.0158 52.8743 38.3283 53.3587 37.6096 53.3587C37.1096 53.3743 36.7659 52.9368 36.7659 52.0618ZM42.875 50.3744C43.2812 49.7182 43.8125 49.2182 44.5625 49.2182C45.2031 49.2182 45.4062 49.8119 45.2812 50.64C45.2187 51.0306 45.1093 51.5931 45.0468 52.1087C44.9843 52.5462 44.9374 52.9368 44.9531 53.2024C44.7187 53.3118 44.0468 53.3587 43.8906 53.3587C43.8281 53.3587 43.8125 52.8743 43.9062 52.3587C43.9844 51.9368 44.125 51.1556 44.2031 50.7025C44.25 50.4369 44.2343 50.1244 43.9844 50.1244C43.6562 50.1244 42.875 50.6556 42.4844 52.8118C42.4532 52.9837 42.3907 53.0931 42.2813 53.1556C42.1407 53.2337 41.8594 53.3118 41.2813 53.3118C41.3907 52.7649 41.5626 51.6556 41.6876 50.8275C41.7969 50.0775 41.8438 49.5932 41.8282 49.4057C41.9844 49.3588 42.7813 49.1869 42.8594 49.1869C42.9531 49.1869 42.9688 49.4682 42.8906 50.1244C42.875 50.1869 42.875 50.2807 42.8594 50.3432H42.875V50.3744ZM47.4061 52.4525C47.7967 52.4525 48.5936 51.7181 48.8123 50.4213C48.8279 50.3432 48.8436 50.2182 48.8592 50.14C48.7498 50.0307 48.5936 49.9682 48.3436 49.9682C47.4374 49.9682 47.0467 51.0463 47.0467 51.8275C47.0624 52.2337 47.203 52.4525 47.4061 52.4525ZM46.828 53.3743C46.2499 53.3743 45.9062 52.8587 45.9062 51.9993C45.9062 50.5619 46.8124 49.2338 48.3279 49.2338C48.5936 49.2338 48.8436 49.3119 48.9842 49.3901C49.0623 48.9838 49.2498 47.7182 49.2654 47.3433C49.5154 47.2964 50.0466 47.2183 50.2966 47.2183C50.3904 47.2183 50.4216 47.312 50.3904 47.5464C50.1716 48.8901 49.7966 51.4525 49.7185 52.015C49.6716 52.4993 49.656 52.9681 49.6716 53.2337C49.3904 53.3587 48.8123 53.3899 48.6561 53.3899C48.5936 53.3899 48.5623 52.9837 48.5779 52.6087C48.5936 52.4993 48.6092 52.3275 48.6092 52.2962C48.1248 53.0149 47.5155 53.3743 46.828 53.3743ZM52.0466 50.4994C52.5153 49.4526 53.0778 49.2182 53.4528 49.2182C53.5621 49.2182 53.7496 49.2963 53.8278 49.3744C53.859 49.6713 53.6246 50.2494 53.4215 50.4838C53.3121 50.4369 53.1872 50.3744 53.0309 50.3744C52.734 50.3744 52.1247 50.8431 51.7497 52.8743C51.7185 53.0462 51.6716 53.1087 51.5778 53.1556C51.4216 53.2493 50.8279 53.3118 50.5466 53.3274C50.6872 52.5931 50.906 51.1088 50.9997 50.2338C51.031 50.015 51.031 49.5932 51.0154 49.4369C51.1872 49.3588 51.8591 49.2026 51.9997 49.2026C52.0778 49.2026 52.1403 49.6869 52.0153 50.4838H52.0466V50.4994ZM55.1871 52.4681C55.6246 52.4681 56.4214 51.7025 56.6402 50.2338C56.6558 50.14 56.6558 50.1244 56.6714 50.0307C56.5777 49.9994 56.437 49.9682 56.312 49.9682C55.9839 49.9682 55.6402 50.0619 55.3433 50.4838C55.0308 50.9213 54.8902 51.4681 54.8902 51.9056C54.9058 52.265 54.9996 52.4681 55.1871 52.4681ZM53.7496 52.0618C53.7496 51.5306 53.9215 50.6244 54.5933 49.9525C55.1715 49.3588 55.8589 49.2182 56.4995 49.2182C56.9214 49.2182 57.4839 49.3588 57.8432 49.4213C57.7495 49.8119 57.5464 51.2962 57.437 52.1556C57.3901 52.515 57.3745 53.0306 57.3901 53.2181C57.0933 53.343 56.5464 53.3743 56.3902 53.3743C56.312 53.3743 56.2964 53.0149 56.312 52.6556C56.3277 52.5462 56.3433 52.3743 56.3433 52.2962C55.9996 52.8743 55.3121 53.3587 54.5933 53.3587C54.0934 53.3743 53.7496 52.9368 53.7496 52.0618Z" fill="#373535"/>
<path d="M52.109 34.1089C52.4058 37.5307 47.0154 40.7962 40.0625 41.3899C33.1096 41.9836 27.2505 39.6868 26.9536 36.2651C26.6567 32.8433 32.0472 29.5778 39 28.9841C45.9373 28.3904 51.8121 30.6715 52.109 34.1089Z" fill="#BBE6FB"/>
<path d="M39.1874 29.375C36.5313 29.3282 33.4376 30.3906 31.1252 31.375C30.8909 32.0624 30.7502 32.7968 30.7502 33.5624C30.7502 37.6247 34.422 40.9215 38.9531 40.9215C43.4842 40.9215 47.1715 37.6404 47.1715 33.5624C47.1715 32.2812 46.7966 31.0625 46.156 30.0156C44.3123 29.7344 41.7655 29.4219 39.1874 29.375Z" fill="white"/>
<path d="M38.9688 29.375C37.5001 29.2813 34.9689 30.0469 32.8596 30.8125C32.5315 31.5624 32.3596 32.3905 32.3596 33.2655C32.3596 36.8279 35.5939 39.7184 39 39.7184C42.3905 39.7184 45.3904 36.8279 45.6404 33.2655C45.7185 32.1093 45.3279 31.0156 44.7654 30.0781C42.5936 29.7031 40.2812 29.4687 38.9688 29.375Z" fill="white"/>
<path d="M35.2033 32.8123C35.3908 32.4061 35.6564 32.2186 35.9221 31.8905C35.8908 31.8124 35.8283 31.5468 35.8283 31.4686C35.8283 31.0624 36.1564 30.7499 36.547 30.7499C36.6408 30.7499 36.7345 30.7655 36.8126 30.7968C38.0157 29.8749 39.5938 29.4843 41.1875 29.8437C41.3281 29.8749 41.4687 29.9218 41.6094 29.9531C40.0469 29.7343 38.2657 30.2968 37.0626 31.2655C37.0939 31.3593 37.2033 31.5936 37.2033 31.703C37.2033 32.1092 36.9376 32.203 36.547 32.203C36.4533 32.203 36.3752 32.1874 36.2814 32.1561C36.0158 32.5155 35.6721 33.2186 35.5158 33.6561C36.1877 34.2498 36.7814 34.4685 37.5626 34.7654C37.5626 34.7341 37.5939 34.6873 37.5939 34.656C37.5939 33.4529 38.6563 32.4686 39.8594 32.4686C40.9375 32.4686 41.8437 33.2498 42.0156 34.281C42.5624 33.9373 43.0781 33.6717 43.4687 33.1717C43.3749 33.0623 43.2812 32.7342 43.2812 32.578C43.2812 32.2186 43.578 31.9217 43.9374 31.9217C43.9843 31.9217 44.0311 31.9217 44.0936 31.9374C44.2968 31.5155 44.453 31.078 44.5468 30.6249C42.6562 29.2187 39.0001 29.4218 39.0001 29.4218C39.0001 29.4218 36.0939 29.2656 34.1252 30.2343C34.2659 31.1405 34.6409 32.0467 35.2033 32.8123Z" fill="#373535"/>
<path d="M44.2341 32.2656C44.3747 32.3906 44.4372 32.4843 44.4997 32.5937C44.6716 32.9062 44.3279 33.203 43.9529 33.203C43.9216 33.203 43.8748 33.203 43.8435 33.1874C43.4373 33.828 42.7186 34.6405 42.078 35.0623C43.0623 35.2186 43.9841 35.6092 44.7029 36.2186C45.2341 35.2655 45.6403 33.8749 45.6403 32.7031C45.6403 31.8125 45.2497 31.1562 44.656 30.6719C44.6404 31.1562 44.3747 31.8281 44.2341 32.2656ZM36.2969 38.3279C36.625 37.4216 37.4219 36.7342 38.1875 36.1248C38.0781 35.9686 37.9062 35.5936 37.8437 35.4217C36.9219 35.1405 36.1094 34.6092 35.4688 33.9218C35.4688 33.9374 35.4532 33.9686 35.4532 33.9843C35.3282 34.5155 35.3126 35.0623 35.3751 35.578C35.8125 35.6561 36.1563 36.0467 36.1563 36.5154C36.1563 36.7967 35.9063 37.1873 35.7188 37.3748C35.9063 37.781 36.0469 37.9997 36.2969 38.3279Z" fill="#373535"/>
<path d="M36.2345 39.0778C35.8439 38.6872 35.5783 37.9216 35.3283 37.4372C35.2814 37.4372 35.2345 37.4529 35.1876 37.4529C34.6564 37.4529 34.1096 37.0154 34.2346 36.4998C34.2971 36.2185 34.5002 36.031 34.8127 35.8748C34.7345 35.2811 34.7189 34.453 34.8595 33.8436C34.8908 33.6718 34.9845 33.5936 35.0314 33.4218C34.4533 32.578 34.0783 31.4531 34.0783 30.3437V30.2188C33.094 30.7187 32.3596 31.4843 32.3596 32.703C32.3596 35.4061 33.9221 38.0622 36.2345 39.0934V39.0778ZM41.9374 35.3436C41.6405 36.1873 40.8281 36.8123 39.875 36.8123C39.3594 36.8123 38.8906 36.6404 38.5313 36.3435C37.7657 36.9373 37.0626 37.9841 36.7188 38.9059C36.8751 39.0778 36.9845 39.2184 37.172 39.3747C37.7032 39.5153 38.4532 39.3747 39.0313 39.3747C41.3593 39.3747 43.4374 38.3435 44.6248 36.5154C43.8123 35.9529 42.8749 35.4217 41.9374 35.3436Z" fill="#373535"/>
<path d="M35.1408 33.1248C35.3283 32.7186 35.5471 32.3592 35.8127 32.0155C35.7814 31.9374 35.7658 31.8436 35.7658 31.7655C35.7658 31.3593 36.0939 31.0468 36.4845 31.0468C36.5783 31.0468 36.672 31.0624 36.7502 31.0937C37.9532 30.1718 39.5313 29.7812 41.125 30.1406C41.2656 30.1718 41.4062 30.2187 41.5469 30.2499C39.9844 30.0312 38.3595 30.5155 37.1564 31.4843C37.1876 31.578 37.2189 31.6718 37.2189 31.7655C37.2189 32.1717 36.8908 32.4842 36.5002 32.4842C36.4064 32.4842 36.3283 32.4686 36.2345 32.4374C35.9689 32.7967 35.7346 33.203 35.5783 33.6404C36.1564 34.2498 36.8595 34.7498 37.6407 35.031V34.9216C37.6407 33.7186 38.6251 32.7342 39.8282 32.7342C40.9063 32.7342 41.8125 33.5154 41.9843 34.5467C42.5312 34.2029 42.9999 33.7654 43.4062 33.2498C43.3124 33.1405 43.2499 32.9998 43.2499 32.8436C43.2499 32.4842 43.5468 32.1874 43.9061 32.1874C43.953 32.1874 43.9999 32.1874 44.0624 32.203C44.2655 31.7811 44.4218 31.3436 44.5155 30.8905C42.6249 29.4843 38.9688 29.6875 38.9688 29.6875C38.9688 29.6875 36.0627 29.5312 34.094 30.4999C34.2034 31.453 34.5784 32.3592 35.1408 33.1248Z" fill="#1287B1"/>
<path d="M44.3279 32.375C44.4685 32.4999 44.5466 32.6718 44.5466 32.8593C44.5466 33.2187 44.2497 33.5155 43.8904 33.5155C43.8591 33.5155 43.8123 33.5155 43.781 33.4999C43.3748 34.1405 42.8279 34.6874 42.1873 35.0936C43.1248 35.2342 44.0154 35.6405 44.7497 36.2498C45.281 35.2967 45.5935 34.1874 45.5935 33.0156C45.5935 32.125 45.2028 31.4687 44.6091 30.9844C44.5779 31.4687 44.4841 31.9375 44.3279 32.375ZM36.3906 38.531C36.7188 37.6248 37.2812 36.8279 38.0468 36.2186C37.9375 36.0623 37.8437 35.9061 37.7812 35.7186C36.8594 35.4373 36.0469 34.9061 35.4063 34.2186C35.4063 34.2343 35.3907 34.2655 35.3907 34.2811C35.2657 34.8124 35.2501 35.3592 35.3126 35.8748C35.75 35.953 36.0938 36.3436 36.0938 36.8123C36.0938 37.0935 35.9688 37.3435 35.7813 37.5154C35.9375 37.8748 36.1563 38.2185 36.3906 38.531Z" fill="#1287B1"/>
<path d="M36.2345 39.0622C35.8439 38.6716 35.5158 38.2341 35.2658 37.7497C35.2189 37.7497 35.172 37.7654 35.1251 37.7654C34.5939 37.7654 34.1721 37.3435 34.1721 36.8123C34.1721 36.4373 34.3908 36.1092 34.7033 35.9529C34.6252 35.3592 34.6564 34.7655 34.797 34.1561C34.8283 33.9843 34.8908 33.8124 34.9377 33.6405C34.3595 32.7968 34.0158 31.7656 34.0158 30.6562V30.5312C33.0315 31.0312 32.2971 31.7968 32.2971 33.0155C32.2971 35.7186 33.9064 38.0466 36.2189 39.0778C36.2345 39.0778 36.2345 39.0778 36.2345 39.0622ZM41.8749 35.6561C41.578 36.4998 40.7656 37.1248 39.8125 37.1248C39.2969 37.1248 38.8281 36.9529 38.4688 36.656C37.7032 37.2498 37.1251 38.0622 36.7657 38.9841C36.922 39.1559 37.0938 39.3122 37.2657 39.4684C37.7969 39.6091 38.3594 39.6872 38.9375 39.6872C41.2656 39.6872 43.328 38.4841 44.5154 36.656C43.7342 36.0936 42.8124 35.7342 41.8749 35.6561Z" fill="#1287B1"/>
<path d="M41.9531 35.0936L43.9687 34.6092L41.9375 34.4999L43.5937 33.2499L41.7188 33.9218L42.9844 32.1562L41.2188 33.328L41.8281 31.2656L40.6251 32.9687L40.5938 30.8125L39.797 32.7343L39.1407 30.7969L39.172 33.078L38.0314 31.0312L38.6564 33.203L36.7971 31.8593L38.2501 33.6874L35.9377 32.8437L37.7502 34.1874L35.4221 34.2655L37.8127 34.8749L35.4221 35.3905L37.7814 35.5623L35.7971 36.8279L37.8439 36.0936L36.4221 37.8904L38.2189 36.4373L37.5783 38.8435L38.9689 36.8748L38.7814 39.1872L39.5626 37.0779L40.2345 39.281L40.3907 37.0623L41.3907 38.9528L40.7969 36.7967L42.6094 38.2029L41.4375 36.4061L43.4375 37.1873L41.9063 35.6873L43.9531 35.8436L41.9531 35.0936Z" fill="white"/>
<path d="M20.4382 38.9527C26.7036 32.6873 31.7035 30.7499 36.2502 29.8749C36.8439 29.7655 36.9689 28.4375 36.9689 28.4375C36.9689 28.4375 37.047 29.4062 37.4689 29.5312C37.8907 29.6562 38.4376 28.0156 38.4376 28.0156C38.4376 28.0156 37.9376 29.4843 38.4376 29.5781C38.9376 29.6562 39.875 28.1406 39.875 28.1406C39.875 28.1406 39.5001 29.4374 39.7501 29.5312C40 29.6093 41.2656 27.6406 41.2656 27.6406C41.2656 27.6406 40.5157 28.9374 41.2188 29.0781C41.9375 29.2031 42.9843 28.1875 42.9843 28.1875C42.9843 28.1875 42.1718 29.1093 42.5312 29.2499C44.0936 29.7968 45.3436 27.7812 45.3436 27.7812C45.3436 27.7812 45.0467 28.6718 44.2968 29.6405C45.9373 30.0624 47.156 27.5937 47.156 27.5937L45.9373 30.0624C46.5623 30.3749 49.0779 27.4688 49.0779 27.4688C49.0779 27.4688 47.781 29.7343 47.0154 30.203C47.4373 30.5468 48.9529 29.1874 48.9529 29.1874C48.9529 29.1874 47.7341 30.703 48.2029 30.7811C48.8747 31.328 51.359 27.9687 51.359 27.9687C51.359 27.9687 50.3903 29.953 48.9685 31.4999C50.1559 32.1092 53.1246 28.2812 53.1246 28.2812C53.1246 28.2812 53.0465 29.4999 50.8903 31.4374C52.484 31.2342 54.5464 28.2031 54.5464 28.2031C54.5464 28.2031 53.7964 30.4686 51.984 32.078C53.5464 31.9217 56.062 28.0469 56.062 28.0469C56.062 28.0469 55.0933 30.7343 53.1246 32.2967C55.312 32.7811 58.4681 29.5156 58.4681 29.5156C58.4681 29.5156 57.2338 31.828 55.6089 32.7811C57.4213 33.4685 59.9056 30.6093 59.9056 30.6093C59.9056 30.6093 57.4213 34.4373 53.4683 34.2654C52.1715 34.2029 48.2498 30.328 39.8438 30.6405C28.7192 31.0467 26.3755 35.7653 20.4382 38.9527Z" fill="#373535" fill-opacity="0.35"/>
<path d="M20.6882 38.484C26.9536 32.2186 31.9535 30.2811 36.5002 29.4062C37.0939 29.2968 37.2189 27.9687 37.2189 27.9687C37.2189 27.9687 37.297 28.9374 37.7189 29.0624C38.1407 29.1874 38.6876 27.5469 38.6876 27.5469C38.6876 27.5469 38.1876 29.0156 38.6876 29.1093C39.1876 29.1874 40.125 27.6719 40.125 27.6719C40.125 27.6719 39.7501 28.9687 40.0001 29.0624C40.25 29.1406 41.5156 27.1719 41.5156 27.1719C41.5156 27.1719 40.7657 28.4687 41.4688 28.6093C42.1875 28.7343 43.2343 27.7187 43.2343 27.7187C43.2343 27.7187 42.4218 28.6406 42.7812 28.7812C44.3437 29.328 45.5936 27.3125 45.5936 27.3125C45.5936 27.3125 45.2967 28.2031 44.5468 29.1718C46.1873 29.5937 47.406 27.125 47.406 27.125L46.1873 29.5937C46.8123 29.9374 49.3435 27.0312 49.3435 27.0312C49.3435 27.0312 48.0466 29.2968 47.2811 29.7655C47.7029 30.0624 49.2185 28.7187 49.2185 28.7187C49.2185 28.7187 47.9998 30.2343 48.4685 30.3124C49.1404 30.8592 51.6246 27.5 51.6246 27.5C51.6246 27.5 50.6403 29.4843 49.2185 31.0311C50.4059 31.6248 53.3902 27.7968 53.3902 27.7968C53.3902 27.7968 53.3121 29.0156 51.1559 30.953C52.7496 30.7499 54.812 27.7187 54.812 27.7187C54.812 27.7187 54.0621 29.9843 52.2496 31.5936C53.8121 31.4373 56.3276 27.5625 56.3276 27.5625C56.3276 27.5625 55.3589 30.2499 53.3902 31.8123C55.5776 32.2967 58.7338 29.0312 58.7338 29.0312C58.7338 29.0312 57.4994 31.3436 55.8745 32.2967C57.6869 32.9842 60.1712 30.1249 60.1712 30.1249C60.1712 30.1249 57.6869 33.9529 53.7339 33.781C52.4371 33.7185 48.5154 29.8437 40.1094 30.1561C28.9848 30.578 26.6255 35.281 20.6882 38.484Z" fill="#373535"/>
<path d="M20.282 39.6401C23.5944 41.2963 26.6255 39.3901 30.4379 40.4682C33.344 41.2807 36.8751 42.2963 41.6719 41.5932C46.4686 40.9057 50.5622 38.812 52.5308 35.0934C53.1402 33.4372 55.6245 35.4684 55.6245 35.4684C55.6245 35.4684 53.8121 34.7184 53.8589 35.0621C53.9058 35.4215 56.5776 36.6558 56.5776 36.6558C56.5776 36.6558 54.1558 35.9059 54.312 36.4683C54.4527 37.0308 57.3432 39.312 57.3432 39.312C57.3432 39.312 54.0464 36.8433 53.7808 37.1871C53.4996 37.5308 55.1714 38.8901 55.1714 38.8901C55.1714 38.8901 52.4215 37.1871 51.4528 37.6871C50.7497 38.0464 54.312 40.3745 54.312 40.3745C54.312 40.3745 51.9996 38.6089 51.4528 39.0776C50.9059 39.5464 54.062 43.3275 54.062 43.3275C54.062 43.3275 50.4684 39.4526 50.1091 39.6401C49.7497 39.8276 51.0934 41.6869 51.0934 41.6869C51.0934 41.6869 49.3435 39.7495 48.8591 40.0776C48.3747 40.4213 51.3903 45.4368 51.3903 45.4368C51.3903 45.4368 48.1248 40.2963 46.7654 41.1557C48.8747 45.7961 48.0935 46.4524 48.0935 46.4524C48.0935 46.4524 47.8279 41.7182 45.1874 41.8432C43.8593 41.9057 45.8123 45.3743 45.8123 45.3743C45.8123 45.3743 44.0155 42.2025 42.8124 42.265C45.0155 46.4524 44.2343 48.1398 44.2343 48.1398C44.2343 48.1398 44.5936 44.5618 41.6094 42.5775C42.7499 43.5931 40.8906 48.1398 40.8906 48.1398C40.8906 48.1398 42.5156 41.4369 39.6876 42.7181C39.2344 42.9212 39.6563 46.0618 39.6563 46.0618C39.6563 46.0618 39.0938 42.4681 38.2345 42.6556C37.7345 42.765 35.0783 47.6398 35.0783 47.6398C35.0783 47.6398 37.2501 42.3744 36.5939 42.5931C36.1096 42.7494 35.2033 44.9212 35.2033 44.9212C35.2033 44.9212 35.6408 42.7806 35.2033 42.6556C34.7658 42.5306 32.2972 44.9212 32.2972 44.9212C32.2972 44.9212 34.1252 42.7806 33.8128 42.3275C33.3284 41.6557 32.7815 41.6244 32.1097 41.89C31.141 42.265 29.8441 44.0306 29.8441 44.0306C29.8441 44.0306 31.141 42.2338 30.9222 41.5775C30.5629 40.4995 26.8286 43.6556 26.8286 43.6556C26.8286 43.6556 29.0317 41.5775 28.5317 41.1244C28.0317 40.6869 25.2818 40.8119 24.4381 40.8119C21.9225 40.8432 21.0476 40.2495 20.282 39.6401Z" fill="#373535" fill-opacity="0.35"/>
<path d="M20.1414 39.2651C23.4537 40.9213 26.4849 39.0151 30.2972 40.0932C33.2034 40.9057 36.7345 41.9213 41.5312 41.2182C46.3279 40.5307 50.4215 38.437 52.3902 34.7184C52.9996 33.0622 55.4839 35.0934 55.4839 35.0934C55.4839 35.0934 53.6714 34.3434 53.7183 34.6871C53.7652 35.0465 56.437 36.2808 56.437 36.2808C56.437 36.2808 54.0152 35.5309 54.1714 36.0933C54.312 36.6558 57.2026 38.937 57.2026 38.937C57.2026 38.937 53.937 36.4527 53.6714 36.7964C53.4058 37.1402 55.062 38.4995 55.062 38.4995C55.062 38.4995 52.3121 36.7964 51.3434 37.2964C50.6403 37.6558 54.2027 39.9838 54.2027 39.9838C54.2027 39.9838 51.8902 38.2183 51.3434 38.687C50.7965 39.1557 53.9527 42.9369 53.9527 42.9369C53.9527 42.9369 50.3747 39.062 50.0153 39.2495C49.6559 39.437 50.9996 41.2963 50.9996 41.2963C50.9996 41.2963 49.2185 39.3745 48.7341 39.7026C48.2497 40.0463 51.2496 45.0618 51.2496 45.0618C51.2496 45.0618 47.9841 39.9057 46.6404 40.7651C48.7654 45.4211 47.9685 46.0774 47.9685 46.0774C47.9685 46.0774 47.7029 41.3432 45.0624 41.4682C43.7343 41.5307 45.6873 44.9993 45.6873 44.9993C45.6873 44.9993 43.9061 41.8431 42.7031 41.9056C44.9061 46.093 44.1249 47.7804 44.1249 47.7804C44.1249 47.7804 44.4843 44.2024 41.5 42.2181C42.6406 43.2337 40.7813 47.7804 40.7813 47.7804C40.7813 47.7804 42.4062 41.0775 39.5782 42.3588C39.1251 42.5619 39.5469 45.7024 39.5469 45.7024C39.5469 45.7024 38.9844 42.1088 38.1251 42.2963C37.6251 42.4056 34.969 47.2805 34.969 47.2805C34.969 47.2805 37.1408 42.015 36.4845 42.2338C36.0002 42.39 35.094 44.5618 35.094 44.5618C35.094 44.5618 35.5314 42.4212 35.094 42.2963C34.6565 42.1713 32.1878 44.5618 32.1878 44.5618C32.1878 44.5618 34.0159 42.4212 33.7034 41.9681C33.219 41.2963 32.6722 41.265 32.0003 41.5307C31.0316 41.9056 29.7348 43.6712 29.7348 43.6712C29.7348 43.6712 31.0316 41.8744 30.8129 41.2182C30.4535 40.1401 26.7193 43.2962 26.7193 43.2962C26.7193 43.2962 28.9223 41.2182 28.4223 40.7651C27.9223 40.3276 25.1724 40.4526 24.3287 40.4526C21.7819 40.4682 20.907 39.8745 20.1414 39.2651Z" fill="#373535"/>
</g>
<defs>
<clipPath id="clip0_245_36318">
<rect width="40" height="26.4053" fill="white" transform="translate(20 27)"/>
</clipPath>
</defs>
</svg>
