<svg width="80" height="80" viewBox="0 0 80 80" fill="none" xmlns="http://www.w3.org/2000/svg">
<g clip-path="url(#clip0_245_36410)">
<path fill-rule="evenodd" clip-rule="evenodd" d="M57.3194 39.9968C57.2831 39.9192 57.2667 39.8802 57.2472 39.843C56.7223 38.8445 56.1988 37.8461 55.6685 36.8476C55.6154 36.7475 55.6221 36.6884 55.6948 36.602C56.53 35.6265 57.3544 34.6456 58.191 33.6741C58.2205 33.6398 58.2469 33.6035 58.2579 33.5424C58.0151 33.6057 57.7722 33.6683 57.528 33.7327C56.5201 33.9998 55.5041 34.2656 54.5056 34.5368C54.4118 34.5621 54.3693 34.5347 54.3221 34.4567C53.75 33.5 53.1739 32.5407 52.595 31.5962C52.5655 31.5467 52.5332 31.4987 52.4701 31.4572C52.4237 31.7123 52.3767 31.9659 52.3311 32.2209C52.1705 33.1209 52.01 34.0155 51.8508 34.9195C51.8333 35.0165 51.8096 35.1138 51.8012 35.2109C51.7933 35.3038 51.7454 35.338 51.6609 35.3647C50.4722 35.7385 49.2862 36.1149 48.0988 36.4914C48.0467 36.5077 47.9956 36.5293 47.9396 36.5799C48.9111 36.9658 49.8826 37.3517 50.8675 37.7443C50.8316 37.7728 50.8079 37.7949 50.7816 37.8118C50.1744 38.2044 49.5659 38.5971 48.9601 38.9911C48.8873 39.0386 48.8299 39.0453 48.7482 39.0085C48.0223 38.6819 47.291 38.3608 46.5624 38.037C46.2359 37.8913 45.9431 37.6983 45.7151 37.4177C45.1983 36.7862 45.3008 36.0684 45.989 35.6231C46.2143 35.4788 46.4707 35.3722 46.7257 35.2885C47.8901 34.9094 49.0599 34.5437 50.2203 34.1767C50.3182 34.1455 50.3633 34.1018 50.3822 33.9959C50.5387 33.0946 50.6993 32.1879 50.8625 31.2974C50.9494 30.8157 50.9953 30.3232 51.2295 29.8806C51.3193 29.7106 51.4265 29.5446 51.5561 29.403C52.0202 28.8875 52.6665 28.8687 53.1617 29.3587C53.3277 29.5247 53.4693 29.719 53.5921 29.92C54.1318 30.8011 54.6635 31.6876 55.1978 32.5781C55.2605 32.6829 55.3169 32.704 55.4325 32.6735C56.7346 32.324 58.0366 31.98 59.3454 31.6359C59.6153 31.5648 59.8865 31.539 60.1631 31.5907C60.7635 31.7029 61.0266 32.1601 60.8229 32.7416C60.7307 33.0061 60.5706 33.2287 60.3911 33.4405C59.4817 34.5105 58.5696 35.5859 57.6656 36.6518C57.5912 36.7393 57.5898 36.8016 57.6413 36.9001C58.1864 37.9269 58.7261 38.951 59.2739 39.9899C59.4036 40.2355 59.5033 40.4919 59.506 40.7739C59.5123 41.4161 59.0419 41.9423 58.4036 42.0368C58.0461 42.089 57.7142 42.0126 57.3782 41.9093C56.5619 41.657 55.7456 41.4087 54.9225 41.1618C54.8465 41.1391 54.8175 41.109 54.8039 41.0274C54.71 40.4512 54.6069 39.8765 54.5071 39.3003C54.5045 39.2845 54.5092 39.2677 54.5119 39.2323C55.4443 39.49 56.3739 39.7437 57.3319 40.0095" fill="#E25A1C"/>
<path fill-rule="evenodd" clip-rule="evenodd" d="M55.7003 48.4297C54.9636 48.4286 54.2295 48.425 53.4874 48.4282C53.3899 48.4282 53.335 48.4003 53.281 48.3175C52.4094 46.9898 51.5269 45.6594 50.6634 44.3371C50.6355 44.295 50.6059 44.2544 50.5564 44.1833C50.3689 45.6135 50.184 47.0168 49.9992 48.42H48.0697C48.0924 48.2324 48.1125 48.0503 48.1362 47.8695C48.3238 46.4258 48.514 44.9955 48.7029 43.5518C48.8837 42.1756 49.0632 40.7993 49.2467 39.423C49.2519 39.3824 49.2793 39.3302 49.3125 39.3086C49.9764 38.8755 50.6429 38.4464 51.3094 38.0174C51.319 38.011 51.3327 38.0105 51.3669 38.0005C51.1659 39.5387 50.9662 41.0633 50.7651 42.588C50.7731 42.5933 50.7809 42.5991 50.7889 42.6044C51.8346 41.4467 52.8803 40.2836 53.9462 39.1097C53.9768 39.2878 54.0037 39.4403 54.03 39.5928C54.1049 40.0286 54.1771 40.4671 54.2567 40.9029C54.273 40.9909 54.2492 41.0446 54.1908 41.1067C53.5148 41.8137 52.8415 42.5234 52.1669 43.2385C52.1374 43.2697 52.1094 43.3018 52.0757 43.3388C52.0973 43.3729 52.1158 43.4062 52.1374 43.4367C53.2991 45.0693 54.4581 46.702 55.6185 48.3346C55.6395 48.3641 55.67 48.3873 55.6959 48.4137V48.4394" fill="#3C3A3E"/>
<path fill-rule="evenodd" clip-rule="evenodd" d="M32.8976 44.1119C32.868 43.9622 32.847 43.7409 32.78 43.5344C32.4562 42.5373 31.4348 41.9963 30.3783 42.2378C29.2166 42.5076 28.3814 43.4211 28.2735 44.6125C28.1844 45.4895 28.6566 46.3396 29.5337 46.6499C30.2407 46.9049 30.9234 46.7983 31.5576 46.4192C32.3955 45.9173 32.8488 45.1711 32.9069 44.1119H32.8976ZM27.7973 47.8224C27.7404 48.2515 27.6856 48.6549 27.6327 49.0597C27.5621 49.5967 27.491 50.1351 27.4235 50.6788C27.4157 50.7416 27.3967 50.7695 27.3292 50.769C26.799 50.767 26.2687 50.7675 25.7371 50.7664C25.7249 50.7664 25.7128 50.7601 25.6843 50.7517C25.7164 50.498 25.7476 50.243 25.7808 49.9894C25.8978 49.0988 26.0142 48.2083 26.133 47.3178C26.2692 46.2977 26.3758 45.2804 26.5499 44.2684C26.8575 42.4739 28.3849 40.9357 30.1659 40.5444C31.2008 40.3205 32.1899 40.4242 33.0939 41.0072C33.9952 41.5874 34.5106 42.4375 34.632 43.4899C34.7994 44.9876 34.2475 46.2289 33.1883 47.2679C32.4894 47.9439 31.6501 48.3729 30.6922 48.5187C29.6977 48.6684 28.7627 48.5029 27.9261 47.9169C27.8955 47.8953 27.8623 47.8764 27.8097 47.8432" fill="#3C3A3E"/>
<path fill-rule="evenodd" clip-rule="evenodd" d="M26.9068 39.3224C26.3131 39.7649 25.7396 40.1913 25.1662 40.619C25.0735 40.4733 24.9908 40.3276 24.8936 40.1913C24.644 39.8418 24.3337 39.5814 23.883 39.5504C23.5079 39.524 23.1868 39.6473 22.9318 39.9241C22.7038 40.1711 22.6741 40.5232 22.887 40.8025C23.1218 41.1102 23.3781 41.4016 23.6412 41.6863C24.0771 42.1585 24.5318 42.6119 24.9635 43.0895C25.3562 43.5213 25.6705 44.0044 25.7677 44.6007C25.8832 45.3024 25.743 45.9635 25.4115 46.5842C24.7976 47.7243 23.8328 48.3922 22.551 48.5946C21.987 48.6857 21.4257 48.6679 20.8779 48.5059C20.148 48.2914 19.6393 47.8124 19.3128 47.1432C19.1974 46.9044 19.109 46.652 19.0051 46.3957C19.6433 46.0543 20.2654 45.721 20.8941 45.3851C20.9157 45.4373 20.9315 45.481 20.9516 45.5227C21.0591 45.7372 21.1472 45.9653 21.2795 46.1636C21.6748 46.7505 22.3117 46.9286 22.9526 46.6385C23.1185 46.5637 23.2791 46.4591 23.4154 46.3377C23.8309 45.968 23.9092 45.4525 23.6016 44.9884C23.4248 44.7212 23.2035 44.4811 22.9876 44.2422C22.4722 43.6701 21.9352 43.1156 21.436 42.5287C21.0892 42.1266 20.8531 41.6597 20.7775 41.1254C20.6959 40.5371 20.8134 39.9839 21.1189 39.4928C21.8785 38.2636 22.9809 37.6308 24.4381 37.6713C25.2706 37.7013 25.9358 38.0909 26.4485 38.7385C26.601 38.9301 26.744 39.1285 26.8992 39.3363" fill="#3C3A3E"/>
<path fill-rule="evenodd" clip-rule="evenodd" d="M40.9932 45.866C40.8962 46.6068 40.8043 47.3098 40.7098 48.0114C40.7046 48.0473 40.6766 48.0957 40.6466 48.1095C39.2028 48.776 37.3138 48.6829 36.14 47.3417C35.5058 46.6212 35.24 45.7631 35.2791 44.8186C35.3713 42.6193 37.1951 40.6898 39.3809 40.4199C40.656 40.2634 41.7692 40.6075 42.6327 41.5992C43.221 42.2739 43.4935 43.0834 43.453 43.9739C43.4267 44.5622 43.3344 45.1465 43.2615 45.728C43.1576 46.5565 43.0442 47.3876 42.9349 48.2107C42.9307 48.2395 42.9249 48.2691 42.9181 48.3066H41.2045C41.2271 48.1163 41.2482 47.9301 41.2725 47.7439C41.3969 46.7873 41.5342 45.828 41.6435 44.87C41.7115 44.2736 41.6688 43.6813 41.3953 43.1294C41.1052 42.5425 40.6194 42.2308 39.9785 42.1633C38.6535 42.023 37.3879 42.9432 37.1181 44.2412C36.9319 45.1021 37.2256 45.9278 37.9114 46.3866C38.5793 46.8305 39.2877 46.8318 40.0163 46.5444C40.386 46.3987 40.699 46.1666 40.9986 45.855" fill="#3C3A3E"/>
<path fill-rule="evenodd" clip-rule="evenodd" d="M48.2793 40.6445C48.2007 41.2409 48.1228 41.8279 48.0445 42.4256C47.6802 42.4256 47.324 42.4236 46.9678 42.4261C46.679 42.4283 46.4159 42.615 46.3282 42.8849C46.2945 42.9903 46.2819 43.1035 46.2671 43.2141C46.0863 44.5904 45.9068 45.9531 45.7274 47.3159C45.6821 47.6613 45.6383 48.0067 45.593 48.3575H43.7985C43.8317 48.0944 43.8632 47.8394 43.8964 47.5844C44.0129 46.6966 44.1298 45.8034 44.2472 44.9263C44.349 44.1586 44.4402 43.3882 44.5603 42.6191C44.7208 41.5936 45.7409 40.6761 46.7731 40.6356C47.2669 40.6141 47.7621 40.632 48.2708 40.632" fill="#3C3A3E"/>
<path d="M57.8591 48.4298V47.6742H57.8549L57.5581 48.4298H57.4638L57.1669 47.6742H57.1622V48.4298H57.0138V47.5244H57.2445L57.5144 48.2125L57.7802 47.5244H58.0096V48.4298H57.8591ZM56.5449 47.6459V48.4298H56.3965V47.6459H56.1132V47.5245H56.8296V47.6459H56.5463" fill="#3C3A3E"/>
<path d="M29.295 38.0538H29.7389L29.634 37.3819L29.295 38.0538ZM29.8091 38.4883H29.071L28.8363 38.9484H28.3127L29.4664 36.7896H29.971L30.3636 38.9484H29.8793L29.8096 38.4883" fill="#3C3A3E"/>
<path d="M32.4523 37.231H32.1892L32.1007 37.7289H32.3638C32.523 37.7289 32.6485 37.6246 32.6485 37.428C32.6485 37.2978 32.5694 37.231 32.4515 37.231H32.4523ZM31.8154 36.7965H32.5063C32.8679 36.7965 33.1202 37.0124 33.1202 37.3821C33.1202 37.849 32.791 38.162 32.3214 38.162H32.0232L31.8829 38.9513H31.4323L31.8127 36.7925" fill="#3C3A3E"/>
<path d="M34.6516 38.0538H35.0955L34.9907 37.3819L34.6516 38.0538ZM35.1643 38.4883H34.4263L34.1915 38.9484H33.668L34.8216 36.7896H35.3262L35.7189 38.9484H35.2345L35.1649 38.4883" fill="#3C3A3E"/>
<path d="M38.0248 38.877C37.8723 38.9466 37.705 38.9881 37.5363 38.9881C36.9656 38.9881 36.608 38.5604 36.608 38.0248C36.608 37.3393 37.1842 36.7632 37.8696 36.7632C38.041 36.7632 38.1961 36.8043 38.323 36.8738L38.2597 37.3906C38.1648 37.2858 38.0114 37.2125 37.8225 37.2125C37.4299 37.2125 37.0804 37.5674 37.0804 37.9789C37.0804 38.2919 37.2774 38.5375 37.5877 38.5375C37.778 38.5375 37.9615 38.4642 38.0856 38.3634L38.0256 38.8761" fill="#3C3A3E"/>
<path d="M40.8582 38.0808H39.9205L39.768 38.9484H39.3187L39.6992 36.7896H40.1499L39.9988 37.6423H40.9365L41.089 36.7896H41.5396L41.1591 38.9484H40.7085L40.8596 38.0808" fill="#3C3A3E"/>
<path d="M42.4774 38.9445L42.8579 36.7856H44.0534L43.9774 37.2201H43.2326L43.1566 37.6384H43.8407L43.7648 38.0729H43.0807L43.0047 38.5073H43.7495L43.6736 38.9418H42.4781" fill="#3C3A3E"/>
</g>
<defs>
<clipPath id="clip0_245_36410">
<rect width="42" height="21.8116" fill="white" transform="translate(19 29)"/>
</clipPath>
</defs>
</svg>
