<svg width="80" height="80" viewBox="0 0 80 80" fill="none" xmlns="http://www.w3.org/2000/svg">
<g clip-path="url(#clip0_245_36355)">
<path d="M28.1554 33.3845C29.3455 33.3845 30.3103 32.4043 30.3103 31.1952C30.3103 29.9861 29.3455 29.0059 28.1554 29.0059C26.9653 29.0059 26.0005 29.9861 26.0005 31.1952C26.0005 32.4043 26.9653 33.3845 28.1554 33.3845Z" fill="#509EE3"/>
<path d="M28.1554 39.5149C29.3455 39.5149 30.3103 38.5347 30.3103 37.3256C30.3103 36.1164 29.3455 35.1362 28.1554 35.1362C26.9653 35.1362 26.0005 36.1164 26.0005 37.3256C26.0005 38.5347 26.9653 39.5149 28.1554 39.5149Z" fill="#509EE3"/>
<path opacity="0.2" d="M34.1891 33.3845C35.3792 33.3845 36.344 32.4043 36.344 31.1952C36.344 29.9861 35.3792 29.0059 34.1891 29.0059C32.999 29.0059 32.0342 29.9861 32.0342 31.1952C32.0342 32.4043 32.999 33.3845 34.1891 33.3845Z" fill="#509EE3"/>
<path d="M34.1891 39.5745C35.3792 39.5745 36.344 38.5943 36.344 37.3851C36.344 36.176 35.3792 35.1958 34.1891 35.1958C32.999 35.1958 32.0342 36.176 32.0342 37.3851C32.0342 38.5943 32.999 39.5745 34.1891 39.5745Z" fill="#509EE3"/>
<path opacity="0.2" d="M40.2228 33.3845C41.4129 33.3845 42.3776 32.4043 42.3776 31.1952C42.3776 29.9861 41.4129 29.0059 40.2228 29.0059C39.0326 29.0059 38.0679 29.9861 38.0679 31.1952C38.0679 32.4043 39.0326 33.3845 40.2228 33.3845Z" fill="#509EE3"/>
<path opacity="0.2" d="M40.2228 26.3787C41.4129 26.3787 42.3776 25.3985 42.3776 24.1893C42.3776 22.9802 41.4129 22 40.2228 22C39.0326 22 38.0679 22.9802 38.0679 24.1893C38.0679 25.3985 39.0326 26.3787 40.2228 26.3787Z" fill="#509EE3"/>
<path opacity="0.2" d="M40.2228 39.5745C41.4129 39.5745 42.3776 38.5943 42.3776 37.3851C42.3776 36.176 41.4129 35.1958 40.2228 35.1958C39.0326 35.1958 38.0679 36.176 38.0679 37.3851C38.0679 38.5943 39.0326 39.5745 40.2228 39.5745Z" fill="#509EE3"/>
<path opacity="0.2" d="M46.2565 33.3845C47.4466 33.3845 48.4113 32.4043 48.4113 31.1952C48.4113 29.9861 47.4466 29.0059 46.2565 29.0059C45.0663 29.0059 44.1016 29.9861 44.1016 31.1952C44.1016 32.4043 45.0663 33.3845 46.2565 33.3845Z" fill="#509EE3"/>
<path d="M52.29 33.3845C53.4801 33.3845 54.4449 32.4043 54.4449 31.1952C54.4449 29.9861 53.4801 29.0059 52.29 29.0059C51.0999 29.0059 50.1351 29.9861 50.1351 31.1952C50.1351 32.4043 51.0999 33.3845 52.29 33.3845Z" fill="#509EE3"/>
<path d="M46.2565 39.5745C47.4466 39.5745 48.4113 38.5943 48.4113 37.3851C48.4113 36.176 47.4466 35.1958 46.2565 35.1958C45.0663 35.1958 44.1016 36.176 44.1016 37.3851C44.1016 38.5943 45.0663 39.5745 46.2565 39.5745Z" fill="#509EE3"/>
<path d="M52.29 39.5745C53.4801 39.5745 54.4449 38.5943 54.4449 37.3851C54.4449 36.176 53.4801 35.1958 52.29 35.1958C51.0999 35.1958 50.1351 36.176 50.1351 37.3851C50.1351 38.5943 51.0999 39.5745 52.29 39.5745Z" fill="#509EE3"/>
<path d="M28.1554 45.6448C29.3455 45.6448 30.3103 44.6646 30.3103 43.4554C30.3103 42.2463 29.3455 41.2661 28.1554 41.2661C26.9653 41.2661 26.0005 42.2463 26.0005 43.4554C26.0005 44.6646 26.9653 45.6448 28.1554 45.6448Z" fill="#509EE3"/>
<path opacity="0.2" d="M34.1891 45.7043C35.3792 45.7043 36.344 44.7242 36.344 43.515C36.344 42.3059 35.3792 41.3257 34.1891 41.3257C32.999 41.3257 32.0342 42.3059 32.0342 43.515C32.0342 44.7242 32.999 45.7043 34.1891 45.7043Z" fill="#509EE3"/>
<path d="M40.2228 45.7043C41.4129 45.7043 42.3776 44.7242 42.3776 43.515C42.3776 42.3059 41.4129 41.3257 40.2228 41.3257C39.0326 41.3257 38.0679 42.3059 38.0679 43.515C38.0679 44.7242 39.0326 45.7043 40.2228 45.7043Z" fill="#509EE3"/>
<path opacity="0.2" d="M46.2565 45.7043C47.4466 45.7043 48.4113 44.7242 48.4113 43.515C48.4113 42.3059 47.4466 41.3257 46.2565 41.3257C45.0663 41.3257 44.1016 42.3059 44.1016 43.515C44.1016 44.7242 45.0663 45.7043 46.2565 45.7043Z" fill="#509EE3"/>
<path d="M52.29 45.7043C53.4801 45.7043 54.4449 44.7242 54.4449 43.515C54.4449 42.3059 53.4801 41.3257 52.29 41.3257C51.0999 41.3257 50.1351 42.3059 50.1351 43.515C50.1351 44.7242 51.0999 45.7043 52.29 45.7043Z" fill="#509EE3"/>
<path d="M28.1554 51.7747C29.3455 51.7747 30.3103 50.7945 30.3103 49.5853C30.3103 48.3762 29.3455 47.396 28.1554 47.396C26.9653 47.396 26.0005 48.3762 26.0005 49.5853C26.0005 50.7945 26.9653 51.7747 28.1554 51.7747Z" fill="#509EE3"/>
<path opacity="0.2" d="M34.1891 51.8342C35.3792 51.8342 36.344 50.854 36.344 49.6449C36.344 48.4358 35.3792 47.4556 34.1891 47.4556C32.999 47.4556 32.0342 48.4358 32.0342 49.6449C32.0342 50.854 32.999 51.8342 34.1891 51.8342Z" fill="#509EE3"/>
<path opacity="0.2" d="M40.2228 51.8342C41.4129 51.8342 42.3776 50.854 42.3776 49.6449C42.3776 48.4358 41.4129 47.4556 40.2228 47.4556C39.0326 47.4556 38.0679 48.4358 38.0679 49.6449C38.0679 50.854 39.0326 51.8342 40.2228 51.8342Z" fill="#509EE3"/>
<path opacity="0.2" d="M40.2228 57.9646C41.4129 57.9646 42.3776 56.9844 42.3776 55.7753C42.3776 54.5661 41.4129 53.5859 40.2228 53.5859C39.0326 53.5859 38.0679 54.5661 38.0679 55.7753C38.0679 56.9844 39.0326 57.9646 40.2228 57.9646Z" fill="#509EE3"/>
<path opacity="0.2" d="M46.2565 51.8342C47.4466 51.8342 48.4113 50.854 48.4113 49.6449C48.4113 48.4358 47.4466 47.4556 46.2565 47.4556C45.0663 47.4556 44.1016 48.4358 44.1016 49.6449C44.1016 50.854 45.0663 51.8342 46.2565 51.8342Z" fill="#509EE3"/>
<path d="M52.29 51.8342C53.4801 51.8342 54.4449 50.854 54.4449 49.6449C54.4449 48.4358 53.4801 47.4556 52.29 47.4556C51.0999 47.4556 50.1351 48.4358 50.1351 49.6449C50.1351 50.854 51.0999 51.8342 52.29 51.8342Z" fill="#509EE3"/>
</g>
<defs>
<clipPath id="clip0_245_36355">
<rect width="28.4455" height="36" fill="white" transform="translate(26 22)"/>
</clipPath>
</defs>
</svg>
