<svg width="80" height="80" viewBox="0 0 80 80" fill="none" xmlns="http://www.w3.org/2000/svg">
<g clip-path="url(#clip0_245_36391)">
<path d="M38.417 24C37.849 24.016 37.292 24.286 36.823 24.807C36.563 25.099 36.344 25.422 36.162 25.771C35.693 26.656 35.599 27.656 35.422 28.625C35.094 30.443 34.771 32.26 34.453 34.078C34.417 34.292 34.328 34.38 34.13 34.437C31.771 35.182 29.411 35.921 27.067 36.687C26.5464 36.8485 26.0479 37.0742 25.583 37.359C24.192 38.244 23.984 39.698 25.026 40.974C25.49 41.537 26.083 41.927 26.74 42.219C28.209 42.875 29.678 43.521 31.141 44.183C31.167 44.193 31.188 44.199 31.209 44.209H31.204L32.949 44.923V45.017C32.683 47.725 32.428 50.434 32.173 53.147C32.121 53.704 32.157 54.251 32.355 54.788C32.777 55.944 33.772 56.314 34.86 55.72C35.355 55.449 35.751 55.059 36.11 54.631C37.938 52.464 39.771 50.303 41.594 48.131C41.74 47.954 41.865 47.933 42.078 48.001C42.542 48.157 43.005 48.308 43.469 48.465H43.474C43.5 48.481 43.531 48.491 43.568 48.507L43.761 48.564C45.422 49.116 47.334 49.595 48.995 50.147C49.531 50.324 49.828 50.366 50.391 50.277C50.808 50.214 51.183 50.194 51.495 49.964C51.8984 49.7454 52.2344 49.4207 52.4667 49.025C52.6989 48.6294 52.8187 48.1778 52.813 47.719C52.808 47.151 52.605 46.636 52.344 46.141C51.25 44.063 50.162 41.99 49.063 39.917C48.959 39.719 48.964 39.594 49.115 39.417C50.954 37.266 52.787 35.104 54.625 32.943C54.984 32.516 55.307 32.068 55.495 31.532C55.906 30.365 55.375 29.438 54.162 29.214C53.6136 29.1204 53.0512 29.1508 52.516 29.303C49.881 30.001 47.25 30.694 44.625 31.397C44.391 31.46 44.276 31.418 44.151 31.204C43.0874 29.4117 42.011 27.627 40.922 25.85C40.6775 25.4389 40.3855 25.058 40.052 24.715C39.557 24.225 38.984 23.986 38.417 24.001V24ZM38.646 28.938C38.7514 29.0095 38.8373 29.1061 38.896 29.219C40.057 31.146 41.219 33.073 42.375 35.005C42.469 35.161 42.557 35.213 42.745 35.161C44.781 34.619 46.813 34.078 48.849 33.541C49.339 33.411 49.828 33.286 50.323 33.156C50.3023 33.255 50.2558 33.3468 50.188 33.422C48.512 35.3966 46.8334 37.369 45.152 39.339C45.006 39.516 44.991 39.636 45.095 39.834C46.345 42.24 47.454 44.245 48.428 46.183L43.501 44.824L41.345 44.105C41.131 44.032 41.012 44.063 40.866 44.235C39.205 46.219 37.527 48.199 35.856 50.178C35.794 50.257 35.7108 50.3167 35.616 50.35C35.663 49.85 35.705 49.345 35.751 48.84C35.954 46.741 36.147 44.647 36.355 42.548C36.313 42.126 36.511 42.012 35.923 41.824C33.933 41.032 31.465 40.064 29.506 39.282C29.5957 39.1975 29.705 39.1366 29.824 39.105C32.22 38.345 34.616 37.584 37.017 36.829C37.184 36.777 37.283 36.709 37.298 36.522C37.314 36.324 37.366 36.126 37.397 35.933L38.366 30.48C38.46 29.964 38.554 29.454 38.647 28.938H38.646Z" fill="black"/>
</g>
<defs>
<clipPath id="clip0_245_36391">
<rect width="32" height="32" fill="white" transform="translate(24 24)"/>
</clipPath>
</defs>
</svg>
