<svg width="80" height="80" viewBox="0 0 80 80" fill="none" xmlns="http://www.w3.org/2000/svg">
<path d="M40 49.0931C31.161 49.0931 24 44.2971 24 38.3741C24 32.4581 31.161 27.6611 40 27.6611C48.839 27.6611 56 32.4581 56 38.3741C56 44.2971 48.839 49.0931 40 49.0931ZM42.448 31.8491C35.735 31.8491 30.287 35.1301 30.287 39.1771C30.287 43.2241 35.735 46.5051 42.448 46.5051C49.161 46.5051 54.125 44.2601 54.125 39.1771C54.125 34.0931 49.166 31.8491 42.448 31.8491ZM48.364 44.2601C48.8896 44.416 49.4032 44.6095 49.901 44.8391C50.188 44.9791 50.448 45.1671 50.677 45.3911C50.817 45.5421 50.937 45.7141 51.03 45.9021L54.849 52.3391H48.677L45.792 46.9221C45.5278 46.4499 45.2078 46.0111 44.839 45.6151C44.7466 45.5113 44.6334 45.4281 44.5068 45.3707C44.3802 45.3133 44.243 45.2832 44.104 45.2821H42.64V52.3341L37.183 52.3391V34.3181H48.146C48.146 34.3181 53.137 34.4071 53.137 39.1571C53.1414 40.4557 52.6501 41.707 51.7632 42.6555C50.8764 43.604 49.6609 44.1783 48.365 44.2611L48.364 44.2601ZM45.995 38.2241H42.688V41.2871H45.995C46.199 41.2895 46.4013 41.2507 46.5899 41.1729C46.7785 41.0952 46.9494 40.9802 47.0925 40.8348C47.2355 40.6894 47.3478 40.5166 47.4224 40.3268C47.4971 40.137 47.5327 39.934 47.527 39.7301C47.5385 39.5272 47.5066 39.324 47.4333 39.1344C47.36 38.9448 47.2471 38.773 47.102 38.6305C46.957 38.488 46.7832 38.3781 46.5923 38.3082C46.4014 38.2383 46.1977 38.21 45.995 38.2251V38.2241Z" fill="black"/>
</svg>
