<svg width="80" height="80" viewBox="0 0 80 80" fill="none" xmlns="http://www.w3.org/2000/svg">
<g clip-path="url(#clip0_245_36384)">
<path d="M18.2489 30.2127C17.9766 29.9392 17.5987 29.7708 17.1774 29.7708C16.7572 29.7708 16.3823 29.9392 16.1133 30.2127H16.1065C15.9664 30.3532 15.8554 30.5199 15.7799 30.7034C15.7044 30.8868 15.6659 31.0834 15.6665 31.2818C15.6665 31.7028 15.8349 32.0793 16.1065 32.3483L16.1133 32.3556C16.3823 32.6267 16.7572 32.7928 17.1775 32.7928C17.5987 32.7928 17.9766 32.6267 18.249 32.3556L18.2522 32.3483C18.5248 32.0793 18.6911 31.7028 18.6911 31.2818C18.6911 30.8631 18.5248 30.4842 18.2522 30.2127H18.249H18.2489ZM17.1774 50.8973C17.5987 50.8973 17.9766 50.7257 18.2489 50.4573L18.2521 50.4493C18.5248 50.1814 18.6911 49.8025 18.6911 49.386C18.6911 48.9651 18.5248 48.5879 18.2522 48.3151H18.249C17.9766 48.039 17.5987 47.8721 17.1775 47.8721C16.7572 47.8721 16.3823 48.039 16.1133 48.3151H16.1065C15.9663 48.4559 15.8553 48.6229 15.7798 48.8067C15.7043 48.9904 15.6658 49.1873 15.6665 49.386C15.6665 49.8026 15.8349 50.1815 16.1065 50.4493L16.1133 50.4573C16.253 50.5971 16.4189 50.7079 16.6015 50.7834C16.7842 50.8589 16.9799 50.8976 17.1775 50.8973H17.1774ZM25.4103 46.319C25.7845 46.2206 26.1233 45.9805 26.3303 45.6172L26.3581 45.5641C26.5422 45.22 26.5757 44.8222 26.4773 44.4693C26.4271 44.2769 26.3388 44.0964 26.2179 43.9386C26.0969 43.7807 25.9456 43.6486 25.7728 43.5501L25.7515 43.5357C25.4084 43.3459 25.0049 43.2973 24.6265 43.4001C24.2507 43.494 23.9131 43.7441 23.7073 44.1043C23.4989 44.4624 23.4556 44.8738 23.5553 45.2525C23.6581 45.6251 23.8991 45.9618 24.2595 46.1722H24.2616C24.6228 46.3799 25.0312 46.4171 25.4103 46.319ZM18.7274 38.7855C18.3309 38.39 17.7834 38.142 17.1776 38.142C16.5725 38.142 16.0267 38.39 15.6308 38.7856C15.4278 38.9885 15.267 39.2296 15.1575 39.4949C15.048 39.7602 14.9921 40.0445 14.9929 40.3316C14.9921 40.9131 15.2214 41.4713 15.6308 41.8843C16.0267 42.2775 16.5725 42.5233 17.1776 42.5233C17.7834 42.5233 18.3308 42.2775 18.7274 41.8843C19.1375 41.4717 19.3673 40.9133 19.3663 40.3316C19.3672 40.0444 19.3112 39.76 19.2015 39.4947C19.0919 39.2293 18.9307 38.9883 18.7274 38.7856V38.7855ZM17.8558 36.2101C18.7181 36.3528 19.5134 36.7636 20.1286 37.3843H20.1332C20.2301 37.482 20.3223 37.5843 20.4095 37.6908L21.9182 36.8181C21.7194 36.2182 21.7024 35.5729 21.8691 34.9633C22.084 34.1586 22.6057 33.4383 23.388 32.9869L23.4133 32.9707C24.1871 32.533 25.0664 32.4419 25.86 32.6569C26.2739 32.7676 26.6619 32.9589 27.0017 33.2198C27.3415 33.4807 27.6265 33.8061 27.8404 34.1774V34.1798C28.2897 34.9564 28.3807 35.8476 28.1665 36.6499C28.0568 37.0638 27.8661 37.4519 27.6054 37.7915C27.3447 38.1311 27.0191 38.4156 26.6475 38.6285L26.4415 38.7502H26.4206C25.6979 39.0942 24.9032 39.1481 24.1734 38.9558C23.5741 38.7972 23.0247 38.4625 22.5941 37.9877L21.0875 38.8581C21.2659 39.3288 21.357 39.8281 21.3565 40.3314C21.3565 40.8506 21.2608 41.3514 21.0875 41.8119L22.5941 42.6798C23.0142 42.209 23.5634 41.8722 24.1734 41.7114C24.5868 41.5985 25.0187 41.5693 25.4435 41.6256C25.8684 41.6818 26.2777 41.8224 26.6475 42.0391L26.6974 42.0623V42.0647C27.4498 42.5208 27.9549 43.2248 28.1665 44.02C28.2769 44.4326 28.3049 44.8628 28.249 45.2862C28.193 45.7096 28.0542 46.1178 27.8404 46.4874L27.8132 46.5416L27.81 46.5372C27.3588 47.2874 26.6475 47.7956 25.8623 48.0106C25.0571 48.223 24.1657 48.1323 23.388 47.6849V47.6788C22.6057 47.2265 22.084 46.5046 21.8691 45.7015C21.7024 45.0929 21.7195 44.4485 21.9182 43.8496L20.4096 42.9791C20.3224 43.084 20.2302 43.1847 20.1333 43.2808L20.1287 43.2856C19.525 43.8915 18.7354 44.3124 17.8558 44.4526V46.1958C18.4825 46.3266 19.0437 46.64 19.4832 47.0798L19.4856 47.0843C19.7886 47.3861 20.0288 47.7448 20.1926 48.1398C20.3563 48.5348 20.4403 48.9584 20.4397 49.386C20.4397 50.2814 20.0747 51.0938 19.4856 51.6833L19.4832 51.6925C18.8898 52.2817 18.0758 52.6466 17.1776 52.6466C16.284 52.6466 15.468 52.2817 14.8759 51.6925H14.8734V51.6833C14.2838 51.0937 13.918 50.2814 13.918 49.386C13.9175 48.9582 14.0017 48.5346 14.1657 48.1396C14.3297 47.7446 14.5703 47.3859 14.8736 47.0843V47.0798H14.8759C15.315 46.64 15.8773 46.3267 16.5016 46.1958V44.4526C15.6224 44.3124 14.834 43.8915 14.2314 43.2856L14.225 43.2808C13.4723 42.5257 13.0011 41.4847 13.0011 40.3316C13.0011 39.1807 13.4723 38.1399 14.2249 37.3843H14.2313C14.8455 36.7635 15.64 36.3526 16.5015 36.2101V34.4744C15.8861 34.3404 15.3219 34.0328 14.8758 33.5882H14.8733V33.5835C14.2837 32.9916 13.9179 32.18 13.9179 31.2818C13.9179 30.3882 14.2837 29.5695 14.8734 28.9801L14.8758 28.9776C15.4679 28.3861 16.2837 28.0215 17.1775 28.0215C18.0757 28.0215 18.8897 28.3861 19.4831 28.9776V28.9801H19.4855C19.7879 29.2823 20.0278 29.6411 20.1915 30.036C20.3552 30.431 20.4395 30.8543 20.4396 31.2818C20.4396 32.18 20.0746 32.9916 19.4855 33.5835L19.4831 33.5882C19.0366 34.0333 18.4718 34.3409 17.8557 34.4744V36.2101H17.8558ZM26.3304 35.0524L26.3174 35.0334C26.1097 34.6828 25.7774 34.4489 25.4104 34.3482C25.0313 34.2475 24.6229 34.2898 24.2596 34.4982H24.2617C23.8992 34.7039 23.6566 35.0403 23.5554 35.4173C23.504 35.6093 23.4911 35.8096 23.5172 36.0066C23.5433 36.2036 23.6079 36.3935 23.7074 36.5656L23.7146 36.5748C23.8135 36.7444 23.945 36.8927 24.1016 37.0112C24.2581 37.1296 24.4365 37.2159 24.6266 37.265C24.9995 37.3705 25.415 37.3259 25.773 37.1175L25.7923 37.1082C26.1302 36.9065 26.376 36.5809 26.4774 36.2006C26.5774 35.8241 26.5375 35.4126 26.3304 35.0524ZM33.0245 35.5622H34.7078V40.7009L37.1355 38.0157H39.1539L36.2231 41.1267L39.1661 45.0701H37.2386L34.7078 41.5477V45.0701H33.0245V35.5622ZM41.1096 41.5733C41.1096 42.4484 41.7389 43.7206 43.2552 43.7206C44.1934 43.7206 44.8108 43.2317 45.1311 42.5909C45.2988 42.2799 45.376 41.9475 45.4019 41.6016C45.4135 41.2668 45.3503 40.9188 45.2081 40.6097C44.913 39.9433 44.2578 39.3655 43.2427 39.3655C41.8814 39.3655 41.1094 40.4693 41.1094 41.5617V41.5733H41.1096ZM47.0719 45.0701H45.3876V44.0552C44.9394 44.8759 44.0009 45.288 43.0111 45.288C40.7493 45.288 39.4263 43.5265 39.4263 41.5361C39.4263 39.3139 41.0322 37.7981 43.0111 37.7981C44.296 37.7981 45.0795 38.4791 45.3876 39.045V38.0158H47.0719V45.0701ZM48.978 39.3139H48.1056V38.0158H48.978V37.6183C48.978 35.5224 50.5718 35.3959 51.7803 35.3819V36.6778C51.3552 36.6778 50.6622 36.6778 50.6622 37.6695V38.0159H51.7803V39.314H50.6622V45.0702H48.9779V39.314L48.978 39.3139ZM52.925 35.5622H54.6079V40.7009L57.0361 38.0157H59.0545L56.1237 41.1267L59.0662 45.0701H57.1387L54.6079 41.5477V45.0701H52.925V35.5622ZM61.0101 41.5733C61.0101 42.4484 61.6392 43.7206 63.1558 43.7206C64.0928 43.7206 64.7102 43.2317 65.031 42.5909C65.1991 42.2799 65.2766 41.9475 65.302 41.6016C65.3136 41.2668 65.2504 40.9188 65.108 40.6097C64.8133 39.9433 64.1582 39.3655 63.1433 39.3655C61.7818 39.3655 61.0101 40.4693 61.0101 41.5617V41.5733ZM66.972 45.0701H65.2882V44.0552C64.8387 44.8759 63.901 45.288 62.9117 45.288C60.6499 45.288 59.328 43.5265 59.328 41.5361C59.328 39.3139 60.9334 37.7981 62.9117 37.7981C64.1958 37.7981 64.9801 38.4791 65.2882 39.045V38.0158H66.972V45.0701Z" fill="#1A1919"/>
</g>
<defs>
<clipPath id="clip0_245_36384">
<rect width="54" height="24.6792" fill="white" transform="translate(13 28)"/>
</clipPath>
</defs>
</svg>
