<svg width="80" height="80" viewBox="0 0 80 80" fill="none" xmlns="http://www.w3.org/2000/svg">
<g clip-path="url(#clip0_245_34391)">
<path d="M64.9997 34.6816V46.537L63.3591 48.1385V36.5371L64.9997 34.6816Z" fill="#E79225"/>
<path d="M54.2478 34.6914L52.5486 36.5371L52.6365 36.6543L63.2906 36.6152L63.3883 36.5371L64.9996 34.6816L54.2478 34.6914Z" fill="#FFF16D"/>
<path d="M52.5486 36.5371H63.3883V48.1483H52.5486V36.5371Z" fill="url(#paint0_linear_245_34391)"/>
<path d="M61.7379 40.7168C61.5231 40.1797 61.2008 39.6914 60.7809 39.2715C60.3805 38.8613 59.9313 38.5488 59.4235 38.3437C58.9255 38.1387 58.3884 38.0312 57.8024 38.0312C57.2165 38.0312 56.6696 38.1387 56.1716 38.3437C55.6638 38.5488 55.2146 38.8613 54.8142 39.2715C54.3943 39.6914 54.0818 40.1797 53.8669 40.7168C53.6521 41.2539 53.5544 41.8398 53.5544 42.4843C53.5544 43.1093 53.6619 43.6952 53.8767 44.2421C54.0915 44.789 54.404 45.2772 54.824 45.7069C55.2146 46.1073 55.6638 46.41 56.1618 46.6151C56.6599 46.8202 57.2165 46.9276 57.8122 46.9276C58.3884 46.9276 58.9255 46.8202 59.4235 46.6151C59.9215 46.41 60.3805 46.1073 60.7809 45.7069C61.2008 45.2772 61.5231 44.789 61.7379 44.2519C61.9528 43.7148 62.0602 43.1191 62.0602 42.4941C62.0602 41.8398 61.9528 41.2539 61.7379 40.7168ZM59.5016 44.5448C59.0817 45.0429 58.5251 45.2968 57.8024 45.2968C57.0798 45.2968 56.5134 45.0429 56.0935 44.5448C55.6736 44.0468 55.4685 43.3534 55.4685 42.4746C55.4685 41.5761 55.6833 40.8828 56.0935 40.375C56.5134 39.8672 57.07 39.623 57.8024 39.623C58.5251 39.623 59.0817 39.8769 59.5016 40.375C59.9118 40.8828 60.1266 41.5761 60.1266 42.4746C60.1266 43.3534 59.9216 44.0468 59.5016 44.5448Z" fill="white"/>
<path d="M51.4841 33.7148V33.7734L52.8708 44.4276L52.0603 46.6737L51.9529 46.5955L50.5271 36.3808L50.5564 36.2441L51.4451 33.7734L51.4841 33.7148Z" fill="#009ADA"/>
<path d="M40.8105 35.1992L51.4842 33.7148L50.5858 36.2734L50.4589 36.4101L40.4785 37.8749L40.5273 36.0488L40.8105 35.1992Z" fill="#91C9ED"/>
<path d="M50.5858 36.2734L52.0604 46.6737L41.543 48.1483L40.127 38.0996L40.7422 37.6211L50.5858 36.2734Z" fill="url(#paint1_linear_245_34391)"/>
<path d="M48.7987 38.2656C48.7499 37.9434 48.6425 37.6992 48.4667 37.5332C48.3202 37.4062 48.1445 37.3379 47.9394 37.3379C47.8906 37.3379 47.832 37.3379 47.7734 37.3477C47.4999 37.3867 47.2949 37.5137 47.1679 37.7187C47.0703 37.8652 47.0312 38.0508 47.0312 38.2656C47.0312 38.3437 47.041 38.4316 47.0507 38.5195L47.4316 41.2246L44.4043 41.6738L44.0234 38.9687C43.9746 38.6562 43.8672 38.4121 43.6914 38.2461C43.5449 38.1094 43.3691 38.041 43.1738 38.041C43.125 38.041 43.0762 38.041 43.0273 38.0508C42.7441 38.0898 42.5293 38.2168 42.3926 38.4219C42.2949 38.5683 42.2559 38.7539 42.2559 38.9687C42.2559 39.0469 42.2656 39.1347 42.2754 39.2324L43.3105 46.2733C43.3594 46.5956 43.4668 46.8397 43.6621 47.0057C43.8086 47.1327 43.9844 47.1913 44.1992 47.1913C44.2578 47.1913 44.3164 47.1913 44.375 47.1815C44.6386 47.1424 44.8339 47.0155 44.9609 46.8104C45.0488 46.6639 45.0879 46.4882 45.0879 46.2831C45.0879 46.205 45.0781 46.1171 45.0683 46.0292L44.6484 43.246L47.6757 42.7968L48.0956 45.58C48.1445 45.9022 48.2519 46.1464 48.4374 46.3026C48.5839 46.4296 48.7597 46.4979 48.9648 46.4979C49.0136 46.4979 49.0722 46.4979 49.1308 46.4882C49.4042 46.4491 49.6093 46.3221 49.7362 46.1171C49.8241 45.9706 49.8729 45.7948 49.8729 45.58C49.8729 45.5018 49.8632 45.414 49.8534 45.3261L48.7987 38.2656Z" fill="white"/>
<path d="M30.8205 31L27.0217 40.0233L27.5393 43.9881L27.5686 43.9783L31.8361 34.3789L31.8166 34.1738L30.8986 31.127L30.8205 31Z" fill="#66BF6B"/>
<path d="M30.8203 31L31.8066 34.3105L31.8262 34.3789L41.2206 38.5878L41.2499 38.5683L40.4491 35.4042L30.8203 31Z" fill="#98D0A0"/>
<path d="M31.8068 34.3105L41.2501 38.5683L36.9825 48.2459L27.5393 43.9882L31.8068 34.3105Z" fill="url(#paint2_linear_245_34391)"/>
<path d="M38.3888 39.3496C38.1837 38.8027 37.9005 38.334 37.5294 37.9433C37.1584 37.5527 36.7091 37.2402 36.1818 37.0156C35.6545 36.791 35.1271 36.6836 34.59 36.6836H34.5607C34.0139 36.6836 33.4768 36.8105 32.9494 37.0449C32.3928 37.2891 31.9143 37.6211 31.5041 38.0605C31.094 38.4902 30.762 39.0175 30.5081 39.623C30.2541 40.2187 30.1174 40.8242 30.0881 41.4199V41.6249C30.0881 42.1523 30.176 42.6698 30.3616 43.1776C30.5569 43.7147 30.8401 44.1737 31.2112 44.5643C31.5823 44.955 32.0412 45.2675 32.5881 45.4921C33.1057 45.7167 33.633 45.8241 34.1701 45.8241H34.1799C34.717 45.8241 35.2541 45.7069 35.7814 45.4823C36.3381 45.2382 36.8263 44.8964 37.2365 44.4569C37.6466 44.0272 37.9884 43.5097 38.2423 42.9042C38.4962 42.2988 38.633 41.7031 38.6622 41.1074V40.9316C38.672 40.3945 38.5841 39.8671 38.3888 39.3496ZM36.5041 42.162C36.1525 43.0019 35.674 43.578 35.0978 43.8905C34.7853 44.0565 34.4631 44.1444 34.1408 44.1444C33.8576 44.1444 33.5549 44.0761 33.2522 43.9491C32.5881 43.6659 32.178 43.2167 32.0022 42.5722C31.9436 42.3573 31.9143 42.1327 31.9143 41.8984C31.9143 41.4296 32.0315 40.9121 32.2658 40.3554C32.6272 39.4961 33.1057 38.9101 33.6818 38.5879C33.9943 38.4121 34.3166 38.334 34.6389 38.334C34.9318 38.334 35.2248 38.4023 35.5373 38.5293C36.1916 38.8125 36.6017 39.2617 36.7775 39.9062C36.8361 40.1113 36.8654 40.3359 36.8654 40.5703C36.8654 41.0585 36.7482 41.5859 36.5041 42.162Z" fill="white"/>
<path d="M26.2698 32.5332L27.8127 42.8651L27.1096 46.4979L27.0119 46.3709L25.5081 36.3906V36.1953L26.1721 32.709L26.2698 32.5332Z" fill="#760D16"/>
<path d="M15.0002 37.8749L15.7327 34.2226L26.2696 32.5332L25.5568 36.2539V36.498L15.1272 37.9726L15.0002 37.8749Z" fill="#EF463E"/>
<path d="M25.5567 36.2539L27.1095 46.4979L16.6799 48.1288L15.0002 37.875L25.5567 36.2539Z" fill="url(#paint3_linear_245_34391)"/>
<path d="M24.4337 44.8671C24.3556 44.7694 24.2384 44.7011 24.1017 44.6523C23.965 44.6034 23.799 44.5839 23.5939 44.5839C23.4084 44.5839 23.1935 44.6034 22.9592 44.6425L20.2053 45.1112C20.2346 44.8964 20.342 44.623 20.5275 44.2812C20.7326 43.9003 21.0451 43.4413 21.4455 42.914C21.5822 42.7284 21.6896 42.5917 21.7678 42.4941C21.8166 42.4257 21.8947 42.3378 21.9924 42.2109C22.6271 41.3808 23.008 40.707 23.1642 40.1797C23.2521 39.8769 23.301 39.5742 23.3205 39.2715C23.3302 39.1836 23.3302 39.1054 23.3302 39.0273C23.3302 38.8125 23.3107 38.5976 23.2717 38.3828C23.2424 38.1875 23.1935 38.0312 23.1252 37.9043C23.0568 37.7773 22.9787 37.6797 22.881 37.6211C22.7736 37.5527 22.6076 37.5234 22.4025 37.5234C22.2365 37.5234 22.0314 37.543 21.7873 37.582L18.6037 38.1289C18.2229 38.1973 17.9299 38.3047 17.7541 38.4805C17.6077 38.6172 17.5393 38.793 17.5393 38.9883C17.5393 39.0371 17.5393 39.0957 17.5491 39.1543C17.5979 39.4277 17.7346 39.623 17.9592 39.7207C18.0959 39.7793 18.2522 39.8086 18.4475 39.8086C18.5744 39.8086 18.7209 39.7988 18.8772 39.7695L21.5334 39.3008C21.5334 39.3496 21.5432 39.3984 21.5432 39.4375C21.5432 39.6035 21.5139 39.7695 21.4553 39.9258C21.3771 40.1504 21.1818 40.4629 20.8596 40.8632C20.7717 40.9707 20.635 41.1464 20.4494 41.371C19.7268 42.2402 19.219 42.9824 18.9065 43.5976C18.6819 44.0273 18.5354 44.4374 18.4475 44.8573C18.3987 45.1015 18.3694 45.3261 18.3694 45.5507C18.3694 45.7069 18.3791 45.8632 18.4084 46.0097C18.4475 46.2245 18.4963 46.4003 18.5647 46.537C18.633 46.6737 18.7307 46.7811 18.8381 46.8397C18.9455 46.8983 19.092 46.9178 19.3069 46.9178C19.5705 46.9178 19.9319 46.8788 20.3908 46.8007L23.2814 46.3026C23.7892 46.2147 24.1505 46.0878 24.3556 45.9218C24.5216 45.7851 24.6095 45.5995 24.6095 45.3847C24.6095 45.3261 24.5998 45.2675 24.59 45.2089C24.5705 45.0819 24.5216 44.9647 24.4337 44.8671Z" fill="white"/>
</g>
<defs>
<linearGradient id="paint0_linear_245_34391" x1="57.968" y1="36.7033" x2="57.968" y2="47.7977" gradientUnits="userSpaceOnUse">
<stop offset="0.00562" stop-color="#FFE513"/>
<stop offset="1" stop-color="#FDB924"/>
</linearGradient>
<linearGradient id="paint1_linear_245_34391" x1="40.6654" y1="37.8758" x2="51.5016" y2="46.6643" gradientUnits="userSpaceOnUse">
<stop offset="0.00562" stop-color="#008CD2"/>
<stop offset="1" stop-color="#00649D"/>
</linearGradient>
<linearGradient id="paint2_linear_245_34391" x1="34.395" y1="38.1817" x2="34.395" y2="47.9016" gradientUnits="userSpaceOnUse">
<stop stop-color="#26A146"/>
<stop offset="1" stop-color="#008A52"/>
</linearGradient>
<linearGradient id="paint3_linear_245_34391" x1="20.2961" y1="37.2286" x2="21.9059" y2="47.331" gradientUnits="userSpaceOnUse">
<stop stop-color="#D92231"/>
<stop offset="1" stop-color="#BA2234"/>
</linearGradient>
<clipPath id="clip0_245_34391">
<rect width="50" height="17.2849" fill="white" transform="translate(15 31)"/>
</clipPath>
</defs>
</svg>
