<svg width="80" height="80" viewBox="0 0 80 80" fill="none" xmlns="http://www.w3.org/2000/svg">
<path d="M36.6488 29.0705C37.9376 27.7277 39.7318 26.8949 41.716 26.8949C44.354 26.8949 46.6553 28.3658 47.8808 30.5494C48.9771 30.0597 50.1645 29.8073 51.3652 29.8087C56.1228 29.8087 59.9798 33.6993 59.9798 38.4985C59.9798 43.2984 56.1228 47.1891 51.3652 47.1891C50.7953 47.1894 50.2269 47.1327 49.6683 47.0199C48.5889 48.945 46.5324 50.2457 44.1718 50.2457C43.2171 50.2469 42.2748 50.03 41.4168 49.6116C40.3227 52.185 37.7737 53.9895 34.8028 53.9895C31.709 53.9895 29.0725 52.0319 28.0603 49.2864C27.6181 49.3805 27.1598 49.4294 26.6897 49.4294C23.0063 49.4294 20.02 46.4126 20.02 42.6904C20.0174 41.5108 20.3239 40.3511 20.9091 39.3269C21.4943 38.3026 22.3376 37.4497 23.3552 36.8529C22.9327 35.8803 22.7152 34.831 22.7164 33.7706C22.7164 29.49 26.1916 26.02 30.4781 26.02C32.9946 26.02 35.2312 27.2166 36.649 29.0705" fill="#00A1E0"/>
<path d="M25.8078 40.5244C25.7828 40.5899 25.8169 40.6035 25.825 40.615C25.9 40.6696 25.9763 40.7088 26.0532 40.7525C26.4608 40.9689 26.8455 41.0322 27.248 41.0322C28.0677 41.0322 28.5766 40.5963 28.5766 39.8942V39.8806C28.5766 39.2317 28.0022 38.996 27.4631 38.826L27.3931 38.803C26.9867 38.671 26.6361 38.5572 26.6361 38.2896V38.2755C26.6361 38.0466 26.841 37.878 27.1586 37.878C27.5116 37.878 27.9305 37.9952 28.2003 38.1444C28.2003 38.1444 28.2794 38.1957 28.3085 38.1188C28.3244 38.0778 28.461 37.7102 28.4753 37.6703C28.4906 37.6271 28.4633 37.5952 28.4355 37.5782C28.1275 37.3907 27.7017 37.2627 27.2611 37.2627L27.1791 37.2633C26.4289 37.2633 25.9052 37.7164 25.9052 38.366V38.3796C25.9052 39.0644 26.483 39.2863 27.0242 39.4411L27.1114 39.468C27.5058 39.5891 27.8458 39.6933 27.8458 39.9711V39.9847C27.8458 40.2386 27.6249 40.4277 27.2685 40.4277C27.1302 40.4277 26.6891 40.4249 26.2125 40.1236C26.155 40.09 26.1214 40.0656 26.0771 40.0389C26.0536 40.0241 25.9952 39.9983 25.9696 40.0758L25.8078 40.5244ZM37.8078 40.5244C37.7828 40.5899 37.8168 40.6035 37.825 40.615C37.9 40.6696 37.9762 40.7088 38.0531 40.7525C38.4606 40.9689 38.8454 41.0322 39.2479 41.0322C40.0676 41.0322 40.5765 40.5963 40.5765 39.8942V39.8806C40.5765 39.2317 40.0021 38.996 39.4631 38.826L39.3931 38.803C38.9867 38.671 38.6359 38.5572 38.6359 38.2896V38.2755C38.6359 38.0466 38.8409 37.878 39.1585 37.878C39.5115 37.878 39.9304 37.9952 40.2003 38.1444C40.2003 38.1444 40.2793 38.1957 40.3084 38.1188C40.3243 38.0778 40.4609 37.7102 40.4751 37.6703C40.4906 37.6271 40.4632 37.5952 40.4353 37.5782C40.1274 37.3907 39.7015 37.2627 39.261 37.2627L39.179 37.2633C38.4287 37.2633 37.9051 37.7164 37.9051 38.366V38.3796C37.9051 39.0644 38.4828 39.2863 39.0242 39.4411L39.1112 39.468C39.5057 39.5891 39.8462 39.6933 39.8462 39.9711V39.9847C39.8462 40.2386 39.6246 40.4277 39.2684 40.4277C38.8944 40.4303 38.5277 40.3247 38.2125 40.1236C38.155 40.09 38.1207 40.0667 38.0776 40.0389C38.0628 40.0292 37.9932 40.0024 37.9693 40.0758L37.8078 40.5244ZM45.9998 39.1496C45.9998 39.5464 45.9257 39.8589 45.7801 40.0797C45.636 40.2985 45.418 40.4047 45.114 40.4047C44.8094 40.4047 44.5926 40.2989 44.4509 40.0797C44.3074 39.8594 44.2346 39.5464 44.2346 39.1496C44.2346 38.7535 44.3074 38.4414 44.4509 38.223C44.5926 38.0066 44.8094 37.9013 45.114 37.9013C45.418 37.9013 45.6358 38.0066 45.7805 38.2228C45.9258 38.4416 45.9998 38.7535 45.9998 39.1496ZM46.684 38.4141C46.6168 38.1871 46.5121 37.9868 46.3726 37.8199C46.233 37.6525 46.0566 37.5183 45.8471 37.4203C45.6382 37.323 45.3912 37.2735 45.114 37.2735C44.8362 37.2735 44.5891 37.323 44.3802 37.4203C44.1709 37.5182 43.9943 37.6525 43.8543 37.8199C43.7154 37.9872 43.6105 38.1877 43.5429 38.4141C43.4763 38.6402 43.4429 38.8872 43.4429 39.1496C43.4429 39.4121 43.4763 39.6597 43.5429 39.885C43.6107 40.1116 43.7148 40.3119 43.8549 40.4794C43.9978 40.6495 44.1774 40.7849 44.3802 40.8755C44.5896 40.9706 44.8362 41.0189 45.114 41.0189C45.3912 41.0189 45.6377 40.9705 45.8471 40.8755C46.05 40.7849 46.2296 40.6495 46.3726 40.4794C46.5121 40.3125 46.6168 40.1122 46.684 39.885C46.7512 39.6591 46.7847 39.4116 46.7847 39.1496C46.7847 38.8878 46.7512 38.6402 46.684 38.4141ZM52.3025 40.2989C52.2799 40.2324 52.2155 40.2574 52.2155 40.2574C52.116 40.2955 52.01 40.3308 51.8974 40.3485C51.7732 40.3669 51.6478 40.3758 51.5222 40.3752C51.191 40.3752 50.9278 40.2767 50.7394 40.0821C50.5505 39.8874 50.4446 39.5727 50.4457 39.1467C50.4469 38.7592 50.5404 38.4677 50.7082 38.2457C50.875 38.0249 51.1288 37.9116 51.4675 37.9116C51.7499 37.9116 51.965 37.9439 52.1905 38.0152C52.1905 38.0152 52.2446 38.0386 52.2702 37.9678C52.3299 37.8018 52.3744 37.6827 52.4382 37.5C52.4563 37.4482 52.4119 37.426 52.396 37.4197C52.3072 37.385 52.0977 37.3286 51.9394 37.3047C51.7914 37.2821 51.6185 37.27 51.426 37.27C51.1385 37.27 50.8824 37.3189 50.6632 37.4169C50.4446 37.5143 50.2591 37.6486 50.1122 37.816C49.9654 37.9832 49.8538 38.1836 49.7793 38.4102C49.7052 38.6361 49.6677 38.8844 49.6677 39.1467C49.6677 39.7142 49.8208 40.1731 50.123 40.5089C50.4258 40.846 50.8808 41.0172 51.4738 41.0172C51.8244 41.0172 52.1842 40.9461 52.4425 40.8442C52.4425 40.8442 52.4922 40.8203 52.4707 40.7628L52.3025 40.2988V40.2989ZM53.4999 38.7696C53.5322 38.5492 53.5931 38.366 53.6871 38.2232C53.8288 38.0063 54.045 37.8872 54.3491 37.8872C54.653 37.8872 54.8539 38.0068 54.998 38.2232C55.0936 38.366 55.1352 38.5572 55.1516 38.7696H53.4999ZM55.8034 38.2852C55.7453 38.066 55.6013 37.8446 55.5069 37.7433C55.3577 37.5827 55.212 37.4705 55.0674 37.408C54.8574 37.319 54.6316 37.2733 54.4036 37.2736C54.1145 37.2736 53.8521 37.3221 53.6392 37.4221C53.4258 37.5224 53.2464 37.6589 53.1058 37.8293C52.9652 37.9988 52.8594 38.201 52.7922 38.4303C52.7244 38.6585 52.6903 38.9074 52.6903 39.1697C52.6903 39.4367 52.7257 39.6853 52.7957 39.9091C52.8661 40.1346 52.9789 40.3333 53.1316 40.4977C53.2835 40.6633 53.4792 40.7931 53.7138 40.8836C53.9466 40.9736 54.2294 41.0203 54.5544 41.0197C55.2233 41.0174 55.5758 40.8683 55.7208 40.788C55.7464 40.7739 55.7709 40.7488 55.7402 40.677L55.5888 40.253C55.5661 40.1897 55.5017 40.2131 55.5017 40.2131C55.3361 40.2746 55.1005 40.385 54.5511 40.3839C54.1919 40.3833 53.9255 40.2774 53.7588 40.1117C53.5874 39.9422 53.5038 39.693 53.4889 39.3411L55.8052 39.3433C55.8052 39.3433 55.8661 39.3422 55.8723 39.283C55.8745 39.258 55.952 38.8071 55.8034 38.2852ZM34.9504 38.7696C34.9834 38.5492 35.0437 38.366 35.1378 38.2232C35.2795 38.0063 35.4958 37.8872 35.7997 37.8872C36.1037 37.8872 36.3047 38.0068 36.4492 38.2232C36.5443 38.366 36.5859 38.5572 36.6023 38.7696H34.9504ZM37.2536 38.2852C37.1954 38.066 37.052 37.8446 36.9575 37.7433C36.8084 37.5827 36.6626 37.4705 36.5181 37.408C36.3081 37.319 36.0824 37.2733 35.8543 37.2736C35.5658 37.2736 35.3028 37.3221 35.09 37.4221C34.8764 37.5224 34.6972 37.6589 34.5565 37.8293C34.4159 37.9988 34.3101 38.201 34.2429 38.4303C34.1758 38.6585 34.1411 38.9074 34.1411 39.1697C34.1411 39.4367 34.1762 39.6853 34.2464 39.9091C34.3169 40.1346 34.4297 40.3333 34.5822 40.4977C34.7342 40.6633 34.93 40.7931 35.1645 40.8836C35.3973 40.9736 35.6801 41.0203 36.0051 41.0197C36.674 41.0174 37.0264 40.8683 37.1715 40.788C37.1972 40.7739 37.2215 40.7488 37.1909 40.677L37.0401 40.253C37.0167 40.1897 36.9525 40.2131 36.9525 40.2131C36.7868 40.2746 36.5517 40.385 36.0012 40.3839C35.6426 40.3833 35.3762 40.2774 35.2095 40.1117C35.0381 39.9422 34.9544 39.693 34.9397 39.3411L37.2557 39.3433C37.2557 39.3433 37.3167 39.3422 37.3229 39.283C37.3253 39.258 37.4026 38.8071 37.2536 38.2852ZM29.9441 40.2861C29.8534 40.2139 29.8409 40.1956 29.8103 40.1489C29.7647 40.0778 29.7414 39.9764 29.7414 39.8478C29.7414 39.6441 29.8086 39.4978 29.948 39.3994C29.9464 39.3999 30.1472 39.2257 30.6198 39.2319C30.9516 39.2366 31.2481 39.2855 31.2481 39.2855V40.3386H31.2487C31.2487 40.3386 30.9544 40.4017 30.6231 40.4216C30.1517 40.45 29.9424 40.2856 29.9441 40.2861ZM30.8656 38.6588C30.7717 38.6519 30.65 38.6478 30.5042 38.6478C30.3055 38.6478 30.1136 38.6728 29.9339 38.7213C29.7604 38.7663 29.5965 38.8423 29.45 38.9457C29.3102 39.0454 29.1952 39.1761 29.1141 39.3275C29.0322 39.4802 28.9906 39.66 28.9906 39.8614C28.9906 40.0664 29.0258 40.2446 29.0964 40.3903C29.1653 40.5344 29.2692 40.6589 29.3988 40.7524C29.5274 40.8463 29.6863 40.9152 29.8706 40.9567C30.0522 40.9983 30.2581 41.0192 30.4836 41.0192C30.7211 41.0192 30.9578 41 31.1872 40.9606C31.3824 40.927 31.5769 40.8895 31.7706 40.848C31.8475 40.8297 31.933 40.8064 31.933 40.8064C31.9905 40.7922 31.9858 40.7306 31.9858 40.7306L31.9847 38.6127C31.9847 38.1482 31.8606 37.8038 31.6164 37.5903C31.3734 37.3774 31.0153 37.2699 30.5525 37.2699C30.3791 37.2699 30.0994 37.2938 29.9322 37.3274C29.9322 37.3274 29.4259 37.4252 29.2177 37.588C29.2177 37.588 29.1722 37.6164 29.1972 37.6802L29.3613 38.1208C29.3816 38.1777 29.4369 38.1583 29.4369 38.1583C29.4369 38.1583 29.4545 38.1516 29.475 38.1396C29.9206 37.8971 30.4842 37.9046 30.4842 37.9046C30.7347 37.9046 30.927 37.9546 31.0569 38.0543C31.1833 38.151 31.2475 38.2972 31.2475 38.6058V38.7036C31.0483 38.6752 30.8656 38.6588 30.8656 38.6588ZM49.5468 37.4652C49.5501 37.4575 49.5519 37.4491 49.5519 37.4407C49.552 37.4323 49.5503 37.424 49.547 37.4162C49.5438 37.4084 49.539 37.4014 49.533 37.3956C49.5269 37.3897 49.5198 37.3851 49.5119 37.3821C49.4727 37.3668 49.2757 37.3252 49.1236 37.3155C48.8329 37.2979 48.6711 37.3468 48.5266 37.4118C48.3832 37.4766 48.2238 37.5813 48.1349 37.7003V37.4185C48.1349 37.3793 48.1071 37.348 48.0683 37.348H47.4746C47.436 37.348 47.408 37.3793 47.408 37.4185V40.8731C47.408 40.9119 47.4399 40.9438 47.4787 40.9438H48.0871C48.0963 40.9437 48.1055 40.9419 48.114 40.9383C48.1225 40.9347 48.1302 40.9295 48.1367 40.923C48.1432 40.9164 48.1484 40.9086 48.1519 40.9001C48.1553 40.8915 48.1571 40.8824 48.1571 40.8731V39.1472C48.1571 38.9157 48.1827 38.6844 48.234 38.5394C48.284 38.3958 48.3524 38.281 48.4366 38.1983C48.5171 38.1191 48.6153 38.0602 48.723 38.0264C48.8305 37.9935 48.9496 37.9827 49.0338 37.9827C49.155 37.9827 49.2882 38.0139 49.2882 38.0139C49.3325 38.0191 49.3577 37.9918 49.3725 37.9514C49.4122 37.8455 49.525 37.5283 49.5466 37.4652" fill="white"/>
<path d="M43.835 35.8642C43.7598 35.8415 43.6834 35.8232 43.6061 35.8095C43.5021 35.7925 43.3968 35.7845 43.2914 35.7858C42.8723 35.7858 42.5422 35.9041 42.3106 36.1375C42.08 36.3697 41.9234 36.7233 41.845 37.1883L41.8164 37.3448H41.2904C41.2904 37.3448 41.2267 37.3425 41.2131 37.412L41.1272 37.8942C41.1209 37.9397 41.1408 37.9687 41.2022 37.9687H41.714L41.1948 40.8671C41.1545 41.1006 41.1078 41.2925 41.0559 41.4381C41.0053 41.5815 40.9559 41.6892 40.8944 41.7678C40.835 41.8428 40.7794 41.8987 40.6825 41.931C40.6028 41.9579 40.5106 41.9704 40.4098 41.9704C40.354 41.9704 40.2795 41.9612 40.2244 41.95C40.1811 41.9415 40.139 41.9279 40.099 41.9093C40.099 41.9093 40.0394 41.8867 40.0155 41.9465C39.9967 41.996 39.86 42.371 39.8436 42.4173C39.8276 42.4634 39.8503 42.4992 39.8794 42.5099C39.9476 42.5339 39.9983 42.5498 40.0911 42.572C40.2198 42.6023 40.3286 42.6039 40.4305 42.6039C40.6433 42.6039 40.8379 42.5737 40.999 42.5157C41.1608 42.4571 41.3019 42.3551 41.4272 42.2173C41.562 42.0682 41.6469 41.9123 41.7276 41.6989C41.8079 41.4882 41.8768 41.2264 41.9314 40.9214L42.4534 37.9687H43.2162C43.2162 37.9687 43.2804 37.9709 43.2936 37.9009L43.3801 37.4194C43.3857 37.3733 43.3665 37.3448 43.3043 37.3448H42.5637C42.5678 37.3283 42.6014 37.0676 42.6862 36.8223C42.7226 36.7181 42.7909 36.6333 42.8484 36.5753C42.9026 36.5202 42.9692 36.4788 43.0426 36.4545C43.1161 36.4306 43.1997 36.4192 43.2914 36.4192C43.3607 36.4192 43.4297 36.4272 43.4814 36.438C43.5532 36.4534 43.5811 36.4614 43.5998 36.467C43.6756 36.4898 43.6857 36.4676 43.7006 36.4311L43.8776 35.9451C43.8959 35.8928 43.8509 35.8705 43.835 35.8642ZM33.4878 40.8736C33.4878 40.9121 33.4599 40.9436 33.4213 40.9436H32.8071C32.7683 40.9436 32.741 40.9123 32.741 40.8736V35.9303C32.741 35.8917 32.7683 35.8603 32.8071 35.8603H33.4211C33.4599 35.8603 33.4878 35.8916 33.4878 35.9303V40.8736Z" fill="white"/>
</svg>
