<svg width="80" height="80" viewBox="0 0 80 80" fill="none" xmlns="http://www.w3.org/2000/svg">
<path d="M20 30.1035V49.8973H40.215L60 30.1035H20ZM25.4437 33.7885H25.45C26.8888 33.7885 28.64 34.1935 29.9088 34.8435L28.5425 37.2273C27.1488 36.551 26.4525 36.4923 25.6588 36.446C24.48 36.381 23.8875 36.8048 23.8737 37.2598C23.8675 37.8148 24.9937 38.3148 26.055 38.6598C27.6562 39.1685 29.7 39.851 30.0138 41.8248L32.95 34.0648H36.36L39.7987 43.3548L39.785 34.0648H43.7362C47.5 34.0648 49.27 35.3398 49.27 38.2635C49.27 40.8873 47.455 42.4573 44.375 42.4573H43.105L43.0863 45.946L37.11 45.9398L36.6937 44.4235C36.0318 44.6404 35.3391 44.7485 34.6425 44.7435C33.9263 44.7477 33.2142 44.6358 32.5338 44.4123L31.94 45.941L28.6063 45.9473L28.7563 45.1785C28.7078 45.222 28.6578 45.2637 28.6063 45.3035C27.7213 46.0185 26.595 46.3523 25.215 46.3773H24.8562C23.3497 46.3951 21.8661 46.0083 20.56 45.2573L21.7763 42.8423C23.0912 43.6235 23.92 43.7923 25.0325 43.7735C25.6112 43.7598 26.0275 43.6548 26.3012 43.3748C26.4638 43.2092 26.5572 42.988 26.5625 42.756C26.5738 42.131 25.6762 41.8398 24.5887 41.4998C23.7037 41.226 22.6937 40.8498 21.9125 40.2698C20.9825 39.5935 20.5325 38.7335 20.5587 37.5235C20.5644 36.6663 20.9028 35.8448 21.5025 35.2323C22.3688 34.3335 23.7625 33.7923 25.4425 33.7923L25.4437 33.7885ZM43.0988 36.5685V39.7473H43.9725C45.1237 39.7473 46.0488 39.3623 46.0488 38.1385C46.0488 36.9535 45.1237 36.5685 43.9725 36.5685H43.0988ZM34.6212 37.851L33.3775 41.7823C33.7792 41.9323 34.205 42.0073 34.6337 42.0035C35.0837 42.0035 35.5075 41.9248 35.87 41.7948L34.6462 37.8435L34.6212 37.851Z" fill="black"/>
</svg>
