<svg width="80" height="80" viewBox="0 0 80 80" fill="none" xmlns="http://www.w3.org/2000/svg">
<g clip-path="url(#clip0_245_34374)">
<path d="M10.0076 34.1895H12.0647V38.7598H16.4033V34.1895H18.4631V45.4082H16.4033V40.7419H12.0647V45.4082H10.0076V34.1895ZM24.98 41.7541C24.98 42.6932 24.2149 43.4575 23.276 43.4575C22.3367 43.4575 21.572 42.6932 21.572 41.7541V36.924H19.6212V41.7541C19.6212 43.7692 21.2608 45.4082 23.276 45.4082C25.2907 45.4082 26.9302 43.7692 26.9302 41.7541V36.924H24.98V41.7541ZM32.3763 36.9806C31.4086 36.9806 30.7331 37.2614 30.0808 37.9018V34.1895H28.1236V41.0694C28.1236 43.6446 29.9855 45.4082 32.0773 45.4082C34.4028 45.4082 36.4403 43.6131 36.4403 41.1945C36.4403 38.8066 34.5615 36.9806 32.3763 36.9806ZM32.4249 43.5976C31.0987 43.5976 30.0846 42.49 30.0846 41.1945C30.0846 39.8989 31.0987 38.7909 32.4249 38.7909C33.5487 38.7909 34.5634 39.8989 34.5634 41.1945C34.5634 42.49 33.5487 43.5976 32.4249 43.5976ZM39.7276 37.4737C39.7276 36.4898 40.3831 36.1779 41.1008 36.1779C41.6785 36.1779 42.4431 36.6149 42.9421 37.1456L44.2215 35.6475C43.5821 34.7892 42.287 34.196 41.2257 34.196C39.103 34.196 37.5735 35.429 37.5735 37.4737C37.5735 41.266 42.2401 40.0639 42.2401 42.1869C42.2401 42.8417 41.6004 43.4197 40.8673 43.4197C39.712 43.4197 39.3373 42.8578 38.8068 42.2646L37.3864 43.7314C38.2921 44.8396 39.4154 45.4017 40.7577 45.4017C42.7708 45.4017 44.394 44.1531 44.394 42.202C44.394 37.9884 39.7276 39.2995 39.7276 37.4737ZM49.5465 36.8707C47.4549 36.8707 45.5928 38.6333 45.5928 41.209V48.1067H47.5499V44.3768C48.2023 45.0167 48.8774 45.2979 49.8455 45.2979C52.0305 45.2979 53.9096 43.4722 53.9096 41.0843C53.9096 38.6653 51.8715 36.8707 49.5465 36.8707ZM49.8943 43.4879C48.5682 43.4879 47.5539 42.3788 47.5539 41.0843C47.5539 39.7886 48.5682 38.6806 49.8943 38.6806C51.0178 38.6806 52.0326 39.7886 52.0326 41.0843C52.0326 42.3788 51.0178 43.4879 49.8943 43.4879ZM68.3161 43.5976C67.1617 43.5976 66.834 43.0984 66.834 42.3334V38.9469H68.6284V37.2304H66.834V34.9673L64.8525 35.8566V42.7548C64.8525 44.5185 66.0694 45.4082 67.7385 45.4082C67.9882 45.4082 68.332 45.3921 68.5195 45.3459L69.0033 43.5669C68.7848 43.582 68.5352 43.5976 68.3161 43.5976Z" fill="#45535E"/>
<path d="M63.1545 39.0465C62.7793 38.401 62.2516 37.8835 61.5917 37.4939C61.0987 37.2069 60.5874 37.0247 60.0112 36.9464V34.8953C60.5874 34.6507 60.9449 34.1092 60.9449 33.4775C60.9449 32.6165 60.2545 31.9187 59.3941 31.9187C58.5331 31.9187 57.8306 32.6165 57.8306 33.4775C57.8306 34.1092 58.1675 34.6507 58.7437 34.8953V36.9474C58.2827 37.014 57.8047 37.1577 57.3682 37.3784C56.4767 36.7013 53.5533 34.48 51.8431 33.1826C51.8837 33.0364 51.9149 32.8857 51.9149 32.7266C51.9149 31.773 51.1426 31 50.1886 31C49.2346 31 48.4626 31.773 48.4626 32.7266C48.4626 33.6802 49.2354 34.4534 50.1894 34.4534C50.5148 34.4534 50.8158 34.3582 51.0755 34.2017L51.4364 34.4755L56.3956 38.0486C56.1334 38.2894 55.8892 38.5631 55.6939 38.8704C55.2981 39.4966 55.0562 40.1857 55.0562 40.9374V41.0942C55.0562 41.6219 55.1565 42.12 55.3273 42.588C55.4776 42.9966 55.6975 43.3681 55.9698 43.704L54.3239 45.3539C54.0854 45.2651 53.8264 45.2469 53.5778 45.3014C53.3291 45.3559 53.1015 45.4809 52.922 45.6613C52.7977 45.785 52.6992 45.9321 52.6322 46.0941C52.5652 46.2561 52.531 46.4298 52.5316 46.6051C52.5317 46.9615 52.6706 47.2965 52.9227 47.5485C53.0463 47.6729 53.1933 47.7715 53.3553 47.8386C53.5172 47.9057 53.6909 47.9401 53.8662 47.9396C54.0416 47.94 54.2153 47.9057 54.3773 47.8386C54.5393 47.7714 54.6864 47.6728 54.8101 47.5485C54.9343 47.4248 55.0328 47.2778 55.0998 47.1159C55.1668 46.9539 55.2012 46.7803 55.2007 46.6051C55.2007 46.4671 55.1794 46.3326 55.1393 46.2046L56.8405 44.5032C57.0737 44.6643 57.3256 44.8 57.5964 44.9169C58.1305 45.1479 58.72 45.2886 59.3652 45.2886H59.4835C60.1967 45.2886 60.8696 45.121 61.5021 44.7783C62.1686 44.4161 62.6902 43.9209 63.0843 43.2886C63.4805 42.6546 63.6986 41.9541 63.6986 41.1834V41.1449C63.6986 40.3868 63.5231 39.6874 63.1545 39.0465ZM61.076 42.6156C60.6142 43.1288 60.0835 43.4448 59.4835 43.4448H59.3846C59.0419 43.4448 58.7067 43.3501 58.3785 43.1778C58.0086 42.9882 57.7274 42.7176 57.4973 42.375C57.2595 42.0388 57.1304 41.6716 57.1304 41.2824V41.1642C57.1304 40.7815 57.2038 40.4186 57.3889 40.0759C57.5867 39.7013 57.854 39.41 58.2093 39.1784C58.5583 38.9484 58.9309 38.8356 59.346 38.8356H59.3846C59.7609 38.8356 60.1172 38.9098 60.4535 39.0818C60.7961 39.2653 61.076 39.5159 61.2929 39.8456C61.5037 40.1754 61.6291 40.5311 61.6694 40.9186C61.6757 40.9992 61.679 41.0817 61.679 41.1605C61.679 41.6864 61.478 42.1735 61.076 42.6156Z" fill="#F8761F"/>
</g>
<defs>
<clipPath id="clip0_245_34374">
<rect width="59" height="17.1696" fill="white" transform="translate(10 31)"/>
</clipPath>
</defs>
</svg>
