<svg width="80" height="80" viewBox="0 0 80 80" fill="none" xmlns="http://www.w3.org/2000/svg">
<g clip-path="url(#clip0_245_34432)">
<path d="M15.5734 35.0962L10.0962 37.2102V38.6195L15.5734 40.7656L21.0186 38.6195V37.2102L15.5734 35.0962ZM10.0962 42.4952V43.8725L15.5734 46.0186L21.0186 43.8725V42.4952L15.5734 44.6092L10.0962 42.4952Z" fill="#101820"/>
<path d="M10.0962 39.8366V41.2459L15.5734 43.3919L21.0186 41.2459V39.8366L15.5734 41.9826L10.0962 39.8366ZM26.9442 41.9506C26.9442 41.7264 26.8481 41.5342 26.6559 41.4381C26.4637 41.31 26.1434 41.2139 25.695 41.1178C25.2466 41.0217 24.8942 40.8936 24.606 40.7654C23.9654 40.4451 23.6451 39.9967 23.6451 39.4202C23.6451 38.9077 23.8693 38.4913 24.2857 38.171C24.7021 37.8507 25.2466 37.6585 25.8872 37.6585C26.5918 37.6585 27.1364 37.8186 27.5528 38.171C27.9692 38.5233 28.1934 38.9397 28.1934 39.4842H26.9122C26.9122 39.228 26.8161 39.0358 26.6239 38.8757C26.4317 38.7155 26.2075 38.6194 25.8872 38.6194C25.5989 38.6194 25.3747 38.6835 25.1825 38.8116C24.9903 38.9397 24.9263 39.1319 24.9263 39.3241C24.9263 39.5163 25.0224 39.6764 25.1825 39.7725C25.3427 39.8686 25.695 39.9967 26.2075 40.0928C26.72 40.1889 27.1043 40.349 27.3926 40.4772C27.6809 40.6373 27.9051 40.8295 28.0332 41.0217C28.1613 41.2459 28.2574 41.5021 28.2574 41.8224C28.2574 42.3349 28.0332 42.7513 27.6168 43.0716C27.2004 43.3919 26.6239 43.5521 25.9192 43.5521C25.4388 43.5521 25.0224 43.456 24.67 43.2958C24.2857 43.1357 23.9974 42.8795 23.8052 42.5912C23.613 42.3029 23.4849 41.9826 23.4849 41.6303H24.7341C24.7661 41.9506 24.8622 42.1748 25.0864 42.3349C25.3106 42.4951 25.5669 42.5912 25.9192 42.5912C26.2715 42.5912 26.5278 42.5271 26.6879 42.399C26.8481 42.3349 26.9442 42.1428 26.9442 41.9506ZM32.8378 42.9435C32.4534 43.3919 31.9089 43.6161 31.2042 43.6161C30.5636 43.6161 30.1152 43.424 29.7949 43.0716C29.4746 42.7193 29.3144 42.1748 29.3144 41.4701V37.7546H30.5956V41.4701C30.5956 42.2068 30.8839 42.5591 31.4925 42.5591C32.1331 42.5591 32.5495 42.3349 32.7737 41.8865V37.7546H34.0549V43.5201H32.8378V42.9435ZM35.208 40.5733C35.208 39.6764 35.4322 38.9717 35.8486 38.4272C36.265 37.8827 36.8416 37.6265 37.5142 37.6265C38.1869 37.6265 38.6993 37.8507 39.0517 38.2991L39.1157 37.7226H40.2688V43.3279C40.2688 44.0966 40.0446 44.6732 39.5642 45.1216C39.0837 45.57 38.4431 45.7622 37.6423 45.7622C37.2259 45.7622 36.8095 45.6661 36.3932 45.5059C35.9768 45.3458 35.6885 45.0895 35.4643 44.8013L36.0728 44.0325C36.4572 44.513 36.9697 44.7372 37.5462 44.7372C37.9626 44.7372 38.315 44.6091 38.5712 44.3849C38.8275 44.1607 38.9556 43.8083 38.9556 43.3599V43.0076C38.5712 43.424 38.0908 43.6161 37.4502 43.6161C36.7775 43.6161 36.233 43.3599 35.7846 42.8154C35.4002 42.2709 35.208 41.5342 35.208 40.5733ZM36.4892 40.7014C36.4892 41.2779 36.6174 41.7264 36.8416 42.0787C37.0658 42.399 37.4181 42.5912 37.8345 42.5912C38.347 42.5912 38.7314 42.367 38.9876 41.9185V39.3881C38.7314 38.9397 38.347 38.7475 37.8345 38.7475C37.4181 38.7475 37.0658 38.9077 36.8416 39.26C36.6174 39.5483 36.4892 40.0287 36.4892 40.7014ZM45.0734 43.5201C45.0093 43.424 44.9773 43.2318 44.9132 42.9755C44.4968 43.3919 43.9844 43.6161 43.4078 43.6161C42.8313 43.6161 42.3508 43.456 41.9985 43.1357C41.6461 42.8154 41.454 42.399 41.454 41.9185C41.454 41.31 41.6782 40.8295 42.1266 40.5092C42.575 40.1889 43.2477 40.0287 44.0804 40.0287H44.8812V39.6444C44.8812 39.3561 44.7851 39.0999 44.625 38.9397C44.4648 38.7796 44.2086 38.6835 43.8562 38.6835C43.568 38.6835 43.3117 38.7475 43.1195 38.9077C42.9274 39.0678 42.8313 39.228 42.8313 39.4842H41.55C41.55 39.1639 41.6461 38.8757 41.8703 38.5874C42.0946 38.2991 42.3508 38.1069 42.7352 37.9468C43.0875 37.7866 43.5039 37.7226 43.9523 37.7226C44.625 37.7226 45.1695 37.8827 45.5538 38.235C45.9382 38.5874 46.1624 39.0678 46.1624 39.6764V42.2709C46.1624 42.7834 46.2265 43.1998 46.3866 43.5201V43.6161H45.0734V43.5201ZM43.632 42.5912C43.8883 42.5912 44.1445 42.5271 44.3687 42.399C44.5929 42.2709 44.7531 42.1107 44.8812 41.8865V40.7975H44.1765C43.6961 40.7975 43.3438 40.8936 43.0875 41.0537C42.8313 41.2139 42.7352 41.4701 42.7352 41.7584C42.7352 42.0146 42.8313 42.2068 42.9914 42.367C43.1516 42.4951 43.3758 42.5912 43.632 42.5912ZM50.5506 38.9077C50.3904 38.8757 50.1983 38.8757 50.0381 38.8757C49.4295 38.8757 49.0452 39.0999 48.853 39.5483V43.488H47.5718V37.7226H48.8209L48.853 38.3632C49.1733 37.8507 49.5897 37.6265 50.1662 37.6265C50.3584 37.6265 50.5186 37.6585 50.6147 37.6905L50.5506 38.9077ZM53.6575 43.0716C54.106 43.0716 54.4903 42.9435 54.7786 42.6873C55.0669 42.431 55.227 42.1107 55.2591 41.7264H55.8676C55.8356 42.0787 55.7395 42.399 55.5473 42.6873C55.3551 42.9755 55.0669 43.1998 54.7466 43.3599C54.4263 43.5201 54.0419 43.6161 53.6575 43.6161C52.8888 43.6161 52.3123 43.3599 51.8638 42.8154C51.4154 42.3029 51.1912 41.5662 51.1912 40.7014V40.5092C51.1912 39.9327 51.2873 39.4522 51.4795 39.0038C51.6717 38.5553 51.9599 38.235 52.3443 37.9788C52.7287 37.7546 53.1451 37.6265 53.6575 37.6265C54.2981 37.6265 54.8106 37.8186 55.227 38.203C55.6434 38.5874 55.8676 39.0678 55.8997 39.6764H55.2911C55.2591 39.228 55.0989 38.8757 54.8106 38.5874C54.5224 38.2991 54.138 38.171 53.6896 38.171C53.113 38.171 52.6646 38.3632 52.3443 38.7796C52.024 39.196 51.8638 39.7725 51.8638 40.5412V40.7334C51.8638 41.4701 52.024 42.0467 52.3443 42.4631C52.6326 42.8795 53.081 43.0716 53.6575 43.0716ZM59.8394 38.2991C59.7113 38.2671 59.5511 38.2671 59.423 38.2671C59.0386 38.2671 58.6863 38.3632 58.398 38.5874C58.1098 38.8116 57.9176 39.1319 57.8215 39.5483V43.5201H57.1809V37.7546H57.7895V38.6835C58.1418 38.0108 58.6543 37.6585 59.423 37.6585C59.6152 37.6585 59.7433 37.6905 59.8394 37.7226V38.2991ZM61.4089 37.7546L61.4409 38.6835C61.6651 38.3311 61.9214 38.0749 62.2417 37.9147C62.562 37.7546 62.9143 37.6585 63.2987 37.6585C64.1955 37.6585 64.7721 38.0429 65.0283 38.7796C65.2205 38.4272 65.5088 38.139 65.8611 37.9468C66.2135 37.7546 66.5978 37.6585 67.0142 37.6585C68.2634 37.6585 68.872 38.3311 68.904 39.6764V43.5201H68.2634V39.7084C68.2634 39.196 68.1353 38.8116 67.9431 38.5553C67.7189 38.2991 67.3666 38.171 66.8861 38.171C66.4377 38.171 66.0533 38.3311 65.733 38.6194C65.4127 38.9077 65.2525 39.26 65.2205 39.6764V43.488H64.5799V39.6444C64.5799 39.1639 64.4518 38.7796 64.2276 38.5233C64.0034 38.2671 63.651 38.171 63.1706 38.171C62.7542 38.171 62.4339 38.2991 62.1456 38.5233C61.8573 38.7475 61.6331 39.0999 61.505 39.5483V43.5201H60.8644V37.7546H61.4089Z" fill="#101820"/>
</g>
<defs>
<clipPath id="clip0_245_34432">
<rect width="59" height="11.1145" fill="white" transform="translate(10 35)"/>
</clipPath>
</defs>
</svg>
