<svg width="80" height="80" viewBox="0 0 80 80" fill="none" xmlns="http://www.w3.org/2000/svg">
<rect width="80" height="80" rx="8" fill="#F5F8FD"/>
<g clip-path="url(#clip0_245_30627)">
<path d="M36.039 41.0829H39.8715L37.8451 37.7046L34.1257 43.8126H32.433L36.9569 36.4755C37.1536 36.1791 37.4814 36 37.8451 36C38.1967 36 38.5245 36.1729 38.7153 36.4632L43.2571 43.8126H41.5644L40.7658 42.4478H36.8856L36.0391 41.0829H36.039ZM53.6222 42.4476V36.0741H52.1858V43.0715C52.1858 43.263 52.2573 43.4483 52.3943 43.5903C52.5314 43.7324 52.7162 43.8126 52.9188 43.8126H59.4693L60.3157 42.4478H53.6221L53.6222 42.4476ZM29.858 41.3051C31.2529 41.3051 32.3853 40.1379 32.3853 38.6927C32.3853 37.2474 31.2529 36.0739 29.858 36.0739H23.574V43.8128H25.0099V37.4391H29.7628C30.4303 37.4391 30.9667 38.0012 30.9667 38.6929C30.9667 39.3845 30.4303 39.9465 29.7628 39.9465L25.7133 39.9404L30.0011 43.8128H32.0873L29.2025 41.3053H29.8582L29.858 41.3051ZM14.7349 43.8126C12.6732 43.8128 11 42.0834 11 39.9465C11 37.8095 12.6732 36.0742 14.7349 36.0742H19.0758C21.138 36.0742 22.8099 37.8095 22.8099 39.9465C22.8099 42.0834 21.138 43.8126 19.0757 43.8126H14.7349ZM18.9793 42.4478C20.315 42.4478 21.3968 41.3298 21.3968 39.9464C21.3968 38.5631 20.315 37.4391 18.9793 37.4391H14.8309C13.4957 37.4391 12.4133 38.5631 12.4133 39.9465C12.4133 41.3298 13.4957 42.4478 14.8308 42.4478H18.9792H18.9793ZM46.2552 43.8126C44.193 43.8126 42.518 42.0834 42.518 39.9465C42.518 37.8095 44.193 36.0742 46.2552 36.0742H51.411L50.5705 37.4391H46.3505C45.0154 37.4391 43.9306 38.5631 43.9306 39.9465C43.9306 41.3298 45.0154 42.4478 46.3505 42.4478H51.5301L50.6837 43.8126H46.2552ZM63.8206 42.4478C62.7179 42.4478 61.7821 41.682 61.496 40.6258H67.6352L68.4815 39.2609H61.496C61.7821 38.211 62.7179 37.4391 63.8206 37.4391H68.0346L68.8867 36.0739H63.7251C61.6628 36.0739 59.9879 37.8094 59.9879 39.9463C59.9879 42.0833 61.6628 43.8125 63.7251 43.8125H68.1537L69 42.4478H63.8204H63.8206Z" fill="#EA1B22"/>
</g>
<defs>
<clipPath id="clip0_245_30627">
<rect width="58" height="7.86441" fill="white" transform="translate(11 36)"/>
</clipPath>
</defs>
</svg>
