<svg width="80" height="80" viewBox="0 0 80 80" fill="none" xmlns="http://www.w3.org/2000/svg">
<rect width="80" height="80" rx="8" fill="#F5F8FD"/>
<g clip-path="url(#clip0_245_30636)">
<path d="M54.876 44.1617C54.6841 43.5982 54.1815 43.2057 53.5315 43.1115C53.225 43.0672 52.874 43.0861 52.4586 43.1691C51.7346 43.3139 51.1975 43.3691 50.8055 43.3798C52.2851 40.9573 53.4882 38.1949 54.1808 35.5946C55.3008 31.3898 54.7023 29.4743 54.003 28.6079C52.1521 26.3146 49.4517 25.0826 46.194 25.0449C44.4561 25.0243 42.9305 25.357 42.1346 25.5963C41.3936 25.4695 40.5968 25.3987 39.7608 25.3856C38.1937 25.3613 36.8091 25.6926 35.626 26.3735C34.971 26.1587 33.9197 25.8559 32.7057 25.6627C29.8505 25.2081 27.5492 25.5623 25.866 26.7154C23.8277 28.1115 22.8828 30.5372 23.0576 33.9251C23.1131 35.0007 23.7336 38.2735 24.7106 41.3772C25.2721 43.1612 25.8708 44.6427 26.4902 45.7809C27.3686 47.3948 28.3085 48.3452 29.3636 48.6866C29.955 48.8776 31.0295 49.0114 32.1596 48.0987C32.3028 48.2669 32.494 48.4341 32.7476 48.5893C33.0697 48.7863 33.4636 48.9473 33.857 49.0427C35.2746 49.3863 36.6025 49.3004 37.7353 48.8187C37.7423 49.0141 37.7477 49.2007 37.7522 49.3619C37.7597 49.6234 37.7672 49.8798 37.7771 50.1195C37.8442 51.7406 37.958 53.0011 38.295 53.883C38.3135 53.9315 38.3383 54.0055 38.3646 54.0839C38.5327 54.583 38.8138 55.4187 39.5291 56.0731C40.2697 56.751 41.1656 56.9589 41.9861 56.9589C42.3976 56.9589 42.7902 56.9066 43.1346 56.835C44.3621 56.5799 45.7562 56.1913 46.7647 54.7988C47.7182 53.4824 48.1817 51.4998 48.2656 48.3758C48.2765 48.2874 48.2865 48.203 48.2961 48.1227L48.3161 47.9576L48.5407 47.9767L48.5986 47.9805C49.8488 48.0358 51.3776 47.7787 52.3165 47.3558C53.0583 47.0219 55.4357 45.8049 54.876 44.1617Z" fill="black"/>
<path d="M52.7386 44.4817C49.0211 45.2253 48.7655 44.0048 48.7655 44.0048C52.6905 38.3572 54.3313 31.1883 52.9155 29.4338C49.0525 24.6477 42.3656 26.9112 42.254 26.9699L42.2181 26.9762C41.4836 26.8283 40.6617 26.7403 39.7378 26.7257C38.0558 26.699 36.7798 27.1533 35.8116 27.8653C35.8116 27.8653 23.8828 23.1 24.4377 33.8585C24.5557 36.1472 27.8207 51.1764 31.715 46.6369C33.1383 44.9769 34.5137 43.5734 34.5137 43.5734C35.1967 44.0134 36.0145 44.2379 36.8717 44.1573L36.9383 44.1025C36.9176 44.3086 36.9271 44.5101 36.965 44.7488C35.9617 45.8357 36.2566 46.0265 34.2511 46.4269C32.2217 46.8324 33.4138 47.5544 34.1922 47.7432C35.1358 47.972 37.3188 48.2961 38.7938 46.2938L38.7351 46.5223C39.1281 46.8276 39.4041 48.5081 39.3578 50.0316C39.3116 51.555 39.2807 52.6009 39.5903 53.4179C39.9002 54.2349 40.2088 56.0731 42.8453 55.5253C45.0482 55.0675 46.1898 53.8812 46.3487 51.9023C46.4613 50.4955 46.7165 50.7035 46.7325 49.4457L46.9371 48.8503C47.173 46.9432 46.9746 46.328 48.3317 46.6141L48.6617 46.6423C49.6605 46.6863 50.968 46.4864 51.7353 46.1406C53.3876 45.3971 54.3676 44.1555 52.7383 44.4817H52.7386Z" fill="#336791"/>
<path d="M36.5093 34.8819C36.1743 34.8367 35.871 34.8785 35.7175 34.9913C35.6312 35.0547 35.6045 35.1281 35.5972 35.1787C35.578 35.3126 35.6747 35.4607 35.7342 35.5371C35.9025 35.7533 36.1482 35.9019 36.3915 35.9347C36.4267 35.9395 36.4618 35.9417 36.4967 35.9417C36.9023 35.9417 37.2712 35.6354 37.3037 35.4093C37.3443 35.1262 36.9205 34.9374 36.5093 34.8821M47.6073 34.8909C47.5753 34.669 47.1681 34.6057 46.7816 34.6578C46.3956 34.7099 46.0213 34.8789 46.0526 35.1013C46.0776 35.2743 46.3997 35.5696 46.781 35.5696C46.8132 35.5696 46.8457 35.5675 46.8785 35.563C47.133 35.5288 47.3197 35.3721 47.4085 35.2818C47.5435 35.1441 47.6217 34.9907 47.6073 34.8909Z" fill="white"/>
<path d="M53.9752 44.3971C53.8335 43.9814 53.3772 43.8477 52.6192 43.9995C50.3686 44.4499 49.5626 44.1379 49.298 43.9489C51.0474 41.3647 52.4865 38.2408 53.2629 35.3263C53.6306 33.9457 53.8337 32.6635 53.8504 31.6184C53.8687 30.4714 53.6672 29.6284 53.2517 29.1135C51.5765 27.0378 49.1177 25.9243 46.1415 25.8938C44.0954 25.8715 42.3666 26.3792 42.0315 26.522C41.3257 26.3518 40.5564 26.2474 39.7187 26.234C38.1827 26.2099 36.855 26.5665 35.7557 27.2934C35.2782 27.1211 34.0442 26.7103 32.5351 26.4745C29.9261 26.0672 27.8529 26.3758 26.3734 27.3922C24.608 28.6051 23.793 30.7731 23.9509 33.8358C24.004 34.8663 24.6095 38.0362 25.565 41.072C26.8227 45.0676 28.19 47.3295 29.6285 47.7949C29.7969 47.8493 29.991 47.8874 30.2051 47.8874C30.7299 47.8874 31.3732 47.658 32.0426 46.8777C32.8591 45.9279 33.7036 45.0012 34.5752 44.0987C35.1407 44.3931 35.762 44.5574 36.3974 44.5739C36.3986 44.59 36.4002 44.6061 36.4017 44.6221C36.2924 44.7486 36.1853 44.8769 36.0805 45.007C35.6402 45.5489 35.5486 45.6618 34.1315 45.9447C33.7284 46.0254 32.6577 46.2394 32.642 46.9671C32.625 47.7623 33.9076 48.0962 34.0537 48.1316C34.563 48.2552 35.0536 48.3162 35.5215 48.3162C36.6594 48.3162 37.6607 47.9535 38.461 47.2518C38.4364 50.0865 38.5582 52.8797 38.9092 53.7308C39.1967 54.4275 39.899 56.1301 42.1172 56.13C42.4427 56.13 42.801 56.0933 43.1951 56.0114C45.5102 55.5301 46.5156 54.5379 46.9045 52.3504C47.1126 51.1813 47.4697 48.3897 47.6377 46.8922C47.9922 46.9995 48.4486 47.0486 48.942 47.0484C49.971 47.0484 51.1584 46.8364 51.903 46.5013C52.7395 46.1246 54.249 45.2002 53.9752 44.3971ZM48.462 34.2783C48.4544 34.7203 48.3916 35.1217 48.3251 35.5406C48.2535 35.9911 48.1795 36.4569 48.1609 37.0224C48.1425 37.5727 48.2134 38.1448 48.2819 38.6981C48.4204 39.8157 48.5625 40.9663 48.0124 42.1015C47.921 41.9445 47.8396 41.7822 47.7686 41.6156C47.7002 41.4549 47.5517 41.1967 47.3461 40.8394C46.5462 39.4483 44.6731 36.1909 45.632 34.8617C45.9176 34.466 46.6425 34.0592 48.462 34.2783ZM46.2565 26.7889C48.9232 26.846 51.0327 27.8134 52.5262 29.6641C53.6717 31.0836 52.4104 37.5426 48.7587 43.1149C48.722 43.0696 48.6851 43.0245 48.648 42.9795L48.6017 42.9235C49.5454 41.4123 49.3609 39.9172 49.1966 38.5916C49.1291 38.0476 49.0654 37.5338 49.0816 37.0511C49.0984 36.5396 49.1681 36.1008 49.2356 35.6766C49.3185 35.1538 49.4029 34.6128 49.3796 33.9751C49.397 33.9082 49.404 33.8292 49.3949 33.7354C49.3355 33.1238 48.6155 31.2937 47.148 29.6372C46.3452 28.7311 45.1746 27.7172 43.5762 27.0333C44.2637 26.8951 45.2039 26.7663 46.2565 26.7889ZM31.3342 46.3065C30.5967 47.1664 30.0875 47.0015 29.92 46.9475C28.8287 46.5945 27.5625 44.3579 26.4461 40.8112C25.4801 37.7424 24.9156 34.6564 24.8709 33.7911C24.7299 31.0544 25.414 29.1471 26.9044 28.1221C29.3299 26.4543 33.3176 27.4526 34.92 27.9589C34.897 27.9809 34.873 28.0015 34.8502 28.024C32.2207 30.599 32.2831 34.9985 32.2896 35.2675C32.2894 35.3712 32.2984 35.5181 32.3106 35.7202C32.3559 36.4602 32.4401 37.8374 32.2151 39.3971C32.0061 40.8464 32.4669 42.2649 33.479 43.2891C33.5829 43.394 33.692 43.4938 33.8061 43.5882C33.3556 44.0561 32.3765 45.0907 31.3342 46.3065ZM34.1441 42.671C33.3284 41.8455 32.9579 40.6974 33.1275 39.5207C33.365 37.8732 33.2774 36.4383 33.2302 35.6674C33.2236 35.5595 33.2177 35.4649 33.2144 35.3904C33.5985 35.0601 35.3786 34.1352 36.6481 34.4173C37.2274 34.5459 37.5804 34.9284 37.7271 35.5864C38.4866 38.9928 37.8276 40.4126 37.2981 41.5535C37.189 41.7886 37.0859 42.0107 36.9979 42.2406L36.9296 42.4183C36.7569 42.8675 36.5961 43.2852 36.4965 43.6818C35.6292 43.6794 34.7856 43.3201 34.1441 42.6709V42.671ZM34.2772 47.2649C34.024 47.2036 33.7962 47.0971 33.6626 47.0087C33.7742 46.9578 33.9729 46.8884 34.3174 46.8196C35.9845 46.4869 36.242 46.252 36.8042 45.5597C36.9331 45.4009 37.0792 45.2211 37.2816 45.0019L37.2819 45.0017C37.5832 44.6744 37.7211 44.7299 37.9711 44.8305C38.1737 44.9117 38.3711 45.158 38.4511 45.4291C38.489 45.5571 38.5315 45.8 38.3924 45.9891C37.2179 47.5837 35.5064 47.5632 34.2772 47.2649ZM43.0021 55.1379C40.9626 55.5617 40.2405 54.5526 39.7646 53.399C39.4575 52.6543 39.3065 49.296 39.4136 45.5872C39.415 45.5379 39.4077 45.4903 39.3937 45.4454C39.3812 45.3569 39.3622 45.2693 39.3367 45.1834C39.1775 44.6437 38.7894 44.1923 38.3237 44.0052C38.1387 43.9309 37.7992 43.7945 37.3912 43.8957C37.4782 43.5481 37.6291 43.1555 37.7927 42.7304L37.8614 42.5516C37.9386 42.35 38.0356 42.1412 38.1381 41.9201C38.6922 40.7264 39.4511 39.0914 38.6275 35.3977C38.319 34.0141 37.2887 33.3385 35.727 33.4955C34.7907 33.5894 33.9341 33.9557 33.5069 34.1658C33.415 34.2109 33.331 34.2545 33.2525 34.2969C33.3717 32.903 33.8222 30.2979 35.5075 28.6497C36.5686 27.6121 37.9817 27.0996 39.7035 27.1272C43.096 27.1811 45.2715 28.8693 46.4992 30.2762C47.5572 31.4884 48.1301 32.7097 48.3587 33.3683C46.6394 33.1987 45.47 33.5278 44.8772 34.3497C43.5876 36.1373 45.5827 39.6069 46.5416 41.2744C46.7175 41.58 46.8692 41.8441 46.917 41.9563C47.2292 42.6901 47.6335 43.1801 47.9286 43.5377C48.0191 43.6472 48.1069 43.7535 48.1736 43.8464C47.6529 43.992 46.7175 44.3283 46.8027 46.0097C46.734 46.8533 46.2451 50.8031 45.9967 52.1986C45.6689 54.0423 44.9692 54.7289 43.0021 55.138V55.1379ZM51.5151 45.6911C50.9826 45.9307 50.0915 46.1105 49.245 46.1492C48.31 46.1916 47.834 46.0476 47.722 45.959C47.6695 44.9112 48.0716 44.8018 48.4972 44.6859C48.5641 44.6677 48.6294 44.6499 48.6924 44.6286C48.7315 44.6595 48.7744 44.6901 48.8214 44.7202C49.5729 45.2012 50.9132 45.2531 52.8056 44.8743L52.8264 44.8703C52.5711 45.1017 52.1344 45.4122 51.5151 45.6911Z" fill="white"/>
</g>
<defs>
<clipPath id="clip0_245_30636">
<rect width="32" height="32" fill="white" transform="translate(23 25)"/>
</clipPath>
</defs>
</svg>
