<svg width="80" height="80" viewBox="0 0 80 80" fill="none" xmlns="http://www.w3.org/2000/svg">
<rect width="80" height="80" rx="8" fill="#F5F8FD"/>
<g clip-path="url(#clip0_245_30654)">
<path d="M24.829 49.2182C25.1728 49.2182 25.4852 49.2963 25.6571 49.4526C25.6884 49.7025 25.454 50.1088 25.3134 50.1088C25.1415 50.0463 24.9853 50.015 24.7821 50.015C23.9697 50.015 23.5634 50.8588 23.5634 51.6869C23.5634 52.2025 23.7353 52.515 24.1572 52.515C24.5946 52.515 25.0321 52.2181 25.2821 51.9993C25.3446 52.0462 25.4227 52.1868 25.4227 52.3431C25.4227 52.515 25.3759 52.6868 25.204 52.8587C24.9228 53.1399 24.4384 53.3899 23.7353 53.3899C22.9385 53.3899 22.376 52.9368 22.376 51.8743C22.4072 50.4681 23.3134 49.2182 24.829 49.2182ZM27.4539 52.4681C27.8914 52.4681 28.6883 51.7025 28.907 50.2338C28.9226 50.14 28.9226 50.1244 28.9382 50.0307C28.8445 49.9994 28.7039 49.9682 28.5789 49.9682C28.2508 49.9682 27.907 50.0619 27.6102 50.4838C27.2977 50.9213 27.1571 51.4681 27.1571 51.9056C27.1571 52.265 27.2664 52.4681 27.4539 52.4681ZM26.0165 52.0618C26.0165 51.5306 26.1883 50.6244 26.8602 49.9525C27.4383 49.3588 28.1258 49.2182 28.7664 49.2182C29.1882 49.2182 29.7507 49.3588 30.1101 49.4213C30.0163 49.8119 29.8132 51.2962 29.7038 52.1556C29.657 52.515 29.6413 53.0306 29.657 53.2181C29.3601 53.343 28.8133 53.3743 28.657 53.3743C28.5789 53.3743 28.5633 53.0149 28.5789 52.6556C28.5945 52.5462 28.6101 52.3743 28.6101 52.2962C28.2664 52.8743 27.5789 53.3587 26.8602 53.3587C26.3446 53.3743 26.0165 52.9368 26.0165 52.0618ZM32.3288 49.2182C32.6881 49.2182 33.0475 49.3588 33.2037 49.5151C33.1881 49.765 33.0006 50.1869 32.6881 50.0619C32.5475 50.015 32.4225 49.9838 32.235 49.9838C32.0006 49.9838 31.7819 50.0932 31.7819 50.3119C31.7819 50.4838 31.9069 50.6088 32.5006 51.0306C32.9225 51.3431 33.0944 51.6244 33.0944 52.015C33.0944 52.6712 32.485 53.3743 31.4069 53.3743C30.9694 53.3743 30.5788 53.2024 30.4694 53.0306C30.3132 52.7649 30.4382 52.2337 30.6101 52.3275C30.8444 52.4368 31.2194 52.5618 31.5319 52.5618C31.8288 52.5618 32.0163 52.4212 32.0163 52.2493C32.0163 52.0931 31.8756 51.9681 31.3444 51.5775C30.8913 51.2337 30.7507 50.9213 30.7507 50.5775C30.7507 49.8275 31.3913 49.2182 32.3288 49.2182ZM35.4068 49.2182C35.7661 49.2182 36.1255 49.3588 36.2817 49.5151C36.2661 49.765 36.0786 50.1869 35.7661 50.0619C35.6255 50.015 35.5005 49.9838 35.313 49.9838C35.0787 49.9838 34.8599 50.0932 34.8599 50.3119C34.8599 50.4838 34.9849 50.6088 35.5786 51.0306C36.0005 51.3431 36.1724 51.6244 36.1724 52.015C36.1724 52.6712 35.563 53.3743 34.4849 53.3743C34.0474 53.3743 33.6725 53.2024 33.5475 53.0306C33.3912 52.7649 33.5162 52.2337 33.6881 52.3275C33.9224 52.4368 34.2974 52.5618 34.6099 52.5618C34.9068 52.5618 35.0943 52.4212 35.0943 52.2493C35.0943 52.0931 34.9537 51.9681 34.4224 51.5775C33.9693 51.2337 33.8287 50.9213 33.8287 50.5775C33.8287 49.8275 34.4693 49.2182 35.4068 49.2182ZM38.2035 52.4681C38.641 52.4681 39.4379 51.7025 39.6566 50.2338C39.6722 50.14 39.6722 50.1244 39.6879 50.0307C39.5941 49.9994 39.4535 49.9682 39.3285 49.9682C39.0004 49.9682 38.6567 50.0619 38.3598 50.4838C38.0473 50.9213 37.9067 51.4681 37.9067 51.9056C37.9223 52.265 38.0161 52.4681 38.2035 52.4681ZM36.7661 52.0618C36.7661 51.5306 36.938 50.6244 37.6098 49.9525C38.1879 49.3588 38.8754 49.2182 39.516 49.2182C39.9379 49.2182 40.5003 49.3588 40.8597 49.4213C40.766 49.8119 40.5628 51.2962 40.4535 52.1556C40.4066 52.515 40.391 53.0306 40.4066 53.2181C40.1097 53.343 39.5629 53.3743 39.4066 53.3743C39.3285 53.3743 39.3129 53.0149 39.3285 52.6556C39.3441 52.5462 39.3598 52.3743 39.3598 52.2962C39.016 52.8743 38.3285 53.3587 37.6098 53.3587C37.1098 53.3743 36.7661 52.9368 36.7661 52.0618ZM42.8753 50.3744C43.2815 49.7182 43.8127 49.2182 44.5627 49.2182C45.2033 49.2182 45.4064 49.8119 45.2814 50.64C45.2189 51.0306 45.1096 51.5931 45.0471 52.1087C44.9846 52.5462 44.9377 52.9368 44.9533 53.2024C44.7189 53.3118 44.0471 53.3587 43.8908 53.3587C43.8283 53.3587 43.8127 52.8743 43.9065 52.3587C43.9846 51.9368 44.1252 51.1556 44.2033 50.7025C44.2502 50.4369 44.2346 50.1244 43.9846 50.1244C43.6565 50.1244 42.8753 50.6556 42.4846 52.8118C42.4534 52.9837 42.3909 53.0931 42.2815 53.1556C42.1409 53.2337 41.8597 53.3118 41.2816 53.3118C41.3909 52.7649 41.5628 51.6556 41.6878 50.8275C41.7972 50.0775 41.844 49.5932 41.8284 49.4057C41.9847 49.3588 42.7815 49.1869 42.8596 49.1869C42.9534 49.1869 42.969 49.4682 42.8909 50.1244C42.8753 50.1869 42.8753 50.2807 42.8596 50.3432H42.8753V50.3744ZM47.4063 52.4525C47.797 52.4525 48.5938 51.7181 48.8125 50.4213C48.8282 50.3432 48.8438 50.2182 48.8594 50.14C48.7501 50.0307 48.5938 49.9682 48.3438 49.9682C47.4376 49.9682 47.047 51.0463 47.047 51.8275C47.0626 52.2337 47.2032 52.4525 47.4063 52.4525ZM46.8282 53.3743C46.2501 53.3743 45.9064 52.8587 45.9064 51.9993C45.9064 50.5619 46.8126 49.2338 48.3282 49.2338C48.5938 49.2338 48.8438 49.3119 48.9844 49.3901C49.0625 48.9838 49.25 47.7182 49.2657 47.3433C49.5156 47.2964 50.0469 47.2183 50.2969 47.2183C50.3906 47.2183 50.4219 47.312 50.3906 47.5464C50.1719 48.8901 49.7969 51.4525 49.7188 52.015C49.6719 52.4993 49.6563 52.9681 49.6719 53.2337C49.3907 53.3587 48.8125 53.3899 48.6563 53.3899C48.5938 53.3899 48.5626 52.9837 48.5782 52.6087C48.5938 52.4993 48.6094 52.3275 48.6094 52.2962C48.1251 53.0149 47.5157 53.3743 46.8282 53.3743ZM52.0468 50.4994C52.5155 49.4526 53.078 49.2182 53.453 49.2182C53.5624 49.2182 53.7499 49.2963 53.828 49.3744C53.8592 49.6713 53.6249 50.2494 53.4218 50.4838C53.3124 50.4369 53.1874 50.3744 53.0312 50.3744C52.7343 50.3744 52.1249 50.8431 51.7499 52.8743C51.7187 53.0462 51.6718 53.1087 51.5781 53.1556C51.4218 53.2493 50.8281 53.3118 50.5469 53.3274C50.6875 52.5931 50.9062 51.1088 51 50.2338C51.0312 50.015 51.0312 49.5932 51.0156 49.4369C51.1875 49.3588 51.8593 49.2026 51.9999 49.2026C52.0781 49.2026 52.1406 49.6869 52.0156 50.4838H52.0468V50.4994ZM55.1873 52.4681C55.6248 52.4681 56.4217 51.7025 56.6404 50.2338C56.656 50.14 56.656 50.1244 56.6716 50.0307C56.5779 49.9994 56.4373 49.9682 56.3123 49.9682C55.9842 49.9682 55.6404 50.0619 55.3436 50.4838C55.0311 50.9213 54.8905 51.4681 54.8905 51.9056C54.9061 52.265 54.9998 52.4681 55.1873 52.4681ZM53.7499 52.0618C53.7499 51.5306 53.9217 50.6244 54.5936 49.9525C55.1717 49.3588 55.8592 49.2182 56.4998 49.2182C56.9216 49.2182 57.4841 49.3588 57.8435 49.4213C57.7497 49.8119 57.5466 51.2962 57.4372 52.1556C57.3904 52.515 57.3747 53.0306 57.3904 53.2181C57.0935 53.343 56.5466 53.3743 56.3904 53.3743C56.3123 53.3743 56.2967 53.0149 56.3123 52.6556C56.3279 52.5462 56.3435 52.3743 56.3435 52.2962C55.9998 52.8743 55.3123 53.3587 54.5936 53.3587C54.0936 53.3743 53.7499 52.9368 53.7499 52.0618Z" fill="#373535"/>
<path d="M52.1085 34.1089C52.4053 37.5307 47.0149 40.7962 40.062 41.3899C33.1091 41.9836 27.25 39.6868 26.9531 36.2651C26.6562 32.8433 32.0467 29.5778 38.9996 28.9841C45.9368 28.3904 51.8116 30.6715 52.1085 34.1089Z" fill="#BBE6FB"/>
<path d="M39.1872 29.375C36.531 29.3282 33.4374 30.3906 31.125 31.375C30.8906 32.0624 30.75 32.7968 30.75 33.5624C30.75 37.6247 34.4217 40.9215 38.9528 40.9215C43.4839 40.9215 47.1713 37.6404 47.1713 33.5624C47.1713 32.2812 46.7963 31.0625 46.1557 30.0156C44.312 29.7344 41.7652 29.4219 39.1872 29.375Z" fill="white"/>
<path d="M38.9685 29.375C37.4998 29.2813 34.9687 30.0469 32.8594 30.8125C32.5312 31.5624 32.3594 32.3905 32.3594 33.2655C32.3594 36.8279 35.5936 39.7184 38.9998 39.7184C42.3903 39.7184 45.3902 36.8279 45.6402 33.2655C45.7183 32.1093 45.3277 31.0156 44.7652 30.0781C42.5934 29.7031 40.281 29.4687 38.9685 29.375Z" fill="white"/>
<path d="M35.2031 32.8123C35.3906 32.4061 35.6562 32.2186 35.9218 31.8905C35.8906 31.8124 35.8281 31.5468 35.8281 31.4686C35.8281 31.0624 36.1562 30.7499 36.5468 30.7499C36.6405 30.7499 36.7343 30.7655 36.8124 30.7968C38.0155 29.8749 39.5936 29.4843 41.1873 29.8437C41.3279 29.8749 41.4685 29.9218 41.6091 29.9531C40.0467 29.7343 38.2655 30.2968 37.0624 31.2655C37.0936 31.3593 37.203 31.5936 37.203 31.703C37.203 32.1092 36.9374 32.203 36.5468 32.203C36.453 32.203 36.3749 32.1874 36.2812 32.1561C36.0156 32.5155 35.6718 33.2186 35.5156 33.6561C36.1874 34.2498 36.7812 34.4685 37.5624 34.7654C37.5624 34.7341 37.5936 34.6873 37.5936 34.656C37.5936 33.4529 38.6561 32.4686 39.8592 32.4686C40.9373 32.4686 41.8435 33.2498 42.0153 34.281C42.5622 33.9373 43.0778 33.6717 43.4684 33.1717C43.3747 33.0623 43.2809 32.7342 43.2809 32.578C43.2809 32.2186 43.5778 31.9217 43.9372 31.9217C43.984 31.9217 44.0309 31.9217 44.0934 31.9374C44.2965 31.5155 44.4528 31.078 44.5465 30.6249C42.656 29.2187 38.9998 29.4218 38.9998 29.4218C38.9998 29.4218 36.0937 29.2656 34.125 30.2343C34.2656 31.1405 34.6406 32.0467 35.2031 32.8123Z" fill="#373535"/>
<path d="M44.2346 32.2656C44.3752 32.3906 44.4377 32.4843 44.5002 32.5937C44.6721 32.9062 44.3284 33.203 43.9534 33.203C43.9221 33.203 43.8753 33.203 43.844 33.1874C43.4378 33.828 42.719 34.6405 42.0784 35.0623C43.0628 35.2186 43.9846 35.6092 44.7033 36.2186C45.2346 35.2655 45.6408 33.8749 45.6408 32.7031C45.6408 31.8125 45.2502 31.1562 44.6565 30.6719C44.6409 31.1562 44.3752 31.8281 44.2346 32.2656ZM36.2974 38.3279C36.6255 37.4216 37.4224 36.7342 38.188 36.1248C38.0786 35.9686 37.9067 35.5936 37.8442 35.4217C36.9224 35.1405 36.1099 34.6092 35.4693 33.9218C35.4693 33.9374 35.4537 33.9686 35.4537 33.9843C35.3287 34.5155 35.3131 35.0623 35.3756 35.578C35.813 35.6561 36.1568 36.0467 36.1568 36.5154C36.1568 36.7967 35.9068 37.1873 35.7193 37.3748C35.9068 37.781 36.0474 37.9997 36.2974 38.3279Z" fill="#373535"/>
<path d="M36.2342 39.0778C35.8436 38.6872 35.578 37.9216 35.328 37.4372C35.2811 37.4372 35.2343 37.4529 35.1874 37.4529C34.6562 37.4529 34.1093 37.0154 34.2343 36.4998C34.2968 36.2185 34.4999 36.031 34.8124 35.8748C34.7343 35.2811 34.7187 34.453 34.8593 33.8436C34.8905 33.6718 34.9843 33.5936 35.0312 33.4218C34.4531 32.578 34.0781 31.4531 34.0781 30.3437V30.2188C33.0937 30.7187 32.3594 31.4843 32.3594 32.703C32.3594 35.4061 33.9218 38.0622 36.2342 39.0934V39.0778ZM41.9372 35.3436C41.6403 36.1873 40.8278 36.8123 39.8747 36.8123C39.3591 36.8123 38.8904 36.6404 38.531 36.3435C37.7654 36.9373 37.0623 37.9841 36.7186 38.9059C36.8748 39.0778 36.9842 39.2184 37.1717 39.3747C37.7029 39.5153 38.4529 39.3747 39.031 39.3747C41.3591 39.3747 43.4371 38.3435 44.6246 36.5154C43.8121 35.9529 42.8746 35.4217 41.9372 35.3436Z" fill="#373535"/>
<path d="M35.1406 33.1248C35.3281 32.7186 35.5468 32.3592 35.8124 32.0155C35.7812 31.9374 35.7656 31.8436 35.7656 31.7655C35.7656 31.3593 36.0937 31.0468 36.4843 31.0468C36.578 31.0468 36.6718 31.0624 36.7499 31.0937C37.953 30.1718 39.5311 29.7812 41.1248 30.1406C41.2654 30.1718 41.406 30.2187 41.5466 30.2499C39.9842 30.0312 38.3592 30.5155 37.1561 31.4843C37.1874 31.578 37.2186 31.6718 37.2186 31.7655C37.2186 32.1717 36.8905 32.4842 36.4999 32.4842C36.4062 32.4842 36.328 32.4686 36.2343 32.4374C35.9687 32.7967 35.7343 33.203 35.5781 33.6404C36.1562 34.2498 36.8593 34.7498 37.6405 35.031V34.9216C37.6405 33.7186 38.6248 32.7342 39.8279 32.7342C40.906 32.7342 41.8122 33.5154 41.9841 34.5467C42.531 34.2029 42.9997 33.7654 43.4059 33.2498C43.3122 33.1405 43.2497 32.9998 43.2497 32.8436C43.2497 32.4842 43.5465 32.1874 43.9059 32.1874C43.9528 32.1874 43.9997 32.1874 44.0622 32.203C44.2653 31.7811 44.4215 31.3436 44.5153 30.8905C42.6247 29.4843 38.9686 29.6875 38.9686 29.6875C38.9686 29.6875 36.0624 29.5312 34.0938 30.4999C34.2031 31.453 34.5781 32.3592 35.1406 33.1248Z" fill="#1287B1"/>
<path d="M44.3284 32.375C44.469 32.4999 44.5471 32.6718 44.5471 32.8593C44.5471 33.2187 44.2502 33.5155 43.8909 33.5155C43.8596 33.5155 43.8128 33.5155 43.7815 33.4999C43.3753 34.1405 42.8284 34.6874 42.1878 35.0936C43.1253 35.2342 44.0159 35.6405 44.7502 36.2498C45.2814 35.2967 45.5939 34.1874 45.5939 33.0156C45.5939 32.125 45.2033 31.4687 44.6096 30.9844C44.5784 31.4687 44.4846 31.9375 44.3284 32.375ZM36.3911 38.531C36.7193 37.6248 37.2817 36.8279 38.0473 36.2186C37.938 36.0623 37.8442 35.9061 37.7817 35.7186C36.8599 35.4373 36.0474 34.9061 35.4068 34.2186C35.4068 34.2343 35.3912 34.2655 35.3912 34.2811C35.2662 34.8124 35.2506 35.3592 35.3131 35.8748C35.7505 35.953 36.0943 36.3436 36.0943 36.8123C36.0943 37.0935 35.9693 37.3435 35.7818 37.5154C35.938 37.8748 36.1568 38.2185 36.3911 38.531Z" fill="#1287B1"/>
<path d="M36.2342 39.0622C35.8436 38.6716 35.5155 38.2341 35.2655 37.7497C35.2186 37.7497 35.1718 37.7654 35.1249 37.7654C34.5937 37.7654 34.1718 37.3435 34.1718 36.8123C34.1718 36.4373 34.3906 36.1092 34.703 35.9529C34.6249 35.3592 34.6562 34.7655 34.7968 34.1561C34.828 33.9843 34.8905 33.8124 34.9374 33.6405C34.3593 32.7968 34.0156 31.7656 34.0156 30.6562V30.5312C33.0312 31.0312 32.2969 31.7968 32.2969 33.0155C32.2969 35.7186 33.9062 38.0466 36.2186 39.0778C36.2342 39.0778 36.2342 39.0778 36.2342 39.0622ZM41.8747 35.6561C41.5778 36.4998 40.7653 37.1248 39.8122 37.1248C39.2966 37.1248 38.8279 36.9529 38.4685 36.656C37.7029 37.2498 37.1248 38.0622 36.7655 38.9841C36.9217 39.1559 37.0936 39.3122 37.2655 39.4684C37.7967 39.6091 38.3592 39.6872 38.9373 39.6872C41.2653 39.6872 43.3277 38.4841 44.5152 36.656C43.734 36.0936 42.8121 35.7342 41.8747 35.6561Z" fill="#1287B1"/>
<path d="M41.9529 35.0936L43.9684 34.6092L41.9373 34.4999L43.5935 33.2499L41.7185 33.9218L42.9841 32.1562L41.2185 33.328L41.8279 31.2656L40.6248 32.9687L40.5936 30.8125L39.7967 32.7343L39.1405 30.7969L39.1717 33.078L38.0312 31.0312L38.6561 33.203L36.7968 31.8593L38.2499 33.6874L35.9375 32.8437L37.7499 34.1874L35.4219 34.2655L37.8124 34.8749L35.4219 35.3905L37.7812 35.5623L35.7969 36.8279L37.8437 36.0936L36.4218 37.8904L38.2187 36.4373L37.578 38.8435L38.9686 36.8748L38.7811 39.1872L39.5624 37.0779L40.2342 39.281L40.3905 37.0623L41.3904 38.9528L40.7967 36.7967L42.6091 38.2029L41.4373 36.4061L43.4372 37.1873L41.906 35.6873L43.9528 35.8436L41.9529 35.0936Z" fill="white"/>
<path d="M20.4385 38.9527C26.7039 32.6873 31.7037 30.7499 36.2504 29.8749C36.8441 29.7655 36.9691 28.4375 36.9691 28.4375C36.9691 28.4375 37.0473 29.4062 37.4691 29.5312C37.891 29.6562 38.4378 28.0156 38.4378 28.0156C38.4378 28.0156 37.9379 29.4843 38.4378 29.5781C38.9378 29.6562 39.8753 28.1406 39.8753 28.1406C39.8753 28.1406 39.5003 29.4374 39.7503 29.5312C40.0003 29.6093 41.2659 27.6406 41.2659 27.6406C41.2659 27.6406 40.5159 28.9374 41.219 29.0781C41.9377 29.2031 42.9846 28.1875 42.9846 28.1875C42.9846 28.1875 42.1721 29.1093 42.5314 29.2499C44.0939 29.7968 45.3438 27.7812 45.3438 27.7812C45.3438 27.7812 45.047 28.6718 44.297 29.6405C45.9376 30.0624 47.1563 27.5937 47.1563 27.5937L45.9376 30.0624C46.5626 30.3749 49.0781 27.4688 49.0781 27.4688C49.0781 27.4688 47.7813 29.7343 47.0157 30.203C47.4375 30.5468 48.9531 29.1874 48.9531 29.1874C48.9531 29.1874 47.7344 30.703 48.2031 30.7811C48.875 31.328 51.3593 27.9687 51.3593 27.9687C51.3593 27.9687 50.3905 29.953 48.9687 31.4999C50.1562 32.1092 53.1248 28.2812 53.1248 28.2812C53.1248 28.2812 53.0467 29.4999 50.8905 31.4374C52.4842 31.2342 54.5466 28.2031 54.5466 28.2031C54.5466 28.2031 53.7967 30.4686 51.9842 32.078C53.5467 31.9217 56.0622 28.0469 56.0622 28.0469C56.0622 28.0469 55.0935 30.7343 53.1248 32.2967C55.3122 32.7811 58.4684 29.5156 58.4684 29.5156C58.4684 29.5156 57.2341 31.828 55.6091 32.7811C57.4215 33.4685 59.9058 30.6093 59.9058 30.6093C59.9058 30.6093 57.4216 34.4373 53.4686 34.2654C52.1717 34.2029 48.25 30.328 39.844 30.6405C28.7194 31.0467 26.3758 35.7653 20.4385 38.9527Z" fill="#373535" fill-opacity="0.35"/>
<path d="M20.6885 38.484C26.9539 32.2186 31.9537 30.2811 36.5004 29.4062C37.0942 29.2968 37.2191 27.9687 37.2191 27.9687C37.2191 27.9687 37.2973 28.9374 37.7191 29.0624C38.141 29.1874 38.6878 27.5469 38.6878 27.5469C38.6878 27.5469 38.1879 29.0156 38.6878 29.1093C39.1878 29.1874 40.1253 27.6719 40.1253 27.6719C40.1253 27.6719 39.7503 28.9687 40.0003 29.0624C40.2503 29.1406 41.5159 27.1719 41.5159 27.1719C41.5159 27.1719 40.7659 28.4687 41.469 28.6093C42.1877 28.7343 43.2346 27.7187 43.2346 27.7187C43.2346 27.7187 42.4221 28.6406 42.7815 28.7812C44.3439 29.328 45.5939 27.3125 45.5939 27.3125C45.5939 27.3125 45.297 28.2031 44.547 29.1718C46.1876 29.5937 47.4063 27.125 47.4063 27.125L46.1876 29.5937C46.8126 29.9374 49.3437 27.0312 49.3437 27.0312C49.3437 27.0312 48.0469 29.2968 47.2813 29.7655C47.7032 30.0624 49.2187 28.7187 49.2187 28.7187C49.2187 28.7187 48 30.2343 48.4688 30.3124C49.1406 30.8592 51.6249 27.5 51.6249 27.5C51.6249 27.5 50.6406 29.4843 49.2187 31.0311C50.4062 31.6248 53.3905 27.7968 53.3905 27.7968C53.3905 27.7968 53.3123 29.0156 51.1562 30.953C52.7499 30.7499 54.8123 27.7187 54.8123 27.7187C54.8123 27.7187 54.0623 29.9843 52.2499 31.5936C53.8123 31.4373 56.3279 27.5625 56.3279 27.5625C56.3279 27.5625 55.3591 30.2499 53.3905 31.8123C55.5779 32.2967 58.734 29.0312 58.734 29.0312C58.734 29.0312 57.4997 31.3436 55.8747 32.2967C57.6872 32.9842 60.1715 30.1249 60.1715 30.1249C60.1715 30.1249 57.6872 33.9529 53.7342 33.781C52.4374 33.7185 48.5156 29.8437 40.1097 30.1561C28.9851 30.578 26.6258 35.281 20.6885 38.484Z" fill="#373535"/>
<path d="M20.2822 39.6401C23.5946 41.2963 26.6258 39.3901 30.4381 40.4682C33.3443 41.2807 36.8754 42.2963 41.6721 41.5932C46.4688 40.9057 50.5624 38.812 52.5311 35.0934C53.1404 33.4372 55.6247 35.4684 55.6247 35.4684C55.6247 35.4684 53.8123 34.7184 53.8592 35.0621C53.906 35.4215 56.5778 36.6558 56.5778 36.6558C56.5778 36.6558 54.156 35.9059 54.3123 36.4683C54.4529 37.0308 57.3434 39.312 57.3434 39.312C57.3434 39.312 54.0467 36.8433 53.7811 37.1871C53.4998 37.5308 55.1716 38.8901 55.1716 38.8901C55.1716 38.8901 52.4217 37.1871 51.453 37.6871C50.7499 38.0464 54.3123 40.3745 54.3123 40.3745C54.3123 40.3745 51.9999 38.6089 51.453 39.0776C50.9062 39.5464 54.0623 43.3275 54.0623 43.3275C54.0623 43.3275 50.4687 39.4526 50.1093 39.6401C49.7499 39.8276 51.0936 41.6869 51.0936 41.6869C51.0936 41.6869 49.3437 39.7495 48.8593 40.0776C48.375 40.4213 51.3905 45.4368 51.3905 45.4368C51.3905 45.4368 48.125 40.2963 46.7657 41.1557C48.875 45.7961 48.0938 46.4524 48.0938 46.4524C48.0938 46.4524 47.8281 41.7182 45.1876 41.8432C43.8595 41.9057 45.8126 45.3743 45.8126 45.3743C45.8126 45.3743 44.0158 42.2025 42.8127 42.265C45.0157 46.4524 44.2345 48.1398 44.2345 48.1398C44.2345 48.1398 44.5939 44.5618 41.6096 42.5775C42.7502 43.5931 40.8909 48.1398 40.8909 48.1398C40.8909 48.1398 42.5158 41.4369 39.6878 42.7181C39.2347 42.9212 39.6565 46.0618 39.6565 46.0618C39.6565 46.0618 39.0941 42.4681 38.2347 42.6556C37.7347 42.765 35.0786 47.6398 35.0786 47.6398C35.0786 47.6398 37.2504 42.3744 36.5942 42.5931C36.1098 42.7494 35.2036 44.9212 35.2036 44.9212C35.2036 44.9212 35.6411 42.7806 35.2036 42.6556C34.7661 42.5306 32.2974 44.9212 32.2974 44.9212C32.2974 44.9212 34.1255 42.7806 33.813 42.3275C33.3286 41.6557 32.7818 41.6244 32.1099 41.89C31.1412 42.265 29.8444 44.0306 29.8444 44.0306C29.8444 44.0306 31.1412 42.2338 30.9225 41.5775C30.5631 40.4995 26.8289 43.6556 26.8289 43.6556C26.8289 43.6556 29.0319 41.5775 28.5319 41.1244C28.032 40.6869 25.2821 40.8119 24.4383 40.8119C21.9228 40.8432 21.0478 40.2495 20.2822 39.6401Z" fill="#373535" fill-opacity="0.35"/>
<path d="M20.1416 39.2651C23.454 40.9213 26.4851 39.0151 30.2975 40.0932C33.2036 40.9057 36.7348 41.9213 41.5315 41.2182C46.3282 40.5307 50.4218 38.437 52.3905 34.7184C52.9998 33.0622 55.4841 35.0934 55.4841 35.0934C55.4841 35.0934 53.6717 34.3434 53.7185 34.6871C53.7654 35.0465 56.4372 36.2808 56.4372 36.2808C56.4372 36.2808 54.0154 35.5309 54.1717 36.0933C54.3123 36.6558 57.2028 38.937 57.2028 38.937C57.2028 38.937 53.9373 36.4527 53.6717 36.7964C53.4061 37.1402 55.0622 38.4995 55.0622 38.4995C55.0622 38.4995 52.3123 36.7964 51.3436 37.2964C50.6405 37.6558 54.2029 39.9838 54.2029 39.9838C54.2029 39.9838 51.8905 38.2183 51.3436 38.687C50.7968 39.1557 53.9529 42.9369 53.9529 42.9369C53.9529 42.9369 50.3749 39.062 50.0156 39.2495C49.6562 39.437 50.9999 41.2963 50.9999 41.2963C50.9999 41.2963 49.2187 39.3745 48.7343 39.7026C48.25 40.0463 51.2499 45.0618 51.2499 45.0618C51.2499 45.0618 47.9844 39.9057 46.6407 40.7651C48.7656 45.4211 47.9687 46.0774 47.9687 46.0774C47.9687 46.0774 47.7031 41.3432 45.0626 41.4682C43.7345 41.5307 45.6876 44.9993 45.6876 44.9993C45.6876 44.9993 43.9064 41.8431 42.7033 41.9056C44.9064 46.093 44.1251 47.7804 44.1251 47.7804C44.1251 47.7804 44.4845 44.2024 41.5002 42.2181C42.6408 43.2337 40.7815 47.7804 40.7815 47.7804C40.7815 47.7804 42.4064 41.0775 39.5784 42.3588C39.1253 42.5619 39.5472 45.7024 39.5472 45.7024C39.5472 45.7024 38.9847 42.1088 38.1253 42.2963C37.6254 42.4056 34.9692 47.2805 34.9692 47.2805C34.9692 47.2805 37.141 42.015 36.4848 42.2338C36.0004 42.39 35.0942 44.5618 35.0942 44.5618C35.0942 44.5618 35.5317 42.4212 35.0942 42.2963C34.6567 42.1713 32.1881 44.5618 32.1881 44.5618C32.1881 44.5618 34.0161 42.4212 33.7036 41.9681C33.2193 41.2963 32.6724 41.265 32.0006 41.5307C31.0318 41.9056 29.735 43.6712 29.735 43.6712C29.735 43.6712 31.0318 41.8744 30.8131 41.2182C30.4537 40.1401 26.7195 43.2962 26.7195 43.2962C26.7195 43.2962 28.9225 41.2182 28.4226 40.7651C27.9226 40.3276 25.1727 40.4526 24.329 40.4526C21.7822 40.4682 20.9072 39.8745 20.1416 39.2651Z" fill="#373535"/>
</g>
<defs>
<clipPath id="clip0_245_30654">
<rect width="40" height="26.4053" fill="white" transform="translate(20 27)"/>
</clipPath>
</defs>
</svg>
