<svg width="80" height="80" viewBox="0 0 80 80" fill="none" xmlns="http://www.w3.org/2000/svg">
<rect width="80" height="80" rx="8" fill="#F5F8FD"/>
<g clip-path="url(#clip0_245_30684)">
<path d="M46.4067 34.7148L42.431 36.013L38.9722 37.5396L38.0046 37.795C37.7581 38.0295 37.4997 38.2669 37.2202 38.5073C36.9137 38.7717 36.6283 39.0121 36.4089 39.1864C36.1655 39.3787 35.8048 39.7393 35.6216 39.9677C35.3481 40.3102 35.1317 40.6739 35.0386 40.9534C34.8733 41.4582 34.9544 41.9691 35.273 42.4409C35.6817 43.0419 36.496 43.6549 37.4456 44.0726C37.9294 44.286 38.7438 44.5594 39.3568 44.7127C40.3755 44.9711 42.3468 45.2506 43.4316 45.2927C43.651 45.3017 43.9455 45.3017 43.9575 45.2927C43.9816 45.2776 44.1498 44.9561 44.3452 44.5565C45.0123 43.1951 45.4931 41.918 45.7545 40.8272C45.9108 40.1661 46.034 39.2856 46.1151 38.2429C46.1362 37.9514 46.1451 36.9747 46.1271 36.6442C46.1001 36.1033 46.052 35.6645 45.9769 35.2348C45.9649 35.1717 45.9618 35.1146 45.9679 35.1116C45.9799 35.1026 46.0159 35.0906 46.5057 34.9493L46.4066 34.7149V34.7149H46.4067V34.7148ZM45.4992 35.2468C45.5352 35.2468 45.6313 36.1693 45.6554 36.7523C45.6614 36.8755 45.6584 36.9566 45.6524 36.9566C45.6284 36.9566 45.1445 36.6712 44.799 36.4548C44.4985 36.2655 43.9275 35.8869 43.8374 35.8147C43.8073 35.7937 43.8103 35.7907 44.0567 35.7066C44.4744 35.5653 45.4661 35.2468 45.4992 35.2468ZM43.4737 35.9139C43.5008 35.9139 43.5699 35.9529 43.7352 36.0551C44.3542 36.4428 45.1956 36.9116 45.5562 37.0679C45.6674 37.1159 45.6794 37.0979 45.424 37.2722C44.8771 37.6448 44.1949 38.0114 43.3595 38.381C43.2123 38.4472 43.0891 38.4982 43.0861 38.4982C43.0801 38.4982 43.0981 38.4231 43.1221 38.333C43.3234 37.5847 43.4376 36.8274 43.4437 36.2204C43.4467 35.9199 43.4467 35.9199 43.4737 35.9109C43.4677 35.9139 43.4707 35.9139 43.4737 35.9139ZM43.0561 36.0732C43.074 36.0912 43.062 36.7643 43.038 36.9476C42.9839 37.3864 42.8998 37.795 42.7616 38.2549C42.7285 38.366 42.6984 38.4592 42.6925 38.4652C42.6804 38.4802 42.2687 38.0775 42.1335 37.9212C41.8991 37.6508 41.7158 37.3803 41.5806 37.1159C41.5114 36.9807 41.4033 36.7163 41.4123 36.7072C41.4604 36.6742 43.044 36.0612 43.0561 36.0732ZM41.0907 36.8454C41.0937 36.8454 41.0967 36.8454 41.0998 36.8484C41.1057 36.8545 41.1268 36.9025 41.1448 36.9566C41.241 37.2181 41.4573 37.6027 41.6437 37.8491C41.848 38.1196 42.1155 38.4081 42.3378 38.5974C42.41 38.6575 42.476 38.7146 42.485 38.7236C42.5031 38.7416 42.5091 38.7386 42.0192 38.9249C41.4514 39.1413 40.8323 39.3576 40.1231 39.586C39.9537 39.6406 39.7844 39.6957 39.6153 39.7513C39.5882 39.7603 39.5972 39.7453 39.6754 39.6221C40.0269 39.0722 40.5618 37.9934 40.8624 37.2301C40.9134 37.0979 40.9645 36.9657 40.9736 36.9356C40.9856 36.8935 41.0006 36.8785 41.0396 36.8574C41.0607 36.8515 41.0817 36.8454 41.0907 36.8454ZM40.4898 37.0949C40.4988 37.1009 40.3455 37.4224 40.1952 37.7169C39.9037 38.2849 39.5852 38.8438 39.1585 39.523C39.0864 39.6401 39.0173 39.7483 39.0083 39.7604C38.9933 39.7814 38.9872 39.7754 38.9391 39.6822C38.837 39.4809 38.7528 39.2224 38.7077 38.985C38.6626 38.7506 38.6717 38.342 38.7228 38.0895C38.7618 37.9032 38.7588 37.9063 38.849 37.8612C39.2336 37.6658 40.4777 37.0828 40.4898 37.0949ZM45.6734 37.3052V37.4314C45.6734 38.1016 45.6013 39.0211 45.4961 39.6913C45.4781 39.8084 45.463 39.9046 45.4601 39.9076C45.4601 39.9076 45.3729 39.8836 45.2707 39.8535C44.82 39.7123 44.3302 39.5049 43.8884 39.2615C43.5969 39.1023 43.1732 38.8408 43.1852 38.8288C43.1882 38.8258 43.3144 38.7597 43.4617 38.6815C44.0507 38.375 44.6156 38.0445 45.1055 37.7169C45.2888 37.5937 45.5652 37.3954 45.6254 37.3413L45.6734 37.3052ZM38.2209 38.1947C38.2329 38.1947 38.2299 38.2187 38.2119 38.3269C38.1999 38.4051 38.1849 38.5493 38.1789 38.6484C38.1548 39.0872 38.227 39.4117 38.4433 39.8565C38.5034 39.9797 38.5515 40.0819 38.5485 40.0848C38.5274 40.1029 36.5381 40.6859 35.913 40.8572C35.7267 40.9082 35.5645 40.9533 35.5524 40.9563C35.5314 40.9623 35.5284 40.9593 35.5374 40.9082C35.6065 40.4665 35.9431 39.8895 36.4119 39.4027C36.7244 39.0782 36.9738 38.8889 37.4005 38.6454C37.7071 38.4712 38.1788 38.2097 38.2149 38.1977C38.2149 38.1947 38.2179 38.1947 38.2209 38.1947ZM42.9088 39.0331C42.9118 39.0301 42.9839 39.0692 43.071 39.1203C43.7141 39.4929 44.6096 39.8385 45.3729 40.0158L45.442 40.0308L45.3458 40.0848C44.9462 40.3072 43.633 40.8541 42.2898 41.356C42.0944 41.4281 41.9021 41.5003 41.866 41.5153C41.8299 41.5303 41.7969 41.5393 41.7969 41.5363C41.7969 41.5333 41.851 41.4281 41.9201 41.2989C42.2957 40.5957 42.6744 39.7393 42.8667 39.1443C42.8908 39.0872 42.9057 39.0361 42.9088 39.0331ZM42.431 39.1894C42.434 39.1924 42.41 39.2555 42.3799 39.3276C42.1185 39.9617 41.7759 40.6529 41.3371 41.4282C41.226 41.6265 41.1328 41.7858 41.1298 41.7858C41.1268 41.7858 41.0366 41.7317 40.9284 41.6656C40.2913 41.2749 39.7264 40.7941 39.3568 40.3283L39.3027 40.2622L39.5761 40.1871C40.5558 39.9196 41.3882 39.6312 42.2146 39.2766C42.3318 39.2285 42.428 39.1894 42.431 39.1894ZM45.4 40.2261C45.4 40.2261 45.403 40.2291 45.4 40.2261C45.403 40.2952 45.2497 40.9143 45.1235 41.362C45.0183 41.7376 44.9281 42.0322 44.7629 42.552C44.6908 42.7804 44.6277 42.9697 44.6247 42.9697C44.6217 42.9697 44.6036 42.9667 44.5856 42.9607C43.6931 42.7984 42.8938 42.573 42.1425 42.2726C41.9321 42.1884 41.6316 42.0531 41.6136 42.0381C41.6076 42.0321 41.7879 41.948 42.0163 41.8488C43.3836 41.2508 44.802 40.5717 45.2888 40.2802C45.3459 40.2441 45.3909 40.2261 45.4 40.2261ZM38.5455 40.4605C38.5515 40.4665 38.1698 41.0165 37.6349 41.7647C37.4486 42.0262 37.2323 42.3326 37.1511 42.4468C37.07 42.561 36.9468 42.7413 36.8777 42.8495L36.7514 43.0449L36.6162 42.9307C36.4569 42.7984 36.1805 42.516 36.0573 42.3597C35.7988 42.0382 35.6246 41.6986 35.5554 41.3891C35.5224 41.2449 35.5224 41.1727 35.5524 41.1637C35.5975 41.1517 36.3998 40.9624 37.1511 40.7881C37.5688 40.6919 38.0526 40.5778 38.2269 40.5357C38.4012 40.4935 38.5425 40.4605 38.5455 40.4605ZM38.9301 40.6078L39.0262 40.7159C39.459 41.1998 39.9007 41.5574 40.4356 41.8699C40.5318 41.924 40.6039 41.9721 40.5979 41.9751C40.5769 41.9901 38.7408 42.6422 37.8904 42.9367C37.4126 43.1049 37.0189 43.2402 37.0159 43.2402C37.0129 43.2402 36.9859 43.2222 36.9558 43.2011L36.9017 43.162L36.9889 43.0358C37.2713 42.6271 37.626 42.1794 38.3982 41.2479L38.9301 40.6078ZM41.3282 42.3236C41.3311 42.3206 41.4633 42.3687 41.6256 42.4289C42.0163 42.5761 42.3258 42.6692 42.7405 42.7744C43.2514 42.9036 43.9906 43.0299 44.4264 43.0659C44.4925 43.0719 44.5285 43.0779 44.5165 43.0869C44.4954 43.099 44.0537 43.2462 43.7292 43.3484C43.2123 43.5106 41.6347 43.9764 40.3485 44.3461C40.1111 44.4152 39.9067 44.4723 39.8947 44.4753C39.8647 44.4813 39.7655 44.4542 39.7655 44.4422C39.7655 44.4362 39.8376 44.3431 39.9248 44.2409C40.3575 43.724 40.7872 43.147 41.1448 42.6001C41.244 42.4498 41.3282 42.3266 41.3282 42.3236ZM40.7992 42.3387C40.8022 42.3417 40.5889 42.6842 40.2163 43.2732C40.057 43.5226 39.8797 43.8051 39.8166 43.9043C39.7565 44.0004 39.6663 44.1507 39.6153 44.2348L39.5281 44.3881L39.483 44.3761C39.3748 44.346 38.6146 44.0786 38.4132 43.9974C38.1638 43.8983 37.9054 43.7781 37.713 43.6759C37.4727 43.5467 37.1722 43.3543 37.1962 43.3484C37.2022 43.3454 37.6139 43.2341 38.1097 43.0989C39.4259 42.7413 40.1561 42.534 40.634 42.3837C40.7211 42.3567 40.7962 42.3356 40.7992 42.3387ZM44.5405 43.2161H44.5435C44.5555 43.2462 44.0688 44.5985 43.8914 45.0252C43.8524 45.1213 43.8374 45.1454 43.8163 45.1423C43.7652 45.1394 43.0591 45.0402 42.6293 44.9771C41.8811 44.8629 40.6249 44.6435 40.3094 44.5714L40.2373 44.5564L40.685 44.4542C41.6467 44.2378 42.1094 44.1206 42.5782 43.9764C43.1702 43.7961 43.7562 43.5707 44.3482 43.2943C44.4413 43.2522 44.5195 43.2191 44.5405 43.2161Z" fill="url(#paint0_linear_245_30684)"/>
<path d="M42.308 25.4474C42.2419 25.4385 41.1751 25.8231 40.487 26.1025C39.5584 26.4812 38.8372 26.8418 38.3925 27.1543C38.2272 27.2715 38.0198 27.4789 37.9868 27.56C37.9748 27.59 37.9688 27.6261 37.9688 27.6621L38.3714 28.0438L39.33 28.3503L41.6109 28.759L44.2192 29.2068L44.2463 28.9814C44.2373 28.9814 44.2312 28.9784 44.2223 28.9784L43.8796 28.9243L43.8106 28.8011C43.456 28.176 43.0653 27.4007 42.8369 26.8778C42.6597 26.4721 42.4914 26.0034 42.3982 25.6668C42.3471 25.4625 42.3411 25.4505 42.3081 25.4475V25.4474H42.308V25.4474ZM42.2599 25.6007H42.263C42.2659 25.6037 42.278 25.6879 42.29 25.787C42.341 26.2078 42.4343 26.6134 42.5815 27.0521C42.6927 27.3827 42.6927 27.3647 42.5635 27.3256C42.257 27.2415 40.8837 27.0041 39.889 26.8658C39.7297 26.8448 39.5945 26.8238 39.5945 26.8208C39.5825 26.8088 40.3127 26.4271 40.6342 26.2769C41.0459 26.0875 42.1758 25.6157 42.2599 25.6007ZM39.3631 26.947L39.4803 26.986C40.1173 27.2024 41.719 27.5089 42.6025 27.581C42.7016 27.59 42.7858 27.5991 42.7888 27.5991C42.7918 27.6021 42.7077 27.6472 42.5995 27.6982C42.1728 27.9116 41.704 28.173 41.3794 28.3744C41.2833 28.4344 41.1961 28.4826 41.1841 28.4826C41.1721 28.4826 41.109 28.4705 41.0429 28.4615L40.9227 28.4435L40.6222 28.1489C40.0934 27.6351 39.6786 27.2385 39.5194 27.0882L39.3631 26.947ZM39.2429 27.0401L39.6666 27.569C39.898 27.8605 40.1324 28.146 40.1835 28.209C40.2345 28.2722 40.2766 28.3233 40.2736 28.3263C40.2616 28.3353 39.6606 28.2181 39.3421 28.146C39.0145 28.0708 38.8793 28.0348 38.678 27.9717L38.5127 27.9176V27.8755C38.5157 27.6741 38.7711 27.3737 39.2038 27.0672L39.2429 27.0401ZM42.8429 27.7613C42.855 27.7613 42.8699 27.7884 42.906 27.8695C43.0082 28.0949 43.3268 28.7019 43.4048 28.8191C43.4289 28.8582 43.4709 28.8612 43.0473 28.7921C42.0286 28.6267 41.701 28.5727 41.701 28.5667C41.701 28.5637 41.7311 28.5427 41.7701 28.5216C42.0857 28.3474 42.4042 28.125 42.6867 27.8876C42.7558 27.8304 42.8189 27.7764 42.8309 27.7673C42.8339 27.7613 42.8399 27.7583 42.8429 27.7613Z" fill="url(#paint1_linear_245_30684)"/>
<path d="M38.0075 27.5181C38.0075 27.5181 37.9414 27.6233 38.0045 27.7796C38.0436 27.8757 38.1578 27.9929 38.287 28.1131C38.287 28.1131 39.6242 29.4173 39.7865 29.6036C40.5257 30.457 40.8473 31.2984 40.8773 32.4584C40.8954 33.2036 40.7541 33.8587 40.4025 34.619C39.7775 35.9833 38.4582 37.4889 36.4238 39.1597L36.7214 39.0605C36.9137 38.9162 37.1751 38.763 37.7881 38.4264C39.2035 37.6511 40.7962 36.9389 42.7495 36.2057C45.5621 35.1479 50.1869 33.9098 52.8193 33.5071L53.0928 33.465L53.0507 33.3989C52.8103 33.0263 52.645 32.7949 52.4467 32.5485C51.8697 31.8333 51.1696 31.2534 50.3131 30.7725C49.1352 30.1145 47.6115 29.6006 45.6824 29.219C45.3188 29.1468 44.5194 29.0086 43.8703 28.9094C42.494 28.6961 41.6045 28.5488 40.6249 28.3806C40.2733 28.3204 39.7474 28.2303 39.3988 28.1552C39.2185 28.1161 38.873 28.035 38.6025 27.9418C38.3862 27.8576 38.0736 27.7735 38.0075 27.5181ZM38.7828 28.2694C38.7858 28.2664 38.8339 28.2844 38.897 28.3054C39.0112 28.3444 39.1584 28.3895 39.3328 28.4376C39.4647 28.4739 39.5969 28.509 39.7294 28.5428C39.9097 28.5879 40.06 28.6299 40.063 28.6299C40.084 28.651 40.3876 29.6215 40.4897 29.9942C40.5287 30.1355 40.5588 30.2556 40.5558 30.2556C40.5527 30.2587 40.5197 30.2076 40.4807 30.1385C40.1291 29.5194 39.5732 28.8914 38.9301 28.3865C38.846 28.3265 38.7828 28.2724 38.7828 28.2694ZM40.2613 28.678C40.2763 28.678 40.3425 28.6871 40.4236 28.7051C40.9344 28.8193 41.851 28.9936 42.4369 29.0927C42.5361 29.1077 42.6143 29.1258 42.6143 29.1318C42.6143 29.1378 42.5782 29.1588 42.5331 29.1829C42.434 29.234 42.0343 29.4713 41.9021 29.5615C41.5685 29.7839 41.268 30.0243 41.0516 30.2406C40.9645 30.3278 40.8893 30.3999 40.8893 30.3999C40.8893 30.3999 40.8714 30.3488 40.8563 30.2857C40.7481 29.868 40.5227 29.2489 40.3184 28.8132C40.2853 28.7441 40.2583 28.681 40.2583 28.675C40.2583 28.681 40.2583 28.678 40.2613 28.678ZM42.8637 29.1739C42.8817 29.1799 42.9117 29.282 42.9718 29.5074C43.083 29.9432 43.1341 30.43 43.1161 30.8837C43.1101 31.0099 43.1041 31.1271 43.098 31.1422L43.089 31.1722L42.9328 31.1211C42.6112 31.019 42.0884 30.8657 41.6406 30.7395C41.3852 30.6704 41.1779 30.6073 41.1779 30.6013C41.1779 30.5832 41.5505 30.2106 41.7098 30.0694C42.0132 29.8019 42.8366 29.1648 42.8637 29.1739ZM43.071 29.2039C43.08 29.1949 44.3151 29.4082 44.8771 29.5164C45.2948 29.5975 45.9018 29.7238 45.9378 29.7388C45.9559 29.7448 45.8927 29.7809 45.6914 29.871C44.8981 30.2286 44.3091 30.5501 43.7231 30.9408C43.5699 31.043 43.4406 31.1271 43.4376 31.1271C43.4347 31.1271 43.4316 31.04 43.4316 30.9348C43.4316 30.3639 43.3174 29.7869 43.107 29.3001C43.086 29.252 43.068 29.2069 43.071 29.2039ZM46.2654 29.835C46.2744 29.844 46.2353 30.0874 46.1992 30.2316C46.0911 30.6794 45.7996 31.3435 45.442 31.9686C45.3789 32.0798 45.3218 32.1699 45.3157 32.1729C45.3098 32.1759 45.2286 32.1308 45.1355 32.0767C44.7869 31.8724 44.3902 31.6801 43.9575 31.4997C43.8373 31.4487 43.7321 31.4066 43.7291 31.4006C43.708 31.3826 44.6757 30.7425 45.1866 30.436C45.5922 30.1896 46.2533 29.8229 46.2654 29.835ZM46.4937 29.871C46.5208 29.871 47.0677 30.0213 47.3531 30.1054C48.0594 30.3158 48.8707 30.6133 49.3996 30.8537L49.6189 30.9529L49.4657 30.9889C48.1736 31.2864 47.0677 31.629 46.0009 32.0617C45.9138 32.0978 45.8356 32.1278 45.8297 32.1278C45.8236 32.1278 45.8537 32.0587 45.8927 31.9746C46.2143 31.2924 46.4216 30.5802 46.4727 29.9732C46.4757 29.9161 46.4847 29.871 46.4937 29.871ZM41.0486 31.1211C41.0576 31.1121 41.4753 31.2113 41.7007 31.2743C42.0433 31.3705 42.7705 31.6139 42.7705 31.632C42.7705 31.635 42.6894 31.7041 42.5932 31.7883C42.1996 32.1158 41.8209 32.4613 41.3671 32.9001C41.2319 33.0294 41.1177 33.1345 41.1118 33.1345C41.1057 33.1345 41.1028 33.1164 41.1057 33.0924C41.1748 32.5876 41.1598 31.9385 41.0637 31.2804C41.0546 31.1962 41.0456 31.1241 41.0486 31.1211ZM49.8264 31.1302C49.8323 31.1361 49.634 31.4487 49.5078 31.6259C49.3275 31.8844 49.063 32.227 48.465 32.9783C48.1495 33.3749 47.7949 33.8227 47.6777 33.9729C47.5575 34.1232 47.4584 34.2493 47.4553 34.2493C47.4523 34.2493 47.4133 34.1953 47.3712 34.1292C47.0346 33.6243 46.6319 33.1826 46.1541 32.7859C46.064 32.7108 45.9649 32.6296 45.9318 32.6056C45.8987 32.5816 45.8717 32.5575 45.8717 32.5545C45.8717 32.5455 46.3825 32.3261 46.7702 32.1699C47.4494 31.8934 48.3748 31.5629 49.069 31.3495C49.4327 31.2353 49.8203 31.1241 49.8264 31.1302ZM50.0577 31.1902C50.0697 31.1873 50.1419 31.2233 50.229 31.2743C50.9593 31.692 51.6744 32.23 52.2394 32.7829C52.3986 32.9392 52.7923 33.3479 52.7863 33.3509C52.7863 33.3509 52.648 33.3629 52.4858 33.3749C51.2207 33.4711 49.601 33.7385 48.0444 34.1141C47.9392 34.1381 47.8461 34.1592 47.84 34.1592C47.8341 34.1592 47.9512 34.042 48.0985 33.9008C49.012 33.0203 49.4297 32.4644 49.9225 31.4727C49.9916 31.3255 50.0517 31.1993 50.0577 31.1902C50.0547 31.1902 50.0547 31.1902 50.0577 31.1902ZM43.3655 31.8754C43.4076 31.8844 43.7982 32.0678 44.0927 32.215C44.3632 32.3502 44.7689 32.5666 44.7899 32.5846C44.7929 32.5876 44.6486 32.6627 44.4714 32.7499C43.9064 33.0323 43.4226 33.2997 42.9177 33.6063C42.7735 33.6934 42.6533 33.7656 42.6503 33.7656C42.6383 33.7656 42.6413 33.7535 42.7224 33.6063C42.9929 33.1135 43.2092 32.5245 43.3325 31.9505C43.3445 31.9054 43.3565 31.8754 43.3655 31.8754ZM42.9748 31.9475C42.9839 31.9565 42.8817 32.3261 42.8186 32.5275C42.6954 32.9091 42.488 33.3869 42.2867 33.7475C42.2386 33.8316 42.1665 33.9548 42.1274 34.024L42.0523 34.1442L41.884 33.9819C41.6887 33.7926 41.5294 33.6754 41.3251 33.5702C41.2439 33.5282 41.1808 33.4921 41.1808 33.4861C41.1808 33.4621 41.6947 32.9963 42.0884 32.6597C42.3708 32.4163 42.9658 31.9385 42.9748 31.9475ZM45.3639 32.9302L45.5112 33.0263C45.8476 33.2457 46.2443 33.5372 46.5479 33.7926C46.7191 33.9338 47.0496 34.2313 47.1158 34.3035L47.1518 34.3426L46.9085 34.4117C45.5321 34.7933 44.4684 35.1328 43.2273 35.5896C43.089 35.6407 42.9718 35.6828 42.9628 35.6828C42.9448 35.6828 42.9297 35.6978 43.2393 35.4123C44.0327 34.6821 44.7358 33.8767 45.2587 33.0924L45.3639 32.9302ZM44.7358 33.0864C44.7418 33.0924 44.3301 33.6724 44.0837 33.9999C43.7892 34.3906 43.2663 35.0457 42.9057 35.4724C42.7555 35.6497 42.6263 35.7969 42.6203 35.8C42.6112 35.803 42.6082 35.7579 42.6082 35.6888C42.6082 35.3251 42.5151 34.9375 42.3528 34.607C42.2837 34.4687 42.2717 34.4357 42.2867 34.4207C42.3438 34.3695 43.2183 33.8707 43.7712 33.5732C44.1438 33.3749 44.7267 33.0804 44.7358 33.0864ZM40.9374 34.018C40.9464 34.018 41.0156 34.054 41.0937 34.0961C41.286 34.2013 41.4573 34.3185 41.6106 34.4447C41.6165 34.4507 41.5384 34.5138 41.4363 34.5889C41.1508 34.7933 40.7181 35.1208 40.4657 35.3222C40.2012 35.5325 40.1922 35.5385 40.2222 35.4935C40.4206 35.19 40.5197 35.0187 40.6249 34.7993C40.7181 34.604 40.8112 34.3726 40.8773 34.1713C40.9014 34.0841 40.9314 34.018 40.9374 34.018ZM41.9502 34.8113C41.9651 34.8083 41.9832 34.8353 42.0643 34.9556C42.2356 35.211 42.3678 35.5536 42.4009 35.83L42.4069 35.8902L41.9952 36.0494C41.259 36.3349 40.5799 36.6174 40.12 36.8277C39.9909 36.8878 39.7655 36.996 39.6182 37.0681C39.471 37.1432 39.3508 37.2003 39.3508 37.1973C39.3508 37.1943 39.4439 37.1252 39.5581 37.0411C40.4567 36.389 41.2349 35.6738 41.8179 34.9586C41.881 34.8834 41.9382 34.8143 41.9441 34.8113L41.9502 34.8113ZM41.4844 34.9255C41.4964 34.9375 41.1538 35.3252 40.9194 35.5626C40.3395 36.1546 39.7655 36.6174 39.0533 37.0681C38.9631 37.1252 38.882 37.1763 38.873 37.1823C38.8519 37.1943 38.879 37.1643 39.1915 36.8247C39.3899 36.6113 39.5401 36.431 39.7114 36.2087C39.8256 36.0615 39.8466 36.0404 40.0119 35.9232C40.4537 35.6046 41.4723 34.9135 41.4844 34.9255Z" fill="url(#paint2_radial_245_30684)"/>
<path d="M28.472 47.368C28.4165 47.368 28.3611 47.3733 28.3062 47.3733C27.1865 47.433 26.4313 47.9257 25.9898 48.888C25.6121 49.7583 25.6534 50.8959 25.994 51.7715C26.3901 52.6271 27.0302 53.0786 28.0986 53.2492C28.3246 53.2862 28.4762 53.4103 28.914 53.9215L29.4527 54.5526H30.4298L29.7801 53.8977C29.421 53.5386 29.1305 53.2259 29.1305 53.1985C29.1305 53.171 29.2679 53.1108 29.4342 53.0601C29.9824 52.8942 30.4376 52.4707 30.7561 51.8216C31.0138 51.3004 31.0508 51.1393 31.0878 50.4908C31.1844 48.5605 30.1667 47.3537 28.4719 47.3675L28.472 47.368ZM29.3286 52.4159C28.8533 52.6461 28.1631 52.6921 27.7125 52.5268C27.2467 52.3557 26.7957 51.8719 26.5929 51.3242C26.3674 50.7254 26.3996 49.6205 26.6573 49.123C27.0719 48.3308 27.6201 47.9664 28.4213 47.9664C29.6095 47.9664 30.2855 48.6942 30.3738 50.062C30.4435 51.2039 30.0611 52.0605 29.3291 52.4154L29.3286 52.4159ZM46.2065 49.0169C45.7966 49.0169 45.4829 49.1827 45.2716 49.5096L45.1058 49.7684V49.0955H44.3965V53.1304H45.1053V51.8407C45.1053 50.6614 45.1201 50.5236 45.2849 50.2009C45.512 49.7583 45.9027 49.5376 46.2804 49.6432L46.5339 49.7172V49.0179H46.2065V49.0169ZM42.0395 48.9799C41.9006 48.9799 41.7532 48.9984 41.6065 49.0306C40.6574 49.2788 40.1224 50.1872 40.1552 51.122C40.1552 51.9047 40.3072 52.296 40.6849 52.7064C41.4586 53.3411 42.1584 53.3918 43.1026 53.0512C43.2637 52.9826 43.4391 52.9033 43.4391 52.9033V52.2686L43.1026 52.4428C42.3384 52.7755 41.7628 52.7755 41.3017 52.3837C41.0076 52.0842 40.8782 51.7251 40.8185 51.3153H43.6783V50.7713C43.6783 49.6622 43.0108 48.9619 42.039 48.9799H42.0395ZM40.8829 50.7491C40.8829 50.7491 40.9886 50.0573 41.3804 49.7858C41.569 49.6527 41.7855 49.5883 41.9973 49.5883C42.2096 49.5883 42.4214 49.6569 42.5962 49.7906C42.9554 50.0668 43.0155 50.7439 43.0155 50.7439H40.883V50.7491H40.8829ZM23.7838 50.0214C23.0148 49.5555 22.6737 49.2196 22.7154 48.8235C22.8347 47.7277 24.1889 47.8793 24.9388 48.2939L24.9441 47.5566C24.9441 47.5566 24.5295 47.3771 23.9354 47.3675C23.0238 47.3538 22.4344 47.6527 22.1582 48.2611C21.7526 49.1589 22.1118 49.8359 23.4099 50.5912C24.1387 51.0153 24.4609 51.3834 24.4609 51.7848C24.4609 52.6139 23.4611 52.9033 22.4297 52.3831C22.2175 52.2775 22.0379 52.1893 22.0284 52.1893C21.9914 52.4243 22.0104 52.9868 22.0104 52.9868C22.0104 52.9868 22.3273 53.1199 22.8026 53.2117C23.9813 53.4467 25.054 52.8938 25.1554 51.996C25.2436 51.1531 24.9388 50.711 23.7838 50.0208L23.7838 50.0214ZM52.4838 48.9704C52.3454 48.9704 52.1985 48.9894 52.0454 49.0216C51.0974 49.2698 50.5634 50.1782 50.5999 51.113C50.5999 51.8947 50.7515 52.2823 51.1291 52.6921C51.9028 53.3274 52.6026 53.3786 53.5516 53.0375C53.7122 52.9689 53.887 52.8908 53.887 52.8908V52.2549L53.5511 52.4302C52.7854 52.7619 52.2097 52.7619 51.7502 52.37C51.4544 52.0711 51.3261 51.7162 51.2664 51.3016H54.1215V50.7576C54.1215 49.6539 53.4539 48.953 52.4821 48.9715L52.4838 48.9704ZM51.3271 50.7396C51.3271 50.7396 51.4338 50.0488 51.8252 49.772C52.0132 49.6385 52.2297 49.574 52.4415 49.574C52.6527 49.574 52.8656 49.6427 53.0404 49.7768C53.3996 50.053 53.4598 50.7348 53.4598 50.7348H51.3277L51.3271 50.7396ZM38.3268 50.0303C37.5579 49.5656 37.2177 49.2286 37.2589 48.8325C37.3783 47.7361 38.7324 47.8882 39.4823 48.3028L39.4876 47.5656C39.4876 47.5656 39.073 47.386 38.4789 47.3775C37.5673 47.3638 36.978 47.6627 36.7013 48.2711C36.2962 49.1689 36.6601 49.846 37.954 50.6012C38.6818 51.0248 39.0039 51.3881 39.0039 51.7895C39.0039 52.6187 38.0047 52.9128 36.9732 52.3878C36.762 52.2822 36.5824 52.1951 36.5719 52.1951C36.5349 52.4301 36.5539 52.9926 36.5539 52.9926C36.5539 52.9926 36.8671 53.1209 37.3408 53.2175C38.5207 53.4531 39.5938 52.9006 39.6947 52.0028C39.7824 51.1641 39.4782 50.7221 38.3268 50.0313V50.0303H38.3268ZM56.6512 49.0074C56.2414 49.0074 55.924 49.1737 55.7164 49.5006L55.5505 49.7583V49.0866H54.8413V53.1204H55.55V51.8308C55.55 50.652 55.5643 50.5136 55.7296 50.1914C55.9567 49.7494 56.3475 49.5281 56.7251 49.6343L56.9786 49.7082V49.0074H56.6512V49.0074ZM32.6864 50.0071V47.4372H31.9714V53.1294H34.9785V52.4571H32.6864V50.0071H32.6864ZM49.2231 50.8082L48.6337 52.3419L48.067 50.7998L47.4913 49.0908H46.7594C47.2337 50.4354 47.7496 51.8032 48.2698 53.1294C48.4953 53.1346 48.7214 53.1294 48.9468 53.1294L49.7428 51.1309L50.5534 49.0913H49.8537C49.8537 49.0913 49.5447 49.9015 49.2226 50.8088L49.2231 50.8082ZM34.3342 45.8861C34.4493 45.8861 34.5454 45.8492 34.6246 45.7699C34.7028 45.6917 34.744 45.5999 34.744 45.4847C34.744 45.3696 34.7028 45.2735 34.6246 45.1995C34.5454 45.1256 34.454 45.0886 34.3394 45.0886C34.2233 45.0886 34.1271 45.1256 34.049 45.2037C33.9698 45.2819 33.9338 45.3781 33.9338 45.489C33.9338 45.6052 33.9708 45.7012 34.049 45.7742C34.1229 45.8481 34.219 45.8851 34.3342 45.8851V45.8861ZM34.0807 45.2312C34.1493 45.1626 34.2328 45.1309 34.3394 45.1309C34.4398 45.1309 34.5233 45.1626 34.593 45.2312C34.6616 45.2999 34.6986 45.3833 34.6986 45.4847C34.6986 45.5861 34.6616 45.6738 34.593 45.7424C34.5233 45.811 34.4398 45.8438 34.3394 45.8438C34.2375 45.8438 34.1546 45.8121 34.086 45.7424C34.0173 45.6738 33.9803 45.5861 33.9803 45.4847C33.9803 45.3833 34.012 45.2999 34.0807 45.2312ZM34.2512 45.5217H34.2977C34.3305 45.5217 34.3627 45.5534 34.3901 45.6136L34.4456 45.7382H34.5327L34.4641 45.5998C34.4361 45.5444 34.4087 45.5122 34.3764 45.5031C34.4171 45.4936 34.4493 45.4799 34.4726 45.4524C34.4958 45.4287 34.5042 45.3965 34.5042 45.36C34.5042 45.3178 34.491 45.2861 34.4631 45.2629C34.4314 45.2365 34.3807 45.2222 34.3151 45.2222H34.1684V45.7382H34.2423V45.5217L34.2512 45.5217ZM34.2512 45.2819H34.3157C34.3622 45.2819 34.3949 45.2914 34.4129 45.3051C34.4303 45.3189 34.4351 45.3369 34.4351 45.3696C34.4351 45.4293 34.398 45.4573 34.3294 45.4573H34.2502V45.2819H34.2512ZM22.4391 45.4757C22.4391 45.2962 22.4339 45.1626 22.4296 45.0839H22.4339C22.4523 45.1768 22.4751 45.246 22.4936 45.2919L23.1801 46.8256H23.2952L23.9818 45.2782C24.0003 45.236 24.0188 45.1726 24.0415 45.0844H24.0467C24.033 45.2376 24.0283 45.3707 24.0283 45.4768V46.8304H24.2633V44.8182H23.9686L23.3375 46.2178C23.3142 46.2732 23.282 46.3562 23.2408 46.466H23.2313C23.2176 46.4116 23.1853 46.3287 23.1394 46.2273L22.5225 44.8134H22.2094V46.8256H22.4354V45.4767L22.4391 45.4757ZM24.7782 45.4795H24.9811V46.7327H24.7782V45.4795ZM24.8796 45.02C24.9219 45.02 24.9578 45.0057 24.9853 44.9778C25.0133 44.9503 25.0318 44.9144 25.0318 44.8721C25.0318 44.8309 25.018 44.7939 24.9858 44.7665C24.9573 44.7385 24.9208 44.7242 24.8791 44.7242C24.838 44.7242 24.801 44.7385 24.7735 44.7665C24.7456 44.7939 24.727 44.8309 24.727 44.8721C24.727 44.9181 24.7413 44.9503 24.7735 44.9778C24.8052 45.0057 24.8379 45.02 24.8791 45.02H24.8796ZM26.4271 46.7602V46.5394C26.3161 46.6223 26.1968 46.6636 26.0732 46.6636C25.9254 46.6636 25.8054 46.6129 25.7178 46.5157C25.6307 46.4196 25.5842 46.2859 25.5842 46.1196C25.5842 45.9453 25.6307 45.8069 25.7268 45.7013C25.8192 45.5999 25.9391 45.5492 26.0859 45.5492C26.2058 45.5492 26.3209 45.5862 26.4271 45.6602V45.4251C26.3305 45.3744 26.2201 45.3512 26.0954 45.3512C25.8651 45.3512 25.6856 45.4251 25.5515 45.5678C25.4184 45.7103 25.3497 45.9042 25.3497 46.1381C25.3497 46.3462 25.4094 46.521 25.5335 46.6547C25.6629 46.792 25.8283 46.8617 26.031 46.8617C26.1878 46.8573 26.3161 46.8246 26.4271 46.7602ZM27.0075 46.0921C27.0075 45.9268 27.0444 45.7932 27.1131 45.7012C27.1775 45.6184 27.2557 45.5766 27.3481 45.5766C27.4263 45.5766 27.4817 45.5909 27.5223 45.6231V45.3833C27.4907 45.3696 27.4447 45.3649 27.3851 45.3649C27.3021 45.3649 27.2282 45.3928 27.1633 45.4441C27.0946 45.4984 27.0397 45.5814 27.0075 45.687H27.0022V45.3928H26.7725V46.8293H27.0027V46.0921H27.0075ZM28.3294 46.8579C28.5459 46.8579 28.7202 46.7881 28.8496 46.6498C28.9784 46.5124 29.0428 46.3276 29.0428 46.0973C29.0428 45.8624 28.9837 45.6828 28.8633 45.5491C28.744 45.4156 28.5781 45.3511 28.3615 45.3511C28.145 45.3511 27.9707 45.4155 27.8413 45.5401C27.703 45.6775 27.6301 45.8713 27.6301 46.1201C27.6301 46.3366 27.6892 46.5162 27.8139 46.6498C27.9427 46.7881 28.1133 46.8573 28.3294 46.8573V46.8579ZM28.0019 45.6875C28.0896 45.5951 28.2048 45.5491 28.3473 45.5491C28.4952 45.5491 28.6061 45.5951 28.6885 45.6875C28.7714 45.7842 28.8126 45.9221 28.8126 46.1063C28.8126 46.2816 28.7756 46.4195 28.6975 46.5119C28.6193 46.6086 28.5042 46.6598 28.3521 46.6598C28.2042 46.6598 28.0896 46.6085 28.0019 46.5119C27.9148 46.4148 27.8731 46.2816 27.8731 46.1063C27.8641 45.9321 27.9101 45.7895 28.0019 45.6875ZM30.0511 46.7327C30.1387 46.6546 30.1853 46.5584 30.1853 46.438C30.1853 46.3323 30.1482 46.2447 30.0796 46.1755C30.0236 46.1201 29.937 46.0699 29.8119 46.0192C29.7009 45.9728 29.6323 45.9315 29.5953 45.8993C29.5583 45.8623 29.5356 45.8164 29.5356 45.7514C29.5356 45.6918 29.5589 45.6458 29.6043 45.6088C29.6508 45.5719 29.7099 45.554 29.7892 45.554C29.9133 45.554 30.0194 45.5867 30.1165 45.6559V45.4256C30.0236 45.3792 29.9227 45.357 29.8076 45.357C29.6597 45.357 29.5351 45.3977 29.4432 45.4763C29.3465 45.5545 29.3006 45.6559 29.3006 45.7752C29.3006 45.8808 29.3323 45.9685 29.3924 46.0329C29.4431 46.0879 29.5298 46.1439 29.6502 46.194C29.7653 46.2447 29.8435 46.2907 29.8852 46.3276C29.9264 46.3646 29.9449 46.4105 29.9449 46.465C29.9449 46.5991 29.853 46.6683 29.6734 46.6683C29.535 46.6683 29.411 46.6229 29.3 46.531V46.7791C29.4003 46.8394 29.5208 46.8668 29.6538 46.8668C29.8244 46.8579 29.958 46.8162 30.0499 46.7332L30.0511 46.7327ZM31.1475 45.3511C30.9309 45.3511 30.7566 45.4156 30.6273 45.5402C30.4899 45.6776 30.416 45.8714 30.416 46.1201C30.416 46.3367 30.4757 46.5162 30.5998 46.6498C30.7292 46.7882 30.8992 46.8574 31.1158 46.8574C31.3376 46.8574 31.5066 46.7877 31.636 46.6493C31.7654 46.512 31.8298 46.3271 31.8298 46.0968C31.8298 45.8618 31.7696 45.6823 31.6502 45.5487C31.5256 45.415 31.3597 45.3506 31.1485 45.3506L31.1475 45.3511ZM31.5942 46.1064C31.5942 46.2817 31.5573 46.4195 31.4791 46.512C31.401 46.6086 31.2858 46.6598 31.1337 46.6598C30.9858 46.6598 30.8712 46.6086 30.7835 46.512C30.6964 46.4148 30.6547 46.2817 30.6547 46.1064C30.6547 45.9215 30.7007 45.779 30.7931 45.6828C30.8802 45.5909 30.9954 45.5444 31.1385 45.5444C31.281 45.5444 31.3957 45.5908 31.4785 45.6828C31.5525 45.7842 31.5937 45.922 31.5937 46.1064H31.5942ZM32.2164 46.8251H32.4461V45.5814H32.7825V45.3881H32.4461V45.1663C32.4461 44.9646 32.5243 44.8632 32.6859 44.8632C32.7403 44.8632 32.7957 44.8769 32.837 44.9001V44.6926C32.7957 44.6741 32.7403 44.6699 32.6711 44.6699C32.547 44.6699 32.4456 44.7069 32.3626 44.785C32.266 44.8769 32.2148 44.9963 32.2148 45.158V45.3935H31.9718V45.5868H32.2148V46.8258L32.2164 46.8251ZM33.1601 46.4332C33.1601 46.7142 33.2843 46.8573 33.5378 46.8573C33.6297 46.8573 33.6988 46.8426 33.7543 46.8098V46.6123C33.7121 46.644 33.6619 46.6588 33.6064 46.6588C33.5283 46.6588 33.4734 46.6403 33.4411 46.5986C33.4084 46.5574 33.3899 46.4876 33.3899 46.3915V45.5809H33.7543V45.3876H33.3899V44.964C33.3107 44.9915 33.2331 45.0147 33.1596 45.0379V45.3875H32.9114V45.5809H33.1596V46.4327L33.1601 46.4332ZM57.8764 49.0812C57.7983 49.0074 57.7059 48.9704 57.5913 48.9704C57.4751 48.9704 57.3789 49.0074 57.3008 49.0866C57.2226 49.1642 57.1856 49.2608 57.1856 49.3718C57.1856 49.4869 57.2226 49.583 57.3002 49.6569C57.3784 49.7309 57.4745 49.7679 57.5907 49.7679C57.7053 49.7679 57.8019 49.7309 57.8812 49.6527C57.9588 49.5735 58 49.4821 58 49.3675C57.9958 49.2514 57.9541 49.1552 57.8759 49.0813L57.8764 49.0812ZM57.8395 49.6253C57.7708 49.6939 57.6874 49.7256 57.586 49.7256C57.4857 49.7256 57.4022 49.6939 57.3325 49.6253C57.2639 49.5555 57.2268 49.4684 57.2268 49.3665C57.2268 49.2661 57.2585 49.1827 57.3283 49.113C57.3969 49.0444 57.4799 49.0126 57.586 49.0126C57.6863 49.0126 57.7698 49.0444 57.8395 49.113C57.9081 49.1827 57.9451 49.2661 57.9451 49.3665C57.9451 49.4732 57.9134 49.5555 57.8395 49.6253ZM57.6324 49.3902C57.6736 49.3807 57.7064 49.3622 57.7291 49.3395C57.7524 49.3157 57.7608 49.2835 57.7608 49.2466C57.7608 49.2054 57.7476 49.1727 57.7197 49.15C57.688 49.1235 57.6368 49.1093 57.5718 49.1093H57.425V49.6247H57.499V49.4082H57.5449C57.5766 49.4082 57.6083 49.4398 57.6368 49.5001L57.6916 49.6242H57.7794L57.7107 49.4858C57.6869 49.4256 57.6595 49.3981 57.6315 49.3891L57.6324 49.3902ZM57.5817 49.3438H57.5025V49.1695H57.5675C57.6135 49.1695 57.6457 49.1779 57.6642 49.1922C57.6826 49.2059 57.6869 49.2239 57.6869 49.2567C57.6869 49.3163 57.6499 49.3438 57.5813 49.3438L57.5817 49.3438ZM44.733 45.3284H44.7974V44.8124H44.968V44.748H44.5624V44.8124H44.733V45.3284H44.733ZM45.1238 44.9408C45.1238 44.8906 45.1238 44.8494 45.1201 44.8262C45.1243 44.8536 45.1338 44.8722 45.1381 44.8859L45.3361 45.3284H45.3678L45.5664 44.8816C45.5717 44.8679 45.5759 44.8499 45.5849 44.8262C45.5806 44.8722 45.5806 44.909 45.5806 44.9371V45.3279H45.6493V44.748H45.5664L45.3869 45.1483C45.3826 45.1626 45.3683 45.1906 45.3594 45.2223H45.3541C45.3504 45.2038 45.3409 45.1853 45.3277 45.1537L45.1481 44.748H45.0552V45.329H45.1201V44.9413L45.1238 44.9408Z" fill="#231F1F"/>
</g>
<defs>
<linearGradient id="paint0_linear_245_30684" x1="37.9461" y1="43.3356" x2="39.3837" y2="42.4862" gradientUnits="userSpaceOnUse">
<stop stop-color="#909CA9"/>
<stop offset="1" stop-color="#EDEDEE"/>
</linearGradient>
<linearGradient id="paint1_linear_245_30684" x1="37.9793" y1="27.3212" x2="39.136" y2="27.3212" gradientUnits="userSpaceOnUse">
<stop stop-color="#939FAB"/>
<stop offset="1" stop-color="#DCDEE1"/>
</linearGradient>
<radialGradient id="paint2_radial_245_30684" cx="0" cy="0" r="1" gradientUnits="userSpaceOnUse" gradientTransform="translate(43.8159 32.6265) rotate(-171.457) scale(1.49135 2.98344)">
<stop stop-color="#EE352C"/>
<stop offset="1" stop-color="#A91D22"/>
</radialGradient>
<clipPath id="clip0_245_30684">
<rect width="36" height="36" fill="white" transform="translate(22 22)"/>
</clipPath>
</defs>
</svg>
