<svg width="80" height="80" viewBox="0 0 80 80" fill="none" xmlns="http://www.w3.org/2000/svg">
<rect width="80" height="80" rx="8" fill="#F5F8FD"/>
<path d="M23.8758 40.1077C23.8758 43.9115 20.7696 46.9951 16.9379 46.9951C13.1062 46.9951 10 43.9115 10 40.1077C10 36.3039 13.1062 33.2203 16.9379 33.2203C20.7696 33.2203 23.8758 36.3039 23.8758 40.1077Z" fill="white"/>
<path d="M10 33.4458H23.8756V33.2255H10V33.4458Z" fill="#D7C718"/>
<path d="M10 33.4976H23.8756V33.4458H10V33.4976Z" fill="#D7C718"/>
<path d="M10 33.5493H23.8756V33.4975H10V33.5493Z" fill="#D5C218"/>
<path d="M10 33.6011H23.8756V33.5493H10V33.6011Z" fill="#D4BD18"/>
<path d="M10 33.6528H23.8756V33.601H10V33.6528Z" fill="#D3B818"/>
<path d="M10 33.7046H23.8756V33.6528H10V33.7046Z" fill="#D2B319"/>
<path d="M10 33.7563H23.8756V33.7046H10V33.7563Z" fill="#D1AF19"/>
<path d="M10 33.8081H23.8756V33.7563H10V33.8081Z" fill="#CFA919"/>
<path d="M10 33.8599H23.8756V33.8081H10V33.8599Z" fill="#CEA518"/>
<path d="M10 33.9116H23.8756V33.8598H10V33.9116Z" fill="#CEA218"/>
<path d="M10 33.9634H23.8756V33.9116H10V33.9634Z" fill="#CB9D18"/>
<path d="M10 34.0156H23.8756V33.9638H10V34.0156Z" fill="#C99819"/>
<path d="M10 34.0674H23.8756V34.0156H10V34.0674Z" fill="#C89419"/>
<path d="M10 34.1191H23.8756V34.0673H10V34.1191Z" fill="#C88F1A"/>
<path d="M10 34.1709H23.8756V34.1191H10V34.1709Z" fill="#C78B1A"/>
<path d="M10 34.2227H23.8756V34.1709H10V34.2227Z" fill="#C5881B"/>
<path d="M10 34.2744H23.8756V34.2226H10V34.2744Z" fill="#C5831B"/>
<path d="M10 34.3262H23.8756V34.2744H10V34.3262Z" fill="#C37F1B"/>
<path d="M10 34.3779H23.8756V34.3261H10V34.3779Z" fill="#C27B1C"/>
<path d="M10 34.4297H23.8756V34.3779H10V34.4297Z" fill="#C1771C"/>
<path d="M10 34.4814H23.8756V34.4297H10V34.4814Z" fill="#C0741C"/>
<path d="M10 34.5332H23.8756V34.4814H10V34.5332Z" fill="#BF711C"/>
<path d="M10 34.585H23.8756V34.5332H10V34.585Z" fill="#BF6D1D"/>
<path d="M10 34.6367H23.8756V34.5849H10V34.6367Z" fill="#BE6A1D"/>
<path d="M10 34.689H23.8756V34.6372H10V34.689Z" fill="#BC661D"/>
<path d="M10 34.7407H23.8756V34.6889H10V34.7407Z" fill="#BB631D"/>
<path d="M10 34.7925H23.8756V34.7407H10V34.7925Z" fill="#BA601E"/>
<path d="M10 34.8442H23.8756V34.7924H10V34.8442Z" fill="#BA5D1E"/>
<path d="M10 34.896H23.8756V34.8442H10V34.896Z" fill="#BA5B1E"/>
<path d="M10 34.9478H23.8756V34.896H10V34.9478Z" fill="#B9581E"/>
<path d="M10 34.9995H23.8756V34.9477H10V34.9995Z" fill="#B8551E"/>
<path d="M10 35.0513H23.8756V34.9995H10V35.0513Z" fill="#B7531E"/>
<path d="M10 35.103H23.8756V35.0512H10V35.103Z" fill="#B6511F"/>
<path d="M10 35.1548H23.8756V35.103H10V35.1548Z" fill="#B54F1F"/>
<path d="M10 35.2065H23.8756V35.1547H10V35.2065Z" fill="#B54D1F"/>
<path d="M10 35.2583H23.8756V35.2065H10V35.2583Z" fill="#B44B20"/>
<path d="M10 35.3101H23.8756V35.2583H10V35.3101Z" fill="#B34720"/>
<path d="M10 35.3618H23.8756V35.31H10V35.3618Z" fill="#B24520"/>
<path d="M10 35.4141H23.8756V35.3623H10V35.4141Z" fill="#B24420"/>
<path d="M10 35.4658H23.8756V35.414H10V35.4658Z" fill="#B24120"/>
<path d="M10 35.5176H23.8756V35.4658H10V35.5176Z" fill="#B04020"/>
<path d="M10 35.5693H23.8756V35.5175H10V35.5693Z" fill="#B03E20"/>
<path d="M10 35.6211H23.8756V35.5693H10V35.6211Z" fill="#B03D20"/>
<path d="M10 35.6729H23.8756V35.6211H10V35.6729Z" fill="#AE3B20"/>
<path d="M10 35.7246H23.8756V35.6728H10V35.7246Z" fill="#AE3A21"/>
<path d="M10 35.7764H23.8756V35.7246H10V35.7764Z" fill="#AE3921"/>
<path d="M10 35.8281H23.8756V35.7763H10V35.8281Z" fill="#AC3722"/>
<path d="M10 35.8799H23.8756V35.8281H10V35.8799Z" fill="#AC3622"/>
<path d="M10 35.9316H23.8756V35.8799H10V35.9316Z" fill="#AB3522"/>
<path d="M10 35.9834H23.8756V35.9316H10V35.9834Z" fill="#AB3422"/>
<path d="M10 36.0352H23.8756V35.9834H10V36.0352Z" fill="#AB3322"/>
<path d="M10 36.0874H23.8756V36.0356H10V36.0874Z" fill="#AA3122"/>
<path d="M10 36.1392H23.8756V36.0874H10V36.1392Z" fill="#AA3122"/>
<path d="M10 36.1909H23.8756V36.1391H10V36.1909Z" fill="#A92F22"/>
<path d="M10 36.2427H23.8756V36.1909H10V36.2427Z" fill="#A82E22"/>
<path d="M10 36.2944H23.8756V36.2426H10V36.2944Z" fill="#A82E22"/>
<path d="M10 36.3462H23.8756V36.2944H10V36.3462Z" fill="#A82D22"/>
<path d="M10 36.3979H23.8756V36.3462H10V36.3979Z" fill="#A82C22"/>
<path d="M10 36.4497H23.8756V36.3979H10V36.4497Z" fill="#A72B22"/>
<path d="M10 36.5015H23.8756V36.4497H10V36.5015Z" fill="#A62A22"/>
<path d="M10 36.5532H23.8756V36.5014H10V36.5532Z" fill="#A62922"/>
<path d="M10 36.605H23.8756V36.5532H10V36.605Z" fill="#A62922"/>
<path d="M10 36.6567H23.8756V36.6049H10V36.6567Z" fill="#A62823"/>
<path d="M10 36.7085H23.8756V36.6567H10V36.7085Z" fill="#A62723"/>
<path d="M10 36.7607H23.8756V36.7089H10V36.7607Z" fill="#A62623"/>
<path d="M10 36.8125H23.8756V36.7607H10V36.8125Z" fill="#A52623"/>
<path d="M10 36.8643H23.8756V36.8125H10V36.8643Z" fill="#A52523"/>
<path d="M10 36.916H23.8756V36.8642H10V36.916Z" fill="#A52523"/>
<path d="M10 36.9678H23.8756V36.916H10V36.9678Z" fill="#A42423"/>
<path d="M10 37.0195H23.8756V36.9677H10V37.0195Z" fill="#A42423"/>
<path d="M10 37.0713H23.8756V37.0195H10V37.0713Z" fill="#A42323"/>
<path d="M10 37.123H23.8756V37.0713H10V37.123Z" fill="#A42323"/>
<path d="M10 37.1748H23.8756V37.123H10V37.1748Z" fill="#A42223"/>
<path d="M10 37.2266H23.8756V37.1748H10V37.2266Z" fill="#A32223"/>
<path d="M10 37.2783H23.8756V37.2265H10V37.2783Z" fill="#A32223"/>
<path d="M10 37.3301H23.8756V37.2783H10V37.3301Z" fill="#A32223"/>
<path d="M10 37.3818H23.8756V37.33H10V37.3818Z" fill="#A32123"/>
<path d="M10 37.4336H23.8756V37.3818H10V37.4336Z" fill="#A32123"/>
<path d="M10 37.4858H23.8756V37.434H10V37.4858Z" fill="#A32123"/>
<path d="M10 37.5376H23.8756V37.4858H10V37.5376Z" fill="#A22023"/>
<path d="M10 37.5894H23.8756V37.5376H10V37.5894Z" fill="#A22023"/>
<path d="M10 37.6411H23.8756V37.5893H10V37.6411Z" fill="#A22023"/>
<path d="M10 37.6929H23.8756V37.6411H10V37.6929Z" fill="#A22023"/>
<path d="M10 37.7446H23.8756V37.6928H10V37.7446Z" fill="#A22023"/>
<path d="M10 37.7964H23.8756V37.7446H10V37.7964Z" fill="#A11F23"/>
<path d="M10 37.8481H23.8756V37.7963H10V37.8481Z" fill="#A11F23"/>
<path d="M10 37.8999H23.8756V37.8481H10V37.8999Z" fill="#A11F23"/>
<path d="M10 37.9517H23.8756V37.8999H10V37.9517Z" fill="#A11E24"/>
<path d="M10 38.0034H23.8756V37.9516H10V38.0034Z" fill="#A11E24"/>
<path d="M10 38.0552H23.8756V38.0034H10V38.0552Z" fill="#A11E24"/>
<path d="M10 38.1069H23.8756V38.0551H10V38.1069Z" fill="#A11E24"/>
<path d="M10 38.1592H23.8756V38.1074H10V38.1592Z" fill="#A11E24"/>
<path d="M10 38.2109H23.8756V38.1591H10V38.2109Z" fill="#A11E24"/>
<path d="M10 38.2627H23.8756V38.2109H10V38.2627Z" fill="#A01E24"/>
<path d="M10 38.3145H23.8756V38.2627H10V38.3145Z" fill="#A01E24"/>
<path d="M10 38.3662H23.8756V38.3144H10V38.3662Z" fill="#A01D24"/>
<path d="M10 38.418H23.8756V38.3662H10V38.418Z" fill="#A01D24"/>
<path d="M10 38.4697H23.8756V38.4179H10V38.4697Z" fill="#A01D24"/>
<path d="M10 38.5215H23.8756V38.4697H10V38.5215Z" fill="#A01D24"/>
<path d="M10 38.5732H23.8756V38.5214H10V38.5732Z" fill="#A01D24"/>
<path d="M10 38.625H23.8756V38.5732H10V38.625Z" fill="#A01D24"/>
<path d="M10 38.6768H23.8756V38.625H10V38.6768Z" fill="#A01D24"/>
<path d="M10 38.7285H23.8756V38.6767H10V38.7285Z" fill="#A01D24"/>
<path d="M10 38.7803H23.8756V38.7285H10V38.7803Z" fill="#A01D24"/>
<path d="M10 38.832H23.8756V38.7802H10V38.832Z" fill="#A01D24"/>
<path d="M10 38.8843H23.8756V38.8325H10V38.8843Z" fill="#A01D24"/>
<path d="M10 38.936H23.8756V38.8842H10V38.936Z" fill="#A01C24"/>
<path d="M10 38.9878H23.8756V38.936H10V38.9878Z" fill="#A01C24"/>
<path d="M10 39.0396H23.8756V38.9878H10V39.0396Z" fill="#A01C24"/>
<path d="M10 39.0913H23.8756V39.0395H10V39.0913Z" fill="#A01C24"/>
<path d="M10 39.1431H23.8756V39.0913H10V39.1431Z" fill="#A01C24"/>
<path d="M10 39.1948H23.8756V39.143H10V39.1948Z" fill="#A01C24"/>
<path d="M10 39.2466H23.8756V39.1948H10V39.2466Z" fill="#A01C24"/>
<path d="M10 39.2983H23.8756V39.2465H10V39.2983Z" fill="#A01C24"/>
<path d="M10 39.3501H23.8756V39.2983H10V39.3501Z" fill="#A01C24"/>
<path d="M10 39.4019H23.8756V39.3501H10V39.4019Z" fill="#A01C24"/>
<path d="M10 39.4536H23.8756V39.4018H10V39.4536Z" fill="#A01C24"/>
<path d="M10 39.5054H23.8756V39.4536H10V39.5054Z" fill="#A01C24"/>
<path d="M10 39.5576H23.8756V39.5058H10V39.5576Z" fill="#A01C24"/>
<path d="M10 39.6094H23.8756V39.5576H10V39.6094Z" fill="#A01C24"/>
<path d="M10 39.6611H23.8756V39.6093H10V39.6611Z" fill="#A01C24"/>
<path d="M10 39.7129H23.8756V39.6611H10V39.7129Z" fill="#A01C24"/>
<path d="M10 39.7646H23.8756V39.7129H10V39.7646Z" fill="#A01C24"/>
<path d="M10 39.8164H23.8756V39.7646H10V39.8164Z" fill="#A01C24"/>
<path d="M10 39.8682H23.8756V39.8164H10V39.8682Z" fill="#A01C24"/>
<path d="M10 39.9199H23.8756V39.8681H10V39.9199Z" fill="#A01C24"/>
<path d="M10 39.9717H23.8756V39.9199H10V39.9717Z" fill="#A01C24"/>
<path d="M10 40.0234H23.8756V39.9716H10V40.0234Z" fill="#A01C24"/>
<path d="M10 40.0752H23.8756V40.0234H10V40.0752Z" fill="#A01C24"/>
<path d="M10 40.127H23.8756V40.0752H10V40.127Z" fill="#A01C24"/>
<path d="M10 40.1787H23.8756V40.1269H10V40.1787Z" fill="#A01C24"/>
<path d="M10 40.2305H23.8756V40.1787H10V40.2305Z" fill="#A01B25"/>
<path d="M10 40.2827H23.8756V40.2309H10V40.2827Z" fill="#A01B25"/>
<path d="M10 40.3345H23.8756V40.2827H10V40.3345Z" fill="#A01B25"/>
<path d="M10 40.3862H23.8756V40.3344H10V40.3862Z" fill="#A01B25"/>
<path d="M10 40.438H23.8756V40.3862H10V40.438Z" fill="#A01B25"/>
<path d="M10 40.4897H23.8756V40.438H10V40.4897Z" fill="#A01B25"/>
<path d="M10 40.5415H23.8756V40.4897H10V40.5415Z" fill="#A01B25"/>
<path d="M10 40.5933H23.8756V40.5415H10V40.5933Z" fill="#A01B25"/>
<path d="M10 40.645H23.8756V40.5932H10V40.645Z" fill="#A01B25"/>
<path d="M10 40.6968H23.8756V40.645H10V40.6968Z" fill="#A01B25"/>
<path d="M10 40.7485H23.8756V40.6967H10V40.7485Z" fill="#A01B25"/>
<path d="M10 40.8003H23.8756V40.7485H10V40.8003Z" fill="#A01B25"/>
<path d="M10 40.8521H23.8756V40.8003H10V40.8521Z" fill="#A01B25"/>
<path d="M10 40.9038H23.8756V40.852H10V40.9038Z" fill="#A01B25"/>
<path d="M10 40.9561H23.8756V40.9043H10V40.9561Z" fill="#A01B25"/>
<path d="M10 41.0078H23.8756V40.956H10V41.0078Z" fill="#A01B25"/>
<path d="M10 41.0596H23.8756V41.0078H10V41.0596Z" fill="#A01B25"/>
<path d="M10 41.1113H23.8756V41.0595H10V41.1113Z" fill="#A01B25"/>
<path d="M10 41.1631H23.8756V41.1113H10V41.1631Z" fill="#A01B25"/>
<path d="M10 41.2148H23.8756V41.163H10V41.2148Z" fill="#A01B25"/>
<path d="M10 41.2666H23.8756V41.2148H10V41.2666Z" fill="#A01B25"/>
<path d="M10 41.3184H23.8756V41.2666H10V41.3184Z" fill="#A01B25"/>
<path d="M10 41.3701H23.8756V41.3183H10V41.3701Z" fill="#A01B25"/>
<path d="M10 41.4219H23.8756V41.3701H10V41.4219Z" fill="#A01B25"/>
<path d="M10 41.4736H23.8756V41.4218H10V41.4736Z" fill="#A01B25"/>
<path d="M10 41.5254H23.8756V41.4736H10V41.5254Z" fill="#A01B25"/>
<path d="M10 41.5771H23.8756V41.5254H10V41.5771Z" fill="#A01B25"/>
<path d="M10 41.6289H23.8756V41.5771H10V41.6289Z" fill="#A01B25"/>
<path d="M10 41.6812H23.8756V41.6294H10V41.6812Z" fill="#A01B25"/>
<path d="M10 41.7329H23.8756V41.6811H10V41.7329Z" fill="#A01B25"/>
<path d="M10 41.7847H23.8756V41.7329H10V41.7847Z" fill="#A01B25"/>
<path d="M10 41.8364H23.8756V41.7846H10V41.8364Z" fill="#A01B25"/>
<path d="M10 41.8882H23.8756V41.8364H10V41.8882Z" fill="#A01B25"/>
<path d="M10 41.9399H23.8756V41.8881H10V41.9399Z" fill="#A01B25"/>
<path d="M10 41.9917H23.8756V41.9399H10V41.9917Z" fill="#A01B25"/>
<path d="M10 42.0435H23.8756V41.9917H10V42.0435Z" fill="#A01B25"/>
<path d="M10 42.0952H23.8756V42.0434H10V42.0952Z" fill="#A01B25"/>
<path d="M10 42.147H23.8756V42.0952H10V42.147Z" fill="#A01B25"/>
<path d="M10 42.1987H23.8756V42.1469H10V42.1987Z" fill="#A01B25"/>
<path d="M10 42.2505H23.8756V42.1987H10V42.2505Z" fill="#A01B25"/>
<path d="M10 42.3022H23.8756V42.2505H10V42.3022Z" fill="#A01B25"/>
<path d="M10 42.3545H23.8756V42.3027H10V42.3545Z" fill="#A01B25"/>
<path d="M10 42.4062H23.8756V42.3545H10V42.4062Z" fill="#A01B25"/>
<path d="M10 42.458H23.8756V42.4062H10V42.458Z" fill="#A01B25"/>
<path d="M10 42.5098H23.8756V42.458H10V42.5098Z" fill="#A01B25"/>
<path d="M10 42.5615H23.8756V42.5097H10V42.5615Z" fill="#A01B25"/>
<path d="M10 42.6133H23.8756V42.5615H10V42.6133Z" fill="#A01B25"/>
<path d="M10 42.665H23.8756V42.6132H10V42.665Z" fill="#A01B25"/>
<path d="M10 42.7168H23.8756V42.665H10V42.7168Z" fill="#A01B25"/>
<path d="M10 42.7686H23.8756V42.7168H10V42.7686Z" fill="#A01B25"/>
<path d="M10 42.8203H23.8756V42.7685H10V42.8203Z" fill="#A01B25"/>
<path d="M10 42.8721H23.8756V42.8203H10V42.8721Z" fill="#A01B25"/>
<path d="M10 42.9238H23.8756V42.872H10V42.9238Z" fill="#A01B25"/>
<path d="M10 42.9756H23.8756V42.9238H10V42.9756Z" fill="#A01B25"/>
<path d="M10 43.0273H23.8756V42.9755H10V43.0273Z" fill="#A01B25"/>
<path d="M10 43.0796H23.8756V43.0278H10V43.0796Z" fill="#A01B25"/>
<path d="M10 43.1313H23.8756V43.0796H10V43.1313Z" fill="#A01B25"/>
<path d="M10 43.1831H23.8756V43.1313H10V43.1831Z" fill="#A01B25"/>
<path d="M10 43.2349H23.8756V43.1831H10V43.2349Z" fill="#A01B25"/>
<path d="M10 43.2866H23.8756V43.2348H10V43.2866Z" fill="#A01B25"/>
<path d="M10 43.3384H23.8756V43.2866H10V43.3384Z" fill="#A01B25"/>
<path d="M10 43.3901H23.8756V43.3383H10V43.3901Z" fill="#A01B25"/>
<path d="M10 43.4419H23.8756V43.3901H10V43.4419Z" fill="#A01B25"/>
<path d="M10 43.4937H23.8756V43.4419H10V43.4937Z" fill="#A01B25"/>
<path d="M10 43.5454H23.8756V43.4936H10V43.5454Z" fill="#A01B25"/>
<path d="M10 43.5972H23.8756V43.5454H10V43.5972Z" fill="#A01B25"/>
<path d="M10 43.6489H23.8756V43.5971H10V43.6489Z" fill="#A01B25"/>
<path d="M10 43.7007H23.8756V43.6489H10V43.7007Z" fill="#A01B25"/>
<path d="M10 43.7529H23.8756V43.7011H10V43.7529Z" fill="#A01B25"/>
<path d="M10 43.8047H23.8756V43.7529H10V43.8047Z" fill="#A01B25"/>
<path d="M10 43.8564H23.8756V43.8047H10V43.8564Z" fill="#A01B25"/>
<path d="M10 43.9082H23.8756V43.8564H10V43.9082Z" fill="#A01B25"/>
<path d="M10 43.96H23.8756V43.9082H10V43.96Z" fill="#A01B25"/>
<path d="M10 44.0117H23.8756V43.9599H10V44.0117Z" fill="#A01B25"/>
<path d="M10 44.0635H23.8756V44.0117H10V44.0635Z" fill="#A01B25"/>
<path d="M10 44.1152H23.8756V44.0634H10V44.1152Z" fill="#A01B25"/>
<path d="M10 44.167H23.8756V44.1152H10V44.167Z" fill="#A01B25"/>
<path d="M10 44.2188H23.8756V44.167H10V44.2188Z" fill="#A01B25"/>
<path d="M10 44.2705H23.8756V44.2187H10V44.2705Z" fill="#A01B25"/>
<path d="M10 44.3223H23.8756V44.2705H10V44.3223Z" fill="#A01B25"/>
<path d="M10 44.374H23.8756V44.3222H10V44.374Z" fill="#A01B25"/>
<path d="M10 44.4258H23.8756V44.374H10V44.4258Z" fill="#A01B25"/>
<path d="M10 44.478H23.8756V44.4262H10V44.478Z" fill="#A01B25"/>
<path d="M10 44.5298H23.8756V44.478H10V44.5298Z" fill="#A01B25"/>
<path d="M10 44.5815H23.8756V44.5298H10V44.5815Z" fill="#A01B25"/>
<path d="M10 44.6333H23.8756V44.5815H10V44.6333Z" fill="#A01B25"/>
<path d="M10 44.6851H23.8756V44.6333H10V44.6851Z" fill="#A01B25"/>
<path d="M10 44.7368H23.8756V44.685H10V44.7368Z" fill="#A01B25"/>
<path d="M10 44.7886H23.8756V44.7368H10V44.7886Z" fill="#A01B25"/>
<path d="M10 44.8403H23.8756V44.7885H10V44.8403Z" fill="#A01B25"/>
<path d="M10 44.8921H23.8756V44.8403H10V44.8921Z" fill="#A01B25"/>
<path d="M10 44.9438H23.8756V44.8921H10V44.9438Z" fill="#A01B25"/>
<path d="M10 44.9956H23.8756V44.9438H10V44.9956Z" fill="#A01B25"/>
<path d="M10 45.0474H23.8756V44.9956H10V45.0474Z" fill="#A01B25"/>
<path d="M10 45.0991H23.8756V45.0473H10V45.0991Z" fill="#A01B25"/>
<path d="M10 45.1514H23.8756V45.0996H10V45.1514Z" fill="#A01B25"/>
<path d="M10 45.2031H23.8756V45.1513H10V45.2031Z" fill="#A01B25"/>
<path d="M10 45.2549H23.8756V45.2031H10V45.2549Z" fill="#A01B25"/>
<path d="M10 45.3066H23.8756V45.2548H10V45.3066Z" fill="#A01B25"/>
<path d="M10 45.3584H23.8756V45.3066H10V45.3584Z" fill="#A01B25"/>
<path d="M10 45.4102H23.8756V45.3584H10V45.4102Z" fill="#A01B25"/>
<path d="M10 45.4619H23.8756V45.4101H10V45.4619Z" fill="#A01B25"/>
<path d="M10 45.5137H23.8756V45.4619H10V45.5137Z" fill="#A01B25"/>
<path d="M10 45.5654H23.8756V45.5136H10V45.5654Z" fill="#A01B25"/>
<path d="M10 45.6172H23.8756V45.5654H10V45.6172Z" fill="#A01B25"/>
<path d="M10 45.6689H23.8756V45.6172H10V45.6689Z" fill="#A01B25"/>
<path d="M10 45.7207H23.8756V45.6689H10V45.7207Z" fill="#A01B25"/>
<path d="M10 45.7725H23.8756V45.7207H10V45.7725Z" fill="#A01B25"/>
<path d="M10 45.8242H23.8756V45.7724H10V45.8242Z" fill="#A01B25"/>
<path d="M10 45.8765H23.8756V45.8247H10V45.8765Z" fill="#A01B25"/>
<path d="M10 45.9282H23.8756V45.8764H10V45.9282Z" fill="#A01B25"/>
<path d="M10 45.98H23.8756V45.9282H10V45.98Z" fill="#A01B25"/>
<path d="M10 46.0317H23.8756V45.9799H10V46.0317Z" fill="#A01B25"/>
<path d="M10 46.0835H23.8756V46.0317H10V46.0835Z" fill="#A01B25"/>
<path d="M10 46.1353H23.8756V46.0835H10V46.1353Z" fill="#A01B25"/>
<path d="M10 46.187H23.8756V46.1352H10V46.187Z" fill="#A01B25"/>
<path d="M10 46.2388H23.8756V46.187H10V46.2388Z" fill="#A01B25"/>
<path d="M10 46.2905H23.8756V46.2387H10V46.2905Z" fill="#A01B25"/>
<path d="M10 46.3423H23.8756V46.2905H10V46.3423Z" fill="#A01B25"/>
<path d="M10 46.394H23.8756V46.3422H10V46.394Z" fill="#A01B25"/>
<path d="M10 46.4458H23.8756V46.394H10V46.4458Z" fill="#A01B25"/>
<path d="M10 46.4976H23.8756V46.4458H10V46.4976Z" fill="#A01B25"/>
<path d="M10 46.5498H23.8756V46.498H10V46.5498Z" fill="#A01B25"/>
<path d="M10 46.6016H23.8756V46.5498H10V46.6016Z" fill="#A01B25"/>
<path d="M10 46.6533H23.8756V46.6015H10V46.6533Z" fill="#A01B25"/>
<path d="M10 46.7051H23.8756V46.6533H10V46.7051Z" fill="#A01B25"/>
<path d="M10 47H23.8756V46.705H10V47Z" fill="#A01B25"/>
<path d="M19.2492 40.1129C19.2492 41.3803 18.2143 42.4077 16.9376 42.4077C15.6609 42.4077 14.626 41.3803 14.626 40.1129C14.626 38.8455 15.6609 37.8181 16.9376 37.8181C18.2143 37.8181 19.2492 38.8455 19.2492 40.1129Z" fill="#D6C618"/>
<path d="M16.9376 38.0435C18.1759 38.0435 19.1839 39.0109 19.2435 40.2256C19.2453 40.188 19.2492 40.1509 19.2492 40.1128C19.2492 38.8454 18.2143 37.818 16.9376 37.818C15.6609 37.818 14.626 38.8454 14.626 40.1128C14.626 40.1509 14.6299 40.188 14.6317 40.2256C14.6913 39.0109 15.6993 38.0435 16.9376 38.0435Z" fill="#D3B913"/>
<path d="M30.1376 40.1075C30.6246 40.1075 30.904 39.8418 30.904 39.3786C30.904 38.9251 30.6319 38.6754 30.1376 38.6754H29.2872V40.1075H30.1376ZM28.2539 42.4199V37.8096H30.1956C31.2537 37.8096 31.9373 38.4255 31.9373 39.3786C31.9373 40.3175 31.221 40.9733 30.1956 40.9733H29.2872V42.4199H28.2539Z" fill="#2E2F2E"/>
<path d="M34.1768 42.4199V37.8096H37.4668V38.6818H35.2101V39.6467H37.2734V40.5253H35.2101V41.5477H37.4733V42.4199H34.1768Z" fill="#2E2F2E"/>
<path d="M41.7815 40.1331C42.2654 40.1331 42.5542 39.8559 42.5542 39.3914C42.5542 38.9323 42.2726 38.669 41.7815 38.669H40.8214V40.1331H41.7815ZM42.4915 42.4199L41.6659 40.9861H40.8214V42.4199H39.7881V37.8096H41.891C42.9218 37.8096 43.5877 38.433 43.5877 39.3979C43.5877 40.0267 43.2669 40.549 42.7257 40.8093L43.6884 42.4199H42.4915Z" fill="#2E2F2E"/>
<path d="M54.1462 38.5924C53.4829 38.5924 53.1024 39.012 53.1024 39.7437V40.4863C53.1024 41.218 53.4829 41.6376 54.1462 41.6376C54.8095 41.6376 55.19 41.218 55.19 40.4863V39.7437C55.19 39.012 54.8095 38.5924 54.1462 38.5924ZM54.1462 42.5098C52.8847 42.5098 52.0693 41.6979 52.0693 40.4414V39.7886C52.0693 38.5321 52.8847 37.7203 54.1462 37.7203C55.4275 37.7203 56.2235 38.5128 56.2235 39.7886V40.4414C56.2235 41.7172 55.4275 42.5098 54.1462 42.5098Z" fill="#2E2F2E"/>
<path d="M61.4503 42.4199L59.5844 39.5896V42.4199H58.5703V37.8096H59.5285L61.3945 40.6398V37.8096H62.4082V42.4199H61.4503Z" fill="#2E2F2E"/>
<path d="M67.3867 40.6388L66.8306 38.8948L66.2692 40.6388H67.3867ZM67.9633 42.4199L67.6603 41.479H66.0016L65.6986 42.4199H64.6621L66.3273 37.8096H67.3346L68.9998 42.4199H67.9633Z" fill="#2E2F2E"/>
<path d="M48.9256 40.7949C48.8484 41.3271 48.4854 41.6439 47.9457 41.6439C47.0654 41.6439 46.9343 40.9146 46.9343 40.4798V39.7502C46.9343 39.3154 47.0654 38.5861 47.9457 38.5861C48.4839 38.5861 48.8465 38.9012 48.9248 39.4309L49.8831 39.2891C49.7542 38.3568 48.9815 37.7203 47.9457 37.7203C46.6693 37.7203 45.9072 38.4959 45.9072 39.795V40.4351C45.9072 41.7342 46.6693 42.5098 47.9457 42.5098C48.983 42.5098 49.7565 41.8712 49.8838 40.9367L48.9256 40.7949Z" fill="#2E2F2E"/>
</svg>
