<svg width="80" height="80" viewBox="0 0 80 80" fill="none" xmlns="http://www.w3.org/2000/svg">
<rect width="80" height="80" rx="8" fill="#F5F8FD"/>
<g clip-path="url(#clip0_245_30981)">
<path d="M26.001 39.9799C26.001 41.3621 26.1948 42.6955 26.5243 43.975H45.9762C48.1824 43.975 49.9712 42.1861 49.9712 39.9799C49.9712 37.7726 48.1823 35.9849 45.9762 35.9849H26.5243C26.1948 37.2633 26.001 38.5976 26.001 39.9799Z" fill="#343741"/>
<path d="M52.8912 31.6514C53.4496 31.1371 53.969 30.5848 54.4454 29.9926C51.516 26.3421 47.0246 24 41.9809 24C35.6676 24 30.2344 27.6724 27.6426 32.9889H49.4825C50.7469 32.9889 51.9624 32.5084 52.8911 31.6514" fill="#FEC514"/>
<path d="M49.4826 46.9712H27.6426C30.2355 52.2866 35.6677 55.9601 41.9809 55.9601C47.0246 55.9601 51.516 53.617 54.4454 49.9675C53.9696 49.3761 53.4501 48.8212 52.8912 48.3075C51.9624 47.4496 50.7469 46.9712 49.4826 46.9712Z" fill="#00BFB3"/>
</g>
<defs>
<clipPath id="clip0_245_30981">
<rect width="28.4455" height="32" fill="white" transform="translate(26 24)"/>
</clipPath>
</defs>
</svg>
