<svg width="80" height="80" viewBox="0 0 80 80" fill="none" xmlns="http://www.w3.org/2000/svg">
<g clip-path="url(#clip0_245_24783)">
<path d="M30.877 37.0954C30.877 37.61 30.9328 38.0272 31.0301 38.3332C31.1536 38.6774 31.3023 39.0121 31.475 39.3344C31.5446 39.4457 31.5723 39.5569 31.5723 39.6544C31.5723 39.7933 31.4889 39.9324 31.3081 40.0716L30.4321 40.6556C30.3069 40.7391 30.1817 40.7808 30.0703 40.7808C29.9314 40.7808 29.7922 40.7112 29.6531 40.5861C29.4658 40.3847 29.2981 40.1658 29.1526 39.9324C29.0134 39.6962 28.8743 39.4317 28.7214 39.112C27.6367 40.3913 26.2736 41.0312 24.6327 41.0312C23.4646 41.0312 22.5328 40.6973 21.8512 40.0299C21.1699 39.3622 20.8223 38.4721 20.8223 37.3597C20.8223 36.1776 21.2395 35.218 22.0878 34.4948C22.936 33.7717 24.0626 33.4101 25.495 33.4101C25.9678 33.4101 26.4546 33.4518 26.9691 33.5213C27.4837 33.5909 28.0122 33.7021 28.5685 33.8273V32.8121C28.5685 31.7551 28.3459 31.0181 27.9147 30.5869C27.4698 30.1558 26.7187 29.9471 25.6479 29.9471C25.1612 29.9471 24.6606 30.0029 24.146 30.1281C23.6315 30.2531 23.1308 30.4062 22.644 30.6009C22.4215 30.6982 22.2547 30.7538 22.1572 30.7817C22.0599 30.8096 21.9904 30.8234 21.9348 30.8234C21.74 30.8234 21.6427 30.6842 21.6427 30.3922V29.7107C21.6427 29.4882 21.6706 29.3214 21.74 29.2241C21.8096 29.1266 21.9348 29.0294 22.1295 28.9321C22.6163 28.6817 23.2003 28.473 23.8817 28.3062C24.5633 28.1254 25.2865 28.0421 26.0513 28.0421C27.7064 28.0421 28.9163 28.4174 29.6951 29.1685C30.46 29.9194 30.8494 31.0598 30.8494 32.5896V37.0954H30.8773H30.877ZM25.2307 39.2093C25.6898 39.2093 26.1626 39.1259 26.6631 38.9589C27.1638 38.7921 27.6089 38.4861 27.9843 38.0689C28.2069 37.8048 28.3738 37.5127 28.4571 37.1789C28.5406 36.8452 28.5962 36.4417 28.5962 35.9689V35.3849C28.1745 35.2822 27.7473 35.2033 27.3167 35.1485C26.8832 35.0934 26.4466 35.0655 26.0095 35.065C25.0776 35.065 24.3963 35.2457 23.9374 35.6213C23.4784 35.9968 23.2559 36.5253 23.2559 37.2205C23.2559 37.8742 23.4228 38.3609 23.7704 38.6948C24.1043 39.0424 24.591 39.2093 25.2307 39.2093ZM36.3981 40.7112C36.1477 40.7112 35.9809 40.6696 35.8697 40.5721C35.7584 40.4888 35.661 40.294 35.5776 40.0299L32.3096 29.2797C32.2259 29.0015 32.1842 28.8207 32.1842 28.7234C32.1842 28.5009 32.2955 28.3756 32.5181 28.3756H33.8809C34.1451 28.3756 34.326 28.4174 34.4233 28.5147C34.5345 28.5982 34.6181 28.793 34.7014 29.0571L37.0378 38.2636L39.2073 29.0571C39.2769 28.779 39.3604 28.5982 39.4714 28.5147C39.5828 28.4314 39.7776 28.3757 40.0279 28.3757H41.1404C41.4045 28.3757 41.5855 28.4174 41.6966 28.5147C41.808 28.5982 41.9053 28.793 41.9609 29.0571L44.1583 38.3749L46.5641 29.0571C46.6474 28.779 46.7449 28.5982 46.8421 28.5147C46.9534 28.4314 47.1342 28.3757 47.3845 28.3757H48.6778C48.9004 28.3757 49.0256 28.487 49.0256 28.7234C49.0256 28.793 49.0117 28.8625 48.9977 28.9459C48.9838 29.0294 48.9561 29.1406 48.9004 29.2937L45.5487 40.0437C45.4654 40.3219 45.3681 40.5027 45.2567 40.5861C45.1454 40.6696 44.9646 40.7252 44.7284 40.7252H43.5324C43.2681 40.7252 43.0873 40.6835 42.9759 40.5861C42.8647 40.4888 42.7674 40.308 42.7118 40.0299L40.556 31.0598L38.4144 40.0158C38.345 40.294 38.2615 40.4748 38.1503 40.5721C38.039 40.6696 37.8443 40.7112 37.5941 40.7112H36.3979H36.3981ZM54.2686 41.0868C53.5455 41.0868 52.8223 41.0033 52.127 40.8364C51.4315 40.6696 50.8893 40.4886 50.5277 40.2802C50.3051 40.1549 50.152 40.0159 50.0966 39.8908C50.0424 39.768 50.014 39.6355 50.0131 39.5013V38.7921C50.0131 38.5 50.1243 38.3609 50.333 38.3609C50.4182 38.3612 50.5027 38.3754 50.5834 38.4028C50.6667 38.4306 50.7919 38.4861 50.931 38.5417C51.4222 38.7578 51.935 38.9209 52.4607 39.0285C53.0054 39.139 53.5599 39.1949 54.1157 39.1953C54.9918 39.1953 55.6733 39.0424 56.1461 38.7364C56.619 38.4305 56.8693 37.9855 56.8693 37.4153C56.8693 37.026 56.7441 36.706 56.4938 36.4417C56.2434 36.1776 55.7706 35.9412 55.0893 35.7186L53.0726 35.0928C52.0574 34.7729 51.3065 34.3001 50.8475 33.6742C50.3886 33.0623 50.1522 32.3809 50.1522 31.6578C50.1522 31.0737 50.2774 30.5591 50.5277 30.114C50.7779 29.669 51.1118 29.2797 51.529 28.9737C51.9462 28.6538 52.419 28.4174 52.9754 28.2506C53.5315 28.0837 54.1156 28.0142 54.7275 28.0142C55.0335 28.0142 55.3534 28.0281 55.6594 28.0698C55.9793 28.1114 56.2713 28.1671 56.5633 28.2227C56.8414 28.2922 57.1057 28.3618 57.3561 28.4453C57.6064 28.5287 57.801 28.6122 57.9401 28.6955C58.1349 28.8069 58.2738 28.9181 58.3573 29.0433C58.4408 29.1545 58.4825 29.3074 58.4825 29.5022V30.1558C58.4825 30.4478 58.3713 30.6009 58.1626 30.6009C58.0514 30.6009 57.8706 30.5451 57.6343 30.4339C56.8414 30.0723 55.9514 29.8915 54.9641 29.8915C54.1713 29.8915 53.5455 30.0167 53.1143 30.281C52.6833 30.5451 52.4607 30.9485 52.4607 31.5186C52.4607 31.9081 52.5998 32.2418 52.8779 32.5061C53.1561 32.7703 53.6706 33.0346 54.4078 33.271L56.3825 33.8969C57.3838 34.2168 58.107 34.6617 58.5381 35.2318C58.9693 35.8021 59.178 36.4557 59.178 37.1789C59.178 37.7769 59.0526 38.3192 58.8162 38.7921C58.566 39.2649 58.2322 39.6821 57.801 40.0159C57.3699 40.3636 56.8554 40.6139 56.2574 40.7947C55.6315 40.9895 54.9779 41.0868 54.2686 41.0868Z" fill="#252F3E"/>
<path d="M56.8974 47.8452C52.3221 51.2247 45.6744 53.0187 39.9588 53.0187C31.9482 53.0187 24.7306 50.0564 19.279 45.1333C18.8479 44.744 19.2372 44.2156 19.7517 44.5214C25.6483 47.9427 32.9217 50.0148 40.4455 50.0148C45.5215 50.0148 51.0983 48.9579 56.23 46.7884C56.9949 46.4406 57.6485 47.2891 56.8974 47.8452ZM58.8028 45.6757C58.2188 44.9248 54.9366 45.3141 53.4486 45.4949C53.0035 45.5507 52.9339 45.1612 53.3373 44.8692C55.9518 43.0334 60.2492 43.562 60.7497 44.1737C61.2504 44.7996 60.6106 49.0969 58.163 51.1551C57.7876 51.4751 57.426 51.3082 57.5929 50.891C58.149 49.5141 59.3869 46.4128 58.8028 45.6757Z" fill="#FF9900"/>
</g>
<defs>
<clipPath id="clip0_245_24783">
<rect width="42" height="25.1011" fill="white" transform="translate(19 28)"/>
</clipPath>
</defs>
</svg>
