<svg width="80" height="80" viewBox="0 0 80 80" fill="none" xmlns="http://www.w3.org/2000/svg">
<path d="M35.713 40C35.7121 39.5003 35.8097 39.0053 36.0003 38.5434C36.191 38.0815 36.4708 37.6617 36.8239 37.3081C37.1769 36.9545 37.5963 36.674 38.0579 36.4826C38.5195 36.2913 39.0143 36.1929 39.514 36.193C41.614 36.193 43.327 37.906 43.327 40C43.327 42.094 41.614 43.807 39.514 43.807C38.5059 43.8036 37.5402 43.4012 36.828 42.6878C36.1157 41.9744 35.7149 41.0081 35.713 40ZM39.515 24C32.047 24 25.791 29.12 24.015 36.031C24 36.083 24 36.126 24 36.194C24 36.61 24.339 36.965 24.765 36.965H31.213C31.3591 36.9673 31.5026 36.9259 31.625 36.8461C31.7474 36.7663 31.8432 36.6517 31.9 36.517C33.233 33.637 36.14 31.621 39.52 31.621C44.14 31.621 47.9 35.381 47.9 40.006C47.9 44.631 44.14 48.391 39.515 48.391C36.14 48.391 33.23 46.391 31.9 43.495C31.771 43.24 31.515 43.047 31.213 43.047H24.765C24.6644 43.0466 24.5648 43.0661 24.4718 43.1044C24.3788 43.1427 24.2943 43.1991 24.2232 43.2702C24.1521 43.3413 24.0957 43.4258 24.0574 43.5188C24.0191 43.6118 23.9996 43.7114 24 43.812C24 43.864 24.02 43.912 24.02 43.973C25.781 50.88 32.047 56 39.515 56C48.348 56 55.515 48.833 55.515 40C55.515 31.172 48.348 24 39.515 24Z" fill="black"/>
</svg>
