<svg width="80" height="80" viewBox="0 0 80 80" fill="none" xmlns="http://www.w3.org/2000/svg">
<g clip-path="url(#clip0_245_24791)">
<path d="M33.9433 38.2313C35.7036 38.2313 36.0977 39.2578 36.0977 40.4424V41.6222H33.0301V41.9054C33.0418 42.5614 33.2778 42.8209 34.1131 42.8209C34.6829 42.8181 35.2492 42.7306 35.7933 42.5614L36.0079 43.5997C35.3602 43.8331 34.6766 43.9513 33.9881 43.9488C32.2631 43.9488 31.6638 43.1489 31.6638 41.8251V40.374C31.6638 39.213 32.1829 38.2314 33.9432 38.2314L33.9433 38.2313ZM45.5105 38.2289C47.2355 38.2289 47.7451 38.8377 47.7451 40.2135L47.7405 43.8355H46.6125L46.5111 43.4628C46.0244 43.7795 45.4564 43.9483 44.8758 43.9488C43.8729 43.9488 43.4434 43.2597 43.4434 42.3136C43.4434 41.1975 43.9295 40.768 45.0456 40.768H46.3647V40.1922C46.3647 39.5834 46.1949 39.3687 45.3146 39.3687C44.8028 39.3744 44.293 39.4313 43.7926 39.5386L43.6227 38.4886C44.2377 38.3186 44.8725 38.2313 45.5105 38.2289ZM54.6543 38.2289C56.5373 38.2289 57.0447 39.2672 57.0447 40.3951V41.7827C57.047 42.9106 56.5373 43.9488 54.6543 43.9488C52.7665 43.9488 52.264 42.9106 52.264 41.7827V40.3952C52.264 39.2672 52.7713 38.2289 54.6543 38.2289ZM32.8177 36.3223V37.5753H30.7175V43.8355H29.3018L29.2971 37.5753H27.1992V36.3223H32.8177ZM50.933 35.8716C51.3317 35.8702 51.7287 35.9235 52.1129 36.0297L51.9689 37.0892C51.709 37.0333 51.4442 37.0032 51.1784 36.9995C50.6382 36.9995 50.5578 37.2355 50.5578 37.6532V38.3422H51.9571L51.8793 39.4371H50.5603V43.8355H49.1845V39.4371H48.3043V38.3422H49.1845V37.5753C49.1845 36.4357 49.7155 35.8716 50.933 35.8716ZM65.5468 38.8165C66.2333 38.4648 66.9872 38.2645 67.7578 38.2289C68.671 38.2289 68.9991 38.8708 68.9991 39.8525V43.8355H67.6233V40.0011C67.6233 39.7084 67.4983 39.5621 67.1844 39.5621C66.6792 39.6178 66.1913 39.7786 65.752 40.0341V43.8357H64.3668V40.001C64.3668 39.7083 64.2418 39.562 63.928 39.562C63.4238 39.6219 62.9367 39.7824 62.4956 40.034V43.8355H61.1198V38.3421H62.17L62.3044 38.814C62.9902 38.4671 63.7409 38.2678 64.5084 38.2288C64.7208 38.2088 64.9342 38.2544 65.1199 38.3595C65.3055 38.4645 65.4545 38.624 65.5467 38.8164L65.5468 38.8165ZM39.6349 38.2289L39.7765 39.4938C39.2698 39.7224 38.7814 39.9899 38.3158 40.2937V43.8332H36.9402V38.3422H38.1012L38.1908 38.951C38.6384 38.648 39.124 38.4053 39.6349 38.2289ZM42.9999 38.2289L43.1368 39.4938C42.6316 39.7226 42.1449 39.9901 41.6808 40.2937V43.8332H40.3051V38.3422H41.4661L41.5558 38.951C42.0034 38.648 42.4889 38.4053 42.9999 38.2289ZM60.4498 38.2289L60.5867 39.4938C60.0815 39.7226 59.5948 39.9901 59.1308 40.2937V43.8332H57.7551V38.3422H58.916L59.0058 38.951C59.4534 38.648 59.9389 38.4052 60.4499 38.2289H60.4498ZM46.3647 41.759H45.3502C44.8994 41.759 44.7744 41.8842 44.7744 42.2995C44.7744 42.7148 44.8994 42.8516 45.3266 42.8516C45.691 42.846 46.0481 42.7486 46.3648 42.5684V41.759H46.3647ZM54.6544 39.4017C53.9206 39.4017 53.6398 39.7298 53.6398 40.3456V41.8229C53.6398 42.4434 53.9229 42.7666 54.6544 42.7666C55.3859 42.7666 55.669 42.4387 55.669 41.8229V40.3502C55.669 39.7296 55.3883 39.4016 54.6544 39.4016V39.4017ZM33.9552 39.3569C33.2779 39.3569 33.0419 39.7179 33.0419 40.237V40.5155H34.7905V40.237C34.7905 39.7179 34.6324 39.3569 33.9552 39.3569Z" fill="black"/>
<path d="M18.5898 42.198L22.4597 39.9657V35.4941L18.5898 37.7311V42.198Z" fill="#4040B2"/>
<path d="M14.2947 35.4942L18.1646 37.7312V42.1981L14.2947 39.9636M10 37.4692L13.8699 39.7039V35.2346L10 33M14.2947 44.9236L18.1646 47.1582V42.6889L14.2947 40.4543" fill="#5C4EE5"/>
</g>
<defs>
<clipPath id="clip0_245_24791">
<rect width="59" height="14.1738" fill="white" transform="translate(10 33)"/>
</clipPath>
</defs>
</svg>
