<svg width="80" height="80" viewBox="0 0 80 80" fill="none" xmlns="http://www.w3.org/2000/svg">
<path d="M20 31.0001H25.3831L32.0049 37.6116L38.6181 31.0001H44.0202L26.0419 48.9307H20.6841L29.332 40.2846L20 31V31.0001ZM27.6578 48.9307H30.8005L37.072 42.6663L37.067 48.9307H39.3391L39.3397 39.4852H37.0581L27.6578 48.9307ZM40.2638 48.9307H42.3001L42.2932 42.9403L45.4341 46.0919L48.567 42.9466L48.5682 48.9307H50.6032V39.4852H48.587L45.4373 42.6271L42.2913 39.4852H40.262L40.2638 48.9307ZM53.393 47.1384L53.3942 39.4852H51.6377V48.9307H60L58.2656 47.1351L53.393 47.1384Z" fill="black"/>
</svg>
