<svg width="80" height="80" viewBox="0 0 80 80" fill="none" xmlns="http://www.w3.org/2000/svg">
<g clip-path="url(#clip0_245_24957)">
<path d="M31.4964 33.6396L24.3243 29.3813C23.9058 29.1318 23.4277 29 22.9405 29C22.4533 29 21.9752 29.1318 21.5568 29.3813L14.3831 33.6396C13.959 33.8955 13.6085 34.2571 13.366 34.6891C13.1236 35.1211 12.9975 35.6087 13 36.104V44.619C12.9977 45.1141 13.124 45.6014 13.3664 46.0331C13.6088 46.4648 13.9592 46.8262 14.3831 47.082L21.5553 51.3388C21.9738 51.5882 22.4519 51.7199 22.939 51.7199C23.4262 51.7199 23.9043 51.5882 24.3228 51.3388L31.495 47.0821C31.9195 46.8264 32.2702 46.4648 32.5129 46.0328C32.7556 45.6007 32.8819 45.1131 32.8795 44.6175V36.104C32.8821 35.6087 32.756 35.1211 32.5135 34.6891C32.2711 34.2571 31.9206 33.8955 31.4964 33.6396Z" fill="white"/>
<path d="M31.4964 33.6396L24.3243 29.3813C23.9058 29.1318 23.4277 29 22.9405 29C22.4533 29 21.9752 29.1318 21.5568 29.3813L14.3831 33.6396C13.959 33.8955 13.6085 34.2571 13.366 34.6891C13.1236 35.1211 12.9975 35.6087 13 36.104V44.619C12.9977 45.1141 13.124 45.6014 13.3664 46.0331C13.6088 46.4648 13.9592 46.8262 14.3831 47.082L21.5553 51.3388C21.9738 51.5882 22.4519 51.7199 22.939 51.7199C23.4262 51.7199 23.9043 51.5882 24.3228 51.3388L31.495 47.0821C31.9195 46.8264 32.2702 46.4648 32.5129 46.0328C32.7556 45.6007 32.8819 45.1131 32.8795 44.6175V36.104C32.8821 35.6087 32.756 35.1211 32.5135 34.6891C32.2711 34.2571 31.9206 33.8955 31.4964 33.6396ZM21.8066 50.9036L14.6345 46.6469C14.286 46.4358 13.9981 46.1381 13.7988 45.7827C13.5995 45.4273 13.4955 45.0264 13.497 44.619V36.104C13.4954 35.6966 13.5993 35.2956 13.7986 34.9402C13.998 34.5849 14.2859 34.2871 14.6345 34.0761L21.8066 29.8179C22.1493 29.6135 22.5408 29.5056 22.9398 29.5056C23.3387 29.5056 23.7303 29.6135 24.0729 29.8179L31.2394 34.0761C31.5312 34.2529 31.781 34.4913 31.9712 34.7745C32.1614 35.0578 32.2876 35.3792 32.3408 35.7162C32.1024 35.2093 31.5666 35.0699 30.942 35.429L24.1618 39.6284C23.316 40.1209 22.6927 40.6767 22.6912 41.6964V50.0578C22.6912 50.6681 22.9368 51.0631 23.316 51.1794C23.1918 51.2021 23.0659 51.2142 22.9397 51.2153C22.5409 51.215 22.1495 51.1073 21.8066 50.9036Z" fill="#2F3A3E"/>
<path d="M29.6165 45.4417L27.8299 46.5101C27.8065 46.5196 27.7863 46.5356 27.7717 46.5562C27.7572 46.5769 27.749 46.6013 27.748 46.6266V47.0961C27.748 47.1536 27.7869 47.1766 27.8342 47.1493L29.6481 46.0463C29.6925 46.0131 29.7138 45.9571 29.7027 45.9027V45.4905C29.7012 45.4374 29.6596 45.4144 29.6165 45.4417Z" fill="#3AB14A"/>
<path d="M25.8139 41.5084C25.8713 41.4797 25.9188 41.5084 25.9201 41.5903L25.9259 42.2136C26.1408 42.116 26.3805 42.0869 26.6124 42.1303C26.6569 42.1418 26.6756 42.202 26.6584 42.2739L26.5219 42.821C26.5116 42.8624 26.4903 42.9001 26.4601 42.9302C26.4496 42.9407 26.4375 42.9494 26.4243 42.956C26.408 42.9648 26.3893 42.9679 26.3711 42.9647C26.145 42.9146 25.9082 42.9526 25.7091 43.071C25.5664 43.1353 25.4448 43.2385 25.3581 43.3688C25.2715 43.4991 25.2234 43.6512 25.2193 43.8077C25.2193 44.095 25.363 44.174 25.8641 44.1825C26.5263 44.1941 26.8135 44.4827 26.8207 45.1505C26.8129 45.4949 26.7303 45.8335 26.5785 46.1427C26.4267 46.452 26.2094 46.7245 25.9418 46.9414L25.9533 47.5533C25.9528 47.5907 25.9429 47.6274 25.9246 47.66C25.9063 47.6926 25.8801 47.7201 25.8484 47.74L25.4865 47.9482C25.429 47.977 25.3816 47.9482 25.3801 47.8678V47.266C25.0701 47.3953 24.7555 47.4255 24.5543 47.3451C24.5171 47.3306 24.4998 47.2746 24.5156 47.2101L24.6464 46.6571C24.6562 46.6133 24.6787 46.5734 24.711 46.5422C24.7212 46.5324 24.7328 46.5242 24.7454 46.5178C24.7547 46.5136 24.7647 46.5115 24.7749 46.5115C24.785 46.5115 24.795 46.5136 24.8043 46.5178C25.0603 46.5872 25.3334 46.5526 25.564 46.4215C25.7273 46.3428 25.8659 46.2209 25.9649 46.069C26.0639 45.9171 26.1195 45.741 26.1256 45.5598C26.1256 45.2497 25.9547 45.1203 25.5511 45.1175C25.0298 45.1175 24.5458 45.017 24.5358 44.2558C24.5417 43.9274 24.6202 43.6044 24.7657 43.3099C24.9113 43.0154 25.1201 42.7567 25.3774 42.5525L25.3515 41.9264C25.3513 41.8884 25.3609 41.8511 25.3793 41.818C25.3976 41.7848 25.4241 41.7569 25.4563 41.7368L25.8138 41.5084H25.8139Z" fill="white"/>
<path d="M54.2016 35.4706C55.0439 35.2162 55.9444 35.2287 56.7794 35.5065C57.1953 35.6448 57.5841 35.8542 57.9284 36.1255C58.2635 36.3923 58.5402 36.7252 58.7412 37.1035C58.9501 37.5026 59.0614 37.9455 59.0659 38.396C59.0667 38.4423 59.0579 38.4883 59.0401 38.531C59.0224 38.5738 58.9959 38.6124 58.9625 38.6445C58.8929 38.7111 58.8002 38.7482 58.7039 38.7478H57.4444C57.358 38.7496 57.2739 38.7201 57.2076 38.6646C57.1414 38.6092 57.0974 38.5316 57.0839 38.4463C57.0572 38.2303 56.9976 38.0196 56.9072 37.8216C56.8287 37.6517 56.718 37.4986 56.5813 37.3706C56.4422 37.2445 56.2797 37.1469 56.103 37.0833C55.7028 36.9508 55.2719 36.9418 54.8665 37.0575C54.6941 37.1043 54.5312 37.1811 54.3854 37.2845C54.2546 37.3777 54.1461 37.4988 54.0679 37.6392C53.9887 37.7869 53.9496 37.9528 53.9546 38.1203C53.9505 38.2887 54.0008 38.4538 54.0981 38.5913C54.2124 38.7414 54.3549 38.8678 54.5175 38.9633C54.7107 39.0804 54.9158 39.1767 55.1293 39.2506C55.3531 39.3273 55.5787 39.3991 55.8057 39.466C56.0578 39.5415 56.3074 39.6254 56.554 39.7173C56.8091 39.8125 57.058 39.9233 57.2994 40.0491C57.5378 40.1736 57.7655 40.3177 57.9801 40.4799C58.1953 40.6428 58.3884 40.833 58.5545 41.0458C58.7242 41.2584 58.8594 41.4964 58.9553 41.7509C59.053 42.0276 59.1016 42.3192 59.0988 42.6126C59.1075 43.0547 58.99 43.4902 58.7599 43.8678C58.5421 44.2154 58.2528 44.5125 57.9112 44.7396C57.5589 44.9716 57.1706 45.1438 56.7622 45.2494C56.3538 45.3594 55.9328 45.4154 55.5099 45.4161C55.045 45.4161 54.5828 45.3469 54.1384 45.2106C53.7032 45.0797 53.2929 44.8767 52.9248 44.6103C52.5658 44.3494 52.2638 44.0181 52.0372 43.6366C51.8013 43.2325 51.6732 42.7745 51.6653 42.3066C51.6641 42.2602 51.6725 42.214 51.6901 42.171C51.7076 42.128 51.7339 42.0891 51.7673 42.0568C51.8369 41.9893 51.9302 41.9517 52.0272 41.952H53.2809C53.3671 41.9501 53.451 41.9795 53.5173 42.0347C53.5835 42.0898 53.6276 42.167 53.6414 42.2521C53.6693 42.477 53.7389 42.6948 53.8468 42.8941C53.945 43.071 54.0773 43.2267 54.2359 43.3523C54.4007 43.4817 54.5883 43.5791 54.7889 43.6394C55.2248 43.7641 55.6857 43.773 56.126 43.6653C56.3052 43.6235 56.4757 43.5511 56.6302 43.4513C56.7674 43.3614 56.8835 43.2429 56.9704 43.1038C57.0554 42.9602 57.0972 42.7952 57.0911 42.6284C57.0988 42.4439 57.0486 42.2616 56.9475 42.1071C56.8356 41.9468 56.6912 41.8117 56.5239 41.7106C56.3272 41.5892 56.1176 41.49 55.8991 41.4148C55.6502 41.3277 55.4108 41.2492 55.181 41.1793C54.8262 41.0759 54.4702 40.9409 54.1082 40.7886C53.7398 40.6358 53.3912 40.4391 53.0699 40.2028C52.7516 39.9688 52.4802 39.6769 52.2699 39.3425C52.0485 38.9791 51.9354 38.5601 51.9439 38.1346C51.9381 37.7038 52.0493 37.2795 52.2656 36.9068C52.4727 36.5558 52.7505 36.2516 53.0814 36.0135C53.4213 35.7705 53.8001 35.5869 54.2015 35.4706H54.2016ZM47.7733 35.4245C47.8488 35.4232 47.9229 35.4457 47.985 35.4887C48.0471 35.5318 48.0941 35.5933 48.1194 35.6645L51.1741 44.8429C51.1914 44.8948 51.1955 44.9501 51.1863 45.004C51.177 45.0579 51.1546 45.1086 51.1209 45.1518C51.087 45.1958 51.0435 45.2315 50.9938 45.2564C50.944 45.2813 50.8893 45.2946 50.8338 45.2954H49.6145C49.5382 45.2967 49.4634 45.2738 49.401 45.2299C49.3385 45.1861 49.2916 45.1235 49.2669 45.0512L48.5833 42.9185H45.8976L45.2011 45.0526C45.1761 45.1242 45.1293 45.1862 45.0672 45.2298C45.0051 45.2733 44.9308 45.2963 44.855 45.2954H43.6285C43.5729 45.2946 43.5182 45.2813 43.4685 45.2564C43.4187 45.2315 43.3753 45.1958 43.3413 45.1518C43.3078 45.1086 43.2856 45.0578 43.2765 45.0039C43.2675 44.95 43.272 44.8947 43.2896 44.8429L46.4061 35.663C46.4317 35.5924 46.4787 35.5316 46.5404 35.4889C46.6022 35.4462 46.6757 35.4237 46.7508 35.4246L47.7733 35.4245ZM61.4979 35.4246C61.5884 35.4274 61.6744 35.4646 61.7384 35.5287C61.8023 35.5927 61.8393 35.6788 61.8419 35.7693V39.3712H65.0747V35.7693C65.0773 35.6755 65.117 35.5865 65.1851 35.5219C65.2532 35.4573 65.3442 35.4223 65.438 35.4246H66.6179C66.7084 35.4274 66.7944 35.4646 66.8583 35.5287C66.9223 35.5927 66.9593 35.6788 66.9618 35.7693V44.9493C66.9592 45.0431 66.9195 45.1321 66.8514 45.1967C66.7833 45.2613 66.6923 45.2962 66.5985 45.2939H65.4186C65.3282 45.2912 65.2422 45.2539 65.1783 45.1899C65.1143 45.1258 65.0773 45.0397 65.0748 44.9493V41.0515H61.8419V44.9493C61.8393 45.0431 61.7995 45.1321 61.7314 45.1967C61.6633 45.2613 61.5724 45.2962 61.4785 45.2939H60.3102C60.2197 45.2912 60.1337 45.2539 60.0698 45.1899C60.0059 45.1258 59.9689 45.0397 59.9663 44.9493V35.7693C59.969 35.6755 60.0087 35.5865 60.0768 35.5219C60.1449 35.4573 60.2358 35.4223 60.3297 35.4246H61.4979ZM38.9523 35.4232C39.377 35.4272 39.7997 35.4806 40.2118 35.5826C40.614 35.6797 40.9963 35.8453 41.3421 36.0723C41.6795 36.2959 41.9602 36.5949 42.1622 36.9456C42.376 37.3347 42.4807 37.7743 42.4653 38.218C42.4634 38.733 42.278 39.2304 41.9425 39.6211C41.7909 39.7973 41.616 39.9519 41.4225 40.0806L41.5145 40.1353C41.7568 40.2845 41.9731 40.4722 42.155 40.6911C42.337 40.9092 42.4803 41.1569 42.5787 41.4235C42.6776 41.7048 42.7262 42.0013 42.7223 42.2995C42.7345 42.7488 42.6317 43.1937 42.4236 43.5921C42.2261 43.9598 41.9501 44.2795 41.615 44.5284C41.2713 44.7809 40.8865 44.9718 40.4776 45.0929C40.0546 45.2212 39.6155 45.2884 39.1735 45.2924H36.0606C35.9702 45.2897 35.8842 45.2525 35.8203 45.1884C35.7564 45.1243 35.7193 45.0382 35.7168 44.9478V35.7678C35.7194 35.674 35.7591 35.5851 35.8272 35.5205C35.8953 35.4559 35.9862 35.4209 36.08 35.4232H38.9523ZM39.2597 41.0013H37.68V43.6151H39.205C39.4117 43.6121 39.6166 43.5772 39.8125 43.5117C39.9935 43.4522 40.163 43.3623 40.3138 43.2459C40.4503 43.1394 40.5616 43.004 40.6398 42.8496C40.7219 42.6831 40.7628 42.4994 40.759 42.3138C40.767 42.124 40.7311 41.9348 40.6542 41.761C40.5835 41.6086 40.48 41.4737 40.3512 41.366C40.2118 41.251 40.052 41.1633 39.8801 41.1076C39.6796 41.0421 39.4706 41.0063 39.2597 41.0013ZM47.262 38.7465L46.4636 41.2081H48.0433L47.262 38.7465ZM38.984 37.1107H37.6757V39.3411H39.0228C39.2174 39.3375 39.4106 39.3076 39.5972 39.2521C39.7684 39.203 39.9301 39.1253 40.0755 39.0223C40.2059 38.9295 40.315 38.8101 40.3957 38.6719C40.4735 38.5301 40.5113 38.3697 40.5048 38.208C40.5108 38.0378 40.4722 37.869 40.3928 37.7183C40.3182 37.5869 40.2134 37.4751 40.087 37.3924C39.9383 37.2965 39.774 37.2274 39.6015 37.1883C39.3991 37.1401 39.192 37.1142 38.984 37.1108V37.1107ZM43.8497 46.8679C43.8942 46.9264 43.9273 46.9926 43.9473 47.0633C43.9693 47.1383 43.9804 47.2162 43.9803 47.2944L43.979 47.4683C43.979 47.5465 43.9679 47.6243 43.9459 47.6994C43.9261 47.7699 43.8934 47.8361 43.8497 47.8948C43.8068 47.9512 43.7518 47.9974 43.6888 48.0298C43.6184 48.0646 43.5405 48.0819 43.462 48.0801C43.3881 48.0823 43.3147 48.0666 43.2482 48.0343C43.1817 48.0021 43.1239 47.9542 43.0799 47.8948C43.0367 47.836 43.0045 47.7698 42.985 47.6994C42.9636 47.6243 42.953 47.5464 42.9535 47.4683V47.2944C42.9535 47.242 42.9582 47.1896 42.9678 47.1379C42.9767 47.0888 42.9907 47.0406 43.0095 46.9944C43.028 46.9501 43.0517 46.9081 43.0799 46.8694C43.1071 46.8314 43.1401 46.798 43.1776 46.7703C43.2165 46.7421 43.2596 46.7203 43.3053 46.7056C43.356 46.6898 43.4089 46.6821 43.462 46.6827C43.5366 46.6805 43.6108 46.6962 43.6782 46.7284C43.7457 46.7606 43.8044 46.8084 43.8497 46.8679ZM60.752 46.6841C60.8173 46.6837 60.8823 46.6939 60.9443 46.7143C61.0011 46.733 61.0541 46.7617 61.1009 46.7991C61.1449 46.8347 61.1812 46.8792 61.2072 46.9297C61.2335 46.9818 61.2473 47.0394 61.2473 47.0977H61.0118C61.0091 47.0656 61.0013 47.0341 60.9889 47.0044C60.9769 46.9766 60.9593 46.9517 60.9372 46.9311C60.9139 46.9099 60.8865 46.8937 60.8567 46.8837C60.8216 46.8718 60.7846 46.866 60.7475 46.8666C60.7145 46.8663 60.6817 46.8706 60.6499 46.8794C60.6218 46.8874 60.5956 46.9005 60.5724 46.9182C60.5509 46.9343 60.5333 46.9549 60.5207 46.9786C60.508 47.0034 60.5016 47.031 60.502 47.0589C60.502 47.0883 60.5111 47.1168 60.5279 47.1408C60.5458 47.1655 60.5681 47.1864 60.5939 47.2026C60.6236 47.2215 60.6555 47.2369 60.6887 47.2486C60.7241 47.261 60.7615 47.2725 60.8007 47.2831C60.8591 47.2993 60.9163 47.32 60.9716 47.3447C61.0232 47.3677 61.0716 47.3977 61.1152 47.4338C61.1552 47.4669 61.1883 47.5074 61.2129 47.5529C61.2378 47.6015 61.2501 47.6552 61.2487 47.7096C61.2499 47.7654 61.2361 47.8203 61.2087 47.8689C61.1818 47.9153 61.1449 47.955 61.1009 47.9853C61.0531 48.0175 61.0001 48.0412 60.9443 48.0556C60.8835 48.0719 60.8207 48.0801 60.7577 48.0801C60.7138 48.0803 60.67 48.0765 60.6269 48.0686C60.5846 48.061 60.5433 48.049 60.5035 48.0327C60.4644 48.0169 60.4272 47.9967 60.3927 47.9724C60.3594 47.9489 60.3294 47.9209 60.3038 47.8891C60.2506 47.8226 60.2217 47.74 60.2219 47.6549H60.4589C60.4613 47.6924 60.4711 47.729 60.4877 47.7627C60.5028 47.7925 60.5243 47.8185 60.5508 47.8388C60.5783 47.8597 60.6095 47.8753 60.6427 47.8847C60.6806 47.8955 60.7197 47.9009 60.759 47.9006C60.7925 47.9009 60.8257 47.8971 60.8582 47.889C60.8869 47.8819 60.9141 47.8698 60.9385 47.8531C60.961 47.8379 60.9797 47.8178 60.9932 47.7943C61.0064 47.7686 61.0123 47.7398 61.0104 47.7109C61.0108 47.6813 61.0034 47.6521 60.9889 47.6262C60.9736 47.6006 60.953 47.5786 60.9285 47.5616C60.9 47.5415 60.8691 47.5251 60.8366 47.5128C60.7986 47.4976 60.7597 47.4846 60.7202 47.4741C60.6635 47.4585 60.6078 47.4393 60.5536 47.4166C60.5023 47.3946 60.4541 47.3661 60.4102 47.3319C60.3682 47.3001 60.3325 47.2606 60.3052 47.2156C60.2778 47.1685 60.2639 47.1148 60.265 47.0604C60.2642 47.0051 60.278 46.9506 60.3052 46.9024C60.3319 46.856 60.3681 46.8159 60.4115 46.7846C60.4586 46.751 60.511 46.7258 60.5666 46.7099C60.6268 46.6925 60.6892 46.6838 60.7519 46.6841H60.752ZM53.538 46.6812C53.6052 46.6803 53.6721 46.6899 53.7362 46.7099C53.789 46.7282 53.8378 46.7564 53.8799 46.7933C53.922 46.8303 53.9558 46.8758 53.979 46.9269C54.0041 46.9822 54.0196 47.0414 54.0249 47.102H53.7937C53.7886 47.068 53.7794 47.0347 53.7663 47.0029C53.7547 46.975 53.7376 46.9496 53.7161 46.9283C53.6944 46.9072 53.6685 46.891 53.64 46.8808C53.6058 46.8693 53.5698 46.864 53.5337 46.8651C53.4887 46.8637 53.4442 46.8757 53.4059 46.8996C53.3694 46.924 53.3389 46.9564 53.3169 46.9944C53.2916 47.0389 53.2742 47.0875 53.2652 47.1379C53.2539 47.1918 53.2482 47.2467 53.2479 47.3017V47.4711C53.2486 47.5257 53.2548 47.5802 53.2666 47.6335C53.2761 47.6841 53.2945 47.7329 53.3212 47.777C53.3448 47.8157 53.3773 47.8481 53.4159 47.8719C53.4595 47.897 53.5093 47.9094 53.5596 47.9077H53.6286C53.6513 47.9052 53.6739 47.9009 53.6961 47.8948C53.7165 47.8887 53.7362 47.8806 53.7549 47.8704C53.7715 47.8613 53.7861 47.8492 53.7979 47.8345V47.5631H53.5395V47.3893H54.0292L54.0364 47.8905C54.0112 47.919 53.9827 47.9447 53.9516 47.9666C53.9171 47.9908 53.8801 48.011 53.8411 48.0269C53.7984 48.0442 53.7541 48.0572 53.7089 48.0657C53.6588 48.0754 53.6078 48.0802 53.5567 48.0801C53.478 48.0817 53.3999 48.0655 53.3284 48.0326C53.2634 48.002 53.206 47.9574 53.1603 47.9019C53.1131 47.8442 53.0775 47.7779 53.0554 47.7067C53.0308 47.6286 53.0182 47.5473 53.0181 47.4654V47.2974C53.0176 47.2156 53.0297 47.1342 53.054 47.0561C53.0756 46.9852 53.1102 46.919 53.1561 46.8608C53.2016 46.8034 53.2598 46.7574 53.326 46.7263C53.3923 46.6951 53.4649 46.6797 53.5381 46.6812H53.538ZM44.664 46.6956V47.6061C44.6644 47.6451 44.6702 47.6837 44.6813 47.7211C44.6902 47.7538 44.7053 47.7843 44.7258 47.8116C44.7453 47.8365 44.7703 47.8567 44.799 47.8704C44.8309 47.8852 44.8657 47.8926 44.901 47.8919C44.9371 47.8925 44.9729 47.8852 45.0058 47.8704C45.0353 47.857 45.0615 47.8368 45.0819 47.8116C45.103 47.7847 45.1186 47.7539 45.1278 47.7211C45.1388 47.6837 45.1446 47.6451 45.1451 47.6061V46.6956L45.3778 46.7014V47.6119C45.3778 47.6773 45.3657 47.742 45.3419 47.8028C45.3198 47.8567 45.2871 47.9056 45.2456 47.9466C45.2048 47.9877 45.156 48.0199 45.102 48.0413C45.039 48.0643 44.9723 48.0755 44.9053 48.0744C44.8396 48.0754 44.7743 48.0642 44.7128 48.0413C44.6572 48.0205 44.6067 47.9881 44.5646 47.9462C44.5225 47.9044 44.4898 47.854 44.4686 47.7986C44.4447 47.7372 44.4326 47.6719 44.4328 47.6061V46.6956H44.664ZM64.0765 46.7042V46.8894H63.3944V47.2729H63.9847V47.4511H63.3958V47.8819H64.0838V48.0644H63.1589V46.7042H64.0765ZM39.6259 46.7042V46.8894H38.9438V47.2729H39.5326V47.4511H38.9438V47.8819H39.6317V48.0644H38.7082V46.7042H39.626H39.6259ZM49.6934 46.7042V46.8894H49.0113V47.2729H49.6001V47.4511H49.0113V47.8819H49.6991V48.0644H48.7758V46.7042H49.6934ZM42.0272 46.6999C42.092 46.7003 42.1566 46.708 42.2196 46.7229C42.2753 46.7355 42.3283 46.7578 42.3762 46.7889C42.4205 46.8179 42.4571 46.8575 42.4825 46.9039C42.5092 46.9547 42.522 47.0117 42.5198 47.0691C42.5209 47.1316 42.5 47.1926 42.461 47.2414C42.4193 47.2912 42.3653 47.3293 42.3043 47.3519C42.342 47.3617 42.3777 47.3772 42.4106 47.3979C42.4405 47.4166 42.4667 47.4404 42.4882 47.4683C42.5318 47.5245 42.5552 47.5939 42.5543 47.6651C42.5556 47.7242 42.5428 47.7827 42.517 47.8359C42.4926 47.8846 42.4572 47.9269 42.4136 47.9594C42.3664 47.9937 42.3133 48.019 42.257 48.0341C42.1934 48.052 42.1277 48.0612 42.0617 48.0614L41.5705 48.0599V46.6999H42.0272ZM55.0904 46.7014L55.5457 48.0614H55.3032L55.2083 47.7454H54.7616L54.664 48.0614H54.4199L54.8837 46.7014H55.0904ZM56.8354 46.7014V46.8866H56.5267V47.8761H56.8354V48.0614H55.9853V47.8761H56.2882V46.8866H55.9852V46.7014H56.8354ZM52.2081 46.7014L52.6634 48.0614H52.4207L52.3316 47.7454H51.8851L51.7874 48.0614H51.5432L52.0071 46.7014H52.2081ZM66.2825 46.6999V47.8776H66.9647V48.06H66.047V46.6999H66.2825ZM64.8463 46.6999V47.8776H65.5285V48.06H64.6108V46.6999H64.8463ZM46.3414 46.6971C46.4098 46.6973 46.4779 46.7064 46.5439 46.7244C46.6019 46.7393 46.6565 46.7651 46.7048 46.8004C46.7495 46.834 46.7855 46.8778 46.8096 46.9283C46.8356 46.9845 46.8484 47.0459 46.847 47.1078C46.8476 47.1502 46.8413 47.1924 46.8283 47.2327C46.8161 47.2694 46.7982 47.3038 46.7751 47.3347C46.752 47.3654 46.7245 47.3925 46.6933 47.4151C46.6602 47.4388 46.6246 47.4586 46.587 47.4741L46.8901 48.0484V48.06H46.6388L46.3658 47.5271H46.126V48.0571H45.8891V46.6971H46.3414ZM57.6167 46.6999L58.0806 47.6334V46.6999H58.3189L58.3176 48.0599H58.0806L57.6152 47.1251V48.0599H57.3784V46.6999H57.6167ZM47.5464 46.6999L48.0103 47.6334V46.6999H48.2486V48.0599H48.0116L47.5464 47.1251V48.0599H47.3081V46.6999H47.5464ZM61.9152 46.6999V47.2744H62.4049V46.6999H62.6347L62.6332 48.0599H62.4049V47.4524H61.9165V48.0599H61.6868V46.6999H61.9152ZM36.837 46.6999L36.8312 46.8852H36.3917V48.0599H36.1575V46.8852H35.7267V46.6999H36.8369H36.837ZM37.466 46.6999V47.2744H37.9528V46.6999H38.1826V48.0599H37.9527V47.4524H37.466V48.0599H37.2376V46.6999H37.466ZM43.4618 46.8723C43.415 46.8707 43.3689 46.8837 43.3298 46.9096C43.2946 46.9344 43.2661 46.9674 43.2465 47.0058C43.225 47.0482 43.2105 47.0938 43.2035 47.1408C43.1953 47.1911 43.191 47.2421 43.1905 47.2931V47.4683C43.1913 47.5193 43.1961 47.5702 43.2048 47.6205C43.2122 47.6675 43.2268 47.7129 43.248 47.7555C43.2674 47.7943 43.2959 47.8278 43.3313 47.8531C43.3703 47.8792 43.4165 47.8921 43.4633 47.8905C43.5107 47.8921 43.5573 47.8791 43.597 47.8531C43.6328 47.8276 43.6623 47.7942 43.6831 47.7555C43.7056 47.7134 43.7211 47.6677 43.7291 47.6205C43.738 47.5702 43.7428 47.5193 43.7434 47.4683L43.742 47.2931C43.7415 47.242 43.7367 47.191 43.7276 47.1408C43.7197 47.0936 43.7041 47.048 43.6816 47.0058C43.6609 46.9674 43.6314 46.9344 43.5955 46.9096C43.5558 46.8838 43.5092 46.8707 43.462 46.8723H43.4618ZM42.076 47.4424L41.8075 47.4439V47.8747H42.0645C42.0991 47.8746 42.1335 47.8693 42.1665 47.8589C42.1953 47.8494 42.2221 47.8348 42.2456 47.8158C42.2678 47.7979 42.286 47.7754 42.2986 47.7497C42.3115 47.7223 42.3179 47.6924 42.3173 47.6622C42.3177 47.6307 42.3119 47.5995 42.3001 47.5702C42.2898 47.5439 42.2735 47.5203 42.2527 47.5013C42.2304 47.482 42.2046 47.4673 42.1766 47.4582C42.1441 47.4478 42.1101 47.4425 42.076 47.4424ZM51.0851 47.3749V47.5544H50.2981V47.3749H51.0851ZM52.1104 47.0216L51.9453 47.5544H52.2728L52.1104 47.0216ZM54.9871 47.0216L54.8219 47.5544H55.1494L54.9871 47.0216ZM46.3429 46.8794H46.1274L46.126 47.3462H46.3428C46.3793 47.3466 46.4157 47.3412 46.4506 47.3304C46.4814 47.3205 46.5102 47.3049 46.5353 47.2844C46.5592 47.2651 46.5783 47.2405 46.5913 47.2127C46.605 47.1819 46.6119 47.1486 46.6113 47.1149C46.612 47.0805 46.6057 47.0463 46.5928 47.0144C46.5809 46.9863 46.5627 46.9612 46.5396 46.9412C46.5149 46.9202 46.486 46.9046 46.4549 46.8952C46.4184 46.8847 46.3808 46.8794 46.3428 46.8794H46.3429ZM42.0315 46.8866H41.8075V47.2729H42.033C42.0664 47.2729 42.0997 47.2686 42.1321 47.2601C42.1605 47.2527 42.1873 47.24 42.211 47.2227C42.233 47.2068 42.2511 47.1862 42.2642 47.1624C42.2776 47.1372 42.2844 47.1091 42.2842 47.0806C42.285 47.0503 42.2786 47.0203 42.2656 46.9929C42.2532 46.9687 42.235 46.9479 42.2125 46.9326C42.188 46.9162 42.1607 46.9045 42.132 46.8981C42.099 46.8908 42.0653 46.8869 42.0315 46.8866Z" fill="#2F3A3E"/>
</g>
<defs>
<clipPath id="clip0_245_24957">
<rect width="54" height="22.8866" fill="white" transform="translate(13 29)"/>
</clipPath>
</defs>
</svg>
