<svg width="80" height="80" viewBox="0 0 80 80" fill="none" xmlns="http://www.w3.org/2000/svg">
<rect width="80" height="80" rx="8" fill="#F5F8FD"/>
<g clip-path="url(#clip0_245_24937)">
<path d="M25 52.2929V52.2729C25 50.284 26.4989 48.6553 28.6475 48.6553C29.967 48.6553 30.7564 49.0953 31.4057 49.7344L30.4262 50.8638C29.8865 50.3742 29.3368 50.0744 28.6371 50.0744C27.458 50.0744 26.6085 51.0539 26.6085 52.2534V52.2733C26.6085 53.4728 27.4381 54.4722 28.6371 54.4722C29.4368 54.4722 29.9264 54.1522 30.4761 53.6525L31.4556 54.642C30.7364 55.411 29.9371 55.8909 28.5877 55.8909C26.5292 55.8909 25 54.302 25 52.2929M33.4707 48.7752H35.0093V51.5435H37.8476V48.7752H39.3873V55.7708H37.8476V52.9626H35.0093V55.771H33.4707V48.7753V48.7752ZM41.8631 48.7772H47.2245V50.1682H43.4167V51.6096H46.7672V53.0009H43.4166V54.4934H47.275V55.8841H41.8631V48.7772ZM49.5162 48.7752H54.8425V50.1745H51.0545V51.6634H54.3927V53.0625H51.0545V55.7708H49.5162V48.7752ZM40.1342 38.9102C37.5814 38.9102 35.5041 36.8333 35.5041 34.2804C35.5041 31.7272 37.5814 29.6499 40.1342 29.6499C42.2418 29.6499 44.0233 31.0653 44.5819 32.9953H46.3734C45.777 30.0968 43.2066 27.9106 40.1342 27.9106C36.6223 27.9106 33.7648 30.7681 33.7648 34.2804C33.7648 37.7925 36.6223 40.6499 40.1342 40.6499C43.2066 40.6499 45.777 38.4641 46.3733 35.5657H44.5818C44.0234 37.495 42.2418 38.9102 40.1342 38.9102Z" fill="#435363"/>
<path d="M37.0137 37.4012C37.8134 38.2009 38.9177 38.6964 40.1351 38.6964V36.8502C39.7975 36.8505 39.4632 36.7841 39.1513 36.6549C38.8394 36.5257 38.5562 36.3361 38.3177 36.0972L37.0137 37.4012Z" fill="#435363"/>
<path d="M35.7188 34.2799C35.7188 34.9117 35.8535 35.5128 36.0935 36.0571L37.7822 35.3143C37.6384 34.9884 37.5642 34.6361 37.5645 34.2799C37.5645 32.8603 38.7153 31.7098 40.1345 31.7098V29.8638C37.6996 29.8638 35.7188 31.845 35.7188 34.2799Z" fill="#F38B00"/>
<path d="M41.7361 30.165L41.0664 31.886C41.6109 32.0983 42.067 32.4893 42.36 32.9949H44.3595C43.9649 31.6991 42.989 30.6541 41.7361 30.1652" fill="#435363"/>
<path d="M41.0664 36.6744L41.7356 38.3953C42.9886 37.9062 43.9645 36.8609 44.3595 35.5649H42.36C42.067 36.0707 41.6109 36.4619 41.0664 36.6744Z" fill="#F38B00"/>
<path d="M31.9642 36.7504C31.935 36.6537 31.9073 36.5564 31.8814 36.4587L31.8766 36.4407C31.8529 36.3499 31.8306 36.2588 31.8097 36.1673C31.7877 36.0699 31.7672 35.9721 31.7483 35.8739C31.7416 35.8385 31.7354 35.803 31.7296 35.7674C31.7184 35.704 31.7072 35.6411 31.6973 35.577C31.6891 35.5225 31.6815 35.468 31.6745 35.4134C31.6233 35.0377 31.5977 34.659 31.5976 34.2798H29.8535C29.8532 34.6975 29.8794 35.1102 29.9285 35.5175C29.9293 35.5263 29.9308 35.535 29.932 35.5438C29.9457 35.6547 29.9608 35.7654 29.9779 35.8751C29.9827 35.9055 29.9879 35.9357 29.9931 35.9663C30.0083 36.0565 30.0238 36.1465 30.0413 36.2362C30.0501 36.2841 30.0605 36.3312 30.0705 36.3786C30.0851 36.4498 30.1003 36.5213 30.1166 36.5923C30.131 36.6544 30.1465 36.7166 30.1625 36.7788C30.1766 36.8342 30.19 36.8897 30.2047 36.945C30.2247 37.0184 30.2458 37.091 30.2669 37.1639C30.2757 37.1942 30.2837 37.2253 30.2929 37.2552H30.2937C30.413 37.6513 30.5562 38.0397 30.7225 38.4184L32.3207 37.7156C32.1825 37.4014 32.0635 37.0791 31.9644 36.7504H31.9642Z" fill="#435363"/>
<path d="M40.1347 42.8173C37.7812 42.8173 35.6477 41.8589 34.1022 40.313L32.8668 41.5484C34.7272 43.4088 37.2961 44.5609 40.1347 44.5609C45.3773 44.5609 49.7025 40.6368 50.335 35.5657H48.575C47.9533 39.6649 44.4053 42.8173 40.1347 42.8173ZM40.1347 25.7436C42.047 25.7436 43.8133 26.3755 45.2382 27.4418L46.283 26.0415C44.568 24.7594 42.4402 24 40.1347 24C35.7725 24 32.0452 26.7171 30.5527 30.5516L32.1796 31.1846C33.4213 28.0033 36.5191 25.7436 40.1347 25.7436Z" fill="#F38B00"/>
<path d="M48.5737 32.9955H50.3337C50.1499 31.5181 49.6453 30.0988 48.8552 28.8369L47.373 29.7618C47.9904 30.7461 48.399 31.8468 48.5736 32.9955" fill="#435363"/>
<path d="M46.5924 32.9952H48.3582C47.8975 30.0342 45.8696 27.5856 43.1521 26.5249L42.5215 28.1465C44.5881 28.9535 46.151 30.774 46.5924 32.9952Z" fill="#F38B00"/>
<path d="M40.1348 27.6965L40.1353 25.9575H40.1348C36.6097 25.9575 33.59 28.1605 32.3789 31.2623L33.9995 31.8929C34.9577 29.4392 37.3464 27.6965 40.1348 27.6965Z" fill="#435363"/>
<path d="M33.5514 34.2803H31.8125C31.8125 37.7775 33.9815 40.7765 37.0446 42.0058L37.6905 40.3918C35.2671 39.4191 33.5514 37.0469 33.5514 34.2803Z" fill="#F38B00"/>
<path d="M40.1348 40.8636V42.603C44.2869 42.603 47.7384 39.5461 48.3583 35.5649H46.5919C45.9928 38.5828 43.3255 40.8636 40.1348 40.8636Z" fill="#435363"/>
</g>
<defs>
<clipPath id="clip0_245_24937">
<rect width="29.8978" height="32" fill="white" transform="translate(25 24)"/>
</clipPath>
</defs>
</svg>
