<svg width="80" height="80" viewBox="0 0 80 80" fill="none" xmlns="http://www.w3.org/2000/svg">
<rect width="80" height="80" rx="8" fill="#F5F8FD"/>
<g clip-path="url(#clip0_245_24972)">
<path d="M21.7207 39.7207V35.2477H18.2973L16.473 33.4136V30H12V34.473H15.4233L17.2576 36.3072V38.671L15.4233 40.5054H12V44.9784H16.473V41.5648L18.3072 39.7305H21.7207V39.7207ZM13.491 31.491H14.982V32.982H13.491V31.491ZM14.982 43.4775H13.491V41.9865H14.982V43.4775Z" fill="#FFAE1A"/>
<path d="M26.6747 49.4411H24.7031V39.7205H26.6747V40.309C26.9886 39.9264 27.6949 39.5635 28.4502 39.5635C30.5198 39.5635 31.6872 41.2801 31.6872 43.2811C31.6872 45.2822 30.5101 46.9791 28.4502 46.9791C27.6851 46.9791 26.9886 46.6161 26.6747 46.2336V49.4411ZM26.6747 44.4386C26.7989 44.686 26.9894 44.8941 27.225 45.0396C27.4605 45.1851 27.7319 45.2623 28.0088 45.2625C29.0779 45.2625 29.7057 44.4091 29.7057 43.2811C29.7057 42.1334 29.0682 41.2801 28.0088 41.2801C27.7322 41.2819 27.4615 41.3597 27.2262 41.505C26.9909 41.6503 26.8001 41.8575 26.6747 42.104V44.4386ZM38.8379 46.8221H36.8662V46.1747C36.6227 46.4348 36.3278 46.6414 36.0002 46.7816C35.6726 46.9217 35.3195 46.9923 34.9633 46.989C33.3743 46.989 32.4719 45.9393 32.4719 44.3699V39.7302H34.4435V43.9678C34.4435 44.7133 34.8063 45.2233 35.5911 45.2233C36.1993 45.2233 36.7191 44.8603 36.8662 44.2424V39.7302H38.8477V46.8221H38.8378H38.8379ZM42.114 49.441H40.1425V39.7206H42.1141V40.3091C42.428 39.9265 43.1343 39.5636 43.8896 39.5636C45.9593 39.5636 47.1265 41.2802 47.1265 43.2812C47.1265 45.2823 45.9495 46.9792 43.8896 46.9792C43.1244 46.9792 42.428 46.6162 42.1141 46.2337V49.4413L42.114 49.441ZM42.114 44.4385C42.2382 44.686 42.4287 44.8941 42.6643 45.0396C42.8998 45.1851 43.1712 45.2623 43.4481 45.2625C44.5172 45.2625 45.145 44.4091 45.145 43.2811C45.145 42.1334 44.5075 41.2801 43.4481 41.2801C43.1715 41.2819 42.9008 41.3597 42.6655 41.505C42.4302 41.6503 42.2394 41.8575 42.114 42.104V44.4386V44.4385ZM49.9612 49.441H47.9896V39.7206H49.9612V40.3091C50.2751 39.9265 50.9814 39.5636 51.7366 39.5636C53.8063 39.5636 54.9735 41.2802 54.9735 43.2812C54.9735 45.2823 53.7965 46.9792 51.7366 46.9792C50.9715 46.9792 50.2751 46.6162 49.9612 46.2337V49.4413V49.441ZM49.9612 44.4385C50.0854 44.686 50.2759 44.8941 50.5114 45.0396C50.747 45.1851 51.0184 45.2623 51.2953 45.2625C52.3644 45.2625 52.9922 44.4091 52.9922 43.2811C52.9922 42.1334 52.3546 41.2801 51.2953 41.2801C51.0187 41.2819 50.748 41.3597 50.5127 41.505C50.2774 41.6503 50.0866 41.8575 49.9612 42.104V44.4386V44.4385ZM62.0459 44.4974C61.7908 46.008 60.6824 46.9791 58.8972 46.9791C56.8275 46.9791 55.4542 45.4685 55.4542 43.2811C55.4542 41.1329 56.8864 39.5635 58.8677 39.5635C60.9472 39.5635 62.0949 41.0054 62.0949 43.0947V43.7029H57.3572C57.4161 44.772 58.0242 45.3999 58.8972 45.3999C59.5643 45.3999 60.0546 45.1153 60.2116 44.5072H62.0459V44.4974ZM57.4062 42.4964H60.1527C60.133 41.7509 59.6917 41.1624 58.8776 41.1624C58.1222 41.1624 57.5828 41.6234 57.4062 42.4964ZM63.3798 41.3094H62.3009V39.7206H63.3797V37.7979H65.3318V39.7205H66.8914V41.3095H65.3317V44.4189C65.3317 44.978 65.6358 45.2332 66.1459 45.2332C66.4461 45.2313 66.7405 45.15 66.9992 44.9977V46.7437C66.7246 46.8909 66.2538 46.9693 65.7242 46.9693C64.2822 46.9693 63.3699 46.2532 63.3699 44.6838V41.3095H63.3797L63.3798 41.3094Z" fill="black"/>
</g>
<defs>
<clipPath id="clip0_245_24972">
<rect width="55" height="19.4431" fill="white" transform="translate(12 30)"/>
</clipPath>
</defs>
</svg>
