<svg width="80" height="80" viewBox="0 0 80 80" fill="none" xmlns="http://www.w3.org/2000/svg">
<path d="M40.0001 24C31.1639 24 24 31.1351 24 39.9374C24 48.7392 31.1639 55.8749 40.0001 55.8749C48.8364 55.8749 56 48.7392 56 39.9374C56 31.135 48.8361 24 40.0001 24ZM40.0001 53.8285C37.4861 53.8285 35.4478 52.1556 35.4478 50.0926H44.5525C44.5525 52.1553 42.5143 53.8285 40.0001 53.8285ZM47.5193 48.8554H32.4803V46.1389H47.5195V48.8553H47.5193V48.8554ZM47.4653 44.7409H32.5231C32.4734 44.6838 32.4226 44.6275 32.3746 44.5696C30.8353 42.7077 30.4726 41.7357 30.1206 40.7451C30.1146 40.7125 31.9873 41.1261 33.3151 41.4237C33.3151 41.4237 33.9984 41.5812 34.9974 41.7626C34.0382 40.6427 33.4686 39.2191 33.4686 37.7637C33.4686 34.569 35.9286 31.7772 35.0411 29.5208C35.9049 29.5908 36.8286 31.3366 36.8911 34.0662C37.8094 32.8021 38.1936 30.4939 38.1936 29.0787C38.1936 27.6133 39.163 25.911 40.1326 25.8529C39.2683 27.2718 40.3564 28.4882 41.3239 31.5058C41.6866 32.6393 41.6404 34.5468 41.9204 35.7565C42.0134 33.244 42.447 29.5781 44.0471 28.3125C43.3412 29.9063 44.1516 31.9008 44.7059 32.8595C45.6001 34.4065 46.1421 35.5784 46.1421 37.795C46.1421 39.2812 45.5912 40.6803 44.6621 41.7742C45.7186 41.5767 46.4482 41.3987 46.4482 41.3987L49.8795 40.7319C49.8797 40.7316 49.3811 42.774 47.4653 44.7409Z" fill="#DA4E31"/>
</svg>
