<svg width="80" height="80" viewBox="0 0 80 80" fill="none" xmlns="http://www.w3.org/2000/svg">
<rect width="80" height="80" rx="8" fill="#F5F8FD"/>
<g clip-path="url(#clip0_245_24993)">
<path d="M26.0747 55.9653H24V51.1887H26.0747C27.5696 51.1887 28.318 51.9416 28.318 53.4468C28.318 55.1248 27.5696 55.9653 26.0747 55.9653ZM24.8873 55.1965H25.9408C26.934 55.1965 27.43 54.6132 27.43 53.446C27.43 52.4524 26.934 51.9556 25.9408 51.9556H24.8873V55.1964V55.1965ZM29.2476 55.9653H28.3368L30.3684 51.1887H31.322L33.398 55.9653H32.4436L31.8411 54.6624H30.3081L30.6129 53.8949H31.6074L30.8236 52.1004L29.2477 55.9653H29.2476ZM32.8964 51.1887H36.5284V51.9568H35.156V55.9653H34.2692V51.9568H32.896L32.8964 51.1887ZM36.9844 55.9653H36.0737L38.1058 51.1887H39.0594L41.1349 55.9653H40.1805L39.5781 54.6624H38.0449L38.3489 53.8949H39.3434L38.5596 52.1004L36.9846 55.9653H36.9844ZM43.798 55.9653H41.7232V51.1887H43.798C45.2936 51.1887 46.0413 51.9416 46.0413 53.4468C46.0413 55.1248 45.2936 55.9653 43.798 55.9653ZM42.61 55.1965H43.6644C44.6569 55.1965 45.154 54.6132 45.154 53.446C45.154 52.4524 44.6567 51.9556 43.6644 51.9556H42.61V55.1964V55.1965ZM46.6416 53.5836C46.6416 51.964 47.4436 51.1544 49.0456 51.1544C50.6231 51.1544 51.4116 51.964 51.4116 53.5836C51.4116 55.1936 50.6233 55.9996 49.0456 55.9996C47.5144 55.9992 46.714 55.1936 46.6416 53.5836ZM49.0456 55.2296C50.0093 55.2296 50.4912 54.6744 50.4912 53.5632C50.4912 52.4692 50.0093 51.9216 49.0456 51.9216C48.0569 51.9216 47.5627 52.4691 47.5627 53.5632C47.5632 54.6745 48.0573 55.2295 49.0456 55.2295M55.1127 54.0324V55.1504C54.908 55.204 54.7244 55.23 54.564 55.23C53.4787 55.23 52.9373 54.6567 52.9373 53.51C52.9373 52.4513 53.5124 51.922 54.6607 51.922C55.1407 51.922 55.5868 52.0113 55.9995 52.1895V51.3876C55.5872 51.232 55.1187 51.1536 54.594 51.1536C52.876 51.1536 52.0165 51.9384 52.0165 53.5096C52.0165 55.168 52.8612 55.9988 54.5504 55.9988C55.1316 55.9988 55.6144 55.914 56 55.7444V53.2456H54.5675L54.268 54.0316H55.1127V54.0324ZM48.0047 42.0187L45.8935 40.626L44.1324 43.568L42.084 42.9692L40.2804 45.722L40.3729 46.5884L50.1796 44.7812L49.61 38.6536L48.0047 42.0187ZM38.8596 39.3772L40.4333 39.1608C40.6876 39.2753 40.8647 39.3187 41.17 39.3964C41.6456 39.52 42.1956 39.6389 43.0104 39.2284C43.2 39.1344 43.5952 38.7733 43.7547 38.5671L50.2013 37.398L50.8587 45.3573L39.8144 47.3476L38.8596 39.3772ZM50.834 36.5092L50.1976 36.6305L48.975 24L28.1452 26.4153L30.7118 47.24L33.1501 46.886C32.9554 46.608 32.6521 46.2716 32.1345 45.8412C31.4165 45.2447 31.6701 44.2312 32.0941 43.5912C32.6545 42.51 35.5421 41.136 35.3785 39.408C35.3197 38.7796 35.2201 37.962 34.6365 37.4012C34.6145 37.634 34.6541 37.8575 34.6541 37.8575C34.6541 37.8575 34.4145 37.552 34.2954 37.1356C34.1769 36.9756 34.0838 36.9248 33.9578 36.7113C33.8678 36.958 33.8798 37.2444 33.8798 37.2444C33.8798 37.2444 33.6838 36.7816 33.6521 36.3907C33.5361 36.5656 33.5069 36.8976 33.5069 36.8976C33.5069 36.8976 33.2525 36.168 33.3106 35.7747C33.1945 35.4327 32.8501 34.754 32.9474 33.2116C33.5829 33.6567 34.9825 33.5513 35.5278 32.7476C35.7085 32.4813 35.8329 31.7548 35.4374 30.3228C35.1834 29.4047 34.5545 28.0376 34.3094 27.5187L34.2801 27.54C34.4094 27.958 34.6757 28.8336 34.7781 29.2587C35.0877 30.5468 35.1706 30.9956 35.0254 31.5896C34.9016 32.106 34.6054 32.4436 33.8541 32.8212C33.1029 33.2 32.1058 32.278 32.0429 32.2273C31.3129 31.6456 30.7481 30.6972 30.6854 30.236C30.6198 29.7316 30.9761 29.4288 31.1557 29.0164C30.8985 29.0896 30.6121 29.2204 30.6121 29.2204C30.6121 29.2204 30.9541 28.8664 31.3758 28.5604C31.5366 28.4563 31.6907 28.3421 31.837 28.2184C31.5705 28.214 31.3541 28.2216 31.3541 28.2216C31.3541 28.2216 31.7985 27.9816 32.2589 27.8068C31.9221 27.792 31.5994 27.8044 31.5994 27.8044C31.5994 27.8044 32.5909 27.3607 33.3737 27.0356C33.9121 26.8147 34.4381 26.88 34.7338 27.3076C35.1217 27.8676 35.5294 28.1716 36.3929 28.36C36.9234 28.1248 37.0841 28.0044 37.7505 27.8225C38.3369 27.1772 38.7974 27.094 38.7974 27.094C38.7974 27.094 38.5689 27.3036 38.5077 27.6328C38.8401 27.3707 39.2045 27.152 39.2045 27.152C39.2045 27.152 39.0633 27.326 38.9318 27.6028L38.9621 27.6484C39.3501 27.4156 39.8061 27.2324 39.8061 27.2324C39.8061 27.2324 39.6757 27.3972 39.5229 27.6104C39.8158 27.608 40.4089 27.6229 40.6394 27.6488C41.9989 27.6788 42.2809 26.1973 42.8025 26.0113C43.4557 25.778 43.7477 25.6368 44.8609 26.7304C45.8158 27.6696 46.5621 29.3496 46.1914 29.726C45.8805 30.0385 45.2676 29.604 44.5885 28.7576C44.2297 28.3092 43.9581 27.7792 43.831 27.1056C43.7237 26.5373 43.3061 26.2076 43.3061 26.2076C43.3061 26.2076 43.5481 26.7476 43.5481 27.2232C43.5481 27.4832 43.5806 28.4548 43.9974 29.0004C43.9561 29.08 43.9369 29.3947 43.8914 29.4552C43.4065 28.8692 42.3654 28.45 42.1954 28.3265C42.7701 28.7972 44.0909 29.8787 44.5981 30.916C45.0781 31.8964 44.7954 32.7952 45.0381 33.0276C45.1074 33.094 46.0701 34.294 46.2554 34.8968C46.5785 35.9473 46.2745 37.0516 45.8516 37.7364L44.6705 37.9204C44.4977 37.8724 44.3814 37.8484 44.2265 37.7587C44.3121 37.6075 44.4818 37.2308 44.4834 37.1528L44.4165 37.036C44.049 37.5568 43.4334 38.0624 42.9217 38.3527C42.2521 38.7324 41.4805 38.6736 40.9781 38.5184C39.5525 38.0788 38.2041 37.1153 37.8789 36.862C37.8789 36.862 37.8689 37.064 37.9301 37.1095C38.2894 37.5153 39.1129 38.2484 39.9094 38.76L38.2121 38.9467L39.0146 45.1936C38.6589 45.2444 38.6034 45.2696 38.2141 45.3249C37.8709 44.1124 37.2145 43.3207 36.4969 42.8596C35.8641 42.4527 34.9914 42.3612 34.1561 42.5268L34.1025 42.5893C34.6834 42.5288 35.3689 42.6128 36.0734 43.0588C36.7646 43.496 37.3217 44.6252 37.5269 45.3048C37.7897 46.1735 37.9714 47.1032 37.2641 48.0885C36.7614 48.7887 35.2934 49.1756 34.1069 48.3385C34.4238 48.848 34.8518 49.2644 35.4285 49.3428C36.2845 49.4593 37.0969 49.3104 37.6561 48.7365C38.1334 48.2456 38.3869 47.2192 38.3201 46.1384L39.0758 46.0287L39.3485 47.9688L51.8545 46.4627L50.8341 36.5092H50.834ZM43.2253 31.2407C43.1904 31.3204 43.1353 31.3727 43.2176 31.632L43.2224 31.6467L43.2356 31.6805L43.27 31.758C43.4184 32.0616 43.5812 32.3476 43.854 32.494C43.9265 32.4817 43.9998 32.4738 44.0732 32.4704C44.3293 32.4591 44.4908 32.4996 44.5928 32.5548C44.602 32.5035 44.604 32.4292 44.5984 32.3193C44.5784 31.9348 44.6744 31.2812 43.9356 30.9373C43.6569 30.808 43.2656 30.8476 43.1353 31.0093C43.1588 31.0124 43.18 31.0173 43.1968 31.0227C43.3944 31.0912 43.2607 31.1592 43.2253 31.2407ZM45.2965 34.8272C45.1996 34.7735 44.7467 34.7948 44.4284 34.8328C43.822 34.9044 43.1671 35.1144 43.024 35.2265C42.7633 35.428 42.8815 35.7793 43.0744 35.9236C43.6147 36.3272 44.0884 36.598 44.588 36.532C44.8947 36.4916 45.1655 36.0056 45.3573 35.5647C45.4885 35.2612 45.4885 34.9335 45.2964 34.8272M39.928 31.7162C40.0988 31.5539 39.0764 31.3406 38.2828 31.8819C37.6976 32.2811 37.6788 33.1371 38.2393 33.6222C38.2952 33.6702 38.3416 33.7043 38.3844 33.7323C38.5677 33.6454 38.7563 33.5705 38.9493 33.5079C39.3116 33.3904 39.6132 33.3295 39.8608 33.2971C39.9792 33.1646 40.1173 32.9315 40.0828 32.5091C40.0356 31.9359 39.602 32.0266 39.928 31.7162Z" fill="#632CA6"/>
</g>
<defs>
<clipPath id="clip0_245_24993">
<rect width="32" height="32" fill="white" transform="translate(24 24)"/>
</clipPath>
</defs>
</svg>
