<svg width="80" height="80" viewBox="0 0 80 80" fill="none" xmlns="http://www.w3.org/2000/svg">
<g clip-path="url(#clip0_245_24982)">
<path d="M28.4461 36.939L30.5088 42.3064L32.5714 36.939H33.4215L30.1907 45.3524H29.3405L30.0872 43.4081L27.6031 36.939H28.4459H28.4461ZM63.3712 36.9464V37.6784H61.412C60.7393 37.6784 60.3254 37.8706 60.0665 38.122C59.7635 38.4102 59.6598 38.8095 59.6598 39.1126V41.2566C59.6598 41.5597 59.7635 41.9515 60.0665 42.2473C60.3178 42.4987 60.7393 42.691 61.412 42.691H63.3712V43.4228H61.4934C60.451 43.4228 59.8225 43.1124 59.4381 42.7353C58.8589 42.1703 58.8399 41.3703 58.8393 41.2382V39.1311C58.8399 38.999 58.8589 38.1989 59.4381 37.634C59.8299 37.257 60.4583 36.9464 61.4934 36.9464H63.3712ZM52.7103 36.9464V37.6784H51.3425C50.9581 37.6784 50.692 37.7522 50.5293 37.915C50.3667 38.0702 50.2854 38.3437 50.2854 38.7134V43.4154H49.4721V38.6543C49.4795 38.292 49.5386 37.9001 49.7308 37.6045C50.0784 37.0499 50.7438 36.9465 51.239 36.9465H52.7103V36.9464ZM26.9599 35.0021V41.7075C26.9525 42.0698 26.886 42.4618 26.7012 42.7574C26.3536 43.3046 25.6883 43.4154 25.193 43.4154H24.4314C23.389 43.4154 22.7605 43.105 22.3762 42.7278C21.8166 42.1821 21.7799 41.4169 21.7775 41.2465L21.7773 41.2246V39.13L21.7775 39.1081C21.7799 38.9378 21.8166 38.1724 22.3762 37.6268C22.768 37.2497 23.3964 36.9392 24.4314 36.9392H26.1392V35.002H26.9599V35.0021ZM36.3788 36.939C37.3548 36.9538 37.9536 37.257 38.3306 37.6266C38.893 38.182 38.9206 38.9645 38.922 39.1164V43.4155H38.1088V39.1127C38.1088 38.8096 38.0053 38.4178 37.7096 38.122C37.4582 37.8781 36.9777 37.6859 36.3344 37.6784C35.6913 37.6859 35.2107 37.8781 34.9593 38.122C34.6563 38.4178 34.5602 38.8096 34.5602 39.1127V43.4155H33.7468V39.1164C33.7483 38.9645 33.776 38.1818 34.3383 37.6266C34.7154 37.257 35.3142 36.9538 36.29 36.939H36.3788ZM66.4542 36.939C67.4301 36.9538 68.0289 37.257 68.4059 37.6266C69.0048 38.2106 69.0048 39.0461 68.9974 39.1348V40.4804H64.6355V41.2419C64.6355 41.5449 64.7389 41.9367 65.0348 42.2326C65.286 42.4765 65.7666 42.6687 66.4098 42.6762H68.2877V43.4154H66.3655C65.3896 43.4007 64.7907 43.0975 64.4136 42.7278C63.8416 42.1629 63.8228 41.3629 63.8223 41.2308V39.1238C63.8228 38.9916 63.8416 38.1915 64.4136 37.6266C64.7907 37.257 65.3897 36.9538 66.3655 36.939H66.4542ZM46.3965 35.002V36.9464H48.1043V37.6784H46.3965V41.6559C46.3965 42.0255 46.4779 42.2843 46.6405 42.4395C46.8032 42.6022 47.0693 42.6761 47.4538 42.6761H48.8215V43.4081H47.3502C46.8549 43.4081 46.1896 43.3046 45.842 42.7501C45.6498 42.4544 45.5907 42.0625 45.5833 41.7003V35.0021H46.3965V35.002ZM42.0863 36.939C43.1287 36.939 43.7572 37.2496 44.1416 37.6266C44.711 38.182 44.739 38.9645 44.7404 39.1164V41.7003C44.733 42.0625 44.6667 42.4544 44.4817 42.7501C44.1343 43.2972 43.4688 43.4081 42.9735 43.4081H41.3249C40.8295 43.4081 40.1641 43.3046 39.8167 42.7501C39.6245 42.4544 39.5652 42.0625 39.5579 41.7003V41.4415C39.5652 41.0792 39.6318 40.6874 39.8167 40.3917C40.1641 39.8446 40.8296 39.7337 41.3249 39.7337H43.9199V39.1052C43.9199 38.8021 43.8162 38.4103 43.5132 38.1145C43.2619 37.8632 42.8404 37.6709 42.1677 37.6709H40.2748V36.939H42.0863ZM55.5419 36.939C56.5843 36.939 57.2128 37.2496 57.5972 37.6266C58.1666 38.182 58.1946 38.9645 58.1959 39.1164V41.7003C58.1887 42.0625 58.1222 42.4544 57.9372 42.7501C57.5898 43.2972 56.9243 43.4081 56.4291 43.4081H54.7804C54.285 43.4081 53.6197 43.3046 53.2722 42.7501C53.08 42.4544 53.0208 42.0625 53.0134 41.7003V41.4415C53.0208 41.0792 53.0874 40.6874 53.2722 40.3917C53.6197 39.8446 54.2851 39.7337 54.7804 39.7337H57.3755V39.1052C57.3755 38.8021 57.2718 38.4103 56.9687 38.1145C56.7175 37.8632 56.296 37.6709 55.6232 37.6709H53.7305V36.939H55.5419ZM26.1318 37.6784H24.3428C23.6699 37.6784 23.2559 37.8706 22.9972 38.122C22.6941 38.4177 22.5906 38.8095 22.5906 39.1126V41.2493C22.5906 41.5523 22.694 41.9441 22.9972 42.2399C23.2485 42.4913 23.6699 42.6836 24.3428 42.6836H25.082C25.4666 42.6836 25.7326 42.6022 25.8954 42.4469C26.0579 42.2843 26.1393 42.0255 26.1319 41.6633V37.6784H26.1318ZM43.9273 40.4656H41.4432C41.0588 40.4656 40.7926 40.5469 40.63 40.7021C40.4674 40.8575 40.386 41.1162 40.386 41.4858V41.6633C40.386 42.0255 40.4599 42.2843 40.6226 42.4469C40.7852 42.6096 41.0514 42.6836 41.4358 42.6836H42.8702C43.2546 42.6836 43.5208 42.6022 43.6834 42.4469C43.8461 42.2843 43.9273 42.0255 43.9273 41.6633V40.4656ZM57.3829 40.4656H54.8988C54.5143 40.4656 54.2481 40.5469 54.0855 40.7021C53.923 40.8575 53.8416 41.1162 53.8416 41.4858V41.6633C53.8416 42.0255 53.9155 42.2843 54.0782 42.4469C54.2408 42.6096 54.507 42.6836 54.8914 42.6836H56.3257C56.7101 42.6836 56.9763 42.6022 57.1389 42.4469C57.3016 42.2843 57.3829 42.0255 57.3829 41.6633V40.4656ZM66.4173 37.6784C65.7741 37.6858 65.2936 37.878 65.0422 38.122C64.7392 38.4177 64.643 38.8095 64.643 39.1126V39.7484H68.1917V39.1126C68.1917 38.8095 68.0882 38.4177 67.7924 38.1219C67.5411 37.878 67.0606 37.6858 66.4173 37.6783V37.6784Z" fill="#1A1A1A"/>
<path d="M13.4526 35.867C13.3196 36.5693 13.157 37.6118 13.0682 38.669C12.913 40.5321 13.0091 41.7815 13.0091 41.7815L10.3845 44.273C10.3845 44.273 10.185 42.8758 10.0815 41.301C10.0221 40.3251 10 39.4675 10 38.95C10 38.9204 10.0147 38.8909 10.0147 38.8612C10.0147 38.8244 10.0591 38.4768 10.3992 38.1514C10.769 37.7967 13.497 35.6602 13.4526 35.8671V35.867Z" fill="#1496FF"/>
<path d="M13.4525 35.867C13.3194 36.5694 13.1568 37.6118 13.0681 38.6691C13.0681 38.6691 10.1626 38.3215 10 39.024C10 38.987 10.0517 38.5582 10.3918 38.2329C10.7615 37.878 13.4969 35.6601 13.4525 35.8671V35.867Z" fill="#1284EA"/>
<path d="M10.0006 38.8539V39.0164C10.0301 38.8908 10.0819 38.8021 10.1855 38.6615C10.3998 38.3881 10.7474 38.3141 10.8878 38.2993C11.5976 38.2032 12.6475 38.0924 13.7046 38.0628C15.5751 38.0037 16.8097 38.1589 16.8097 38.1589L19.4342 35.6674C19.4342 35.6674 18.0591 35.4086 16.4917 35.2237C15.6809 35.1249 14.8673 35.051 14.052 35.002C14.0152 35.002 13.6529 34.9577 13.3127 35.283C12.943 35.6379 11.0652 37.4195 10.3111 38.1366C9.97115 38.4619 10.0006 38.8242 10.0006 38.8539Z" fill="#B4DC00"/>
<path d="M19.3392 42.0402C18.6294 42.1363 17.5796 42.2545 16.5224 42.2915C14.652 42.3506 13.41 42.1954 13.41 42.1954L10.7852 44.6943C10.7852 44.6943 12.1751 44.9678 13.7424 45.1453C14.7035 45.2561 15.5539 45.3154 16.0713 45.3449C16.1082 45.3449 16.1674 45.3154 16.2044 45.3154C16.2413 45.3154 16.6036 45.2488 16.9437 44.9236C17.3134 44.5687 19.5461 42.0179 19.3391 42.0402H19.3392Z" fill="#6F2DA8"/>
<path d="M19.3391 42.0403C18.6292 42.1364 17.5795 42.2546 16.5223 42.2916C16.5223 42.2916 16.7219 45.2119 16.0195 45.3376C16.0564 45.3376 16.537 45.3155 16.8771 44.9902C17.2468 44.6353 19.546 42.0181 19.3391 42.0402V42.0403Z" fill="#591F91"/>
<path d="M16.1743 45.3525C16.1226 45.3525 16.0708 45.3451 16.0117 45.3451C16.1448 45.323 16.2335 45.2786 16.374 45.1751C16.655 44.9754 16.7436 44.628 16.7732 44.4875C16.8988 43.7852 17.0689 42.7428 17.1502 41.6855C17.2981 39.8224 17.2093 38.5804 17.2093 38.5804L19.8339 36.0815C19.8339 36.0815 20.0261 37.4714 20.137 39.0462C20.2036 40.0738 20.2257 40.9833 20.2332 41.4859C20.2332 41.5228 20.2628 41.8851 19.9227 42.2104C19.553 42.5653 17.6751 44.3544 16.9284 45.0717C16.5735 45.3968 16.2113 45.3525 16.1743 45.3525Z" fill="#73BE28"/>
</g>
<defs>
<clipPath id="clip0_245_24982">
<rect width="59" height="10.4863" fill="white" transform="translate(10 35)"/>
</clipPath>
</defs>
</svg>
