<svg width="80" height="80" viewBox="0 0 80 80" fill="none" xmlns="http://www.w3.org/2000/svg">
<path d="M45.756 33.9285L48.8612 30.8233L49.0681 29.5158C43.4096 24.3705 34.4147 24.9539 29.3136 30.7332C27.8969 32.3383 26.8457 34.3395 26.2852 36.4059L27.3973 36.2492L33.6076 35.225L34.087 34.7348C36.8495 31.7009 41.5204 31.2927 44.71 33.8741L45.756 33.9285Z" fill="#EA4335"/>
<path d="M53.2835 36.3163C52.5698 33.6879 51.1044 31.325 49.067 29.5176L44.7089 33.8757C45.6172 34.6179 46.3451 35.5566 46.8377 36.6211C47.3303 37.6855 47.5747 38.848 47.5526 40.0207V40.7943C49.6945 40.7943 51.4314 42.5309 51.4314 44.673C51.4314 46.8152 49.6947 48.5083 47.5526 48.5083H39.7842L39.0215 49.3363V53.9886L39.7842 54.7185H47.5525C53.1243 54.7619 57.6766 50.3238 57.72 44.752C57.7329 43.0892 57.3347 41.4489 56.5607 39.9772C55.7867 38.5055 54.6609 37.2479 53.2835 36.3163Z" fill="#4285F4"/>
<path d="M32.03 54.7172H39.7875V48.5068H32.03C31.4808 48.5067 30.9382 48.3878 30.4394 48.1582L29.3388 48.4959L26.2118 51.6011L25.9395 52.658C27.6931 53.9821 29.8326 54.7267 32.03 54.7172Z" fill="#34A853"/>
<path d="M32.0288 34.5723C26.457 34.6057 21.967 39.1497 22.0002 44.7217C22.0093 46.2571 22.3688 47.7702 23.0513 49.1457C23.7338 50.5212 24.7212 51.7227 25.9383 52.6588L30.4382 48.1591C28.486 47.277 27.6184 44.9796 28.5004 43.0274C29.3823 41.0752 31.68 40.2075 33.632 41.0894C34.4923 41.4781 35.1812 42.1671 35.5698 43.0274L40.0698 38.5275C39.1253 37.2927 37.908 36.2932 36.5131 35.6071C35.1181 34.9209 33.5834 34.5668 32.0288 34.5723Z" fill="#FBBC05"/>
</svg>
