<svg width="80" height="80" viewBox="0 0 80 80" fill="none" xmlns="http://www.w3.org/2000/svg">
<g clip-path="url(#clip0_245_24916)">
<path d="M26.2014 34.9632L26.6499 35.2879C27.43 35.9171 27.8785 36.6275 27.976 37.4393C28.8146 37.277 29.887 37.3988 30.3551 37.7235L30.7841 37.9874L30.7061 38.1498C30.5696 38.4542 30.5306 38.5354 30.5111 38.576C29.7506 40.0982 28.249 40.1185 27.547 40.0982C25.7724 44.5431 21.9893 46.9989 16.8799 46.9989C14.5204 46.9989 12.7264 46.2479 11.5172 44.7663C9.91828 42.818 9.91828 40.2808 10.0547 39.469L10.0938 39.3065H24.1928C24.9338 39.3065 25.4994 39.1037 25.7724 38.9413C25.4798 38.4947 25.3824 37.9874 25.3629 37.7032C25.3043 36.8914 25.4994 36.0389 25.8895 35.43L26.2014 34.9633V34.9632ZM38.4177 35.9057C38.5751 35.9057 38.7082 35.9583 38.8173 36.0639C38.9263 36.1693 38.9809 36.3024 38.9809 36.4634V41.4833C38.9809 42.3199 38.6877 43.0279 38.1013 43.607C37.5078 44.1934 36.7998 44.4866 35.9775 44.4866C35.1481 44.4866 34.4401 44.1934 33.8538 43.607C33.2674 43.0207 32.9742 42.3127 32.9742 41.4833C32.9742 40.6537 33.2674 39.9459 33.8538 39.3596C34.4401 38.773 35.1481 38.48 35.9775 38.48C36.6891 38.48 37.3165 38.6998 37.86 39.1396V36.4634C37.86 36.3025 37.9127 36.1693 38.0182 36.0639C38.1236 35.9583 38.2568 35.9057 38.4177 35.9057ZM42.6225 38.48C43.4449 38.48 44.1528 38.7731 44.7463 39.3594C45.0395 39.6527 45.2586 39.9763 45.4033 40.3302C45.5482 40.6841 45.6223 41.0686 45.6259 41.4833C45.6259 42.3199 45.3327 43.0279 44.7464 43.607C44.1529 44.1934 43.4449 44.4866 42.6226 44.4866C41.7931 44.4866 41.0852 44.1934 40.4989 43.607C39.9124 43.0207 39.6192 42.3127 39.6192 41.4833C39.6192 40.6537 39.9125 39.9459 40.4988 39.3596C41.0852 38.773 41.7931 38.48 42.6225 38.48ZM49.2569 38.48C50.0113 38.48 50.6639 38.7231 51.2145 39.2094C51.3432 39.3237 51.4075 39.465 51.4075 39.633C51.4075 39.7939 51.3547 39.928 51.2493 40.0352C51.1438 40.1424 51.0106 40.1961 50.8498 40.1961C50.7169 40.1972 50.5878 40.1517 50.4851 40.0674C50.3028 39.9137 50.1115 39.7974 49.9112 39.7188C49.7109 39.6401 49.4929 39.6008 49.2569 39.6008C48.9959 39.6008 48.751 39.6499 48.5222 39.7483C48.2984 39.8433 48.0945 39.9797 47.9215 40.1505C47.749 40.3217 47.6114 40.5248 47.5166 40.7486C47.4183 40.9773 47.3691 41.2222 47.3691 41.4833C47.3691 41.7443 47.4183 41.9892 47.5166 42.218C47.6114 42.4418 47.749 42.6449 47.9215 42.8161C48.0945 42.9868 48.2984 43.1233 48.5222 43.2182C48.751 43.3165 48.9959 43.3657 49.2569 43.3657C49.4929 43.3657 49.7109 43.3272 49.9112 43.2505C50.1115 43.1735 50.3009 43.0582 50.4796 42.9044C50.5799 42.8294 50.6978 42.79 50.8336 42.7865C50.9945 42.7865 51.1277 42.8392 51.2332 42.9447C51.3387 43.0502 51.3914 43.1833 51.3914 43.3443C51.3914 43.5016 51.3324 43.6393 51.2145 43.7572C50.6602 44.2434 50.0078 44.4866 49.2569 44.4866C48.4275 44.4866 47.7195 44.1934 47.1332 43.607C46.5468 43.0207 46.2536 42.3127 46.2536 41.4833C46.2536 40.6537 46.5468 39.9459 47.1332 39.3596C47.7195 38.773 48.4275 38.48 49.2569 38.48ZM52.6037 35.9057C52.7575 35.9057 52.8888 35.9602 52.9978 36.0693C53.107 36.1783 53.1615 36.3114 53.1615 36.4688V40.652L56.3686 38.5657C56.4579 38.5086 56.558 38.48 56.6689 38.48C56.7476 38.48 56.8209 38.4943 56.8888 38.5228C56.9568 38.5514 57.0158 38.5916 57.0658 38.6435C57.1158 38.6954 57.156 38.7553 57.1864 38.8233C57.2167 38.8906 57.2323 38.9637 57.232 39.0376C57.232 39.2379 57.1606 39.3863 57.0175 39.4829L54.7704 40.9417L57.0765 43.5373C57.1802 43.6517 57.232 43.7822 57.232 43.9289C57.232 44.0039 57.2168 44.0754 57.1864 44.1433C57.157 44.2098 57.1162 44.2707 57.0658 44.3231C57.0158 44.3749 56.9568 44.415 56.8888 44.4436C56.8191 44.4726 56.7443 44.4872 56.6689 44.4866C56.5188 44.4866 56.3935 44.4383 56.2935 44.3417L53.8157 41.5583L53.1615 41.9874V43.9234C53.1615 44.0772 53.107 44.2095 52.9978 44.3203C52.8888 44.4312 52.7575 44.4866 52.6037 44.4866C52.4463 44.4866 52.3132 44.4312 52.2041 44.3203C52.0951 44.2095 52.0405 44.0772 52.0405 43.9234V36.4688C52.0405 36.3114 52.0951 36.1783 52.2041 36.0692C52.3132 35.9602 52.4463 35.9056 52.6037 35.9056V35.9057ZM60.8416 38.48C61.6639 38.48 62.3719 38.7731 62.9653 39.3594C63.2585 39.6491 63.4785 39.9718 63.625 40.3275C63.7716 40.6832 63.8449 41.0684 63.8449 41.4833C63.8449 41.6441 63.7904 41.7774 63.6813 41.8828C63.5722 41.9882 63.439 42.041 63.2817 42.041H59.0343C59.0933 42.2342 59.184 42.4163 59.3024 42.58C59.4181 42.7403 59.5583 42.8815 59.718 42.9982C59.8782 43.1151 60.0555 43.2064 60.2436 43.2692C60.4349 43.3335 60.6343 43.3657 60.8416 43.3657C61.0776 43.3657 61.2939 43.33 61.4905 43.2584C61.6872 43.187 61.8696 43.0797 62.0376 42.9366C62.141 42.8487 62.2718 42.7994 62.4075 42.7972C62.5685 42.7972 62.7017 42.8499 62.8071 42.9554C62.9127 43.0609 62.9653 43.194 62.9653 43.355C62.9653 43.5123 62.9117 43.6463 62.8045 43.7572C62.2502 44.2434 61.596 44.4866 60.8416 44.4866C60.012 44.4866 59.3041 44.1934 58.7178 43.607C58.1314 43.0207 57.8383 42.3127 57.8383 41.4833C57.8383 40.6537 58.1314 39.9459 58.7178 39.3596C59.3041 38.773 60.012 38.48 60.8416 38.48ZM67.4651 38.48C67.6224 38.48 67.7914 38.4907 67.9719 38.5121C68.1525 38.5336 68.3188 38.5721 68.4708 38.6274C68.6227 38.6828 68.7487 38.7587 68.8487 38.8553C68.949 38.9519 68.999 39.077 68.999 39.2307C68.999 39.3094 68.9838 39.3828 68.9534 39.4507C68.924 39.5172 68.8831 39.578 68.8327 39.6303C68.7827 39.6822 68.7237 39.7224 68.6557 39.751C68.5861 39.7799 68.5113 39.7945 68.4359 39.7939C68.3679 39.7939 68.2893 39.7743 68.1999 39.7349C67.9747 39.6456 67.7297 39.6008 67.4651 39.6008C67.2041 39.6008 66.9593 39.6499 66.7304 39.7483C66.5016 39.8466 66.3023 39.9807 66.1324 40.1505C65.9626 40.3204 65.8285 40.5197 65.7302 40.7486C65.6319 40.9773 65.5827 41.2222 65.5827 41.4833V43.9289C65.5827 44.0826 65.5282 44.2139 65.4191 44.323C65.3101 44.4321 65.1787 44.4866 65.025 44.4866C64.8677 44.4866 64.7345 44.4321 64.6255 44.323C64.5163 44.2139 64.4618 44.0826 64.4618 43.9289V39.0377C64.4618 38.884 64.5163 38.7525 64.6255 38.6436C64.7345 38.5345 64.8677 38.48 65.025 38.48C65.1787 38.48 65.3101 38.5345 65.4191 38.6436C65.5282 38.7525 65.5827 38.884 65.5827 39.0377V39.1449C65.8451 38.9336 66.1404 38.767 66.4569 38.6516C66.7714 38.5371 67.1076 38.4799 67.4651 38.4799V38.48ZM35.9775 39.6007C35.713 39.6007 35.4662 39.6507 35.2374 39.7509C35.0087 39.851 34.8102 39.986 34.6421 40.1558C34.4741 40.3257 34.3409 40.5249 34.2426 40.7539C34.1443 40.9826 34.0951 41.2257 34.0951 41.4832C34.0951 41.7406 34.1443 41.9837 34.2426 42.2126C34.3409 42.4413 34.4741 42.6407 34.6421 42.8105C34.8102 42.9803 35.0085 43.1153 35.2374 43.2155C35.4662 43.3155 35.713 43.3656 35.9775 43.3656C36.2385 43.3656 36.4834 43.3155 36.7122 43.2155C36.9358 43.119 37.1388 42.9806 37.3103 42.8078C37.4806 42.6354 37.617 42.4326 37.7125 42.2098C37.8108 41.9828 37.86 41.7406 37.86 41.4832C37.86 41.2257 37.8108 40.9835 37.7125 40.7564C37.617 40.5337 37.4806 40.3308 37.3103 40.1585C37.1388 39.9857 36.9358 39.8473 36.7122 39.7509C36.4834 39.6507 36.2386 39.6007 35.9775 39.6007ZM42.6226 39.6007C42.3581 39.6007 42.1114 39.6507 41.8825 39.7509C41.6536 39.851 41.4552 39.986 41.2872 40.1558C41.1192 40.3257 40.986 40.5249 40.8876 40.7539C40.7893 40.9826 40.7401 41.2257 40.7401 41.4832C40.7401 41.7406 40.7893 41.9837 40.8876 42.2126C40.986 42.4413 41.1192 42.6407 41.2872 42.8105C41.4552 42.9803 41.6536 43.1153 41.8825 43.2155C42.1114 43.3155 42.3581 43.3656 42.6226 43.3656C42.8836 43.3656 43.1285 43.3155 43.3574 43.2155C43.5809 43.119 43.7839 42.9806 43.9554 42.8078C44.1257 42.6354 44.2622 42.4326 44.3576 42.2098C44.4559 41.9828 44.5051 41.7406 44.5051 41.4832C44.5051 41.2257 44.4559 40.9835 44.3576 40.7564C44.2622 40.5337 44.1257 40.3308 43.9554 40.1585C43.7839 39.9857 43.5809 39.8473 43.3574 39.7509C43.1285 39.6507 42.8836 39.6007 42.6226 39.6007ZM60.8416 39.6007C60.6377 39.6007 60.4394 39.6329 60.2463 39.6972C60.0565 39.7598 59.8774 39.8512 59.7153 39.968C59.5544 40.0842 59.4132 40.2255 59.297 40.3864C59.1789 40.5494 59.09 40.7318 59.0343 40.9253H62.6489C62.5896 40.7317 62.4981 40.5495 62.3781 40.3864C62.2609 40.2263 62.1199 40.0852 61.9598 39.9681C61.7996 39.8513 61.6223 39.76 61.4342 39.6973C61.2433 39.633 61.0431 39.6004 60.8416 39.6007ZM13.7599 36.8709V38.9006H11.6148V36.8711H13.7599V36.8709ZM16.295 36.8709V38.9006H14.15V36.8711H16.295V36.8709ZM18.8301 36.8709V38.9006H16.685V36.8711H18.8302L18.8301 36.8709ZM21.3652 36.8709V38.9006H19.2201V36.8711H21.3654L21.3652 36.8709ZM23.9004 36.8709V38.9006H21.7552V36.8711H23.9004V36.8709ZM21.3652 34.4354V36.465H19.2201V34.4356H21.3654L21.3652 34.4354ZM18.8301 34.4354V36.465H16.685V34.4356H18.8302L18.8301 34.4354ZM16.295 34.4354V36.465H14.15V34.4356H16.295V34.4354ZM21.3652 32V34.0296H19.2201V32H21.3654H21.3652Z" fill="#2396ED"/>
</g>
<defs>
<clipPath id="clip0_245_24916">
<rect width="59" height="15.0955" fill="white" transform="translate(10 32)"/>
</clipPath>
</defs>
</svg>
