<svg width="80" height="80" viewBox="0 0 80 80" fill="none" xmlns="http://www.w3.org/2000/svg">
<g clip-path="url(#clip0_245_24907)">
<path d="M34.2614 54.6158C33.5182 54.6158 32.8164 54.2855 32.3415 53.6868L25.1162 44.7065C24.6413 44.1078 24.4556 43.3441 24.6413 42.6007L27.2218 31.3909C27.3869 30.6477 27.8824 30.049 28.5638 29.7188L39.0097 24.7227C39.3401 24.5577 39.7117 24.4751 40.0833 24.4751C40.4549 24.4751 40.8264 24.5576 41.1568 24.7228L51.6028 29.6981C52.2841 30.0284 52.7796 30.6271 52.9447 31.3703L55.5252 42.5801C55.6904 43.3233 55.5252 44.0872 55.0505 44.6859L47.8249 53.6662C47.35 54.2442 46.6482 54.5951 45.905 54.5951L34.2617 54.6158H34.2614Z" fill="#326DE6"/>
<path d="M40.0612 24.9908C40.3503 24.9908 40.6393 25.0527 40.9076 25.1766L51.3537 30.1519C51.8905 30.4202 52.3033 30.9157 52.4272 31.4938L55.0077 42.7036C55.1522 43.3024 55.0077 43.9217 54.6155 44.3964L47.39 53.3768C47.0184 53.8516 46.4403 54.1199 45.8417 54.1199H34.2602C33.6614 54.1199 33.0835 53.8516 32.7119 53.3768L25.4864 44.3964C25.1148 43.9217 24.9702 43.3024 25.0942 42.7036L27.6747 31.4938C27.8192 30.8951 28.2114 30.3996 28.7481 30.1519L39.1943 25.1561C39.4627 25.0528 39.7723 24.991 40.0613 24.991L40.0612 24.9908ZM40.0612 24.0205C39.6277 24.0205 39.1942 24.1238 38.7812 24.3095L28.3353 29.3055C27.5094 29.6978 26.9315 30.4202 26.725 31.308L24.1444 42.5179C23.9381 43.4056 24.1444 44.3139 24.7225 45.0365L31.948 54.0168C32.5055 54.7186 33.3518 55.1109 34.2395 55.1109H45.8209C46.7087 55.1109 47.5551 54.7186 48.1125 54.0168L55.3381 45.0364C55.916 44.3346 56.1225 43.4056 55.916 42.5178L53.3355 31.308C53.1292 30.4202 52.551 29.6978 51.7253 29.3055L41.3205 24.3094C40.9283 24.1238 40.4948 24.0205 40.0612 24.0205Z" fill="white"/>
<path d="M50.5285 41.816C50.5079 41.816 50.5079 41.816 50.5285 41.816H50.5079C50.4873 41.816 50.4667 41.816 50.4667 41.7954C50.4254 41.7954 50.3842 41.7748 50.3428 41.7748C50.1983 41.7542 50.0744 41.7335 49.9506 41.7335C49.8886 41.7335 49.8267 41.7335 49.7441 41.7128H49.7234C49.29 41.6715 48.939 41.6303 48.6086 41.527C48.4641 41.465 48.4229 41.3825 48.3815 41.2999C48.3815 41.2793 48.3609 41.2793 48.3609 41.2587L48.0925 41.1762C48.2193 40.205 48.1704 39.219 47.948 38.2652C47.7226 37.3034 47.3314 36.3883 46.7919 35.5608L46.9984 35.375V35.3338C46.9984 35.2305 47.019 35.1273 47.1015 35.024C47.3493 34.7969 47.659 34.6112 48.0306 34.3841C48.0925 34.3428 48.1544 34.3222 48.2164 34.2808C48.3402 34.219 48.4435 34.1571 48.5674 34.0745C48.588 34.0538 48.6292 34.0332 48.6706 33.992C48.6912 33.9712 48.7119 33.9712 48.7119 33.9506C49.0008 33.7029 49.0628 33.29 48.8563 33.0215C48.7531 32.877 48.5674 32.7945 48.3815 32.7945C48.2165 32.7945 48.0719 32.8564 47.9274 32.9596L47.8861 33.0009C47.8449 33.0215 47.8241 33.0629 47.7829 33.0835C47.6796 33.1867 47.597 33.2692 47.5145 33.3725C47.4733 33.4137 47.432 33.4757 47.37 33.517C47.0809 33.8267 46.8126 34.0745 46.5442 34.2602C46.4823 34.3015 46.4204 34.3222 46.3584 34.3222C46.3172 34.3222 46.2758 34.3222 46.2346 34.3015H46.1933L45.9455 34.4667C45.6771 34.1777 45.3881 33.93 45.0991 33.6822C43.8547 32.7095 42.3571 32.1148 40.7844 31.9687L40.7638 31.7003L40.7226 31.6591C40.6606 31.5971 40.5781 31.5352 40.5573 31.3907C40.5367 31.0603 40.5781 30.6887 40.6193 30.2759V30.2552C40.6193 30.1932 40.6399 30.1107 40.6606 30.0487C40.6812 29.925 40.7018 29.801 40.7226 29.6565V29.4708C40.7226 29.0992 40.4334 28.7896 40.0826 28.7896C39.9173 28.7896 39.7522 28.872 39.6283 28.9959C39.5046 29.1198 39.4426 29.2849 39.4426 29.4708V29.6359C39.4426 29.7804 39.4632 29.9043 39.5045 30.0281C39.5251 30.0901 39.5251 30.152 39.5457 30.2346V30.2552C39.587 30.6681 39.649 31.0397 39.6077 31.3701C39.5871 31.5146 39.5045 31.5764 39.4426 31.6384L39.4014 31.6797L39.3806 31.948C39.009 31.9893 38.6374 32.0305 38.2658 32.1132C36.6762 32.4642 35.2724 33.2694 34.1783 34.4253L33.9718 34.2808H33.9306C33.8893 34.2808 33.848 34.3015 33.8067 34.3015C33.7447 34.3015 33.6828 34.2808 33.6208 34.2396C33.3525 34.0538 33.0841 33.7853 32.7951 33.4757C32.7539 33.4345 32.7126 33.3725 32.6506 33.3312C32.568 33.228 32.4854 33.1454 32.3821 33.0423C32.3615 33.0215 32.3203 33.001 32.279 32.9596C32.2584 32.939 32.2378 32.939 32.2378 32.9184C32.1099 32.8127 31.9494 32.7544 31.7835 32.7531C31.5977 32.7531 31.4119 32.8358 31.3087 32.9803C31.1022 33.2486 31.1642 33.6615 31.4532 33.9092C31.4738 33.9092 31.4738 33.93 31.4944 33.93C31.5357 33.9506 31.5564 33.9918 31.5977 34.0125C31.7215 34.095 31.8248 34.157 31.9487 34.219C32.0107 34.2396 32.0725 34.2808 32.1345 34.3222C32.506 34.5492 32.8157 34.7351 33.0635 34.9622C33.1667 35.0653 33.1667 35.1685 33.1667 35.2718V35.313L33.3731 35.4989C33.3318 35.5608 33.2906 35.6022 33.2698 35.664C32.2376 37.295 31.8454 39.2149 32.1138 41.1142L31.8454 41.1967C31.8454 41.2174 31.8248 41.2174 31.8248 41.2379C31.7835 41.3205 31.7215 41.4032 31.5977 41.465C31.2881 41.5683 30.9164 41.6097 30.483 41.6509H30.4622C30.4003 41.6509 30.3177 41.6509 30.2558 41.6715C30.132 41.6715 30.0081 41.6922 29.8636 41.7128C29.8224 41.7128 29.7811 41.7335 29.7397 41.7335C29.7191 41.7335 29.6985 41.7335 29.6777 41.7542C29.3061 41.8367 29.079 42.1876 29.141 42.5179C29.203 42.807 29.4714 42.9929 29.8016 42.9929C29.8636 42.9929 29.9049 42.9929 29.9669 42.9721C29.9875 42.9721 30.0081 42.9721 30.0081 42.9515C30.0494 42.9515 30.0906 42.9309 30.1319 42.9309C30.2765 42.8896 30.3797 42.8484 30.5036 42.7864C30.5655 42.7657 30.6273 42.7244 30.6893 42.7039H30.71C31.1022 42.5592 31.4532 42.4354 31.7835 42.3941H31.8248C31.9487 42.3941 32.0313 42.456 32.0931 42.4974C32.1138 42.4974 32.1138 42.518 32.1344 42.518L32.4235 42.4768C32.919 44.0043 33.8686 45.3669 35.1279 46.3578C35.4169 46.5848 35.7059 46.7707 36.0156 46.9566L35.8917 47.2248C35.8917 47.2456 35.9124 47.2456 35.9124 47.2661C35.9536 47.3487 35.9949 47.4519 35.9536 47.5964C35.8299 47.9062 35.644 48.2158 35.4169 48.5668V48.5874C35.3756 48.6494 35.3344 48.6906 35.2931 48.7525C35.2105 48.8557 35.1485 48.959 35.0659 49.0829C35.0453 49.1035 35.0247 49.1447 35.004 49.1861C35.004 49.2067 34.9834 49.2274 34.9834 49.2274C34.8183 49.5783 34.9422 49.9706 35.2518 50.1151C35.3343 50.1563 35.4169 50.1771 35.4995 50.1771C35.7473 50.1771 35.995 50.0118 36.1189 49.7847C36.1189 49.7641 36.1395 49.7435 36.1395 49.7435C36.1601 49.7022 36.1807 49.661 36.2014 49.6402C36.2634 49.4957 36.284 49.3925 36.3252 49.2686L36.3872 49.0829C36.5317 48.67 36.635 48.3396 36.8207 48.0507C36.9032 47.9268 37.0066 47.9062 37.0891 47.8648C37.1097 47.8648 37.1097 47.8648 37.1303 47.8442L37.2749 47.5758C38.1833 47.9268 39.1742 48.1125 40.1651 48.1125C40.7638 48.1125 41.3831 48.0506 41.9612 47.9062C42.325 47.8248 42.6835 47.7214 43.0347 47.5964L43.1585 47.8235C43.1792 47.8235 43.1792 47.8235 43.1998 47.8442C43.3031 47.8648 43.3856 47.9062 43.4682 48.03C43.6333 48.319 43.7572 48.67 43.9017 49.0622V49.0829L43.9637 49.2686C44.0049 49.3925 44.0255 49.5163 44.0874 49.6402C44.1082 49.6815 44.1288 49.7022 44.1494 49.7435C44.1494 49.7641 44.1702 49.7847 44.1702 49.7847C44.2939 50.0324 44.5416 50.1771 44.7894 50.1771C44.872 50.1771 44.9546 50.1563 45.0371 50.1151C45.1816 50.0326 45.3055 49.9086 45.3469 49.7435C45.3881 49.5783 45.3881 49.3925 45.3056 49.2274C45.3056 49.2067 45.2849 49.2067 45.2849 49.1861C45.2642 49.1449 45.2436 49.1036 45.223 49.0829C45.161 48.959 45.0785 48.8557 44.9959 48.7525C44.9546 48.6906 44.9134 48.6494 44.8721 48.5875V48.5668C44.6449 48.2158 44.4384 47.9062 44.3353 47.5964C44.294 47.4519 44.3353 47.3694 44.3559 47.2662C44.3559 47.2456 44.3765 47.2456 44.3765 47.2249L44.2733 46.9772C45.3675 46.3372 46.2964 45.4288 46.9984 44.3141C47.37 43.7359 47.659 43.096 47.8654 42.456L48.1131 42.4972C48.1339 42.4972 48.1339 42.4766 48.1544 42.4766C48.237 42.4354 48.299 42.3735 48.4229 42.3735H48.4641C48.7945 42.4148 49.1453 42.5385 49.5377 42.6831H49.5583C49.6202 42.7037 49.6821 42.745 49.7441 42.7656C49.8679 42.8276 49.9712 42.8689 50.1157 42.9102C50.1569 42.9102 50.1982 42.9309 50.2395 42.9309C50.2602 42.9309 50.2808 42.9309 50.3014 42.9515C50.3634 42.9721 50.4047 42.9721 50.4667 42.9721C50.7763 42.9721 51.0446 42.7657 51.1273 42.4974C51.1273 42.2496 50.9001 41.9193 50.5285 41.8162V41.816ZM40.9702 40.8044L40.0618 41.2381L39.1535 40.8044L38.9265 39.8342L39.5457 39.0498H40.5573L41.1767 39.8342L40.9703 40.8044H40.9702ZM46.3584 38.6575C46.5186 39.3402 46.5674 40.0442 46.5029 40.7424L43.3443 39.8342C43.0553 39.7517 42.8902 39.4626 42.9521 39.1736C42.9727 39.091 43.0141 39.0084 43.076 38.9465L45.574 36.6962C45.9248 37.2743 46.1932 37.9349 46.3584 38.6574V38.6575ZM44.583 35.4577L41.8786 37.3776C41.6515 37.5221 41.3418 37.4807 41.156 37.2537C41.0942 37.1917 41.0735 37.1091 41.0528 37.0266L40.867 33.6615C42.273 33.8234 43.5827 34.4565 44.583 35.4577ZM38.5961 33.7646C38.8233 33.7234 39.0296 33.6821 39.2567 33.6409L39.071 36.9438C39.0504 37.2328 38.8233 37.4806 38.5135 37.4806C38.431 37.4806 38.3278 37.46 38.2658 37.4187L35.5201 35.4577C36.3666 34.6112 37.4194 34.0331 38.5961 33.7647V33.7646ZM34.5292 36.6961L36.9858 38.8844C37.2129 39.0703 37.2336 39.4211 37.0478 39.6482C36.9858 39.7307 36.9033 39.7927 36.8001 39.8135L33.6002 40.7424C33.4763 39.3386 33.786 37.9142 34.5292 36.6961ZM33.9717 42.2908L37.2543 41.7333C37.5227 41.7127 37.7704 41.8985 37.8323 42.1669C37.8529 42.2906 37.8529 42.394 37.8117 42.4972L36.5523 45.5319C35.3963 44.7887 34.4673 43.6532 33.9718 42.2908H33.9717ZM41.507 46.399C41.0322 46.5022 40.5573 46.5641 40.0618 46.5641C39.3394 46.5641 38.6374 46.4403 37.9769 46.2338L39.6077 43.2817C39.7728 43.0958 40.0412 43.0134 40.2683 43.1372C40.3647 43.1963 40.4488 43.2733 40.5161 43.3642L42.1056 46.2338C41.9199 46.2957 41.7134 46.3371 41.5069 46.399H41.507ZM45.5326 43.5295C45.0165 44.3552 44.3352 45.0158 43.5508 45.5319L42.2502 42.4145C42.1882 42.1669 42.2915 41.8985 42.5392 41.7745C42.6217 41.7333 42.725 41.7127 42.8282 41.7127L46.1313 42.2701C46.0075 42.7242 45.801 43.1372 45.5326 43.5295Z" fill="white"/>
</g>
<defs>
<clipPath id="clip0_245_24907">
<rect width="32" height="31.1237" fill="white" transform="translate(24 24)"/>
</clipPath>
</defs>
</svg>
