<svg width="80" height="80" viewBox="0 0 80 80" fill="none" xmlns="http://www.w3.org/2000/svg">
<g clip-path="url(#clip0_245_24899)">
<path d="M45.2692 36.8499C44.0886 36.8499 43.2094 37.4296 43.2094 38.8247C43.2094 39.8758 43.7888 40.6056 45.2055 40.6056C46.4063 40.6056 47.222 39.8979 47.222 38.781C47.222 37.5154 46.4922 36.8499 45.2692 36.8499ZM42.9088 46.7008C42.6293 47.0436 42.3509 47.4081 42.3509 47.8378C42.3509 48.6957 43.4448 48.9539 44.9475 48.9539C46.192 48.9539 47.8875 48.8665 47.8875 47.7093C47.8875 47.0215 47.0718 46.9791 46.0412 46.9145L42.9088 46.7008ZM49.2607 36.9147C49.6463 37.4083 50.0547 38.0953 50.0547 39.0822C50.0547 41.4641 48.1877 42.8589 45.4843 42.8589C44.7969 42.8589 44.1746 42.7732 43.7888 42.6661L43.0803 43.803L45.1831 43.9317C48.896 44.1683 51.084 44.2759 51.084 47.1288C51.084 49.5972 48.9173 50.9913 45.1831 50.9913C41.2991 50.9913 39.8184 50.0041 39.8184 48.309C39.8184 47.3434 40.2476 46.8293 40.9988 46.1199C40.2904 45.8206 40.0546 45.2844 40.0546 44.7045C40.0546 44.232 40.2904 43.8032 40.6773 43.3951C41.0633 42.9879 41.4923 42.5798 42.0075 42.1077C40.9561 41.5926 40.1618 40.4767 40.1618 38.8884C40.1618 36.4211 41.7929 34.7264 45.0755 34.7264C45.9986 34.7264 46.5567 34.8112 47.0503 34.9409H51.2353V36.7643L49.2607 36.9147ZM55.0106 33.0151C53.7872 33.0151 53.0791 32.3063 53.0791 31.0827C53.0791 29.8607 53.787 29.1948 55.0106 29.1948C56.2551 29.1948 56.9635 29.8607 56.9635 31.0827C56.9635 32.3063 56.2554 33.0151 55.0106 33.0151ZM52.2419 45.9111V44.2166L53.3366 44.0669C53.6372 44.0236 53.6798 43.9595 53.6798 43.637V37.3279C53.6798 37.0925 53.6157 36.9415 53.4003 36.8778L52.2419 36.4696L52.4777 34.7319H56.9202V43.637C56.9202 43.9808 56.9409 44.0236 57.2638 44.0671L58.3582 44.2169V45.9111H52.2419ZM66.8444 45.0792C65.9213 45.5295 64.5694 45.9373 63.3458 45.9373C60.7922 45.9373 59.8269 44.9083 59.8269 42.4821V36.8605C59.8269 36.7318 59.8269 36.6459 59.6546 36.6459H58.1527V34.7355C60.0417 34.5203 60.7922 33.5762 61.0282 31.2371H63.0671V34.2851C63.0671 34.4349 63.0671 34.4997 63.239 34.4997H66.2645V36.6455H63.0671V41.774C63.0671 43.04 63.3679 43.5332 64.5262 43.5332C65.1278 43.5332 65.7494 43.3835 66.2643 43.1902L66.8444 45.079" fill="#2F2707"/>
<path d="M35.0488 39.4477L25.2369 29.6364C25.1025 29.502 24.943 29.3953 24.7674 29.3226C24.5918 29.2498 24.4036 29.2124 24.2135 29.2124C24.0235 29.2124 23.8353 29.2498 23.6597 29.3226C23.4841 29.3953 23.3245 29.502 23.1902 29.6364L21.1527 31.674L23.7373 34.2584C24.0411 34.1551 24.3678 34.1389 24.6803 34.2117C24.9929 34.2845 25.2788 34.4434 25.5056 34.6704C25.7337 34.8988 25.8929 35.1867 25.9652 35.5013C26.0374 35.8159 26.0196 36.1444 25.914 36.4494L28.4045 38.9404C29.0072 38.7328 29.7026 38.8672 30.1838 39.3492C30.3437 39.509 30.4706 39.6988 30.5572 39.9078C30.6438 40.1167 30.6883 40.3406 30.6883 40.5668C30.6883 40.7929 30.6438 41.0169 30.5572 41.2258C30.4706 41.4347 30.3437 41.6245 30.1838 41.7844C29.9023 42.0661 29.532 42.2416 29.1357 42.2809C28.7395 42.3203 28.3418 42.2211 28.0105 42.0003C27.6791 41.7794 27.4345 41.4506 27.3183 41.0697C27.2022 40.6888 27.2216 40.2795 27.3732 39.9113L25.0504 37.5885L25.0502 43.7014C25.2186 43.7847 25.3724 43.8946 25.5056 44.0271C25.6656 44.187 25.7925 44.3769 25.879 44.5858C25.9656 44.7948 26.0101 45.0187 26.0101 45.2449C26.0101 45.4711 25.9656 45.6951 25.879 45.904C25.7925 46.113 25.6656 46.3029 25.5056 46.4628C24.8327 47.1357 23.7422 47.1357 23.0704 46.4628C22.8696 46.2622 22.7216 46.0152 22.6394 45.7436C22.5572 45.472 22.5434 45.1843 22.5991 44.9061C22.6549 44.6279 22.7786 44.3678 22.9591 44.1489C23.1396 43.93 23.3715 43.7591 23.634 43.6514V37.4815C23.4228 37.3953 23.2311 37.2675 23.0704 37.1056C22.5607 36.5966 22.4382 35.8489 22.6993 35.223L20.1516 32.6749L13.424 39.4021C13.2896 39.5365 13.183 39.6961 13.1102 39.8718C13.0374 40.0474 13 40.2357 13 40.4258C13 40.6159 13.0374 40.8041 13.1102 40.9798C13.183 41.1554 13.2896 41.315 13.424 41.4494L23.2359 51.2609C23.5074 51.5323 23.8755 51.6847 24.2593 51.6847C24.6431 51.6847 25.0112 51.5323 25.2827 51.2609L35.0488 41.4952C35.3202 41.2236 35.4727 40.8554 35.4727 40.4714C35.4727 40.0875 35.3202 39.7192 35.0488 39.4477Z" fill="#DE4C36"/>
</g>
<defs>
<clipPath id="clip0_245_24899">
<rect width="54" height="22.7811" fill="white" transform="translate(13 29)"/>
</clipPath>
</defs>
</svg>
