<svg width="80" height="80" viewBox="0 0 80 80" fill="none" xmlns="http://www.w3.org/2000/svg">
<g clip-path="url(#clip0_245_24855)">
<path d="M49.241 36.9901C49.241 42.3201 45.015 46.6451 39.7992 46.6451C34.5833 46.6451 30.3574 42.3201 30.3574 36.9901C30.3574 31.6599 34.5834 27.335 39.7992 27.335C45.0151 27.335 49.2411 31.6599 49.2411 36.9901" fill="#D33833"/>
<path d="M30.7469 39.3812C30.7469 39.3812 30.0616 29.315 39.3436 29.0256L38.6963 27.9443L33.6632 29.6347L32.2241 31.2871L30.9678 33.6932L30.252 36.4953L30.4652 38.3685" fill="#EF3D3A"/>
<path d="M33.3349 30.4036C31.6826 32.1016 30.6546 34.4393 30.6546 37.0282C30.6546 39.617 31.6826 41.9546 33.3349 43.6526C34.9948 45.3506 37.2716 46.3938 39.7995 46.3938C42.3275 46.3938 44.6042 45.3506 46.2641 43.6527C47.9165 41.9546 48.9444 39.617 48.9444 37.0282C48.9444 34.4392 47.9165 32.1016 46.2641 30.4036C44.6043 28.7132 42.3275 27.6625 39.7995 27.6625C37.2792 27.6625 34.9949 28.7056 33.3349 30.4036ZM32.9161 44.0562C31.1573 42.2592 30.0684 39.7694 30.0684 37.0282C30.0684 34.287 31.1573 31.7971 32.9161 29.9925C34.6751 28.1955 37.1117 27.0762 39.7996 27.0762C42.4874 27.0762 44.924 28.1955 46.683 29.9925C48.4418 31.7895 49.5307 34.2793 49.5307 37.0282C49.5307 39.7693 48.4418 42.2592 46.683 44.0562C44.924 45.8608 42.4874 46.9725 39.7995 46.9725C37.1117 46.9725 34.6751 45.8608 32.9161 44.0562Z" fill="#231F20"/>
<path d="M43.7752 37.0434L42.336 37.2566L40.3944 37.4775L39.138 37.5079L37.9121 37.4699L36.9755 37.1806L36.1455 36.282L35.4983 34.4469L35.3537 34.0509L34.4933 33.7616L33.9906 32.9317L33.6328 31.7438L34.0288 30.7007L34.9654 30.3732L35.7192 30.7312L36.077 31.5231L36.511 31.4545L36.6557 31.2718L36.511 30.4418L36.473 29.3986L36.6862 27.9595L36.6786 27.1372L37.3334 26.0864L38.4832 25.2564L40.4934 24.396L42.7244 24.7234L44.6661 26.1245L45.5646 27.5635L46.1432 28.6067L46.2879 31.1956L45.8539 33.4266L45.062 35.4064L44.3158 36.4648" fill="#F0D6B7"/>
<path d="M42.5562 43.2643L37.4165 43.4775V44.3379L37.8505 47.3609L37.6373 47.6121L34.0433 46.3862L33.7921 45.9522L33.4342 41.8861L32.589 39.4495L32.4062 38.8708L35.2845 36.8911L36.183 36.5332L36.9749 37.5078L37.6602 38.117L38.4521 38.3683L38.8099 38.4749L39.244 40.348L39.5714 40.744L40.4013 40.4546L39.8227 41.5739L42.9445 43.0511L42.5562 43.2643" fill="#335061"/>
<path d="M34.0275 30.716L34.9641 30.3886L35.7179 30.7465L36.0757 31.5384L36.5097 31.4699L36.6164 31.0359L36.4031 30.2059L36.6163 28.2262L36.4336 27.1449L37.0808 26.3911L38.4818 25.2794L38.0859 24.7388L36.1062 25.7133L35.2762 26.3606L34.8117 27.3657L34.096 28.3403L33.8828 29.4901L34.0275 30.716Z" fill="#6D6B6D"/>
<path d="M35.5047 27.3352C35.5047 27.3352 36.0452 26.0027 38.2001 25.3555C40.3549 24.7083 38.3068 24.891 38.3068 24.891L35.969 25.7895L35.0706 26.688L34.6747 27.4037L35.5047 27.3352ZM34.4234 30.4647C34.4234 30.4647 33.6696 27.9443 36.5478 27.5865L36.4412 27.1525L34.4615 27.617L33.8828 29.4902L34.0275 30.716L34.4234 30.4647Z" fill="#DCD9D8"/>
<path d="M35.5737 33.8075L36.0457 33.3506C36.0457 33.3506 36.2589 33.3734 36.297 33.6247C36.3351 33.876 36.4417 36.1451 37.9874 37.3634C38.1321 37.4776 36.8376 37.1806 36.8376 37.1806L35.6878 35.3836M42.1905 33.1221C42.1905 33.1221 42.2743 32.0333 42.5712 32.1171C42.8682 32.2008 42.8682 32.4977 42.8682 32.4977C42.8682 32.4977 42.1525 32.9546 42.1905 33.1221ZM45.1754 29.1322C45.1754 29.1322 44.5814 29.254 44.5281 29.7794C44.4748 30.3048 45.1754 29.886 45.2819 29.848M40.8276 29.1703C40.8276 29.1703 40.0356 29.2769 40.0356 29.7794C40.0356 30.2819 40.9342 30.2439 41.1854 30.0307M35.9391 31.5079C35.9391 31.5079 34.5762 30.6779 34.4316 31.4698C34.2869 32.2617 33.9671 32.8327 34.6447 33.6627L34.1802 33.5181L33.7463 32.4064L33.6016 31.3251L34.4316 30.4647L35.3681 30.5332L35.9087 30.9673L35.9392 31.5079M36.5864 29.2388C36.5864 29.2388 37.1955 26.0712 40.287 25.4621C42.8301 24.9595 44.1702 25.5687 44.6728 26.1473C44.6728 26.1473 42.4037 23.4519 40.2488 24.2742C38.094 25.1042 36.5102 26.6118 36.5482 27.5789C36.6092 29.2387 36.5863 29.2387 36.5863 29.2387M44.924 26.5052C44.924 26.5052 43.8809 26.4672 43.8428 27.4037C43.8428 27.4037 43.8428 27.5484 43.9114 27.6931C43.9114 27.6931 44.7413 26.7565 45.2439 27.259" fill="#F7E4CD"/>
<path d="M40.3636 27.792C40.3636 27.792 40.1809 26.3605 38.9626 27.1905C38.1706 27.7311 38.2468 28.4849 38.3839 28.6296C38.5285 28.7743 38.4905 29.0636 38.5971 28.8657C38.7037 28.6677 38.6732 28.0205 39.0692 27.8377C39.4575 27.655 40.1123 27.457 40.3636 27.792Z" fill="#F7E4CD"/>
<path d="M36.9828 37.5081L33.6019 39.0157C33.6019 39.0157 35.003 44.5894 34.2872 46.3179L33.7847 46.1352L33.7466 44.0107L32.81 39.9904L32.4141 38.8786L35.9395 36.5029L36.9827 37.5081M37.3254 40.5919L37.8051 41.1782V43.333H37.2341C37.2341 43.333 37.1656 41.8254 37.1656 41.6427C37.1656 41.4599 37.2341 40.8127 37.2341 40.8127M37.3407 43.6605L35.7188 43.729L36.1833 44.0565L37.333 44.2393" fill="#49728B"/>
<path d="M42.877 43.3022L44.2094 43.2642L44.5369 46.5688L43.1739 46.7515L42.877 43.3021" fill="#335061"/>
<path d="M43.2344 43.3026L45.2445 43.196C45.2445 43.196 46.0745 41.1097 46.0745 41.0031C46.0745 40.8964 46.7903 37.9802 46.7903 37.9802L45.1684 36.2898L44.841 36.0005L43.9806 36.8609V40.2036L43.2344 43.3026Z" fill="#335061"/>
<path d="M44.1333 43.051L42.877 43.3024L43.0597 44.3075C43.5242 44.5207 44.3161 43.9496 44.3161 43.9496M44.1714 36.754L46.6918 38.6271L46.7603 37.7667L44.8567 36.0078L44.1715 36.754" fill="#49728B"/>
<path d="M38.5884 50.3839L37.8422 47.361L37.4691 45.13L37.4082 43.4776L40.7813 43.2949H42.8753L42.685 47.0716L43.0123 49.9879L42.9743 50.5285L40.2407 50.7418L38.5884 50.3839Z" fill="white"/>
<path d="M42.4109 43.2645C42.4109 43.2645 42.2282 47.0032 42.7688 49.6682C42.7688 49.6682 41.6875 50.3535 40.1113 50.5286L43.1343 50.422L43.4921 50.2088L43.0582 44.3153L42.9439 43.0513" fill="#DCD9D8"/>
<path d="M44.5898 46.2871L45.9908 45.8911L48.6482 45.7465L49.0442 44.5206L48.3284 42.3961L47.4985 42.2896L46.3487 42.6475L45.2522 43.1881L44.6659 43.0814L44.209 43.2642" fill="white"/>
<path d="M44.5664 45.5638C44.5664 45.5638 45.503 45.1298 45.6477 45.1679L45.2517 43.1882L45.7162 43.0054C45.7162 43.0054 46.0436 44.8786 46.0436 45.0917C46.0436 45.0917 48.0538 45.1983 48.2365 45.1983C48.2365 45.1983 48.6705 44.3683 48.564 43.5079L48.9599 44.6577L48.998 45.3049L48.4193 46.1653L47.7721 46.31L46.6908 46.272L46.3329 45.8075L45.0766 45.9902L44.6806 46.1349" fill="#DCD9D8"/>
<path d="M43.1512 43.0131L42.3592 41.0029L41.5293 39.815C41.5293 39.815 41.7121 39.3125 41.9633 39.3125H42.7933L43.5853 39.6018L43.5167 40.9344L43.1512 43.0131Z" fill="white"/>
<path d="M43.3097 42.328C43.3097 42.328 42.3045 40.3864 42.3045 40.097C42.3045 40.097 42.4873 39.663 42.7386 39.7696C42.9899 39.8762 43.5305 40.1656 43.5305 40.1656V39.4802L42.3045 39.229L41.4746 39.3356L42.8756 42.6555L43.1649 42.6935" fill="#DCD9D8"/>
<path d="M38.9087 37.584L37.9112 37.4773L36.9746 37.188V37.5154L37.4314 38.018L38.8706 38.6652" fill="white"/>
<path d="M37.3021 37.6904C37.3021 37.6904 38.4138 38.1549 38.7793 38.0483L38.8173 38.4824L37.8123 38.2691L37.2031 37.8351L37.3021 37.6904Z" fill="#DCD9D8"/>
<path d="M44.5902 39.4344C43.9811 39.4191 43.4252 39.343 42.9455 39.2059C42.976 39.0079 42.915 38.8176 42.9684 38.6729C43.1054 38.5739 43.3262 38.5739 43.5318 38.5511C43.3567 38.4673 43.1054 38.4293 42.9074 38.4826C42.8998 38.3455 42.8389 38.2617 42.8008 38.1551C43.1435 38.0333 43.9506 37.2338 44.4075 37.4927C44.6283 37.6221 44.7197 38.3379 44.7349 38.6958C44.7501 38.9851 44.7044 39.2745 44.5902 39.4344Z" fill="#D33833"/>
<path d="M44.5902 39.4344C43.9811 39.4191 43.4252 39.343 42.9455 39.2059C42.976 39.0079 42.915 38.8176 42.9684 38.6729C43.1054 38.5739 43.3262 38.5739 43.5318 38.5511C43.3567 38.4673 43.1054 38.4293 42.9074 38.4826C42.8998 38.3455 42.8389 38.2617 42.8008 38.1551C43.1435 38.0333 43.9506 37.2338 44.4075 37.4927C44.6283 37.6221 44.7197 38.3379 44.7349 38.6958C44.7501 38.9851 44.7044 39.2745 44.5902 39.4344Z" fill="black" stroke="#D33833" stroke-width="0.623501"/>
<path d="M41.6728 38.437C41.6728 38.4827 41.6728 38.5283 41.6651 38.5741C41.4748 38.6959 41.1701 38.6959 40.9569 38.8025C41.2616 38.8177 41.5052 38.8938 41.7184 38.9928C41.7107 39.1071 41.7107 39.2289 41.7032 39.3431C41.3529 39.5792 41.0331 39.9371 40.622 40.1655C40.424 40.2721 39.7463 40.5462 39.5407 40.4929C39.4265 40.4624 39.4113 40.3178 39.3656 40.1807C39.2666 39.8914 39.0382 39.4193 39.0153 38.9776C38.9924 38.4218 38.9316 37.4852 39.5331 37.5994C40.0203 37.6908 40.5838 37.9116 40.9569 38.1172C41.193 38.2543 41.3225 38.4065 41.6728 38.437Z" fill="#D33833"/>
<path d="M41.6728 38.437C41.6728 38.4827 41.6728 38.5283 41.6651 38.5741C41.4748 38.6959 41.1701 38.6959 40.9569 38.8025C41.2616 38.8177 41.5052 38.8938 41.7184 38.9928C41.7107 39.1071 41.7107 39.2289 41.7032 39.3431C41.3529 39.5792 41.0331 39.9371 40.622 40.1655C40.424 40.2721 39.7463 40.5462 39.5407 40.4929C39.4265 40.4624 39.4113 40.3178 39.3656 40.1807C39.2666 39.8914 39.0382 39.4193 39.0153 38.9776C38.9924 38.4218 38.9316 37.4852 39.5331 37.5994C40.0203 37.6908 40.5838 37.9116 40.9569 38.1172C41.193 38.2543 41.3225 38.4065 41.6728 38.437Z" fill="black" stroke="#D33833" stroke-width="0.623501"/>
<path d="M42.0163 39.0991C41.9629 38.7945 41.902 38.7108 41.9249 38.4442C42.7396 37.9036 42.8843 39.3732 42.0162 39.0991" fill="#D33833"/>
<path d="M42.0163 39.0991C41.9629 38.7945 41.902 38.7108 41.9249 38.4442C42.7396 37.9036 42.8843 39.3732 42.0162 39.0991H42.0163Z" fill="black" stroke="#D33833" stroke-width="0.623501"/>
<path d="M43.1876 39.3432C43.1876 39.3432 42.9363 38.9852 43.1191 38.8787C43.3018 38.7721 43.477 38.8787 43.5836 38.6959C43.6902 38.5132 43.5836 38.4066 43.6216 38.1934C43.6597 37.9802 43.8348 37.9421 44.0176 37.9041C44.2003 37.8659 44.7029 37.7974 44.7714 37.9726L44.5582 37.3253L44.1242 37.1807L42.7612 37.9726L42.6927 38.3686V39.1604M39.4109 40.531C39.3652 39.9675 39.3196 39.4117 39.2738 38.8482C39.1977 38.0107 39.4718 38.1552 40.2028 38.1552C40.317 38.1552 40.888 38.2848 40.9262 38.3686C41.1242 38.7721 40.5987 38.6807 41.1545 38.9852C41.619 39.2366 42.449 38.833 42.2587 38.2619C42.152 38.1325 41.7104 38.2238 41.5505 38.1401L40.7053 37.7061C40.3475 37.5233 39.5251 37.2492 39.1444 37.5081C38.1773 38.1629 39.2053 39.8077 39.5479 40.4929" fill="#EF3D3A"/>
<path d="M40.364 27.7922C39.3817 27.5637 38.8945 28.2034 38.5975 28.8658C38.331 28.8049 38.4375 28.4394 38.5062 28.2567C38.6812 27.777 39.3894 27.1297 39.968 27.2211C40.2117 27.2516 40.5467 27.48 40.364 27.7922ZM45.1382 28.9038H45.1839C45.4047 29.3607 45.595 29.8481 45.8768 30.2593C45.6865 30.7009 44.4605 31.0816 44.4757 30.3049C44.7422 30.1907 45.1991 30.2821 45.4352 30.1298C45.2981 29.7567 45.1077 29.4369 45.1382 28.9039M40.859 28.9192C41.0721 29.3075 41.1406 29.711 41.4376 30.0004C41.5747 30.1298 41.8335 30.2897 41.7042 30.6552C41.6737 30.739 41.4528 30.9294 41.3234 30.9674C40.859 31.1045 39.77 30.9979 40.1355 30.4115C40.5238 30.4268 41.0417 30.6628 41.3311 30.3811C41.1102 30.0308 40.7142 29.3303 40.859 28.9192ZM44.9631 32.8329C44.2625 33.2822 43.4782 33.7771 42.3209 33.6629C42.0773 33.4497 41.9783 32.9699 42.2219 32.6578C42.3437 32.871 42.2676 33.267 42.6179 33.3278C43.2727 33.4421 44.0341 32.9242 44.5062 32.7492C44.7955 32.2542 44.4834 32.0791 44.2169 31.7593C43.6763 31.1121 42.9605 30.3049 42.9833 29.3379C43.2042 29.178 43.2194 29.5816 43.2498 29.6501C43.5315 30.3049 44.2398 31.1501 44.7498 31.7136C44.8793 31.8507 45.0849 31.9877 45.1077 32.0791C45.1763 32.338 44.9326 32.6577 44.9631 32.8329M35.6887 32.3608C35.4679 32.2314 35.4147 31.6832 35.1557 31.6679C34.7826 31.6451 34.8512 32.3837 34.8512 32.8177C34.5999 32.5893 34.5542 31.8735 34.737 31.508C34.5238 31.4014 34.4323 31.6222 34.3105 31.6983C34.4705 30.5943 35.9324 31.1882 35.6888 32.3608M45.4047 33.2974C45.0773 33.9218 44.6128 34.607 43.6534 34.6299C43.6305 34.4319 43.6153 34.1198 43.6534 33.9979C44.392 33.9218 44.8488 33.5487 45.4047 33.2974ZM40.8056 33.7009C41.4148 34.0208 42.5417 34.0588 43.3793 34.036C43.4249 34.2188 43.4249 34.4471 43.4249 34.668C42.3514 34.7136 41.0873 34.4471 40.8056 33.7009ZM40.6914 34.2949C41.1178 35.3609 42.5721 35.2391 43.798 35.2086C43.7448 35.3457 43.6305 35.5132 43.4783 35.5664C43.0823 35.7264 42.0011 35.8482 41.4528 35.5588C41.1102 35.3761 40.8818 34.9573 40.6914 34.7136C40.6076 34.5995 40.1508 34.3025 40.6914 34.2949Z" fill="#231F20"/>
<path d="M44.9085 40.1652C44.4136 41.018 43.9339 41.8937 43.3477 42.6399C43.5912 41.9166 43.6978 40.6983 43.736 39.7694C44.2537 39.5256 44.6953 39.8226 44.9085 40.1653" fill="#81B0C4"/>
<path d="M47.5823 43.2266C47.0264 43.3407 46.6381 43.8814 46.0898 43.8433C46.3944 43.4245 46.9122 43.2418 47.5823 43.2266ZM47.8259 44.0946C47.3691 44.1403 46.836 44.2164 46.3792 44.1784C46.6 43.8433 47.4376 43.9651 47.8259 44.0946ZM47.9858 44.8484C47.4757 44.856 46.8436 44.8484 46.3564 44.8103C46.6457 44.4981 47.6584 44.6961 47.9858 44.8484Z" fill="#231F20"/>
<path d="M43.949 46.904C44.0251 47.5436 44.2764 48.1909 44.246 48.8913C43.9642 48.9827 43.8044 49.0665 43.4236 49.0665C43.4008 48.4725 43.317 47.5589 43.3399 46.9878C43.5226 47.003 43.7967 46.8583 43.949 46.904Z" fill="#DCD9D8"/>
<path d="M43.1266 37.4625C42.8677 37.6299 42.6545 37.8355 42.4032 38.0183C41.855 38.0488 41.558 37.9802 41.1621 37.6681C41.1697 37.6452 41.2078 37.6528 41.2078 37.6223C41.7941 37.8812 42.5403 37.5157 43.1266 37.4624" fill="#F0D6B7"/>
<path d="M40.0664 41.4445C40.2263 40.7515 40.8583 40.3861 41.4294 40.0054C42.0156 40.7516 42.3736 41.711 42.7695 42.6399C41.8329 42.3582 40.8811 41.9089 40.0664 41.4445Z" fill="#81B0C4"/>
<path d="M43.3409 46.9957C43.318 47.5667 43.3941 48.4729 43.4246 49.0743C43.8054 49.0743 43.9652 48.9906 44.247 48.8992C44.2775 48.1987 44.0262 47.5515 43.95 46.9119C43.7977 46.8586 43.5236 47.0032 43.3409 46.9957ZM37.4626 43.7672C37.7139 46.0591 38.0717 47.9778 38.7341 50.0109C40.2037 50.4602 41.9703 50.4982 43.2724 50.0947C43.0363 48.9526 43.1353 47.5591 42.9983 46.3332C42.8916 45.4118 42.9449 44.4905 42.8003 43.5539C41.2241 43.2266 39.0007 43.4778 37.4626 43.7672ZM43.1734 43.5692C43.1581 44.5514 43.219 45.526 43.2952 46.5083C43.6759 46.455 43.9272 46.417 44.2775 46.3332C44.1632 45.389 44.1785 44.3154 43.9424 43.4778C43.6759 43.4855 43.4398 43.4778 43.1734 43.5691V43.5692ZM45.0845 43.4093C44.9018 43.3712 44.6962 43.4093 44.5287 43.4093C44.6125 44.2088 44.8028 45.0921 44.8714 45.9373C45.1379 45.9449 45.2825 45.8154 45.5034 45.7773C45.5186 45.0387 45.4425 44.0184 45.0845 43.4093ZM47.9857 46.0591C48.5491 45.922 48.8994 45.2367 48.7395 44.5286C48.6329 44.0565 48.4501 43.158 48.2445 42.8534C48.0998 42.6326 47.6963 42.3356 47.3689 42.5412C46.8435 42.8762 45.9221 42.9752 45.5414 43.3788C45.7318 44.0184 45.7927 44.8865 45.8688 45.6936C46.5237 45.7317 47.3232 45.5109 47.8715 45.7469C47.4907 45.8687 47.0034 45.8687 46.676 46.0515C46.9501 46.1809 47.5745 46.1581 47.9857 46.0591V46.0591ZM42.7622 42.6402C42.3662 41.7113 42.0084 40.7519 41.422 40.0057C40.851 40.3863 40.2266 40.7519 40.0591 41.4448C40.8814 41.9093 41.8333 42.3585 42.7622 42.6402ZM43.7368 39.7696C43.6987 40.6986 43.5921 41.9169 43.3485 42.6402C43.9348 41.8864 44.4145 41.0183 44.9094 40.1655C44.6962 39.8229 44.2546 39.5259 43.7369 39.7696L43.7368 39.7696ZM42.6327 39.3813C42.4119 39.3584 42.2216 39.6402 41.9322 39.5183C41.8637 39.5944 41.8027 39.6706 41.7342 39.7468C42.3738 40.5234 42.6708 41.62 43.1658 42.526C43.4323 41.6504 43.4018 40.6986 43.4628 39.7468C43.0972 39.762 42.8917 39.4041 42.6327 39.3813V39.3813ZM41.9246 38.4447C41.9017 38.7112 41.9627 38.795 42.0159 39.0996C42.884 39.3737 42.7393 37.904 41.9246 38.4447ZM40.9575 38.1249C40.5844 37.9192 40.021 37.6985 39.5337 37.6071C38.9322 37.4929 38.993 38.4295 39.0159 38.9854C39.0388 39.4269 39.2672 39.8914 39.3662 40.1884C39.4119 40.3255 39.4271 40.4701 39.5413 40.5006C39.7469 40.5463 40.4322 40.2798 40.6226 40.1731C41.0337 39.9524 41.3535 39.5945 41.7038 39.3508C41.7114 39.2366 41.7114 39.1147 41.719 39.0006C41.5058 38.8939 41.2698 38.8254 40.9575 38.8102C41.1632 38.7036 41.4754 38.7036 41.6657 38.5818C41.6657 38.5361 41.6657 38.4904 41.6734 38.4447C41.3231 38.4066 41.1936 38.2544 40.9575 38.1249ZM37.3788 37.4777C37.0667 37.7975 38.2544 38.2239 38.6276 38.2468C38.6276 38.0488 38.7418 37.8585 38.7189 37.7137C38.2697 37.6376 37.6834 37.6909 37.3788 37.4777ZM41.2165 37.6223C41.2165 37.6528 41.1784 37.6452 41.1708 37.6681C41.5744 37.9802 41.8713 38.0487 42.4119 38.0183C42.6556 37.8432 42.8764 37.63 43.1353 37.4624C42.5414 37.5157 41.7951 37.8813 41.2165 37.6223H41.2165ZM44.7343 38.6884C44.7191 38.3381 44.6276 37.6147 44.4069 37.4853C43.95 37.2188 43.1429 38.0259 42.8003 38.1478C42.8383 38.2544 42.8993 38.3381 42.9069 38.4751C43.1125 38.4219 43.3561 38.4599 43.5312 38.5437C43.3256 38.5665 43.1048 38.5665 42.9678 38.6655C42.9221 38.8102 42.983 39.0006 42.9449 39.1985C43.4246 39.3356 43.9805 39.4041 44.5897 39.4269C44.7038 39.2747 44.7495 38.9853 44.7343 38.6884ZM36.8534 37.7823C36.7544 37.7137 36.092 36.8533 36.0006 36.8913C34.8052 37.3635 33.6859 38.1782 32.6883 38.9548C33.6401 41.0031 34.0285 43.5083 34.097 45.922C35.186 46.4322 36.1453 47.1708 37.6301 47.2469C37.455 46.0363 37.3027 44.9473 37.2037 43.8052C36.8306 43.6453 36.2976 43.8128 35.9474 43.7595C35.9474 43.3407 36.4803 43.5768 36.526 43.2951C36.5565 43.0818 36.229 43.0666 36.3357 42.7316C36.6098 42.8306 36.7544 43.0514 37.0438 43.1352C37.3103 42.5565 37.0438 41.5286 37.0819 41.0412C37.0895 40.9499 37.1275 40.5386 37.3331 40.6072C37.5159 40.6681 37.3255 41.7113 37.3408 42.1681C37.356 42.5945 37.2874 42.9981 37.4626 43.2646C38.8941 43.0666 40.3485 42.9448 41.9017 42.8991C41.5591 42.7545 41.1555 42.6174 40.7139 42.3661C40.4703 42.229 39.7165 41.9473 39.6479 41.7189C39.5337 41.3534 39.9372 41.1631 40.0058 40.8508C39.2824 41.2468 39.1454 40.4702 38.9702 39.9295C38.8179 39.4345 38.7266 39.0615 38.6885 38.7797C38.0565 38.4599 37.3864 38.163 36.8534 37.7823ZM44.1023 36.9903C45.0998 36.5107 45.2825 38.795 44.8866 39.5336C44.9475 39.7544 45.1531 39.8382 45.2369 40.0361C44.681 41.0336 44.0643 41.9625 43.4931 42.9448C43.912 42.6783 44.5211 42.8991 45.016 42.7011C45.1988 42.6326 45.3283 42.2138 45.4653 41.8788C45.8459 40.9651 46.2419 39.8076 46.4171 38.9397C46.4552 38.7417 46.5694 38.3076 46.5389 38.1325C46.4932 37.8127 46.0668 37.5767 45.8459 37.3863C45.4425 37.0208 45.1911 36.7087 44.7647 36.366C44.6049 36.6173 44.2393 36.7847 44.1023 36.9904V36.9903ZM34.5767 28.15C34.1046 28.6755 34.2036 29.6501 34.257 30.3506C35.1174 29.81 36.2519 30.3963 36.2443 31.31C36.6554 31.3024 36.3966 30.7999 36.3205 30.4724C36.0767 29.4141 36.7316 28.2719 36.3508 27.3049C35.6123 27.3658 35.0108 27.6627 34.5767 28.1501V28.15ZM37.9727 25.1119C36.8991 25.4165 35.5209 26.2008 35.0793 27.1678C35.4219 27.1145 35.658 26.947 35.993 26.9241C36.1225 26.9165 36.29 26.9775 36.4346 26.9394C36.724 26.8633 36.9753 26.2084 37.196 25.9647C37.4093 25.7287 37.6681 25.6221 37.8433 25.4089C37.9575 25.3556 38.125 25.3556 38.1326 25.1881C38.087 25.1347 38.0336 25.0968 37.9727 25.1119ZM43.5693 25.4013C42.45 24.7693 40.5617 24.2972 39.3738 24.8911C38.4144 25.3708 37.12 26.1627 36.6783 27.1603C37.0895 28.1272 36.5565 29.0104 36.5184 29.9927C36.5032 30.5181 36.7621 30.9674 36.7849 31.5385C36.6402 31.7745 36.2138 31.7973 35.9169 31.7821C35.8179 31.2795 35.6428 30.7161 35.1249 30.6552C34.394 30.5714 33.8534 31.1806 33.8229 31.8126C33.7849 32.5588 34.394 33.7923 35.262 33.7086C35.597 33.6781 35.6808 33.3431 36.0463 33.3431C36.2443 33.7391 35.7418 33.8608 35.6884 34.1425C35.6732 34.2188 35.7265 34.5005 35.7646 34.6375C35.9245 35.2847 36.2747 36.1299 36.6174 36.6249C37.059 37.2568 37.9195 37.3482 38.8484 37.4092C39.0159 37.0512 39.6251 37.0817 40.0209 37.1731C39.5413 36.9828 39.0997 36.5259 38.7342 36.1223C38.3154 35.6578 37.889 35.1629 37.8661 34.5538C38.6657 35.6578 39.3205 36.6249 40.7672 37.1123C41.8637 37.4777 43.1429 36.9447 43.9881 36.3508C44.3383 36.1071 44.5439 35.7112 44.7952 35.3608C45.7242 34.0208 46.1582 32.1171 46.0668 30.2669C46.0287 29.5055 46.0287 28.744 45.7698 28.2338C45.5034 27.7008 44.5973 27.2135 44.0642 27.7008C43.9652 27.1755 44.5059 26.8556 45.1378 27.046C44.6887 26.4597 44.2166 25.7668 43.5693 25.4013ZM45.6556 42.6174C46.5313 42.1834 48.1608 41.4524 48.7014 42.6174C48.9071 43.0514 49.143 43.7748 49.242 44.224C49.3867 44.8484 49.0821 46.1733 48.4349 46.3788C47.8638 46.5616 47.2014 46.554 46.5161 46.417C46.4323 46.3484 46.3486 46.2342 46.2801 46.1123C45.7928 46.0971 45.3283 46.1353 44.9475 46.3408C44.9856 46.7063 44.7419 46.7596 44.5059 46.8358C44.3383 47.5134 44.8485 48.3967 44.7267 49.0058C44.6429 49.4474 44.1023 49.516 43.7064 49.5921C43.6911 49.8358 43.7216 50.0414 43.7521 50.247C43.6607 50.582 43.2571 50.7723 42.8688 50.8181C41.5972 50.9703 39.6708 51.0389 38.4525 50.5972C38.1098 49.7597 37.8433 48.747 37.5616 47.7952C36.3737 47.9246 35.4067 47.285 34.5006 46.8586C34.1884 46.7139 33.7544 46.6301 33.6325 46.3789C33.5184 46.1353 33.564 45.6708 33.5335 45.2367C33.465 44.1174 33.3965 43.0362 33.1072 41.894C32.9777 41.3762 32.7417 40.927 32.5818 40.4321C32.4295 39.9752 32.1706 39.4041 32.1021 38.9472C32.0031 38.2696 32.6427 38.2315 33.0463 37.9345C33.6783 37.4777 34.1732 37.2264 34.8584 36.8152C35.0641 36.6934 35.6732 36.3888 35.7417 36.2441C35.8788 35.9625 35.5057 35.5665 35.4067 35.3457C35.2468 34.9954 35.163 34.6984 35.1402 34.3557C34.5691 34.2644 34.1275 33.9218 33.8687 33.5411C33.4346 32.9015 33.13 31.7212 33.5108 30.8304C33.5412 30.7618 33.6859 30.6171 33.7087 30.5105C33.7544 30.2973 33.6249 30.0155 33.6173 29.7872C33.5793 28.6221 33.8153 27.617 34.5996 27.2668C34.9194 25.9952 36.0615 25.5764 37.1352 24.9444C37.5388 24.7084 37.9804 24.5561 38.4372 24.3885C40.0743 23.7871 42.5947 23.9012 43.9576 24.9292C44.5363 25.3632 45.4576 26.2845 45.7851 26.9546C46.6607 28.7135 46.5922 31.6603 45.9831 33.8076C45.8993 34.0969 45.7851 34.5156 45.6176 34.866C45.5034 35.1096 45.1455 35.5893 45.1835 35.8025C45.2293 36.0233 46.0059 36.6096 46.1735 36.7695C46.4704 37.0588 47.0415 37.4396 47.0871 37.8051C47.1405 38.1934 46.9197 38.7265 46.8055 39.0996C46.4399 40.3483 46.0745 41.4981 45.6556 42.6174Z" fill="#231F20"/>
<path d="M39.8296 33.9673C39.8752 33.9063 40.1341 33.8074 40.4996 33.9825C40.4996 33.9825 40.0655 34.0511 40.1036 34.7745L39.9209 34.7363C39.9286 34.744 39.7382 34.0891 39.8296 33.9673Z" fill="#F7E4CD"/>
<path d="M42.9819 40.1501C42.9819 40.2567 42.8906 40.3481 42.7839 40.3481C42.6773 40.3481 42.5859 40.2567 42.5859 40.1501C42.5859 40.0435 42.6773 39.9521 42.7839 39.9521C42.8982 39.9521 42.9819 40.0435 42.9819 40.1501ZM43.1799 41.0715C43.1799 41.1781 43.0886 41.2694 42.9819 41.2694C42.8753 41.2694 42.7839 41.1781 42.7839 41.0715C42.7839 40.9648 42.8753 40.8735 42.9819 40.8735C43.0962 40.8735 43.1799 40.9573 43.1799 41.0715Z" fill="#1D1919"/>
<path d="M32.8098 52.7213C32.7488 52.729 32.6955 52.7366 32.6498 52.7442C32.6042 52.7519 32.5585 52.7594 32.4975 52.7746C32.429 52.7898 32.3909 52.8203 32.3757 52.866C32.3605 52.9117 32.3453 52.9574 32.3453 53.0183V54.8761C32.3452 55.0395 32.3088 55.2008 32.2386 55.3483C32.1701 55.493 32.0787 55.6071 31.957 55.7061C31.8351 55.7975 31.698 55.8737 31.5457 55.9194C31.3935 55.9651 31.2335 55.9955 31.0661 55.9955C30.7691 55.9955 30.533 55.927 30.3503 55.7823C30.1676 55.6376 30.0762 55.4473 30.0762 55.1961C30.0762 55.0513 30.1142 54.9295 30.198 54.8305C30.2818 54.7315 30.396 54.6858 30.5407 54.6858C30.6777 54.6858 30.7843 54.7239 30.868 54.8077C30.9518 54.8914 30.9899 54.9904 30.9899 55.1047C30.9899 55.2037 30.9518 55.3026 30.8832 55.3863C30.8148 55.4701 30.731 55.5539 30.6397 55.6224V55.6529C30.6549 55.6833 30.6853 55.7138 30.731 55.7366C30.7767 55.7595 30.83 55.7671 30.8757 55.7671C31.066 55.7671 31.2183 55.6985 31.3249 55.5615C31.4315 55.4244 31.4849 55.2188 31.4849 54.9447V53.0412C31.4849 52.9878 31.4772 52.9345 31.462 52.8964C31.4467 52.8584 31.4011 52.8279 31.3325 52.7974C31.2869 52.7746 31.2259 52.7594 31.1574 52.7442C31.0889 52.7289 31.0356 52.7213 30.9899 52.7137V52.531H32.7869V52.7213H32.8098ZM35.6271 55.3407C35.5737 55.432 35.5052 55.5158 35.4291 55.5995C35.3529 55.6833 35.2616 55.7442 35.1626 55.8052C35.056 55.8661 34.9494 55.9117 34.8428 55.9422C34.7361 55.9726 34.6067 55.9879 34.4697 55.9879C34.2336 55.9879 34.0357 55.9575 33.8605 55.8889C33.693 55.8204 33.5484 55.7366 33.4417 55.6224C33.3275 55.5082 33.2514 55.3788 33.1905 55.2264C33.1349 55.0673 33.1066 54.9 33.1067 54.7315C33.1067 54.5716 33.1371 54.4117 33.1981 54.2671C33.259 54.1224 33.3427 53.9854 33.4494 53.8711C33.556 53.7569 33.693 53.6655 33.8605 53.597C34.0345 53.5259 34.2208 53.4896 34.4088 53.4903C34.6295 53.4903 34.8123 53.5209 34.957 53.5741C35.1016 53.6274 35.2159 53.7036 35.3072 53.795C35.3986 53.8863 35.4595 53.9929 35.5052 54.1147C35.5433 54.2366 35.5661 54.366 35.5661 54.503V54.6554H33.9595C33.9595 54.9828 34.0204 55.2264 34.1498 55.394C34.2717 55.5615 34.4773 55.6453 34.7438 55.6453C34.896 55.6453 35.0255 55.6071 35.1474 55.5234C35.269 55.4411 35.3726 55.3349 35.4519 55.2112L35.6271 55.3407ZM34.7209 54.4346C34.7209 54.3433 34.7133 54.2443 34.7057 54.1453C34.6981 54.0463 34.6829 53.9625 34.6524 53.9016C34.6219 53.8254 34.5915 53.7721 34.5382 53.734C34.4925 53.696 34.4315 53.6808 34.3631 53.6808C34.2412 53.6808 34.1422 53.7416 34.0737 53.8634C33.9976 53.9853 33.9595 54.1833 33.9519 54.4498L34.7209 54.4346ZM38.985 55.9041H37.5535V55.729C37.584 55.729 37.622 55.7213 37.6601 55.7138C37.7058 55.7061 37.7362 55.6985 37.7591 55.6909C37.7896 55.6757 37.8123 55.6453 37.8276 55.6148C37.8428 55.5844 37.8505 55.531 37.8505 55.4701V54.3585C37.8505 54.1985 37.82 54.0767 37.7591 53.9929C37.6982 53.9091 37.6144 53.8711 37.4926 53.8711C37.4316 53.8711 37.3707 53.8788 37.3175 53.9016C37.2641 53.9167 37.2108 53.9472 37.1575 53.9853C37.1119 54.0157 37.0738 54.0462 37.0433 54.0843C37.0129 54.1147 36.99 54.1452 36.9748 54.1757V55.4472C36.9748 55.5006 36.9824 55.5462 36.9976 55.5844C37.0129 55.6224 37.0433 55.6529 37.0738 55.6681C37.1014 55.6867 37.1325 55.6996 37.1651 55.7061L37.2794 55.729V55.9041H35.8326V55.729C35.8707 55.729 35.9088 55.7213 35.9545 55.7138C35.9926 55.7061 36.0306 55.6985 36.0611 55.6909C36.1143 55.6757 36.1448 55.6453 36.1677 55.6071C36.1829 55.5691 36.1981 55.5234 36.1981 55.4625V54.0767C36.1981 54.031 36.1829 53.9777 36.1601 53.932C36.1372 53.8864 36.0992 53.8482 36.0611 53.8178C36.0306 53.8026 36.0002 53.7797 35.9544 53.7721C35.9078 53.7565 35.8589 53.7488 35.8098 53.7493V53.5741L36.9444 53.5133L36.9824 53.5513V53.894H36.9901C37.0456 53.8483 37.099 53.8 37.1499 53.7493C37.206 53.7007 37.2645 53.655 37.3251 53.6122C37.386 53.5741 37.4621 53.5436 37.5535 53.5132C37.6448 53.4828 37.7515 53.4751 37.8581 53.4751C38.1169 53.4751 38.3073 53.5513 38.4367 53.696C38.5662 53.8406 38.6271 54.0386 38.6271 54.2823V55.4474C38.6271 55.5082 38.6348 55.554 38.6499 55.5844C38.6652 55.6225 38.7033 55.6454 38.7489 55.6682C38.7718 55.6758 38.8023 55.691 38.8403 55.6986C38.8784 55.7063 38.9165 55.7139 38.9698 55.7215V55.9042H38.985V55.9041ZM42.2592 55.9041H41.1399C41.0218 55.6932 40.8948 55.4874 40.7591 55.2874C40.6449 55.1199 40.5383 54.9599 40.4393 54.8229L40.3023 54.9447V55.4625C40.3023 55.5158 40.31 55.5692 40.3251 55.5995C40.3403 55.6376 40.3708 55.6605 40.4241 55.6833C40.4545 55.6985 40.485 55.7061 40.5231 55.7138C40.5612 55.7214 40.5993 55.729 40.6373 55.729V55.9041H39.1601V55.729C39.1982 55.729 39.2362 55.7213 39.282 55.7138C39.32 55.7061 39.3581 55.6985 39.3886 55.6909C39.4419 55.6757 39.4723 55.6453 39.4952 55.6071C39.5104 55.5691 39.5256 55.5234 39.5256 55.4625V52.8127C39.5256 52.7594 39.5104 52.706 39.4875 52.6528C39.4647 52.5995 39.4342 52.5538 39.3886 52.5233C39.3581 52.5081 39.3124 52.4853 39.2515 52.4777C39.1906 52.4625 39.1373 52.4548 39.084 52.4548V52.2797L40.2642 52.2188L40.3023 52.2568V54.7086C40.4165 54.6021 40.5535 54.4802 40.6983 54.3432C40.8429 54.2061 40.9647 54.0919 41.0485 54.0005C41.1018 53.9472 41.1322 53.9092 41.1322 53.8787C41.1399 53.8482 41.1399 53.833 41.1399 53.8254C41.1399 53.795 41.117 53.7721 41.0637 53.7569C41.0104 53.7416 40.9419 53.7188 40.8353 53.7036V53.536H42.0383V53.7036C41.8784 53.7493 41.7566 53.7874 41.6728 53.8254C41.5891 53.8635 41.4977 53.9167 41.3987 53.9777C41.334 54.0215 41.2705 54.0672 41.2084 54.1147C41.1475 54.1605 41.079 54.2214 40.9952 54.2898C41.1475 54.5183 41.2921 54.7239 41.4216 54.9143C41.5511 55.1046 41.6881 55.3102 41.8328 55.5234C41.8784 55.5995 41.9394 55.6453 42.0155 55.6757C42.0917 55.6985 42.1602 55.7138 42.2363 55.7214V55.9041H42.2592ZM43.7821 55.9041H42.282V55.729C42.32 55.729 42.3658 55.7213 42.4038 55.7138C42.4419 55.7061 42.48 55.6985 42.5028 55.6909C42.5561 55.6757 42.5866 55.6453 42.6094 55.6071C42.6323 55.5691 42.6399 55.5234 42.6399 55.4625V54.0767C42.6399 54.0234 42.6246 53.9701 42.6018 53.932C42.5819 53.8907 42.5501 53.8562 42.5105 53.833C42.48 53.8178 42.4419 53.795 42.381 53.7797C42.32 53.7645 42.2668 53.7493 42.2211 53.7493V53.5741L43.3861 53.5133L43.4242 53.5513V55.4396C43.4242 55.493 43.4394 55.5386 43.4622 55.5844C43.4851 55.6224 43.5232 55.6529 43.5612 55.6681C43.595 55.6853 43.6308 55.6981 43.6679 55.7061C43.7059 55.7138 43.744 55.7214 43.7897 55.729V55.9041H43.782H43.7821ZM43.4394 52.6681C43.4394 52.7898 43.3937 52.8888 43.3023 52.9726C43.211 53.0564 43.0967 53.102 42.9749 53.102C42.8455 53.102 42.7389 53.0564 42.6399 52.9726C42.5486 52.8888 42.5028 52.7822 42.5028 52.668C42.5028 52.5462 42.5485 52.4472 42.6399 52.3558C42.7312 52.2721 42.8455 52.2264 42.9749 52.2264C43.1044 52.2264 43.211 52.2721 43.3023 52.3558C43.3937 52.4396 43.4394 52.5462 43.4394 52.6681ZM47.14 55.9041H45.7084V55.729C45.7388 55.729 45.777 55.7213 45.815 55.7138C45.8607 55.7061 45.8912 55.6985 45.914 55.6909C45.9444 55.6757 45.9673 55.6453 45.9826 55.6148C45.9977 55.5844 46.0053 55.531 46.0053 55.4701V54.3585C46.0053 54.1985 45.9749 54.0767 45.914 53.9929C45.8531 53.9091 45.7693 53.8711 45.6475 53.8711C45.5866 53.8711 45.5256 53.8788 45.4724 53.9016C45.4191 53.9244 45.3657 53.9472 45.3125 53.9853C45.2667 54.0157 45.2287 54.0462 45.1982 54.0843C45.1678 54.1147 45.1449 54.1452 45.1297 54.1757V55.4472C45.1297 55.5006 45.1374 55.5462 45.1525 55.5844C45.1678 55.6224 45.1982 55.6529 45.2287 55.6681C45.2515 55.6833 45.282 55.6985 45.3201 55.7061L45.4343 55.729V55.9041H43.9876V55.729C44.0256 55.729 44.0637 55.7213 44.1094 55.7138C44.1474 55.7061 44.1856 55.6985 44.216 55.6909C44.2693 55.6757 44.2997 55.6453 44.3226 55.6071C44.3378 55.5691 44.3531 55.5234 44.3531 55.4625V54.0767C44.3531 54.031 44.3378 53.9777 44.3149 53.932C44.2922 53.8864 44.2541 53.8482 44.216 53.8178C44.1856 53.8026 44.1551 53.7797 44.1094 53.7721C44.0627 53.7565 44.0139 53.7488 43.9647 53.7493V53.5741L45.0993 53.5133L45.1374 53.5513V53.894H45.1449C45.2005 53.8483 45.2539 53.8 45.3049 53.7493C45.361 53.7007 45.4194 53.655 45.48 53.6122C45.5409 53.5741 45.617 53.5436 45.7084 53.5132C45.7998 53.4828 45.9064 53.4751 46.013 53.4751C46.2719 53.4751 46.4622 53.5513 46.5916 53.696C46.7211 53.8406 46.782 54.0386 46.782 54.2823V55.4474C46.782 55.5082 46.7897 55.554 46.8049 55.5844C46.8201 55.6225 46.8581 55.6454 46.9039 55.6682C46.9267 55.6758 46.9571 55.691 46.9952 55.6986C47.0333 55.7063 47.0714 55.7139 47.1247 55.7215V55.9042H47.1399L47.14 55.9041ZM48.4572 55.9879C48.305 55.9879 48.1527 55.9651 48.008 55.9194C47.8633 55.8737 47.7492 55.828 47.6654 55.7747L47.5968 55.9346H47.4141L47.3836 55.0513H47.5588C47.5816 55.1199 47.6197 55.2036 47.6806 55.295C47.7339 55.3863 47.8024 55.4625 47.8709 55.5386C47.9495 55.6098 48.0365 55.6712 48.1299 55.7214C48.2288 55.7671 48.3278 55.7975 48.4344 55.7975C48.5791 55.7975 48.6857 55.7671 48.7542 55.7138C48.8227 55.6605 48.8609 55.5691 48.8609 55.4549C48.8609 55.394 48.8456 55.3407 48.8151 55.295C48.7847 55.2569 48.739 55.2188 48.6857 55.1884C48.6248 55.1579 48.5563 55.1275 48.4801 55.1047C48.404 55.0818 48.3126 55.0589 48.206 55.0209C48.0994 54.9904 48.008 54.9599 47.9319 54.9219C47.8557 54.8914 47.7719 54.8381 47.6958 54.7696C47.6273 54.7087 47.5664 54.6326 47.5283 54.5488C47.4826 54.465 47.4674 54.3585 47.4674 54.2366C47.4674 54.0157 47.5588 53.833 47.7492 53.696C47.9395 53.5589 48.1832 53.4903 48.4878 53.4903C48.6324 53.4903 48.7619 53.5057 48.8837 53.536C49.0055 53.5665 49.1045 53.597 49.1882 53.635L49.2416 53.498H49.4243L49.4623 54.3051H49.2948C49.2416 54.1376 49.1426 54.0005 49.0132 53.8787C48.8761 53.7569 48.7314 53.696 48.5791 53.696C48.4573 53.696 48.3583 53.7188 48.2898 53.7721C48.2212 53.8254 48.1831 53.894 48.1831 53.9853C48.1831 54.1071 48.2364 54.1909 48.3354 54.2442C48.4344 54.2975 48.5791 54.3509 48.7619 54.3965C49.0436 54.4726 49.2492 54.5716 49.3862 54.6935C49.5157 54.8229 49.5842 54.9828 49.5842 55.1731C49.5842 55.432 49.4852 55.6376 49.2796 55.7747C49.0512 55.9117 48.7847 55.9879 48.4573 55.9879H48.4572Z" fill="#231F20"/>
</g>
<defs>
<clipPath id="clip0_245_24855">
<rect width="19.6455" height="32" fill="white" transform="translate(30 24)"/>
</clipPath>
</defs>
</svg>
