<svg width="80" height="80" viewBox="0 0 80 80" fill="none" xmlns="http://www.w3.org/2000/svg">
<path d="M39.9977 54.4777L45.8899 36.3438H34.1055L39.9976 54.4777H39.9977Z" fill="#E24329"/>
<path d="M39.9994 54.4777L34.1072 36.3438H25.8496L39.9994 54.4777Z" fill="#FC6D26"/>
<path d="M25.8502 36.3438L24.0597 41.8546C23.9801 42.0996 23.9801 42.3635 24.0597 42.6085C24.1393 42.8535 24.2944 43.067 24.5028 43.2184L40 54.4778L25.8501 36.3439L25.8502 36.3438Z" fill="#FCA326"/>
<path d="M25.8496 36.3435H34.1072L30.5585 25.4215C30.3759 24.8594 29.5809 24.8596 29.3983 25.4215L25.8496 36.3435Z" fill="#E24329"/>
<path d="M40.0001 54.4777L45.8923 36.3438H54.1499L40 54.4777H40.0001Z" fill="#FC6D26"/>
<path d="M54.1498 36.3438L55.9403 41.8546C56.0199 42.0996 56.0199 42.3635 55.9403 42.6085C55.8607 42.8535 55.7055 43.067 55.4971 43.2184L40 54.4778L54.1498 36.3439V36.3438Z" fill="#FCA326"/>
<path d="M54.1502 36.3435H45.8926L49.4413 25.4215C49.6239 24.8594 50.419 24.8596 50.6015 25.4215L54.1502 36.3435Z" fill="#E24329"/>
</svg>
