<svg width="80" height="80" viewBox="0 0 80 80" fill="none" xmlns="http://www.w3.org/2000/svg">
<rect width="80" height="80" rx="8" fill="#F5F8FD"/>
<path d="M33.8594 55.8847C33.8043 55.8847 33.745 55.8708 33.7038 55.815L31.9377 53.4925V55.8615H31.535V52.9443C31.535 52.8282 31.6311 52.7354 31.741 52.7354C31.805 52.7354 31.8599 52.7539 31.901 52.8096L33.6625 55.1275V52.7679H34.0651V55.6802C34.0651 55.801 33.969 55.8846 33.8593 55.8846M37.1903 55.9125C36.7879 55.9125 36.3668 55.8289 35.9733 55.6803L36.0694 55.3458C36.4309 55.462 36.8243 55.5456 37.1903 55.5456C37.6983 55.5456 37.9636 55.3644 37.9636 55.109C37.9636 54.8767 37.7576 54.7605 37.0485 54.4261C36.3393 54.0917 36.0604 53.8781 36.0604 53.46C36.0604 52.9352 36.4629 52.7215 37.2223 52.7215C37.5381 52.7215 38.0231 52.7865 38.3022 52.8702L38.2382 53.2139C37.9314 53.1396 37.5473 53.0885 37.2315 53.0885C36.6963 53.0885 36.4767 53.1906 36.4767 53.4461C36.4767 53.6969 36.6367 53.8037 37.3871 54.1521C38.1787 54.519 38.3799 54.7048 38.3799 55.0857C38.3799 55.6385 37.8583 55.9125 37.1903 55.9125ZM40.2879 52.768H40.7042V55.8613H40.2879V52.768ZM44.2458 54.4587H43.2116V55.5085H44.2458C44.598 55.5085 44.813 55.2855 44.813 54.9742C44.813 54.6816 44.5889 54.4587 44.2458 54.4587ZM44.0443 53.1209H43.2116V54.1104H44.0443C44.3784 54.1104 44.6208 53.8966 44.6208 53.5994C44.6208 53.3068 44.4104 53.1209 44.0443 53.1209ZM44.2504 55.8614H43.0059C42.9783 55.8618 42.9509 55.8567 42.9252 55.8463C42.8996 55.836 42.8763 55.8207 42.8567 55.8012C42.8371 55.7817 42.8216 55.7585 42.811 55.733C42.8005 55.7075 42.7951 55.6801 42.7953 55.6525V52.9768C42.7953 52.8653 42.8868 52.7679 43.0059 52.7679H44.0353C44.6667 52.7679 45.0418 53.079 45.0418 53.5668C45.0418 53.8315 44.8862 54.0777 44.6483 54.2217C45.0008 54.3286 45.2385 54.6211 45.2385 54.9742C45.2385 55.4664 44.8313 55.8613 44.2504 55.8613M47.2379 55.8614C47.1238 55.8614 47.0322 55.7639 47.0322 55.6525V52.768H47.4484V55.4852H49.1047V55.8614H47.2379ZM51.9428 55.9125C51.0919 55.9125 50.5794 55.5967 50.5794 54.9603C50.5794 54.6584 50.7488 54.3704 51.0782 54.2357C50.8128 54.0685 50.6755 53.8316 50.6755 53.5715C50.6755 52.9955 51.1195 52.7215 51.9521 52.7215C52.2313 52.7215 52.6246 52.754 52.9541 52.8283L52.9083 53.172C52.5607 53.1162 52.2357 53.0838 51.92 53.0838C51.3802 53.0838 51.0919 53.2324 51.0919 53.5901C51.0919 53.8736 51.3573 54.0964 51.7096 54.0964H52.4233C52.5239 54.0964 52.6017 54.1754 52.6017 54.2729C52.6017 54.3751 52.5239 54.454 52.4233 54.454H51.6547C51.2521 54.454 50.996 54.6536 50.996 54.9603C50.996 55.4109 51.4123 55.5455 51.9338 55.5455C52.2175 55.5455 52.6017 55.5085 52.9128 55.4341L52.9724 55.7731C52.675 55.8568 52.286 55.9125 51.9428 55.9125ZM28.4368 53.3481L29.166 55.1751L28.0648 54.2943L28.4368 53.3481ZM29.7321 55.596L28.6106 52.8558C28.5787 52.7767 28.5146 52.7349 28.4368 52.7349C28.3982 52.7341 28.3603 52.7454 28.3284 52.767C28.2965 52.7887 28.272 52.8197 28.2584 52.8558L27.0273 55.8614H27.4483L27.9357 54.6223L29.3899 55.8149C29.4484 55.8629 29.4905 55.8846 29.5455 55.8846C29.6552 55.8846 29.7514 55.8011 29.7514 55.6804C29.7514 55.6607 29.7445 55.6296 29.7321 55.5961V55.596ZM52.9946 36.9898C52.9946 44.1472 47.1929 49.9488 40.0354 49.9488C32.8786 49.9488 27.0763 44.1472 27.0763 36.9898C27.0763 29.833 32.8786 24.0308 40.0354 24.0308C47.1928 24.0308 52.9946 29.833 52.9946 36.9898Z" fill="#1A1918"/>
<path d="M40.2544 31.9471L43.6079 40.224L38.5424 36.2338L40.2544 31.9472V31.9471ZM46.2119 42.1307L41.0535 29.7165C40.9062 29.3585 40.6118 29.1689 40.2544 29.1689C39.8963 29.1689 39.5804 29.3585 39.4331 29.7165L33.7715 43.3333H35.7082L37.9495 37.719L44.638 43.1225C44.9069 43.34 45.101 43.4384 45.3532 43.4384C45.8585 43.4384 46.3002 43.0595 46.3002 42.5128C46.3002 42.4239 46.2688 42.2825 46.2119 42.1307Z" fill="white"/>
</svg>
