<svg width="80" height="80" viewBox="0 0 80 80" fill="none" xmlns="http://www.w3.org/2000/svg">
<rect width="80" height="80" rx="8" fill="#F5F8FD"/>
<g clip-path="url(#clip0_245_27423)">
<path d="M46.84 26.5C43.225 26.5 40.06 28.36 38.02 30.955V36.64C40.75 29.065 46.84 29.62 46.84 29.62C51.25 29.62 54.76 33.07 54.76 37.3C54.76 41.56 51.25 44.995 46.84 44.995C44.7577 45.0018 42.7552 44.1943 41.26 42.745L37.42 38.545C35.7125 36.8888 33.4238 35.9679 31.045 35.98C26.05 35.98 22 39.895 22 44.74C22 49.6 26.05 53.5 31.045 53.5C33.85 53.5 36.37 52.285 38.02 50.335V45.79C35.32 50.935 31.045 50.38 31.045 50.38C27.85 50.38 25.255 47.86 25.255 44.74C25.255 41.65 27.85 39.13 31.045 39.13C32.635 39.13 34.075 39.76 35.125 40.75L38.965 44.965C41.0737 47.0132 43.9003 48.1546 46.84 48.145C53.005 48.145 58 43.285 58 37.3C58 31.315 53.005 26.5 46.84 26.5Z" fill="black"/>
</g>
<defs>
<clipPath id="clip0_245_27423">
<rect width="36" height="36" fill="white" transform="translate(22 22)"/>
</clipPath>
</defs>
</svg>
