<svg width="80" height="80" viewBox="0 0 80 80" fill="none" xmlns="http://www.w3.org/2000/svg">
<rect width="80" height="80" rx="8" fill="#F5F8FD"/>
<g clip-path="url(#clip0_245_27324)">
<path d="M71.6533 39.1475V38.028H70.2631V36.2877L70.2163 36.302L68.9106 36.7016L68.885 36.7094V38.028H66.8241V37.2935C66.8241 36.9514 66.9005 36.6896 67.0513 36.5152C67.201 36.3426 67.4151 36.255 67.6881 36.255C67.8845 36.255 68.0877 36.3012 68.2923 36.3924L68.3435 36.4152V35.2364L68.3194 35.2277C68.1286 35.1589 67.869 35.1245 67.5474 35.1245C67.1418 35.1245 66.7735 35.2127 66.4521 35.3876C66.1354 35.5579 65.8745 35.8158 65.7005 36.1305C65.524 36.4481 65.4345 36.8147 65.4345 37.2205V38.0281H64.4665V39.1476H65.4345V43.8636H66.8241V39.1475H68.885V42.1444C68.885 43.3787 69.467 44.0043 70.6153 44.0043C70.8137 44.0032 71.0115 43.9812 71.2053 43.9387C71.4117 43.8943 71.5522 43.8499 71.635 43.8025L71.6533 43.7917V42.6619L71.5968 42.6993C71.5214 42.7496 71.4275 42.7907 71.3174 42.8211C71.2067 42.8522 71.1143 42.8679 71.0428 42.8679C70.7738 42.8679 70.5749 42.7954 70.4513 42.6523C70.3265 42.5081 70.2631 42.2556 70.2631 41.9025V39.1475H71.6533ZM61.3633 42.868C60.8589 42.868 60.4613 42.7007 60.181 42.3713C59.8991 42.0401 59.7561 41.5682 59.7561 40.9683C59.7561 40.3496 59.8991 39.8653 60.1812 39.5283C60.4616 39.1936 60.8554 39.0237 61.352 39.0237C61.8337 39.0237 62.2172 39.1859 62.492 39.5063C62.7681 39.8282 62.9082 40.3086 62.9082 40.9345C62.9082 41.5682 62.7765 42.0551 62.5166 42.3807C62.2586 42.7039 61.8706 42.868 61.3633 42.868ZM61.4252 37.8874C60.4629 37.8874 59.6986 38.1693 59.1538 38.7254C58.6091 39.2816 58.333 40.0512 58.333 41.0132C58.333 41.9269 58.6025 42.6618 59.1341 43.1972C59.6658 43.7328 60.3893 44.0041 61.2843 44.0041C62.2171 44.0041 62.9662 43.7183 63.511 43.1544C64.0555 42.5913 64.3315 41.8289 64.3315 40.8893C64.3315 39.9614 64.0725 39.2211 63.5617 38.6892C63.0505 38.1571 62.3315 37.8874 61.4252 37.8874ZM56.0924 37.8874C55.4379 37.8874 54.8965 38.0548 54.4828 38.3849C54.0668 38.717 53.8557 39.1526 53.8557 39.6796C53.8557 39.9535 53.9012 40.1968 53.991 40.4032C54.0811 40.6103 54.2208 40.7925 54.4062 40.9456C54.5902 41.0974 54.8743 41.2564 55.2509 41.418C55.5673 41.5483 55.8034 41.6586 55.9533 41.7454C56.0999 41.8305 56.204 41.9161 56.2626 41.9994C56.3197 42.0808 56.3487 42.1924 56.3487 42.3301C56.3487 42.7222 56.0551 42.9129 55.4511 42.9129C55.2269 42.9129 54.9713 42.8661 54.6913 42.7739C54.4134 42.683 54.151 42.55 53.9134 42.3794L53.8557 42.3381V43.6759L53.8769 43.6858C54.0736 43.7766 54.3215 43.853 54.6136 43.9133C54.9053 43.9735 55.1701 44.0042 55.4003 44.0042C56.1106 44.0042 56.6826 43.836 57.0998 43.5039C57.5201 43.1695 57.7329 42.7238 57.7329 42.1784C57.7329 41.7851 57.6183 41.4477 57.3922 41.1757C57.1681 40.9059 56.7787 40.6582 56.2357 40.4392C55.803 40.2655 55.5258 40.1214 55.4115 40.0108C55.3013 39.9039 55.2453 39.7527 55.2453 39.5614C55.2453 39.3915 55.3144 39.2557 55.4563 39.1455C55.5993 39.0349 55.7982 38.9785 56.0476 38.9785C56.2792 38.9785 56.516 39.0151 56.7516 39.0867C56.9871 39.1584 57.1937 39.2545 57.3664 39.3719L57.4231 39.4107V38.1416L57.4013 38.1323C57.2422 38.0639 57.0321 38.0055 56.7772 37.9582C56.5231 37.9112 56.2927 37.8874 56.0924 37.8874ZM50.2331 42.868C49.7288 42.868 49.3311 42.7007 49.0509 42.3713C48.7689 42.0401 48.6263 41.5682 48.6263 40.9683C48.6263 40.3496 48.769 39.8653 49.0513 39.5283C49.3314 39.1936 49.7251 39.0237 50.2219 39.0237C50.7036 39.0237 51.0872 39.1859 51.3619 39.5063C51.6381 39.8282 51.7782 40.3086 51.7782 40.9345C51.7782 41.5682 51.6464 42.0551 51.3866 42.3807C51.1285 42.7039 50.7406 42.868 50.2331 42.868ZM50.2951 37.8874C49.3326 37.8874 48.5683 38.1693 48.0237 38.7254C47.4792 39.2816 47.2028 40.0512 47.2028 41.0132C47.2028 41.9272 47.4726 42.6618 48.0041 43.1972C48.5357 43.7328 49.2591 44.0041 50.1544 44.0041C51.0868 44.0041 51.8362 43.7183 52.381 43.1544C52.9254 42.5913 53.2016 41.8289 53.2016 40.8893C53.2016 39.9614 52.9425 39.2211 52.4315 38.6892C51.9201 38.1571 51.2013 37.8874 50.2951 37.8874ZM45.0934 39.0386V38.028H43.7208V43.8633H45.0933V40.8782C45.0933 40.3706 45.2084 39.9536 45.4356 39.6387C45.6597 39.3275 45.9586 39.1698 46.3232 39.1698C46.4469 39.1698 46.5857 39.1901 46.736 39.2305C46.8848 39.2706 46.9926 39.3141 47.0561 39.3598L47.1138 39.4017V38.018L47.0914 38.0084C46.9637 37.9541 46.7829 37.9268 46.5541 37.9268C46.2091 37.9268 45.9004 38.0375 45.6361 38.2557C45.404 38.4476 45.2361 38.7106 45.108 39.0386H45.0934ZM41.2626 37.8874C40.6329 37.8874 40.0711 38.0225 39.5933 38.2887C39.1147 38.5553 38.7443 38.9364 38.4925 39.4206C38.2417 39.9039 38.1144 40.4683 38.1144 41.0978C38.1144 41.649 38.2378 42.155 38.4818 42.6008C38.7259 43.0475 39.0716 43.397 39.5089 43.6394C39.9458 43.8815 40.4507 44.0042 41.0095 44.0042C41.6618 44.0042 42.2188 43.8738 42.6655 43.6167L42.6834 43.6062V42.3487L42.6258 42.3909C42.4204 42.5398 42.1941 42.6576 41.9542 42.7404C41.7116 42.8251 41.4905 42.8679 41.2966 42.8679C40.7579 42.8679 40.3256 42.6994 40.0117 42.3672C39.6972 42.0344 39.5376 41.5673 39.5376 40.9794C39.5376 40.3879 39.704 39.9087 40.0317 39.555C40.3586 39.2026 40.7917 39.0238 41.3192 39.0238C41.7704 39.0238 42.21 39.1766 42.6258 39.4783L42.6834 39.5201V38.1951L42.6649 38.1846C42.5082 38.097 42.2949 38.0246 42.0298 37.9698C41.766 37.9151 41.5079 37.8874 41.2626 37.8874ZM37.169 38.028H35.7963V43.8633H37.169V38.028ZM36.4967 35.5421C36.2708 35.5421 36.0737 35.6191 35.9119 35.7714C35.7493 35.9243 35.6667 36.1167 35.6667 36.3438C35.6667 36.5673 35.7483 36.7561 35.9091 36.9049C36.0691 37.0533 36.2668 37.1285 36.4967 37.1285C36.7264 37.1285 36.9249 37.0533 37.0867 36.9052C37.2496 36.7561 37.3323 36.5673 37.3323 36.3438C37.3323 36.1247 37.2518 35.9341 37.0934 35.7776C36.9352 35.6213 36.7343 35.5421 36.4967 35.5421ZM33.0718 37.5976V43.8632H34.4727V35.7208H32.5339L30.0694 41.7687L27.6779 35.7208H25.6602V43.8633H26.9766V37.5969H27.0219L29.5473 43.8633H30.5406L33.0266 37.5974H33.0718V37.5976Z" fill="#706D6E"/>
<path d="M14.4572 39.4572H8V33H14.4572V39.4572Z" fill="#F1511B"/>
<path d="M21.5881 39.4572H15.1309V33H21.5881V39.4572Z" fill="#80CC28"/>
<path d="M14.4571 46.5896H8V40.1323H14.4571V46.5896Z" fill="#00ADEF"/>
<path d="M21.5881 46.5896H15.1309V40.1323H21.5881V46.5896Z" fill="#FBBC09"/>
</g>
<defs>
<clipPath id="clip0_245_27324">
<rect width="63.6546" height="13.6756" fill="white" transform="translate(8 33)"/>
</clipPath>
</defs>
</svg>
