<svg width="80" height="80" viewBox="0 0 80 80" fill="none" xmlns="http://www.w3.org/2000/svg">
<rect width="80" height="80" rx="8" fill="#F5F8FD"/>
<g clip-path="url(#clip0_245_27376)">
<path d="M47.953 43.469V36.433H49.578V42.037H52.432V43.464H47.953V43.469ZM34.906 39.083L38.88 36.026C39.255 36.328 39.625 36.635 40 36.943L36.229 39.797L37.047 40.511L40.813 37.553L41.938 38.475C40.688 39.465 39.428 40.449 38.167 41.428L38.98 42.142L42.756 39.085L42.751 36.434H44.381V42.038H47.339V43.465H42.855V40.819C41.527 41.835 40.204 42.855 38.881 43.871L34.907 40.819C34.714 41.788 34.037 42.632 33.157 43.074C32.777 43.272 32.36 43.397 31.938 43.444C31.693 43.475 31.448 43.465 31.204 43.465H28.688V36.434H31.589C32.344 36.444 33.079 36.705 33.672 37.179C34.2765 37.6661 34.709 38.3341 34.906 39.085V39.083ZM30.219 37.859V42.14H31.49C31.7568 42.1302 32.0183 42.0628 32.2566 41.9423C32.4948 41.8218 32.7041 41.6511 32.87 41.442C33.15 41.0903 33.3221 40.6651 33.3656 40.2178C33.4091 39.7704 33.3221 39.32 33.115 38.921C32.9833 38.6679 32.7989 38.4459 32.5744 38.2698C32.3499 38.0937 32.0903 37.9676 31.813 37.9C31.589 37.848 31.36 37.858 31.136 37.858L30.219 37.859ZM39.76 24H40.208C42.724 24.031 45.192 24.661 47.416 25.828C49.5861 26.9713 51.467 28.594 52.916 30.573C54.8742 33.2405 55.9519 36.4522 55.999 39.761V40.24C55.948 44.2243 54.4097 48.0456 51.686 50.954C50.216 52.5214 48.445 53.7763 46.4788 54.6435C44.5126 55.5106 42.3918 55.9724 40.243 56.001H39.759C37.868 55.9739 35.9968 55.6106 34.233 54.928C32.0109 54.0608 30.0088 52.7112 28.3714 50.9765C26.7339 49.2419 25.5019 47.1654 24.764 44.897C24.2809 43.3912 24.0228 41.8222 23.998 40.241V39.762C24.05 36.726 24.972 33.762 26.654 31.236C28.2234 28.8627 30.3896 26.9442 32.935 25.673C35.0548 24.6099 37.387 24.0384 39.758 24.001L39.76 24ZM39.557 25.641C36.4298 25.7298 33.418 26.8424 30.984 28.808C28.9911 30.41 27.4626 32.5157 26.557 34.907C25.2403 38.4121 25.3317 42.2908 26.812 45.73C27.836 48.0809 29.4685 50.1162 31.541 51.626C33.423 53.0005 35.6139 53.8913 37.921 54.22C39.864 54.501 41.864 54.387 43.76 53.876C46.3523 53.1749 48.6958 51.7606 50.5243 49.794C52.3529 47.8274 53.5931 45.3873 54.104 42.751C54.504 40.684 54.4491 38.5546 53.943 36.511C53.3551 34.1532 52.1785 31.9832 50.5232 30.2041C48.868 28.4251 46.7884 27.0952 44.479 26.339C42.8915 25.8218 41.2258 25.5856 39.557 25.641Z" fill="black"/>
</g>
<defs>
<clipPath id="clip0_245_27376">
<rect width="32" height="32" fill="white" transform="translate(24 24)"/>
</clipPath>
</defs>
</svg>
