<svg width="80" height="80" viewBox="0 0 80 80" fill="none" xmlns="http://www.w3.org/2000/svg">
<rect width="80" height="80" rx="8" fill="#F5F8FD"/>
<path d="M11.2283 35.0009C11.0605 35.0071 10.8958 35.0472 10.744 35.1189C10.5904 35.1842 10.4518 35.2802 10.3367 35.4011C10.2217 35.522 10.1326 35.6652 10.075 35.8218C10.0175 35.9784 9.99257 36.1452 10.0019 36.3118C10.0113 36.4785 10.0546 36.6414 10.1294 36.7906L12.927 42.8751C13.3671 43.8093 13.8612 44.3304 14.6995 44.3304C15.5403 44.3304 16.0319 43.7896 16.4695 42.8751L18.9353 37.5011C18.9624 37.4305 19.0114 37.3705 19.0751 37.3298C19.1388 37.2891 19.2139 37.2699 19.2893 37.2749C19.3923 37.2768 19.4905 37.3191 19.5627 37.3927C19.6348 37.4663 19.6753 37.5652 19.6752 37.6683V42.8751C19.6595 43.0567 19.6817 43.2396 19.7404 43.4122C19.7991 43.5848 19.893 43.7433 20.0162 43.8776C20.1394 44.012 20.2892 44.1193 20.4561 44.1926C20.6229 44.266 20.8033 44.3039 20.9855 44.3039C21.1678 44.3039 21.3482 44.266 21.515 44.1926C21.6819 44.1193 21.8317 44.012 21.9549 43.8776C22.0781 43.7433 22.172 43.5848 22.2307 43.4122C22.2894 43.2396 22.3116 43.0567 22.2959 42.8751V38.6221C22.2882 38.4389 22.3192 38.2561 22.3869 38.0857C22.4546 37.9153 22.5574 37.761 22.6887 37.633C22.82 37.505 22.9767 37.4061 23.1488 37.3427C23.3209 37.2793 23.5043 37.2528 23.6873 37.2651C23.8661 37.2575 24.0445 37.2876 24.2109 37.3533C24.3773 37.4191 24.5281 37.519 24.6534 37.6467C24.7788 37.7744 24.876 37.9269 24.9386 38.0945C25.0013 38.2621 25.0281 38.441 25.0173 38.6196V42.8726C24.9957 43.0562 25.0133 43.2423 25.0691 43.4185C25.1248 43.5947 25.2173 43.7571 25.3404 43.895C25.4636 44.0328 25.6146 44.1429 25.7836 44.2179C25.9525 44.293 26.1354 44.3314 26.3202 44.3304C26.5049 44.33 26.6875 44.2909 26.8562 44.2157C27.0249 44.1405 27.1761 44.0309 27.2999 43.8938C27.4237 43.7568 27.5176 43.5954 27.5754 43.4199C27.6331 43.2445 27.6536 43.0589 27.6354 42.8751V38.6221C27.6278 38.4393 27.6587 38.257 27.7261 38.087C27.7935 37.9169 27.8959 37.7629 28.0266 37.635C28.1574 37.507 28.3135 37.408 28.485 37.3442C28.6565 37.2805 28.8394 37.2536 29.022 37.2651C29.2011 37.2568 29.3801 37.2864 29.5471 37.3518C29.7141 37.4172 29.8655 37.517 29.9914 37.6448C30.1173 37.7725 30.2149 37.9254 30.2779 38.0933C30.3408 38.2613 30.3677 38.4406 30.3569 38.6196V42.8726C30.3353 43.0558 30.3528 43.2414 30.4083 43.4173C30.4637 43.5932 30.5557 43.7554 30.6784 43.8931C30.801 44.0309 30.9515 44.141 31.1198 44.2164C31.2881 44.2918 31.4705 44.3307 31.6549 44.3304C31.84 44.3315 32.0234 44.2934 32.1928 44.2188C32.3622 44.1441 32.514 44.0345 32.6382 43.8971C32.7623 43.7597 32.8561 43.5976 32.9133 43.4215C32.9705 43.2454 32.9898 43.0592 32.9701 42.8751V38.0345C32.9691 37.6267 32.8859 37.2231 32.7253 36.8482C32.5648 36.4732 32.3303 36.1344 32.0359 35.8521C31.7414 35.5699 31.3931 35.3499 31.0117 35.2053C30.6303 35.0607 30.2236 34.9946 29.816 35.0108C28.7619 35.029 27.7565 35.4576 27.0135 36.2055C26.6984 35.8 26.2874 35.4791 25.8175 35.2718C25.3476 35.0645 24.8335 34.9774 24.3216 35.0181C23.3336 35.108 22.4041 35.526 21.6813 36.2055C21.3964 35.8489 21.0378 35.5582 20.63 35.3532C20.2222 35.1482 19.7749 35.0339 19.3188 35.0181C18.6999 34.9931 18.0894 35.1674 17.577 35.5152C17.0645 35.863 16.6772 36.3661 16.472 36.9504L14.6798 41.169L12.3862 35.7532L12.4132 35.7433C12.3131 35.5149 12.1466 35.3219 11.9352 35.1894C11.7239 35.057 11.4775 34.9913 11.2283 35.0009ZM56.5361 35.1484C56.4489 35.1497 56.3628 35.1681 56.2828 35.2027C56.2027 35.2372 56.1303 35.2872 56.0696 35.3498C56.0088 35.4123 55.961 35.4862 55.9289 35.5672C55.8967 35.6483 55.8808 35.7348 55.8821 35.822H55.887V43.5462C55.8742 43.6401 55.8816 43.7357 55.9087 43.8265C55.9359 43.9173 55.9822 44.0012 56.0445 44.0727C56.1068 44.1441 56.1836 44.2013 56.2699 44.2406C56.3562 44.2798 56.4499 44.3001 56.5447 44.3001C56.6394 44.3001 56.7331 44.2798 56.8194 44.2406C56.9057 44.2013 56.9826 44.1441 57.0449 44.0727C57.1072 44.0012 57.1534 43.9173 57.1806 43.8265C57.2078 43.7357 57.2151 43.6401 57.2023 43.5462V40.5421C57.2023 37.9928 58.606 36.707 60.3244 36.503C60.4891 36.4857 60.6411 36.4065 60.7497 36.2815C60.8583 36.1564 60.9154 35.9949 60.9095 35.8294C60.9133 35.7422 60.899 35.6551 60.8676 35.5737C60.8361 35.4922 60.7882 35.4181 60.7268 35.3561C60.6654 35.294 60.5919 35.2452 60.5108 35.2129C60.4297 35.1806 60.3428 35.1653 60.2556 35.1681C59.5973 35.2143 58.9644 35.4406 58.4259 35.8221C57.8874 36.2036 57.4642 36.7257 57.2023 37.3315V35.822C57.205 35.7335 57.1896 35.6453 57.1572 35.5628C57.1247 35.4804 57.0759 35.4054 57.0136 35.3424C56.9513 35.2794 56.8768 35.2297 56.7947 35.1964C56.7126 35.163 56.6246 35.1467 56.5361 35.1484ZM39.9789 35.1681C39.8322 35.1774 39.6926 35.2347 39.5815 35.331C39.4705 35.4274 39.3942 35.5576 39.3643 35.7016L37.1223 42.1597L34.9048 35.7188C34.8712 35.5653 34.786 35.4279 34.6635 35.3295C34.5409 35.2311 34.3884 35.1776 34.2313 35.1779C34.0595 35.1753 33.8936 35.2403 33.7694 35.359C33.6451 35.4777 33.5726 35.6405 33.5675 35.8122C33.5774 35.9337 33.6056 36.0531 33.6511 36.1662L36.3307 43.6323L36.3799 43.6151C36.4209 43.7803 36.5145 43.9277 36.6467 44.035C36.7788 44.1424 36.9423 44.2038 37.1125 44.21C37.2828 44.2092 37.4475 44.1496 37.5788 44.0411C37.7101 43.9327 37.7998 43.7821 37.8328 43.6151L40.0527 37.2651L42.2554 43.6151C42.2883 43.7821 42.378 43.9327 42.5093 44.0411C42.6406 44.1496 42.8054 44.2092 42.9757 44.21H43.0199C43.1879 44.2012 43.3486 44.1386 43.4783 44.0315C43.608 43.9244 43.6999 43.7784 43.7402 43.6151L46.4371 36.1465C46.4811 36.0331 46.5084 35.9138 46.5182 35.7925C46.5131 35.6247 46.4416 35.4658 46.3195 35.3506C46.1974 35.2354 46.0345 35.1733 45.8667 35.1779C45.7179 35.1771 45.5734 35.2279 45.4578 35.3215C45.3422 35.4152 45.2626 35.546 45.2325 35.6917L42.9757 42.1572L40.7533 35.7016C40.7158 35.5488 40.628 35.4132 40.504 35.3164C40.3801 35.2197 40.2271 35.1674 40.0699 35.1681H40.0084C39.9986 35.1679 39.9888 35.1679 39.9789 35.1681ZM64.9756 35.1878C64.4015 35.2061 63.8368 35.3393 63.3149 35.5795C62.7931 35.8196 62.3246 36.1619 61.9371 36.586C61.5497 37.0101 61.2511 37.5076 61.059 38.0489C60.8668 38.5903 60.7851 39.1647 60.8185 39.7382C60.7875 40.3259 60.8764 40.9138 61.0798 41.4661C61.2831 42.0184 61.5967 42.5235 62.0014 42.9508C62.4062 43.3781 62.8936 43.7185 63.4341 43.9515C63.9745 44.1844 64.5567 44.305 65.1453 44.3059L65.1256 44.3378C65.7326 44.3554 66.3367 44.2466 66.8995 44.0185C67.4624 43.7905 67.9717 43.448 68.3952 43.0128C68.4567 42.9615 68.5065 42.8977 68.5413 42.8256C68.5761 42.7535 68.595 42.6748 68.5968 42.5948C68.5955 42.4875 68.5634 42.3828 68.5043 42.2932C68.4452 42.2036 68.3616 42.1328 68.2635 42.0893C68.1654 42.0458 68.0568 42.0314 67.9507 42.0478C67.8447 42.0642 67.7455 42.1107 67.6651 42.1818C67.3355 42.508 66.9448 42.766 66.5154 42.9411C66.0859 43.1162 65.6262 43.2048 65.1625 43.202C64.3673 43.2042 63.6029 42.8948 63.0331 42.3402C62.4633 41.7855 62.1334 41.0297 62.1141 40.2348H68.3952C68.5559 40.2341 68.7097 40.1699 68.823 40.0561C68.9364 39.9423 69 39.7882 69 39.6276C69 37.3044 67.5422 35.1878 64.9756 35.1878ZM50.8548 35.1927C50.7251 35.1911 50.5955 35.196 50.4663 35.2074C49.5558 35.1671 48.6484 35.3396 47.8162 35.7114C47.7064 35.7521 47.6128 35.8272 47.5494 35.9257C47.4861 36.0241 47.4563 36.1404 47.4647 36.2571C47.4715 36.4068 47.535 36.5482 47.6423 36.6528C47.7496 36.7573 47.8926 36.8171 48.0424 36.8201C48.1232 36.8151 48.2024 36.7951 48.2759 36.7611C48.9184 36.4687 49.6209 36.3322 50.3262 36.3629C52.0249 36.3629 52.9567 37.184 52.9567 38.7696V39.0769C52.0758 38.8214 51.1622 38.6971 50.2451 38.7081C48.0522 38.7081 46.5084 39.6915 46.5084 41.5599L46.501 41.55C46.501 43.3594 48.1506 44.296 49.7952 44.296C50.4099 44.3136 51.02 44.1845 51.5749 43.9195C52.1298 43.6544 52.6135 43.261 52.9862 42.7718V43.6151C52.9851 43.6969 53.0007 43.7781 53.0318 43.8537C53.063 43.9294 53.1091 43.998 53.1674 44.0554C53.2257 44.1128 53.295 44.1579 53.3712 44.1878C53.4474 44.2177 53.5288 44.232 53.6106 44.2296C53.6951 44.231 53.779 44.2152 53.8572 44.1832C53.9355 44.1512 54.0064 44.1036 54.0657 44.0434C54.125 43.9832 54.1714 43.9116 54.2022 43.8329C54.233 43.7542 54.2475 43.67 54.2449 43.5856V38.7106C54.2712 38.2413 54.2023 37.7715 54.0421 37.3295C53.882 36.8876 53.634 36.4827 53.3131 36.1391C52.6299 35.5453 51.7598 35.2103 50.8548 35.1927ZM64.9142 36.2498C66.6695 36.2498 67.5815 37.6388 67.7143 39.2342H62.1141C62.1167 38.4746 62.407 37.7441 62.9265 37.1899C63.4461 36.6357 64.1563 36.2989 64.9142 36.2473V36.2498ZM50.4467 39.6472C51.3263 39.648 52.2014 39.7747 53.0452 40.0234V40.8764C53.0452 42.2777 51.7201 43.2684 50.0951 43.2684C48.9028 43.2684 47.8728 42.6268 47.8728 41.5156C47.8728 40.3675 48.7946 39.6472 50.4467 39.6472Z" fill="black"/>
</svg>
