<svg width="80" height="80" viewBox="0 0 80 80" fill="none" xmlns="http://www.w3.org/2000/svg">
<rect width="80" height="80" rx="8" fill="#F5F8FD"/>
<path d="M39.977 24C39.3475 24 38.7439 24.25 38.2988 24.6951C37.8537 25.1402 37.6036 25.7439 37.6036 26.3733C37.6036 27.0028 37.8537 27.6064 38.2988 28.0515C38.7439 28.4966 39.3475 28.7467 39.977 28.7467C40.6064 28.7467 41.2101 28.4966 41.6552 28.0515C42.1002 27.6064 42.3503 27.0028 42.3503 26.3733C42.3503 25.7439 42.1002 25.1402 41.6552 24.6951C41.2101 24.25 40.6064 24 39.977 24ZM30.893 31.988C30.7056 31.9754 30.5177 32.0014 30.3408 32.0646C30.164 32.1278 30.0021 32.2266 29.8651 32.3551C29.7282 32.4835 29.6191 32.6388 29.5448 32.8112C29.4704 32.9837 29.4324 33.1696 29.433 33.3573C29.433 33.768 29.6143 34.1787 29.9343 34.4533L38.1503 43.9013L29.6156 53.5787C29.4802 53.7171 29.3739 53.8813 29.3031 54.0615C29.2323 54.2418 29.1985 54.4344 29.2036 54.628C29.2036 55.404 29.8436 55.9973 30.6196 55.9973C31.0756 55.9973 31.5316 55.7707 31.8063 55.4053L39.977 45.8187L48.193 55.4053C48.4663 55.7707 48.9223 55.9973 49.3796 55.9973C50.1556 56.044 50.7956 55.404 50.7956 54.628C50.7979 54.2383 50.6504 53.8627 50.3836 53.5787L41.8476 43.9013L50.0636 34.4533C50.3836 34.1787 50.5663 33.768 50.5663 33.3573V33.312C50.5663 32.536 49.8823 31.9427 49.1063 31.988C48.649 31.988 48.2396 32.216 47.965 32.5813L40.0223 41.9387L32.0796 32.5813C31.9493 32.4002 31.7782 32.2521 31.5802 32.149C31.3822 32.046 31.1628 31.9908 30.9396 31.988H30.893Z" fill="black"/>
</svg>
