<svg width="80" height="80" viewBox="0 0 80 80" fill="none" xmlns="http://www.w3.org/2000/svg">
<path d="M51.912 31.2888L41.588 25.3278C41.133 25.0598 40.586 24.9028 40 24.9028C39.414 24.9028 38.867 25.0608 38.396 25.3358L38.411 25.3278L28.087 31.2888C27.6052 31.5686 27.2051 31.9697 26.9265 32.4522C26.6479 32.9347 26.5005 33.4817 26.499 34.0388V45.9608C26.5002 46.5153 26.646 47.0599 26.922 47.5408C27.1981 48.0217 27.5948 48.4222 28.073 48.7028L28.089 48.7108L38.411 54.6718C38.8939 54.952 39.4427 55.0987 40.001 55.0968C40.585 55.0968 41.132 54.9388 41.603 54.6638L41.589 54.6718L51.911 48.7108C52.3928 48.431 52.7929 48.0299 53.0715 47.5475C53.3501 47.065 53.4975 46.518 53.499 45.9608V34.0388C53.4983 33.4844 53.3527 32.9398 53.0768 32.4588C52.801 31.9779 52.4043 31.5774 51.926 31.2968L51.912 31.2888ZM51.383 45.9608C51.383 46.3498 51.172 46.6908 50.857 46.8748L50.853 46.8768L40.529 52.8378C40.3671 52.9315 40.1832 52.9806 39.9961 52.9801C39.809 52.9796 39.6254 52.9294 39.464 52.8348L39.469 52.8368L29.145 46.8758C28.9842 46.783 28.8507 46.6495 28.7578 46.4887C28.665 46.3279 28.6161 46.1455 28.616 45.9598V34.0378C28.616 33.6488 28.827 33.3078 29.142 33.1238L29.146 33.1218L39.47 27.1608C39.632 27.0675 39.8157 27.0185 40.0027 27.0186C40.1896 27.0188 40.3732 27.0682 40.535 27.1618L40.529 27.1598L50.853 33.1208C51.172 33.3058 51.382 33.6478 51.382 34.0368L51.383 45.9608Z" fill="black"/>
<path d="M46.094 43.4511H45.336C45.1555 43.4507 44.978 43.4972 44.821 43.5861L44.827 43.5821L40.253 46.0941L34.971 43.0451V36.9631L40.253 33.9121L44.829 36.4161C44.975 36.4981 45.152 36.5471 45.337 36.5471H46.095C46.1646 36.547 46.2335 36.5331 46.2977 36.5064C46.362 36.4796 46.4203 36.4405 46.4694 36.3912C46.5186 36.3419 46.5575 36.2834 46.584 36.219C46.6105 36.1547 46.6241 36.0857 46.624 36.0161V35.3001C46.6241 35.2058 46.599 35.1132 46.5514 35.0318C46.5037 34.9504 46.4352 34.8832 46.353 34.8371L46.349 34.8351L41.271 32.0581C40.9504 31.8829 40.59 31.7935 40.2246 31.7985C39.8593 31.8036 39.5015 31.903 39.186 32.0871L39.196 32.0811L33.915 35.1301C33.594 35.3171 33.3275 35.5847 33.1418 35.9064C32.956 36.2281 32.8575 36.5927 32.856 36.9641V43.0461C32.856 43.8251 33.278 44.5071 33.905 44.8741L33.914 44.8801L39.195 47.9291C39.512 48.1114 39.8707 48.209 40.2365 48.2123C40.6022 48.2156 40.9626 48.1246 41.283 47.9481L41.271 47.9541L46.351 45.1671C46.4346 45.1217 46.5044 45.0545 46.553 44.9726C46.6016 44.8908 46.6271 44.7973 46.627 44.7021V43.9861C46.6267 43.8459 46.5709 43.7115 46.4717 43.6123C46.3726 43.5132 46.2382 43.4574 46.098 43.4571L46.094 43.4511Z" fill="black"/>
</svg>
