<svg width="80" height="80" viewBox="0 0 80 80" fill="none" xmlns="http://www.w3.org/2000/svg">
<g clip-path="url(#clip0_245_33654)">
<path d="M42.8541 34.0387L42.942 34.0973C43.9741 34.7789 44.7142 35.7137 45.2011 36.8433C45.318 37.0186 45.2401 37.116 45.0063 37.1744L44.6108 37.2756C43.7165 37.506 43.0069 37.6998 42.1243 37.9301L41.6209 38.0612C41.4397 38.1061 41.3897 38.0873 41.1969 37.8677L41.1697 37.8366C40.8948 37.525 40.6888 37.3169 40.3246 37.1311L40.2544 37.0965C39.0274 36.4928 37.8395 36.668 36.7294 37.3887C35.405 38.2455 34.7234 39.5115 34.7428 41.089C34.7623 42.6469 35.8334 43.9323 37.372 44.1466C38.6963 44.3219 39.8064 43.8544 40.6828 42.8612C40.8581 42.6469 41.0139 42.4133 41.2086 42.1406H37.45C37.041 42.1406 36.9437 41.8875 37.08 41.5564L37.1475 41.3974C37.3978 40.8151 37.786 39.978 38.0381 39.4994L38.0931 39.3964C38.1605 39.2797 38.2972 39.1219 38.5601 39.1219H44.8276C45.1091 38.2301 45.5658 37.3875 46.1749 36.5901C47.5966 34.7205 49.3105 33.7467 51.628 33.3378C53.6145 32.9872 55.4842 33.1819 57.1785 34.331C58.7171 35.3826 59.6714 36.8044 59.9246 38.674C60.2556 41.3032 59.4961 43.4455 57.6849 45.2762C56.3995 46.581 54.822 47.399 53.0108 47.769C52.485 47.8664 51.9591 47.8858 51.4528 47.9443C49.6805 47.9053 48.0641 47.399 46.7008 46.2305C45.7419 45.4016 45.0815 44.383 44.7533 43.197C44.523 43.6617 44.2491 44.1036 43.9353 44.5166C42.533 46.3668 40.7024 47.5158 38.3848 47.8275C36.4762 48.0806 34.704 47.7105 33.1459 46.542C31.7048 45.4514 30.8868 44.0102 30.6725 42.2186C30.4194 40.0957 31.0426 38.1871 32.328 36.5123C33.7108 34.701 35.5414 33.552 37.7811 33.143C39.5779 32.818 41.2996 33.0184 42.8542 34.0387H42.8541ZM52.1187 36.8294L52.0564 36.8433C50.2452 37.2523 49.0767 38.4013 48.6483 40.232C48.2977 41.7511 49.0377 43.2897 50.44 43.9129C51.5111 44.3803 52.5823 44.3219 53.6145 43.796C55.153 42.9976 55.9905 41.7511 56.0879 40.0762C56.0684 39.8231 56.0684 39.6283 56.0294 39.4335C55.6828 37.5272 53.9462 36.4394 52.1187 36.8294ZM29.095 40.3878C29.1729 40.3878 29.2119 40.4462 29.2119 40.5241L29.1729 40.9916C29.1729 41.0694 29.095 41.1279 29.0366 41.1279L24.7909 41.1084C24.713 41.1084 24.6936 41.05 24.7325 40.9916L25.0052 40.5047C25.0441 40.4462 25.122 40.3878 25.1999 40.3878H29.095ZM29.5234 38.5961C29.6013 38.5961 29.6403 38.6545 29.6209 38.713L29.465 39.1804C29.4455 39.2583 29.3677 39.2972 29.2898 39.2972L20.0779 39.3167C20 39.3167 19.9805 39.2777 20.0195 39.2193L20.4284 38.6935C20.4674 38.6351 20.5648 38.5961 20.6427 38.5961H29.5234ZM30.5362 36.8044C30.6141 36.8044 30.6335 36.8628 30.5946 36.9212L30.2635 37.4276C30.2245 37.486 30.1272 37.5444 30.0687 37.5444L23.0187 37.5249C22.9408 37.5249 22.9213 37.486 22.9602 37.4276L23.3692 36.9018C23.4082 36.8433 23.5055 36.8044 23.5834 36.8044H30.5362Z" fill="#00ACD7"/>
</g>
<defs>
<clipPath id="clip0_245_33654">
<rect width="40" height="15" fill="white" transform="translate(20 33)"/>
</clipPath>
</defs>
</svg>
