<svg width="80" height="80" viewBox="0 0 80 80" fill="none" xmlns="http://www.w3.org/2000/svg">
<g clip-path="url(#clip0_245_33638)">
<path d="M22.9049 46.3861H11V34.4858H22.9049L16.9524 40.4336L22.9049 46.3861Z" fill="url(#paint0_linear_245_33638)"/>
<path d="M41.489 37.4705C42.3107 37.4705 43.0944 37.6944 43.7661 38.0684C44.4379 38.4399 44.9618 38.9996 45.331 39.6738C45.705 40.3836 45.9289 41.1673 45.9289 42.0248C45.9289 42.8823 45.7431 43.6659 45.3692 44.3757C44.9952 45.0475 44.4736 45.6072 43.8018 45.9811C43.1301 46.3932 42.3465 46.579 41.489 46.579C40.6314 46.579 39.8479 46.355 39.1761 45.9811C38.4663 45.6072 37.9448 45.0475 37.5707 44.3757C37.1968 43.7039 37.011 42.8822 37.011 42.0248C37.011 41.1673 37.1968 40.3836 37.5706 39.6738C37.9446 39.002 38.5044 38.4805 39.1761 38.0684C39.8479 37.6562 40.6314 37.4705 41.489 37.4705ZM37.3111 34.4478L31.8993 40.2311L37.3849 46.3861H34.96L29.7723 40.6385V46.3861H27.8691V34.486H29.7723V39.9715L34.922 34.4479H37.3111V34.4478ZM41.4557 39.1807C40.934 39.1807 40.4862 39.2927 40.1121 39.5547C39.7383 39.7785 39.4405 40.1144 39.2166 40.5622C38.9927 40.9743 38.8808 41.496 38.8808 42.0557C38.8808 42.6154 38.9545 43.1013 39.1785 43.5492C39.4024 43.9588 39.7001 44.2947 40.0741 44.5567C40.4838 44.8187 40.9339 44.9307 41.4176 44.9307C41.9011 44.9307 42.3488 44.8187 42.7228 44.5568C43.0968 44.3329 43.3946 43.997 43.6184 43.5492C43.8424 43.1014 43.9543 42.6154 43.9543 42.0557C43.9543 41.496 43.8804 41.0101 43.6566 40.5622C43.4326 40.1525 43.1349 39.8167 42.7609 39.5547C42.3893 39.2927 41.9415 39.1807 41.4557 39.1807ZM49.7758 35.4934H47.9464V36.987C47.9464 37.2108 47.9083 37.3966 47.7606 37.5086C47.6487 37.6206 47.4629 37.6944 47.239 37.6944H46.3434V39.2617H47.9107V43.9636C47.9107 44.4496 48.0226 44.8974 48.2084 45.2689C48.3931 45.6406 48.6943 45.9417 49.066 46.1264C49.4398 46.3503 49.8495 46.4241 50.3712 46.4241H51.7884V44.7832H50.7428C50.4808 44.7832 50.2569 44.7093 50.0711 44.4854C49.9018 44.2737 49.8094 44.0109 49.8091 43.7399V39.2619H51.8242V37.6943H49.809V35.4933H49.7757L49.7758 35.4934ZM53.2462 34H55.1113V46.3861H53.2462V34ZM57.2382 34.0381H59.1415V35.9793H57.2383V34.0381H57.2382ZM57.2382 37.6944H59.1034V46.4218H57.2383V37.6944H57.2382ZM68.6216 39.1116C68.3595 38.59 67.988 38.1779 67.5021 37.9183C67.0161 37.6206 66.4564 37.4705 65.8228 37.4705C65.1511 37.4705 64.5532 37.6562 64.0317 37.9564C63.6219 38.2185 63.286 38.59 63.024 39.002V37.6586H61.2328V46.3861H63.0979V41.496C63.0979 41.01 63.1717 40.6003 63.3599 40.2263C63.5457 39.8524 63.8077 39.5928 64.1054 39.3688C64.4413 39.183 64.8152 39.0711 65.2631 39.0711C65.6727 39.0711 65.9728 39.145 66.2706 39.3331C66.5683 39.5213 66.7566 39.7429 66.9042 40.0429C67.0543 40.3408 67.1281 40.7147 67.1281 41.1243V46.3479H68.9931V40.9005C69.0337 40.2311 68.8859 39.6357 68.6216 39.1117V39.1116Z" fill="black"/>
</g>
<defs>
<linearGradient id="paint0_linear_245_33638" x1="22.9038" y1="34.4893" x2="11.0058" y2="46.3871" gradientUnits="userSpaceOnUse">
<stop offset="0.00344" stop-color="#E44857"/>
<stop offset="0.4689" stop-color="#C711E1"/>
<stop offset="1" stop-color="#7F52FF"/>
</linearGradient>
<clipPath id="clip0_245_33638">
<rect width="58" height="12.6874" fill="white" transform="translate(11 34)"/>
</clipPath>
</defs>
</svg>
