<svg width="80" height="80" viewBox="0 0 80 80" fill="none" xmlns="http://www.w3.org/2000/svg">
<g clip-path="url(#clip0_245_33663)">
<path d="M54.563 33.369L54.427 33.062L54.198 33.311C53.6555 33.9311 52.9666 34.4058 52.194 34.692L51.979 34.775L52.068 34.983C52.7308 36.5704 53.0707 38.2739 53.068 39.994C53.068 47.202 47.208 53.067 39.995 53.067C32.782 53.067 26.927 47.207 26.927 39.999C26.927 32.791 32.798 26.926 40 26.926C41.959 26.926 43.844 27.349 45.599 28.187L45.807 28.286L45.896 28.082C46.2186 27.3241 46.7248 26.6584 47.369 26.145L47.63 25.932L47.333 25.776C45.0667 24.6039 42.5515 23.9947 40 24C31.177 24 24 31.177 24 40C24 48.828 31.177 56 40 56C48.828 56 56 48.828 56 40C56 37.693 55.521 35.464 54.563 33.369ZM40 32.708C38.0666 32.7099 36.2129 33.4787 34.8458 34.8459C33.4787 36.213 32.7099 38.0666 32.708 40C32.7099 41.9334 33.4787 43.7871 34.8458 45.1542C36.2129 46.5213 38.0666 47.2902 40 47.292C41.9334 47.2902 43.7871 46.5213 45.1542 45.1542C46.5213 43.7871 47.2901 41.9334 47.292 40C47.2901 38.0666 46.5213 36.213 45.1542 34.8459C43.7871 33.4787 41.9334 32.7099 40 32.708ZM53.792 30.031C53.7923 30.4675 53.7065 30.8998 53.5396 31.3032C53.3727 31.7065 53.128 32.073 52.8194 32.3817C52.5108 32.6904 52.1443 32.9352 51.741 33.1023C51.3378 33.2693 50.9055 33.3552 50.469 33.355C50.0321 33.3557 49.5993 33.2702 49.1954 33.1034C48.7916 32.9367 48.4245 32.692 48.1153 32.3832C47.8062 32.0745 47.5609 31.7078 47.3935 31.3042C47.2261 30.9006 47.14 30.468 47.14 30.031C47.14 25.599 53.792 25.599 53.792 30.031Z" fill="black"/>
</g>
<defs>
<clipPath id="clip0_245_33663">
<rect width="32" height="32" fill="white" transform="translate(24 24)"/>
</clipPath>
</defs>
</svg>
