<svg width="80" height="80" viewBox="0 0 80 80" fill="none" xmlns="http://www.w3.org/2000/svg">
<g clip-path="url(#clip0_245_33613)">
<path d="M32.3682 24C31.3978 24.0021 30.4479 24.553 29.9595 25.3933L22.3617 38.5913C21.8807 39.4338 21.8807 40.5352 22.3617 41.3777L29.9595 54.5759C30.4479 55.4161 31.3978 55.9672 32.3682 55.9691H47.5637C48.5341 55.967 49.484 55.4161 49.9724 54.5759L57.5701 41.3777C58.0511 40.5352 58.051 39.4338 57.5701 38.5913L49.9724 25.3933C49.484 24.5528 48.5341 24.002 47.5637 24H32.3682ZM32.5061 31.7211C32.527 31.719 32.5489 31.719 32.5699 31.7211H35.1908C35.249 31.723 35.3058 31.7396 35.3559 31.7693C35.406 31.7991 35.4478 31.841 35.4774 31.8912L39.9235 39.8143C39.946 39.8536 39.9603 39.8971 39.9656 39.942C39.9713 39.8971 39.9856 39.8536 40.008 39.8143L44.4435 31.8912C44.4741 31.8396 44.5176 31.7968 44.5696 31.7669C44.6217 31.7371 44.6806 31.7213 44.7407 31.7211H47.3617C47.5937 31.7231 47.7676 32.0154 47.6588 32.2209L43.3188 39.9846L47.6588 47.7375C47.7779 47.9441 47.5999 48.25 47.3617 48.248H44.7407C44.6796 48.2467 44.62 48.2293 44.5678 48.1976C44.5156 48.1658 44.4727 48.1209 44.4435 48.0672L40.008 40.144C39.9856 40.1047 39.9712 40.0613 39.9658 40.0164C39.9603 40.0614 39.946 40.1048 39.9235 40.1441L35.4772 48.0672C35.449 48.1193 35.4078 48.1633 35.3577 48.195C35.3075 48.2266 35.2501 48.2449 35.1909 48.248H32.5697C32.3315 48.2501 32.1536 47.9441 32.2726 47.7375L36.6127 39.9846L32.2726 32.2209C32.1686 32.0334 32.2955 31.7611 32.506 31.7211H32.5061Z" fill="#3498DB"/>
</g>
<defs>
<clipPath id="clip0_245_33613">
<rect width="35.9311" height="32" fill="white" transform="translate(22 24)"/>
</clipPath>
</defs>
</svg>
