<svg width="80" height="80" viewBox="0 0 80 80" fill="none" xmlns="http://www.w3.org/2000/svg">
<g clip-path="url(#clip0_245_33602)">
<path d="M35.7394 48.7375C35.7394 48.7375 34.5021 49.4473 36.62 49.6875C39.1859 49.9762 40.4971 49.9349 43.3247 49.4069C43.3247 49.4069 44.0682 49.8667 45.1063 50.2651C38.7677 52.945 30.7607 50.1098 35.7394 48.7375ZM34.9649 45.2402C34.9649 45.2402 33.5771 46.2537 35.6966 46.4699C38.4375 46.7489 40.602 46.7717 44.3475 46.0602C44.3475 46.0602 44.8655 46.5783 45.6801 46.8617C38.0163 49.0725 29.4803 47.036 34.9649 45.2402Z" fill="#5382A1"/>
<path d="M41.4946 39.3078C43.0564 41.0817 41.0842 42.678 41.0842 42.678C41.0842 42.678 45.0499 40.6584 43.2286 38.1293C41.5277 35.7709 40.2231 34.5989 47.285 30.5586C47.285 30.5586 36.2002 33.2897 41.4946 39.3077" fill="#E76F00"/>
<path d="M49.8778 51.3242C49.8778 51.3242 50.7934 52.0684 48.8693 52.6442C45.2106 53.7377 33.6413 54.0678 30.4274 52.6878C29.2721 52.1921 31.4386 51.504 32.1201 51.3595C32.8308 51.2075 33.237 51.2358 33.237 51.2358C31.9522 50.3429 24.9324 52.9891 29.6714 53.7468C42.5951 55.8144 53.23 52.8159 49.8778 51.3242ZM36.3343 41.6167C36.3343 41.6167 30.4495 42.9957 34.2504 43.4963C35.8552 43.7083 39.0544 43.6604 42.0345 43.414C44.4699 43.2114 46.9154 42.7804 46.9154 42.7804C46.9154 42.7804 46.0566 43.1433 45.4353 43.5618C39.4593 45.1123 27.9148 44.391 31.2383 42.805C34.049 41.4647 36.3344 41.6167 36.3344 41.6167M46.8911 47.4379C52.9661 44.3238 50.1572 41.3311 48.1967 41.7343C47.7162 41.8329 47.502 41.9184 47.502 41.9184C47.502 41.9184 47.6804 41.6428 48.021 41.5235C51.8995 40.1783 54.8823 45.4908 46.769 47.5949C46.769 47.595 46.863 47.5121 46.8911 47.4379Z" fill="#5382A1"/>
<path d="M43.2285 24.0343C43.2285 24.0343 46.5929 27.3545 40.0375 32.4598C34.7808 36.5552 38.8388 38.8903 40.0353 41.5582C36.9669 38.8272 34.715 36.4229 36.2258 34.1853C38.4431 30.9005 44.5859 29.308 43.2285 24.0342" fill="#E76F00"/>
<path d="M36.9312 55.8764C42.7624 56.2447 51.7167 55.6721 51.9288 52.9502C51.9288 52.9502 51.5212 53.9821 47.1097 54.8016C42.1327 55.7255 35.9943 55.6177 32.3535 55.0255C32.3536 55.0255 33.0988 55.634 36.9313 55.8764" fill="#5382A1"/>
</g>
<defs>
<clipPath id="clip0_245_33602">
<rect width="24" height="32" fill="white" transform="translate(28 24)"/>
</clipPath>
</defs>
</svg>
