<svg width="80" height="80" viewBox="0 0 80 80" fill="none" xmlns="http://www.w3.org/2000/svg">
<path d="M46.019 56C45.6723 55.9999 45.3283 55.9392 45.0026 55.8206L25.972 48.914C25.6021 48.7799 25.2623 48.5742 24.972 48.3086C24.6817 48.043 24.4467 47.7228 24.2804 47.3663C24.1141 47.0099 24.0197 46.6241 24.0028 46.2311C23.9858 45.8381 24.0466 45.4456 24.1816 45.0761L31.165 25.9634C31.4379 25.2201 31.9941 24.615 32.7121 24.2805C33.43 23.9459 34.2513 23.9092 34.9963 24.1782L54.028 31.0847C54.3979 31.2188 54.7377 31.4246 55.028 31.6901C55.3183 31.9557 55.5533 32.2759 55.7196 32.6324C55.8859 32.9889 55.9803 33.3747 55.9972 33.7677C56.0142 34.1607 55.9534 34.5531 55.8184 34.9226L55.2182 36.565C55.1393 36.7842 55.0039 36.9788 54.8256 37.1289C54.6473 37.2791 54.4325 37.3794 54.2029 37.4199C53.9777 37.4625 53.7452 37.4449 53.529 37.3688C53.3127 37.2927 53.1204 37.1609 52.9716 36.9867C52.592 36.5522 52.123 36.2048 51.5968 35.9681C51.0705 35.7314 50.4994 35.611 49.9223 35.6152H49.9075C48.8818 35.5981 47.8912 35.9881 47.1527 36.6997C46.4142 37.4114 45.988 38.3867 45.9676 39.4119C45.9942 40.4348 46.4248 41.4057 47.1651 42.1123C47.9054 42.819 48.8955 43.2041 49.9189 43.1835H49.9338C50.1916 43.1827 50.4488 43.1579 50.7021 43.1092C50.9296 43.064 51.165 43.0809 51.3837 43.1581C51.6024 43.2354 51.7963 43.3701 51.9449 43.5481C52.0983 43.7283 52.2012 43.9459 52.2432 44.1788C52.2852 44.4116 52.2647 44.6515 52.1838 44.8739L48.8316 54.0491C48.6179 54.6223 48.2339 55.1164 47.7311 55.4651C47.2284 55.8139 46.6309 56.0005 46.019 56ZM33.9787 24.9954C33.5695 24.9955 33.1702 25.1212 32.8346 25.3554C32.4991 25.5897 32.2436 25.9211 32.1025 26.3051L25.118 45.4236C25.0281 45.6699 24.9878 45.9314 24.9991 46.1933C25.0105 46.4552 25.0734 46.7123 25.1843 46.9499C25.2952 47.1874 25.4518 47.4008 25.6452 47.5778C25.8386 47.7548 26.0651 47.892 26.3116 47.9814L45.3433 54.8822C45.8401 55.0617 46.3877 55.0371 46.8664 54.8139C47.345 54.5907 47.7158 54.1871 47.8975 53.6913L51.2497 44.5161C51.2699 44.4595 51.2748 44.3985 51.264 44.3393C51.2532 44.2801 51.227 44.2248 51.188 44.179C51.1533 44.1359 51.1074 44.1033 51.0554 44.0845C51.0034 44.0658 50.9472 44.0617 50.893 44.0727C50.5784 44.1332 50.2587 44.1642 49.9383 44.1653H49.92C48.6333 44.1855 47.3907 43.6961 46.4637 42.8038C45.5366 41.9115 45.0003 40.6889 44.9717 39.4028C44.9907 38.1128 45.5208 36.8829 46.4456 35.983C47.3705 35.0832 48.6146 34.5867 49.9052 34.6026H49.9235C50.6444 34.5991 51.3577 34.7512 52.0144 35.0487C52.6711 35.3462 53.2557 35.7819 53.7284 36.3261C53.7644 36.368 53.8109 36.3996 53.8632 36.4177C53.9154 36.4358 53.9715 36.4397 54.0257 36.429C54.0839 36.419 54.1384 36.3938 54.1836 36.3558C54.2288 36.3178 54.2631 36.2685 54.2829 36.2129L54.8832 34.5717C54.9732 34.3254 55.0137 34.0637 55.0024 33.8017C54.9911 33.5397 54.9282 33.2825 54.8173 33.0448C54.7065 32.8071 54.5498 32.5936 54.3563 32.4165C54.1628 32.2394 53.9362 32.1022 53.6896 32.0128L34.6567 25.1154C34.4394 25.0362 34.21 24.9956 33.9787 24.9954Z" fill="black"/>
<path d="M49.9211 41.7134C49.3039 41.7145 48.7115 41.4704 48.2743 41.0349C47.8371 40.5993 47.5909 40.008 47.5898 39.3911C47.5888 38.7741 47.833 38.1819 48.2686 37.7449C48.7043 37.3079 49.2959 37.0617 49.9131 37.0607C50.2189 37.0574 50.5223 37.1155 50.8053 37.2315C51.0883 37.3475 51.3451 37.5191 51.5606 37.7361C51.887 38.0604 52.1099 38.4742 52.2012 38.925C52.2924 39.3759 52.2479 39.8437 52.0733 40.2693C51.8988 40.695 51.6019 41.0593 51.2202 41.3163C50.8386 41.5734 50.3893 41.7116 49.9291 41.7134H49.9211ZM49.9211 38.2242C49.6189 38.2336 49.3322 38.3603 49.1218 38.5773C48.9113 38.7944 48.7937 39.0848 48.7937 39.3871C48.7937 39.6893 48.9113 39.9797 49.1218 40.1968C49.3322 40.4138 49.6189 40.5405 49.9211 40.55C50.2233 40.5405 50.51 40.4138 50.7204 40.1968C50.9308 39.9797 51.0485 39.6893 51.0485 39.3871C51.0485 39.0848 50.9308 38.7944 50.7204 38.5773C50.51 38.3603 50.2233 38.2336 49.9211 38.2242Z" fill="black"/>
<path d="M46.048 55.1118C45.8117 55.1118 45.5772 55.0704 45.3551 54.9895L26.2342 48.0464C25.7273 47.8608 25.3149 47.4815 25.0877 46.992C24.8604 46.5025 24.8369 45.9428 25.0223 45.436L32.0274 26.2181C32.213 25.712 32.5916 25.2999 33.0803 25.072C33.569 24.8441 34.1281 24.819 34.6354 25.0021L53.7563 31.9452C54.0081 32.0362 54.2395 32.176 54.4372 32.3565C54.6349 32.537 54.795 32.7548 54.9084 32.9972C55.0219 33.2397 55.0863 33.5021 55.0981 33.7696C55.11 34.037 55.0689 34.3041 54.9773 34.5556L54.3657 36.2265C54.3433 36.2876 54.3054 36.3419 54.2556 36.3838C54.2057 36.4257 54.1458 36.4538 54.0818 36.4654C54.0177 36.4769 53.9517 36.4715 53.8904 36.4496C53.8291 36.4278 53.7746 36.3903 53.7323 36.3408C53.26 35.7944 52.6749 35.3567 52.0173 35.0578C51.3597 34.7589 50.6451 34.6059 49.9227 34.6093C48.6337 34.5891 47.3894 35.0807 46.4624 35.9762C45.5355 36.8718 45.0016 38.0982 44.9778 39.3866C45.0016 40.6751 45.5355 41.9015 46.4624 42.797C47.3894 43.6926 48.6337 44.1842 49.9227 44.164C50.2512 44.1641 50.5789 44.1327 50.9014 44.0702C50.9663 44.0575 51.0334 44.0622 51.0958 44.0839C51.1582 44.1057 51.2138 44.1436 51.2567 44.1938C51.2996 44.2441 51.3284 44.3049 51.3401 44.3699C51.3518 44.4349 51.346 44.5019 51.3233 44.564L47.9631 53.7758C47.8189 54.1676 47.558 54.5058 47.2156 54.7447C46.8731 54.9836 46.4656 55.1117 46.048 55.1118ZM33.9402 25.2947C33.6076 25.2948 33.2831 25.397 33.0105 25.5875C32.7379 25.778 32.5305 26.0476 32.4162 26.3599L25.4076 45.5789C25.3347 45.7788 25.3019 45.9911 25.3111 46.2037C25.3204 46.4163 25.3714 46.6249 25.4613 46.8178C25.5513 47.0107 25.6783 47.1839 25.8353 47.3277C25.9922 47.4714 26.176 47.5828 26.376 47.6555L45.4969 54.5987C45.9007 54.7449 46.346 54.7251 46.7352 54.5436C47.1244 54.3621 47.4257 54.0338 47.5732 53.6306L50.9083 44.4874C50.5834 44.5459 50.2539 44.5754 49.9239 44.5754C48.5247 44.5956 47.1747 44.0603 46.1697 43.087C45.1647 42.1137 44.5869 40.7818 44.5628 39.3832C44.5872 37.9849 45.1652 36.6532 46.1701 35.6801C47.175 34.7071 48.5249 34.172 49.9239 34.1922C50.6939 34.1889 51.4558 34.3497 52.1588 34.6638C52.8618 34.9779 53.4898 35.4382 54.0009 36.0139L54.584 34.4139C54.7301 34.0104 54.7101 33.5655 54.5283 33.1768C54.3466 32.788 54.0179 32.4873 53.6145 32.3407L34.4936 25.3918C34.3162 25.3273 34.1289 25.2944 33.9402 25.2947Z" fill="#6873CF"/>
<path d="M44.7708 39.3845C44.7928 38.0402 45.348 36.7597 46.3143 35.8246C47.2807 34.8894 48.579 34.3763 49.9238 34.398C50.6762 34.3946 51.4204 34.5541 52.1053 34.8657C52.7902 35.1772 53.3994 35.6333 53.8911 36.2026C53.9099 36.2245 53.9342 36.2411 53.9614 36.2506C53.9887 36.2602 54.0179 36.2624 54.0463 36.2571C54.0747 36.2518 54.1012 36.2391 54.1231 36.2203C54.145 36.2015 54.1616 36.1773 54.1712 36.1501L54.7795 34.4826C54.8617 34.2569 54.8986 34.0173 54.8882 33.7774C54.8778 33.5374 54.8201 33.3019 54.7186 33.0842C54.6171 32.8666 54.4737 32.671 54.2966 32.5087C54.1195 32.3465 53.9122 32.2206 53.6864 32.1385L34.5655 25.1976C34.1111 25.0327 33.6098 25.0544 33.1712 25.2578C32.7327 25.4613 32.3925 25.83 32.2252 26.2834L25.212 45.507C25.1298 45.7327 25.0929 45.9723 25.1033 46.2122C25.1137 46.4522 25.1713 46.6877 25.2728 46.9054C25.3743 47.123 25.5177 47.3186 25.6948 47.4809C25.8719 47.6431 26.0793 47.7689 26.305 47.8511L45.4259 54.7942C45.8814 54.9595 46.3839 54.9375 46.8231 54.7328C47.2623 54.5282 47.6024 54.1577 47.7686 53.7027L51.1288 44.491C51.1388 44.4635 51.1413 44.4339 51.1362 44.4051C51.131 44.3763 51.1183 44.3494 51.0994 44.3272C51.0805 44.3049 51.056 44.288 51.0284 44.2782C51.0009 44.2685 50.9712 44.2661 50.9425 44.2715C50.6068 44.3369 50.2657 44.3698 49.9238 44.3698C48.5792 44.3915 47.281 43.8785 46.3147 42.9437C45.3484 42.0088 44.7931 40.7286 44.7708 39.3845Z" fill="url(#paint0_linear_245_34021)"/>
<path d="M52.9199 41.3525L53.503 40.1582L55.1974 40.9834L54.6143 42.1789L52.9199 41.3525Z" fill="black"/>
<defs>
<linearGradient id="paint0_linear_245_34021" x1="39.9952" y1="25.0868" x2="39.9952" y2="54.9051" gradientUnits="userSpaceOnUse">
<stop stop-color="#808DFF"/>
<stop offset="0.298" stop-color="#838FFF"/>
<stop offset="0.478" stop-color="#8B96FF"/>
<stop offset="0.626" stop-color="#99A2FF"/>
<stop offset="0.756" stop-color="#ADB2FF"/>
<stop offset="0.875" stop-color="#C7C8FF"/>
<stop offset="0.9" stop-color="#CECDFF"/>
</linearGradient>
</defs>
</svg>
