<svg width="80" height="80" viewBox="0 0 80 80" fill="none" xmlns="http://www.w3.org/2000/svg">
<path opacity="0.2" d="M55.1566 41.5335C56.0895 40.7144 56.0895 39.3958 55.1566 38.5768L41.6881 26.7515C40.7552 25.9325 39.2532 25.9325 38.3206 26.7515L24.852 38.5768C23.9191 39.3958 23.9191 40.7144 24.852 41.5335L38.3206 53.3588C39.2535 54.1778 40.7552 54.1778 41.6881 53.3588L55.1566 41.5335Z" fill="black"/>
<path d="M55.1483 40.5422C56.0812 39.7232 56.0812 38.4046 55.1483 37.5856L41.6798 25.7603C40.7469 24.9412 39.2449 24.9412 38.3123 25.7603L24.8437 37.5856C23.9108 38.4046 23.9108 39.7232 24.8437 40.5422L38.3123 52.3675C39.2452 53.1866 40.7469 53.1866 41.6798 52.3675L55.1483 40.5422Z" fill="#66B744"/>
<path opacity="0.2" fill-rule="evenodd" clip-rule="evenodd" d="M40.0003 29.1206C38.0204 29.1206 36.329 29.3285 34.9005 29.7517L30.3848 33.7165C30.1311 34.6459 30.0163 35.6636 30.1106 36.3261C30.601 39.7714 34.7163 42.0443 40.0003 42.0443C43.7746 42.0443 45.6591 43.7478 45.7347 44.2791C45.7724 44.5449 45.8053 45.7006 45.1088 46.1198C44.4123 46.539 42.5289 47.0149 40.0003 47.0149C36.9001 47.0149 33.1979 45.2887 33.1979 45.2887C32.0266 44.6772 30.6111 45.1249 30.042 46.0944L34.684 50.1703C36.1987 50.6125 38.0325 50.9916 40.0003 50.9916C41.9803 50.9916 43.6717 50.7837 45.1002 50.3605L49.6162 46.3957C49.8699 45.4663 49.9846 44.4486 49.8904 43.7861C49.3997 40.3411 45.2844 38.0679 40.0003 38.0679C36.2261 38.0679 34.4542 36.3644 34.3787 35.8331C34.3409 35.5673 34.3081 34.4116 35.0046 33.9924C35.7011 33.5732 37.4715 33.0973 40.0003 33.0973C43.1006 33.0973 46.8028 34.8235 46.8028 34.8235C47.9741 35.435 49.3896 34.9876 49.9587 34.0178L45.3169 29.9419C43.8023 29.4997 41.9685 29.1206 40.0006 29.1206H40.0003Z" fill="black"/>
<path fill-rule="evenodd" clip-rule="evenodd" d="M40.0003 28.1265C38.0204 28.1265 36.329 28.3343 34.9005 28.7575L30.3848 32.7224C30.1311 33.6518 30.0163 34.6695 30.1106 35.3319C30.601 38.7773 34.7163 41.0501 40.0003 41.0501C43.7746 41.0501 45.6591 42.7536 45.7347 43.285C45.7724 43.5508 45.8053 44.7065 45.1088 45.1257C44.4123 45.5448 42.5289 46.0208 40.0003 46.0208C36.9001 46.0208 33.1979 44.2945 33.1979 44.2945C32.0266 43.6831 30.6111 44.1308 30.042 45.1003L34.684 49.1761C36.1987 49.6184 38.0325 49.9975 40.0003 49.9975C41.9803 49.9975 43.6717 49.7896 45.1002 49.3664L49.6162 45.4016C49.8699 44.4721 49.9846 43.4545 49.8904 42.792C49.4 39.3466 45.2847 37.0738 40.0006 37.0738C36.2264 37.0738 34.4545 35.3703 34.379 34.839C34.3412 34.5735 34.3084 33.4177 35.0049 32.9982C35.7014 32.5788 37.4718 32.1031 40.0006 32.1031C43.1009 32.1031 46.8031 33.8294 46.8031 33.8294C47.9744 34.4408 49.3899 33.9934 49.959 33.0236L45.3169 28.9478C43.8023 28.5056 41.9685 28.1265 40.0006 28.1265H40.0003Z" fill="white"/>
<path opacity="0.2" d="M40.0006 25.144C39.392 25.144 38.784 25.3482 38.3175 25.7575L24.8473 37.5845C24.2347 38.1222 24.0337 38.8732 24.226 39.559C24.3263 39.2007 24.5276 38.8594 24.8476 38.5786L38.3175 26.7518C39.2502 25.9328 40.7507 25.9328 41.6833 26.7518L55.1536 38.5786C55.4736 38.8596 55.6745 39.2007 55.7751 39.559C55.9674 38.8732 55.7665 38.1222 55.1536 37.5843L41.6833 25.7575C41.2172 25.3482 40.6092 25.144 40.0006 25.144Z" fill="white"/>
</svg>
