<svg width="80" height="80" viewBox="0 0 80 80" fill="none" xmlns="http://www.w3.org/2000/svg">
<g clip-path="url(#clip0_245_34014)">
<path d="M52.8552 24.0004C52.8934 23.998 52.9315 24.0063 52.9653 24.0244C52.999 24.0426 53.0269 24.0698 53.0459 24.1031C53.0649 24.1364 53.0742 24.1743 53.0727 24.2125C53.0713 24.2508 53.0591 24.2879 53.0375 24.3196L45.1508 35.0327C45.1222 35.0649 45.0871 35.0908 45.0478 35.1084C45.0085 35.1261 44.9659 35.1353 44.9229 35.1353C44.8798 35.1353 44.8372 35.1261 44.7979 35.1084C44.7586 35.0908 44.7235 35.0649 44.6949 35.0327L41.914 31.9327C41.8805 31.8979 41.8396 31.8711 41.7943 31.8542C41.749 31.8374 41.7005 31.8309 41.6524 31.8353C41.6042 31.8397 41.5577 31.8548 41.5162 31.8796C41.4747 31.9044 41.4393 31.9381 41.4126 31.9784L39.7258 34.121C39.6996 34.1802 39.69 34.2454 39.698 34.3097C39.7061 34.3739 39.7315 34.4348 39.7715 34.4857L44.7861 39.6827C44.8146 39.7149 44.8497 39.7408 44.889 39.7585C44.9283 39.7762 44.9709 39.7853 45.014 39.7853C45.0571 39.7853 45.0998 39.7762 45.1391 39.7585C45.1784 39.7408 45.2135 39.7149 45.242 39.6827L55.0889 28.605C55.1173 28.5744 55.1542 28.5529 55.1948 28.5433C55.2354 28.5338 55.278 28.5365 55.3171 28.5511C55.3562 28.5658 55.39 28.5917 55.4143 28.6257C55.4386 28.6596 55.4523 28.7 55.4536 28.7418V55.6842C55.4555 55.7147 55.4508 55.7451 55.44 55.7736C55.4292 55.8021 55.4125 55.828 55.3909 55.8496C55.3694 55.8711 55.3435 55.8878 55.315 55.8986C55.2865 55.9094 55.256 55.914 55.2256 55.9122H25.2289C25.1985 55.914 25.168 55.9094 25.1395 55.8986C25.111 55.8878 25.0851 55.8711 25.0636 55.8496C25.042 55.828 25.0253 55.8021 25.0145 55.7736C25.0037 55.7451 24.999 55.7147 25.0009 55.6842V24.2285C24.999 24.198 25.0036 24.1675 25.0144 24.139C25.0252 24.1105 25.042 24.0846 25.0635 24.063C25.0851 24.0415 25.111 24.0247 25.1395 24.0139C25.168 24.0032 25.1985 23.9985 25.2289 24.0004H52.8552ZM45.1052 42.1901C44.4336 42.1783 43.7665 42.3026 43.1442 42.5556C42.522 42.8086 41.9574 43.185 41.4845 43.6621C41.0116 44.1392 40.6403 44.7071 40.3929 45.3317C40.1455 45.9562 40.0271 46.6243 40.0449 47.2958C40.0449 50.4415 42.3243 52.4473 45.2875 52.4473C46.6592 52.4815 48.0044 52.0652 49.117 51.262C49.1669 51.2167 49.199 51.155 49.2073 51.0881C49.2157 51.0212 49.1998 50.9535 49.1626 50.8973L48.342 49.6664C48.2974 49.6154 48.2356 49.5825 48.1683 49.5741C48.101 49.5657 48.033 49.5823 47.9773 49.6209C47.2641 50.108 46.4246 50.3772 45.5612 50.3959C43.9655 50.3959 42.9625 49.393 42.7803 48.2076C42.7819 48.184 42.792 48.1618 42.8088 48.145C42.8255 48.1283 42.8478 48.1181 42.8714 48.1165H49.7552C49.8262 48.1117 49.893 48.0813 49.9433 48.031C49.9936 47.9807 50.0239 47.9139 50.0287 47.8429V47.5693C50.0287 44.3782 48.0228 42.19 45.1052 42.19V42.1901ZM38.3127 40.4577C36.928 39.3259 35.1759 38.7419 33.3891 38.8165C30.2891 38.8165 28.3745 40.6401 28.3745 42.8283C28.3745 47.7974 35.942 46.2018 35.942 48.5268C35.942 49.2562 35.2126 49.9856 33.6627 49.9856C32.1906 49.9977 30.7703 49.4427 29.6966 48.4356C29.6649 48.4059 29.6272 48.3834 29.5861 48.3695C29.545 48.3556 29.5014 48.3506 29.4583 48.3549C29.4151 48.3593 29.3733 48.3727 29.3358 48.3945C29.2982 48.4163 29.2658 48.4458 29.2406 48.4811L28.0554 50.1223C28.0182 50.1785 28.0023 50.2462 28.0107 50.3131C28.0191 50.38 28.0512 50.4417 28.1011 50.487C29.332 51.6267 31.0644 52.4018 33.4804 52.4018C37.0362 52.4018 38.7686 50.5781 38.8598 48.2076C38.8598 43.2842 31.2922 44.6974 31.2922 42.6004C31.2922 41.8254 31.9761 41.2783 33.1613 41.2783C34.4679 41.2604 35.7404 41.6953 36.7627 42.5091C36.7925 42.5335 36.8268 42.5517 36.8637 42.5626C36.9006 42.5735 36.9393 42.577 36.9775 42.5727C37.0157 42.5685 37.0527 42.5566 37.0863 42.5379C37.1199 42.5192 37.1494 42.4939 37.173 42.4636L38.3583 40.868C38.3827 40.8382 38.4009 40.8039 38.4118 40.767C38.4227 40.7302 38.4262 40.6915 38.4219 40.6533C38.4177 40.615 38.4058 40.578 38.3871 40.5445C38.3683 40.5109 38.3431 40.4814 38.3128 40.4577H38.3127ZM45.1508 44.1959C46.3907 44.1265 47.4612 45.0556 47.567 46.293C47.5654 46.3166 47.5552 46.3389 47.5385 46.3556C47.5217 46.3724 47.4995 46.3825 47.4758 46.3841H42.8257C42.8021 46.3825 42.7798 46.3724 42.7631 46.3556C42.7463 46.3389 42.7362 46.3166 42.7346 46.293C42.8871 45.0799 43.9284 44.1761 45.1508 44.1959Z" fill="#2CB134"/>
</g>
<defs>
<clipPath id="clip0_245_34014">
<rect width="30.4542" height="32" fill="white" transform="translate(25 24)"/>
</clipPath>
</defs>
</svg>
