<svg width="80" height="80" viewBox="0 0 80 80" fill="none" xmlns="http://www.w3.org/2000/svg">
<g clip-path="url(#clip0_245_34050)">
<path d="M45.0667 48.5586C44.64 48.5586 44.48 48.3452 44.5333 47.9719L47.36 32.0286C47.4133 31.6552 47.6267 31.4419 48.0533 31.4419H54.0267C58.0267 31.4419 60 32.6686 60 35.1752C60 36.1869 59.7333 37.0936 59.2 37.8419C58.6667 38.6419 57.92 39.1752 56.96 39.4936C57.6 39.6536 58.1867 40.0269 58.56 40.6136C58.9867 41.1469 59.2 41.8936 59.2 42.7469C59.2 44.7719 58.5067 46.2136 57.12 47.1719C55.7333 48.0786 53.8667 48.5586 51.5733 48.5586H45.0667ZM51.68 45.7852C54.4533 45.7852 55.84 44.7719 55.84 42.7469C55.84 42.1069 55.5733 41.6802 55.0933 41.3602C54.6133 41.0402 53.76 40.9336 52.64 40.9336H49.1733L48.32 45.7336H51.68V45.7852ZM52.96 38.4802C55.4133 38.4802 56.5867 37.5736 56.5867 35.7086C56.5867 35.1219 56.3733 34.7486 55.8933 34.4819C55.4133 34.2152 54.6667 34.1086 53.6533 34.1086H50.3467L49.5467 38.4802H52.96ZM41.4933 38.0536C41.4933 37.7848 41.3866 37.5271 41.1965 37.337C41.0065 37.147 40.7488 37.0402 40.48 37.0402H21.0133C20.7446 37.0402 20.4868 37.147 20.2968 37.337C20.1068 37.5271 20 37.7848 20 38.0536C20 38.3223 20.1068 38.5801 20.2968 38.7701C20.4868 38.9601 20.7446 39.0669 21.0133 39.0669H40.4267C41.0133 39.0669 41.4933 38.6402 41.4933 38.0536ZM43.7333 34.4286C43.7333 34.1598 43.6266 33.9021 43.4365 33.712C43.2465 33.522 42.9888 33.4152 42.72 33.4152H30.7733C30.6403 33.4152 30.5085 33.4414 30.3855 33.4924C30.2626 33.5433 30.1509 33.6179 30.0568 33.712C29.9627 33.8061 29.8881 33.9178 29.8371 34.0408C29.7862 34.1637 29.76 34.2955 29.76 34.4286C29.76 34.5616 29.7862 34.6934 29.8371 34.8163C29.8881 34.9393 29.9627 35.051 30.0568 35.1451C30.1509 35.2392 30.2626 35.3138 30.3855 35.3648C30.5085 35.4157 30.6403 35.4419 30.7733 35.4419H42.72C43.2533 35.4419 43.7333 35.0152 43.7333 34.4286ZM39.6267 45.5186C39.6267 45.2498 39.5199 44.9921 39.3299 44.802C39.1398 44.612 38.8821 44.5052 38.6133 44.5052H33.76C33.4912 44.5052 33.2335 44.612 33.0435 44.802C32.8534 44.9921 32.7467 45.2498 32.7467 45.5186C32.7467 45.7873 32.8534 46.0451 33.0435 46.2351C33.2335 46.4251 33.4912 46.5319 33.76 46.5319H38.6133C39.1467 46.5319 39.6267 46.1052 39.6267 45.5186ZM38.1867 41.7336C38.1867 41.4648 38.0799 41.2071 37.8899 41.017C37.6998 40.827 37.4421 40.7202 37.1733 40.7202H25.3333C25.0646 40.7202 24.8068 40.827 24.6168 41.017C24.4268 41.2071 24.32 41.4648 24.32 41.7336C24.32 42.0023 24.4268 42.2601 24.6168 42.4501C24.8068 42.6401 25.0646 42.7469 25.3333 42.7469H37.1733C37.4392 42.7378 37.6917 42.6281 37.8797 42.44C38.0678 42.2519 38.1775 41.9994 38.1867 41.7336Z" fill="black"/>
</g>
<defs>
<clipPath id="clip0_245_34050">
<rect width="40" height="40" fill="white" transform="translate(20 20)"/>
</clipPath>
</defs>
</svg>
