<svg width="80" height="80" viewBox="0 0 80 80" fill="none" xmlns="http://www.w3.org/2000/svg">
<path d="M22.7875 30.6097C22.7875 30.6097 22.2317 29.7097 21.5792 30.0967C21.2642 30.2857 20.7377 30.8122 20.11 31.5772L20.6882 32.6662C21.0431 32.1512 21.4317 31.6604 21.8515 31.1969C21.6737 31.3994 21.298 31.8674 20.7625 32.6864C21.514 32.6347 22.261 32.5424 23.0035 32.4097C23.2262 31.1744 22.7875 30.6097 22.7875 30.6097ZM21.919 31.1227L21.9685 31.0687L21.919 31.1227ZM15.0475 44.6272C14.4197 46.3586 13.839 48.1068 13.306 49.8697C13.2839 49.9408 13.2443 50.0053 13.1908 50.0572C13.1374 50.109 13.0718 50.1467 13 50.1667C13.5175 48.4567 14.0305 46.8457 14.5457 45.3877C14.224 45.3134 13.7672 45.4034 13.2092 45.6352C13.5917 45.3427 13.972 45.0907 14.3342 45.0682C14.2195 45.0434 13.9225 44.9399 13.5242 44.5732C13.9045 44.7149 14.2352 44.7847 14.4737 44.7352C14.4242 44.1007 14.0822 43.4527 13.6322 42.8002C13.63 42.7957 14.2622 43.1624 14.494 43.5427L14.4985 43.4909C14.5367 42.9959 14.6065 42.5054 14.7077 42.0194V42.0149C14.7842 41.6234 14.8787 41.2319 14.9935 40.8404L15.142 40.3387C15.205 40.1429 15.277 39.9427 15.3512 39.7312C15.5987 39.0539 15.88 38.3902 16.195 37.7422L16.276 37.5802C16.564 37.0019 16.87 36.4304 17.194 35.8702C17.365 35.5709 17.5405 35.2807 17.7137 34.9927C17.7295 34.9769 17.7385 34.9544 17.752 34.9342L17.7475 34.9297L17.7655 34.9004C18.2965 34.0454 18.8635 33.2129 19.462 32.4074C19.6288 32.1816 19.8006 31.9595 19.9772 31.7414L20.1077 31.5794L20.6837 32.6639C20.4758 32.9622 20.2747 33.2653 20.0807 33.5729C19.6937 34.1939 19.327 34.8307 18.985 35.4764L18.4967 36.4079L17.9972 35.4202L18.4922 36.4102L18.4765 36.4439C18.3775 36.6464 18.274 36.8489 18.1772 37.0514C18.118 37.1707 18.0602 37.2907 18.004 37.4114L17.5405 38.4104C17.0958 39.4111 16.6683 40.4192 16.258 41.4344L15.853 42.4627C15.8237 42.5402 15.7937 42.6174 15.763 42.6944C15.664 42.9667 15.5582 43.2322 15.4615 43.4977V43.5067L15.3872 43.7047L15.07 44.5619L15.0475 44.6272ZM22.3262 34.2254C22.1037 34.6629 21.8527 35.0853 21.5747 35.4899C21.3362 35.8252 21.0887 36.0524 20.5465 36.3067L20.596 36.2977C20.6005 36.2932 20.6027 36.2932 20.6095 36.2932C20.8907 36.2414 21.2395 36.1267 21.442 36.0074C21.471 35.9927 21.4982 35.9745 21.523 35.9534C21.5116 36.0209 21.4966 36.0878 21.478 36.1537C21.4645 36.2099 21.442 36.2752 21.4195 36.3449L21.3925 36.4192L21.3115 36.6262C21.2421 36.7988 21.1655 36.9684 21.082 37.1347C21.064 37.1774 21.0415 37.2202 21.019 37.2629L20.965 37.3507C20.9095 37.4428 20.8462 37.5301 20.776 37.6117L20.686 37.7107C20.6061 37.7917 20.5212 37.8676 20.4317 37.9379C20.2443 38.0763 20.0402 38.1904 19.8242 38.2777L19.8625 38.2732L20.0065 38.2484C20.2967 38.1787 20.5712 38.0572 20.8187 37.8884C20.5082 38.5072 20.0852 39.0067 19.4057 39.2654L19.5227 39.2497L19.6352 39.2249C19.8337 39.1857 20.0259 39.1199 20.2067 39.0292C20.0861 39.4033 19.951 39.7726 19.8017 40.1362C19.642 40.5277 19.4755 40.8787 19.2955 41.1937C19.0765 41.5883 18.8123 41.9561 18.508 42.2894C17.887 42.9599 16.9217 43.5044 16.1972 43.5944L16.2332 43.6012C17.0567 43.7722 17.9095 43.4954 18.4742 42.8722C18.4004 43.0155 18.3208 43.1559 18.2357 43.2929C17.9027 43.8329 17.5202 44.1614 16.7642 44.5012C17.2817 44.5304 17.5517 44.4089 17.7722 44.1299C17.7363 44.2064 17.6972 44.2815 17.6552 44.3549C17.1715 45.1559 16.2287 45.4304 15.142 45.3809C15.3766 45.5964 15.5172 45.8953 15.5335 46.2134C15.367 45.9119 15.1915 45.6487 14.9687 45.5452L15.2297 44.7937C15.2425 44.7524 15.2575 44.7118 15.2747 44.6722V44.6587L15.5717 43.8262C15.5936 43.7746 15.6131 43.722 15.6302 43.6687L15.637 43.6462L16.0195 42.6247L16.0352 42.5752L16.4132 41.5964C16.5505 41.2387 16.6922 40.8944 16.8272 40.5614C17.104 39.8842 17.3897 39.2114 17.6867 38.5432C17.8037 38.2822 17.914 38.0302 18.0287 37.7872L18.1412 37.5442L18.3595 37.0829C18.4225 36.9412 18.4922 36.8084 18.5575 36.6712L18.6182 36.5407C18.6227 36.5362 18.625 36.5272 18.6227 36.5159L18.6362 36.5137C18.8027 36.1762 18.958 35.8589 19.1155 35.5619C19.453 34.9094 19.8107 34.2659 20.182 33.6337L20.2112 33.5819C20.4092 33.2489 20.596 32.9519 20.7647 32.6909C21.514 32.6392 22.261 32.5469 23.0035 32.4209C22.9787 32.5379 22.954 32.6617 22.918 32.7922C22.8685 32.9631 22.8122 33.132 22.7492 33.2984C22.6261 33.6156 22.4856 33.9258 22.3285 34.2277H22.3262V34.2254ZM27.616 35.7419V46.0829C27.616 46.7129 27.5237 47.2687 27.3347 47.7299C27.1662 48.1703 26.8964 48.5649 26.5472 48.8819C26.2048 49.1938 25.7964 49.4245 25.3525 49.5569C24.8957 49.6987 24.385 49.7707 23.836 49.7707C23.3368 49.7757 22.8389 49.7198 22.3532 49.6042C22.3237 49.5959 22.2977 49.5783 22.279 49.5539C22.2603 49.5296 22.2501 49.4998 22.2497 49.4692V47.5747C22.2496 47.5535 22.2543 47.5326 22.2633 47.5134C22.2723 47.4943 22.2855 47.4774 22.3019 47.464C22.3183 47.4506 22.3375 47.4411 22.358 47.4361C22.3786 47.4311 22.4 47.4308 22.4207 47.4352C22.594 47.4757 22.7852 47.5094 22.9832 47.5364C23.3477 47.5904 23.8292 47.6039 24.1982 47.5139C24.3658 47.4727 24.5211 47.392 24.6511 47.2785C24.7811 47.165 24.8819 47.0219 24.9452 46.8614C25.0294 46.6364 25.0691 46.3973 25.0622 46.1572V35.7397C25.0622 35.6609 25.123 35.5979 25.2017 35.5979H27.4742C27.5552 35.5979 27.616 35.6609 27.616 35.7397V35.7419ZM46.939 38.9819C46.6135 38.645 46.2147 38.3878 45.7735 38.2304C45.2871 38.053 44.7724 37.9661 44.2547 37.9739C43.6832 37.9739 43.1522 38.0662 42.6752 38.2552C42.2072 38.4397 41.7865 38.7277 41.449 39.1034C41.0939 39.5089 40.8259 39.9829 40.6615 40.4962C40.4658 41.1213 40.3723 41.774 40.3847 42.4289C40.3847 43.1489 40.4837 43.7924 40.6885 44.3369C40.8955 44.8769 41.188 45.3337 41.557 45.6937C41.926 46.0469 42.376 46.3147 42.8845 46.4924C43.4227 46.6718 43.9867 46.7615 44.554 46.7579C44.8757 46.7579 45.1547 46.7467 45.4022 46.7242C45.8708 46.6886 46.3324 46.5902 46.7747 46.4317C46.9885 46.3574 47.1955 46.2652 47.389 46.1617C47.4118 46.1502 47.4309 46.1324 47.444 46.1105C47.4572 46.0886 47.4638 46.0635 47.4632 46.0379V44.3054C47.4625 44.2819 47.456 44.2589 47.4441 44.2385C47.4323 44.2181 47.4156 44.201 47.3955 44.1888C47.3754 44.1765 47.3525 44.1694 47.329 44.1682C47.3055 44.1669 47.282 44.1716 47.2607 44.1817C46.6799 44.4872 46.0502 44.689 45.4 44.7779C45.1705 44.8004 44.941 44.8117 44.7092 44.8094C44.4547 44.8151 44.2013 44.7731 43.9622 44.6857C43.7565 44.6038 43.5702 44.4796 43.4155 44.3212C43.2622 44.1482 43.1438 43.9473 43.0667 43.7294C42.9948 43.5147 42.951 43.2916 42.9362 43.0657H47.7895C47.8267 43.0657 47.8624 43.051 47.8889 43.0249C47.9155 42.9988 47.9307 42.9634 47.9312 42.9262V41.8394C47.941 41.2849 47.8542 40.7329 47.6747 40.2082C47.5221 39.7512 47.2709 39.3334 46.939 38.9842V38.9819ZM42.9835 41.2972C43.033 40.8112 43.1657 40.4489 43.3795 40.2217C43.4922 40.0992 43.6299 40.0023 43.7832 39.9375C43.9365 39.8727 44.1019 39.8415 44.2682 39.8459C44.4593 39.8417 44.6488 39.8817 44.8217 39.9629C44.9792 40.0372 45.1142 40.1497 45.2177 40.2869C45.3272 40.4355 45.4073 40.6034 45.454 40.7819C45.499 40.9417 45.5282 41.1149 45.5395 41.2972H42.9835ZM66.9977 38.1764V40.2779C66.9977 40.2991 66.9928 40.32 66.9835 40.339C66.9742 40.358 66.9607 40.3746 66.944 40.3876C66.9273 40.4006 66.9079 40.4096 66.8872 40.414C66.8665 40.4184 66.845 40.418 66.8245 40.4129C66.6391 40.3591 66.4456 40.3385 66.253 40.3522L66.073 40.3432C65.8007 40.3432 65.5487 40.3792 65.3147 40.4489C65.1023 40.5121 64.9074 40.6238 64.7455 40.7752C64.5786 40.9418 64.453 41.1453 64.3787 41.3692C64.291 41.6167 64.246 41.9272 64.246 42.2939V46.4699C64.246 46.5075 64.2311 46.5436 64.2045 46.5701C64.1779 46.5967 64.1418 46.6117 64.1042 46.6117H61.8677C61.8302 46.6117 61.7941 46.5967 61.7675 46.5701C61.7409 46.5436 61.726 46.5075 61.726 46.4699V38.2687C61.726 38.1899 61.789 38.1269 61.8677 38.1269H63.562C63.625 38.1269 63.6812 38.1719 63.697 38.2304L63.976 39.2699C64.066 39.1192 64.1672 38.9774 64.2752 38.8402C64.548 38.4742 64.9327 38.2072 65.371 38.0797C65.6871 37.9841 66.0187 37.9505 66.3475 37.9807C66.4217 37.9807 66.4937 37.9807 66.5635 37.9942C66.6269 37.9989 66.69 38.0072 66.7525 38.0189C66.8028 38.0212 66.8527 38.0295 66.901 38.0437C66.9297 38.052 66.9549 38.0695 66.9728 38.0934C66.9906 38.1174 67.0002 38.1465 67 38.1764H66.9977ZM53.5967 44.4629C53.6154 44.4752 53.6307 44.4919 53.6413 44.5115C53.6519 44.5311 53.6575 44.5531 53.6575 44.5754V46.2427C53.6581 46.2682 53.6514 46.2934 53.6383 46.3153C53.6252 46.3372 53.6061 46.3549 53.5832 46.3664C53.3232 46.4944 53.048 46.5889 52.7642 46.6477C52.0802 46.8007 51.3692 46.7962 50.6852 46.6297C50.3661 46.5458 50.072 46.386 49.828 46.1639C49.5698 45.9145 49.3726 45.6088 49.252 45.2707C49.1089 44.8292 49.042 44.3666 49.054 43.9027V40.0822H48.1225C48.0857 40.0816 48.0505 40.0667 48.0245 40.0407C47.9985 40.0146 47.9836 39.9795 47.983 39.9427V38.9977C47.9826 38.9736 47.9886 38.9498 48.0005 38.9288C48.0124 38.9079 48.0296 38.8905 48.0505 38.8784L49.2407 38.1517L49.8707 36.4642C49.8808 36.4377 49.8987 36.4149 49.922 36.3988C49.9453 36.3827 49.9729 36.3741 50.0012 36.3742H51.4322C51.511 36.3742 51.5717 36.4372 51.5717 36.5159V38.1224H53.428C53.5045 38.1224 53.5697 38.1854 53.5697 38.2619V39.9427C53.5697 39.9803 53.5548 40.0163 53.5282 40.0429C53.5016 40.0695 53.4656 40.0844 53.428 40.0844H51.5717V43.8982C51.5717 44.1772 51.637 44.3797 51.763 44.5012C51.8325 44.5659 51.9144 44.616 52.0037 44.6485C52.093 44.6809 52.1879 44.6951 52.2827 44.6902C52.4942 44.6902 52.69 44.6654 52.8745 44.6227C53.0747 44.5732 53.2727 44.5102 53.4685 44.4427C53.4896 44.4348 53.5122 44.4321 53.5346 44.4348C53.5569 44.4375 53.5782 44.4456 53.5967 44.4584V44.4607V44.4629ZM39.8605 35.7419V46.4744C39.8593 46.5108 39.8442 46.5454 39.8182 46.571C39.7923 46.5965 39.7574 46.6111 39.721 46.6117H37.5992C37.5617 46.6117 37.5256 46.5967 37.499 46.5701C37.4724 46.5436 37.4575 46.5075 37.4575 46.4699V40.9574L37.489 39.8932L37.5115 39.3487L37.5295 38.9279L35.239 46.5104C35.2302 46.5393 35.2123 46.5646 35.188 46.5824C35.1637 46.6003 35.1342 46.6097 35.104 46.6094H33.0115C32.9814 46.6094 32.9521 46.5998 32.9278 46.582C32.9036 46.5642 32.8856 46.5391 32.8765 46.5104L30.7862 39.0404C30.8226 39.6999 30.8474 40.36 30.8605 41.0204C30.8672 41.1869 30.8717 41.3399 30.8717 41.4794V46.4699C30.8717 46.5075 30.8568 46.5436 30.8302 46.5701C30.8036 46.5967 30.7676 46.6117 30.73 46.6117H28.6982C28.6607 46.6117 28.6246 46.5967 28.598 46.5701C28.5714 46.5436 28.5565 46.5075 28.5565 46.4699V35.7397C28.5565 35.6632 28.6172 35.5979 28.696 35.5979H31.792C31.8595 35.5979 31.9112 35.6429 31.9292 35.7037L34.1365 43.5179L36.49 35.7014C36.4991 35.6727 36.517 35.6477 36.5413 35.6299C36.5656 35.6121 36.5949 35.6024 36.625 35.6024H39.721C39.7975 35.6024 39.8605 35.6632 39.8605 35.7397V35.7419ZM60.4142 38.9819C60.0895 38.6452 59.6914 38.3881 59.251 38.2304C58.7639 38.0527 58.2484 37.9658 57.73 37.9739C57.1607 37.9739 56.6275 38.0662 56.1527 38.2552C55.6847 38.4397 55.264 38.7277 54.9265 39.1034C54.5714 39.5089 54.3034 39.9829 54.139 40.4962C53.9432 41.1217 53.8465 41.7742 53.86 42.4289C53.86 43.1489 53.9635 43.7924 54.1637 44.3369C54.373 44.8769 54.6655 45.3337 55.0345 45.6937C55.4035 46.0469 55.8535 46.3147 56.362 46.4924C56.9002 46.6718 57.4642 46.7615 58.0315 46.7579C58.3532 46.7579 58.63 46.7467 58.8775 46.7242C59.5715 46.672 60.2479 46.4807 60.8665 46.1617C60.8893 46.1502 60.9084 46.1324 60.9215 46.1105C60.9347 46.0886 60.9413 46.0635 60.9407 46.0379V44.3054C60.94 44.2819 60.9335 44.2589 60.9216 44.2385C60.9098 44.2181 60.8931 44.201 60.873 44.1888C60.8529 44.1765 60.83 44.1694 60.8065 44.1682C60.783 44.1669 60.7595 44.1716 60.7382 44.1817C60.1568 44.4877 59.5263 44.6895 58.8752 44.7779C58.648 44.8004 58.4162 44.8117 58.1867 44.8094C57.9322 44.8152 57.6788 44.7733 57.4397 44.6857C57.2347 44.6037 57.0492 44.4795 56.8952 44.3212C56.7404 44.1485 56.6205 43.9476 56.542 43.7294C56.4708 43.5146 56.4277 43.2915 56.4137 43.0657H61.267C61.3042 43.0657 61.3399 43.051 61.3664 43.0249C61.393 42.9988 61.4082 42.9634 61.4087 42.9262V41.8394C61.4185 41.2849 61.3317 40.7329 61.1522 40.2082C60.9988 39.7511 60.7469 39.3332 60.4142 38.9842V38.9819ZM58.693 40.2869C58.8031 40.4354 58.884 40.6033 58.9315 40.7819C58.9765 40.9417 59.0057 41.1149 59.017 41.2972H56.4587C56.5082 40.8112 56.6432 40.4489 56.857 40.2217C56.9697 40.0992 57.1074 40.0023 57.2607 39.9375C57.414 39.8727 57.5794 39.8415 57.7457 39.8459C57.9368 39.8417 58.1263 39.8817 58.2992 39.9629C58.4545 40.0379 58.5895 40.149 58.693 40.2869ZM27.085 30.2497H26.7767L25.1725 34.0882H25.5752L26.0657 32.8867H27.796L28.291 34.0882H28.696L27.0895 30.2452H27.085V30.2497ZM26.1422 32.5897L26.9342 30.6907L27.7015 32.5897H26.1422ZM29.479 32.6684H30.7277C31.3847 32.6684 31.828 32.0789 31.828 31.4534C31.828 30.8572 31.3532 30.2474 30.6962 30.2474H29.1032V34.0904H29.4767V32.6684H29.479ZM29.479 30.5849H30.676C31.0967 30.5849 31.4545 30.9719 31.4545 31.4534C31.4545 31.9192 31.162 32.3354 30.7075 32.3354H29.479V30.5849ZM32.0192 34.0904L32.5097 32.8889H34.2355L34.7305 34.0904H35.1445L33.538 30.2474H33.2275L31.6187 34.0904H32.017H32.0192ZM33.3827 30.6929L34.1522 32.5897H32.5975L33.3895 30.6907H33.385L33.3827 30.6929ZM35.1332 32.1397C35.1332 31.2172 35.8015 30.2272 36.9557 30.2272C37.248 30.2144 37.5377 30.2867 37.7897 30.4352C38.0417 30.5838 38.2452 30.8023 38.3755 31.0642L38.0717 31.2464C37.9693 31.035 37.8075 30.8579 37.6061 30.7369C37.4048 30.6158 37.1725 30.556 36.9377 30.5647C36.0197 30.5647 35.5157 31.3859 35.5157 32.1599C35.5157 33.0059 36.1367 33.7754 36.9535 33.7754C37.198 33.779 37.4386 33.7138 37.6478 33.5873C37.8571 33.4608 38.0266 33.2781 38.137 33.0599L38.452 33.2242C38.2022 33.8002 37.5205 34.1174 36.931 34.1174C35.878 34.1174 35.1332 33.1117 35.1332 32.1374V32.1397ZM39.352 34.0904H38.9807V30.2474H39.352V31.9574H41.6267V30.2474H42.007V34.0904H41.6267V32.2927H39.3542V34.0904H39.352ZM45.4495 34.0904H42.8732V30.2474H45.4022V30.5849H43.2445V31.9709H45.1255V32.2904H43.2422V33.7529H45.4517V34.0904H45.4495Z" fill="black"/>
</svg>
