<svg width="80" height="80" viewBox="0 0 80 80" fill="none" xmlns="http://www.w3.org/2000/svg">
<path d="M41.4998 26C40.6686 26 39.9998 26.6687 39.9998 27.5C39.9998 28.3312 40.6686 29 41.4998 29H42.4998C48.6686 29 53.7873 33.4625 54.8123 39.3375C54.2498 39.1187 53.6373 39 52.9998 39H48.9873L46.3748 32.9062C46.1623 32.4125 45.6998 32.0688 45.1686 32.0063C44.6373 31.9438 44.1061 32.175 43.7873 32.6062L41.2311 36.075L39.8748 32.9062C39.6686 32.4187 39.2186 32.0812 38.6936 32.0125C38.1686 31.9437 37.6498 32.1563 37.3186 32.5688L22.3186 51.5688C21.8061 52.2188 21.9186 53.1625 22.5686 53.675C23.2186 54.1875 24.1623 54.075 24.6748 53.425L29.6373 47.1437L32.3248 48.1688L29.7936 51.6063C29.2998 52.275 29.4436 53.2125 30.1123 53.7062C30.7811 54.2 31.7186 54.0563 32.2123 53.3875L35.4436 49H40.0998L38.2686 51.6437C37.7998 52.325 37.9686 53.2563 38.6498 53.7313C39.3311 54.2063 40.2623 54.0312 40.7373 53.35L43.7498 49H48.7748L51.1998 53.2437C51.6123 53.9625 52.5248 54.2125 53.2436 53.8C53.9623 53.3875 54.2123 52.475 53.7998 51.7563L52.2248 49H52.9998C55.7561 49 57.9873 46.7687 57.9998 44.0187V41.5C57.9998 32.9375 51.0623 26 42.4998 26H41.4998ZM44.6561 36.5L45.7248 39H42.8123L44.6561 36.5ZM39.1748 38.8813L39.0873 39H36.0686L38.1123 36.4062L39.1686 38.875L39.1748 38.8813ZM27.5498 39C25.5873 39 23.9998 40.5875 23.9998 42.55C23.9998 43.5187 24.3936 44.425 25.0561 45.075L29.9186 39H27.5498ZM52.9998 44C52.4498 44 51.9998 43.55 51.9998 43C51.9998 42.45 52.4498 42 52.9998 42C53.5498 42 53.9998 42.45 53.9998 43C53.9998 43.55 53.5498 44 52.9998 44Z" fill="black"/>
</svg>
