<svg width="80" height="80" viewBox="0 0 80 80" fill="none" xmlns="http://www.w3.org/2000/svg">
<g clip-path="url(#clip0_245_34057)">
<path d="M39.848 37.0253C42.044 37.0253 43.7813 37.6067 45.064 38.768C46.3453 39.9307 46.9867 41.5147 46.9867 43.5227C46.9867 45.848 46.256 47.6653 44.796 48.976C43.3453 50.2787 41.2787 50.9293 38.596 50.9293C36.1613 50.9293 34.2493 50.5373 32.8587 49.752V46.5787C33.7281 47.0603 34.6614 47.4163 35.6307 47.636C36.6733 47.884 37.6427 48.0093 38.5373 48.0093C40.116 48.0093 41.3187 47.656 42.1427 46.9507C42.968 46.244 43.38 45.212 43.38 43.8507C43.38 41.248 41.72 39.9453 38.4027 39.9453C37.936 39.9453 37.3587 39.996 36.6733 40.0947C35.988 40.184 35.3867 40.288 34.8707 40.408L33.3053 39.484L34.14 28.844H45.4667V31.9573H37.2253L36.732 37.352C37.0813 37.2933 37.5027 37.224 37.9987 37.144C38.5053 37.064 39.1227 37.024 39.848 37.024V37.0253ZM40 24C31.164 24 24 31.164 24 40C24.0005 42.9749 24.8306 45.8907 26.3969 48.4198C27.9632 50.949 30.2037 52.9913 32.8667 54.3173V49.4173H33.0507C33.064 49.4227 39.5307 52.7053 43.7453 49.4173C47.9627 46.1267 45.9053 41.704 45.1853 40.6747C44.4653 39.6467 40.7627 37.8973 37.5747 38.2067C34.3867 38.5147 34.3867 38.6173 34.3867 38.6173L35.2093 29.156L45.4587 29.0573V24.992C43.7103 24.3458 41.8626 24.0101 39.9987 24H40ZM45.46 24.992V29.0573L35.2093 29.156L34.3867 38.6173C34.3867 38.6173 34.3867 38.5147 37.5747 38.2067C40.764 37.8973 44.4667 39.6467 45.1853 40.6747C45.9053 41.704 47.9627 46.1267 43.7453 49.4173C39.532 52.7067 33.0613 49.4227 33.052 49.4173H32.8653V54.3173C35.0813 55.4228 37.5236 55.9988 40 56C48.8373 56 56 48.836 56 40C55.995 36.7796 55.0189 33.6356 53.1992 30.9787C51.3796 28.3217 48.8009 26.2752 45.8 25.1067C45.6873 25.0667 45.5739 25.0284 45.46 24.992Z" fill="black"/>
</g>
<defs>
<clipPath id="clip0_245_34057">
<rect width="32" height="32" fill="white" transform="translate(24 24)"/>
</clipPath>
</defs>
</svg>
