<svg width="80" height="80" viewBox="0 0 80 80" fill="none" xmlns="http://www.w3.org/2000/svg">
<g clip-path="url(#clip0_245_34077)">
<path d="M56 55.5282H24L34.6533 32.8042L41.0707 37.5215L49.44 24.4722L56 55.5282ZM44.2667 50.6202H44.336C45.1278 50.6216 45.8893 50.3157 46.46 49.7668C46.7526 49.5014 46.9854 49.1768 47.1429 48.8145C47.3003 48.4522 47.3789 48.0605 47.3733 47.6655C47.3863 47.2853 47.3139 46.907 47.1617 46.5584C47.0094 46.2098 46.781 45.8997 46.4933 45.6508C46.008 45.1638 45.354 44.8821 44.6667 44.8642H44.6133C44.5236 44.8636 44.4343 44.8758 44.348 44.9002L46.0373 42.3895L44.6907 41.4495L44.0547 42.3895L42.428 44.8748C42.148 45.2882 41.9133 45.6508 41.768 45.9015C41.6187 46.1682 41.488 46.4482 41.3813 46.7348C41.2598 47.0398 41.1973 47.3652 41.1973 47.6935C41.1935 48.0836 41.2717 48.4702 41.427 48.828C41.5823 49.1859 41.8111 49.5072 42.0987 49.7708C42.6613 50.3188 43.4173 50.6255 44.2027 50.6242L44.2667 50.6202ZM37.1133 47.9175L38.9773 50.5548H40.972L38.7787 47.4948L40.7253 44.7895L39.432 43.8948L38.8627 44.6482L37.1107 47.1188V42.1522L35.364 40.7282V50.5548H37.1107V47.9148L37.1133 47.9175ZM44.2693 48.9735C43.9286 48.9735 43.6019 48.8382 43.3609 48.5972C43.12 48.3563 42.9847 48.0295 42.9847 47.6888C42.9847 47.3481 43.12 47.0214 43.3609 46.7804C43.6019 46.5395 43.9286 46.4042 44.2693 46.4042H44.2813C44.4505 46.4043 44.6179 46.4385 44.7735 46.505C44.9291 46.5714 45.0696 46.6687 45.1867 46.7908C45.3098 46.904 45.4079 47.0417 45.4745 47.1952C45.5411 47.3486 45.5747 47.5143 45.5733 47.6815C45.5695 48.0246 45.4306 48.3523 45.1867 48.5936C44.9429 48.835 44.6138 48.9705 44.2707 48.9708L44.2693 48.9735Z" fill="#7D64FF"/>
</g>
<defs>
<clipPath id="clip0_245_34077">
<rect width="32" height="32" fill="white" transform="translate(24 24)"/>
</clipPath>
</defs>
</svg>
