<svg width="80" height="80" viewBox="0 0 80 80" fill="none" xmlns="http://www.w3.org/2000/svg">
<rect width="80" height="80" rx="8" fill="#F5F8FD"/>
<path d="M10.0005 46.2933C10.167 46.0118 10.4162 45.7886 10.7141 45.654C11.0121 45.5195 11.3442 45.4802 11.6653 45.5415C13.1822 45.7065 14.7139 45.6977 16.2292 45.514C16.7271 45.448 17.2311 45.4447 17.7296 45.503L20.0621 45.6955C20.3023 45.712 20.5413 45.7461 20.7766 45.7962C20.8791 45.811 20.9747 45.8569 21.0503 45.9278C21.1259 45.9988 21.1779 46.0912 21.1992 46.1927C21.2235 46.3038 21.2088 46.42 21.1576 46.5216C21.1063 46.6231 21.0216 46.7039 20.9178 46.7504C20.7117 46.8686 20.4798 46.9357 20.2418 46.9445L17.7356 46.8257C17.0124 46.8037 16.2885 46.8252 15.5675 46.8873C14.5699 46.9863 13.5647 46.9929 12.5666 46.906C12.0132 46.8576 11.4526 46.8884 10.8958 46.8785C10.5551 46.9252 10.2143 46.7872 10 46.5155L10.0005 46.2933ZM21.1772 36.3862L21.2597 38.2847C21.2734 38.6938 21.2602 39.1096 21.2212 39.5111C21.1003 40.3608 21.1003 41.2232 21.2212 42.0729C21.2734 42.4413 21.2619 42.8153 21.1882 43.1799C21.1798 43.3077 21.1456 43.4325 21.0878 43.5468C21.03 43.661 20.9497 43.7625 20.8518 43.8449C20.7539 43.9274 20.6403 43.9893 20.5179 44.0268C20.3956 44.0643 20.2669 44.0767 20.1396 44.0632C19.5273 44.0302 18.9195 43.9411 18.3237 43.7981C17.8896 43.6641 17.5195 43.376 17.2828 42.988C17.0375 42.6371 16.8118 42.2728 16.6068 41.8969C16.2539 41.2391 15.8192 40.6286 15.3135 40.0798C15.0168 39.7223 14.7491 39.3428 14.51 38.9457C14.4581 38.8469 14.3991 38.7518 14.3336 38.6614C14.291 38.6051 14.2335 38.5619 14.1676 38.5365C14.1018 38.5112 14.0302 38.5047 13.9608 38.5178C13.8915 38.531 13.8272 38.5632 13.7752 38.6109C13.7232 38.6586 13.6855 38.7199 13.6664 38.7879C13.6186 38.9309 13.5949 39.0794 13.5966 39.2295L13.5416 41.7979C13.5355 41.9467 13.5029 42.0933 13.4454 42.2307C13.3577 42.3947 13.3096 42.577 13.3051 42.763C13.3006 42.949 13.3398 43.1335 13.4196 43.3015C13.4502 43.3614 13.4664 43.4276 13.4667 43.4949C13.467 43.5622 13.4515 43.6286 13.4214 43.6887C13.3914 43.7489 13.3476 43.8012 13.2936 43.8413C13.2396 43.8814 13.177 43.9082 13.1107 43.9197C12.7967 44.0402 12.462 44.0974 12.1259 44.0879C11.7897 44.0785 11.4587 44.0026 11.152 43.8647C10.8145 43.7272 10.5969 43.3972 10.6024 43.0326L10.5364 41.188C10.4963 40.8052 10.6419 40.4257 10.9283 40.1683C11.0514 40.0545 11.1564 39.9225 11.2399 39.7767C11.4295 39.5017 11.4174 39.1443 11.2108 38.888C10.6521 38.1516 10.408 37.2237 10.532 36.3075L10.5732 34.4673L10.5776 34.0202C10.5611 33.9263 10.5689 33.8298 10.6004 33.7399C10.6319 33.6499 10.686 33.5696 10.7575 33.5066C10.829 33.4437 10.9154 33.4001 11.0086 33.3803C11.1017 33.3604 11.1984 33.3649 11.2894 33.3932C11.7554 33.3915 12.2172 33.3053 12.6524 33.1386C12.7589 33.0896 12.8746 33.0638 12.9918 33.0631C13.109 33.0623 13.225 33.0866 13.3321 33.1343C13.4392 33.182 13.5349 33.2519 13.6128 33.3395C13.6907 33.4272 13.7491 33.5304 13.784 33.6424C13.8544 33.7942 13.9082 33.9531 13.9709 34.1087C14.0149 34.2423 14.0885 34.3641 14.1861 34.4652C14.2838 34.5664 14.4029 34.6442 14.5348 34.6928C14.8143 34.8034 15.0484 35.0051 15.1992 35.2653L16.9514 37.7919C17.1306 38.0535 17.3378 38.2949 17.5691 38.5118C17.8192 38.7389 18.0264 38.668 18.067 38.3237C18.1451 37.7902 18.1698 37.2496 18.1412 36.7106C18.0924 35.8747 18.1018 35.0363 18.1693 34.2017C18.1154 33.9157 18.2132 33.6231 18.4276 33.4273C18.6419 33.2315 18.9431 33.1611 19.2218 33.2414L19.8395 33.2766C20.1322 33.26 20.4207 33.3518 20.65 33.5345C20.8793 33.7172 21.0333 33.978 21.0827 34.2671C21.1463 34.5007 21.1836 34.7407 21.1937 34.9826L21.1992 36.3812L21.1772 36.3862ZM34.5238 39.4072C34.4831 38.8132 34.5369 38.217 34.6831 37.6406C34.8213 37.1919 35.0917 36.7954 35.4589 36.503C35.826 36.2105 36.2728 36.0358 36.7408 36.0017C37.6132 35.837 38.5153 36.0247 39.2498 36.5237C39.3267 36.5776 39.4059 36.626 39.4883 36.6694C39.5436 36.7137 39.6074 36.7459 39.6758 36.7642C39.7442 36.7825 39.8157 36.7863 39.8856 36.7755C39.9556 36.7647 40.0225 36.7395 40.0822 36.7014C40.1419 36.6634 40.1931 36.6133 40.2325 36.5545C40.5466 36.3113 40.9236 36.163 41.3192 36.1271C41.7147 36.0913 42.1123 36.1693 42.4649 36.3521C42.9376 36.693 43.1113 37.3167 42.8843 37.8535C42.5571 38.6502 42.4912 39.5303 42.6963 40.3669L42.8722 42.0894L43.0189 43.9769C43.0382 44.6148 42.8282 45.2385 42.4276 45.7346C42.0632 46.2048 41.6065 46.5953 41.0865 46.8829C40.8117 47.0875 40.449 47.1315 40.133 46.9995C39.4571 46.7164 38.698 46.7056 38.0143 46.9692C37.4482 47.1711 36.8348 47.2068 36.2489 47.0726C35.8628 46.9984 35.5004 46.8316 35.1929 46.5863C34.8854 46.3411 34.642 46.0248 34.4836 45.6647C34.3837 45.5278 34.3332 45.3611 34.3403 45.1917C34.3475 45.0223 34.412 44.8604 34.5232 44.7325C34.7716 44.4883 35.1497 44.4355 35.4564 44.6005L35.7131 44.7094L35.9632 44.8337C36.7436 45.1224 37.5581 45.3012 38.3468 45.558C38.5297 45.6037 38.7202 45.6098 38.9056 45.5759C39.0911 45.542 39.2671 45.4689 39.4221 45.3614C39.577 45.254 39.7072 45.1147 39.804 44.9528C39.9009 44.791 39.962 44.6103 39.9835 44.4229C40.0436 44.0765 40.0543 43.7234 40.0154 43.3741C40.0196 43.3071 40.006 43.2402 39.976 43.1801C39.946 43.1201 39.9006 43.0691 39.8444 43.0324C39.7883 42.9956 39.7234 42.9745 39.6564 42.971C39.5894 42.9676 39.5226 42.982 39.463 43.0128C39.1805 43.1024 38.9096 43.2239 38.6551 43.3757C38.1879 43.659 37.6367 43.7607 37.0981 43.6782C36.3204 43.5638 35.6702 43.0282 35.4086 42.2868C35.2624 41.8453 35.0296 41.4375 34.7238 41.0873C34.5974 40.9058 34.5314 40.6897 34.5331 40.4691C34.504 40.1161 34.5254 39.7542 34.5254 39.4055L34.5238 39.4072ZM40.1099 39.9714C40.058 39.6254 39.9827 39.2832 39.8846 38.9474C39.79 38.6428 39.6013 38.376 39.3456 38.1856C39.0899 37.9951 38.7804 37.8908 38.4616 37.8876C38.1471 37.9286 37.8523 38.0638 37.616 38.2755C37.3797 38.4872 37.213 38.7656 37.1377 39.0739C37.1156 39.125 37.1013 39.1791 37.0953 39.2345C37.0887 39.6964 37.1085 40.1573 37.1536 40.6171C37.1976 41.1374 37.5751 41.5674 38.0852 41.6769C38.6348 41.8364 39.2283 41.6725 39.6197 41.2545C39.9267 40.8962 40.1005 40.4427 40.1115 39.9709L40.1099 39.9714ZM23.5284 41.9194V41.4723C23.4911 41.0356 23.6592 40.6061 23.9835 40.3174C24.3078 40.0286 24.7513 39.8966 25.1816 39.9764C25.2746 39.9829 25.367 39.9959 25.4581 40.0154C25.6489 40.0628 25.8479 40.0663 26.0403 40.0257C26.2327 39.9851 26.4134 39.9015 26.5688 39.7811C27.022 39.4487 27.5653 39.2617 28.1269 39.2449C28.3853 39.2284 28.6419 39.1899 28.8909 39.114C29.13 39.0563 29.3361 38.905 29.4636 38.6944C29.5911 38.4838 29.6285 38.2308 29.568 37.9921C29.5609 37.8304 29.4872 37.6786 29.3646 37.5741C29.2421 37.4696 29.0816 37.4185 28.9211 37.4355C27.9816 37.3855 27.0593 37.7021 26.3484 38.3188C26.2484 38.4269 26.1111 38.4931 25.9643 38.5041C25.4268 38.5069 24.8909 38.4535 24.3704 38.3446C24.2178 38.3263 24.0751 38.2593 23.9636 38.1534C23.8521 38.0476 23.7777 37.9085 23.7514 37.757C23.7251 37.6054 23.7483 37.4495 23.8177 37.3122C23.887 37.1749 23.9988 37.0637 24.1363 36.995C24.5502 36.6454 25.031 36.384 25.5494 36.2266C26.0677 36.0693 26.6126 36.0193 27.1509 36.0798C27.741 36.1692 28.342 36.159 28.9288 36.0496C30.3567 35.8818 31.6785 36.825 31.9846 38.2308C32.0121 38.4893 31.9868 38.7499 31.9093 38.9974C31.7356 39.5331 31.7664 40.1139 31.9972 40.627C32.0873 40.8887 32.101 41.1706 32.0368 41.4398C31.9485 41.8774 31.9519 42.3285 32.0467 42.7647C32.1511 43.0232 32.1072 43.3191 31.9346 43.538C31.762 43.7569 31.4839 43.8663 31.2091 43.8251C30.9123 43.8306 30.6133 43.8196 30.3166 43.8383C29.9813 43.8922 29.6394 43.7816 29.3987 43.5413C29.3124 43.4395 29.1882 43.3774 29.0552 43.3691C28.9222 43.3609 28.7914 43.4076 28.6925 43.4973C28.5976 43.5869 28.4859 43.6568 28.3638 43.703L25.6801 44.1704C25.2894 44.1811 24.9014 44.1023 24.5457 43.94C24.2307 43.8406 23.9586 43.6374 23.7738 43.3634C23.589 43.0895 23.5023 42.761 23.5279 42.4314L23.5312 41.9255L23.5284 41.9194ZM27.319 42.6322C27.4118 42.6381 27.505 42.6301 27.5955 42.6085L29.585 41.7616C29.6521 41.7254 29.7089 41.6728 29.7502 41.6086C29.7914 41.5445 29.8157 41.4709 29.8208 41.3948C29.8259 41.3188 29.8116 41.2426 29.7793 41.1735C29.7471 41.1045 29.6978 41.0447 29.6361 40.9999C29.319 40.5434 28.7458 40.3427 28.2127 40.4994C28.0126 40.5379 27.8087 40.5544 27.6054 40.5456C27.3644 40.5506 27.1242 40.5745 26.887 40.6171C26.6489 40.6784 26.4443 40.8307 26.3171 41.0413C26.1899 41.2519 26.1503 41.5039 26.2066 41.7434C26.1956 42.1928 26.538 42.5722 26.986 42.6058C27.0959 42.6245 27.2086 42.625 27.3196 42.6322H27.319ZM59.3992 39.9483C59.3604 40.7535 59.1541 41.5417 58.7936 42.2626C58.5424 42.7026 58.1802 43.0672 57.7438 43.3224C57.4668 43.5204 57.1118 43.577 56.7875 43.4736C56.612 43.4072 56.4205 43.3956 56.2382 43.4403C56.0559 43.4849 55.8914 43.5838 55.7664 43.7239C55.6294 43.862 55.457 43.9598 55.2682 44.0066C55.0794 44.0534 54.8813 44.0472 54.6958 43.989C54.2028 43.8944 53.701 43.8487 53.1992 43.8531C52.8255 43.8509 52.4644 43.7189 52.178 43.4791L51.0041 42.6294C50.7513 42.4622 50.5974 42.1829 50.5875 41.8804C50.5601 41.303 50.4319 40.735 50.2088 40.2019C49.9813 39.4968 50.1187 38.7252 50.5754 38.1417C50.6468 38.0333 50.7568 37.9547 50.8815 37.92C51.1076 37.8584 51.3176 37.7484 51.4971 37.5978C51.6766 37.4471 51.8214 37.2593 51.9214 37.0472C52.1593 36.4423 52.8145 36.1277 53.4328 36.3086C53.5416 36.3361 53.6548 36.3416 53.7658 36.3218C54.5726 36.2107 55.391 36.2151 56.1962 36.3361C57.3624 36.3416 58.4193 37.0252 58.9035 38.0872C59.2003 38.6647 59.3707 39.2994 59.3998 39.9483H59.3992ZM56.3341 40.2508C56.3931 39.6716 56.2697 39.0884 55.9813 38.5827C55.8783 38.377 55.7267 38.1995 55.5397 38.0657C55.3526 37.9319 55.1358 37.8458 54.9079 37.815C54.6801 37.7841 54.4481 37.8093 54.2322 37.8885C54.0164 37.9676 53.823 38.0984 53.6691 38.2693C52.9096 39.2427 52.815 40.5791 53.43 41.6488C53.6392 41.9005 53.9161 42.0868 54.228 42.1857C54.5398 42.2845 54.8735 42.2917 55.1893 42.2065C55.4942 42.1137 55.7637 41.9303 55.962 41.6808C56.1604 41.4312 56.2783 41.1272 56.3 40.809L56.3347 40.2497L56.3341 40.2508ZM64.8513 35.8983L66.7309 36.1172C67.1086 36.2135 67.4681 36.3704 67.7955 36.582C67.9812 36.7052 68.1306 36.8759 68.228 37.0764C68.3418 37.2315 68.3627 37.4355 68.283 37.6099C68.2033 37.7842 68.0357 37.9024 67.8433 37.9178C67.1261 38.2181 66.3099 38.1587 65.6433 37.7572C65.3994 37.6212 65.1345 37.5267 64.8595 37.4779C64.695 37.4396 64.5241 37.439 64.3593 37.4762C64.1946 37.5133 64.0404 37.5872 63.9082 37.6923C63.7394 37.7858 63.6345 37.964 63.6334 38.1571C63.6323 38.3501 63.7339 38.5294 63.901 38.6262C63.9701 38.6893 64.052 38.7366 64.1412 38.7648C64.7897 38.9969 65.4657 39.1415 66.1511 39.1949C66.5629 39.1727 66.9707 39.2863 67.3119 39.5182C67.5979 39.6903 67.8925 39.8478 68.1945 39.9901C68.7078 40.2134 69.0283 40.7326 68.998 41.2914C68.9541 42.5508 68.4682 43.3576 67.2272 43.5704C66.7627 43.6081 66.3105 43.739 65.8977 43.9554C65.7625 44.018 65.6153 44.0505 65.4663 44.0506L64.2429 44.155C63.297 44.0969 62.3744 43.8382 61.5361 43.3961C61.4454 43.3312 61.3602 43.2575 61.2844 43.1761C61.1661 43.0947 61.076 42.9786 61.0266 42.8438C60.9772 42.709 60.9708 42.5621 61.0084 42.4235C61.046 42.2849 61.1257 42.1615 61.2365 42.0702C61.3472 41.9789 61.4836 41.9243 61.6268 41.9139C62.1346 41.8012 62.6562 41.7627 63.175 41.8001C63.4432 41.8727 63.6845 42.0201 63.8713 42.2258C64.0715 42.4093 64.3102 42.5456 64.57 42.6245C64.8298 42.7034 65.104 42.7229 65.3723 42.6817C65.6125 42.6542 65.845 42.5794 66.0571 42.4628C66.2769 42.3528 66.4187 42.118 66.4034 41.8677C66.388 41.6175 66.222 41.4019 65.9857 41.321C65.8856 41.2727 65.7741 41.2512 65.6713 41.2078C65.325 41.078 64.9859 40.9273 64.6567 40.7568C64.2096 40.4826 63.6843 40.3642 63.1629 40.4202C62.2616 40.5769 61.38 40.0517 61.0882 39.1828C60.7771 38.3127 61.0651 37.3415 61.7999 36.7816C62.433 36.2481 63.2377 35.9599 64.0659 35.9715C64.3297 35.9781 64.5946 35.9522 64.8518 35.8945L64.8513 35.8983ZM47.9989 39.2631C47.9807 39.5006 47.9851 39.7399 48.0132 39.9769L48.2275 42.8665C48.2461 43.0309 48.2264 43.1975 48.1699 43.353C48.1134 43.5086 48.0218 43.649 47.9021 43.7632C47.7823 43.8774 47.6378 43.9623 47.4799 44.0113C47.3219 44.0603 47.1547 44.072 46.9915 44.0456C46.3759 44.0605 45.7988 43.7448 45.4784 43.2179C45.158 42.691 45.1431 42.0333 45.4399 41.4926C45.6631 40.9777 45.7112 40.4036 45.5768 39.8587L45.2305 37.4905C45.2102 37.287 45.2272 37.0808 45.2811 36.8828C45.347 36.4571 45.7186 36.1469 46.1495 36.1585C46.5024 36.1355 46.8567 36.1423 47.2085 36.1788C47.474 36.1816 47.7268 36.2954 47.9049 36.4923C48.083 36.6892 48.1714 36.9521 48.1484 37.2166V37.8876C48.1731 37.8953 48.0549 38.8082 48 39.2636L47.9989 39.2631ZM46.7623 33.022H46.9293C47.3212 32.978 47.701 33.1749 47.89 33.5208C48.0791 33.8668 48.0406 34.293 47.7922 34.5999C47.6856 34.8034 47.4751 34.9298 47.2459 34.9298C46.8757 34.9435 46.505 34.9275 46.1374 34.882C45.9186 34.8765 45.7125 34.7786 45.5702 34.607C45.4278 34.4354 45.3624 34.222 45.3905 34.0048C45.3888 33.4999 45.762 33.0726 46.2616 33.0066C46.4276 32.9918 46.5952 33.0066 46.7617 33.0066V33.0214L46.7623 33.022Z" fill="black"/>
</svg>
