<svg width="80" height="80" viewBox="0 0 80 80" fill="none" xmlns="http://www.w3.org/2000/svg">
<rect width="80" height="80" rx="8" fill="#F5F8FD"/>
<path d="M20 46.9087H27.78V48.02H20V46.9087ZM20 44.7712H27.78V45.885H20V44.7712ZM22.2138 42.6362H25.5538V43.7562H22.2138V42.6362ZM22.2138 40.5087H25.5538V41.6287H22.2138V40.5087ZM22.2138 38.3712H25.5538V39.4912H22.2138V38.3712ZM22.2138 36.2362H25.5538V37.3562H22.2138V36.2362ZM20 34.1087H27.78V35.2287H20V34.1087ZM20 31.98H27.78V33.0912H20V31.98ZM28.8863 45.885H40.8463C41.0475 45.54 41.205 45.1637 41.295 44.7712H28.8863V45.885ZM39.915 40.5087H31.1137V41.6287H40.8538C40.6055 41.2078 40.2911 40.8296 39.9225 40.5087H39.915ZM31.1063 38.3712V39.4912H39.915C40.2938 39.18 40.5988 38.8012 40.8538 38.3712H31.1063ZM40.8463 34.1087H28.8863V35.2287H41.2875C41.1906 34.8375 41.0422 34.4609 40.8463 34.1087ZM37.175 31.98H28.8863V33.0912H40.0262C39.2489 32.3762 38.2312 31.9795 37.175 31.98ZM31.1063 36.2362H34.44V37.3562H31.1063V36.2362ZM37.78 37.3562H41.2638C41.3629 36.9912 41.4134 36.6145 41.4137 36.2362H37.78V37.3562ZM31.1063 42.6362H34.44V43.7562H31.1063V42.6362ZM37.78 42.6362V43.7562H41.4137C41.4137 43.3712 41.36 42.995 41.2638 42.6362H37.78ZM28.8863 48.015L37.1675 48.02C38.2812 48.02 39.2825 47.5987 40.0325 46.9087H28.8863V48.015ZM42.2262 46.9087H47.7725V48.02H42.2262V46.9087ZM42.2262 44.7712H47.7725V45.885H42.2262V44.7712ZM44.44 42.6362H47.7738V43.7562H44.44V42.6362ZM44.44 40.5087H47.7738V41.6287H44.44V40.5087ZM49.3237 34.1087H42.2275V35.2287H49.7075L49.3237 34.1087ZM48.5863 31.98H42.2262V33.0912H48.9713L48.5863 31.98ZM54.44 46.9087H60V48.02H54.44V46.9087ZM54.44 44.7712H60V45.885H54.44V44.7712ZM54.44 42.6362H57.7738V43.7562H54.44V42.6362ZM54.44 40.5087H57.7738V41.6287H54.44V40.5087ZM54.44 39.4912H57.7738V38.3712H51.425L51.1063 39.2762L50.795 38.3712H44.44V39.4912H47.7738V38.4625L48.1325 39.4912H54.0887L54.44 38.4625V39.4912ZM57.7738 36.2362H52.1625L51.7775 37.3562H57.7738V36.2362ZM53.64 31.98L53.255 33.0912H60V31.98H53.64ZM51.1063 48.015L51.4913 46.9087H50.7225L51.1063 48.015ZM50.3713 45.885H51.8475L52.2463 44.7712H49.98L50.3713 45.885ZM49.6213 43.7562H52.5975L52.9875 42.6362H49.2313L49.6213 43.7562ZM48.88 41.6287H53.3462L53.7225 40.5087H48.4963L48.88 41.6287ZM44.44 37.3562H50.4437L50.0588 36.2362H44.44V37.3562ZM52.52 35.2287H60V34.1087H52.8962L52.52 35.2287Z" fill="black"/>
</svg>
