<svg width="80" height="80" viewBox="0 0 80 80" fill="none" xmlns="http://www.w3.org/2000/svg">
<rect width="80" height="80" rx="8" fill="#F5F8FD"/>
<path d="M54.315 38.1223C54.2622 37.5845 54.1744 36.9674 53.9985 36.2799C53.8006 35.5184 53.5236 34.7797 53.1723 34.076C52.7518 33.2318 52.2356 32.439 51.634 31.7134C51.3791 31.405 51.0978 31.1052 50.799 30.8143C51.2472 29.0248 50.254 27.4733 50.254 27.4733C48.5398 27.3675 47.4499 28.0111 47.0456 28.302C46.9753 28.2755 46.9137 28.2402 46.8434 28.2137C46.5533 28.0992 46.2544 27.9846 45.938 27.8876C45.6245 27.789 45.3079 27.7008 44.9886 27.6231C44.6635 27.5437 44.3383 27.4821 44.0042 27.4291C43.9426 27.4204 43.89 27.4115 43.8284 27.4027C43.0813 25.0051 40.9365 24 40.9365 24C38.5368 25.525 38.0885 27.6584 38.0885 27.6584C38.0885 27.6584 38.0796 27.7024 38.0621 27.7818C37.9302 27.8171 37.7984 27.8612 37.6665 27.8964C37.482 27.9493 37.2974 28.0198 37.1216 28.0903C36.9384 28.16 36.7567 28.2335 36.5765 28.3107C36.2114 28.471 35.8536 28.6475 35.5041 28.8397C35.1613 29.0336 34.8274 29.2452 34.5021 29.4656L34.4142 29.4302C31.0915 28.1608 28.1469 29.6859 28.1469 29.6859C27.8744 33.2298 29.4742 35.46 29.7906 35.8656C29.7115 36.086 29.6411 36.3064 29.5708 36.5267C29.3247 37.3289 29.1402 38.1487 29.0259 39.0038C29.0083 39.1272 28.9907 39.2507 28.9819 39.3741C25.9054 40.8991 25 44.011 25 44.011C27.5579 46.9642 30.5466 47.1492 30.5466 47.1492L30.5554 47.1405C30.9333 47.8192 31.3728 48.4627 31.8651 49.071C32.0726 49.3231 32.2895 49.5672 32.5155 49.8028C31.5837 52.4826 32.6474 54.704 32.6474 54.704C35.4953 54.8098 37.3677 53.4523 37.7632 53.1438C38.0462 53.2423 38.3337 53.3276 38.6247 53.3994C39.4986 53.6274 40.3945 53.7604 41.2968 53.7961C41.5166 53.8049 41.7452 53.8137 41.9649 53.8049H42.2814L42.422 53.7961V53.8049C43.7669 55.7267 46.1226 56 46.1226 56C47.8015 54.228 47.8981 52.4649 47.8981 52.0859V51.9272C48.2498 51.6804 48.5839 51.4159 48.9003 51.125C49.5683 50.5167 50.1573 49.8204 50.6494 49.071L50.7813 48.8594C52.68 48.9653 54.0249 47.6781 54.0249 47.6781C53.7085 45.6947 52.5833 44.7251 52.346 44.5399C52.346 44.5399 52.3372 44.5311 52.3196 44.5223C52.3021 44.5134 52.3021 44.5047 52.3021 44.5047C52.2932 44.4958 52.2757 44.487 52.2582 44.4782C52.2669 44.3548 52.2757 44.2401 52.2845 44.1168C52.3021 43.9052 52.3021 43.6848 52.3021 43.4733V43.1382L52.2932 43.006L52.2845 42.8297C52.2845 42.768 52.2757 42.7151 52.2669 42.6622C52.2582 42.6093 52.2582 42.5476 52.2493 42.4947L52.2318 42.3273L52.2054 42.1598C52.1702 41.9394 52.1351 41.7277 52.0823 41.5074C51.8801 40.6524 51.5461 39.8413 51.1154 39.1096C50.6821 38.3891 50.1394 37.7407 49.5068 37.1879C48.8915 36.6413 48.197 36.2005 47.4763 35.8743C46.7468 35.5482 45.9907 35.3366 45.2348 35.2396C44.8569 35.1867 44.4789 35.1691 44.1009 35.178H43.8196L43.6789 35.1868C43.6262 35.1868 43.5734 35.1956 43.5295 35.1956C43.3379 35.2127 43.1472 35.2392 42.9582 35.2749C42.2022 35.4159 41.4902 35.6892 40.8662 36.0683C40.2421 36.4474 39.6971 36.9146 39.2575 37.4435C38.8276 37.961 38.4834 38.5443 38.2379 39.1713C38.0075 39.7634 37.8711 40.388 37.8336 41.0225C37.8248 41.1724 37.8248 41.3311 37.8248 41.481V41.5956L37.8336 41.719C37.8423 41.7895 37.8423 41.8689 37.8512 41.9394C37.8775 42.2479 37.939 42.5476 38.0182 42.8297C38.1851 43.4027 38.4488 43.9228 38.774 44.3636C39.0993 44.8043 39.4949 45.1659 39.908 45.4568C40.3211 45.7388 40.7693 45.9416 41.209 46.0738C41.6485 46.206 42.088 46.2589 42.5011 46.2589H42.7296C42.756 46.2589 42.7824 46.2589 42.8086 46.2501C42.8526 46.2501 42.8965 46.2412 42.9405 46.2412C42.9492 46.2412 42.9669 46.2412 42.9756 46.2325L43.0196 46.2236C43.0459 46.2236 43.0723 46.2149 43.0987 46.2149C43.1515 46.206 43.1954 46.1972 43.2481 46.1884C43.3009 46.1796 43.3448 46.1707 43.3888 46.1531C43.4854 46.1355 43.5734 46.1002 43.6613 46.0738C43.8371 46.0121 44.0129 45.9415 44.1623 45.8622C44.3205 45.7829 44.4612 45.6859 44.6018 45.5977C44.637 45.5712 44.6809 45.5449 44.7161 45.5096C44.8567 45.395 44.8831 45.1835 44.7689 45.0424C44.6721 44.919 44.4964 44.8837 44.3556 44.9631L44.2501 45.016C44.1281 45.0779 44.0018 45.1309 43.8722 45.1747C43.7403 45.2187 43.5998 45.254 43.4591 45.2804C43.3888 45.2892 43.3185 45.298 43.2393 45.3069C43.2042 45.3069 43.169 45.3156 43.1251 45.3156H42.914C42.8701 45.3156 42.8262 45.3156 42.7823 45.3069H42.7296C42.7121 45.3069 42.6857 45.3069 42.6681 45.298C42.6242 45.2892 42.589 45.2892 42.5451 45.2804C42.2198 45.2364 41.8946 45.1394 41.5869 44.9983C41.2621 44.8527 40.9625 44.6563 40.6992 44.4165C40.4266 44.1696 40.1893 43.8787 40.0047 43.5438C39.82 43.2088 39.6882 42.8385 39.6268 42.4507C39.6004 42.2567 39.5828 42.054 39.5915 41.86C39.5915 41.8071 39.6004 41.7542 39.6004 41.7013V41.6308C39.6004 41.6043 39.6092 41.5779 39.6092 41.5514C39.6179 41.4457 39.6356 41.3399 39.6531 41.2342C39.8026 40.3878 40.2244 39.5592 40.875 38.9333C41.042 38.7746 41.2177 38.6336 41.4024 38.5014C41.5903 38.368 41.7904 38.2529 42 38.1575C42.2098 38.0599 42.4274 37.9803 42.6506 37.9196C42.8702 37.8578 43.0988 37.8225 43.3361 37.7962C43.4505 37.7873 43.5647 37.7785 43.6878 37.7785H43.9603L44.057 37.7873C44.3118 37.8049 44.558 37.8402 44.8041 37.9019C45.2964 38.0077 45.7798 38.1929 46.228 38.4396C47.1247 38.9422 47.8894 39.7179 48.3553 40.6524C48.5927 41.1195 48.7596 41.622 48.8387 42.1421C48.8563 42.2743 48.874 42.4066 48.8827 42.5389L48.8915 42.6358L48.9003 42.7327V43.1118C48.9003 43.1735 48.8915 43.2793 48.8915 43.341C48.8827 43.4821 48.8651 43.632 48.8476 43.773C48.83 43.914 48.8036 44.0551 48.7773 44.1961C48.7502 44.3353 48.7179 44.4735 48.6806 44.6104C48.6086 44.8886 48.5206 45.1624 48.4168 45.4303C48.2026 45.9642 47.9252 46.4703 47.5905 46.9377C46.9138 47.8722 45.9907 48.6303 44.936 49.1151C44.4085 49.3531 43.8548 49.5295 43.2835 49.6176C43.0021 49.6705 42.7121 49.6969 42.422 49.7057H41.9825C41.8268 49.7057 41.6713 49.6968 41.5166 49.6792C40.9012 49.6352 40.2947 49.5206 39.6971 49.3531C39.1081 49.1857 38.5368 48.9477 37.9918 48.6655C36.9105 48.0837 35.9349 47.2903 35.179 46.3293C34.8003 45.8525 34.4705 45.3387 34.1944 44.7956C33.9226 44.2573 33.7047 43.6933 33.544 43.1118C33.3857 42.53 33.289 41.9394 33.2451 41.3399L33.2363 41.2253V40.4407C33.2451 40.1498 33.2715 39.8413 33.3067 39.5416C33.3418 39.2418 33.3946 38.9333 33.456 38.6336C33.5176 38.3339 33.5879 38.0342 33.6758 37.7344C33.8401 37.1521 34.0488 36.5833 34.3 36.0331C34.8009 34.9576 35.4515 33.9966 36.2337 33.2298C36.4271 33.0358 36.6293 32.8594 36.8402 32.6832C37.0527 32.5146 37.2727 32.3558 37.4995 32.2072C37.7193 32.0573 37.9566 31.925 38.194 31.8016C38.3115 31.7376 38.4317 31.6787 38.5544 31.6253C38.6772 31.5725 38.8007 31.5195 38.9236 31.4667C39.1697 31.3608 39.4245 31.2727 39.6882 31.1934C39.7498 31.1758 39.8201 31.1582 39.8816 31.1317C39.9432 31.114 40.0135 31.0964 40.075 31.0788C40.2069 31.0435 40.3388 31.0083 40.4707 30.9818C40.5322 30.9642 40.6025 30.9554 40.6728 30.9378C40.7431 30.9201 40.8047 30.9113 40.875 30.8936C40.9453 30.8849 41.0069 30.8671 41.0771 30.8584L41.1738 30.8408L41.2793 30.8231C41.3496 30.8143 41.4112 30.8055 41.4815 30.7966C41.5606 30.7879 41.6308 30.779 41.71 30.7702C41.7716 30.7614 41.877 30.7526 41.9386 30.7437C41.9825 30.735 42.0352 30.735 42.0792 30.7261L42.1759 30.7174L42.2198 30.7085H42.2725C42.3517 30.6997 42.422 30.6997 42.5011 30.6909L42.6154 30.6821H42.7033C42.7648 30.6821 42.8351 30.6733 42.8966 30.6733C43.1544 30.6645 43.4124 30.6645 43.6702 30.6733C44.18 30.6909 44.681 30.7527 45.1645 30.8408C46.1402 31.026 47.0544 31.3344 47.8894 31.7487C48.7244 32.1543 49.4629 32.6567 50.1133 33.2033C50.1573 33.2385 50.1925 33.2738 50.2364 33.3091C50.2715 33.3443 50.3156 33.3796 50.3507 33.415C50.4298 33.4854 50.5001 33.5559 50.5792 33.6264C50.6584 33.697 50.7287 33.7675 50.799 33.838C50.8715 33.9094 50.9418 33.9829 51.0099 34.0584C51.2824 34.3493 51.5373 34.6402 51.7658 34.94C52.1906 35.4892 52.5643 36.0764 52.8822 36.6941L52.935 36.7999L52.9877 36.9058C53.0228 36.9763 53.058 37.0468 53.0844 37.1174C53.1195 37.1879 53.1459 37.2496 53.1811 37.3201C53.2075 37.3906 53.2426 37.4524 53.269 37.5229C53.3745 37.7873 53.48 38.0429 53.5591 38.2809C53.6909 38.6689 53.7876 39.0127 53.8668 39.3123C53.8788 39.3711 53.9128 39.4231 53.9619 39.4575C54.0109 39.4919 54.0712 39.5063 54.1304 39.4975C54.2623 39.4887 54.3589 39.3829 54.3589 39.2507C54.3677 38.9333 54.3589 38.5543 54.315 38.1223V38.1223Z" fill="url(#paint0_linear_245_33006)"/>
<defs>
<linearGradient id="paint0_linear_245_33006" x1="39.6795" y1="63.184" x2="39.6795" y2="33.9645" gradientUnits="userSpaceOnUse">
<stop stop-color="#FFF100"/>
<stop offset="1" stop-color="#F05A28"/>
</linearGradient>
</defs>
</svg>
