<svg width="80" height="80" viewBox="0 0 80 80" fill="none" xmlns="http://www.w3.org/2000/svg">
<rect width="80" height="80" rx="8" fill="#F5F8FD"/>
<g clip-path="url(#clip0_245_32986)">
<path d="M28.447 36.939L30.5097 42.3064L32.5724 36.939H33.4225L30.1917 45.3524H29.3415L30.0882 43.4081L27.6041 36.939H28.4469H28.447ZM63.3722 36.9464V37.6784H61.413C60.7403 37.6784 60.3263 37.8706 60.0675 38.122C59.7645 38.4102 59.6607 38.8095 59.6607 39.1126V41.2566C59.6607 41.5597 59.7645 41.9515 60.0675 42.2473C60.3187 42.4987 60.7403 42.691 61.413 42.691H63.3722V43.4228H61.4944C60.4519 43.4228 59.8235 43.1124 59.439 42.7353C58.8599 42.1703 58.8409 41.3703 58.8403 41.2382V39.1311C58.8409 38.999 58.8599 38.1989 59.439 37.634C59.8308 37.257 60.4593 36.9464 61.4944 36.9464H63.3722ZM52.7113 36.9464V37.6784H51.3435C50.9591 37.6784 50.693 37.7522 50.5303 37.915C50.3677 38.0702 50.2863 38.3437 50.2863 38.7134V43.4154H49.4731V38.6543C49.4805 38.292 49.5396 37.9001 49.7318 37.6045C50.0794 37.0499 50.7447 36.9465 51.24 36.9465H52.7113V36.9464ZM26.9609 35.0021V41.7075C26.9535 42.0698 26.887 42.4618 26.7022 42.7574C26.3546 43.3046 25.6893 43.4154 25.194 43.4154H24.4324C23.39 43.4154 22.7615 43.105 22.3772 42.7278C21.8176 42.1821 21.7809 41.4169 21.7784 41.2465L21.7783 41.2246V39.13L21.7784 39.1081C21.7809 38.9378 21.8176 38.1724 22.3772 37.6268C22.769 37.2497 23.3974 36.9392 24.4324 36.9392H26.1402V35.002H26.9609V35.0021ZM36.3798 36.939C37.3558 36.9538 37.9545 37.257 38.3316 37.6266C38.8939 38.182 38.9216 38.9645 38.923 39.1164V43.4155H38.1098V39.1127C38.1098 38.8096 38.0063 38.4178 37.7106 38.122C37.4592 37.8781 36.9786 37.6859 36.3354 37.6784C35.6923 37.6859 35.2116 37.8781 34.9603 38.122C34.6572 38.4178 34.5611 38.8096 34.5611 39.1127V43.4155H33.7478V39.1164C33.7493 38.9645 33.777 38.1818 34.3393 37.6266C34.7164 37.257 35.3152 36.9538 36.291 36.939H36.3798ZM66.4552 36.939C67.4311 36.9538 68.0299 37.257 68.4069 37.6266C69.0058 38.2106 69.0058 39.0461 68.9984 39.1348V40.4804H64.6364V41.2419C64.6364 41.5449 64.7399 41.9367 65.0357 42.2326C65.2869 42.4765 65.7676 42.6687 66.4108 42.6762H68.2887V43.4154H66.3664C65.3905 43.4007 64.7917 43.0975 64.4146 42.7278C63.8426 42.1629 63.8238 41.3629 63.8232 41.2308V39.1238C63.8238 38.9916 63.8426 38.1915 64.4146 37.6266C64.7917 37.257 65.3906 36.9538 66.3664 36.939H66.4552ZM46.3975 35.002V36.9464H48.1053V37.6784H46.3975V41.6559C46.3975 42.0255 46.4789 42.2843 46.6415 42.4395C46.8042 42.6022 47.0703 42.6761 47.4548 42.6761H48.8225V43.4081H47.3512C46.8559 43.4081 46.1906 43.3046 45.843 42.7501C45.6508 42.4544 45.5917 42.0625 45.5843 41.7003V35.0021H46.3975V35.002ZM42.0873 36.939C43.1297 36.939 43.7582 37.2496 44.1426 37.6266C44.712 38.182 44.74 38.9645 44.7414 39.1164V41.7003C44.734 42.0625 44.6676 42.4544 44.4827 42.7501C44.1352 43.2972 43.4698 43.4081 42.9745 43.4081H41.3258C40.8304 43.4081 40.1651 43.3046 39.8177 42.7501C39.6254 42.4544 39.5662 42.0625 39.5588 41.7003V41.4415C39.5662 41.0792 39.6328 40.6874 39.8177 40.3917C40.1651 39.8446 40.8306 39.7337 41.3258 39.7337H43.9209V39.1052C43.9209 38.8021 43.8172 38.4103 43.5141 38.1145C43.2629 37.8632 42.8414 37.6709 42.1687 37.6709H40.2758V36.939H42.0873ZM55.5429 36.939C56.5853 36.939 57.2137 37.2496 57.5982 37.6266C58.1675 38.182 58.1955 38.9645 58.1969 39.1164V41.7003C58.1897 42.0625 58.1232 42.4544 57.9382 42.7501C57.5908 43.2972 56.9253 43.4081 56.43 43.4081H54.7814C54.286 43.4081 53.6206 43.3046 53.2732 42.7501C53.081 42.4544 53.0218 42.0625 53.0144 41.7003V41.4415C53.0218 41.0792 53.0884 40.6874 53.2732 40.3917C53.6206 39.8446 54.2861 39.7337 54.7814 39.7337H57.3765V39.1052C57.3765 38.8021 57.2727 38.4103 56.9697 38.1145C56.7185 37.8632 56.2969 37.6709 55.6242 37.6709H53.7315V36.939H55.5429ZM26.1328 37.6784H24.3438C23.6709 37.6784 23.2569 37.8706 22.9982 38.122C22.6951 38.4177 22.5915 38.8095 22.5915 39.1126V41.2493C22.5915 41.5523 22.695 41.9441 22.9982 42.2399C23.2495 42.4913 23.6709 42.6836 24.3438 42.6836H25.083C25.4675 42.6836 25.7336 42.6022 25.8963 42.4469C26.0589 42.2843 26.1403 42.0255 26.1329 41.6633V37.6784H26.1328ZM43.9283 40.4656H41.4442C41.0598 40.4656 40.7936 40.5469 40.631 40.7021C40.4684 40.8575 40.387 41.1162 40.387 41.4858V41.6633C40.387 42.0255 40.4609 42.2843 40.6236 42.4469C40.7862 42.6096 41.0524 42.6836 41.4368 42.6836H42.8711C43.2555 42.6836 43.5217 42.6022 43.6843 42.4469C43.847 42.2843 43.9283 42.0255 43.9283 41.6633V40.4656ZM57.3838 40.4656H54.8997C54.5153 40.4656 54.2491 40.5469 54.0865 40.7021C53.9239 40.8575 53.8426 41.1162 53.8426 41.4858V41.6633C53.8426 42.0255 53.9164 42.2843 54.0792 42.4469C54.2417 42.6096 54.5079 42.6836 54.8924 42.6836H56.3267C56.7111 42.6836 56.9773 42.6022 57.1399 42.4469C57.3026 42.2843 57.3838 42.0255 57.3838 41.6633V40.4656ZM66.4183 37.6784C65.7751 37.6858 65.2945 37.878 65.0432 38.122C64.7402 38.4177 64.6439 38.8095 64.6439 39.1126V39.7484H68.1927V39.1126C68.1927 38.8095 68.0892 38.4177 67.7934 38.1219C67.5421 37.878 67.0615 37.6858 66.4183 37.6783V37.6784Z" fill="#1A1A1A"/>
<path d="M13.4536 35.867C13.3205 36.5693 13.1579 37.6118 13.0692 38.669C12.914 40.5321 13.0101 41.7815 13.0101 41.7815L10.3855 44.273C10.3855 44.273 10.1859 42.8758 10.0824 41.301C10.0231 40.3251 10.001 39.4675 10.001 38.95C10.001 38.9204 10.0157 38.8909 10.0157 38.8612C10.0157 38.8244 10.0601 38.4768 10.4001 38.1514C10.7699 37.7967 13.498 35.6602 13.4536 35.8671V35.867Z" fill="#1496FF"/>
<path d="M13.4535 35.867C13.3204 36.5694 13.1578 37.6118 13.0691 38.6691C13.0691 38.6691 10.1636 38.3215 10.001 39.024C10.001 38.987 10.0527 38.5582 10.3928 38.2329C10.7624 37.878 13.4979 35.6601 13.4535 35.8671V35.867Z" fill="#1284EA"/>
<path d="M10.0006 38.8539V39.0164C10.0301 38.8908 10.0819 38.8021 10.1855 38.6615C10.3998 38.3881 10.7474 38.3141 10.8878 38.2993C11.5976 38.2032 12.6475 38.0924 13.7046 38.0628C15.5751 38.0037 16.8097 38.1589 16.8097 38.1589L19.4342 35.6674C19.4342 35.6674 18.0591 35.4086 16.4917 35.2237C15.6809 35.1249 14.8673 35.051 14.052 35.002C14.0152 35.002 13.6529 34.9577 13.3127 35.283C12.943 35.6379 11.0652 37.4195 10.3111 38.1366C9.97115 38.4619 10.0006 38.8242 10.0006 38.8539Z" fill="#B4DC00"/>
<path d="M19.3382 42.0402C18.6284 42.1363 17.5786 42.2545 16.5215 42.2915C14.651 42.3506 13.409 42.1954 13.409 42.1954L10.7842 44.6943C10.7842 44.6943 12.1741 44.9678 13.7414 45.1453C14.7025 45.2561 15.5529 45.3154 16.0703 45.3449C16.1072 45.3449 16.1664 45.3154 16.2034 45.3154C16.2403 45.3154 16.6026 45.2488 16.9428 44.9236C17.3124 44.5687 19.5451 42.0179 19.3381 42.0402H19.3382Z" fill="#6F2DA8"/>
<path d="M19.3381 42.0403C18.6283 42.1364 17.5785 42.2546 16.5213 42.2916C16.5213 42.2916 16.7209 45.2119 16.0186 45.3376C16.0554 45.3376 16.5361 45.3155 16.8761 44.9902C17.2458 44.6353 19.5451 42.0181 19.3381 42.0402V42.0403Z" fill="#591F91"/>
<path d="M16.1743 45.3525C16.1226 45.3525 16.0708 45.3451 16.0117 45.3451C16.1448 45.323 16.2335 45.2786 16.374 45.1751C16.655 44.9754 16.7436 44.628 16.7732 44.4875C16.8988 43.7852 17.0689 42.7428 17.1502 41.6855C17.2981 39.8224 17.2093 38.5804 17.2093 38.5804L19.8339 36.0815C19.8339 36.0815 20.0261 37.4714 20.137 39.0462C20.2036 40.0738 20.2257 40.9833 20.2332 41.4859C20.2332 41.5228 20.2628 41.8851 19.9227 42.2104C19.553 42.5653 17.6751 44.3544 16.9284 45.0717C16.5735 45.3968 16.2113 45.3525 16.1743 45.3525Z" fill="#73BE28"/>
</g>
<defs>
<clipPath id="clip0_245_32986">
<rect width="59" height="10.4863" fill="white" transform="translate(10 35)"/>
</clipPath>
</defs>
</svg>
