<svg
  width="80"
  height="80"
  viewBox="0 0 80 80"
  fill="none"
  xmlns="http://www.w3.org/2000/svg"
>
<rect width="80" height="80" rx="8" fill="#F5F8FD" />
<g clip-path="url(#clip0_0_1)">
<path
      d="M18.0098 37.9643V41.4877L14.959 43.2498V45.452L19.9182 42.5892V36.8628L18.0098 37.9643Z"
      fill="#00AC69"
    />
<path
      d="M14.9592 36.203L18.01 37.9643L19.9183 36.8628L14.9592 34L10 36.8628L11.9076 37.9643L14.9592 36.203Z"
      fill="#1CE783"
    />
<path
      d="M13.0516 40.8278V44.3513L14.9592 45.452V39.7263L10 36.8628V39.0657L13.0516 40.8278Z"
      fill="#1D252C"
    />
<path
      d="M26.7257 36.855C25.6581 36.855 25.1524 37.5293 25.1524 37.5293H25.0962L24.9845 36.9674H23.6914V42.6988H25.0962V39.385C25.0962 38.6545 25.6004 38.1488 26.3324 38.1488C27.0643 38.1488 27.5685 38.6531 27.5685 39.385V42.6988H28.9733V39.2712C28.9733 37.8102 28.0181 36.855 26.7257 36.855Z"
      fill="#1D252C"
    />
<path
      d="M41.8753 40.732H41.7946L40.8394 36.9673H39.4101L38.4549 40.732H38.3749L37.419 36.9673H35.958L37.419 42.6987H39.1299L40.0844 38.9901H40.1651L41.1203 42.6987H42.8305L44.2915 36.9673H42.8305L41.8753 40.732Z"
      fill="#1D252C"
    />
<path
      d="M48.5927 37.4728H48.5365L48.4241 36.9685H47.2441V42.6992H48.6489V39.3854C48.6489 38.6549 48.986 38.3178 49.7165 38.3178H50.4369V36.9678H49.6013C49.4055 36.9682 49.2126 37.014 49.0376 37.1016C48.8626 37.1893 48.7103 37.3163 48.5927 37.4728Z"
      fill="#1D252C"
    />
<path
      d="M53.5452 36.855C51.8602 36.855 50.624 38.0912 50.624 39.8331C50.624 41.575 51.7903 42.8112 53.5452 42.8112C54.9665 42.8112 55.8224 41.9748 56.179 41.3596L54.8895 40.9C54.7619 41.1334 54.2476 41.5822 53.5452 41.5822C52.7261 41.5822 52.1412 41.0693 52.0288 40.2855H56.2985C56.338 40.1008 56.3569 39.9124 56.3547 39.7236C56.3547 38.0912 55.1185 36.855 53.5452 36.855ZM52.0288 39.3274C52.1974 38.5969 52.7031 38.035 53.5452 38.035C54.3326 38.035 54.8376 38.5969 54.95 39.3274H52.0288Z"
      fill="#1D252C"
    />
<path
      d="M32.793 36.855C31.1073 36.855 29.8711 38.0912 29.8711 39.8331C29.8711 41.575 31.0352 42.8112 32.793 42.8112C34.2143 42.8112 35.0694 41.9748 35.426 41.3596L34.1365 40.9C34.009 41.1334 33.4954 41.5822 32.793 41.5822C31.9739 41.5822 31.3882 41.0693 31.2759 40.2855H35.5463C35.5858 40.1008 35.6047 39.9124 35.6025 39.7236C35.6025 38.0912 34.3663 36.855 32.793 36.855ZM31.2759 39.3274C31.4444 38.5969 31.9501 38.035 32.793 38.035C33.5797 38.035 34.0854 38.5969 34.1978 39.3274H31.2759Z"
      fill="#1D252C"
    />
<path d="M61.2661 34.7046H59.8613V36.1094H61.2661V34.7046Z" fill="#1D252C" />
<path
      d="M65.1426 41.5188C64.2998 41.5188 63.6255 40.8445 63.6255 39.8331C63.6255 38.8216 64.2998 38.1474 65.1426 38.1474C65.9855 38.1474 66.3226 38.7093 66.435 39.0464L67.7072 38.594C67.3989 37.7936 66.6425 36.855 65.1426 36.855C63.4569 36.855 62.2207 38.0912 62.2207 39.8331C62.2207 41.575 63.4569 42.8112 65.1426 42.8112C66.6554 42.8112 67.4118 41.8574 67.7144 41.0188L66.435 40.5636C66.3226 40.9569 65.9855 41.5188 65.1426 41.5188Z"
      fill="#1D252C"
    />
<path
      d="M56.5107 35.953H57.3082V42.6988H58.713V34.7046H56.5107V35.953Z"
      fill="#1D252C"
    />
<path d="M61.2661 36.9673H59.8613V42.6987H61.2661V36.9673Z" fill="#1D252C" />
<path
      d="M68.4667 41.5992C68.3592 41.5976 68.2537 41.6281 68.1636 41.6866C68.0734 41.7452 68.0028 41.8292 67.9605 41.9281C67.9183 42.0269 67.9065 42.1361 67.9265 42.2417C67.9465 42.3473 67.9974 42.4446 68.0729 42.5211C68.1483 42.5977 68.2448 42.6501 68.3501 42.6716C68.4554 42.6932 68.5647 42.6829 68.6642 42.6422C68.7636 42.6014 68.8487 42.532 68.9086 42.4427C68.9685 42.3535 69.0004 42.2484 69.0005 42.1409C69.0028 42.0698 68.9907 41.999 68.9648 41.9327C68.9389 41.8665 68.8998 41.8061 68.8499 41.7555C68.7999 41.7048 68.7402 41.6648 68.6743 41.6379C68.6084 41.6111 68.5378 41.5979 68.4667 41.5992ZM68.4667 42.5998C68.3756 42.6014 68.2861 42.5758 68.2096 42.5264C68.1331 42.4769 68.073 42.4058 68.0371 42.3221C68.0011 42.2384 67.9909 42.1459 68.0077 42.0564C68.0245 41.9668 68.0676 41.8843 68.1314 41.8194C68.1953 41.7544 68.277 41.7099 68.3663 41.6915C68.4555 41.6732 68.5481 41.6818 68.6325 41.7163C68.7168 41.7508 68.7889 41.8096 68.8397 41.8852C68.8905 41.9608 68.9176 42.0498 68.9176 42.1409C68.9197 42.201 68.9095 42.2608 68.8876 42.3167C68.8658 42.3726 68.8327 42.4235 68.7905 42.4662C68.7483 42.5089 68.6977 42.5425 68.6421 42.565C68.5864 42.5875 68.5267 42.5984 68.4667 42.597V42.5998Z"
      fill="#1D252C"
    />
<path
      d="M68.6986 42.0412C68.6985 42.0153 68.6931 41.9896 68.6826 41.9658C68.6722 41.942 68.6569 41.9206 68.6379 41.9029C68.6189 41.8852 68.5964 41.8716 68.5719 41.863C68.5474 41.8543 68.5214 41.8507 68.4955 41.8525H68.2549V42.4173H68.3377V42.2213H68.4134L68.6086 42.4173H68.7116L68.5164 42.2213C68.5644 42.2213 68.6104 42.2024 68.6445 42.1687C68.6786 42.135 68.6981 42.0892 68.6986 42.0412ZM68.3385 42.1385V41.9353H68.4955C68.5106 41.9335 68.5258 41.9349 68.5403 41.9394C68.5548 41.9438 68.5682 41.9513 68.5796 41.9613C68.591 41.9713 68.6002 41.9836 68.6066 41.9973C68.6129 42.0111 68.6163 42.0261 68.6165 42.0412C68.6165 42.101 68.5783 42.1385 68.4955 42.1385H68.3385Z"
      fill="#1D252C"
    />
</g>
<defs>
<clipPath id="clip0_0_1">
<rect width="59" height="11.4521" fill="white" transform="translate(10 34)" />
</clipPath>
</defs>
</svg>
