<svg
  width="80"
  height="80"
  viewBox="0 0 80 80"
  fill="none"
  xmlns="http://www.w3.org/2000/svg"
>
<rect width="80" height="80" rx="8" fill="#F5F8FD" />
<path d="M10 33H69V47.229H10V33Z" fill="#D31F26" />
<path
    d="M12.5227 35.1714H21.0525V36.1908L14.1906 43.9388H21.2176V45.0654H12.3555V44.044L19.2217 36.298H12.5227V35.1714ZM26.9917 36.489L24.9979 41.4146H28.9919L26.9917 36.489ZM26.162 35.1714H27.8278L31.9699 45.0654H30.4417L29.4512 42.5315H24.5534L23.5649 45.0654H22.0156L26.162 35.1714ZM35.0136 40.3406V43.9661H37.3715C38.1617 43.9661 38.7473 43.8166 39.1282 43.5178C39.5092 43.2189 39.6997 42.7641 39.6997 42.1533C39.6997 41.5355 39.5092 41.0774 39.1282 40.7889C38.7473 40.5004 38.161 40.3465 37.3715 40.3465H35.0136V40.3406ZM35.0136 36.2707V39.253H37.1894C37.9091 39.253 38.4382 39.1302 38.7938 38.8826C38.9739 38.7489 39.1161 38.5768 39.2079 38.3812C39.2997 38.1856 39.3385 37.9724 39.3208 37.7599C39.3362 37.5475 39.2955 37.3347 39.2023 37.1399C39.1091 36.9451 38.966 36.7739 38.7854 36.6411C38.4319 36.3935 37.8964 36.2707 37.181 36.2707H35.0136ZM33.5447 35.1714H37.3037C38.4326 35.1714 39.2962 35.3832 39.8944 35.8068C40.1935 36.0181 40.4323 36.2931 40.5905 36.6082C40.7487 36.9233 40.8214 37.269 40.8025 37.6157C40.8322 38.1324 40.6686 38.6429 40.3389 39.0619C39.992 39.4378 39.502 39.677 38.9695 39.7305C39.6289 39.834 40.2281 40.1471 40.6628 40.6154C41.0738 41.0918 41.2869 41.6875 41.2639 42.2956C41.2639 43.1793 40.9337 43.8615 40.2733 44.3423C39.6129 44.8231 38.6746 45.0635 37.4582 45.0635H33.5426L33.5447 35.1714ZM45.0716 40.3406V43.9661H47.4274C48.219 43.9661 48.8032 43.8179 49.1842 43.5178C49.5652 43.2176 49.7556 42.7634 49.7556 42.1533C49.7556 41.5432 49.5652 41.0774 49.1842 40.7889C48.8032 40.5004 48.219 40.3465 47.4274 40.3465H45.0716V40.3406ZM45.0716 36.2707V39.253H47.2517C47.9714 39.253 48.5061 39.1295 48.8561 38.8826C49.0362 38.7489 49.1783 38.5768 49.2701 38.3812C49.362 38.1856 49.4007 37.9724 49.3831 37.7599C49.3995 37.5481 49.3601 37.3358 49.2684 37.141C49.1766 36.9463 49.0352 36.7748 48.8561 36.6411C48.5033 36.3942 47.9685 36.2707 47.2517 36.2707H45.0716ZM43.6027 35.1714H47.3554C48.4758 35.1714 49.3387 35.3832 49.944 35.8068C50.2435 36.0179 50.4827 36.2928 50.6413 36.6079C50.7998 36.923 50.8729 37.2688 50.8542 37.6157C50.8842 38.1327 50.7197 38.6435 50.3885 39.0619C50.0424 39.4377 49.5531 39.6769 49.0212 39.7305C49.6805 39.8345 50.2795 40.1475 50.7145 40.6154C51.1247 41.0921 51.3371 41.6878 51.3135 42.2956C51.3135 43.1793 50.984 43.8615 50.325 44.3423C49.666 44.8231 48.7277 45.0635 47.5099 45.0635H43.6027V35.1714ZM57.9193 35.1714H59.528L62.0806 38.7247L64.6586 35.1714H66.2206L62.8658 39.8065L66.6439 45.0693H65.0311L62.053 40.9254L59.0475 45.0654H57.4854L61.2741 39.8416L57.9193 35.1714ZM53.665 35.1714H55.1339V45.0654H53.665V35.1714Z"
    fill="white"
  />
</svg>
