<svg width="80" height="80" viewBox="0 0 80 80" fill="none" xmlns="http://www.w3.org/2000/svg">
<rect width="80" height="80" rx="8" fill="#F5F8FD"/>
<g clip-path="url(#clip0_245_32183)">
<path d="M24.2059 41.3244C25.31 41.3244 26.9074 41.0967 26.9074 39.7835C26.9107 39.6822 26.9015 39.5808 26.88 39.4817L26.2225 36.6256C26.0708 35.9972 25.9376 35.7123 24.8343 35.1607C23.9782 34.7228 22.1134 34 21.5618 34C21.0482 34 20.8991 34.6619 20.2865 34.6619C19.697 34.6619 19.2593 34.1677 18.7077 34.1677C18.1781 34.1677 17.833 34.5287 17.5665 35.2709C17.5665 35.2709 16.8242 37.3644 16.7289 37.6679C16.7138 37.7237 16.7072 37.7814 16.7095 37.8391C16.7095 38.6529 19.9133 41.3209 24.2061 41.3209M27.0769 40.3165C27.2296 41.0393 27.2296 41.1152 27.2296 41.2106C27.2296 42.4461 25.8405 43.1319 24.0145 43.1319C19.8875 43.1345 16.2727 40.7164 16.2727 39.118C16.2724 38.8955 16.3178 38.6754 16.406 38.4711C14.9213 38.5452 13 38.8099 13 40.5063C13 43.2846 19.5831 46.7088 24.7955 46.7088C28.7917 46.7088 29.7996 44.9013 29.7996 43.4742C29.7996 42.3516 28.8289 41.0772 27.0787 40.3164" fill="#EE0000"/>
<path d="M27.0769 40.3165C27.2295 41.0393 27.2295 41.1153 27.2295 41.2106C27.2295 42.4462 25.8404 43.1319 24.0143 43.1319C19.8874 43.1345 16.2725 40.7164 16.2725 39.118C16.2722 38.8955 16.3176 38.6754 16.4058 38.4711L16.7287 37.6714C16.7139 37.7261 16.7074 37.7826 16.7093 37.8391C16.7093 38.6529 19.9131 41.3209 24.2059 41.3209C25.31 41.3209 26.9074 41.0931 26.9074 39.7799C26.9106 39.6786 26.9014 39.5772 26.8799 39.4781L27.0769 40.3166V40.3165ZM64.1216 42.1461C64.1216 43.1955 64.7526 43.7055 65.9035 43.7055C66.2578 43.6968 66.61 43.647 66.9529 43.5574V42.3403C66.7337 42.4097 66.505 42.4442 66.275 42.4426C65.8012 42.4426 65.6255 42.2944 65.6255 41.8487V39.9838H66.9988V38.7305H65.6256V37.142L64.1251 37.4667V38.7305H63.1287V39.9838H64.1216V42.1461ZM59.444 42.1744C59.444 41.8495 59.7697 41.6915 60.2613 41.6915C60.5618 41.6933 60.861 41.7306 61.1527 41.8028V42.4338C60.8652 42.5908 60.542 42.6707 60.2145 42.6659C59.7326 42.6659 59.444 42.4805 59.444 42.1744ZM59.9029 43.7241C60.4325 43.7241 60.8596 43.6129 61.2586 43.3437V43.6411H62.743V40.494C62.743 39.2972 61.9363 38.6406 60.5905 38.6406C59.8385 38.6406 59.0954 38.817 58.2958 39.1789L58.8341 40.2839C59.4095 40.042 59.8932 39.8937 60.3195 39.8937C60.9373 39.8937 61.2568 40.1347 61.2568 40.6272V40.8682C60.8931 40.774 60.5188 40.7272 60.1431 40.7287C58.8801 40.7287 58.1193 41.2582 58.1193 42.2053C58.1193 43.0684 58.8059 43.7267 59.9012 43.7267M51.7427 43.6439H53.3393V41.0977H56.0127V43.6412H57.6136V37.1437H56.0188V39.6405H53.3455V37.1437H51.7489L51.7427 43.6439ZM45.6654 41.1815C45.6654 40.4754 46.2222 39.937 46.9558 39.937C47.3373 39.9293 47.7078 40.0654 47.9935 40.3183V42.0349C47.8551 42.1658 47.6921 42.2679 47.514 42.3355C47.3359 42.403 47.1461 42.4346 46.9558 42.4286C46.232 42.4286 45.6654 41.8901 45.6654 41.185M48.0139 43.6447H49.4993V36.8188L47.9989 37.1437V38.9909C47.617 38.7744 47.1847 38.6624 46.7457 38.6661C45.3168 38.6661 44.1934 39.7702 44.1934 41.1815C44.1892 41.5126 44.2511 41.8412 44.3754 42.1482C44.4997 42.4551 44.6839 42.7342 44.9172 42.9692C45.1505 43.2042 45.4284 43.3903 45.7344 43.5168C46.0405 43.6432 46.3686 43.7074 46.6998 43.7057C47.1733 43.7079 47.635 43.5585 48.0175 43.2794L48.0139 43.6447ZM41.1979 39.8691C41.6709 39.8691 42.0699 40.1753 42.2279 40.6485H40.1803C40.3285 40.1604 40.7001 39.8691 41.1979 39.8691ZM38.6676 41.1929C38.6676 42.6227 39.8369 43.7365 41.3399 43.7365C42.1661 43.7365 42.7698 43.5132 43.3919 42.9933L42.3982 42.1108C42.1661 42.3526 41.8228 42.4823 41.415 42.4823C41.1586 42.4896 40.906 42.419 40.6905 42.2799C40.475 42.1408 40.3067 41.9397 40.2076 41.703H43.707V41.3297C43.707 39.7702 42.6585 38.6477 41.2288 38.6477C40.8927 38.6426 40.559 38.7048 40.2472 38.8305C39.9355 38.9563 39.6521 39.1431 39.4136 39.38C39.1752 39.6169 38.9865 39.8991 38.8587 40.21C38.7308 40.5208 38.6664 40.8541 38.6693 41.1903M36.079 38.5082C36.6085 38.5082 36.905 38.8418 36.905 39.2415C36.905 39.6414 36.6086 39.975 36.079 39.975H34.5002V38.5081H36.079V38.5082ZM32.9016 43.6411H34.4982V41.2741H35.7135L36.9394 43.6412H38.7266L37.2968 41.042C37.6602 40.8942 37.971 40.6411 38.1893 40.3152C38.4076 39.9894 38.5234 39.6056 38.5218 39.2134C38.5218 38.044 37.6031 37.1437 36.2272 37.1437H32.9016V43.6412V43.6411Z" fill="black"/>
</g>
<defs>
<clipPath id="clip0_245_32183">
<rect width="54" height="12.7615" fill="white" transform="translate(13 34)"/>
</clipPath>
</defs>
</svg>
