<svg width="80" height="80" viewBox="0 0 80 80" fill="none" xmlns="http://www.w3.org/2000/svg">
<rect width="80" height="80" rx="8" fill="#F5F8FD"/>
<path d="M66.7531 42.9224C66.8662 42.9224 66.9301 42.8904 66.9301 42.77C66.9301 42.652 66.8686 42.6249 66.7506 42.6249H66.4999V42.9224H66.7531ZM66.4999 43.0256V43.3428H66.3892V42.5192H66.7555C66.9645 42.5192 67.0432 42.6028 67.0432 42.765C67.0432 42.8978 66.9866 42.9888 66.8465 43.0158L67.0309 43.3403H66.9129L66.7285 43.0232L66.4999 43.0256ZM66.6818 42.3078C66.517 42.3084 66.3592 42.3742 66.2427 42.4907C66.1262 42.6072 66.0605 42.765 66.0598 42.9298C66.0598 43.2739 66.3401 43.5542 66.6818 43.5542C66.847 43.5535 67.0052 43.4874 67.1217 43.3704C67.2383 43.2534 67.3037 43.0949 67.3037 42.9298C67.3037 42.7648 67.2382 42.6066 67.1216 42.49C67.0049 42.3733 66.8467 42.3078 66.6818 42.3078ZM65.9689 42.9298C65.9695 42.7409 66.0448 42.5599 66.1784 42.4264C66.312 42.2928 66.4929 42.2175 66.6818 42.2168C66.8707 42.2175 67.0516 42.2928 67.1852 42.4264C67.3187 42.5599 67.3941 42.7409 67.3947 42.9298C67.3947 43.1191 67.3197 43.3006 67.186 43.4347C67.0524 43.5688 66.8711 43.6445 66.6818 43.6451C66.4929 43.6445 66.312 43.5692 66.1784 43.4356C66.0448 43.302 65.9695 43.1211 65.9689 42.9322V42.9298ZM14.9707 41.3073V32.268H13.9333V41.3073C13.9333 43.3968 14.0145 45.0759 10.3933 45.0759C10.2622 45.076 10.131 45.0736 10 45.0685L10 46.0445C10.1311 46.0478 10.2622 46.0494 10.3933 46.0494C14.7839 46.0494 14.9707 44.0827 14.9707 41.3073ZM53.1732 37.1355H60.8777C60.7744 34.8787 60.6294 32.9538 57.3377 32.9538C54.1664 32.9538 53.2986 34.6722 53.1732 37.133V37.1355ZM57.3573 32C61.7676 32 61.9126 34.9598 61.893 38.0868H53.1536C53.1733 40.8402 53.8567 42.8929 57.4385 42.8929C59.3437 42.8929 60.2164 42.3766 61.1456 41.6908L61.7258 42.4578C60.6908 43.2248 59.469 43.8246 57.4385 43.8246C52.9643 43.8246 52.1383 41.236 52.1383 37.9C52.1383 34.569 53.0921 32 57.3573 32ZM47.1577 38.6498C48.9867 38.6498 49.8963 37.7599 49.8963 35.9604C49.8963 34.1584 48.9154 33.3054 47.1135 33.3054H42.863V38.6523L47.1577 38.6498ZM47.1454 32.2925C49.7709 32.2925 50.9608 33.5955 50.9608 35.9161C50.9608 38.2515 49.7857 39.67 47.1307 39.67H42.8655V43.5984H41.8526V32.2925H47.1454ZM39.9548 32.2925V43.6009H38.942V32.2925H39.9548ZM37.0195 43.6009H35.9625V36.6831C35.9625 34.6943 35.9846 33.0178 32.3389 33.0178C28.7153 33.0178 28.7989 34.6943 28.7989 36.7864V43.5984H27.7615V36.7864C27.7615 34.0109 27.9483 32.0418 32.3389 32.0418C36.7491 32.0418 37.0195 34.0109 37.0195 36.7028V43.6009ZM16.753 32.268H17.8101V39.1857C17.8101 41.1745 17.7855 42.8486 21.4312 42.8486C25.0548 42.8486 24.9712 41.1745 24.9712 39.0825V32.268H26.0087V39.0825C26.0087 41.8555 25.8218 43.8246 21.4312 43.8246C17.021 43.8246 16.753 41.8579 16.753 39.1636V32.268ZM63.3802 36.7839V43.596H64.4152V36.7839C64.4152 34.6943 64.3316 33.0153 67.9552 33.0153C68.3461 33.0153 68.6902 33.035 69 33.0718V32.086C68.6534 32.0561 68.3056 32.0413 67.9577 32.0418C63.5671 32.0418 63.3802 34.0085 63.3802 36.7839ZM62.3207 47.5023C62.6536 47.7151 63.0417 47.8253 63.4368 47.8194C64.0809 47.8194 64.3685 47.6375 64.3685 47.2073C64.3685 46.7648 63.9973 46.7008 63.4343 46.6C62.7632 46.482 62.306 46.369 62.306 45.7372C62.306 45.1324 62.6944 44.8964 63.4368 44.8964C63.926 44.8964 64.2751 45.007 64.5234 45.1767L64.3464 45.4471C64.0723 45.2813 63.7571 45.1961 63.4368 45.2013C62.8763 45.2013 62.6354 45.3561 62.6354 45.7273C62.6354 46.1231 62.9599 46.1993 63.5155 46.3001C64.1989 46.423 64.693 46.5238 64.693 47.195C64.693 47.8145 64.2972 48.1119 63.4442 48.1119C62.987 48.1267 62.5361 48.0024 62.1511 47.7555L62.3207 47.5023ZM60.3811 46.4157L59.7567 47.0966V48.0701H59.4322V44.948H59.7567V46.6713L61.3374 44.9505H61.7209L60.5999 46.1748L61.8733 48.0701H61.4972L60.3811 46.4157ZM57.6769 46.4943C58.1194 46.4943 58.3898 46.3591 58.3898 45.8675C58.3898 45.3832 58.1268 45.2553 57.6622 45.2553H56.6469V46.4943H57.6769ZM57.5835 46.7992H56.6493V48.0701H56.3224V44.948H57.672C58.3972 44.948 58.7242 45.2381 58.7242 45.8576C58.7242 46.3985 58.4685 46.7131 57.9227 46.7844L58.6775 48.0701H58.3235L57.5835 46.7992ZM55.312 46.5115C55.312 45.6683 54.9187 45.2135 54.0681 45.2135C53.22 45.2135 52.834 45.6683 52.834 46.5115C52.834 47.3597 53.22 47.8145 54.0681 47.8145C54.9187 47.8145 55.312 47.3597 55.312 46.5115ZM54.0681 44.8964C55.0711 44.8964 55.6439 45.3955 55.6439 46.5066C55.6439 47.6252 55.0711 48.1218 54.0681 48.1218C53.07 48.1218 52.4997 47.6252 52.4997 46.5066C52.4997 45.3955 53.07 44.8964 54.0681 44.8964ZM48.2738 44.948L49.0949 47.5293L49.9332 44.948H50.2208L51.0566 47.5293L51.8802 44.948H52.1997L51.1967 48.0923H50.9116L50.0684 45.4913L49.2301 48.0923H48.94L47.9321 44.948H48.2738ZM44.8518 45.2652V44.948H47.5265V45.2652H46.3563V48.0701H46.022V45.2652H44.8518ZM44.3503 44.948V45.2652H42.6172V46.2977H44.3085V46.6099H42.6172V47.7653H44.3675V48.0701H42.2853V44.948H44.3503ZM39.3009 44.948L41.1692 47.5244V44.948H41.4888V48.0701H41.184L39.2591 45.42V48.0701H38.9395V44.948H39.3009Z" fill="black"/>
</svg>
