<svg width="80" height="80" viewBox="0 0 80 80" fill="none" xmlns="http://www.w3.org/2000/svg">
<rect width="80" height="80" rx="8" fill="#F5F8FD"/>
<g clip-path="url(#clip0_245_32219)">
<path d="M29.4098 42.8498H29.1836L28.584 44.2187H28.8329L28.9686 43.8906H29.6134L29.7492 44.2187H29.9981L29.3985 42.8498H29.4098ZM29.5343 43.6757H29.0704L29.308 43.1326L29.5456 43.6757H29.5343ZM31.4461 42.8498H31.2085V43.6304C31.2085 43.7548 31.1746 43.8453 31.118 43.9132C31.0615 43.9811 30.971 44.0037 30.8692 44.0037C30.756 44.0037 30.6768 43.9698 30.6203 43.9019C30.5637 43.834 30.5298 43.7435 30.5298 43.6078V42.8385H30.2922V43.6191C30.2922 43.7209 30.3035 43.8001 30.3375 43.8793C30.3601 43.9585 30.4053 44.015 30.4506 44.0716C30.4958 44.1169 30.5637 44.1621 30.6316 44.1847C30.6995 44.2074 30.7787 44.2187 30.8692 44.2187C30.9597 44.2187 31.0388 44.2074 31.1067 44.1847C31.1746 44.1621 31.2425 44.1169 31.2877 44.0716C31.333 44.015 31.3782 43.9585 31.4008 43.8793C31.4235 43.8001 31.4461 43.7096 31.4461 43.6078V42.8385V42.8498ZM33.1091 43.5286C33.1091 43.4381 33.0864 43.3476 33.0525 43.2571C33.0186 43.1779 32.9733 43.0987 32.9054 43.0421C32.8376 42.9856 32.7697 42.929 32.6792 42.8951C32.5887 42.8611 32.4982 42.8385 32.3851 42.8385H31.876V44.196H32.3851C32.4869 44.196 32.5887 44.1734 32.6792 44.1395C32.7697 44.1055 32.8489 44.0603 32.9054 43.9924C32.9733 43.9358 33.0186 43.8567 33.0525 43.7775C33.0864 43.6983 33.1091 43.6078 33.1091 43.506V43.5286ZM32.8602 43.5286C32.8602 43.5965 32.8489 43.653 32.8263 43.7096C32.8036 43.7662 32.7697 43.8114 32.7357 43.8567C32.6905 43.9019 32.6452 43.9245 32.5887 43.9472C32.5321 43.9698 32.4642 43.9811 32.3964 43.9811H32.1249V43.0535H32.3964C32.4642 43.0535 32.5321 43.0648 32.5887 43.0874C32.6452 43.11 32.7018 43.144 32.7357 43.1892C32.781 43.2345 32.8036 43.2797 32.8263 43.3363C32.8489 43.3928 32.8602 43.4494 32.8602 43.5173V43.5286ZM33.5163 42.8498V44.2074H33.7539V42.8498H33.5163ZM34.7947 43.0761H35.2245V42.8498H34.1159V43.0761H34.5458V44.2187H34.7833V43.0761H34.7947ZM35.5979 42.8498V44.2074H35.8354V42.8498H35.5979ZM37.2495 43.7888L36.5255 42.8498H36.2993V44.2074H36.5368V43.2345L37.2835 44.2074H37.4871V42.8498H37.2495V43.7888ZM39.1501 44.015V43.4381H38.5731V43.6417H38.9238V43.9019C38.8785 43.9359 38.8333 43.9585 38.7767 43.9811C38.7202 44.0037 38.6636 44.0037 38.5957 44.0037C38.5279 44.0037 38.46 43.9924 38.4034 43.9698C38.3469 43.9472 38.3016 43.9132 38.2563 43.868C38.2111 43.8227 38.1885 43.7775 38.1658 43.7096C38.1432 43.653 38.1319 43.5852 38.1319 43.5173C38.1319 43.4494 38.1432 43.3928 38.1658 43.325C38.1885 43.2684 38.2224 43.2118 38.2563 43.1666C38.2903 43.1213 38.3469 43.0874 38.3921 43.0648C38.4487 43.0421 38.5052 43.0308 38.5618 43.0308C38.607 43.0308 38.641 43.0308 38.6749 43.0421C38.7089 43.0535 38.7428 43.0535 38.7767 43.0761C38.8107 43.0874 38.8333 43.0987 38.8672 43.1213C38.8899 43.144 38.9238 43.1553 38.9464 43.1779L39.0935 42.9969C39.0596 42.963 39.0256 42.9403 38.9804 42.9177C38.9464 42.8951 38.9012 42.8725 38.8672 42.8611C38.822 42.8498 38.7767 42.8385 38.7315 42.8272C38.6862 42.8159 38.6297 42.8159 38.5731 42.8159C38.4713 42.8159 38.3808 42.8385 38.2903 42.8725C38.1998 42.9064 38.1319 42.963 38.064 43.0195C38.0075 43.0874 37.9509 43.1553 37.917 43.2458C37.883 43.3363 37.8604 43.4268 37.8604 43.5173C37.8604 43.6191 37.8717 43.7096 37.9057 43.8001C37.9396 43.8906 37.9848 43.9585 38.0527 44.0264C38.1093 44.0942 38.1885 44.1395 38.279 44.1734C38.3695 44.2074 38.46 44.23 38.5731 44.23C38.6297 44.23 38.6862 44.23 38.7428 44.2187C38.7994 44.2074 38.8446 44.196 38.8899 44.1734C38.9351 44.1508 38.9804 44.1282 39.0256 44.1055C39.0709 44.0829 39.1048 44.049 39.1387 44.0264L39.1501 44.015ZM40.0664 43.7209V43.4947H39.4894V43.7209H40.0664ZM41.3447 43.6304V44.2074H41.5823V42.8498H41.3447V43.4155H40.6999V42.8498H40.4623V44.2074H40.6999V43.6304H41.3447ZM42.7362 42.8385H42.5099L41.9104 44.2074H42.1592L42.295 43.8793H42.9398L43.0756 44.2074H43.3244L42.7249 42.8385H42.7362ZM42.8606 43.6643H42.3968L42.6344 43.1213L42.8719 43.6643H42.8606ZM44.829 44.2074L44.467 43.687C44.5123 43.6757 44.5575 43.653 44.6028 43.6304C44.6367 43.6078 44.682 43.5738 44.7046 43.5399C44.7385 43.506 44.7498 43.4607 44.7725 43.4268C44.7838 43.3815 44.7951 43.3363 44.7951 43.2797C44.7951 43.2118 44.7838 43.1553 44.7612 43.0987C44.7385 43.0421 44.7046 42.9969 44.6593 42.963C44.6141 42.929 44.5575 42.8951 44.501 42.8725C44.4331 42.8498 44.3652 42.8385 44.286 42.8385H43.6751V44.196H43.9127V43.7209H44.2068L44.5462 44.196H44.829V44.2074ZM44.5462 43.291C44.5462 43.3589 44.5236 43.4155 44.467 43.4607C44.4218 43.506 44.3539 43.5286 44.2634 43.5286H43.9127V43.0761H44.2634C44.3539 43.0761 44.4218 43.0987 44.467 43.1326C44.5123 43.1666 44.5462 43.2232 44.5462 43.3023V43.291ZM46.4128 43.5286C46.4128 43.4381 46.3902 43.3476 46.3562 43.2571C46.3223 43.1779 46.2771 43.0987 46.2092 43.0421C46.1413 42.9856 46.0734 42.929 45.9829 42.8951C45.8924 42.8611 45.8019 42.8385 45.6888 42.8385H45.1797V44.196H45.6888C45.7906 44.196 45.8924 44.1734 45.9829 44.1395C46.0734 44.1055 46.1526 44.0603 46.2092 43.9924C46.2771 43.9358 46.3223 43.8567 46.3562 43.7775C46.3902 43.6983 46.4128 43.6078 46.4128 43.506V43.5286ZM46.1639 43.5286C46.1639 43.5965 46.1526 43.653 46.13 43.7096C46.1074 43.7662 46.0734 43.8114 46.0395 43.8567C45.9942 43.9019 45.949 43.9245 45.8924 43.9472C45.8359 43.9698 45.768 43.9811 45.7001 43.9811H45.4286V43.0535H45.7001C45.768 43.0535 45.8359 43.0648 45.8924 43.0874C45.949 43.11 46.0056 43.144 46.0395 43.1892C46.0847 43.2345 46.1074 43.2797 46.13 43.3363C46.1526 43.3928 46.1639 43.4494 46.1639 43.5173V43.5286ZM47.8156 42.8498H46.8088V44.2074H47.8269V43.9924H47.0463V43.6304H47.7251V43.4155H47.0463V43.0648H47.8156V42.8498ZM49.1618 43.7888L48.4378 42.8498H48.2115V44.2074H48.4491V43.2345L49.1957 44.2074H49.3994V42.8498H49.1618V43.7888ZM49.8632 42.8498V44.2074H50.1008V42.8498H49.8632ZM51.5148 43.7888L50.7908 42.8498H50.5646V44.2074H50.8021V43.2345L51.5488 44.2074H51.7524V42.8498H51.5148V43.7888ZM53.4154 44.015V43.4381H52.8384V43.6417H53.1891V43.9019C53.1439 43.9359 53.0986 43.9585 53.0421 43.9811C52.9855 44.0037 52.9289 44.0037 52.8611 44.0037C52.7932 44.0037 52.7253 43.9924 52.6687 43.9698C52.6122 43.9472 52.5669 43.9132 52.5217 43.868C52.4764 43.8227 52.4538 43.7775 52.4312 43.7096C52.4085 43.653 52.3972 43.5852 52.3972 43.5173C52.3972 43.4494 52.4085 43.3928 52.4312 43.325C52.4538 43.2684 52.4877 43.2118 52.5217 43.1666C52.5556 43.1213 52.6122 43.0874 52.6574 43.0648C52.714 43.0421 52.7706 43.0308 52.8271 43.0308C52.8724 43.0308 52.9063 43.0308 52.9402 43.0421C52.9742 43.0535 53.0081 43.0535 53.0421 43.0761C53.076 43.0874 53.0986 43.0987 53.1326 43.1213C53.1552 43.144 53.1891 43.1553 53.2118 43.1779L53.3588 42.9969C53.3249 42.963 53.2909 42.9403 53.2457 42.9177C53.2118 42.8951 53.1665 42.8725 53.1326 42.8611C53.0873 42.8498 53.0421 42.8385 52.9968 42.8272C52.9516 42.8159 52.895 42.8159 52.8384 42.8159C52.7366 42.8159 52.6461 42.8385 52.5556 42.8725C52.4651 42.9064 52.3972 42.963 52.3294 43.0195C52.2728 43.0874 52.2162 43.1553 52.1823 43.2458C52.1484 43.3363 52.1257 43.4268 52.1257 43.5173C52.1257 43.6191 52.137 43.7096 52.171 43.8001C52.2049 43.8906 52.2502 43.9585 52.318 44.0264C52.3746 44.0942 52.4538 44.1395 52.5443 44.1734C52.6348 44.2074 52.7253 44.23 52.8384 44.23C52.895 44.23 52.9516 44.23 53.0081 44.2187C53.0647 44.2074 53.1099 44.196 53.1552 44.1734C53.2004 44.1508 53.2457 44.1282 53.2909 44.1055C53.3362 44.0829 53.3701 44.049 53.4041 44.0264L53.4154 44.015ZM54.3317 43.7209V43.4947H53.7548V43.7209H54.3317ZM55.9042 43.9811L55.7458 43.8227C55.6892 43.8793 55.6327 43.9245 55.5648 43.9472C55.5082 43.9811 55.429 43.9924 55.3498 43.9924C55.282 43.9924 55.2254 43.9811 55.1688 43.9585C55.1123 43.9359 55.067 43.9019 55.0218 43.8567C54.9765 43.8114 54.9539 43.7662 54.9313 43.6983C54.9087 43.6417 54.8973 43.5738 54.8973 43.506C54.8973 43.4381 54.9087 43.3702 54.9313 43.3137C54.9539 43.2571 54.9878 43.2005 55.0218 43.1666C55.067 43.1213 55.1123 43.0874 55.1688 43.0648C55.2254 43.0421 55.282 43.0308 55.3498 43.0308C55.429 43.0308 55.4969 43.0421 55.5535 43.0761C55.61 43.11 55.6666 43.144 55.7232 43.2005L55.8815 43.0195C55.8476 42.9856 55.8137 42.963 55.7797 42.929C55.7458 42.9064 55.7005 42.8838 55.6666 42.8611C55.6214 42.8385 55.5761 42.8272 55.5309 42.8159C55.4743 42.8046 55.4177 42.8046 55.3612 42.8046C55.2594 42.8046 55.1575 42.8272 55.0783 42.8611C54.9878 42.8951 54.92 42.9516 54.8521 43.0082C54.7955 43.0761 54.739 43.144 54.705 43.2345C54.6711 43.325 54.6485 43.4155 54.6485 43.506C54.6485 43.6078 54.6711 43.6983 54.705 43.7775C54.739 43.868 54.7842 43.9359 54.8521 44.0037C54.9087 44.0716 54.9878 44.1169 55.067 44.1508C55.1462 44.1847 55.248 44.2074 55.3385 44.2074C55.4064 44.2074 55.463 44.2074 55.5082 44.196C55.5648 44.1847 55.61 44.1734 55.6553 44.1508C55.7005 44.1282 55.7458 44.1055 55.7797 44.0716C55.8137 44.0377 55.8589 44.0037 55.8929 43.9698L55.9042 43.9811ZM57.5785 43.5173C57.5785 43.4268 57.5558 43.325 57.5219 43.2458C57.488 43.1553 57.4427 43.0874 57.3748 43.0195C57.307 42.9516 57.2391 42.9064 57.1486 42.8725C57.0581 42.8385 56.9676 42.8159 56.8658 42.8159C56.7639 42.8159 56.6621 42.8385 56.5829 42.8725C56.4924 42.9064 56.4246 42.963 56.3567 43.0195C56.2888 43.0874 56.2436 43.1553 56.2096 43.2458C56.1757 43.3363 56.1531 43.4268 56.1531 43.5173C56.1531 43.6078 56.1757 43.7096 56.2096 43.7888C56.2436 43.8793 56.2888 43.9472 56.3567 44.015C56.4246 44.0829 56.4924 44.1282 56.5829 44.1621C56.6734 44.196 56.7639 44.2187 56.8658 44.2187C56.9676 44.2187 57.0694 44.196 57.1486 44.1621C57.2391 44.1282 57.307 44.0716 57.3748 44.015C57.4427 43.9472 57.488 43.8793 57.5219 43.7888C57.5558 43.6983 57.5785 43.6078 57.5785 43.5173ZM57.3296 43.5173C57.3296 43.5852 57.3183 43.6417 57.2956 43.7096C57.273 43.7662 57.2391 43.8227 57.2051 43.868C57.1599 43.9132 57.1146 43.9472 57.0581 43.9698C57.0015 43.9924 56.9449 44.0037 56.8771 44.0037C56.8092 44.0037 56.7526 43.9924 56.6848 43.9698C56.6282 43.9472 56.5829 43.9132 56.5377 43.868C56.4924 43.8227 56.4698 43.7775 56.4472 43.7096C56.4246 43.653 56.4132 43.5852 56.4132 43.5173C56.4132 43.4494 56.4246 43.3928 56.4472 43.325C56.4698 43.2684 56.5037 43.2118 56.5377 43.1666C56.5829 43.1213 56.6282 43.0874 56.6848 43.0648C56.7413 43.0421 56.7979 43.0308 56.8658 43.0308C56.9336 43.0308 56.9902 43.0421 57.0581 43.0648C57.1146 43.0874 57.1599 43.1213 57.2051 43.1666C57.2504 43.2118 57.273 43.2571 57.2956 43.325C57.3183 43.3815 57.3296 43.4494 57.3296 43.5173ZM59.0717 43.2232V44.196H59.3093V42.8385H59.0491L58.6305 43.4833L58.212 42.8385H57.9518V44.196H58.1893V43.2232L58.6192 43.8567H58.6305L59.0604 43.2118L59.0717 43.2232ZM60.8139 43.291C60.8139 43.2232 60.8026 43.1553 60.7799 43.0987C60.7573 43.0421 60.7234 42.9969 60.6781 42.9516C60.6329 42.9064 60.5763 42.8838 60.5198 42.8611C60.4519 42.8385 60.384 42.8272 60.3048 42.8272H59.7731V44.1847H60.0107V43.7435H60.2822C60.3614 43.7435 60.4293 43.7322 60.4971 43.7096C60.565 43.687 60.6216 43.6643 60.6668 43.6191C60.7121 43.5852 60.7573 43.5286 60.7799 43.472C60.8139 43.4155 60.8252 43.3476 60.8252 43.2684L60.8139 43.291ZM60.5763 43.3023C60.5763 43.3815 60.5537 43.4381 60.4971 43.4833C60.4406 43.5286 60.3727 43.5512 60.2822 43.5512H59.9994V43.0648H60.2822C60.3727 43.0648 60.4406 43.0874 60.4971 43.1213C60.5537 43.1666 60.5763 43.2232 60.5763 43.3023ZM61.1646 44.196H62.1149V43.9811H61.4021V42.8385H61.1646V44.196ZM62.4882 42.8385V44.196H62.7257V42.8385H62.4882ZM63.8909 42.8272H63.6647L63.0651 44.196H63.314L63.4498 43.868H64.0946L64.2303 44.196H64.4792L63.8796 42.8272H63.8909ZM64.0154 43.653H63.5516L63.7891 43.11L64.0267 43.653H64.0154ZM65.7802 43.7775L65.0562 42.8385H64.8299V44.196H65.0675V43.2232L65.8141 44.196H66.0177V42.8385H65.7802V43.7775ZM67.6468 43.9811L67.4884 43.8227C67.4318 43.8793 67.3753 43.9245 67.3074 43.9472C67.2508 43.9811 67.1716 43.9924 67.0924 43.9924C67.0246 43.9924 66.968 43.9811 66.9114 43.9585C66.8549 43.9359 66.8096 43.9019 66.7644 43.8567C66.7191 43.8114 66.6965 43.7662 66.6739 43.6983C66.6512 43.6417 66.6399 43.5738 66.6399 43.506C66.6399 43.4381 66.6512 43.3702 66.6739 43.3137C66.6965 43.2571 66.7304 43.2005 66.7644 43.1666C66.8096 43.1213 66.8549 43.0874 66.9114 43.0648C66.968 43.0421 67.0246 43.0308 67.0924 43.0308C67.1716 43.0308 67.2395 43.0421 67.2961 43.0761C67.3526 43.11 67.4092 43.144 67.4658 43.2005L67.6241 43.0195C67.5902 42.9856 67.5563 42.963 67.5223 42.929C67.4884 42.9064 67.4431 42.8838 67.4092 42.8611C67.3639 42.8385 67.3187 42.8272 67.2734 42.8159C67.2169 42.8046 67.1603 42.8046 67.1038 42.8046C67.0019 42.8046 66.9001 42.8272 66.8209 42.8611C66.7304 42.8951 66.6626 42.9516 66.5947 43.0082C66.5381 43.0761 66.4816 43.144 66.4476 43.2345C66.4137 43.325 66.3911 43.4155 66.3911 43.506C66.3911 43.6078 66.4137 43.6983 66.4476 43.7775C66.4816 43.868 66.5268 43.9359 66.5947 44.0037C66.6512 44.0716 66.7304 44.1169 66.8096 44.1508C66.8888 44.1847 66.9906 44.2074 67.0811 44.2074C67.149 44.2074 67.2056 44.2074 67.2508 44.196C67.3074 44.1847 67.3526 44.1734 67.3979 44.1508C67.4431 44.1282 67.4884 44.1055 67.5223 44.0716C67.5563 44.0377 67.6015 44.0037 67.6355 43.9698L67.6468 43.9811ZM69.0043 42.8385H67.9975V44.196H69.0156V43.9811H68.235V43.6191H68.9138V43.4042H68.235V43.0535H69.0043V42.8385Z" fill="#3B3E41"/>
<path d="M64.4003 41.7749V39.3087L60.9499 35.2814H62.4771L65.0112 38.2793L67.5452 35.2814H68.9933L65.5316 39.3087V41.7749H64.4003ZM56.9452 39.0825V38.087H60.2372V39.0825H56.9452ZM56.1194 41.7749V41.0396L56.1307 38.3698C56.142 38.1096 56.1986 37.8833 56.2778 37.6571C56.3796 37.3969 56.5153 37.1819 56.6963 37.0009C56.8773 36.8199 57.0923 36.6729 57.3412 36.5711C57.59 36.4692 57.8616 36.4127 58.1557 36.4127H60.52V35.2814H58.1557C57.7032 35.2814 57.2846 35.3606 56.9 35.5077C56.5153 35.6547 56.1873 35.8697 55.9044 36.1525C55.6216 36.424 55.3954 36.7634 55.2483 37.1593C55.0899 37.5666 55.0107 38.0304 55.0107 38.4603V41.7749H56.142H56.1194Z" fill="#FF3D00"/>
<path d="M50.9949 40.6323C51.289 40.6323 51.5718 40.5758 51.8207 40.4739C52.0696 40.3721 52.2845 40.2137 52.4655 40.0327C52.6465 39.8404 52.7936 39.6255 52.8954 39.354C52.9972 39.0938 53.0425 38.811 53.0425 38.5055C53.0425 38.2001 52.9972 37.9173 52.8954 37.6571C52.7936 37.3969 52.6578 37.1706 52.4655 36.9896C52.2845 36.8086 52.0696 36.6616 51.8207 36.5597C51.5718 36.4579 51.3003 36.4014 50.9949 36.4014H49.4111C49.117 36.4014 48.8455 36.4579 48.5966 36.5597C48.3477 36.6616 48.1327 36.8086 47.9517 36.9896C47.7707 37.1706 47.635 37.3969 47.5332 37.6458C47.4314 37.906 47.3861 38.1888 47.3861 38.4942C47.3861 38.7997 47.4314 39.0825 47.5332 39.3427C47.635 39.6029 47.7707 39.8291 47.9517 40.0214C48.1327 40.2137 48.3477 40.3608 48.5966 40.4626C48.8455 40.5644 49.117 40.621 49.4111 40.621H50.9949V40.6323ZM49.4111 41.7636C48.9586 41.7636 48.54 41.6731 48.1554 41.5034C47.7707 41.3337 47.4427 41.0961 47.1599 40.802C46.877 40.5079 46.6508 40.1572 46.5037 39.7499C46.3453 39.3427 46.2661 38.9015 46.2661 38.4377C46.2661 37.9625 46.3453 37.5213 46.5037 37.1367C46.6621 36.7407 46.877 36.4127 47.1599 36.1299C47.4427 35.847 47.7821 35.6434 48.1554 35.485C48.54 35.338 48.9586 35.2588 49.4111 35.2588H50.9949C51.47 35.2588 51.8999 35.338 52.2845 35.4963C52.6805 35.6547 53.0085 35.8697 53.2913 36.1525C53.5742 36.4353 53.7891 36.7634 53.9475 37.1593C54.1059 37.5553 54.185 37.9851 54.185 38.449C54.185 38.9241 54.1059 39.354 53.9475 39.7612C53.7891 40.1685 53.5742 40.5192 53.2913 40.8133C53.0085 41.1075 52.6691 41.345 52.2845 41.5147C51.8999 41.6844 51.47 41.7749 51.0062 41.7749H49.4224L49.4111 41.7636ZM38.5735 41.7636V40.6323H43.4493C43.7547 40.6323 43.9923 40.5531 44.1507 40.3948C44.3091 40.2364 44.3996 40.0327 44.3996 39.7726C44.3996 39.4897 44.3204 39.2861 44.1507 39.139C43.9923 39.0033 43.7547 38.9241 43.4493 38.9241H40.4627C40.1573 38.9241 39.8858 38.8788 39.6369 38.7883C39.388 38.6978 39.1844 38.5734 39.0147 38.4037C38.845 38.2453 38.7093 38.0417 38.6188 37.8155C38.5283 37.5892 38.483 37.3403 38.483 37.0688C38.483 36.8086 38.5283 36.5597 38.6074 36.3448C38.698 36.1185 38.8224 35.9262 38.9921 35.7679C39.1618 35.6095 39.3767 35.485 39.6256 35.3832C39.8745 35.2927 40.1573 35.2475 40.4854 35.2475H45.1462V36.3787H40.4854C40.2252 36.3787 40.0215 36.4466 39.8745 36.5937C39.7274 36.7294 39.6595 36.9331 39.6595 37.1819C39.6595 37.4308 39.7274 37.6231 39.8745 37.7589C40.0215 37.8946 40.2139 37.9625 40.474 37.9625H43.4493C44.1054 37.9625 44.6145 38.1209 44.9539 38.4263C45.2933 38.7318 45.463 39.2069 45.463 39.8404C45.463 40.1119 45.4177 40.3721 45.3385 40.5984C45.2593 40.8359 45.1349 41.0283 44.9652 41.198C44.7955 41.3676 44.5919 41.5034 44.3317 41.5939C44.0828 41.6844 43.7774 41.741 43.438 41.741H38.5622L38.5735 41.7636ZM36.2544 41.7636V35.2701H37.3857V41.7636H36.2544ZM31.7519 41.7636C31.2994 41.7636 30.8809 41.6731 30.4962 41.5034C30.1116 41.3337 29.7835 41.0961 29.4894 40.802C29.2066 40.5079 28.9803 40.1572 28.8333 39.7499C28.6749 39.3427 28.5957 38.9015 28.5957 38.4377C28.5957 37.9625 28.6749 37.5213 28.8333 37.1367C28.9916 36.7407 29.2066 36.4127 29.4894 36.1299C29.7722 35.847 30.1116 35.6434 30.4962 35.485C30.8809 35.338 31.2994 35.2588 31.7519 35.2588H35.2702V36.3901H31.7519C31.4578 36.3901 31.1863 36.4466 30.9374 36.5484C30.6886 36.6502 30.4736 36.7973 30.3039 36.9783C30.1229 37.1593 29.9872 37.3856 29.8854 37.6345C29.7835 37.8946 29.7383 38.1775 29.7383 38.4829C29.7383 38.7883 29.7835 39.0712 29.8854 39.3314C29.9872 39.5915 30.1229 39.8178 30.3039 40.0101C30.4849 40.2024 30.6999 40.3495 30.9374 40.4513C31.1863 40.5531 31.4578 40.6097 31.7519 40.6097H35.2702V41.741H31.7519V41.7636Z" fill="#353233"/>
<path fill-rule="evenodd" clip-rule="evenodd" d="M24.6582 34.0032H24.9523V45.5195H24.6582V34.0032Z" fill="#3B3E41"/>
<path fill-rule="evenodd" clip-rule="evenodd" d="M18.8891 42.0011C18.8891 42.3292 18.6176 42.5894 18.3008 42.5894H15.0088C14.6807 42.5894 14.4205 42.3179 14.4205 42.0011C14.4205 41.673 14.692 41.4128 15.0088 41.4128H18.3008C18.6289 41.4128 18.8891 41.6843 18.8891 42.0011ZM18.8891 37.3403C18.8891 37.6683 18.6176 37.9285 18.3008 37.9285H15.0088C14.6807 37.9285 14.4205 37.657 14.4205 37.3403C14.4205 37.0122 14.692 36.752 15.0088 36.752H18.3008C18.6289 36.752 18.8891 37.0235 18.8891 37.3403ZM19.8959 36.752C20.224 36.752 20.4841 37.0122 20.4841 37.3403C20.4841 37.6683 20.224 37.9285 19.8959 37.9285C19.5678 37.9285 19.3076 37.6683 19.3076 37.3403C19.3076 37.0122 19.5678 36.752 19.8959 36.752ZM19.8959 41.4128C20.224 41.4128 20.4841 41.673 20.4841 42.0011C20.4841 42.3292 20.224 42.5894 19.8959 42.5894C19.5678 42.5894 19.3076 42.3292 19.3076 42.0011C19.3076 41.673 19.5678 41.4128 19.8959 41.4128ZM18.3347 39.0824C18.6628 39.0824 18.923 39.3426 18.923 39.6707C18.923 39.9987 18.6628 40.2589 18.3347 40.2589C18.0067 40.2589 17.7465 39.9987 17.7465 39.6707C17.7465 39.3426 18.0067 39.0824 18.3347 39.0824ZM17.0111 39.6707C17.0111 39.9987 16.7396 40.2589 16.4229 40.2589H13.3119C12.9838 40.2589 12.7236 39.9874 12.7236 39.6707C12.7236 39.3426 12.9951 39.0824 13.3119 39.0824H16.4229C16.751 39.0824 17.0111 39.3539 17.0111 39.6707Z" fill="#FF3D00"/>
<path fill-rule="evenodd" clip-rule="evenodd" d="M11.321 39.7613C11.321 41.956 13.1197 43.7434 15.3031 43.7434H19.2964H19.2851C19.3077 43.7434 19.3304 43.7434 19.353 43.7434H19.8847C20.2128 43.7434 20.473 44.0149 20.473 44.3317C20.473 44.6597 20.2015 44.9199 19.8847 44.9199H19.353H15.2578C12.4183 44.9199 10.0879 42.5895 10.0879 39.75C10.0879 36.9105 12.4183 34.5801 15.2578 34.5801H19.353H19.8847C20.2128 34.5801 20.473 34.8516 20.473 35.1684C20.473 35.4964 20.2015 35.7566 19.8847 35.7566H19.353C19.3304 35.7566 19.3077 35.7566 19.2851 35.7566H19.2964H15.3031C13.1084 35.7566 11.321 37.5554 11.321 39.7387" fill="#353233"/>
</g>
<defs>
<clipPath id="clip0_245_32219">
<rect width="59" height="11.514" fill="white" transform="translate(10 34)"/>
</clipPath>
</defs>
</svg>
