<svg width="80" height="80" viewBox="0 0 80 80" fill="none" xmlns="http://www.w3.org/2000/svg">
<rect width="80" height="80" rx="8" fill="#F5F8FD"/>
<path d="M44.9604 36.1242H42.6709V43.1114H44.9604C47.155 43.1114 48.5073 41.771 48.5073 39.6239C48.5073 37.4657 47.155 36.1242 44.9604 36.1242ZM47.7955 39.6116C47.7955 41.3913 46.7159 42.4468 44.9009 42.4468H43.3692V36.7764H44.8875C46.7084 36.7882 47.7939 37.8443 47.7939 39.6116H47.7955ZM54.4984 40.5595C54.4984 41.7217 53.7272 42.4575 52.4934 42.4575C51.2712 42.4575 50.5011 41.7345 50.5011 40.5831V36.122H49.8017V40.5938C49.8017 42.1003 50.8814 43.1087 52.5062 43.1087C54.1198 43.1087 55.1989 42.1003 55.1989 40.5938V36.122H54.4984V40.5595ZM61.9356 41.6874C61.9238 41.6992 61.1055 42.5534 59.7173 42.5534C58.092 42.5534 56.8704 41.2724 56.8704 39.564C56.8704 37.9145 58.0807 36.6693 59.6938 36.6693C60.9866 36.6693 61.7695 37.3816 61.7824 37.3923L61.8895 37.4994L62.3163 36.9896L62.2333 36.9066C62.198 36.8712 61.355 36.0176 59.6948 36.0176C57.678 36.0176 56.1602 37.5476 56.1602 39.5763C56.1602 41.6649 57.6903 43.2298 59.7307 43.2298C61.4445 43.2298 62.3763 42.2096 62.4117 42.1619L62.4947 42.0671L62.0437 41.5808L61.9356 41.6874ZM68.887 36.1242H67.9856L64.8131 39.1141H64.3862V36.1247H63.6863V43.112H64.3862V39.7782H64.8131L68.111 43.1114H69L65.4118 39.4338L68.887 36.1242Z" fill="#00ADEE"/>
<path d="M10 36.1242H12.8234C14.2233 36.1242 15.1959 36.753 15.1959 37.9451C15.1959 38.5262 14.911 39.1313 14.3893 39.4286V39.4521C15.1959 39.7012 15.4808 40.4129 15.4808 41.0299C15.4808 42.5481 14.2115 43.1056 12.8234 43.1056H10V36.1242ZM12.8352 38.8288C13.262 38.8288 13.4521 38.5203 13.4521 38.1882C13.4521 37.868 13.2625 37.5949 12.8116 37.5949H11.7084V38.8405H12.8352V38.8288ZM12.9723 41.6404C13.4703 41.6404 13.7199 41.2966 13.7199 40.9051C13.7199 40.5136 13.4827 40.1928 12.9846 40.1928H11.7084V41.6398L12.9723 41.6404ZM16.3462 36.1242H18.06V41.6404H20.9069V43.1115H16.3462V36.1242ZM25.9084 41.6404H23.7261L23.311 43.1115H21.5437L23.9162 36.1242H25.7183L28.0908 43.1115H26.3352L25.9084 41.6404ZM24.8052 37.7137L24.5203 38.9118L24.117 40.264H25.4934L25.1024 38.9118C24.9717 38.4726 24.8175 37.7137 24.8175 37.7137H24.8052ZM31.9708 36C33.7027 36 34.5923 36.9854 34.5923 36.9854L33.7975 38.2782C33.7975 38.2782 33.014 37.5718 32.0538 37.5718C30.7133 37.5718 30.0846 38.5572 30.0846 39.5641C30.0846 40.5961 30.7728 41.6634 32.0538 41.6634C33.1088 41.6634 33.9046 40.8092 33.9046 40.8092L34.7829 42.0549C34.7829 42.0549 33.7975 43.2293 31.9713 43.2293C29.7884 43.2293 28.3055 41.6752 28.3055 39.5994C28.3055 37.5708 29.8714 36.0048 31.9713 36.0048L31.9708 36ZM35.8133 36.1242H37.5271V38.817H37.7643L39.5557 36.1242H41.3943L39.1642 39.4698V39.4934L41.5132 43.1233H39.6034L37.7825 40.2881H37.5453V43.1233H35.8315V36.1237L35.8133 36.1242Z" fill="black"/>
</svg>
