<svg width="80" height="80" viewBox="0 0 80 80" fill="none" xmlns="http://www.w3.org/2000/svg">
<rect width="80" height="80" rx="8" fill="#F5F8FD"/>
<g clip-path="url(#clip0_245_32242)">
<path d="M16.1278 39.4619H13.7049L14.2298 37.0867H16.4705C17.208 37.0867 17.6418 37.4836 17.6418 38.0628C17.6418 38.8263 17.0822 39.4619 16.1278 39.4619ZM20.1254 37.8285C20.1254 36.1974 18.8674 35 16.6679 35H12.1908L10 44.9779H12.4945L13.2493 41.5507H14.7092L16.1603 44.9779H18.6483L17.1017 41.3859C18.9563 41.0952 20.1254 39.6072 20.1254 37.8285Z" fill="#222222"/>
<path d="M24.4287 41.2427L26.5674 37.5639L27.3765 41.2427H24.4309H24.4287ZM25.5566 35L19.7607 44.9779H22.2487L23.2183 43.3229H27.8342L28.1986 44.9779H30.6866L28.5023 35H25.5566ZM37.8295 39.4619H35.617L36.1376 37.0867H38.0638C38.8229 37.0867 39.2893 37.4489 39.2893 38.0628C39.2893 38.8263 38.7145 39.4619 37.8317 39.4619M38.3175 35H34.0986L31.9078 44.9779H34.3979L35.1571 41.5464H37.9379C40.3153 41.5464 41.7556 39.7547 41.7556 37.8654C41.7556 36.1822 40.4433 35.0022 38.3154 35.0022" fill="#222222"/>
<path d="M46.5754 35H44.0809L41.8857 44.9779H44.3802L46.5754 35Z" fill="#222222"/>
<path d="M64.4407 35H56.5755C56.6948 35.1215 56.8141 35.2473 56.9225 35.3796C57.8032 36.4468 58.2674 37.7873 58.2674 39.2623C58.2674 41.5399 57.3086 43.594 55.7686 44.9779H60.584L62.8724 39.2905H60.0092L60.4864 37.0845H66.1738L63.1869 44.9779H64.3583C67.0848 44.9953 68.9286 42.7307 68.9286 39.9803C68.9286 37.2299 67.1716 35 64.4385 35" fill="#E85E26"/>
<path d="M50.5542 42.8956H49.1768L50.4566 37.0867H51.758C53.1853 37.0867 53.9857 38.1561 53.9857 39.4944C53.9857 41.2948 52.7016 42.8956 50.5585 42.8956M55.5518 36.6268C54.6972 35.5857 53.2851 35 51.6192 35H48.4219L46.2246 44.9779H50.2483C51.8101 44.9779 53.0118 44.6309 53.9293 44.0778C55.7948 42.9455 56.4563 40.9542 56.4563 39.2623C56.4563 38.2081 56.1266 37.3144 55.554 36.6268" fill="#222222"/>
</g>
<defs>
<clipPath id="clip0_245_32242">
<rect width="59" height="9.97794" fill="white" transform="translate(10 35)"/>
</clipPath>
</defs>
</svg>
