<svg width="80" height="80" viewBox="0 0 80 80" fill="none" xmlns="http://www.w3.org/2000/svg">
<rect width="80" height="80" rx="8" fill="#F5F8FD"/>
<path fill-rule="evenodd" clip-rule="evenodd" d="M41.0097 44.4694C40.0415 45.186 38.7193 44.9111 38.0609 43.8566C37.4025 42.8021 37.6554 41.3614 38.6236 40.6433C39.5913 39.9267 40.914 40.2021 41.5724 41.2566C42.2313 42.3106 41.9789 43.7518 41.0097 44.4694ZM42.3236 40.7005C41.3834 39.1914 39.497 38.801 38.113 39.8262C36.7279 40.8513 36.3685 42.9053 37.3102 44.4127C38.1429 45.7485 39.7155 46.2063 41.0254 45.5844L42.1984 47.6592L43.1293 46.9705L41.9568 44.8956C42.9702 43.7978 43.1578 42.0347 42.3236 40.7005Z" fill="#070707"/>
<path d="M67.2304 45.6619H66.5058C66.5058 39.3042 61.6893 34.1321 55.7695 34.1321V33.3428C62.0894 33.3428 67.2304 38.8678 67.2304 45.6619Z" fill="#499CD2"/>
<path d="M67.7344 41.4214C66.8649 37.4332 63.8974 34.1043 60.1768 32.9407L60.3437 32.3081C64.2705 33.5364 67.4025 37.053 68.3216 41.269L67.7344 41.4214Z" fill="#489CD2"/>
<path d="M68.5612 37.6785C67.6647 35.5492 66.1358 33.692 64.2598 32.4497L64.5107 32C66.4697 33.2973 68.0629 35.2347 68.9997 37.4588L68.5612 37.6785Z" fill="#489CD2"/>
<path d="M10 45.3252C10.436 45.5819 11.1076 45.7744 11.8618 45.7744C13.5115 45.7744 14.3481 44.9145 14.3481 43.7338C14.3363 42.8225 13.8886 42.2193 12.7927 41.8086C12.0857 41.552 11.8618 41.3851 11.8618 41.0899C11.8618 40.7819 12.1092 40.5894 12.5452 40.5894C13.0284 40.5894 13.535 40.7948 13.7943 40.9359L14.1007 39.6012C13.7472 39.4087 13.158 39.229 12.4863 39.229C11.0605 39.229 10.1414 40.1146 10.1414 41.2953C10.1296 42.0268 10.5892 42.7327 11.7911 43.1691C12.451 43.4001 12.6277 43.5669 12.6277 43.8878C12.6277 44.2086 12.4038 44.4011 11.8618 44.4011C11.3315 44.4011 10.6481 44.1573 10.3182 43.9391L10 45.3252Z" fill="#070707"/>
<path d="M17.5223 45.7872C19.0542 45.7872 20.5507 44.7348 20.5507 42.4504C20.5507 40.5509 19.3723 39.229 17.6166 39.229C15.7548 39.229 14.5293 40.5252 14.5293 42.553C14.5293 44.5808 15.8255 45.7872 17.5105 45.7872H17.5223ZM17.5459 44.3883C16.7917 44.3883 16.3793 43.5797 16.3793 42.5145C16.3793 41.5776 16.7092 40.6279 17.5577 40.6279C18.3707 40.6279 18.7007 41.5776 18.7007 42.5017C18.7007 43.6311 18.2647 44.3883 17.5577 44.3883H17.5459Z" fill="#070707"/>
<path d="M21.052 45.646H22.8431V42.0268C22.8431 41.8472 22.8549 41.6675 22.902 41.5391C23.0316 41.1798 23.3262 40.8076 23.8211 40.8076C24.4692 40.8076 24.7285 41.3595 24.7285 42.168V45.646H26.5196V41.937C26.5196 40.0889 25.6358 39.229 24.4574 39.229C23.4912 39.229 22.9138 39.8322 22.6781 40.2429H22.6428L22.5603 39.3702H21.0049C21.0284 39.9349 21.052 40.5894 21.052 41.3723V45.646Z" fill="#070707"/>
<path d="M32.1632 41.937C32.1632 40.4611 31.5622 39.229 29.6415 39.229C28.5928 39.229 27.8033 39.5499 27.4027 39.7937L27.7326 41.0386C28.1097 40.7948 28.7342 40.5766 29.3234 40.5766C30.2071 40.5766 30.3721 41.0514 30.3721 41.3851V41.4621C28.3336 41.4621 26.9902 42.2322 26.9902 43.8621C26.9902 44.8632 27.6855 45.7872 28.852 45.7872C29.5355 45.7872 30.1246 45.5177 30.5017 45.0172H30.5371L30.6431 45.646H32.2575C32.1868 45.2995 32.1632 44.722 32.1632 44.1316V41.937ZM30.431 43.3616C30.431 43.4771 30.4192 43.5926 30.3957 43.6953C30.2778 44.0931 29.9008 44.414 29.4648 44.414C29.0641 44.414 28.7578 44.1701 28.7578 43.6696C28.7578 42.9252 29.4883 42.6814 30.431 42.6814V43.3616Z" fill="#070707"/>
<path d="M33.0296 45.646H34.8206V42.476C34.8206 42.3092 34.8324 42.168 34.856 42.0397C34.9738 41.4236 35.4216 41.0514 36.0815 41.0514C36.2818 41.0514 36.4232 41.0771 36.5646 41.1028V39.2675C36.435 39.2418 36.3525 39.229 36.1875 39.229C35.6219 39.229 34.9267 39.614 34.6321 40.5381H34.585L34.5143 39.3702H32.9824C33.0178 39.9092 33.0296 40.5124 33.0296 41.4365V45.646Z" fill="#070707"/>
<path d="M48.2432 39.4692H47.2063V43.2681C47.2063 43.4863 47.1709 43.6916 47.112 43.8457C46.9235 44.359 46.4403 44.8852 45.7451 44.8852C44.8142 44.8852 44.4725 44.0767 44.4725 42.8959V39.4692H43.4355V43.1013C43.4355 45.2702 44.5078 45.8221 45.4034 45.8221C46.4168 45.8221 47.0295 45.1676 47.2888 44.667H47.3123L47.3712 45.6809H48.2903C48.255 45.1932 48.2432 44.6285 48.2432 43.974V39.4692Z" fill="#070707"/>
<path d="M49.3635 44.0768C49.3635 44.6286 49.3518 45.2575 49.3164 45.681H50.2119L50.2709 44.6543H50.2944C50.7304 45.4757 51.3785 45.8222 52.2034 45.8222C53.476 45.8222 54.7722 44.7185 54.7722 42.4854C54.7722 40.6116 53.7823 39.3282 52.3683 39.3282C51.4492 39.3282 50.7893 39.7645 50.4241 40.4576H50.4005V36.5688H49.3635V44.0768ZM50.4005 42.0747C50.4005 41.895 50.4241 41.741 50.4594 41.5998C50.6597 40.7527 51.3196 40.2137 52.0266 40.2137C53.1343 40.2137 53.7234 41.2789 53.7234 42.5367C53.7234 43.9613 53.0871 44.9238 51.9913 44.9238C51.2489 44.9238 50.6362 44.3848 50.4358 43.6019C50.4123 43.4736 50.4005 43.3324 50.4005 43.1912V42.0747Z" fill="#070707"/>
<path d="M60.0704 42.7805C60.094 42.6521 60.1058 42.4853 60.1058 42.2543C60.1058 41.1121 59.6226 39.3281 57.7609 39.3281C56.0994 39.3281 55.0742 40.804 55.0742 42.6778C55.0742 44.5388 56.1347 45.8093 57.8787 45.8093C58.786 45.8093 59.4223 45.5911 59.7876 45.4115L59.5991 44.6029C59.222 44.7826 58.7625 44.9238 58.0201 44.9238C56.9831 44.9238 56.0994 44.2949 56.0758 42.7805H60.0704ZM56.0876 41.9719C56.1701 41.1891 56.6179 40.1367 57.6784 40.1367C58.8332 40.1367 59.116 41.2532 59.1042 41.9719H56.0876Z" fill="#070707"/>
</svg>
