<svg width="80" height="80" viewBox="0 0 80 80" fill="none" xmlns="http://www.w3.org/2000/svg">
<rect width="80" height="80" rx="8" fill="#F5F8FD"/>
<g clip-path="url(#clip0_245_31705)">
<path d="M26.8679 40.3813H29.6214V43.2191C29.2245 43.4713 28.801 43.6543 28.3509 43.7681C27.9044 43.882 27.4366 43.9389 26.9475 43.9389C26.3096 43.9389 25.7285 43.8527 25.204 43.6805C24.683 43.5051 24.2365 43.2652 23.8644 42.9607C23.4923 42.653 23.2052 42.2901 23.0032 41.8717C22.8012 41.4503 22.7002 40.9935 22.7002 40.5013C22.7002 39.9999 22.7959 39.54 22.9873 39.1217C23.1786 38.7002 23.4515 38.3373 23.8059 38.0327C24.1638 37.7282 24.5944 37.4913 25.0976 37.3221C25.6044 37.153 26.1696 37.0684 26.7934 37.0684C27.1159 37.0684 27.4189 37.0914 27.7024 37.1376C27.9859 37.1837 28.2464 37.2468 28.4838 37.3268C28.7248 37.4067 28.9445 37.5021 29.143 37.6128C29.3415 37.7236 29.5186 37.8435 29.6746 37.9727L29.1536 38.6603C29.0721 38.7679 28.9658 38.8341 28.8347 38.8587C28.7071 38.8833 28.5689 38.8556 28.42 38.7756C28.2783 38.7018 28.1436 38.6387 28.016 38.5864C27.892 38.5311 27.7644 38.4865 27.6333 38.4526C27.5022 38.4188 27.364 38.3942 27.2187 38.3788C27.0734 38.3634 26.9103 38.3557 26.7296 38.3557C26.3929 38.3557 26.0899 38.408 25.8206 38.5126C25.5512 38.6141 25.3209 38.7587 25.1295 38.9464C24.9417 39.134 24.7964 39.3601 24.6936 39.6246C24.5908 39.8861 24.5394 40.1783 24.5394 40.5013C24.5394 40.8582 24.5962 41.175 24.7096 41.4519C24.823 41.7287 24.9824 41.9625 25.188 42.1532C25.3971 42.3439 25.6451 42.4901 25.9322 42.5916C26.2228 42.69 26.5435 42.7392 26.8944 42.7392C27.1106 42.7392 27.3055 42.7208 27.4791 42.6839C27.6563 42.647 27.8282 42.5977 27.9948 42.5362V41.5164H27.2293C27.1159 41.5164 27.0273 41.4903 26.9635 41.438C26.8997 41.3857 26.8678 41.3196 26.8678 41.2396V40.3814L26.8679 40.3813Z" fill="black"/>
<path d="M35.4974 42.6197V43.8655H30.8301V37.1426H32.6268V42.6197H35.4974Z" fill="black"/>
<path d="M39.4811 42.6325C39.7221 42.6325 39.9365 42.5987 40.1243 42.531C40.3157 42.4602 40.4769 42.3603 40.608 42.2311C40.7392 42.1019 40.8384 41.945 40.9057 41.7604C40.9766 41.5728 41.012 41.3605 41.012 41.1236V37.1416H42.8088V41.1236C42.8088 41.5359 42.7308 41.9142 42.5749 42.2587C42.4225 42.6032 42.2028 42.9001 41.9157 43.1493C41.6287 43.3984 41.2796 43.5922 40.8685 43.7306C40.4574 43.8691 39.9949 43.9383 39.4811 43.9383C38.9637 43.9383 38.4994 43.8691 38.0883 43.7306C37.6772 43.5922 37.3281 43.3984 37.0411 43.1493C36.754 42.9001 36.5343 42.6032 36.3819 42.2587C36.2295 41.9142 36.1533 41.5358 36.1533 41.1236V37.1416H37.95V41.1191C37.95 41.3559 37.9837 41.5682 38.051 41.7558C38.1219 41.9404 38.2229 42.0988 38.354 42.2311C38.4852 42.3603 38.6446 42.4603 38.8325 42.531C39.0238 42.5987 39.24 42.6325 39.481 42.6325L39.4811 42.6325Z" fill="black"/>
<path d="M48.4815 38.508C48.4283 38.5818 48.3716 38.6372 48.3114 38.6741C48.2547 38.711 48.1803 38.7295 48.0881 38.7295C48.0066 38.7295 47.918 38.708 47.8223 38.6649C47.7302 38.6188 47.6239 38.568 47.5034 38.5126C47.3864 38.4573 47.2518 38.408 47.0994 38.365C46.947 38.3188 46.7734 38.2958 46.5784 38.2958C46.2418 38.2958 45.9902 38.3588 45.8236 38.4849C45.6606 38.608 45.5791 38.7756 45.5791 38.9879C45.5791 39.1232 45.6287 39.2355 45.7279 39.3247C45.8271 39.4139 45.9565 39.4908 46.116 39.5554C46.279 39.62 46.4633 39.68 46.6688 39.7354C46.8779 39.7877 47.0905 39.8477 47.3067 39.9153C47.5229 39.9799 47.7337 40.0568 47.9393 40.146C48.1484 40.2353 48.3327 40.3491 48.4921 40.4875C48.6552 40.6259 48.7863 40.7951 48.8855 40.9951C48.9847 41.1919 49.0343 41.4303 49.0343 41.7103C49.0343 42.021 48.9723 42.3117 48.8483 42.5823C48.7243 42.853 48.5435 43.0899 48.3061 43.2929C48.0722 43.4929 47.7816 43.6513 47.4343 43.7682C47.0905 43.882 46.6989 43.9389 46.2595 43.9389C46.0185 43.9389 45.7722 43.9174 45.5206 43.8743C45.2725 43.8313 45.0315 43.7713 44.7976 43.6944C44.5637 43.6144 44.344 43.5206 44.1385 43.4129C43.9329 43.3052 43.7539 43.1853 43.6016 43.053L44.1331 42.3239C44.1757 42.2717 44.2306 42.2286 44.2979 42.1948C44.3688 42.1578 44.445 42.1394 44.5265 42.1394C44.6328 42.1394 44.7392 42.1686 44.8455 42.2271C44.9553 42.2855 45.0776 42.3501 45.2123 42.4209C45.3505 42.4916 45.5082 42.5562 45.6854 42.6146C45.8626 42.6731 46.0716 42.7023 46.3126 42.7023C46.6387 42.7023 46.8921 42.6408 47.0728 42.5178C47.2535 42.3916 47.3439 42.1932 47.3439 41.9225C47.3439 41.7656 47.2943 41.638 47.1951 41.5395C47.0958 41.4411 46.9647 41.3596 46.8017 41.295C46.6422 41.2304 46.4597 41.1735 46.2542 41.1242C46.0486 41.075 45.8378 41.0212 45.6216 40.9627C45.4054 40.9012 45.1945 40.8274 44.989 40.7413C44.7835 40.6521 44.5992 40.5367 44.4362 40.3952C44.2767 40.2506 44.1473 40.0722 44.0481 39.8599C43.9489 39.6446 43.8993 39.3801 43.8993 39.0663C43.8993 38.8141 43.9577 38.568 44.0747 38.328C44.1916 38.0881 44.3635 37.8743 44.5903 37.6867C44.8171 37.499 45.0953 37.3498 45.4249 37.2391C45.7545 37.1253 46.1319 37.0684 46.5572 37.0684C46.7946 37.0684 47.0249 37.0853 47.2482 37.1191C47.475 37.1499 47.6894 37.1976 47.8914 37.2622C48.0934 37.3237 48.2813 37.399 48.4549 37.4883C48.6321 37.5744 48.7898 37.6728 48.928 37.7836L48.4815 38.508L48.4815 38.508Z" fill="black"/>
<path d="M55.6655 38.3787H53.486V43.865H51.6892V38.3787H49.5098V37.1421H55.6655V38.3787Z" fill="black"/>
<path d="M58.3864 38.3418V39.9106H60.8211V41.0642H58.3864V42.6653H61.5653V43.865H56.5791V37.1421H61.5653V38.3418H58.3864Z" fill="black"/>
<path d="M65.1819 40.3023C65.4264 40.3023 65.6337 40.2762 65.8038 40.2239C65.9775 40.1685 66.1192 40.0932 66.2291 39.9978C66.3389 39.9024 66.4187 39.7917 66.4683 39.6656C66.5179 39.5364 66.5427 39.3979 66.5427 39.2503C66.5427 38.955 66.4311 38.7243 66.2078 38.5582C65.9881 38.392 65.6461 38.309 65.1819 38.309H64.4589V40.3024H65.1819L65.1819 40.3023ZM68.9986 43.8645H67.3719C67.0707 43.8645 66.8545 43.7661 66.7234 43.5692L65.4369 41.6174C65.3767 41.5343 65.3094 41.4743 65.2349 41.4374C65.1605 41.3974 65.0542 41.3774 64.916 41.3774H64.4588V43.8645H62.6621V37.1416H65.1818C65.7417 37.1416 66.2184 37.1924 66.6118 37.2939C67.0087 37.3923 67.3312 37.5307 67.5792 37.7091C67.8308 37.8876 68.0134 38.0983 68.1268 38.3413C68.2402 38.5843 68.2969 38.8489 68.2969 39.1349C68.2969 39.3533 68.2632 39.5594 68.1959 39.7532C68.1285 39.947 68.0293 40.127 67.8982 40.2931C67.7671 40.4561 67.604 40.6023 67.4091 40.7315C67.2178 40.8606 66.9963 40.9668 66.7446 41.0498C66.8616 41.1021 66.9715 41.1683 67.0742 41.2482C67.177 41.3251 67.2691 41.4174 67.3507 41.5251L68.9986 43.8645V43.8645Z" fill="black"/>
<g opacity="0.2" filter="url(#filter0_f_245_31705)">
<path d="M15.3393 44.9477C17.2661 44.9477 18.8281 43.9727 18.8281 42.77C18.8281 41.5673 17.2661 40.5923 15.3393 40.5923C13.4126 40.5923 11.8506 41.5673 11.8506 42.77C11.8506 43.9727 13.4126 44.9477 15.3393 44.9477Z" fill="black"/>
</g>
<path d="M14.3422 40.9489C13.5117 40.9547 12.6884 41.0654 11.9267 41.3453C11.2211 41.6047 10.5851 42.0057 10.083 42.5081C10.7781 43.2841 11.7042 43.9026 12.7462 44.2872C13.7113 44.6433 14.7774 44.7729 15.8218 44.6914C17.0433 44.596 18.5673 43.7803 18.1709 42.9189C18.4416 42.8435 18.3346 42.4022 18.245 42.2178C18.0571 41.8309 17.6668 41.5378 17.2306 41.3565C16.7944 41.1752 16.3124 41.0949 15.8332 41.0382C15.3415 40.9799 14.8404 40.9455 14.3421 40.949L14.3422 40.9489Z" fill="url(#paint0_linear_245_31705)"/>
<path d="M15.9362 40.4819C15.6066 41.0239 15.3855 41.6124 15.2415 42.2123C15.1521 42.5849 15.0917 42.9649 15.1055 43.3454C15.1077 43.4072 15.1119 43.4691 15.118 43.5307C15.317 43.3821 15.5202 43.2379 15.7275 43.0982C16.263 42.7372 16.825 42.4068 17.3619 42.0475C17.7243 41.805 18.0819 41.5429 18.3188 41.2031C18.4372 41.0332 18.5236 40.8449 18.5564 40.6484C18.5893 40.4519 18.5672 40.2469 18.4782 40.0639C18.3759 39.8536 18.1853 39.6771 17.9514 39.5729C17.7174 39.4686 17.442 39.4371 17.1844 39.4829C16.8977 39.5339 16.64 39.6769 16.4348 39.858C16.2295 40.0391 16.0727 40.2573 15.9361 40.4819L15.9362 40.4819Z" fill="url(#paint1_linear_245_31705)"/>
<path d="M14.3692 40.8809C14.338 40.8808 14.3069 40.881 14.2758 40.8812C13.4453 40.8869 12.622 40.9977 11.8603 41.2776C11.1546 41.5368 10.5187 41.938 10.0166 42.4404C10.7117 43.2163 11.6377 43.8349 12.6798 44.2194C13.6449 44.5755 14.7142 44.731 15.7554 44.6236C16.4781 44.549 17.21 44.3343 17.7194 43.8833C18.1798 43.5401 18.2962 43.1667 18.1374 42.8953C18.4491 42.7068 18.2765 42.3659 18.1785 42.1499C17.9907 41.7631 17.6004 41.47 17.1641 41.2887C16.7279 41.1074 16.246 41.0271 15.7667 40.9704C15.3057 40.9158 14.8365 40.882 14.369 40.8809L14.3692 40.8809Z" fill="url(#paint2_linear_245_31705)"/>
<g opacity="0.181" filter="url(#filter1_f_245_31705)">
<path d="M10.3564 42.4021C12.4665 42.2276 16.0233 42.3323 18.0932 42.8905C18.0731 41.216 14.4358 39.9948 10.3564 42.4021Z" fill="white"/>
</g>
<g opacity="0.121">
<path d="M10.25 42.4175C12.9273 42.0234 16.6536 42.3496 18.1097 42.8932C16.6537 42.6486 12.6142 42.1865 10.25 42.4175Z" fill="black"/>
<path d="M14.6007 44.3997C14.9435 43.9555 16.21 42.7737 16.4775 42.6221L16.7241 42.6515C16.308 42.91 15.104 43.8191 14.6006 44.3997L14.6007 44.3997Z" fill="black"/>
<path d="M12.9259 44.0328C13.2687 43.5886 14.457 42.6243 14.8497 42.4727L15.0962 42.502C14.6018 42.6519 13.4291 43.4523 12.9258 44.0329L12.9259 44.0328Z" fill="black"/>
<path d="M11.4688 43.4349C11.8116 42.9907 12.5614 42.4748 12.9543 42.3232L13.2008 42.3526C12.7064 42.5025 12.0034 42.8952 11.4688 43.435L11.4688 43.4349Z" fill="black"/>
<path d="M15.4932 41.0181C15.9457 41.4215 16.5546 42.2228 16.6186 42.5375L16.9121 42.6168C16.6056 42.1136 16.1374 41.5171 15.4932 41.0181L15.4932 41.0181Z" fill="black"/>
<path d="M13.7393 41.0596C14.2387 41.4495 14.8946 42.0469 14.9586 42.3616L15.2052 42.3322C14.8987 41.829 14.3992 41.4906 13.7393 41.0596L13.7393 41.0596Z" fill="black"/>
<path d="M11.8291 41.3853C12.1564 41.5712 12.687 41.8968 12.8605 42.2795L13.1071 42.2501C12.8632 41.9372 12.2385 41.5037 11.8291 41.3853L11.8291 41.3853Z" fill="black"/>
</g>
<g opacity="0.75" filter="url(#filter2_f_245_31705)">
<path d="M17.6912 41.6558C17.7586 41.986 17.2093 42.0612 15.8889 42.2644C14.5685 42.4676 14.2362 42.5792 13.8698 42.725C13.7503 42.3706 14.2693 41.7003 15.5898 41.4972C16.9102 41.294 17.6237 41.3255 17.6912 41.6558Z" fill="black"/>
</g>
<path d="M12.9588 38.4531C12.7434 38.8214 12.6385 39.2341 12.6181 39.6466C12.5977 40.0593 12.6601 40.4726 12.7658 40.8754C12.9128 41.4353 13.1467 41.9829 13.5125 42.4614C13.5807 42.5506 13.6534 42.6372 13.7302 42.7209C14.1119 42.4739 14.5304 42.2698 14.972 42.1154C15.405 41.9639 15.858 41.8605 16.3045 41.742C16.7035 41.6362 17.1004 41.5171 17.467 41.3441C17.8336 41.1711 18.1708 40.9413 18.4104 40.6447C18.7734 40.1952 18.8871 39.6092 18.7566 39.0722C18.626 38.5352 18.2623 38.0497 17.7776 37.6973C17.122 37.2206 16.242 36.9848 15.3906 37.0545C14.8855 37.0959 14.3911 37.2418 13.9665 37.4829C13.5419 37.724 13.1884 38.0604 12.9588 38.4531L12.9588 38.4531Z" fill="url(#paint3_radial_245_31705)"/>
<path d="M12.9402 38.4468C12.7249 38.8151 12.6199 39.2277 12.5995 39.6403C12.5792 40.0529 12.6415 40.4663 12.7472 40.869C12.8942 41.4289 13.1281 41.9766 13.494 42.4551C13.5622 42.5442 13.6348 42.6308 13.7116 42.7146C14.0933 42.4676 14.5118 42.2635 14.9534 42.109C15.3865 41.9575 15.8394 41.8542 16.2859 41.7357C16.685 41.6298 17.0818 41.5108 17.4484 41.3378C17.815 41.1648 18.1523 40.9349 18.3918 40.6383C18.7548 40.1889 18.8685 39.6029 18.738 39.0659C18.6075 38.5288 18.2437 38.0434 17.759 37.6909C17.1034 37.2142 16.2235 36.9784 15.372 37.0482C14.8669 37.0896 14.3725 37.2355 13.9479 37.4766C13.5233 37.7176 13.1698 38.054 12.9402 38.4468L12.9402 38.4468Z" fill="url(#paint4_radial_245_31705)"/>
<g opacity="0.526" filter="url(#filter3_f_245_31705)">
<path d="M13.6628 37.7427C13.5695 37.743 13.476 37.7696 13.3861 37.7931C13.1871 37.8451 13.0006 37.9124 12.8507 38.0471C12.7008 38.1818 12.5811 38.3451 12.4863 38.5193C12.3493 38.7711 12.262 39.0546 12.2891 39.337C12.3027 39.4782 12.3452 39.6177 12.4194 39.7407C12.5824 39.9728 12.5859 40.0303 12.8537 40.0951C12.9336 39.6893 13.1891 39.2976 13.3683 38.9808C13.5117 38.7291 13.6707 38.5041 13.8792 38.2975C14.0343 38.1712 14.149 38.015 14.3509 37.9733C14.2615 37.8904 14.1705 37.8249 14.0536 37.7828C13.9414 37.7424 13.7828 37.7424 13.6628 37.7427V37.7427Z" fill="black"/>
</g>
<path d="M14.6656 35.8664C14.6758 35.9578 14.6997 36.2505 14.7168 36.5692C14.735 36.9102 14.7397 37.1581 14.7426 37.2832C14.6743 37.3414 14.5808 37.3853 14.4867 37.4005C14.3937 37.4156 14.3049 37.4016 14.2575 37.3457C14.3165 37.1574 14.3919 36.9101 14.4529 36.5769C14.5089 36.271 14.5323 35.9891 14.5314 35.9004C14.5304 35.8045 14.5319 35.7008 14.5359 35.5897C14.1706 35.8425 13.7731 36.0993 13.3608 36.2966C12.9556 36.4489 12.5797 36.5367 12.3087 36.5642C12.0396 36.5916 11.9025 36.5581 11.9652 36.4678C12.0334 36.3696 12.1963 36.2831 12.4106 36.1942C12.612 36.1107 12.9055 36.0075 13.1731 35.906C13.7238 35.7685 14.1593 35.6407 14.623 35.4487C14.6378 35.5988 14.6521 35.7453 14.6656 35.8664L14.6656 35.8664Z" fill="#2D2D2D"/>
<g opacity="0.524" filter="url(#filter4_f_245_31705)">
<path d="M13.0369 38.4697C12.8216 38.8381 12.7166 39.2507 12.6962 39.6633C12.6758 40.0759 12.7382 40.4893 12.8439 40.892C12.9909 41.4519 13.2248 41.9995 13.5906 42.478C13.6588 42.5672 13.7314 42.6538 13.8082 42.7375C14.1899 42.4905 14.6084 42.2864 15.05 42.132C15.4831 41.9804 15.936 41.8771 16.3826 41.7586C16.7816 41.6527 17.1785 41.5337 17.5451 41.3607C17.9117 41.1877 18.249 40.9578 18.4885 40.6613C18.8515 40.2119 18.9653 39.6258 18.8347 39.0888C18.7042 38.5518 18.3404 38.0663 17.8557 37.7139C17.2001 37.2372 16.3201 37.0014 15.4688 37.0711C14.9637 37.1125 14.4693 37.2584 14.0446 37.4995C13.62 37.7406 13.2665 38.077 13.0369 38.4697L13.0369 38.4697Z" fill="url(#paint5_radial_245_31705)"/>
</g>
<g opacity="0.374" filter="url(#filter5_f_245_31705)">
<path d="M17.0645 37.5821C17.2308 37.5656 17.3561 37.4728 17.3446 37.3748C17.333 37.2769 17.1889 37.2109 17.0227 37.2274C16.8564 37.2439 16.7311 37.3367 16.7426 37.4347C16.7542 37.5326 16.8983 37.5986 17.0645 37.5821Z" fill="url(#paint6_linear_245_31705)"/>
</g>
<path d="M18.1458 35.7467C18.0884 35.8624 17.9063 36.2135 17.6936 36.6035C17.4667 37.0193 17.2901 37.3249 17.2012 37.4797C17.1011 37.5203 16.9828 37.5393 16.8877 37.5225C16.7929 37.5058 16.7242 37.4537 16.7309 37.3526C16.9449 37.1049 17.2185 36.7878 17.5344 36.3727C17.8243 35.9916 18.0544 35.6492 18.1288 35.5226C18.2231 35.362 18.3295 35.1876 18.4475 35C18.8238 35.6112 19.3102 36.1703 19.8714 36.7158C20.2456 37.1212 20.4728 37.3269 20.7131 37.579C20.9072 37.7826 20.9897 37.9049 20.8466 37.892C20.5585 37.8661 20.0225 37.5171 19.4957 36.9782C19.0589 36.4473 18.6985 35.7769 18.4435 35.1546C18.3388 35.362 18.229 35.5787 18.1457 35.7467L18.1458 35.7467Z" fill="#2D2D2D"/>
<g opacity="0.504" filter="url(#filter6_f_245_31705)">
<path d="M16.2789 37.9547C16.5454 37.946 16.8125 38.0294 17.019 38.1759C17.2255 38.3224 17.3714 38.5297 17.4386 38.7537C17.5037 38.9704 17.4967 39.201 17.4369 39.4189C17.377 39.6367 17.2657 39.8423 17.1264 40.0309C16.9251 40.3036 16.6565 40.5479 16.3177 40.6836C16.1483 40.7515 15.9629 40.7911 15.7764 40.7916C15.5898 40.7921 15.4022 40.7528 15.2405 40.672C15.0659 40.5847 14.9248 40.4504 14.8308 40.2958C14.7367 40.1412 14.6887 39.9668 14.6809 39.7921C14.6652 39.4426 14.8071 39.1001 15.0034 38.7947C15.1393 38.5831 15.3045 38.3823 15.5187 38.227C15.733 38.0716 16 37.9638 16.2789 37.9547V37.9547Z" fill="black"/>
</g>
<path d="M16.2349 37.8878C16.5014 37.8791 16.7685 37.9625 16.975 38.109C17.1815 38.2555 17.3274 38.4628 17.3947 38.6868C17.4597 38.9035 17.4527 39.1341 17.3929 39.3519C17.3331 39.5698 17.2217 39.7754 17.0825 39.9639C16.8811 40.2367 16.6125 40.4809 16.2737 40.6167C16.1043 40.6846 15.919 40.7242 15.7324 40.7247C15.5458 40.7252 15.3582 40.6859 15.1965 40.6051C15.022 40.5178 14.8809 40.3835 14.7868 40.2289C14.6927 40.0743 14.6448 39.8999 14.6369 39.7252C14.6212 39.3757 14.7631 39.0332 14.9594 38.7278C15.0954 38.5162 15.2606 38.3154 15.4748 38.1601C15.689 38.0047 15.956 37.8969 16.2349 37.8878L16.2349 37.8878Z" fill="url(#paint7_radial_245_31705)"/>
<path opacity="0.614" d="M16.2942 38.1539C16.2839 38.154 16.2737 38.1544 16.2634 38.1548C16.0916 38.1616 15.9227 38.2083 15.7763 38.2866C15.6867 38.3345 15.6055 38.3943 15.5352 38.4623C15.6963 38.4087 15.8687 38.38 16.0413 38.3722C16.2454 38.3629 16.455 38.383 16.6398 38.4587C16.7322 38.4965 16.8174 38.5483 16.8872 38.613C16.957 38.6778 17.0109 38.7559 17.0398 38.841C17.0419 38.8473 17.0438 38.8538 17.0456 38.8602C17.0662 38.7669 17.0652 38.67 17.0346 38.5791C16.9885 38.4424 16.8764 38.3256 16.7356 38.2524C16.6037 38.1837 16.4482 38.1522 16.2942 38.1539L16.2942 38.1539Z" fill="url(#paint8_linear_245_31705)"/>
<path d="M13.6052 37.7173C13.5053 37.7176 13.4053 37.7294 13.309 37.7524C13.0961 37.8033 12.9024 37.9066 12.742 38.0383C12.5816 38.17 12.4535 38.3296 12.3521 38.4999C12.2054 38.7461 12.112 39.0233 12.141 39.2993C12.1556 39.4373 12.2011 39.5736 12.2805 39.6939C12.3599 39.8141 12.4737 39.9179 12.6119 39.9873C12.6796 40.0213 12.7525 40.0467 12.8281 40.0639C12.9244 40.139 13.1786 39.37 13.3647 38.9993C13.5927 38.5452 14.0543 38.1602 14.3178 37.9615C14.2222 37.8805 14.107 37.8164 13.9819 37.7753C13.8619 37.7358 13.7336 37.717 13.6052 37.7173V37.7173Z" fill="url(#paint9_radial_245_31705)"/>
<path opacity="0.626" d="M13.3799 38.0347C13.3252 38.0345 13.2704 38.0407 13.2177 38.0533C13.1003 38.0814 12.9941 38.1398 12.907 38.2137C12.8417 38.269 12.7869 38.3329 12.7402 38.401C12.8367 38.3405 12.9439 38.2933 13.0585 38.2659C13.226 38.2259 13.4083 38.2295 13.5709 38.2824C13.6334 38.3028 13.6927 38.3304 13.7467 38.3644C13.7794 38.329 13.8136 38.2947 13.8494 38.2614C13.79 38.1739 13.6948 38.1051 13.5858 38.068C13.5203 38.0458 13.4502 38.0349 13.3799 38.0347L13.3799 38.0347Z" fill="url(#paint10_linear_245_31705)"/>
<g filter="url(#filter7_f_245_31705)">
<path d="M14.4643 37.9805C13.1198 39.3445 12.7307 41.2084 13.7362 42.5332C13.8187 40.7325 14.5192 39.1849 14.4643 37.9805Z" fill="url(#paint11_linear_245_31705)"/>
</g>
<path opacity="0.366" d="M14.3756 37.9614C12.3449 39.3254 13.0849 41.9004 13.6477 42.5142C12.6231 40.3291 13.6114 39.2043 14.3756 37.9614Z" fill="url(#paint12_linear_245_31705)"/>
<g opacity="0.476" filter="url(#filter8_f_245_31705)">
<path d="M14.3634 37.4269C14.4509 37.4511 14.589 37.4184 14.6719 37.3537C14.7547 37.2891 14.7509 37.2171 14.6634 37.1928C14.5758 37.1686 14.4377 37.2013 14.3549 37.266C14.2721 37.3306 14.2759 37.4026 14.3634 37.4269Z" fill="url(#paint13_linear_245_31705)"/>
</g>
<g opacity="0.222" filter="url(#filter9_f_245_31705)">
<path d="M10.6973 42.4727C12.3853 42.4901 16.3441 42.6645 17.9919 43.0134C16.0618 44.9351 12.68 44.0337 10.6973 42.4727Z" fill="url(#paint14_linear_245_31705)"/>
</g>
<path d="M16.4386 38.8843C16.4303 38.8844 16.4219 38.8846 16.4135 38.8851C16.1791 38.8852 15.9777 39.037 15.8826 39.2146C15.8157 39.3343 15.7896 39.4691 15.8051 39.6013C15.8177 39.8435 15.9924 40.0878 16.2631 40.1685C16.4475 40.223 16.6598 40.179 16.8026 40.0657C17.1597 39.7976 17.1479 39.2503 16.7814 38.9929C16.6846 38.9249 16.5636 38.8833 16.4386 38.8843L16.4386 38.8843Z" fill="#1D1D1D"/>
<path d="M13.1289 38.6368C13.1227 38.6367 13.1165 38.6367 13.1103 38.6369C12.9241 38.6411 12.7747 38.7735 12.7203 38.9208C12.6805 39.0295 12.6885 39.1506 12.7302 39.2579C12.7871 39.3766 12.9087 39.485 13.0611 39.5011C13.1003 39.5005 13.1664 39.5187 13.1716 39.4699C13.2485 39.2645 13.3489 39.0668 13.4514 38.8703C13.4838 38.8124 13.4148 38.7687 13.3742 38.7327C13.3088 38.6763 13.2215 38.639 13.1289 38.6368L13.1289 38.6368Z" fill="#1D1D1D"/>
<path opacity="0.324" d="M13.1102 38.6436C12.8905 38.6481 12.7083 38.8292 12.6987 39.0579C12.6982 39.0696 12.6981 39.0811 12.6985 39.0925C12.9057 38.9384 13.1667 38.8389 13.4514 38.8181C13.3797 38.7159 13.2643 38.648 13.1317 38.6438H13.1316C13.1245 38.6435 13.1173 38.6435 13.1102 38.6436L13.1102 38.6436Z" fill="url(#paint15_linear_245_31705)"/>
<path opacity="0.312" d="M16.4331 38.8877C16.0877 38.8877 15.8076 39.1781 15.8076 39.5364C15.8076 39.5713 15.8104 39.6056 15.8156 39.6391C16.0358 39.3849 16.4432 39.2144 16.9092 39.2144C16.9317 39.2144 16.9544 39.2146 16.9766 39.2154C16.8689 39.0197 16.666 38.8877 16.4331 38.8877V38.8877L16.4331 38.8877Z" fill="url(#paint16_linear_245_31705)"/>
</g>
<defs>
<filter id="filter0_f_245_31705" x="-14.7325" y="14.0092" width="60.1437" height="57.5216" filterUnits="userSpaceOnUse" color-interpolation-filters="sRGB">
<feFlood flood-opacity="0" result="BackgroundImageFix"/>
<feBlend mode="normal" in="SourceGraphic" in2="BackgroundImageFix" result="shape"/>
<feGaussianBlur stdDeviation="13.2915" result="effect1_foregroundBlur_245_31705"/>
</filter>
<filter id="filter1_f_245_31705" x="-2.15447" y="28.5408" width="32.7582" height="26.8607" filterUnits="userSpaceOnUse" color-interpolation-filters="sRGB">
<feFlood flood-opacity="0" result="BackgroundImageFix"/>
<feBlend mode="normal" in="SourceGraphic" in2="BackgroundImageFix" result="shape"/>
<feGaussianBlur stdDeviation="6.25546" result="effect1_foregroundBlur_245_31705"/>
</filter>
<filter id="filter2_f_245_31705" x="-31.0072" y="-3.49057" width="93.5642" height="91.0764" filterUnits="userSpaceOnUse" color-interpolation-filters="sRGB">
<feFlood flood-opacity="0" result="BackgroundImageFix"/>
<feBlend mode="normal" in="SourceGraphic" in2="BackgroundImageFix" result="shape"/>
<feGaussianBlur stdDeviation="22.4303" result="effect1_foregroundBlur_245_31705"/>
</filter>
<filter id="filter3_f_245_31705" x="6.77941" y="32.2379" width="13.0759" height="13.3621" filterUnits="userSpaceOnUse" color-interpolation-filters="sRGB">
<feFlood flood-opacity="0" result="BackgroundImageFix"/>
<feBlend mode="normal" in="SourceGraphic" in2="BackgroundImageFix" result="shape"/>
<feGaussianBlur stdDeviation="2.75238" result="effect1_foregroundBlur_245_31705"/>
</filter>
<filter id="filter4_f_245_31705" x="-12.1463" y="12.2204" width="55.8717" height="55.3556" filterUnits="userSpaceOnUse" color-interpolation-filters="sRGB">
<feFlood flood-opacity="0" result="BackgroundImageFix"/>
<feBlend mode="normal" in="SourceGraphic" in2="BackgroundImageFix" result="shape"/>
<feGaussianBlur stdDeviation="12.4193" result="effect1_foregroundBlur_245_31705"/>
</filter>
<filter id="filter5_f_245_31705" x="10.0193" y="30.5022" width="14.0492" height="13.8051" filterUnits="userSpaceOnUse" color-interpolation-filters="sRGB">
<feFlood flood-opacity="0" result="BackgroundImageFix"/>
<feBlend mode="normal" in="SourceGraphic" in2="BackgroundImageFix" result="shape"/>
<feGaussianBlur stdDeviation="3.36143" result="effect1_foregroundBlur_245_31705"/>
</filter>
<filter id="filter6_f_245_31705" x="6.06488" y="29.3393" width="20.0343" height="20.067" filterUnits="userSpaceOnUse" color-interpolation-filters="sRGB">
<feFlood flood-opacity="0" result="BackgroundImageFix"/>
<feBlend mode="normal" in="SourceGraphic" in2="BackgroundImageFix" result="shape"/>
<feGaussianBlur stdDeviation="4.3074" result="effect1_foregroundBlur_245_31705"/>
</filter>
<filter id="filter7_f_245_31705" x="-10.1674" y="14.6431" width="47.9726" height="51.2274" filterUnits="userSpaceOnUse" color-interpolation-filters="sRGB">
<feFlood flood-opacity="0" result="BackgroundImageFix"/>
<feBlend mode="normal" in="SourceGraphic" in2="BackgroundImageFix" result="shape"/>
<feGaussianBlur stdDeviation="11.6687" result="effect1_foregroundBlur_245_31705"/>
</filter>
<filter id="filter8_f_245_31705" x="7.41239" y="30.3025" width="14.2016" height="14.0151" filterUnits="userSpaceOnUse" color-interpolation-filters="sRGB">
<feFlood flood-opacity="0" result="BackgroundImageFix"/>
<feBlend mode="normal" in="SourceGraphic" in2="BackgroundImageFix" result="shape"/>
<feGaussianBlur stdDeviation="3.44126" result="effect1_foregroundBlur_245_31705"/>
</filter>
<filter id="filter9_f_245_31705" x="-38.9577" y="-7.18235" width="106.605" height="100.94" filterUnits="userSpaceOnUse" color-interpolation-filters="sRGB">
<feFlood flood-opacity="0" result="BackgroundImageFix"/>
<feBlend mode="normal" in="SourceGraphic" in2="BackgroundImageFix" result="shape"/>
<feGaussianBlur stdDeviation="24.8275" result="effect1_foregroundBlur_245_31705"/>
</filter>
<linearGradient id="paint0_linear_245_31705" x1="13.4071" y1="41.7538" x2="15.6118" y2="45.4432" gradientUnits="userSpaceOnUse">
<stop stop-color="#B7ED26"/>
<stop offset="1" stop-color="#47610F"/>
</linearGradient>
<linearGradient id="paint1_linear_245_31705" x1="18.1327" y1="40.7292" x2="18.2806" y2="41.4459" gradientUnits="userSpaceOnUse">
<stop stop-color="#1E1500"/>
<stop offset="1" stop-color="#663E00"/>
</linearGradient>
<linearGradient id="paint2_linear_245_31705" x1="13.3406" y1="41.6864" x2="15.5475" y2="45.4028" gradientUnits="userSpaceOnUse">
<stop stop-color="#B7ED26"/>
<stop offset="1" stop-color="#5B7C13"/>
</linearGradient>
<radialGradient id="paint3_radial_245_31705" cx="0" cy="0" r="1" gradientUnits="userSpaceOnUse" gradientTransform="translate(14.6198 38.6547) rotate(26.191) scale(3.00306 4.67468)">
<stop stop-color="#9D6E00"/>
<stop offset="1" stop-color="#623B00"/>
</radialGradient>
<radialGradient id="paint4_radial_245_31705" cx="0" cy="0" r="1" gradientUnits="userSpaceOnUse" gradientTransform="translate(14.8073 38.6445) rotate(-6.81003) scale(3.84161 3.0667)">
<stop stop-color="#FFC022"/>
<stop offset="1" stop-color="#804D00" stop-opacity="0"/>
</radialGradient>
<radialGradient id="paint5_radial_245_31705" cx="0" cy="0" r="1" gradientUnits="userSpaceOnUse" gradientTransform="translate(13.1757 41.6283) rotate(-6.85848) scale(4.39152 4.68532)">
<stop stop-color="#FFC022"/>
<stop offset="1" stop-color="#804D00" stop-opacity="0"/>
</radialGradient>
<linearGradient id="paint6_linear_245_31705" x1="16.7978" y1="37.4941" x2="17.3704" y2="37.2948" gradientUnits="userSpaceOnUse">
<stop stop-color="#2D2D2D"/>
<stop offset="1" stop-color="#2D2D2D" stop-opacity="0"/>
</linearGradient>
<radialGradient id="paint7_radial_245_31705" cx="0" cy="0" r="1" gradientUnits="userSpaceOnUse" gradientTransform="translate(15.6123 38.8276) rotate(-50.664) scale(2.24741 2.13136)">
<stop stop-color="white"/>
<stop offset="0.45091" stop-color="#EDEDED"/>
<stop offset="1" stop-color="#838383"/>
</radialGradient>
<linearGradient id="paint8_linear_245_31705" x1="16.1133" y1="38.2269" x2="17.0021" y2="39.2497" gradientUnits="userSpaceOnUse">
<stop stop-color="white"/>
<stop offset="1" stop-color="white" stop-opacity="0"/>
</linearGradient>
<radialGradient id="paint9_radial_245_31705" cx="0" cy="0" r="1" gradientUnits="userSpaceOnUse" gradientTransform="translate(12.9297 38.3672) rotate(-54.8446) scale(2.46975 1.84132)">
<stop stop-color="white"/>
<stop offset="1" stop-color="#838383"/>
</radialGradient>
<linearGradient id="paint10_linear_245_31705" x1="13.5935" y1="37.9683" x2="14.189" y2="38.5268" gradientUnits="userSpaceOnUse">
<stop stop-color="white"/>
<stop offset="1" stop-color="white" stop-opacity="0"/>
</linearGradient>
<linearGradient id="paint11_linear_245_31705" x1="14.2296" y1="42.4308" x2="14.1345" y2="38.3737" gradientUnits="userSpaceOnUse">
<stop stop-color="white" stop-opacity="0"/>
<stop offset="0.69043" stop-color="white" stop-opacity="0.404"/>
<stop offset="1" stop-color="white" stop-opacity="0"/>
</linearGradient>
<linearGradient id="paint12_linear_245_31705" x1="14.1412" y1="42.412" x2="14.046" y2="38.3549" gradientUnits="userSpaceOnUse">
<stop stop-color="white" stop-opacity="0"/>
<stop offset="0.69043" stop-color="white" stop-opacity="0.404"/>
<stop offset="1" stop-color="white" stop-opacity="0"/>
</linearGradient>
<linearGradient id="paint13_linear_245_31705" x1="14.5651" y1="37.3965" x2="14.2906" y2="36.9468" gradientUnits="userSpaceOnUse">
<stop stop-color="#2D2D2D"/>
<stop offset="1" stop-color="#2D2D2D" stop-opacity="0"/>
</linearGradient>
<linearGradient id="paint14_linear_245_31705" x1="15.1986" y1="42.7167" x2="13.8527" y2="45.2752" gradientUnits="userSpaceOnUse">
<stop stop-color="#DADADA"/>
<stop offset="1" stop-color="white" stop-opacity="0"/>
</linearGradient>
<linearGradient id="paint15_linear_245_31705" x1="12.9494" y1="38.5997" x2="12.9824" y2="39.2042" gradientUnits="userSpaceOnUse">
<stop stop-color="white"/>
<stop offset="1" stop-color="white" stop-opacity="0"/>
</linearGradient>
<linearGradient id="paint16_linear_245_31705" x1="16.3808" y1="38.7918" x2="16.4048" y2="39.5887" gradientUnits="userSpaceOnUse">
<stop stop-color="white"/>
<stop offset="1" stop-color="white" stop-opacity="0"/>
</linearGradient>
<clipPath id="clip0_245_31705">
<rect width="59" height="10.2496" fill="white" transform="translate(10 35)"/>
</clipPath>
</defs>
</svg>
