<svg width="80" height="80" viewBox="0 0 80 80" fill="none" xmlns="http://www.w3.org/2000/svg">
<rect width="80" height="80" rx="8" fill="#F5F8FD"/>
<g clip-path="url(#clip0_245_31638)">
<path d="M71.6543 39.1475V38.028H70.2641V36.2877L70.2173 36.302L68.9115 36.7016L68.8859 36.7094V38.028H66.825V37.2935C66.825 36.9514 66.9015 36.6896 67.0523 36.5152C67.202 36.3426 67.4161 36.255 67.6891 36.255C67.8855 36.255 68.0887 36.3012 68.2933 36.3924L68.3445 36.4152V35.2364L68.3204 35.2277C68.1296 35.1589 67.87 35.1245 67.5483 35.1245C67.1428 35.1245 66.7744 35.2127 66.4531 35.3876C66.1364 35.5579 65.8754 35.8158 65.7015 36.1305C65.525 36.4481 65.4355 36.8147 65.4355 37.2205V38.0281H64.4675V39.1476H65.4355V43.8636H66.825V39.1475H68.8859V42.1444C68.8859 43.3787 69.468 44.0043 70.6163 44.0043C70.8147 44.0032 71.0125 43.9812 71.2063 43.9387C71.4127 43.8943 71.5532 43.8499 71.636 43.8025L71.6543 43.7917V42.6619L71.5978 42.6993C71.5223 42.7496 71.4285 42.7907 71.3183 42.8211C71.2077 42.8522 71.1153 42.8679 71.0438 42.8679C70.7748 42.8679 70.5759 42.7954 70.4523 42.6523C70.3275 42.5081 70.2641 42.2556 70.2641 41.9025V39.1475H71.6543ZM61.3642 42.868C60.8599 42.868 60.4623 42.7007 60.1819 42.3713C59.9001 42.0401 59.7571 41.5682 59.7571 40.9683C59.7571 40.3496 59.9001 39.8653 60.1822 39.5283C60.4625 39.1936 60.8564 39.0237 61.3529 39.0237C61.8347 39.0237 62.2182 39.1859 62.493 39.5063C62.7691 39.8282 62.9092 40.3086 62.9092 40.9345C62.9092 41.5682 62.7774 42.0551 62.5176 42.3807C62.2596 42.7039 61.8716 42.868 61.3642 42.868ZM61.4262 37.8874C60.4639 37.8874 59.6995 38.1693 59.1548 38.7254C58.6101 39.2816 58.334 40.0512 58.334 41.0132C58.334 41.9269 58.6035 42.6618 59.1351 43.1972C59.6667 43.7328 60.3903 44.0041 61.2853 44.0041C62.2181 44.0041 62.9671 43.7183 63.5119 43.1544C64.0565 42.5913 64.3325 41.8289 64.3325 40.8893C64.3325 39.9614 64.0735 39.2211 63.5627 38.6892C63.0514 38.1571 62.3325 37.8874 61.4262 37.8874ZM56.0934 37.8874C55.4389 37.8874 54.8974 38.0548 54.4838 38.3849C54.0678 38.717 53.8567 39.1526 53.8567 39.6796C53.8567 39.9535 53.9022 40.1968 53.992 40.4032C54.0821 40.6103 54.2217 40.7925 54.4072 40.9456C54.5912 41.0974 54.8753 41.2564 55.2519 41.418C55.5683 41.5483 55.8044 41.6586 55.9543 41.7454C56.1009 41.8305 56.2049 41.9161 56.2636 41.9994C56.3207 42.0808 56.3497 42.1924 56.3497 42.3301C56.3497 42.7222 56.0561 42.9129 55.452 42.9129C55.2279 42.9129 54.9723 42.8661 54.6923 42.7739C54.4143 42.683 54.152 42.55 53.9144 42.3794L53.8567 42.3381V43.6759L53.8779 43.6858C54.0745 43.7766 54.3224 43.853 54.6146 43.9133C54.9063 43.9735 55.1711 44.0042 55.4013 44.0042C56.1116 44.0042 56.6836 43.836 57.1008 43.5039C57.521 43.1695 57.7339 42.7238 57.7339 42.1784C57.7339 41.7851 57.6192 41.4477 57.3932 41.1757C57.1691 40.9059 56.7797 40.6582 56.2366 40.4392C55.804 40.2655 55.5268 40.1214 55.4125 40.0108C55.3022 39.9039 55.2463 39.7527 55.2463 39.5614C55.2463 39.3915 55.3154 39.2557 55.4573 39.1455C55.6002 39.0349 55.7991 38.9785 56.0485 38.9785C56.2802 38.9785 56.517 39.0151 56.7526 39.0867C56.9881 39.1584 57.1947 39.2545 57.3674 39.3719L57.4241 39.4107V38.1416L57.4023 38.1323C57.2432 38.0639 57.0331 38.0055 56.7782 37.9582C56.5241 37.9112 56.2937 37.8874 56.0934 37.8874ZM50.2341 42.868C49.7298 42.868 49.3321 42.7007 49.0519 42.3713C48.7699 42.0401 48.6273 41.5682 48.6273 40.9683C48.6273 40.3496 48.77 39.8653 49.0522 39.5283C49.3323 39.1936 49.7261 39.0237 50.2229 39.0237C50.7046 39.0237 51.0882 39.1859 51.3629 39.5063C51.639 39.8282 51.7791 40.3086 51.7791 40.9345C51.7791 41.5682 51.6474 42.0551 51.3875 42.3807C51.1294 42.7039 50.7415 42.868 50.2341 42.868ZM50.2961 37.8874C49.3336 37.8874 48.5692 38.1693 48.0247 38.7254C47.4802 39.2816 47.2038 40.0512 47.2038 41.0132C47.2038 41.9272 47.4736 42.6618 48.0051 43.1972C48.5367 43.7328 49.2601 44.0041 50.1554 44.0041C51.0878 44.0041 51.8372 43.7183 52.382 43.1544C52.9264 42.5913 53.2025 41.8289 53.2025 40.8893C53.2025 39.9614 52.9434 39.2211 52.4325 38.6892C51.9211 38.1571 51.2023 37.8874 50.2961 37.8874ZM45.0944 39.0386V38.028H43.7217V43.8633H45.0943V40.8782C45.0943 40.3706 45.2094 39.9536 45.4365 39.6387C45.6607 39.3275 45.9596 39.1698 46.3242 39.1698C46.4479 39.1698 46.5866 39.1901 46.737 39.2305C46.8858 39.2706 46.9936 39.3141 47.0571 39.3598L47.1148 39.4017V38.018L47.0924 38.0084C46.9647 37.9541 46.7838 37.9268 46.5551 37.9268C46.2101 37.9268 45.9014 38.0375 45.6371 38.2557C45.405 38.4476 45.2371 38.7106 45.1089 39.0386H45.0944ZM41.2636 37.8874C40.6339 37.8874 40.0721 38.0225 39.5943 38.2887C39.1157 38.5553 38.7453 38.9364 38.4934 39.4206C38.2427 39.9039 38.1154 40.4683 38.1154 41.0978C38.1154 41.649 38.2388 42.155 38.4827 42.6008C38.7269 43.0475 39.0725 43.397 39.5099 43.6394C39.9468 43.8815 40.4517 44.0042 41.0105 44.0042C41.6628 44.0042 42.2198 43.8738 42.6665 43.6167L42.6844 43.6062V42.3487L42.6268 42.3909C42.4214 42.5398 42.1951 42.6576 41.9552 42.7404C41.7125 42.8251 41.4915 42.8679 41.2976 42.8679C40.7589 42.8679 40.3266 42.6994 40.0127 42.3672C39.6981 42.0344 39.5386 41.5673 39.5386 40.9794C39.5386 40.3879 39.705 39.9087 40.0327 39.555C40.3595 39.2026 40.7927 39.0238 41.3202 39.0238C41.7713 39.0238 42.211 39.1766 42.6268 39.4783L42.6844 39.5201V38.1951L42.6659 38.1846C42.5092 38.097 42.2959 38.0246 42.0308 37.9698C41.767 37.9151 41.5089 37.8874 41.2636 37.8874ZM37.17 38.028H35.7972V43.8633H37.17V38.028ZM36.4977 35.5421C36.2718 35.5421 36.0747 35.6191 35.9129 35.7714C35.7502 35.9243 35.6677 36.1167 35.6677 36.3438C35.6677 36.5673 35.7492 36.7561 35.9101 36.9049C36.0701 37.0533 36.2678 37.1285 36.4977 37.1285C36.7274 37.1285 36.9258 37.0533 37.0877 36.9052C37.2506 36.7561 37.3332 36.5673 37.3332 36.3438C37.3332 36.1247 37.2528 35.9341 37.0944 35.7776C36.9362 35.6213 36.7353 35.5421 36.4977 35.5421ZM33.0728 37.5976V43.8632H34.4737V35.7208H32.5349L30.0704 41.7687L27.6789 35.7208H25.6611V43.8633H26.9776V37.5969H27.0228L29.5482 43.8633H30.5416L33.0276 37.5974H33.0728V37.5976Z" fill="#706D6E"/>
<path d="M14.4572 39.4572H8V33H14.4572V39.4572Z" fill="#F1511B"/>
<path d="M21.5871 39.4572H15.1299V33H21.5871V39.4572Z" fill="#80CC28"/>
<path d="M14.4571 46.5896H8V40.1323H14.4571V46.5896Z" fill="#00ADEF"/>
<path d="M21.5871 46.5896H15.1299V40.1323H21.5871V46.5896Z" fill="#FBBC09"/>
</g>
<defs>
<clipPath id="clip0_245_31638">
<rect width="63.6546" height="13.6756" fill="white" transform="translate(8 33)"/>
</clipPath>
</defs>
</svg>
