<svg width="80" height="80" viewBox="0 0 80 80" fill="none" xmlns="http://www.w3.org/2000/svg">
<rect width="80" height="80" rx="8" fill="#F5F8FD"/>
<g clip-path="url(#clip0_245_31671)">
<path d="M40 56H39.469L42.802 47.068H47.333C48.135 47.068 48.932 46.401 49.198 45.735L52.802 36.001C53.333 34.402 52.401 33.069 50.802 33.069H44.531L36.401 55.6C29.198 53.866 24 47.6 24 40.001C24 32.668 28.932 26.532 35.734 24.532L32.666 33.068L27.468 47.068H30.801L35.067 35.198H37.598L33.332 47.068H36.665L40.665 36C41.196 34.401 40.399 33.068 38.665 33.068H35.998L39.331 24H39.998C48.8 24 55.998 31.198 55.998 40C55.998 48.802 48.8 56 39.998 56H40ZM49.734 35.068H47.198L43.599 44.802H46.135L49.734 35.068Z" fill="black"/>
</g>
<defs>
<clipPath id="clip0_245_31671">
<rect width="32" height="32" fill="white" transform="translate(24 24)"/>
</clipPath>
</defs>
</svg>
