<svg width="80" height="80" viewBox="0 0 80 80" fill="none" xmlns="http://www.w3.org/2000/svg">
<rect width="80" height="80" rx="8" fill="#F5F8FD"/>
<path d="M47.581 50.8712V48.9234L47.5403 48.9444C47.1021 49.157 46.6251 49.278 46.1386 49.3001C45.6336 49.3402 45.1318 49.1915 44.7302 48.8827C44.4421 48.6624 44.2275 48.3599 44.1147 48.0152C43.9919 47.6369 43.9778 47.2317 44.074 46.8457C44.1632 46.4494 44.3811 46.1002 44.6961 45.8482C44.978 45.6174 45.3191 45.4705 45.6805 45.4243C46.3212 45.3571 46.9676 45.4784 47.5403 45.7734L47.581 45.7944V43.8388L47.4918 43.8178C46.9202 43.6352 46.3205 43.5565 45.7212 43.5855C45.1739 43.5986 44.6344 43.722 44.1423 43.9477C43.6392 44.1738 43.1967 44.5156 42.8508 44.9452C42.3182 45.615 42.0221 46.4421 42.0086 47.2976C41.9951 48.1532 42.2649 48.9892 42.7759 49.6755C43.2957 50.3383 44.0202 50.8108 44.8339 51.0011C45.6937 51.2109 46.5946 51.18 47.4379 50.9119L47.581 50.8712ZM28.3384 50.8712V48.9234L28.2978 48.9444C27.8598 49.1577 27.3827 49.2788 26.896 49.3001C26.3911 49.3402 25.8892 49.1915 25.4877 48.8827C25.2014 48.6606 24.9873 48.3587 24.8721 48.0152C24.7492 47.6369 24.7351 47.2317 24.8314 46.8457C24.9207 46.4494 25.1386 46.1002 25.4536 45.8482C25.7354 45.6174 26.0765 45.4705 26.4379 45.4243C27.0786 45.3571 27.725 45.4784 28.2978 45.7734L28.3384 45.7944V43.8388L28.2492 43.8178C27.6777 43.6348 27.078 43.5561 26.4786 43.5855C25.9313 43.5986 25.3984 43.722 24.8997 43.9477C24.3987 44.1773 23.9569 44.5185 23.6082 44.9452C23.0771 45.6157 22.782 46.4425 22.7684 47.2977C22.7549 48.1528 23.0238 48.9886 23.5334 49.6755C24.0466 50.3383 24.7776 50.8108 25.5914 51.0011C26.4511 51.2107 27.352 51.1799 28.1954 50.9119L28.3384 50.8712ZM35.2081 49.2581L35.2015 50.9329L35.3183 50.9539C35.7081 51.0221 36.0914 51.0707 36.4799 51.1048C36.8211 51.1324 37.1702 51.1389 37.5115 51.1258C37.8396 51.0982 38.1612 51.0366 38.4749 50.9407C38.8437 50.8384 39.1784 50.6533 39.4724 50.4079C39.7323 50.1821 39.937 49.8947 40.0538 49.5744C40.2651 49.0271 40.2586 48.4326 40.0407 47.8931C39.9321 47.6112 39.7532 47.3618 39.5209 47.1686C39.3 46.9681 39.0393 46.8165 38.7558 46.7237L37.4905 46.2525C37.3404 46.1886 37.2189 46.0719 37.1493 45.9244C37.1209 45.864 37.1072 45.7978 37.1095 45.7312C37.1118 45.6645 37.1299 45.5994 37.1624 45.5411C37.2265 45.434 37.3186 45.3464 37.4288 45.2878C37.5719 45.2196 37.7228 45.1789 37.8803 45.1579C38.1467 45.1237 38.4198 45.1237 38.6875 45.171C39.0025 45.2051 39.3096 45.2602 39.6168 45.3351L39.685 45.3482V43.8034L39.5616 43.7758C39.2481 43.704 38.9308 43.6493 38.6114 43.6117C38.1966 43.5544 37.776 43.5522 37.3606 43.6052C36.8365 43.6541 36.3377 43.8538 35.9247 44.1801C35.6459 44.4011 35.433 44.6944 35.3091 45.0279C35.1319 45.5371 35.1319 46.0912 35.3091 46.6003C35.4049 46.8602 35.5559 47.0859 35.7541 47.2697C35.9247 47.4337 36.1163 47.5702 36.3289 47.6805C36.6019 47.8314 36.8959 47.9404 37.1965 48.0217C37.2923 48.0559 37.3947 48.0834 37.4905 48.1176L37.6414 48.1727L37.6821 48.1937C37.8304 48.2428 37.9658 48.3244 38.0785 48.4326C38.1597 48.5044 38.2208 48.5963 38.2557 48.699C38.2833 48.7906 38.2833 48.8883 38.2557 48.9799C38.2084 49.1289 38.1054 49.2539 37.9683 49.329C37.8173 49.4038 37.6532 49.4589 37.4826 49.4799C37.2361 49.5183 36.9861 49.5297 36.7371 49.5141C36.2383 49.4779 35.744 49.3953 35.2606 49.2673L35.2081 49.2581ZM30.8742 50.9946H32.713V43.7076H30.8742V50.9946ZM52.1538 45.8601C52.5486 45.5439 53.0522 45.3964 53.5552 45.4496C54.0582 45.5029 54.5198 45.7525 54.8397 46.1444C55.1596 46.5362 55.3118 47.0385 55.2633 47.5419C55.2147 48.0454 54.9694 48.5093 54.5806 48.8329L54.5464 48.8539C52.5567 50.3856 50.2257 47.4587 52.1538 45.8601ZM49.4881 47.3511C49.4966 47.9208 49.6319 48.4815 49.884 48.9925C50.1362 49.5035 50.4989 49.952 50.9458 50.3054C51.3928 50.6589 51.9128 50.9085 52.4681 51.0361C53.0234 51.1637 53.6002 51.1661 54.1566 51.0431C57.5337 50.4 58.333 45.9231 55.3799 44.1525C52.8363 42.5801 49.5484 44.3638 49.4868 47.3524L49.4881 47.3511ZM59.1822 37.842C59.2294 39.0036 60.9528 39.0036 61 37.842V35.826C60.9528 34.6644 59.2294 34.6644 59.1822 35.826V37.842ZM54.2052 37.842C54.2879 38.9694 55.9416 38.9694 56.023 37.842V33.3165C55.9548 32.1746 54.28 32.1746 54.2052 33.3165V37.842ZM49.1534 39.6677C49.2426 40.7951 50.8898 40.7951 50.9712 39.6677V29.8712C50.9239 28.7096 49.2072 28.7096 49.1534 29.8712V39.6677ZM44.1908 37.842C44.2591 38.9839 45.9338 38.9839 46.0086 37.842V33.3165C45.9535 32.1549 44.2381 32.1549 44.1908 33.3165V37.842ZM39.1114 37.842C39.2204 38.9432 40.8269 38.9432 40.9293 37.842V35.826C40.882 34.6644 39.1653 34.6644 39.1114 35.826V37.842ZM34.0938 37.842C34.141 39.0036 35.8577 39.0036 35.9116 37.842V33.3165C35.8564 32.1549 34.141 32.1549 34.0938 33.3165V37.842ZM29.0419 39.6677C29.0892 40.8292 30.8059 40.8292 30.8598 39.6677V29.8712C30.8046 28.7096 29.0892 28.7096 29.0419 29.8712V39.6677ZM24.0308 37.842C24.1332 38.9563 25.7541 38.9563 25.8486 37.842V33.3165C25.8014 32.1549 24.0846 32.1549 24.0374 33.3165V37.842H24.0308ZM19 37.842C19.0827 38.9694 20.7299 38.9694 20.8178 37.842V35.826C20.7706 34.6644 19.0472 34.6644 19 35.826V37.842Z" fill="black"/>
</svg>
