<svg width="80" height="80" viewBox="0 0 80 80" fill="none" xmlns="http://www.w3.org/2000/svg">
<rect width="80" height="80" rx="8" fill="#F5F8FD"/>
<g clip-path="url(#clip0_245_29222)">
<path d="M24.2059 41.3244C25.31 41.3244 26.9074 41.0967 26.9074 39.7835C26.9107 39.6822 26.9015 39.5808 26.88 39.4817L26.2225 36.6256C26.0708 35.9972 25.9376 35.7123 24.8343 35.1607C23.9782 34.7228 22.1134 34 21.5618 34C21.0482 34 20.8991 34.6619 20.2865 34.6619C19.697 34.6619 19.2593 34.1677 18.7077 34.1677C18.1781 34.1677 17.833 34.5287 17.5665 35.2709C17.5665 35.2709 16.8242 37.3644 16.7289 37.6679C16.7138 37.7237 16.7072 37.7814 16.7095 37.8391C16.7095 38.6529 19.9133 41.3209 24.2061 41.3209M27.0769 40.3165C27.2296 41.0393 27.2296 41.1152 27.2296 41.2106C27.2296 42.4461 25.8405 43.1319 24.0145 43.1319C19.8875 43.1345 16.2727 40.7164 16.2727 39.118C16.2724 38.8955 16.3178 38.6754 16.406 38.4711C14.9213 38.5452 13 38.8099 13 40.5063C13 43.2846 19.5831 46.7088 24.7955 46.7088C28.7917 46.7088 29.7996 44.9013 29.7996 43.4742C29.7996 42.3516 28.8289 41.0772 27.0787 40.3164" fill="#EE0000"/>
<path d="M27.0778 40.3165C27.2304 41.0393 27.2304 41.1153 27.2304 41.2106C27.2304 42.4462 25.8413 43.1319 24.0153 43.1319C19.8883 43.1345 16.2734 40.7164 16.2734 39.118C16.2732 38.8955 16.3186 38.6754 16.4067 38.4711L16.7297 37.6714C16.7149 37.7261 16.7084 37.7826 16.7103 37.8391C16.7103 38.6529 19.9141 41.3209 24.2069 41.3209C25.3109 41.3209 26.9083 41.0931 26.9083 39.7799C26.9116 39.6786 26.9024 39.5772 26.8809 39.4781L27.0778 40.3166V40.3165ZM64.1226 42.1461C64.1226 43.1955 64.7536 43.7055 65.9045 43.7055C66.2588 43.6968 66.6109 43.647 66.9539 43.5574V42.3403C66.7347 42.4097 66.5059 42.4442 66.276 42.4426C65.8022 42.4426 65.6264 42.2944 65.6264 41.8487V39.9838H66.9997V38.7305H65.6266V37.142L64.1261 37.4667V38.7305H63.1297V39.9838H64.1226V42.1461ZM59.445 42.1744C59.445 41.8495 59.7707 41.6915 60.2623 41.6915C60.5628 41.6933 60.862 41.7306 61.1537 41.8028V42.4338C60.8662 42.5908 60.543 42.6707 60.2155 42.6659C59.7336 42.6659 59.445 42.4805 59.445 42.1744ZM59.9039 43.7241C60.4334 43.7241 60.8606 43.6129 61.2596 43.3437V43.6411H62.744V40.494C62.744 39.2972 61.9373 38.6406 60.5914 38.6406C59.8395 38.6406 59.0963 38.817 58.2968 39.1789L58.8351 40.2839C59.4105 40.042 59.8942 39.8937 60.3205 39.8937C60.9383 39.8937 61.2578 40.1347 61.2578 40.6272V40.8682C60.8941 40.774 60.5197 40.7272 60.144 40.7287C58.8811 40.7287 58.1202 41.2582 58.1202 42.2053C58.1202 43.0684 58.8068 43.7267 59.9022 43.7267M51.7437 43.6439H53.3402V41.0977H56.0136V43.6412H57.6146V37.1437H56.0197V39.6405H53.3465V37.1437H51.7499L51.7437 43.6439ZM45.6663 41.1815C45.6663 40.4754 46.2232 39.937 46.9567 39.937C47.3383 39.9293 47.7087 40.0654 47.9945 40.3183V42.0349C47.8561 42.1658 47.6931 42.2679 47.515 42.3355C47.3368 42.403 47.1471 42.4346 46.9567 42.4286C46.233 42.4286 45.6663 41.8901 45.6663 41.185M48.0149 43.6447H49.5003V36.8188L47.9999 37.1437V38.9909C47.618 38.7744 47.1857 38.6624 46.7466 38.6661C45.3178 38.6661 44.1943 39.7702 44.1943 41.1815C44.1902 41.5126 44.2521 41.8412 44.3764 42.1482C44.5007 42.4551 44.6849 42.7342 44.9182 42.9692C45.1515 43.2042 45.4293 43.3903 45.7354 43.5168C46.0414 43.6432 46.3696 43.7074 46.7008 43.7057C47.1742 43.7079 47.636 43.5585 48.0185 43.2794L48.0149 43.6447ZM41.1988 39.8691C41.6719 39.8691 42.0708 40.1753 42.2288 40.6485H40.1813C40.3295 40.1604 40.701 39.8691 41.1988 39.8691ZM38.6686 41.1929C38.6686 42.6227 39.8379 43.7365 41.3409 43.7365C42.167 43.7365 42.7707 43.5132 43.3929 42.9933L42.3992 42.1108C42.167 42.3526 41.8237 42.4823 41.416 42.4823C41.1596 42.4896 40.907 42.419 40.6915 42.2799C40.476 42.1408 40.3076 41.9397 40.2086 41.703H43.708V41.3297C43.708 39.7702 42.6595 38.6477 41.2297 38.6477C40.8937 38.6426 40.5599 38.7048 40.2482 38.8305C39.9365 38.9563 39.6531 39.1431 39.4146 39.38C39.1762 39.6169 38.9875 39.8991 38.8596 40.21C38.7318 40.5208 38.6674 40.8541 38.6703 41.1903M36.08 38.5082C36.6094 38.5082 36.906 38.8418 36.906 39.2415C36.906 39.6414 36.6095 39.975 36.08 39.975H34.5011V38.5081H36.08V38.5082ZM32.9026 43.6411H34.4991V41.2741H35.7144L36.9404 43.6412H38.7275L37.2978 41.042C37.6612 40.8942 37.972 40.6411 38.1903 40.3152C38.4086 39.9894 38.5244 39.6056 38.5228 39.2134C38.5228 38.044 37.6041 37.1437 36.2282 37.1437H32.9026V43.6412V43.6411Z" fill="black"/>
</g>
<defs>
<clipPath id="clip0_245_29222">
<rect width="54" height="12.7615" fill="white" transform="translate(13 34)"/>
</clipPath>
</defs>
</svg>
