<svg width="80" height="80" viewBox="0 0 80 80" fill="none" xmlns="http://www.w3.org/2000/svg">
<rect width="80" height="80" rx="8" fill="#F5F8FD"/>
<g clip-path="url(#clip0_245_29264)">
<path d="M40.004 24.0854C31.168 24.0854 24 31.2094 24 40.0001C24 48.7908 31.168 55.9148 40.004 55.9148C42.896 55.9148 45.604 55.1548 47.944 53.8214L48.776 55.9148H55.2307L52.7067 49.6761C54.8466 46.905 56.0051 43.5013 56 40.0001C56 31.2094 48.84 24.0854 40.004 24.0854ZM35.7573 26.7068C36.288 27.1588 36.1893 26.9708 36.904 26.8854C37.7173 26.3561 38.0947 28.1414 38.4333 27.1454C39.4307 27.2748 40.4893 27.5988 41.4333 27.9241C42.4002 28.1449 43.2697 28.6725 43.912 29.4281L43.8933 29.4374L44.36 30.0548C44.42 30.1614 44.4693 30.2734 44.52 30.3854C44.7093 31.9921 46.4933 31.9721 47.6893 32.5521C48.712 32.9148 49.9427 33.4668 50.0693 34.7001C49.812 34.6441 48.8147 33.4721 48.0293 33.3574C47.5293 33.3147 47.038 33.2002 46.5707 33.0174L43.8133 32.5068V32.4974C43.6749 32.481 43.5374 32.4574 43.4013 32.4268V32.4441L39.4987 31.9614C39.5627 32.0054 39.632 32.0641 39.696 32.1214L43.696 32.9014V32.8921L43.9747 32.9628L45.0933 33.2134C45.3147 33.2348 45.5387 33.2708 45.72 33.3028C46.8613 33.6174 48.2107 33.5614 49.148 34.3588C48.9027 34.8281 47.5347 34.5628 46.856 34.5028C46.7733 34.4868 46.6813 34.4721 46.5973 34.4574L46.552 34.4481C45.624 34.2974 44.6707 34.2881 43.7773 34.5654H43.768C43.4553 34.6647 43.155 34.7999 42.8733 34.9681C41.5827 35.7188 39.988 35.9908 38.9173 37.0708C37.868 38.2001 37.932 39.7534 38.112 41.1974H38.156V41.5641C38.1733 41.6908 38.1933 41.8174 38.2093 41.9401C38.756 44.8601 40.2093 47.5401 40.6627 50.4895C40.7493 51.6134 40.9333 53.0654 41.0747 53.9801C40.6667 53.8588 40.4413 52.0308 40.3493 52.6374C38.9618 50.1763 37.3719 47.8349 35.596 45.6374C34.4587 44.2988 33.3333 42.8908 31.98 41.7788C31.0667 41.0748 31.356 39.7121 31.264 38.7094C30.9573 37.4748 31.1387 36.2454 31.344 35.0121C31.7613 33.7281 31.9013 32.3881 32.472 31.1548C33.3427 30.3801 33.364 28.9814 34.2093 28.3081C34.3347 28.3854 34.4187 28.4214 34.476 28.4414L34.5667 28.4521H34.576C34.696 28.3254 33.392 26.9641 34.6027 27.5028C34.6493 26.7868 35.7413 27.3321 35.7573 26.7068ZM40.8867 29.6161C40.456 29.6281 40.1213 29.7894 40.0267 30.0628C39.8747 30.5028 40.3907 31.0694 41.1813 31.3428C41.9733 31.6161 42.7387 31.4881 42.8907 31.0481C43.0427 30.6081 42.528 30.0321 41.736 29.7588C41.4635 29.6616 41.176 29.6133 40.8867 29.6161Z" fill="black"/>
</g>
<defs>
<clipPath id="clip0_245_29264">
<rect width="32" height="32" fill="white" transform="translate(24 24)"/>
</clipPath>
</defs>
</svg>
