<svg width="80" height="80" viewBox="0 0 80 80" fill="none" xmlns="http://www.w3.org/2000/svg">
<rect width="80" height="80" rx="8" fill="#F5F8FD"/>
<g clip-path="url(#clip0_245_29272)">
<path d="M52.6112 50.8669V55.4709C52.6112 55.4709 52.6019 55.7455 52.4952 55.8482C52.4443 55.8997 52.383 55.9398 52.3154 55.9658C52.2478 55.9918 52.1755 56.0031 52.1032 55.9989C46.9579 55.9922 41.8125 55.9855 36.6672 55.9949C34.5659 55.9882 32.3339 55.7642 30.6245 54.5055C30.5259 54.3989 29.9779 54.1202 30.3739 54.1602C36.8167 53.8135 43.222 52.9575 49.5299 51.6002C50.5596 51.369 51.5864 51.1245 52.6099 50.8669H52.6112ZM28.3632 51.9522C28.6379 52.3549 28.8432 52.9735 29.3099 53.1495C37.1499 52.7629 44.9899 51.7055 52.6112 49.7682V45.2469C49.3619 46.7935 45.9672 48.0429 42.5339 49.0735C37.8991 50.4281 33.159 51.3915 28.3632 51.9535V51.9522ZM27.4832 49.4375C27.5632 49.9535 27.6939 50.4389 27.8819 50.9402C36.1045 49.9722 44.2499 47.9589 51.7819 44.4549C52.0579 44.3242 52.3339 44.1909 52.6085 44.0575V39.6869C46.7525 43.6695 40.0859 46.3349 33.2712 48.1255C31.3539 48.6095 29.4365 49.1122 27.4832 49.4375ZM41.9499 40.5149C37.7125 42.9189 33.1792 44.7749 28.5272 46.1655C28.1845 46.3522 27.5485 46.2802 27.5512 46.7909C27.4381 47.3075 27.3845 47.8354 27.3912 48.3642C34.9485 46.9175 42.3939 44.5109 49.1019 40.6402C50.3051 39.945 51.4761 39.1953 52.6112 38.3935V31.8655C49.6605 35.4082 45.9192 38.2309 41.9485 40.5149H41.9499ZM51.8739 24.1682C50.5899 24.7189 45.3952 27.2749 44.6165 30.6682C44.3019 31.0989 43.8219 30.5615 43.4779 30.4509C40.5325 28.9962 36.8005 29.4695 34.2779 31.6135C31.7605 33.6509 30.3765 37.3015 31.5339 40.4642C31.7152 40.8362 31.9032 41.3349 31.5099 41.6415C31.0432 41.9655 30.5192 42.2002 30.1099 42.6122C29.2765 43.3149 28.5499 44.2175 28.1099 45.1802C35.0219 43.0815 41.7899 40.0682 47.4485 35.4695C49.3459 33.8922 51.1245 32.1322 52.6085 30.1602V24.1109C52.5112 23.9055 52.2139 24.0215 51.8739 24.1682Z" fill="black"/>
</g>
<defs>
<clipPath id="clip0_245_29272">
<rect width="32" height="32" fill="white" transform="translate(24 24)"/>
</clipPath>
</defs>
</svg>
