<svg width="80" height="80" viewBox="0 0 80 80" fill="none" xmlns="http://www.w3.org/2000/svg">
<rect width="80" height="80" rx="8" fill="#F5F8FD"/>
<path d="M20.3535 36.1387C16.6224 36.1387 13.5977 39.0911 13.5977 42.7306C13.5977 46.3699 16.6224 49.3149 20.3535 49.3149C24.0847 49.3149 27.102 46.3699 27.102 42.7306C27.102 39.0911 24.0844 36.1387 20.3535 36.1387ZM20.3535 37.1822C22.7117 37.1822 24.6205 39.6706 24.6205 42.731C24.6205 45.7912 22.7127 48.2724 20.3535 48.2724C17.9952 48.2724 16.0793 45.7936 16.0793 42.731C16.0793 39.6708 17.995 37.1822 20.3535 37.1822Z" fill="#D4F8AD"/>
<path d="M66.2138 37.5084V36.4909H62.3193V31.6072H61.8866C61.5403 33.3514 61.0499 35.3277 60.0402 36.4909H57.8765V37.5084H60.0402V46.4638C60.0402 49.0505 62.0887 49.3424 62.9823 49.3424L65.9829 48.0342H64.5403C63.3863 48.0342 62.3188 47.4236 62.3188 45.477V37.5108H66.2133M51.4548 36.1588L47.3876 36.7983C48.3396 37.467 49.4361 38.1356 49.4361 38.7461V49.0365H51.773V40.8106C51.773 38.8339 52.9271 38.165 53.706 38.165C54.1966 38.165 54.6872 38.0778 55.6391 38.514C55.9851 38.8048 55.9564 39.5604 56.0719 39.5604L57.2548 37.4091C57.2548 36.8567 56.9085 36.1591 55.9565 36.1591C54.8025 36.1591 53.8505 36.7115 51.7722 38.2233L51.455 36.1591M41.104 36.7974C41.7081 37.3205 43.1801 37.8824 43.2099 38.7452V49.0354H45.5757V36.3039L45.5467 36.1585L41.1045 36.798M46.0292 32.2604C46.0292 33.1386 45.3226 33.8506 44.4509 33.8506C43.5794 33.8506 42.8728 33.1386 42.8728 32.2604C42.8728 31.3821 43.5791 30.6703 44.4509 30.6703C45.3225 30.6703 46.0292 31.3821 46.0292 32.2604ZM24.2441 30.335C24.7154 30.6547 25.1866 30.9745 25.6579 31.2943L29.3796 40.3934L32.553 49.0272H34.3129L37.9192 39.7248C39.0733 36.7014 40.8909 32.3702 41.6121 30.9166L42.2468 30.3352H40.4004L40.4292 30.4806L37.5731 38.3585L34.3705 46.1206L33.9955 46.0625L31.2548 39.1145L28.0525 30.8008C28.0236 30.6263 28.0236 30.481 28.0236 30.3356H24.2443" fill="#222222"/>
</svg>
