<svg width="80" height="80" viewBox="0 0 80 80" fill="none" xmlns="http://www.w3.org/2000/svg">
<g clip-path="url(#clip0_245_33253)">
<path fill-rule="evenodd" clip-rule="evenodd" d="M55.5391 31.1162C55.5504 31.1582 55.5562 31.2014 55.5563 31.2448V37.9968C55.5563 38.0835 55.5334 38.1686 55.49 38.2436C55.4466 38.3186 55.3841 38.3808 55.3089 38.4239L49.6418 41.6867V48.1538C49.6418 48.3298 49.5483 48.4922 49.3957 48.5808L37.5662 55.3907C37.5391 55.4061 37.5095 55.4159 37.48 55.4264C37.4689 55.4301 37.4585 55.4368 37.4468 55.4399C37.3641 55.4617 37.2772 55.4617 37.1945 55.4399C37.1809 55.4362 37.1686 55.4288 37.1557 55.4239C37.1286 55.4141 37.1003 55.4055 37.0745 55.3907L25.2474 48.5808C25.1723 48.5377 25.1098 48.4755 25.0664 48.4005C25.023 48.3255 25.0001 48.2404 25 48.1538V27.8978C25 27.8535 25.0062 27.8104 25.0172 27.7685C25.0209 27.7544 25.0295 27.7415 25.0345 27.7273C25.0437 27.7015 25.0523 27.675 25.0658 27.651C25.0751 27.635 25.0886 27.6221 25.0997 27.6073C25.1138 27.5876 25.1268 27.5673 25.1434 27.5501C25.1575 27.5359 25.176 27.5255 25.192 27.5132C25.2098 27.4984 25.2258 27.4824 25.2462 27.4707H25.2468L31.1606 24.0658C31.2355 24.0227 31.3204 24 31.4068 24C31.4932 24 31.578 24.0227 31.6529 24.0658L37.5668 27.4707H37.568C37.5877 27.483 37.6043 27.4984 37.6222 27.5125C37.6382 27.5248 37.656 27.5359 37.6702 27.5495C37.6874 27.5673 37.6997 27.5876 37.7145 27.6073C37.7249 27.6221 37.7391 27.635 37.7477 27.651C37.7618 27.6756 37.7698 27.7015 37.7797 27.7273C37.7846 27.7415 37.7932 27.7544 37.7969 27.7692C37.8083 27.8111 37.814 27.8543 37.8142 27.8978V40.5495L42.7422 37.7119V31.2442C42.7422 31.2012 42.7483 31.1575 42.7594 31.1162C42.7637 31.1015 42.7717 31.0885 42.7766 31.0744C42.7865 31.0485 42.7951 31.0221 42.8086 30.9981C42.8178 30.9821 42.8314 30.9692 42.8418 30.9544C42.8566 30.9347 42.8689 30.9144 42.8862 30.8972C42.9003 30.883 42.9182 30.8725 42.9342 30.8602C42.9526 30.8455 42.9686 30.8295 42.9883 30.8178H42.9889L48.9034 27.4128C48.9782 27.3697 49.0631 27.347 49.1495 27.347C49.2359 27.347 49.3208 27.3697 49.3957 27.4128L55.3095 30.8178C55.3305 30.8301 55.3465 30.8455 55.3649 30.8596C55.3803 30.8719 55.3982 30.883 55.4123 30.8965C55.4295 30.9144 55.4418 30.9347 55.4566 30.9544C55.4677 30.9692 55.4812 30.9821 55.4898 30.9981C55.504 31.0221 55.512 31.0485 55.5218 31.0744C55.5274 31.0885 55.5354 31.1015 55.5391 31.1162ZM54.5705 37.7119V32.0972L52.5009 33.2885L49.6418 34.9347V40.5495L54.5711 37.7119H54.5705ZM48.6566 47.8688V42.2504L45.8443 43.8565L37.8135 48.4399V54.1113L48.6566 47.8688ZM25.9858 28.7501V47.8688L36.8277 54.1107V48.4405L31.1637 45.235L31.1618 45.2338L31.1594 45.2325C31.1403 45.2215 31.1243 45.2055 31.1065 45.1919C31.0911 45.1796 31.0732 45.1698 31.0597 45.1562L31.0585 45.1544C31.0425 45.139 31.0314 45.1199 31.0178 45.1027C31.0055 45.0861 30.9908 45.0719 30.9809 45.0547L30.9803 45.0528C30.9692 45.0344 30.9625 45.0122 30.9545 44.9913C30.9465 44.9728 30.936 44.9556 30.9311 44.9359V44.9353C30.9249 44.9119 30.9237 44.8873 30.9212 44.8633C30.9188 44.8448 30.9138 44.8264 30.9138 44.8079V44.8067V31.5876L28.0554 29.9408L25.9858 28.7507V28.7501ZM31.4074 25.0615L26.48 27.8978L31.4062 30.7341L36.3329 27.8972L31.4062 25.0615H31.4074ZM33.9698 42.7624L36.8283 41.1168V28.7501L34.7588 29.9415L31.8997 31.5876V43.9544L33.9698 42.7624ZM49.1495 28.4085L44.2228 31.2448L49.1495 34.0812L54.0757 31.2442L49.1495 28.4085ZM48.6566 34.9347L45.7975 33.2885L43.728 32.0972V37.7119L46.5865 39.3575L48.6566 40.5495V34.9347ZM37.32 47.5876L44.5465 43.4621L48.1588 41.4005L43.2357 38.5661L37.5674 41.8295L32.4012 44.8036L37.32 47.5876Z" fill="#FF2D20"/>
</g>
<defs>
<clipPath id="clip0_245_33253">
<rect width="30.7692" height="32" fill="white" transform="translate(25 24)"/>
</clipPath>
</defs>
</svg>
