<svg width="80" height="80" viewBox="0 0 80 80" fill="none" xmlns="http://www.w3.org/2000/svg">
<g clip-path="url(#clip0_245_33261)">
<path d="M59.4981 34.005V35.9017H55.4215V45.8807H53.383V35.9018H49.2214V34.005H59.4981ZM59.9564 44.7494C60.1 44.7494 60.2256 44.801 60.332 44.9045C60.4398 45.0079 60.4935 45.1318 60.495 45.276C60.4948 45.3707 60.4684 45.4635 60.419 45.5442C60.3704 45.6238 60.3025 45.6899 60.2214 45.736C60.1414 45.7839 60.0497 45.8088 59.9564 45.8082C59.8071 45.8082 59.6801 45.7564 59.5738 45.6531C59.4675 45.5496 59.4148 45.4243 59.4162 45.276C59.4149 45.1318 59.4675 45.0079 59.5738 44.9045C59.6801 44.801 59.8071 44.7494 59.9564 44.7494ZM19.5548 45.8807L12.0385 36.5384V45.8758H10V34H12.5479L22.044 45.7918L22.0441 35.9018L22.0433 34.005H32.3199V35.9017H24.0824V38.9531H30.707V40.85H24.0824V43.9839H32.32V45.8807H19.5548ZM38.853 40.8319L40.1889 42.4928L37.4515 45.8947H34.7763L38.853 40.8319ZM37.4515 34.0099L40.9004 38.2932L44.3386 34.023L47.0063 34.019L42.236 39.9519L47.014 45.8856H44.3386L34.7839 34.0099H37.4515ZM63.4354 40.8053H64.3387V44.2854C64.3374 44.6051 64.2681 44.8786 64.133 45.1087C63.9962 45.3386 63.8068 45.5142 63.5639 45.6381C63.3222 45.7605 63.039 45.8232 62.7172 45.8232C62.423 45.8232 62.1593 45.7702 61.9245 45.6667C61.6896 45.5632 61.5033 45.4081 61.3665 45.2039C61.2282 44.9998 61.1606 44.7453 61.1606 44.4405H62.0654C62.0668 44.5738 62.0971 44.6894 62.1551 44.7862C62.2122 44.8817 62.2956 44.9587 62.3955 45.0079C62.4989 45.0597 62.6179 45.0855 62.7516 45.0855C62.8968 45.0855 63.0211 45.0556 63.1219 44.9943C63.2226 44.9344 63.3 44.8446 63.354 44.7249C63.4064 44.6064 63.4341 44.4595 63.4354 44.2852V40.8052V40.8053ZM68.0552 42.1662C68.0333 41.9553 67.9365 41.7905 67.768 41.6736C67.5981 41.5551 67.3785 41.4967 67.1091 41.4967C66.9201 41.4967 66.7571 41.5253 66.6217 41.581C66.4864 41.6382 66.3814 41.7144 66.3095 41.811C66.2378 41.9076 66.2019 42.0179 66.199 42.1418C66.199 42.2451 66.2239 42.335 66.2722 42.4098C66.3223 42.4882 66.3899 42.5539 66.4697 42.6018C66.5564 42.6563 66.6491 42.7006 66.746 42.7337C66.8481 42.7691 66.9504 42.7991 67.0525 42.8236L67.5235 42.9393C67.7128 42.9829 67.8965 43.0413 68.0719 43.1162C68.2472 43.1897 68.4061 43.2836 68.5455 43.3966C68.6851 43.5095 68.7956 43.6456 68.877 43.8048C68.9585 43.9641 69 44.1505 69 44.3656C69 44.6554 68.9254 44.9099 68.7748 45.1304C68.6243 45.3495 68.4075 45.521 68.123 45.6449C67.8398 45.7674 67.4972 45.83 67.094 45.83C66.7045 45.83 66.3648 45.77 66.0788 45.6503C65.7916 45.532 65.5679 45.3576 65.4062 45.129C65.2446 44.9004 65.1576 44.6214 65.1452 44.2934H66.0403C66.0527 44.4649 66.108 44.6078 66.2019 44.7235C66.2971 44.8378 66.4214 44.9221 66.5734 44.9793C66.7267 45.0352 66.8979 45.0638 67.0871 45.0638C67.2846 45.0638 67.4586 45.0338 67.6091 44.9753C67.7584 44.9167 67.8757 44.8351 67.96 44.7289C68.0456 44.624 68.0885 44.5003 68.0899 44.3588C68.0885 44.2295 68.0497 44.122 67.9751 44.0375C67.8992 43.9531 67.7942 43.8824 67.6602 43.8252C67.525 43.7681 67.3675 43.7163 67.1879 43.6715L66.6161 43.5272C66.2031 43.4224 65.8759 43.2632 65.6369 43.0495C65.3966 42.8358 65.2778 42.5528 65.2778 42.1975C65.2778 41.9063 65.3579 41.6504 65.5196 41.4312C65.6798 41.2123 65.8994 41.0421 66.177 40.921C66.4559 40.7985 66.7709 40.7386 67.1216 40.7386C67.478 40.7386 67.79 40.7985 68.0595 40.921C68.3286 41.0421 68.5401 41.2108 68.6932 41.4258C68.8466 41.641 68.9268 41.8872 68.931 42.1662H68.0552Z" fill="black"/>
</g>
<defs>
<clipPath id="clip0_245_33261">
<rect width="59" height="11.9844" fill="white" transform="translate(10 34)"/>
</clipPath>
</defs>
</svg>
