<svg width="80" height="80" viewBox="0 0 80 80" fill="none" xmlns="http://www.w3.org/2000/svg">
<path d="M40.2308 29C28.3256 29 19 34.0512 19 40.5C19 46.9488 28.3256 52 40.2308 52C52.1359 52 61.4615 46.9488 61.4615 40.5C61.4615 34.0512 52.1359 29 40.2308 29ZM38.0263 32.5385H40.344L39.608 36.0769H41.678C42.9908 36.0769 43.8718 36.2609 44.3743 36.7192C44.8644 37.1721 45.013 37.9152 44.8166 38.9272L43.8966 43.1538H41.54L42.3875 39.2456C42.4901 38.7095 42.4494 38.3362 42.2689 38.1398C42.0902 37.9435 41.6957 37.8462 41.1048 37.8462H39.2488L38.1289 43.1538H35.8077L38.0263 32.5385ZM27.8462 36.0769H32.5629C34.8116 36.0769 36.1739 37.5843 35.6414 39.833C35.0222 42.4462 33.3662 43.1538 30.316 43.1538H28.8582L28.3964 45.8077H26.0522L27.8462 36.0769ZM46.4231 36.0769H51.1398C53.3885 36.0769 54.7508 37.5843 54.2183 39.833C53.5991 42.4462 51.9413 43.1538 48.8929 43.1538H47.4351L46.9733 45.8077H44.6291L46.4231 36.0769ZM29.8542 37.8462L29.1872 41.3846H30.6999C32.0092 41.3846 33.2264 41.236 33.4298 39.2828C33.5059 38.5273 33.191 37.8462 31.6783 37.8462H29.8542ZM48.4312 37.8462L47.7642 41.3846H49.2768C50.5861 41.3846 51.8033 41.236 52.0068 39.2828C52.0828 38.5273 51.7697 37.8462 50.2552 37.8462H48.4312Z" fill="black"/>
</svg>
