<svg width="80" height="80" viewBox="0 0 80 80" fill="none" xmlns="http://www.w3.org/2000/svg">
<path d="M40.1411 54.0012C39.9962 54.0012 39.861 53.9614 39.7353 53.8916L38.4504 53.1043C38.2571 52.9946 38.3537 52.9547 38.4118 52.9348C38.6726 52.8451 38.7209 52.8251 38.9914 52.6658C39.0204 52.6458 39.0591 52.6558 39.0881 52.6757L40.0736 53.2837C40.1122 53.3036 40.1605 53.3036 40.1894 53.2837L44.0445 50.9813C44.0831 50.9614 44.1025 50.9215 44.1025 50.8717V46.277C44.1025 46.2271 44.0831 46.1873 44.0445 46.1673L40.1894 43.875C40.1508 43.855 40.1025 43.855 40.0736 43.875L36.2185 46.1673C36.1799 46.1872 36.1605 46.2371 36.1605 46.2769V50.8716C36.1605 50.9115 36.1799 50.9613 36.2185 50.9813L37.2717 51.6092C37.8417 51.9082 38.1992 51.5594 38.1992 51.2105V46.6756C38.1992 46.6158 38.2475 46.556 38.3151 46.556H38.8078C38.8659 46.556 38.9238 46.6058 38.9238 46.6756V51.2105C38.9238 51.9979 38.5083 52.4564 37.7837 52.4564C37.5615 52.4564 37.3876 52.4564 36.8948 52.2072L35.8804 51.6092C35.6292 51.4597 35.4746 51.1806 35.4746 50.8816V46.2869C35.4746 45.9879 35.6292 45.7088 35.8804 45.5593L39.7353 43.257C39.9769 43.1175 40.3055 43.1175 40.547 43.257L44.4019 45.5593C44.6531 45.7088 44.8078 45.9879 44.8078 46.2869V50.8816C44.8078 51.1806 44.6531 51.4597 44.4019 51.6092L40.547 53.9115C40.4213 53.9714 40.2765 54.0012 40.1412 54.0012H40.1411ZM41.3295 50.8418C39.6388 50.8418 39.2909 50.0444 39.2909 49.3667C39.2909 49.3068 39.3393 49.2471 39.4069 49.2471H39.9093C39.9672 49.2471 40.0156 49.2869 40.0156 49.3468C40.0929 49.875 40.3151 50.1341 41.3392 50.1341C42.1508 50.1341 42.4987 49.9447 42.4987 49.4962C42.4987 49.2371 42.402 49.0478 41.1363 48.9182C40.0832 48.8085 39.4262 48.5693 39.4262 47.7022C39.4262 46.8949 40.0833 46.4164 41.1846 46.4164C42.4213 46.4164 43.03 46.855 43.1074 47.8118C43.1074 47.8418 43.0977 47.8716 43.0784 47.9015C43.059 47.9215 43.03 47.9414 43.001 47.9414H42.4986C42.4503 47.9414 42.402 47.9015 42.3924 47.8517C42.2764 47.3036 41.9769 47.1241 41.1846 47.1241C40.2958 47.1241 40.1894 47.4431 40.1894 47.6822C40.1894 47.9713 40.3151 48.061 41.5131 48.2204C42.7015 48.38 43.2619 48.6092 43.2619 49.4663C43.2522 50.3434 42.5566 50.8418 41.3295 50.8418Z" fill="#539E43"/>
<path d="M28.1786 36.03C28.1786 35.8507 28.082 35.6811 27.9274 35.5914L23.8309 33.1596C23.7631 33.1196 23.6859 33.0997 23.6087 33.0897H23.57C23.4927 33.0897 23.4154 33.1196 23.3478 33.1596L19.2512 35.5914C19.0966 35.6811 19 35.8506 19 36.03L19.0097 42.5683C19.0097 42.6579 19.058 42.7476 19.1353 42.7876C19.2126 42.8374 19.3091 42.8374 19.3769 42.7876L21.8116 41.3523C21.9662 41.2626 22.0628 41.0932 22.0628 40.9138V37.854C22.0628 37.6746 22.1594 37.5051 22.314 37.4154L23.3478 36.7975C23.4251 36.7476 23.512 36.7276 23.599 36.7276C23.6859 36.7276 23.7728 36.7476 23.8406 36.7975L24.8743 37.4154C25.029 37.5051 25.1255 37.6745 25.1255 37.854V40.9138C25.1255 41.0932 25.2221 41.2626 25.3767 41.3523L27.8115 42.7876C27.8491 42.812 27.8926 42.825 27.9371 42.825C27.9815 42.825 28.0251 42.812 28.0627 42.7876C28.14 42.7476 28.1883 42.6579 28.1883 42.5683L28.1786 36.03ZM47.8691 27.0299C47.7919 26.99 47.6952 26.99 47.6275 27.0299C47.5503 27.0798 47.502 27.1595 47.502 27.2492V33.7277C47.502 33.7875 47.473 33.8472 47.415 33.8871C47.3571 33.917 47.2991 33.917 47.2411 33.8871L46.217 33.2792C46.1419 33.2351 46.057 33.2119 45.9706 33.2119C45.8842 33.2119 45.7993 33.2351 45.7242 33.2792L41.6277 35.7211C41.4731 35.8107 41.3764 35.9802 41.3764 36.1596V41.0333C41.3764 41.2127 41.4731 41.3822 41.6277 41.4719L45.7242 43.9138C45.7993 43.9579 45.8842 43.9811 45.9706 43.9811C46.057 43.9811 46.1419 43.9579 46.217 43.9138L50.3136 41.4719C50.4681 41.3822 50.5648 41.2128 50.5648 41.0333V28.8838C50.5648 28.6944 50.4681 28.525 50.3136 28.4353L47.8692 27.0299H47.8691ZM47.4923 39.4287C47.4923 39.4786 47.473 39.5184 47.4343 39.5383L46.0334 40.3755C46.0139 40.3854 45.9924 40.3905 45.9706 40.3905C45.9488 40.3905 45.9273 40.3854 45.9078 40.3755L44.5069 39.5383C44.4682 39.5184 44.4489 39.4686 44.4489 39.4287V37.7543C44.4489 37.7044 44.4682 37.6646 44.5069 37.6447L45.9078 36.8074C45.9273 36.7975 45.9488 36.7924 45.9706 36.7924C45.9924 36.7924 46.0139 36.7975 46.0334 36.8074L47.4343 37.6447C47.473 37.6645 47.4923 37.7144 47.4923 37.7543V39.4287ZM61.5017 37.7144C61.6564 37.6247 61.7433 37.4553 61.7433 37.2758V36.0898C61.7433 35.9104 61.6467 35.741 61.5017 35.6513L57.4342 33.2194C57.3591 33.1753 57.2742 33.1521 57.1878 33.1521C57.1014 33.1521 57.0165 33.1753 56.9414 33.2194L52.8448 35.6612C52.6902 35.7509 52.5936 35.9204 52.5936 36.0997V40.9736C52.5936 41.1529 52.6903 41.3224 52.8448 41.4121L56.9124 43.8041C57.067 43.8938 57.2506 43.8938 57.3956 43.8041L59.8592 42.389C59.9366 42.349 59.9849 42.2594 59.9849 42.1697C59.9849 42.08 59.9366 41.9903 59.8592 41.9504L55.7434 39.5085C55.666 39.4586 55.6177 39.379 55.6177 39.2893V37.7644C55.6177 37.6747 55.666 37.585 55.7434 37.5451L57.0283 36.7876C57.0659 36.7631 57.1095 36.7502 57.1539 36.7502C57.1984 36.7502 57.2419 36.7631 57.2795 36.7876L58.5646 37.5451C58.6419 37.5949 58.6901 37.6746 58.6901 37.7644V38.9604C58.6901 39.0501 58.7385 39.1397 58.8158 39.1796C58.8534 39.204 58.8969 39.217 58.9414 39.217C58.9858 39.217 59.0294 39.204 59.067 39.1796L61.5017 37.7144Z" fill="#333333"/>
<path d="M57.1238 37.4837C57.1382 37.4739 57.155 37.4688 57.1722 37.4688C57.1893 37.4688 57.2061 37.4739 57.2205 37.4837L58.0031 37.9521C58.032 37.9721 58.0513 38.002 58.0513 38.0418V38.9788C58.0513 39.0186 58.0321 39.0486 58.0031 39.0685L57.2205 39.5369C57.2061 39.5467 57.1893 39.5519 57.1722 39.5519C57.155 39.5519 57.1382 39.5467 57.1238 39.5369L56.3413 39.0685C56.3123 39.0486 56.293 39.0186 56.293 38.9788V38.0419C56.293 38.002 56.3122 37.9721 56.3413 37.9522L57.1238 37.4837Z" fill="#539E43"/>
<path d="M39.1046 35.6612L35.0178 33.2393C34.9776 33.2184 34.9355 33.2017 34.8922 33.1895L30.3125 41.2826C30.3504 41.3304 30.3963 41.3709 30.4478 41.4022L34.5347 43.8242C34.6506 43.8939 34.7859 43.9139 34.9115 43.8739L39.211 35.7609C39.182 35.7211 39.1433 35.6911 39.1046 35.6613V35.6612Z" fill="url(#paint0_linear_245_33213)"/>
<path fill-rule="evenodd" clip-rule="evenodd" d="M34.3978 32.3477L34.3398 32.3776H34.4171L34.3978 32.3477Z" fill="url(#paint1_linear_245_33213)"/>
<path fill-rule="evenodd" clip-rule="evenodd" d="M39.1141 41.3878C39.23 41.318 39.317 41.1984 39.3557 41.0689L34.8725 33.1751C34.7565 33.1552 34.6309 33.1651 34.5247 33.2348L30.4668 35.6469L34.8435 43.8795C34.9071 43.8687 34.969 43.8486 35.0271 43.8197L39.114 41.3878L39.1141 41.3878Z" fill="url(#paint2_linear_245_33213)"/>
<path fill-rule="evenodd" clip-rule="evenodd" d="M39.4905 41.3077L39.4609 41.2578V41.3276L39.4904 41.3077H39.4905Z" fill="url(#paint3_linear_245_33213)"/>
<path fill-rule="evenodd" clip-rule="evenodd" d="M39.1143 41.3875L35.0371 43.8095C34.9795 43.8397 34.9175 43.8599 34.8535 43.8692L34.9308 44.0188L39.4525 41.3178V41.258L39.3365 41.0586C39.3172 41.1981 39.2303 41.3177 39.1143 41.3875Z" fill="url(#paint4_linear_245_33213)"/>
<path fill-rule="evenodd" clip-rule="evenodd" d="M39.1143 41.3875L35.0371 43.8095C34.9795 43.8397 34.9175 43.8599 34.8535 43.8692L34.9308 44.0188L39.4525 41.3178V41.258L39.3365 41.0586C39.3172 41.1981 39.2303 41.3177 39.1143 41.3875Z" fill="url(#paint5_linear_245_33213)"/>
<defs>
<linearGradient id="paint0_linear_245_33213" x1="34.1635" y1="39.0952" x2="45.485" y2="33.1325" gradientUnits="userSpaceOnUse">
<stop offset="0.1376" stop-color="#41873F"/>
<stop offset="0.4032" stop-color="#54A044"/>
<stop offset="0.7136" stop-color="#66B848"/>
<stop offset="0.9081" stop-color="#6CC04A"/>
</linearGradient>
<linearGradient id="paint1_linear_245_33213" x1="30.9305" y1="32.3517" x2="38.4553" y2="32.3517" gradientUnits="userSpaceOnUse">
<stop offset="0.09192" stop-color="#6CC04A"/>
<stop offset="0.2864" stop-color="#66B848"/>
<stop offset="0.5968" stop-color="#54A044"/>
<stop offset="0.8624" stop-color="#41873F"/>
</linearGradient>
<linearGradient id="paint2_linear_245_33213" x1="30.0767" y1="38.5224" x2="39.4889" y2="38.5224" gradientUnits="userSpaceOnUse">
<stop offset="0.09192" stop-color="#6CC04A"/>
<stop offset="0.2864" stop-color="#66B848"/>
<stop offset="0.5968" stop-color="#54A044"/>
<stop offset="0.8624" stop-color="#41873F"/>
</linearGradient>
<linearGradient id="paint3_linear_245_33213" x1="36.5879" y1="41.2831" x2="39.4692" y2="41.2831" gradientUnits="userSpaceOnUse">
<stop offset="0.09192" stop-color="#6CC04A"/>
<stop offset="0.2864" stop-color="#66B848"/>
<stop offset="0.5968" stop-color="#54A044"/>
<stop offset="0.8624" stop-color="#41873F"/>
</linearGradient>
<linearGradient id="paint4_linear_245_33213" x1="30.077" y1="42.5468" x2="39.4891" y2="42.5468" gradientUnits="userSpaceOnUse">
<stop offset="0.09192" stop-color="#6CC04A"/>
<stop offset="0.2864" stop-color="#66B848"/>
<stop offset="0.5968" stop-color="#54A044"/>
<stop offset="0.8624" stop-color="#41873F"/>
</linearGradient>
<linearGradient id="paint5_linear_245_33213" x1="40.8604" y1="34.8106" x2="38.3286" y2="47.6708" gradientUnits="userSpaceOnUse">
<stop stop-color="#41873F"/>
<stop offset="0.3288" stop-color="#418B3D"/>
<stop offset="0.6352" stop-color="#419637"/>
<stop offset="0.9319" stop-color="#3FA92D"/>
<stop offset="1" stop-color="#3FAE2A"/>
</linearGradient>
</defs>
</svg>
