<svg width="80" height="80" viewBox="0 0 80 80" fill="none" xmlns="http://www.w3.org/2000/svg">
<g clip-path="url(#clip0_245_33202)">
<path d="M35.7399 48.7375C35.7399 48.7375 34.5026 49.4473 36.6205 49.6875C39.1863 49.9762 40.4976 49.9349 43.3252 49.4069C43.3252 49.4069 44.0687 49.8667 45.1068 50.2651C38.7682 52.945 30.7612 50.1098 35.7399 48.7375ZM34.9653 45.2402C34.9653 45.2402 33.5776 46.2537 35.6971 46.4699C38.4379 46.7489 40.6024 46.7717 44.3479 46.0602C44.3479 46.0602 44.866 46.5783 45.6806 46.8617C38.0168 49.0725 29.4808 47.036 34.9653 45.2402Z" fill="#5382A1"/>
<path d="M41.495 39.3078C43.0569 41.0817 41.0847 42.678 41.0847 42.678C41.0847 42.678 45.0504 40.6584 43.2291 38.1293C41.5281 35.7709 40.2236 34.5989 47.2855 30.5586C47.2855 30.5586 36.2007 33.2897 41.495 39.3077" fill="#E76F00"/>
<path d="M49.8783 51.3242C49.8783 51.3242 50.7939 52.0684 48.8698 52.6442C45.2111 53.7377 33.6418 54.0678 30.4278 52.6878C29.2726 52.1921 31.4391 51.504 32.1206 51.3595C32.8313 51.2075 33.2375 51.2358 33.2375 51.2358C31.9527 50.3429 24.9329 52.9891 29.6718 53.7468C42.5956 55.8144 53.2305 52.8159 49.8783 51.3242ZM36.3348 41.6167C36.3348 41.6167 30.45 42.9957 34.2509 43.4963C35.8557 43.7083 39.0549 43.6604 42.0349 43.414C44.4704 43.2114 46.9158 42.7804 46.9158 42.7804C46.9158 42.7804 46.0571 43.1433 45.4358 43.5618C39.4598 45.1123 27.9153 44.391 31.2388 42.805C34.0495 41.4647 36.3348 41.6167 36.3348 41.6167M46.8916 47.4379C52.9666 44.3238 50.1577 41.3311 48.1972 41.7343C47.7167 41.8329 47.5024 41.9184 47.5024 41.9184C47.5024 41.9184 47.6809 41.6428 48.0215 41.5235C51.9 40.1783 54.8828 45.4908 46.7695 47.5949C46.7695 47.595 46.8635 47.5121 46.8916 47.4379Z" fill="#5382A1"/>
<path d="M43.2289 24.0343C43.2289 24.0343 46.5934 27.3545 40.038 32.4598C34.7813 36.5552 38.8393 38.8903 40.0358 41.5582C36.9674 38.8272 34.7155 36.4229 36.2263 34.1853C38.4436 30.9005 44.5864 29.308 43.2289 24.0342" fill="#E76F00"/>
<path d="M36.9312 55.8764C42.7624 56.2447 51.7167 55.6721 51.9288 52.9502C51.9288 52.9502 51.5212 53.9821 47.1097 54.8016C42.1327 55.7255 35.9943 55.6177 32.3535 55.0255C32.3536 55.0255 33.0988 55.634 36.9313 55.8764" fill="#5382A1"/>
</g>
<defs>
<clipPath id="clip0_245_33202">
<rect width="24" height="32" fill="white" transform="translate(28 24)"/>
</clipPath>
</defs>
</svg>
