<svg width="80" height="80" viewBox="0 0 80 80" fill="none" xmlns="http://www.w3.org/2000/svg">
<path d="M39.5 42.6641C41.2259 42.6641 42.625 41.265 42.625 39.5391C42.625 37.8132 41.2259 36.4141 39.5 36.4141C37.7741 36.4141 36.375 37.8132 36.375 39.5391C36.375 41.265 37.7741 42.6641 39.5 42.6641Z" fill="#00D8FF"/>
<path d="M39.5 46.7039C35.7439 46.7947 31.9972 46.2884 28.4 45.2039C26.7383 44.6771 25.1884 43.8473 23.8288 42.7564C23.3099 42.3837 22.8778 41.9032 22.5622 41.3478C22.2465 40.7924 22.0547 40.1753 22 39.5389C22 37.4726 24.27 35.4476 28.0725 34.1226C31.7659 32.9486 35.6249 32.3796 39.5 32.4376C43.3234 32.3842 47.1307 32.9429 50.7775 34.0926C52.3779 34.6028 53.8752 35.3925 55.2 36.4251C55.71 36.7804 56.1356 37.2435 56.4466 37.7816C56.7577 38.3197 56.9466 38.9196 57 39.5389C57 41.6864 54.4625 43.8626 50.375 45.2151C46.8474 46.2643 43.1798 46.7664 39.5 46.7039ZM39.5 33.9326C35.7926 33.8831 32.101 34.424 28.5637 35.5351C25.0638 36.7564 23.495 38.4264 23.495 39.5351C23.495 40.6951 25.1813 42.5189 28.8837 43.7851C32.3251 44.8174 35.9083 45.298 39.5 45.2089C43.0205 45.2718 46.5299 44.7955 49.9062 43.7964C53.75 42.5226 55.5 40.6964 55.5 39.5389C55.4369 39.1417 55.2922 38.7618 55.0749 38.4234C54.8576 38.085 54.5724 37.7953 54.2375 37.5726C53.0522 36.6566 51.7146 35.9567 50.2862 35.5051C46.7975 34.4098 43.1562 33.879 39.5 33.9326Z" fill="#00D8FF"/>
<path d="M32.3995 55.1268C31.8164 55.1402 31.2401 54.9987 30.7295 54.7168C28.9395 53.6843 28.3195 50.7068 29.0708 46.7506C29.8991 42.9645 31.3343 39.3372 33.3208 36.0093C35.1842 32.6707 37.5697 29.6517 40.387 27.0668C41.6285 25.9352 43.0606 25.0325 44.617 24.4006C45.18 24.1368 45.7941 24 46.4158 24C47.0375 24 47.6516 24.1368 48.2145 24.4006C50.0758 25.4731 50.692 28.7581 49.8233 32.9743C48.9694 36.555 47.5715 39.9836 45.6783 43.1406C43.8804 46.4398 41.57 49.4325 38.8333 52.0068C37.5467 53.1828 36.0537 54.1105 34.4295 54.7431C33.7793 54.9844 33.093 55.1142 32.3995 55.1268ZM34.6158 36.7518C32.7209 39.9385 31.3453 43.4065 30.5408 47.0256C29.8495 50.6693 30.5133 52.8606 31.4783 53.4181C32.4783 53.9968 34.9058 53.4481 37.8533 50.8731C40.4658 48.4068 42.6711 45.5421 44.387 42.3856C46.2007 39.3675 47.5416 36.0895 48.3633 32.6656C49.1808 28.6968 48.4745 26.2668 47.472 25.6893C47.0963 25.5454 46.6948 25.4809 46.2928 25.5001C45.8909 25.5192 45.4974 25.6215 45.137 25.8006C43.7516 26.3723 42.4779 27.1839 41.3745 28.1981C38.6829 30.6741 36.4041 33.5643 34.6245 36.7593L34.6158 36.7518Z" fill="#00D8FF"/>
<path d="M46.597 55.1427C44.9033 55.1427 42.752 54.1177 40.512 52.1915C37.6454 49.5831 35.2195 46.5282 33.3283 43.1452C31.3667 39.8632 29.9429 36.2884 29.1108 32.5565C28.7499 30.9146 28.6831 29.2217 28.9133 27.5565C28.9665 26.9387 29.1546 26.3402 29.4643 25.8031C29.774 25.2659 30.1978 24.8033 30.7058 24.4477C32.5645 23.3715 35.7183 24.4777 38.937 27.3352C41.6128 29.863 43.885 32.7861 45.6745 36.0027C47.6349 39.2082 49.0737 42.7046 49.937 46.3615C50.3134 48.0636 50.3715 49.8207 50.1083 51.544C50.0457 52.1795 49.8463 52.7939 49.524 53.3452C49.2017 53.8965 48.7639 54.3715 48.2408 54.7377C47.7385 55.0161 47.1712 55.1559 46.597 55.1427ZM34.622 42.3927C36.4363 45.6258 38.7536 48.5494 41.487 51.054C44.2983 53.4727 46.5283 53.9927 47.487 53.429C48.487 52.8477 49.2245 50.4752 48.4645 46.6365C47.6319 43.1451 46.2519 39.8076 44.3758 36.7477C42.6681 33.6691 40.4992 30.8701 37.9445 28.4477C34.9145 25.7577 32.457 25.1565 31.4558 25.7365C31.1437 25.9901 30.8876 26.3056 30.7037 26.6632C30.5197 27.0208 30.4119 27.4126 30.387 27.814C30.1883 29.2991 30.253 30.8076 30.5783 32.2702C31.3787 35.8392 32.7442 39.2572 34.6233 42.3952L34.622 42.3927Z" fill="#00D8FF"/>
</svg>
