<svg width="80" height="80" viewBox="0 0 80 80" fill="none" xmlns="http://www.w3.org/2000/svg">
<path d="M31.8992 43.9927L33.1148 47.937C33.388 48.8325 33.5019 49.4577 33.4563 49.814C34.1211 48.0334 34.5856 46.0929 34.8499 43.9927H36.3116C35.6831 47.4119 34.8541 49.8966 33.8252 51.4466C33.0234 52.641 32.1452 53.2382 31.1888 53.2382C30.9338 53.2382 30.6194 53.1612 30.2463 53.0082V52.184C30.4286 52.2107 30.6424 52.225 30.8884 52.225C31.3345 52.225 31.6941 52.1013 31.9677 51.8545C32.2953 51.5538 32.4593 51.2159 32.4593 50.8412C32.4593 50.5855 32.3314 50.0605 32.0768 49.2665L30.383 43.9927H31.8991H31.8992ZM22.5955 41.5684L24.8221 48.3618H24.8359L27.0761 41.5684H28.9064C29.3072 44.9374 29.5439 48.02 29.6166 50.8141H28.0734C28.0191 48.2022 27.8688 45.7461 27.6228 43.4454H27.6094L25.2595 50.8141H24.0844L21.7488 43.4454H21.735C21.5617 45.6549 21.4527 48.111 21.4072 50.8141H20C20.0909 47.5266 20.3185 44.445 20.6827 41.5684H22.5956H22.5955Z" fill="#00758F"/>
<path d="M47.5384 41.4298C49.9335 41.4298 51.1311 42.9599 51.1311 46.0187C51.1311 47.6809 50.7709 48.9365 50.0513 49.7847C49.9216 49.9397 49.7783 50.0736 49.6273 50.1977L51.3223 51.0357L51.3206 51.0356L50.7188 52.0748L48.5116 50.787C48.1457 50.8953 47.7431 50.9495 47.3045 50.9495C46.1284 50.9495 45.25 50.6067 44.6692 49.9221C44.0317 49.1648 43.7131 47.9725 43.7131 46.3473C43.7131 44.6945 44.0727 43.4437 44.7925 42.5945C45.4481 41.8176 46.3636 41.4297 47.5384 41.4297V41.4298ZM40.2041 41.4432C41.0601 41.4432 41.8384 41.6723 42.5395 42.1287L42.1834 42.9223C41.5835 42.6673 40.992 42.5392 40.4088 42.5392C39.9355 42.5392 39.5708 42.6531 39.3166 42.8823C39.0609 43.1095 38.9028 43.4019 38.9028 43.7583C38.9028 44.3059 39.293 44.7809 40.0134 45.1821C40.2494 45.3111 40.4846 45.4416 40.7189 45.5736L40.7727 45.6038L40.7996 45.619L40.8534 45.6492L40.8803 45.6644L40.9341 45.6947C41.4794 46.0021 41.9925 46.2955 41.9925 46.2955C42.7128 46.8069 43.0719 47.352 43.0719 48.2499C43.0719 49.0341 42.7845 49.6777 42.2117 50.1814C41.6385 50.6828 40.8684 50.9342 39.9041 50.9342C39.0021 50.9342 38.128 50.6448 37.2812 50.0709L37.6773 49.2767C38.406 49.642 39.0654 49.8244 39.6575 49.8244C40.2128 49.8244 40.6475 49.7004 40.962 49.4555C41.2758 49.2089 41.4638 48.8649 41.4638 48.4287C41.4638 47.8798 41.082 47.4105 40.3814 47.0168C40.1621 46.8956 39.9435 46.7733 39.7255 46.6498L39.6719 46.6195C39.5733 46.5637 39.474 46.5073 39.3767 46.4521L39.324 46.4221C38.8509 46.153 38.442 45.918 38.442 45.918C37.7416 45.4057 37.3905 44.8561 37.3905 43.9505C37.3905 43.2015 37.6523 42.5961 38.1753 42.1355C38.6995 41.674 39.3759 41.4432 40.2041 41.4432ZM53.9459 41.567V49.6754H56.8551V50.8127H52.4704V41.567H53.9459ZM58.4716 49.6789V49.8711H58.1518V50.8117H57.9073V49.8711H57.575V49.6789H58.4717H58.4716ZM59.0623 49.6789L59.3694 50.4511L59.6515 49.6789H59.9981V50.8117H59.7677V49.9496L59.4466 50.8117H59.2804L58.9587 49.9496H58.9464V50.8117H58.7284V49.6789H59.0623H59.0623ZM47.3878 42.5668C45.9764 42.5668 45.2703 43.7316 45.2703 46.0598C45.2703 47.3934 45.4574 48.3604 45.8309 48.9631C46.1769 49.5209 46.7187 49.7993 47.4564 49.7993C48.8678 49.7993 49.5738 48.6254 49.5738 46.2787C49.5738 44.9637 49.3867 44.005 49.0137 43.402C48.6673 42.8454 48.1258 42.5668 47.3879 42.5668H47.3878Z" fill="#F29111"/>
<path d="M43.6895 26.5729C44.1577 25.4224 45.7948 26.2937 46.4301 26.6956C46.5858 26.7961 46.7644 27.0085 46.9429 27.087C47.2214 27.098 47.4997 27.1198 47.7787 27.1314C48.302 27.2544 48.7921 27.3548 49.2045 27.5897C51.1207 28.7182 52.3681 29.8682 53.5162 31.7677C53.7615 32.1701 53.8841 32.6055 54.0845 33.0409C54.3626 33.6898 54.6751 34.3711 54.9979 34.9848C55.1424 35.2757 55.2542 35.5992 55.4549 35.8449C55.5333 35.9573 55.7559 35.9904 55.8889 36.0575C56.2567 36.2479 56.7024 36.3924 57.0483 36.6159C57.6943 37.0187 58.3189 37.4987 58.8867 37.9901C59.0984 38.1798 59.2426 38.4483 59.4442 38.6489V38.7502C59.2652 38.8051 59.0869 38.8613 58.9084 38.9064C58.5185 39.0066 58.1731 38.9839 57.7948 39.0841C57.561 39.152 57.2708 39.2414 57.0256 39.2641L57.0483 39.287C57.1925 39.6991 57.9728 40.0342 58.3297 40.2807C58.7631 40.5935 59.1648 40.9729 59.4881 41.4086C59.5997 41.5198 59.7113 41.6209 59.8224 41.7318C59.9001 41.8441 59.922 41.9895 60.0006 42.0896V42.1235C59.9135 42.0928 59.851 42.0342 59.7917 41.973L59.7563 41.936C59.7209 41.8993 59.6852 41.8632 59.6445 41.8334C59.3985 41.6655 59.1543 41.4645 58.9084 41.3084C58.4856 41.0401 57.9952 40.8844 57.561 40.6151C57.3156 40.4588 57.0816 40.2807 56.8476 40.1018C56.6355 39.945 56.4019 39.6439 56.2686 39.4205C56.1901 39.297 56.1793 39.152 56.0896 39.0627C56.1056 38.9135 56.2423 38.8692 56.3802 38.8328L56.4119 38.8245C56.4595 38.8121 56.506 38.7998 56.5467 38.7834C57.1259 38.5375 57.8164 38.4483 58.7081 38.4706C58.6745 38.2467 58.1174 37.9677 57.9395 37.8337C57.5824 37.5763 57.2044 37.3078 56.8256 37.0736C56.6249 36.9509 56.2791 36.8614 56.0567 36.7612C55.7559 36.6382 55.0872 36.5153 54.9205 36.2811C54.6373 35.9119 54.4338 35.4715 54.2363 35.0266L54.1826 34.9052C54.1647 34.8648 54.1467 34.8243 54.1287 34.7839C53.8952 34.2482 53.6052 33.6897 53.3713 33.1412C53.2489 32.8736 53.1927 32.6388 53.0588 32.3821C52.2457 30.8073 51.0424 29.4888 49.5834 28.5615C49.1039 28.2598 48.5693 27.9806 47.9792 27.7908C47.6447 27.6898 47.2433 27.7456 46.887 27.6681H46.6524C46.4523 27.6117 46.2852 27.3995 46.129 27.2877C45.7841 27.0534 45.4386 26.8962 45.0261 26.7291C44.8816 26.662 44.4688 26.5059 44.3248 26.6288C44.2356 26.6513 44.1903 26.6849 44.1684 26.7745C44.0796 26.9081 44.1577 27.1093 44.2129 27.2325C44.3802 27.5895 44.614 27.8017 44.8262 28.1034C45.0149 28.371 45.2494 28.6727 45.3832 28.9637C45.672 29.5891 45.8064 30.282 46.074 30.9073C46.1732 31.1424 46.3302 31.41 46.4746 31.6221C46.597 31.7905 46.8196 31.9122 46.887 32.1253C47.0212 32.3488 46.686 33.086 46.6085 33.3202C46.3182 34.2363 46.3745 35.5098 46.7087 36.304L46.7265 36.3459L46.7443 36.3883C46.8663 36.6791 46.997 36.9923 47.3214 37.0737C47.3438 37.0515 47.3214 37.0631 47.3657 37.0515C47.4442 36.4368 47.4663 35.8448 47.6782 35.3639C47.8006 35.0632 48.0451 34.8506 48.2127 34.6052C48.3244 34.672 48.3244 34.8737 48.391 35.0071C48.536 35.3532 48.6917 35.7327 48.8704 36.0798C49.2373 36.7946 49.6501 37.4877 50.1178 38.113C50.2745 38.3363 50.4967 38.5822 50.6972 38.7834C50.7865 38.8613 50.8865 38.9063 50.9536 39.0065H50.9755V39.0402C50.6413 38.917 50.4294 38.5713 50.1628 38.3694C49.661 37.9899 49.0599 37.4201 48.714 36.8733C48.5693 36.5594 48.4129 36.2585 48.257 35.9462V35.9236C48.1903 36.0128 48.2127 36.1014 48.1793 36.2364C48.0346 36.7946 48.146 37.4314 47.6447 37.6322C47.0764 37.8673 46.6525 37.2527 46.4746 36.9734C45.9062 36.0464 45.7505 34.4825 46.1513 33.2201C46.2404 32.9406 46.2525 32.6055 46.408 32.3823C46.3744 32.1806 46.2189 32.1255 46.129 32.0019C45.9731 31.7906 45.8395 31.5445 45.7174 31.3099C45.4829 30.8516 45.316 30.3041 45.138 29.8126C45.0597 29.6119 45.0373 29.4104 44.9592 29.2204C44.8261 28.9304 44.5807 28.6395 44.3914 28.3829C44.1351 28.0141 43.3885 27.2995 43.6895 26.5729ZM47.3435 28.7616C47.3733 28.7914 47.4092 28.8175 47.4464 28.8432L47.4913 28.874C47.551 28.9154 47.6089 28.959 47.6444 29.0184C47.7006 29.097 47.7111 29.1745 47.7785 29.2533C47.7785 29.5218 47.7006 29.7003 47.5435 29.8116C47.5435 29.8116 47.5328 29.8233 47.5218 29.8342C47.4327 29.6552 47.3547 29.4772 47.265 29.2984C47.1545 29.1423 46.9984 29.0184 46.9084 28.8401H46.8867V28.8177C47.0212 28.7845 47.1545 28.7616 47.3435 28.7616Z" fill="#00758F"/>
</svg>
