<svg
  width="310"
  height="446"
  viewBox="0 0 310 446"
  fill="none"
  xmlns="http://www.w3.org/2000/svg"
>
<path
    d="M276.939 79.2411V65.2417C276.939 64.5216 276.749 63.8142 276.389 63.1906C276.029 62.567 275.512 62.0491 274.888 61.689L262.767 54.6894C262.143 54.3294 261.436 54.1399 260.715 54.1399C259.995 54.1399 259.288 54.3294 258.664 54.6894L246.535 61.6897C245.911 62.0497 245.393 62.5676 245.033 63.1913C244.673 63.8151 244.483 64.5227 244.483 65.2429V79.2403C244.483 79.9606 244.673 80.6682 245.033 81.2919C245.393 81.9156 245.911 82.4335 246.535 82.7935L258.664 89.7938C259.288 90.1539 259.995 90.3434 260.715 90.3434C261.436 90.3434 262.143 90.1539 262.767 89.7938L274.888 82.7943C275.512 82.4341 276.03 81.9161 276.39 81.2924C276.75 80.6687 276.939 79.9612 276.939 79.2411V79.2411Z"
    fill="#6973AA"
  />
<path
    d="M257.658 75.8325H253.266L257.222 69.0601L261.629 66.8215L257.658 75.8325Z"
    fill="white"
  />
<path
    d="M268.16 77.6649H256.94V76.7919H263.177L260.009 72.7368L262.276 67.5837L268.16 77.6649Z"
    fill="white"
  />
<path
    d="M173.159 233.976V214.167C173.159 213.054 172.866 211.961 172.31 210.998C171.754 210.035 170.953 209.235 169.99 208.679L152.826 198.773C151.862 198.217 150.77 197.924 149.658 197.924C148.545 197.924 147.453 198.217 146.489 198.773L129.337 208.678C128.374 209.235 127.574 210.034 127.018 210.998C126.462 211.961 126.169 213.054 126.169 214.166V233.977C126.169 235.089 126.462 236.181 127.018 237.145C127.574 238.108 128.374 238.908 129.337 239.464L146.49 249.369C147.454 249.925 148.546 250.218 149.658 250.218C150.771 250.218 151.863 249.925 152.827 249.369L169.991 239.463C170.954 238.907 171.754 238.107 172.31 237.144C172.866 236.181 173.159 235.088 173.159 233.976V233.976Z"
    fill="#FBBB5E"
  />
<path
    d="M144.171 223.361C144.164 223.61 144.197 223.858 144.27 224.096C144.35 224.294 144.429 224.492 144.529 224.691C144.569 224.749 144.59 224.819 144.588 224.889C144.582 224.941 144.564 224.991 144.537 225.036C144.51 225.08 144.473 225.118 144.43 225.147L143.914 225.505C143.85 225.551 143.774 225.579 143.695 225.584C143.647 225.583 143.598 225.573 143.554 225.552C143.509 225.532 143.47 225.502 143.437 225.466C143.321 225.347 143.221 225.214 143.14 225.069C143.061 224.93 142.981 224.771 142.882 224.573C142.588 224.936 142.216 225.229 141.793 225.428C141.371 225.627 140.908 225.728 140.441 225.724C140.137 225.742 139.833 225.699 139.546 225.597C139.26 225.494 138.997 225.335 138.774 225.128C138.353 224.67 138.132 224.064 138.158 223.442C138.184 222.821 138.455 222.235 138.912 221.814C139.491 221.355 140.218 221.122 140.956 221.159C141.254 221.159 141.553 221.179 141.849 221.218C142.169 221.26 142.487 221.32 142.801 221.397V220.782C142.801 220.147 142.662 219.71 142.404 219.452C142.146 219.194 141.69 219.075 141.054 219.075C140.754 219.077 140.455 219.111 140.161 219.174C139.857 219.246 139.559 219.339 139.268 219.452C139.172 219.494 139.072 219.527 138.97 219.551C138.926 219.569 138.879 219.576 138.831 219.571C138.712 219.571 138.653 219.492 138.653 219.313V218.896C138.653 218.794 138.674 218.693 138.712 218.599C138.773 218.518 138.856 218.456 138.95 218.42C139.286 218.256 139.639 218.13 140.002 218.043C140.431 217.939 140.871 217.886 141.312 217.884C142.304 217.884 143.039 218.103 143.495 218.559C143.951 219.016 144.189 219.69 144.189 220.603L144.17 223.362L144.171 223.361ZM140.778 224.631C141.069 224.629 141.358 224.575 141.631 224.473C141.936 224.363 142.208 224.179 142.424 223.937C142.562 223.786 142.658 223.601 142.702 223.401C142.759 223.161 142.785 222.914 142.781 222.667V222.31C142.523 222.25 142.265 222.211 142.007 222.171C141.751 222.131 141.492 222.111 141.233 222.111C140.79 222.074 140.347 222.194 139.983 222.449C139.728 222.632 139.557 222.909 139.506 223.218C139.455 223.528 139.53 223.845 139.713 224.099L139.725 224.116C139.843 224.284 140.001 224.419 140.185 224.509C140.369 224.599 140.572 224.641 140.777 224.632L140.778 224.631ZM147.466 225.524C147.354 225.538 147.241 225.51 147.149 225.445C147.071 225.351 147.01 225.244 146.97 225.128L145.005 218.679C144.967 218.569 144.941 218.456 144.926 218.341C144.918 218.297 144.928 218.252 144.953 218.215C144.978 218.179 145.017 218.153 145.061 218.145C145.069 218.144 145.077 218.143 145.085 218.143H145.938C146.05 218.126 146.164 218.154 146.255 218.222C146.334 218.312 146.389 218.421 146.413 218.539L147.822 224.056L149.132 218.539C149.152 218.42 149.207 218.309 149.29 218.222C149.39 218.156 149.509 218.128 149.628 218.143H150.303C150.421 218.128 150.541 218.156 150.64 218.222C150.724 218.309 150.779 218.42 150.799 218.539L152.109 224.115L153.557 218.539C153.577 218.42 153.633 218.309 153.716 218.222C153.809 218.159 153.921 218.131 154.033 218.143H154.807C154.83 218.139 154.855 218.139 154.878 218.145C154.901 218.151 154.923 218.162 154.942 218.177C154.961 218.192 154.976 218.211 154.987 218.232C154.998 218.254 155.004 218.277 155.005 218.301V218.361C155.008 218.408 155.002 218.455 154.985 218.5C154.966 218.579 154.946 218.638 154.926 218.698L152.923 225.147C152.904 225.271 152.841 225.384 152.745 225.464C152.653 225.529 152.54 225.557 152.428 225.543H151.713C151.595 225.558 151.475 225.53 151.376 225.464C151.292 225.369 151.237 225.252 151.217 225.127L149.926 219.749L148.635 225.108C148.612 225.232 148.557 225.348 148.477 225.445C148.377 225.511 148.258 225.539 148.139 225.524H147.466ZM158.183 225.743C157.748 225.739 157.315 225.686 156.893 225.584C156.559 225.523 156.238 225.409 155.94 225.247C155.836 225.189 155.748 225.108 155.682 225.009C155.653 224.932 155.633 224.853 155.622 224.771V224.355C155.622 224.176 155.682 224.096 155.821 224.096C155.875 224.093 155.928 224.1 155.979 224.116C156.044 224.146 156.11 224.172 156.178 224.195C156.472 224.324 156.778 224.424 157.091 224.493C157.418 224.557 157.75 224.59 158.083 224.593C158.504 224.612 158.923 224.516 159.294 224.315C159.429 224.232 159.54 224.115 159.617 223.976C159.693 223.837 159.732 223.68 159.73 223.522C159.734 223.309 159.656 223.103 159.512 222.946C159.268 222.743 158.984 222.594 158.679 222.509L157.468 222.132C156.946 221.994 156.481 221.696 156.137 221.279C155.863 220.935 155.716 220.508 155.721 220.068C155.724 219.745 155.799 219.427 155.939 219.135C156.082 218.867 156.286 218.636 156.534 218.46C156.797 218.264 157.093 218.116 157.407 218.024C157.749 217.927 158.104 217.881 158.459 217.885C158.645 217.878 158.832 217.891 159.015 217.924C159.359 217.969 159.699 218.049 160.027 218.162C160.153 218.198 160.274 218.251 160.385 218.32C160.483 218.369 160.571 218.436 160.643 218.519C160.699 218.601 160.726 218.698 160.722 218.797V219.195C160.722 219.374 160.662 219.453 160.523 219.453C160.412 219.441 160.305 219.407 160.207 219.354C159.701 219.129 159.152 219.021 158.599 219.037C158.214 219.016 157.83 219.097 157.487 219.274C157.361 219.348 157.256 219.456 157.186 219.586C157.116 219.715 157.083 219.861 157.09 220.008C157.088 220.12 157.11 220.231 157.155 220.334C157.199 220.437 157.265 220.528 157.349 220.603C157.615 220.821 157.927 220.977 158.261 221.059L159.452 221.436C159.952 221.566 160.401 221.842 160.742 222.229C161.001 222.563 161.135 222.978 161.119 223.4C161.118 223.736 161.043 224.068 160.901 224.373C160.753 224.66 160.543 224.911 160.286 225.107C160.008 225.324 159.691 225.485 159.353 225.583C158.971 225.687 158.577 225.741 158.182 225.742L158.183 225.743Z"
    fill="white"
  />
<path
    d="M159.75 229.791C157.011 231.815 153.022 232.887 149.609 232.887C145.037 232.908 140.622 231.224 137.225 228.164C136.967 227.926 137.206 227.608 137.503 227.806C140.797 229.705 144.485 230.815 148.279 231.049C152.074 231.284 155.871 230.636 159.373 229.157C159.809 228.958 160.205 229.473 159.75 229.791ZM160.901 228.501C160.543 228.046 158.579 228.283 157.686 228.402C157.428 228.442 157.369 228.204 157.626 228.025C159.195 226.934 161.774 227.251 162.072 227.608C162.369 227.985 161.992 230.565 160.524 231.796C160.305 231.994 160.087 231.895 160.186 231.637C160.503 230.804 161.258 228.938 160.901 228.501L160.901 228.501Z"
    fill="white"
  />
<path
    d="M256.058 160.741V118.716C256.058 116.119 255.375 113.568 254.076 111.319C252.777 109.07 250.909 107.202 248.66 105.904L212.244 84.8884C209.995 83.5903 207.445 82.907 204.849 82.907C202.253 82.907 199.703 83.5903 197.455 84.8884L161.063 105.904C158.816 107.202 156.949 109.069 155.651 111.317C154.353 113.565 153.67 116.115 153.67 118.711V160.741C153.67 163.338 154.353 165.888 155.651 168.137C156.949 170.385 158.816 172.253 161.064 173.551L197.453 194.564C199.702 195.863 202.252 196.546 204.848 196.546C207.444 196.546 209.994 195.863 212.243 194.564L248.659 173.549C250.908 172.251 252.776 170.385 254.074 168.136C255.373 165.888 256.057 163.338 256.058 160.741V160.741Z"
    fill="#0E7178"
  />
<path
    fill-rule="evenodd"
    clip-rule="evenodd"
    d="M177.661 143.821H179.661V135.879L182.814 142.803C183.05 143.288 183.468 143.66 183.977 143.836C184.487 144.012 185.045 143.979 185.53 143.743L185.57 143.723C185.968 143.523 186.29 143.201 186.49 142.803L189.607 135.879V143.821H191.642V135.879C191.678 135.577 191.601 135.271 191.425 135.023C191.249 134.774 190.987 134.6 190.69 134.534C189.148 134.075 188.129 134.468 187.669 135.52L184.587 142.378L181.629 135.52C181.17 134.47 180.152 134.076 178.609 134.534C178.311 134.6 178.05 134.774 177.874 135.023C177.699 135.272 177.622 135.577 177.659 135.879V143.821H177.661Z"
    fill="white"
  />
<path
    fill-rule="evenodd"
    clip-rule="evenodd"
    d="M193.282 137.355H195.316V141.724C195.316 141.987 195.383 142.514 196.499 142.545H200.897V137.327H202.932V144.481C202.932 146.255 200.766 146.615 199.747 146.65H193.379V145.303H199.747C201.062 145.172 200.896 144.515 200.896 144.287V143.762H196.633C194.631 143.762 193.346 142.875 193.346 141.859C193.281 141.761 193.346 137.395 193.281 137.368L193.282 137.355Z"
    fill="white"
  />
<path
    fill-rule="evenodd"
    clip-rule="evenodd"
    d="M204.44 143.821H210.247C210.88 143.823 211.507 143.689 212.085 143.427C212.447 143.322 212.767 143.108 213.002 142.814C213.238 142.52 213.376 142.16 213.399 141.784V140.305C213.399 139.747 212.906 139.189 211.954 138.826C211.407 138.63 210.83 138.53 210.249 138.53H207.82C206.999 138.53 206.605 138.267 206.505 137.742C206.505 137.676 206.474 137.61 206.505 137.544V136.459C206.604 136.031 206.834 135.934 207.555 135.867H213.495V134.528H207.85C207.297 134.5 206.743 134.555 206.206 134.692C205.022 135.053 204.498 135.644 204.498 136.694V137.877C204.498 138.795 205.516 139.553 207.255 139.748H210.175C210.801 139.814 211.096 139.913 211.261 140.143C211.361 140.237 211.42 140.366 211.425 140.503V141.686C211.392 141.874 211.3 142.046 211.163 142.179C210.923 142.373 210.618 142.467 210.31 142.442H204.532L204.434 143.819L204.44 143.821Z"
    fill="white"
  />
<path
    fill-rule="evenodd"
    clip-rule="evenodd"
    d="M225.97 141.49C225.97 142.867 227.02 143.623 229.086 143.791C229.283 143.791 229.48 143.824 229.677 143.824H234.927V142.479H229.643C228.462 142.479 228.035 142.183 228.035 141.462V134.503H226.001V141.495L225.97 141.49Z"
    fill="white"
  />
<path
    fill-rule="evenodd"
    clip-rule="evenodd"
    d="M214.681 141.557V136.766C214.681 135.551 215.533 134.794 217.241 134.566C217.438 134.566 217.602 134.534 217.765 134.534H221.606C221.792 134.528 221.979 134.539 222.163 134.566C223.837 134.796 224.691 135.552 224.691 136.766V141.557C224.739 141.957 224.647 142.362 224.432 142.703C224.216 143.044 223.89 143.3 223.507 143.428L225.479 145.232H223.149L221.541 143.789L219.933 143.888H217.767C217.367 143.882 216.97 143.827 216.584 143.724C215.336 143.329 214.713 142.674 214.68 141.558L214.681 141.557ZM216.881 141.458C216.881 141.524 216.913 141.588 216.913 141.655C217.011 142.213 217.538 142.508 218.357 142.508H220.196L218.52 140.998H220.851L222.326 142.343C222.458 142.281 222.574 142.189 222.665 142.075C222.756 141.961 222.821 141.828 222.853 141.686C222.853 141.62 222.884 141.555 222.853 141.489V136.699C222.755 136.173 222.228 135.879 221.441 135.879H218.42C217.536 135.879 216.941 136.273 216.941 136.897L216.877 141.458H216.881Z"
    fill="white"
  />
<path
    d="M362.464 119.815V91.1227C362.464 89.7456 362.102 88.3926 361.414 87.1999C360.725 86.0072 359.735 85.0168 358.542 84.3282L333.679 69.9795C332.487 69.2911 331.134 68.9287 329.758 68.9287C328.381 68.9287 327.028 69.2911 325.836 69.9795L300.989 84.3282C299.797 85.0166 298.807 86.0068 298.118 87.1991C297.43 88.3915 297.067 89.7441 297.067 91.1209V119.816C297.067 121.192 297.429 122.545 298.118 123.738C298.806 124.93 299.797 125.921 300.989 126.609L325.836 140.957C327.028 141.645 328.381 142.008 329.758 142.008C331.134 142.008 332.487 141.645 333.679 140.957L358.541 126.608C359.733 125.92 360.724 124.93 361.413 123.737C362.102 122.545 362.464 121.192 362.464 119.815V119.815Z"
    fill="#37679F"
  />
<g opacity="0.07" filter="url(#filter0_f_0_1)">
<rect
      x="375"
      y="146"
      width="154"
      height="229"
      transform="rotate(90 375 146)"
      fill="#1C55E9"
    />
</g>
<defs>
<filter
      id="filter0_f_0_1"
      x="0"
      y="0"
      width="521"
      height="446"
      filterUnits="userSpaceOnUse"
      color-interpolation-filters="sRGB"
    >
<feFlood flood-opacity="0" result="BackgroundImageFix" />
<feBlend
        mode="normal"
        in="SourceGraphic"
        in2="BackgroundImageFix"
        result="shape"
      />
<feGaussianBlur stdDeviation="73" result="effect1_foregroundBlur_0_1" />
</filter>
</defs>
</svg>
