<svg width="136" height="117" viewBox="0 0 136 117" fill="none" xmlns="http://www.w3.org/2000/svg">
<g clip-path="url(#clip0_353_1693)">
<path d="M106.378 99.8673C129.224 77.0217 129.224 39.9815 106.378 17.1358C83.5323 -5.70983 46.4922 -5.70983 23.6465 17.1358C0.800837 39.9815 0.800837 77.0217 23.6465 99.8673C46.4922 122.713 83.5323 122.713 106.378 99.8673Z" fill="#1C55E9" fill-opacity="0.12"/>
<path d="M114.426 69.0378L96.2505 76.2174C80.2543 87.2079 56.4785 85.3656 54.5362 80.0651L51.2623 71.117C50.3357 68.5625 50.4571 65.7452 51.6 63.2799C52.7429 60.8146 54.8145 58.9014 57.3628 57.9579L104.088 40.8248C106.643 39.8982 109.46 40.0196 111.925 41.1625C114.39 42.3054 116.304 44.377 117.247 46.9253L120.521 55.8735C121.448 58.428 121.328 61.2455 120.186 63.7115C119.044 66.1775 116.974 68.0921 114.426 69.0378Z" fill="#CA9B81"/>
<path d="M120.537 53.7996L117.263 44.8514C116.319 42.3032 114.406 40.2315 111.941 39.0886C109.476 37.9457 106.658 37.8243 104.104 38.7509L82.1544 46.8148L74.68 39.6194C74.0397 39.0037 73.1811 38.6673 72.2929 38.6841C71.4047 38.7009 70.5595 39.0694 69.9428 39.7089L66.6741 43.1039C66.0597 43.745 65.7241 44.6033 65.7409 45.491C65.7577 46.3788 66.1254 47.2238 66.7635 47.8412L70.2375 51.1836L57.3574 55.9209C54.8109 56.8667 52.7411 58.7801 51.5985 61.2447C50.456 63.7092 50.3332 66.5253 51.2569 69.0799L54.5309 78.0281C56.4731 83.3286 81.2701 85.234 99.2717 72.5592L114.442 67.0008C116.997 66.0543 119.074 64.1335 120.216 61.6593C121.358 59.185 121.474 56.3588 120.537 53.7996Z" fill="#F9BF97"/>
<path d="M80.528 48.2043H50.3516C48.6888 48.2043 47.3408 49.5523 47.3408 51.2151V55.5945C47.3408 57.2573 48.6888 58.6053 50.3516 58.6053H80.528C82.1908 58.6053 83.5388 57.2573 83.5388 55.5945V51.2151C83.5388 49.5523 82.1908 48.2043 80.528 48.2043Z" fill="#C49273"/>
<path d="M78.8489 57.7631H52.3096C50.6468 57.7631 49.2988 59.111 49.2988 60.7739V63.911C49.2988 65.5738 50.6468 66.9218 52.3096 66.9218H78.8489C80.5117 66.9218 81.8597 65.5738 81.8597 63.911V60.7739C81.8597 59.111 80.5117 57.7631 78.8489 57.7631Z" fill="#C49273"/>
<path d="M77.8751 66.1954H52.6465C50.9837 66.1954 49.6357 67.5434 49.6357 69.2062V73.6751C49.6357 75.3379 50.9837 76.6859 52.6465 76.6859H77.8751C79.5379 76.6859 80.8859 75.3379 80.8859 73.6751V69.2062C80.8859 67.5434 79.5379 66.1954 77.8751 66.1954Z" fill="#C49273"/>
<path d="M79.4805 48.1043H61.9369C62.3235 47.4286 62.4939 46.6508 62.4252 45.8754C62.3565 45.1 62.052 44.3642 61.5526 43.7671L60.0314 41.9669C59.3809 41.2017 58.4542 40.7247 57.4534 40.6399C56.4526 40.5551 55.4589 40.8694 54.6888 41.5142L45.9565 48.8833C45.7031 49.0959 45.48 49.342 45.2933 49.615L26.6758 50.0045C24.0636 50.068 21.5827 51.1626 19.775 53.0493C17.9672 54.9359 16.9795 57.4613 17.0276 60.0738L17.2539 70.3852C17.3174 72.9969 18.4122 75.4773 20.299 77.2842C22.1858 79.0911 24.7112 80.0777 27.3232 80.0282L60.2893 79.3176C62.7543 79.2646 65.1089 78.2856 66.8847 76.5753H76.8487C77.6464 76.5725 78.4106 76.2544 78.9746 75.6904C79.5387 75.1263 79.8567 74.3621 79.8595 73.5645V69.1115C79.8589 68.6445 79.7497 68.1841 79.5405 67.7666C79.3313 67.3491 79.0278 66.986 78.6541 66.706C79.2802 66.5234 79.8306 66.1434 80.2233 65.6227C80.6159 65.102 80.8299 64.4684 80.8333 63.8162V60.6581C80.8325 60.2456 80.7466 59.8377 80.5808 59.46C80.4151 59.0823 80.1731 58.7429 79.8701 58.4631C80.5967 58.3687 81.2642 58.0133 81.7484 57.4633C82.2325 56.9133 82.5003 56.2061 82.5019 55.4734V51.1151C82.5012 50.719 82.4225 50.327 82.2703 49.9613C82.1181 49.5956 81.8953 49.2635 81.6148 48.984C81.3342 48.7044 81.0013 48.4828 80.6351 48.3319C80.269 48.1809 79.8766 48.1036 79.4805 48.1043Z" fill="#FFB380"/>
<path d="M56.5552 83.6284L56.9265 72.5546C56.9822 70.8928 55.6801 69.5004 54.0182 69.4447L50.8829 69.3396C49.221 69.2838 47.8286 70.5859 47.7729 72.2478L47.4017 83.3215C47.346 84.9834 48.648 86.3758 50.3099 86.4315L53.4453 86.5366C55.1071 86.5923 56.4995 85.2902 56.5552 83.6284Z" fill="#CA9B81"/>
<path d="M65.5924 85.0785L65.9575 72.909C66.0074 71.2462 64.6999 69.8578 63.0371 69.8079L59.8999 69.7138C58.2371 69.6639 56.8487 70.9714 56.7988 72.6342L56.4337 84.8037C56.3838 86.4666 57.6914 87.855 59.3542 87.9049L62.4913 87.999C64.1541 88.0489 65.5426 86.7413 65.5924 85.0785Z" fill="#CA9B81"/>
<path d="M74.8182 83.2456L75.1841 71.0497C75.234 69.3869 73.9264 67.9985 72.2636 67.9486L68.7001 67.8417C67.0373 67.7918 65.6489 69.0994 65.599 70.7622L65.2331 82.958C65.1833 84.6208 66.4908 86.0093 68.1536 86.0591L71.7171 86.166C73.3799 86.2159 74.7683 84.9084 74.8182 83.2456Z" fill="#CA9B81"/>
<path d="M72.4749 69.1009L68.4272 68.9535C67.6302 68.9294 66.856 69.2212 66.2732 69.7655C65.6905 70.3097 65.3466 71.0623 65.3164 71.8591V72.4275C65.0597 71.9872 64.6959 71.6188 64.2588 71.3565C63.8218 71.0943 63.3255 70.9467 62.8162 70.9274L59.658 70.8221C58.9956 70.8009 58.3446 70.9981 57.8053 71.3834C57.266 71.7686 56.8683 72.3204 56.6735 72.9539C56.4862 72.3609 56.1201 71.8402 55.6254 71.4633C55.1307 71.0864 54.5316 70.8717 53.9101 70.8485L50.7519 70.7432C49.9523 70.7262 49.1787 71.027 48.6005 71.5795C48.0223 72.1321 47.6868 72.8913 47.6674 73.6908L47.2937 84.7444C47.2709 85.5419 47.564 86.3162 48.1091 86.8987C48.6542 87.4813 49.4073 87.825 50.2045 87.8552L53.3627 87.9605C53.9455 87.976 54.5204 87.8234 55.0188 87.521C55.5172 87.2186 55.918 86.7791 56.1735 86.2551C56.2395 86.9867 56.5698 87.6693 57.1027 88.175C57.6355 88.6807 58.3344 88.975 59.0685 89.0027L62.2266 89.108C63.024 89.1336 63.799 88.8422 64.3821 88.2976C64.9651 87.7531 65.3086 86.9997 65.3374 86.2025V85.6761C65.593 86.1174 65.9565 86.4866 66.3938 86.749C66.8312 87.0114 67.328 87.1584 67.8377 87.1762L71.8801 87.3131C72.678 87.3373 73.453 87.0447 74.0359 86.4993C74.6188 85.9539 74.9621 85.2 74.9909 84.4023L75.4015 72.2117C75.4148 71.815 75.3496 71.4196 75.2095 71.0481C75.0694 70.6767 74.8573 70.3367 74.5853 70.0476C74.3133 69.7584 73.9868 69.526 73.6246 69.3635C73.2625 69.201 72.8717 69.1118 72.4749 69.1009Z" fill="#FFC59C"/>
<path d="M13.2939 44.3462L9.33691 78.4415L36.5044 81.5945L40.4614 47.4992L13.2939 44.3462Z" fill="white"/>
<path d="M4.35229 41.2526L-0.000976562 78.7621L32.6355 82.5498L36.9888 45.0403L4.35229 41.2526Z" fill="#302E2A"/>
<path d="M83.934 43.9418L96.6499 77.934L123.73 67.8036L111.014 33.8115L83.934 43.9418Z" fill="white"/>
<path d="M86.8749 40.5357L100.863 77.9296L135.067 65.1343L121.079 27.7405L86.8749 40.5357Z" fill="#302E2A"/>
<path d="M92.8501 30.6238C91.9794 30.5407 91.1725 30.1306 90.592 29.4763C89.9161 28.7126 89.4069 27.8162 89.0971 26.8445C88.8866 26.276 88.7129 25.6865 88.5392 25.1023C88.5254 25.0492 88.4945 25.0022 88.4511 24.9686C88.4078 24.9351 88.3545 24.9169 88.2997 24.9169C88.2449 24.9169 88.1916 24.9351 88.1482 24.9686C88.1049 25.0022 88.0739 25.0492 88.0602 25.1023C87.7969 25.9359 87.4678 26.7473 87.0759 27.5288C86.7856 28.187 86.377 28.7865 85.8705 29.2974C85.8454 29.3138 85.8224 29.3332 85.8021 29.3553C85.2279 29.7389 84.5438 29.9238 83.8545 29.8816C83.5808 29.8816 83.5124 30.3501 83.7914 30.408C84.7523 30.6393 85.6332 31.1249 86.3417 31.814C87.0502 32.503 87.5601 33.3701 87.8181 34.3241C87.9772 34.8801 88.0535 35.4566 88.0444 36.0348C88.0438 36.0944 88.0648 36.1521 88.1034 36.1975C88.142 36.2429 88.1957 36.2728 88.2545 36.2817C88.3134 36.2907 88.3736 36.2781 88.4239 36.2463C88.4743 36.2145 88.5115 36.1655 88.5286 36.1085C89.134 34.3241 89.8393 32.3398 91.5184 31.4502C91.9273 31.2292 92.3853 31.1152 92.8501 31.1186C93.1659 31.1607 93.1659 30.6396 92.8501 30.6238Z" fill="#FFFDFA"/>
<path d="M47.4251 93.3978C46.5531 93.3149 45.7456 92.9026 45.167 92.2451C44.5 91.4896 43.9964 90.6043 43.6879 89.6449C43.4773 89.0711 43.3036 88.4869 43.1247 87.9026C43.1132 87.8483 43.0834 87.7996 43.0402 87.7647C42.9971 87.7298 42.9433 87.7107 42.8878 87.7107C42.8323 87.7107 42.7785 87.7298 42.7354 87.7647C42.6923 87.7996 42.6625 87.8483 42.6509 87.9026C42.3844 88.7334 42.0554 89.5428 41.6666 90.3239C41.3767 90.9836 40.9661 91.5834 40.456 92.0925L40.3928 92.1504C39.8179 92.5322 39.1344 92.717 38.4453 92.6767C38.1716 92.6767 38.1032 93.1505 38.3769 93.2031C39.3389 93.4338 40.2208 93.9198 40.9295 94.61C41.6382 95.3002 42.1475 96.1689 42.4036 97.1245C42.5693 97.6846 42.6474 98.267 42.6352 98.851C42.6359 98.9101 42.6577 98.967 42.6967 99.0114C42.7357 99.0558 42.7894 99.0847 42.8479 99.093C42.9064 99.1013 42.966 99.0883 43.0158 99.0565C43.0656 99.0246 43.1024 98.976 43.1194 98.9194C43.7247 97.135 44.4301 95.1506 46.1092 94.2611C46.5175 94.0393 46.9762 93.9269 47.4409 93.9347C47.7409 93.94 47.7409 93.4136 47.4251 93.3978Z" fill="#FFFDFA"/>
</g>
<defs>
<clipPath id="clip0_353_1693">
<rect width="135.054" height="117" fill="white"/>
</clipPath>
</defs>
</svg>
