<svg width="49" height="36" viewBox="0 0 49 36" fill="none" xmlns="http://www.w3.org/2000/svg">
<path d="M44.9166 29.4C44.4658 29.4 44.0999 29.0341 44.0999 28.5833V2.45C44.0999 2.00083 43.7341 1.63333 43.2833 1.63333H5.7166C5.2658 1.63333 4.89993 2.00083 4.89993 2.45V28.5833C4.89993 29.0341 4.53407 29.4 4.08327 29.4C3.63247 29.4 3.2666 29.0341 3.2666 28.5833V2.45C3.2666 1.09923 4.36583 0 5.7166 0H43.2833C44.634 0 45.7333 1.09923 45.7333 2.45V28.5833C45.7333 29.0341 45.3674 29.4 44.9166 29.4Z" fill="#1C55E9"/>
<path d="M44.9167 35.9333H4.08333C1.83097 35.9333 0 34.1024 0 31.85C0 31.3992 0.365867 31.0333 0.816667 31.0333H18.7833C19.2341 31.0333 19.6 31.3992 19.6 31.85C19.6 32.3008 19.2341 32.6667 18.7833 32.6667H1.7738C2.11027 33.6173 3.0184 34.3 4.08333 34.3H44.9167C45.9816 34.3 46.8897 33.6173 47.2262 32.6667H30.2167C29.7659 32.6667 29.4 32.3008 29.4 31.85C29.4 31.3992 29.7659 31.0333 30.2167 31.0333H48.1833C48.6341 31.0333 49 31.3992 49 31.85C49 34.1024 47.169 35.9333 44.9167 35.9333Z" fill="#1C55E9"/>
<path d="M17.1498 22.867C16.9587 22.867 16.7676 22.8001 16.6124 22.6645L10.0791 16.9478C9.90107 16.7927 9.7998 16.5705 9.7998 16.3337C9.7998 16.0969 9.90107 15.8747 10.0791 15.7196L16.6124 10.0029C16.9505 9.704 17.465 9.73667 17.7656 10.0797C18.0628 10.4194 18.0285 10.9339 17.6888 11.2312L11.8562 16.3337L17.6872 21.4362C18.0269 21.7335 18.0612 22.248 17.7639 22.5877C17.6022 22.7723 17.3768 22.867 17.1498 22.867Z" fill="#1C55E9"/>
<path d="M22.0496 24.5C21.9646 24.5 21.8781 24.4869 21.7915 24.4592C21.3636 24.3154 21.1333 23.8532 21.2754 23.4253L26.1754 8.72525C26.3175 8.29732 26.7764 8.06375 27.2076 8.20912C27.6356 8.35285 27.8659 8.81509 27.7238 9.24302L22.8238 23.943C22.7094 24.2828 22.3909 24.5 22.0496 24.5Z" fill="#1C55E9"/>
<path d="M31.8496 22.8664C31.6226 22.8664 31.3972 22.7716 31.2355 22.5871C30.9382 22.2473 30.9725 21.7328 31.3123 21.4356L37.1433 16.333L31.3123 11.2305C30.9725 10.9332 30.9382 10.4187 31.2355 10.079C31.5328 9.73601 32.0489 9.70498 32.3886 10.0022L38.922 15.7189C39.0984 15.8741 39.1996 16.0962 39.1996 16.333C39.1996 16.5699 39.0984 16.792 38.9203 16.9472L32.387 22.6638C32.2318 22.7994 32.0407 22.8664 31.8496 22.8664Z" fill="#1C55E9"/>
</svg>
