<svg
  width="642"
  height="917"
  viewBox="0 0 642 917"
  fill="none"
  xmlns="http://www.w3.org/2000/svg"
>
<g opacity="0.2">
<path
      d="M261.749 286.964C261.749 288.941 261.109 290.874 259.911 292.518C258.713 294.162 257.009 295.443 255.016 296.2C253.024 296.957 250.831 297.155 248.715 296.769C246.599 296.383 244.656 295.431 243.131 294.033C241.606 292.635 240.567 290.853 240.146 288.914C239.725 286.975 239.941 284.965 240.767 283.138C241.592 281.311 242.99 279.75 244.784 278.651C246.577 277.553 248.686 276.966 250.843 276.966C253.735 276.966 256.509 278.019 258.555 279.894C260.6 281.769 261.749 284.312 261.749 286.964Z"
      fill="#FFB1A5"
    />
<path
      d="M299.921 286.964C299.921 288.942 299.334 290.876 298.234 292.52C297.135 294.165 295.572 295.446 293.744 296.202C291.916 296.958 289.905 297.155 287.965 296.767C286.025 296.38 284.243 295.425 282.846 294.025C281.449 292.625 280.498 290.841 280.115 288.901C279.732 286.96 279.933 284.949 280.693 283.123C281.453 281.296 282.738 279.736 284.385 278.64C286.032 277.545 287.967 276.962 289.945 276.966C292.593 276.972 295.13 278.028 297 279.902C298.87 281.776 299.921 284.316 299.921 286.964Z"
      fill="#EAD254"
    />
<path
      d="M339.91 286.964C339.91 288.941 339.323 290.874 338.225 292.518C337.126 294.162 335.565 295.443 333.738 296.2C331.911 296.957 329.901 297.155 327.962 296.769C326.023 296.383 324.241 295.431 322.843 294.033C321.445 292.635 320.493 290.853 320.107 288.914C319.721 286.975 319.919 284.965 320.676 283.138C321.433 281.311 322.714 279.75 324.358 278.651C326.002 277.553 327.935 276.966 329.912 276.966C332.562 276.972 335.102 278.027 336.975 279.901C338.849 281.774 339.904 284.314 339.91 286.964Z"
      fill="#00857B"
    />
<path
      d="M125.421 258.505V251.803C125.421 251.384 125.311 250.972 125.102 250.609C124.893 250.246 124.592 249.945 124.229 249.736L118.434 246.385C118.071 246.175 117.66 246.065 117.242 246.065C116.823 246.065 116.412 246.175 116.049 246.385L110.254 249.735C109.892 249.945 109.591 250.246 109.381 250.609C109.172 250.972 109.062 251.384 109.062 251.803V258.505C109.062 258.924 109.172 259.335 109.381 259.698C109.591 260.061 109.891 260.362 110.254 260.572L116.049 263.922C116.412 264.132 116.823 264.242 117.241 264.242C117.66 264.242 118.071 264.132 118.434 263.922L124.229 260.572C124.592 260.362 124.893 260.061 125.102 259.698C125.311 259.335 125.421 258.924 125.421 258.505Z"
      fill="#5F7EFF"
      fill-opacity="0.23"
    />
<path
      d="M244.613 625.337V535.85C244.613 530.255 243.141 524.759 240.344 519.914C237.547 515.069 233.523 511.045 228.679 508.248L151.202 463.509C146.356 460.711 140.859 459.238 135.264 459.238C129.668 459.238 124.171 460.711 119.326 463.509L41.8486 508.247C37.0038 511.045 32.9808 515.068 30.1839 519.914C27.3869 524.759 25.9145 530.255 25.9146 535.849V625.337C25.9144 630.931 27.3866 636.427 30.1831 641.272C32.9797 646.117 37.0021 650.14 41.8463 652.938L119.323 697.676C124.169 700.474 129.666 701.947 135.261 701.947C140.857 701.947 146.354 700.474 151.199 697.676L228.676 652.937C233.521 650.14 237.545 646.117 240.342 641.272C243.14 636.427 244.613 630.932 244.613 625.337Z"
      fill="#596BB5"
    />
<path
      d="M135.245 630.967C128.843 630.962 122.504 629.697 116.591 627.243C110.678 624.79 105.306 621.195 100.782 616.665C96.2576 612.135 92.6702 606.758 90.2242 600.842C87.7782 594.925 86.5215 588.585 86.5259 582.183V582.178C86.5326 572.605 89.3571 563.246 94.6472 555.268C99.9372 547.29 107.459 541.045 116.274 537.313C128.189 532.287 141.613 532.198 153.593 537.068C165.573 541.938 175.128 551.367 180.157 563.281C181.887 567.379 183.049 571.693 183.609 576.105C181.431 575.206 179.098 574.743 176.741 574.743C175.627 574.745 174.515 574.845 173.418 575.042C173.143 573.41 172.689 571.812 172.064 570.279C171.676 568.993 170.979 567.82 170.035 566.863C169.091 565.907 167.927 565.195 166.646 564.79C165.378 565.964 164.383 567.4 163.728 568.999C162.959 570.961 162.604 573.06 162.684 575.166C162.765 577.272 163.279 579.338 164.195 581.235C164.195 581.253 164.076 581.631 163.365 582.008C161.895 582.626 160.302 582.891 158.712 582.783H96.985C96.6237 587.235 97.0244 591.716 98.1701 596.033C99.1268 600.208 101.222 604.037 104.223 607.093C107.223 610.15 111.012 612.315 115.169 613.348C118.886 614.278 122.706 614.737 126.537 614.713C145.183 614.713 167.331 604.673 171.651 586.071H172.065C173.956 586.071 180.398 585.731 183.965 581.391V582.219C183.971 588.614 182.718 594.949 180.276 600.86C177.834 606.771 174.252 612.143 169.734 616.67C165.216 621.197 159.851 624.789 153.945 627.242C148.038 629.695 141.707 630.961 135.311 630.967H135.244L135.245 630.967ZM147 572.979V580.845H155.641V572.979H147ZM136.144 572.979V580.845H144.784V572.979H136.144ZM125.288 572.979V580.845H133.928V572.979H125.288ZM114.432 572.979V580.845H123.073V572.979H114.432ZM103.577 572.979V580.845H112.215V572.979H103.577ZM136.155 562.917V570.784H144.796V562.917H136.155ZM125.3 562.917V570.784H133.942V562.917H125.3ZM114.444 562.917V570.784H123.087V562.917H114.444ZM136.155 552.858V560.735H144.796V552.858H136.155Z"
      fill="white"
    />
<path
      d="M236.542 82.2373V43.8533C236.542 41.879 236.022 39.9394 235.035 38.2296C234.048 36.5197 232.628 35.0998 230.918 34.1124L197.684 14.9207C195.974 13.9336 194.034 13.4139 192.059 13.4139C190.085 13.4139 188.145 13.9336 186.435 14.9207L153.18 34.1144C151.469 35.1014 150.049 36.5214 149.061 38.2316C148.074 39.9417 147.554 41.8818 147.554 43.8567V82.2353C147.554 84.2101 148.074 86.1502 149.061 87.8604C150.049 89.5705 151.469 90.9906 153.18 91.9776L186.435 111.171C188.145 112.158 190.085 112.678 192.059 112.678C194.034 112.678 195.974 112.158 197.684 111.171L230.918 91.9796C232.628 90.9921 234.048 89.5719 235.035 87.8618C236.022 86.1516 236.542 84.2118 236.542 82.2373Z"
      fill="#6973AA"
    />
<path
      d="M183.676 72.8911H171.635L182.482 54.3223L194.565 48.1844L183.676 72.8911Z"
      fill="white"
    />
<path
      d="M212.472 77.915H181.707V75.5214H198.808L190.122 64.403L196.337 50.2742L212.472 77.915Z"
      fill="white"
    />
<path
      d="M532.168 306.952V232.389C532.168 228.202 531.065 224.088 528.971 220.462C526.877 216.835 523.865 213.824 520.238 211.731L455.63 174.444C452.004 172.351 447.891 171.249 443.704 171.249C439.518 171.249 435.405 172.351 431.779 174.444L367.216 211.73C363.59 213.824 360.58 216.835 358.486 220.461C356.393 224.087 355.291 228.199 355.292 232.386V306.955C355.291 311.142 356.393 315.255 358.486 318.881C360.58 322.507 363.59 325.518 367.216 327.612L431.783 364.894C435.408 366.988 439.521 368.09 443.708 368.09C447.895 368.09 452.008 366.988 455.633 364.894L520.242 327.608C523.867 325.514 526.878 322.503 528.972 318.877C531.065 315.252 532.168 311.138 532.168 306.952Z"
      fill="#FBBB5E"
    />
<path
      d="M423.053 266.998C423.025 267.933 423.151 268.867 423.427 269.762C423.725 270.509 424.023 271.255 424.398 272.002C424.55 272.221 424.628 272.483 424.622 272.749C424.599 272.945 424.533 273.133 424.43 273.3C424.327 273.468 424.189 273.611 424.026 273.721L422.084 275.066C421.844 275.241 421.559 275.344 421.262 275.364C421.078 275.362 420.897 275.321 420.729 275.244C420.562 275.168 420.413 275.057 420.291 274.919C419.853 274.472 419.477 273.97 419.17 273.425C418.872 272.902 418.574 272.304 418.2 271.557C417.095 272.926 415.694 274.027 414.102 274.778C412.511 275.528 410.77 275.908 409.011 275.89C407.868 275.959 406.723 275.797 405.644 275.412C404.566 275.026 403.577 274.427 402.736 273.649C401.154 271.924 400.321 269.641 400.419 267.303C400.517 264.964 401.538 262.759 403.258 261.172C405.438 259.444 408.172 258.568 410.95 258.707C412.074 258.707 413.197 258.782 414.311 258.931C415.518 259.09 416.715 259.314 417.897 259.604V257.287C417.897 254.898 417.374 253.253 416.402 252.283C415.431 251.312 413.713 250.863 411.32 250.863C410.19 250.873 409.064 250.998 407.959 251.237C406.815 251.506 405.692 251.856 404.597 252.283C404.235 252.44 403.86 252.566 403.476 252.657C403.311 252.723 403.131 252.748 402.954 252.731C402.505 252.731 402.281 252.433 402.281 251.76V250.191C402.283 249.807 402.359 249.426 402.506 249.071C402.735 248.767 403.045 248.534 403.4 248.398C404.664 247.782 405.992 247.306 407.36 246.979C408.974 246.587 410.629 246.387 412.29 246.382C416.026 246.382 418.79 247.203 420.507 248.923C422.224 250.643 423.121 253.18 423.121 256.615L423.047 266.999L423.053 266.998ZM410.279 271.779C411.376 271.768 412.463 271.566 413.491 271.182C414.638 270.769 415.665 270.076 416.477 269.166C416.997 268.597 417.357 267.901 417.522 267.149C417.736 266.243 417.836 265.315 417.82 264.385V263.04C416.85 262.816 415.878 262.667 414.907 262.517C413.943 262.368 412.969 262.293 411.994 262.293C410.325 262.153 408.659 262.602 407.287 263.563C406.329 264.252 405.683 265.294 405.493 266.459C405.302 267.624 405.582 268.818 406.271 269.776L406.317 269.84C406.761 270.47 407.356 270.978 408.048 271.317C408.74 271.657 409.506 271.817 410.276 271.782L410.279 271.779ZM435.453 275.14C435.033 275.192 434.607 275.086 434.261 274.842C433.966 274.489 433.739 274.085 433.589 273.65L426.191 249.372C426.049 248.96 425.949 248.534 425.894 248.101C425.864 247.936 425.9 247.766 425.996 247.628C426.091 247.489 426.237 247.394 426.402 247.364C426.431 247.358 426.461 247.355 426.491 247.354H429.703C430.125 247.291 430.553 247.399 430.896 247.652C431.195 247.991 431.401 248.402 431.492 248.844L436.794 269.612L441.725 248.845C441.8 248.397 442.008 247.981 442.321 247.653C442.696 247.406 443.146 247.301 443.592 247.355H446.133C446.578 247.301 447.029 247.406 447.404 247.653C447.717 247.982 447.924 248.397 448 248.845L452.93 269.835L458.384 248.845C458.459 248.397 458.667 247.981 458.98 247.653C459.33 247.416 459.753 247.31 460.173 247.355H463.086C463.175 247.339 463.267 247.342 463.354 247.364C463.442 247.386 463.524 247.427 463.595 247.483C463.666 247.54 463.724 247.611 463.765 247.692C463.806 247.772 463.829 247.861 463.833 247.951V248.175C463.845 248.352 463.82 248.53 463.759 248.698C463.685 248.996 463.609 249.22 463.535 249.445L455.997 273.721C455.925 274.187 455.686 274.611 455.324 274.913C454.978 275.158 454.553 275.264 454.132 275.211H451.443C450.997 275.265 450.547 275.159 450.172 274.913C449.856 274.555 449.649 274.114 449.576 273.643L444.716 253.4L439.857 273.571C439.768 274.038 439.562 274.475 439.26 274.842C438.885 275.088 438.435 275.194 437.99 275.14H435.453ZM475.794 275.961C474.158 275.947 472.529 275.747 470.938 275.365C469.683 275.133 468.473 274.704 467.353 274.094C466.962 273.878 466.629 273.571 466.381 273.2C466.272 272.911 466.197 272.611 466.157 272.305V270.737C466.157 270.064 466.381 269.765 466.904 269.765C467.106 269.753 467.308 269.778 467.501 269.839C467.744 269.952 467.994 270.051 468.248 270.137C469.354 270.622 470.505 270.998 471.684 271.258C472.915 271.497 474.165 271.622 475.419 271.633C477.005 271.705 478.58 271.343 479.976 270.587C480.485 270.274 480.904 269.835 481.192 269.311C481.48 268.788 481.628 268.198 481.619 267.601C481.634 266.8 481.34 266.024 480.798 265.435C479.88 264.671 478.811 264.111 477.661 263.791L473.104 262.372C471.139 261.851 469.387 260.728 468.095 259.159C467.062 257.866 466.508 256.256 466.526 254.602C466.54 253.386 466.821 252.187 467.348 251.091C467.886 250.081 468.654 249.211 469.588 248.55C470.578 247.812 471.691 247.255 472.875 246.906C474.163 246.544 475.496 246.368 476.834 246.383C477.535 246.358 478.236 246.408 478.926 246.533C480.224 246.702 481.501 247.002 482.738 247.427C483.212 247.563 483.664 247.763 484.083 248.024C484.453 248.205 484.783 248.459 485.054 248.771C485.264 249.078 485.369 249.445 485.352 249.817V251.316C485.352 251.988 485.128 252.287 484.605 252.287C484.187 252.242 483.782 252.115 483.413 251.913C481.51 251.068 479.443 250.661 477.362 250.721C475.913 250.64 474.468 250.948 473.177 251.612C472.699 251.893 472.307 252.299 472.044 252.786C471.781 253.273 471.656 253.823 471.683 254.376C471.675 254.798 471.758 255.216 471.925 255.602C472.093 255.989 472.341 256.335 472.654 256.617C473.659 257.435 474.832 258.021 476.09 258.332L480.572 259.752C482.453 260.239 484.144 261.279 485.428 262.737C486.404 263.994 486.906 265.555 486.847 267.145C486.841 268.41 486.561 269.659 486.025 270.805C485.468 271.887 484.677 272.831 483.709 273.569C482.663 274.384 481.472 274.993 480.198 275.362C478.761 275.753 477.279 275.954 475.79 275.959L475.794 275.961Z"
      fill="white"
    />
<path
      d="M481.691 291.202C471.382 298.821 456.367 302.855 443.519 302.855C426.311 302.935 409.691 296.596 396.906 285.076C395.935 284.181 396.832 282.984 397.952 283.731C410.349 290.878 424.233 295.056 438.515 295.937C452.797 296.819 467.09 294.381 480.272 288.813C481.913 288.064 483.406 290.005 481.691 291.202ZM486.024 286.346C484.679 284.631 477.283 285.525 473.922 285.973C472.951 286.122 472.73 285.226 473.698 284.554C479.602 280.445 489.311 281.64 490.431 282.985C491.551 284.404 490.133 294.115 484.604 298.746C483.782 299.494 482.961 299.12 483.334 298.15C484.526 295.012 487.368 287.991 486.023 286.347L486.024 286.346Z"
      fill="white"
    />
<path
      d="M319.377 393.398V364.7C319.377 362.926 318.911 361.184 318.024 359.648C317.137 358.112 315.861 356.837 314.325 355.951L289.457 341.599C287.922 340.713 286.181 340.246 284.408 340.246C282.635 340.246 280.893 340.713 279.358 341.599L254.507 355.951C252.972 356.837 251.698 358.112 250.811 359.647C249.925 361.182 249.459 362.923 249.458 364.696V393.398C249.458 395.171 249.925 396.913 250.811 398.448C251.698 399.984 252.973 401.259 254.508 402.145L279.357 416.495C280.893 417.381 282.634 417.848 284.407 417.848C286.18 417.848 287.921 417.381 289.457 416.495L314.325 402.144C315.86 401.258 317.136 399.983 318.023 398.448C318.91 396.912 319.377 395.171 319.377 393.398Z"
      fill="#0E7178"
    />
<path
      fill-rule="evenodd"
      clip-rule="evenodd"
      d="M265.841 381.843H267.207V376.42L269.36 381.148C269.521 381.479 269.806 381.733 270.154 381.853C270.502 381.974 270.883 381.951 271.214 381.79L271.242 381.776C271.513 381.64 271.734 381.42 271.87 381.148L273.999 376.42V381.843H275.388V376.42C275.413 376.213 275.36 376.005 275.24 375.835C275.12 375.665 274.941 375.546 274.738 375.501C273.685 375.187 272.989 375.456 272.675 376.174L270.57 380.858L268.55 376.174C268.237 375.458 267.542 375.188 266.488 375.501C266.285 375.546 266.106 375.665 265.986 375.835C265.866 376.005 265.814 376.213 265.839 376.42V381.843H265.841Z"
      fill="white"
    />
<path
      fill-rule="evenodd"
      clip-rule="evenodd"
      d="M276.508 377.428H277.897V380.413C277.897 380.592 277.943 380.952 278.705 380.973H281.708V377.41H283.098V382.295C283.098 383.507 281.619 383.752 280.923 383.776H276.575V382.857H280.923C281.821 382.767 281.707 382.318 281.707 382.162V381.804H278.796C277.43 381.804 276.552 381.198 276.552 380.505C276.507 380.437 276.552 377.456 276.507 377.437L276.508 377.428Z"
      fill="white"
    />
<path
      fill-rule="evenodd"
      clip-rule="evenodd"
      d="M284.128 381.844H288.092C288.525 381.846 288.953 381.754 289.348 381.575C289.595 381.503 289.814 381.357 289.974 381.156C290.135 380.955 290.23 380.71 290.245 380.453V379.443C290.245 379.062 289.909 378.681 289.259 378.433C288.885 378.299 288.491 378.231 288.094 378.231H286.435C285.875 378.231 285.606 378.051 285.538 377.692C285.538 377.648 285.516 377.603 285.538 377.558V376.816C285.605 376.525 285.762 376.458 286.254 376.412H290.31V375.498H286.456C286.078 375.479 285.7 375.516 285.333 375.61C284.525 375.857 284.167 376.26 284.167 376.977V377.785C284.167 378.412 284.862 378.93 286.049 379.063H288.044C288.471 379.108 288.672 379.175 288.785 379.332C288.853 379.396 288.893 379.485 288.897 379.578V380.386C288.874 380.514 288.812 380.632 288.719 380.723C288.554 380.855 288.346 380.919 288.136 380.902H284.19L284.123 381.843L284.128 381.844Z"
      fill="white"
    />
<path
      fill-rule="evenodd"
      clip-rule="evenodd"
      d="M298.83 380.252C298.83 381.193 299.547 381.709 300.958 381.823C301.092 381.823 301.227 381.846 301.362 381.846H304.946V380.927H301.338C300.532 380.927 300.24 380.725 300.24 380.233V375.481H298.851V380.255L298.83 380.252Z"
      fill="white"
    />
<path
      fill-rule="evenodd"
      clip-rule="evenodd"
      d="M291.121 380.298V377.026C291.121 376.197 291.703 375.68 292.869 375.524C293.004 375.524 293.115 375.502 293.227 375.502H295.85C295.977 375.498 296.104 375.505 296.23 375.524C297.373 375.681 297.956 376.197 297.956 377.026V380.298C297.989 380.571 297.927 380.847 297.779 381.08C297.632 381.313 297.409 381.488 297.148 381.575L298.495 382.807H296.904L295.805 381.822L294.707 381.89H293.228C292.955 381.885 292.684 381.848 292.42 381.777C291.568 381.508 291.143 381.061 291.12 380.298L291.121 380.298ZM292.623 380.23C292.623 380.275 292.645 380.319 292.645 380.365C292.712 380.746 293.072 380.947 293.631 380.947H294.887L293.742 379.916H295.334L296.342 380.835C296.432 380.792 296.511 380.729 296.573 380.652C296.635 380.574 296.679 380.483 296.702 380.386C296.702 380.341 296.723 380.296 296.702 380.251V376.981C296.634 376.622 296.274 376.42 295.737 376.42H293.674C293.07 376.42 292.664 376.69 292.664 377.115L292.621 380.23H292.623Z"
      fill="white"
    />
<path
      d="M371.406 146.57V99.8533C371.406 97.611 370.817 95.4081 369.696 93.4661C368.575 91.5241 366.962 89.9114 365.021 88.7903L324.537 65.4273C322.596 64.3064 320.394 63.7163 318.152 63.7163C315.91 63.7163 313.708 64.3064 311.767 65.4273L271.31 88.7903C269.369 89.9111 267.757 91.5233 266.636 93.4648C265.515 95.4062 264.925 97.6085 264.925 99.8503V146.572C264.924 148.814 265.514 151.016 266.635 152.958C267.756 154.9 269.368 156.512 271.31 157.633L311.767 180.995C313.708 182.116 315.91 182.706 318.152 182.706C320.394 182.706 322.596 182.116 324.537 180.995L365.018 157.632C366.96 156.511 368.573 154.899 369.694 152.957C370.815 151.015 371.406 148.813 371.406 146.57Z"
      fill="#37679F"
    />
<path
      d="M316.099 99.3298C316.725 98.9676 317.436 98.7769 318.16 98.7769C318.884 98.7769 319.596 98.9676 320.222 99.3298C326.516 102.894 332.823 106.453 339.145 110.007C339.738 110.34 340.231 110.826 340.574 111.413C340.917 112 341.098 112.668 341.098 113.348V134.789C341.085 135.499 340.881 136.193 340.507 136.796C340.132 137.4 339.602 137.891 338.971 138.218C332.678 141.782 326.428 145.293 320.135 148.852C319.496 149.216 318.769 149.397 318.033 149.375C317.298 149.352 316.583 149.127 315.968 148.724C314.101 147.639 312.192 146.553 310.325 145.469C309.905 145.302 309.532 145.033 309.24 144.688C309.495 144.391 309.891 144.341 310.237 144.167C311.014 143.91 311.757 143.561 312.451 143.127C312.54 143.081 312.64 143.061 312.74 143.068C312.84 143.076 312.935 143.111 313.016 143.17C314.621 144.082 316.228 145.037 317.834 145.949C318.182 146.166 318.529 145.906 318.832 145.732C324.995 142.26 331.158 138.774 337.322 135.272C337.428 135.211 337.517 135.122 337.578 135.016C337.639 134.909 337.671 134.788 337.669 134.665V113.48C337.686 113.344 337.657 113.205 337.586 113.087C337.516 112.969 337.407 112.879 337.279 112.83C331.028 109.314 324.764 105.784 318.486 102.239C318.382 102.153 318.251 102.106 318.115 102.106C317.98 102.106 317.849 102.153 317.744 102.239C311.494 105.754 305.245 109.313 298.995 112.83C298.869 112.883 298.764 112.974 298.694 113.091C298.623 113.208 298.592 113.344 298.604 113.48V134.703C298.594 134.828 298.621 134.953 298.683 135.062C298.745 135.17 298.839 135.258 298.952 135.312C300.6 136.267 302.293 137.228 303.987 138.133C304.45 138.414 304.965 138.598 305.502 138.672C306.038 138.747 306.584 138.711 307.106 138.567C307.556 138.399 307.943 138.096 308.215 137.7C308.487 137.304 308.63 136.833 308.625 136.353V115.259C308.62 115.126 308.667 114.997 308.757 114.899C308.848 114.801 308.973 114.743 309.106 114.738H311.572C311.708 114.735 311.839 114.785 311.937 114.878C312.035 114.972 312.093 115.1 312.097 115.235C312.098 115.258 312.098 115.28 312.097 115.302V136.57C312.146 137.531 311.938 138.489 311.495 139.344C311.051 140.198 310.387 140.919 309.572 141.432C308.49 141.939 307.304 142.188 306.11 142.159C304.915 142.13 303.743 141.824 302.686 141.265C300.864 140.354 299.084 139.269 297.305 138.272C296.68 137.938 296.154 137.445 295.781 136.843C295.408 136.241 295.2 135.551 295.178 134.843V113.394C295.175 112.697 295.364 112.012 295.724 111.415C296.085 110.818 296.603 110.331 297.222 110.01C303.555 106.449 309.805 102.891 316.099 99.3298Z"
      fill="white"
    />
<path
      d="M321.561 114.176C324.331 113.823 327.144 114.259 329.677 115.434C330.597 115.988 331.357 116.773 331.882 117.71C332.407 118.648 332.679 119.705 332.672 120.78C332.636 120.91 332.555 121.025 332.445 121.104C332.334 121.183 332.2 121.221 332.065 121.213H329.677C329.6 121.211 329.524 121.193 329.454 121.161C329.385 121.13 329.322 121.084 329.269 121.028C329.217 120.972 329.176 120.906 329.149 120.834C329.122 120.762 329.11 120.686 329.112 120.609C329.019 120.089 328.816 119.594 328.517 119.159C328.218 118.724 327.829 118.357 327.376 118.084C325.861 117.486 324.226 117.248 322.602 117.389C321.4 117.347 320.211 117.648 319.174 118.258C318.811 118.534 318.544 118.916 318.411 119.352C318.278 119.787 318.285 120.253 318.431 120.685C318.686 121.292 319.386 121.466 319.95 121.684C323.248 122.553 326.765 122.465 329.975 123.6C330.672 123.795 331.315 124.147 331.855 124.628C332.396 125.11 332.819 125.708 333.094 126.378C333.409 127.327 333.483 128.34 333.309 129.326C333.135 130.311 332.718 131.237 332.096 132.021C330.953 133.213 329.466 134.017 327.843 134.319C325.729 134.752 323.56 134.839 321.419 134.575C319.363 134.468 317.391 133.725 315.776 132.448C315.134 131.864 314.629 131.144 314.298 130.341C313.966 129.538 313.817 128.671 313.86 127.803C313.872 127.665 313.938 127.537 314.044 127.448C314.15 127.358 314.286 127.314 314.425 127.325H316.823C316.972 127.328 317.113 127.389 317.219 127.494C317.324 127.599 317.384 127.741 317.387 127.89C317.431 128.383 317.572 128.863 317.803 129.302C318.034 129.74 318.35 130.129 318.733 130.444C320.436 131.298 322.349 131.645 324.245 131.443C325.832 131.562 327.415 131.166 328.759 130.315C329.078 130.015 329.311 129.636 329.433 129.216C329.555 128.796 329.562 128.35 329.454 127.927C329.28 127.232 328.499 126.887 327.892 126.669C324.637 125.629 321.077 126.017 317.867 124.847C317.192 124.641 316.568 124.296 316.037 123.832C315.506 123.368 315.079 122.797 314.784 122.156C314.416 121.195 314.322 120.15 314.514 119.138C314.705 118.126 315.174 117.188 315.868 116.427C317.483 115.098 319.474 114.311 321.561 114.176Z"
      fill="white"
    />
<path
      d="M325.871 738.308V706.047C325.871 703.999 325.331 701.987 324.308 700.213C323.284 698.439 321.811 696.966 320.037 695.942L292.104 679.812C290.33 678.788 288.318 678.249 286.27 678.248C284.222 678.248 282.21 678.787 280.436 679.811L252.485 695.942C250.711 696.966 249.237 698.439 248.213 700.213C247.188 701.987 246.649 704 246.649 706.048V738.306C246.649 740.354 247.188 742.367 248.213 744.141C249.237 745.915 250.711 747.388 252.485 748.412L280.436 764.544C282.21 765.567 284.222 766.106 286.27 766.106C288.318 766.106 290.33 765.567 292.104 764.542L320.037 748.412C321.811 747.388 323.283 745.915 324.307 744.142C325.331 742.368 325.87 740.356 325.871 738.308Z"
      fill="#1D3E92"
    />
<path
      d="M289.984 732.657C289.957 732.657 289.957 732.657 289.957 732.684C289.821 732.848 289.67 732.999 289.507 733.135C289.135 733.426 288.711 733.108 288.446 732.949C287.836 732.605 287.36 732.816 287.227 733.083C287.121 733.351 287.254 733.693 287.571 733.64C287.715 733.605 287.865 733.606 288.009 733.643C288.152 733.68 288.284 733.752 288.393 733.852C288.577 734.001 288.806 734.083 289.043 734.083C289.279 734.083 289.509 734.001 289.692 733.852C289.854 733.719 289.989 733.557 290.09 733.374C290.156 733.264 290.186 733.136 290.176 733.008C290.167 732.88 290.118 732.758 290.037 732.659H289.985L289.984 732.657ZM289.269 712.668H289.165C288.977 712.691 288.791 712.727 288.609 712.775C288.064 712.827 287.533 712.979 287.044 713.226C287.038 713.226 287.031 713.223 287.026 713.219C287.021 713.214 287.018 713.208 287.018 713.201V713.199L287.07 713.172L287.389 713.225C288.423 713.118 289.271 713.331 289.324 713.649C289.351 713.888 288.9 714.152 288.237 714.312C288.211 714.312 288.185 714.364 288.185 714.391C288.185 714.419 288.211 714.471 288.237 714.471C288.548 714.56 288.869 714.605 289.192 714.605C290.252 714.632 291.127 714.181 291.127 713.678C291.177 713.199 290.329 712.668 289.269 712.668ZM286.379 708.639C281.996 708.634 277.792 710.371 274.689 713.466C271.587 716.561 269.842 720.763 269.837 725.145V725.158C269.821 726.953 270.117 728.738 270.712 730.433H271.849C272.805 730.436 273.749 730.219 274.606 729.797C274.812 729.692 275.039 729.637 275.269 729.638C275.514 729.628 275.756 729.685 275.97 729.802C276.185 729.918 276.364 730.091 276.489 730.301C276.649 730.643 276.907 730.929 277.231 731.123C277.532 731.312 277.883 731.405 278.238 731.391C278.45 731.391 278.794 731.338 278.874 731.099C278.98 730.831 278.847 730.648 278.53 730.515C278.079 730.33 277.973 730.065 277.735 729.64C277.496 729.216 276.992 729.004 276.913 728.208C276.863 727.858 276.954 727.501 277.166 727.218C277.379 726.934 277.695 726.746 278.046 726.696H278.047C278.254 726.666 278.464 726.685 278.662 726.751C279.538 726.99 280.094 728.05 280.306 728.424C280.343 728.485 280.392 728.539 280.45 728.582C280.508 728.624 280.574 728.655 280.644 728.672C280.714 728.689 280.786 728.692 280.857 728.681C280.929 728.67 280.997 728.646 281.058 728.608C281.083 728.593 281.106 728.577 281.128 728.558C281.446 728.267 281.738 728.267 281.976 728.638C282.188 728.956 283.673 730.944 285.289 730.997C286.933 731.05 287.808 730.626 288.524 730.653C288.88 730.716 289.227 730.823 289.558 730.971C290.061 731.051 290.406 730.6 290.962 730.627C291.413 730.654 291.89 730.945 292.394 730.945C292.898 730.945 293.958 730.335 293.932 730.601C293.818 731.137 293.668 731.665 293.485 732.182C293.47 732.637 293.416 733.089 293.326 733.534C293.157 734.002 292.916 734.441 292.61 734.833C292.212 735.443 291.921 735.628 291.576 736.265C291.249 736.83 290.869 737.363 290.439 737.855C290.227 738.122 291.576 737.855 292.055 737.404C292.453 737.033 293.169 735.866 294.308 735.598C295.077 735.439 295.21 735.148 295.13 734.856C295.109 734.825 295.099 734.787 295.103 734.75C295.103 734.699 295.118 734.648 295.146 734.606C295.174 734.563 295.215 734.53 295.262 734.511C296.228 734.149 297.253 733.969 298.285 733.98C298.955 733.979 299.623 734.059 300.274 734.219C301.455 732.389 302.264 730.344 302.655 728.202C303.046 726.059 303.011 723.86 302.552 721.731C302.093 719.601 301.22 717.583 299.981 715.792C298.742 714 297.162 712.47 295.332 711.289C292.663 709.567 289.555 708.647 286.379 708.639ZM299.846 724.863C299.051 729.211 291.92 730.669 284.999 728.575C278.373 726.586 272.594 722.61 273.256 720.276C273.654 718.923 275.801 718.34 278.664 718.658C278.24 719.533 278.266 720.594 280.149 721.76C282.481 723.086 286.406 724.199 287.466 724.094C287.864 724.067 288.208 723.855 287.864 723.617C287.399 723.224 287.089 722.679 286.988 722.078C286.882 721.628 286.75 720.965 284.258 720.488C278.903 719.455 279.115 717.944 279.274 717.095C279.274 717.095 279.752 714.948 279.937 714.205C280.122 713.463 280.652 711.74 284.099 712.509C285.297 712.801 286.555 712.717 287.704 712.27C289.188 711.899 290.858 712.163 291.76 713.092C292.714 714.073 294.013 717.041 294.623 719.295C294.89 719.954 294.918 720.686 294.702 721.363C294.542 721.743 294.347 722.106 294.119 722.45C294.039 722.556 294.119 722.689 294.253 722.609C294.611 722.442 294.926 722.195 295.174 721.887C295.423 721.579 295.597 721.218 295.685 720.833C298.521 721.416 300.191 722.875 299.847 724.862L299.846 724.863ZM284.683 715.451C283.888 715.451 283.305 715.557 282.801 715.557C282.591 715.549 282.386 715.492 282.202 715.391C282.018 715.289 281.86 715.147 281.741 714.974C281.582 714.787 281.105 714.602 280.866 715.212C280.767 715.461 280.771 715.739 280.877 715.985C280.983 716.231 281.183 716.424 281.431 716.523C281.446 716.528 281.459 716.534 281.473 716.538C281.473 716.538 282.136 717.784 282.64 717.228C282.984 716.856 283.196 716.644 285.105 716.512C286.007 716.432 286.112 716.245 286.086 716.009C286.034 715.741 285.476 715.452 284.682 715.452L284.683 715.451Z"
      fill="white"
    />
<path
      d="M99.2643 416.764V377.2C99.2643 374.503 98.5544 371.853 97.2059 369.518C95.8575 367.182 93.918 365.242 91.5823 363.894L57.3261 344.114C54.9904 342.765 52.3411 342.056 49.6442 342.056C46.9473 342.056 44.2979 342.765 41.9623 344.114L7.68464 363.896C5.34822 365.245 3.40798 367.185 2.05902 369.521C0.710051 371.857 -8.90401e-05 374.507 8.37371e-09 377.205V416.765C-8.90401e-05 419.462 0.710051 422.112 2.05902 424.448C3.40798 426.784 5.34822 428.724 7.68464 430.073L41.9618 449.856C44.2975 451.204 46.9468 451.914 49.6437 451.914C52.3406 451.914 54.99 451.204 57.3256 449.856L91.5819 430.076C93.9185 428.727 95.8586 426.786 97.2072 424.449C98.5558 422.113 99.2653 419.462 99.2643 416.764Z"
      fill="#9EA56D"
    />
<path
      d="M54.9736 390.801V403.806L66.2269 397.323V384.318L54.9736 390.801Z"
      fill="white"
    />
<path
      d="M42.457 384.279L53.7098 390.801V403.806L42.457 397.283V384.279Z"
      fill="white"
    />
<path
      d="M29.9814 377.021V390.026L41.2338 396.55V383.545L29.9814 377.021ZM42.4574 411.716L53.7097 418.238V405.234L42.4574 398.711V411.716Z"
      fill="white"
    />
<path
      d="M550.764 98.7478V45.4301C550.765 42.135 549.898 38.8979 548.25 36.0445C546.602 33.191 544.232 30.8218 541.378 29.1753L495.175 2.5136C492.323 0.866905 489.088 0 485.794 0C482.501 0 479.266 0.866905 476.413 2.5136L430.245 29.1753C427.392 30.8221 425.023 33.191 423.376 36.0438C421.729 38.8966 420.862 42.1327 420.863 45.4268V98.75C420.862 102.044 421.729 105.28 423.376 108.133C425.023 110.986 427.392 113.355 430.245 115.002L476.413 141.663C479.266 143.31 482.501 144.177 485.794 144.177C489.088 144.177 492.323 143.31 495.175 141.663L541.378 115.002C544.232 113.355 546.602 110.986 548.25 108.133C549.897 105.28 550.765 102.043 550.764 98.7478Z"
      fill="#F36262"
    />
<path
      fill-rule="evenodd"
      clip-rule="evenodd"
      d="M506.625 66.6652H504.526V79.2565H514.215L515.56 77.2113H506.626V66.6641L506.625 66.6652Z"
      fill="white"
    />
<path
      fill-rule="evenodd"
      clip-rule="evenodd"
      d="M478.317 67.3083L470.784 79.305H473.261L475.521 75.6996H480.422L481.713 73.6556H476.812L479.445 69.5115L485.687 79.3587H488.164L480.527 67.3588C480.427 67.1548 480.272 66.9823 480.08 66.8599C479.889 66.7374 479.667 66.6698 479.44 66.6644C479.213 66.659 478.988 66.7159 478.791 66.8291C478.593 66.9422 478.431 67.1072 478.321 67.3062L478.317 67.3083Z"
      fill="white"
    />
<path
      fill-rule="evenodd"
      clip-rule="evenodd"
      d="M493.01 68.7095H501.678L502.969 66.6643H492.961C489.463 66.6643 487.202 69.4621 487.202 72.9611C487.202 76.46 489.516 79.2578 492.961 79.2578H501.409L502.754 77.2127H493.016C490.649 77.2127 489.302 75.3299 489.302 72.9589C489.248 70.6449 490.647 68.7051 493.016 68.7051L493.01 68.7095Z"
      fill="white"
    />
<path
      fill-rule="evenodd"
      clip-rule="evenodd"
      d="M448.773 66.6643H439.841C436.343 66.6643 434.082 69.4621 434.082 72.96C434.082 76.4578 436.396 79.2556 439.841 79.2556H448.774C452.272 79.2556 454.534 76.4578 454.534 72.96C454.534 69.4621 452.217 66.6643 448.773 66.6643ZM448.773 77.2116H439.841C437.473 77.2116 436.127 75.3288 436.127 72.9578C436.127 70.5867 437.526 68.704 439.841 68.704H448.774C451.142 68.704 452.488 70.5867 452.488 72.9578C452.488 75.3288 451.09 77.2116 448.774 77.2116H448.773Z"
      fill="white"
    />
<path
      fill-rule="evenodd"
      clip-rule="evenodd"
      d="M521.424 68.7095H530.092L531.383 66.6643H521.37C517.872 66.6643 515.611 69.4621 515.611 72.9611C515.611 76.46 517.925 79.2578 521.37 79.2578H529.818L531.163 77.2127H521.424C520.53 77.2141 519.668 76.8851 519.002 76.2891C518.337 75.693 517.915 74.8719 517.818 73.9837H528.743L530.034 71.9385H517.817C517.914 71.0503 518.336 70.2291 519.001 69.6331C519.667 69.037 520.529 68.708 521.423 68.7095H521.424Z"
      fill="white"
    />
<path
      fill-rule="evenodd"
      clip-rule="evenodd"
      d="M466.263 74.1394C467.262 74.1394 468.22 73.7425 468.927 73.0361C469.633 72.3298 470.03 71.3717 470.03 70.3727C470.03 69.3738 469.633 68.4157 468.927 67.7093C468.22 67.0029 467.262 66.6061 466.263 66.6061H455.771V79.1974H458.085V68.6534H466.264C466.707 68.6646 467.126 68.851 467.431 69.1715C467.736 69.4921 467.901 69.9206 467.89 70.3629C467.88 70.791 467.706 71.1987 467.403 71.5015C467.1 71.8043 466.693 71.9788 466.264 71.9889H459.697L467.122 79.1469H470.085L464.757 74.034L466.263 74.1437V74.1394Z"
      fill="white"
    />
<path
      fill-rule="evenodd"
      clip-rule="evenodd"
      d="M533.584 66.501C533.291 66.4943 533.008 66.6039 532.796 66.8059C532.584 67.0079 532.461 67.2858 532.454 67.5785V67.6311C532.454 67.7794 532.483 67.9262 532.54 68.0633C532.596 68.2003 532.679 68.3248 532.784 68.4298C532.889 68.5347 533.013 68.618 533.15 68.6748C533.287 68.7317 533.434 68.7611 533.582 68.7612C533.73 68.7614 533.877 68.7323 534.014 68.6756C534.151 68.6189 534.276 68.5358 534.381 68.4309C534.486 68.3261 534.569 68.2016 534.626 68.0645C534.683 67.9275 534.712 67.7806 534.712 67.6322C534.712 67.3327 534.593 67.0455 534.381 66.8338C534.169 66.6221 533.881 66.5032 533.582 66.5032L533.584 66.501ZM533.584 68.5462C533.341 68.5462 533.109 68.4498 532.937 68.2782C532.766 68.1066 532.669 67.8738 532.669 67.6311C532.669 67.3884 532.766 67.1557 532.937 66.9841C533.109 66.8125 533.341 66.7161 533.584 66.7161C533.826 66.7163 534.058 66.8125 534.229 66.9834C534.4 67.1544 534.496 67.3861 534.496 67.6278C534.505 67.8594 534.422 68.0852 534.266 68.256C534.109 68.4268 533.891 68.5287 533.66 68.5396H533.585L533.584 68.5462Z"
      fill="white"
    />
<path
      d="M192.903 252.961V196.534C192.903 192.288 191.785 188.116 189.661 184.439C187.537 180.762 184.483 177.709 180.805 175.586L131.91 147.364C128.232 145.241 124.061 144.124 119.815 144.124C115.569 144.124 111.397 145.241 107.72 147.364L58.8559 175.577C55.1791 177.701 52.1259 180.755 50.0033 184.432C47.8808 188.109 46.7635 192.28 46.7637 196.526V252.961C46.7635 257.206 47.8808 261.378 50.0033 265.055C52.1259 268.732 55.1791 271.786 58.8559 273.909L107.731 302.125C111.408 304.247 115.579 305.365 119.825 305.365C124.07 305.365 128.241 304.247 131.918 302.125L180.811 273.906C184.487 271.783 187.54 268.73 189.663 265.054C191.786 261.377 192.903 257.206 192.903 252.961Z"
      fill="#6796DE"
    />
<path
      d="M117 191.974C117.859 191.475 118.835 191.212 119.829 191.212C120.823 191.212 121.799 191.475 122.658 191.974C131.294 196.857 139.951 201.742 148.629 206.629C149.444 207.085 150.122 207.749 150.595 208.555C151.067 209.36 151.317 210.276 151.317 211.21V240.632C151.3 241.606 151.02 242.558 150.506 243.387C149.993 244.215 149.265 244.89 148.4 245.339C139.761 250.221 131.199 255.046 122.549 259.942C121.67 260.442 120.671 260.69 119.661 260.659C118.65 260.628 117.668 260.318 116.822 259.765C114.259 258.276 111.64 256.787 109.091 255.298C108.515 255.066 108.004 254.697 107.602 254.224C107.96 253.806 108.496 253.749 108.974 253.508C110.039 253.152 111.059 252.672 112.012 252.076C112.133 252.012 112.27 251.984 112.407 251.995C112.544 252.006 112.675 252.055 112.785 252.137C114.99 253.385 117.192 254.699 119.397 255.948C119.872 256.234 120.35 255.887 120.768 255.661C129.227 250.889 137.685 246.104 146.143 241.307C146.289 241.222 146.409 241.1 146.493 240.954C146.576 240.808 146.62 240.642 146.619 240.474V211.408C146.642 211.22 146.602 211.03 146.505 210.868C146.407 210.705 146.257 210.581 146.08 210.514C137.502 205.687 128.901 200.842 120.278 195.98C120.135 195.864 119.956 195.8 119.772 195.8C119.587 195.8 119.408 195.864 119.265 195.98C110.675 200.819 102.11 205.687 93.5314 210.514C93.3589 210.587 93.2139 210.713 93.1172 210.874C93.0205 211.034 92.9771 211.221 92.9931 211.408V240.537C92.9805 240.707 93.0189 240.878 93.1036 241.026C93.1883 241.175 93.3154 241.294 93.4685 241.37C95.7306 242.682 98.0498 243.99 100.378 245.244C101.015 245.632 101.725 245.884 102.464 245.987C103.202 246.089 103.954 246.039 104.673 245.84C105.29 245.609 105.822 245.194 106.195 244.65C106.568 244.107 106.764 243.461 106.757 242.802V213.85C106.753 213.76 106.767 213.67 106.798 213.585C106.829 213.499 106.876 213.421 106.937 213.355C106.999 213.288 107.072 213.234 107.155 213.197C107.237 213.159 107.326 213.138 107.416 213.134H110.809C110.995 213.13 111.176 213.201 111.311 213.329C111.445 213.458 111.523 213.635 111.528 213.821C111.528 213.85 111.528 213.879 111.528 213.907V243.097C111.595 244.415 111.311 245.728 110.704 246.9C110.098 248.073 109.19 249.062 108.075 249.768C106.586 250.467 104.955 250.809 103.311 250.768C101.666 250.727 100.055 250.303 98.6025 249.531C96.0999 248.279 93.6603 246.791 91.2178 245.422C90.3605 244.964 89.6392 244.287 89.1269 243.461C88.6146 242.635 88.3293 241.689 88.2999 240.717V211.293C88.2936 210.336 88.5519 209.395 89.046 208.575C89.5401 207.755 90.251 207.088 91.1004 206.646C99.7851 201.744 108.364 196.859 117 191.974Z"
      fill="white"
    />
<path
      d="M124.505 212.348C128.305 211.858 132.167 212.454 135.643 214.066C136.905 214.826 137.947 215.901 138.667 217.186C139.387 218.471 139.761 219.92 139.752 221.393C139.701 221.572 139.591 221.728 139.439 221.836C139.288 221.944 139.105 221.998 138.919 221.989H135.643C135.43 221.98 135.23 221.888 135.085 221.732C134.94 221.576 134.863 221.368 134.87 221.155C134.74 220.444 134.46 219.768 134.049 219.172C133.638 218.577 133.105 218.076 132.485 217.702C130.405 216.88 128.162 216.553 125.934 216.749C124.284 216.687 122.651 217.101 121.229 217.94C120.73 218.318 120.362 218.844 120.18 219.443C119.998 220.043 120.011 220.684 120.215 221.276C120.573 222.109 121.527 222.349 122.3 222.647C126.827 223.838 131.652 223.721 136.062 225.267C137.021 225.533 137.907 226.014 138.651 226.674C139.396 227.335 139.979 228.158 140.357 229.079C140.787 230.38 140.886 231.768 140.647 233.117C140.407 234.467 139.836 235.736 138.985 236.81C137.416 238.444 135.374 239.545 133.147 239.959C130.246 240.554 127.269 240.675 124.33 240.317C121.513 240.167 118.813 239.148 116.599 237.4C115.72 236.596 115.029 235.609 114.576 234.507C114.123 233.406 113.919 232.218 113.979 231.028C113.995 230.839 114.085 230.664 114.23 230.541C114.375 230.418 114.563 230.358 114.752 230.373H118.028C118.232 230.376 118.426 230.459 118.57 230.603C118.715 230.747 118.797 230.942 118.801 231.146C118.861 231.825 119.055 232.486 119.372 233.089C119.689 233.693 120.123 234.227 120.648 234.662C122.987 235.832 125.612 236.308 128.213 236.034C130.386 236.192 132.553 235.649 134.395 234.485C134.831 234.073 135.15 233.553 135.318 232.977C135.485 232.401 135.496 231.79 135.348 231.209C135.108 230.256 134.037 229.777 133.198 229.491C128.731 228.059 123.846 228.597 119.437 226.988C118.511 226.705 117.656 226.23 116.927 225.593C116.199 224.956 115.613 224.173 115.207 223.294C114.702 221.975 114.574 220.54 114.837 219.152C115.099 217.763 115.743 216.475 116.696 215.432C118.905 213.607 121.632 212.524 124.491 212.336L124.505 212.348Z"
      fill="white"
    />
</g>
<path
    d="M387.463 679.412L387.569 917H482.03L489.286 679.412H387.463Z"
    fill="#5E6A8A"
  />
<path
    d="M592.416 679.412L592.31 917H497.849L490.592 679.412H592.416Z"
    fill="#5E6A8A"
  />
<path d="M540.567 678.792H443.314V744.844H540.567V678.792Z" fill="#5E6A8A" />
<path
    d="M456.906 744.844H523.975"
    stroke="#282828"
    stroke-width="1.4"
    stroke-linecap="round"
    stroke-linejoin="round"
  />
<path
    d="M651.36 512.874C657.183 577.294 651.044 624.246 652.745 742.792L596.621 745.142L588.255 523.24L651.36 512.874Z"
    fill="url(#paint0_linear_0_1)"
  />
<path
    d="M595.166 563.141C595.166 563.141 629.928 559.966 653.693 544.286L653.062 530.483L595.184 538.376L595.166 563.141Z"
    fill="#91A9E7"
  />
<path
    d="M539.392 364.53C539.392 364.53 649.887 392.312 669.811 532.465C669.811 532.465 615.774 555.897 561.614 545.813L573.803 498.949L539.392 364.53Z"
    fill="#F8F9FE"
  />
<path
    d="M209.555 422.812L291.777 519.907L266.609 590.765C266.609 590.765 204.118 503.894 176.038 436.738L209.555 422.812Z"
    fill="#D0DDFF"
  />
<path
    d="M212.256 426.319C212.256 426.319 183.387 442.631 176.038 436.737C163.2 426.425 152.606 388.681 152.606 388.681C152.606 388.681 206.556 368.248 206.083 369.125C205.609 370.002 212.256 426.319 212.256 426.319Z"
    fill="#D0DDFF"
  />
<path
    d="M212.256 426.32C211.747 423.408 222.955 392.066 226.796 380.298C226.999 379.598 227.051 378.864 226.95 378.143C226.849 377.422 226.596 376.73 226.209 376.114C225.821 375.497 225.307 374.97 224.701 374.567C224.095 374.163 223.41 373.893 222.692 373.773C221.434 373.44 220.103 373.527 218.899 374.021C217.696 374.515 216.687 375.389 216.027 376.509L202.469 399.643L212.256 426.32Z"
    fill="#D0DDFF"
  />
<path
    d="M211.257 392.417L201.961 346.167C201.672 344.67 200.805 343.347 199.548 342.484C198.291 341.621 196.745 341.287 195.244 341.554C193.955 341.77 192.802 342.482 192.031 343.538C191.261 344.593 190.935 345.909 191.122 347.202L195.174 381.648L211.257 392.417Z"
    fill="#D0DDFF"
  />
<path
    d="M192.77 375.369L180.142 342.326C179.626 340.932 178.593 339.79 177.257 339.137C175.922 338.484 174.386 338.37 172.969 338.818C171.777 339.214 170.777 340.043 170.166 341.14C169.556 342.238 169.379 343.525 169.672 344.746L179.037 382.911L192.77 375.369Z"
    fill="#D0DDFF"
  />
<path
    d="M179.212 385.103L163.234 352.639C162.527 351.193 161.297 350.068 159.794 349.492C158.29 348.916 156.624 348.931 155.131 349.534C154.461 349.824 153.855 350.244 153.348 350.769C152.84 351.294 152.442 351.915 152.176 352.595C151.911 353.275 151.782 354.001 151.799 354.731C151.815 355.461 151.976 356.181 152.273 356.848L165.006 387.541L179.212 385.103Z"
    fill="#D0DDFF"
  />
<path
    d="M152.606 388.681L140.066 368.792C139.812 368.255 139.668 367.673 139.641 367.079C139.614 366.486 139.706 365.893 139.91 365.335C140.113 364.777 140.426 364.265 140.829 363.829C141.232 363.393 141.718 363.041 142.258 362.794C143.344 362.316 144.561 362.23 145.703 362.55C146.845 362.87 147.84 363.576 148.52 364.548L165.006 387.348L152.606 388.681Z"
    fill="#D0DDFF"
  />
<path
    d="M208.73 388.944C208.73 388.944 189.911 386.98 187.982 412.061"
    stroke="#282828"
    stroke-width="1.53"
    stroke-linecap="round"
    stroke-linejoin="round"
  />
<path
    d="M249.93 557.669C249.93 557.669 265.399 611.18 296.215 604.059C327.031 596.938 375.052 531.132 375.052 531.132L364.301 418.76L277.817 525.204L249.93 557.669Z"
    fill="#D0DDFF"
  />
<path
    d="M304.651 492.108C304.651 492.108 333.836 536.149 358.759 551.741L375.053 531.15L312.158 482.497L304.651 492.108Z"
    fill="#91A9E7"
  />
<path
    d="M432.405 362.11C432.405 362.11 346.675 381.403 300.986 481.059C300.986 481.059 328.592 522.661 372.895 541.147L402.519 504.841L432.405 362.11Z"
    fill="#F8F9FE"
  />
<path
    d="M432.404 361.794C412.225 372.152 393.814 385.643 377.858 401.765L384.471 693.016H595.499L594.815 403.326C594.815 403.326 568.226 377.298 539.392 364.6C514.907 353.761 456.205 349.587 432.404 361.794Z"
    fill="#F8F9FE"
  />
<path
    d="M502.963 445.016H561.666V474.359C561.666 482.146 558.573 489.613 553.067 495.12C547.561 500.626 540.093 503.719 532.306 503.719C524.522 503.714 517.059 500.619 511.557 495.113C506.054 489.608 502.963 482.143 502.963 474.359V445.016Z"
    stroke="#2C79A4"
    stroke-width="1.4"
    stroke-linecap="round"
    stroke-linejoin="round"
  />
<path
    d="M595.166 546.9L597.902 451.628"
    stroke="#2C79A4"
    stroke-width="1.4"
    stroke-linecap="round"
    stroke-linejoin="round"
  />
<path
    d="M381.103 531.027L376.543 448.436"
    stroke="#2C79A4"
    stroke-width="1.4"
    stroke-linecap="round"
    stroke-linejoin="round"
  />
<path
    d="M434.877 255.421L426.107 211.907C425.616 208.399 424.231 202.874 425.915 197.735C428.703 189.247 438.946 172.9 456.45 180.389L460.238 197.613C460.238 197.613 442.068 201.278 434.772 225.061L434.877 255.421Z"
    fill="#050F2B"
  />
<path
    d="M455.134 189.351C454.819 195.069 449.768 220.097 432.018 229.2C432.018 229.217 416.479 195.893 455.134 189.351Z"
    fill="#282828"
  />
<path
    d="M517.38 353.779V279.888H449.259V353.779L428.967 362.987C428.967 362.987 433.737 393.627 484.039 394.311C534.341 394.995 539.392 364.495 539.392 364.495L517.38 353.779Z"
    fill="#D0DDFF"
  />
<path
    d="M456.416 180.389C456.416 180.389 468.921 147.399 507.471 164.937C530.816 175.461 537.287 189.773 540.129 199.857C541.052 203.708 541.406 207.673 541.181 211.626L531.85 255.473L495.44 194.824L460.204 197.612L456.416 180.389Z"
    fill="#050F2B"
  />
<path
    d="M531.85 255.42C531.85 255.42 536.445 248.107 545.881 251.702C555.317 255.298 551.143 278.309 536.849 281.238C535.253 281.519 533.616 281.453 532.048 281.044C530.48 280.636 529.019 279.894 527.764 278.87C527.764 278.87 531.289 261.875 531.85 255.42Z"
    fill="#91A9E7"
  />
<path
    d="M544.039 259.823C544.039 259.823 536.094 257.175 530.464 268.856"
    stroke="#282828"
    stroke-width="1.4"
    stroke-linecap="round"
    stroke-linejoin="round"
  />
<path
    d="M434.878 255.42C434.878 255.42 430.282 248.107 420.847 251.702C411.411 255.298 415.585 278.309 429.862 281.238C431.457 281.519 433.094 281.453 434.662 281.044C436.23 280.636 437.691 279.894 438.947 278.87C438.947 278.87 435.421 261.875 434.878 255.42Z"
    fill="#91A9E7"
  />
<path
    d="M422.688 259.823C422.688 259.823 430.615 257.175 436.245 268.856"
    stroke="#282828"
    stroke-width="1.4"
    stroke-linecap="round"
    stroke-linejoin="round"
  />
<path
    d="M532.779 233.585C532.779 247.458 531.411 276.467 522.887 293.691C514.89 309.861 501.648 318.578 484.302 319.087C466.956 319.596 454.012 312.913 443.647 291.937C433.281 270.96 433.79 233.848 433.79 233.848C433.79 233.848 433.79 184.3 482.758 184.3C534.323 184.3 532.779 233.585 532.779 233.585Z"
    fill="#D0DDFF"
  />
<path
    d="M449.768 302.267C449.768 302.267 455.468 331.224 480.672 334.556C509.663 338.38 517.381 302.986 517.381 302.986C517.381 302.986 504.577 319.052 484.302 319.069C477.654 319.039 471.098 317.513 465.12 314.605C459.142 311.696 453.895 307.479 449.768 302.267Z"
    fill="#050F2B"
  />
<path
    d="M479.795 254.245V265.716C479.79 266.19 479.88 266.661 480.058 267.101C480.421 267.917 481.066 268.574 481.875 268.951C482.684 269.328 483.602 269.4 484.46 269.153L488.266 268.136"
    stroke="#282828"
    stroke-width="1.4"
    stroke-linecap="round"
    stroke-linejoin="round"
  />
<path
    d="M465.342 248.685C465.345 249.571 465.086 250.437 464.597 251.175C464.107 251.913 463.41 252.489 462.593 252.83C461.776 253.171 460.876 253.262 460.008 253.092C459.139 252.921 458.34 252.496 457.713 251.872C457.086 251.247 456.658 250.45 456.484 249.582C456.31 248.714 456.398 247.814 456.736 246.996C457.074 246.177 457.647 245.478 458.383 244.986C459.119 244.493 459.984 244.231 460.869 244.231C462.052 244.231 463.187 244.699 464.026 245.534C464.864 246.369 465.337 247.502 465.342 248.685Z"
    fill="#282828"
  />
<path
    d="M507.138 248.685C507.141 249.571 506.882 250.437 506.392 251.175C505.903 251.913 505.206 252.489 504.389 252.83C503.572 253.171 502.672 253.262 501.804 253.092C500.935 252.921 500.136 252.496 499.509 251.872C498.882 251.247 498.454 250.45 498.28 249.582C498.106 248.714 498.194 247.814 498.532 246.996C498.87 246.177 499.443 245.478 500.179 244.986C500.915 244.493 501.78 244.231 502.665 244.231C503.848 244.231 504.983 244.699 505.822 245.534C506.66 246.369 507.133 247.502 507.138 248.685Z"
    fill="#282828"
  />
<path
    d="M491.265 226.499L521.239 234.251C521.239 234.251 519.871 225.832 507.611 222.78C495.352 219.729 491.265 226.499 491.265 226.499Z"
    fill="#282828"
  />
<path
    d="M472.639 226.499L442.665 234.251C442.665 234.251 444.033 225.832 456.293 222.78C468.553 219.729 472.639 226.499 472.639 226.499Z"
    fill="#282828"
  />
<path
    d="M466.675 277.186C466.675 277.186 471.095 280.571 482.723 280.571C488.625 280.704 494.484 279.549 499.894 277.186"
    stroke="#282828"
    stroke-width="1.4"
    stroke-linecap="round"
    stroke-linejoin="round"
  />
<path
    d="M459.677 268.925C470.139 268.925 478.619 260.445 478.619 249.983C478.619 239.522 470.139 231.041 459.677 231.041C449.216 231.041 440.735 239.522 440.735 249.983C440.735 260.445 449.216 268.925 459.677 268.925Z"
    stroke="white"
    stroke-width="1.95"
    stroke-miterlimit="10"
  />
<path
    d="M506.209 268.925C516.67 268.925 525.151 260.445 525.151 249.983C525.151 239.522 516.67 231.041 506.209 231.041C495.747 231.041 487.267 239.522 487.267 249.983C487.267 260.445 495.747 268.925 506.209 268.925Z"
    stroke="white"
    stroke-width="1.95"
    stroke-miterlimit="10"
  />
<path
    d="M478.619 249.983C478.619 249.983 483.109 245.792 487.266 249.983"
    stroke="white"
    stroke-width="1.95"
    stroke-miterlimit="10"
  />
<path
    d="M440.735 249.983L434.386 249.826"
    stroke="white"
    stroke-width="1.95"
    stroke-miterlimit="10"
  />
<path
    d="M525.15 249.983L532.236 249.878"
    stroke="white"
    stroke-width="1.95"
    stroke-miterlimit="10"
  />
<path
    d="M449.768 190.492C449.768 190.492 458.871 216.344 499.912 215.555C527.799 215.011 534.463 235.199 534.463 235.199C534.463 235.199 529.605 190.071 528.342 190.492C527.08 190.913 485.898 179.513 485.898 179.513L449.768 190.492Z"
    fill="#050F2B"
  />
<defs>
<linearGradient
      id="paint0_linear_0_1"
      x1="621.092"
      y1="512.874"
      x2="621.092"
      y2="745.142"
      gradientUnits="userSpaceOnUse"
    >
<stop stop-color="#D0DDFF" />
<stop offset="1" stop-color="#D0DDFF" stop-opacity="0" />
</linearGradient>
</defs>
</svg>
