<svg width="312" height="299" viewBox="0 0 312 299" fill="none" xmlns="http://www.w3.org/2000/svg">
<g clip-path="url(#clip0_173_6046)">
<path opacity="0.03" d="M49.0568 298.999C16.3803 298.999 -7.33227 267.562 2.08186 236.296C7.40562 218.615 17.9822 201.363 38.0958 190.899C93.1372 162.264 88.2885 170.116 114.233 121.998C140.178 73.8793 210.495 62.4644 247.341 96.3591C299.454 144.299 264.4 182.491 297.379 215.443C297.723 215.786 298.062 216.132 298.396 216.479C328.194 247.394 305.771 298.999 262.816 298.999H49.0568Z" fill="#292A2E"/>
<path d="M188.543 129.306V103.658H65.874V129.306C65.8753 142.717 70.2778 155.758 78.4067 166.43C86.5355 177.101 97.9424 184.815 110.879 188.39C112.778 188.922 114.45 190.061 115.642 191.631C116.833 193.202 117.478 195.118 117.478 197.089C117.478 199.06 116.833 200.976 115.642 202.547C114.45 204.117 112.778 205.256 110.879 205.788C97.942 209.362 86.5349 217.077 78.4059 227.749C70.277 238.421 65.8748 251.463 65.874 264.874V290.522H188.543V264.874C188.542 251.463 184.139 238.422 176.01 227.75C167.881 217.079 156.475 209.364 143.538 205.79C141.639 205.258 139.966 204.12 138.775 202.549C137.583 200.979 136.938 199.062 136.938 197.091C136.938 195.12 137.583 193.203 138.775 191.633C139.966 190.062 141.639 188.924 143.538 188.392C156.475 184.817 167.881 177.103 176.01 166.432C184.139 155.76 188.542 142.719 188.543 129.307" fill="#367CFF"/>
<path opacity="0.8" d="M188.543 129.306V103.658H65.874V129.306C65.8753 142.717 70.2778 155.758 78.4067 166.43C86.5355 177.101 97.9424 184.815 110.879 188.39C112.778 188.922 114.45 190.061 115.642 191.631C116.833 193.202 117.478 195.118 117.478 197.089C117.478 199.06 116.833 200.976 115.642 202.547C114.45 204.117 112.778 205.256 110.879 205.788C97.942 209.362 86.5349 217.077 78.4059 227.749C70.277 238.421 65.8748 251.463 65.874 264.874V290.522H188.543V264.874C188.542 251.463 184.139 238.422 176.01 227.75C167.881 217.079 156.475 209.364 143.538 205.79C141.639 205.258 139.966 204.12 138.775 202.549C137.583 200.979 136.938 199.062 136.938 197.091C136.938 195.12 137.583 193.203 138.775 191.633C139.966 190.062 141.639 188.924 143.538 188.392C156.475 184.817 167.881 177.103 176.01 166.432C184.139 155.76 188.542 142.719 188.543 129.307" fill="white"/>
<path d="M188.931 290.91H65.4873V264.875C65.5085 251.384 69.9464 238.27 78.1239 227.534C86.3015 216.799 97.7695 209.031 110.778 205.417C112.596 204.907 114.196 203.817 115.336 202.314C116.477 200.811 117.094 198.977 117.094 197.091C117.094 195.205 116.477 193.37 115.336 191.867C114.196 190.364 112.596 189.274 110.778 188.764C97.7697 185.15 86.3018 177.382 78.1243 166.647C69.9468 155.911 65.5087 142.797 65.4873 129.306V103.271H188.931V129.306C188.91 142.797 184.472 155.911 176.295 166.647C168.118 177.382 156.65 185.15 143.642 188.764C141.824 189.274 140.224 190.364 139.084 191.867C137.943 193.37 137.326 195.205 137.326 197.091C137.326 198.977 137.943 200.811 139.084 202.314C140.224 203.817 141.824 204.907 143.642 205.417C156.65 209.032 168.118 216.799 176.295 227.535C184.472 238.27 188.91 251.384 188.931 264.875V290.91ZM66.2638 290.136H188.156V264.875C188.135 251.554 183.753 238.604 175.679 228.004C167.604 217.403 156.281 209.733 143.436 206.163C141.455 205.609 139.71 204.422 138.467 202.784C137.224 201.146 136.551 199.146 136.551 197.091C136.551 195.035 137.224 193.036 138.467 191.397C139.71 189.759 141.455 188.573 143.436 188.018C156.281 184.449 167.604 176.778 175.679 166.178C183.753 155.577 188.135 142.628 188.156 129.306V104.046H66.2623V129.306C66.2834 142.628 70.6657 155.577 78.7404 166.178C86.8151 176.778 98.1389 184.449 110.984 188.018C112.965 188.573 114.71 189.76 115.953 191.398C117.196 193.036 117.868 195.035 117.868 197.091C117.868 199.146 117.196 201.145 115.953 202.783C114.71 204.421 112.965 205.608 110.984 206.163C98.1388 209.732 86.8149 217.403 78.7402 228.003C70.6654 238.604 66.2832 251.553 66.2623 264.875L66.2638 290.136Z" fill="#292A2E"/>
<path d="M195.67 98.9895C195.67 100.21 195.192 101.381 194.339 102.254C193.485 103.126 192.323 103.629 191.102 103.656C191.067 103.658 191.033 103.658 190.997 103.658H63.6285C63.5924 103.658 63.5591 103.658 63.5235 103.656C62.2937 103.628 61.1244 103.118 60.2694 102.234C59.4143 101.35 58.9425 100.166 58.9564 98.9367C58.9702 97.7077 59.4685 96.5338 60.3432 95.6697C61.2179 94.8056 62.3984 94.3211 63.6285 94.3213H190.996C191.609 94.3211 192.217 94.4417 192.784 94.6762C193.351 94.9107 193.866 95.2545 194.3 95.688C194.734 96.1215 195.079 96.6362 195.314 97.2027C195.549 97.7692 195.67 98.3764 195.67 98.9895Z" fill="#292A2E"/>
<path d="M129.376 247.499V192.065C129.329 189.959 129.975 187.896 131.215 186.193C132.455 184.489 134.22 183.239 136.24 182.636C157.945 176.667 178.137 157.213 179.13 134.866C179.182 133.667 178.129 132.878 176.928 132.878H77.4884C76.2872 132.878 75.2344 133.667 75.2871 134.866C76.2794 157.213 96.472 176.667 118.177 182.636C121.249 183.485 125.042 187.246 125.042 192.204V247.503C125.042 251.49 123.539 254.877 120.717 257.696C118.387 260.025 83.3004 290.522 83.3004 290.522H171.117C171.117 290.522 135.706 259.677 133.757 257.727C130.934 254.909 129.376 251.486 129.376 247.499Z" fill="#FAFAFA"/>
<path d="M195.703 293.97C195.704 295.19 195.226 296.362 194.372 297.234C193.518 298.107 192.356 298.61 191.136 298.636C191.1 298.639 191.067 298.639 191.031 298.639H63.6623C63.6266 298.639 63.5933 298.639 63.5576 298.636C62.3279 298.609 61.1587 298.098 60.3036 297.215C59.4486 296.331 58.9768 295.146 58.9905 293.917C59.0043 292.688 59.5026 291.514 60.3772 290.65C61.2518 289.786 62.4323 289.302 63.6623 289.302H191.031C192.27 289.302 193.458 289.794 194.335 290.669C195.211 291.545 195.703 292.732 195.703 293.97Z" fill="#292A2E"/>
<path d="M227.319 298.356C257.393 298.356 281.773 273.996 281.773 243.947C281.773 213.897 257.393 189.537 227.319 189.537C197.246 189.537 172.866 213.897 172.866 243.947C172.866 273.996 197.246 298.356 227.319 298.356Z" fill="white"/>
<path d="M243.204 296.278C214.325 305.028 183.704 288.674 174.945 259.818C166.187 230.962 182.555 200.366 211.434 191.616C240.313 182.866 270.935 199.218 279.692 228.074C288.45 256.93 272.083 287.526 243.204 296.278ZM211.595 192.143C183.008 200.806 166.804 231.093 175.474 259.658C184.145 288.222 214.456 304.413 243.044 295.749C271.631 287.086 287.834 256.799 279.164 228.235C270.494 199.67 240.182 183.479 211.595 192.143Z" fill="#292A2E"/>
<path opacity="0.45" d="M227.319 291.849C253.797 291.849 275.261 270.402 275.261 243.946C275.261 217.49 253.797 196.043 227.319 196.043C200.842 196.043 179.378 217.49 179.378 243.946C179.378 270.402 200.842 291.849 227.319 291.849Z" fill="#367CFF"/>
<path d="M227.319 246.827C228.911 246.827 230.202 245.537 230.202 243.947C230.202 242.356 228.911 241.066 227.319 241.066C225.727 241.066 224.437 242.356 224.437 243.947C224.437 245.537 225.727 246.827 227.319 246.827Z" fill="#292A2E"/>
<path d="M262.855 263.153C262.821 263.163 262.784 263.167 262.748 263.163C262.712 263.16 262.677 263.149 262.645 263.132L227.189 244.189C227.145 244.166 227.108 244.131 227.083 244.088C227.057 244.045 227.043 243.996 227.043 243.946L227.031 216.017C227.031 215.944 227.06 215.874 227.112 215.822C227.164 215.77 227.234 215.741 227.308 215.741C227.381 215.741 227.451 215.77 227.503 215.822C227.555 215.874 227.584 215.944 227.584 216.017L227.596 243.781L262.905 262.646C262.953 262.671 262.993 262.711 263.019 262.759C263.044 262.807 263.055 262.862 263.05 262.916C263.045 262.97 263.023 263.022 262.989 263.064C262.954 263.106 262.908 263.137 262.855 263.153V263.153Z" fill="#292A2E"/>
<path d="M82.9471 165.845C82.9471 165.845 81.8156 171.706 76.3233 172.033C70.831 172.359 72.0221 176.732 72.0221 176.732H93.011V166.253L82.9471 165.845Z" fill="#367CFF"/>
<path d="M94.922 148.214C94.922 148.214 96.496 153.972 91.712 156.687C86.928 159.403 89.9296 162.801 89.9296 162.801L108.762 153.544L104.133 144.142L94.922 148.214Z" fill="#367CFF"/>
<path d="M92.93 152.021L78.7393 98.5195C77.662 92.6091 79.2818 90.0471 81.7803 87.5583C86.1675 83.1859 104.346 73.8796 104.346 73.8796L126.155 73.8203C131.938 73.8203 137.625 79.5181 137.625 85.296C137.625 91.0739 131.746 95.9741 125.961 95.9741L99.1051 98.6538L106.385 147.641L92.93 152.021Z" fill="#262626"/>
<path d="M106.384 147.639L103.518 128.354L88.999 137.203L92.9294 152.02L106.384 147.639Z" fill="#0C0C0C"/>
<path d="M109.676 84.7061C109.676 84.7061 100.508 86.7477 91.4279 95.8201C85.9228 101.321 86.3742 111.275 87.2 130.42L96.2181 117.111L106.109 99.2862L109.676 84.7061Z" fill="#0C0C0C"/>
<path d="M141.419 73.8138L126.609 73.7441L126.603 73.9377H122.118C122.118 73.9377 110.884 84.267 101.84 90.7759C95.2608 95.51 91.2475 100.023 90.9003 104.943C90.0537 116.934 80.5059 168.076 80.5059 168.076L94.8752 170.251L107.485 109.131C107.485 109.131 127.203 100.049 131.764 96.888C136.058 93.9117 139.092 92.761 140.513 89.5129C142.968 83.9042 141.419 73.8138 141.419 73.8138Z" fill="#262626"/>
<path d="M124.803 77.5421L100.775 77.86L114.254 85.9037L125.47 80.1169C125.741 79.972 125.955 79.7404 126.078 79.4594C126.201 79.1785 126.226 78.8643 126.149 78.5674C126.072 78.2705 125.897 78.008 125.653 77.8221C125.409 77.6362 125.11 77.5376 124.803 77.5421Z" fill="#292A2E"/>
<path opacity="0.2" d="M124.803 77.5421L100.775 77.86L114.254 85.9037L125.47 80.1169C125.741 79.972 125.955 79.7404 126.078 79.4594C126.201 79.1785 126.226 78.8643 126.149 78.5674C126.072 78.2705 125.897 78.008 125.653 77.8221C125.409 77.6362 125.11 77.5376 124.803 77.5421Z" fill="white"/>
<path d="M100.913 34.4717L94.1171 56.4745L80.5049 74.2825L88.4566 83.403L104.651 65.3425C105.397 64.7532 105.981 63.9835 106.347 63.1061L106.599 62.4963L115.952 39.8826L100.913 34.4717Z" fill="#367CFF"/>
<path d="M111.382 11.115C111.382 11.115 108.644 9.04977 107.965 4.29594C107.44 0.614999 110.838 2.99965 110.838 2.99965C110.838 2.99965 110.486 0.345907 112.42 0.609191C114.354 0.872475 115.439 3.66057 115.439 3.66057" fill="#0C0C0C"/>
<path d="M122.423 0.919922C122.423 0.919922 132.025 1.94867 128.554 14.9495L127.704 15.0064L125.979 15.1225" fill="#0C0C0C"/>
<path d="M112.99 28.5268C113.032 28.5213 113.501 36.2886 122.531 35.6122C128.783 35.1441 131.012 28.5167 131.155 28.5167C130.481 28.3734 129.649 28.1562 129.317 28.0815C128.596 27.9142 127.942 27.5314 127.444 26.9839C126.946 26.4365 126.626 25.7504 126.527 25.0169C126.344 23.9162 126.655 18.2838 126.559 17.1699L116.963 19.3099C117.097 21.6624 118.035 27.1162 114.746 28.0815C114.199 28.2406 113.609 28.3874 112.99 28.5268Z" fill="#E98862"/>
<path opacity="0.52" d="M116.829 25.8519C116.979 25.3678 117.076 24.8687 117.118 24.3636C117.223 23.211 117.202 22.0503 117.055 20.9022C119.006 20.6388 120.843 19.8339 122.359 18.5791C122.537 19.2373 123.517 22.1098 123.246 22.7347C122.732 23.9176 120.322 25.8519 116.829 25.8519Z" fill="#0C0C0C"/>
<path d="M118.809 24.3145C122.595 23.9753 127.126 21.5852 127.192 16.4504L127.251 11.817C127.316 6.68217 124.67 2.48589 119.831 2.42355C114.993 2.36121 111.323 6.4789 111.258 11.6149L111.231 13.6669C111.235 14.3715 111.287 15.0749 111.386 15.7724C111.635 17.6174 112.019 20.4233 113.273 22.3209C114.455 24.1108 116.391 24.5313 118.809 24.3145Z" fill="#E98862"/>
<path opacity="0.52" d="M117.053 19.6209C116.271 19.6563 115.493 19.5077 114.78 19.1869C114.751 19.1734 114.729 19.1494 114.718 19.1199C114.707 19.0905 114.707 19.0579 114.72 19.0289C114.732 18.9999 114.755 18.9769 114.784 18.9645C114.813 18.9522 114.846 18.9515 114.875 18.9627C116.412 19.6174 117.807 19.5214 118.91 18.6855C118.933 18.6679 118.956 18.6515 118.98 18.6363C119.008 18.6202 119.041 18.6159 119.072 18.6244C119.104 18.6328 119.13 18.6533 119.146 18.6814C119.163 18.7095 119.167 18.7429 119.158 18.7741C119.15 18.8054 119.129 18.832 119.101 18.8481C119.092 18.8535 119.078 18.8648 119.058 18.8799C118.478 19.3209 117.78 19.5789 117.053 19.6209Z" fill="#0C0C0C"/>
<path opacity="0.52" d="M117.089 20.7784C116.948 20.787 116.807 20.7836 116.666 20.7684C116.634 20.765 116.604 20.7489 116.584 20.7238C116.563 20.6986 116.554 20.6664 116.557 20.6342C116.561 20.602 116.577 20.5725 116.602 20.5521C116.627 20.5318 116.659 20.5222 116.692 20.5256C116.913 20.5663 117.14 20.5593 117.359 20.5052C117.577 20.451 117.781 20.3509 117.958 20.2116C117.981 20.1887 118.012 20.1758 118.044 20.1758C118.077 20.1757 118.108 20.1886 118.131 20.2114C118.153 20.2343 118.166 20.2653 118.166 20.2976C118.166 20.33 118.154 20.361 118.131 20.3839C117.84 20.6317 117.472 20.7712 117.089 20.7784Z" fill="#0C0C0C"/>
<path d="M112.855 14.6529C113.184 14.6529 113.451 14.3863 113.451 14.0574C113.451 13.7285 113.184 13.4619 112.855 13.4619C112.526 13.4619 112.259 13.7285 112.259 14.0574C112.259 14.3863 112.526 14.6529 112.855 14.6529Z" fill="#0C0C0C"/>
<path d="M118.678 14.2877C119.007 14.2877 119.274 14.021 119.274 13.6922C119.274 13.3633 119.007 13.0967 118.678 13.0967C118.349 13.0967 118.082 13.3633 118.082 13.6922C118.082 14.021 118.349 14.2877 118.678 14.2877Z" fill="#0C0C0C"/>
<path d="M126.871 18.0111C128.341 18.0301 129.553 16.4732 129.572 15.0038C129.59 13.5345 128.409 12.7094 126.937 12.6904L126.167 13.6673L125.605 17.9972L126.871 18.0111Z" fill="#E98862"/>
<path d="M125.408 15.6503C125.408 15.6503 124.911 8.38439 122.706 7.93565C121.238 7.63675 117.677 9.71669 114.378 9.08945C112.935 8.81455 111.565 9.17154 111.426 9.85259C111.37 10.1236 110.471 6.24676 112.731 3.30534C114.53 0.963659 120.419 0.302351 123.097 1.07052C130.515 3.19654 127.242 13.0089 127.242 13.0089L126.911 15.514L125.408 15.6503Z" fill="#0C0C0C"/>
<g opacity="0.52">
<path d="M116.163 17.9067H116.153C115.68 17.9021 114.885 17.8413 114.889 17.487C114.892 17.1935 115.728 14.0333 115.823 13.674C115.833 13.646 115.854 13.6228 115.881 13.6091C115.907 13.5954 115.938 13.5921 115.967 13.5998C115.996 13.6075 116.021 13.6257 116.038 13.6509C116.054 13.6761 116.06 13.7064 116.055 13.736C115.684 15.1356 115.131 17.2899 115.129 17.4893C115.451 17.6303 115.803 17.6907 116.155 17.6655C116.187 17.6646 116.218 17.6764 116.241 17.6983C116.264 17.7202 116.278 17.7505 116.279 17.7824C116.28 17.8144 116.268 17.8454 116.246 17.8686C116.224 17.8918 116.194 17.9054 116.162 17.9063L116.163 17.9067Z" fill="#0C0C0C"/>
</g>
<path d="M114.546 10.8282C114.048 10.6914 113.522 10.6914 113.025 10.8282C112.78 10.894 112.546 10.996 112.332 11.131C112.12 11.2634 111.926 11.4218 111.754 11.6026C111.722 11.6348 111.704 11.6781 111.703 11.7234C111.702 11.7687 111.719 11.8125 111.75 11.8457C111.781 11.8789 111.823 11.8989 111.869 11.9016C111.914 11.9043 111.958 11.8894 111.993 11.8601L112.003 11.8508C112.163 11.7033 112.34 11.5765 112.53 11.4733C112.718 11.3708 112.92 11.2972 113.129 11.2549C113.541 11.1688 113.969 11.1927 114.369 11.3242L114.386 11.33C114.452 11.3533 114.525 11.3495 114.588 11.3193C114.651 11.2891 114.7 11.2351 114.723 11.1691C114.746 11.1032 114.743 11.0306 114.712 10.9675C114.682 10.9043 114.628 10.8558 114.562 10.8325L114.546 10.8282Z" fill="#0C0C0C"/>
<path d="M118.073 11.1272C118.452 10.9435 118.873 10.8633 119.293 10.8949C119.506 10.9087 119.716 10.9548 119.916 11.0316C120.118 11.1084 120.311 11.2104 120.488 11.3351L120.5 11.3425C120.538 11.3673 120.584 11.3764 120.628 11.3679C120.673 11.3594 120.713 11.3339 120.739 11.2969C120.765 11.2599 120.776 11.2141 120.769 11.1693C120.762 11.1244 120.738 11.084 120.702 11.0564C120.508 10.8999 120.294 10.7686 120.066 10.6657C119.836 10.5605 119.591 10.4904 119.34 10.4578C118.828 10.3882 118.307 10.4581 117.832 10.6599C117.768 10.6877 117.717 10.7399 117.691 10.805C117.666 10.87 117.667 10.9426 117.695 11.0068C117.722 11.071 117.775 11.1215 117.84 11.1472C117.905 11.1729 117.978 11.1717 118.042 11.1439L118.057 11.1369L118.073 11.1272Z" fill="#0C0C0C"/>
<path d="M117.832 3.33837C118.167 1.73752 117.556 0.255572 116.467 0.0283407C115.379 -0.198891 114.225 0.914645 113.89 2.51549C113.556 4.11633 114.167 5.59827 115.255 5.8255C116.344 6.05273 117.497 4.93921 117.832 3.33837Z" fill="#0C0C0C"/>
<path d="M101.771 45.5963C102.055 48.935 104.072 69.7666 104.345 73.8792H141.402C141.616 70.17 142.571 53.9502 143.379 46.6963C144.149 39.7747 145.23 36.6245 144.342 34.4738C142.776 30.6794 137.794 28.9858 134.418 28.5293C132.358 28.2506 129.258 28.0508 129.258 28.0508C129.258 28.0508 128.996 33.3552 122.738 33.6502C114.22 34.0521 114.789 28.0508 114.746 28.0508C113.367 28.0508 105.855 29.0532 103.976 30.2767C102.906 30.9273 102.023 31.8454 101.415 32.9404C100.807 34.0354 100.494 35.2698 100.509 36.5219C100.473 39.0127 101.448 41.8093 101.771 45.5963Z" fill="#367CFF"/>
<path d="M103.65 65.6709C103.624 65.6708 103.598 65.6608 103.579 65.643C103.559 65.6252 103.547 65.6007 103.545 65.5745L102.141 49.53C102.14 49.5161 102.141 49.502 102.145 49.4886C102.149 49.4751 102.156 49.4627 102.165 49.4518C102.174 49.441 102.185 49.4321 102.197 49.4256C102.209 49.419 102.223 49.4151 102.237 49.4139C102.251 49.4121 102.265 49.4133 102.279 49.4173C102.292 49.4212 102.305 49.4279 102.316 49.4369C102.327 49.4459 102.336 49.457 102.342 49.4695C102.348 49.4821 102.352 49.4958 102.353 49.5099L103.757 65.5543C103.759 65.5681 103.757 65.5821 103.753 65.5953C103.749 65.6085 103.742 65.6208 103.733 65.6314C103.724 65.642 103.713 65.6507 103.701 65.6571C103.689 65.6635 103.675 65.6674 103.661 65.6685L103.65 65.6709Z" fill="#0C0C0C"/>
<path d="M106.336 74.9902L111.425 70.8652L110.569 71.1072C110.291 71.1797 109.995 71.1441 109.743 71.0075C109.49 70.871 109.298 70.6437 109.207 70.3715C109.165 70.2294 109.152 70.0802 109.169 69.933C109.187 69.7858 109.234 69.6436 109.308 69.5152C109.382 69.3868 109.482 69.2749 109.601 69.1862C109.719 69.0975 109.855 69.0339 109.999 68.9994L120.689 66.4014L121.608 69.8039C121.894 70.8605 121.857 71.9781 121.502 73.0136C121.148 74.0491 120.492 74.9552 119.619 75.6159L115.658 78.6023C115.455 78.7615 115.204 78.8458 114.946 78.8409C114.688 78.836 114.44 78.7423 114.243 78.5755C114.069 78.4212 113.949 78.2153 113.9 77.9878C113.851 77.7603 113.876 77.5231 113.972 77.311C113.96 77.3075 113.948 77.3016 113.938 77.2935C113.928 77.2854 113.92 77.2754 113.914 77.264C113.908 77.2526 113.904 77.2401 113.903 77.2273C113.902 77.2145 113.904 77.2016 113.908 77.1894L113.178 77.7419C112.953 77.9198 112.668 78.0056 112.382 77.9818C112.096 77.958 111.829 77.8265 111.636 77.6138C111.47 77.4178 111.379 77.1696 111.378 76.913C111.377 76.6563 111.467 76.4076 111.632 76.2106C111.62 76.2088 111.609 76.205 111.599 76.1994L111.299 76.4263C111.097 76.5854 110.845 76.6696 110.587 76.6646C110.329 76.6597 110.081 76.5659 109.885 76.3992C109.673 76.212 109.542 75.9502 109.519 75.6686C109.497 75.3871 109.584 75.1077 109.763 74.8892C109.759 74.8829 109.756 74.8763 109.753 74.8694L107.634 76.587C107.529 76.6721 107.408 76.7358 107.279 76.7743C107.149 76.8128 107.013 76.8255 106.879 76.8115C106.744 76.7975 106.614 76.7572 106.495 76.6928C106.376 76.6284 106.271 76.5413 106.185 76.4364C106.1 76.3314 106.036 76.2107 105.998 76.0812C105.959 75.9516 105.947 75.8158 105.961 75.6813C105.975 75.5469 106.015 75.4165 106.079 75.2977C106.144 75.1788 106.231 75.0738 106.336 74.9887L106.336 74.9902Z" fill="#E98862"/>
<path opacity="0.2" d="M109.882 74.9317C109.894 74.9276 109.904 74.9216 109.913 74.9139L111.952 73.2219C111.972 73.2043 111.985 73.1795 111.987 73.1528C111.989 73.1262 111.981 73.0997 111.963 73.0791C111.946 73.0585 111.922 73.0454 111.895 73.0426C111.869 73.0397 111.842 73.0474 111.821 73.0639L109.782 74.7563C109.763 74.7717 109.751 74.7932 109.747 74.8169C109.742 74.8406 109.747 74.8651 109.759 74.886C109.771 74.9069 109.79 74.9229 109.812 74.9313C109.835 74.9396 109.86 74.9398 109.882 74.9317Z" fill="#0A0A0A"/>
<path opacity="0.2" d="M111.68 76.2098C111.691 76.2057 111.701 76.1999 111.71 76.1927L113.323 74.8763C113.342 74.8587 113.354 74.8342 113.357 74.8078C113.359 74.7815 113.35 74.7554 113.334 74.735C113.317 74.7145 113.293 74.7013 113.267 74.698C113.241 74.6948 113.214 74.7018 113.193 74.7176L111.58 76.034C111.562 76.0494 111.549 76.0707 111.545 76.0944C111.54 76.1181 111.544 76.1426 111.556 76.1635C111.568 76.1845 111.587 76.2006 111.61 76.209C111.632 76.2175 111.657 76.2177 111.68 76.2098Z" fill="#0A0A0A"/>
<path opacity="0.2" d="M114.039 77.3143C114.051 77.3101 114.062 77.3038 114.071 77.2957L114.819 76.6553C114.829 76.6465 114.837 76.6358 114.843 76.6238C114.849 76.6118 114.853 76.5988 114.854 76.5854C114.855 76.572 114.853 76.5585 114.849 76.5458C114.845 76.533 114.838 76.5212 114.829 76.5111C114.82 76.5009 114.81 76.4925 114.798 76.4865C114.786 76.4805 114.773 76.4769 114.759 76.4759C114.746 76.4749 114.732 76.4765 114.72 76.4807C114.707 76.485 114.695 76.4916 114.685 76.5004L113.938 77.1404C113.92 77.1561 113.908 77.1775 113.904 77.2011C113.9 77.2247 113.904 77.2489 113.916 77.2695C113.928 77.2902 113.947 77.306 113.97 77.3142C113.992 77.3225 114.017 77.3226 114.039 77.3147V77.3143Z" fill="#0A0A0A"/>
<path d="M151.308 64.8872L151.269 64.7137L144.506 34.8232L131.125 37.8456L136.404 61.1787L115.255 66.3701L117.857 78.2953L146.04 72.9235C146.104 72.9108 146.195 72.8918 146.261 72.8775C147.117 72.6841 147.927 72.324 148.645 71.8177C149.362 71.3115 149.972 70.669 150.441 69.927C150.91 69.185 151.227 68.358 151.376 67.4932C151.525 66.6285 151.501 65.7429 151.308 64.8872Z" fill="#367CFF"/>
<path d="M115.152 66.3918C115.146 66.3651 115.151 66.3373 115.165 66.3142C115.18 66.2911 115.203 66.2745 115.229 66.2679L136.283 61.1017L132.859 45.9939C132.853 45.9666 132.858 45.938 132.873 45.9144C132.888 45.8907 132.912 45.874 132.939 45.8678C132.966 45.8617 132.995 45.8666 133.019 45.8815C133.042 45.8964 133.059 45.9201 133.065 45.9474L136.511 61.1559C136.518 61.1829 136.513 61.2111 136.498 61.2347C136.484 61.2582 136.461 61.2751 136.434 61.2817L115.379 66.4483C115.379 66.4483 115.52 67.0632 115.56 67.2695C115.562 67.296 115.554 67.3223 115.537 67.3428C115.52 67.3634 115.496 67.3766 115.469 67.3797C115.443 67.3828 115.416 67.3755 115.395 67.3595C115.374 67.3434 115.36 67.3198 115.356 67.2935C115.307 67.0674 115.152 66.3918 115.152 66.3918Z" fill="#0C0C0C"/>
<path d="M115.977 83.0419L107.845 58.0686C107.703 57.6297 107.424 57.2473 107.051 56.976C106.677 56.7048 106.227 56.5587 105.765 56.5586H72.639C72.2937 56.5585 71.9533 56.6402 71.6456 56.7968C71.3379 56.9534 71.0717 57.1806 70.8687 57.4598C70.6658 57.739 70.5319 58.0622 70.478 58.403C70.4241 58.7438 70.4517 59.0925 70.5586 59.4206L78.6897 84.3939C78.8324 84.8329 79.1106 85.2154 79.4844 85.4867C79.8581 85.758 80.3082 85.904 80.7701 85.9039H113.896C114.242 85.9038 114.582 85.8221 114.89 85.6654C115.197 85.5087 115.463 85.2815 115.666 85.0024C115.869 84.7233 116.003 84.4001 116.057 84.0594C116.111 83.7186 116.083 83.3699 115.977 83.0419Z" fill="#292A2E"/>
<path opacity="0.2" d="M115.977 83.0419L107.845 58.0686C107.703 57.6297 107.424 57.2473 107.051 56.976C106.677 56.7048 106.227 56.5587 105.765 56.5586H72.639C72.2937 56.5585 71.9533 56.6402 71.6456 56.7968C71.3379 56.9534 71.0717 57.1806 70.8687 57.4598C70.6658 57.739 70.5319 58.0622 70.478 58.403C70.4241 58.7438 70.4517 59.0925 70.5586 59.4206L78.6897 84.3939C78.8324 84.8329 79.1106 85.2154 79.4844 85.4867C79.8581 85.758 80.3082 85.904 80.7701 85.9039H113.896C114.242 85.9038 114.582 85.8221 114.89 85.6654C115.197 85.5087 115.463 85.2815 115.666 85.0024C115.869 84.7233 116.003 84.4001 116.057 84.0594C116.111 83.7186 116.083 83.3699 115.977 83.0419Z" fill="white"/>
<path d="M92.3131 74.7027C94.2319 74.7027 95.7874 73.1485 95.7874 71.2312C95.7874 69.314 94.2319 67.7598 92.3131 67.7598C90.3943 67.7598 88.8389 69.314 88.8389 71.2312C88.8389 73.1485 90.3943 74.7027 92.3131 74.7027Z" fill="white"/>
</g>
<defs>
<clipPath id="clip0_173_6046">
<rect width="312" height="299" fill="white"/>
</clipPath>
</defs>
</svg>
