<svg width="493" height="337" viewBox="0 0 493 337" fill="none" xmlns="http://www.w3.org/2000/svg">
<g clip-path="url(#clip0_114_2680)">
<path d="M34.9967 184.511L0.00830078 285.156L149.491 337.008L184.48 236.363L34.9967 184.511Z" fill="#3157DB" fill-opacity="0.26"/>
<path d="M184.462 236.356C183.873 236.7 183.252 236.985 182.608 237.209L177.181 239.41L157.113 247.295L90.5225 272.713L89.9788 272.917L89.6584 272.422L88.9011 271.219L50.4844 210.065L38.9992 191.445C37.7047 189.324 36.6821 187.624 35.9313 186.344C35.5445 185.768 35.2191 185.154 34.9604 184.511C35.4308 185.032 35.8501 185.597 36.2129 186.198L39.504 191.154L51.3873 209.58L90.1147 270.511L90.872 271.714L90.0176 271.423L156.754 246.325L176.987 238.906L182.511 236.967C183.14 236.699 183.793 236.495 184.462 236.356V236.356Z" fill="#E0E0E0"/>
<path d="M-3.07057e-05 285.116C-0.20391 284.777 15.8346 274.875 35.8148 263.015C55.795 251.154 72.1636 241.796 72.3675 242.145C72.5714 242.494 56.5425 252.376 36.5526 264.247C16.5628 276.117 0.203849 285.495 -3.07057e-05 285.116Z" fill="#E0E0E0"/>
<path d="M122.493 258.157C122.872 258.031 129.221 275.613 136.667 297.346C144.114 319.079 149.861 336.874 149.483 337C149.104 337.126 142.764 319.593 135.308 297.811C127.852 276.03 122.124 258.283 122.493 258.157Z" fill="#E0E0E0"/>
<path d="M476.118 158.34L328.202 183.384L345.101 282.976L493.017 257.933L476.118 158.34Z" fill="#3157DB" fill-opacity="0.26"/>
<path d="M476.107 158.375C475.773 158.931 475.386 159.454 474.952 159.937L471.447 164.233L458.35 179.904L414.662 231.4L414.302 231.827L413.807 231.555L412.613 230.905L352.789 197.564L334.731 187.323L329.877 184.482C329.289 184.179 328.733 183.818 328.217 183.405C328.839 183.63 329.44 183.909 330.013 184.239L335.013 186.858L353.275 196.721L413.293 229.693L414.468 230.343L413.623 230.498L457.651 179.264C463.243 172.844 467.806 167.627 471.078 163.874L474.777 159.733C475.177 159.24 475.622 158.785 476.107 158.375Z" fill="#EBEBEB"/>
<path d="M345.091 283.002C344.76 282.808 353.566 267.272 364.75 248.303C375.935 229.334 385.274 214.109 385.604 214.303C385.934 214.497 377.119 230.023 365.925 249.002C354.731 267.98 345.411 283.177 345.091 283.002Z" fill="#EBEBEB"/>
<path d="M434.554 204.731C434.807 204.459 448.098 216.145 464.233 230.847C480.369 245.549 493.252 257.681 493 258.001C492.747 258.321 479.456 246.587 463.321 231.885C447.185 217.183 434.302 205.012 434.554 204.731Z" fill="#EBEBEB"/>
<path d="M76 42.9043L95.5317 96.9517L175.763 67.8894L156.231 13.842L76 42.9043Z" fill="#3157DB" fill-opacity="0.26"/>
<path d="M156.697 14.3954C156.572 14.7425 156.409 15.0747 156.21 15.3859L154.685 18.1577L148.936 28.2624L129.689 61.541L129.531 61.8135L129.227 61.7129L128.504 61.4717C114.147 56.5632 101.149 52.1315 91.6499 48.8872C87.0117 47.2639 83.2233 45.9441 80.514 44.9911C79.2614 44.5319 78.258 44.1699 77.5043 43.8942C77.1517 43.7902 76.8095 43.6541 76.4819 43.4875C76.8514 43.5474 77.2145 43.6412 77.5667 43.7678L80.6287 44.7267L91.8195 48.3601L128.768 60.7496L129.496 60.9965L129.034 61.1684L148.48 28.0001L154.439 18.0173L156.053 15.2891C156.245 14.9752 156.46 14.6764 156.697 14.3954V14.3954Z" fill="#E0E0E0"/>
<path d="M96.0045 97.516C95.8081 97.4439 99.1618 87.8454 103.496 76.0872C107.83 64.329 111.518 54.8548 111.715 54.9269C111.911 54.999 108.563 64.5924 104.223 76.3557C99.883 88.119 96.2009 97.5881 96.0045 97.516Z" fill="#E0E0E0"/>
<path d="M138.143 44.5836C138.253 44.4058 146.877 49.6047 157.41 56.2058C167.943 62.807 176.365 68.2864 176.25 68.4693C176.135 68.6521 167.509 63.3934 156.983 56.847C146.457 50.3007 138.028 44.7665 138.143 44.5836Z" fill="#E0E0E0"/>
<path d="M132.561 162.914L361.556 161.256L367.944 316.77L130.823 314.578L132.561 162.914Z" fill="#557FBE"/>
<path d="M132.561 162.924L240.937 75.3136C243.164 73.5158 245.943 72.54 248.806 72.5506C251.67 72.5612 254.442 73.5576 256.655 75.3718L361.556 161.256" fill="white"/>
<g opacity="0.3">
<path d="M132.561 162.924L240.937 75.3136C243.164 73.5158 245.943 72.54 248.806 72.5506C251.67 72.5612 254.442 73.5576 256.655 75.3718L361.556 161.256" fill="#0066FF"/>
</g>
<path d="M130.823 314.578C130.541 314.307 148.871 294.31 171.763 269.92C194.656 245.53 213.51 225.969 213.743 226.28C213.976 226.59 195.705 246.538 172.802 270.89C149.9 295.241 131.065 314.84 130.823 314.578Z" fill="#6C88D0"/>
<path d="M367.954 316.77C367.663 317.032 349.809 297.442 328.09 273.023C306.372 248.604 288.975 228.588 289.256 228.326C289.538 228.064 307.392 247.654 329.129 272.082C350.867 296.511 368.235 316.508 367.954 316.77Z" fill="#6C88D0"/>
<g opacity="0.5">
<path d="M361.556 161.256L246.568 253.017L132.561 162.914" fill="#4F78A8"/>
</g>
<path d="M144.094 171.41L143.735 99.9753L344.245 97.5994L346.508 172.777L246.558 251.814L144.094 171.41Z" fill="#FAFAFA"/>
<path d="M144.094 171.41C144.094 171.41 144.745 171.895 145.978 172.855L151.415 177.083L172.104 193.249L246.685 251.65H246.423L346.353 172.622L346.265 172.826C345.828 158.482 345.372 143.441 344.916 128.138C344.605 117.829 344.304 107.646 344.003 97.6576L344.256 97.9L143.735 100.179L143.9 100.014C143.978 122.494 144.036 140.347 144.085 152.586C144.085 158.706 144.085 163.419 144.085 166.609C144.085 168.2 144.085 169.402 144.085 170.227C144.085 171.051 144.085 171.458 144.085 171.458C144.085 171.458 144.085 171.051 144.085 170.246C144.085 169.441 144.085 168.229 144.085 166.648C144.085 163.457 144.026 158.754 143.978 152.644C143.891 140.386 143.774 122.523 143.628 100.024V99.859H143.793L344.304 97.3958H344.556V97.6479C344.857 107.627 345.168 117.81 345.527 128.119C345.984 143.431 346.44 158.473 346.867 172.816V172.942L346.77 173.02L246.772 252.028L246.646 252.125L246.51 252.028L171.909 193.375L151.298 177.141L145.92 172.884C144.706 171.914 144.094 171.41 144.094 171.41Z" fill="#263238"/>
<path d="M312.557 133.568C312.557 133.714 281.897 134.015 244.073 134.238C206.248 134.461 175.589 134.548 175.579 134.402C175.569 134.257 206.239 133.966 244.073 133.733C281.907 133.501 312.557 133.433 312.557 133.568Z" fill="#263238"/>
<path d="M312.557 153.749C312.557 153.895 281.897 154.195 244.073 154.418C206.248 154.642 175.589 154.719 175.579 154.583C175.569 154.448 206.239 154.147 244.073 153.914C281.907 153.681 312.557 153.614 312.557 153.749Z" fill="#263238"/>
<path d="M312.557 177.015C312.557 177.15 281.897 177.451 244.073 177.684C206.248 177.916 175.589 177.984 175.579 177.839C175.569 177.693 206.239 177.403 244.073 177.179C281.907 176.956 312.557 176.869 312.557 177.015Z" fill="#263238"/>
<path d="M312.557 200.27C312.557 200.406 283.305 200.697 247.228 200.92C211.151 201.143 181.88 201.201 181.88 201.065C181.88 200.929 211.132 200.629 247.218 200.415C283.305 200.202 312.557 200.134 312.557 200.27Z" fill="#263238"/>
<path d="M286.917 220.684C286.65 220.728 286.381 220.747 286.111 220.742L283.81 220.8L275.334 220.946L247.393 221.343C236.471 221.528 226.588 221.586 219.432 221.595H210.957H208.656C208.388 221.616 208.118 221.616 207.85 221.595C208.116 221.551 208.386 221.532 208.656 221.537L210.957 221.479L219.432 221.334L247.383 220.936C258.296 220.752 268.179 220.694 275.334 220.684H283.81H286.111C286.379 220.661 286.648 220.661 286.917 220.684V220.684Z" fill="#263238"/>
<path d="M261.102 240.312C261.102 240.448 254.568 240.565 246.539 240.565C238.51 240.565 231.976 240.448 231.976 240.312C231.976 240.177 238.51 240.06 246.539 240.06C254.568 240.06 261.102 240.167 261.102 240.312Z" fill="#263238"/>
<path d="M328.595 224.466C341.973 224.466 352.818 213.633 352.818 200.27C352.818 186.907 341.973 176.074 328.595 176.074C315.217 176.074 304.373 186.907 304.373 200.27C304.373 213.633 315.217 224.466 328.595 224.466Z" fill="#CD3413"/>
<path d="M322.285 224.466C335.663 224.466 346.508 213.633 346.508 200.27C346.508 186.907 335.663 176.074 322.285 176.074C308.907 176.074 298.062 186.907 298.062 200.27C298.062 213.633 308.907 224.466 322.285 224.466Z" fill="#F9441C"/>
<path d="M325.372 189.011V209.124H321.625V192.143H317.373V189.011H325.372Z" fill="white"/>
</g>
<defs>
<clipPath id="clip0_114_2680">
<rect width="493" height="337" fill="white"/>
</clipPath>
</defs>
</svg>
