<svg width="324" height="302" viewBox="0 0 324 302" fill="none" xmlns="http://www.w3.org/2000/svg">
<g clip-path="url(#clip0_201_40219)">
<path d="M279.772 217.329C271.471 217.329 263.345 214.932 256.372 210.427L255.078 209.672C253.878 208.898 253.034 207.68 252.731 206.285C252.428 204.89 252.69 203.431 253.46 202.229C253.833 201.624 254.324 201.1 254.904 200.689C255.485 200.278 256.142 199.988 256.836 199.837C257.531 199.686 258.249 199.677 258.948 199.81C259.646 199.943 260.31 200.216 260.901 200.612L262.195 201.367C267.433 204.751 273.537 206.548 279.772 206.544C284.127 206.622 288.454 205.841 292.507 204.246C296.56 202.651 300.26 200.274 303.394 197.249C306.528 194.225 309.036 190.612 310.775 186.618C312.513 182.624 313.448 178.327 313.526 173.971C313.604 169.616 312.823 165.288 311.229 161.234C309.634 157.181 307.257 153.481 304.233 150.346C301.209 147.211 297.597 144.703 293.603 142.964C289.61 141.225 285.313 140.29 280.959 140.213H276.753C275.897 140.188 275.06 139.96 274.31 139.547C273.56 139.135 272.919 138.549 272.44 137.84C271.957 137.117 271.655 136.289 271.562 135.425C271.468 134.561 271.584 133.688 271.9 132.878L273.41 128.996C276.813 120.423 278.063 111.147 277.049 101.979C276.035 92.8111 272.79 84.0318 267.596 76.4101C262.402 68.7885 255.419 62.5569 247.258 58.2613C239.097 53.9657 230.007 51.7372 220.785 51.7709C211.981 51.7706 203.301 53.8395 195.443 57.8109L192.64 59.3208C191.965 59.6602 191.227 59.8568 190.472 59.8984C189.718 59.94 188.963 59.8256 188.255 59.5625C187.547 59.2994 186.9 58.8931 186.356 58.3691C185.811 57.845 185.381 57.2144 185.091 56.5166L183.905 53.9281C178.909 41.1866 170.183 30.2509 158.869 22.5529C147.555 14.855 134.18 10.7536 120.496 10.7858C113.659 10.7519 106.858 11.7705 100.33 13.8058C99.0286 14.2989 97.5848 14.2584 96.3127 13.6929C95.0406 13.1274 94.043 12.0828 93.5367 10.7858C93.2505 10.0809 93.1167 9.3234 93.1441 8.56309C93.1715 7.80278 93.3594 7.05687 93.6955 6.37437C94.0316 5.69186 94.5083 5.08821 95.0943 4.60307C95.6802 4.11793 96.3622 3.76228 97.0953 3.55949C104.669 1.18886 112.56 -0.011384 120.496 0.000253136C135.877 -0.0387195 150.932 4.42325 163.809 12.8364C176.685 21.2496 186.819 33.2464 192.963 47.3489C204.912 41.8962 218.195 40.0599 231.174 42.0665C244.154 44.0731 256.263 49.8348 266.008 58.6412C275.753 67.4476 282.708 78.9138 286.016 91.6261C289.325 104.338 288.841 117.741 284.625 130.182C295.829 131.291 306.172 136.683 313.495 145.235C320.819 153.787 324.558 164.838 323.932 176.08C323.306 187.323 318.363 197.89 310.135 205.575C301.907 213.261 291.03 217.472 279.772 217.329Z" fill="#E6F0FD"/>
<path d="M55.5773 217.329C41.6372 217.339 28.203 212.105 17.9423 202.667C7.68171 193.229 1.34512 180.277 0.190827 166.382C-0.963468 152.488 3.14896 138.667 11.7115 127.665C20.274 116.663 32.6604 109.283 46.4111 106.992C41.8705 94.912 40.3517 81.9046 41.9869 69.1029C43.6221 56.3012 48.3617 44.0934 55.793 33.5427C56.6224 32.3556 57.8894 31.5467 59.3151 31.2938C60.7409 31.041 62.2086 31.365 63.3956 32.1945C64.5825 33.0241 65.3913 34.2912 65.6441 35.7172C65.8969 37.1432 65.5729 38.6113 64.7435 39.7984C58.04 49.2862 53.8681 60.3279 52.6226 71.8786C51.3772 83.4293 53.0994 95.1069 57.6262 105.806L59.136 109.365C59.4576 110.148 59.5941 110.995 59.5348 111.84C59.4755 112.685 59.2221 113.504 58.7942 114.235C58.3663 114.966 57.7756 115.588 57.068 116.052C56.3604 116.517 55.555 116.813 54.7146 116.915H50.8325C39.5514 118.273 29.2092 123.872 21.9039 132.577C14.5986 141.281 10.8771 152.439 11.4945 163.786C12.1119 175.134 17.0218 185.822 25.2283 193.682C33.4348 201.542 44.3233 205.986 55.6852 206.112C58.4353 206.133 61.1808 205.88 63.8808 205.357C65.2816 205.105 66.7253 205.417 67.8969 206.225C69.0686 207.033 69.8733 208.272 70.1354 209.671C70.2762 210.358 70.2788 211.067 70.1428 211.755C70.0069 212.444 69.7353 213.098 69.3438 213.681C68.9523 214.263 68.4488 214.761 67.8626 215.147C67.2765 215.533 66.6194 215.798 65.9298 215.927C62.5325 216.728 59.0654 217.198 55.5773 217.329Z" fill="#E6F0FD"/>
<path d="M164.924 302C140.768 302 116.505 299.951 101.408 285.282C96.0699 279.51 91.9755 272.701 89.3784 265.28C86.7813 257.858 85.737 249.982 86.3103 242.14V183.359H70.1347C69.1755 183.372 68.23 183.129 67.396 182.655C66.5619 182.181 65.8694 181.493 65.3898 180.662C64.9367 179.836 64.6992 178.909 64.6992 177.966C64.6992 177.023 64.9367 176.096 65.3898 175.27L97.7411 121.342C98.2381 120.562 98.9235 119.921 99.734 119.476C100.544 119.032 101.454 118.799 102.378 118.799C103.302 118.799 104.212 119.032 105.022 119.476C105.833 119.921 106.518 120.562 107.015 121.342L139.367 175.27C139.857 176.098 140.122 177.041 140.135 178.004C140.147 178.967 139.907 179.916 139.437 180.757C138.968 181.597 138.286 182.3 137.46 182.795C136.634 183.289 135.692 183.558 134.729 183.574H113.162C112.44 183.56 111.727 183.404 111.065 183.115C110.403 182.825 109.805 182.408 109.304 181.887C108.804 181.367 108.41 180.752 108.147 180.079C107.884 179.406 107.756 178.688 107.77 177.966C107.769 177.268 107.91 176.576 108.184 175.934C108.457 175.291 108.858 174.71 109.362 174.227C109.865 173.743 110.462 173.366 111.115 173.119C111.768 172.872 112.464 172.76 113.162 172.789H125.24L102.486 134.284L79.6244 172.573H91.7022C92.3999 172.544 93.0962 172.656 93.7494 172.904C94.4025 173.151 94.9988 173.527 95.5026 174.011C96.0063 174.495 96.407 175.075 96.6805 175.718C96.954 176.361 97.0947 177.052 97.0941 177.75V242.464C96.5598 248.808 97.3373 255.194 99.3781 261.225C101.419 267.255 104.679 272.801 108.956 277.517C124.485 292.724 153.925 291.969 182.394 291.214C188.217 291.214 183.256 291.214 188.756 291.214C190.186 291.214 191.558 291.783 192.569 292.794C193.58 293.805 194.148 295.177 194.148 296.607C194.148 298.037 193.58 299.409 192.569 300.42C191.558 301.432 190.186 302 188.756 302H164.924Z" fill="#E6F0FD"/>
<path d="M221.11 301.995C220.179 302.001 219.263 301.765 218.451 301.311C217.638 300.858 216.957 300.202 216.473 299.407L184.122 245.479C183.668 244.633 183.431 243.688 183.431 242.729C183.431 241.769 183.668 240.824 184.122 239.978C184.608 239.177 185.287 238.511 186.097 238.04C186.907 237.569 187.822 237.308 188.759 237.282H210.326C211.756 237.282 213.128 237.85 214.139 238.861C215.15 239.873 215.718 241.244 215.718 242.675C215.718 244.105 215.15 245.477 214.139 246.488C213.128 247.499 211.756 248.067 210.326 248.067H198.248L221.11 286.14L243.972 248.067H231.894C230.464 248.067 229.092 247.499 228.081 246.488C227.07 245.477 226.502 244.105 226.502 242.675V177.961C227.079 171.847 226.421 165.68 224.569 159.825C222.716 153.971 219.706 148.548 215.718 143.879C201.052 129.426 173.661 129.426 147.349 129.426H134.624C133.916 129.398 133.22 129.231 132.576 128.934C131.933 128.637 131.354 128.216 130.873 127.695C130.393 127.174 130.019 126.564 129.775 125.898C129.53 125.233 129.419 124.526 129.448 123.818C129.557 122.406 130.195 121.088 131.235 120.128C132.275 119.168 133.64 118.636 135.055 118.641C142.496 118.641 139.477 118.641 147.349 118.641C176.034 118.641 205.473 118.641 222.835 136.221C227.933 141.845 231.841 148.442 234.324 155.615C236.807 162.788 237.815 170.389 237.286 177.961V237.282H253.461C254.416 237.29 255.353 237.542 256.184 238.014C257.014 238.486 257.71 239.162 258.206 239.978C258.659 240.824 258.896 241.769 258.896 242.729C258.896 243.688 258.659 244.633 258.206 245.479L225.855 299.407C225.362 300.218 224.663 300.884 223.83 301.338C222.997 301.793 222.059 302.019 221.11 301.995Z" fill="#E6F0FD"/>
<path d="M113.263 237.28C111.833 237.28 110.462 236.712 109.45 235.7C108.439 234.689 107.871 233.317 107.871 231.887V177.959C107.871 176.529 108.439 175.157 109.45 174.146C110.462 173.135 111.833 172.566 113.263 172.566C114.693 172.566 116.064 173.135 117.076 174.146C118.087 175.157 118.655 176.529 118.655 177.959V231.887C118.655 233.317 118.087 234.689 117.076 235.7C116.064 236.712 114.693 237.28 113.263 237.28Z" fill="#E6F0FD"/>
<path d="M210.32 248.068C208.89 248.068 207.518 247.5 206.507 246.488C205.496 245.477 204.928 244.105 204.928 242.675V188.747C204.928 187.317 205.496 185.945 206.507 184.934C207.518 183.923 208.89 183.354 210.32 183.354C211.75 183.354 213.121 183.923 214.132 184.934C215.143 185.945 215.712 187.317 215.712 188.747V242.675C215.712 244.105 215.143 245.477 214.132 246.488C213.121 247.5 211.75 248.068 210.32 248.068Z" fill="#E6F0FD"/>
<path d="M113.263 258.858C116.241 258.858 118.655 256.443 118.655 253.465C118.655 250.487 116.241 248.072 113.263 248.072C110.285 248.072 107.871 250.487 107.871 253.465C107.871 256.443 110.285 258.858 113.263 258.858Z" fill="#E6F0FD"/>
<path d="M210.32 172.572C213.297 172.572 215.712 170.157 215.712 167.179C215.712 164.201 213.297 161.786 210.32 161.786C207.342 161.786 204.928 164.201 204.928 167.179C204.928 170.157 207.342 172.572 210.32 172.572Z" fill="#E6F0FD"/>
<path d="M80.9114 21.5746C83.8893 21.5746 86.3033 19.1602 86.3033 16.1818C86.3033 13.2035 83.8893 10.7891 80.9114 10.7891C77.9336 10.7891 75.5195 13.2035 75.5195 16.1818C75.5195 19.1602 77.9336 21.5746 80.9114 21.5746Z" fill="#E6F0FD"/>
</g>
<defs>
<clipPath id="clip0_201_40219">
<rect width="324" height="302" fill="white"/>
</clipPath>
</defs>
</svg>
