<svg width="324" height="302" viewBox="0 0 324 302" fill="none" xmlns="http://www.w3.org/2000/svg">
<path d="M167.033 181.201C165.698 181.201 164.418 180.671 163.474 179.727C162.53 178.783 162 177.503 162 176.168V115.768C162 114.433 162.53 113.153 163.474 112.209C164.418 111.265 165.698 110.734 167.033 110.734C168.368 110.734 169.649 111.265 170.592 112.209C171.536 113.153 172.067 114.433 172.067 115.768V176.168C172.067 177.503 171.536 178.783 170.592 179.727C169.649 180.671 168.368 181.201 167.033 181.201Z" fill="#E6F0FD"/>
<path d="M146.904 181.204C145.57 181.204 144.289 180.674 143.345 179.73C142.401 178.786 141.871 177.506 141.871 176.171V105.704C141.871 104.369 142.401 103.089 143.345 102.145C144.289 101.201 145.57 100.671 146.904 100.671C148.239 100.671 149.52 101.201 150.464 102.145C151.407 103.089 151.938 104.369 151.938 105.704V176.171C151.938 177.506 151.407 178.786 150.464 179.73C149.52 180.674 148.239 181.204 146.904 181.204Z" fill="#E6F0FD"/>
<path d="M126.758 181.203C125.423 181.203 124.143 180.673 123.199 179.729C122.255 178.785 121.725 177.505 121.725 176.17V110.736C121.725 109.402 122.255 108.121 123.199 107.177C124.143 106.233 125.423 105.703 126.758 105.703C128.093 105.703 129.373 106.233 130.317 107.177C131.261 108.121 131.791 109.402 131.791 110.736V176.17C131.791 177.505 131.261 178.785 130.317 179.729C129.373 180.673 128.093 181.203 126.758 181.203Z" fill="#E6F0FD"/>
<path d="M106.629 181.197C105.294 181.197 104.014 180.666 103.07 179.722C102.126 178.778 101.596 177.498 101.596 176.163V135.897C101.596 134.562 102.126 133.281 103.07 132.338C104.014 131.394 105.294 130.863 106.629 130.863C107.964 130.863 109.244 131.394 110.188 132.338C111.132 133.281 111.662 134.562 111.662 135.897V176.163C111.662 177.498 111.132 178.778 110.188 179.722C109.244 180.666 107.964 181.197 106.629 181.197Z" fill="#E6F0FD"/>
<path d="M86.5021 181.203C85.1672 181.203 83.8869 180.673 82.943 179.729C81.999 178.785 81.4688 177.505 81.4688 176.17V145.97C81.4688 144.635 81.999 143.355 82.943 142.411C83.8869 141.467 85.1672 140.937 86.5021 140.937C87.837 140.937 89.1173 141.467 90.0612 142.411C91.0051 143.355 91.5354 144.635 91.5354 145.97V176.17C91.5354 177.505 91.0051 178.785 90.0612 179.729C89.1173 180.673 87.837 181.203 86.5021 181.203Z" fill="#E6F0FD"/>
<path d="M66.3732 181.204C65.0383 181.204 63.758 180.674 62.8141 179.73C61.8701 178.786 61.3398 177.506 61.3398 176.171V140.938C61.3398 139.603 61.8701 138.322 62.8141 137.379C63.758 136.435 65.0383 135.904 66.3732 135.904C67.7081 135.904 68.9883 136.435 69.9323 137.379C70.8762 138.322 71.4065 139.603 71.4065 140.938V176.171C71.4065 177.506 70.8762 178.786 69.9323 179.73C68.9883 180.674 67.7081 181.204 66.3732 181.204Z" fill="#E6F0FD"/>
<path d="M26.0978 181.198C24.7629 181.198 23.4826 180.668 22.5387 179.724C21.5947 178.78 21.0645 177.5 21.0645 176.165V166.098C21.0645 164.763 21.5947 163.483 22.5387 162.539C23.4826 161.595 24.7629 161.065 26.0978 161.065C27.4327 161.065 28.713 161.595 29.6569 162.539C30.6008 163.483 31.1311 164.763 31.1311 166.098V176.165C31.1311 177.5 30.6008 178.78 29.6569 179.724C28.713 180.668 27.4327 181.198 26.0978 181.198Z" fill="#E6F0FD"/>
<path d="M46.2267 181.203C44.8918 181.203 43.6115 180.673 42.6676 179.729C41.7237 178.785 41.1934 177.505 41.1934 176.17V145.97C41.1934 144.635 41.7237 143.355 42.6676 142.411C43.6115 141.467 44.8918 140.937 46.2267 140.937C47.5616 140.937 48.8419 141.467 49.7858 142.411C50.7297 143.355 51.26 144.635 51.26 145.97V176.17C51.26 177.505 50.7297 178.785 49.7858 179.729C48.8419 180.673 47.5616 181.203 46.2267 181.203Z" fill="#E6F0FD"/>
<path d="M21.0623 145.972C20.4022 145.98 19.7477 145.85 19.1409 145.59C18.5341 145.33 17.9884 144.946 17.539 144.462C17.0575 144.01 16.6737 143.465 16.4114 142.859C16.149 142.253 16.0137 141.599 16.0137 140.939C16.0137 140.279 16.149 139.625 16.4114 139.019C16.6737 138.413 17.0575 137.868 17.539 137.416L57.8056 97.149C58.2575 96.6675 58.8033 96.2837 59.4093 96.0214C60.0153 95.759 60.6686 95.6237 61.329 95.6237C61.9893 95.6237 62.6426 95.759 63.2486 96.0214C63.8546 96.2837 64.4004 96.6675 64.8523 97.149L81.4623 113.658L133.306 61.9156C133.758 61.4341 134.303 61.0504 134.909 60.788C135.515 60.5257 136.169 60.3903 136.829 60.3903C137.489 60.3903 138.143 60.5257 138.749 60.788C139.355 61.0504 139.9 61.4341 140.352 61.9156L161.996 83.4583L208.806 36.749C209.74 35.8145 211.007 35.2896 212.329 35.2896C213.65 35.2896 214.918 35.8145 215.852 36.749C216.787 37.6834 217.312 38.9508 217.312 40.2723C217.312 41.5938 216.787 42.8612 215.852 43.7956L165.519 94.129C165.067 94.6105 164.521 94.9942 163.915 95.2566C163.309 95.5189 162.656 95.6543 161.996 95.6543C161.335 95.6543 160.682 95.5189 160.076 95.2566C159.47 94.9942 158.924 94.6105 158.472 94.129L136.829 72.5863L84.9856 124.329C84.5337 124.81 83.988 125.194 83.382 125.457C82.776 125.719 82.1226 125.854 81.4623 125.854C80.802 125.854 80.1486 125.719 79.5426 125.457C78.9366 125.194 78.3909 124.81 77.939 124.329L61.329 107.82L24.5856 144.462C24.1362 144.946 23.5905 145.33 22.9837 145.59C22.3769 145.85 21.7224 145.98 21.0623 145.972Z" fill="#E6F0FD"/>
<path d="M212.33 80.5385H211.726C210.398 80.3623 209.192 79.6742 208.365 78.621C207.537 77.5678 207.154 76.2329 207.297 74.9012L211.525 41.0772L177.701 45.3052C176.366 45.4654 175.022 45.0887 173.965 44.258C172.908 43.4274 172.224 42.2107 172.063 40.8758C171.903 39.5409 172.28 38.197 173.111 37.1398C173.941 36.0826 175.158 35.3987 176.493 35.2385L216.759 30.2052C217.517 30.1207 218.284 30.2131 219.001 30.4751C219.717 30.7371 220.362 31.1616 220.887 31.7152C221.447 32.2348 221.876 32.8798 222.138 33.5972C222.401 34.3147 222.489 35.0841 222.397 35.8425L217.363 76.1092C217.195 77.3282 216.594 78.4459 215.67 79.2589C214.746 80.0719 213.561 80.526 212.33 80.5385Z" fill="#E6F0FD"/>
<path d="M197.233 211.397H16.0333C14.6984 211.397 13.4182 210.867 12.4742 209.923C11.5303 208.979 11 207.699 11 206.364C11 205.029 11.5303 203.749 12.4742 202.805C13.4182 201.861 14.6984 201.331 16.0333 201.331H197.233C198.568 201.331 199.849 201.861 200.792 202.805C201.736 203.749 202.267 205.029 202.267 206.364C202.267 207.699 201.736 208.979 200.792 209.923C199.849 210.867 198.568 211.397 197.233 211.397Z" fill="#E6F0FD"/>
<path d="M257.629 166.1C256.294 166.1 255.014 165.57 254.07 164.626C253.126 163.682 252.596 162.402 252.596 161.067V15.1C252.596 13.7651 252.065 12.4848 251.121 11.5409C250.177 10.597 248.897 10.0667 247.562 10.0667H36.1622C34.8273 10.0667 33.5471 9.53637 32.6031 8.59244C31.6592 7.64851 31.1289 6.36826 31.1289 5.03333C31.1289 3.69841 31.6592 2.41816 32.6031 1.47423C33.5471 0.530296 34.8273 0 36.1622 0L247.562 0C251.567 0 255.408 1.59089 258.24 4.42269C261.071 7.25449 262.662 11.0952 262.662 15.1V161.067C262.662 162.402 262.132 163.682 261.188 164.626C260.244 165.57 258.964 166.1 257.629 166.1Z" fill="#E6F0FD"/>
<path d="M228.446 248.753C227.748 248.758 227.056 248.617 226.414 248.34C225.773 248.063 225.197 247.655 224.722 247.143C218.974 240.783 215.407 232.755 214.538 224.227C213.669 215.699 215.544 207.117 219.89 199.729C220.578 198.603 221.682 197.793 222.962 197.473C224.243 197.152 225.597 197.348 226.735 198.017C227.311 198.34 227.816 198.776 228.22 199.298C228.625 199.82 228.92 200.418 229.089 201.056C229.258 201.695 229.297 202.361 229.204 203.015C229.111 203.668 228.888 204.297 228.547 204.863C225.333 210.432 223.981 216.882 224.687 223.274C225.393 229.665 228.121 235.664 232.473 240.398C233.114 241.128 233.531 242.028 233.672 242.989C233.813 243.95 233.673 244.932 233.268 245.815C232.864 246.699 232.212 247.446 231.392 247.968C230.573 248.489 229.619 248.762 228.648 248.753H228.446Z" fill="#E6F0FD"/>
<path d="M224.206 207.376C223.548 207.373 222.897 207.237 222.292 206.978C221.687 206.718 221.14 206.34 220.683 205.866L197.227 182.411C194.032 179.485 191.485 175.922 189.751 171.951C188.017 167.981 187.135 163.691 187.161 159.358C188.136 148.457 193.122 138.306 201.153 130.87C202.084 130.006 203.307 129.527 204.576 129.527C205.845 129.527 207.068 130.006 207.999 130.87L266.184 187.243C266.66 187.706 267.04 188.258 267.303 188.867C267.565 189.477 267.705 190.132 267.715 190.796C267.724 191.46 267.603 192.119 267.357 192.735C267.112 193.352 266.747 193.914 266.285 194.39C265.822 194.866 265.27 195.246 264.661 195.509C264.051 195.772 263.396 195.912 262.732 195.921C262.068 195.93 261.409 195.809 260.792 195.564C260.176 195.318 259.613 194.954 259.137 194.491L204.777 141.641C200.457 146.565 197.814 152.734 197.227 159.258C197.242 162.217 197.888 165.139 199.12 167.829C200.352 170.52 202.144 172.917 204.375 174.861L227.83 198.316C228.759 199.274 229.278 200.556 229.278 201.89C229.278 203.224 228.759 204.506 227.83 205.464C227.39 206.014 226.841 206.468 226.217 206.797C225.594 207.126 224.909 207.323 224.206 207.376Z" fill="#E6F0FD"/>
<path d="M212.324 261.731C212.314 260.751 212.025 259.795 211.49 258.974C210.955 258.154 210.196 257.504 209.304 257.1C202.948 254.122 197.353 249.738 192.94 244.279C188.528 238.82 185.415 232.43 183.835 225.592C183.67 224.931 183.376 224.309 182.97 223.761C182.565 223.214 182.055 222.752 181.471 222.401C180.887 222.05 180.239 221.818 179.565 221.718C178.891 221.618 178.204 221.651 177.543 221.817C176.882 221.982 176.26 222.276 175.713 222.681C175.165 223.087 174.703 223.596 174.353 224.181C174.002 224.765 173.77 225.412 173.67 226.086C173.57 226.76 173.603 227.447 173.768 228.108C175.683 235.897 179.207 243.199 184.114 249.545C189.02 255.89 195.2 261.139 202.257 264.952V281.864H212.324V261.731Z" fill="#E6F0FD"/>
<path d="M302.931 185.628C302.639 177.936 299.645 170.593 294.475 164.891L257.631 127.241V141.637L287.227 171.837C290.561 175.695 292.541 180.539 292.864 185.628V281.865H302.931V185.628Z" fill="#E6F0FD"/>
<path d="M313 296.967C313 298.301 312.469 299.582 311.526 300.526C310.582 301.47 309.301 302 307.966 302C306.632 302 305.351 301.47 304.407 300.526C303.463 299.582 302.933 298.301 302.933 296.967V281.867H192.2V296.967C192.2 298.301 191.669 299.582 190.726 300.526C189.782 301.47 188.501 302 187.166 302C185.832 302 184.551 301.47 183.607 300.526C182.663 299.582 182.133 298.301 182.133 296.967V276.833C182.106 276.182 182.211 275.532 182.441 274.922C182.672 274.312 183.024 273.756 183.475 273.286C183.927 272.815 184.469 272.441 185.068 272.186C185.668 271.931 186.313 271.799 186.965 271.8H307.765C308.439 271.786 309.11 271.906 309.738 272.152C310.366 272.398 310.939 272.765 311.425 273.232C311.911 273.699 312.301 274.258 312.571 274.876C312.841 275.494 312.987 276.159 313 276.833V296.967Z" fill="#E6F0FD"/>
<path d="M16.0333 10.0667C18.8132 10.0667 21.0667 7.81317 21.0667 5.03333C21.0667 2.2535 18.8132 0 16.0333 0C13.2535 0 11 2.2535 11 5.03333C11 7.81317 13.2535 10.0667 16.0333 10.0667Z" fill="#E6F0FD"/>
<path d="M237.502 120.797C236.167 120.797 234.887 120.267 233.943 119.323C232.999 118.379 232.469 117.099 232.469 115.764V95.6305C232.469 94.2956 232.999 93.0153 233.943 92.0714C234.887 91.1275 236.167 90.5972 237.502 90.5972C238.837 90.5972 240.117 91.1275 241.061 92.0714C242.005 93.0153 242.535 94.2956 242.535 95.6305V115.764C242.535 117.099 242.005 118.379 241.061 119.323C240.117 120.267 238.837 120.797 237.502 120.797Z" fill="#E6F0FD"/>
</svg>
