<svg width="324" height="302" viewBox="0 0 324 302" fill="none" xmlns="http://www.w3.org/2000/svg">
<path d="M31.1934 51.9442C29.8046 51.9442 28.4727 51.3954 27.4907 50.4184C26.5087 49.4414 25.957 48.1164 25.957 46.7348V36.3159C25.957 32.171 27.6121 28.1958 30.5581 25.2649C33.5041 22.3341 37.4998 20.6875 41.6661 20.6875H240.647C242.036 20.6875 243.368 21.2364 244.35 22.2133C245.332 23.1903 245.883 24.5153 245.883 25.897C245.883 27.2786 245.332 28.6036 244.35 29.5806C243.368 30.5576 242.036 31.1064 240.647 31.1064H41.6661C40.2773 31.1064 38.9454 31.6553 37.9634 32.6322C36.9814 33.6092 36.4297 34.9342 36.4297 36.3159V46.7348C36.4297 48.1164 35.878 49.4414 34.896 50.4184C33.914 51.3954 32.5821 51.9442 31.1934 51.9442Z" fill="#E6F0FD"/>
<path d="M94.0254 51.7378C96.9174 51.7378 99.2618 49.4054 99.2618 46.5283C99.2618 43.6512 96.9174 41.3188 94.0254 41.3188C91.1335 41.3188 88.7891 43.6512 88.7891 46.5283C88.7891 49.4054 91.1335 51.7378 94.0254 51.7378Z" fill="#E6F0FD"/>
<path d="M73.0703 51.7378C75.9623 51.7378 78.3067 49.4054 78.3067 46.5283C78.3067 43.6512 75.9623 41.3188 73.0703 41.3188C70.1784 41.3188 67.834 43.6512 67.834 46.5283C67.834 49.4054 70.1784 51.7378 73.0703 51.7378Z" fill="#E6F0FD"/>
<path d="M52.1328 51.7378C55.0248 51.7378 57.3692 49.4054 57.3692 46.5283C57.3692 43.6512 55.0248 41.3188 52.1328 41.3188C49.2409 41.3188 46.8965 43.6512 46.8965 46.5283C46.8965 49.4054 49.2409 51.7378 52.1328 51.7378Z" fill="#E6F0FD"/>
<path d="M73.0703 93.413C75.9623 93.413 78.3067 91.0807 78.3067 88.2036C78.3067 85.3265 75.9623 82.9941 73.0703 82.9941C70.1784 82.9941 67.834 85.3265 67.834 88.2036C67.834 91.0807 70.1784 93.413 73.0703 93.413Z" fill="#E6F0FD"/>
<path d="M52.1328 93.413C55.0248 93.413 57.3692 91.0807 57.3692 88.2036C57.3692 85.3265 55.0248 82.9941 52.1328 82.9941C49.2409 82.9941 46.8965 85.3265 46.8965 88.2036C46.8965 91.0807 49.2409 93.413 52.1328 93.413Z" fill="#E6F0FD"/>
<path d="M31.1934 93.413C34.0853 93.413 36.4297 91.0807 36.4297 88.2036C36.4297 85.3265 34.0853 82.9941 31.1934 82.9941C28.3014 82.9941 25.957 85.3265 25.957 88.2036C25.957 91.0807 28.3014 93.413 31.1934 93.413Z" fill="#E6F0FD"/>
<path d="M282.537 301.997H251.119C249.73 301.997 248.399 301.448 247.416 300.471C246.434 299.494 245.883 298.169 245.883 296.787C245.883 295.406 246.434 294.081 247.416 293.104C248.399 292.127 249.73 291.578 251.119 291.578H282.537C283.926 291.578 285.258 291.029 286.24 290.052C287.222 289.075 287.774 287.75 287.774 286.368V203.017C287.774 201.635 288.325 200.31 289.307 199.333C290.289 198.356 291.621 197.808 293.01 197.808C294.399 197.808 295.731 198.356 296.713 199.333C297.695 200.31 298.246 201.635 298.246 203.017V286.368C298.246 290.513 296.591 294.488 293.645 297.419C290.699 300.35 286.704 301.997 282.537 301.997Z" fill="#E6F0FD"/>
<path d="M114.965 301.998H20.7104C18.6297 301.998 16.5698 301.587 14.6501 300.788C12.7304 299.99 10.9892 298.82 9.52775 297.347C8.06626 295.873 6.91354 294.126 6.13652 292.206C5.3595 290.285 4.97365 288.231 5.0014 286.161V77.7828C5.05647 73.6741 6.7358 69.7523 9.67587 66.8663C12.6159 63.9803 16.5802 62.3624 20.7104 62.3628H219.692C221.08 62.3628 222.412 62.9116 223.394 63.8886C224.376 64.8656 224.928 66.1906 224.928 67.5722C224.928 68.9539 224.376 70.2789 223.394 71.2559C222.412 72.2328 221.08 72.7817 219.692 72.7817H20.7104C19.3217 72.7817 17.9898 73.3305 17.0078 74.3075C16.0258 75.2845 15.4741 76.6095 15.4741 77.9911V286.369C15.4741 287.751 16.0258 289.076 17.0078 290.053C17.9898 291.03 19.3217 291.579 20.7104 291.579H114.965C116.353 291.579 117.685 292.128 118.667 293.104C119.649 294.081 120.201 295.407 120.201 296.788C120.201 298.17 119.649 299.495 118.667 300.472C117.685 301.449 116.353 301.998 114.965 301.998Z" fill="#E6F0FD"/>
<path d="M146.393 302H135.92C134.531 302 133.199 301.451 132.217 300.474C131.235 299.497 130.684 298.172 130.684 296.791C130.684 295.409 131.235 294.084 132.217 293.107C133.199 292.13 134.531 291.581 135.92 291.581H146.393C179.486 291.581 256.356 276.682 256.356 140.299V72.7841H240.647C239.729 72.8006 238.823 72.5665 238.03 72.1073C237.236 71.6481 236.583 70.9814 236.144 70.1794C235.684 69.3875 235.442 68.4891 235.442 67.5747C235.442 66.6602 235.684 65.7619 236.144 64.9699L272.798 2.4565C273.281 1.70356 273.946 1.08378 274.733 0.654426C275.52 0.225074 276.404 0 277.301 0C278.199 0 279.082 0.225074 279.869 0.654426C280.656 1.08378 281.322 1.70356 281.804 2.4565L318.459 64.9699C318.918 65.7619 319.16 66.6602 319.16 67.5747C319.16 68.4891 318.918 69.3875 318.459 70.1794C318.019 70.9814 317.367 71.6481 316.573 72.1073C315.779 72.5665 314.874 72.8006 313.956 72.7841H298.247V140.507C298.247 141.889 297.695 143.214 296.713 144.191C295.731 145.168 294.399 145.716 293.01 145.716C291.621 145.716 290.29 145.168 289.308 144.191C288.326 143.214 287.774 141.889 287.774 140.507V67.5747C287.774 66.193 288.326 64.868 289.308 63.891C290.29 62.9141 291.621 62.3652 293.01 62.3652H304.844L277.301 15.1676L249.758 62.3652H261.592C262.981 62.3652 264.313 62.9141 265.295 63.891C266.277 64.868 266.829 66.193 266.829 67.5747V140.507C266.829 286.059 183.047 302 146.393 302Z" fill="#E6F0FD"/>
<path d="M293.014 166.342C295.906 166.342 298.25 164.009 298.25 161.132C298.25 158.255 295.906 155.923 293.014 155.923C290.122 155.923 287.777 158.255 287.777 161.132C287.777 164.009 290.122 166.342 293.014 166.342Z" fill="#E6F0FD"/>
<path d="M10.2363 114.457H230.163C231.552 114.457 232.883 113.908 233.865 112.931C234.847 111.954 235.399 110.629 235.399 109.247C235.399 107.865 234.847 106.54 233.865 105.563C232.883 104.586 231.552 104.038 230.163 104.038H15.4727L5 109.247C5 110.629 5.55168 111.954 6.53369 112.931C7.51569 113.908 8.84758 114.457 10.2363 114.457Z" fill="#E6F0FD"/>
<path d="M134.868 281.161H116.017C114.825 281.166 113.666 280.766 112.733 280.027C111.8 279.289 111.148 278.255 110.886 277.098L107.849 263.032C103.475 261.775 99.2587 260.027 95.2814 257.823L83.1331 265.637C82.1181 266.292 80.9061 266.578 79.7032 266.445C78.5004 266.312 77.3809 265.769 76.5353 264.907L63.235 251.467C62.4269 250.614 61.9186 249.523 61.7864 248.359C61.6542 247.194 61.9053 246.018 62.5019 245.007L70.3564 232.817C68.1928 228.885 66.4718 224.727 65.2248 220.419L50.982 217.293C49.8093 217.05 48.759 216.407 48.013 215.474C47.267 214.542 46.8725 213.379 46.8976 212.188V193.434C46.8923 192.247 47.2942 191.094 48.0369 190.166C48.7796 189.238 49.8186 188.589 50.982 188.328L65.1201 185.307C66.4296 180.972 68.1843 176.782 70.3564 172.804L62.5019 160.718C61.8968 159.692 61.6413 158.498 61.7734 157.315C61.9055 156.133 62.4182 155.024 63.235 154.154L76.5353 140.922C77.4037 140.094 78.5275 139.582 79.725 139.469C80.9224 139.355 82.1233 139.647 83.1331 140.297L95.2814 148.007C99.2622 145.837 103.478 144.124 107.849 142.902L110.886 128.837C111.145 127.669 111.792 126.622 112.724 125.866C113.655 125.109 114.815 124.688 116.017 124.669H134.868C136.07 124.688 137.231 125.109 138.162 125.866C139.093 126.622 139.741 127.669 140 128.837L143.037 142.902C147.407 144.124 151.623 145.837 155.604 148.007L167.752 140.297C168.762 139.647 169.963 139.355 171.161 139.469C172.358 139.582 173.482 140.094 174.35 140.922L187.651 154.154C188.467 155.024 188.98 156.133 189.112 157.315C189.244 158.498 188.989 159.692 188.384 160.718L180.529 172.804C182.675 176.781 184.395 180.972 185.661 185.307L199.904 188.328C201.067 188.589 202.106 189.238 202.849 190.166C203.591 191.094 203.993 192.247 203.988 193.434V212.188C204.013 213.379 203.619 214.542 202.873 215.474C202.127 216.407 201.076 217.05 199.904 217.293L185.661 220.419C184.414 224.727 182.693 228.885 180.529 232.817L188.384 245.007C188.98 246.018 189.231 247.194 189.099 248.359C188.967 249.523 188.459 250.614 187.651 251.467L174.35 264.699C173.505 265.56 172.385 266.104 171.182 266.237C169.98 266.37 168.767 266.084 167.752 265.428L155.604 257.614C151.627 259.818 147.411 261.566 143.037 262.824L140 276.889C139.78 278.085 139.146 279.167 138.209 279.947C137.272 280.727 136.09 281.156 134.868 281.161ZM120.206 270.742H130.679L133.507 257.614C133.745 256.656 134.241 255.781 134.943 255.083C135.644 254.386 136.524 253.892 137.486 253.655C142.962 252.378 148.196 250.232 152.986 247.299C153.822 246.793 154.782 246.526 155.761 246.526C156.74 246.526 157.7 246.793 158.536 247.299L169.847 254.593L177.283 247.299L169.952 235.943C169.443 235.111 169.174 234.156 169.174 233.182C169.174 232.208 169.443 231.253 169.952 230.421C172.876 225.644 175.031 220.441 176.34 215.001C176.578 214.043 177.075 213.168 177.776 212.47C178.477 211.772 179.357 211.278 180.32 211.042L193.515 208.229V197.81L180.32 194.997C179.352 194.771 178.466 194.28 177.763 193.581C177.06 192.881 176.567 192 176.34 191.037C175.014 185.603 172.859 180.403 169.952 175.617C169.443 174.785 169.174 173.83 169.174 172.856C169.174 171.883 169.443 170.927 169.952 170.095L177.283 158.843L169.847 151.55L158.536 158.739C157.7 159.245 156.74 159.512 155.761 159.512C154.782 159.512 153.822 159.245 152.986 158.739C148.184 155.829 142.954 153.685 137.486 152.383C136.507 152.181 135.609 151.698 134.902 150.995C134.195 150.291 133.71 149.398 133.507 148.424L130.679 135.296H120.206L117.379 148.424C117.175 149.398 116.69 150.291 115.983 150.995C115.276 151.698 114.378 152.181 113.399 152.383C107.931 153.685 102.702 155.829 97.8996 158.739C97.0633 159.245 96.1032 159.512 95.1243 159.512C94.1455 159.512 93.1854 159.245 92.3491 158.739L81.0386 151.55L73.603 158.843L80.9339 170.095C81.4517 170.943 81.7255 171.916 81.7255 172.908C81.7255 173.901 81.4517 174.874 80.9339 175.722C77.9554 180.471 75.7961 185.683 74.5455 191.142C74.281 192.075 73.7739 192.923 73.0753 193.6C72.3766 194.277 71.5111 194.758 70.5659 194.997L57.3703 197.81V208.229L70.5659 211.042C71.5288 211.278 72.4083 211.772 73.1096 212.47C73.811 213.168 74.3075 214.043 74.5455 215.001C75.8287 220.449 77.9858 225.656 80.9339 230.421C81.4425 231.253 81.7115 232.208 81.7115 233.182C81.7115 234.156 81.4425 235.111 80.9339 235.943L73.603 247.299L81.0386 254.593L92.3491 247.299C93.2014 246.784 94.1795 246.512 95.1767 246.512C96.174 246.512 97.1521 246.784 98.0043 247.299C102.751 250.243 107.952 252.391 113.399 253.655C114.362 253.892 115.242 254.386 115.943 255.083C116.644 255.781 117.141 256.656 117.379 257.614L120.206 270.742ZM125.443 239.485C118.193 239.485 111.106 237.347 105.079 233.34C99.0509 229.333 94.3528 223.637 91.5785 216.974C88.8042 210.311 88.0784 202.979 89.4927 195.905C90.907 188.831 94.398 182.334 99.5242 177.234C104.65 172.134 111.182 168.661 118.292 167.254C125.402 165.847 132.772 166.569 139.47 169.329C146.168 172.089 151.892 176.763 155.92 182.76C159.947 188.756 162.097 195.807 162.097 203.019C162.097 204.401 161.546 205.726 160.564 206.703C159.582 207.68 158.25 208.229 156.861 208.229C155.472 208.229 154.14 207.68 153.158 206.703C152.176 205.726 151.625 204.401 151.625 203.019C151.625 197.867 150.089 192.831 147.212 188.548C144.335 184.265 140.246 180.926 135.462 178.955C130.678 176.983 125.414 176.467 120.335 177.472C115.256 178.477 110.591 180.958 106.93 184.601C103.268 188.244 100.774 192.885 99.7641 197.938C98.7539 202.99 99.2724 208.227 101.254 212.987C103.236 217.746 106.591 221.814 110.897 224.677C115.203 227.539 120.265 229.066 125.443 229.066C127.15 229.225 128.868 229.225 130.574 229.066C131.243 228.915 131.936 228.902 132.609 229.027C133.283 229.152 133.925 229.412 134.494 229.793C135.063 230.174 135.547 230.666 135.918 231.24C136.288 231.814 136.537 232.457 136.649 233.13C136.786 233.8 136.79 234.491 136.659 235.163C136.528 235.835 136.266 236.474 135.886 237.045C135.507 237.616 135.019 238.107 134.448 238.49C133.878 238.873 133.238 239.14 132.564 239.277C130.201 239.557 127.818 239.627 125.443 239.485Z" fill="#E6F0FD"/>
<path d="M151.625 229.692C154.517 229.692 156.861 227.36 156.861 224.483C156.861 221.606 154.517 219.273 151.625 219.273C148.733 219.273 146.389 221.606 146.389 224.483C146.389 227.36 148.733 229.692 151.625 229.692Z" fill="#E6F0FD"/>
</svg>
