<svg width="132" height="117" viewBox="0 0 132 117" fill="none" xmlns="http://www.w3.org/2000/svg">
<g clip-path="url(#clip0_353_1664)">
<path d="M57.6389 113.313C89.4719 113.313 115.278 87.947 115.278 56.6565C115.278 25.366 89.4719 0 57.6389 0C25.8058 0 0 25.366 0 56.6565C0 87.947 25.8058 113.313 57.6389 113.313Z" fill="#1C55E9" fill-opacity="0.15"/>
<path d="M36.4224 116.957L31.4839 116.159C30.4663 115.992 29.8771 115.371 30.1502 114.781L50.6112 72.2568C50.8951 71.6673 51.961 71.3189 52.9787 71.4851L57.9118 72.2836C58.9295 72.4497 59.5187 73.066 59.2455 73.6609L38.7953 116.185C38.5114 116.775 37.4455 117.123 36.4224 116.957Z" fill="#124460"/>
<path d="M81.1852 116.957L86.1183 116.159C87.136 115.992 87.7252 115.371 87.4521 114.781L66.9964 72.2568C66.7072 71.6673 65.6467 71.3189 64.629 71.4851L59.6905 72.2836C58.6728 72.4497 58.0836 73.066 58.3568 73.6609L78.8177 116.185C79.1016 116.775 80.1675 117.123 81.1852 116.957Z" fill="#124460"/>
<path d="M58.046 95.8529C81.4098 95.8529 100.35 77.2363 100.35 54.2716C100.35 31.3069 81.4098 12.6903 58.046 12.6903C34.6823 12.6903 15.7422 31.3069 15.7422 54.2716C15.7422 77.2363 34.6823 95.8529 58.046 95.8529Z" fill="#1C55E9"/>
<path d="M58.0458 81.7156C73.4639 81.7156 85.9627 69.4285 85.9627 54.2716C85.9627 39.1147 73.4639 26.8276 58.0458 26.8276C42.6277 26.8276 30.1289 39.1147 30.1289 54.2716C30.1289 69.4285 42.6277 81.7156 58.0458 81.7156Z" fill="#FFBB0E"/>
<path d="M58.0459 69.5344C66.6217 69.5344 73.5737 62.701 73.5737 54.2716C73.5737 45.8423 66.6217 39.0089 58.0459 39.0089C49.4701 39.0089 42.5181 45.8423 42.5181 54.2716C42.5181 62.701 49.4701 69.5344 58.0459 69.5344Z" fill="white"/>
<path d="M58.0458 62.6319C62.7434 62.6319 66.5516 58.8889 66.5516 54.2717C66.5516 49.6545 62.7434 45.9115 58.0458 45.9115C53.3482 45.9115 49.54 49.6545 49.54 54.2717C49.54 58.8889 53.3482 62.6319 58.0458 62.6319Z" fill="#F02E51"/>
<path d="M107.013 31.7849L108.095 33.9232L132 22.2242L124.244 21.833L128.604 15.5093L104.699 27.2082L105.786 29.3572L67.2103 48.2534L66.123 46.1098L57.6387 54.4593L69.5296 52.8301L68.4423 50.6811L107.013 31.7849Z" fill="#103947"/>
</g>
<defs>
<clipPath id="clip0_353_1664">
<rect width="132" height="117" fill="white"/>
</clipPath>
</defs>
</svg>
