<svg width="312" height="312" viewBox="0 0 312 312" fill="none" xmlns="http://www.w3.org/2000/svg">
<g clip-path="url(#clip0_173_5960)">
<path d="M290.475 258.791C302.737 258.791 312.52 246.471 311.979 231.716C311.27 212.422 303.08 185.18 270.798 157.955C231.431 124.755 251.334 34.7489 167.69 41.3441C84.0457 47.9393 102.567 111.57 55.7834 150.164C13.3115 185.201 0.00229336 206.314 0 232.904C0 247.208 9.64895 258.791 21.5236 258.791H290.475Z" fill="#F3F5FD"/>
<path d="M257.683 46.2539H49.6553V196.816H257.683V46.2539Z" fill="#DEE8F5"/>
<path d="M257.683 46.2539H49.6553V58.6562H257.683V46.2539Z" fill="#C1D8ED"/>
<path d="M250.715 55.5673C252.435 55.5673 253.829 54.1741 253.829 52.4555C253.829 50.7369 252.435 49.3438 250.715 49.3438C248.996 49.3438 247.602 50.7369 247.602 52.4555C247.602 54.1741 248.996 55.5673 250.715 55.5673Z" fill="white"/>
<path d="M145.54 117.005V105.388C145.54 105.169 145.453 104.959 145.298 104.804C145.143 104.649 144.933 104.562 144.714 104.562H136.178C135.991 104.561 135.81 104.497 135.664 104.38C135.518 104.263 135.415 104.1 135.374 103.917C134.588 100.563 133.26 97.3588 131.44 94.4322C131.341 94.2736 131.298 94.086 131.319 93.9C131.34 93.714 131.423 93.5404 131.555 93.4077L137.59 87.3748C137.667 87.2982 137.728 87.2071 137.769 87.1069C137.811 87.0067 137.832 86.8992 137.832 86.7908C137.832 86.6823 137.811 86.5748 137.769 86.4746C137.728 86.3744 137.667 86.2833 137.59 86.2067L129.369 77.9895C129.214 77.8346 129.003 77.7477 128.784 77.7477C128.565 77.7477 128.355 77.8346 128.199 77.9895L122.163 84.0228C122.03 84.1549 121.856 84.2382 121.67 84.259C121.484 84.2799 121.296 84.237 121.137 84.1374C118.21 82.3187 115.005 80.9902 111.649 80.2043C111.466 80.163 111.303 80.0609 111.186 79.9149C111.068 79.7688 111.004 79.5874 111.003 79.4002V70.8702C111.003 70.6511 110.916 70.4409 110.761 70.286C110.606 70.131 110.396 70.0439 110.177 70.0439H98.5513C98.332 70.0439 98.1217 70.131 97.9667 70.286C97.8116 70.4409 97.7245 70.6511 97.7245 70.8702V79.4002C97.7238 79.5874 97.6596 79.7688 97.5424 79.9149C97.4252 80.0609 97.262 80.163 97.0793 80.2043C93.7229 80.9898 90.5174 82.3178 87.5894 84.1359C87.4307 84.2355 87.2428 84.2785 87.0566 84.2577C86.8703 84.2369 86.6966 84.1535 86.5638 84.0213L80.5269 77.9857C80.4502 77.909 80.359 77.8481 80.2587 77.8066C80.1584 77.765 80.0509 77.7437 79.9423 77.7437C79.8338 77.7437 79.7262 77.765 79.6259 77.8066C79.5256 77.8481 79.4345 77.909 79.3577 77.9857L71.1398 86.2021C71.063 86.2788 71.0021 86.3698 70.9605 86.47C70.9189 86.5702 70.8975 86.6777 70.8975 86.7862C70.8975 86.8947 70.9189 87.0021 70.9605 87.1023C71.0021 87.2025 71.063 87.2936 71.1398 87.3702L77.1763 93.4031C77.3082 93.5361 77.391 93.7097 77.4115 93.8958C77.432 94.0818 77.3888 94.2693 77.2891 94.4277C75.4702 97.3544 74.1416 100.558 73.356 103.913C73.3146 104.095 73.2127 104.258 73.067 104.375C72.9213 104.492 72.7402 104.556 72.5533 104.557H64.0182C63.7989 104.558 63.5887 104.645 63.4337 104.8C63.2786 104.955 63.1915 105.165 63.1914 105.384V117.001C63.1914 117.22 63.2785 117.43 63.4336 117.585C63.5886 117.74 63.7989 117.827 64.0182 117.827H72.5533C72.7403 117.828 72.9214 117.893 73.0672 118.01C73.2129 118.127 73.3147 118.29 73.356 118.472C74.1416 121.827 75.4703 125.03 77.2895 127.957C77.3893 128.115 77.4325 128.303 77.412 128.489C77.3915 128.675 77.3086 128.848 77.1767 128.981L71.1398 135.015C70.9849 135.17 70.8979 135.38 70.8979 135.599C70.8979 135.818 70.9849 136.028 71.1398 136.183L79.3577 144.396C79.4345 144.472 79.5256 144.533 79.6259 144.575C79.7262 144.616 79.8338 144.638 79.9423 144.638C80.0509 144.638 80.1584 144.616 80.2587 144.575C80.359 144.533 80.4502 144.472 80.5269 144.396L86.5635 138.363C86.6962 138.231 86.8698 138.147 87.056 138.127C87.2422 138.106 87.4299 138.149 87.5886 138.248C90.5169 140.066 93.7226 141.394 97.0793 142.18C97.2617 142.221 97.4247 142.323 97.5418 142.468C97.659 142.614 97.7233 142.795 97.7245 142.982V151.512C97.7245 151.62 97.7458 151.728 97.7873 151.828C97.8289 151.928 97.8898 152.02 97.9665 152.096C98.0433 152.173 98.1345 152.234 98.2348 152.275C98.3351 152.317 98.4427 152.338 98.5513 152.338H110.175C110.284 152.338 110.391 152.317 110.492 152.275C110.592 152.234 110.683 152.173 110.76 152.096C110.837 152.02 110.898 151.928 110.939 151.828C110.981 151.728 111.002 151.62 111.002 151.512V142.99C111.003 142.803 111.067 142.621 111.184 142.475C111.301 142.329 111.464 142.227 111.647 142.186C115.004 141.401 118.21 140.073 121.138 138.255C121.297 138.155 121.485 138.112 121.671 138.133C121.857 138.154 122.031 138.237 122.163 138.369L128.199 144.401C128.354 144.556 128.564 144.643 128.784 144.643C129.003 144.643 129.213 144.556 129.368 144.401L137.59 136.188C137.666 136.111 137.727 136.02 137.769 135.92C137.81 135.819 137.832 135.712 137.832 135.603C137.832 135.495 137.81 135.388 137.769 135.287C137.727 135.187 137.666 135.096 137.59 135.019L131.553 128.986C131.421 128.853 131.337 128.68 131.316 128.494C131.296 128.308 131.338 128.12 131.438 127.961C133.258 125.035 134.586 121.831 135.372 118.477C135.413 118.294 135.516 118.131 135.662 118.014C135.808 117.897 135.989 117.833 136.177 117.832H144.712C144.821 117.833 144.929 117.811 145.029 117.77C145.13 117.728 145.221 117.668 145.298 117.591C145.375 117.514 145.436 117.423 145.478 117.322C145.519 117.222 145.541 117.114 145.54 117.005ZM104.962 129.615C101.265 129.735 97.6183 128.742 94.4941 126.764C91.3699 124.785 88.9132 121.914 87.4429 118.522C85.9727 115.131 85.5569 111.376 86.2496 107.745C86.9423 104.114 88.7115 100.775 91.3273 98.1623C93.9431 95.5492 97.2847 93.7827 100.918 93.0922C104.551 92.4016 108.308 92.8189 111.701 94.2899C115.094 95.7608 117.966 98.2175 119.944 101.341C121.922 104.464 122.915 108.109 122.793 111.804C122.639 116.48 120.711 120.923 117.4 124.231C114.088 127.539 109.642 129.464 104.962 129.615Z" fill="white"/>
<path d="M193.613 156.535L192.034 149.444C192.019 149.378 191.992 149.315 191.953 149.26C191.914 149.204 191.864 149.157 191.807 149.12C191.75 149.084 191.686 149.059 191.619 149.048C191.552 149.036 191.483 149.037 191.417 149.052L186.207 150.211C186.093 150.236 185.973 150.222 185.868 150.17C185.763 150.118 185.679 150.033 185.629 149.927C184.693 147.986 183.446 146.211 181.938 144.671C181.855 144.588 181.803 144.48 181.791 144.363C181.778 144.247 181.805 144.13 181.868 144.031L184.732 139.528C184.806 139.413 184.83 139.273 184.8 139.139C184.771 139.005 184.689 138.889 184.573 138.815L178.437 134.916C178.322 134.843 178.182 134.818 178.048 134.848C177.914 134.878 177.797 134.959 177.724 135.075L174.859 139.578C174.796 139.676 174.701 139.751 174.59 139.788C174.479 139.826 174.358 139.825 174.248 139.785C172.213 139.073 170.076 138.698 167.92 138.674C167.803 138.674 167.69 138.634 167.598 138.561C167.507 138.488 167.443 138.386 167.417 138.271L166.257 133.064C166.243 132.998 166.215 132.936 166.176 132.88C166.137 132.824 166.087 132.777 166.03 132.741C165.973 132.704 165.909 132.68 165.842 132.668C165.775 132.656 165.707 132.658 165.64 132.673L158.548 134.251C158.414 134.281 158.298 134.362 158.224 134.478C158.151 134.594 158.126 134.734 158.156 134.868L159.316 140.075C159.341 140.189 159.326 140.308 159.275 140.413C159.223 140.518 159.137 140.603 159.031 140.653C157.089 141.588 155.313 142.834 153.773 144.341C153.69 144.424 153.581 144.476 153.465 144.489C153.348 144.501 153.231 144.474 153.132 144.412L148.626 141.547C148.511 141.473 148.37 141.449 148.237 141.479C148.103 141.509 147.986 141.59 147.913 141.706L144.014 147.837C143.941 147.953 143.916 148.093 143.946 148.227C143.976 148.36 144.057 148.477 144.173 148.55L148.678 151.413C148.777 151.476 148.851 151.571 148.889 151.682C148.927 151.793 148.926 151.914 148.886 152.024C148.174 154.058 147.798 156.194 147.775 158.348C147.774 158.465 147.734 158.579 147.661 158.67C147.588 158.761 147.486 158.825 147.372 158.851L142.161 160.01C142.095 160.025 142.032 160.052 141.977 160.091C141.921 160.13 141.874 160.18 141.837 160.237C141.801 160.294 141.776 160.358 141.765 160.425C141.753 160.492 141.754 160.56 141.769 160.626L143.349 167.718C143.364 167.784 143.391 167.847 143.43 167.902C143.469 167.958 143.519 168.005 143.576 168.042C143.633 168.078 143.697 168.103 143.764 168.114C143.831 168.126 143.9 168.125 143.966 168.11L149.176 166.951C149.29 166.926 149.41 166.94 149.515 166.992C149.62 167.043 149.704 167.129 149.754 167.235C150.69 169.176 151.937 170.951 153.445 172.491C153.528 172.574 153.579 172.682 153.592 172.799C153.605 172.915 153.578 173.032 153.515 173.131L150.649 177.633C150.575 177.749 150.551 177.889 150.581 178.023C150.61 178.157 150.692 178.273 150.808 178.347L156.941 182.243C156.998 182.279 157.062 182.304 157.129 182.316C157.196 182.328 157.264 182.326 157.331 182.311C157.397 182.297 157.46 182.269 157.515 182.23C157.571 182.191 157.618 182.141 157.655 182.084L160.519 177.582C160.582 177.483 160.677 177.409 160.788 177.371C160.899 177.333 161.02 177.334 161.131 177.374C163.165 178.086 165.303 178.461 167.458 178.484C167.575 178.485 167.689 178.525 167.78 178.598C167.872 178.672 167.935 178.774 167.961 178.888L169.121 184.094C169.136 184.161 169.163 184.223 169.202 184.279C169.241 184.334 169.291 184.382 169.348 184.418C169.406 184.455 169.469 184.479 169.536 184.491C169.603 184.503 169.672 184.501 169.738 184.486L176.833 182.908C176.9 182.893 176.962 182.866 177.018 182.827C177.074 182.788 177.121 182.738 177.157 182.681C177.194 182.624 177.219 182.56 177.23 182.493C177.242 182.426 177.241 182.358 177.226 182.291L176.066 177.085C176.041 176.97 176.055 176.851 176.107 176.746C176.159 176.641 176.245 176.556 176.35 176.506C178.293 175.571 180.069 174.325 181.609 172.818C181.692 172.736 181.801 172.684 181.918 172.671C182.034 172.658 182.151 172.685 182.251 172.748L186.755 175.61C186.812 175.647 186.876 175.672 186.943 175.683C187.01 175.695 187.078 175.694 187.145 175.679C187.211 175.664 187.274 175.636 187.329 175.597C187.385 175.559 187.432 175.509 187.469 175.452L191.37 169.322C191.407 169.265 191.432 169.201 191.443 169.134C191.455 169.067 191.454 168.999 191.439 168.932C191.424 168.866 191.396 168.803 191.357 168.748C191.318 168.692 191.269 168.645 191.211 168.609L186.706 165.744C186.607 165.68 186.533 165.585 186.495 165.474C186.457 165.363 186.458 165.243 186.498 165.132C187.21 163.099 187.586 160.963 187.61 158.809C187.61 158.692 187.65 158.578 187.724 158.487C187.797 158.396 187.899 158.332 188.013 158.306L193.223 157.147C193.356 157.117 193.471 157.036 193.544 156.921C193.617 156.807 193.642 156.668 193.613 156.535ZM170.559 169.743C168.319 170.318 165.958 170.207 163.782 169.424C161.606 168.641 159.716 167.222 158.357 165.351C156.999 163.481 156.234 161.245 156.164 158.935C156.093 156.624 156.719 154.346 157.96 152.396C159.201 150.446 161.001 148.914 163.125 147.999C165.249 147.084 167.599 146.828 169.87 147.265C172.141 147.703 174.228 148.812 175.86 150.45C177.492 152.088 178.593 154.178 179.021 156.45C179.563 159.325 178.99 162.299 177.419 164.768C175.847 167.236 173.395 169.015 170.559 169.743Z" fill="#C1D8ED"/>
<path d="M52.6113 201.516C52.6113 201.516 55.5667 199.95 54.907 191.906L61.0134 190.774C61.0134 190.774 60.3274 197.986 63.4165 200.275L52.6113 201.516Z" fill="#E98862"/>
<path opacity="0.15" d="M62.1651 198.77L57.0918 194.891L61.0765 194.85C61.1919 196.213 61.5611 197.542 62.1651 198.77Z" fill="black"/>
<path d="M51.442 188.788C51.8647 191.229 53.1972 193.54 55.351 194.327C57.9081 195.263 59.8021 195.327 62.7502 195.327C66.7731 195.327 66.6401 191.133 66.7532 186.908C66.8679 182.667 66.5289 178.115 64.9388 176.637C61.7663 173.686 52.4503 175.554 51.3174 180.49C50.7314 183.043 51.0395 186.465 51.442 188.788Z" fill="#E98862"/>
<path d="M68.9093 179.09C68.9093 179.09 70.5567 178.722 70.1056 177.08C69.8067 175.991 68.4109 176.233 68.4109 176.233C68.4109 176.233 69.7326 175.991 69.7326 174.838C69.7326 174.112 69.1738 172.88 67.4885 173.584C65.5109 174.409 63.2554 174.304 61.5407 174.015C60.5706 173.803 59.5858 173.664 58.5949 173.6H58.5895C57.4503 173.58 56.3146 173.732 55.2206 174.05C52.1551 174.967 47.516 177.714 48.5022 183.941C49.603 190.891 52.8664 193.549 54.3021 194.402C54.387 194.453 54.4825 194.484 54.5813 194.493C54.68 194.502 54.7795 194.488 54.8722 194.453C54.9649 194.418 55.0483 194.362 55.1163 194.29C55.1843 194.218 55.235 194.131 55.2645 194.036C55.6716 192.734 56.373 189.456 56.1769 182.698C65.5996 182.236 68.3107 182.096 68.3107 182.096C68.3107 182.096 70.5276 182.179 70.5276 180.56C70.5276 178.94 68.9093 179.09 68.9093 179.09Z" fill="#0F1011"/>
<path d="M61.004 186.909C61.3099 186.909 61.5579 186.661 61.5579 186.355C61.5579 186.05 61.3099 185.802 61.004 185.802C60.6982 185.802 60.4502 186.05 60.4502 186.355C60.4502 186.661 60.6982 186.909 61.004 186.909Z" fill="#0F1011"/>
<path d="M65.3742 186.55C65.68 186.55 65.928 186.303 65.928 185.997C65.928 185.691 65.68 185.443 65.3742 185.443C65.0683 185.443 64.8203 185.691 64.8203 185.997C64.8203 186.303 65.0683 186.55 65.3742 186.55Z" fill="#0F1011"/>
<path d="M64.8662 184.539L66.3336 184.557" stroke="#0F1011" stroke-width="1.362" stroke-miterlimit="10" stroke-linecap="round"/>
<path d="M59.8096 185.092L61.2559 184.744" stroke="#0F1011" stroke-width="1.362" stroke-miterlimit="10" stroke-linecap="round"/>
<path d="M58.1232 187.709C58.1699 188.327 57.97 188.939 57.5671 189.41C57.1642 189.881 56.5911 190.174 55.973 190.225C55.3548 190.275 54.7418 190.079 54.2677 189.679C53.7937 189.28 53.4972 188.709 53.4429 188.091C53.4124 187.783 53.4442 187.472 53.5365 187.176C53.6288 186.881 53.7797 186.607 53.9802 186.371C54.1807 186.135 54.4266 185.941 54.7034 185.802C54.9802 185.663 55.2822 185.581 55.5914 185.561C57.2647 185.508 58.017 186.418 58.1232 187.709Z" fill="#E98862"/>
<g opacity="0.15">
<path d="M63.4627 189.426C63.4169 189.426 63.3727 189.409 63.338 189.38C63.3032 189.35 63.2804 189.308 63.2736 189.263C63.2668 189.218 63.2765 189.172 63.3009 189.133C63.3253 189.094 63.3628 189.066 63.4065 189.052L64.5333 188.706L63.7452 186.953C63.7251 186.907 63.7241 186.854 63.7422 186.808C63.7604 186.761 63.7962 186.723 63.8421 186.702C63.888 186.682 63.9401 186.68 63.9872 186.698C64.0343 186.715 64.0726 186.751 64.0938 186.796L64.9706 188.747C64.9817 188.772 64.9875 188.798 64.9874 188.825C64.9874 188.853 64.9816 188.879 64.9704 188.904C64.9593 188.929 64.943 188.951 64.9226 188.969C64.9023 188.987 64.8784 189 64.8525 189.008L63.5189 189.417C63.5007 189.423 63.4818 189.426 63.4627 189.426Z" fill="black"/>
</g>
<path d="M61.2607 190.715C61.2607 190.715 63.3049 190.93 64.739 190.43C64.739 190.43 64.7279 191.775 63.11 191.908C61.492 192.041 61.2607 190.715 61.2607 190.715Z" fill="#F8FCFF"/>
<path d="M76.6134 260.594C77.3397 260.472 85.5327 259.073 85.5327 259.073L84.1815 251.166C84.1815 251.166 76.0107 252.561 75.2871 252.682L76.6134 260.594Z" fill="#E98862"/>
<path d="M90.2057 268.179C90.2404 268.392 90.2308 268.61 90.1774 268.819C90.1241 269.028 90.0282 269.224 89.8957 269.394C89.7633 269.564 89.5971 269.706 89.4075 269.809C89.218 269.912 89.0092 269.975 88.7942 269.994C88.4962 270.021 88.1968 269.961 87.9314 269.823C87.666 269.685 87.4456 269.474 87.2962 269.215L82.6667 260.523C82.5776 260.355 82.5261 260.169 82.5155 259.979C82.505 259.789 82.5357 259.598 82.6055 259.421C83.2726 258.008 83.4682 256.418 83.1636 254.886C82.8774 253.701 82.2635 252.619 81.3919 251.766C81.3074 251.692 81.2456 251.596 81.2138 251.489C81.1819 251.381 81.1814 251.267 81.2121 251.159C81.2429 251.051 81.3038 250.954 81.3876 250.88C81.4714 250.805 81.5748 250.756 81.6855 250.738L86.1912 249.984C86.3241 249.962 86.4601 249.966 86.5914 249.996C86.7227 250.027 86.8467 250.083 86.9562 250.161C87.0658 250.24 87.1588 250.339 87.2298 250.453C87.3009 250.568 87.3487 250.695 87.3704 250.828L90.2057 268.179Z" fill="#C1D8ED"/>
<path d="M51.2499 239.207C47.85 239.348 44.387 239.448 40.924 239.533L35.7196 239.648L30.5213 239.741L30.0034 239.751C27.8564 239.791 25.8046 240.643 24.2616 242.136C22.7186 243.629 21.7993 245.65 21.689 247.794C21.5786 249.937 22.2854 252.042 23.667 253.685C25.0485 255.328 27.002 256.387 29.1335 256.647L80.5048 262.881L82.5979 247.708L31.4559 239.818L30.0676 256.724L35.3458 257.065L40.6206 257.384C44.1428 257.587 47.6662 257.777 51.253 257.925L51.2499 239.207Z" fill="#262626"/>
<path d="M38.2918 257.271C45.3837 256.24 46.0893 256.049 46.3232 255.988L44.2374 248.241C44.2611 248.235 44.2916 248.227 44.3287 248.219C43.7473 248.346 40.1429 248.896 37.1367 249.333L38.2918 257.271Z" fill="#E98862"/>
<path d="M29.4315 264.166C29.3569 264.369 29.325 264.585 29.3377 264.8C29.3503 265.015 29.4073 265.226 29.505 265.418C29.6027 265.611 29.7391 265.781 29.9056 265.918C30.0721 266.055 30.2651 266.157 30.4726 266.216C30.7602 266.299 31.0654 266.297 31.3521 266.212C31.6389 266.127 31.8954 265.962 32.0914 265.736L38.2877 258.08C38.4067 257.931 38.4922 257.759 38.5384 257.574C38.5845 257.39 38.5903 257.197 38.5552 257.01C38.1689 255.496 38.2788 253.898 38.8686 252.452C39.3747 251.342 40.1826 250.397 41.2002 249.725C41.2971 249.668 41.376 249.585 41.4276 249.486C41.4792 249.386 41.5014 249.274 41.4917 249.163C41.4819 249.051 41.4406 248.944 41.3726 248.855C41.3045 248.766 41.2125 248.698 41.1073 248.66L36.8264 247.064C36.7001 247.017 36.5658 246.996 36.4312 247.001C36.2965 247.006 36.1642 247.037 36.0417 247.093C35.9193 247.15 35.8091 247.229 35.7176 247.328C35.6261 247.427 35.5551 247.543 35.5085 247.669L29.4315 264.166Z" fill="#C1D8ED"/>
<path d="M62.6566 256.549C64.8093 256.366 66.9608 256.234 69.1124 256.11C71.264 255.996 73.4151 255.881 75.5659 255.805L78.7915 255.681L82.0172 255.588C84.1676 255.516 86.3172 255.487 88.4669 255.446L87.7211 240.009C83.6967 240.571 79.6668 241.088 75.6382 241.617C71.6095 242.147 67.5766 242.635 63.5445 243.13L57.4931 243.841L51.4371 244.52C47.3973 244.954 43.3575 245.385 39.3086 245.74L41.0856 260.955C45.1074 260.369 49.1376 259.859 53.1685 259.351L59.2184 258.617L65.2722 257.918C69.3104 257.473 73.3479 257.02 77.3888 256.607C81.4297 256.194 85.4717 255.771 89.5176 255.392C91.4578 255.21 93.2576 254.302 94.557 252.851C95.8563 251.399 96.5594 249.511 96.5256 247.564C96.4918 245.616 95.7236 243.754 94.3746 242.348C93.0256 240.942 91.1954 240.098 89.25 239.983L88.7715 239.956C86.6249 239.83 84.4779 239.715 82.3321 239.559L79.113 239.339L75.8943 239.087C73.7484 238.926 71.6034 238.725 69.4583 238.527C67.3132 238.318 65.1686 238.101 63.0247 237.833L62.6566 256.549Z" fill="#262626"/>
<path d="M43.439 236.863L42.3076 255.851L74.9842 255.467L72.5177 238.657L43.439 236.863Z" fill="#262626"/>
<path d="M33.0179 236.141C33.3615 236.662 33.8179 237.099 34.3532 237.42C34.8886 237.741 35.4893 237.938 36.1109 237.995L41.3398 238.481C41.3421 238.545 41.3424 238.608 41.3466 238.672C41.7671 245.143 73.2359 243.615 74.8374 239.937C75.4253 238.587 75.3775 237.42 75.0805 235.918L81.1121 236.777C81.8131 236.878 82.5282 236.791 83.1847 236.525C83.8413 236.26 84.4159 235.826 84.8503 235.267C85.2847 234.708 85.5634 234.044 85.658 233.343C85.7526 232.641 85.6599 231.927 85.3892 231.273L74.3489 204.575C73.6781 201.529 71.5587 199.506 66.3 199.28C66.0592 199.268 65.6731 199.26 65.1762 199.253C65.0769 201.354 52.0582 201.346 51.783 199.203C48.106 199.207 45.0902 200.334 43.3434 202.08C42.2963 203.072 41.5507 204.34 41.1922 205.737L32.531 232.572C32.3396 233.166 32.284 233.794 32.3683 234.412C32.4526 235.03 32.6746 235.621 33.0179 236.141ZM73.534 227.594C73.4002 226.257 73.3089 224.743 73.2867 223.017L75.2823 227.843L73.534 227.594ZM44.6778 222.062C44.6961 222.351 44.7087 222.641 44.7087 222.933C44.7142 225.44 44.3344 227.933 43.5827 230.325L42.0564 230.183L44.6778 222.062Z" fill="#367CFF"/>
<path d="M54.3098 212.042L52.959 232.165C52.9431 232.402 52.9761 232.64 53.0559 232.864C53.1358 233.088 53.2609 233.293 53.4234 233.467C53.5859 233.64 53.7823 233.779 54.0005 233.874C54.2187 233.968 54.4541 234.017 54.692 234.017H82.8151C83.2449 234.017 83.6594 233.858 83.9786 233.57C84.2978 233.283 84.4989 232.887 84.5432 232.46L86.6244 212.336C86.6494 212.095 86.6233 211.85 86.5479 211.619C86.4724 211.388 86.3492 211.176 86.1863 210.995C86.0235 210.815 85.8245 210.67 85.6023 210.572C85.38 210.473 85.1396 210.422 84.8964 210.422H56.0428C55.6022 210.422 55.1782 210.589 54.8564 210.89C54.5346 211.191 54.3392 211.602 54.3098 212.042Z" fill="#9EBCEA"/>
<path d="M80.466 231.594H50.9175C50.2479 231.594 49.7051 232.136 49.7051 232.805C49.7051 233.475 50.2479 234.017 50.9175 234.017H80.466C81.1356 234.017 81.6784 233.475 81.6784 232.805C81.6784 232.136 81.1356 231.594 80.466 231.594Z" fill="#9EBCEA"/>
<path d="M70.5359 224.894C72.0136 224.894 73.2115 223.697 73.2115 222.22C73.2115 220.743 72.0136 219.546 70.5359 219.546C69.0583 219.546 67.8604 220.743 67.8604 222.22C67.8604 223.697 69.0583 224.894 70.5359 224.894Z" fill="white"/>
<path d="M66.6812 236.573C64.965 237.631 62.3086 238.131 59.9923 238.315L59.8623 234.098C60.9517 234.067 62.6258 233.952 64.2656 234.017C65.0063 233.414 65.4329 233.234 66.1935 232.474C67.0031 231.665 69.1275 231.179 69.5288 232.474C69.9302 233.769 68.1887 235.641 66.6812 236.573Z" fill="#E98862"/>
<path d="M65.1745 199.253C65.0751 201.354 63.9323 204.444 60.4043 204.677C55.7029 204.987 52.0565 201.346 51.7812 199.203H51.7927C56.4215 199.203 62.476 199.211 65.1745 199.253Z" fill="#E98862"/>
<path d="M77.5684 193.413L82.4723 190.316H105.716V171.409H77.5684V193.413Z" fill="#0CBC8B"/>
<path d="M101.579 181.649L95.2451 184.721V183.532L100.27 181.182V181.155L95.2451 178.818V177.616L101.579 180.688V181.649Z" fill="white" stroke="white" stroke-width="0.811" stroke-miterlimit="10"/>
<path d="M92.6377 185.255L89.377 175.572H90.5263L93.7871 185.255H92.6377Z" fill="white" stroke="white" stroke-width="0.811" stroke-miterlimit="10"/>
<path d="M81.7051 180.661L88.0397 177.616V178.805L82.9347 181.155V181.183L88.0397 183.533V184.722L81.7051 181.676V180.661Z" fill="white" stroke="white" stroke-width="0.811" stroke-miterlimit="10"/>
<path d="M251.565 254.881C250.719 247.769 250.719 247.037 250.719 246.797H258.746C258.746 246.772 258.746 246.741 258.746 246.703C258.774 247.297 259.179 250.918 259.537 253.934L251.565 254.881Z" fill="#E98862"/>
<path d="M283.549 255.841C283.549 255.841 283.521 247.534 283.521 246.798H291.548C291.548 247.531 291.575 255.815 291.575 255.815L283.549 255.841Z" fill="#E98862"/>
<path d="M262.744 252.349L248.602 252.108C249.189 237.225 249.29 220.2 249.447 204.796C249.491 200.978 249.78 197.166 250.311 193.385C252.586 177.064 254.07 160.837 257.134 144.612L257.236 144.642L257.534 142.606L286.613 140.811L288.129 159.802C288.129 159.802 291.917 225.485 293.644 251.896L279.552 253.086C277.013 227.191 273.083 189.461 270.666 162.259C267.891 175.503 266.003 189.216 263.59 202.346C263.107 218.782 262.699 235.962 262.744 252.349Z" fill="#262626"/>
<path d="M273.79 258.944C273.574 258.943 273.361 258.897 273.164 258.81C272.966 258.723 272.789 258.596 272.643 258.437C272.496 258.279 272.384 258.092 272.314 257.888C272.243 257.684 272.216 257.468 272.232 257.253C272.255 256.954 272.363 256.669 272.543 256.43C272.723 256.191 272.968 256.009 273.248 255.904L282.591 252.777C282.772 252.717 282.964 252.697 283.153 252.718C283.343 252.739 283.525 252.801 283.689 252.899C284.973 253.79 286.51 254.245 288.072 254.198C289.289 254.111 290.457 253.685 291.443 252.967C291.53 252.896 291.635 252.851 291.747 252.837C291.858 252.824 291.971 252.842 292.072 252.89C292.173 252.938 292.259 253.014 292.319 253.109C292.378 253.203 292.41 253.313 292.41 253.425V257.991C292.41 258.126 292.383 258.259 292.331 258.383C292.28 258.508 292.204 258.621 292.108 258.716C292.013 258.811 291.9 258.886 291.775 258.937C291.65 258.988 291.517 259.015 291.382 259.014L273.79 258.944Z" fill="#C1D8ED"/>
<path d="M241.785 258.944C241.57 258.943 241.356 258.897 241.159 258.81C240.961 258.723 240.784 258.596 240.638 258.437C240.491 258.279 240.38 258.092 240.309 257.888C240.238 257.684 240.211 257.468 240.227 257.253C240.251 256.954 240.359 256.669 240.539 256.43C240.719 256.191 240.963 256.009 241.244 255.904L250.586 252.777C250.767 252.717 250.959 252.697 251.148 252.718C251.338 252.739 251.521 252.801 251.684 252.899C252.968 253.79 254.505 254.245 256.067 254.198C257.284 254.111 258.453 253.685 259.439 252.967C259.526 252.896 259.631 252.851 259.742 252.837C259.853 252.824 259.966 252.842 260.067 252.89C260.169 252.938 260.254 253.014 260.314 253.109C260.374 253.203 260.405 253.313 260.405 253.425V257.991C260.405 258.126 260.378 258.259 260.326 258.383C260.275 258.508 260.199 258.621 260.104 258.716C260.008 258.811 259.895 258.886 259.77 258.937C259.645 258.988 259.512 259.015 259.377 259.014L241.785 258.944Z" fill="#C1D8ED"/>
<path d="M227.421 109.68C227.421 109.68 226.408 106.344 224.377 105.013C222.347 103.682 222.352 105.181 223.254 106.683C224.156 108.186 226.283 111.347 226.283 111.347" fill="#E98862"/>
<path d="M226.229 108.287C226.229 108.287 222.674 103.636 220.595 103.636C220.595 103.636 217.245 105.237 217.292 106.272C217.364 107.83 223.029 113.648 223.029 113.648L226.229 108.287Z" fill="#E98862"/>
<path d="M247.082 132.325C246.171 132.325 245.287 132.016 244.575 131.447L221.841 113.267L226.856 107.002L245.979 122.294L257.446 102.896L264.357 106.977L250.536 130.356C250.181 130.956 249.676 131.453 249.07 131.799C248.464 132.144 247.778 132.326 247.081 132.326L247.082 132.325Z" fill="#367CFF"/>
<path d="M255.648 143.884C257.249 147.563 288.718 149.091 289.139 142.62C289.406 138.502 285.775 134.907 285.775 126.882C285.775 118.856 293.163 108.607 287.143 102.59C285.397 100.845 282.381 99.7177 278.704 99.7139C278.429 101.857 265.41 101.865 265.311 99.7635C264.814 99.7712 264.428 99.7788 264.187 99.7903C251.505 100.337 257.077 114.761 257.2 125.357C257.349 137.757 253.997 140.095 255.648 143.884Z" fill="#367CFF"/>
<path d="M265.311 99.7636C265.41 101.865 266.553 104.955 270.081 105.188C274.782 105.497 278.429 101.857 278.704 99.714H278.692C274.064 99.7128 268.009 99.7216 265.311 99.7636Z" fill="#E98862"/>
<path d="M260.68 103.486L259.069 96.2538C259.038 96.1174 258.955 95.9987 258.837 95.9237C258.719 95.8487 258.576 95.8236 258.439 95.8539L253.126 97.0362C253.01 97.0616 252.888 97.0467 252.781 96.9941C252.674 96.9414 252.587 96.8541 252.536 96.7462C251.582 94.7666 250.31 92.956 248.772 91.386C248.688 91.3013 248.635 91.1906 248.622 91.072C248.609 90.9533 248.636 90.8338 248.7 90.7328L251.622 86.1408C251.696 86.023 251.721 85.8805 251.691 85.7445C251.661 85.6084 251.577 85.49 251.46 85.415L245.202 81.4384C245.085 81.364 244.942 81.3393 244.806 81.3696C244.67 81.4 244.551 81.4829 244.476 81.6004L241.552 86.1901C241.487 86.2906 241.391 86.3663 241.277 86.4048C241.164 86.4433 241.042 86.4423 240.929 86.4021C238.854 85.676 236.674 85.2934 234.476 85.2695C234.356 85.269 234.241 85.228 234.147 85.1533C234.054 85.0786 233.989 84.9745 233.963 84.8581L232.78 79.5483C232.765 79.4807 232.737 79.4168 232.697 79.3601C232.657 79.3035 232.607 79.2552 232.548 79.218C232.49 79.1809 232.425 79.1556 232.357 79.1437C232.288 79.1317 232.218 79.1333 232.151 79.1483L224.914 80.7581C224.778 80.7886 224.659 80.8719 224.584 80.9899C224.509 81.1079 224.484 81.2508 224.514 81.3872L225.699 86.697C225.724 86.8136 225.71 86.9355 225.657 87.0426C225.604 87.1497 225.517 87.2358 225.409 87.2868C223.428 88.2408 221.617 89.5115 220.046 91.0487C219.961 91.1328 219.85 91.1857 219.731 91.1988C219.613 91.2118 219.493 91.1842 219.392 91.1206L214.797 88.2006C214.679 88.126 214.537 88.1012 214.4 88.1316C214.264 88.162 214.146 88.245 214.071 88.3625L210.094 94.6158C210.019 94.7337 209.994 94.8762 210.025 95.0122C210.055 95.1482 210.138 95.2666 210.256 95.3416L214.85 98.2612C214.951 98.3257 215.026 98.4223 215.065 98.5353C215.104 98.6483 215.103 98.7711 215.063 98.8835C214.336 100.957 213.953 103.136 213.929 105.333C213.929 105.453 213.888 105.568 213.813 105.661C213.738 105.755 213.634 105.82 213.518 105.846L208.205 107.028C208.068 107.059 207.949 107.142 207.874 107.26C207.799 107.378 207.774 107.52 207.805 107.657L209.416 114.889C209.446 115.026 209.529 115.144 209.647 115.219C209.765 115.294 209.908 115.319 210.045 115.289L215.358 114.107C215.474 114.081 215.596 114.096 215.704 114.149C215.811 114.202 215.897 114.289 215.948 114.397C216.902 116.376 218.174 118.187 219.712 119.757C219.796 119.841 219.849 119.952 219.862 120.071C219.875 120.19 219.848 120.309 219.784 120.41L216.863 125.002C216.788 125.12 216.763 125.263 216.794 125.399C216.824 125.535 216.907 125.653 217.025 125.728L223.279 129.703C223.397 129.777 223.54 129.802 223.676 129.772C223.812 129.742 223.931 129.659 224.006 129.541L226.927 124.949C226.992 124.849 227.088 124.773 227.201 124.734C227.314 124.696 227.437 124.697 227.55 124.737C229.625 125.463 231.805 125.846 234.003 125.87C234.123 125.87 234.238 125.911 234.332 125.986C234.425 126.06 234.49 126.164 234.516 126.281L235.699 131.591C235.73 131.727 235.813 131.846 235.931 131.921C236.049 131.996 236.192 132.021 236.328 131.991L243.565 130.38C243.701 130.35 243.82 130.267 243.895 130.149C243.97 130.031 243.995 129.888 243.965 129.752L242.782 124.442C242.757 124.325 242.771 124.203 242.824 124.096C242.877 123.989 242.964 123.903 243.072 123.852C245.053 122.898 246.865 121.627 248.436 120.09C248.521 120.006 248.631 119.953 248.75 119.94C248.869 119.927 248.989 119.955 249.09 120.019L253.684 122.938C253.802 123.012 253.944 123.037 254.081 123.007C254.217 122.977 254.335 122.894 254.41 122.776L258.39 116.525C258.427 116.466 258.452 116.401 258.464 116.333C258.476 116.265 258.474 116.195 258.459 116.127C258.444 116.06 258.416 115.996 258.376 115.939C258.337 115.882 258.286 115.834 258.228 115.797L253.632 112.877C253.532 112.812 253.456 112.716 253.418 112.603C253.379 112.49 253.38 112.367 253.42 112.255C254.147 110.181 254.53 108.003 254.554 105.806C254.554 105.686 254.595 105.571 254.67 105.477C254.745 105.384 254.849 105.319 254.966 105.293L260.279 104.111C260.414 104.081 260.533 103.998 260.608 103.881C260.683 103.764 260.709 103.622 260.68 103.486ZM237.166 116.956C234.881 117.543 232.473 117.43 230.254 116.631C228.034 115.832 226.107 114.385 224.721 112.477C223.336 110.569 222.556 108.289 222.484 105.933C222.412 103.577 223.05 101.253 224.316 99.2641C225.582 97.2751 227.417 95.7125 229.584 94.7794C231.75 93.8463 234.146 93.5857 236.463 94.0315C238.779 94.4773 240.907 95.6089 242.572 97.2793C244.236 98.9497 245.36 101.082 245.796 103.398C246.349 106.331 245.765 109.364 244.162 111.882C242.559 114.4 240.058 116.214 237.166 116.956Z" fill="#0CBC8B"/>
<path d="M258.445 121.534C258.445 121.534 259.329 116.503 255.69 116.087C253.394 115.824 247.622 112.634 246.527 115.3C245.577 117.614 251.089 120.367 253.063 120.877C254.831 121.334 258.445 121.534 258.445 121.534Z" fill="#E98862"/>
<path d="M256.931 116.487C256.931 116.487 252.241 113.918 250.958 113.978C249.822 114.031 251.755 116.227 251.755 116.227L256.931 116.487Z" fill="#E98862"/>
<path d="M273.528 137.406C272.614 137.406 271.725 137.106 270.998 136.551L251.709 121.821L256.769 115.203L271.872 126.736L281.4 105.414L289.011 108.811L277.333 134.939C277.005 135.674 276.471 136.298 275.796 136.735C275.12 137.173 274.333 137.406 273.528 137.406V137.406Z" fill="#367CFF"/>
<path d="M277.582 101.934C277.582 101.934 274.626 100.368 275.286 92.3243L269.18 91.1943C269.18 91.1943 269.866 98.4057 266.776 100.695L277.582 101.934Z" fill="#E98862"/>
<g opacity="0.15">
<path d="M268.027 99.1857L273.102 95.3069L269.117 95.2656C269.002 96.6288 268.632 97.9582 268.027 99.1857Z" fill="black"/>
</g>
<path d="M278.751 89.2056C278.328 91.6462 276.995 93.9569 274.841 94.7446C272.493 95.6757 269.953 96.0186 267.442 95.7435C260.757 95.1957 262.08 80.0052 265.253 77.0538C268.427 74.1025 277.742 75.9716 278.875 80.9071C279.461 83.4603 279.153 86.8827 278.751 89.2056Z" fill="#E98862"/>
<path d="M261.253 82.6124C261.253 82.6124 262.563 71.8152 274.429 74.467C276.348 74.9755 278.056 76.0789 279.308 77.6185C279.779 76.6584 280.528 75.8615 281.457 75.3306C282.386 74.7996 283.453 74.5589 284.52 74.6396C285.587 74.7202 286.606 75.1185 287.444 75.783C288.283 76.4476 288.903 77.3479 289.225 78.368C289.547 79.388 289.555 80.481 289.25 81.5061C288.944 82.5311 288.338 83.4412 287.511 84.1189C286.683 84.7967 285.671 85.2111 284.605 85.3087C283.539 85.4062 282.469 85.1825 281.531 84.6664C281.521 84.8192 281.509 84.9758 281.493 85.1336C280.767 91.8186 275.2 95.166 275.2 95.166C275.2 95.166 273.705 94.0349 274.237 83.2343C271.66 83.4539 265.763 83.771 261.253 82.6124Z" fill="#0F1011"/>
<path d="M269.188 87.3248C269.494 87.3248 269.741 87.077 269.741 86.7713C269.741 86.4656 269.494 86.2178 269.188 86.2178C268.882 86.2178 268.634 86.4656 268.634 86.7713C268.634 87.077 268.882 87.3248 269.188 87.3248Z" fill="#0F1011"/>
<path d="M264.818 86.9674C265.124 86.9674 265.372 86.7196 265.372 86.4139C265.372 86.1082 265.124 85.8604 264.818 85.8604C264.513 85.8604 264.265 86.1082 264.265 86.4139C264.265 86.7196 264.513 86.9674 264.818 86.9674Z" fill="#0F1011"/>
<path d="M263.859 85.2349C263.789 85.2353 263.723 85.2083 263.674 85.1598C263.625 85.1113 263.597 85.0453 263.597 84.9763C263.596 84.9073 263.623 84.841 263.672 84.7919C263.72 84.7428 263.786 84.715 263.855 84.7146L265.322 84.6963H265.326C265.395 84.6959 265.461 84.7229 265.51 84.7714C265.559 84.8199 265.587 84.8859 265.588 84.9549C265.588 85.0239 265.561 85.0902 265.513 85.1393C265.464 85.1884 265.398 85.2162 265.329 85.2166L263.862 85.2349H263.859Z" fill="#0F1011"/>
<path d="M270.383 85.77C270.363 85.7701 270.342 85.7676 270.322 85.7628L268.875 85.4152C268.842 85.4075 268.81 85.3933 268.782 85.3733C268.754 85.3533 268.73 85.3279 268.712 85.2987C268.694 85.2694 268.682 85.2368 268.676 85.2028C268.671 85.1688 268.672 85.1341 268.68 85.1006C268.688 85.0671 268.703 85.0355 268.723 85.0078C268.744 84.98 268.769 84.9565 268.799 84.9387C268.828 84.9209 268.861 84.9092 268.895 84.9042C268.929 84.8991 268.964 84.9009 268.997 84.9094L270.444 85.257C270.506 85.2719 270.56 85.309 270.596 85.3612C270.633 85.4134 270.649 85.4771 270.641 85.5403C270.634 85.6035 270.603 85.6618 270.556 85.7041C270.508 85.7464 270.447 85.7699 270.383 85.77Z" fill="#0F1011"/>
<path d="M268.931 91.1307C268.931 91.1307 266.887 91.3461 265.453 90.8457C265.453 90.8457 265.465 92.1915 267.082 92.324C268.7 92.4566 268.931 91.1307 268.931 91.1307Z" fill="white"/>
<path d="M272.07 88.1262C272.028 88.7414 272.231 89.3482 272.633 89.8154C273.036 90.2826 273.606 90.5727 274.221 90.6229C274.836 90.6731 275.446 90.4793 275.919 90.0836C276.393 89.6879 276.691 89.1219 276.75 88.5082C276.78 88.2 276.749 87.8889 276.656 87.5933C276.564 87.2978 276.413 87.0238 276.213 86.7876C276.012 86.5515 275.766 86.3582 275.49 86.219C275.213 86.0799 274.911 85.9979 274.602 85.9778C272.928 85.9247 272.175 86.8346 272.07 88.1262Z" fill="#E98862"/>
<g opacity="0.15">
<path d="M266.729 89.8418C266.775 89.8418 266.819 89.8254 266.854 89.7955C266.889 89.7657 266.912 89.7244 266.918 89.6791C266.925 89.6339 266.916 89.5877 266.891 89.549C266.867 89.5103 266.829 89.4816 266.786 89.4682L265.659 89.1224L266.447 87.3691C266.468 87.3228 266.47 87.2702 266.452 87.2228C266.434 87.1754 266.397 87.1372 266.351 87.1164C266.305 87.0956 266.252 87.0941 266.205 87.1121C266.157 87.1301 266.119 87.1662 266.098 87.2125L265.222 89.1633C265.211 89.188 265.205 89.2148 265.205 89.2419C265.205 89.269 265.211 89.2957 265.222 89.3204C265.233 89.3451 265.25 89.3671 265.27 89.385C265.29 89.4029 265.314 89.4163 265.34 89.4242L266.673 89.8333C266.691 89.8389 266.71 89.8417 266.729 89.8418Z" fill="black"/>
</g>
</g>
<defs>
<clipPath id="clip0_173_5960">
<rect width="312" height="229" fill="white" transform="translate(0 41)"/>
</clipPath>
</defs>
</svg>
