<svg width="312" height="312" viewBox="0 0 312 312" fill="none" xmlns="http://www.w3.org/2000/svg">
<path d="M243.552 32.3154H76.521C70.9823 32.3154 66.4922 36.8101 66.4922 42.3546V173.934C66.4922 179.478 70.9823 183.973 76.521 183.973H243.552C249.09 183.973 253.58 179.478 253.58 173.934V42.3546C253.58 36.8101 249.09 32.3154 243.552 32.3154Z" fill="white"/>
<path d="M243.551 184.288H76.5208C73.7783 184.285 71.149 183.193 69.2097 181.251C67.2705 179.31 66.1797 176.678 66.1768 173.933V42.3547C66.1797 39.6094 67.2705 36.9774 69.2097 35.0361C71.149 33.0949 73.7783 32.003 76.5208 32H243.551C246.294 32.003 248.923 33.095 250.862 35.0362C252.802 36.9774 253.892 39.6094 253.895 42.3547V173.933C253.892 176.678 252.801 179.31 250.862 181.251C248.923 183.193 246.294 184.285 243.551 184.288ZM76.5208 32.6302C73.9453 32.6332 71.4761 33.6587 69.655 35.4818C67.8339 37.3048 66.8095 39.7766 66.8066 42.3547V173.933C66.8096 176.511 67.834 178.983 69.6551 180.806C71.4762 182.629 73.9454 183.654 76.5208 183.657H243.551C246.127 183.654 248.596 182.629 250.417 180.806C252.238 178.983 253.263 176.511 253.266 173.933V42.3547C253.263 39.7766 252.238 37.3048 250.417 35.4817C248.596 33.6586 246.127 32.6331 243.551 32.6302H76.5208Z" fill="#292A2E"/>
<path opacity="0.2" d="M238.917 59.5786H228.661C226.499 59.5786 224.747 61.3328 224.747 63.4967V73.7632C224.747 75.9271 226.499 77.6813 228.661 77.6813H238.917C241.079 77.6813 242.831 75.9271 242.831 73.7632V63.4967C242.831 61.3328 241.079 59.5786 238.917 59.5786Z" fill="#367CFF"/>
<path opacity="0.2" d="M239.234 82.4448H229.057C226.874 82.4448 225.104 84.2167 225.104 86.4024V96.59C225.104 98.7757 226.874 100.548 229.057 100.548H239.234C241.418 100.548 243.188 98.7757 243.188 96.59V86.4024C243.188 84.2167 241.418 82.4448 239.234 82.4448Z" fill="#367CFF"/>
<path opacity="0.2" d="M239.234 107.912H229.057C226.874 107.912 225.104 109.683 225.104 111.869V122.057C225.104 124.242 226.874 126.014 229.057 126.014H239.234C241.418 126.014 243.188 124.242 243.188 122.057V111.869C243.188 109.683 241.418 107.912 239.234 107.912Z" fill="#367CFF"/>
<path opacity="0.2" d="M238.878 132.076H228.701C226.517 132.076 224.747 133.848 224.747 136.033V146.221C224.747 148.407 226.517 150.178 228.701 150.178H238.878C241.061 150.178 242.831 148.407 242.831 146.221V136.033C242.831 133.848 241.061 132.076 238.878 132.076Z" fill="#367CFF"/>
<g opacity="0.15">
<path d="M165.176 59.5776H154.92C152.758 59.5776 151.006 61.3318 151.006 63.4958V73.7622C151.006 75.9261 152.758 77.6803 154.92 77.6803H165.176C167.337 77.6803 169.09 75.9261 169.09 73.7622V63.4958C169.09 61.3318 167.337 59.5776 165.176 59.5776Z" fill="#367CFF"/>
<path d="M140.595 59.5776H130.339C128.177 59.5776 126.425 61.3318 126.425 63.4958V73.7622C126.425 75.9261 128.177 77.6803 130.339 77.6803H140.595C142.756 77.6803 144.509 75.9261 144.509 73.7622V63.4958C144.509 61.3318 142.756 59.5776 140.595 59.5776Z" fill="#367CFF"/>
<path d="M116.372 59.5776H106.116C103.954 59.5776 102.202 61.3318 102.202 63.4958V73.7622C102.202 75.9261 103.954 77.6803 106.116 77.6803H116.372C118.533 77.6803 120.286 75.9261 120.286 73.7622V63.4958C120.286 61.3318 118.533 59.5776 116.372 59.5776Z" fill="#367CFF"/>
<path d="M91.792 59.5776H81.5361C79.3745 59.5776 77.6221 61.3318 77.6221 63.4958V73.7622C77.6221 75.9261 79.3745 77.6803 81.5361 77.6803H91.792C93.9537 77.6803 95.7061 75.9261 95.7061 73.7622V63.4958C95.7061 61.3318 93.9537 59.5776 91.792 59.5776Z" fill="#367CFF"/>
<path d="M189.755 59.5776H179.5C177.338 59.5776 175.585 61.3318 175.585 63.4958V73.7622C175.585 75.9261 177.338 77.6803 179.5 77.6803H189.755C191.917 77.6803 193.669 75.9261 193.669 73.7622V63.4958C193.669 61.3318 191.917 59.5776 189.755 59.5776Z" fill="#367CFF"/>
<path d="M214.337 59.5776H204.081C201.919 59.5776 200.167 61.3318 200.167 63.4958V73.7622C200.167 75.9261 201.919 77.6803 204.081 77.6803H214.337C216.499 77.6803 218.251 75.9261 218.251 73.7622V63.4958C218.251 61.3318 216.499 59.5776 214.337 59.5776Z" fill="#367CFF"/>
<path d="M165.493 82.4434H155.316C153.133 82.4434 151.363 84.2152 151.363 86.4009V96.5885C151.363 98.7742 153.133 100.546 155.316 100.546H165.493C167.677 100.546 169.447 98.7742 169.447 96.5885V86.4009C169.447 84.2152 167.677 82.4434 165.493 82.4434Z" fill="#367CFF"/>
<path d="M190.074 82.4434H179.897C177.713 82.4434 175.943 84.2152 175.943 86.4009V96.5885C175.943 98.7742 177.713 100.546 179.897 100.546H190.074C192.257 100.546 194.027 98.7742 194.027 96.5885V86.4009C194.027 84.2152 192.257 82.4434 190.074 82.4434Z" fill="#367CFF"/>
<path d="M214.655 82.4434H204.478C202.294 82.4434 200.524 84.2152 200.524 86.4009V96.5885C200.524 98.7742 202.294 100.546 204.478 100.546H214.655C216.838 100.546 218.608 98.7742 218.608 96.5885V86.4009C218.608 84.2152 216.838 82.4434 214.655 82.4434Z" fill="#367CFF"/>
<path d="M91.7526 82.4434H81.5755C79.3921 82.4434 77.6221 84.2152 77.6221 86.4009V96.5885C77.6221 98.7742 79.3921 100.546 81.5755 100.546H91.7526C93.9361 100.546 95.7061 98.7742 95.7061 96.5885V86.4009C95.7061 84.2152 93.9361 82.4434 91.7526 82.4434Z" fill="#367CFF"/>
<path d="M116.332 82.4434H106.155C103.972 82.4434 102.202 84.2152 102.202 86.4009V96.5885C102.202 98.7742 103.972 100.546 106.155 100.546H116.332C118.516 100.546 120.286 98.7742 120.286 96.5885V86.4009C120.286 84.2152 118.516 82.4434 116.332 82.4434Z" fill="#367CFF"/>
<path d="M140.913 82.4434H130.736C128.552 82.4434 126.782 84.2152 126.782 86.4009V96.5885C126.782 98.7742 128.552 100.546 130.736 100.546H140.913C143.096 100.546 144.866 98.7742 144.866 96.5885V86.4009C144.866 84.2152 143.096 82.4434 140.913 82.4434Z" fill="#367CFF"/>
<path d="M165.493 107.91H155.316C153.133 107.91 151.363 109.682 151.363 111.868V122.055C151.363 124.241 153.133 126.013 155.316 126.013H165.493C167.677 126.013 169.447 124.241 169.447 122.055V111.868C169.447 109.682 167.677 107.91 165.493 107.91Z" fill="#367CFF"/>
<path d="M190.074 107.91H179.897C177.713 107.91 175.943 109.682 175.943 111.868V122.055C175.943 124.241 177.713 126.013 179.897 126.013H190.074C192.257 126.013 194.027 124.241 194.027 122.055V111.868C194.027 109.682 192.257 107.91 190.074 107.91Z" fill="#367CFF"/>
<path d="M214.655 107.91H204.478C202.294 107.91 200.524 109.682 200.524 111.868V122.055C200.524 124.241 202.294 126.013 204.478 126.013H214.655C216.838 126.013 218.608 124.241 218.608 122.055V111.868C218.608 109.682 216.838 107.91 214.655 107.91Z" fill="#367CFF"/>
<path d="M91.7526 107.91H81.5755C79.3921 107.91 77.6221 109.682 77.6221 111.868V122.055C77.6221 124.241 79.3921 126.013 81.5755 126.013H91.7526C93.9361 126.013 95.7061 124.241 95.7061 122.055V111.868C95.7061 109.682 93.9361 107.91 91.7526 107.91Z" fill="#367CFF"/>
<path d="M116.332 107.91H106.155C103.972 107.91 102.202 109.682 102.202 111.868V122.055C102.202 124.241 103.972 126.013 106.155 126.013H116.332C118.516 126.013 120.286 124.241 120.286 122.055V111.868C120.286 109.682 118.516 107.91 116.332 107.91Z" fill="#367CFF"/>
<path d="M140.913 107.91H130.736C128.552 107.91 126.782 109.682 126.782 111.868V122.055C126.782 124.241 128.552 126.013 130.736 126.013H140.913C143.096 126.013 144.866 124.241 144.866 122.055V111.868C144.866 109.682 143.096 107.91 140.913 107.91Z" fill="#367CFF"/>
<path d="M165.493 132.432H155.316C153.133 132.432 151.363 134.203 151.363 136.389V146.577C151.363 148.762 153.133 150.534 155.316 150.534H165.493C167.677 150.534 169.447 148.762 169.447 146.577V136.389C169.447 134.203 167.677 132.432 165.493 132.432Z" fill="#367CFF"/>
<path d="M189.716 132.074H179.539C177.355 132.074 175.585 133.846 175.585 136.032V146.219C175.585 148.405 177.355 150.177 179.539 150.177H189.716C191.899 150.177 193.669 148.405 193.669 146.219V136.032C193.669 133.846 191.899 132.074 189.716 132.074Z" fill="#367CFF"/>
<path d="M214.298 132.074H204.12C201.937 132.074 200.167 133.846 200.167 136.032V146.219C200.167 148.405 201.937 150.177 204.12 150.177H214.298C216.481 150.177 218.251 148.405 218.251 146.219V136.032C218.251 133.846 216.481 132.074 214.298 132.074Z" fill="#367CFF"/>
<path d="M91.7526 132.432H81.5755C79.3921 132.432 77.6221 134.203 77.6221 136.389V146.577C77.6221 148.762 79.3921 150.534 81.5755 150.534H91.7526C93.9361 150.534 95.7061 148.762 95.7061 146.577V136.389C95.7061 134.203 93.9361 132.432 91.7526 132.432Z" fill="#367CFF"/>
<path d="M116.332 132.432H106.155C103.972 132.432 102.202 134.203 102.202 136.389V146.577C102.202 148.762 103.972 150.534 106.155 150.534H116.332C118.516 150.534 120.286 148.762 120.286 146.577V136.389C120.286 134.203 118.516 132.432 116.332 132.432Z" fill="#367CFF"/>
<path d="M140.913 132.432H130.736C128.552 132.432 126.782 134.203 126.782 136.389V146.577C126.782 148.762 128.552 150.534 130.736 150.534H140.913C143.096 150.534 144.866 148.762 144.866 146.577V136.389C144.866 134.203 143.096 132.432 140.913 132.432Z" fill="#367CFF"/>
<path d="M165.136 154.643H154.959C152.776 154.643 151.006 156.415 151.006 158.601V168.788C151.006 170.974 152.776 172.746 154.959 172.746H165.136C167.32 172.746 169.09 170.974 169.09 168.788V158.601C169.09 156.415 167.32 154.643 165.136 154.643Z" fill="#367CFF"/>
<path d="M91.3942 154.643H81.2171C79.0337 154.643 77.2637 156.415 77.2637 158.601V168.788C77.2637 170.974 79.0337 172.746 81.2171 172.746H91.3942C93.5777 172.746 95.3477 170.974 95.3477 168.788V158.601C95.3477 156.415 93.5777 154.643 91.3942 154.643Z" fill="#367CFF"/>
<path d="M115.975 154.643H105.798C103.614 154.643 101.844 156.415 101.844 158.601V168.788C101.844 170.974 103.614 172.746 105.798 172.746H115.975C118.158 172.746 119.928 170.974 119.928 168.788V158.601C119.928 156.415 118.158 154.643 115.975 154.643Z" fill="#367CFF"/>
<path d="M140.555 154.643H130.378C128.195 154.643 126.425 156.415 126.425 158.601V168.788C126.425 170.974 128.195 172.746 130.378 172.746H140.555C142.739 172.746 144.509 170.974 144.509 168.788V158.601C144.509 156.415 142.739 154.643 140.555 154.643Z" fill="#367CFF"/>
</g>
<path d="M253.579 42.3547V48.791H66.4917V42.3547C66.4913 41.0362 66.7504 39.7306 67.2542 38.5123C67.758 37.2941 68.4966 36.1871 69.4278 35.2547C70.359 34.3222 71.4646 33.5825 72.6815 33.0779C73.8983 32.5732 75.2026 32.3135 76.5197 32.3135H243.55C244.868 32.3136 246.172 32.5735 247.389 33.0782C248.605 33.5829 249.711 34.3225 250.642 35.255C251.573 36.1874 252.312 37.2943 252.816 38.5124C253.32 39.7306 253.579 41.0362 253.579 42.3547Z" fill="#292A2E"/>
<path d="M140.326 156.647H130.605C129.401 156.647 128.424 157.625 128.424 158.83V168.561C128.424 169.767 129.401 170.745 130.605 170.745H140.326C141.531 170.745 142.507 169.767 142.507 168.561V158.83C142.507 157.625 141.531 156.647 140.326 156.647Z" fill="white"/>
<path d="M90.685 126.902L78.6836 124.728C78.3435 124.667 78.0417 124.472 77.8447 124.188C77.6477 123.903 77.5716 123.552 77.6331 123.212L79.489 112.946L83.183 110.484L93.3211 112.321C93.6612 112.382 93.963 112.577 94.16 112.861C94.357 113.145 94.4331 113.496 94.3716 113.837L92.1996 125.851C92.1691 126.019 92.1058 126.18 92.0132 126.324C91.9206 126.468 91.8006 126.593 91.6599 126.691C91.5193 126.788 91.3608 126.857 91.1935 126.893C91.0263 126.93 90.8535 126.933 90.685 126.902Z" fill="#367CFF"/>
<path opacity="0.29" d="M83.1832 110.484L79.4893 112.946L82.6439 113.572L83.1832 110.484Z" fill="#FFFFFA"/>
<g opacity="0.88">
<path d="M91.6247 119.898C91.6126 119.898 91.6005 119.897 91.5885 119.895L80.3583 117.816C80.3109 117.807 80.2689 117.78 80.2415 117.74C80.2142 117.7 80.2037 117.651 80.2125 117.604C80.2213 117.556 80.2485 117.514 80.2883 117.487C80.328 117.459 80.377 117.449 80.4244 117.458L91.6546 119.537C91.6988 119.545 91.7383 119.569 91.7656 119.605C91.7929 119.641 91.8061 119.685 91.8025 119.73C91.7989 119.775 91.7789 119.817 91.7463 119.848C91.7137 119.879 91.6708 119.896 91.6259 119.898H91.6247Z" fill="white"/>
<path d="M91.2218 122.256C91.2096 122.256 91.1973 122.255 91.1853 122.253L79.9554 120.174C79.9311 120.171 79.9078 120.162 79.8869 120.15C79.8659 120.137 79.8477 120.12 79.8335 120.1C79.8192 120.08 79.809 120.058 79.8037 120.034C79.7984 120.01 79.7979 119.985 79.8023 119.961C79.8068 119.937 79.8161 119.914 79.8296 119.893C79.8431 119.873 79.8607 119.855 79.8811 119.842C79.9016 119.828 79.9246 119.819 79.9487 119.815C79.9728 119.81 79.9975 119.811 80.0215 119.816L91.2514 121.895C91.2958 121.903 91.3358 121.927 91.3633 121.963C91.3909 121.999 91.4042 122.044 91.4007 122.089C91.3971 122.134 91.3769 122.176 91.344 122.207C91.3111 122.238 91.2678 122.255 91.2226 122.256H91.2218Z" fill="white"/>
<path d="M84.633 123.215C84.6208 123.215 84.6087 123.214 84.5968 123.212L79.6155 122.29C79.5913 122.287 79.568 122.278 79.547 122.265C79.5261 122.253 79.5079 122.236 79.4936 122.216C79.4793 122.196 79.4692 122.173 79.4639 122.149C79.4585 122.125 79.458 122.101 79.4625 122.077C79.4669 122.052 79.4762 122.029 79.4898 122.009C79.5033 121.988 79.5208 121.971 79.5413 121.957C79.5617 121.944 79.5847 121.935 79.6088 121.93C79.6329 121.926 79.6577 121.926 79.6816 121.932L84.6629 122.854C84.707 122.862 84.7466 122.887 84.7739 122.922C84.8012 122.958 84.8143 123.003 84.8107 123.048C84.8072 123.092 84.7871 123.134 84.7545 123.165C84.7219 123.196 84.679 123.214 84.6341 123.215H84.633Z" fill="white"/>
</g>
<path d="M91.6772 117.982C91.6327 117.981 91.5884 117.977 91.5447 117.969L89.1147 117.526C89.0189 117.508 88.9274 117.472 88.8456 117.419C88.7638 117.366 88.6933 117.298 88.638 117.217C88.5828 117.137 88.544 117.046 88.5238 116.951C88.5037 116.856 88.5025 116.757 88.5205 116.661L88.9288 114.078C88.9642 113.887 89.0734 113.717 89.2328 113.605C89.3922 113.493 89.5891 113.449 89.781 113.481L92.2185 113.898C92.3152 113.914 92.4077 113.95 92.4905 114.002C92.5734 114.055 92.645 114.123 92.7012 114.204C92.7573 114.284 92.7969 114.375 92.8176 114.471C92.8384 114.567 92.8398 114.666 92.8219 114.763L92.4061 117.374C92.3743 117.544 92.2841 117.698 92.151 117.809C92.0179 117.92 91.8503 117.981 91.6772 117.982ZM89.6572 113.758C89.5517 113.758 89.4496 113.795 89.3683 113.863C89.2871 113.93 89.2318 114.024 89.2118 114.127L88.8035 116.71C88.792 116.769 88.7923 116.83 88.8043 116.888C88.8164 116.947 88.84 117.003 88.8737 117.053C88.9075 117.102 88.9508 117.145 89.001 117.177C89.0512 117.21 89.1075 117.232 89.1664 117.243L91.5964 117.687C91.7139 117.707 91.8348 117.681 91.9331 117.613C92.0314 117.546 92.0992 117.442 92.122 117.325L92.5383 114.711C92.5494 114.652 92.5486 114.592 92.536 114.533C92.5235 114.474 92.4993 114.418 92.465 114.369C92.4308 114.32 92.387 114.278 92.3363 114.246C92.2857 114.213 92.2291 114.191 92.1699 114.181L89.7325 113.764C89.7076 113.76 89.6824 113.758 89.6572 113.758Z" fill="white"/>
<path d="M132.575 168.349C132.55 168.349 132.525 168.349 132.499 168.345C132.382 168.335 132.269 168.3 132.166 168.243C132.063 168.186 131.973 168.108 131.902 168.014L129.349 164.653C129.213 164.474 129.154 164.249 129.185 164.027C129.215 163.804 129.332 163.603 129.511 163.467C129.689 163.331 129.914 163.272 130.137 163.302C130.359 163.332 130.56 163.45 130.696 163.629L132.689 166.253L140.337 159.263C140.419 159.188 140.515 159.13 140.62 159.092C140.724 159.055 140.835 159.038 140.946 159.043C141.057 159.048 141.166 159.075 141.266 159.122C141.367 159.169 141.457 159.236 141.532 159.318C141.607 159.4 141.665 159.496 141.703 159.601C141.741 159.705 141.757 159.816 141.752 159.927C141.747 160.038 141.72 160.147 141.673 160.248C141.626 160.349 141.56 160.439 141.478 160.514L133.145 168.127C132.989 168.269 132.786 168.349 132.575 168.349Z" fill="#367CFF"/>
<path d="M243.773 71.3653L233.657 78.1848C233.515 78.2808 233.355 78.3477 233.187 78.3819C233.019 78.4161 232.846 78.4167 232.678 78.3839C232.51 78.3511 232.35 78.2854 232.207 78.1905C232.065 78.0957 231.942 77.9736 231.846 77.8313L226.025 69.1782L226.957 64.8349L235.504 59.074C235.646 58.9781 235.806 58.9112 235.973 58.8771C236.141 58.843 236.314 58.8424 236.482 58.8752C236.65 58.908 236.81 58.9737 236.953 59.0685C237.096 59.1632 237.219 59.2852 237.314 59.4275L244.127 69.5541C244.222 69.6963 244.289 69.8559 244.323 70.0239C244.357 70.1919 244.358 70.3649 244.325 70.5331C244.292 70.7013 244.226 70.8613 244.132 71.0042C244.037 71.147 243.915 71.2697 243.773 71.3653Z" fill="#0CBC8B"/>
<path opacity="0.29" d="M226.958 64.8345L226.026 69.178L228.723 67.4246L226.958 64.8345Z" fill="#FFFFFA"/>
<g opacity="0.88">
<path d="M239.565 65.69C239.556 65.6987 239.546 65.7065 239.536 65.7133L230.039 72.0625C229.999 72.0864 229.951 72.0939 229.906 72.0836C229.86 72.0732 229.82 72.0457 229.795 72.0068C229.769 71.9679 229.759 71.9205 229.767 71.8745C229.775 71.8285 229.8 71.7874 229.838 71.7596L239.335 65.4104C239.373 65.3857 239.418 65.3757 239.462 65.3824C239.507 65.3891 239.547 65.412 239.576 65.4467C239.604 65.4814 239.619 65.5255 239.617 65.5704C239.615 65.6153 239.597 65.6579 239.565 65.69H239.565Z" fill="white"/>
<path d="M240.919 67.6607C240.91 67.6694 240.901 67.6772 240.89 67.684L231.393 74.0332C231.353 74.0571 231.305 74.0646 231.26 74.0543C231.214 74.0439 231.174 74.0164 231.149 73.9775C231.123 73.9386 231.113 73.8912 231.121 73.8452C231.129 73.7992 231.154 73.7581 231.192 73.7303L240.689 67.3811C240.727 67.3564 240.772 67.3464 240.816 67.3531C240.861 67.3598 240.901 67.3827 240.93 67.4174C240.958 67.4521 240.973 67.4962 240.971 67.5411C240.969 67.586 240.951 67.6286 240.919 67.6607Z" fill="white"/>
<path d="M236.865 72.9483C236.856 72.957 236.847 72.9648 236.836 72.9716L232.625 75.7878C232.606 75.8024 232.583 75.8129 232.559 75.8186C232.535 75.8242 232.51 75.8249 232.486 75.8207C232.462 75.8164 232.438 75.8072 232.418 75.7937C232.397 75.7802 232.38 75.7627 232.366 75.7421C232.352 75.7216 232.343 75.6985 232.338 75.6742C232.334 75.65 232.335 75.625 232.34 75.601C232.345 75.5769 232.356 75.5542 232.37 75.5343C232.385 75.5143 232.403 75.4975 232.424 75.4849L236.637 72.6687C236.674 72.644 236.72 72.634 236.764 72.6407C236.809 72.6474 236.849 72.6703 236.877 72.705C236.906 72.7397 236.921 72.7838 236.919 72.8287C236.917 72.8736 236.898 72.9162 236.867 72.9483H236.865Z" fill="white"/>
</g>
<path d="M246.089 280H59.2006C59.1473 280 59.0961 279.979 59.0584 279.941C59.0207 279.904 58.9995 279.852 58.9995 279.799C58.9995 279.746 59.0207 279.694 59.0584 279.657C59.0961 279.619 59.1473 279.598 59.2006 279.598H246.089C246.142 279.598 246.193 279.619 246.231 279.657C246.269 279.694 246.29 279.746 246.29 279.799C246.29 279.852 246.269 279.904 246.231 279.941C246.193 279.979 246.142 280 246.089 280Z" fill="#292A2E"/>
<path d="M212.04 267.295C212.04 267.295 210.742 274.026 204.446 274.402C198.149 274.778 199.515 279.798 199.515 279.798H223.576V267.765L212.04 267.295Z" fill="#367CFF"/>
<path d="M219.463 144.498C219.463 144.498 219.388 142.474 219.404 147.065C219.463 164.187 220.335 183.745 221.06 195.19C222.225 213.588 224.639 271.593 224.639 271.593L207.679 271.46L193.505 143.802L219.463 144.498Z" fill="#262626"/>
<path d="M201.27 164.913C201.27 164.913 200.615 177.339 200.494 180.256C200.213 187.002 199.961 194.031 199.961 201.951L197.623 181.146C197.623 181.146 199.446 174.639 201.27 164.913Z" fill="#0A0A0A"/>
<path d="M181.021 267.295C181.021 267.295 179.723 274.026 173.427 274.402C167.131 274.778 168.496 279.798 168.496 279.798H192.557V267.765L181.021 267.295Z" fill="#367CFF"/>
<path d="M176.238 145.827C176.238 145.827 174.55 204.922 174.756 207.783L177.187 271.148L194.461 271.436L195.819 204.896C195.819 204.896 196.026 186.541 200.456 169.496C202.723 160.749 204.087 151.791 204.527 142.765L176.238 145.827Z" fill="#262626"/>
<path d="M219.633 144.496L219.685 144.499C219.685 144.499 219.648 143.501 219.633 144.496Z" fill="#333333"/>
<path d="M186.808 94.1549C186.859 94.1483 187.428 103.596 198.392 102.772C205.983 102.203 208.69 94.1414 208.863 94.1414C208.045 93.9688 206.666 93.7142 206.303 93.5201C205.108 92.8772 203.405 92.2082 203.02 89.8847C202.798 88.5455 203.175 81.6944 203.059 80.3394L191.631 82.9427C191.794 85.8044 192.933 92.4383 188.939 93.6138C188.275 93.8066 187.559 93.9855 186.808 94.1549Z" fill="#E98862"/>
<path d="M191.952 87.4061C196.553 87.7616 202.46 85.8072 203.572 79.6605L204.576 74.1144C205.688 67.968 203.365 62.4006 197.583 61.3524C191.802 60.304 186.578 64.5034 185.467 70.6499L185.023 73.1051C184.885 73.9508 184.805 74.8049 184.783 75.6615C184.708 77.9252 184.604 81.3682 185.723 83.897C186.779 86.2847 189.012 87.1792 191.952 87.4061Z" fill="#E98862"/>
<path d="M202.271 61.037C200.444 60.4667 198.549 60.1439 196.637 60.0774C196.574 59.7431 196.432 59.4288 196.222 59.1614C196.012 58.894 195.74 58.6814 195.43 58.5415C194.419 58.1463 193.185 58.7828 192.363 60.0098C191.934 59.2761 191.264 58.7146 190.467 58.4218C188.203 57.7166 188.091 60.9711 188.091 60.9711C188.091 60.9711 184.502 57.4263 184.39 61.9473C184.255 67.4175 185.259 69.0231 185.991 69.4258C187.438 70.2257 188.515 70.0902 189.088 71.2666C190.822 74.8298 189.122 84.8664 191.128 86.1231C194.203 88.0482 200.497 88.1146 202.542 87.9685C203.329 87.911 204.065 86.9995 204.396 86.2836C205.465 83.9713 207.85 78.7295 208.514 76.5616C209.742 72.5627 209.649 63.4488 202.271 61.037Z" fill="#0C0C0C"/>
<path d="M189.757 82.5385C191.532 82.3458 192.765 80.2884 192.573 78.5117C192.381 76.735 190.835 75.9112 189.06 76.1042L188.274 77.3942L188.231 82.7048L189.757 82.5385Z" fill="#E98862"/>
<path d="M174.012 113.343C174.338 117.178 175.924 141.102 176.237 145.825H219.445C219.689 141.565 220.785 122.937 221.71 114.606C222.594 106.657 224.327 102.677 223.057 100.326C220.98 96.4853 215.307 94.2659 211.438 93.7416C209.076 93.4214 205.522 93.1919 205.522 93.1919H188.886C187.305 93.1919 178.092 93.9363 176.056 95.5062C172.495 98.2528 173.32 105.217 174.012 113.343Z" fill="#367CFF"/>
<path d="M173.415 108.539C173.378 108.539 173.343 108.525 173.316 108.5C173.289 108.475 173.273 108.44 173.271 108.403L172.923 102.314C172.92 102.276 172.933 102.239 172.959 102.21C172.984 102.182 173.02 102.164 173.058 102.162C173.096 102.161 173.133 102.174 173.161 102.199C173.189 102.224 173.207 102.26 173.209 102.297L173.558 108.387C173.559 108.406 173.556 108.425 173.55 108.443C173.544 108.46 173.534 108.477 173.522 108.491C173.509 108.505 173.494 108.517 173.477 108.525C173.46 108.533 173.441 108.538 173.423 108.539L173.415 108.539Z" fill="#0C0C0C"/>
<path d="M228.785 145.575C230.056 145.575 231.308 145.268 232.434 144.679C233.561 144.09 234.529 143.238 235.255 142.194C235.982 141.151 236.446 139.947 236.608 138.685C236.77 137.423 236.625 136.141 236.185 134.947C235.739 133.736 225.274 105.995 223.282 100.855L208.531 106.838C209.651 109.728 213.709 120.682 216.97 129.507L211.553 128.917L209.848 144.618L227.932 145.529C228.215 145.56 228.5 145.575 228.785 145.575Z" fill="#367CFF"/>
<path d="M220.366 114.769L219.305 145.823L219.592 145.833L220.653 114.778L220.366 114.769Z" fill="#0C0C0C"/>
<path d="M142.434 81.6458L129.353 87.4215C129.07 87.5464 128.748 87.5537 128.46 87.4416C128.171 87.3295 127.939 87.1073 127.814 86.8238L122.969 75.8273L124.86 71.2091L135.722 66.4128C135.863 66.3509 136.014 66.3172 136.167 66.3138C136.32 66.3103 136.473 66.3371 136.616 66.3926C136.758 66.4481 136.889 66.5312 137 66.6373C137.111 66.7433 137.2 66.8701 137.261 67.0105L143.031 80.1053C143.156 80.3888 143.163 80.7104 143.051 80.9993C142.939 81.2882 142.717 81.5207 142.434 81.6458Z" fill="#0CBC8B"/>
<path opacity="0.29" d="M124.86 71.2104L122.969 75.8287L126.299 74.4247L124.86 71.2104Z" fill="#FFFFFA"/>
<g opacity="0.88">
<path d="M137.639 72.4294C137.627 72.4374 137.615 72.4441 137.603 72.4495L125.843 77.5878C125.795 77.6047 125.742 77.6026 125.694 77.5819C125.647 77.5613 125.61 77.5237 125.589 77.4765C125.568 77.4294 125.566 77.3762 125.583 77.3275C125.6 77.2788 125.634 77.2382 125.68 77.2139L137.439 72.0756C137.486 72.0557 137.538 72.0537 137.586 72.0699C137.633 72.0861 137.673 72.1195 137.698 72.1635C137.723 72.2075 137.731 72.2591 137.72 72.3084C137.709 72.3577 137.68 72.4012 137.639 72.4306V72.4294Z" fill="white"/>
<path d="M138.633 74.6556C138.622 74.6636 138.61 74.6703 138.598 74.6758L126.838 79.814C126.789 79.8318 126.735 79.8302 126.688 79.8098C126.64 79.7893 126.602 79.7514 126.581 79.7038C126.56 79.6562 126.558 79.6024 126.576 79.5535C126.593 79.5045 126.628 79.4639 126.675 79.4401L138.434 74.3018C138.48 74.2811 138.533 74.2785 138.581 74.2946C138.63 74.3106 138.67 74.3441 138.695 74.3884C138.72 74.4328 138.728 74.4849 138.716 74.5346C138.705 74.5842 138.675 74.6278 138.633 74.6568V74.6556Z" fill="white"/>
<path d="M139.74 77.1034C139.729 77.1113 139.717 77.1181 139.705 77.1235L127.945 82.2618C127.896 82.2795 127.842 82.278 127.795 82.2575C127.747 82.237 127.709 82.1992 127.688 82.1515C127.667 82.1039 127.665 82.0502 127.683 82.0012C127.7 81.9522 127.735 81.9117 127.781 81.8878L139.541 76.7496C139.587 76.7289 139.64 76.7263 139.688 76.7423C139.737 76.7583 139.777 76.7918 139.802 76.8362C139.827 76.8806 139.834 76.9327 139.823 76.9823C139.812 77.0319 139.782 77.0755 139.74 77.1045V77.1034Z" fill="white"/>
<path d="M134.21 82.1467C134.199 82.1545 134.187 82.1613 134.175 82.1668L128.959 84.4457C128.91 84.4626 128.857 84.4605 128.81 84.4399C128.763 84.4193 128.725 84.3816 128.704 84.3345C128.684 84.2873 128.681 84.2341 128.698 84.1854C128.715 84.1367 128.749 84.0962 128.795 84.0718L134.011 81.7929C134.057 81.773 134.11 81.771 134.157 81.7872C134.205 81.8034 134.245 81.8368 134.27 81.8808C134.295 81.9248 134.302 81.9764 134.291 82.0257C134.28 82.075 134.252 82.1185 134.21 82.1478V82.1467Z" fill="white"/>
</g>
<path d="M131.622 80.642C131.562 80.4836 131.471 80.3389 131.354 80.2169C131.236 80.095 131.095 79.9982 130.939 79.9325C130.784 79.8669 130.616 79.8337 130.447 79.8351C130.277 79.8365 130.11 79.8723 129.956 79.9405C129.661 80.0829 129.431 80.332 129.312 80.6375C129.193 80.943 129.195 81.2822 129.316 81.5866L129.731 83.3038C129.818 83.667 129.77 84.0498 129.595 84.3798C129.42 84.7099 129.13 84.9644 128.781 85.0954C128.438 85.2239 128.061 85.2251 127.717 85.0987C127.374 84.9722 127.087 84.7267 126.909 84.4066C126.909 84.4066 124.329 78.9511 124.281 78.729C123.857 79.1423 123.119 80.1591 122.968 80.9256C122.962 80.9297 123.715 87.0522 124.136 87.4837L128.5 94.2229C130.285 96.0531 136.274 93.0079 136.274 93.0079L131.622 80.642Z" fill="#E98862"/>
<path d="M149.557 130.962C148.096 130.962 146.659 130.584 145.387 129.864C144.114 129.144 143.049 128.106 142.296 126.853L123.506 95.6077L138.03 86.856L152.313 110.61L176.057 95.5094L186.116 109.011L154.145 129.614C152.777 130.495 151.184 130.963 149.557 130.962Z" fill="#367CFF"/>
<path d="M174.252 116.791C174.22 116.791 174.189 116.78 174.163 116.76C174.138 116.74 174.12 116.712 174.112 116.681C174.105 116.65 174.108 116.617 174.121 116.587C174.135 116.558 174.157 116.534 174.186 116.519L178.289 114.4C178.322 114.382 178.362 114.379 178.398 114.391C178.435 114.402 178.465 114.428 178.482 114.462C178.5 114.496 178.503 114.535 178.491 114.571C178.48 114.608 178.454 114.638 178.42 114.656L174.318 116.775C174.298 116.785 174.275 116.791 174.252 116.791Z" fill="#0C0C0C"/>
<path d="M186.594 94.0891L188.631 90.9019C188.72 90.7622 188.843 90.6473 188.988 90.5676C189.134 90.488 189.297 90.4463 189.462 90.4463H204.815C204.953 90.4463 205.09 90.4754 205.216 90.5317C205.343 90.5881 205.456 90.6704 205.548 90.7733L208.531 94.0891H186.594Z" fill="#367CFF"/>
</svg>
