<svg width="199" height="55" viewBox="0 0 199 55" fill="none" xmlns="http://www.w3.org/2000/svg">
<g clip-path="url(#clip0_114_823)">
<path d="M22.148 29.4252L-0.000488281 16.6375V31.9822L17.7179 42.2121V47.3269L-0.000488281 37.0969V42.2121L22.148 54.9994V39.6543L4.42621 29.4239L4.42922 24.3091L22.1459 34.5395L22.148 29.4252Z" fill="#13417C"/>
<path d="M48.7247 16.6375L26.5762 29.4248V44.7695L44.2945 34.5395V39.6552L26.5762 49.8847V54.9994L48.7247 42.2121L48.7226 26.8661L44.7006 29.1891L31.0153 37.0922V31.9873L48.7324 21.7522L48.7247 16.6375Z" fill="#13417C"/>
<path d="M46.5194 12.7761L24.361 0L11.0719 7.67258L28.8036 17.9004L24.3615 20.4586L6.65123 10.2359L2.21338 12.7886L24.3619 25.5764L37.6506 17.8901L19.9468 7.66482L24.3778 5.12546L42.0919 15.3378L46.5194 12.7761Z" fill="#13417C"/>
</g>
<path d="M68.3227 27.6704C66.3182 27.6704 64.6723 27.1978 63.3849 26.2526C62.0975 25.2911 61.4049 23.9223 61.3071 22.146H66.416C66.4649 22.7489 66.6442 23.1889 66.9538 23.466C67.2634 23.743 67.6627 23.8815 68.1516 23.8815C68.5916 23.8815 68.9501 23.7756 69.2271 23.5637C69.5205 23.3356 69.6671 23.026 69.6671 22.6349C69.6671 22.1297 69.4308 21.7386 68.9582 21.4615C68.4856 21.1845 67.7197 20.8749 66.6605 20.5326C65.536 20.1578 64.6234 19.7993 63.9227 19.4571C63.2382 19.0986 62.6353 18.5852 62.1138 17.9171C61.6086 17.2326 61.356 16.3445 61.356 15.2526C61.356 14.1445 61.6331 13.1993 62.1871 12.4171C62.7412 11.6186 63.5071 11.0156 64.4849 10.6082C65.4627 10.2008 66.5708 9.99707 67.8094 9.99707C69.8138 9.99707 71.4108 10.4697 72.6005 11.4148C73.8064 12.3437 74.4501 13.6556 74.5316 15.3504H69.3249C69.3086 14.8289 69.1456 14.4378 68.836 14.1771C68.5427 13.9163 68.1597 13.786 67.6871 13.786C67.3286 13.786 67.0353 13.8919 66.8071 14.1037C66.579 14.3156 66.4649 14.6171 66.4649 15.0082C66.4649 15.3341 66.5871 15.6193 66.8316 15.8637C67.0923 16.0919 67.4101 16.2956 67.7849 16.4748C68.1597 16.6378 68.7138 16.8497 69.4471 17.1104C70.539 17.4852 71.4353 17.86 72.136 18.2349C72.8531 18.5934 73.4642 19.1067 73.9694 19.7749C74.4908 20.4267 74.7516 21.2578 74.7516 22.2682C74.7516 23.2949 74.4908 24.2156 73.9694 25.0304C73.4642 25.8452 72.7227 26.4889 71.7449 26.9615C70.7834 27.4341 69.6427 27.6704 68.3227 27.6704Z" fill="#13417C"/>
<path d="M92.6478 10.266L86.5856 22.0237V27.4993H81.77V22.0237L75.7078 10.266H81.1833L84.2144 16.9148L87.2456 10.266H92.6478Z" fill="#13417C"/>
<path d="M110.081 27.4993H105.29L98.9098 17.8682V27.4993H94.1186V10.266H98.9098L105.29 20.0193V10.266H110.081V27.4993Z" fill="#13417C"/>
<path d="M117.601 14.1037V16.9148H123.101V20.5571H117.601V23.6615H123.834V27.4993H112.81V10.266H123.834V14.1037H117.601Z" fill="#13417C"/>
<path d="M125.615 18.846C125.615 17.1511 125.966 15.6437 126.666 14.3237C127.383 12.9874 128.394 11.9526 129.698 11.2193C131.001 10.4697 132.5 10.0948 134.195 10.0948C136.346 10.0948 138.155 10.6734 139.622 11.8304C141.089 12.9711 142.034 14.5274 142.458 16.4993H137.3C136.99 15.8474 136.558 15.3504 136.004 15.0082C135.466 14.666 134.839 14.4948 134.122 14.4948C133.014 14.4948 132.126 14.8941 131.458 15.6926C130.806 16.4748 130.48 17.526 130.48 18.846C130.48 20.1823 130.806 21.2497 131.458 22.0482C132.126 22.8304 133.014 23.2215 134.122 23.2215C134.839 23.2215 135.466 23.0504 136.004 22.7082C136.558 22.366 136.99 21.8689 137.3 21.2171H142.458C142.034 23.1889 141.089 24.7534 139.622 25.9104C138.155 27.0511 136.346 27.6215 134.195 27.6215C132.5 27.6215 131.001 27.2549 129.698 26.5215C128.394 25.7719 127.383 24.7371 126.666 23.4171C125.966 22.0808 125.615 20.5571 125.615 18.846Z" fill="#13417C"/>
<path d="M157.706 10.266V14.0793H153.111V27.4993H148.32V14.0793H143.773V10.266H157.706Z" fill="#13417C"/>
<path d="M164.27 10.266V27.4993H159.479V10.266H164.27Z" fill="#13417C"/>
<path d="M166.412 18.846C166.412 17.1511 166.762 15.6437 167.463 14.3237C168.18 12.9874 169.19 11.9526 170.494 11.2193C171.798 10.4697 173.297 10.0948 174.992 10.0948C177.143 10.0948 178.952 10.6734 180.418 11.8304C181.885 12.9711 182.83 14.5274 183.254 16.4993H178.096C177.787 15.8474 177.355 15.3504 176.801 15.0082C176.263 14.666 175.635 14.4948 174.918 14.4948C173.81 14.4948 172.922 14.8941 172.254 15.6926C171.602 16.4748 171.276 17.526 171.276 18.846C171.276 20.1823 171.602 21.2497 172.254 22.0482C172.922 22.8304 173.81 23.2215 174.918 23.2215C175.635 23.2215 176.263 23.0504 176.801 22.7082C177.355 22.366 177.787 21.8689 178.096 21.2171H183.254C182.83 23.1889 181.885 24.7534 180.418 25.9104C178.952 27.0511 177.143 27.6215 174.992 27.6215C173.297 27.6215 171.798 27.2549 170.494 26.5215C169.19 25.7719 168.18 24.7371 167.463 23.4171C166.762 22.0808 166.412 20.5571 166.412 18.846Z" fill="#13417C"/>
<path d="M192.025 27.6704C190.021 27.6704 188.375 27.1978 187.087 26.2526C185.8 25.2911 185.107 23.9223 185.009 22.146H190.118C190.167 22.7489 190.346 23.1889 190.656 23.466C190.966 23.743 191.365 23.8815 191.854 23.8815C192.294 23.8815 192.652 23.7756 192.929 23.5637C193.223 23.3356 193.369 23.026 193.369 22.6349C193.369 22.1297 193.133 21.7386 192.661 21.4615C192.188 21.1845 191.422 20.8749 190.363 20.5326C189.238 20.1578 188.326 19.7993 187.625 19.4571C186.941 19.0986 186.338 18.5852 185.816 17.9171C185.311 17.2326 185.058 16.3445 185.058 15.2526C185.058 14.1445 185.335 13.1993 185.889 12.4171C186.443 11.6186 187.209 11.0156 188.187 10.6082C189.165 10.2008 190.273 9.99707 191.512 9.99707C193.516 9.99707 195.113 10.4697 196.303 11.4148C197.509 12.3437 198.152 13.6556 198.234 15.3504H193.027C193.011 14.8289 192.848 14.4378 192.538 14.1771C192.245 13.9163 191.862 13.786 191.389 13.786C191.031 13.786 190.738 13.8919 190.509 14.1037C190.281 14.3156 190.167 14.6171 190.167 15.0082C190.167 15.3341 190.289 15.6193 190.534 15.8637C190.795 16.0919 191.112 16.2956 191.487 16.4748C191.862 16.6378 192.416 16.8497 193.149 17.1104C194.241 17.4852 195.138 17.86 195.838 18.2349C196.555 18.5934 197.166 19.1067 197.672 19.7749C198.193 20.4267 198.454 21.2578 198.454 22.2682C198.454 23.2949 198.193 24.2156 197.672 25.0304C197.166 25.8452 196.425 26.4889 195.447 26.9615C194.486 27.4341 193.345 27.6704 192.025 27.6704Z" fill="#13417C"/>
<path d="M64.705 35.4813C65.6338 35.4813 66.4364 35.6565 67.1127 36.0069C67.7972 36.3491 68.3187 36.8421 68.6772 37.4858C69.0438 38.1295 69.2272 38.8872 69.2272 39.7591C69.2272 40.631 69.0438 41.3887 68.6772 42.0324C68.3187 42.668 67.7972 43.1569 67.1127 43.4991C66.4364 43.8332 65.6338 44.0002 64.705 44.0002H62.0527V35.4813H64.705ZM64.705 43.0835C65.805 43.0835 66.6442 42.7943 67.2227 42.2158C67.8013 41.6291 68.0905 40.8102 68.0905 39.7591C68.0905 38.6998 67.7972 37.8728 67.2105 37.278C66.632 36.6832 65.7968 36.3858 64.705 36.3858H63.165V43.0835H64.705Z" fill="#13417C"/>
<path d="M71.8064 36.3858V39.2335H74.9109V40.1502H71.8064V43.0835H75.2776V44.0002H70.6942V35.4691H75.2776V36.3858H71.8064Z" fill="#13417C"/>
<path d="M84.0005 35.4813L80.7861 44.0002H79.5027L76.2883 35.4813H77.4738L80.1505 42.8269L82.8272 35.4813H84.0005Z" fill="#13417C"/>
<path d="M86.3323 36.3858V39.2335H89.4367V40.1502H86.3323V43.0835H89.8034V44.0002H85.22V35.4691H89.8034V36.3858H86.3323Z" fill="#13417C"/>
<path d="M92.5985 43.0958H95.5808V44.0002H91.4863V35.4813H92.5985V43.0958Z" fill="#13417C"/>
<path d="M100.624 44.0858C99.8338 44.0858 99.1127 43.9024 98.4608 43.5358C97.809 43.161 97.2916 42.6435 96.9086 41.9835C96.5338 41.3154 96.3464 40.5658 96.3464 39.7347C96.3464 38.9035 96.5338 38.158 96.9086 37.498C97.2916 36.8298 97.809 36.3124 98.4608 35.9458C99.1127 35.571 99.8338 35.3835 100.624 35.3835C101.423 35.3835 102.148 35.571 102.8 35.9458C103.452 36.3124 103.965 36.8258 104.34 37.4858C104.715 38.1458 104.902 38.8954 104.902 39.7347C104.902 40.5739 104.715 41.3235 104.34 41.9835C103.965 42.6435 103.452 43.161 102.8 43.5358C102.148 43.9024 101.423 44.0858 100.624 44.0858ZM100.624 43.1202C101.219 43.1202 101.753 42.9817 102.225 42.7047C102.706 42.4276 103.081 42.0324 103.35 41.5191C103.627 41.0058 103.765 40.411 103.765 39.7347C103.765 39.0502 103.627 38.4554 103.35 37.9502C103.081 37.4369 102.71 37.0417 102.237 36.7647C101.765 36.4876 101.227 36.3491 100.624 36.3491C100.021 36.3491 99.4834 36.4876 99.0108 36.7647C98.5382 37.0417 98.1634 37.4369 97.8864 37.9502C97.6175 38.4554 97.483 39.0502 97.483 39.7347C97.483 40.411 97.6175 41.0058 97.8864 41.5191C98.1634 42.0324 98.5382 42.4276 99.0108 42.7047C99.4916 42.9817 100.029 43.1202 100.624 43.1202Z" fill="#13417C"/>
<path d="M112.066 37.9747C112.066 38.6835 111.821 39.2743 111.332 39.7469C110.852 40.2113 110.114 40.4435 109.12 40.4435H107.482V44.0002H106.37V35.4813H109.12C110.082 35.4813 110.811 35.7135 111.308 36.178C111.813 36.6424 112.066 37.2413 112.066 37.9747ZM109.12 39.5269C109.739 39.5269 110.196 39.3924 110.489 39.1235C110.782 38.8547 110.929 38.4717 110.929 37.9747C110.929 36.9235 110.326 36.398 109.12 36.398H107.482V39.5269H109.12Z" fill="#13417C"/>
<path d="M122.089 35.5424V44.0002H120.977V37.6935L118.166 44.0002H117.384L114.56 37.6813V44.0002H113.448V35.5424H114.646L117.775 42.5335L120.904 35.5424H122.089Z" fill="#13417C"/>
<path d="M125.088 36.3858V39.2335H128.192V40.1502H125.088V43.0835H128.559V44.0002H123.975V35.4691H128.559V36.3858H125.088Z" fill="#13417C"/>
<path d="M136.94 44.0002H135.827L131.354 37.2169V44.0002H130.242V35.4691H131.354L135.827 42.2402V35.4691H136.94V44.0002Z" fill="#13417C"/>
<path d="M144.079 35.4813V36.3858H141.757V44.0002H140.644V36.3858H138.31V35.4813H144.079Z" fill="#13417C"/>
<defs>
<clipPath id="clip0_114_823">
<rect width="48.7336" height="55" fill="white"/>
</clipPath>
</defs>
</svg>
