<svg width="312" height="312" viewBox="0 0 312 312" fill="none" xmlns="http://www.w3.org/2000/svg">
<g clip-path="url(#clip0_173_6197)">
<path d="M19.889 253.788H289.939C294.643 253.783 299.2 252.155 302.836 249.181C306.473 246.206 308.963 242.068 309.884 237.47C314.274 215.743 316.411 184.35 267.844 151.235C212.711 113.642 209.553 26.3992 139.178 51.4479C75.3385 74.1701 98.5719 119.315 45.0444 160.255C18.5907 180.487 0.29091 197.96 0.00304602 229.269C-0.168873 248.039 6.94233 253.788 19.889 253.788Z" fill="#F3F5FD"/>
<path d="M280.604 199.927C280.604 199.927 277.794 198.442 278.421 190.814L272.615 189.74C272.615 189.74 273.269 196.58 270.329 198.751L280.604 199.927Z" fill="#E98862"/>
<g opacity="0.15">
<path d="M271.52 197.321L276.342 193.643L272.554 193.604C272.444 194.896 272.094 196.157 271.52 197.321Z" fill="black"/>
</g>
<path d="M281.716 187.856C281.314 190.17 280.047 192.362 277.999 193.109C275.567 193.996 273.766 194.056 270.963 194.056C267.137 194.056 267.264 190.079 267.156 186.072C267.047 182.049 267.369 177.733 268.881 176.331C271.898 173.533 280.757 175.305 281.834 179.986C282.391 182.407 282.098 185.653 281.716 187.856Z" fill="#E98862"/>
<path d="M278.151 192.889C278.271 193.274 278.355 193.442 278.703 193.236C280.069 192.428 283.141 190.668 284.188 184.077C285.126 178.172 281.47 175.735 278.554 174.866C276.041 174.117 270.177 173.963 267.425 175.616C265.054 177.041 267.425 180.355 267.425 180.355C268.473 180.403 268.685 181.301 271.157 181.301C273.069 181.301 274.312 180.45 276.102 180.525C277.741 180.593 278.077 181.589 278.019 182.226C277.668 186.097 277.723 191.529 278.151 192.889Z" fill="#0F1011"/>
<path d="M272.622 186.073C272.913 186.073 273.149 185.838 273.149 185.548C273.149 185.258 272.913 185.023 272.622 185.023C272.332 185.023 272.096 185.258 272.096 185.548C272.096 185.838 272.332 186.073 272.622 186.073Z" fill="#0F1011"/>
<path d="M268.468 185.733C268.759 185.733 268.995 185.498 268.995 185.209C268.995 184.919 268.759 184.684 268.468 184.684C268.177 184.684 267.941 184.919 267.941 185.209C267.941 185.498 268.177 185.733 268.468 185.733Z" fill="#0F1011"/>
<path d="M267.555 184.09C267.491 184.088 267.43 184.061 267.386 184.015C267.341 183.97 267.316 183.909 267.315 183.845C267.315 183.781 267.339 183.719 267.384 183.673C267.428 183.627 267.488 183.6 267.552 183.597L268.947 183.579C269.012 183.581 269.074 183.607 269.12 183.652C269.166 183.697 269.194 183.758 269.198 183.823C269.198 183.855 269.192 183.887 269.18 183.917C269.168 183.947 269.15 183.975 269.127 183.998C269.105 184.021 269.078 184.04 269.048 184.052C269.018 184.065 268.986 184.072 268.953 184.072L267.558 184.09H267.555Z" fill="#0F1011"/>
<path d="M273.761 184.597C273.742 184.597 273.722 184.595 273.703 184.59L272.328 184.26C272.296 184.253 272.265 184.24 272.238 184.221C272.211 184.202 272.188 184.178 272.171 184.15C272.153 184.123 272.141 184.092 272.136 184.059C272.131 184.027 272.132 183.994 272.14 183.962C272.147 183.93 272.161 183.899 272.181 183.873C272.2 183.847 272.225 183.824 272.253 183.807C272.282 183.791 272.313 183.779 272.346 183.775C272.378 183.77 272.412 183.772 272.444 183.781L273.819 184.11C273.878 184.124 273.93 184.159 273.965 184.209C274 184.258 274.015 184.319 274.008 184.379C274.001 184.439 273.972 184.495 273.927 184.535C273.881 184.575 273.822 184.597 273.761 184.597Z" fill="#0F1011"/>
<path d="M275.362 186.832C275.323 187.416 275.516 187.991 275.898 188.434C276.281 188.878 276.824 189.153 277.408 189.2C277.993 189.248 278.573 189.064 279.023 188.689C279.473 188.314 279.757 187.777 279.813 187.195C279.842 186.903 279.812 186.607 279.724 186.327C279.636 186.047 279.493 185.787 279.302 185.563C279.112 185.339 278.878 185.156 278.615 185.024C278.351 184.892 278.064 184.814 277.77 184.795C276.179 184.745 275.463 185.608 275.362 186.832Z" fill="#E98862"/>
<g opacity="0.15">
<path d="M270.284 188.459C270.266 188.459 270.248 188.456 270.231 188.451L268.963 188.063C268.939 188.056 268.916 188.043 268.897 188.026C268.877 188.009 268.862 187.988 268.851 187.965C268.841 187.941 268.835 187.916 268.835 187.89C268.835 187.864 268.84 187.839 268.851 187.816L269.684 185.966C269.694 185.944 269.708 185.924 269.725 185.908C269.742 185.892 269.763 185.879 269.785 185.87C269.807 185.862 269.831 185.858 269.855 185.858C269.879 185.859 269.902 185.864 269.924 185.874C269.946 185.884 269.966 185.898 269.982 185.915C269.998 185.932 270.011 185.953 270.02 185.975C270.028 185.997 270.032 186.021 270.032 186.045C270.031 186.069 270.026 186.092 270.016 186.114L269.267 187.777L270.337 188.105C270.379 188.117 270.414 188.145 270.438 188.181C270.461 188.218 270.47 188.262 270.464 188.305C270.457 188.348 270.436 188.387 270.403 188.415C270.37 188.443 270.328 188.459 270.284 188.459H270.284Z" fill="black"/>
</g>
<path d="M272.38 189.682C272.38 189.682 270.436 189.887 269.072 189.412C269.072 189.412 269.083 190.688 270.621 190.814C272.16 190.94 272.38 189.682 272.38 189.682Z" fill="white"/>
<path d="M257.747 256.079C257.056 255.964 249.266 254.638 249.266 254.638L250.551 247.139C250.551 247.139 258.32 248.462 259.009 248.577L257.747 256.079Z" fill="#E98862"/>
<path d="M244.821 263.274C244.788 263.476 244.797 263.683 244.848 263.881C244.899 264.079 244.99 264.265 245.116 264.426C245.242 264.588 245.4 264.722 245.58 264.82C245.76 264.918 245.959 264.978 246.163 264.996C246.447 265.021 246.732 264.964 246.984 264.833C247.236 264.703 247.446 264.503 247.588 264.257L251.99 256.012C252.075 255.852 252.124 255.676 252.134 255.495C252.144 255.315 252.114 255.135 252.048 254.967C251.414 253.627 251.228 252.12 251.518 250.667C251.79 249.543 252.374 248.518 253.202 247.709C253.283 247.639 253.341 247.547 253.372 247.445C253.402 247.344 253.403 247.235 253.373 247.133C253.344 247.031 253.286 246.939 253.207 246.868C253.127 246.797 253.029 246.751 252.924 246.734L248.639 246.018C248.513 245.997 248.383 246.001 248.258 246.03C248.133 246.059 248.016 246.112 247.911 246.186C247.807 246.261 247.719 246.355 247.651 246.463C247.583 246.572 247.538 246.693 247.517 246.819L244.821 263.274Z" fill="#C1D8ED"/>
<path d="M281.866 235.797C285.1 235.931 288.393 236.025 291.686 236.106L296.634 236.215L301.578 236.304L302.07 236.312C304.112 236.351 306.063 237.159 307.53 238.574C308.997 239.99 309.872 241.907 309.977 243.94C310.082 245.972 309.41 247.969 308.096 249.527C306.782 251.085 304.925 252.089 302.898 252.336L254.048 258.249L252.058 243.859L300.689 236.376L302.009 252.409L296.99 252.732L291.974 253.035C288.625 253.227 285.275 253.408 281.864 253.548L281.866 235.797Z" fill="#262626"/>
<path d="M294.188 252.928C287.444 251.95 286.773 251.769 286.551 251.712L288.533 244.365C288.511 244.359 288.482 244.351 288.447 244.344C288.999 244.464 292.427 244.986 295.286 245.4L294.188 252.928Z" fill="#E98862"/>
<path d="M302.612 259.467C302.683 259.659 302.713 259.864 302.701 260.068C302.689 260.272 302.635 260.472 302.542 260.654C302.449 260.837 302.319 260.998 302.161 261.128C302.003 261.259 301.819 261.355 301.622 261.411C301.348 261.489 301.058 261.488 300.786 261.407C300.513 261.326 300.269 261.17 300.083 260.956L294.19 253.695C294.077 253.554 293.996 253.39 293.952 253.215C293.908 253.04 293.903 252.858 293.936 252.681C294.303 251.245 294.199 249.73 293.638 248.358C293.157 247.305 292.389 246.409 291.421 245.771C291.329 245.718 291.254 245.639 291.205 245.545C291.156 245.451 291.134 245.344 291.144 245.239C291.153 245.133 291.192 245.032 291.257 244.947C291.322 244.863 291.409 244.798 291.509 244.761L295.58 243.249C295.7 243.204 295.828 243.183 295.956 243.188C296.084 243.193 296.21 243.223 296.326 243.276C296.443 243.329 296.548 243.405 296.635 243.499C296.722 243.593 296.789 243.703 296.834 243.822L302.612 259.467Z" fill="#C1D8ED"/>
<path d="M271.019 252.243C268.972 252.07 266.926 251.945 264.88 251.827C262.834 251.718 260.788 251.61 258.743 251.537L255.676 251.42L252.608 251.331C250.563 251.263 248.519 251.235 246.475 251.196L247.183 236.557C251.01 237.09 254.842 237.581 258.673 238.083C262.504 238.585 266.339 239.047 270.173 239.517L275.928 240.193L281.687 240.837C285.528 241.248 289.37 241.657 293.22 241.994L291.531 256.423C287.706 255.867 283.874 255.383 280.04 254.901L274.288 254.206L268.531 253.543C264.691 253.12 260.852 252.691 257.009 252.3C253.167 251.908 249.323 251.507 245.476 251.147C243.631 250.974 241.919 250.114 240.684 248.737C239.448 247.361 238.78 245.57 238.812 243.723C238.844 241.876 239.574 240.11 240.857 238.777C242.14 237.444 243.88 236.643 245.73 236.534L246.185 236.508C248.226 236.389 250.268 236.28 252.308 236.132L255.37 235.923L258.43 235.685C260.471 235.532 262.511 235.341 264.55 235.153C266.59 234.955 268.63 234.749 270.668 234.495L271.019 252.243Z" fill="#262626"/>
<path d="M289.293 233.574L290.369 251.581L259.296 251.217L261.641 235.275L289.293 233.574Z" fill="#262626"/>
<path d="M299.665 229.503L291.43 204.056C291.089 202.731 290.38 201.529 289.385 200.587C287.724 198.932 284.856 197.863 281.359 197.859C281.098 199.892 268.718 199.899 268.624 197.906C268.151 197.914 267.784 197.921 267.555 197.932C262.554 198.147 260.54 200.066 259.901 202.954L249.403 228.273C249.146 228.893 249.058 229.57 249.149 230.234C249.239 230.899 249.504 231.528 249.917 232.058C250.33 232.587 250.875 232.999 251.499 233.25C252.123 233.502 252.802 233.584 253.468 233.49L259.204 232.675C258.922 234.099 258.877 235.206 259.435 236.486C260.958 239.975 290.882 241.424 291.282 235.287C291.286 235.227 291.286 235.167 291.288 235.106L296.261 234.645C296.852 234.591 297.423 234.404 297.932 234.1C298.441 233.796 298.875 233.382 299.202 232.888C299.529 232.394 299.74 231.833 299.82 231.247C299.9 230.661 299.848 230.064 299.665 229.501V229.503ZM259.011 225.019L260.908 220.442C260.887 222.079 260.799 223.515 260.673 224.782L259.011 225.019ZM290.606 227.238L289.155 227.372C288.439 225.105 288.077 222.741 288.082 220.364C288.082 220.086 288.094 219.811 288.111 219.538L290.606 227.238Z" fill="#367CFF"/>
<path d="M278.956 210.034L280.24 229.118C280.255 229.343 280.224 229.569 280.148 229.781C280.072 229.993 279.953 230.188 279.798 230.353C279.644 230.517 279.457 230.649 279.25 230.738C279.042 230.828 278.818 230.875 278.592 230.875H251.849C251.441 230.875 251.047 230.724 250.743 230.451C250.44 230.178 250.248 229.803 250.206 229.398L248.228 210.314C248.204 210.084 248.228 209.853 248.3 209.634C248.372 209.415 248.489 209.213 248.644 209.042C248.799 208.871 248.988 208.734 249.199 208.64C249.41 208.546 249.639 208.498 249.87 208.498H277.308C277.727 208.498 278.13 208.657 278.436 208.942C278.742 209.227 278.928 209.617 278.956 210.034Z" fill="#9EBCEA"/>
<path d="M254.083 230.875H282.181C282.818 230.875 283.334 230.361 283.334 229.726C283.334 229.091 282.818 228.577 282.181 228.577H254.083C253.446 228.577 252.93 229.091 252.93 229.726C252.93 230.361 253.446 230.875 254.083 230.875Z" fill="#9EBCEA"/>
<path d="M263.526 222.222C264.931 222.222 266.07 221.087 266.07 219.686C266.07 218.286 264.931 217.15 263.526 217.15C262.121 217.15 260.981 218.286 260.981 219.686C260.981 221.087 262.121 222.222 263.526 222.222Z" fill="white"/>
<path d="M267.191 233.298C268.823 234.302 271.349 234.777 273.552 234.95L273.675 230.951C272.639 230.922 271.048 230.813 269.488 230.875C268.784 230.302 268.378 230.132 267.655 229.411C266.885 228.644 264.865 228.183 264.483 229.411C264.102 230.639 265.759 232.415 267.191 233.298Z" fill="#E98862"/>
<path d="M268.624 197.906C268.719 199.899 269.805 202.83 273.16 203.051C277.631 203.344 281.098 199.892 281.36 197.859H281.349C276.947 197.859 271.19 197.867 268.624 197.906Z" fill="#E98862"/>
<path d="M244.815 50.7148H88.1963V213.658H244.815V50.7148Z" fill="#DEE8F5"/>
<path d="M244.815 50.7148H88.1963V64.1373H244.815V50.7148Z" fill="#C1D8ED"/>
<path d="M237.254 60.7939C239.12 60.7939 240.633 59.2861 240.633 57.4262C240.633 55.5663 239.12 54.0586 237.254 54.0586C235.388 54.0586 233.875 55.5663 233.875 57.4262C233.875 59.2861 235.388 60.7939 237.254 60.7939Z" fill="white"/>
<path d="M135.124 78.6016H105.684V83.2795H135.124V78.6016Z" fill="#C1D8ED"/>
<path d="M165.276 89.6592H105.684V94.3372H165.276V89.6592Z" fill="white"/>
<path d="M205.099 89.6592H171.271V94.3372H205.099V89.6592Z" fill="white"/>
<path d="M153.022 111.773H105.684V116.451H153.022V111.773Z" fill="white"/>
<path d="M205.099 111.773H159.018V116.451H205.099V111.773Z" fill="white"/>
<path d="M178.907 100.716H105.684V105.394H178.907V100.716Z" fill="white"/>
<path d="M220.174 100.716H184.902V105.394H220.174V100.716Z" fill="#C1D8ED"/>
<path d="M191.73 122.83H105.684V127.508H191.73V122.83Z" fill="white"/>
<path d="M226.148 122.83H197.726V127.508H226.148V122.83Z" fill="white"/>
<path d="M139.298 149.197H105.684V153.875H139.298V149.197Z" fill="white"/>
<path d="M205.099 149.197H145.293V153.875H205.099V149.197Z" fill="white"/>
<path d="M153.022 171.312H105.684V175.989H153.022V171.312Z" fill="white"/>
<path d="M180.352 171.312H159.018V175.989H180.352V171.312Z" fill="white"/>
<path d="M191.73 160.255H105.684V164.933H191.73V160.255Z" fill="#C1D8ED"/>
<path d="M220.175 160.255H197.726V164.933H220.175V160.255Z" fill="white"/>
<path d="M164.85 182.368H105.684V187.046H164.85V182.368Z" fill="white"/>
<path d="M199.267 182.368H170.845V187.046H199.267V182.368Z" fill="#C1D8ED"/>
<path d="M139.298 193.491H105.684V198.169H139.298V193.491Z" fill="white"/>
<path d="M205.099 193.491H145.293V198.169H205.099V193.491Z" fill="white"/>
<path d="M135.124 136.014H105.684V140.692H135.124V136.014Z" fill="#C1D8ED"/>
<path d="M61.1195 172.085L57.6758 171.273L53.3584 189.474L56.8022 190.286L61.1195 172.085Z" fill="#F0F6FF"/>
<path d="M53.8895 169.861L51.9775 170.213L54.9343 186.188L56.8462 185.837L53.8895 169.861Z" fill="#C1D8ED"/>
<path d="M53.8884 169.856L51.9785 170.218L52.3149 171.98L54.2248 171.617L53.8884 169.856Z" fill="#DEE8F5"/>
<path d="M59.8066 173.924L53.6113 189.598L54.6728 190.014L60.8681 174.34L59.8066 173.924Z" fill="#0CBC8B"/>
<path d="M61.1631 180.78H51.8242V192.676H61.1631V180.78Z" fill="#C1D8ED"/>
<path d="M75.2496 253.787H79.0762V216.268H75.2496V253.787Z" fill="#C1D8ED"/>
<path d="M78.399 253.787H82.2256V216.268H78.399V253.787Z" fill="#DEE8F5"/>
<path d="M27.5885 253.787H31.415L31.415 216.268H27.5885L27.5885 253.787Z" fill="#C1D8ED"/>
<path d="M30.7379 253.787H34.5645L34.5645 216.268H30.7379L30.7379 253.787Z" fill="#DEE8F5"/>
<path d="M64.7545 253.787H68.5811V216.268H64.7545V253.787Z" fill="#C1D8ED"/>
<path d="M67.9039 253.787H71.7305V216.268H67.9039V253.787Z" fill="#DEE8F5"/>
<path d="M17.0934 253.787H20.9199L20.9199 216.268H17.0934L17.0934 253.787Z" fill="#C1D8ED"/>
<path d="M20.2428 253.787H24.0693L24.0693 216.268H20.2428L20.2428 253.787Z" fill="#DEE8F5"/>
<path d="M68.5581 192.253H17.0947V217.168H68.5581V192.253Z" fill="#C1D8ED"/>
<path d="M82.2251 192.253H30.7617V217.168H82.2251V192.253Z" fill="#DEE8F5"/>
<g opacity="0.53">
<path d="M79.4566 195.795H33.5303V213.516H79.4566V195.795Z" fill="#F3F5FD"/>
</g>
<path d="M56.4939 206.688C57.6204 206.688 58.5336 205.778 58.5336 204.655C58.5336 203.532 57.6204 202.622 56.4939 202.622C55.3673 202.622 54.4541 203.532 54.4541 204.655C54.4541 205.778 55.3673 206.688 56.4939 206.688Z" fill="white"/>
</g>
<defs>
<clipPath id="clip0_173_6197">
<rect width="312" height="218" fill="white" transform="translate(0 47)"/>
</clipPath>
</defs>
</svg>
