<svg width="345" height="391" viewBox="0 0 345 391" fill="none" xmlns="http://www.w3.org/2000/svg">
<g opacity="0.08">
<path d="M299.074 357.063V375.347C299.074 376.49 299.382 377.613 299.968 378.603C300.553 379.593 301.395 380.415 302.409 380.986L318.626 390.127C319.64 390.699 320.791 391 321.962 391C323.133 391 324.284 390.699 325.298 390.127L341.514 380.986C342.529 380.415 343.371 379.593 343.956 378.603C344.541 377.613 344.85 376.49 344.85 375.347V357.063C344.85 355.92 344.542 354.797 343.956 353.807C343.371 352.817 342.529 351.995 341.515 351.423L325.298 342.282C324.284 341.711 323.134 341.41 321.962 341.41C320.791 341.41 319.641 341.711 318.626 342.282L302.41 351.423C301.396 351.995 300.554 352.817 299.968 353.807C299.382 354.797 299.074 355.92 299.074 357.063Z" fill="#345AF5"/>
<path d="M226.597 78.3976V87.5396C226.597 88.1111 226.751 88.6726 227.043 89.1676C227.336 89.6625 227.757 90.0736 228.264 90.3594L236.373 94.9299C236.88 95.2157 237.455 95.3662 238.041 95.3662C238.626 95.3662 239.201 95.2157 239.708 94.9299L247.817 90.3594C248.324 90.0736 248.745 89.6626 249.038 89.1676C249.33 88.6726 249.484 88.1112 249.484 87.5396V78.3976C249.484 77.8261 249.33 77.2646 249.038 76.7697C248.745 76.2747 248.324 75.8637 247.817 75.5779L239.709 71.0074C239.202 70.7216 238.626 70.5711 238.041 70.5711C237.455 70.5711 236.88 70.7216 236.373 71.0074L228.264 75.5779C227.757 75.8637 227.336 76.2747 227.044 76.7696C226.751 77.2646 226.597 77.826 226.597 78.3976Z" fill="#546091"/>
<path d="M96.8991 205.484V216.033C96.8991 216.692 97.0789 217.34 97.4204 217.911C97.7619 218.482 98.2532 218.957 98.8447 219.286L108.304 224.56C108.896 224.89 109.567 225.063 110.25 225.063C110.934 225.063 111.605 224.89 112.196 224.56L121.656 219.286C122.248 218.957 122.739 218.482 123.08 217.911C123.422 217.34 123.602 216.692 123.602 216.033V205.484C123.602 204.825 123.422 204.177 123.08 203.606C122.739 203.035 122.248 202.561 121.656 202.231L112.197 196.957C111.605 196.627 110.934 196.454 110.251 196.454C109.567 196.454 108.896 196.627 108.305 196.957L98.845 202.231C98.2534 202.561 97.7622 203.035 97.4206 203.606C97.0791 204.177 96.8992 204.825 96.8991 205.484Z" fill="#B6C1EF"/>
<path d="M213.246 174.481V220.329C213.245 223.163 213.996 225.946 215.424 228.4C216.851 230.853 218.904 232.89 221.376 234.306L261.401 257.234C263.872 258.65 266.674 259.396 269.528 259.396C272.381 259.396 275.184 258.65 277.655 257.234L317.651 234.306C320.122 232.89 322.173 230.854 323.6 228.401C325.026 225.949 325.777 223.167 325.777 220.335V174.481C325.778 171.649 325.027 168.866 323.6 166.413C322.174 163.96 320.121 161.923 317.65 160.507L277.656 137.581C275.185 136.165 272.382 135.42 269.529 135.42C266.676 135.42 263.873 136.165 261.402 137.581L221.378 160.509C218.906 161.924 216.853 163.961 215.425 166.414C213.998 168.866 213.246 171.649 213.246 174.481Z" fill="#324D92"/>
<path d="M119.785 312.563V349.273C119.785 352.036 120.53 354.75 121.943 357.142C123.357 359.535 125.39 361.521 127.838 362.902L160.384 381.263C162.831 382.644 165.608 383.371 168.434 383.371C171.261 383.371 174.037 382.644 176.485 381.263L209.01 362.908C211.457 361.526 213.489 359.539 214.902 357.147C216.315 354.755 217.059 352.041 217.059 349.279V312.563C217.059 309.8 216.315 307.086 214.902 304.694C213.489 302.302 211.457 300.315 209.01 298.934L176.477 280.576C174.03 279.196 171.254 278.469 168.428 278.469C165.602 278.469 162.826 279.196 160.378 280.576L127.834 298.935C125.387 300.316 123.355 302.303 121.942 304.695C120.529 307.087 119.785 309.8 119.785 312.563Z" fill="#B9CDFF"/>
<path d="M-111 61.6365V131.012C-111 135.742 -109.731 140.388 -107.321 144.483C-104.912 148.579 -101.446 151.98 -97.2724 154.345L-36.0581 189.03C-31.8844 191.394 -27.1501 192.639 -22.3309 192.639C-17.5117 192.639 -12.7774 191.394 -8.6037 189.03L52.6488 154.34C56.8239 151.976 60.291 148.574 62.7015 144.478C65.112 140.382 66.381 135.735 66.3809 131.004V61.6349C66.381 56.9045 65.112 52.2575 62.7015 48.1611C60.291 44.0647 56.8239 40.6633 52.6488 38.2988L-8.60289 3.60855C-12.7766 1.24431 -17.5109 -0.000350952 -22.3301 -0.000350952C-27.1493 -0.000350952 -31.8836 1.24431 -36.0573 3.60855L-97.2716 38.2932C-101.447 40.6589 -104.914 44.0617 -107.324 48.1594C-109.734 52.2571 -111.001 56.9053 -111 61.6365Z" fill="#7794E0"/>
</g>
</svg>
