<svg width="312" height="260" viewBox="0 0 312 260" fill="none" xmlns="http://www.w3.org/2000/svg">
<path d="M18.1878 235.298C6.88794 235.298 -1.31292 223.718 1.58762 211.91C6.21962 193.058 19.4892 167.782 56.58 155.792C105.841 139.871 103.08 75.6909 142.426 75.6909C181.772 75.6909 181.98 108.285 193.711 111.599C205.442 114.914 244.767 105.07 253.551 134.125C269.789 187.835 291.584 161.944 308.498 203.303C309.551 205.902 310.462 208.557 311.225 211.258C314.634 223.201 306.36 235.298 294.798 235.298L18.1878 235.298Z" fill="#F3F5FD"/>
<path d="M73.698 235.298H17.8856C14.8248 227.263 24.0233 223.298 26.946 228.506C25.2016 225.4 24.7376 221.462 28.3608 218.927C32.1579 216.917 36.729 219.214 37.4287 222.849C36.4978 218.009 40.9321 213.186 45.8668 212.089C58.5319 209.276 61.3571 221.881 60.2088 223.863C63.5548 218.089 77.386 225.216 73.698 235.298Z" fill="#8DDBE0"/>
<path d="M229.722 70H78.4512V180.533H229.722V70Z" fill="#DEE8F5"/>
<path d="M229.722 70H78.4512V79.1051H229.722V70Z" fill="#C1D8ED"/>
<path d="M225.228 76.837C226.478 76.837 227.492 75.8142 227.492 74.5525C227.492 73.2908 226.478 72.2681 225.228 72.2681C223.978 72.2681 222.964 73.2908 222.964 74.5525C222.964 75.8142 223.978 76.837 225.228 76.837Z" fill="white"/>
<path d="M189.733 128.621H85.6592V147.674H189.733V128.621Z" fill="white"/>
<path d="M189.733 153.915H85.6592V172.968H189.733V153.915Z" fill="white"/>
<path d="M122.267 85.5083H85.6592V122.765H122.267V85.5083Z" fill="#C1D8ED"/>
<path d="M104.498 95.1885H103.428V113.084H104.498V95.1885Z" fill="white"/>
<path d="M112.831 103.597H95.0947V104.676H112.831V103.597Z" fill="white"/>
<path d="M224.233 85.5083H128.555V122.765H224.233V85.5083Z" fill="#C1D8ED"/>
<path d="M223.661 128.621H195.451V140.995H223.661V128.621Z" fill="white"/>
<path d="M223.661 144.811H195.451V157.185H223.661V144.811Z" fill="white"/>
<path d="M223.661 160.593H195.451V172.968H223.661V160.593Z" fill="white"/>
<path d="M274.371 178.597L271.861 179.196L275.008 192.626L277.518 192.027L274.371 178.597Z" fill="#F0F6FF"/>
<path d="M277.133 177.556L274.978 189.344L276.372 189.603L278.527 177.815L277.133 177.556Z" fill="#C1D8ED"/>
<path d="M277.134 177.552L276.889 178.853L278.281 179.12L278.526 177.82L277.134 177.552Z" fill="#DEE8F5"/>
<path d="M272.818 180.549L272.044 180.856L276.56 192.422L277.334 192.115L272.818 180.549Z" fill="#0CBC8B"/>
<path d="M278.636 185.612H271.829V194.39H278.636V185.612Z" fill="#C1D8ED"/>
<path d="M253.658 210.246H251.112V235.518H253.658V210.246Z" fill="#C1D8ED"/>
<path d="M251.563 210.246H249.017V235.518H251.563V210.246Z" fill="#DEE8F5"/>
<path d="M285.371 210.246H282.825V235.518H285.371V210.246Z" fill="#C1D8ED"/>
<path d="M283.276 210.246H280.73V235.518H283.276V210.246Z" fill="#DEE8F5"/>
<path d="M260.642 210.246H258.096V235.518H260.642V210.246Z" fill="#C1D8ED"/>
<path d="M258.546 210.246H256V235.518H258.546V210.246Z" fill="#DEE8F5"/>
<path d="M292.354 210.246H289.808V235.518H292.354V210.246Z" fill="#C1D8ED"/>
<path d="M290.259 210.246H287.713V235.518H290.259V210.246Z" fill="#DEE8F5"/>
<path d="M292.354 194.069H258.111V210.852H292.354V194.069Z" fill="#C1D8ED"/>
<path d="M283.26 194.069H249.017V210.852H283.26V194.069Z" fill="#DEE8F5"/>
<g opacity="0.53">
<path d="M281.417 196.455H250.859V208.392H281.417V196.455Z" fill="#F3F5FD"/>
</g>
<path d="M266.138 203.793C266.888 203.793 267.495 203.18 267.495 202.423C267.495 201.667 266.888 201.054 266.138 201.054C265.389 201.054 264.781 201.667 264.781 202.423C264.781 203.18 265.389 203.793 266.138 203.793Z" fill="white"/>
<path d="M205.623 200.795L201.769 198.338H183.501V183.336H205.623V200.795Z" fill="#DEE8F5"/>
<path d="M186.753 190.699L191.731 188.261V189.215L187.782 191.069V191.091L191.731 192.956V193.899L186.753 191.462V190.699Z" fill="white" stroke="white" stroke-miterlimit="10"/>
<path d="M192.877 194.323L195.44 186.64H196.343L193.78 194.323H192.877Z" fill="white" stroke="white" stroke-miterlimit="10"/>
<path d="M202.372 191.483L197.394 193.899V192.956L201.405 191.091V191.069L197.394 189.204V188.261L202.372 190.677V191.483Z" fill="white" stroke="white" stroke-miterlimit="10"/>
<path d="M176.929 95.1885H175.859V113.084H176.929V95.1885Z" fill="white"/>
<path d="M185.262 103.597H167.526V104.676H185.262V103.597Z" fill="white"/>
<path d="M227.448 159.533C227.448 159.533 224.863 168.878 223.411 173.728C223.342 173.958 223.327 174.2 223.368 174.437C223.409 174.673 223.505 174.897 223.647 175.089C223.788 175.282 223.973 175.438 224.186 175.546C224.398 175.654 224.633 175.71 224.871 175.71H233.943C234.335 175.71 234.711 175.557 234.995 175.284C235.279 175.012 235.447 174.639 235.466 174.244L236.077 161.234L227.448 159.533Z" fill="#0F1011"/>
<path d="M241.351 180.322C241.351 180.322 238.712 178.913 239.295 171.667L233.844 170.652C233.844 170.652 234.462 177.148 231.708 179.213L241.351 180.322Z" fill="#E98862"/>
<path opacity="0.15" d="M232.823 177.855L237.347 174.357L233.791 174.323C233.69 175.551 233.361 176.749 232.823 177.855Z" fill="black"/>
<path d="M242.384 168.856C242.009 171.054 240.821 173.137 238.9 173.849C236.806 174.69 234.54 175.001 232.299 174.755C226.334 174.266 227.501 160.581 230.331 157.92C233.162 155.259 241.473 156.936 242.488 161.38C243.013 163.68 242.741 166.764 242.384 168.856Z" fill="#E98862"/>
<path d="M233.849 167.169C234.122 167.169 234.343 166.945 234.343 166.67C234.343 166.395 234.122 166.171 233.849 166.171C233.576 166.171 233.355 166.395 233.355 166.67C233.355 166.945 233.576 167.169 233.849 167.169Z" fill="#0F1011"/>
<path d="M229.949 166.85C230.222 166.85 230.443 166.627 230.443 166.352C230.443 166.076 230.222 165.853 229.949 165.853C229.676 165.853 229.455 166.076 229.455 166.352C229.455 166.627 229.676 166.85 229.949 166.85Z" fill="#0F1011"/>
<path d="M230.401 165.038L229.092 165.055" stroke="#0F1011" stroke-width="1.362" stroke-miterlimit="10" stroke-linecap="round"/>
<path d="M234.913 165.531L233.622 165.219" stroke="#0F1011" stroke-width="1.362" stroke-miterlimit="10" stroke-linecap="round"/>
<path d="M233.622 170.597C233.622 170.597 231.798 170.793 230.519 170.344C230.519 170.344 230.53 171.556 231.973 171.674C233.417 171.792 233.622 170.597 233.622 170.597Z" fill="white"/>
<g opacity="0.15">
<path d="M231.658 169.439C231.698 169.439 231.738 169.425 231.769 169.398C231.8 169.371 231.82 169.334 231.826 169.293C231.832 169.252 231.824 169.211 231.802 169.176C231.78 169.141 231.747 169.115 231.708 169.103L230.702 168.793L231.404 167.213C231.42 167.171 231.42 167.125 231.404 167.084C231.387 167.043 231.356 167.01 231.315 166.992C231.275 166.974 231.23 166.972 231.188 166.987C231.147 167.002 231.113 167.033 231.093 167.072L230.233 169.008L231.608 169.433C231.624 169.438 231.641 169.44 231.658 169.439Z" fill="black"/>
</g>
<path d="M227.138 160.654C227.138 160.654 228.012 153.526 239.331 155.277C242.152 155.713 246.151 157.936 246.799 165.221C247.095 168.563 248.237 171.714 249.108 173.709C249.211 173.943 249.255 174.199 249.235 174.455C249.215 174.71 249.132 174.956 248.994 175.171C248.855 175.386 248.666 175.563 248.443 175.685C248.22 175.807 247.97 175.872 247.716 175.872L239.759 175.875C239.559 175.875 239.361 175.836 239.176 175.759C238.992 175.682 238.824 175.569 238.682 175.427C238.54 175.284 238.428 175.115 238.351 174.929C238.274 174.743 238.234 174.543 238.234 174.341C238.234 174.319 238.234 174.296 238.234 174.272C238.291 172.906 238.336 170.593 238.259 167.056C237.846 165.038 238.948 163.615 237.348 164.079C231.409 165.8 227.584 160.769 227.138 160.654Z" fill="#0F1011"/>
<path d="M236.345 168.818C236.323 169.095 236.355 169.373 236.439 169.637C236.523 169.901 236.658 170.146 236.837 170.358C237.015 170.569 237.233 170.743 237.477 170.87C237.722 170.996 237.989 171.073 238.264 171.096C238.538 171.118 238.814 171.086 239.076 171.001C239.338 170.915 239.58 170.779 239.79 170.599C239.999 170.42 240.172 170.2 240.297 169.953C240.423 169.706 240.499 169.436 240.521 169.16C240.574 168.611 240.409 168.064 240.063 167.638C239.716 167.212 239.216 166.942 238.672 166.888C238.649 166.886 238.626 166.884 238.604 166.883C237.109 166.832 236.439 167.654 236.345 168.818Z" fill="#E98862"/>
<path d="M219.772 233.527C219.124 233.418 211.813 232.158 211.813 232.158L213.019 225.035C213.019 225.035 220.31 226.291 220.956 226.401L219.772 233.527Z" fill="#E98862"/>
<path d="M207.642 240.361C207.611 240.552 207.62 240.749 207.667 240.937C207.715 241.125 207.801 241.302 207.919 241.455C208.037 241.609 208.185 241.736 208.354 241.829C208.524 241.922 208.71 241.978 208.902 241.996C209.168 242.019 209.435 241.966 209.672 241.842C209.908 241.717 210.105 241.527 210.239 241.294L214.369 233.464C214.449 233.312 214.495 233.145 214.504 232.974C214.513 232.802 214.486 232.631 214.424 232.471C213.828 231.198 213.654 229.766 213.926 228.386C214.181 227.318 214.729 226.344 215.506 225.575C215.582 225.509 215.637 225.422 215.665 225.326C215.693 225.229 215.694 225.126 215.666 225.029C215.639 224.932 215.585 224.845 215.51 224.777C215.436 224.71 215.343 224.666 215.245 224.649L211.225 223.97C211.106 223.95 210.985 223.954 210.867 223.981C210.75 224.009 210.64 224.059 210.542 224.13C210.444 224.2 210.361 224.29 210.298 224.393C210.234 224.496 210.191 224.611 210.172 224.73L207.642 240.361Z" fill="#C1D8ED"/>
<path d="M242.401 214.261C245.436 214.389 248.524 214.478 251.614 214.555L256.258 214.659L260.896 214.743L261.358 214.751C263.274 214.788 265.105 215.555 266.481 216.9C267.858 218.244 268.678 220.066 268.777 221.996C268.875 223.927 268.245 225.824 267.012 227.304C265.78 228.784 264.037 229.737 262.135 229.972L216.298 235.587L214.431 221.919L260.062 214.812L261.301 230.041L256.592 230.348L251.885 230.635C248.742 230.818 245.599 230.99 242.398 231.122L242.401 214.261Z" fill="#262626"/>
<path d="M253.964 230.535C247.636 229.605 247.006 229.433 246.797 229.378L248.658 222.401C248.637 222.395 248.61 222.387 248.577 222.38C249.096 222.494 252.312 222.99 254.994 223.383L253.964 230.535Z" fill="#E98862"/>
<path d="M261.868 236.746C261.934 236.928 261.962 237.123 261.951 237.317C261.94 237.511 261.889 237.7 261.802 237.873C261.715 238.047 261.593 238.2 261.444 238.324C261.296 238.447 261.124 238.539 260.939 238.592C260.682 238.667 260.41 238.665 260.154 238.589C259.898 238.512 259.669 238.363 259.494 238.159L253.966 231.263C253.859 231.129 253.783 230.974 253.742 230.807C253.701 230.641 253.696 230.468 253.727 230.299C254.072 228.936 253.974 227.496 253.447 226.193C252.995 225.194 252.275 224.342 251.367 223.736C251.28 223.686 251.21 223.611 251.164 223.521C251.118 223.432 251.098 223.331 251.106 223.23C251.115 223.13 251.152 223.034 251.213 222.954C251.273 222.873 251.355 222.812 251.449 222.777L255.269 221.34C255.382 221.298 255.502 221.278 255.622 221.283C255.742 221.287 255.86 221.316 255.969 221.366C256.079 221.417 256.177 221.489 256.259 221.578C256.34 221.667 256.404 221.771 256.445 221.885L261.868 236.746Z" fill="#C1D8ED"/>
<path d="M232.223 229.883C230.302 229.719 228.383 229.599 226.463 229.488C224.544 229.384 222.624 229.281 220.705 229.212L217.827 229.101L214.949 229.017C213.03 228.952 211.112 228.926 209.194 228.889L209.858 214.984C213.449 215.49 217.045 215.956 220.64 216.433C224.234 216.91 227.833 217.349 231.431 217.796L236.83 218.438L242.234 219.049C245.838 219.44 249.443 219.828 253.056 220.148L251.47 233.854C247.882 233.326 244.286 232.866 240.689 232.408L235.291 231.748L229.889 231.118C226.286 230.716 222.684 230.309 219.078 229.937C215.472 229.565 211.866 229.183 208.256 228.842C206.525 228.679 204.918 227.861 203.758 226.554C202.599 225.246 201.971 223.545 202.001 221.79C202.031 220.036 202.717 218.358 203.921 217.091C205.125 215.825 206.759 215.064 208.495 214.962L208.922 214.937C210.837 214.824 212.753 214.721 214.668 214.58L217.54 214.382L220.412 214.155C222.326 214.01 224.241 213.829 226.154 213.65C228.068 213.462 229.982 213.266 231.895 213.025L232.223 229.883Z" fill="#262626"/>
<path d="M249.37 212.15L250.379 229.255L221.223 228.909L223.424 213.766L249.37 212.15Z" fill="#262626"/>
<path d="M259.103 208.283L251.376 184.112C251.056 182.853 250.391 181.711 249.456 180.817C247.898 179.245 245.207 178.23 241.926 178.226C241.681 180.157 230.065 180.163 229.976 178.271C229.533 178.278 229.188 178.285 228.973 178.295C224.28 178.499 222.391 180.321 221.791 183.065L211.941 207.115C211.7 207.704 211.618 208.346 211.703 208.978C211.787 209.609 212.036 210.206 212.423 210.709C212.811 211.212 213.323 211.603 213.908 211.842C214.493 212.081 215.131 212.16 215.756 212.07L221.137 211.296C220.872 212.649 220.83 213.7 221.355 214.916C222.783 218.23 250.861 219.607 251.237 213.777C251.24 213.72 251.241 213.664 251.243 213.605L255.908 213.167C256.463 213.115 256.999 212.938 257.476 212.65C257.954 212.361 258.361 211.967 258.668 211.498C258.975 211.029 259.173 210.496 259.248 209.939C259.324 209.383 259.274 208.816 259.103 208.281V208.283ZM220.956 204.025L222.737 199.677C222.717 201.232 222.634 202.597 222.516 203.8L220.956 204.025ZM250.602 206.133L249.24 206.26C248.569 204.106 248.23 201.86 248.235 199.602C248.235 199.339 248.247 199.077 248.263 198.817L250.602 206.133Z" fill="#2F80ED"/>
<path d="M239.671 189.791L240.876 207.918C240.89 208.132 240.86 208.346 240.789 208.548C240.718 208.75 240.606 208.935 240.461 209.091C240.316 209.248 240.141 209.372 239.946 209.458C239.752 209.543 239.542 209.587 239.329 209.587H214.236C213.853 209.587 213.483 209.443 213.198 209.184C212.913 208.925 212.734 208.568 212.694 208.184L210.838 190.056C210.816 189.839 210.839 189.619 210.906 189.41C210.973 189.202 211.083 189.011 211.229 188.848C211.374 188.686 211.551 188.556 211.75 188.467C211.948 188.378 212.162 188.332 212.379 188.332H238.124C238.517 188.332 238.896 188.483 239.183 188.754C239.47 189.024 239.644 189.395 239.671 189.791Z" fill="#9EBCEA"/>
<path d="M216.333 209.587H242.698C243.295 209.587 243.779 209.098 243.779 208.495C243.779 207.893 243.295 207.404 242.698 207.404H216.333C215.735 207.404 215.251 207.893 215.251 208.495C215.251 209.098 215.735 209.587 216.333 209.587Z" fill="#9EBCEA"/>
<path d="M225.191 201.368C226.51 201.368 227.578 200.289 227.578 198.959C227.578 197.629 226.51 196.55 225.191 196.55C223.873 196.55 222.804 197.629 222.804 198.959C222.804 200.289 223.873 201.368 225.191 201.368Z" fill="white"/>
<path d="M228.631 211.889C230.162 212.842 232.533 213.293 234.599 213.458L234.716 209.659C233.743 209.631 232.25 209.528 230.787 209.587C230.126 209.043 229.745 208.881 229.067 208.197C228.344 207.468 226.448 207.03 226.091 208.197C225.733 209.363 227.287 211.05 228.631 211.889Z" fill="#E98862"/>
<path d="M229.977 178.271C230.066 180.163 231.085 182.947 234.233 183.157C238.428 183.436 241.682 180.157 241.927 178.226H241.917C237.787 178.226 232.385 178.233 229.977 178.271Z" fill="#E98862"/>
<path d="M64.7989 232.332C65.501 226.374 65.501 225.761 65.501 225.56H58.8415C58.8415 225.54 58.8415 225.513 58.8431 225.481C58.8196 225.979 58.4835 229.013 58.186 231.538L64.7989 232.332Z" fill="#E98862"/>
<path d="M38.2635 233.134C38.2635 233.134 38.286 226.176 38.286 225.56H31.6265C31.6265 226.174 31.604 233.113 31.604 233.113L38.2635 233.134Z" fill="#E98862"/>
<path d="M55.5239 230.21L67.2554 230.008C66.7043 215.919 66.6704 201.141 66.4988 187.018C64.2089 171.796 63.0032 155.081 60.177 139.968L60.0924 139.993L59.8447 138.288L35.7189 136.784C35.7189 136.784 35.0228 148.712 34.7802 152.686C33.6047 171.974 31.3208 207.704 29.8877 229.825L41.5796 230.822C43.6859 209.132 46.9459 177.529 48.951 154.744C51.2536 165.838 52.8199 177.324 54.8221 188.322C55.2227 202.092 55.561 216.483 55.5239 230.21Z" fill="#262626"/>
<path d="M46.3594 235.734C46.5385 235.733 46.7155 235.695 46.8793 235.622C47.0432 235.549 47.1903 235.443 47.3116 235.31C47.4329 235.177 47.5257 235.02 47.5843 234.849C47.6429 234.679 47.6659 234.497 47.652 234.317C47.6327 234.068 47.5431 233.829 47.3937 233.629C47.2443 233.429 47.0414 233.276 46.8088 233.188L39.0578 230.567C38.9076 230.517 38.7484 230.5 38.5911 230.518C38.4339 230.536 38.2823 230.587 38.1467 230.67C37.0812 231.416 35.8066 231.797 34.5103 231.758C33.5005 231.685 32.5313 231.328 31.713 230.727C31.6411 230.667 31.5539 230.629 31.4616 230.618C31.3692 230.607 31.2756 230.622 31.1916 230.662C31.1076 230.702 31.0366 230.766 30.987 230.845C30.9375 230.925 30.9113 231.017 30.9116 231.111V234.935C30.9116 235.048 30.9337 235.159 30.9766 235.264C31.0195 235.368 31.0824 235.462 31.1616 235.542C31.2408 235.622 31.3349 235.685 31.4383 235.728C31.5417 235.77 31.6525 235.792 31.7644 235.792L46.3594 235.734Z" fill="#C1D8ED"/>
<path d="M72.9122 235.734C73.0913 235.733 73.2683 235.695 73.4321 235.622C73.596 235.549 73.7431 235.443 73.8645 235.31C73.9858 235.177 74.0786 235.02 74.1371 234.849C74.1957 234.679 74.2187 234.497 74.2048 234.317C74.1855 234.068 74.0959 233.829 73.9466 233.629C73.7972 233.429 73.5944 233.276 73.3619 233.188L65.6105 230.567C65.4604 230.517 65.3012 230.5 65.144 230.518C64.9868 230.536 64.8353 230.587 64.6998 230.67C63.6341 231.416 62.3594 231.797 61.063 231.758C60.0534 231.685 59.0842 231.328 58.266 230.727C58.1941 230.667 58.1069 230.63 58.0146 230.618C57.9222 230.607 57.8286 230.622 57.7446 230.662C57.6605 230.703 57.5896 230.766 57.54 230.845C57.4904 230.925 57.4641 231.017 57.4644 231.111V234.935C57.4644 235.048 57.4864 235.159 57.5293 235.264C57.5722 235.368 57.6351 235.462 57.7143 235.542C57.7936 235.622 57.8876 235.685 57.991 235.728C58.0945 235.77 58.2053 235.792 58.3171 235.792L72.9122 235.734Z" fill="#C1D8ED"/>
<path d="M43.499 103.894C43.499 103.894 45.951 102.582 45.4036 95.8442L50.4699 94.8965C50.4699 94.8965 49.8991 100.937 52.4637 102.855L43.499 103.894Z" fill="#E98862"/>
<path d="M42.5299 93.232C42.8807 95.2762 43.9861 97.212 45.7731 97.8715C47.8946 98.6554 49.466 98.7085 51.9119 98.7085C55.2496 98.7085 55.1392 95.1962 55.2328 91.6568C55.3279 88.1052 55.0469 84.2918 53.7277 83.0535C51.0956 80.5821 43.3665 82.1471 42.4265 86.281C41.9404 88.4197 42.196 91.2853 42.5299 93.232Z" fill="#E98862"/>
<path d="M57.0218 85.1107C57.0218 85.1107 58.3886 84.8029 58.0144 83.4273C57.7664 82.5154 56.6083 82.718 56.6083 82.718C56.6083 82.718 57.7049 82.5154 57.7049 81.5494C57.7049 80.9415 57.2412 79.9096 55.8427 80.499C54.2023 81.1904 52.331 81.1018 50.9084 80.8602C50.1034 80.6826 49.2863 80.5662 48.464 80.5121H48.4599C47.5147 80.4956 46.5725 80.6228 45.6648 80.8894C43.1215 81.6573 39.213 83.9681 40.0908 89.1742C41.039 94.8015 44.4353 97.2742 44.9028 97.6165C45.7812 98.261 51.1817 98.3915 51.7167 97.8514C52.5178 97.0432 52.9535 93.7939 52.7911 88.1331C55.0043 87.7811 56.5252 87.6288 56.5252 87.6288C56.5252 87.6288 58.3645 87.6982 58.3645 86.3419C58.3645 84.9856 57.0218 85.1107 57.0218 85.1107Z" fill="#0F1011"/>
<path d="M54.4053 92.3286C54.4299 92.5879 54.4033 92.8495 54.3269 93.0983C54.2504 93.3471 54.1257 93.5781 53.9601 93.7778C53.7944 93.9775 53.591 94.1421 53.3618 94.2618C53.1325 94.3816 52.882 94.4542 52.6247 94.4754C52.3674 94.4966 52.1085 94.466 51.8631 94.3853C51.6176 94.3047 51.3905 94.1756 51.1949 94.0057C50.9993 93.8357 50.8391 93.6282 50.7237 93.3952C50.6082 93.1622 50.5399 92.9084 50.5225 92.6486C50.4972 92.3905 50.5236 92.1299 50.6002 91.8824C50.6767 91.6348 50.8019 91.4053 50.9682 91.2076C51.1345 91.0098 51.3385 90.8478 51.5681 90.7313C51.7977 90.6147 52.0482 90.546 52.3047 90.5291C53.693 90.4856 54.3175 91.2468 54.4053 92.3286Z" fill="#E98862"/>
<path d="M72.1601 98.3054L72.3076 98.3694L70.4629 98.6699L72.2736 102.157C72.2736 102.157 78.988 103.743 82.1297 100.177C82.2096 100.086 82.2604 99.9729 82.2756 99.8524C82.2908 99.7318 82.2696 99.6095 82.2148 99.5013C82.16 99.3931 82.0742 99.3041 81.9685 99.2459C81.8628 99.1877 81.7421 99.163 81.6223 99.1751C79.8116 99.3607 76.583 99.5811 75.1287 99.0023C75.7683 98.6855 76.6163 98.2005 76.4831 97.9106C76.1327 97.1491 73.0931 98.1534 72.1601 98.3054Z" fill="#E98862"/>
<path d="M114.194 51H66.5303V99.5091H114.194V51Z" fill="#0CBC8B"/>
<path d="M92.0582 98.3054L92.206 98.3694L90.3613 98.6699L92.1721 102.157C92.1721 102.157 98.8864 103.743 102.028 100.177C102.108 100.086 102.159 99.9729 102.174 99.8524C102.189 99.7318 102.168 99.6095 102.113 99.5013C102.058 99.3931 101.973 99.3041 101.867 99.2459C101.761 99.1877 101.641 99.163 101.521 99.1751C99.7103 99.3607 96.4814 99.5811 95.0274 99.0023C95.667 98.6855 96.515 98.2005 96.3818 97.9106C96.0317 97.1491 92.9915 98.1534 92.0582 98.3054Z" fill="#E98862"/>
<path d="M90.1412 98.0015L73.2705 110.286L69.355 108.426L75.3733 103.395L70.9619 98.0229L62.4434 105.143L58.6443 103.339C58.4381 103.226 58.2256 103.125 58.0079 103.036L57.3955 102.745L57.3654 102.809C56.5686 102.581 55.7471 102.452 54.9191 102.425C53.6459 102.37 47.4332 102.361 42.8845 102.361C39.8287 102.361 37.32 103.307 35.8711 104.769C30.8761 109.809 37.007 118.397 37.007 125.119C37.007 131.841 33.9943 134.852 34.2163 138.302C34.5652 143.723 60.6733 142.442 62.0036 139.363C63.3732 136.187 60.5934 134.23 60.7151 123.841C60.7468 121.045 61.2285 117.93 61.5428 114.96L63.4731 113.346L72.1695 117.477C72.7281 117.743 73.3469 117.852 73.9617 117.795C74.5764 117.737 75.1647 117.515 75.6654 117.15L94.1896 103.663L90.1412 98.0015Z" fill="#2F80ED"/>
<g opacity="0.61">
<path d="M77.4335 71.2096C81.1064 71.2096 84.0838 68.2054 84.0838 64.4996C84.0838 60.7937 81.1064 57.7896 77.4335 57.7896C73.7606 57.7896 70.7832 60.7937 70.7832 64.4996C70.7832 68.2054 73.7606 71.2096 77.4335 71.2096Z" fill="white"/>
<path d="M109.922 82.3311H70.7832V85.7566H109.922V82.3311Z" fill="white"/>
<path d="M109.922 74.6025H70.7832V78.0281H109.922V74.6025Z" fill="white"/>
<path d="M109.922 90.0586H70.7832V93.4842H109.922V90.0586Z" fill="white"/>
<path d="M109.921 66.8745H86.1831V70.3001H109.921V66.8745Z" fill="white"/>
<path d="M109.921 59.1465H86.1831V62.572H109.921V59.1465Z" fill="white"/>
</g>
</svg>
