<svg width="133" height="344" viewBox="0 0 133 344" fill="none" xmlns="http://www.w3.org/2000/svg">
<g opacity="0.2">
<path d="M87.6853 4.61598V2.12908C87.6853 1.97361 87.6456 1.82087 87.5701 1.68622C87.4946 1.55157 87.3861 1.43976 87.2553 1.36201L85.1645 0.118698C85.0337 0.0409379 84.8854 0 84.7344 0C84.5834 0 84.435 0.0409379 84.3043 0.118698L82.2134 1.36199C82.0827 1.43974 81.9741 1.55156 81.8987 1.68621C81.8232 1.82086 81.7834 1.97359 81.7834 2.12907V4.61598C81.7834 4.77145 81.8232 4.92417 81.8986 5.05881C81.9741 5.19345 82.0827 5.30527 82.2134 5.38302L84.3042 6.62632C84.435 6.70408 84.5833 6.74502 84.7343 6.74502C84.8853 6.74502 85.0337 6.70408 85.1644 6.62632L87.2553 5.38301C87.386 5.30527 87.4946 5.19346 87.5701 5.05883C87.6456 4.92419 87.6853 4.77146 87.6853 4.61598Z" fill="#5F7EFF" fill-opacity="0.23"/>
<path d="M109.607 17.1311V11.5355C109.607 11.1857 109.516 10.8421 109.343 10.5391C109.171 10.2362 108.923 9.98457 108.624 9.80963L103.845 7.01219C103.546 6.83723 103.207 6.74512 102.862 6.74512C102.517 6.74512 102.177 6.83723 101.879 7.01219L97.0996 9.8096C96.8007 9.98453 96.5526 10.2361 96.38 10.5391C96.2075 10.842 96.1167 11.1857 96.1167 11.5355V17.1311C96.1167 17.4809 96.2075 17.8245 96.38 18.1274C96.5525 18.4304 96.8006 18.682 97.0994 18.8569L101.878 21.6543C102.177 21.8293 102.516 21.9214 102.862 21.9214C103.207 21.9214 103.546 21.8293 103.845 21.6543L108.624 18.8569C108.923 18.682 109.171 18.4304 109.343 18.1275C109.516 17.8245 109.607 17.4809 109.607 17.1311Z" fill="#5F7EFF" fill-opacity="0.23"/>
<path d="M87.6853 207.809V205.322C87.6853 205.167 87.6456 205.014 87.5701 204.88C87.4946 204.745 87.3861 204.633 87.2553 204.555L85.1645 203.312C85.0337 203.234 84.8854 203.193 84.7344 203.193C84.5834 203.193 84.435 203.234 84.3043 203.312L82.2134 204.555C82.0827 204.633 81.9741 204.745 81.8987 204.88C81.8232 205.014 81.7834 205.167 81.7834 205.322V207.809C81.7834 207.965 81.8232 208.118 81.8986 208.252C81.9741 208.387 82.0827 208.499 82.2134 208.576L84.3042 209.82C84.435 209.897 84.5833 209.938 84.7343 209.938C84.8853 209.938 85.0337 209.897 85.1644 209.82L87.2553 208.576C87.386 208.499 87.4946 208.387 87.5701 208.252C87.6456 208.118 87.6853 207.965 87.6853 207.809Z" fill="#5F7EFF" fill-opacity="0.23"/>
<path d="M96.8634 132.989V130.502C96.8634 130.347 96.818 130.194 96.7317 130.059C96.6455 129.925 96.5214 129.813 96.372 129.735L93.9825 128.492C93.833 128.414 93.6635 128.373 93.4909 128.373C93.3183 128.373 93.1488 128.414 92.9994 128.492L90.6098 129.735C90.4604 129.813 90.3363 129.925 90.2501 130.059C90.1638 130.194 90.1184 130.347 90.1184 130.502V132.989C90.1184 133.144 90.1638 133.297 90.2501 133.432C90.3363 133.567 90.4604 133.678 90.6098 133.756L92.9993 134.999C93.1487 135.077 93.3183 135.118 93.4908 135.118C93.6634 135.118 93.8329 135.077 93.9824 134.999L96.3719 133.756C96.5213 133.678 96.6454 133.567 96.7317 133.432C96.818 133.297 96.8634 133.145 96.8634 132.989Z" fill="#5F7EFF" fill-opacity="0.23"/>
<path d="M116.352 129.399V126.912C116.352 126.757 116.306 126.604 116.22 126.469C116.134 126.335 116.01 126.223 115.86 126.145L113.471 124.902C113.321 124.824 113.152 124.783 112.979 124.783C112.807 124.783 112.637 124.824 112.488 124.902L110.098 126.145C109.949 126.223 109.825 126.335 109.738 126.469C109.652 126.604 109.607 126.757 109.607 126.912V129.399C109.607 129.554 109.652 129.707 109.738 129.842C109.825 129.976 109.949 130.088 110.098 130.166L112.488 131.409C112.637 131.487 112.807 131.528 112.979 131.528C113.152 131.528 113.321 131.487 113.471 131.409L115.86 130.166C116.01 130.088 116.134 129.976 116.22 129.842C116.306 129.707 116.352 129.554 116.352 129.399Z" fill="#5F7EFF" fill-opacity="0.23"/>
<path d="M106.234 119.503V118.259C106.234 118.182 106.211 118.105 106.168 118.038C106.125 117.971 106.063 117.915 105.988 117.876L104.794 117.254C104.719 117.215 104.634 117.195 104.548 117.195C104.462 117.195 104.377 117.215 104.302 117.254L103.107 117.876C103.033 117.915 102.971 117.971 102.927 118.038C102.884 118.105 102.862 118.182 102.862 118.259V119.503C102.862 119.581 102.884 119.657 102.927 119.724C102.971 119.792 103.033 119.847 103.107 119.886L104.302 120.508C104.377 120.547 104.462 120.567 104.548 120.567C104.634 120.567 104.719 120.547 104.794 120.508L105.988 119.886C106.063 119.847 106.125 119.792 106.168 119.724C106.211 119.657 106.234 119.581 106.234 119.503Z" fill="#5F7EFF" fill-opacity="0.23"/>
<g filter="url(#filter0_d_158_3712)">
<path d="M66.5631 161.574L66.5631 161.574L51.6286 170.122C50.7703 170.613 49.7964 170.872 48.8047 170.872C47.8131 170.872 46.8392 170.613 45.9809 170.122L31.0465 161.574C30.1885 161.083 29.4766 160.377 28.9819 159.528C28.4873 158.678 28.227 157.715 28.2271 156.735V139.637C28.227 138.657 28.4873 137.694 28.9821 136.844C29.4768 135.995 30.1888 135.289 31.0469 134.798L45.9813 126.25C46.8396 125.759 47.8135 125.5 48.8052 125.5C49.7968 125.5 50.7708 125.759 51.629 126.25L66.5635 134.798C67.4216 135.289 68.1335 135.995 68.6283 136.844C69.1231 137.694 69.3834 138.657 69.3834 139.637V156.735C69.3833 157.715 69.1229 158.678 68.6281 159.528C68.1332 160.377 67.4212 161.083 66.5631 161.574Z" stroke="url(#paint0_linear_158_3712)" shape-rendering="crispEdges"/>
</g>
<g filter="url(#filter1_d_158_3712)">
<path d="M76.9452 25.524L77.1954 25.0911L76.9452 25.524L103.827 41.0654C105.432 41.9933 106.765 43.3278 107.692 44.9349C108.618 46.5421 109.106 48.3651 109.106 50.2209V81.3072C109.106 83.1629 108.618 84.9859 107.691 86.5929C106.764 88.2 105.431 89.5344 103.826 90.4622L104.077 90.895L103.826 90.4622L76.9444 106.004C75.3392 106.932 73.5182 107.42 71.6647 107.42C69.8111 107.42 67.9902 106.932 66.385 106.004L39.5029 90.4624C37.8982 89.5344 36.5656 88.1999 35.6391 86.5928C34.7126 84.9858 34.2248 83.1629 34.2249 81.3072V50.2207C34.2248 48.365 34.7127 46.5419 35.6393 44.9348C36.566 43.3276 37.8988 41.9931 39.5037 41.0652L66.3857 25.524L66.1355 25.0911L66.3858 25.524C67.991 24.596 69.8119 24.1074 71.6655 24.1074C73.519 24.1074 75.34 24.596 76.9452 25.524Z" stroke="url(#paint1_linear_158_3712)" shape-rendering="crispEdges"/>
</g>
<g filter="url(#filter2_d_158_3712)">
<path d="M81.4625 164.367L81.7128 164.798L56.0255 179.717M81.4625 164.367L56.0255 179.717M81.4625 164.367L81.7128 164.798C83.2431 163.909 84.979 163.441 86.7458 163.441C88.5127 163.441 90.2485 163.909 91.7789 164.798L117.466 179.717C118.996 180.606 120.267 181.885 121.151 183.424C122.035 184.964 122.5 186.711 122.5 188.49V218.333C122.5 220.111 122.035 221.858 121.151 223.398C120.267 224.938 118.996 226.216 117.465 227.105L117.717 227.537L117.465 227.105L91.7781 242.024C90.2477 242.913 88.5119 243.381 86.7451 243.381C84.9783 243.381 83.2424 242.913 81.712 242.024L81.4609 242.457M81.4625 164.367L81.4609 242.457M56.0255 179.717C54.4953 180.606 53.2244 181.884 52.3406 183.424C51.4568 184.964 50.9914 186.711 50.9915 188.49V218.333C50.9914 220.111 51.4567 221.858 52.3404 223.398C53.224 224.938 54.4948 226.216 56.0247 227.105L81.712 242.024L81.4609 242.457M56.0255 179.717L81.4609 242.457" stroke="url(#paint2_linear_158_3712)" shape-rendering="crispEdges"/>
</g>
<g filter="url(#filter3_d_158_3712)">
<path d="M190.868 288.29L190.868 288.29L169.064 301.034C167.776 301.786 166.316 302.182 164.831 302.182C163.345 302.182 161.885 301.786 160.597 301.034L138.793 288.29C137.506 287.538 136.437 286.455 135.693 285.151C134.949 283.847 134.557 282.367 134.557 280.86V255.369C134.557 253.862 134.949 252.382 135.693 251.077C136.437 249.773 137.507 248.69 138.794 247.938C138.794 247.938 138.794 247.938 138.794 247.938L160.598 235.194L160.347 234.764L160.598 235.194C161.885 234.442 163.345 234.046 164.831 234.046C166.317 234.046 167.777 234.442 169.064 235.194L190.869 247.938C192.156 248.691 193.226 249.773 193.969 251.077C194.713 252.382 195.105 253.862 195.105 255.369V280.86C195.105 282.367 194.713 283.847 193.969 285.151C193.225 286.455 192.155 287.538 190.868 288.29Z" stroke="url(#paint3_linear_158_3712)" shape-rendering="crispEdges"/>
</g>
<path d="M104.191 79.8146V51.1227C104.192 49.7456 103.829 48.3926 103.141 47.1999C102.452 46.0072 101.462 45.0168 100.27 44.3282L75.4062 29.9795C74.2139 29.2911 72.8614 28.9287 71.4846 28.9287C70.1078 28.9287 68.7553 29.2911 67.5629 29.9795L42.7161 44.3282C41.5237 45.0166 40.5336 46.0068 39.8452 47.1991C39.1568 48.3915 38.7944 49.7441 38.7944 51.1209V79.8155C38.7942 81.1925 39.1565 82.5452 39.8449 83.7378C40.5333 84.9303 41.5236 85.9206 42.7161 86.6091L67.5629 100.957C68.7553 101.645 70.1078 102.008 71.4846 102.008C72.8614 102.008 74.2139 101.645 75.4062 100.957L100.268 86.6082C101.461 85.9199 102.451 84.9297 103.14 83.7372C103.829 82.5446 104.191 81.1917 104.191 79.8146Z" fill="#37679F"/>
<path d="M70.2235 50.8013C70.6084 50.5788 71.0452 50.4617 71.4898 50.4617C71.9344 50.4617 72.3712 50.5788 72.7562 50.8013C76.6213 52.9901 80.4952 55.1759 84.3779 57.3586C84.7418 57.5636 85.0447 57.8616 85.2555 58.2222C85.4662 58.5828 85.5772 58.993 85.5772 59.4107V72.5792C85.5695 73.0153 85.444 73.4412 85.2141 73.8119C84.9842 74.1826 84.6584 74.4843 84.2712 74.685C80.4061 76.8739 76.5674 79.0299 72.7023 81.216C72.3099 81.4397 71.8633 81.5507 71.4117 81.5369C70.9602 81.5231 70.5212 81.3849 70.1432 81.1375C68.9968 80.4708 67.824 79.8042 66.6776 79.1384C66.4195 79.0354 66.1906 78.8707 66.0109 78.6587C66.1678 78.4763 66.4113 78.4453 66.6238 78.3386C67.1009 78.1807 67.5573 77.9664 67.9836 77.7002C68.038 77.6717 68.0994 77.6591 68.1606 77.6638C68.2219 77.6684 68.2806 77.6902 68.3301 77.7266C69.316 78.2866 70.3028 78.873 71.2896 79.433C71.503 79.5661 71.7164 79.4065 71.9025 79.2998C75.6873 77.1675 79.4725 75.0261 83.2579 72.8756C83.3235 72.8381 83.3779 72.7837 83.4154 72.7181C83.4529 72.6526 83.4722 72.5781 83.4714 72.5026V59.4918C83.482 59.408 83.4641 59.323 83.4206 59.2506C83.3771 59.1781 83.3105 59.1224 83.2315 59.0924C79.3925 56.9333 75.5454 54.7652 71.69 52.5879C71.6257 52.5351 71.5452 52.5063 71.462 52.5063C71.3789 52.5063 71.2983 52.5351 71.234 52.5879C67.3953 54.7466 63.5576 56.9327 59.7189 59.0924C59.6418 59.125 59.5771 59.1813 59.534 59.2531C59.4909 59.3248 59.4716 59.4084 59.479 59.4918V72.5263C59.4725 72.6029 59.4895 72.6797 59.5276 72.7465C59.5657 72.8132 59.6232 72.8669 59.6925 72.9002C60.7048 73.4867 61.7445 74.0767 62.7851 74.6331C63.0694 74.8055 63.3859 74.9181 63.7152 74.9639C64.0446 75.0097 64.3798 74.9877 64.7003 74.8994C64.9768 74.7961 65.2146 74.6101 65.3816 74.3668C65.5485 74.1235 65.6364 73.8346 65.6333 73.5396V60.5844C65.6301 60.5028 65.6594 60.4232 65.7148 60.3632C65.7702 60.3032 65.8472 60.2676 65.9288 60.2643H67.4437C67.5268 60.2623 67.6073 60.2934 67.6677 60.3506C67.728 60.4079 67.7632 60.4867 67.7656 60.5698C67.7664 60.5835 67.7664 60.5972 67.7656 60.6109V73.6727C67.796 74.2633 67.6684 74.8514 67.3959 75.3762C67.1234 75.9011 66.7158 76.3438 66.2152 76.6586C65.5505 76.9701 64.8225 77.1229 64.0886 77.1052C63.3548 77.0875 62.6351 76.8996 61.9862 76.5565C60.8671 75.9965 59.7736 75.3307 58.681 74.7179C58.2973 74.5128 57.9745 74.2101 57.7452 73.8404C57.5159 73.4706 57.3882 73.0469 57.375 72.612V59.4389C57.373 59.0106 57.489 58.59 57.7104 58.2233C57.9318 57.8567 58.25 57.5581 58.63 57.3605C62.5197 55.1734 66.3584 52.9883 70.2235 50.8013Z" fill="white"/>
<path d="M73.5789 59.9192C75.2799 59.7026 77.0075 59.9703 78.563 60.6917C79.1281 61.0324 79.5948 61.5143 79.9173 62.0899C80.2398 62.6655 80.4071 63.3151 80.4026 63.9749C80.3802 64.0553 80.331 64.1255 80.2631 64.174C80.1952 64.2224 80.1128 64.2462 80.0296 64.2412H78.563C78.5159 64.2397 78.4695 64.2289 78.4266 64.2094C78.3836 64.1899 78.3449 64.1621 78.3127 64.1276C78.2805 64.0931 78.2554 64.0526 78.2389 64.0084C78.2224 63.9642 78.2148 63.9172 78.2165 63.87C78.1593 63.5506 78.0347 63.2471 77.8508 62.9797C77.667 62.7124 77.4281 62.4873 77.1503 62.3196C76.2193 61.9519 75.2155 61.8057 74.2182 61.8928C73.4799 61.8668 72.7493 62.0519 72.1124 62.4263C71.8897 62.5955 71.7259 62.8305 71.644 63.0979C71.5622 63.3653 71.5665 63.6517 71.6564 63.9166C71.8132 64.2896 72.2428 64.3963 72.5894 64.5303C74.615 65.0639 76.7746 65.0101 78.7464 65.7068C79.1743 65.827 79.5692 66.0431 79.9011 66.3388C80.233 66.6345 80.4931 67.0019 80.6616 67.4132C80.8553 67.9963 80.9007 68.6185 80.7937 69.2236C80.6867 69.8287 80.4307 70.3975 80.0487 70.8789C79.3472 71.6111 78.4336 72.1049 77.4367 72.2907C76.1388 72.5565 74.8063 72.6094 73.4914 72.4475C72.2287 72.3821 71.0176 71.9257 70.0257 71.1415C69.6313 70.7823 69.3212 70.3402 69.1178 69.847C68.9144 69.3537 68.8227 68.8216 68.8492 68.2887C68.8564 68.2039 68.8969 68.1254 68.9619 68.0704C69.0268 68.0153 69.1109 67.9883 69.1958 67.9951H70.6687C70.76 67.9969 70.8471 68.0341 70.9117 68.0987C70.9763 68.1632 71.0134 68.2503 71.0152 68.3416C71.042 68.6449 71.1288 68.9397 71.2707 69.209C71.4125 69.4784 71.6066 69.7167 71.8415 69.9103C72.8879 70.4349 74.0629 70.648 75.2269 70.5241C76.2015 70.5971 77.1738 70.354 77.9994 69.831C78.1953 69.6471 78.3382 69.414 78.4133 69.156C78.4884 68.8981 78.4929 68.6247 78.4263 68.3644C78.3196 67.9376 77.8399 67.726 77.4668 67.592C75.4677 66.9536 73.2816 67.1916 71.3098 66.4729C70.8954 66.3468 70.5124 66.1343 70.1861 65.8495C69.8598 65.5646 69.5975 65.2139 69.4165 64.8204C69.1904 64.2298 69.1329 63.588 69.2505 62.9667C69.3681 62.3454 69.656 61.769 70.0822 61.3018C71.0739 60.4856 72.2972 60.0019 73.5789 59.9192Z" fill="white"/>
<path d="M66.5917 155.328V140.899C66.5917 139.915 66.3328 138.949 65.841 138.097C65.3492 137.245 64.6418 136.537 63.79 136.046L51.2961 128.831C50.4442 128.34 49.478 128.081 48.4943 128.081C47.5107 128.081 46.5445 128.34 45.6926 128.831L33.1909 136.047C32.3388 136.538 31.6311 137.246 31.1391 138.098C30.6472 138.95 30.3882 139.916 30.3882 140.9V155.329C30.3882 156.312 30.6472 157.279 31.1391 158.131C31.6311 158.983 32.3388 159.69 33.1909 160.182L45.6924 167.398C46.5443 167.889 47.5106 168.148 48.4942 168.148C49.4778 168.148 50.4441 167.889 51.2959 167.398L63.7898 160.183C64.642 159.691 65.3496 158.984 65.8415 158.131C66.3333 157.279 66.5921 156.312 66.5917 155.328Z" fill="#9EA56D"/>
<path d="M50.438 145.859V150.602L54.5423 148.238V143.495L50.438 145.859Z" fill="white"/>
<path d="M45.8733 143.48L49.9774 145.859V150.602L45.8733 148.223V143.48Z" fill="white"/>
<path d="M41.323 140.833V145.577L45.4269 147.956V143.213L41.323 140.833ZM45.8732 153.487L49.9771 155.866V151.123L45.8732 148.744V153.487Z" fill="white"/>
<path d="M117.68 215.418V189.869C117.68 188.29 117.265 186.739 116.475 185.372C115.686 184.005 114.55 182.869 113.182 182.08L91.0426 169.304C89.6759 168.515 88.1255 168.1 86.5474 168.1C84.9692 168.1 83.4189 168.515 82.0522 169.304L59.9288 182.08C58.5618 182.869 57.4266 184.005 56.6374 185.372C55.8482 186.739 55.4329 188.289 55.4331 189.868V215.419C55.4329 216.998 55.8482 218.549 56.6374 219.916C57.4266 221.283 58.5618 222.418 59.9288 223.207L82.0522 235.983C83.4189 236.772 84.9692 237.187 86.5474 237.187C88.1255 237.187 89.6759 236.772 91.0426 235.983L113.182 223.207C114.55 222.418 115.685 221.283 116.475 219.916C117.265 218.548 117.68 216.997 117.68 215.418Z" fill="#F36262"/>
<path fill-rule="evenodd" clip-rule="evenodd" d="M96.5287 200.044H95.5229V206.078H100.165L100.81 205.098H96.5292V200.044L96.5287 200.044Z" fill="white"/>
<path fill-rule="evenodd" clip-rule="evenodd" d="M82.9641 200.353L79.3542 206.101H80.5409L81.6239 204.374H83.9725L84.5913 203.394H82.2428L83.5046 201.408L86.4956 206.127H87.6822L84.023 200.377C83.9748 200.279 83.9007 200.196 83.8089 200.138C83.7171 200.079 83.6109 200.047 83.502 200.044C83.393 200.042 83.2854 200.069 83.1909 200.123C83.0963 200.177 83.0185 200.256 82.9657 200.352L82.9641 200.353Z" fill="white"/>
<path fill-rule="evenodd" clip-rule="evenodd" d="M90.0048 201.024H94.1583L94.7771 200.044H89.9811C88.305 200.044 87.2214 201.385 87.2214 203.062C87.2214 204.738 88.3303 206.079 89.9811 206.079H94.0295L94.6741 205.099H90.0074C88.8734 205.099 88.2277 204.197 88.2277 203.061C88.202 201.952 88.8723 201.022 90.0074 201.022L90.0048 201.024Z" fill="white"/>
<path fill-rule="evenodd" clip-rule="evenodd" d="M68.8072 200.044H64.527C62.8509 200.044 61.7673 201.385 61.7673 203.061C61.7673 204.737 62.8761 206.078 64.527 206.078H68.8077C70.4838 206.078 71.5674 204.737 71.5674 203.061C71.5674 201.385 70.4576 200.044 68.8072 200.044ZM68.8072 205.099H64.527C63.3924 205.099 62.7474 204.196 62.7474 203.06C62.7474 201.924 63.4177 201.022 64.527 201.022H68.8077C69.9423 201.022 70.5874 201.924 70.5874 203.06C70.5874 204.196 69.9171 205.099 68.8077 205.099H68.8072Z" fill="white"/>
<path fill-rule="evenodd" clip-rule="evenodd" d="M103.62 201.024H107.774L108.393 200.044H103.595C101.919 200.044 100.835 201.385 100.835 203.062C100.835 204.738 101.944 206.079 103.595 206.079H107.643L108.288 205.099H103.62C103.192 205.1 102.779 204.942 102.46 204.656C102.141 204.371 101.939 203.977 101.893 203.552H107.128L107.747 202.572H101.892C101.939 202.146 102.141 201.753 102.46 201.467C102.778 201.181 103.192 201.024 103.62 201.024H103.62Z" fill="white"/>
<path fill-rule="evenodd" clip-rule="evenodd" d="M77.1884 203.626C77.6671 203.626 78.1262 203.436 78.4647 203.097C78.8032 202.759 78.9934 202.3 78.9934 201.821C78.9934 201.342 78.8032 200.883 78.4647 200.545C78.1262 200.206 77.6671 200.016 77.1884 200.016H72.1606V206.05H73.2695V200.997H77.189C77.4009 201.003 77.602 201.092 77.7481 201.245C77.8942 201.399 77.9734 201.604 77.9681 201.816C77.9633 202.021 77.8797 202.217 77.7346 202.362C77.5895 202.507 77.3941 202.591 77.189 202.595H74.0418L77.6001 206.026H79.0196L76.4666 203.575L77.1884 203.628V203.626Z" fill="white"/>
<path fill-rule="evenodd" clip-rule="evenodd" d="M109.447 199.966C109.307 199.963 109.171 200.015 109.07 200.112C108.968 200.209 108.909 200.342 108.906 200.482V200.507C108.906 200.579 108.92 200.649 108.947 200.715C108.974 200.78 109.014 200.84 109.064 200.89C109.114 200.94 109.174 200.98 109.239 201.008C109.305 201.035 109.375 201.049 109.446 201.049C109.517 201.049 109.588 201.035 109.653 201.008C109.719 200.981 109.779 200.941 109.829 200.891C109.879 200.84 109.919 200.781 109.947 200.715C109.974 200.649 109.988 200.579 109.988 200.508C109.988 200.364 109.93 200.227 109.829 200.125C109.727 200.024 109.59 199.967 109.446 199.967L109.447 199.966ZM109.447 200.946C109.331 200.946 109.219 200.9 109.137 200.818C109.055 200.735 109.009 200.624 109.009 200.507C109.009 200.391 109.055 200.28 109.137 200.197C109.219 200.115 109.331 200.069 109.447 200.069C109.563 200.069 109.674 200.115 109.756 200.197C109.838 200.279 109.884 200.39 109.884 200.506C109.889 200.617 109.849 200.725 109.774 200.807C109.699 200.889 109.594 200.938 109.484 200.943H109.448L109.447 200.946Z" fill="white"/>
<line x1="108.898" y1="84.6745" x2="129.976" y2="90.5764" stroke="#BBD6FF"/>
<line x1="61.0561" y1="165.247" x2="65.2717" y2="173.678" stroke="#BBD6FF"/>
<line x1="135.459" y1="250.82" x2="124.498" y2="243.232" stroke="#BBD6FF"/>
</g>
<defs>
<filter id="filter0_d_158_3712" x="19.7271" y="117" width="58.1562" height="62.3721" filterUnits="userSpaceOnUse" color-interpolation-filters="sRGB">
<feFlood flood-opacity="0" result="BackgroundImageFix"/>
<feColorMatrix in="SourceAlpha" type="matrix" values="0 0 0 0 0 0 0 0 0 0 0 0 0 0 0 0 0 0 127 0" result="hardAlpha"/>
<feOffset/>
<feGaussianBlur stdDeviation="4"/>
<feComposite in2="hardAlpha" operator="out"/>
<feColorMatrix type="matrix" values="0 0 0 0 0.108125 0 0 0 0 0.206158 0 0 0 0 0.720833 0 0 0 0.25 0"/>
<feBlend mode="normal" in2="BackgroundImageFix" result="effect1_dropShadow_158_3712"/>
<feBlend mode="normal" in="SourceGraphic" in2="effect1_dropShadow_158_3712" result="shape"/>
</filter>
<filter id="filter1_d_158_3712" x="25.7249" y="15.6074" width="91.8813" height="100.313" filterUnits="userSpaceOnUse" color-interpolation-filters="sRGB">
<feFlood flood-opacity="0" result="BackgroundImageFix"/>
<feColorMatrix in="SourceAlpha" type="matrix" values="0 0 0 0 0 0 0 0 0 0 0 0 0 0 0 0 0 0 127 0" result="hardAlpha"/>
<feOffset/>
<feGaussianBlur stdDeviation="4"/>
<feComposite in2="hardAlpha" operator="out"/>
<feColorMatrix type="matrix" values="0 0 0 0 0.108125 0 0 0 0 0.206158 0 0 0 0 0.720833 0 0 0 0.25 0"/>
<feBlend mode="normal" in2="BackgroundImageFix" result="effect1_dropShadow_158_3712"/>
<feBlend mode="normal" in="SourceGraphic" in2="effect1_dropShadow_158_3712" result="shape"/>
</filter>
<filter id="filter2_d_158_3712" x="42.4915" y="154.941" width="88.509" height="96.9402" filterUnits="userSpaceOnUse" color-interpolation-filters="sRGB">
<feFlood flood-opacity="0" result="BackgroundImageFix"/>
<feColorMatrix in="SourceAlpha" type="matrix" values="0 0 0 0 0 0 0 0 0 0 0 0 0 0 0 0 0 0 127 0" result="hardAlpha"/>
<feOffset/>
<feGaussianBlur stdDeviation="4"/>
<feComposite in2="hardAlpha" operator="out"/>
<feColorMatrix type="matrix" values="0 0 0 0 0.108125 0 0 0 0 0.206158 0 0 0 0 0.720833 0 0 0 0.25 0"/>
<feBlend mode="normal" in2="BackgroundImageFix" result="effect1_dropShadow_158_3712"/>
<feBlend mode="normal" in="SourceGraphic" in2="effect1_dropShadow_158_3712" result="shape"/>
</filter>
<filter id="filter3_d_158_3712" x="126.057" y="225.546" width="77.5483" height="85.1365" filterUnits="userSpaceOnUse" color-interpolation-filters="sRGB">
<feFlood flood-opacity="0" result="BackgroundImageFix"/>
<feColorMatrix in="SourceAlpha" type="matrix" values="0 0 0 0 0 0 0 0 0 0 0 0 0 0 0 0 0 0 127 0" result="hardAlpha"/>
<feOffset/>
<feGaussianBlur stdDeviation="4"/>
<feComposite in2="hardAlpha" operator="out"/>
<feColorMatrix type="matrix" values="0 0 0 0 0.108125 0 0 0 0 0.206158 0 0 0 0 0.720833 0 0 0 0.25 0"/>
<feBlend mode="normal" in2="BackgroundImageFix" result="effect1_dropShadow_158_3712"/>
<feBlend mode="normal" in="SourceGraphic" in2="effect1_dropShadow_158_3712" result="shape"/>
</filter>
<linearGradient id="paint0_linear_158_3712" x1="48.8052" y1="125" x2="48.8052" y2="171.372" gradientUnits="userSpaceOnUse">
<stop stop-color="#93B1FF"/>
<stop offset="1" stop-color="#1C55E9" stop-opacity="0"/>
</linearGradient>
<linearGradient id="paint1_linear_158_3712" x1="71.6656" y1="23.6074" x2="71.6656" y2="107.92" gradientUnits="userSpaceOnUse">
<stop stop-color="#93B1FF"/>
<stop offset="1" stop-color="#1C55E9" stop-opacity="0"/>
</linearGradient>
<linearGradient id="paint2_linear_158_3712" x1="86.7459" y1="162.941" x2="86.7459" y2="243.881" gradientUnits="userSpaceOnUse">
<stop stop-color="#93B1FF"/>
<stop offset="1" stop-color="#1C55E9" stop-opacity="0"/>
</linearGradient>
<linearGradient id="paint3_linear_158_3712" x1="164.831" y1="233.546" x2="164.831" y2="302.682" gradientUnits="userSpaceOnUse">
<stop stop-color="#4578FC"/>
<stop offset="1" stop-color="#1C55E9" stop-opacity="0"/>
</linearGradient>
</defs>
</svg>
