<svg width="173" height="48" viewBox="0 0 173 48" fill="none" xmlns="http://www.w3.org/2000/svg">
<g clip-path="url(#clip0_201_37625)">
<path d="M19.3078 25.6807L0 14.5205V27.9123L15.4459 36.8402V41.304L0 32.376V36.8402L19.3078 48.0001V34.6079L3.85893 25.6796L3.86156 21.2158L19.3059 30.1441L19.3078 25.6807Z" fill="#2F80ED"/>
<path d="M42.4758 14.5205L23.168 25.6804V39.0721L38.6138 30.1441V34.6087L23.168 43.5363V48.0001L42.4758 36.8402L42.4739 23.4473L38.9678 25.4747L27.0378 32.3719V27.9168L42.4825 18.9843L42.4758 14.5205Z" fill="#2F80ED"/>
<path d="M40.5531 11.1501L21.2367 0L9.65205 6.69607L25.1095 15.6222L21.2371 17.8548L5.79835 8.93318L1.92969 11.161L21.2375 22.3212L32.8217 15.6132L17.3886 6.6893L21.2513 4.47313L36.6934 13.3857L40.5531 11.1501Z" fill="#2F80ED"/>
</g>
<path d="M59.5591 24.1486C57.8118 24.1486 56.3769 23.7362 55.2546 22.9113C54.1324 22.0722 53.5286 20.8775 53.4434 19.3273H57.897C57.9396 19.8535 58.0959 20.2375 58.3658 20.4793C58.6357 20.7211 58.9838 20.8419 59.4099 20.8419C59.7935 20.8419 60.106 20.7495 60.3476 20.5646C60.6033 20.3655 60.7311 20.0953 60.7311 19.7539C60.7311 19.3131 60.5251 18.9717 60.1132 18.7299C59.7012 18.4882 59.0335 18.2179 58.1101 17.9193C57.1299 17.5922 56.3343 17.2793 55.7234 16.9806C55.1268 16.6677 54.6012 16.2197 54.1466 15.6366C53.7062 15.0393 53.486 14.2642 53.486 13.3113C53.486 12.3442 53.7275 11.5193 54.2105 10.8366C54.6935 10.1397 55.3612 9.6135 56.2136 9.25794C57.0659 8.90239 58.0319 8.72461 59.1116 8.72461C60.859 8.72461 62.2512 9.13705 63.2882 9.96194C64.3395 10.7726 64.9006 11.9175 64.9717 13.3966H60.4328C60.4186 12.9415 60.2765 12.6002 60.0066 12.3726C59.7509 12.1451 59.417 12.0313 59.0051 12.0313C58.6925 12.0313 58.4368 12.1237 58.2379 12.3086C58.0391 12.4935 57.9396 12.7566 57.9396 13.0979C57.9396 13.3824 58.0462 13.6313 58.2592 13.8446C58.4865 14.0437 58.7636 14.2215 59.0903 14.3779C59.417 14.5202 59.9001 14.7051 60.5393 14.9326C61.4911 15.2597 62.2725 15.5868 62.8834 15.9139C63.5084 16.2268 64.0412 16.6748 64.4815 17.2579C64.9361 17.8268 65.1634 18.5522 65.1634 19.4339C65.1634 20.3299 64.9361 21.1335 64.4815 21.8446C64.0412 22.5557 63.3948 23.1175 62.5424 23.5299C61.7042 23.9424 60.7098 24.1486 59.5591 24.1486Z" fill="#13417C"/>
<path d="M80.7643 8.95928L75.4796 19.2206V23.9993H71.2817V19.2206L65.997 8.95928H70.7703L73.4126 14.7619L76.055 8.95928H80.7643Z" fill="#13417C"/>
<path d="M95.9614 23.9993H91.7848L86.2231 15.5939V23.9993H82.0465V8.95928H86.2231L91.7848 17.4713V8.95928H95.9614V23.9993Z" fill="#13417C"/>
<path d="M102.517 12.3086V14.7619H107.312V17.9406H102.517V20.6499H107.951V23.9993H98.3406V8.95928H107.951V12.3086H102.517Z" fill="#13417C"/>
<path d="M109.503 16.4473C109.503 14.9682 109.809 13.6526 110.42 12.5006C111.045 11.3344 111.926 10.4313 113.062 9.79128C114.199 9.13705 115.506 8.80994 116.983 8.80994C118.858 8.80994 120.435 9.31483 121.714 10.3246C122.992 11.3202 123.816 12.6784 124.186 14.3993H119.689C119.419 13.8304 119.043 13.3966 118.56 13.0979C118.091 12.7993 117.544 12.6499 116.919 12.6499C115.953 12.6499 115.179 12.9984 114.596 13.6953C114.028 14.3779 113.744 15.2953 113.744 16.4473C113.744 17.6135 114.028 18.5451 114.596 19.2419C115.179 19.9246 115.953 20.2659 116.919 20.2659C117.544 20.2659 118.091 20.1166 118.56 19.8179C119.043 19.5193 119.419 19.0855 119.689 18.5166H124.186C123.816 20.2375 122.992 21.6028 121.714 22.6126C120.435 23.6082 118.858 24.1059 116.983 24.1059C115.506 24.1059 114.199 23.7859 113.062 23.1459C111.926 22.4917 111.045 21.5886 110.42 20.4366C109.809 19.2704 109.503 17.9406 109.503 16.4473Z" fill="#13417C"/>
<path d="M137.478 8.95928V12.2873H133.472V23.9993H129.296V12.2873H125.332V8.95928H137.478Z" fill="#13417C"/>
<path d="M143.2 8.95928V23.9993H139.024V8.95928H143.2Z" fill="#13417C"/>
<path d="M145.067 16.4473C145.067 14.9682 145.373 13.6526 145.984 12.5006C146.609 11.3344 147.49 10.4313 148.626 9.79128C149.763 9.13705 151.07 8.80994 152.547 8.80994C154.422 8.80994 155.999 9.31483 157.278 10.3246C158.556 11.3202 159.38 12.6784 159.749 14.3993H155.253C154.983 13.8304 154.607 13.3966 154.124 13.0979C153.655 12.7993 153.108 12.6499 152.483 12.6499C151.517 12.6499 150.743 12.9984 150.16 13.6953C149.592 14.3779 149.308 15.2953 149.308 16.4473C149.308 17.6135 149.592 18.5451 150.16 19.2419C150.743 19.9246 151.517 20.2659 152.483 20.2659C153.108 20.2659 153.655 20.1166 154.124 19.8179C154.607 19.5193 154.983 19.0855 155.253 18.5166H159.749C159.38 20.2375 158.556 21.6028 157.278 22.6126C155.999 23.6082 154.422 24.1059 152.547 24.1059C151.07 24.1059 149.763 23.7859 148.626 23.1459C147.49 22.4917 146.609 21.5886 145.984 20.4366C145.373 19.2704 145.067 17.9406 145.067 16.4473Z" fill="#13417C"/>
<path d="M167.395 24.1486C165.648 24.1486 164.213 23.7362 163.091 22.9113C161.969 22.0722 161.365 20.8775 161.28 19.3273H165.733C165.776 19.8535 165.932 20.2375 166.202 20.4793C166.472 20.7211 166.82 20.8419 167.246 20.8419C167.63 20.8419 167.942 20.7495 168.184 20.5646C168.44 20.3655 168.567 20.0953 168.567 19.7539C168.567 19.3131 168.362 18.9717 167.95 18.7299C167.538 18.4882 166.87 18.2179 165.946 17.9193C164.966 17.5922 164.171 17.2793 163.56 16.9806C162.963 16.6677 162.438 16.2197 161.983 15.6366C161.543 15.0393 161.322 14.2642 161.322 13.3113C161.322 12.3442 161.564 11.5193 162.047 10.8366C162.53 10.1397 163.198 9.6135 164.05 9.25794C164.902 8.90239 165.868 8.72461 166.948 8.72461C168.695 8.72461 170.088 9.13705 171.125 9.96194C172.176 10.7726 172.737 11.9175 172.808 13.3966H168.269C168.255 12.9415 168.113 12.6002 167.843 12.3726C167.587 12.1451 167.253 12.0313 166.841 12.0313C166.529 12.0313 166.273 12.1237 166.074 12.3086C165.875 12.4935 165.776 12.7566 165.776 13.0979C165.776 13.3824 165.883 13.6313 166.096 13.8446C166.323 14.0437 166.6 14.2215 166.927 14.3779C167.253 14.5202 167.736 14.7051 168.376 14.9326C169.328 15.2597 170.109 15.5868 170.72 15.9139C171.345 16.2268 171.878 16.6748 172.318 17.2579C172.773 17.8268 173 18.5522 173 19.4339C173 20.3299 172.773 21.1335 172.318 21.8446C171.878 22.5557 171.231 23.1175 170.379 23.5299C169.541 23.9424 168.546 24.1486 167.395 24.1486Z" fill="#13417C"/>
<path d="M56.4058 30.9657C57.2156 30.9657 57.9152 31.1186 58.5048 31.4244C59.1014 31.723 59.556 32.1533 59.8686 32.715C60.1882 33.2768 60.348 33.9381 60.348 34.699C60.348 35.4599 60.1882 36.1213 59.8686 36.683C59.556 37.2377 59.1014 37.6644 58.5048 37.963C57.9152 38.2546 57.2156 38.4004 56.4058 38.4004H54.0938V30.9657H56.4058ZM56.4058 37.6004C57.3647 37.6004 58.0963 37.3479 58.6007 36.843C59.105 36.331 59.3571 35.6164 59.3571 34.699C59.3571 33.7746 59.1014 33.0528 58.59 32.5337C58.0857 32.0146 57.3576 31.755 56.4058 31.755H55.0633V37.6004H56.4058Z" fill="#13417C"/>
<path d="M62.5965 31.755V34.2404H65.3027V35.0404H62.5965V37.6004H65.6224V38.4004H61.6269V30.955H65.6224V31.755H62.5965Z" fill="#13417C"/>
<path d="M73.2265 30.9657L70.4244 38.4004H69.3056L66.5035 30.9657H67.537L69.8703 37.3764L72.2037 30.9657H73.2265Z" fill="#13417C"/>
<path d="M75.2592 31.755V34.2404H77.9655V35.0404H75.2592V37.6004H78.2851V38.4004H74.2897V30.955H78.2851V31.755H75.2592Z" fill="#13417C"/>
<path d="M80.7218 37.611H83.3215V38.4004H79.7522V30.9657H80.7218V37.611Z" fill="#13417C"/>
<path d="M87.718 38.475C87.029 38.475 86.4004 38.315 85.8322 37.995C85.2639 37.6679 84.8129 37.2164 84.479 36.6404C84.1523 36.0573 83.9889 35.403 83.9889 34.6777C83.9889 33.9524 84.1523 33.3017 84.479 32.7257C84.8129 32.1426 85.2639 31.691 85.8322 31.371C86.4004 31.0439 87.029 30.8804 87.718 30.8804C88.4142 30.8804 89.0463 31.0439 89.6146 31.371C90.1828 31.691 90.6303 32.139 90.9571 32.715C91.2838 33.291 91.4472 33.9453 91.4472 34.6777C91.4472 35.4101 91.2838 36.0644 90.9571 36.6404C90.6303 37.2164 90.1828 37.6679 89.6146 37.995C89.0463 38.315 88.4142 38.475 87.718 38.475ZM87.718 37.6324C88.2366 37.6324 88.7018 37.5115 89.1138 37.2697C89.5329 37.0279 89.8596 36.683 90.094 36.235C90.3355 35.787 90.4563 35.2679 90.4563 34.6777C90.4563 34.0804 90.3355 33.5613 90.094 33.1204C89.8596 32.6724 89.5364 32.3275 89.1245 32.0857C88.7125 31.8439 88.2437 31.723 87.718 31.723C87.1924 31.723 86.7236 31.8439 86.3116 32.0857C85.8997 32.3275 85.5729 32.6724 85.3314 33.1204C85.097 33.5613 84.9798 34.0804 84.9798 34.6777C84.9798 35.2679 85.097 35.787 85.3314 36.235C85.5729 36.683 85.8997 37.0279 86.3116 37.2697C86.7307 37.5115 87.1995 37.6324 87.718 37.6324Z" fill="#13417C"/>
<path d="M97.6922 33.1417C97.6922 33.7604 97.4791 34.2759 97.0529 34.6884C96.6338 35.0937 95.991 35.2964 95.1244 35.2964H93.6967V38.4004H92.7271V30.9657H95.1244C95.9626 30.9657 96.5983 31.1684 97.0316 31.5737C97.472 31.979 97.6922 32.5017 97.6922 33.1417ZM95.1244 34.4964C95.6643 34.4964 96.062 34.379 96.3177 34.1444C96.5734 33.9097 96.7013 33.5755 96.7013 33.1417C96.7013 32.2244 96.1757 31.7657 95.1244 31.7657H93.6967V34.4964H95.1244Z" fill="#13417C"/>
<path d="M106.43 31.019V38.4004H105.46V32.8964L103.01 38.4004H102.328L99.8668 32.8857V38.4004H98.8972V31.019H99.9414L102.669 37.1204L105.397 31.019H106.43Z" fill="#13417C"/>
<path d="M109.044 31.755V34.2404H111.75V35.0404H109.044V37.6004H112.07V38.4004H108.074V30.955H112.07V31.755H109.044Z" fill="#13417C"/>
<path d="M119.376 38.4004H118.406L114.506 32.4804V38.4004H113.537V30.955H114.506L118.406 36.8644V30.955H119.376V38.4004Z" fill="#13417C"/>
<path d="M125.599 30.9657V31.755H123.575V38.4004H122.605V31.755H120.57V30.9657H125.599Z" fill="#13417C"/>
<defs>
<clipPath id="clip0_201_37625">
<rect width="42.4831" height="48" fill="white"/>
</clipPath>
</defs>
</svg>
