<svg width="24" height="24" viewBox="0 0 24 24" fill="none" xmlns="http://www.w3.org/2000/svg">
<rect width="24" height="24" rx="4" fill="#1C55E9" fill-opacity="0.1"/>
<path d="M5.30049 6.58007C5.23151 6.58007 5.16536 6.55281 5.11658 6.50429C5.06781 6.45576 5.04041 6.38995 5.04041 6.32132V5.80383C5.04041 5.59796 5.12261 5.40052 5.26893 5.25494C5.41526 5.10937 5.61372 5.02759 5.82065 5.02759H15.7038C15.7728 5.02759 15.8389 5.05485 15.8877 5.10337C15.9365 5.1519 15.9639 5.21771 15.9639 5.28634C15.9639 5.35496 15.9365 5.42077 15.8877 5.4693C15.8389 5.51782 15.7728 5.54508 15.7038 5.54508H5.82065C5.75168 5.54508 5.68552 5.57234 5.63675 5.62087C5.58797 5.66939 5.56057 5.73521 5.56057 5.80383V6.32132C5.56057 6.38995 5.53317 6.45576 5.48439 6.50429C5.43562 6.55281 5.36947 6.58007 5.30049 6.58007Z" fill="#1C55E9"/>
<path d="M5.30049 6.58007C5.23151 6.58007 5.16536 6.55281 5.11658 6.50429C5.06781 6.45576 5.04041 6.38995 5.04041 6.32132V5.80383C5.04041 5.59796 5.12261 5.40052 5.26893 5.25494C5.41526 5.10937 5.61372 5.02759 5.82065 5.02759H15.7038C15.7728 5.02759 15.8389 5.05485 15.8877 5.10337C15.9365 5.1519 15.9639 5.21771 15.9639 5.28634C15.9639 5.35496 15.9365 5.42077 15.8877 5.4693C15.8389 5.51782 15.7728 5.54508 15.7038 5.54508H5.82065C5.75168 5.54508 5.68552 5.57234 5.63675 5.62087C5.58797 5.66939 5.56057 5.73521 5.56057 5.80383V6.32132C5.56057 6.38995 5.53317 6.45576 5.48439 6.50429C5.43562 6.55281 5.36947 6.58007 5.30049 6.58007Z" stroke="black"/>
<path d="M8.42146 6.56974C8.5651 6.56974 8.68154 6.4539 8.68154 6.31099C8.68154 6.16809 8.5651 6.05225 8.42146 6.05225C8.27782 6.05225 8.16138 6.16809 8.16138 6.31099C8.16138 6.4539 8.27782 6.56974 8.42146 6.56974Z" fill="#1C55E9"/>
<path d="M8.42146 6.56974C8.5651 6.56974 8.68154 6.4539 8.68154 6.31099C8.68154 6.16809 8.5651 6.05225 8.42146 6.05225C8.27782 6.05225 8.16138 6.16809 8.16138 6.31099C8.16138 6.4539 8.27782 6.56974 8.42146 6.56974Z" stroke="black"/>
<path d="M7.38118 6.56974C7.52482 6.56974 7.64126 6.4539 7.64126 6.31099C7.64126 6.16809 7.52482 6.05225 7.38118 6.05225C7.23754 6.05225 7.12109 6.16809 7.12109 6.31099C7.12109 6.4539 7.23754 6.56974 7.38118 6.56974Z" fill="#1C55E9"/>
<path d="M7.38118 6.56974C7.52482 6.56974 7.64126 6.4539 7.64126 6.31099C7.64126 6.16809 7.52482 6.05225 7.38118 6.05225C7.23754 6.05225 7.12109 6.16809 7.12109 6.31099C7.12109 6.4539 7.23754 6.56974 7.38118 6.56974Z" stroke="black"/>
<path d="M6.34077 6.56974C6.48441 6.56974 6.60085 6.4539 6.60085 6.31099C6.60085 6.16809 6.48441 6.05225 6.34077 6.05225C6.19713 6.05225 6.08069 6.16809 6.08069 6.31099C6.08069 6.4539 6.19713 6.56974 6.34077 6.56974Z" fill="#1C55E9"/>
<path d="M6.34077 6.56974C6.48441 6.56974 6.60085 6.4539 6.60085 6.31099C6.60085 6.16809 6.48441 6.05225 6.34077 6.05225C6.19713 6.05225 6.08069 6.16809 6.08069 6.31099C6.08069 6.4539 6.19713 6.56974 6.34077 6.56974Z" stroke="black"/>
<path d="M7.38118 8.63981C7.52482 8.63981 7.64126 8.52396 7.64126 8.38106C7.64126 8.23816 7.52482 8.12231 7.38118 8.12231C7.23754 8.12231 7.12109 8.23816 7.12109 8.38106C7.12109 8.52396 7.23754 8.63981 7.38118 8.63981Z" fill="#1C55E9"/>
<path d="M7.38118 8.63981C7.52482 8.63981 7.64126 8.52396 7.64126 8.38106C7.64126 8.23816 7.52482 8.12231 7.38118 8.12231C7.23754 8.12231 7.12109 8.23816 7.12109 8.38106C7.12109 8.52396 7.23754 8.63981 7.38118 8.63981Z" stroke="black"/>
<path d="M6.34077 8.63981C6.48441 8.63981 6.60085 8.52396 6.60085 8.38106C6.60085 8.23816 6.48441 8.12231 6.34077 8.12231C6.19713 8.12231 6.08069 8.23816 6.08069 8.38106C6.08069 8.52396 6.19713 8.63981 6.34077 8.63981Z" fill="#1C55E9"/>
<path d="M6.34077 8.63981C6.48441 8.63981 6.60085 8.52396 6.60085 8.38106C6.60085 8.23816 6.48441 8.12231 6.34077 8.12231C6.19713 8.12231 6.08069 8.23816 6.08069 8.38106C6.08069 8.52396 6.19713 8.63981 6.34077 8.63981Z" stroke="black"/>
<path d="M5.30049 8.63981C5.44413 8.63981 5.56057 8.52396 5.56057 8.38106C5.56057 8.23816 5.44413 8.12231 5.30049 8.12231C5.15685 8.12231 5.04041 8.23816 5.04041 8.38106C5.04041 8.52396 5.15685 8.63981 5.30049 8.63981Z" fill="#1C55E9"/>
<path d="M5.30049 8.63981C5.44413 8.63981 5.56057 8.52396 5.56057 8.38106C5.56057 8.23816 5.44413 8.12231 5.30049 8.12231C5.15685 8.12231 5.04041 8.23816 5.04041 8.38106C5.04041 8.52396 5.15685 8.63981 5.30049 8.63981Z" stroke="black"/>
<path d="M17.7844 18.9999H16.224C16.155 18.9999 16.0888 18.9726 16.04 18.9241C15.9913 18.8756 15.9639 18.8098 15.9639 18.7411C15.9639 18.6725 15.9913 18.6067 16.04 18.5582C16.0888 18.5097 16.155 18.4824 16.224 18.4824H17.7844C17.8534 18.4824 17.9196 18.4551 17.9684 18.4066C18.0171 18.3581 18.0445 18.2923 18.0445 18.2237V14.0837C18.0445 14.0151 18.0719 13.9493 18.1207 13.9007C18.1695 13.8522 18.2356 13.825 18.3046 13.825C18.3736 13.825 18.4397 13.8522 18.4885 13.9007C18.5373 13.9493 18.5647 14.0151 18.5647 14.0837V18.2237C18.5647 18.4295 18.4825 18.627 18.3362 18.7725C18.1898 18.9181 17.9914 18.9999 17.7844 18.9999Z" fill="#1C55E9"/>
<path d="M17.7844 18.9999H16.224C16.155 18.9999 16.0888 18.9726 16.04 18.9241C15.9913 18.8756 15.9639 18.8098 15.9639 18.7411C15.9639 18.6725 15.9913 18.6067 16.04 18.5582C16.0888 18.5097 16.155 18.4824 16.224 18.4824H17.7844C17.8534 18.4824 17.9196 18.4551 17.9684 18.4066C18.0171 18.3581 18.0445 18.2923 18.0445 18.2237V14.0837C18.0445 14.0151 18.0719 13.9493 18.1207 13.9007C18.1695 13.8522 18.2356 13.825 18.3046 13.825C18.3736 13.825 18.4397 13.8522 18.4885 13.9007C18.5373 13.9493 18.5647 14.0151 18.5647 14.0837V18.2237C18.5647 18.4295 18.4825 18.627 18.3362 18.7725C18.1898 18.9181 17.9914 18.9999 17.7844 18.9999Z" stroke="black"/>
<path d="M9.46181 19H4.78032C4.67697 19 4.57466 18.9796 4.47931 18.94C4.38396 18.9003 4.29748 18.8422 4.22489 18.769C4.1523 18.6958 4.09504 18.609 4.05645 18.5137C4.01786 18.4183 3.99869 18.3162 4.00007 18.2134V7.86355C4.0028 7.65947 4.08622 7.46468 4.23224 7.32134C4.37827 7.178 4.57517 7.09764 4.78032 7.09766H14.6635C14.7324 7.09766 14.7986 7.12492 14.8474 7.17344C14.8961 7.22197 14.9235 7.28778 14.9235 7.3564C14.9235 7.42503 14.8961 7.49084 14.8474 7.53937C14.7986 7.58789 14.7324 7.61515 14.6635 7.61515H4.78032C4.71134 7.61515 4.64519 7.64241 4.59641 7.69094C4.54764 7.73946 4.52024 7.80527 4.52024 7.8739V18.2238C4.52024 18.2924 4.54764 18.3582 4.59641 18.4067C4.64519 18.4553 4.71134 18.4825 4.78032 18.4825H9.46181C9.53079 18.4825 9.59694 18.5098 9.64572 18.5583C9.69449 18.6068 9.72189 18.6727 9.72189 18.7413C9.72189 18.8099 9.69449 18.8757 9.64572 18.9242C9.59694 18.9728 9.53079 19 9.46181 19Z" fill="#1C55E9"/>
<path d="M9.46181 19H4.78032C4.67697 19 4.57466 18.9796 4.47931 18.94C4.38396 18.9003 4.29748 18.8422 4.22489 18.769C4.1523 18.6958 4.09504 18.609 4.05645 18.5137C4.01786 18.4183 3.99869 18.3162 4.00007 18.2134V7.86355C4.0028 7.65947 4.08622 7.46468 4.23224 7.32134C4.37827 7.178 4.57517 7.09764 4.78032 7.09766H14.6635C14.7324 7.09766 14.7986 7.12492 14.8474 7.17344C14.8961 7.22197 14.9235 7.28778 14.9235 7.3564C14.9235 7.42503 14.8961 7.49084 14.8474 7.53937C14.7986 7.58789 14.7324 7.61515 14.6635 7.61515H4.78032C4.71134 7.61515 4.64519 7.64241 4.59641 7.69094C4.54764 7.73946 4.52024 7.80527 4.52024 7.8739V18.2238C4.52024 18.2924 4.54764 18.3582 4.59641 18.4067C4.64519 18.4553 4.71134 18.4825 4.78032 18.4825H9.46181C9.53079 18.4825 9.59694 18.5098 9.64572 18.5583C9.69449 18.6068 9.72189 18.6727 9.72189 18.7413C9.72189 18.8099 9.69449 18.8757 9.64572 18.9242C9.59694 18.9728 9.53079 19 9.46181 19Z" stroke="black"/>
<path d="M11.0223 19H10.5021C10.4332 19 10.367 18.9727 10.3182 18.9242C10.2695 18.8757 10.2421 18.8099 10.2421 18.7412C10.2421 18.6726 10.2695 18.6068 10.3182 18.5583C10.367 18.5097 10.4332 18.4825 10.5021 18.4825H11.0223C12.666 18.4825 16.4841 17.7425 16.4841 10.9685V7.6151H15.7038C15.6582 7.61592 15.6132 7.60429 15.5738 7.58148C15.5344 7.55868 15.502 7.52556 15.4801 7.48573C15.4573 7.44639 15.4453 7.40177 15.4453 7.35635C15.4453 7.31093 15.4573 7.26631 15.4801 7.22698L17.3007 4.12201C17.3247 4.08461 17.3577 4.05383 17.3968 4.0325C17.4359 4.01118 17.4798 4 17.5244 4C17.569 4 17.6128 4.01118 17.6519 4.0325C17.691 4.05383 17.7241 4.08461 17.7481 4.12201L19.5686 7.22698C19.5915 7.26631 19.6035 7.31093 19.6035 7.35635C19.6035 7.40177 19.5915 7.44639 19.5686 7.48573C19.5468 7.52556 19.5144 7.55868 19.475 7.58148C19.4355 7.60429 19.3906 7.61592 19.345 7.6151H18.5647V10.9788C18.5647 11.0474 18.5373 11.1132 18.4885 11.1618C18.4398 11.2103 18.3736 11.2376 18.3046 11.2376C18.2357 11.2376 18.1695 11.2103 18.1207 11.1618C18.072 11.1132 18.0446 11.0474 18.0446 10.9788V7.35635C18.0446 7.28773 18.072 7.22191 18.1207 7.17339C18.1695 7.12487 18.2357 7.0976 18.3046 7.0976H18.8924L17.5244 4.75335L16.1564 7.0976H16.7441C16.8131 7.0976 16.8793 7.12487 16.928 7.17339C16.9768 7.22191 17.0042 7.28773 17.0042 7.35635V10.9788C17.0042 18.2082 12.8429 19 11.0223 19Z" fill="#1C55E9"/>
<path d="M11.0223 19H10.5021C10.4332 19 10.367 18.9727 10.3182 18.9242C10.2695 18.8757 10.2421 18.8099 10.2421 18.7412C10.2421 18.6726 10.2695 18.6068 10.3182 18.5583C10.367 18.5097 10.4332 18.4825 10.5021 18.4825H11.0223C12.666 18.4825 16.4841 17.7425 16.4841 10.9685V7.6151H15.7038C15.6582 7.61592 15.6132 7.60429 15.5738 7.58148C15.5344 7.55868 15.502 7.52556 15.4801 7.48573C15.4573 7.44639 15.4453 7.40177 15.4453 7.35635C15.4453 7.31093 15.4573 7.26631 15.4801 7.22698L17.3007 4.12201C17.3247 4.08461 17.3577 4.05383 17.3968 4.0325C17.4359 4.01118 17.4798 4 17.5244 4C17.569 4 17.6128 4.01118 17.6519 4.0325C17.691 4.05383 17.7241 4.08461 17.7481 4.12201L19.5686 7.22698C19.5915 7.26631 19.6035 7.31093 19.6035 7.35635C19.6035 7.40177 19.5915 7.44639 19.5686 7.48573C19.5468 7.52556 19.5144 7.55868 19.475 7.58148C19.4355 7.60429 19.3906 7.61592 19.345 7.6151H18.5647V10.9788C18.5647 11.0474 18.5373 11.1132 18.4885 11.1618C18.4398 11.2103 18.3736 11.2376 18.3046 11.2376C18.2357 11.2376 18.1695 11.2103 18.1207 11.1618C18.072 11.1132 18.0446 11.0474 18.0446 10.9788V7.35635C18.0446 7.28773 18.072 7.22191 18.1207 7.17339C18.1695 7.12487 18.2357 7.0976 18.3046 7.0976H18.8924L17.5244 4.75335L16.1564 7.0976H16.7441C16.8131 7.0976 16.8793 7.12487 16.928 7.17339C16.9768 7.22191 17.0042 7.28773 17.0042 7.35635V10.9788C17.0042 18.2082 12.8429 19 11.0223 19Z" stroke="black"/>
<path d="M18.3046 12.2624C18.4483 12.2624 18.5647 12.1465 18.5647 12.0036C18.5647 11.8607 18.4483 11.7449 18.3046 11.7449C18.161 11.7449 18.0446 11.8607 18.0446 12.0036C18.0446 12.1465 18.161 12.2624 18.3046 12.2624Z" fill="#1C55E9"/>
<path d="M18.3046 12.2624C18.4483 12.2624 18.5647 12.1465 18.5647 12.0036C18.5647 11.8607 18.4483 11.7449 18.3046 11.7449C18.161 11.7449 18.0446 11.8607 18.0446 12.0036C18.0446 12.1465 18.161 12.2624 18.3046 12.2624Z" stroke="black"/>
<path d="M4.2602 9.68497H15.1837C15.2527 9.68497 15.3188 9.65771 15.3676 9.60919C15.4164 9.56067 15.4438 9.49485 15.4438 9.42623C15.4438 9.3576 15.4164 9.29179 15.3676 9.24327C15.3188 9.19474 15.2527 9.16748 15.1837 9.16748H4.52029L4.00012 9.42623C4.00012 9.49485 4.02752 9.56067 4.0763 9.60919C4.12507 9.65771 4.19123 9.68497 4.2602 9.68497Z" fill="#1C55E9"/>
<path d="M4.2602 9.68497H15.1837C15.2527 9.68497 15.3188 9.65771 15.3676 9.60919C15.4164 9.56067 15.4438 9.49485 15.4438 9.42623C15.4438 9.3576 15.4164 9.29179 15.3676 9.24327C15.3188 9.19474 15.2527 9.16748 15.1837 9.16748H4.52029L4.00012 9.42623C4.00012 9.49485 4.02752 9.56067 4.0763 9.60919C4.12507 9.65771 4.19123 9.68497 4.2602 9.68497Z" stroke="black"/>
<path d="M10.4501 17.9649H9.51384C9.4546 17.9652 9.39705 17.9453 9.3507 17.9086C9.30436 17.8719 9.27199 17.8206 9.25896 17.7631L9.10811 17.0645C8.89087 17.002 8.68146 16.9152 8.48391 16.8057L7.88052 17.1938C7.8301 17.2264 7.7699 17.2406 7.71016 17.234C7.65041 17.2274 7.59481 17.2004 7.55281 17.1576L6.8922 16.49C6.85206 16.4477 6.82682 16.3935 6.82025 16.3357C6.81369 16.2778 6.82616 16.2194 6.85579 16.1692L7.24592 15.5637C7.13845 15.3684 7.05297 15.1619 6.99103 14.9479L6.28361 14.7927C6.22536 14.7806 6.1732 14.7486 6.13614 14.7023C6.09909 14.656 6.0795 14.5983 6.08074 14.5391V13.6076C6.08048 13.5487 6.10044 13.4914 6.13733 13.4453C6.17422 13.3992 6.22582 13.367 6.28361 13.354L6.98583 13.204C7.05088 12.9886 7.13803 12.7805 7.24592 12.583L6.85579 11.9827C6.82574 11.9317 6.81305 11.8724 6.81961 11.8136C6.82617 11.7549 6.85163 11.6998 6.8922 11.6566L7.55281 10.9994C7.59594 10.9583 7.65176 10.9329 7.71124 10.9272C7.77071 10.9216 7.83036 10.9361 7.88052 10.9684L8.48391 11.3513C8.68163 11.2435 8.89104 11.1584 9.10811 11.0978L9.25896 10.3991C9.27183 10.3411 9.30399 10.2891 9.35025 10.2516C9.3965 10.214 9.45414 10.1931 9.51384 10.1921H10.4501C10.5098 10.1931 10.5675 10.214 10.6137 10.2516C10.66 10.2891 10.6921 10.3411 10.705 10.3991L10.8559 11.0978C11.0729 11.1584 11.2823 11.2435 11.4801 11.3513L12.0835 10.9684C12.1336 10.9361 12.1933 10.9216 12.2527 10.9272C12.3122 10.9329 12.368 10.9583 12.4112 10.9994L13.0718 11.6566C13.1123 11.6998 13.1378 11.7549 13.1444 11.8136C13.1509 11.8724 13.1382 11.9317 13.1082 11.9827L12.7181 12.583C12.8247 12.7805 12.9101 12.9886 12.9729 13.204L13.6804 13.354C13.7382 13.367 13.7898 13.3992 13.8266 13.4453C13.8635 13.4914 13.8835 13.5487 13.8832 13.6076V14.5391C13.8845 14.5983 13.8649 14.656 13.8278 14.7023C13.7908 14.7486 13.7386 14.7806 13.6804 14.7927L12.9729 14.9479C12.911 15.1619 12.8255 15.3684 12.7181 15.5637L13.1082 16.1692C13.1378 16.2194 13.1503 16.2778 13.1437 16.3357C13.1372 16.3935 13.1119 16.4477 13.0718 16.49L12.4112 17.1473C12.3692 17.19 12.3136 17.217 12.2538 17.2236C12.1941 17.2302 12.1339 17.2161 12.0835 17.1835L11.4801 16.7954C11.2825 16.9049 11.0731 16.9917 10.8559 17.0541L10.705 17.7527C10.6941 17.8121 10.6626 17.8659 10.6161 17.9046C10.5695 17.9434 10.5108 17.9647 10.4501 17.9649ZM9.72191 17.4474H10.2421L10.3825 16.7954C10.3943 16.7478 10.419 16.7043 10.4538 16.6697C10.4887 16.635 10.5324 16.6105 10.5802 16.5987C10.8522 16.5353 11.1121 16.4287 11.35 16.283C11.3916 16.2579 11.4392 16.2446 11.4879 16.2446C11.5365 16.2446 11.5842 16.2579 11.6257 16.283L12.1875 16.6453L12.5568 16.283L12.1927 15.719C12.1674 15.6777 12.1541 15.6302 12.1541 15.5818C12.1541 15.5335 12.1674 15.486 12.1927 15.4447C12.3379 15.2074 12.445 14.949 12.51 14.6788C12.5218 14.6312 12.5465 14.5878 12.5813 14.5531C12.6161 14.5185 12.6598 14.4939 12.7077 14.4822L13.3631 14.3424V13.8249L12.7077 13.6852C12.6596 13.674 12.6156 13.6496 12.5807 13.6149C12.5458 13.5802 12.5213 13.5364 12.51 13.4886C12.4441 13.2187 12.3371 12.9604 12.1927 12.7227C12.1674 12.6814 12.1541 12.6339 12.1541 12.5856C12.1541 12.5372 12.1674 12.4897 12.1927 12.4484L12.5568 11.8895L12.1875 11.5273L11.6257 11.8843C11.5842 11.9095 11.5365 11.9228 11.4879 11.9228C11.4392 11.9228 11.3916 11.9095 11.35 11.8843C11.1115 11.7398 10.8518 11.6333 10.5802 11.5687C10.5316 11.5586 10.4869 11.5346 10.4518 11.4997C10.4167 11.4648 10.3926 11.4204 10.3825 11.372L10.2421 10.72H9.72191L9.58146 11.372C9.57135 11.4204 9.54726 11.4648 9.51214 11.4997C9.47703 11.5346 9.43242 11.5586 9.3838 11.5687C9.11221 11.6333 8.85246 11.7398 8.61395 11.8843C8.57241 11.9095 8.52473 11.9228 8.47611 11.9228C8.42749 11.9228 8.3798 11.9095 8.33826 11.8843L7.77649 11.5273L7.40717 11.8895L7.77128 12.4484C7.797 12.4905 7.8106 12.5389 7.8106 12.5881C7.8106 12.6374 7.797 12.6857 7.77128 12.7279C7.62335 12.9638 7.5161 13.2226 7.45398 13.4938C7.44084 13.5401 7.41566 13.5822 7.38096 13.6159C7.34626 13.6495 7.30327 13.6734 7.25632 13.6852L6.60091 13.8249V14.3424L7.25632 14.4822C7.30414 14.4939 7.34783 14.5185 7.38266 14.5531C7.4175 14.5878 7.44216 14.6312 7.45398 14.6788C7.51772 14.9494 7.62486 15.208 7.77128 15.4447C7.79655 15.486 7.80991 15.5335 7.80991 15.5818C7.80991 15.6302 7.79655 15.6777 7.77128 15.719L7.40717 16.283L7.77649 16.6453L8.33826 16.283C8.3806 16.2575 8.42918 16.2439 8.47871 16.2439C8.52824 16.2439 8.57682 16.2575 8.61915 16.283C8.85491 16.4293 9.11324 16.5359 9.3838 16.5987C9.43162 16.6105 9.47531 16.635 9.51014 16.6697C9.54498 16.7043 9.56964 16.7478 9.58146 16.7954L9.72191 17.4474ZM9.98199 15.8949C9.62191 15.8949 9.26992 15.7887 8.97053 15.5897C8.67113 15.3907 8.43779 15.1078 8.29999 14.7768C8.1622 14.4459 8.12614 14.0817 8.19639 13.7303C8.26664 13.379 8.44003 13.0563 8.69464 12.803C8.94926 12.5497 9.27365 12.3772 9.62681 12.3073C9.97997 12.2374 10.346 12.2733 10.6787 12.4103C11.0114 12.5474 11.2957 12.7796 11.4957 13.0774C11.6958 13.3753 11.8026 13.7255 11.8026 14.0837C11.8026 14.1523 11.7752 14.2181 11.7264 14.2667C11.6776 14.3152 11.6115 14.3424 11.5425 14.3424C11.4735 14.3424 11.4074 14.3152 11.3586 14.2667C11.3098 14.2181 11.2824 14.1523 11.2824 14.0837C11.2824 13.8278 11.2061 13.5777 11.0632 13.3649C10.9204 13.1522 10.7173 12.9864 10.4796 12.8884C10.242 12.7905 9.98055 12.7649 9.72829 12.8148C9.47603 12.8647 9.24432 12.988 9.06246 13.1689C8.88059 13.3498 8.75674 13.5803 8.70656 13.8313C8.65638 14.0823 8.68214 14.3424 8.78056 14.5788C8.87899 14.8152 9.04566 15.0172 9.25952 15.1594C9.47337 15.3016 9.72479 15.3774 9.98199 15.3774C10.0668 15.3853 10.1521 15.3853 10.2369 15.3774C10.2701 15.3699 10.3045 15.3693 10.3379 15.3755C10.3714 15.3817 10.4033 15.3946 10.4315 15.4135C10.4598 15.4324 10.4839 15.4569 10.5023 15.4854C10.5207 15.5139 10.533 15.5458 10.5386 15.5793C10.5454 15.6126 10.5456 15.6469 10.5391 15.6802C10.5326 15.7136 10.5196 15.7454 10.5007 15.7737C10.4819 15.8021 10.4576 15.8265 10.4293 15.8455C10.401 15.8645 10.3692 15.8778 10.3357 15.8846C10.2183 15.8985 10.1 15.9019 9.98199 15.8949Z" fill="#1C55E9"/>
<path d="M11.2824 15.4086C11.4261 15.4086 11.5425 15.2928 11.5425 15.1499C11.5425 15.007 11.4261 14.8911 11.2824 14.8911C11.1388 14.8911 11.0223 15.007 11.0223 15.1499C11.0223 15.2928 11.1388 15.4086 11.2824 15.4086Z" fill="#1C55E9"/>
<path d="M11.2824 15.4086C11.4261 15.4086 11.5425 15.2928 11.5425 15.1499C11.5425 15.007 11.4261 14.8911 11.2824 14.8911C11.1388 14.8911 11.0223 15.007 11.0223 15.1499C11.0223 15.2928 11.1388 15.4086 11.2824 15.4086Z" stroke="black"/>
</svg>
