<svg width="312" height="260" viewBox="0 0 312 260" fill="none" xmlns="http://www.w3.org/2000/svg">
<g clip-path="url(#clip0_209_46273)">
<path d="M22.4293 249.852C18.0426 249.856 13.7615 248.508 10.171 245.993C6.58045 243.477 3.8555 239.917 2.36833 235.797C-4.16713 217.627 1.07625 168.382 40.5386 143.68C82.2736 117.556 100.546 65.6954 140.353 61.4324C202.717 54.7569 220.147 127.33 248.129 144.218C272.304 158.809 307.316 180.689 311.893 226.419C312.173 229.202 311.902 232.014 311.093 234.692C310.285 237.371 308.956 239.864 307.182 242.03C305.409 244.196 303.225 245.992 300.756 247.316C298.287 248.639 295.581 249.464 292.792 249.744C292.086 249.815 291.378 249.851 290.668 249.851L22.4293 249.852Z" fill="#F3F5FD"/>
<path d="M164.668 126.756C164.847 126.465 164.612 126.095 163.663 125.716C161.702 124.93 158.813 125.867 158.813 125.867L158.189 127.507L158.166 130.97C158.166 130.97 163.166 132.356 164.315 131.632C165.077 131.152 165.375 127.406 165.375 127.406C165.4 127.143 165.121 126.93 164.668 126.756Z" fill="#E98862"/>
<path opacity="0.07" d="M164.668 126.756C164.847 126.465 164.612 126.095 163.663 125.716C161.702 124.93 158.813 125.867 158.813 125.867L158.189 127.507L158.166 130.97C158.166 130.97 163.166 132.356 164.315 131.632C165.077 131.152 165.375 127.406 165.375 127.406C165.4 127.143 165.121 126.93 164.668 126.756Z" fill="black"/>
<path d="M163.853 96.7515H162.668V146.637H163.853V96.7515Z" fill="#0CBC8B"/>
<path d="M163.854 96.6499C163.854 96.6499 176.782 91.512 185.749 100.462C194.715 109.411 205.84 104.658 205.84 104.658C205.84 104.658 197.704 115.006 182.428 113.452C167.151 111.897 163.854 118.244 163.854 118.244" fill="#0CBC8B"/>
<path d="M68.3936 249.852L163.04 143.689L274.794 249.852H68.3936Z" fill="#DEE8F5"/>
<path d="M215.237 193.275L211.561 203.415L195.595 190.923L183.242 203.767L167.659 186.37L154.924 202.211L141.934 192.915L123.676 211.251C123.676 211.251 120.981 201.925 118.485 193.668L163.04 143.689L215.237 193.275Z" fill="#C1D8ED"/>
<path d="M77.7151 146.323L73.4717 145.547C73.4717 145.547 70.1979 150.058 72.7125 154.957C73.546 156.58 75.3998 155.669 75.4446 155.039C75.5925 152.958 75.5145 150.916 76.4496 149.386C76.6791 150.17 77.0569 151.223 77.4084 151.128C78.3329 150.881 77.7151 146.323 77.7151 146.323Z" fill="#E98862"/>
<path d="M131.152 208.077L123.502 208.052C123.502 208.052 123.527 200.167 123.527 199.469H131.177C131.177 200.17 131.152 208.077 131.152 208.077Z" fill="#E98862"/>
<path d="M140.442 211.184C140.648 211.183 140.851 211.14 141.04 211.057C141.228 210.974 141.397 210.853 141.536 210.702C141.675 210.551 141.782 210.373 141.849 210.179C141.917 209.985 141.943 209.779 141.927 209.574C141.905 209.291 141.802 209.019 141.63 208.792C141.459 208.565 141.226 208.391 140.959 208.291L132.055 205.315C131.882 205.258 131.7 205.239 131.519 205.259C131.338 205.279 131.164 205.337 131.009 205.431C129.784 206.279 128.32 206.712 126.831 206.667C125.671 206.585 124.558 206.179 123.618 205.496C123.536 205.428 123.435 205.385 123.329 205.372C123.223 205.359 123.116 205.377 123.019 205.422C122.923 205.468 122.841 205.54 122.784 205.631C122.727 205.721 122.697 205.825 122.697 205.932V210.278C122.697 210.406 122.723 210.533 122.772 210.651C122.821 210.77 122.893 210.877 122.984 210.968C123.075 211.058 123.183 211.13 123.302 211.178C123.421 211.227 123.548 211.252 123.677 211.251L140.442 211.184Z" fill="#C1D8ED"/>
<path d="M93.0798 198.562C92.4241 198.813 86.0234 200.427 86.0234 200.427" stroke="#E98862" stroke-width="21" stroke-miterlimit="10"/>
<path d="M88.389 246.825L80.7393 246.8C80.7393 246.8 80.7648 238.916 80.7648 238.219H88.4145C88.4145 238.918 88.389 246.825 88.389 246.825Z" fill="#E98862"/>
<path d="M136.552 152.21C129.404 149.605 121.512 146.707 113.973 143.839L85.5235 137.112C83.3378 139.294 85.0477 180.747 85.3235 191.632L78.8223 241.885L92.1438 243.928L101.205 193.244C101.271 192.825 101.302 192.401 101.297 191.977L101.712 170.363C101.806 166.879 101.887 162.287 102.003 157.895C109.992 159.887 118.668 161.887 126.847 163.748L121.137 202.435L134.472 204.396L141.088 159.566C141.317 158.003 140.988 156.41 140.159 155.065C139.329 153.72 138.052 152.71 136.552 152.21Z" fill="#262626"/>
<path d="M135.122 122.382L118.712 104.594L118.699 104.606C117.682 103.201 115.992 102.167 113.35 101.653C113.125 101.608 112.762 101.544 112.294 101.468C111.901 103.432 99.634 101.577 99.6795 99.52C96.2141 99.0019 93.2118 99.6342 91.3172 101.029C90.405 101.693 89.6585 102.557 89.1359 103.556L89.09 103.528L77.3738 123.115C77.1784 123.443 77.0312 123.796 76.9367 124.166L71.3633 145.94L79.059 147.903L84.4888 126.686L89.1516 118.892C89.3647 120.617 89.3647 122.361 89.1516 124.086C88.0092 131.64 84.0761 134.507 83.7421 138.421C83.2175 144.571 113.09 147.6 115.123 144.365C117.218 141.033 114.392 138.357 116.297 126.708C116.83 123.436 117.976 119.862 118.854 116.453L130.331 128.892C131.008 129.625 131.936 130.077 132.931 130.158L158.899 132.267L159.543 124.365L135.122 122.382Z" fill="#367CFF"/>
<path d="M112.295 101.469C111.902 103.432 110.385 106.178 107.027 105.897C102.553 105.521 99.6347 101.577 99.6802 99.521H99.6911C104.053 100.18 109.758 101.046 112.295 101.469Z" fill="#E98862"/>
<path d="M97.6795 249.932C97.8852 249.931 98.0885 249.888 98.2767 249.805C98.4649 249.722 98.6339 249.601 98.7733 249.45C98.9126 249.299 99.0192 249.121 99.0865 248.927C99.1538 248.733 99.1803 248.527 99.1643 248.323C99.1422 248.039 99.0393 247.767 98.8677 247.54C98.6961 247.312 98.4629 247.139 98.1957 247.039L89.2921 244.063C89.1196 244.006 88.9368 243.987 88.7563 244.007C88.5757 244.027 88.4016 244.085 88.2459 244.179C87.0219 245.027 85.5576 245.46 84.0684 245.415C82.9085 245.333 81.7951 244.927 80.8551 244.244C80.7725 244.176 80.6723 244.133 80.5663 244.12C80.4602 244.107 80.3527 244.125 80.2562 244.17C80.1596 244.216 80.0782 244.288 80.0212 244.378C79.9643 244.469 79.9342 244.573 79.9346 244.68V249.026C79.9346 249.154 79.9599 249.281 80.0092 249.399C80.0585 249.517 80.1307 249.625 80.2217 249.715C80.3127 249.806 80.4207 249.878 80.5396 249.926C80.6584 249.975 80.7857 250 80.9141 249.999L97.6795 249.932Z" fill="#C1D8ED"/>
<path d="M164.314 131.633C164.211 131.694 164.1 131.738 163.983 131.764C163.375 131.804 161.935 131.241 161.753 130.796C161.458 130.069 162.037 127.678 162.503 126.846C162.94 126.067 164.495 126.635 164.7 126.703C164.706 126.707 164.713 126.709 164.72 126.711C165.14 126.893 165.401 127.118 165.375 127.408C165.374 127.408 165.078 131.152 164.314 131.633Z" fill="#E98862"/>
<path d="M63.1675 249.852H53.1029C51.3544 247.555 48.2865 242.922 50.2689 240.944C51.1704 240.046 52.1631 240.9 53.0844 242.432C52.7678 239.431 53.0843 236.562 55.1771 235.725C57.0826 234.964 57.9343 237.263 58.2633 240.347C59.2005 238.593 60.4354 237.358 62.0452 237.456C64.3481 237.593 63.7937 240.659 62.4459 244.053C63.4684 243.278 64.5368 242.896 65.5786 243.236C67.7555 243.949 65.7207 247.002 63.1675 249.852Z" fill="#8DDBE0"/>
<path d="M270.172 249.852H256.218C253.793 246.668 249.54 240.244 252.288 237.501C253.539 236.256 254.911 237.44 256.192 239.564C255.753 235.403 256.192 231.426 259.093 230.265C261.736 229.21 262.916 232.397 263.373 236.674C264.672 234.242 266.384 232.529 268.616 232.665C271.809 232.855 271.038 237.106 269.17 241.812C270.588 240.737 272.069 240.207 273.513 240.679C276.536 241.666 273.712 245.901 270.172 249.852Z" fill="#8DDBE0"/>
<path d="M100.257 100.668C100.257 100.668 103.35 99.8978 104.587 92.3159L110.496 92.6693C110.496 92.6693 108.205 99.1743 110.537 101.997L100.257 100.668Z" fill="#E98862"/>
<g opacity="0.15">
<path d="M109.725 100.319L105.923 95.5737L109.618 96.45C109.412 97.735 109.448 99.0471 109.725 100.319Z" fill="black"/>
</g>
<path d="M102.098 88.6422C101.928 90.9935 102.63 93.4336 104.442 94.6552C106.4 96.0535 108.671 96.9523 111.056 97.2731C117.366 98.2984 119.631 83.9618 117.373 80.5088C115.114 77.0558 106.069 76.6486 103.888 80.9484C102.762 83.1721 102.259 86.4044 102.098 88.6422Z" fill="#E98862"/>
<path d="M119.797 86.5602C119.797 86.5602 121.065 76.286 109.48 76.0162C107.588 76.0464 105.755 76.6745 104.244 77.8101C104.028 76.815 103.519 75.9072 102.781 75.2038C102.044 74.5004 101.112 74.0336 100.106 73.8636C99.1006 73.6935 98.0669 73.8281 97.1386 74.2499C96.2102 74.6717 95.4297 75.3615 94.8977 76.2301C94.3657 77.0988 94.1067 78.1067 94.1539 79.1237C94.2012 80.1407 94.5526 81.1203 95.1628 81.9361C95.773 82.7519 96.6141 83.3666 97.5776 83.7009C98.5411 84.0351 99.5828 84.0737 100.568 83.8115C100.543 83.9569 100.518 84.1023 100.497 84.2525C99.6345 90.5956 104.015 94.9616 104.015 94.9616C104.015 94.9616 105.657 94.2591 107.646 84.1598C109.978 84.9535 115.358 86.5966 119.797 86.5602Z" fill="#0F1011"/>
<path d="M111.502 89.1118C111.794 89.1118 112.03 88.8759 112.03 88.5849C112.03 88.294 111.794 88.0581 111.502 88.0581C111.211 88.0581 110.975 88.294 110.975 88.5849C110.975 88.8759 111.211 89.1118 111.502 89.1118Z" fill="#0F1011"/>
<path d="M115.626 89.7817C115.918 89.7817 116.154 89.5458 116.154 89.2549C116.154 88.9639 115.918 88.728 115.626 88.728C115.335 88.728 115.099 88.9639 115.099 89.2549C115.099 89.5458 115.335 89.7817 115.626 89.7817Z" fill="#0F1011"/>
<path d="M115.398 88.0209C115.408 88.0251 115.419 88.0286 115.43 88.0315L116.783 88.3845C116.815 88.394 116.848 88.397 116.881 88.3933C116.914 88.3896 116.946 88.3793 116.975 88.363C117.004 88.3467 117.03 88.3248 117.05 88.2985C117.07 88.2721 117.085 88.242 117.094 88.2098C117.102 88.1777 117.104 88.1442 117.099 88.1113C117.094 88.0784 117.083 88.0468 117.066 88.0184C117.048 87.9901 117.025 87.9654 116.998 87.9461C116.971 87.9267 116.941 87.913 116.908 87.9057L115.555 87.553C115.494 87.5377 115.43 87.5458 115.375 87.5757C115.32 87.6056 115.279 87.6552 115.259 87.7144C115.239 87.7737 115.242 87.8382 115.268 87.8951C115.294 87.952 115.34 87.9971 115.398 88.0213V88.0209Z" fill="#0F1011"/>
<path d="M110.594 87.3736C110.624 87.3856 110.655 87.3918 110.687 87.3918L112.105 87.402C112.171 87.4024 112.234 87.3768 112.281 87.3306C112.328 87.2845 112.354 87.2217 112.355 87.156C112.355 87.0904 112.329 87.0272 112.283 86.9805C112.237 86.9337 112.174 86.9072 112.108 86.9068L110.69 86.897C110.633 86.8966 110.577 86.9162 110.532 86.9525C110.487 86.9888 110.457 87.0395 110.445 87.0959C110.434 87.1522 110.443 87.2108 110.47 87.2615C110.497 87.3122 110.541 87.3518 110.594 87.3736Z" fill="#0F1011"/>
<path d="M110.74 92.6709C110.74 92.6709 112.582 93.3381 114.022 93.2039C114.022 93.2039 113.703 94.4448 112.176 94.1965C110.649 93.9482 110.74 92.6709 110.74 92.6709Z" fill="white"/>
<path d="M108.526 89.1781C108.422 89.7551 108.095 90.2682 107.616 90.6068C107.136 90.9453 106.543 91.0821 105.963 90.9877C105.384 90.8932 104.864 90.5751 104.518 90.102C104.171 89.6288 104.024 89.0385 104.11 88.4585C104.152 88.1669 104.253 87.8867 104.406 87.6348C104.56 87.3829 104.762 87.1643 105.002 86.9921C105.241 86.8199 105.513 86.6976 105.801 86.6324C106.089 86.5673 106.387 86.5607 106.678 86.613C108.237 86.9457 108.725 87.9586 108.526 89.1781Z" fill="#E98862"/>
<g opacity="0.15">
<path d="M113.071 91.9844C113.029 91.974 112.992 91.9487 112.966 91.9132C112.941 91.8776 112.929 91.8341 112.933 91.7907C112.938 91.7472 112.957 91.7067 112.989 91.6765C113.02 91.6463 113.062 91.6285 113.105 91.6262L114.227 91.5648L113.901 89.7647C113.896 89.7412 113.897 89.7171 113.902 89.6937C113.907 89.6704 113.916 89.6483 113.93 89.6286C113.944 89.609 113.961 89.5922 113.981 89.5793C114.001 89.5664 114.024 89.5575 114.047 89.5532C114.071 89.549 114.095 89.5493 114.118 89.5544C114.142 89.5594 114.164 89.569 114.183 89.5826C114.203 89.5962 114.22 89.6135 114.233 89.6336C114.246 89.6537 114.255 89.6761 114.259 89.6996L114.623 91.7026C114.628 91.728 114.627 91.7541 114.621 91.7791C114.615 91.8041 114.603 91.8276 114.587 91.8478C114.571 91.8681 114.551 91.8847 114.528 91.8966C114.505 91.9085 114.48 91.9153 114.454 91.9167L113.127 91.9894C113.108 91.9903 113.09 91.9886 113.071 91.9844Z" fill="black"/>
</g>
</g>
<defs>
<clipPath id="clip0_209_46273">
<rect width="312" height="189" fill="white" transform="translate(0 61)"/>
</clipPath>
</defs>
</svg>
