<svg width="312" height="312" viewBox="0 0 312 312" fill="none" xmlns="http://www.w3.org/2000/svg">
<g clip-path="url(#clip0_173_6285)">
<path d="M290.475 257C293.382 257.001 296.259 256.413 298.932 255.273C301.605 254.133 304.019 252.464 306.029 250.368C308.038 248.271 309.601 245.79 310.624 243.074C311.646 240.358 312.107 237.463 311.978 234.565C311.269 218.577 303.08 196.003 270.798 173.443C231.431 145.933 249.187 66.7239 165.543 72.1904C81.8987 77.6568 89.8737 136.191 38.5855 163.021C5.93806 180.1 0.00218241 213.516 0 235.55C0.00535179 241.243 2.27585 246.701 6.31219 250.724C10.3485 254.746 15.8202 257.004 21.524 257H290.475Z" fill="#F3F5FD"/>
<path d="M47.761 134.441C47.7192 130.392 49.8678 127.339 52.0415 125.961C54.1863 124.602 60.366 123.419 62.9159 128.353C64.58 131.573 63.9231 132.724 64.3945 137.881C64.8659 143.038 66.6767 143.58 68.5138 149.831C69.9542 154.734 61.8847 157.337 54.898 157.112C47.9113 156.887 43.481 155.342 43.0756 150.907C42.4929 144.541 47.8431 142.376 47.761 134.441Z" fill="#0F1011"/>
<path d="M59.6277 144.135L51.9238 145.09C51.9238 145.09 53.1678 144.418 53.5006 141.499C53.6016 141.041 53.7025 140.519 53.8007 139.941C53.8962 139.383 53.9862 138.77 54.0599 138.117L57.8491 137.379C57.8491 137.379 57.4071 142.523 59.6277 144.135Z" fill="#E98862"/>
<g opacity="0.15">
<path d="M58.7244 143.07L55.0781 140.338L57.9215 140.283C58.0128 141.254 58.2851 142.199 58.7244 143.07Z" fill="black"/>
</g>
<path d="M51.0065 136.025C51.324 137.762 52.2903 139.402 53.8327 139.948C55.5144 140.597 57.3294 140.825 59.1196 140.612C63.8871 140.176 62.8439 129.358 60.5594 127.275C58.275 125.193 51.6388 126.586 50.8633 130.111C50.4617 131.933 50.704 134.372 51.0065 136.025Z" fill="#E98862"/>
<path d="M57.8152 134.623C58.0335 134.623 58.2105 134.446 58.2105 134.229C58.2105 134.011 58.0335 133.834 57.8152 133.834C57.5969 133.834 57.4199 134.011 57.4199 134.229C57.4199 134.446 57.5969 134.623 57.8152 134.623Z" fill="#0F1011"/>
<path d="M60.9314 134.339C61.1497 134.339 61.3267 134.162 61.3267 133.944C61.3267 133.726 61.1497 133.55 60.9314 133.55C60.7131 133.55 60.5361 133.726 60.5361 133.944C60.5361 134.162 60.7131 134.339 60.9314 134.339Z" fill="#0F1011"/>
<path d="M61.6068 133.098L60.5595 133.094C60.5115 133.092 60.4661 133.072 60.4328 133.038C60.3995 133.003 60.3809 132.957 60.3809 132.909C60.3809 132.861 60.3995 132.815 60.4328 132.78C60.4661 132.746 60.5115 132.725 60.5595 132.724L61.6068 132.727C61.6561 132.727 61.7033 132.746 61.7382 132.781C61.773 132.816 61.7926 132.863 61.7926 132.912C61.7926 132.962 61.773 133.009 61.7382 133.043C61.7033 133.078 61.6561 133.098 61.6068 133.098Z" fill="#0F1011"/>
<path d="M56.9537 133.521C56.9083 133.521 56.8644 133.505 56.8304 133.475C56.7964 133.445 56.7745 133.403 56.769 133.358C56.7634 133.313 56.7746 133.268 56.8003 133.231C56.8261 133.193 56.8646 133.167 56.9087 133.156L57.9388 132.898C57.9863 132.887 58.0362 132.895 58.0779 132.921C58.1195 132.946 58.1495 132.987 58.1613 133.034C58.1732 133.081 58.166 133.131 58.1412 133.173C58.1165 133.215 58.0762 133.246 58.0291 133.258L56.999 133.516C56.9841 133.519 56.9689 133.521 56.9537 133.521Z" fill="#0F1011"/>
<path d="M58.0264 137.334C58.0264 137.334 59.4867 137.475 60.5061 137.108C60.5061 137.108 60.5061 138.068 59.3533 138.173C58.2004 138.278 58.0264 137.334 58.0264 137.334Z" fill="white"/>
<path d="M54.2697 132.919C54.2506 132.448 54.2179 131.971 54.1742 131.489L53.2603 133.077C53.2603 133.077 53.6477 133.022 54.2697 132.919C54.335 134.654 54.2648 136.392 54.0597 138.117C53.986 138.771 53.896 139.383 53.8005 139.942C53.7023 140.519 53.6014 141.042 53.5004 141.499C53.2194 142.814 49.5857 137.902 49.0237 133.139C48.4945 128.676 51.7709 126.008 53.9942 125.49C62.4456 123.524 63.0321 129.676 63.0321 129.676C62.5983 131.345 56.6813 132.51 54.2697 132.919Z" fill="#0F1011"/>
<path d="M54.2701 132.919C53.6481 133.022 53.2607 133.077 53.2607 133.077L54.1746 131.489C54.2183 131.971 54.251 132.448 54.2701 132.919Z" fill="#0F1011"/>
<path d="M55.8346 135.947C55.873 136.388 55.7349 136.826 55.4505 137.165C55.1662 137.504 54.7588 137.717 54.3174 137.758C53.8761 137.798 53.4367 137.662 53.0956 137.38C52.7544 137.097 52.5391 136.692 52.4969 136.251C52.4731 136.032 52.4938 135.81 52.5577 135.598C52.6217 135.387 52.7276 135.191 52.8692 135.021C53.0108 134.851 53.1851 134.712 53.3818 134.611C53.5786 134.51 53.7936 134.45 54.0142 134.433C55.2074 134.384 55.7506 135.027 55.8346 135.947Z" fill="#E98862"/>
<g opacity="0.15">
<path d="M59.5891 136.401C59.5565 136.401 59.5249 136.389 59.5 136.368C59.4752 136.347 59.4588 136.318 59.4538 136.285C59.4488 136.253 59.4555 136.22 59.4727 136.193C59.4899 136.165 59.5165 136.144 59.5477 136.135L60.3494 135.881L59.7765 134.636C59.7684 134.62 59.7637 134.602 59.7626 134.584C59.7615 134.566 59.7641 134.547 59.7702 134.53C59.7762 134.513 59.7857 134.497 59.798 134.484C59.8103 134.47 59.8252 134.46 59.8417 134.452C59.8583 134.444 59.8762 134.44 59.8945 134.44C59.9127 134.439 59.9308 134.442 59.9479 134.449C59.9649 134.455 59.9804 134.465 59.9935 134.478C60.0066 134.49 60.0171 134.505 60.0242 134.522L60.6626 135.907C60.6707 135.925 60.6749 135.944 60.6751 135.963C60.6753 135.982 60.6714 136.001 60.6637 136.019C60.6559 136.036 60.6445 136.052 60.6303 136.065C60.616 136.078 60.5991 136.088 60.5808 136.094L59.632 136.393C59.6182 136.398 59.6037 136.401 59.5891 136.401Z" fill="black"/>
</g>
<path d="M220.976 54H94.5811V217.666H220.976V54Z" fill="#DEE8F5"/>
<path d="M209.326 92.0703H106.231V95.967H209.326V92.0703Z" fill="white"/>
<path d="M209.326 149.862H106.231V153.759H209.326V149.862Z" fill="white"/>
<path d="M209.326 103.628H106.231V107.525H209.326V103.628Z" fill="white"/>
<path d="M209.326 115.188H106.231V119.084H209.326V115.188Z" fill="white"/>
<path d="M209.326 126.745H106.231V130.642H209.326V126.745Z" fill="white"/>
<path d="M209.326 138.304H106.231V142.2H209.326V138.304Z" fill="white"/>
<path d="M195.686 196.097H119.871V199.993H195.686V196.097Z" fill="white"/>
<path d="M209.326 161.421H106.231V165.318H209.326V161.421Z" fill="white"/>
<path d="M209.326 172.979H106.231V176.876H209.326V172.979Z" fill="white"/>
<path d="M209.326 184.538H106.231V188.435H209.326V184.538Z" fill="white"/>
<path d="M209.326 71.6729H106.231V82.2987H209.326V71.6729Z" fill="#C1D8ED"/>
<path d="M90.7402 166.93C91.5314 167.115 94.2757 167.316 94.3074 168.031C94.3265 168.46 92.2428 168.474 92.2428 168.474" fill="#E98862"/>
<path d="M98.6978 171.503C98.9662 170.359 96.5315 168.812 93.2597 168.047C89.9878 167.282 87.1178 167.589 86.8494 168.733C86.5809 169.877 89.0156 171.425 92.2875 172.19C95.5593 172.955 98.4293 172.648 98.6978 171.503Z" fill="#E98862"/>
<path d="M39.0224 182.01C39.0224 182.821 39.4518 185.534 38.7614 185.728C38.3473 185.844 37.8584 183.822 37.8584 183.822" fill="#E98862"/>
<path d="M35.7645 181.582C35.7645 181.582 33.4296 184.094 35.0167 187.073C35.2369 187.486 37.3824 187.728 37.3824 187.222C37.3824 185.097 37.5478 183.433 38.9491 183.941V180.521" fill="#E98862"/>
<path d="M141.322 144.966C141.322 144.966 139.213 143.85 139.684 138.116L135.325 137.31C135.325 137.31 135.815 142.45 133.61 144.083L141.322 144.966Z" fill="#E98862"/>
<path d="M142.157 135.893C141.855 137.633 140.904 139.28 139.367 139.841C137.542 140.508 136.19 140.554 134.086 140.554C131.215 140.554 131.31 137.564 131.229 134.553C131.148 131.528 131.389 128.284 132.524 127.231C134.788 125.127 141.437 126.459 142.246 129.978C142.664 131.798 142.444 134.237 142.157 135.893Z" fill="#E98862"/>
<path d="M129.238 125.978C129.238 124.54 131.032 122.183 135.816 125.434L135.821 125.437C137.064 125.402 138.305 125.537 139.511 125.839C141.699 126.493 144.443 128.323 143.74 132.763C143.321 135.407 142.572 137.134 141.779 138.398C141.287 139.171 140.66 139.85 139.927 140.401C138.763 141.109 133.935 141.381 132.234 140.297C130.991 139.505 130.783 136.194 131.252 136.194C131.577 136.194 131.604 136.18 131.969 136.18C132.636 136.18 132.703 132.214 132.829 130.459C132.726 130.445 132.623 130.438 132.519 130.437C129.379 130.436 129.238 127.318 129.238 125.978Z" fill="#0F1011"/>
<path d="M133.389 136.265C133.816 136.276 134.231 136.124 134.549 135.839C134.868 135.553 135.064 135.158 135.099 134.732C135.121 134.514 135.099 134.293 135.034 134.084C134.97 133.874 134.863 133.679 134.722 133.511C134.581 133.343 134.407 133.205 134.211 133.105C134.015 133.006 133.802 132.946 133.582 132.93C133.544 134.117 133.481 135.367 133.389 136.265Z" fill="#E98862"/>
<path d="M122.586 254.054C121.982 248.984 121.982 248.463 121.982 248.291H127.711C127.711 248.274 127.711 248.252 127.711 248.225C127.732 248.648 128.02 251.229 128.276 253.379L122.586 254.054Z" fill="#E98862"/>
<path d="M145.413 254.738C145.413 254.738 145.394 248.816 145.394 248.292H151.122C151.122 248.815 151.141 254.72 151.141 254.72L145.413 254.738Z" fill="#E98862"/>
<path d="M150.31 217.564C149.757 209.019 148.793 194.686 148.331 186.275C148.146 182.892 147.601 172.741 147.601 172.741L127.087 173.06C124.654 185.929 123.093 202.552 121.121 215.515C120.983 227.526 120.944 240.095 120.474 252.077L130.566 252.249C130.534 240.544 130.824 228.307 131.17 216.583C132.754 207.393 134.974 197.195 136.758 188.106C138.372 205.814 140.777 234.825 142.561 252.773L152.619 251.924L150.31 217.564Z" fill="#262626"/>
<path d="M138.448 256.95C138.294 256.949 138.142 256.916 138.001 256.854C137.86 256.792 137.734 256.702 137.629 256.589C137.525 256.475 137.445 256.342 137.395 256.197C137.344 256.051 137.324 255.897 137.336 255.744C137.353 255.531 137.43 255.328 137.558 255.158C137.687 254.988 137.861 254.857 138.062 254.783L144.73 252.554C144.859 252.511 144.996 252.497 145.131 252.512C145.266 252.527 145.396 252.571 145.513 252.641C146.43 253.276 147.526 253.6 148.642 253.566C149.51 253.505 150.344 253.201 151.048 252.689C151.11 252.638 151.185 252.606 151.264 252.597C151.344 252.587 151.424 252.6 151.496 252.634C151.569 252.668 151.63 252.722 151.672 252.79C151.715 252.858 151.738 252.936 151.737 253.016V256.27C151.737 256.366 151.718 256.461 151.681 256.55C151.644 256.639 151.59 256.719 151.522 256.787C151.454 256.855 151.373 256.908 151.284 256.945C151.195 256.981 151.1 257 151.004 257L138.448 256.95Z" fill="#C1D8ED"/>
<path d="M115.606 256.95C115.452 256.949 115.299 256.916 115.159 256.854C115.018 256.792 114.891 256.702 114.787 256.589C114.682 256.475 114.602 256.342 114.552 256.197C114.502 256.051 114.482 255.897 114.494 255.744C114.51 255.531 114.587 255.328 114.716 255.158C114.844 254.988 115.019 254.857 115.219 254.783L121.887 252.554C122.016 252.511 122.153 252.497 122.288 252.512C122.424 252.527 122.554 252.571 122.671 252.641C123.587 253.276 124.684 253.6 125.799 253.566C126.668 253.505 127.501 253.201 128.205 252.689C128.267 252.638 128.342 252.606 128.421 252.597C128.501 252.587 128.581 252.6 128.654 252.634C128.726 252.668 128.787 252.722 128.83 252.79C128.872 252.858 128.895 252.936 128.894 253.016V256.27C128.895 256.366 128.876 256.461 128.839 256.55C128.802 256.639 128.748 256.719 128.68 256.787C128.611 256.855 128.531 256.908 128.442 256.945C128.353 256.981 128.257 257 128.161 257L115.606 256.95Z" fill="#C1D8ED"/>
<path d="M153.71 182.553C153.71 183.364 153.281 186.077 153.971 186.271C154.385 186.387 154.874 184.365 154.874 184.365" fill="#E98862"/>
<path d="M156.971 182.126C156.971 182.126 159.225 187.604 156.654 190.75C156.588 190.83 156.5 190.888 156.401 190.918C156.301 190.947 156.195 190.946 156.097 190.914C155.998 190.882 155.912 190.821 155.848 190.74C155.785 190.658 155.747 190.559 155.741 190.456C155.616 188.334 155.188 183.976 153.786 184.485V181.064" fill="#E98862"/>
<path d="M100.637 167.357C99.8438 167.536 97.098 167.988 97.0606 168.703C97.0383 169.131 100.837 169.162 100.837 169.162" fill="#E98862"/>
<path d="M104.663 169.432C104.922 170.578 102.475 171.833 99.1968 172.572C95.9188 173.31 93.0514 173.253 92.7923 172.106C92.5331 170.959 94.9804 169.432 98.2584 168.693C101.536 167.955 104.404 168.286 104.663 169.432Z" fill="#E98862"/>
<path d="M155.715 165.278C155.685 165.077 155.635 164.88 155.565 164.69L149.303 147.694L149.265 147.708C148.993 146.871 148.523 146.112 147.894 145.495C146.648 144.251 144.49 143.445 141.861 143.445C137.948 143.445 132.604 143.454 131.508 143.5C128.289 143.638 126.718 145.029 126.034 147.105L116.497 162.463L100.05 167.156L101.624 172.654L119.136 167.657C119.82 167.462 120.407 167.019 120.783 166.415L126.22 157.66C126.378 159.052 126.508 160.427 126.523 161.722C126.628 170.563 124.236 172.228 125.415 174.931C126.559 177.552 149.018 178.642 149.318 174.028C149.509 171.093 146.918 168.53 146.918 162.81C146.939 161.723 147.083 160.642 147.347 159.587L149.875 166.451L152.358 183.145L158.242 182.273L155.715 165.278Z" fill="#367CFF"/>
<path d="M70.1318 254.054L64.4434 253.379C64.6992 251.229 64.989 248.648 65.0086 248.225C65.0086 248.252 65.0086 248.274 65.0086 248.291H70.7374C70.7371 248.463 70.7371 248.984 70.1318 254.054Z" fill="#E98862"/>
<path d="M47.306 254.737L41.5771 254.719C41.5771 254.719 41.5962 248.814 41.5962 248.291H47.3251C47.3251 248.815 47.306 254.737 47.306 254.737Z" fill="#E98862"/>
<path d="M72.2461 252.076C71.772 240.093 71.7433 227.506 71.5949 215.491C69.6245 202.531 68.5889 188.317 66.1569 175.449L66.0841 175.47L65.8707 174.019L45.1168 172.74L44.3868 186.274C43.3423 204.404 41.3225 233.55 40.1006 251.923L50.1585 252.771C51.9546 234.702 54.6109 205.915 56.2343 188.105C58.0154 197.18 59.9681 207.399 61.5498 216.582C61.8957 228.312 62.1855 240.536 62.1538 252.248L72.2461 252.076Z" fill="#262626"/>
<path d="M54.2704 256.95C54.4244 256.949 54.5767 256.916 54.7176 256.854C54.8586 256.792 54.9851 256.702 55.0895 256.589C55.1938 256.475 55.2737 256.342 55.3241 256.197C55.3745 256.051 55.3943 255.897 55.3823 255.744C55.3658 255.531 55.2887 255.328 55.1602 255.158C55.0317 254.987 54.8571 254.857 54.657 254.783L47.9892 252.554C47.86 252.511 47.723 252.497 47.5878 252.512C47.4525 252.527 47.3221 252.571 47.2054 252.641C46.2889 253.276 45.1923 253.6 44.0772 253.566C43.2086 253.505 42.3747 253.201 41.6708 252.689C41.609 252.638 41.534 252.606 41.4545 252.597C41.3751 252.587 41.2946 252.6 41.2223 252.634C41.15 252.668 41.089 252.722 41.0463 252.79C41.0037 252.858 40.9812 252.936 40.9814 253.016V256.27C40.9814 256.366 41.0004 256.461 41.0373 256.55C41.0742 256.639 41.1282 256.719 41.1964 256.787C41.2646 256.855 41.3455 256.909 41.4345 256.945C41.5235 256.982 41.6188 257 41.715 257L54.2704 256.95Z" fill="#C1D8ED"/>
<path d="M77.1122 256.95C77.2662 256.949 77.4185 256.916 77.5594 256.854C77.7003 256.792 77.8269 256.702 77.9313 256.589C78.0356 256.475 78.1155 256.342 78.1659 256.197C78.2163 256.051 78.2361 255.897 78.2241 255.744C78.2076 255.531 78.1305 255.328 78.0021 255.158C77.8736 254.988 77.6991 254.857 77.499 254.783L70.831 252.554C70.7018 252.511 70.5649 252.497 70.4297 252.512C70.2945 252.527 70.1641 252.571 70.0475 252.641C69.1308 253.276 68.0342 253.6 66.919 253.566C66.0504 253.505 65.2167 253.201 64.5129 252.689C64.451 252.638 64.376 252.606 64.2966 252.597C64.2171 252.587 64.1366 252.6 64.0643 252.634C63.992 252.668 63.931 252.723 63.8883 252.79C63.8456 252.858 63.823 252.936 63.8232 253.016V256.27C63.8232 256.366 63.8422 256.461 63.8791 256.55C63.916 256.639 63.9701 256.719 64.0383 256.787C64.1064 256.855 64.1873 256.908 64.2763 256.945C64.3653 256.981 64.4606 257 64.5568 257L77.1122 256.95Z" fill="#C1D8ED"/>
<path d="M76.4992 160.896L66.3406 145.743L66.2806 145.783C65.4076 144.453 63.9072 143.604 61.4318 143.499C61.26 143.491 60.9847 143.485 60.6298 143.48C60.5591 144.977 51.2673 144.972 51.0709 143.444C48.4468 143.447 46.2941 144.25 45.0474 145.495C44.4677 146.068 44.023 146.762 43.7456 147.528L43.7126 147.513L37.1184 162.333C37.0039 162.59 36.9267 162.863 36.889 163.142L34.3271 182.157L40.2221 182.948L42.7272 164.355L45.3257 158.515C45.7422 159.911 45.977 161.355 46.024 162.811C46.024 168.532 43.4324 171.094 43.6234 174.029C43.9235 178.642 66.3834 177.553 67.5262 174.931C68.7047 172.23 66.3122 170.563 66.4186 161.724C66.4617 160.173 66.585 158.625 66.7883 157.086L72.1005 165.01C72.4542 165.538 72.9681 165.939 73.5668 166.154L90.196 172.118L92.2071 166.528L76.4992 160.896Z" fill="#367CFF"/>
<path d="M60.6302 143.479C60.5593 144.976 59.7436 147.179 57.2257 147.345C53.8702 147.566 51.2677 144.971 51.0713 143.443H51.0795C54.3831 143.444 58.7043 143.45 60.6302 143.479Z" fill="#E98862"/>
<path d="M50.3974 189.817H43.0206V187.951C43.0199 187.285 42.7546 186.647 42.283 186.176C41.8114 185.705 41.1719 185.44 40.5049 185.439H32.3827C31.7157 185.44 31.0762 185.705 30.6046 186.176C30.133 186.647 29.8677 187.285 29.867 187.951V189.817H22.4913C21.7774 189.817 21.0929 190.1 20.5881 190.604C20.0834 191.108 19.7998 191.791 19.7998 192.504V210.193C19.7998 210.906 20.0834 211.589 20.5881 212.093C21.0929 212.597 21.7774 212.88 22.4913 212.88H50.3988C51.1126 212.88 51.7972 212.597 52.3019 212.093C52.8067 211.589 53.0902 210.906 53.0902 210.193V192.504C53.0902 192.151 53.0206 191.801 52.8852 191.475C52.7499 191.149 52.5515 190.853 52.3015 190.604C52.0514 190.354 51.7545 190.156 51.4278 190.021C51.1011 189.886 50.751 189.817 50.3974 189.817ZM31.5038 187.951C31.5039 187.718 31.5966 187.495 31.7614 187.331C31.9262 187.166 32.1497 187.073 32.3827 187.073H40.5059C40.739 187.073 40.9625 187.166 41.1273 187.331C41.2921 187.495 41.3848 187.718 41.3849 187.951V189.817H31.5038V187.951Z" fill="#0CBC8B"/>
<path d="M259.805 252.14H255.387V257.001H259.805V252.14Z" fill="#C1D8ED"/>
<path d="M301.839 252.14H297.421V257.001H301.839V252.14Z" fill="#C1D8ED"/>
<path d="M305.643 196.71H287.105V252.703H305.643V196.71Z" fill="#C1D8ED"/>
<path d="M255.33 197.95H236.347V252.139H255.33V197.95Z" fill="#C1D8ED"/>
<path d="M288.354 252.703H235.1V196.71H288.356L288.354 252.703ZM237.596 250.21H285.857V199.203H237.596V250.21Z" fill="#DEE8F5"/>
<path d="M288.354 252.703H235.1V221.832H288.356L288.354 252.703ZM237.596 250.21H285.857V224.325H237.596V250.21Z" fill="#DEE8F5"/>
<path d="M259.241 203.645V207.21V221.812H281.864V207.21V203.645H259.241Z" fill="#C1D8ED"/>
<path d="M274.449 207.21H251.826V221.812H274.449V207.21Z" fill="#DEE8F5"/>
<path d="M274.449 207.21H251.826V208.305H274.449V207.21Z" fill="#C1D8ED"/>
<path d="M251.826 207.21H274.449V203.644H251.826V207.21Z" fill="#DEE8F5"/>
<path d="M265.645 210.143H260.631C260.343 210.143 260.109 210.376 260.109 210.663V211.815C260.109 212.102 260.343 212.335 260.631 212.335H265.645C265.933 212.335 266.166 212.102 266.166 211.815V210.663C266.166 210.376 265.933 210.143 265.645 210.143Z" fill="white"/>
<path d="M242.918 252.14H238.5V257.001H242.918V252.14Z" fill="#DEE8F5"/>
<path d="M284.952 252.14H280.534V257.001H284.952V252.14Z" fill="#DEE8F5"/>
<path d="M279.927 244.65H255.332V250.209H279.927V244.65Z" fill="#C1D8ED"/>
<path d="M280.349 233.545H255.754V239.104H280.349V233.545Z" fill="#C1D8ED"/>
<path d="M271.534 244.65H245.524V250.209H271.534V244.65Z" fill="#DEE8F5"/>
<g opacity="0.62">
<path d="M269.411 244.65H268.148V250.209H269.411V244.65Z" fill="#C1D8ED"/>
</g>
<g opacity="0.62">
<path d="M266.887 244.65H265.624V250.209H266.887V244.65Z" fill="#C1D8ED"/>
</g>
<path d="M248.506 249.222C249.498 249.222 250.302 248.42 250.302 247.43C250.302 246.439 249.498 245.637 248.506 245.637C247.514 245.637 246.71 246.439 246.71 247.43C246.71 248.42 247.514 249.222 248.506 249.222Z" fill="#F3F5FD"/>
<path d="M271.957 233.545H245.947V239.104H271.957V233.545Z" fill="#DEE8F5"/>
<path d="M265.772 234.797H247.622V237.852H265.772V234.797Z" fill="#F3F5FD"/>
<g opacity="0.62">
<path d="M269.833 233.545H267.444V239.104H269.833V233.545Z" fill="#C1D8ED"/>
</g>
<path d="M257.337 244.657H281.933V239.098H257.337V244.657Z" fill="#C1D8ED"/>
<path d="M247.53 244.657H273.54V239.098H247.53V244.657Z" fill="#F3F5FD"/>
<path d="M249.653 244.657H250.916V239.098H249.653V244.657Z" fill="#DEE8F5"/>
<path d="M252.179 244.657H253.441V239.098H252.179V244.657Z" fill="#DEE8F5"/>
<path d="M270.558 243.67C271.55 243.67 272.354 242.867 272.354 241.877C272.354 240.887 271.55 240.084 270.558 240.084C269.566 240.084 268.762 240.887 268.762 241.877C268.762 242.867 269.566 243.67 270.558 243.67Z" fill="#DEE8F5"/>
<path d="M266.868 240.515H255.387V243.24H266.868V240.515Z" fill="#DEE8F5"/>
</g>
<defs>
<clipPath id="clip0_173_6285">
<rect width="312" height="203" fill="white" transform="translate(0 54)"/>
</clipPath>
</defs>
</svg>
