<svg width="312" height="260" viewBox="0 0 312 260" fill="none" xmlns="http://www.w3.org/2000/svg">
<path d="M98.1024 173.929H78.5425V179.628H98.1024V173.929Z" fill="#F4F4F4"/>
<path opacity="0.05" d="M83.7328 173.929H81.1699V179.628H83.7328V173.929Z" fill="#292A2E"/>
<path d="M95.6026 175.167H84.9458V178.545H95.6026V175.167Z" fill="white"/>
<path d="M113.704 174.672L95.5298 166.723L93.2518 171.946L111.426 179.896L113.704 174.672Z" fill="#F4F4F4"/>
<path opacity="0.05" d="M113.704 174.672L95.5298 166.723L93.2518 171.946L111.426 179.896L113.704 174.672Z" fill="#292A2E"/>
<path d="M111.263 173.605L108.882 172.563L106.604 177.786L108.985 178.828L111.263 173.605Z" fill="white"/>
<path d="M107.26 173.204L97.3579 168.873L96.008 171.968L105.91 176.299L107.26 173.204Z" fill="white"/>
<path opacity="0.05" d="M113.74 246.133H108.825V249.42H113.74V246.133Z" fill="#292A2E"/>
<path opacity="0.05" d="M63.4853 246.133H58.5698V249.42H63.4853V246.133Z" fill="#292A2E"/>
<path d="M118.246 179.896H54.064V246.021H118.246V179.896Z" fill="#F4F4F4"/>
<path opacity="0.03" d="M118.246 179.896H54.064V246.021H118.246V179.896Z" fill="#292A2E"/>
<path d="M130.14 179.896H65.9575V246.021H130.14V179.896Z" fill="#F4F4F4"/>
<path opacity="0.05" d="M125.635 246.133H120.72V249.42H125.635V246.133Z" fill="#292A2E"/>
<path opacity="0.05" d="M75.3803 246.133H70.4648V249.42H75.3803V246.133Z" fill="#292A2E"/>
<path opacity="0.7" d="M127.73 182.993H68.3667V195.697H127.73V182.993Z" fill="white"/>
<path opacity="0.7" d="M127.73 198.807H68.3667V211.511H127.73V198.807Z" fill="white"/>
<path opacity="0.7" d="M127.73 214.62H68.3667V227.324H127.73V214.62Z" fill="white"/>
<path opacity="0.05" d="M98.0484 191.123C99.0286 191.123 99.8233 190.327 99.8233 189.345C99.8233 188.364 99.0286 187.568 98.0484 187.568C97.0681 187.568 96.2734 188.364 96.2734 189.345C96.2734 190.327 97.0681 191.123 98.0484 191.123Z" fill="#292A2E"/>
<path opacity="0.05" d="M98.0484 206.936C99.0286 206.936 99.8233 206.14 99.8233 205.158C99.8233 204.177 99.0286 203.381 98.0484 203.381C97.0681 203.381 96.2734 204.177 96.2734 205.158C96.2734 206.14 97.0681 206.936 98.0484 206.936Z" fill="#292A2E"/>
<path opacity="0.05" d="M98.0484 222.749C99.0286 222.749 99.8233 221.954 99.8233 220.972C99.8233 219.99 99.0286 219.194 98.0484 219.194C97.0681 219.194 96.2734 219.99 96.2734 220.972C96.2734 221.954 97.0681 222.749 98.0484 222.749Z" fill="#292A2E"/>
<path opacity="0.7" d="M127.73 230.789H68.3667V243.493H127.73V230.789Z" fill="white"/>
<path opacity="0.05" d="M98.0493 238.918C99.0296 238.918 99.8243 238.123 99.8243 237.141C99.8243 236.159 99.0296 235.363 98.0493 235.363C97.0691 235.363 96.2744 236.159 96.2744 237.141C96.2744 238.123 97.0691 238.918 98.0493 238.918Z" fill="#292A2E"/>
<path d="M35.5162 249.877H276.691C276.736 249.877 276.779 249.859 276.811 249.827C276.843 249.795 276.861 249.751 276.861 249.706C276.861 249.661 276.843 249.617 276.811 249.585C276.779 249.553 276.736 249.535 276.691 249.535H35.5162C35.471 249.535 35.4276 249.553 35.3956 249.585C35.3637 249.617 35.3457 249.661 35.3457 249.706C35.3457 249.751 35.3637 249.795 35.3956 249.827C35.4276 249.859 35.471 249.877 35.5162 249.877Z" fill="#292A2E"/>
<g opacity="0.65">
<path d="M35.5166 249.877H276.691C276.736 249.877 276.78 249.859 276.812 249.827C276.844 249.795 276.861 249.751 276.861 249.706C276.861 249.661 276.844 249.617 276.812 249.585C276.78 249.553 276.736 249.535 276.691 249.535H35.5166C35.4714 249.535 35.4281 249.553 35.3961 249.585C35.3642 249.617 35.3462 249.661 35.3462 249.706C35.3462 249.751 35.3642 249.795 35.3961 249.827C35.4281 249.859 35.4714 249.877 35.5166 249.877Z" fill="#292A2E"/>
</g>
<path d="M260.371 249.777L260.849 249.685L253.374 175.297L252.896 175.39L260.371 249.777Z" fill="#494949"/>
<path d="M232.538 249.777L233.017 249.685L225.542 175.297L225.064 175.39L232.538 249.777Z" fill="#494949"/>
<path d="M171.018 249.777L170.54 249.685L178.014 175.297L178.493 175.39L171.018 249.777Z" fill="#494949"/>
<path d="M198.851 249.777L198.373 249.685L205.848 175.297L206.326 175.39L198.851 249.777Z" fill="#494949"/>
<path d="M208.761 142.558L204.395 175.31L204.877 175.375L209.244 142.622L208.761 142.558Z" fill="#494949"/>
<path d="M258.88 142.558L254.513 175.31L254.996 175.375L259.362 142.622L258.88 142.558Z" fill="#494949"/>
<path d="M204.438 177.743H253.461C254.783 177.743 255.855 176.669 255.855 175.344V175.344C255.855 174.019 254.783 172.946 253.461 172.946H204.438C203.115 172.946 202.043 174.019 202.043 175.344V175.344C202.043 176.669 203.115 177.743 204.438 177.743Z" fill="#292A2E"/>
<path opacity="0.8" d="M204.438 177.743H253.461C254.783 177.743 255.855 176.669 255.855 175.344V175.344C255.855 174.019 254.783 172.946 253.461 172.946H204.438C203.115 172.946 202.043 174.019 202.043 175.344V175.344C202.043 176.669 203.115 177.743 204.438 177.743Z" fill="white"/>
<path d="M201.799 175.345C201.799 174.644 202.077 173.972 202.572 173.477C203.067 172.981 203.738 172.702 204.437 172.702H253.46C254.16 172.702 254.831 172.98 255.326 173.476C255.821 173.971 256.098 174.643 256.098 175.344C256.098 176.045 255.821 176.717 255.326 177.212C254.831 177.708 254.16 177.986 253.46 177.986H204.437C203.738 177.985 203.067 177.707 202.573 177.212C202.078 176.717 201.8 176.045 201.799 175.345ZM204.437 173.19C203.867 173.19 203.319 173.417 202.916 173.821C202.513 174.225 202.286 174.774 202.286 175.345C202.286 175.916 202.513 176.464 202.916 176.868C203.319 177.273 203.867 177.5 204.437 177.5H253.46C254.031 177.5 254.578 177.273 254.981 176.868C255.385 176.464 255.611 175.916 255.611 175.345C255.611 174.774 255.385 174.225 254.981 173.821C254.578 173.417 254.031 173.19 253.46 173.19H204.437Z" fill="#292A2E"/>
<path d="M177.53 177.742H226.553C227.876 177.742 228.948 176.668 228.948 175.344V175.344C228.948 174.019 227.876 172.945 226.553 172.945H177.53C176.208 172.945 175.136 174.019 175.136 175.344V175.344C175.136 176.668 176.208 177.742 177.53 177.742Z" fill="white"/>
<path d="M174.893 175.344C174.894 174.644 175.172 173.972 175.667 173.477C176.162 172.982 176.832 172.703 177.532 172.702H226.555C227.254 172.702 227.925 172.981 228.42 173.476C228.915 173.972 229.193 174.644 229.193 175.344C229.193 176.045 228.915 176.717 228.42 177.213C227.925 177.708 227.254 177.987 226.555 177.987H177.532C176.832 177.986 176.162 177.707 175.667 177.212C175.172 176.717 174.894 176.045 174.893 175.344ZM177.532 173.19C176.961 173.19 176.414 173.417 176.01 173.821C175.607 174.225 175.38 174.773 175.38 175.344C175.38 175.916 175.607 176.464 176.01 176.868C176.414 177.272 176.961 177.499 177.532 177.499H226.555C227.125 177.499 227.672 177.272 228.076 176.868C228.479 176.464 228.706 175.916 228.706 175.344C228.706 174.773 228.479 174.225 228.076 173.821C227.672 173.417 227.125 173.19 226.555 173.19H177.532Z" fill="#292A2E"/>
<path d="M211.448 142.591H258.992C259.769 142.591 260.52 142.307 261.104 141.794C261.688 141.28 262.066 140.571 262.166 139.799L265.311 115.612C265.37 115.16 265.331 114.701 265.199 114.264C265.066 113.828 264.842 113.426 264.542 113.083C264.241 112.74 263.872 112.466 263.457 112.278C263.042 112.09 262.592 111.993 262.137 111.993H214.592C213.815 111.993 213.064 112.276 212.48 112.79C211.896 113.303 211.518 114.013 211.418 114.784L208.273 138.971C208.214 139.423 208.252 139.883 208.385 140.319C208.518 140.755 208.742 141.158 209.042 141.501C209.343 141.843 209.713 142.118 210.128 142.306C210.543 142.494 210.993 142.591 211.448 142.591Z" fill="#292A2E"/>
<path opacity="0.8" d="M211.448 142.591H258.992C259.769 142.591 260.52 142.307 261.104 141.794C261.688 141.28 262.066 140.571 262.166 139.799L265.311 115.612C265.37 115.16 265.331 114.701 265.199 114.264C265.066 113.828 264.842 113.426 264.542 113.083C264.241 112.74 263.872 112.466 263.457 112.278C263.042 112.09 262.592 111.993 262.137 111.993H214.592C213.815 111.993 213.064 112.276 212.48 112.79C211.896 113.303 211.518 114.013 211.418 114.784L208.273 138.971C208.214 139.423 208.252 139.883 208.385 140.319C208.518 140.755 208.742 141.158 209.042 141.501C209.343 141.843 209.713 142.118 210.128 142.306C210.543 142.494 210.993 142.591 211.448 142.591Z" fill="white"/>
<path d="M208.86 141.661C208.536 141.293 208.295 140.859 208.152 140.39C208.01 139.921 207.969 139.427 208.032 138.94L211.177 114.753C211.286 113.923 211.693 113.161 212.321 112.609C212.949 112.057 213.756 111.751 214.592 111.749H262.137C262.626 111.749 263.111 111.854 263.557 112.056C264.003 112.258 264.401 112.554 264.725 112.922C265.048 113.291 265.289 113.724 265.432 114.194C265.574 114.663 265.615 115.157 265.552 115.644L262.407 139.831C262.297 140.661 261.891 141.423 261.263 141.975C260.635 142.527 259.828 142.833 258.992 142.835H211.448C210.958 142.835 210.473 142.73 210.027 142.528C209.581 142.325 209.183 142.03 208.86 141.661ZM214.592 112.237C213.874 112.239 213.181 112.501 212.642 112.975C212.103 113.45 211.754 114.104 211.66 114.816L208.515 139.003C208.461 139.421 208.496 139.845 208.619 140.248C208.741 140.651 208.948 141.023 209.226 141.34C209.503 141.656 209.845 141.91 210.228 142.084C210.611 142.257 211.027 142.347 211.448 142.347H258.992C259.709 142.346 260.402 142.083 260.942 141.609C261.481 141.135 261.83 140.481 261.924 139.768L265.069 115.581C265.123 115.163 265.088 114.739 264.965 114.336C264.843 113.933 264.636 113.561 264.359 113.244C264.081 112.928 263.739 112.674 263.356 112.501C262.973 112.327 262.557 112.237 262.137 112.237L214.592 112.237Z" fill="#292A2E"/>
<path d="M208.759 142.591H256.305C257.082 142.591 257.833 142.307 258.417 141.794C259.001 141.28 259.378 140.571 259.479 139.799L262.624 115.612C262.682 115.16 262.644 114.701 262.512 114.264C262.379 113.828 262.155 113.426 261.854 113.083C261.554 112.74 261.184 112.466 260.769 112.278C260.355 112.09 259.905 111.993 259.449 111.993H211.904C211.127 111.993 210.376 112.276 209.792 112.79C209.208 113.304 208.831 114.013 208.73 114.784L205.585 138.971C205.527 139.423 205.565 139.883 205.697 140.319C205.83 140.755 206.054 141.158 206.354 141.5C206.655 141.843 207.025 142.117 207.439 142.305C207.854 142.493 208.304 142.591 208.759 142.591Z" fill="white"/>
<path d="M206.172 141.661C205.849 141.293 205.608 140.859 205.465 140.39C205.322 139.921 205.281 139.427 205.344 138.94L208.489 114.753C208.599 113.923 209.005 113.161 209.634 112.609C210.262 112.056 211.069 111.751 211.904 111.749H259.449C259.939 111.749 260.423 111.854 260.869 112.056C261.316 112.258 261.714 112.554 262.037 112.922C262.36 113.291 262.601 113.724 262.744 114.194C262.887 114.663 262.928 115.157 262.864 115.644L259.72 139.831C259.61 140.66 259.203 141.422 258.576 141.975C257.948 142.527 257.141 142.833 256.305 142.835H208.76C208.27 142.835 207.786 142.73 207.34 142.528C206.893 142.325 206.495 142.03 206.172 141.661ZM211.905 112.237C211.187 112.238 210.494 112.501 209.955 112.975C209.416 113.45 209.067 114.104 208.972 114.816L205.828 139.003C205.773 139.421 205.808 139.845 205.931 140.248C206.054 140.651 206.26 141.023 206.538 141.34C206.816 141.656 207.157 141.91 207.541 142.084C207.924 142.257 208.339 142.347 208.76 142.347H256.305C257.023 142.346 257.716 142.083 258.255 141.609C258.795 141.135 259.144 140.481 259.238 139.768L262.383 115.581C262.437 115.164 262.402 114.739 262.279 114.336C262.157 113.933 261.95 113.561 261.672 113.245C261.395 112.928 261.053 112.674 260.67 112.501C260.287 112.327 259.871 112.237 259.45 112.237L211.905 112.237Z" fill="#292A2E"/>
<path d="M215.511 73.0554C215.511 73.0554 212.704 70.26 212.673 64.7073C212.649 60.4079 216.16 63.6726 216.16 63.6726C216.16 63.6726 216.173 60.5767 218.343 61.182C220.513 61.7872 221.316 65.1512 221.316 65.1512" fill="#0C0C0C"/>
<path d="M229.728 63.1064C229.728 63.1064 240.542 65.7905 234.537 80.1411L233.557 80.0731L231.567 79.9348" fill="#0C0C0C"/>
<path d="M215.848 95.0559C215.896 95.0493 216.437 104.03 226.856 103.248C234.068 102.707 236.64 95.043 236.805 95.043C236.028 94.8776 235.067 94.6264 234.685 94.5401C233.852 94.3464 233.099 93.9036 232.524 93.2706C231.949 92.6375 231.581 91.8442 231.467 90.9962C231.256 89.7232 231.613 83.21 231.504 81.9219L220.432 84.3969C220.587 87.1172 221.67 93.4239 217.875 94.5401C217.242 94.7247 216.562 94.8937 215.848 95.0559Z" fill="#E98862"/>
<path opacity="0.52" d="M220.276 91.9625C220.449 91.4028 220.561 90.8257 220.609 90.2415C220.731 88.9088 220.706 87.5666 220.536 86.2392C222.786 85.935 224.906 85.0048 226.655 83.5542C226.861 84.3146 227.991 87.637 227.678 88.3584C227.087 89.7258 224.307 91.9625 220.276 91.9625Z" fill="#0C0C0C"/>
<path d="M221.932 89.343C226.312 89.5481 231.867 87.5203 232.746 81.6477L233.539 76.3487C234.419 70.4761 232.051 65.2527 226.53 64.4236C221.009 63.5944 216.17 67.7355 215.29 73.6081L214.939 75.9539C214.832 76.7615 214.781 77.5755 214.785 78.3901C214.779 80.543 214.779 83.8177 215.915 86.1885C216.987 88.4268 219.133 89.2115 221.932 89.343Z" fill="#E98862"/>
<path d="M220.659 83.6904C219.761 83.6084 218.894 83.316 218.129 82.8369C218.112 82.8278 218.098 82.8154 218.086 82.8005C218.074 82.7856 218.066 82.7684 218.061 82.7501C218.056 82.7318 218.054 82.7126 218.057 82.6938C218.06 82.6749 218.066 82.6568 218.076 82.6405C218.085 82.6242 218.098 82.61 218.114 82.5988C218.129 82.5876 218.146 82.5797 218.165 82.5754C218.183 82.5711 218.203 82.5706 218.221 82.574C218.24 82.5773 218.258 82.5844 218.274 82.5948C219.928 83.5861 221.537 83.6948 222.929 82.9101C222.957 82.8933 222.987 82.8781 223.016 82.8645C223.051 82.8518 223.089 82.853 223.122 82.8678C223.156 82.8827 223.182 82.91 223.196 82.944C223.21 82.978 223.21 83.016 223.196 83.05C223.182 83.084 223.156 83.1113 223.122 83.1261C223.111 83.131 223.093 83.1417 223.068 83.1559C222.336 83.5702 221.497 83.7563 220.659 83.6904Z" fill="#0C0C0C"/>
<path d="M220.52 85.0213C220.357 85.0091 220.196 84.9829 220.037 84.9433C220.019 84.9389 220.002 84.9309 219.988 84.92C219.973 84.909 219.96 84.8952 219.95 84.8793C219.941 84.8635 219.935 84.8459 219.932 84.8276C219.929 84.8093 219.93 84.7906 219.934 84.7726C219.939 84.7546 219.947 84.7377 219.958 84.7228C219.969 84.7079 219.982 84.6952 219.998 84.6857C220.014 84.6761 220.032 84.6697 220.05 84.6669C220.068 84.6642 220.087 84.665 220.105 84.6694C221.057 84.9048 221.579 84.5246 221.601 84.5082C221.631 84.4856 221.669 84.4757 221.706 84.4808C221.743 84.4858 221.776 84.5054 221.799 84.5352C221.821 84.565 221.831 84.6025 221.826 84.6396C221.821 84.6767 221.802 84.7102 221.772 84.7328C221.4 84.971 220.958 85.0729 220.52 85.0213Z" fill="#0C0C0C"/>
<path d="M216.863 76.1718C217.243 76.1718 217.551 75.8635 217.551 75.4831C217.551 75.1028 217.243 74.7944 216.863 74.7944C216.484 74.7944 216.176 75.1028 216.176 75.4831C216.176 75.8635 216.484 76.1718 216.863 76.1718Z" fill="#0C0C0C"/>
<path d="M223.258 76.599C223.638 76.599 223.946 76.2907 223.946 75.9104C223.946 75.53 223.638 75.2217 223.258 75.2217C222.878 75.2217 222.57 75.53 222.57 75.9104C222.57 76.2907 222.878 76.599 223.258 76.599Z" fill="#0C0C0C"/>
<path d="M232.134 83.3853C233.812 83.6372 235.441 82.044 235.693 80.3635C235.944 78.683 234.723 77.5522 233.045 77.3003L232.012 78.2962L230.691 83.1687L232.134 83.3853Z" fill="#E98862"/>
<path d="M230.832 80.4514C230.832 80.4514 231.403 72.0492 228.952 71.1893C227.321 70.6167 222.924 72.443 219.252 71.2057C217.645 70.6643 216.024 70.8584 215.758 71.6168C215.652 71.917 215.232 67.3362 218.276 64.3208C220.699 61.9199 227.534 62.0857 230.476 63.3855C238.621 66.9845 233.342 77.7147 233.342 77.7147L232.571 80.5326L230.832 80.4514Z" fill="#0C0C0C"/>
<path d="M219.912 81.587H219.901C219.36 81.5073 218.462 81.3131 218.521 80.9078C218.57 80.572 220.021 77.0828 220.187 76.6862C220.193 76.6686 220.203 76.6525 220.216 76.6388C220.229 76.6252 220.245 76.6143 220.262 76.6068C220.279 76.5993 220.297 76.5954 220.316 76.5952C220.335 76.5951 220.354 76.5987 220.371 76.606C220.388 76.6132 220.404 76.6239 220.417 76.6373C220.43 76.6508 220.44 76.6667 220.447 76.6842C220.454 76.7018 220.457 76.7205 220.456 76.7392C220.456 76.758 220.451 76.7765 220.444 76.7935C219.8 78.3387 218.83 80.7198 218.797 80.9483C218.836 81.0519 219.381 81.2283 219.941 81.3112C219.976 81.3168 220.008 81.3358 220.03 81.3642C220.051 81.3926 220.061 81.4283 220.058 81.4638C220.054 81.4994 220.036 81.5321 220.009 81.5553C219.982 81.5784 219.947 81.5902 219.911 81.5882L219.912 81.587Z" fill="#0C0C0C"/>
<path d="M219.172 73.2235C218.625 72.9888 218.023 72.9067 217.433 72.9858C217.143 73.0227 216.86 73.103 216.594 73.224C216.331 73.3424 216.084 73.4935 215.859 73.6737C215.818 73.7056 215.79 73.7523 215.783 73.804C215.775 73.8556 215.787 73.9084 215.817 73.9512C215.847 73.994 215.892 74.0236 215.943 74.0338C215.995 74.0441 216.048 74.0341 216.092 74.0061L216.106 73.9971C216.311 73.8532 216.533 73.7357 216.767 73.6474C216.997 73.5592 217.24 73.5065 217.486 73.4911C217.971 73.4568 218.456 73.5513 218.893 73.7649L218.911 73.7744C218.983 73.8115 219.066 73.8185 219.143 73.7938C219.22 73.7691 219.284 73.7148 219.321 73.6429C219.358 73.5709 219.365 73.4872 219.341 73.4101C219.316 73.333 219.262 73.2689 219.19 73.2318L219.172 73.2235Z" fill="#0C0C0C"/>
<path d="M223.156 74.1189C223.618 73.9675 224.112 73.9411 224.588 74.0423C224.829 74.0915 225.062 74.1772 225.278 74.2964C225.498 74.4163 225.701 74.5634 225.885 74.7342L225.897 74.7447C225.936 74.779 225.988 74.7967 226.04 74.7939C226.092 74.7911 226.142 74.7681 226.177 74.7298C226.213 74.6914 226.233 74.6407 226.232 74.5881C226.231 74.5356 226.21 74.4854 226.173 74.4481C225.975 74.2385 225.752 74.0547 225.508 73.9011C225.261 73.7445 224.992 73.6258 224.71 73.549C224.136 73.3891 223.529 73.3873 222.954 73.5439C222.876 73.5657 222.81 73.6176 222.771 73.6881C222.731 73.7587 222.721 73.8421 222.743 73.92C222.765 73.998 222.816 74.064 222.887 74.1037C222.957 74.1434 223.041 74.1534 223.118 74.1316L223.136 74.126L223.156 74.1189Z" fill="#0C0C0C"/>
<path d="M224.102 65.159C224.735 63.3776 224.269 61.5841 223.061 61.1531C221.852 60.7221 220.359 61.8168 219.726 63.5982C219.092 65.3796 219.558 67.1731 220.767 67.6041C221.975 68.0351 223.469 66.9404 224.102 65.159Z" fill="#0C0C0C"/>
<path d="M148.423 237.137C148.423 237.137 147.117 243.915 140.781 244.292C134.444 244.67 135.818 249.726 135.818 249.726H160.033V237.609L148.423 237.137Z" fill="#367CFF"/>
<path d="M194.492 232.857C194.492 232.857 196.308 239.516 190.788 242.656C185.269 245.797 188.73 249.726 188.73 249.726L210.459 239.02L205.118 228.148L194.492 232.857Z" fill="#367CFF"/>
<path d="M207.949 230.976L189.626 173.084H222.84C229.512 173.084 232.293 167.418 232.293 160.736C232.293 154.055 225.735 148.198 219.063 148.198H174.235C170.166 148.198 165.603 150.69 163.37 154.097C161.137 157.504 161.74 162.783 163.358 166.522L192.701 237.894" fill="#262626"/>
<path opacity="0.8" d="M207.949 230.976L189.626 173.084H222.84C229.512 173.084 232.293 167.418 232.293 160.736C232.293 154.055 225.735 148.198 219.063 148.198H174.235C170.166 148.198 165.603 150.69 163.37 154.097C161.137 157.504 161.74 162.783 163.358 166.522L192.701 237.894" fill="#0A0A0A"/>
<path d="M161.426 243.431L192.064 173.084L232.293 173.082C241.72 172.341 246.037 167.168 245.9 160.488C245.764 153.892 242.43 147.378 235.874 147.378H181.652C176.801 147.478 172.985 152.846 171.186 157.358L145.715 239.124" fill="#262626"/>
<path d="M248.645 147.459C248.645 147.459 250.431 159.127 247.599 165.614C244.064 173.713 230.81 173.082 230.81 173.082L231.557 147.378L248.645 147.459Z" fill="#262626"/>
<path d="M170.035 147.229L198.452 141.331C199.636 141.086 200.739 140.545 201.659 139.759C202.579 138.973 203.287 137.967 203.716 136.835L214.893 107.338C215.233 106.453 215.395 105.509 215.37 104.561C215.345 103.613 215.133 102.679 214.747 101.813C214.361 100.947 213.807 100.166 213.118 99.5145C212.429 98.8634 211.619 98.3549 210.733 98.0183C209.848 97.6817 208.905 97.5237 207.958 97.5533C207.011 97.5829 206.08 97.7995 205.217 98.1907C204.354 98.5819 203.577 99.14 202.93 99.8329C202.283 100.526 201.779 101.34 201.447 102.228L191.67 128.03L167.117 133.126C167.117 133.126 169.543 147.331 170.035 147.229Z" fill="#367CFF"/>
<path d="M202.902 114.829C203.23 118.691 205.557 142.779 205.873 147.535H248.626C248.872 143.246 249.669 125.034 250.601 116.646C251.49 108.642 251.813 104.075 250.789 101.587C248.982 97.2001 244.462 95.6216 240.568 95.0936C238.191 94.7715 234.615 94.5403 234.615 94.5403C234.615 94.5403 234.312 100.674 227.093 101.015C217.265 101.478 217.921 94.5396 217.872 94.5396C216.28 94.5396 207.614 95.6991 205.447 97.1136C202.386 99.1116 201.482 101.834 201.446 104.335C201.405 107.217 202.529 110.45 202.902 114.829Z" fill="#367CFF"/>
<path d="M204.582 134.512H204.592C204.625 134.509 204.654 134.494 204.675 134.469C204.696 134.445 204.706 134.413 204.703 134.38L203.594 121.028C203.593 121.012 203.588 120.996 203.581 120.981C203.574 120.967 203.564 120.954 203.552 120.944C203.54 120.933 203.525 120.925 203.51 120.921C203.494 120.916 203.478 120.914 203.462 120.916C203.446 120.918 203.431 120.922 203.417 120.929C203.402 120.937 203.39 120.947 203.379 120.959C203.369 120.971 203.361 120.985 203.356 121.001C203.352 121.016 203.35 121.032 203.351 121.048L204.46 134.4C204.463 134.431 204.477 134.459 204.499 134.48C204.522 134.501 204.552 134.512 204.582 134.512Z" fill="#0C0C0C"/>
<path d="M184.219 142.526L174.839 113.647C174.674 113.14 174.353 112.698 173.922 112.384C173.491 112.07 172.972 111.901 172.439 111.901H134.219C133.821 111.901 133.428 111.995 133.073 112.176C132.718 112.358 132.411 112.62 132.177 112.943C131.943 113.266 131.788 113.64 131.726 114.034C131.664 114.428 131.696 114.831 131.819 115.211L141.2 144.09C141.365 144.598 141.686 145.04 142.117 145.354C142.548 145.667 143.068 145.836 143.601 145.836H181.819C182.218 145.836 182.61 145.742 182.965 145.561C183.32 145.379 183.627 145.117 183.862 144.794C184.096 144.471 184.25 144.097 184.312 143.703C184.375 143.309 184.343 142.906 184.219 142.526Z" fill="#292A2E"/>
<path d="M184.219 142.526L174.839 113.647C174.674 113.14 174.353 112.698 173.922 112.384C173.491 112.07 172.972 111.901 172.439 111.901H134.219C133.821 111.901 133.428 111.995 133.073 112.176C132.718 112.358 132.411 112.62 132.177 112.943C131.943 113.266 131.788 113.64 131.726 114.034C131.664 114.428 131.696 114.831 131.819 115.211L141.2 144.09C141.365 144.598 141.686 145.04 142.117 145.354C142.548 145.667 143.068 145.836 143.601 145.836H181.819C182.218 145.836 182.61 145.742 182.965 145.561C183.32 145.379 183.627 145.117 183.862 144.794C184.096 144.471 184.25 144.097 184.312 143.703C184.375 143.309 184.343 142.906 184.219 142.526Z" fill="#292A2E"/>
<path d="M202.151 143.494H176.567C175.929 143.494 175.413 144.012 175.413 144.65V144.68C175.413 145.318 175.929 145.836 176.567 145.836H202.151C202.788 145.836 203.305 145.318 203.305 144.68V144.65C203.305 144.012 202.788 143.494 202.151 143.494Z" fill="#292A2E"/>
<path d="M202.151 143.494H176.567C175.929 143.494 175.413 144.012 175.413 144.65V144.68C175.413 145.318 175.929 145.836 176.567 145.836H202.151C202.788 145.836 203.305 145.318 203.305 144.68V144.65C203.305 144.012 202.788 143.494 202.151 143.494Z" fill="#292A2E"/>
<path d="M158.019 134.292C160.233 134.292 162.027 132.495 162.027 130.278C162.027 128.061 160.233 126.264 158.019 126.264C155.805 126.264 154.011 128.061 154.011 130.278C154.011 132.495 155.805 134.292 158.019 134.292Z" fill="white"/>
<path d="M186.358 135.761L192.743 133.52L191.827 133.457C191.531 133.43 191.257 133.292 191.059 133.071C190.861 132.85 190.754 132.562 190.76 132.265C190.769 132.111 190.808 131.962 190.877 131.824C190.945 131.687 191.04 131.565 191.157 131.466C191.274 131.366 191.41 131.292 191.556 131.247C191.703 131.202 191.857 131.188 192.009 131.204L203.306 132.407L203.012 136.042C202.921 137.171 202.495 138.248 201.789 139.133C201.083 140.018 200.13 140.672 199.05 141.011L194.158 142.537C193.906 142.621 193.632 142.616 193.383 142.521C193.134 142.426 192.925 142.248 192.792 142.017C192.677 141.806 192.632 141.563 192.664 141.324C192.696 141.086 192.803 140.863 192.97 140.69C192.955 140.679 192.943 140.664 192.936 140.647C192.93 140.631 192.928 140.614 192.931 140.597C192.933 140.58 192.94 140.564 192.95 140.55L192.049 140.833C191.768 140.927 191.461 140.912 191.191 140.788C190.921 140.665 190.708 140.444 190.594 140.17C190.502 139.921 190.5 139.647 190.589 139.396C190.678 139.146 190.852 138.935 191.081 138.801C191.071 138.796 191.061 138.788 191.054 138.779L190.683 138.895C190.43 138.98 190.156 138.975 189.906 138.88C189.657 138.785 189.448 138.607 189.315 138.376C189.175 138.119 189.139 137.819 189.215 137.537C189.292 137.255 189.474 137.014 189.724 136.864C189.722 136.856 189.721 136.848 189.721 136.841L187.061 137.774C186.93 137.821 186.79 137.84 186.651 137.833C186.511 137.825 186.374 137.79 186.249 137.729C185.994 137.606 185.799 137.388 185.706 137.121C185.613 136.855 185.629 136.562 185.751 136.307C185.873 136.052 186.092 135.857 186.358 135.764L186.358 135.761Z" fill="#E98862"/>
<path opacity="0.2" d="M189.826 136.942C189.838 136.942 189.85 136.94 189.862 136.936L192.434 135.999C192.447 135.995 192.459 135.987 192.469 135.978C192.479 135.968 192.488 135.957 192.494 135.944C192.499 135.932 192.503 135.918 192.503 135.904C192.504 135.89 192.502 135.876 192.497 135.863C192.492 135.85 192.485 135.838 192.475 135.828C192.466 135.817 192.455 135.809 192.442 135.803C192.429 135.797 192.416 135.794 192.402 135.794C192.388 135.793 192.374 135.795 192.361 135.8L189.789 136.737C189.765 136.745 189.745 136.762 189.733 136.783C189.72 136.805 189.716 136.83 189.72 136.855C189.725 136.879 189.738 136.902 189.757 136.918C189.776 136.934 189.8 136.943 189.825 136.942H189.826Z" fill="#0A0A0A"/>
<path opacity="0.2" d="M191.125 138.814C191.137 138.814 191.15 138.812 191.161 138.808L193.188 138.087C193.202 138.083 193.214 138.076 193.225 138.067C193.235 138.057 193.244 138.046 193.25 138.033C193.256 138.021 193.26 138.007 193.261 137.993C193.262 137.979 193.26 137.964 193.255 137.951C193.25 137.938 193.243 137.926 193.233 137.915C193.224 137.905 193.212 137.896 193.2 137.89C193.187 137.884 193.173 137.881 193.159 137.88C193.145 137.88 193.131 137.882 193.118 137.887L191.09 138.608C191.067 138.616 191.047 138.633 191.034 138.654C191.021 138.676 191.017 138.701 191.021 138.726C191.025 138.75 191.038 138.773 191.057 138.789C191.076 138.805 191.1 138.814 191.125 138.814Z" fill="#0A0A0A"/>
<path opacity="0.2" d="M193.035 140.717C193.048 140.717 193.06 140.715 193.072 140.71L194.022 140.347C194.048 140.337 194.069 140.317 194.081 140.292C194.092 140.266 194.093 140.237 194.083 140.21C194.073 140.184 194.053 140.163 194.027 140.151C194.002 140.14 193.973 140.139 193.946 140.149L192.997 140.512C192.974 140.521 192.954 140.538 192.942 140.559C192.93 140.581 192.926 140.606 192.93 140.63C192.935 140.655 192.948 140.677 192.967 140.692C192.986 140.708 193.01 140.717 193.034 140.717H193.035Z" fill="#0A0A0A"/>
<path d="M198.306 130.255L225.091 130.237L235.225 105.481L250.341 111.846L237.698 141.228L237.575 141.52C236.956 142.948 235.914 144.152 234.59 144.967C233.266 145.782 231.724 146.17 230.172 146.079L197.9 144.169L198.306 130.255Z" fill="#367CFF"/>
<path d="M230.615 146.213C232.117 146.21 233.585 145.77 234.841 144.945C236.097 144.12 237.085 142.947 237.686 141.568L237.809 141.276L248.582 116.241L248.359 116.144L237.462 141.473C236.85 142.876 235.824 144.057 234.522 144.859C233.22 145.661 231.704 146.044 230.178 145.957L198.025 144.055L198.423 130.378L225.172 130.36L232.965 111.325L232.739 111.233L225.009 130.116L198.187 130.134L197.775 144.284L197.893 144.291L230.165 146.2C230.315 146.209 230.467 146.213 230.615 146.213Z" fill="#0C0C0C"/>
<path d="M93.9892 148.173L83.7236 249.951L84.2082 250L94.4738 148.222L93.9892 148.173Z" fill="#494949"/>
<path d="M260.412 148.172L259.927 148.221L270.2 249.999L270.684 249.95L260.412 148.172Z" fill="#494949"/>
<path d="M217.968 148.173L217.483 148.222L227.756 250L228.241 249.951L217.968 148.173Z" fill="#494949"/>
<path d="M51.5469 148.174L41.2812 249.952L41.7658 250.001L52.0314 148.223L51.5469 148.174Z" fill="#494949"/>
<path d="M42.2885 150.195L268.994 150.195C270.096 150.195 270.99 149.301 270.99 148.197C270.99 147.094 270.096 146.199 268.994 146.199L42.2885 146.199C41.1866 146.199 40.2932 147.094 40.2932 148.197C40.2932 149.301 41.1866 150.195 42.2885 150.195Z" fill="#292A2E"/>
<path opacity="0.8" d="M42.2885 150.195L268.994 150.195C270.096 150.195 270.99 149.301 270.99 148.197C270.99 147.094 270.096 146.199 268.994 146.199L42.2885 146.199C41.1866 146.199 40.2932 147.094 40.2932 148.197C40.2932 149.301 41.1866 150.195 42.2885 150.195Z" fill="white"/>
<path d="M40.0493 148.197C40.0497 147.602 40.2857 147.032 40.7055 146.612C41.1252 146.191 41.6945 145.955 42.2881 145.955H268.993C269.587 145.955 270.156 146.191 270.576 146.611C270.996 147.032 271.232 147.602 271.232 148.197C271.232 148.791 270.996 149.362 270.576 149.782C270.156 150.203 269.587 150.439 268.993 150.439H42.2881C41.6945 150.438 41.1252 150.202 40.7055 149.782C40.2857 149.361 40.0497 148.791 40.0493 148.197ZM42.2881 146.442C41.8235 146.442 41.3779 146.627 41.0494 146.956C40.7209 147.285 40.5363 147.731 40.5363 148.197C40.5363 148.662 40.7209 149.108 41.0494 149.437C41.3779 149.766 41.8235 149.951 42.2881 149.951H268.993C269.458 149.951 269.903 149.766 270.232 149.437C270.56 149.108 270.745 148.662 270.745 148.197C270.745 147.731 270.56 147.285 270.232 146.956C269.903 146.627 269.458 146.442 268.993 146.442H42.2881Z" fill="#292A2E"/>
<path d="M42.2884 150.195L224.929 150.195C226.031 150.195 226.924 149.301 226.924 148.197C226.924 147.094 226.031 146.199 224.929 146.199L42.2884 146.199C41.1864 146.199 40.2931 147.094 40.2931 148.197C40.2931 149.301 41.1864 150.195 42.2884 150.195Z" fill="white"/>
<path d="M40.0493 148.197C40.0497 147.602 40.2857 147.032 40.7055 146.612C41.1252 146.191 41.6945 145.955 42.2881 145.955H224.929C225.523 145.955 226.092 146.191 226.512 146.611C226.932 147.032 227.168 147.602 227.168 148.197C227.168 148.791 226.932 149.362 226.512 149.782C226.092 150.203 225.523 150.439 224.929 150.439H42.2881C41.6945 150.438 41.1252 150.202 40.7055 149.782C40.2857 149.361 40.0497 148.791 40.0493 148.197ZM42.2881 146.442C41.8235 146.442 41.3779 146.627 41.0494 146.956C40.7209 147.285 40.5363 147.731 40.5363 148.197C40.5363 148.662 40.7209 149.108 41.0494 149.437C41.3779 149.766 41.8235 149.951 42.2881 149.951H224.929C225.394 149.951 225.839 149.766 226.168 149.437C226.496 149.108 226.681 148.662 226.681 148.197C226.681 147.731 226.496 147.285 226.168 146.956C225.839 146.627 225.394 146.442 224.929 146.442H42.2881Z" fill="#292A2E"/>
<path d="M68.4702 230.433C68.4702 230.433 63.8589 237.23 67.9459 242.124C72.033 247.017 67.4015 249.493 67.4015 249.493L50.7305 231.786L59.5634 223.444L68.4702 230.433Z" fill="#367CFF"/>
<path d="M92.6688 121.151C92.6688 121.151 108.235 174.768 104.566 182.605C100.959 190.312 68.0398 235.327 68.0398 235.327L56.2012 224.995L85.4802 177.443C85.4802 177.443 76.8131 149.982 72.1273 135.58C69.3026 126.898 64.5498 127.175 64.0984 118.055L92.6688 121.151Z" fill="#262626"/>
<path d="M75.4335 181.593L79.2841 177.202L78.2818 202.98L73.9902 207.065L75.4335 181.593Z" fill="#0A0A0A"/>
<path d="M74.7969 143.834C74.7969 143.834 72.9533 132.874 74.9249 135.222C81.3362 142.855 81.9745 166.344 81.9745 166.344L74.7969 143.834Z" fill="#0A0A0A"/>
<path d="M85.5683 236.565C85.5683 236.565 86.8786 243.367 93.2388 243.746C99.599 244.125 98.2188 249.198 98.2188 249.198H73.917V237.039L85.5683 236.565Z" fill="#367CFF"/>
<path d="M49.2853 119.807C49.2853 119.807 49.1777 119.306 49.1148 122.236C49.0698 124.306 48.2307 131.63 51.1318 143.182C56.5664 164.825 72.8449 240.906 72.8449 240.906L88.8128 240.772L73.7544 119.142L49.2853 119.807Z" fill="#262626"/>
<path d="M49.0389 119.895L48.9868 119.898C48.9868 119.898 49.0243 118.891 49.0389 119.895Z" fill="#333333"/>
<path d="M136.447 71.9526C136.351 71.7621 136.198 71.6061 136.01 71.5062C135.822 71.4063 135.607 71.3674 135.396 71.3949C135.397 71.3761 135.393 71.3571 135.384 71.3408C135.374 71.3281 135.361 71.3183 135.346 71.3122C135.331 71.3062 135.315 71.3042 135.299 71.3064L136.013 70.7943C136.226 70.6479 136.379 70.4292 136.444 70.1786C136.509 69.9279 136.481 69.6623 136.366 69.4305C136.244 69.2053 136.044 69.0333 135.803 68.9479C135.562 68.8626 135.297 68.87 135.062 68.9687C135.063 68.9587 135.056 68.9489 135.055 68.9387L135.347 68.7282C135.548 68.5895 135.694 68.3857 135.762 68.1513C135.829 67.9169 135.814 67.6662 135.718 67.4418C135.656 67.3023 135.563 67.1786 135.446 67.0795C135.33 66.9804 135.193 66.9085 135.045 66.8688C134.898 66.8292 134.743 66.8228 134.593 66.8502C134.442 66.8776 134.3 66.938 134.176 67.0272L133.5 67.5128C133.498 67.5086 133.5 67.504 133.497 67.5003C133.494 67.4967 133.487 67.4952 133.483 67.4911C133.638 67.3161 133.73 67.0935 133.742 66.8598C133.754 66.626 133.687 66.395 133.551 66.2047C133.232 65.6901 132.495 65.7952 132.057 66.1091L128.077 68.8631L128.788 67.6632C128.931 67.4324 128.982 67.1557 128.929 66.889C128.877 66.6224 128.725 66.3856 128.505 66.2266C128.388 66.1485 128.257 66.095 128.119 66.0693C127.982 66.0437 127.84 66.0464 127.703 66.0774C127.567 66.1084 127.438 66.1669 127.324 66.2495C127.211 66.332 127.115 66.4368 127.044 66.5575L123.161 73.1071C122.705 73.8755 122.566 74.7916 122.774 75.6608C122.982 76.53 123.52 77.2837 124.274 77.7618C125.149 78.3164 126.169 78.5967 127.203 78.567C128.238 78.5372 129.24 78.1987 130.081 77.5948L136.093 73.2795C136.293 73.1307 136.436 72.9186 136.501 72.6778C136.565 72.437 136.546 72.1814 136.447 71.9526Z" fill="#E98862"/>
<g opacity="0.25">
<path d="M129.562 70.2337C129.576 70.2538 129.598 70.2675 129.623 70.2717C129.647 70.2759 129.672 70.2703 129.693 70.2561L133.475 67.6323C133.485 67.6252 133.494 67.6161 133.501 67.6055C133.508 67.595 133.512 67.5832 133.515 67.5709C133.517 67.5586 133.517 67.5459 133.514 67.5337C133.511 67.5214 133.506 67.5098 133.499 67.4995C133.492 67.4892 133.483 67.4804 133.472 67.4737C133.462 67.4669 133.45 67.4623 133.438 67.46C133.426 67.4578 133.413 67.458 133.401 67.4607C133.388 67.4633 133.377 67.4684 133.367 67.4755L129.584 70.0993C129.574 70.1064 129.565 70.1155 129.558 70.126C129.551 70.1365 129.547 70.1482 129.545 70.1606C129.542 70.1729 129.542 70.1855 129.545 70.1978C129.548 70.21 129.553 70.2216 129.56 70.232L129.562 70.2337Z" fill="#0C0C0C"/>
</g>
<g opacity="0.25">
<path d="M130.67 71.9359C130.685 71.956 130.707 71.9696 130.732 71.9737C130.756 71.9779 130.781 71.9723 130.802 71.9581L135.023 69.03C135.033 69.0229 135.042 69.0138 135.049 69.0033C135.056 68.9928 135.06 68.981 135.062 68.9687C135.065 68.9564 135.065 68.9438 135.062 68.9315C135.059 68.9193 135.054 68.9076 135.047 68.8973C135.032 68.8773 135.01 68.8636 134.986 68.8591C134.961 68.8545 134.936 68.8595 134.915 68.8729L130.694 71.8011C130.683 71.8082 130.674 71.8172 130.668 71.8278C130.661 71.8383 130.656 71.85 130.654 71.8623C130.652 71.8747 130.652 71.8873 130.654 71.8996C130.657 71.9118 130.662 71.9234 130.669 71.9337L130.67 71.9359Z" fill="#0C0C0C"/>
</g>
<g opacity="0.25">
<path d="M131.862 73.7865C131.876 73.8066 131.898 73.8201 131.923 73.8243C131.947 73.8284 131.973 73.8228 131.993 73.8087L135.36 71.4731C135.381 71.4587 135.395 71.4366 135.4 71.4117C135.404 71.3868 135.399 71.3611 135.384 71.3404C135.37 71.3196 135.348 71.3053 135.323 71.3008C135.298 71.2963 135.272 71.3019 135.252 71.3163L131.884 73.6519C131.874 73.659 131.865 73.668 131.859 73.6785C131.852 73.6891 131.847 73.7008 131.845 73.7131C131.843 73.7255 131.843 73.7381 131.845 73.7503C131.848 73.7626 131.853 73.7742 131.86 73.7845L131.862 73.7865Z" fill="#0C0C0C"/>
</g>
<path d="M120.867 71.6147L109.457 91.0754L95.5354 72.7878L83.9727 83.2268L103.718 108.836L103.848 109.018C104.638 110.102 105.691 110.967 106.907 111.531C108.123 112.095 109.463 112.339 110.8 112.241C112.136 112.143 113.426 111.706 114.547 110.971C115.669 110.235 116.585 109.226 117.209 108.039L133.434 78.6138L120.867 71.6147Z" fill="#367CFF"/>
<path d="M108.339 93.4162C108.314 93.4162 108.29 93.4098 108.268 93.3977C108.247 93.3855 108.229 93.368 108.216 93.3468C108.203 93.3256 108.195 93.3015 108.194 93.2766C108.193 93.2518 108.199 93.2271 108.21 93.205L109.329 91.0102C109.349 90.9807 109.379 90.9596 109.413 90.9508C109.448 90.942 109.484 90.9461 109.516 90.9623C109.548 90.9786 109.572 91.0058 109.585 91.0389C109.598 91.0721 109.599 91.1089 109.587 91.1424L108.468 93.3372C108.456 93.3609 108.438 93.3808 108.415 93.3947C108.392 93.4086 108.366 93.4161 108.339 93.4162Z" fill="#0C0C0C"/>
<path d="M94.7335 90.9657L94.3853 97.1123L94.6746 97.1287L95.0229 90.9822L94.7335 90.9657Z" fill="#0C0C0C"/>
<path d="M57.9722 46.481C57.9722 46.481 57.4365 53.3227 55.8707 55.7889C51.3597 62.8892 49.9832 70.9195 54.3697 75.174C58.7563 79.4285 87.0389 79.8148 89.2933 70.172C91.1912 62.0539 87.3301 61.134 86.4657 54.4089C86.0746 51.3659 84.9759 44.9819 84.9759 44.9819" fill="#0A0A0A"/>
<path d="M82.0931 68.6308C82.0444 68.6242 81.5023 77.6281 71.0583 76.843C63.8278 76.3007 61.2496 68.6179 61.084 68.6179C61.8632 68.452 63.1762 68.2109 63.5225 68.0258C64.6611 67.4129 66.0698 66.7754 66.4368 64.5611C66.6484 63.285 66.2894 56.7559 66.4 55.4648L77.4995 57.9457C77.3444 60.6729 76.2591 66.9952 80.0634 68.115C80.6953 68.2989 81.3771 68.4691 82.0931 68.6308Z" fill="#E98862"/>
<path opacity="0.52" d="M77.6543 65.5301C77.4807 64.969 77.3687 64.3905 77.3205 63.805C77.1987 62.4689 77.2232 61.1234 77.3935 59.7926C75.1377 59.4876 73.0125 58.5551 71.2594 57.1011C71.0534 57.8634 69.9201 61.1939 70.2337 61.9184C70.8276 63.2878 73.6138 65.5301 77.6543 65.5301Z" fill="#0C0C0C"/>
<path d="M76.1836 62.6959C71.8034 63.069 66.1623 61.2508 65.057 55.4016L64.0587 50.124C62.9534 44.2749 65.125 38.952 70.6239 37.9097C76.123 36.8674 81.1292 40.83 82.2345 46.6792L82.676 49.0157C83.1007 51.26 83.9992 62.0299 76.1836 62.6959Z" fill="#E98862"/>
<path d="M81.1083 49.2709C81.489 49.2709 81.7977 48.9618 81.7977 48.5805C81.7977 48.1992 81.489 47.8901 81.1083 47.8901C80.7276 47.8901 80.4189 48.1992 80.4189 48.5805C80.4189 48.9618 80.7276 49.2709 81.1083 49.2709Z" fill="#0C0C0C"/>
<path d="M74.0458 50.2153C74.4265 50.2153 74.7352 49.9062 74.7352 49.5249C74.7352 49.1436 74.4265 48.8345 74.0458 48.8345C73.6651 48.8345 73.3564 49.1436 73.3564 49.5249C73.3564 49.9062 73.6651 50.2153 74.0458 50.2153Z" fill="#0C0C0C"/>
<path d="M77.9228 54.5861C77.9264 54.5859 77.9299 54.5854 77.9335 54.5847C78.1562 54.5407 78.3763 54.4846 78.5929 54.4164C78.9163 54.3123 79.3397 54.1399 79.2847 53.8475C79.2219 53.5141 77.6305 50.0919 77.4494 49.7017C77.4415 49.6849 77.4304 49.6698 77.4168 49.6572C77.4031 49.6447 77.3871 49.635 77.3696 49.6286C77.3522 49.6223 77.3337 49.6194 77.3152 49.6203C77.2966 49.6211 77.2784 49.6256 77.2616 49.6334C77.2448 49.6413 77.2297 49.6524 77.2172 49.6661C77.2047 49.6798 77.195 49.6958 77.1887 49.7133C77.1823 49.7307 77.1795 49.7493 77.1803 49.7678C77.1811 49.7864 77.1856 49.8046 77.1935 49.8214C77.8721 51.279 78.9647 53.6758 79.0071 53.9001C78.9706 54.004 78.4339 54.2018 77.8809 54.3067C77.8452 54.3137 77.8136 54.3342 77.7926 54.364C77.7717 54.3937 77.763 54.4304 77.7684 54.4664C77.7738 54.5025 77.7929 54.535 77.8216 54.5573C77.8504 54.5796 77.8866 54.5899 77.9228 54.5861Z" fill="#0C0C0C"/>
<path d="M77.1077 57.1117C78.0046 56.9953 78.8616 56.6695 79.6098 56.1606C79.6407 56.1399 79.6624 56.1079 79.6699 56.0714C79.6774 56.0349 79.6702 55.9969 79.6499 55.9656C79.6296 55.9344 79.5978 55.9124 79.5614 55.9046C79.525 55.8967 79.487 55.9035 79.4556 55.9235C77.8368 56.9797 76.2282 57.1507 74.8046 56.4176C74.7758 56.402 74.7462 56.388 74.716 56.3754C74.6808 56.363 74.6422 56.365 74.6086 56.381C74.5749 56.397 74.5489 56.4257 74.5362 56.4608C74.5236 56.4959 74.5253 56.5346 74.541 56.5684C74.5567 56.6023 74.5851 56.6285 74.6201 56.6415C74.6313 56.6461 74.6498 56.6561 74.6756 56.6695C75.4243 57.056 76.2711 57.2099 77.1077 57.1117Z" fill="#0C0C0C"/>
<path d="M59.6608 51.9637L64.5904 51.0587C68.3236 49.5467 69.4527 43.0732 69.4527 43.0732C69.4527 43.0732 73.9873 47.4994 84.9768 44.982C84.9768 44.982 82.7733 29.6337 66.5382 34.0965C61.3028 35.5353 57.546 40.8187 58.014 47.8796C58.342 52.828 59.6608 51.9637 59.6608 51.9637Z" fill="#0A0A0A"/>
<path d="M65.7337 57.1194C64.0625 57.4365 62.3697 55.9025 62.0533 54.2289C61.737 52.5552 62.9173 51.3756 64.5885 51.0586L65.6614 52.0167L67.1711 56.8468L65.7337 57.1194Z" fill="#E98862"/>
<path d="M78.4569 46.9051C78.9447 46.5898 79.5082 46.4117 80.0884 46.3895C80.3738 46.3769 80.6596 46.4071 80.936 46.4793C81.2098 46.5498 81.4737 46.6545 81.7214 46.7909C81.7551 46.8088 81.7807 46.8391 81.7926 46.8754C81.8045 46.9118 81.8019 46.9513 81.7854 46.9858C81.7688 47.0202 81.7395 47.0469 81.7037 47.0602C81.6678 47.0735 81.6283 47.0723 81.5933 47.057L81.5826 47.0521C81.3536 46.9395 81.1115 46.8561 80.8618 46.8039C80.615 46.7509 80.3616 46.7357 80.1103 46.7587C79.6115 46.8005 79.1327 46.9736 78.7223 47.2606L78.7092 47.2704C78.6615 47.302 78.6034 47.3139 78.5471 47.3037C78.4909 47.2934 78.4407 47.2618 78.4072 47.2153C78.3737 47.1689 78.3594 47.1113 78.3674 47.0545C78.3753 46.9978 78.4049 46.9463 78.4498 46.9109L78.4569 46.9051Z" fill="#0C0C0C"/>
<path d="M74.0601 47.9419C73.5741 47.8227 73.0654 47.8343 72.5854 47.9758C72.3428 48.0453 72.112 48.1511 71.9009 48.2896C71.6869 48.4287 71.4912 48.5942 71.3184 48.7823L71.3106 48.7901C71.2836 48.8172 71.2471 48.8328 71.2088 48.8334C71.1706 48.8341 71.1335 48.8199 71.1055 48.7938C71.0775 48.7676 71.0608 48.7316 71.0588 48.6934C71.0568 48.6551 71.0697 48.6175 71.0949 48.5886C71.2765 48.3718 71.4847 48.1787 71.7146 48.0141C71.9464 47.8468 72.2019 47.7153 72.4727 47.6239C73.0214 47.4349 73.6108 47.3972 74.1792 47.5146C74.2366 47.527 74.2868 47.5618 74.3187 47.6112C74.3506 47.6607 74.3616 47.7208 74.3492 47.7784C74.3369 47.8359 74.3022 47.8862 74.2528 47.9182C74.2034 47.9501 74.1434 47.9611 74.0859 47.9487L74.0769 47.9465L74.0601 47.9419Z" fill="#0C0C0C"/>
<path d="M77.2988 58.4397C77.4613 58.4209 77.6219 58.3883 77.779 58.3422C77.7968 58.337 77.8134 58.3284 77.8279 58.3169C77.8425 58.3053 77.8545 58.2909 77.8635 58.2747C77.8725 58.2584 77.8782 58.2406 77.8803 58.2221C77.8823 58.2036 77.8808 58.1849 77.8756 58.1671C77.8705 58.1492 77.8619 58.1326 77.8504 58.118C77.8388 58.1035 77.8245 58.0914 77.8082 58.0824C77.792 58.0734 77.7742 58.0677 77.7557 58.0656C77.7373 58.0635 77.7186 58.0651 77.7008 58.0703C76.7557 58.3427 76.2183 57.9817 76.1957 57.9661C76.165 57.9446 76.127 57.9361 76.0901 57.9425C76.0532 57.949 76.0203 57.9699 75.9988 58.0006C75.9773 58.0314 75.9688 58.0694 75.9753 58.1064C75.9817 58.1433 76.0026 58.1762 76.0333 58.1978C76.4145 58.4224 76.8617 58.5079 77.2988 58.4397Z" fill="#0C0C0C"/>
<path d="M64.6005 50.9957L64.5518 50.8592C70.7975 48.6136 69.2702 42.4755 69.2541 42.4138L69.3941 42.377C69.4105 42.4404 70.9738 48.7053 64.6005 50.9957Z" fill="#0C0C0C"/>
<path opacity="0.1" d="M73.4889 55.0175C74.21 54.9398 74.7484 54.4473 74.6915 53.9176C74.6346 53.3878 74.0039 53.0214 73.2828 53.0991C72.5616 53.1768 72.0232 53.6692 72.0801 54.199C72.137 54.7287 72.7677 55.0952 73.4889 55.0175Z" fill="#0C0C0C"/>
<path opacity="0.1" d="M81.1217 52.9909C81.1802 53.5198 81.8106 53.8859 82.5317 53.8091C82.6563 53.7956 82.7792 53.7692 82.8984 53.7303C82.939 53.1009 82.9471 52.4951 82.9361 51.934C82.7367 51.8817 82.5294 51.8672 82.3247 51.891C81.6034 51.9676 81.0653 52.459 81.1217 52.9909Z" fill="#0C0C0C"/>
<path d="M95.0659 88.4533C94.7369 92.3238 93.1366 116.472 92.8205 121.239H49.1288C48.8826 116.939 47.8774 98.1371 46.9435 89.7285C46.0523 81.7053 44.3034 77.6875 45.5852 75.3159C47.6794 71.4384 53.404 69.1987 57.307 68.6695C59.6904 68.3464 63.2751 68.1147 63.2751 68.1147C63.2751 68.1147 63.5787 74.2639 70.8158 74.606C80.6678 75.0716 80.0099 68.1147 80.0588 68.1147C81.6547 68.1147 90.7731 69.1266 93.0029 70.4508C99.0813 74.0544 95.7643 80.2501 95.0659 88.4533Z" fill="#367CFF"/>
<path d="M122.232 91.1568L118.198 110.794C118.116 111.193 117.9 111.551 117.586 111.81C117.272 112.068 116.879 112.211 116.473 112.215L88.6939 112.452C88.4289 112.454 88.1668 112.397 87.9267 112.284C87.6867 112.172 87.4748 112.007 87.3065 111.802C87.1381 111.597 87.0177 111.357 86.954 111.1C86.8903 110.842 86.8849 110.573 86.9382 110.313L90.9726 90.6764C91.0546 90.2777 91.2706 89.9192 91.5845 89.6606C91.8985 89.402 92.2914 89.259 92.6979 89.2554L120.477 89.0186C120.742 89.0165 121.004 89.0737 121.244 89.1861C121.484 89.2985 121.696 89.4632 121.864 89.6682C122.032 89.8731 122.153 90.1132 122.216 90.3708C122.28 90.6283 122.285 90.8969 122.232 91.1568Z" fill="#292A2E"/>
<path d="M96.3306 105.105C96.3456 105.364 96.2667 105.619 96.1084 105.824C95.9502 106.029 95.7232 106.17 95.4695 106.22L94.6146 106.409C94.6299 106.414 94.6437 106.423 94.6548 106.434C94.6658 106.446 94.6739 106.46 94.6781 106.476C94.6803 106.494 94.6763 106.512 94.6667 106.528C94.8723 106.586 95.0547 106.706 95.1887 106.873C95.3228 107.039 95.4017 107.243 95.4145 107.457C95.4157 107.705 95.3331 107.947 95.18 108.143C95.027 108.339 94.8124 108.478 94.571 108.537L87.3498 110.142C86.9806 110.225 86.6034 110.267 86.225 110.267C85.3822 110.267 84.5521 110.061 83.8062 109.668C83.0602 109.276 82.421 108.707 81.9434 108.011C81.4371 107.275 81.2373 106.371 81.3868 105.49C81.5362 104.609 82.023 103.821 82.7436 103.294L88.8863 98.7967C89.0215 98.6975 89.1787 98.6327 89.3444 98.6079L88.7789 101.357L88.9297 101.322L88.9616 101.317L93.6725 100.355C94.197 100.239 94.916 100.431 95.0088 101.029C95.0585 101.258 95.0294 101.497 94.9262 101.707C94.8231 101.918 94.6519 102.087 94.4405 102.187C94.4434 102.19 94.4492 102.193 94.4492 102.199C94.4492 102.205 94.4463 102.208 94.4463 102.214L95.2609 102.034C95.4099 102 95.5644 102.001 95.7133 102.035C95.8621 102.069 96.0016 102.135 96.1216 102.23C96.2417 102.324 96.3394 102.444 96.4076 102.581C96.4758 102.718 96.5129 102.868 96.5161 103.021C96.5161 103.265 96.4318 103.501 96.2775 103.69C96.1233 103.879 95.9085 104.009 95.6697 104.057L95.3188 104.135C95.3161 104.147 95.3188 104.16 95.3132 104.167C95.5688 104.169 95.8145 104.266 96.0026 104.44C96.1906 104.613 96.3075 104.85 96.3306 105.105Z" fill="#E98862"/>
<g opacity="0.25">
<path d="M89.7569 103.166C89.7623 103.191 89.777 103.212 89.798 103.226C89.8189 103.24 89.8444 103.244 89.8689 103.239L94.3762 102.313C94.401 102.308 94.4226 102.293 94.4365 102.272C94.4504 102.251 94.4553 102.225 94.4502 102.2C94.4451 102.175 94.4304 102.154 94.4093 102.14C94.3882 102.126 94.3625 102.121 94.3377 102.126L89.8304 103.053C89.8059 103.058 89.7844 103.073 89.7707 103.094C89.7571 103.115 89.7522 103.141 89.7574 103.165L89.7569 103.166Z" fill="#0C0C0C"/>
</g>
<g opacity="0.25">
<path d="M90.1094 105.169C90.115 105.193 90.1298 105.214 90.1508 105.228C90.1717 105.241 90.197 105.246 90.2214 105.241L95.2515 104.208C95.2761 104.203 95.2975 104.188 95.3112 104.167C95.3249 104.146 95.3297 104.12 95.3246 104.095C95.3188 104.071 95.3038 104.05 95.2829 104.036C95.262 104.023 95.2366 104.018 95.2121 104.022L90.1819 105.055C90.1574 105.061 90.136 105.075 90.1223 105.096C90.1087 105.118 90.1038 105.143 90.1089 105.168L90.1094 105.169Z" fill="#0C0C0C"/>
</g>
<g opacity="0.25">
<path d="M90.4795 107.339C90.4849 107.364 90.4996 107.385 90.5206 107.399C90.5415 107.413 90.567 107.417 90.5916 107.412L94.6038 106.588C94.6162 106.586 94.628 106.581 94.6385 106.574C94.6491 106.567 94.6581 106.558 94.6651 106.548C94.6721 106.537 94.677 106.526 94.6794 106.513C94.6819 106.501 94.6818 106.488 94.6793 106.476C94.6768 106.463 94.6718 106.452 94.6647 106.441C94.6576 106.431 94.6485 106.422 94.6379 106.415C94.6273 106.408 94.6155 106.403 94.6031 106.401C94.5907 106.399 94.5779 106.399 94.5656 106.402L90.5531 107.226C90.5285 107.231 90.5071 107.246 90.4934 107.267C90.4797 107.288 90.4749 107.314 90.48 107.338L90.4795 107.339Z" fill="#0C0C0C"/>
</g>
<path d="M86.9022 113.003L47.7253 120.094C46.5028 120.227 45.2661 120.075 44.1122 119.649C42.9584 119.223 41.9187 118.535 41.0749 117.639C40.231 116.743 39.6059 115.664 39.2486 114.486C38.8913 113.307 38.8116 112.062 39.0155 110.847L44.5003 78.1991C44.8506 76.1144 46.0135 74.2546 47.7331 73.0286C48.5845 72.4215 49.547 71.9884 50.5656 71.7539C51.5843 71.5194 52.639 71.4881 53.6697 71.6618C54.7004 71.8355 55.6868 72.2109 56.5726 72.7664C57.4585 73.3219 58.2264 74.0467 58.8325 74.8994C59.4387 75.7521 59.8711 76.716 60.1053 77.7362C60.3395 78.7563 60.3707 79.8126 60.1973 80.8448L56.4584 103.319L85.1808 99.7063L86.9022 113.003Z" fill="#367CFF"/>
<path d="M47.7234 120.239C47.6887 120.236 47.656 120.221 47.6313 120.197C47.6066 120.172 47.5913 120.14 47.5884 120.105C47.5855 120.07 47.595 120.036 47.6153 120.007C47.6356 119.979 47.6653 119.959 47.699 119.951L86.7401 112.885L85.054 99.8683L56.4738 103.463C56.4516 103.466 56.4289 103.463 56.4078 103.456C56.3866 103.448 56.3675 103.436 56.3521 103.419C56.3364 103.403 56.3247 103.383 56.318 103.362C56.3114 103.34 56.3098 103.317 56.3136 103.295L58.691 88.9311C58.6939 88.9122 58.7005 88.894 58.7106 88.8778C58.7206 88.8615 58.7337 88.8474 58.7493 88.8363C58.7648 88.8251 58.7824 88.8173 58.8011 88.8131C58.8197 88.8089 58.839 88.8084 58.8578 88.8118C58.8765 88.8149 58.8945 88.8217 58.9107 88.8318C58.9269 88.8419 58.9409 88.8551 58.9519 88.8706C58.963 88.8861 58.9709 88.9037 58.9752 88.9222C58.9794 88.9408 58.98 88.9601 58.9768 88.9789L56.6311 103.151L85.1607 99.5625C85.1987 99.558 85.2369 99.5686 85.2672 99.592C85.2975 99.6155 85.3174 99.6499 85.3226 99.6879L87.0449 112.985C87.0494 113.022 87.0397 113.059 87.0179 113.089C86.996 113.119 86.9635 113.14 86.9271 113.146L47.7495 120.236C47.7408 120.238 47.7321 120.239 47.7234 120.239Z" fill="#0C0C0C"/>
<path d="M56.4347 103.177L53.9146 103.581L53.9604 103.867L56.4805 103.463L56.4347 103.177Z" fill="#0C0C0C"/>
<path d="M189.221 43.1645C189.225 40.212 188.638 37.2887 187.497 34.5665C186.355 31.8443 184.681 29.3784 182.574 27.3137C180.467 25.249 177.968 23.6273 175.226 22.544C172.483 21.4607 169.552 20.9378 166.605 21.0059C154.64 21.2754 144.975 31.2181 145.009 43.2042C145.015 46.2982 145.67 49.3564 146.932 52.1804C148.194 55.0045 150.034 57.5312 152.335 59.5968C157.284 64.0549 160.222 70.3253 160.214 76.9917V77.016L173.938 77.0319V77.0075C173.946 70.3499 176.883 64.0825 181.841 59.6456C184.162 57.5751 186.019 55.0362 187.291 52.1958C188.563 49.3553 189.221 46.2775 189.221 43.1645Z" fill="#0CBC8B"/>
<path d="M173.73 45.3629C173.503 45.0702 173.108 44.8883 172.557 44.8264C171.623 44.7217 170.556 45.2517 169.64 46.2842L169.551 46.3817L169.482 46.271C169.359 46.0714 169.219 45.8828 169.063 45.7075C168.404 44.9676 167.215 44.2121 165.289 44.8073C164.642 44.9961 164.047 45.331 163.549 45.7865L163.482 45.8499L163.415 45.7865C163.261 45.646 163.093 45.5208 162.915 45.4126C161.833 44.752 160.626 44.9102 159.805 45.1595C159.577 45.2291 159.382 45.3797 159.257 45.583C159.133 45.7862 159.086 46.0282 159.127 46.2632L164.507 77.0542C164.516 77.106 164.545 77.1521 164.588 77.1823C164.631 77.2126 164.684 77.2246 164.735 77.2157C164.787 77.2068 164.833 77.1776 164.863 77.1347C164.893 77.0918 164.905 77.0387 164.896 76.9869L159.516 46.1969C159.491 46.0568 159.518 45.9125 159.593 45.7912C159.667 45.6699 159.783 45.58 159.919 45.5384C160.663 45.3131 161.751 45.1666 162.709 45.7521C162.867 45.8473 163.014 45.9579 163.15 46.0823L163.217 46.1437L163.161 46.2149C162.703 46.8206 162.448 47.5557 162.431 48.3154C162.38 49.6049 162.938 50.8945 163.677 51.1872C163.82 51.2456 163.975 51.2639 164.127 51.2398C164.28 51.2158 164.422 51.1504 164.54 51.0508C164.791 50.845 165.173 50.3012 164.927 48.9741C164.708 47.8052 164.331 46.8768 163.803 46.2091L163.746 46.1379L163.813 46.0745C164.269 45.6597 164.813 45.3558 165.405 45.1863C166.77 44.7651 167.933 45.0341 168.767 45.9716C168.954 46.1828 169.117 46.4144 169.252 46.6619L169.284 46.7173L169.246 46.7688C169.173 46.8663 169.102 46.9665 169.033 47.0695C168.235 48.2561 167.599 49.9451 168.089 50.8511C168.186 51.0267 168.331 51.1707 168.507 51.2659C168.683 51.3611 168.883 51.4033 169.082 51.3876H169.1C169.507 51.3818 169.849 51.1108 170.06 50.6282C170.474 49.6847 170.352 48.0847 169.774 46.821L169.748 46.7656L169.788 46.718C170.587 45.7489 171.496 45.209 172.309 45.209C172.378 45.209 172.446 45.2129 172.513 45.2187C173.552 45.3375 173.536 45.8772 173.532 45.9386L169.14 76.9999C169.136 77.0256 169.137 77.0518 169.144 77.0769C169.15 77.1021 169.162 77.1257 169.177 77.1465C169.193 77.1672 169.212 77.1847 169.235 77.1978C169.257 77.211 169.282 77.2197 169.308 77.2232C169.359 77.2288 169.411 77.2145 169.452 77.1833C169.494 77.1521 169.522 77.1063 169.531 77.0552L173.921 45.9991C173.942 45.7703 173.874 45.5421 173.73 45.3629ZM164.538 49.0453C164.755 50.2141 164.437 50.6236 164.289 50.7443C164.207 50.815 164.103 50.8543 163.995 50.855C163.936 50.8543 163.878 50.8429 163.823 50.8214C163.314 50.6175 162.776 49.5457 162.825 48.3312C162.845 47.6933 163.046 47.0744 163.405 46.5471L163.482 46.4364L163.565 46.5451C164.072 47.2953 164.404 48.1496 164.538 49.0453ZM169.698 50.4692C169.548 50.8106 169.345 50.9874 169.094 50.9913H169.057C168.932 51.005 168.807 50.981 168.696 50.9225C168.586 50.864 168.495 50.7736 168.437 50.6631C168.096 50.0303 168.492 48.5805 169.362 47.2909L169.469 47.1326L169.547 47.2948C169.969 48.4002 170.032 49.7057 169.698 50.469V50.4692Z" fill="white"/>
<path d="M160.222 76.9961L173.946 77.0098L173.945 77.8131C173.944 79.6358 173.219 81.383 171.931 82.6705C170.643 83.958 168.896 84.6803 167.077 84.6785C165.257 84.6766 163.512 83.9509 162.226 82.6608C160.941 81.3707 160.22 79.622 160.221 77.7994L160.222 76.9961Z" fill="#262626"/>
</svg>
