<svg width="312" height="259" viewBox="0 0 312 259" fill="none" xmlns="http://www.w3.org/2000/svg">
<path d="M88.9514 105.723L217.423 105.723C220.578 105.723 223.135 103.166 223.135 100.011V5.94984C223.135 2.79498 220.578 0.237457 217.423 0.237457L88.9514 0.237457C85.7965 0.237457 83.239 2.79498 83.239 5.94984V100.011C83.239 103.166 85.7965 105.723 88.9514 105.723Z" fill="white"/>
<path d="M217.423 105.959H88.9513C87.3743 105.957 85.8625 105.33 84.7474 104.215C83.6324 103.1 83.0052 101.588 83.0034 100.011V5.94979C83.0052 4.37286 83.6324 2.86102 84.7474 1.74596C85.8625 0.630897 87.3743 0.00369279 88.9513 0.00195312L217.423 0.00195313C219 0.00369265 220.512 0.630888 221.627 1.74594C222.742 2.86099 223.369 4.37283 223.371 5.94979V100.011C223.369 101.588 222.742 103.1 221.627 104.215C220.512 105.33 219 105.957 217.423 105.959ZM88.9513 0.472888C87.4992 0.474552 86.1071 1.05212 85.0803 2.07887C84.0536 3.10563 83.476 4.49774 83.4744 5.94979V100.011C83.476 101.463 84.0536 102.855 85.0803 103.882C86.1071 104.908 87.4992 105.486 88.9513 105.488H217.423C218.875 105.486 220.267 104.908 221.294 103.882C222.321 102.855 222.898 101.463 222.9 100.011V5.94979C222.898 4.49771 222.321 3.10561 221.294 2.07886C220.267 1.05211 218.875 0.474552 217.423 0.472888H88.9513Z" fill="#292A2E"/>
<path d="M99.8867 9.09683L90.7047 9.96754C89.7563 10.0575 89.0605 10.8992 89.1504 11.8475L90.0211 21.0296C90.111 21.9779 90.9527 22.6738 91.9011 22.5839L101.083 21.7132C102.031 21.6233 102.727 20.7816 102.637 19.8332L101.767 10.6512C101.677 9.70279 100.835 9.0069 99.8867 9.09683Z" fill="#292A2E"/>
<path d="M126.035 29.0159L116.864 28.0292C115.917 27.9273 115.067 28.6125 114.965 29.5597L113.978 38.73C113.876 39.6771 114.562 40.5276 115.509 40.6295L124.679 41.6161C125.626 41.718 126.477 41.0328 126.578 40.0857L127.565 30.9154C127.667 29.9682 126.982 29.1178 126.035 29.0159Z" fill="white"/>
<path d="M124.867 41.9124C124.794 41.9123 124.721 41.9084 124.648 41.9006L115.478 40.9139C114.948 40.8563 114.463 40.5908 114.128 40.1756C113.794 39.7605 113.638 39.2296 113.694 38.6995L114.681 29.5297C114.709 29.2672 114.789 29.0127 114.915 28.7809C115.042 28.5492 115.213 28.3446 115.419 28.1789C115.624 28.0132 115.86 27.8896 116.114 27.8153C116.367 27.7409 116.633 27.7172 116.895 27.7454L126.065 28.7322C126.596 28.7894 127.081 29.0548 127.416 29.47C127.75 29.8852 127.906 30.4163 127.849 30.9465L126.863 40.1163C126.81 40.6089 126.577 41.0647 126.209 41.3961C125.84 41.7276 125.363 41.9114 124.867 41.9124H124.867ZM124.709 41.3323C125.089 41.3731 125.469 41.2615 125.766 41.0221C126.063 40.7826 126.253 40.4349 126.294 40.0555L127.281 30.8854C127.322 30.5059 127.21 30.1257 126.971 29.8284C126.731 29.5312 126.383 29.3412 126.004 29.3003L116.834 28.3138C116.646 28.2936 116.456 28.3106 116.274 28.3638C116.093 28.4171 115.924 28.5055 115.777 28.6241C115.629 28.7427 115.507 28.8891 115.417 29.055C115.326 29.2209 115.269 29.403 115.249 29.5909L114.262 38.7607C114.222 39.1402 114.334 39.5202 114.573 39.8173C114.812 40.1145 115.16 40.3045 115.539 40.3458L124.709 41.3323Z" fill="#292A2E"/>
<path d="M166.726 43.5553C166.679 43.5553 166.633 43.5438 166.591 43.5218C166.55 43.4998 166.515 43.4679 166.488 43.429C160.67 34.7744 151.843 33.1987 145.461 33.3987C141.145 33.563 136.884 34.4224 132.842 35.9437C132.772 35.972 132.694 35.9716 132.624 35.9425C132.555 35.9134 132.5 35.8581 132.471 35.7885C132.442 35.7189 132.442 35.6407 132.47 35.5709C132.499 35.5011 132.554 35.4454 132.623 35.4159C136.729 33.8694 141.058 32.9954 145.443 32.8275C151.967 32.6223 160.998 34.2386 166.963 43.1098C166.992 43.1528 167.008 43.2028 167.011 43.2545C167.014 43.3062 167.002 43.3577 166.978 43.4035C166.954 43.4492 166.917 43.4874 166.873 43.5141C166.829 43.5408 166.778 43.5549 166.726 43.555V43.5553Z" fill="#292A2E"/>
<path d="M166.832 43.6727C166.806 43.6726 166.78 43.669 166.754 43.6619L160.899 42.0082C160.826 41.9876 160.764 41.9389 160.727 41.8727C160.69 41.8066 160.681 41.7285 160.701 41.6555C160.722 41.5826 160.771 41.5208 160.837 41.4838C160.903 41.4467 160.981 41.4375 161.054 41.4581L166.634 43.0338L168.21 37.4534C168.232 37.3821 168.281 37.3223 168.347 37.2866C168.412 37.251 168.489 37.2424 168.561 37.2627C168.633 37.283 168.694 37.3306 168.731 37.3953C168.768 37.46 168.779 37.5366 168.76 37.6089L167.107 43.4641C167.09 43.5241 167.054 43.5769 167.004 43.6145C166.955 43.6522 166.894 43.6726 166.832 43.6727Z" fill="#292A2E"/>
<path d="M176.015 46.2355L166.833 47.1062C165.885 47.1961 165.189 48.0378 165.279 48.9862L166.15 58.1682C166.239 59.1166 167.081 59.8125 168.029 59.7226L177.212 58.8519C178.16 58.7619 178.856 57.9202 178.766 56.9719L177.895 47.7898C177.805 46.8415 176.964 46.1456 176.015 46.2355Z" fill="#2F80ED"/>
<path d="M206.024 18.0077L196.82 17.4159C195.869 17.3547 195.049 18.0758 194.988 19.0265L194.396 28.2307C194.335 29.1814 195.056 30.0016 196.007 30.0627L205.211 30.6545C206.162 30.7156 206.982 29.9945 207.043 29.0439L207.635 19.8397C207.696 18.889 206.975 18.0688 206.024 18.0077Z" fill="#292A2E"/>
<path d="M211.225 48.0432L202.054 47.0566C201.107 46.9547 200.257 47.6399 200.155 48.587L199.168 57.7573C199.066 58.7045 199.751 59.5549 200.699 59.6568L209.869 60.6435C210.816 60.7454 211.667 60.0602 211.768 59.113L212.755 49.9427C212.857 48.9956 212.172 48.1452 211.225 48.0432Z" fill="#0CBC8B"/>
<path d="M160.886 77.9167L151.704 78.7874C150.756 78.8773 150.06 79.719 150.15 80.6674L151.02 89.8494C151.11 90.7978 151.952 91.4936 152.9 91.4037L162.082 90.533C163.031 90.4431 163.727 89.6014 163.637 88.653L162.766 79.471C162.676 78.5226 161.834 77.8267 160.886 77.9167Z" fill="white"/>
<path d="M152.736 91.6977C152.237 91.6967 151.755 91.5098 151.385 91.1732C151.015 90.8366 150.784 90.3745 150.736 89.8768L149.865 80.6947C149.816 80.164 149.979 79.6352 150.318 79.2244C150.658 78.8135 151.147 78.5542 151.677 78.5032L160.859 77.6325C161.122 77.6076 161.387 77.6347 161.639 77.7122C161.892 77.7898 162.127 77.9163 162.33 78.0846C162.534 78.2529 162.702 78.4596 162.826 78.6929C162.949 78.9262 163.026 79.1817 163.05 79.4445L163.921 88.6263C163.971 89.1571 163.808 89.6859 163.468 90.0967C163.129 90.5075 162.64 90.7669 162.109 90.8178L152.928 91.6885C152.863 91.6945 152.799 91.6977 152.736 91.6977ZM161.052 78.1949C161.006 78.1949 160.96 78.1972 160.914 78.2015L151.731 79.0713C151.351 79.1077 151.001 79.2934 150.758 79.5875C150.515 79.8816 150.398 80.2602 150.434 80.6402L151.305 89.822C151.341 90.2016 151.527 90.5513 151.821 90.7943C152.115 91.0374 152.494 91.154 152.873 91.1187L162.055 90.248C162.435 90.2116 162.785 90.0259 163.028 89.7318C163.271 89.4377 163.388 89.0591 163.352 88.6792L162.482 79.4974C162.448 79.1413 162.282 78.8105 162.018 78.5696C161.753 78.3286 161.409 78.1948 161.051 78.194L161.052 78.1949Z" fill="#292A2E"/>
<path d="M101.681 74.8112L92.4986 75.6819C91.5503 75.7718 90.8544 76.6135 90.9443 77.5619L91.815 86.7439C91.905 87.6923 92.7467 88.3882 93.695 88.2982L102.877 87.4275C103.825 87.3376 104.521 86.4959 104.431 85.5475L103.561 76.3655C103.471 75.4171 102.629 74.7213 101.681 74.8112Z" fill="#2F80ED"/>
<path d="M175.143 41.5582C175.132 41.5582 175.121 41.5576 175.11 41.5565C175.073 41.5522 175.037 41.5406 175.004 41.5223C174.971 41.5041 174.942 41.4796 174.919 41.4502C174.896 41.4208 174.878 41.3871 174.868 41.351C174.858 41.3149 174.855 41.2771 174.859 41.2398C175.288 38.3548 176.18 35.558 177.501 32.957C180.358 27.4181 184.84 24.2413 190.457 23.7681C190.533 23.7617 190.608 23.7856 190.665 23.8345C190.723 23.8834 190.759 23.9533 190.766 24.0289C190.772 24.1044 190.748 24.1793 190.699 24.2372C190.65 24.2952 190.581 24.3313 190.505 24.3376C177.403 25.4395 175.445 41.1467 175.427 41.3053C175.419 41.3748 175.385 41.439 175.333 41.4857C175.281 41.5323 175.213 41.5581 175.143 41.5582Z" fill="#292A2E"/>
<path d="M187.74 27.1693C187.683 27.1693 187.628 27.1526 187.581 27.1213C187.534 27.0899 187.497 27.0453 187.476 26.9932C187.454 26.941 187.448 26.8836 187.459 26.8281C187.47 26.7727 187.497 26.7218 187.537 26.6817L190.178 24.0296L187.526 21.3892C187.498 21.3629 187.476 21.3314 187.461 21.2965C187.446 21.2617 187.438 21.2242 187.438 21.1863C187.438 21.1484 187.445 21.1107 187.459 21.0756C187.473 21.0404 187.494 21.0085 187.521 20.9816C187.548 20.9547 187.58 20.9334 187.615 20.919C187.65 20.9045 187.688 20.8972 187.726 20.8975C187.764 20.8977 187.801 20.9055 187.836 20.9204C187.871 20.9353 187.902 20.957 187.929 20.9842L190.783 23.8264C190.837 23.88 190.867 23.9527 190.867 24.0285C190.867 24.1042 190.837 24.1769 190.783 24.2305L187.941 27.085C187.915 27.1116 187.883 27.1328 187.849 27.1472C187.814 27.1617 187.777 27.1692 187.74 27.1693Z" fill="#292A2E"/>
<path d="M156.565 73.6471C156.504 73.6471 156.444 73.6275 156.395 73.5911C156.346 73.5547 156.31 73.5035 156.292 73.4451C156.249 73.3053 152.14 59.427 162.779 53.6704C162.812 53.6517 162.848 53.6397 162.886 53.6353C162.924 53.6308 162.962 53.6339 162.999 53.6444C163.035 53.6549 163.069 53.6726 163.099 53.6964C163.128 53.7203 163.153 53.7497 163.171 53.7832C163.189 53.8166 163.2 53.8533 163.204 53.8911C163.208 53.9289 163.204 53.9671 163.193 54.0034C163.181 54.0397 163.163 54.0734 163.139 54.1025C163.114 54.1316 163.084 54.1556 163.051 54.173C152.826 59.7045 156.798 73.1413 156.839 73.2765C156.852 73.3192 156.855 73.3644 156.848 73.4084C156.84 73.4525 156.822 73.4942 156.796 73.5301C156.769 73.566 156.735 73.5952 156.695 73.6153C156.655 73.6355 156.611 73.646 156.566 73.646L156.565 73.6471Z" fill="#292A2E"/>
<path d="M161.692 57.4827C161.646 57.4826 161.6 57.4713 161.559 57.4495C161.518 57.4278 161.482 57.3964 161.456 57.3581C161.43 57.3197 161.414 57.2755 161.408 57.2294C161.403 57.1832 161.409 57.1365 161.426 57.0932L162.618 54.0307L159.556 52.8373C159.486 52.8089 159.431 52.7545 159.401 52.6857C159.372 52.6169 159.37 52.5392 159.398 52.4694C159.425 52.3996 159.478 52.3432 159.546 52.3124C159.615 52.2816 159.692 52.2788 159.763 52.3047L163.092 53.6003C163.127 53.6139 163.159 53.6343 163.186 53.6603C163.213 53.6862 163.235 53.7173 163.25 53.7516C163.265 53.786 163.273 53.823 163.274 53.8605C163.274 53.8981 163.268 53.9354 163.254 53.9704L161.958 57.2992C161.938 57.3531 161.901 57.3995 161.854 57.4322C161.806 57.465 161.75 57.4826 161.692 57.4827Z" fill="#292A2E"/>
<path d="M121.024 26.4455C120.949 26.4455 120.876 26.4154 120.822 26.3618C120.769 26.3082 120.739 26.2355 120.739 26.1597C120.739 21.8187 119.458 18.5051 116.93 16.311C112.444 12.4169 105.466 13.3556 105.396 13.3656C105.321 13.3764 105.244 13.3568 105.184 13.3114C105.123 13.2659 105.083 13.1982 105.072 13.1232C105.061 13.0481 105.081 12.9719 105.126 12.9113C105.172 12.8506 105.24 12.8106 105.315 12.7998C105.61 12.7573 112.616 11.8122 117.302 15.8769C119.962 18.1844 121.31 21.6441 121.31 26.1597C121.31 26.1973 121.303 26.2344 121.288 26.2691C121.274 26.3038 121.253 26.3353 121.226 26.3618C121.2 26.3883 121.168 26.4094 121.134 26.4238C121.099 26.4381 121.062 26.4455 121.024 26.4455Z" fill="#292A2E"/>
<path d="M121.038 26.5476C121.029 26.5476 121.02 26.5476 121.011 26.5476C120.973 26.5441 120.937 26.5332 120.904 26.5157C120.871 26.4981 120.841 26.4742 120.817 26.4453L118.248 23.3422C118.199 23.2838 118.176 23.2086 118.183 23.1331C118.19 23.0576 118.227 22.9881 118.285 22.9397C118.344 22.8914 118.419 22.8682 118.495 22.8753C118.57 22.8824 118.64 22.9192 118.688 22.9776L121.077 25.8618L123.959 23.4751C123.988 23.4512 124.022 23.4332 124.057 23.4221C124.093 23.4111 124.131 23.4072 124.168 23.4108C124.206 23.4143 124.242 23.4251 124.275 23.4427C124.308 23.4603 124.338 23.4842 124.362 23.5131C124.386 23.542 124.404 23.5753 124.415 23.6112C124.426 23.6471 124.43 23.6848 124.426 23.7221C124.423 23.7595 124.412 23.7958 124.394 23.829C124.377 23.8621 124.353 23.8915 124.324 23.9154L121.219 26.483C121.168 26.5249 121.104 26.5478 121.038 26.5476Z" fill="#292A2E"/>
<path d="M127.357 57.9697H118.133C117.181 57.9697 116.408 58.742 116.408 59.6946V68.9178C116.408 69.8704 117.181 70.6427 118.133 70.6427H127.357C128.309 70.6427 129.081 69.8704 129.081 68.9178V59.6946C129.081 58.742 128.309 57.9697 127.357 57.9697Z" fill="#0CBC8B"/>
<path d="M150.846 74.8259C150.783 74.8258 150.721 74.8044 150.671 74.7653C150.621 74.7261 150.585 74.6713 150.57 74.6096C147.384 61.8646 131.806 62.7585 131.651 62.7691C131.613 62.7716 131.576 62.7667 131.54 62.7547C131.504 62.7427 131.472 62.7237 131.443 62.699C131.415 62.6743 131.392 62.6442 131.375 62.6105C131.358 62.5768 131.348 62.5401 131.346 62.5026C131.343 62.4651 131.348 62.4274 131.36 62.3918C131.372 62.3561 131.391 62.3232 131.416 62.2949C131.441 62.2666 131.471 62.2434 131.504 62.2267C131.538 62.21 131.575 62.2001 131.612 62.1975C134.482 62.1005 137.347 62.4776 140.093 63.3137C144.172 64.5879 149.396 67.5579 151.124 74.4696C151.133 74.506 151.135 74.5438 151.129 74.581C151.124 74.6181 151.111 74.6538 151.092 74.686C151.072 74.7182 151.047 74.7462 151.017 74.7686C150.987 74.7909 150.952 74.8071 150.916 74.8162C150.893 74.8224 150.87 74.8256 150.846 74.8259Z" fill="#292A2E"/>
<path d="M150.886 74.9221C150.826 74.9221 150.769 74.9036 150.72 74.8692L147.486 72.5743C147.425 72.5303 147.383 72.4637 147.37 72.389C147.358 72.3142 147.375 72.2375 147.419 72.1758C147.463 72.114 147.53 72.0722 147.604 72.0596C147.679 72.047 147.756 72.0646 147.818 72.1085L150.815 74.2357L152.952 71.1375C152.995 71.0757 153.061 71.0335 153.135 71.0201C153.209 71.0068 153.286 71.0233 153.348 71.0662C153.41 71.1091 153.453 71.1747 153.467 71.2489C153.48 71.3231 153.464 71.3997 153.422 71.4621L151.121 74.7986C151.099 74.8298 151.072 74.8564 151.04 74.8768C151.008 74.8973 150.973 74.9112 150.936 74.9178C150.919 74.9206 150.902 74.9221 150.886 74.9221Z" fill="#292A2E"/>
<path d="M291.373 258.688L291.934 258.58L283.162 171.414L282.601 171.522L291.373 258.688Z" fill="#494949"/>
<path d="M258.711 258.688L259.272 258.58L250.5 171.414L249.939 171.522L258.711 258.688Z" fill="#494949"/>
<path d="M186.513 258.688L185.952 258.58L194.724 171.414L195.285 171.522L186.513 258.688Z" fill="#494949"/>
<path d="M219.175 258.688L218.614 258.58L227.385 171.414L227.946 171.522L219.175 258.688Z" fill="#494949"/>
<path d="M230.805 133.05L225.681 171.429L226.247 171.504L231.371 133.125L230.805 133.05Z" fill="#494949"/>
<path d="M289.621 133.049L284.497 171.428L285.063 171.503L290.188 133.124L289.621 133.049Z" fill="#494949"/>
<path d="M225.733 174.277H283.262C284.814 174.277 286.073 173.019 286.073 171.467V171.467C286.073 169.914 284.814 168.656 283.262 168.656H225.733C224.18 168.656 222.922 169.914 222.922 171.467V171.467C222.922 173.019 224.18 174.277 225.733 174.277Z" fill="#292A2E"/>
<path opacity="0.8" d="M225.733 174.277H283.262C284.814 174.277 286.073 173.019 286.073 171.467V171.467C286.073 169.914 284.814 168.656 283.262 168.656H225.733C224.18 168.656 222.922 169.914 222.922 171.467V171.467C222.922 173.019 224.18 174.277 225.733 174.277Z" fill="white"/>
<path d="M222.636 171.467C222.637 170.646 222.964 169.859 223.544 169.279C224.125 168.698 224.912 168.372 225.733 168.371H283.262C284.083 168.371 284.871 168.697 285.452 169.278C286.032 169.859 286.358 170.646 286.358 171.467C286.358 172.288 286.032 173.076 285.452 173.657C284.871 174.237 284.083 174.564 283.262 174.564H225.733C224.912 174.563 224.125 174.236 223.544 173.655C222.964 173.075 222.637 172.288 222.636 171.467ZM225.733 168.942C225.063 168.942 224.421 169.208 223.947 169.682C223.474 170.155 223.208 170.797 223.208 171.467C223.208 172.137 223.474 172.779 223.947 173.252C224.421 173.726 225.063 173.992 225.733 173.992H283.262C283.932 173.992 284.574 173.726 285.047 173.252C285.521 172.779 285.787 172.137 285.787 171.467C285.787 170.797 285.521 170.155 285.047 169.682C284.574 169.208 283.932 168.942 283.262 168.942H225.733Z" fill="#292A2E"/>
<path d="M194.158 174.277H251.687C253.24 174.277 254.498 173.019 254.498 171.467V171.467C254.498 169.914 253.24 168.656 251.687 168.656H194.158C192.606 168.656 191.347 169.914 191.347 171.467V171.467C191.347 173.019 192.606 174.277 194.158 174.277Z" fill="white"/>
<path d="M191.06 171.467C191.061 170.646 191.388 169.859 191.969 169.278C192.549 168.698 193.337 168.372 194.158 168.371H251.687C252.508 168.371 253.296 168.697 253.877 169.278C254.457 169.859 254.783 170.646 254.783 171.467C254.783 172.288 254.457 173.076 253.877 173.657C253.296 174.237 252.508 174.564 251.687 174.564H194.158C193.337 174.563 192.549 174.236 191.968 173.656C191.388 173.075 191.061 172.288 191.06 171.467ZM194.158 168.943C193.826 168.943 193.498 169.008 193.192 169.135C192.885 169.262 192.607 169.448 192.372 169.682C192.138 169.917 191.952 170.195 191.825 170.501C191.698 170.807 191.633 171.136 191.633 171.467C191.633 171.799 191.698 172.127 191.825 172.433C191.952 172.74 192.138 173.018 192.372 173.253C192.607 173.487 192.885 173.673 193.192 173.8C193.498 173.927 193.826 173.992 194.158 173.992H251.687C252.357 173.992 252.999 173.726 253.472 173.253C253.946 172.779 254.212 172.137 254.212 171.467C254.212 170.798 253.946 170.156 253.472 169.682C252.999 169.209 252.357 168.943 251.687 168.943H194.158Z" fill="#292A2E"/>
<path d="M233.96 133.088H289.754C290.666 133.088 291.547 132.756 292.232 132.154C292.918 131.552 293.361 130.722 293.479 129.817L297.169 101.475C297.238 100.945 297.193 100.407 297.038 99.8955C296.882 99.3844 296.619 98.9124 296.267 98.511C295.914 98.1096 295.48 97.788 294.993 97.5677C294.507 97.3474 293.979 97.2334 293.444 97.2334H237.65C236.738 97.2331 235.856 97.5651 235.171 98.1672C234.485 98.7693 234.042 99.6005 233.924 100.505L230.234 128.847C230.165 129.377 230.209 129.916 230.365 130.427C230.521 130.938 230.784 131.41 231.136 131.811C231.489 132.213 231.923 132.534 232.41 132.755C232.897 132.975 233.425 133.089 233.96 133.088Z" fill="#292A2E"/>
<path opacity="0.8" d="M233.96 133.088H289.754C290.666 133.088 291.547 132.756 292.232 132.154C292.918 131.552 293.361 130.722 293.479 129.817L297.169 101.475C297.238 100.945 297.193 100.407 297.038 99.8955C296.882 99.3844 296.619 98.9124 296.267 98.511C295.914 98.1096 295.48 97.788 294.993 97.5677C294.507 97.3474 293.979 97.2334 293.444 97.2334H237.65C236.738 97.2331 235.856 97.5651 235.171 98.1672C234.485 98.7693 234.042 99.6005 233.924 100.505L230.234 128.847C230.165 129.377 230.209 129.916 230.365 130.427C230.521 130.938 230.784 131.41 231.136 131.811C231.489 132.213 231.923 132.534 232.41 132.755C232.897 132.975 233.425 133.089 233.96 133.088Z" fill="white"/>
<path d="M230.924 131.999C230.544 131.568 230.261 131.06 230.094 130.51C229.926 129.96 229.878 129.38 229.952 128.81L233.643 100.469C233.771 99.496 234.249 98.6032 234.986 97.9558C235.723 97.3084 236.67 96.9504 237.651 96.9482H293.445C294.02 96.9482 294.588 97.0708 295.112 97.3079C295.635 97.545 296.103 97.8911 296.482 98.3231C296.861 98.7551 297.144 99.263 297.312 99.813C297.479 100.363 297.527 100.942 297.453 101.512L293.763 129.854C293.634 130.826 293.157 131.719 292.419 132.367C291.682 133.014 290.735 133.372 289.754 133.374H233.959C233.385 133.374 232.817 133.251 232.293 133.014C231.77 132.777 231.303 132.431 230.924 131.999ZM237.65 97.5198C236.808 97.5219 235.995 97.8294 235.363 98.3852C234.73 98.941 234.32 99.7074 234.21 100.542L230.519 128.884C230.455 129.374 230.497 129.871 230.641 130.343C230.784 130.815 231.027 131.251 231.353 131.622C231.679 131.993 232.08 132.29 232.529 132.494C232.979 132.697 233.467 132.803 233.961 132.803H289.755C290.597 132.801 291.41 132.494 292.043 131.938C292.676 131.382 293.086 130.615 293.196 129.78L296.886 101.438C296.95 100.949 296.909 100.452 296.765 99.9794C296.621 99.5072 296.379 99.0711 296.053 98.7002C295.727 98.3293 295.326 98.0322 294.876 97.8286C294.427 97.6251 293.939 97.5198 293.445 97.5198H237.65Z" fill="#292A2E"/>
<path d="M230.804 133.088H286.598C287.511 133.088 288.392 132.756 289.077 132.154C289.762 131.552 290.205 130.722 290.323 129.817L294.014 101.475C294.083 100.945 294.038 100.407 293.882 99.8954C293.727 99.3844 293.464 98.9124 293.111 98.511C292.759 98.1096 292.325 97.788 291.838 97.5677C291.351 97.3474 290.823 97.2334 290.289 97.2334H234.495C233.583 97.2334 232.702 97.5653 232.017 98.1673C231.331 98.7692 230.889 99.6 230.771 100.505L227.08 128.846C227.011 129.376 227.056 129.915 227.211 130.426C227.367 130.937 227.629 131.409 227.982 131.81C228.334 132.212 228.768 132.534 229.255 132.754C229.742 132.974 230.27 133.088 230.804 133.088Z" fill="white"/>
<path d="M227.767 131.999C227.388 131.568 227.105 131.06 226.938 130.51C226.77 129.96 226.722 129.38 226.796 128.81L230.487 100.469C230.615 99.4958 231.093 98.6029 231.83 97.9555C232.567 97.3081 233.515 96.9502 234.496 96.9482H290.29C290.865 96.9482 291.433 97.0708 291.957 97.3079C292.48 97.545 292.948 97.8911 293.327 98.3231C293.706 98.7551 293.989 99.263 294.157 99.813C294.324 100.363 294.372 100.942 294.298 101.512L290.608 129.854C290.479 130.826 290.001 131.719 289.264 132.367C288.527 133.014 287.58 133.372 286.599 133.374H230.805C230.23 133.374 229.661 133.251 229.138 133.014C228.614 132.777 228.147 132.431 227.767 131.999ZM234.496 97.5198C233.653 97.5217 232.84 97.8291 232.208 98.385C231.575 98.9408 231.165 99.7073 231.054 100.542L227.364 128.884C227.3 129.374 227.341 129.871 227.485 130.343C227.629 130.815 227.872 131.251 228.198 131.622C228.523 131.993 228.924 132.29 229.374 132.494C229.824 132.697 230.312 132.803 230.805 132.803H286.599C287.441 132.801 288.254 132.494 288.887 131.938C289.52 131.382 289.93 130.615 290.04 129.78L293.731 101.439C293.794 100.949 293.753 100.452 293.609 99.9796C293.465 99.5074 293.223 99.0713 292.897 98.7004C292.571 98.3295 292.17 98.0323 291.72 97.8287C291.271 97.6252 290.783 97.5198 290.289 97.5198H234.496Z" fill="#292A2E"/>
<path d="M188.637 243.588C188.637 243.588 187.105 251.53 179.669 251.973C172.232 252.416 173.845 258.339 173.845 258.339H202.262V244.142L188.637 243.588Z" fill="#2F80ED"/>
<path d="M214.135 238.574C214.135 238.574 216.266 246.377 209.789 250.057C203.312 253.736 207.373 258.34 207.373 258.34L232.872 245.795L226.605 233.057L214.135 238.574Z" fill="#2F80ED"/>
<path d="M229.928 236.37L208.425 168.533H247.403C255.233 168.533 258.497 161.893 258.497 154.064C258.497 146.235 250.8 139.371 242.97 139.371H190.364C185.589 139.371 180.235 142.292 177.614 146.284C174.993 150.276 175.701 156.462 177.6 160.843L212.034 244.476" fill="#262626"/>
<path opacity="0.8" d="M229.928 236.37L208.425 168.533H247.403C255.233 168.533 258.497 161.893 258.497 154.064C258.497 146.235 250.8 139.371 242.97 139.371H190.364C185.589 139.371 180.235 142.292 177.614 146.284C174.993 150.276 175.701 156.462 177.6 160.843L212.034 244.476" fill="#0A0A0A"/>
<path d="M204.484 249.281L211.285 168.532L258.495 168.529C269.558 167.662 274.624 161.599 274.463 153.772C274.304 146.043 270.391 138.41 262.697 138.41H199.068C193.375 138.527 186.785 143.912 186.785 150.105L183.479 248.343" fill="#262626"/>
<path d="M277.684 138.505C277.684 138.505 279.781 152.177 276.457 159.779C272.308 169.269 256.755 168.529 256.755 168.529L257.631 138.41L277.684 138.505Z" fill="#262626"/>
<path d="M279.995 136.96L280.055 136.964C280.055 136.964 280.011 135.799 279.995 136.96Z" fill="#333333"/>
<path d="M279.919 136.96L279.98 136.964C279.98 136.964 279.936 135.799 279.919 136.96Z" fill="#333333"/>
<path d="M178.706 81.5285C178.818 81.3082 178.995 81.1278 179.213 81.0124C179.431 80.8969 179.679 80.852 179.924 80.8838C179.922 80.8621 179.927 80.8402 179.938 80.8213C179.949 80.8066 179.964 80.7952 179.981 80.7882C179.998 80.7813 180.017 80.779 180.036 80.7815L179.21 80.1894C178.963 80.0202 178.786 79.7675 178.711 79.4779C178.636 79.1884 178.668 78.8814 178.802 78.6137C178.942 78.3536 179.175 78.1549 179.453 78.0562C179.732 77.9575 180.038 77.9659 180.311 78.0797C180.309 78.0679 180.317 78.0568 180.318 78.0448L179.979 77.8016C179.747 77.6414 179.578 77.406 179.499 77.1353C179.421 76.8645 179.438 76.575 179.549 76.3157C179.622 76.1544 179.729 76.0113 179.864 75.8966C179.999 75.782 180.157 75.6987 180.328 75.6527C180.499 75.6068 180.678 75.5993 180.852 75.6309C181.026 75.6625 181.191 75.7323 181.335 75.8353L182.118 76.3965C182.121 76.392 182.118 76.3865 182.122 76.3822C182.125 76.3779 182.133 76.3762 182.138 76.3717C181.958 76.1693 181.852 75.9119 181.838 75.6416C181.823 75.3713 181.901 75.1042 182.059 74.884C182.428 74.2893 183.282 74.4108 183.788 74.7737L188.398 77.9576L187.574 76.5677C187.409 76.3008 187.35 75.9808 187.411 75.6725C187.472 75.3641 187.648 75.0904 187.903 74.9066C188.037 74.8163 188.189 74.7545 188.349 74.7248C188.508 74.6952 188.672 74.6984 188.831 74.7343C188.989 74.7701 189.138 74.8378 189.27 74.9333C189.401 75.0287 189.511 75.1499 189.594 75.2895L194.093 82.8622C194.621 83.7507 194.781 84.8099 194.54 85.8149C194.3 86.8199 193.676 87.6913 192.803 88.2442C191.791 88.8854 190.61 89.2096 189.412 89.1752C188.214 89.1407 187.053 88.7493 186.079 88.051L179.118 83.0616C178.887 82.8897 178.721 82.6449 178.646 82.3666C178.571 82.0884 178.592 81.7931 178.706 81.5285Z" fill="#E98862"/>
<g opacity="0.25">
<path d="M186.68 79.5402C186.663 79.5635 186.638 79.5792 186.609 79.584C186.581 79.5888 186.552 79.5823 186.528 79.5659L182.148 76.5326C182.125 76.5158 182.108 76.4904 182.103 76.4617C182.098 76.4331 182.105 76.4035 182.121 76.3796C182.138 76.3557 182.163 76.3392 182.192 76.3339C182.22 76.3286 182.25 76.3348 182.274 76.3511L186.654 79.385C186.666 79.3932 186.676 79.4037 186.684 79.4158C186.692 79.428 186.697 79.4416 186.7 79.4558C186.703 79.4701 186.702 79.4847 186.699 79.4989C186.696 79.5131 186.691 79.5266 186.682 79.5385L186.68 79.5402Z" fill="#0C0C0C"/>
</g>
<g opacity="0.25">
<path d="M185.395 81.5098C185.378 81.5331 185.353 81.5489 185.324 81.5537C185.296 81.5585 185.267 81.552 185.243 81.5356L180.356 78.1501C180.332 78.1335 180.316 78.1081 180.31 78.0793C180.305 78.0505 180.311 78.0208 180.328 77.9967C180.345 77.9734 180.37 77.9574 180.399 77.9521C180.427 77.9468 180.457 77.9525 180.481 77.9681L185.369 81.3535C185.381 81.3617 185.391 81.3722 185.399 81.3843C185.407 81.3965 185.413 81.4101 185.415 81.4243C185.418 81.4386 185.418 81.4532 185.415 81.4674C185.412 81.4816 185.406 81.495 185.398 81.507L185.395 81.5098Z" fill="#0C0C0C"/>
</g>
<g opacity="0.25">
<path d="M184.017 83.6488C184 83.6721 183.974 83.6879 183.946 83.6927C183.917 83.6975 183.888 83.691 183.865 83.6746L179.966 80.9741C179.942 80.9571 179.927 80.9317 179.922 80.9034C179.917 80.875 179.924 80.8459 179.94 80.8223C179.957 80.7987 179.982 80.7824 180.01 80.7769C180.038 80.7714 180.067 80.7772 180.091 80.7929L183.99 83.4934C184.002 83.5016 184.013 83.512 184.02 83.5242C184.028 83.5363 184.034 83.5499 184.036 83.5642C184.039 83.5784 184.039 83.5931 184.036 83.6073C184.033 83.6214 184.027 83.6349 184.019 83.6468L184.017 83.6488Z" fill="#0C0C0C"/>
</g>
<path d="M196.747 81.1377L209.959 103.638L226.079 82.4939L239.467 94.5636L216.603 124.173L216.453 124.384C215.538 125.637 214.319 126.637 212.911 127.289C211.502 127.941 209.951 128.223 208.403 128.11C206.856 127.997 205.362 127.491 204.064 126.641C202.765 125.791 201.705 124.625 200.982 123.251L182.195 89.2299L196.747 81.1377Z" fill="#2F80ED"/>
<path d="M211.253 106.344C211.282 106.344 211.31 106.336 211.335 106.322C211.36 106.308 211.381 106.288 211.396 106.263C211.411 106.239 211.42 106.211 211.421 106.182C211.422 106.154 211.416 106.125 211.403 106.1L210.108 103.562C210.087 103.524 210.052 103.495 210.01 103.482C209.968 103.47 209.923 103.474 209.884 103.493C209.846 103.513 209.816 103.547 209.802 103.589C209.788 103.63 209.79 103.675 209.809 103.714L211.104 106.252C211.118 106.28 211.139 106.303 211.166 106.319C211.192 106.335 211.222 106.344 211.253 106.344Z" fill="#0C0C0C"/>
<path d="M227.008 103.511L226.673 103.53L227.076 110.637L227.411 110.618L227.008 103.511Z" fill="#0C0C0C"/>
<path d="M269.578 52.0767C269.578 52.0767 270.197 59.9872 272.012 62.8388C277.235 71.0479 278.828 80.3328 273.749 85.2516C268.671 90.1704 235.921 90.6177 233.311 79.4698C231.113 70.0834 235.584 69.0198 236.585 61.244C237.038 57.7259 238.31 50.3447 238.31 50.3447" fill="#0A0A0A"/>
<path d="M241.648 77.6868C241.705 77.6794 242.332 88.0885 254.425 87.1821C262.798 86.5549 265.783 77.672 265.975 77.672C265.072 77.4802 263.552 77.2013 263.151 76.9861C261.833 76.2777 260.202 75.5408 259.777 72.9806C259.532 71.505 259.948 63.956 259.819 62.4629L246.968 65.3314C247.147 68.4845 248.404 75.7942 243.999 77.0879C243.266 77.3031 242.477 77.4999 241.648 77.6868Z" fill="#E98862"/>
<path opacity="0.52" d="M246.788 74.1016C246.989 73.4528 247.119 72.7839 247.174 72.1069C247.316 70.5622 247.288 69.0066 247.09 67.4679C249.703 67.1154 252.163 66.0372 254.193 64.356C254.432 65.2372 255.744 69.0882 255.381 69.9257C254.694 71.5091 251.466 74.1016 246.788 74.1016Z" fill="#0C0C0C"/>
<path d="M248.491 70.8257C253.563 71.2572 260.095 69.1546 261.375 62.3921L262.53 56.2899C263.81 49.5271 261.295 43.3735 254.928 42.1676C248.561 40.9625 242.764 45.5441 241.484 52.307L240.973 55.0083C240.481 57.6033 239.441 70.0556 248.491 70.8257Z" fill="#E98862"/>
<path d="M242.787 55.3028C243.228 55.3028 243.585 54.9455 243.585 54.5047C243.585 54.0639 243.228 53.7065 242.787 53.7065C242.346 53.7065 241.989 54.0639 241.989 54.5047C241.989 54.9455 242.346 55.3028 242.787 55.3028Z" fill="#0C0C0C"/>
<path d="M250.964 56.3941C251.405 56.3941 251.763 56.0368 251.763 55.596C251.763 55.1552 251.405 54.7979 250.964 54.7979C250.524 54.7979 250.166 55.1552 250.166 55.596C250.166 56.0368 250.524 56.3941 250.964 56.3941Z" fill="#0C0C0C"/>
<path d="M246.477 61.4492C246.473 61.4489 246.469 61.4484 246.465 61.4475C246.207 61.3966 245.952 61.3317 245.701 61.2529C245.327 61.1326 244.836 60.9331 244.901 60.5957C244.974 60.2104 246.816 56.2521 247.026 55.8026C247.045 55.7632 247.078 55.7328 247.118 55.7179C247.159 55.703 247.204 55.705 247.244 55.7233C247.283 55.7416 247.313 55.7748 247.328 55.8155C247.343 55.8563 247.341 55.9013 247.323 55.9406C246.537 57.6266 245.272 60.3985 245.223 60.6557C245.265 60.776 245.886 61.0043 246.526 61.1257C246.568 61.1332 246.606 61.1567 246.631 61.1913C246.655 61.2258 246.666 61.2687 246.659 61.3108C246.653 61.3529 246.631 61.3909 246.597 61.4167C246.563 61.4425 246.52 61.4541 246.478 61.4489L246.477 61.4492Z" fill="#0C0C0C"/>
<path d="M247.42 64.3686C246.381 64.2337 245.389 63.8566 244.522 63.2679C244.486 63.2442 244.461 63.207 244.452 63.1646C244.443 63.1221 244.451 63.0779 244.475 63.0415C244.498 63.0052 244.536 62.9798 244.578 62.9708C244.621 62.9619 244.665 62.9701 244.701 62.9938C246.575 64.2152 248.438 64.4126 250.087 63.5653C250.121 63.5471 250.155 63.5307 250.19 63.5165C250.231 63.5017 250.276 63.5038 250.315 63.5222C250.354 63.5406 250.385 63.5739 250.399 63.6146C250.414 63.6554 250.412 63.7004 250.394 63.7396C250.375 63.7789 250.342 63.8092 250.301 63.824C250.288 63.8294 250.267 63.8408 250.237 63.8562C249.37 64.3035 248.389 64.4819 247.42 64.3686Z" fill="#0C0C0C"/>
<path d="M267.624 58.4164L261.916 57.37C257.593 55.6205 256.286 48.137 256.286 48.137C256.286 48.137 251.036 53.255 238.312 50.3442C238.312 50.3442 240.864 32.5985 259.663 37.7582C265.724 39.4222 270.075 45.5309 269.533 53.6945C269.151 59.4157 267.624 58.4164 267.624 58.4164Z" fill="#0A0A0A"/>
<path d="M260.59 64.3767C262.525 64.7428 264.485 62.9697 264.851 61.0333C265.218 59.097 263.851 57.7342 261.916 57.3682L260.673 58.4761L258.926 64.0607L260.59 64.3767Z" fill="#E98862"/>
<path d="M245.859 52.5671C245.294 52.2026 244.642 51.9967 243.971 51.9711C243.64 51.9563 243.31 51.9913 242.99 52.0748C242.672 52.1562 242.367 52.2773 242.08 52.4351C242.043 52.4572 242.016 52.4921 242.004 52.5331C241.992 52.5741 241.995 52.6182 242.014 52.6567C242.033 52.6952 242.065 52.7254 242.105 52.7413C242.144 52.7572 242.189 52.7577 242.229 52.7426L242.241 52.7372C242.506 52.6074 242.786 52.5114 243.075 52.4514C243.361 52.3902 243.654 52.3727 243.945 52.3994C244.523 52.4475 245.077 52.6478 245.552 52.9798L245.567 52.9909C245.594 53.0135 245.626 53.0303 245.66 53.0402C245.694 53.0501 245.729 53.053 245.764 53.0487C245.799 53.0443 245.833 53.0328 245.863 53.0148C245.893 52.9969 245.92 52.9729 245.94 52.9444C245.961 52.9159 245.976 52.8834 245.983 52.849C245.991 52.8145 245.991 52.7789 245.985 52.7443C245.978 52.7097 245.964 52.6769 245.944 52.6478C245.924 52.6188 245.898 52.5941 245.869 52.5754L245.859 52.5671Z" fill="#0C0C0C"/>
<path d="M250.95 53.765C251.513 53.6274 252.102 53.6409 252.658 53.8042C252.939 53.8846 253.206 54.0071 253.45 54.1674C253.698 54.3281 253.925 54.5193 254.125 54.7366L254.134 54.7458C254.166 54.7743 254.207 54.7898 254.25 54.7894C254.293 54.7889 254.334 54.7725 254.365 54.7433C254.396 54.7141 254.415 54.6743 254.419 54.6317C254.422 54.5891 254.41 54.5467 254.384 54.5129C254.173 54.2622 253.932 54.039 253.666 53.8485C253.397 53.6549 253.102 53.5028 252.788 53.397C252.153 53.1784 251.47 53.1348 250.812 53.271C250.749 53.2889 250.696 53.33 250.662 53.3859C250.629 53.4418 250.618 53.5085 250.631 53.5723C250.645 53.636 250.682 53.6922 250.736 53.7295C250.79 53.7667 250.855 53.7822 250.92 53.7728L250.93 53.7702L250.95 53.765Z" fill="#0C0C0C"/>
<path d="M247.199 65.9032C247.011 65.8818 246.825 65.8444 246.643 65.7915C246.601 65.7795 246.566 65.7514 246.545 65.7134C246.524 65.6755 246.519 65.6307 246.531 65.589C246.543 65.5474 246.571 65.5122 246.609 65.4912C246.647 65.4702 246.692 65.4652 246.734 65.4772C247.828 65.7915 248.45 65.3749 248.477 65.3569C248.512 65.3319 248.556 65.3221 248.599 65.3296C248.642 65.3371 248.68 65.3612 248.705 65.3967C248.729 65.4322 248.739 65.4762 248.732 65.5189C248.724 65.5617 248.7 65.5997 248.665 65.6246C248.223 65.884 247.705 65.9824 247.199 65.9032Z" fill="#0C0C0C"/>
<path d="M261.904 57.2974L261.961 57.1394C254.729 54.5432 256.497 47.4461 256.516 47.3746L256.353 47.332C256.334 47.4049 254.525 54.6484 261.904 57.2974Z" fill="#0C0C0C"/>
<path opacity="0.1" d="M253.239 61.0001C253.305 60.3877 252.682 59.8183 251.847 59.7285C251.012 59.6387 250.282 60.0623 250.216 60.6748C250.15 61.2872 250.773 61.8565 251.608 61.9464C252.443 62.0362 253.173 61.6125 253.239 61.0001Z" fill="#0C0C0C"/>
<path opacity="0.1" d="M242.77 59.6039C242.703 60.2155 241.973 60.6387 241.138 60.5498C240.994 60.5344 240.851 60.5039 240.713 60.4589C240.666 59.7311 240.656 59.0301 240.67 58.382C240.9 58.3214 241.14 58.3046 241.377 58.3323C242.212 58.4209 242.836 58.9901 242.77 59.6039Z" fill="#0C0C0C"/>
<path d="M226.622 100.606C227.003 105.081 228.856 132.897 229.223 138.41L277.684 138.513C277.969 133.541 281.263 111.802 282.344 102.08C283.377 92.8033 285.402 88.1585 283.916 85.4158C281.491 80.9333 274.863 78.3432 270.342 77.7311C267.583 77.3576 263.432 77.0898 263.432 77.0898C263.432 77.0898 263.081 84.1993 254.7 84.5951C243.293 85.1332 244.054 77.0898 243.998 77.0898C242.15 77.0898 231.592 78.2595 229.009 79.7906C221.972 83.9573 225.813 91.1222 226.622 100.606Z" fill="#2F80ED"/>
<path d="M195.166 103.732L199.837 126.437C199.932 126.898 200.182 127.312 200.546 127.611C200.909 127.91 201.364 128.075 201.835 128.079L234.001 128.353C234.308 128.356 234.611 128.29 234.889 128.16C235.167 128.03 235.413 127.84 235.608 127.603C235.802 127.366 235.942 127.088 236.016 126.79C236.089 126.492 236.095 126.182 236.034 125.881L231.362 103.176C231.267 102.715 231.017 102.301 230.654 102.002C230.29 101.703 229.835 101.538 229.365 101.534L197.199 101.26C196.892 101.257 196.589 101.323 196.31 101.453C196.032 101.583 195.787 101.773 195.592 102.01C195.397 102.247 195.258 102.525 195.184 102.823C195.11 103.121 195.104 103.431 195.166 103.732Z" fill="#292A2E"/>
<path d="M225.16 119.859C225.143 120.158 225.234 120.453 225.418 120.69C225.601 120.927 225.863 121.09 226.157 121.148L227.147 121.366C227.129 121.372 227.113 121.382 227.101 121.396C227.088 121.409 227.078 121.426 227.073 121.444C227.071 121.465 227.076 121.486 227.087 121.504C226.849 121.571 226.637 121.71 226.482 121.903C226.327 122.095 226.236 122.331 226.221 122.578C226.219 122.866 226.315 123.145 226.492 123.372C226.669 123.599 226.918 123.759 227.197 123.827L235.559 125.684C235.986 125.78 236.423 125.828 236.861 125.827C237.837 125.827 238.798 125.59 239.662 125.135C240.526 124.681 241.266 124.023 241.819 123.219C242.405 122.368 242.637 121.322 242.464 120.304C242.291 119.285 241.727 118.374 240.893 117.764L233.78 112.564C233.623 112.449 233.441 112.374 233.25 112.345L233.904 115.524L233.73 115.484L233.693 115.477L228.238 114.368C227.63 114.234 226.798 114.454 226.69 115.147C226.633 115.411 226.666 115.688 226.786 115.931C226.905 116.174 227.103 116.37 227.348 116.486C227.344 116.489 227.337 116.492 227.337 116.499C227.337 116.506 227.341 116.509 227.341 116.516L226.398 116.308C226.225 116.27 226.047 116.27 225.874 116.31C225.702 116.349 225.541 116.426 225.402 116.535C225.263 116.644 225.15 116.782 225.071 116.94C224.992 117.098 224.949 117.272 224.945 117.448C224.945 117.73 225.043 118.004 225.221 118.222C225.4 118.441 225.649 118.591 225.925 118.647L226.331 118.737C226.335 118.751 226.331 118.764 226.338 118.774C226.042 118.776 225.757 118.889 225.54 119.089C225.322 119.29 225.186 119.564 225.16 119.859Z" fill="#E98862"/>
<g opacity="0.25">
<path d="M232.772 117.618C232.765 117.646 232.748 117.67 232.724 117.686C232.7 117.701 232.671 117.707 232.642 117.701L227.423 116.631C227.409 116.628 227.395 116.623 227.383 116.614C227.37 116.606 227.36 116.596 227.351 116.584C227.343 116.572 227.337 116.558 227.334 116.544C227.332 116.529 227.332 116.514 227.335 116.5C227.337 116.485 227.343 116.472 227.352 116.459C227.36 116.447 227.371 116.437 227.383 116.429C227.395 116.421 227.409 116.416 227.424 116.413C227.438 116.411 227.453 116.411 227.468 116.414L232.687 117.485C232.701 117.488 232.714 117.494 232.726 117.502C232.738 117.51 232.749 117.52 232.757 117.532C232.765 117.544 232.77 117.558 232.773 117.572C232.776 117.586 232.775 117.601 232.772 117.615L232.772 117.618Z" fill="#0C0C0C"/>
</g>
<g opacity="0.25">
<path d="M232.364 119.933C232.357 119.961 232.34 119.985 232.316 120.001C232.291 120.016 232.262 120.022 232.234 120.016L226.409 118.821C226.395 118.818 226.382 118.813 226.37 118.805C226.358 118.797 226.347 118.786 226.339 118.774C226.332 118.762 226.326 118.749 226.323 118.734C226.321 118.72 226.321 118.706 226.324 118.691C226.33 118.663 226.348 118.639 226.372 118.623C226.396 118.607 226.425 118.601 226.454 118.606L232.278 119.8C232.307 119.806 232.332 119.823 232.348 119.848C232.364 119.872 232.37 119.902 232.364 119.93L232.364 119.933Z" fill="#0C0C0C"/>
</g>
<g opacity="0.25">
<path d="M231.935 122.443C231.929 122.471 231.912 122.495 231.887 122.511C231.863 122.526 231.834 122.532 231.805 122.526L227.159 121.573C227.131 121.567 227.106 121.55 227.09 121.526C227.075 121.501 227.069 121.472 227.075 121.443C227.081 121.415 227.098 121.39 227.122 121.374C227.146 121.358 227.175 121.352 227.204 121.357L231.85 122.31C231.878 122.316 231.903 122.333 231.92 122.357C231.936 122.382 231.941 122.412 231.936 122.44L231.935 122.443Z" fill="#0C0C0C"/>
</g>
<path d="M236.076 128.991L281.44 137.189C282.856 137.343 284.288 137.167 285.624 136.675C286.96 136.182 288.164 135.387 289.141 134.351C290.118 133.315 290.842 132.067 291.256 130.705C291.669 129.342 291.762 127.902 291.526 126.498L285.175 88.7492C284.977 87.5528 284.545 86.4072 283.904 85.3781C283.263 84.3489 282.425 83.4564 281.439 82.7516C280.452 82.0469 279.336 81.5437 278.154 81.2711C276.973 80.9985 275.749 80.9617 274.553 81.1629C273.358 81.364 272.213 81.7991 271.186 82.4433C270.159 83.0875 269.269 83.9281 268.567 84.9169C267.865 85.9057 267.365 87.0233 267.096 88.2056C266.827 89.3879 266.794 90.6117 266.999 91.8068L271.331 117.794L238.071 113.617L236.076 128.991Z" fill="#2F80ED"/>
<path d="M281.44 137.358C281.482 137.357 281.522 137.341 281.552 137.313C281.583 137.285 281.602 137.246 281.605 137.204C281.609 137.163 281.597 137.121 281.572 137.088C281.547 137.055 281.51 137.032 281.469 137.025L236.261 128.855L238.214 113.805L271.305 117.961C271.331 117.965 271.358 117.962 271.383 117.954C271.408 117.945 271.43 117.93 271.448 117.911C271.466 117.892 271.479 117.87 271.487 117.845C271.495 117.82 271.497 117.794 271.493 117.768L268.742 101.161C268.738 101.139 268.731 101.118 268.719 101.099C268.707 101.08 268.692 101.064 268.674 101.051C268.656 101.038 268.636 101.029 268.614 101.024C268.593 101.019 268.57 101.019 268.549 101.023C268.505 101.03 268.466 101.054 268.44 101.091C268.414 101.127 268.403 101.172 268.411 101.216L271.125 117.601L238.091 113.453C238.047 113.448 238.003 113.46 237.968 113.487C237.933 113.514 237.91 113.554 237.904 113.598L235.91 128.972C235.904 129.014 235.915 129.058 235.941 129.092C235.966 129.127 236.004 129.151 236.046 129.159L281.41 137.355C281.42 137.357 281.43 137.358 281.44 137.358Z" fill="#0C0C0C"/>
<path d="M271.357 117.63L271.304 117.961L274.222 118.429L274.275 118.097L271.357 117.63Z" fill="#0C0C0C"/>
<path d="M311.801 258.52H0.200033C0.146981 258.52 0.0961018 258.499 0.0585883 258.461C0.0210748 258.424 0 258.373 0 258.32C0 258.267 0.0210748 258.216 0.0585883 258.178C0.0961018 258.141 0.146981 258.12 0.200033 258.12H311.8C311.853 258.12 311.904 258.141 311.941 258.178C311.979 258.216 312 258.267 312 258.32C312 258.373 311.979 258.424 311.941 258.461C311.904 258.499 311.853 258.52 311.8 258.52H311.801Z" fill="#292A2E"/>
<g opacity="0.65">
<path d="M311.801 258.519H0.200033C0.146981 258.519 0.0961018 258.498 0.0585883 258.461C0.0210748 258.423 0 258.372 0 258.319C0 258.266 0.0210748 258.215 0.0585883 258.178C0.0961018 258.14 0.146981 258.119 0.200033 258.119H311.8C311.853 258.119 311.904 258.14 311.941 258.178C311.979 258.215 312 258.266 312 258.319C312 258.372 311.979 258.423 311.941 258.461C311.904 258.498 311.853 258.519 311.8 258.519H311.801Z" fill="#292A2E"/>
</g>
<path d="M19.362 258.688L18.8008 258.58L27.5725 171.414L28.1337 171.522L19.362 258.688Z" fill="#494949"/>
<path d="M52.0236 258.688L51.4624 258.58L60.2338 171.414L60.7951 171.522L52.0236 258.688Z" fill="#494949"/>
<path d="M124.22 258.688L124.781 258.58L116.01 171.414L115.448 171.522L124.22 258.688Z" fill="#494949"/>
<path d="M91.5583 258.688L92.1195 258.58L83.3481 171.414L82.7869 171.522L91.5583 258.688Z" fill="#494949"/>
<path d="M79.9259 133.052L79.3594 133.128L84.4836 171.507L85.0501 171.431L79.9259 133.052Z" fill="#494949"/>
<path d="M21.1092 133.052L20.5427 133.128L25.667 171.507L26.2335 171.431L21.1092 133.052Z" fill="#494949"/>
<path d="M85.0023 168.658H27.4728C25.9206 168.658 24.6624 169.916 24.6624 171.468V171.468C24.6624 173.021 25.9206 174.279 27.4728 174.279H85.0023C86.5545 174.279 87.8128 173.021 87.8128 171.468V171.468C87.8128 169.916 86.5545 168.658 85.0023 168.658Z" fill="#292A2E"/>
<path opacity="0.8" d="M85.0023 168.658H27.4728C25.9206 168.658 24.6624 169.916 24.6624 171.468V171.468C24.6624 173.021 25.9206 174.279 27.4728 174.279H85.0023C86.5545 174.279 87.8128 173.021 87.8128 171.468V171.468C87.8128 169.916 86.5545 168.658 85.0023 168.658Z" fill="white"/>
<path d="M85.0019 174.564H27.4724C27.0658 174.564 26.6632 174.484 26.2876 174.328C25.9119 174.173 25.5706 173.945 25.2831 173.657C24.9956 173.37 24.7675 173.028 24.6119 172.653C24.4563 172.277 24.3762 171.874 24.3762 171.468C24.3762 171.061 24.4563 170.659 24.6119 170.283C24.7675 169.907 24.9956 169.566 25.2831 169.278C25.5706 168.991 25.9119 168.763 26.2876 168.607C26.6632 168.452 27.0658 168.372 27.4724 168.372H85.0019C85.8231 168.372 86.6106 168.698 87.1913 169.278C87.7719 169.859 88.0981 170.647 88.0981 171.468C88.0981 172.289 87.7719 173.077 87.1913 173.657C86.6106 174.238 85.8231 174.564 85.0019 174.564ZM27.4724 168.943C27.1409 168.943 26.8126 169.009 26.5063 169.136C26.2 169.262 25.9217 169.448 25.6872 169.683C25.4528 169.917 25.2668 170.196 25.1399 170.502C25.013 170.808 24.9477 171.137 24.9477 171.468C24.9477 171.8 25.013 172.128 25.1399 172.434C25.2668 172.741 25.4528 173.019 25.6872 173.253C25.9217 173.488 26.2 173.674 26.5063 173.801C26.8126 173.927 27.1409 173.993 27.4724 173.993H85.0019C85.6715 173.993 86.3137 173.727 86.7872 173.253C87.2606 172.78 87.5266 172.138 87.5266 171.468C87.5266 170.798 87.2606 170.156 86.7872 169.683C86.3137 169.209 85.6715 168.943 85.0019 168.943H27.4724Z" fill="#292A2E"/>
<path d="M116.577 168.658H59.0473C57.4951 168.658 56.2368 169.916 56.2368 171.468V171.468C56.2368 173.021 57.4951 174.279 59.0473 174.279H116.577C118.129 174.279 119.387 173.021 119.387 171.468V171.468C119.387 169.916 118.129 168.658 116.577 168.658Z" fill="white"/>
<path d="M116.576 174.564H59.0469C58.6403 174.564 58.2377 174.484 57.862 174.328C57.4864 174.173 57.1451 173.945 56.8575 173.657C56.57 173.37 56.342 173.028 56.1864 172.653C56.0308 172.277 55.9507 171.874 55.9507 171.468C55.9507 171.061 56.0308 170.659 56.1864 170.283C56.342 169.907 56.57 169.566 56.8575 169.278C57.1451 168.991 57.4864 168.763 57.862 168.607C58.2377 168.452 58.6403 168.372 59.0469 168.372H116.576C116.983 168.372 117.386 168.452 117.761 168.607C118.137 168.763 118.478 168.991 118.766 169.278C119.053 169.566 119.281 169.907 119.437 170.283C119.593 170.659 119.673 171.061 119.673 171.468C119.673 171.874 119.593 172.277 119.437 172.653C119.281 173.028 119.053 173.37 118.766 173.657C118.478 173.945 118.137 174.173 117.761 174.328C117.386 174.484 116.983 174.564 116.576 174.564ZM59.0469 168.943C58.7154 168.943 58.3871 169.009 58.0807 169.136C57.7744 169.262 57.4961 169.448 57.2617 169.683C57.0272 169.917 56.8413 170.196 56.7144 170.502C56.5875 170.808 56.5222 171.137 56.5222 171.468C56.5222 171.8 56.5875 172.128 56.7144 172.434C56.8413 172.741 57.0272 173.019 57.2617 173.253C57.4961 173.488 57.7744 173.674 58.0807 173.801C58.3871 173.927 58.7154 173.993 59.0469 173.993H116.576C116.908 173.993 117.236 173.927 117.543 173.801C117.849 173.674 118.127 173.488 118.362 173.253C118.596 173.019 118.782 172.741 118.909 172.434C119.036 172.128 119.101 171.8 119.101 171.468C119.101 171.137 119.036 170.808 118.909 170.502C118.782 170.196 118.596 169.917 118.362 169.683C118.127 169.448 117.849 169.262 117.543 169.136C117.236 169.009 116.908 168.943 116.576 168.943H59.0469Z" fill="#292A2E"/>
<path d="M76.7744 133.089H20.9804C20.0682 133.089 19.1871 132.757 18.5017 132.155C17.8163 131.553 17.3733 130.722 17.2555 129.818L13.5649 101.475C13.4959 100.945 13.5407 100.407 13.6964 99.8959C13.852 99.3849 14.1149 98.9129 14.4674 98.5115C14.8199 98.1101 15.254 97.7885 15.7407 97.5682C16.2274 97.3478 16.7555 97.2339 17.2898 97.2339H73.0838C73.996 97.2339 74.8771 97.5658 75.5625 98.1677C76.2479 98.7697 76.6909 99.6004 76.8087 100.505L80.4991 128.847C80.5682 129.377 80.5235 129.915 80.368 130.426C80.2124 130.937 79.9496 131.41 79.5971 131.811C79.2446 132.213 78.8104 132.534 78.3237 132.755C77.8369 132.975 77.3088 133.089 76.7744 133.089Z" fill="#292A2E"/>
<path opacity="0.8" d="M76.7744 133.089H20.9804C20.0682 133.089 19.1871 132.757 18.5017 132.155C17.8163 131.553 17.3733 130.722 17.2555 129.818L13.5649 101.475C13.4959 100.945 13.5407 100.407 13.6964 99.8959C13.852 99.3849 14.1149 98.9129 14.4674 98.5115C14.8199 98.1101 15.254 97.7885 15.7407 97.5682C16.2274 97.3478 16.7555 97.2339 17.2898 97.2339H73.0838C73.996 97.2339 74.8771 97.5658 75.5625 98.1677C76.2479 98.7697 76.6909 99.6004 76.8087 100.505L80.4991 128.847C80.5682 129.377 80.5235 129.915 80.368 130.426C80.2124 130.937 79.9496 131.41 79.5971 131.811C79.2446 132.213 78.8104 132.534 78.3237 132.755C77.8369 132.975 77.3088 133.089 76.7744 133.089Z" fill="white"/>
<path d="M76.7745 133.375H20.9804C19.9994 133.373 19.0524 133.015 18.3153 132.367C17.5782 131.72 17.1009 130.827 16.972 129.854L13.2817 101.513C13.2074 100.943 13.2556 100.363 13.423 99.8135C13.5904 99.2635 13.8733 98.7555 14.2526 98.3236C14.632 97.8916 15.0991 97.5455 15.6228 97.3084C16.1466 97.0713 16.7149 96.9487 17.2898 96.9487H73.0839C74.0649 96.9509 75.0118 97.3089 75.7489 97.9563C76.486 98.6037 76.9632 99.4965 77.0919 100.469L80.7825 128.811C80.8568 129.381 80.8086 129.96 80.6412 130.51C80.4737 131.06 80.1909 131.568 79.8115 132C79.4322 132.432 78.9651 132.778 78.4413 133.015C77.9176 133.252 77.3493 133.375 76.7745 133.375ZM17.2898 97.5203C16.7962 97.5203 16.3083 97.6256 15.8586 97.8291C15.409 98.0327 15.0079 98.3298 14.6822 98.7007C14.3565 99.0716 14.1136 99.5076 13.9698 99.9798C13.8261 100.452 13.7846 100.949 13.8484 101.439L17.539 129.781C17.6495 130.616 18.0593 131.382 18.6922 131.938C19.325 132.494 20.1381 132.801 20.9804 132.803H76.7745C77.2681 132.803 77.756 132.698 78.2056 132.494C78.6553 132.291 79.0564 131.994 79.3821 131.623C79.7078 131.252 79.9506 130.816 80.0944 130.344C80.2382 129.871 80.2796 129.374 80.2159 128.885L76.5267 100.543C76.4161 99.7077 76.0063 98.9412 75.3735 98.3854C74.7406 97.8295 73.9276 97.5222 73.0853 97.5203H17.2898Z" fill="#292A2E"/>
<path d="M79.9299 133.089H24.1359C23.2237 133.089 22.3427 132.757 21.6573 132.155C20.9719 131.553 20.529 130.722 20.4113 129.818L16.7206 101.475C16.6517 100.945 16.6965 100.407 16.8521 99.8959C17.0078 99.3849 17.2706 98.9129 17.6232 98.5115C17.9757 98.1101 18.4098 97.7885 18.8965 97.5682C19.3832 97.3478 19.9113 97.2339 20.4455 97.2339H76.2396C77.1518 97.2339 78.0328 97.5658 78.7182 98.1678C79.4035 98.7697 79.8464 99.6005 79.9642 100.505L83.6548 128.847C83.7239 129.377 83.6792 129.915 83.5236 130.426C83.368 130.937 83.1052 131.41 82.7527 131.811C82.4001 132.213 81.966 132.534 81.4792 132.755C80.9924 132.975 80.4642 133.089 79.9299 133.089Z" fill="white"/>
<path d="M79.9297 133.375H24.1356C23.1546 133.373 22.2077 133.014 21.4706 132.367C20.7335 131.72 20.2563 130.827 20.1275 129.854L16.4369 101.513C16.3627 100.943 16.4109 100.363 16.5784 99.8135C16.7459 99.2635 17.0288 98.7556 17.4081 98.3236C17.7875 97.8917 18.2546 97.5456 18.7784 97.3085C19.3021 97.0714 19.8704 96.9488 20.4453 96.9487H76.239C77.2201 96.951 78.167 97.309 78.9041 97.9563C79.6413 98.6037 80.1185 99.4965 80.2474 100.469L83.938 128.811C84.0122 129.381 83.9639 129.96 83.7964 130.51C83.6289 131.06 83.346 131.568 82.9667 132C82.5873 132.432 82.1202 132.778 81.5965 133.015C81.0728 133.252 80.5045 133.375 79.9297 133.375ZM20.4453 97.5203C19.9516 97.5202 19.4636 97.6254 19.0138 97.829C18.564 98.0325 18.1629 98.3296 17.8371 98.7006C17.5113 99.0715 17.2684 99.5076 17.1245 99.9799C16.9807 100.452 16.9393 100.95 17.003 101.439L20.6933 129.781C20.804 130.616 21.2139 131.382 21.8469 131.938C22.48 132.494 23.2932 132.801 24.1356 132.803H79.9297C80.4232 132.803 80.9112 132.698 81.3608 132.494C81.8105 132.291 82.2116 131.994 82.5373 131.623C82.863 131.252 83.1058 130.816 83.2496 130.344C83.3934 129.871 83.4348 129.374 83.3711 128.885L79.6805 100.543C79.5699 99.7077 79.1602 98.9411 78.5273 98.3853C77.8944 97.8295 77.0814 97.5221 76.239 97.5203H20.4453Z" fill="#292A2E"/>
<path d="M73.78 53.5078C73.78 53.5078 77.4877 50.7093 78.4065 44.2677C79.1177 39.28 74.517 42.5114 74.517 42.5114C74.517 42.5114 74.9942 38.9151 72.3737 39.272C69.7533 39.6289 68.2874 43.4067 68.2874 43.4067" fill="#0C0C0C"/>
<path d="M58.8315 39.6938C58.8315 39.6938 45.831 41.0878 50.5307 58.7044L51.6808 58.7813L54.0161 58.9379" fill="#0C0C0C"/>
<path d="M71.6026 77.1004C71.5454 77.093 70.9113 87.6164 58.6848 86.7C50.2205 86.0659 47.2023 77.0856 47.0085 77.0856C47.921 76.8915 49.0489 76.5972 49.497 76.496C50.4738 76.2693 51.3585 75.7506 52.0334 75.0088C52.7082 74.267 53.1412 73.3373 53.2747 72.3433C53.5222 70.8517 53.1033 63.2196 53.2316 61.7104L66.2243 64.6126C66.0425 67.8003 64.772 75.1904 69.2248 76.4983C69.9666 76.7132 70.7647 76.9124 71.6026 77.1004Z" fill="#E98862"/>
<path opacity="0.52" d="M66.4061 73.477C66.2026 72.8212 66.0716 72.145 66.0155 71.4607C65.8729 69.8988 65.9016 68.326 66.1012 66.7705C63.4604 66.414 60.9726 65.3241 58.9203 63.6245C58.6788 64.5155 57.352 68.4084 57.7201 69.2554C58.4131 70.856 61.6762 73.477 66.4061 73.477Z" fill="#0C0C0C"/>
<path d="M63.7255 71.3937C58.5998 70.9342 52.4648 67.6954 52.3762 60.7377L52.2951 54.4595C52.2065 47.5015 55.7894 41.8145 62.3404 41.7314C68.8915 41.648 73.86 47.2263 73.9486 54.184L73.9838 56.9636C73.9794 57.9181 73.9099 58.8711 73.7758 59.8161C73.4397 62.3165 72.9185 66.118 71.2216 68.6898C69.6202 71.1177 66.9998 71.6875 63.7255 71.3937Z" fill="#E98862"/>
<path d="M66.1027 65.0336C67.1605 65.0815 68.2148 64.8801 69.1806 64.4457C69.2006 64.4372 69.2187 64.4249 69.2338 64.4093C69.249 64.3938 69.261 64.3755 69.2691 64.3553C69.2772 64.3352 69.2812 64.3137 69.281 64.292C69.2808 64.2703 69.2763 64.2488 69.2678 64.2288C69.2592 64.2089 69.2469 64.1908 69.2314 64.1756C69.2158 64.1604 69.1975 64.1484 69.1774 64.1404C69.1572 64.1323 69.1357 64.1282 69.114 64.1284C69.0923 64.1287 69.0708 64.1332 69.0509 64.1417C66.9702 65.0276 65.0811 64.899 63.5877 63.7662C63.5576 63.7423 63.5263 63.72 63.4939 63.6993C63.4564 63.6817 63.4136 63.6788 63.3739 63.6912C63.3343 63.7036 63.3009 63.7305 63.2801 63.7665C63.2594 63.8024 63.253 63.8449 63.2621 63.8854C63.2712 63.9259 63.2952 63.9615 63.3293 63.9851C63.3414 63.9928 63.3608 64.008 63.3865 64.0285C64.1716 64.6266 65.1174 64.9766 66.1027 65.0336Z" fill="#0C0C0C"/>
<path d="M66.0539 66.6013C66.2451 66.613 66.4368 66.6084 66.6272 66.5876C66.6699 66.5818 66.7086 66.5597 66.7352 66.5258C66.7618 66.4918 66.7741 66.4489 66.7695 66.4061C66.765 66.3632 66.7439 66.3239 66.7107 66.2963C66.6776 66.2688 66.635 66.2553 66.592 66.2587C65.4473 66.3804 64.9006 65.8558 64.8775 65.8335C64.8462 65.8039 64.8046 65.7876 64.7616 65.7881C64.7185 65.7886 64.6773 65.8059 64.6468 65.8363C64.6163 65.8667 64.5989 65.9078 64.5982 65.9509C64.5975 65.994 64.6136 66.0356 64.6431 66.067C65.0376 66.4026 65.5361 66.5914 66.0539 66.6013Z" fill="#0C0C0C"/>
<path d="M71.7858 58.302C72.2314 58.302 72.5927 57.9407 72.5927 57.495C72.5927 57.0493 72.2314 56.688 71.7858 56.688C71.3401 56.688 70.9788 57.0493 70.9788 57.495C70.9788 57.9407 71.3401 58.302 71.7858 58.302Z" fill="#0C0C0C"/>
<path d="M63.9017 57.8069C64.3474 57.8069 64.7087 57.4456 64.7087 56.9999C64.7087 56.5542 64.3474 56.1929 63.9017 56.1929C63.456 56.1929 63.0947 56.5542 63.0947 56.9999C63.0947 57.4456 63.456 57.8069 63.9017 57.8069Z" fill="#0C0C0C"/>
<path d="M52.8092 62.852C50.8186 62.8775 49.1774 60.768 49.1514 58.7774C49.1254 56.7868 50.7263 55.668 52.7172 55.6426L53.7599 56.9636L54.5203 62.8303L52.8092 62.852Z" fill="#E98862"/>
<path d="M54.7906 59.6535C54.7906 59.6535 55.4627 49.8082 58.4484 49.2004C60.4367 48.7954 65.2584 51.6156 69.7245 50.764C71.6783 50.3926 73.5332 50.8749 73.7218 51.7979C73.7966 52.1634 75.0137 46.9114 71.954 42.9265C69.5179 39.7545 61.546 38.8572 57.9191 39.8974C47.8764 42.7782 52.3079 56.0763 52.3079 56.0763L52.7557 59.4706L54.7906 59.6535Z" fill="#0C0C0C"/>
<path d="M67.3071 62.7108H67.3197C67.9612 62.7043 69.0368 62.622 69.0325 62.1419C69.0283 61.7444 67.8964 57.4626 67.7672 56.9756C67.7561 56.9337 67.7288 56.8979 67.6913 56.8761C67.6538 56.8544 67.6092 56.8484 67.5673 56.8595C67.5254 56.8706 67.4896 56.8979 67.4678 56.9353C67.446 56.9728 67.44 57.0174 67.4511 57.0593C67.9541 58.9557 68.7028 61.875 68.7056 62.1459C68.6436 62.2602 67.9809 62.3777 67.3168 62.3845C67.2743 62.3845 67.2335 62.4011 67.2029 62.4307C67.1724 62.4603 67.1547 62.5006 67.1534 62.5431C67.1521 62.5856 67.1675 62.6269 67.1962 62.6583C67.2249 62.6897 67.2647 62.7086 67.3071 62.7111V62.7108Z" fill="#0C0C0C"/>
<path d="M69.4961 53.1195C70.1703 52.9341 70.8821 52.9341 71.5564 53.1195C71.8876 53.2087 72.2035 53.3471 72.4937 53.5298C72.7804 53.7091 73.0434 53.9237 73.2764 54.1688C73.3194 54.2125 73.3438 54.271 73.3447 54.3323C73.3456 54.3935 73.3229 54.4528 73.2812 54.4977C73.2396 54.5426 73.1822 54.5697 73.121 54.5734C73.0599 54.5771 72.9997 54.557 72.9529 54.5174L72.9386 54.5049C72.7228 54.3052 72.4828 54.1335 72.2242 53.9936C71.9705 53.8547 71.6971 53.755 71.4135 53.6979C70.8552 53.5809 70.2759 53.6132 69.7341 53.7916L69.7115 53.7996C69.6673 53.8153 69.6203 53.822 69.5735 53.8195C69.5266 53.8171 69.4807 53.8054 69.4383 53.7851C69.3959 53.7649 69.358 53.7365 69.3266 53.7016C69.2952 53.6667 69.271 53.626 69.2553 53.5817C69.2397 53.5374 69.2329 53.4905 69.2354 53.4437C69.2378 53.3968 69.2495 53.3508 69.2698 53.3085C69.29 53.2661 69.3184 53.2281 69.3533 53.1968C69.3882 53.1654 69.4289 53.1411 69.4732 53.1255C69.4809 53.1238 69.4889 53.1215 69.4961 53.1195Z" fill="#0C0C0C"/>
<path d="M64.7218 53.5254C64.2087 53.2761 63.6388 53.1668 63.0698 53.2085C62.7812 53.2273 62.4971 53.2897 62.2271 53.3937C61.9525 53.498 61.692 53.6363 61.4519 53.8055L61.4364 53.8155C61.3849 53.8503 61.3218 53.8636 61.2606 53.8525C61.1994 53.8413 61.145 53.8067 61.1091 53.7559C61.0732 53.7051 61.0586 53.6423 61.0684 53.5809C61.0783 53.5195 61.1118 53.4644 61.1618 53.4274C61.4254 53.2154 61.7147 53.0376 62.0228 52.8982C62.3348 52.7557 62.6663 52.6607 63.0064 52.6164C63.6993 52.5223 64.4048 52.6169 65.0485 52.8902C65.1356 52.9281 65.2042 52.999 65.239 53.0875C65.2738 53.1759 65.2721 53.2745 65.2342 53.3617C65.1963 53.4488 65.1253 53.5174 65.0369 53.5522C64.9485 53.587 64.8499 53.5853 64.7627 53.5474C64.7558 53.5446 64.7493 53.5414 64.7427 53.538L64.7218 53.5254Z" fill="#0C0C0C"/>
<path d="M68.5359 46.341C70.0095 46.0332 70.8368 44.0253 70.3836 41.8563C69.9305 39.6873 68.3685 38.1786 66.8948 38.4865C65.4212 38.7944 64.5939 40.8023 65.0471 42.9712C65.5003 45.1402 67.0622 46.6489 68.5359 46.341Z" fill="#0C0C0C"/>
<path d="M150.724 243.588C150.724 243.588 152.256 251.53 159.693 251.973C167.129 252.416 165.517 258.339 165.517 258.339H137.099V244.142L150.724 243.588Z" fill="#2F80ED"/>
<path d="M96.6619 238.573C96.6619 238.573 94.5299 246.376 101.008 250.056C107.486 253.736 103.424 258.339 103.424 258.339L77.9246 245.794L84.1916 233.055L96.6619 238.573Z" fill="#2F80ED"/>
<path d="M80.8689 236.369L102.372 168.532H63.3943C55.5645 168.532 52.3008 161.892 52.3008 154.063C52.3008 146.234 59.9978 139.37 67.8271 139.37H120.433C125.208 139.37 130.563 142.291 133.184 146.283C135.805 150.275 135.096 156.461 133.198 160.843L98.7633 244.475" fill="#262626"/>
<path opacity="0.8" d="M80.8689 236.369L102.372 168.532H63.3943C55.5645 168.532 52.3008 161.892 52.3008 154.063C52.3008 146.234 59.9978 139.37 67.8271 139.37H120.433C125.208 139.37 130.563 142.291 133.184 146.283C135.805 150.275 135.096 156.461 133.198 160.843L98.7633 244.475" fill="#0A0A0A"/>
<path d="M135.465 250.963L99.5112 168.531L52.3008 168.528C41.2384 167.661 36.1724 161.598 36.3333 153.771C36.4922 146.042 40.4054 138.409 48.0992 138.409H111.729C117.422 138.526 121.9 144.817 124.012 150.104L153.902 245.916" fill="#262626"/>
<path d="M33.1129 138.504C33.1129 138.504 31.0163 152.176 34.3397 159.778C38.4887 169.268 54.0421 168.528 54.0421 168.528L53.1657 138.409L33.1129 138.504Z" fill="#262626"/>
<path d="M125.364 138.237L92.0153 131.326C90.6257 131.039 89.3312 130.405 88.2514 129.484C87.1717 128.563 86.3416 127.385 85.838 126.058L72.7216 91.4939C72.3284 90.4578 72.1432 89.3545 72.1764 88.2468C72.2096 87.1392 72.4607 86.0489 72.9153 85.0383C73.3699 84.0277 74.0191 83.1165 74.8258 82.3568C75.6326 81.597 76.581 81.0037 77.6171 80.6105C78.6532 80.2173 79.7565 80.0321 80.8642 80.0653C81.9718 80.0986 83.0621 80.3496 84.0727 80.8042C85.0833 81.2588 85.9945 81.908 86.7542 82.7148C87.5139 83.5215 88.1073 84.47 88.5005 85.506L99.9744 115.74L128.789 121.71C128.789 121.71 125.942 138.356 125.364 138.237Z" fill="#2F80ED"/>
<path d="M86.7932 100.271C86.408 104.796 83.6784 133.022 83.3069 138.595H33.1346C32.8463 133.569 31.9104 112.229 30.8174 102.4C29.7738 93.0213 29.3954 87.669 30.5973 84.7542C32.7171 79.6137 38.0217 77.7639 42.5907 77.1453C45.3809 76.7675 49.5773 76.4966 49.5773 76.4966C49.5773 76.4966 49.9325 83.6843 58.4048 84.0844C69.9381 84.6274 69.168 76.4966 69.2248 76.4966C71.0934 76.4966 81.2637 77.8554 83.8067 79.5131C87.3984 81.854 88.46 85.0446 88.502 87.9756C88.5503 91.3505 87.2307 95.1399 86.7932 100.271Z" fill="#2F80ED"/>
<path d="M84.8203 123.337C84.8163 123.337 84.8123 123.337 84.8083 123.337C84.7706 123.334 84.7356 123.316 84.7111 123.287C84.6867 123.258 84.6746 123.221 84.6777 123.183L85.9802 107.536C85.9813 107.517 85.9862 107.499 85.9947 107.482C86.0031 107.465 86.0149 107.45 86.0294 107.438C86.0438 107.425 86.0606 107.416 86.0787 107.411C86.0967 107.405 86.1157 107.404 86.1345 107.406C86.1722 107.409 86.2071 107.427 86.2315 107.456C86.2559 107.485 86.2679 107.522 86.2648 107.56L84.9626 123.207C84.9595 123.242 84.9431 123.275 84.9168 123.299C84.8905 123.323 84.856 123.337 84.8203 123.337Z" fill="#0C0C0C"/>
<path d="M108.717 132.726L119.725 98.8856C119.919 98.2909 120.296 97.7728 120.802 97.4053C121.308 97.0378 121.917 96.8399 122.542 96.8398H167.393C167.861 96.8399 168.321 96.9506 168.738 97.1629C169.155 97.3752 169.515 97.683 169.79 98.0613C170.064 98.4396 170.246 98.8775 170.319 99.3393C170.392 99.8011 170.354 100.274 170.21 100.718L159.201 134.559C159.007 135.154 158.631 135.672 158.125 136.039C157.619 136.407 157.009 136.605 156.384 136.605H111.532C111.065 136.605 110.604 136.494 110.188 136.281C109.771 136.069 109.411 135.761 109.136 135.383C108.862 135.005 108.681 134.567 108.608 134.105C108.535 133.643 108.572 133.171 108.717 132.726Z" fill="#292A2E"/>
<path d="M108.717 132.726L119.725 98.8856C119.919 98.2909 120.296 97.7728 120.802 97.4053C121.308 97.0378 121.917 96.8399 122.542 96.8398H167.393C167.861 96.8399 168.321 96.9506 168.738 97.1629C169.155 97.3752 169.515 97.683 169.79 98.0613C170.064 98.4396 170.246 98.8775 170.319 99.3393C170.392 99.8011 170.354 100.274 170.21 100.718L159.201 134.559C159.007 135.154 158.631 135.672 158.125 136.039C157.619 136.407 157.009 136.605 156.384 136.605H111.532C111.065 136.605 110.604 136.494 110.188 136.281C109.771 136.069 109.411 135.761 109.136 135.383C108.862 135.005 108.681 134.567 108.608 134.105C108.535 133.643 108.572 133.171 108.717 132.726Z" fill="#292A2E"/>
<path d="M117.698 133.86H87.6743C86.9263 133.86 86.3198 134.467 86.3198 135.215V135.25C86.3198 135.998 86.9263 136.604 87.6743 136.604H117.698C118.446 136.604 119.052 135.998 119.052 135.25V135.215C119.052 134.467 118.446 133.86 117.698 133.86Z" fill="#292A2E"/>
<path d="M117.698 133.86H87.6743C86.9263 133.86 86.3198 134.467 86.3198 135.215V135.25C86.3198 135.998 86.9263 136.604 87.6743 136.604H117.698C118.446 136.604 119.052 135.998 119.052 135.25V135.215C119.052 134.467 118.446 133.86 117.698 133.86Z" fill="#292A2E"/>
<path d="M139.464 123.077C142.062 123.077 144.168 120.971 144.168 118.373C144.168 115.775 142.062 113.669 139.464 113.669C136.866 113.669 134.76 115.775 134.76 118.373C134.76 120.971 136.866 123.077 139.464 123.077Z" fill="white"/>
<path d="M106.208 124.799L98.7144 122.173L99.7903 122.098C100.137 122.067 100.459 121.906 100.691 121.647C100.924 121.388 101.049 121.05 101.042 120.702C101.032 120.522 100.985 120.347 100.905 120.186C100.825 120.025 100.713 119.882 100.576 119.766C100.439 119.649 100.28 119.562 100.108 119.51C99.9358 119.457 99.755 119.44 99.5763 119.46L86.3198 120.868L86.6627 125.128C86.7697 126.451 87.2694 127.712 88.0978 128.75C88.9261 129.787 90.0454 130.553 91.3121 130.951L97.0527 132.739C97.3493 132.837 97.6707 132.831 97.9628 132.72C98.2549 132.608 98.4996 132.4 98.6556 132.129C98.7912 131.882 98.8442 131.597 98.8069 131.318C98.7695 131.038 98.6437 130.778 98.4478 130.574C98.4605 130.565 98.4712 130.554 98.4793 130.541C98.4873 130.527 98.4926 130.513 98.4947 130.497C98.4969 130.482 98.4958 130.466 98.4917 130.451C98.4876 130.436 98.4804 130.422 98.4707 130.41L99.528 130.742C99.858 130.852 100.218 130.834 100.535 130.69C100.852 130.545 101.102 130.286 101.235 129.964C101.344 129.673 101.346 129.352 101.241 129.058C101.137 128.765 100.932 128.518 100.663 128.361C100.676 128.354 100.687 128.345 100.696 128.334L101.131 128.471C101.427 128.57 101.749 128.563 102.041 128.452C102.333 128.341 102.578 128.132 102.734 127.861C102.898 127.561 102.94 127.208 102.851 126.878C102.761 126.547 102.547 126.264 102.253 126.088C102.256 126.079 102.257 126.07 102.258 126.061L105.378 127.155C105.69 127.265 106.033 127.246 106.332 127.102C106.63 126.959 106.859 126.702 106.969 126.39C107.078 126.078 107.059 125.734 106.916 125.436C106.772 125.138 106.516 124.908 106.204 124.799H106.208Z" fill="#E98862"/>
<path opacity="0.2" d="M102.138 126.183C102.124 126.183 102.109 126.181 102.096 126.176L99.0773 125.079C99.0464 125.068 99.0212 125.045 99.0074 125.015C98.9935 124.985 98.9921 124.951 99.0035 124.92C99.0148 124.889 99.038 124.864 99.068 124.85C99.0979 124.836 99.1321 124.835 99.1631 124.846L102.181 125.943C102.209 125.953 102.232 125.973 102.247 125.998C102.261 126.023 102.266 126.053 102.261 126.082C102.256 126.11 102.241 126.137 102.219 126.155C102.197 126.174 102.168 126.184 102.139 126.185L102.138 126.183Z" fill="#0A0A0A"/>
<path opacity="0.2" d="M100.613 128.378C100.599 128.378 100.585 128.376 100.571 128.371L98.1921 127.527C98.1767 127.522 98.1626 127.513 98.1504 127.502C98.1383 127.491 98.1285 127.478 98.1215 127.463C98.1144 127.449 98.1104 127.433 98.1095 127.416C98.1087 127.4 98.1111 127.384 98.1165 127.368C98.122 127.353 98.1304 127.339 98.1414 127.327C98.1523 127.315 98.1655 127.305 98.1802 127.298C98.195 127.291 98.211 127.287 98.2273 127.286C98.2436 127.285 98.2599 127.287 98.2753 127.293L100.655 128.137C100.682 128.147 100.705 128.166 100.72 128.191C100.735 128.217 100.74 128.246 100.735 128.275C100.73 128.304 100.715 128.33 100.693 128.349C100.671 128.368 100.642 128.378 100.613 128.378Z" fill="#0A0A0A"/>
<path opacity="0.2" d="M98.3726 130.605C98.3573 130.605 98.3422 130.602 98.328 130.596L97.2135 130.171C97.1976 130.166 97.1829 130.158 97.1703 130.147C97.1578 130.135 97.1476 130.122 97.1404 130.107C97.1332 130.092 97.1292 130.075 97.1285 130.058C97.1279 130.042 97.1306 130.025 97.1366 130.009C97.1426 129.993 97.1517 129.979 97.1633 129.967C97.175 129.955 97.189 129.945 97.2045 129.939C97.2199 129.932 97.2366 129.929 97.2533 129.929C97.2701 129.929 97.2867 129.933 97.3021 129.939L98.4166 130.364C98.4437 130.375 98.4662 130.394 98.4804 130.42C98.4946 130.445 98.4995 130.474 98.4942 130.503C98.489 130.531 98.4739 130.557 98.4516 130.576C98.4294 130.594 98.4013 130.605 98.3723 130.605H98.3726Z" fill="#0A0A0A"/>
<path d="M92.1867 118.347L60.753 118.326L48.8616 89.3174L31.1221 96.7758L45.9591 131.204L46.1043 131.547C46.8301 133.22 48.0528 134.63 49.6066 135.586C51.1605 136.541 52.9705 136.996 54.7914 136.888L92.6628 134.651L92.1867 118.347Z" fill="#2F80ED"/>
<path d="M54.2702 137.046C52.508 137.043 50.7848 136.527 49.3113 135.56C47.8378 134.594 46.6778 133.219 45.9731 131.604L45.8276 131.261L33.1855 101.925L33.4479 101.812L46.2357 131.491C46.9534 133.135 48.1571 134.52 49.6852 135.459C51.2132 136.398 52.9923 136.847 54.7831 136.746L92.5159 134.517L92.0484 118.49L60.6578 118.469L51.5134 96.165L51.7778 96.0566L60.849 118.184L92.3253 118.205L92.8091 134.786L92.6705 134.794L54.7994 137.031C54.6226 137.041 54.4462 137.046 54.2702 137.046Z" fill="#0C0C0C"/>
<path d="M243.182 139.343L242.614 139.401L254.661 258.663L255.229 258.606L243.182 139.343Z" fill="#494949"/>
<path d="M19.3067 139.344L7.25146 258.605L7.82009 258.663L19.8753 139.402L19.3067 139.344Z" fill="#494949"/>
<path d="M69.1143 139.344L57.0591 258.605L57.6277 258.663L69.683 139.402L69.1143 139.344Z" fill="#494949"/>
<path d="M292.99 139.343L292.421 139.401L304.468 258.663L305.037 258.606L292.99 139.343Z" fill="#494949"/>
<path d="M303.853 137.032H9.2324C7.93921 137.032 6.89087 138.08 6.89087 139.373C6.89087 140.666 7.93921 141.715 9.2324 141.715H303.853C305.146 141.715 306.195 140.666 306.195 139.373C306.195 138.08 305.146 137.032 303.853 137.032Z" fill="#292A2E"/>
<path opacity="0.8" d="M303.853 137.032H9.2324C7.93921 137.032 6.89087 138.08 6.89087 139.373C6.89087 140.666 7.93921 141.715 9.2324 141.715H303.853C305.146 141.715 306.195 140.666 306.195 139.373C306.195 138.08 305.146 137.032 303.853 137.032Z" fill="white"/>
<path d="M303.854 142H9.23355C8.88624 142.004 8.54166 141.938 8.21974 141.808C7.89783 141.678 7.60496 141.485 7.35809 141.24C7.11121 140.996 6.91523 140.705 6.78148 140.385C6.64773 140.064 6.57886 139.72 6.57886 139.373C6.57886 139.026 6.64773 138.682 6.78148 138.361C6.91523 138.041 7.11121 137.75 7.35809 137.505C7.60496 137.261 7.89783 137.068 8.21974 136.938C8.54166 136.807 8.88624 136.742 9.23355 136.746H303.854C304.546 136.753 305.207 137.033 305.694 137.525C306.18 138.017 306.453 138.681 306.453 139.373C306.453 140.065 306.18 140.729 305.694 141.221C305.207 141.713 304.546 141.993 303.854 142ZM9.23355 137.317C8.96156 137.314 8.69164 137.365 8.43943 137.467C8.18722 137.569 7.95773 137.719 7.76426 137.911C7.57079 138.102 7.41719 138.33 7.31236 138.581C7.20752 138.832 7.15354 139.101 7.15354 139.373C7.15354 139.645 7.20752 139.914 7.31236 140.165C7.41719 140.416 7.57079 140.644 7.76426 140.835C7.95773 141.026 8.18722 141.177 8.43943 141.279C8.69164 141.381 8.96156 141.432 9.23355 141.429H303.854C304.395 141.422 304.911 141.203 305.292 140.818C305.672 140.433 305.885 139.914 305.885 139.373C305.885 138.832 305.672 138.313 305.292 137.928C304.911 137.543 304.395 137.324 303.854 137.317H9.23355Z" fill="#292A2E"/>
<path d="M303.853 137.032H60.9441C59.6509 137.032 58.6025 138.08 58.6025 139.373C58.6025 140.666 59.6509 141.715 60.9441 141.715H303.853C305.146 141.715 306.195 140.666 306.195 139.373C306.195 138.08 305.146 137.032 303.853 137.032Z" fill="white"/>
<path d="M303.854 142H60.9441C60.2521 141.993 59.5909 141.713 59.1041 141.221C58.6173 140.729 58.3442 140.065 58.3442 139.373C58.3442 138.681 58.6173 138.017 59.1041 137.525C59.5909 137.033 60.2521 136.753 60.9441 136.746H303.854C304.546 136.753 305.207 137.033 305.694 137.525C306.181 138.017 306.454 138.681 306.454 139.373C306.454 140.065 306.181 140.729 305.694 141.221C305.207 141.713 304.546 141.993 303.854 142ZM60.9441 137.317C60.4031 137.324 59.8865 137.543 59.5062 137.928C59.1259 138.313 58.9126 138.832 58.9126 139.373C58.9126 139.914 59.1259 140.433 59.5062 140.818C59.8865 141.203 60.4031 141.422 60.9441 141.428H303.854C304.395 141.422 304.912 141.203 305.292 140.818C305.672 140.433 305.885 139.914 305.885 139.373C305.885 138.832 305.672 138.313 305.292 137.928C304.912 137.543 304.395 137.324 303.854 137.317H60.9441Z" fill="#292A2E"/>
</svg>
