<svg width="201" height="248" viewBox="0 0 201 248" fill="none" xmlns="http://www.w3.org/2000/svg">
<g opacity="0.08">
<path d="M166.492 45.7756L184.776 45.7756C185.919 45.7756 187.042 45.4674 188.032 44.8819C189.022 44.2965 189.844 43.4544 190.416 42.4404L199.557 26.2237C200.129 25.2095 200.43 24.0589 200.43 22.8877C200.43 21.7166 200.129 20.566 199.557 19.5518L190.416 3.33513C189.845 2.32109 189.022 1.47904 188.032 0.893605C187.043 0.308171 185.92 -1.96288e-05 184.777 -6.82646e-07L166.492 -1.48187e-06C165.349 -2.69738e-05 164.227 0.308106 163.237 0.893452C162.247 1.4788 161.425 2.32073 160.853 3.33465L151.712 19.5513C151.14 20.5655 150.839 21.7161 150.839 22.8873C150.839 24.0585 151.14 25.209 151.712 26.2232L160.853 42.4399C161.425 43.454 162.247 44.2961 163.237 44.8816C164.226 45.4672 165.349 45.7755 166.492 45.7756V45.7756Z" fill="#345AF5"/>
<path d="M14.913 247.95L25.4614 247.95C26.1209 247.95 26.7688 247.771 27.3399 247.429C27.911 247.088 28.3853 246.596 28.7151 246.005L33.9887 236.545C34.3185 235.954 34.4922 235.282 34.4922 234.599C34.4922 233.916 34.3185 233.245 33.9887 232.653L28.7151 223.194C28.3854 222.602 27.9111 222.111 27.3399 221.769C26.7688 221.428 26.121 221.248 25.4615 221.248L14.913 221.248C14.2536 221.248 13.6058 221.428 13.0347 221.769C12.4636 222.111 11.9893 222.602 11.6595 223.193L6.3859 232.653C6.05607 233.245 5.88243 233.916 5.88243 234.599C5.88243 235.282 6.05607 235.953 6.3859 236.545L11.6595 246.005C11.9893 246.596 12.4635 247.087 13.0346 247.429C13.6057 247.771 14.2535 247.95 14.913 247.95V247.95Z" fill="#B6C1EF"/>
<path d="M-16.0899 131.604L29.7579 131.604C32.5912 131.604 35.3746 130.853 37.8282 129.426C40.2818 127.999 42.3191 125.945 43.7351 123.473L66.6626 83.4491C68.0787 80.9781 68.8242 78.1751 68.8242 75.3219C68.8242 72.4687 68.0787 69.6657 66.6626 67.1947L43.7351 27.1982C42.319 24.7277 40.2824 22.6762 37.83 21.2498C35.3776 19.8234 32.5957 19.0724 29.7639 19.0723L-16.0899 19.0723C-18.9224 19.0719 -21.7051 19.8228 -24.1582 21.2494C-26.6113 22.676 -28.6484 24.7282 -30.0647 27.1994L-52.9898 67.1935C-54.4059 69.6644 -55.1514 72.4674 -55.1514 75.3206C-55.1514 78.1739 -54.4059 80.9768 -52.9898 83.4478L-30.0623 123.472C-28.6468 125.944 -26.6104 127.997 -24.1577 129.424C-21.705 130.852 -18.9225 131.603 -16.0899 131.604V131.604Z" fill="#324D92"/>
<path d="M121.992 225.064L158.703 225.064C161.466 225.064 164.18 224.32 166.572 222.906C168.964 221.493 170.951 219.46 172.332 217.012L190.693 184.466C192.074 182.018 192.801 179.242 192.801 176.415C192.801 173.589 192.074 170.812 190.693 168.365L172.337 135.84C170.956 133.393 168.969 131.36 166.577 129.947C164.184 128.535 161.471 127.791 158.708 127.791L121.992 127.791C119.23 127.791 116.516 128.535 114.124 129.947C111.731 131.36 109.745 133.393 108.363 135.84L90.0062 168.372C88.6254 170.82 87.8983 173.596 87.8983 176.422C87.8983 179.248 88.6254 182.024 90.0062 184.472L108.365 217.015C109.746 219.463 111.733 221.495 114.125 222.908C116.517 224.321 119.23 225.064 121.992 225.064V225.064Z" fill="#B9CDFF"/>
</g>
</svg>
