<svg width="249" height="248" viewBox="0 0 249 248" fill="none" xmlns="http://www.w3.org/2000/svg">
<g opacity="0.08">
<path d="M7.82627 118.253L16.9683 118.253C17.5398 118.253 18.1013 118.099 18.5963 117.806C19.0912 117.513 19.5023 117.092 19.7881 116.585L24.3586 108.477C24.6444 107.97 24.7949 107.395 24.7949 106.809C24.7949 106.224 24.6444 105.648 24.3586 105.141L19.7882 97.0328C19.5023 96.5258 19.0913 96.1048 18.5963 95.812C18.1013 95.5193 17.5399 95.3652 16.9683 95.3652L7.82627 95.3652C7.25478 95.3652 6.69335 95.5193 6.1984 95.812C5.70344 96.1046 5.2924 96.5256 5.00657 97.0326L0.436142 105.141C0.150291 105.648 -0.000200746 106.223 -0.000200772 106.809C-0.000200797 107.394 0.150291 107.97 0.436141 108.477L5.00663 116.585C5.2924 117.092 5.70341 117.513 6.19835 117.806C6.69329 118.099 7.25474 118.253 7.82627 118.253Z" fill="#546091"/>
<path d="M134.913 247.95L145.461 247.95C146.121 247.95 146.769 247.771 147.34 247.429C147.911 247.088 148.385 246.596 148.715 246.005L153.989 236.545C154.319 235.954 154.492 235.282 154.492 234.599C154.492 233.916 154.319 233.245 153.989 232.653L148.715 223.194C148.385 222.602 147.911 222.111 147.34 221.769C146.769 221.428 146.121 221.248 145.462 221.248L134.913 221.248C134.254 221.248 133.606 221.428 133.035 221.769C132.464 222.111 131.989 222.602 131.659 223.193L126.386 232.653C126.056 233.245 125.882 233.916 125.882 234.599C125.882 235.282 126.056 235.953 126.386 236.545L131.66 246.005C131.989 246.596 132.464 247.087 133.035 247.429C133.606 247.771 134.254 247.95 134.913 247.95Z" fill="#B6C1EF"/>
<path d="M103.91 131.604L149.758 131.604C152.591 131.604 155.375 130.853 157.828 129.426C160.282 127.999 162.319 125.945 163.735 123.473L186.663 83.4491C188.079 80.9781 188.824 78.1751 188.824 75.3219C188.824 72.4687 188.079 69.6657 186.663 67.1947L163.735 27.1982C162.319 24.7277 160.282 22.6762 157.83 21.2498C155.378 19.8234 152.596 19.0724 149.764 19.0723L103.91 19.0723C101.078 19.0719 98.2949 19.8228 95.8418 21.2494C93.3887 22.676 91.3516 24.7282 89.9353 27.1994L67.0102 67.1935C65.5941 69.6644 64.8486 72.4674 64.8486 75.3206C64.8486 78.1739 65.5941 80.9768 67.0102 83.4478L89.9377 123.472C91.3532 125.944 93.3896 127.997 95.8423 129.424C98.295 130.852 101.077 131.603 103.91 131.604Z" fill="#324D92"/>
<path d="M241.992 225.064L278.703 225.064C281.466 225.064 284.18 224.32 286.572 222.906C288.964 221.493 290.951 219.46 292.332 217.012L310.693 184.466C312.074 182.018 312.801 179.242 312.801 176.415C312.801 173.589 312.074 170.812 310.693 168.365L292.337 135.84C290.956 133.393 288.969 131.36 286.577 129.947C284.184 128.535 281.471 127.791 278.708 127.791L241.992 127.791C239.23 127.791 236.516 128.535 234.124 129.947C231.731 131.36 229.745 133.393 228.363 135.84L210.006 168.372C208.625 170.82 207.898 173.596 207.898 176.422C207.898 179.248 208.625 182.024 210.006 184.472L228.365 217.015C229.746 219.463 231.733 221.495 234.125 222.908C236.517 224.321 239.23 225.064 241.992 225.064Z" fill="#B9CDFF"/>
</g>
</svg>
