<svg width="309" height="313" viewBox="0 0 309 313" fill="none" xmlns="http://www.w3.org/2000/svg">
<path d="M264.197 311.847H52.046C51.9898 311.847 51.9358 311.825 51.8961 311.785C51.8563 311.745 51.834 311.691 51.834 311.635C51.834 311.579 51.8563 311.525 51.8961 311.485C51.9358 311.445 51.9898 311.423 52.046 311.423H264.196C264.253 311.423 264.307 311.445 264.346 311.485C264.386 311.525 264.408 311.579 264.408 311.635C264.408 311.691 264.386 311.745 264.346 311.785C264.307 311.825 264.253 311.847 264.196 311.847H264.197Z" fill="#292A2E"/>
<g opacity="0.65">
<path d="M264.197 311.847H52.046C51.9898 311.847 51.9358 311.825 51.8961 311.785C51.8563 311.745 51.834 311.691 51.834 311.635C51.834 311.579 51.8563 311.525 51.8961 311.485C51.9358 311.445 51.9898 311.423 52.046 311.423H264.196C264.253 311.423 264.307 311.445 264.346 311.485C264.386 311.525 264.408 311.579 264.408 311.635C264.408 311.691 264.386 311.745 264.346 311.785C264.307 311.825 264.253 311.847 264.196 311.847H264.197Z" fill="#292A2E"/>
</g>
<path d="M37.194 91.4037C42.725 63.6769 67.0134 42.8618 96.1915 42.8618C119.358 42.8618 139.478 56.0421 149.498 75.3302C173.626 77.902 192.383 98.3956 192.383 123.229C192.383 149.831 170.82 171.449 144.287 171.449H40.0797C17.9557 171.449 -6.10352e-05 153.447 -6.10352e-05 131.266C-6.10352e-05 110.049 16.4326 92.8503 37.194 91.4037Z" fill="#F4F4F4"/>
<path d="M70.2343 311.795L69.6394 311.68L78.9369 219.29L79.5318 219.404L70.2343 311.795Z" fill="#494949"/>
<path d="M104.854 311.795L104.259 311.68L113.556 219.29L114.151 219.404L104.854 311.795Z" fill="#494949"/>
<path d="M181.379 311.795L181.974 311.68L172.676 219.29L172.081 219.404L181.379 311.795Z" fill="#494949"/>
<path d="M146.759 311.795L147.354 311.68L138.057 219.29L137.462 219.404L146.759 311.795Z" fill="#494949"/>
<path d="M134.429 178.628L133.829 178.708L139.26 219.387L139.86 219.307L134.429 178.628Z" fill="#494949"/>
<path d="M72.0865 178.628L71.4861 178.708L76.9175 219.387L77.5179 219.307L72.0865 178.628Z" fill="#494949"/>
<path d="M139.808 216.368H78.83C77.1848 216.368 75.8511 217.701 75.8511 219.347V219.347C75.8511 220.992 77.1848 222.326 78.83 222.326H139.808C141.453 222.326 142.787 220.992 142.787 219.347V219.347C142.787 217.701 141.453 216.368 139.808 216.368Z" fill="#292A2E"/>
<path opacity="0.8" d="M139.808 216.368H78.83C77.1848 216.368 75.8511 217.701 75.8511 219.347V219.347C75.8511 220.992 77.1848 222.326 78.83 222.326H139.808C141.453 222.326 142.787 220.992 142.787 219.347V219.347C142.787 217.701 141.453 216.368 139.808 216.368Z" fill="white"/>
<path d="M139.808 222.629H78.8304C78.3994 222.629 77.9727 222.544 77.5745 222.379C77.1763 222.214 76.8146 221.973 76.5098 221.668C76.2051 221.363 75.9633 221.001 75.7984 220.603C75.6335 220.205 75.5486 219.778 75.5486 219.347C75.5486 218.916 75.6335 218.49 75.7984 218.091C75.9633 217.693 76.2051 217.331 76.5098 217.027C76.8146 216.722 77.1763 216.48 77.5745 216.315C77.9727 216.15 78.3994 216.065 78.8304 216.065H139.808C140.239 216.065 140.666 216.15 141.064 216.315C141.462 216.48 141.824 216.722 142.129 217.027C142.433 217.331 142.675 217.693 142.84 218.091C143.005 218.49 143.09 218.916 143.09 219.347C143.09 219.778 143.005 220.205 142.84 220.603C142.675 221.001 142.433 221.363 142.129 221.668C141.824 221.973 141.462 222.214 141.064 222.379C140.666 222.544 140.239 222.629 139.808 222.629ZM78.8304 216.671C78.479 216.671 78.131 216.74 77.8063 216.875C77.4817 217.009 77.1867 217.207 76.9382 217.455C76.6897 217.703 76.4925 217.998 76.3581 218.323C76.2236 218.648 76.1544 218.996 76.1544 219.347C76.1544 219.699 76.2236 220.047 76.3581 220.371C76.4925 220.696 76.6897 220.991 76.9382 221.239C77.1867 221.488 77.4817 221.685 77.8063 221.82C78.131 221.954 78.479 222.023 78.8304 222.023H139.808C140.159 222.023 140.507 221.954 140.832 221.82C141.157 221.685 141.452 221.488 141.7 221.239C141.949 220.991 142.146 220.696 142.28 220.371C142.415 220.047 142.484 219.699 142.484 219.347C142.484 218.996 142.415 218.648 142.28 218.323C142.146 217.998 141.949 217.703 141.7 217.455C141.452 217.207 141.157 217.009 140.832 216.875C140.507 216.74 140.159 216.671 139.808 216.671H78.8304Z" fill="#292A2E"/>
<path d="M173.276 216.368H112.298C110.653 216.368 109.319 217.701 109.319 219.347V219.347C109.319 220.992 110.653 222.326 112.298 222.326H173.276C174.921 222.326 176.255 220.992 176.255 219.347V219.347C176.255 217.701 174.921 216.368 173.276 216.368Z" fill="white"/>
<path d="M173.276 222.629H112.298C111.867 222.629 111.44 222.544 111.042 222.379C110.644 222.214 110.282 221.973 109.978 221.668C109.673 221.363 109.431 221.001 109.266 220.603C109.101 220.205 109.016 219.778 109.016 219.347C109.016 218.916 109.101 218.49 109.266 218.091C109.431 217.693 109.673 217.331 109.978 217.027C110.282 216.722 110.644 216.48 111.042 216.315C111.44 216.15 111.867 216.065 112.298 216.065H173.276C173.707 216.065 174.134 216.15 174.532 216.315C174.93 216.48 175.292 216.722 175.597 217.027C175.901 217.331 176.143 217.693 176.308 218.091C176.473 218.49 176.558 218.916 176.558 219.347C176.558 219.778 176.473 220.205 176.308 220.603C176.143 221.001 175.901 221.363 175.597 221.668C175.292 221.973 174.93 222.214 174.532 222.379C174.134 222.544 173.707 222.629 173.276 222.629ZM112.298 216.671C111.947 216.671 111.599 216.74 111.274 216.875C110.949 217.009 110.654 217.207 110.406 217.455C110.157 217.703 109.96 217.998 109.826 218.323C109.691 218.648 109.622 218.996 109.622 219.347C109.622 219.699 109.691 220.047 109.826 220.371C109.96 220.696 110.157 220.991 110.406 221.239C110.654 221.488 110.949 221.685 111.274 221.82C111.599 221.954 111.947 222.023 112.298 222.023H173.276C173.627 222.023 173.975 221.954 174.3 221.82C174.625 221.685 174.92 221.488 175.168 221.239C175.417 220.991 175.614 220.696 175.748 220.371C175.883 220.047 175.952 219.699 175.952 219.347C175.952 218.996 175.883 218.648 175.748 218.323C175.614 217.998 175.417 217.703 175.168 217.455C174.92 217.207 174.625 217.009 174.3 216.875C173.975 216.74 173.627 216.671 173.276 216.671H112.298Z" fill="#292A2E"/>
<path d="M131.088 178.666H71.95C70.983 178.666 70.0492 178.314 69.3227 177.676C68.5962 177.038 68.1267 176.157 68.0018 175.198L64.09 145.158C64.0168 144.597 64.0644 144.026 64.2294 143.484C64.3944 142.942 64.673 142.442 65.0468 142.017C65.4205 141.591 65.8807 141.25 66.3967 141.017C66.9126 140.783 67.4724 140.663 68.0387 140.663H127.177C128.143 140.663 129.077 141.014 129.804 141.652C130.53 142.29 131 143.171 131.125 144.13L135.036 174.17C135.109 174.732 135.062 175.303 134.897 175.844C134.732 176.386 134.453 176.886 134.08 177.312C133.706 177.737 133.246 178.078 132.73 178.312C132.214 178.545 131.655 178.666 131.088 178.666Z" fill="#292A2E"/>
<path opacity="0.8" d="M131.088 178.666H71.95C70.983 178.666 70.0492 178.314 69.3227 177.676C68.5962 177.038 68.1267 176.157 68.0018 175.198L64.09 145.158C64.0168 144.597 64.0644 144.026 64.2294 143.484C64.3944 142.942 64.673 142.442 65.0468 142.017C65.4205 141.591 65.8807 141.25 66.3967 141.017C66.9126 140.783 67.4724 140.663 68.0387 140.663H127.177C128.143 140.663 129.077 141.014 129.804 141.652C130.53 142.29 131 143.171 131.125 144.13L135.036 174.17C135.109 174.732 135.062 175.303 134.897 175.844C134.732 176.386 134.453 176.886 134.08 177.312C133.706 177.737 133.246 178.078 132.73 178.312C132.214 178.545 131.655 178.666 131.088 178.666Z" fill="white"/>
<path d="M131.088 178.97H71.95C70.9102 178.967 69.9065 178.588 69.1252 177.902C68.3438 177.216 67.838 176.269 67.7014 175.238L63.7898 145.198C63.7111 144.594 63.7621 143.98 63.9396 143.397C64.1171 142.814 64.417 142.275 64.8191 141.817C65.2213 141.359 65.7165 140.993 66.2717 140.741C66.8269 140.49 67.4294 140.36 68.0388 140.36H127.177C128.216 140.363 129.22 140.742 130.001 141.428C130.783 142.114 131.288 143.061 131.425 144.092L135.337 174.132C135.415 174.737 135.364 175.351 135.187 175.934C135.009 176.516 134.71 177.055 134.308 177.513C133.905 177.97 133.41 178.337 132.855 178.589C132.3 178.84 131.698 178.97 131.088 178.97ZM68.0388 140.966C67.5156 140.966 66.9984 141.078 66.5218 141.294C66.0452 141.509 65.6201 141.824 65.2749 142.217C64.9296 142.61 64.6722 143.073 64.5198 143.573C64.3674 144.074 64.3235 144.601 64.3911 145.12L68.3029 175.16C68.4201 176.045 68.8544 176.858 69.5252 177.447C70.196 178.036 71.0578 178.362 71.9506 178.364H131.088C131.612 178.364 132.129 178.252 132.605 178.036C133.082 177.821 133.507 177.506 133.852 177.112C134.197 176.719 134.454 176.257 134.607 175.757C134.759 175.256 134.803 174.729 134.735 174.21L130.824 144.17C130.707 143.285 130.273 142.473 129.602 141.883C128.931 141.294 128.069 140.968 127.177 140.966L68.0388 140.966Z" fill="#292A2E"/>
<path d="M134.432 178.666H75.2936C74.3268 178.666 73.393 178.314 72.6665 177.676C71.94 177.038 71.4706 176.157 71.3458 175.198L67.4327 145.158C67.3596 144.597 67.4071 144.026 67.5721 143.484C67.7371 142.943 68.0157 142.442 68.3894 142.017C68.763 141.591 69.2232 141.25 69.739 141.017C70.2549 140.783 70.8146 140.663 71.3809 140.663H130.521C131.487 140.663 132.421 141.014 133.148 141.652C133.874 142.29 134.344 143.171 134.468 144.13L138.38 174.17C138.453 174.732 138.406 175.303 138.241 175.844C138.076 176.386 137.797 176.886 137.424 177.312C137.05 177.737 136.59 178.078 136.074 178.312C135.558 178.545 134.998 178.666 134.432 178.666Z" fill="white"/>
<path d="M134.432 178.97H75.2937C74.2539 178.967 73.2502 178.588 72.4689 177.902C71.6877 177.216 71.1819 176.269 71.0453 175.238L67.1335 145.198C67.0548 144.594 67.106 143.98 67.2835 143.397C67.461 142.814 67.7608 142.276 68.1629 141.818C68.565 141.36 69.0602 140.993 69.6153 140.742C70.1704 140.49 70.7728 140.36 71.3821 140.36H130.52C131.56 140.363 132.564 140.742 133.345 141.428C134.126 142.115 134.632 143.061 134.769 144.092L138.681 174.132C138.759 174.737 138.708 175.351 138.531 175.934C138.353 176.516 138.053 177.055 137.651 177.513C137.249 177.97 136.754 178.337 136.199 178.588C135.644 178.84 135.041 178.97 134.432 178.97ZM71.3821 140.966C70.8591 140.966 70.342 141.078 69.8656 141.294C69.3891 141.51 68.9641 141.825 68.619 142.218C68.2739 142.611 68.0166 143.073 67.8643 143.574C67.712 144.074 67.6681 144.601 67.7356 145.12L71.646 175.16C71.7633 176.045 72.1976 176.858 72.8684 177.447C73.5392 178.036 74.4009 178.362 75.2937 178.364H134.432C134.955 178.364 135.472 178.252 135.949 178.037C136.426 177.821 136.851 177.506 137.196 177.113C137.541 176.72 137.799 176.257 137.951 175.757C138.103 175.257 138.147 174.729 138.08 174.21L134.168 144.17C134.051 143.285 133.617 142.473 132.946 141.883C132.275 141.294 131.413 140.968 130.52 140.966L71.3821 140.966Z" fill="#292A2E"/>
<path d="M180.402 185.527L179.8 185.587L192.569 311.998L193.171 311.938L180.402 185.527Z" fill="#494949"/>
<path d="M128.059 94.5457C128.059 94.5457 131.988 91.5795 132.962 84.7517C133.716 79.4654 128.84 82.8901 128.84 82.8901C128.84 82.8901 129.345 79.0783 126.568 79.4566C123.79 79.8349 122.237 83.8391 122.237 83.8391" fill="#0C0C0C"/>
<path d="M112.214 79.9038C112.214 79.9038 98.4342 81.3822 103.416 100.054L104.635 100.135L107.111 100.301" fill="#0C0C0C"/>
<path d="M125.751 119.554C125.69 119.546 125.018 130.7 112.058 129.729C103.087 129.057 99.8878 119.538 99.6821 119.538C100.65 119.333 101.845 119.02 102.32 118.913C103.355 118.673 104.293 118.123 105.008 117.337C105.723 116.551 106.182 115.565 106.324 114.512C106.586 112.931 106.142 104.841 106.278 103.241L120.049 106.315C119.857 109.694 118.51 117.527 123.23 118.913C124.016 119.143 124.862 119.353 125.751 119.554Z" fill="#E98862"/>
<path opacity="0.52" d="M120.243 115.712C120.027 115.017 119.888 114.3 119.828 113.575C119.677 111.919 119.708 110.252 119.919 108.604C117.12 108.226 114.483 107.071 112.308 105.269C112.052 106.213 110.646 110.34 111.036 111.237C111.77 112.934 115.228 115.712 120.243 115.712Z" fill="#0C0C0C"/>
<path d="M117.401 113.505C111.968 113.017 105.465 109.585 105.371 102.21L105.286 95.555C105.193 88.1802 108.99 82.1524 115.934 82.064C122.878 81.9758 128.144 87.8882 128.238 95.2633L128.275 98.2092C128.271 99.221 128.197 100.231 128.055 101.233C127.698 103.883 127.146 107.913 125.348 110.638C123.649 113.212 120.872 113.816 117.401 113.505Z" fill="#E98862"/>
<path d="M119.921 106.765C121.042 106.816 122.16 106.602 123.183 106.142C123.205 106.133 123.224 106.12 123.24 106.103C123.256 106.087 123.269 106.067 123.277 106.046C123.286 106.025 123.29 106.002 123.29 105.979C123.29 105.956 123.285 105.933 123.276 105.912C123.267 105.891 123.254 105.872 123.237 105.856C123.221 105.839 123.201 105.827 123.18 105.818C123.159 105.81 123.136 105.805 123.113 105.806C123.09 105.806 123.067 105.811 123.046 105.82C120.841 106.76 118.838 106.622 117.255 105.421C117.224 105.396 117.19 105.372 117.156 105.351C117.116 105.332 117.071 105.329 117.029 105.343C116.987 105.356 116.952 105.384 116.93 105.422C116.908 105.46 116.901 105.505 116.911 105.548C116.921 105.591 116.946 105.629 116.982 105.654C116.994 105.661 117.015 105.678 117.042 105.7C117.875 106.333 118.877 106.704 119.921 106.765Z" fill="#0C0C0C"/>
<path d="M119.869 108.424C120.072 108.437 120.275 108.432 120.477 108.41C120.523 108.405 120.565 108.382 120.594 108.346C120.623 108.31 120.637 108.263 120.632 108.217C120.627 108.171 120.604 108.129 120.568 108.099C120.532 108.07 120.486 108.057 120.44 108.062C119.226 108.191 118.647 107.634 118.622 107.611C118.589 107.578 118.545 107.559 118.498 107.559C118.452 107.559 118.407 107.577 118.374 107.61C118.342 107.643 118.323 107.688 118.323 107.734C118.323 107.781 118.341 107.825 118.374 107.858C118.792 108.214 119.32 108.414 119.869 108.424Z" fill="#0C0C0C"/>
<path d="M125.944 99.6267C126.417 99.6267 126.8 99.2438 126.8 98.7714C126.8 98.299 126.417 97.916 125.944 97.916C125.472 97.916 125.089 98.299 125.089 98.7714C125.089 99.2438 125.472 99.6267 125.944 99.6267Z" fill="#0C0C0C"/>
<path d="M117.588 99.1033C118.06 99.1033 118.443 98.7203 118.443 98.2479C118.443 97.7755 118.06 97.3926 117.588 97.3926C117.116 97.3926 116.733 97.7755 116.733 98.2479C116.733 98.7203 117.116 99.1033 117.588 99.1033Z" fill="#0C0C0C"/>
<path d="M105.831 104.451C103.72 104.478 101.981 102.242 101.954 100.132C101.926 98.0217 103.623 96.8362 105.733 96.8096L106.838 98.2095L107.644 104.428L105.831 104.451Z" fill="#E98862"/>
<path d="M107.929 101.059C107.929 101.059 108.641 90.624 111.806 89.9794C113.913 89.5502 119.024 92.5397 123.758 91.6368C125.829 91.2431 127.795 91.7544 127.995 92.7327C128.074 93.1201 129.364 87.5533 126.121 83.3298C123.539 79.9662 115.089 79.0166 111.245 80.1191C100.6 83.1729 105.297 97.2679 105.297 97.2679L105.772 100.866L107.929 101.059Z" fill="#0C0C0C"/>
<path d="M121.195 104.3H121.209C121.889 104.293 123.029 104.206 123.024 103.697C123.02 103.275 121.82 98.7368 121.683 98.2207C121.67 98.1779 121.641 98.1417 121.602 98.12C121.562 98.0982 121.516 98.0924 121.473 98.1039C121.43 98.1154 121.392 98.1432 121.369 98.1816C121.346 98.2199 121.339 98.2657 121.348 98.3095C121.881 100.319 122.675 103.414 122.678 103.701C122.612 103.822 121.91 103.947 121.206 103.954C121.161 103.955 121.119 103.973 121.087 104.004C121.056 104.036 121.038 104.078 121.036 104.122C121.035 104.167 121.051 104.21 121.08 104.243C121.11 104.276 121.151 104.296 121.195 104.3V104.3Z" fill="#0C0C0C"/>
<path d="M123.517 94.1324C124.231 93.9357 124.986 93.9357 125.7 94.1324C126.052 94.2267 126.387 94.3734 126.694 94.5674C126.998 94.7572 127.277 94.9848 127.524 95.2446C127.571 95.2904 127.598 95.353 127.6 95.4188C127.602 95.4847 127.578 95.5486 127.533 95.5969C127.488 95.6453 127.426 95.6741 127.361 95.6773C127.295 95.6805 127.23 95.6579 127.181 95.6141L127.166 95.6008C126.937 95.3892 126.682 95.2071 126.408 95.0589C126.139 94.9116 125.85 94.8058 125.549 94.7451C124.957 94.621 124.343 94.6554 123.769 94.8448L123.745 94.8533C123.65 94.8868 123.546 94.8813 123.455 94.838C123.364 94.7946 123.295 94.7171 123.261 94.6223C123.228 94.5276 123.233 94.4234 123.277 94.3327C123.32 94.242 123.397 94.1723 123.492 94.1388L123.517 94.1324Z" fill="#0C0C0C"/>
<path d="M118.456 94.5637C117.912 94.2994 117.308 94.1836 116.705 94.2278C116.399 94.2477 116.098 94.3139 115.812 94.4241C115.521 94.5346 115.245 94.6811 114.991 94.8602L114.974 94.8711C114.92 94.9062 114.854 94.9188 114.79 94.9064C114.726 94.894 114.67 94.8575 114.632 94.8046C114.595 94.7516 114.579 94.6862 114.588 94.622C114.598 94.5578 114.632 94.4997 114.683 94.4598C114.962 94.2352 115.269 94.0467 115.595 93.8989C115.926 93.7479 116.277 93.6472 116.638 93.6002C117.372 93.5 118.12 93.6003 118.803 93.8904C118.895 93.9305 118.968 94.0058 119.005 94.0995C119.042 94.1932 119.04 94.2978 119 94.3902C118.959 94.4825 118.884 94.5552 118.79 94.5921C118.697 94.629 118.592 94.6272 118.5 94.587L118.479 94.577L118.456 94.5637Z" fill="#0C0C0C"/>
<path d="M122.5 86.9508C124.062 86.6245 124.939 84.4962 124.458 82.1972C123.978 79.8982 122.322 78.2991 120.76 78.6254C119.198 78.9518 118.322 81.08 118.802 83.379C119.282 85.678 120.938 87.2772 122.5 86.9508Z" fill="#0C0C0C"/>
<path d="M209.616 296.022C209.616 296.022 211.24 304.44 219.122 304.909C227.004 305.379 225.295 311.658 225.295 311.658H195.175V296.609L209.616 296.022Z" fill="#2F80ED"/>
<path d="M152.313 290.706C152.313 290.706 150.054 298.977 156.92 302.877C163.785 306.777 159.48 311.657 159.48 311.657L132.452 298.36L139.095 284.857L152.313 290.706Z" fill="#2F80ED"/>
<path d="M135.573 288.37L158.365 216.467H117.051C108.752 216.467 105.292 209.43 105.292 201.131C105.292 192.832 113.451 185.558 121.749 185.558H177.508C182.57 185.558 188.245 188.653 191.024 192.885C193.802 197.116 193.051 203.673 191.038 208.317L154.54 296.963" fill="#262626"/>
<path opacity="0.8" d="M135.573 288.37L158.365 216.467H117.051C108.752 216.467 105.292 209.43 105.292 201.131C105.292 192.832 113.451 185.558 121.749 185.558H177.508C182.57 185.558 188.245 188.653 191.024 192.885C193.802 197.116 193.051 203.673 191.038 208.317L154.54 296.963" fill="#0A0A0A"/>
<path d="M193.442 303.84L155.332 216.468L105.292 216.465C93.5663 215.545 88.1964 209.12 88.3672 200.823C88.5356 192.631 92.6834 184.54 100.838 184.54H168.283C174.317 184.664 179.064 191.332 181.302 196.936L212.984 298.491" fill="#262626"/>
<path d="M84.9543 184.64C84.9543 184.64 82.732 199.132 86.2546 207.19C90.6523 217.249 107.138 216.465 107.138 216.465L106.209 184.54L84.9543 184.64Z" fill="#262626"/>
<path d="M182.736 184.355L147.389 177.031C145.916 176.726 144.544 176.054 143.399 175.078C142.255 174.101 141.375 172.852 140.841 171.446L126.939 134.811C126.515 133.711 126.313 132.539 126.344 131.361C126.375 130.183 126.639 129.023 127.12 127.948C127.6 126.872 128.289 125.902 129.146 125.093C130.002 124.284 131.01 123.653 132.112 123.235C133.213 122.817 134.387 122.62 135.564 122.657C136.742 122.694 137.901 122.963 138.974 123.449C140.047 123.935 141.014 124.628 141.819 125.489C142.623 126.349 143.25 127.36 143.663 128.464L155.824 160.51L186.366 166.838C186.366 166.838 183.349 184.482 182.736 184.355Z" fill="#2F80ED"/>
<path d="M141.853 144.113C141.445 148.909 138.552 178.827 138.158 184.734H84.9777C84.672 179.407 83.6801 156.788 82.5212 146.37C81.4154 136.429 81.014 130.755 82.288 127.666C84.5348 122.217 90.1574 120.257 95.0006 119.601C97.9577 119.201 102.406 118.914 102.406 118.914C102.406 118.914 102.782 126.532 111.763 126.956C123.987 127.532 123.171 118.914 123.231 118.914C125.211 118.914 135.991 120.354 138.687 122.111C142.494 124.592 143.619 127.974 143.664 131.08C143.715 134.658 142.316 138.674 141.853 144.113Z" fill="#2F80ED"/>
<path d="M139.763 168.559H139.75C139.73 168.558 139.711 168.552 139.693 168.543C139.676 168.534 139.66 168.521 139.647 168.506C139.634 168.491 139.625 168.473 139.619 168.454C139.612 168.435 139.61 168.415 139.612 168.396L140.992 151.811C140.994 151.791 140.999 151.772 141.008 151.754C141.017 151.736 141.029 151.72 141.044 151.707C141.06 151.694 141.077 151.684 141.096 151.678C141.116 151.672 141.136 151.671 141.156 151.673C141.176 151.674 141.195 151.68 141.213 151.689C141.23 151.698 141.246 151.711 141.259 151.726C141.272 151.741 141.281 151.759 141.287 151.778C141.294 151.797 141.296 151.816 141.294 151.836L139.914 168.421C139.91 168.458 139.893 168.494 139.865 168.519C139.837 168.545 139.801 168.559 139.763 168.559Z" fill="#0C0C0C"/>
<path d="M165.091 178.512L176.759 142.643C176.964 142.013 177.364 141.463 177.9 141.074C178.436 140.684 179.082 140.475 179.745 140.475H230.313C230.809 140.475 231.297 140.592 231.739 140.817C232.18 141.042 232.562 141.368 232.853 141.769C233.145 142.17 233.337 142.634 233.414 143.124C233.492 143.613 233.452 144.114 233.299 144.585L218.601 180.456C218.396 181.086 217.997 181.636 217.461 182.025C216.924 182.415 216.278 182.624 215.616 182.625H168.076C167.581 182.625 167.092 182.507 166.65 182.282C166.209 182.057 165.827 181.731 165.535 181.33C165.244 180.928 165.052 180.464 164.975 179.974C164.897 179.485 164.937 178.984 165.091 178.512Z" fill="#292A2E"/>
<path d="M165.091 178.512L176.759 142.643C176.964 142.013 177.364 141.463 177.9 141.074C178.436 140.684 179.082 140.475 179.745 140.475H230.313C230.809 140.475 231.297 140.592 231.739 140.817C232.18 141.042 232.562 141.368 232.853 141.769C233.145 142.17 233.337 142.634 233.414 143.124C233.492 143.613 233.452 144.114 233.299 144.585L218.601 180.456C218.396 181.086 217.997 181.636 217.461 182.025C216.924 182.415 216.278 182.624 215.616 182.625H168.076C167.581 182.625 167.092 182.507 166.65 182.282C166.209 182.057 165.827 181.731 165.535 181.33C165.244 180.928 165.052 180.464 164.975 179.974C164.897 179.485 164.937 178.984 165.091 178.512Z" fill="#292A2E"/>
<path d="M174.609 179.715H142.786C141.993 179.715 141.351 180.358 141.351 181.151V181.187C141.351 181.98 141.993 182.623 142.786 182.623H174.609C175.402 182.623 176.045 181.98 176.045 181.187V181.151C176.045 180.358 175.402 179.715 174.609 179.715Z" fill="#292A2E"/>
<path d="M174.609 179.715H142.786C141.993 179.715 141.351 180.358 141.351 181.151V181.187C141.351 181.98 141.993 182.623 142.786 182.623H174.609C175.402 182.623 176.045 181.98 176.045 181.187V181.151C176.045 180.358 175.402 179.715 174.609 179.715Z" fill="#292A2E"/>
<path d="M197.68 168.285C200.434 168.285 202.666 166.052 202.666 163.299C202.666 160.545 200.434 158.313 197.68 158.313C194.926 158.313 192.694 160.545 192.694 163.299C192.694 166.052 194.926 168.285 197.68 168.285Z" fill="white"/>
<path d="M162.431 170.112L154.489 167.329L155.629 167.25C155.996 167.217 156.338 167.046 156.584 166.771C156.83 166.496 156.963 166.138 156.955 165.769C156.945 165.579 156.896 165.393 156.811 165.222C156.726 165.052 156.607 164.9 156.462 164.777C156.317 164.654 156.148 164.562 155.965 164.506C155.783 164.45 155.592 164.432 155.402 164.453L141.351 165.946L141.714 170.461C141.828 171.864 142.357 173.201 143.235 174.3C144.113 175.399 145.3 176.212 146.642 176.632L152.727 178.528C153.042 178.633 153.382 178.626 153.692 178.508C154.002 178.39 154.261 178.169 154.426 177.882C154.57 177.62 154.626 177.318 154.586 177.022C154.547 176.725 154.413 176.449 154.206 176.234C154.219 176.224 154.231 176.212 154.239 176.198C154.248 176.184 154.253 176.168 154.256 176.152C154.258 176.136 154.257 176.119 154.253 176.103C154.248 176.087 154.241 176.072 154.23 176.059L155.351 176.411C155.701 176.529 156.082 176.509 156.418 176.356C156.754 176.203 157.019 175.928 157.16 175.587C157.275 175.278 157.278 174.938 157.167 174.627C157.056 174.316 156.839 174.054 156.554 173.888C156.567 173.881 156.579 173.871 156.589 173.86L157.05 174.004C157.364 174.109 157.705 174.102 158.014 173.984C158.324 173.866 158.583 173.645 158.749 173.358C158.923 173.04 158.967 172.667 158.872 172.317C158.777 171.966 158.551 171.667 158.24 171.48C158.242 171.471 158.244 171.461 158.244 171.452L161.552 172.611C161.716 172.67 161.891 172.697 162.065 172.688C162.24 172.68 162.411 172.637 162.569 172.562C162.727 172.487 162.869 172.381 162.986 172.251C163.102 172.121 163.192 171.969 163.25 171.804C163.308 171.639 163.333 171.464 163.322 171.29C163.312 171.115 163.268 170.944 163.191 170.787C163.114 170.63 163.007 170.489 162.876 170.374C162.745 170.258 162.592 170.17 162.427 170.114L162.431 170.112Z" fill="#E98862"/>
<path opacity="0.2" d="M158.118 171.579C158.103 171.579 158.088 171.577 158.073 171.572L154.874 170.408C154.841 170.396 154.815 170.372 154.8 170.34C154.785 170.308 154.784 170.272 154.796 170.239C154.808 170.206 154.832 170.179 154.864 170.165C154.896 170.15 154.932 170.148 154.965 170.16L158.164 171.324C158.194 171.334 158.218 171.355 158.234 171.382C158.249 171.409 158.255 171.44 158.249 171.471C158.244 171.501 158.228 171.529 158.204 171.549C158.18 171.569 158.15 171.58 158.119 171.579H158.118Z" fill="#0A0A0A"/>
<path opacity="0.2" d="M156.501 173.905C156.486 173.905 156.471 173.903 156.456 173.898L153.935 173.003C153.918 172.998 153.903 172.989 153.89 172.977C153.876 172.966 153.866 172.952 153.858 172.936C153.85 172.92 153.845 172.903 153.844 172.886C153.843 172.868 153.846 172.85 153.852 172.834C153.858 172.817 153.867 172.802 153.879 172.789C153.89 172.776 153.905 172.766 153.921 172.758C153.937 172.751 153.954 172.747 153.971 172.746C153.989 172.746 154.006 172.748 154.023 172.755L156.545 173.649C156.574 173.66 156.599 173.68 156.614 173.707C156.63 173.734 156.636 173.765 156.63 173.796C156.625 173.826 156.609 173.854 156.586 173.874C156.562 173.894 156.532 173.905 156.501 173.905Z" fill="#0A0A0A"/>
<path opacity="0.2" d="M154.126 176.266C154.11 176.266 154.094 176.263 154.079 176.258L152.898 175.807C152.865 175.795 152.839 175.77 152.825 175.738C152.81 175.706 152.809 175.67 152.822 175.637C152.834 175.604 152.859 175.578 152.891 175.564C152.923 175.549 152.96 175.548 152.992 175.561L154.173 176.011C154.202 176.022 154.226 176.043 154.242 176.07C154.257 176.097 154.262 176.128 154.257 176.158C154.251 176.189 154.235 176.216 154.211 176.236C154.187 176.256 154.157 176.266 154.126 176.266H154.126Z" fill="#0A0A0A"/>
<path d="M147.57 163.272L114.252 163.25L101.648 132.503L82.8447 140.408L98.5702 176.9L98.7238 177.264C99.4931 179.037 100.789 180.532 102.436 181.545C104.083 182.557 106.002 183.039 107.932 182.925L148.073 180.554L147.57 163.272Z" fill="#2F80ED"/>
<path d="M107.38 183.093C105.512 183.09 103.686 182.542 102.124 181.518C100.562 180.493 99.3324 179.036 98.5854 177.324L98.4315 176.961L85.0308 145.868L85.3088 145.747L98.8632 177.205C99.6237 178.948 100.9 180.415 102.519 181.411C104.139 182.407 106.025 182.882 107.923 182.774L147.917 180.412L147.422 163.425L114.15 163.402L104.457 139.761L104.738 139.646L114.352 163.1L147.716 163.122L148.229 180.697L148.082 180.706L107.941 183.076C107.754 183.088 107.566 183.093 107.38 183.093Z" fill="#0C0C0C"/>
<path d="M70.3213 185.531L57.5435 311.941L58.1462 312.002L70.924 185.592L70.3213 185.531Z" fill="#494949"/>
<path d="M123.115 185.531L110.337 311.941L110.939 312.002L123.717 185.592L123.115 185.531Z" fill="#494949"/>
<path d="M233.196 185.528L232.593 185.589L245.362 312L245.965 311.94L233.196 185.528Z" fill="#494949"/>
<path d="M244.71 183.075H59.643C58.2723 183.075 57.1611 184.186 57.1611 185.556C57.1611 186.927 58.2723 188.038 59.643 188.038H244.71C246.081 188.038 247.192 186.927 247.192 185.556C247.192 184.186 246.081 183.075 244.71 183.075Z" fill="#292A2E"/>
<path opacity="0.8" d="M244.71 183.075H59.643C58.2723 183.075 57.1611 184.186 57.1611 185.556C57.1611 186.927 58.2723 188.038 59.643 188.038H244.71C246.081 188.038 247.192 186.927 247.192 185.556C247.192 184.186 246.081 183.075 244.71 183.075Z" fill="white"/>
<path d="M244.71 188.342H59.6441C59.276 188.346 58.9108 188.277 58.5696 188.138C58.2284 188 57.9179 187.796 57.6563 187.537C57.3946 187.278 57.1869 186.969 57.0451 186.63C56.9033 186.29 56.8303 185.925 56.8303 185.557C56.8303 185.189 56.9033 184.825 57.0451 184.485C57.1869 184.145 57.3946 183.837 57.6563 183.578C57.9179 183.319 58.2284 183.114 58.5696 182.976C58.9108 182.838 59.276 182.769 59.6441 182.773H244.71C245.078 182.769 245.443 182.838 245.785 182.976C246.126 183.114 246.436 183.319 246.698 183.578C246.96 183.837 247.167 184.145 247.309 184.485C247.451 184.825 247.524 185.189 247.524 185.557C247.524 185.925 247.451 186.29 247.309 186.63C247.167 186.969 246.96 187.278 246.698 187.537C246.436 187.796 246.126 188 245.785 188.138C245.443 188.277 245.078 188.346 244.71 188.342ZM59.6441 183.378C59.3558 183.375 59.0697 183.429 58.8024 183.537C58.5351 183.645 58.2918 183.805 58.0868 184.007C57.8817 184.21 57.7189 184.451 57.6078 184.717C57.4967 184.983 57.4395 185.269 57.4395 185.557C57.4395 185.846 57.4967 186.131 57.6078 186.397C57.7189 186.663 57.8817 186.904 58.0868 187.107C58.2918 187.31 58.5351 187.47 58.8024 187.578C59.0697 187.686 59.3558 187.739 59.6441 187.736H244.71C244.998 187.739 245.285 187.686 245.552 187.578C245.819 187.47 246.062 187.31 246.268 187.107C246.473 186.904 246.635 186.663 246.746 186.397C246.858 186.131 246.915 185.846 246.915 185.557C246.915 185.269 246.858 184.983 246.746 184.717C246.635 184.451 246.473 184.21 246.268 184.007C246.062 183.805 245.819 183.645 245.552 183.537C245.285 183.429 244.998 183.375 244.71 183.378H59.6441Z" fill="#292A2E"/>
<path d="M244.71 183.075H114.455C113.084 183.075 111.973 184.186 111.973 185.556C111.973 186.927 113.084 188.038 114.455 188.038H244.71C246.081 188.038 247.192 186.927 247.192 185.556C247.192 184.186 246.081 183.075 244.71 183.075Z" fill="white"/>
<path d="M244.71 188.342H114.454C113.721 188.334 113.02 188.037 112.504 187.516C111.988 186.995 111.698 186.291 111.698 185.557C111.698 184.824 111.988 184.12 112.504 183.598C113.02 183.077 113.721 182.78 114.454 182.773H244.71C245.078 182.769 245.443 182.838 245.785 182.976C246.126 183.114 246.436 183.319 246.698 183.578C246.96 183.837 247.167 184.145 247.309 184.485C247.451 184.825 247.524 185.189 247.524 185.557C247.524 185.925 247.451 186.29 247.309 186.63C247.167 186.969 246.96 187.278 246.698 187.537C246.436 187.796 246.126 188 245.785 188.138C245.443 188.277 245.078 188.346 244.71 188.342ZM114.454 183.378C113.881 183.385 113.333 183.618 112.93 184.026C112.527 184.433 112.301 184.984 112.301 185.557C112.301 186.131 112.527 186.681 112.93 187.089C113.333 187.497 113.881 187.729 114.454 187.736H244.71C244.998 187.739 245.284 187.686 245.552 187.578C245.819 187.47 246.062 187.31 246.267 187.107C246.472 186.904 246.635 186.663 246.746 186.397C246.858 186.131 246.915 185.846 246.915 185.557C246.915 185.269 246.858 184.983 246.746 184.717C246.635 184.451 246.472 184.21 246.267 184.007C246.062 183.805 245.819 183.645 245.552 183.537C245.284 183.429 244.998 183.375 244.71 183.378H114.454Z" fill="#292A2E"/>
<path d="M254.345 126.049L191.122 126.049C189.921 126.049 188.768 125.571 187.919 124.722C187.069 123.872 186.592 122.72 186.592 121.518V75.4931C186.592 74.292 187.069 73.1401 187.918 72.2907C188.767 71.4414 189.919 70.9643 191.12 70.9643H254.347C255.548 70.9643 256.7 71.4414 257.549 72.2907C258.399 73.1401 258.876 74.292 258.876 75.4931V121.518C258.876 122.72 258.398 123.872 257.549 124.722C256.699 125.571 255.546 126.049 254.345 126.049Z" fill="white"/>
<path d="M186.402 121.517V75.4925C186.402 74.2412 186.899 73.0411 187.784 72.1563C188.669 71.2715 189.869 70.7744 191.12 70.7744H254.347C255.598 70.7744 256.798 71.2715 257.683 72.1563C258.568 73.0411 259.065 74.2412 259.065 75.4925V121.517C259.065 122.137 258.943 122.751 258.706 123.324C258.468 123.896 258.121 124.417 257.682 124.855C257.244 125.293 256.724 125.641 256.151 125.878C255.578 126.115 254.965 126.238 254.345 126.238H191.122C190.502 126.238 189.889 126.115 189.316 125.878C188.743 125.641 188.223 125.293 187.785 124.855C187.346 124.417 186.999 123.896 186.761 123.324C186.524 122.751 186.402 122.137 186.402 121.517ZM191.12 71.153C189.97 71.1533 188.866 71.6107 188.053 72.4245C187.239 73.2382 186.782 74.3418 186.782 75.4925V121.517C186.782 122.669 187.239 123.773 188.054 124.587C188.868 125.402 189.972 125.859 191.124 125.859H254.345C255.496 125.859 256.6 125.402 257.415 124.587C258.229 123.773 258.686 122.669 258.686 121.517V75.4925C258.686 74.3416 258.229 73.2379 257.415 72.424C256.601 71.6102 255.498 71.153 254.347 71.153H191.12Z" fill="#292A2E"/>
<path d="M186.592 75.4922V79.3271H258.875V75.4922C258.875 74.2911 258.398 73.1392 257.549 72.2898C256.7 71.4405 255.548 70.9634 254.346 70.9634H191.121C190.526 70.9634 189.937 71.0805 189.388 71.3081C188.838 71.5357 188.339 71.8693 187.918 72.2899C187.498 72.7104 187.164 73.2097 186.937 73.7591C186.709 74.3086 186.592 74.8975 186.592 75.4922Z" fill="#292A2E"/>
<path d="M211.278 85.5251H207.867C207.827 85.5251 207.788 85.5091 207.76 85.4807C207.732 85.4523 207.716 85.4138 207.716 85.3736C207.716 85.3334 207.732 85.2949 207.76 85.2665C207.788 85.2381 207.827 85.2222 207.867 85.2222H211.278C211.318 85.2222 211.357 85.2381 211.385 85.2665C211.413 85.2949 211.429 85.3334 211.429 85.3736C211.429 85.4138 211.413 85.4523 211.385 85.4807C211.357 85.5091 211.318 85.5251 211.278 85.5251Z" fill="#292A2E"/>
<path d="M205.407 85.5241H204.117C204.077 85.5241 204.038 85.5081 204.01 85.4797C203.981 85.4513 203.965 85.4128 203.965 85.3726C203.965 85.3325 203.981 85.294 204.01 85.2655C204.038 85.2371 204.077 85.2212 204.117 85.2212H205.407C205.448 85.2212 205.486 85.2371 205.514 85.2655C205.543 85.294 205.559 85.3325 205.559 85.3726C205.559 85.4128 205.543 85.4513 205.514 85.4797C205.486 85.5081 205.448 85.5241 205.407 85.5241Z" fill="#2F80ED"/>
<path d="M205.407 88.2565H204.117C204.077 88.2565 204.038 88.2405 204.01 88.2121C203.981 88.1837 203.965 88.1452 203.965 88.1051C203.965 88.0649 203.981 88.0264 204.01 87.998C204.038 87.9696 204.077 87.9536 204.117 87.9536H205.407C205.448 87.9536 205.486 87.9696 205.514 87.998C205.543 88.0264 205.559 88.0649 205.559 88.1051C205.559 88.1452 205.543 88.1837 205.514 88.2121C205.486 88.2405 205.448 88.2565 205.407 88.2565Z" fill="#2F80ED"/>
<path d="M205.407 90.987H204.117C204.077 90.987 204.038 90.971 204.01 90.9426C203.981 90.9142 203.965 90.8757 203.965 90.8355C203.965 90.7954 203.981 90.7568 204.01 90.7284C204.038 90.7 204.077 90.6841 204.117 90.6841H205.407C205.448 90.6841 205.486 90.7 205.514 90.7284C205.543 90.7568 205.559 90.7954 205.559 90.8355C205.559 90.8757 205.543 90.9142 205.514 90.9426C205.486 90.971 205.448 90.987 205.407 90.987Z" fill="#2F80ED"/>
<path d="M205.407 93.7194H204.117C204.077 93.7194 204.038 93.7034 204.01 93.675C203.981 93.6466 203.965 93.6081 203.965 93.5679C203.965 93.5278 203.981 93.4893 204.01 93.4609C204.038 93.4325 204.077 93.4165 204.117 93.4165H205.407C205.448 93.4165 205.486 93.4325 205.514 93.4609C205.543 93.4893 205.559 93.5278 205.559 93.5679C205.559 93.6081 205.543 93.6466 205.514 93.675C205.486 93.7034 205.448 93.7194 205.407 93.7194Z" fill="#2F80ED"/>
<path d="M205.407 96.4523H204.117C204.077 96.4523 204.038 96.4363 204.01 96.4079C203.981 96.3795 203.965 96.341 203.965 96.3009C203.965 96.2607 203.981 96.2222 204.01 96.1938C204.038 96.1654 204.077 96.1494 204.117 96.1494H205.407C205.448 96.1494 205.486 96.1654 205.514 96.1938C205.543 96.2222 205.559 96.2607 205.559 96.3009C205.559 96.341 205.543 96.3795 205.514 96.4079C205.486 96.4363 205.448 96.4523 205.407 96.4523Z" fill="#2F80ED"/>
<path d="M205.407 99.1847H204.117C204.077 99.1847 204.038 99.1688 204.01 99.1404C203.981 99.112 203.965 99.0734 203.965 99.0333C203.965 98.9931 203.981 98.9546 204.01 98.9262C204.038 98.8978 204.077 98.8818 204.117 98.8818H205.407C205.448 98.8818 205.486 98.8978 205.514 98.9262C205.543 98.9546 205.559 98.9931 205.559 99.0333C205.559 99.0734 205.543 99.112 205.514 99.1404C205.486 99.1688 205.448 99.1847 205.407 99.1847Z" fill="#2F80ED"/>
<path d="M205.407 101.916H204.117C204.077 101.916 204.038 101.9 204.01 101.872C203.981 101.843 203.965 101.805 203.965 101.765C203.965 101.725 203.981 101.686 204.01 101.658C204.038 101.629 204.077 101.613 204.117 101.613H205.407C205.448 101.613 205.486 101.629 205.514 101.658C205.543 101.686 205.559 101.725 205.559 101.765C205.559 101.805 205.543 101.843 205.514 101.872C205.486 101.9 205.448 101.916 205.407 101.916Z" fill="#2F80ED"/>
<path d="M205.407 104.648H204.117C204.077 104.648 204.038 104.632 204.01 104.603C203.981 104.575 203.965 104.536 203.965 104.496C203.965 104.456 203.981 104.417 204.01 104.389C204.038 104.361 204.077 104.345 204.117 104.345H205.407C205.448 104.345 205.486 104.361 205.514 104.389C205.543 104.417 205.559 104.456 205.559 104.496C205.559 104.536 205.543 104.575 205.514 104.603C205.486 104.632 205.448 104.648 205.407 104.648Z" fill="#2F80ED"/>
<path d="M205.407 107.381H204.117C204.077 107.381 204.038 107.365 204.01 107.336C203.981 107.308 203.965 107.269 203.965 107.229C203.965 107.189 203.981 107.15 204.01 107.122C204.038 107.094 204.077 107.078 204.117 107.078H205.407C205.448 107.078 205.486 107.094 205.514 107.122C205.543 107.15 205.559 107.189 205.559 107.229C205.559 107.269 205.543 107.308 205.514 107.336C205.486 107.365 205.448 107.381 205.407 107.381Z" fill="#2F80ED"/>
<path d="M205.407 110.112H204.117C204.077 110.112 204.038 110.096 204.01 110.068C203.981 110.039 203.965 110.001 203.965 109.961C203.965 109.92 203.981 109.882 204.01 109.853C204.038 109.825 204.077 109.809 204.117 109.809H205.407C205.448 109.809 205.486 109.825 205.514 109.853C205.543 109.882 205.559 109.92 205.559 109.961C205.559 110.001 205.543 110.039 205.514 110.068C205.486 110.096 205.448 110.112 205.407 110.112Z" fill="#2F80ED"/>
<path d="M205.407 112.844H204.117C204.077 112.844 204.038 112.828 204.01 112.8C203.981 112.772 203.965 112.733 203.965 112.693C203.965 112.653 203.981 112.614 204.01 112.586C204.038 112.557 204.077 112.542 204.117 112.542H205.407C205.448 112.542 205.486 112.557 205.514 112.586C205.543 112.614 205.559 112.653 205.559 112.693C205.559 112.733 205.543 112.772 205.514 112.8C205.486 112.828 205.448 112.844 205.407 112.844Z" fill="#2F80ED"/>
<path d="M205.407 115.577H204.117C204.077 115.577 204.038 115.561 204.01 115.533C203.981 115.505 203.965 115.466 203.965 115.426C203.965 115.386 203.981 115.347 204.01 115.319C204.038 115.29 204.077 115.274 204.117 115.274H205.407C205.448 115.274 205.486 115.29 205.514 115.319C205.543 115.347 205.559 115.386 205.559 115.426C205.559 115.466 205.543 115.505 205.514 115.533C205.486 115.561 205.448 115.577 205.407 115.577Z" fill="#2F80ED"/>
<path d="M205.407 118.309H204.117C204.077 118.309 204.038 118.293 204.01 118.264C203.981 118.236 203.965 118.197 203.965 118.157C203.965 118.117 203.981 118.079 204.01 118.05C204.038 118.022 204.077 118.006 204.117 118.006H205.407C205.448 118.006 205.486 118.022 205.514 118.05C205.543 118.079 205.559 118.117 205.559 118.157C205.559 118.197 205.543 118.236 205.514 118.264C205.486 118.293 205.448 118.309 205.407 118.309Z" fill="#2F80ED"/>
<path d="M205.407 121.041H204.117C204.077 121.041 204.038 121.025 204.01 120.997C203.981 120.968 203.965 120.93 203.965 120.89C203.965 120.85 203.981 120.811 204.01 120.783C204.038 120.754 204.077 120.738 204.117 120.738H205.407C205.448 120.738 205.486 120.754 205.514 120.783C205.543 120.811 205.559 120.85 205.559 120.89C205.559 120.93 205.543 120.968 205.514 120.997C205.486 121.025 205.448 121.041 205.407 121.041Z" fill="#2F80ED"/>
<path d="M214.004 88.2565H210.896C210.856 88.2565 210.817 88.2405 210.789 88.2121C210.76 88.1837 210.744 88.1452 210.744 88.1051C210.744 88.0649 210.76 88.0264 210.789 87.998C210.817 87.9696 210.856 87.9536 210.896 87.9536H214.004C214.044 87.9536 214.082 87.9696 214.111 87.998C214.139 88.0264 214.155 88.0649 214.155 88.1051C214.155 88.1452 214.139 88.1837 214.111 88.2121C214.082 88.2405 214.044 88.2565 214.004 88.2565Z" fill="#292A2E"/>
<path d="M211.278 104.65H207.867C207.827 104.65 207.788 104.634 207.76 104.606C207.732 104.577 207.716 104.539 207.716 104.499C207.716 104.458 207.732 104.42 207.76 104.392C207.788 104.363 207.827 104.347 207.867 104.347H211.278C211.318 104.347 211.357 104.363 211.385 104.392C211.413 104.42 211.429 104.458 211.429 104.499C211.429 104.539 211.413 104.577 211.385 104.606C211.357 104.634 211.318 104.65 211.278 104.65Z" fill="#292A2E"/>
<path d="M214.004 107.382H210.896C210.856 107.382 210.817 107.366 210.789 107.337C210.76 107.309 210.744 107.27 210.744 107.23C210.744 107.19 210.76 107.151 210.789 107.123C210.817 107.095 210.856 107.079 210.896 107.079H214.004C214.044 107.079 214.082 107.095 214.111 107.123C214.139 107.151 214.155 107.19 214.155 107.23C214.155 107.27 214.139 107.309 214.111 107.337C214.082 107.366 214.044 107.382 214.004 107.382Z" fill="#292A2E"/>
<path d="M231.572 90.9894H213.016C212.976 90.9894 212.937 90.9735 212.909 90.9451C212.881 90.9167 212.865 90.8781 212.865 90.838C212.865 90.7978 212.881 90.7593 212.909 90.7309C212.937 90.7025 212.976 90.6865 213.016 90.6865H231.572C231.612 90.6865 231.65 90.7025 231.679 90.7309C231.707 90.7593 231.723 90.7978 231.723 90.838C231.723 90.8781 231.707 90.9167 231.679 90.9451C231.65 90.9735 231.612 90.9894 231.572 90.9894Z" fill="#292A2E"/>
<path d="M247.954 90.9894H234.851C234.81 90.9894 234.772 90.9735 234.744 90.9451C234.715 90.9167 234.699 90.8781 234.699 90.838C234.699 90.7978 234.715 90.7593 234.744 90.7309C234.772 90.7025 234.81 90.6865 234.851 90.6865H247.954C247.994 90.6865 248.032 90.7025 248.061 90.7309C248.089 90.7593 248.105 90.7978 248.105 90.838C248.105 90.8781 248.089 90.9167 248.061 90.9451C248.032 90.9735 247.994 90.9894 247.954 90.9894Z" fill="#0CBC8B"/>
<path d="M254.986 90.9894H250.969C250.929 90.9894 250.891 90.9735 250.862 90.9451C250.834 90.9167 250.818 90.8781 250.818 90.838C250.818 90.7978 250.834 90.7593 250.862 90.7309C250.891 90.7025 250.929 90.6865 250.969 90.6865H254.986C255.026 90.6865 255.064 90.7025 255.093 90.7309C255.121 90.7593 255.137 90.7978 255.137 90.838C255.137 90.8781 255.121 90.9167 255.093 90.9451C255.064 90.9735 255.026 90.9894 254.986 90.9894Z" fill="#292A2E"/>
<path d="M240.658 96.4528H213.016C212.976 96.4528 212.937 96.4368 212.909 96.4084C212.88 96.38 212.864 96.3415 212.864 96.3013C212.864 96.2612 212.88 96.2227 212.909 96.1943C212.937 96.1659 212.976 96.1499 213.016 96.1499H240.658C240.698 96.1499 240.736 96.1659 240.765 96.1943C240.793 96.2227 240.809 96.2612 240.809 96.3013C240.809 96.3415 240.793 96.38 240.765 96.4084C240.736 96.4368 240.698 96.4528 240.658 96.4528Z" fill="#292A2E"/>
<path d="M247.953 96.4528H243.937C243.897 96.4528 243.858 96.4368 243.83 96.4084C243.801 96.38 243.785 96.3415 243.785 96.3013C243.785 96.2612 243.801 96.2227 243.83 96.1943C243.858 96.1659 243.897 96.1499 243.937 96.1499H247.953C247.993 96.1499 248.032 96.1659 248.06 96.1943C248.089 96.2227 248.105 96.2612 248.105 96.3013C248.105 96.3415 248.089 96.38 248.06 96.4084C248.032 96.4368 247.993 96.4528 247.953 96.4528Z" fill="#2F80ED"/>
<path d="M216.427 93.7213H213.016C212.976 93.7213 212.937 93.7054 212.909 93.677C212.881 93.6486 212.865 93.6101 212.865 93.5699C212.865 93.5297 212.881 93.4912 212.909 93.4628C212.937 93.4344 212.976 93.4185 213.016 93.4185H216.427C216.467 93.4185 216.506 93.4344 216.534 93.4628C216.563 93.4912 216.578 93.5297 216.578 93.5699C216.578 93.6101 216.563 93.6486 216.534 93.677C216.506 93.7054 216.467 93.7213 216.427 93.7213Z" fill="#0CBC8B"/>
<path d="M238.867 93.7213H219.706C219.666 93.7213 219.627 93.7054 219.599 93.677C219.571 93.6486 219.555 93.6101 219.555 93.5699C219.555 93.5297 219.571 93.4912 219.599 93.4628C219.627 93.4344 219.666 93.4185 219.706 93.4185H238.867C238.907 93.4185 238.946 93.4344 238.974 93.4628C239.002 93.4912 239.018 93.5297 239.018 93.5699C239.018 93.6101 239.002 93.6486 238.974 93.677C238.946 93.7054 238.907 93.7213 238.867 93.7213Z" fill="#2F80ED"/>
<path d="M255.012 93.7213H242.514C242.474 93.7213 242.435 93.7054 242.407 93.677C242.378 93.6486 242.363 93.6101 242.363 93.5699C242.363 93.5297 242.378 93.4912 242.407 93.4628C242.435 93.4344 242.474 93.4185 242.514 93.4185H255.012C255.052 93.4185 255.09 93.4344 255.119 93.4628C255.147 93.4912 255.163 93.5297 255.163 93.5699C255.163 93.6101 255.147 93.6486 255.119 93.677C255.09 93.7054 255.052 93.7213 255.012 93.7213H255.012Z" fill="#292A2E"/>
<path d="M231.571 99.1862H213.016C212.976 99.1862 212.937 99.1702 212.909 99.1418C212.88 99.1134 212.864 99.0749 212.864 99.0347C212.864 98.9946 212.88 98.9561 212.909 98.9277C212.937 98.8993 212.976 98.8833 213.016 98.8833H231.571C231.611 98.8833 231.65 98.8993 231.678 98.9277C231.707 98.9561 231.723 98.9946 231.723 99.0347C231.723 99.0749 231.707 99.1134 231.678 99.1418C231.65 99.1702 231.611 99.1862 231.571 99.1862Z" fill="#292A2E"/>
<path d="M241.896 99.1862H234.85C234.81 99.1862 234.772 99.1702 234.743 99.1418C234.715 99.1134 234.699 99.0749 234.699 99.0347C234.699 98.9946 234.715 98.9561 234.743 98.9277C234.772 98.8993 234.81 98.8833 234.85 98.8833H241.896C241.936 98.8833 241.974 98.8993 242.003 98.9277C242.031 98.9561 242.047 98.9946 242.047 99.0347C242.047 99.0749 242.031 99.1134 242.003 99.1418C241.974 99.1702 241.936 99.1862 241.896 99.1862Z" fill="#0CBC8B"/>
<path d="M254.986 99.1862H244.911C244.871 99.1862 244.833 99.1702 244.804 99.1418C244.776 99.1134 244.76 99.0749 244.76 99.0347C244.76 98.9946 244.776 98.9561 244.804 98.9277C244.833 98.8993 244.871 98.8833 244.911 98.8833H254.986C255.026 98.8833 255.064 98.8993 255.093 98.9277C255.121 98.9561 255.137 98.9946 255.137 99.0347C255.137 99.0749 255.121 99.1134 255.093 99.1418C255.064 99.1702 255.026 99.1862 254.986 99.1862Z" fill="#292A2E"/>
<path d="M216.427 101.916H213.016C212.976 101.916 212.937 101.9 212.909 101.872C212.881 101.843 212.865 101.805 212.865 101.765C212.865 101.725 212.881 101.686 212.909 101.658C212.937 101.629 212.976 101.613 213.016 101.613H216.427C216.467 101.613 216.506 101.629 216.534 101.658C216.563 101.686 216.578 101.725 216.578 101.765C216.578 101.805 216.563 101.843 216.534 101.872C216.506 101.9 216.467 101.916 216.427 101.916Z" fill="#2F80ED"/>
<path d="M238.867 101.916H219.706C219.666 101.916 219.627 101.9 219.599 101.872C219.571 101.843 219.555 101.805 219.555 101.765C219.555 101.725 219.571 101.686 219.599 101.658C219.627 101.629 219.666 101.613 219.706 101.613H238.867C238.907 101.613 238.946 101.629 238.974 101.658C239.002 101.686 239.018 101.725 239.018 101.765C239.018 101.805 239.002 101.843 238.974 101.872C238.946 101.9 238.907 101.916 238.867 101.916Z" fill="#0CBC8B"/>
<path d="M230.966 112.846H212.41C212.37 112.846 212.332 112.83 212.303 112.802C212.275 112.774 212.259 112.735 212.259 112.695C212.259 112.655 212.275 112.616 212.303 112.588C212.332 112.559 212.37 112.543 212.41 112.543H230.966C231.006 112.543 231.044 112.559 231.073 112.588C231.101 112.616 231.117 112.655 231.117 112.695C231.117 112.735 231.101 112.774 231.073 112.802C231.044 112.83 231.006 112.846 230.966 112.846Z" fill="#292A2E"/>
<path d="M247.348 112.846H234.245C234.205 112.846 234.166 112.83 234.138 112.802C234.109 112.774 234.094 112.735 234.094 112.695C234.094 112.655 234.109 112.616 234.138 112.588C234.166 112.559 234.205 112.543 234.245 112.543H247.348C247.388 112.543 247.427 112.559 247.455 112.588C247.483 112.616 247.499 112.655 247.499 112.695C247.499 112.735 247.483 112.774 247.455 112.802C247.427 112.83 247.388 112.846 247.348 112.846Z" fill="#2F80ED"/>
<path d="M221.879 110.113H212.41C212.37 110.113 212.332 110.097 212.303 110.069C212.275 110.04 212.259 110.002 212.259 109.962C212.259 109.921 212.275 109.883 212.303 109.854C212.332 109.826 212.37 109.81 212.41 109.81H221.879C221.919 109.81 221.958 109.826 221.986 109.854C222.014 109.883 222.03 109.921 222.03 109.962C222.03 110.002 222.014 110.04 221.986 110.069C221.958 110.097 221.919 110.113 221.879 110.113Z" fill="#0CBC8B"/>
<path d="M238.261 110.113H225.158C225.118 110.113 225.08 110.097 225.051 110.069C225.023 110.04 225.007 110.002 225.007 109.962C225.007 109.921 225.023 109.883 225.051 109.854C225.08 109.826 225.118 109.81 225.158 109.81H238.261C238.301 109.81 238.34 109.826 238.368 109.854C238.397 109.883 238.413 109.921 238.413 109.962C238.413 110.002 238.397 110.04 238.368 110.069C238.34 110.097 238.301 110.113 238.261 110.113Z" fill="#2F80ED"/>
<path d="M254.406 110.113H241.908C241.868 110.113 241.83 110.097 241.801 110.069C241.773 110.04 241.757 110.002 241.757 109.962C241.757 109.921 241.773 109.883 241.801 109.854C241.83 109.826 241.868 109.81 241.908 109.81H254.406C254.446 109.81 254.485 109.826 254.513 109.854C254.541 109.883 254.557 109.921 254.557 109.962C254.557 110.002 254.541 110.04 254.513 110.069C254.485 110.097 254.446 110.113 254.406 110.113H254.406Z" fill="#292A2E"/>
<path d="M240.052 118.311H212.41C212.37 118.311 212.331 118.295 212.303 118.267C212.274 118.238 212.259 118.2 212.259 118.16C212.259 118.12 212.274 118.081 212.303 118.053C212.331 118.024 212.37 118.008 212.41 118.008H240.052C240.092 118.008 240.131 118.024 240.159 118.053C240.188 118.081 240.204 118.12 240.204 118.16C240.204 118.2 240.188 118.238 240.159 118.267C240.131 118.295 240.092 118.311 240.052 118.311Z" fill="#2F80ED"/>
<path d="M247.347 118.311H243.331C243.291 118.311 243.252 118.295 243.224 118.267C243.196 118.238 243.18 118.2 243.18 118.16C243.18 118.12 243.196 118.081 243.224 118.053C243.252 118.024 243.291 118.008 243.331 118.008H247.347C247.388 118.008 247.426 118.024 247.455 118.053C247.483 118.081 247.499 118.12 247.499 118.16C247.499 118.2 247.483 118.238 247.455 118.267C247.426 118.295 247.388 118.311 247.347 118.311Z" fill="#292A2E"/>
<path d="M215.821 115.578H212.41C212.37 115.578 212.331 115.562 212.303 115.533C212.274 115.505 212.259 115.467 212.259 115.426C212.259 115.386 212.274 115.348 212.303 115.319C212.331 115.291 212.37 115.275 212.41 115.275H215.821C215.861 115.275 215.9 115.291 215.928 115.319C215.956 115.348 215.972 115.386 215.972 115.426C215.972 115.467 215.956 115.505 215.928 115.533C215.9 115.562 215.861 115.578 215.821 115.578Z" fill="#2F80ED"/>
<path d="M238.261 115.578H219.1C219.06 115.578 219.022 115.562 218.993 115.533C218.965 115.505 218.949 115.467 218.949 115.426C218.949 115.386 218.965 115.348 218.993 115.319C219.022 115.291 219.06 115.275 219.1 115.275H238.261C238.301 115.275 238.34 115.291 238.368 115.319C238.397 115.348 238.412 115.386 238.412 115.426C238.412 115.467 238.397 115.505 238.368 115.533C238.34 115.562 238.301 115.578 238.261 115.578Z" fill="#292A2E"/>
<path d="M254.406 115.578H241.908C241.868 115.578 241.829 115.562 241.801 115.533C241.772 115.505 241.756 115.467 241.756 115.426C241.756 115.386 241.772 115.348 241.801 115.319C241.829 115.291 241.868 115.275 241.908 115.275H254.405C254.446 115.275 254.484 115.291 254.512 115.319C254.541 115.348 254.557 115.386 254.557 115.426C254.557 115.467 254.541 115.505 254.512 115.533C254.484 115.562 254.446 115.578 254.405 115.578H254.406Z" fill="#0CBC8B"/>
<path d="M230.966 121.041H212.411C212.371 121.041 212.332 121.025 212.304 120.997C212.275 120.968 212.259 120.93 212.259 120.89C212.259 120.85 212.275 120.811 212.304 120.783C212.332 120.754 212.371 120.738 212.411 120.738H230.966C231.006 120.738 231.045 120.754 231.073 120.783C231.102 120.811 231.118 120.85 231.118 120.89C231.118 120.93 231.102 120.968 231.073 120.997C231.045 121.025 231.006 121.041 230.966 121.041Z" fill="#0CBC8B"/>
<path d="M241.29 121.041H234.245C234.205 121.041 234.167 121.025 234.138 120.997C234.11 120.968 234.094 120.93 234.094 120.89C234.094 120.85 234.11 120.811 234.138 120.783C234.167 120.754 234.205 120.738 234.245 120.738H241.29C241.331 120.738 241.369 120.754 241.398 120.783C241.426 120.811 241.442 120.85 241.442 120.89C241.442 120.93 241.426 120.968 241.398 120.997C241.369 121.025 241.331 121.041 241.29 121.041Z" fill="#292A2E"/>
<path d="M254.381 121.041H244.306C244.266 121.041 244.228 121.025 244.199 120.997C244.171 120.968 244.155 120.93 244.155 120.89C244.155 120.85 244.171 120.811 244.199 120.783C244.228 120.754 244.266 120.738 244.306 120.738H254.381C254.421 120.738 254.459 120.754 254.488 120.783C254.516 120.811 254.532 120.85 254.532 120.89C254.532 120.93 254.516 120.968 254.488 120.997C254.459 121.025 254.421 121.041 254.381 121.041Z" fill="#2F80ED"/>
<path d="M202.678 123.966C202.638 123.966 202.599 123.95 202.571 123.922C202.542 123.893 202.526 123.855 202.526 123.815V80.7559C202.526 80.7158 202.542 80.6773 202.571 80.6488C202.599 80.6204 202.638 80.6045 202.678 80.6045C202.718 80.6045 202.757 80.6204 202.785 80.6488C202.813 80.6773 202.829 80.7158 202.829 80.7559V123.815C202.829 123.855 202.813 123.893 202.785 123.922C202.757 123.95 202.718 123.966 202.678 123.966Z" fill="#292A2E"/>
<path d="M253.399 77.8767C254.741 77.8767 255.829 76.7888 255.829 75.4469C255.829 74.1049 254.741 73.0171 253.399 73.0171C252.057 73.0171 250.969 74.1049 250.969 75.4469C250.969 76.7888 252.057 77.8767 253.399 77.8767Z" fill="white"/>
<path d="M195.751 82.6486H189.193C189.153 82.6486 189.115 82.6326 189.086 82.6042C189.058 82.5758 189.042 82.5373 189.042 82.4971C189.042 82.457 189.058 82.4185 189.086 82.3901C189.115 82.3617 189.153 82.3457 189.193 82.3457H195.751C195.792 82.3457 195.83 82.3617 195.858 82.3901C195.887 82.4185 195.903 82.457 195.903 82.4971C195.903 82.5373 195.887 82.5758 195.858 82.6042C195.83 82.6326 195.792 82.6486 195.751 82.6486Z" fill="#292A2E"/>
<path d="M193.776 85.6359H189.193C189.153 85.6359 189.115 85.6199 189.086 85.5915C189.058 85.5631 189.042 85.5246 189.042 85.4845C189.042 85.4443 189.058 85.4058 189.086 85.3774C189.115 85.349 189.153 85.333 189.193 85.333H193.776C193.816 85.333 193.854 85.349 193.883 85.3774C193.911 85.4058 193.927 85.4443 193.927 85.4845C193.927 85.5246 193.911 85.5631 193.883 85.5915C193.854 85.6199 193.816 85.6359 193.776 85.6359Z" fill="#292A2E"/>
<path d="M197.806 88.6232H189.193C189.153 88.6232 189.115 88.6072 189.086 88.5788C189.058 88.5504 189.042 88.5119 189.042 88.4718C189.042 88.4316 189.058 88.3931 189.086 88.3647C189.115 88.3363 189.153 88.3203 189.193 88.3203H197.806C197.846 88.3203 197.884 88.3363 197.913 88.3647C197.941 88.3931 197.957 88.4316 197.957 88.4718C197.957 88.5119 197.941 88.5504 197.913 88.5788C197.884 88.6072 197.846 88.6232 197.806 88.6232Z" fill="#292A2E"/>
<path d="M199.413 91.6105H192.222C192.182 91.6105 192.144 91.5946 192.115 91.5662C192.087 91.5377 192.071 91.4992 192.071 91.4591C192.071 91.4189 192.087 91.3804 192.115 91.352C192.144 91.3236 192.182 91.3076 192.222 91.3076H199.413C199.453 91.3076 199.492 91.3236 199.52 91.352C199.548 91.3804 199.564 91.4189 199.564 91.4591C199.564 91.4992 199.548 91.5377 199.52 91.5662C199.492 91.5946 199.453 91.6105 199.413 91.6105Z" fill="#292A2E"/>
<path d="M195.936 94.5968H192.222C192.182 94.5968 192.144 94.5809 192.115 94.5525C192.087 94.5241 192.071 94.4856 192.071 94.4454C192.071 94.4052 192.087 94.3667 192.115 94.3383C192.144 94.3099 192.182 94.2939 192.222 94.2939H195.936C195.976 94.2939 196.014 94.3099 196.043 94.3383C196.071 94.3667 196.087 94.4052 196.087 94.4454C196.087 94.4856 196.071 94.5241 196.043 94.5525C196.014 94.5809 195.976 94.5968 195.936 94.5968Z" fill="#292A2E"/>
<path d="M198.78 97.5841H192.222C192.182 97.5841 192.144 97.5682 192.115 97.5398C192.087 97.5114 192.071 97.4729 192.071 97.4327C192.071 97.3925 192.087 97.354 192.115 97.3256C192.144 97.2972 192.182 97.2812 192.222 97.2812H198.78C198.821 97.2812 198.859 97.2972 198.888 97.3256C198.916 97.354 198.932 97.3925 198.932 97.4327C198.932 97.4729 198.916 97.5114 198.888 97.5398C198.859 97.5682 198.821 97.5841 198.78 97.5841Z" fill="#292A2E"/>
<path d="M194.25 100.571H189.193C189.153 100.571 189.115 100.555 189.086 100.527C189.058 100.499 189.042 100.46 189.042 100.42C189.042 100.38 189.058 100.341 189.086 100.313C189.115 100.285 189.153 100.269 189.193 100.269H194.25C194.29 100.269 194.329 100.285 194.357 100.313C194.385 100.341 194.401 100.38 194.401 100.42C194.401 100.46 194.385 100.499 194.357 100.527C194.329 100.555 194.29 100.571 194.25 100.571Z" fill="#292A2E"/>
<path d="M192.512 103.558H189.193C189.153 103.558 189.115 103.542 189.086 103.513C189.058 103.485 189.042 103.446 189.042 103.406C189.042 103.366 189.058 103.328 189.086 103.299C189.115 103.271 189.153 103.255 189.193 103.255H192.512C192.552 103.255 192.59 103.271 192.619 103.299C192.647 103.328 192.663 103.366 192.663 103.406C192.663 103.446 192.647 103.485 192.619 103.513C192.59 103.542 192.552 103.558 192.512 103.558Z" fill="#292A2E"/>
<path d="M205.201 82.0079V82.0624L207.094 82.7651C207.121 82.7761 207.144 82.795 207.161 82.8193C207.177 82.8436 207.185 82.8722 207.185 82.9014V82.9529C207.186 82.9756 207.18 82.9981 207.17 83.0183C207.159 83.0384 207.144 83.0555 207.125 83.068C207.105 83.0815 207.083 83.09 207.06 83.0926C207.036 83.0953 207.013 83.092 206.991 83.0831L204.853 82.2471C204.826 82.2365 204.803 82.2181 204.787 82.1944C204.771 82.1706 204.762 82.1426 204.762 82.1139V81.9594C204.762 81.9306 204.77 81.9024 204.787 81.8785C204.803 81.8547 204.826 81.8364 204.853 81.8261L206.991 80.9871C207.009 80.9812 207.027 80.9781 207.045 80.978C207.074 80.9786 207.101 80.987 207.125 81.0023C207.144 81.0154 207.159 81.033 207.17 81.0537C207.18 81.0743 207.186 81.0972 207.185 81.1204V81.1719C207.186 81.2008 207.177 81.2292 207.161 81.2531C207.145 81.277 207.121 81.2952 207.094 81.3051L205.201 82.0079Z" fill="#2F80ED"/>
<path d="M208.954 80.3688L207.821 83.8369C207.812 83.8659 207.794 83.8911 207.769 83.9091C207.745 83.9271 207.715 83.9368 207.685 83.9369C207.663 83.9372 207.641 83.9322 207.621 83.9221C207.602 83.9121 207.585 83.8974 207.573 83.8793C207.559 83.8614 207.55 83.8406 207.546 83.8186C207.542 83.7965 207.543 83.7737 207.549 83.7521L208.681 80.2871C208.691 80.2576 208.71 80.2318 208.734 80.2134C208.759 80.1949 208.79 80.1847 208.821 80.1841C208.842 80.184 208.864 80.1892 208.884 80.1992C208.903 80.2092 208.92 80.2238 208.933 80.2416C208.946 80.2595 208.955 80.2805 208.959 80.3026C208.963 80.3248 208.961 80.3475 208.954 80.3688Z" fill="#2F80ED"/>
<path d="M211.736 81.9594V82.1139C211.736 82.1423 211.728 82.1703 211.712 82.194C211.697 82.2178 211.674 82.2363 211.648 82.2471L209.506 83.0831C209.485 83.0919 209.462 83.0952 209.439 83.0925C209.417 83.0898 209.395 83.0814 209.376 83.068C209.357 83.0557 209.341 83.0387 209.33 83.0185C209.319 82.9984 209.313 82.9759 209.313 82.9529V82.9014C209.312 82.8718 209.321 82.8428 209.338 82.8184C209.355 82.794 209.379 82.7754 209.406 82.7651L211.299 82.0624V82.0079L209.406 81.3052C209.379 81.2959 209.354 81.278 209.338 81.254C209.321 81.23 209.312 81.2012 209.313 81.1719V81.1204C209.313 81.097 209.318 81.074 209.33 81.0534C209.341 81.0328 209.357 81.0152 209.376 81.0023C209.4 80.9871 209.427 80.9787 209.455 80.978C209.472 80.9778 209.49 80.9809 209.506 80.9871L211.648 81.8261C211.674 81.8366 211.697 81.8551 211.713 81.8789C211.728 81.9027 211.736 81.9309 211.736 81.9594Z" fill="#2F80ED"/>
</svg>
