<svg width="312" height="260" viewBox="0 0 312 260" fill="none" xmlns="http://www.w3.org/2000/svg">
<path d="M305.239 219.192H6.7607C3.02687 219.192 0 222.219 0 225.953V225.953C0 229.687 3.02687 232.714 6.7607 232.714H305.239C308.973 232.714 312 229.687 312 225.953V225.953C312 222.219 308.973 219.192 305.239 219.192Z" fill="#DEE8F5"/>
<path d="M281.068 28H29.9284C24.4289 28 19.9707 32.4582 19.9707 37.9577V211.432C19.9707 216.931 24.4289 221.389 29.9284 221.389H281.068C286.568 221.389 291.026 216.931 291.026 211.432V37.9577C291.026 32.4582 286.568 28 281.068 28Z" fill="#DEE8F5"/>
<path d="M280.449 34.791H30.5462C28.1147 34.791 26.1436 36.7621 26.1436 39.1936V209.98C26.1436 212.412 28.1147 214.383 30.5462 214.383H280.449C282.88 214.383 284.852 212.412 284.852 209.98V39.1936C284.852 36.7621 282.88 34.791 280.449 34.791Z" fill="white"/>
<path d="M151.077 43.4971H34.8848V120.898H151.077V43.4971Z" fill="#F3F5FD"/>
<path d="M48.7895 53.2256H39.1523V120.798H48.7895V53.2256Z" fill="#C1D8ED"/>
<path d="M48.7892 120.798H80.3726L80.3726 53.2257H48.7892L48.7892 120.798Z" fill="#DEE8F5"/>
<g opacity="0.53">
<path d="M50.2132 119.389H78.9492V95.7816H50.2132V119.389Z" fill="#F3F5FD"/>
</g>
<g opacity="0.53">
<path d="M50.2132 66.9429H78.9492V54.6795H50.2132V66.9429Z" fill="white"/>
</g>
<g opacity="0.53">
<path d="M50.2132 80.604H78.9492V68.3407H50.2132V80.604Z" fill="white"/>
</g>
<g opacity="0.53">
<path d="M50.2132 94.2642H78.9492V82.0008H50.2132V94.2642Z" fill="white"/>
</g>
<path d="M63.9432 119.84H65.2173V95.374H63.9432V119.84Z" fill="#DEE8F5"/>
<path d="M68.3487 115.849C69.0647 115.849 69.6452 115.268 69.6452 114.552C69.6452 113.836 69.0647 113.256 68.3487 113.256C67.6327 113.256 67.0522 113.836 67.0522 114.552C67.0522 115.268 67.6327 115.849 68.3487 115.849Z" fill="white"/>
<path d="M60.8111 115.849C61.5271 115.849 62.1076 115.268 62.1076 114.552C62.1076 113.836 61.5271 113.256 60.8111 113.256C60.0951 113.256 59.5146 113.836 59.5146 114.552C59.5146 115.268 60.0951 115.849 60.8111 115.849Z" fill="white"/>
<path d="M73.5717 70.792V72.7175V80.6028H63.4502V72.7175V70.792H73.5717Z" fill="#C1D8ED"/>
<path d="M76.642 72.7178H66.5205V80.6034H76.642V72.7178Z" fill="#DEE8F5"/>
<path d="M76.642 72.7178H66.5205V73.3087H76.642V72.7178Z" fill="#C1D8ED"/>
<path d="M66.5215 72.7178H76.6431V70.7923H66.5215V72.7178Z" fill="#DEE8F5"/>
<path d="M70.4829 75.4858H72.681C72.8224 75.4858 72.937 75.3712 72.937 75.2299V74.5576C72.937 74.4163 72.8224 74.3017 72.681 74.3017H70.4829C70.3416 74.3017 70.227 74.4163 70.227 74.5576V75.2299C70.227 75.3712 70.3416 75.4858 70.4829 75.4858Z" fill="white"/>
<path d="M62.2192 72.1274V73.7912V80.6034H53.4751V73.7912V72.1274H62.2192Z" fill="#C1D8ED"/>
<path d="M65.0849 73.7915H56.3408V80.604H65.0849V73.7915Z" fill="#DEE8F5"/>
<path d="M65.0849 73.7915H56.3408V74.3022H65.0849V73.7915Z" fill="#C1D8ED"/>
<path d="M56.3408 73.7915H65.085V72.128H56.3408V73.7915Z" fill="#DEE8F5"/>
<path d="M59.7633 76.1821H61.6622C61.7843 76.1821 61.8833 76.0831 61.8833 75.961V75.3803C61.8833 75.2582 61.7843 75.1592 61.6622 75.1592H59.7633C59.6412 75.1592 59.5422 75.2582 59.5422 75.3803V75.961C59.5422 76.0831 59.6412 76.1821 59.7633 76.1821Z" fill="white"/>
<path d="M78.2861 59.1907L76.9634 58.8779L75.3052 65.8913L76.6279 66.204L78.2861 59.1907Z" fill="white"/>
<path d="M75.5073 58.3333L74.7729 58.4688L75.9086 64.6248L76.643 64.4894L75.5073 58.3333Z" fill="#C1D8ED"/>
<path d="M75.5066 58.3316L74.7729 58.4712L74.9022 59.1501L75.6358 59.0105L75.5066 58.3316Z" fill="#DEE8F5"/>
<path d="M77.7809 59.8988L75.4014 65.939L75.8092 66.0996L78.1887 60.0595L77.7809 59.8988Z" fill="#C1D8ED"/>
<path d="M78.3011 62.5415H74.7144V67.1255H78.3011V62.5415Z" fill="#C1D8ED"/>
<path d="M72.8183 58.9668H69.7749V67.0348H72.8183V58.9668Z" fill="#C1D8ED"/>
<path d="M70.0799 57.8569H68.4517V67.0352H70.0799V57.8569Z" fill="#DEE8F5"/>
<path d="M68.4512 58.375H65.9175V67.0353H68.4512V58.375Z" fill="white"/>
<path d="M59.7705 58.375H58.29V67.0353H59.7705V58.375Z" fill="#DEE8F5"/>
<path d="M62.6763 58.9935L59.8813 60.3545L63.1219 67.0093L65.9169 65.6483L62.6763 58.9935Z" fill="#DEE8F5"/>
<path d="M58.3022 59.0166H55.2588V67.0846H58.3022V59.0166Z" fill="#C1D8ED"/>
<path d="M55.5633 57.9062H53.9351V67.0845H55.5633V57.9062Z" fill="#DEE8F5"/>
<path d="M53.9351 58.4243H51.4014V67.0846H53.9351V58.4243Z" fill="#C1D8ED"/>
<path d="M71.2363 85.9916L69.8218 85.5547L67.2661 93.8293L68.6806 94.2662L71.2363 85.9916Z" fill="#DEE8F5"/>
<path d="M55.7407 86.1968H52.6973V94.2648H55.7407V86.1968Z" fill="#C1D8ED"/>
<path d="M57.0643 85.0864H55.436V94.2647H57.0643V85.0864Z" fill="white"/>
<path d="M59.5972 85.605H57.0635V94.2653H59.5972V85.605Z" fill="#DEE8F5"/>
<path d="M67.2251 85.605H65.7446V94.2653H67.2251V85.605Z" fill="#DEE8F5"/>
<path d="M65.6343 87.61L62.8394 86.249L59.5988 92.9038L62.3937 94.2649L65.6343 87.61Z" fill="white"/>
<path d="M71.9859 89.9527C72.0477 90.0636 72.151 90.1455 72.2731 90.1804C72.3952 90.2153 72.5262 90.2004 72.6373 90.1389C72.7169 90.1122 72.802 90.1059 72.8848 90.1208C72.9675 90.1356 73.0451 90.171 73.1105 90.2237C73.3263 90.3853 73.4769 90.619 73.5351 90.8822H76.0576C76.0672 90.7301 76.0867 90.5789 76.1162 90.4294C76.1842 90.0215 76.3766 89.6445 76.6672 89.3502C76.7362 89.2748 76.8288 89.2251 76.9298 89.2091C76.9868 89.2416 77.0498 89.262 77.1149 89.2691C77.1801 89.2763 77.246 89.27 77.3086 89.2507C77.3713 89.2314 77.4293 89.1995 77.4791 89.1569C77.5289 89.1144 77.5695 89.062 77.5983 89.0032C77.6272 88.9443 77.6436 88.8802 77.6467 88.8147C77.6498 88.7492 77.6395 88.6838 77.6163 88.6225C77.5932 88.5612 77.5577 88.5053 77.5121 88.4582C77.4665 88.4111 77.4118 88.3739 77.3512 88.3488C77.1252 88.2556 76.876 88.2342 76.6374 88.2873C76.3988 88.3404 76.1822 88.4655 76.017 88.6457C75.888 88.7651 75.7723 88.8982 75.6718 89.0424C75.7102 88.7979 75.7699 88.5573 75.8503 88.3232C75.9469 88.0275 76.1243 87.7646 76.3622 87.5642C76.4584 87.4855 76.5203 87.3725 76.5349 87.2491C76.5495 87.1257 76.5156 87.0014 76.4404 86.9024C76.3652 86.8034 76.2545 86.7375 76.1317 86.7185C76.0089 86.6995 75.8834 86.7289 75.7818 86.8005C75.3951 87.1114 75.1063 87.5272 74.9499 87.9981C74.9327 88.0458 74.9179 88.0941 74.9016 88.143C74.6031 87.3998 74.2976 86.7707 73.6813 86.4085C73.572 86.3496 73.4441 86.3354 73.3245 86.3688C73.2049 86.4022 73.1029 86.4806 73.0399 86.5877C72.977 86.6947 72.9579 86.822 72.9868 86.9428C73.0158 87.0635 73.0904 87.1684 73.195 87.2353C73.5712 87.4564 73.7965 87.9562 74.0505 88.5974C73.7702 88.2738 73.4343 88.0029 73.0587 87.7975C73.0032 87.7632 72.9413 87.7405 72.8768 87.731C72.8123 87.7214 72.7465 87.7251 72.6834 87.7418C72.6203 87.7585 72.5614 87.7878 72.51 87.8281C72.4587 87.8684 72.4162 87.9187 72.3849 87.9759C72.3537 88.0332 72.3345 88.0962 72.3284 88.1612C72.3224 88.2261 72.3296 88.2916 72.3497 88.3537C72.3699 88.4157 72.4024 88.473 72.4454 88.5221C72.4884 88.5711 72.541 88.6109 72.5999 88.639C72.892 88.8 73.1511 89.0147 73.3636 89.2718C73.1754 89.1879 72.9709 89.147 72.7649 89.152C72.5589 89.157 72.3566 89.2077 72.1727 89.3006C72.0615 89.3624 71.9794 89.4657 71.9443 89.588C71.9093 89.7103 71.9242 89.8414 71.9859 89.9527Z" fill="#8DDBE0"/>
<path d="M76.9998 90.8823H72.5425V92.1782H76.9998V90.8823Z" fill="#DEE8F5"/>
<path d="M72.5415 92.1782V93.5988C72.5415 93.7755 72.6117 93.9449 72.7366 94.0699C72.8615 94.1948 73.031 94.265 73.2077 94.265H76.3327C76.5094 94.265 76.6789 94.1948 76.8038 94.0699C76.9288 93.945 76.9991 93.7755 76.9992 93.5988V92.1782H72.5415Z" fill="#C1D8ED"/>
<path d="M140.358 59.083V93.599H121.941V94.3413H121.111V93.599H102.694V59.083H140.358Z" fill="white"/>
<path d="M140.358 50.5312H102.693V93.5985H140.358V50.5312Z" fill="white"/>
<g opacity="0.78">
<path d="M113.896 74.6982H104.77V94.3411H113.896V74.6982Z" fill="#C1D8ED"/>
</g>
<g opacity="0.78">
<path d="M122.937 70.4915L131.815 67.7456V94.7167H122.937V70.4915Z" fill="#C1D8ED"/>
</g>
<path d="M113.141 78.4149L118.931 74.5898L124.348 78.4149V94.7171H113.141V78.4149Z" fill="#DEE8F5"/>
<path d="M140.349 82.457H129.371V94.7172H140.349V82.457Z" fill="#DEE8F5"/>
<path d="M106.67 87.4058H102.694V94.2388H106.67V87.4058Z" fill="#DEE8F5"/>
<path d="M140.359 75.9258H102.694V76.7561H140.359V75.9258Z" fill="#F3F5FD"/>
<path d="M140.359 66.9268H102.694V67.757H140.359V66.9268Z" fill="#F3F5FD"/>
<path d="M140.359 84.9277H102.694V85.758H140.359V84.9277Z" fill="#F3F5FD"/>
<path d="M121.942 59.083H121.112V94.3413H121.942V59.083Z" fill="#F3F5FD"/>
<path d="M143.015 93.5981H100.037V95.578H143.015V93.5981Z" fill="#C1D8ED"/>
<path d="M143.015 48.5518H100.037V50.5317H143.015V48.5518Z" fill="#C1D8ED"/>
<path d="M140.358 57.354H102.693V59.084H140.358V57.354Z" fill="#DEE8F5"/>
<path d="M140.358 55.0801H102.693V56.8101H140.358V55.0801Z" fill="#DEE8F5"/>
<path d="M140.358 52.8052H102.693V54.5352H140.358V52.8052Z" fill="#DEE8F5"/>
<path d="M140.358 50.5312H102.693V52.2613H140.358V50.5312Z" fill="#DEE8F5"/>
<path d="M69.1868 62.9363C69.1164 56.1148 71.8123 51.8875 75.4678 49.5666C79.0747 47.2763 90.3852 45.283 94.6733 53.598C97.4716 59.0229 96.3671 60.9622 97.1597 69.6512C97.9522 78.3403 100.999 79.2519 104.086 89.7836C106.508 98.0449 92.9398 102.431 81.1877 102.051C69.4357 101.672 61.9877 99.071 61.3059 91.5971C60.3271 80.8699 69.3247 76.3044 69.1868 62.9363Z" fill="#0F1011"/>
<path d="M76.1885 81.7964C76.1885 81.7964 79.7186 79.883 78.838 70.2306L86.1548 68.8042C86.1548 68.8042 85.4106 77.4725 89.1439 80.1883L76.1885 81.7964Z" fill="#E98862"/>
<g opacity="0.15">
<path d="M87.624 78.39L81.4927 73.7878L86.2744 73.6943C86.4715 75.3024 86.8638 77.0267 87.624 78.39Z" fill="black"/>
</g>
<path d="M74.6452 66.5224C75.1796 69.4484 76.8043 72.2093 79.3982 73.1321C82.4775 74.2279 84.7658 74.5719 88.2898 74.2519C96.3073 73.5205 94.5527 55.2909 90.7109 51.7823C86.8692 48.2736 75.711 50.6186 74.4043 56.5583C73.7292 59.6302 74.1368 63.7368 74.6452 66.5224Z" fill="#E98862"/>
<path d="M86.0957 64.1597C86.4627 64.1597 86.7603 63.8621 86.7603 63.4951C86.7603 63.1281 86.4627 62.8306 86.0957 62.8306C85.7287 62.8306 85.4312 63.1281 85.4312 63.4951C85.4312 63.8621 85.7287 64.1597 86.0957 64.1597Z" fill="#0F1011"/>
<path d="M91.3359 63.6821C91.703 63.6821 92.0005 63.3846 92.0005 63.0176C92.0005 62.6506 91.703 62.353 91.3359 62.353C90.9689 62.353 90.6714 62.6506 90.6714 63.0176C90.6714 63.3846 90.9689 63.6821 91.3359 63.6821Z" fill="#0F1011"/>
<path d="M92.4724 61.5901L90.7127 61.584C90.6299 61.584 90.5504 61.5511 90.4919 61.4926C90.4333 61.434 90.4004 61.3546 90.4004 61.2718C90.4004 61.1889 90.4333 61.1095 90.4919 61.0509C90.5504 60.9924 90.6299 60.9595 90.7127 60.9595L92.4724 60.9656C92.5553 60.9656 92.6347 60.9985 92.6932 61.057C92.7518 61.1156 92.7847 61.195 92.7847 61.2778C92.7847 61.3606 92.7518 61.4401 92.6932 61.4986C92.6347 61.5572 92.5553 61.5901 92.4724 61.5901Z" fill="#0F1011"/>
<path d="M84.6467 62.3046C84.5705 62.3046 84.4969 62.2767 84.4398 62.2262C84.3827 62.1756 84.3461 62.106 84.3368 62.0303C84.3275 61.9547 84.3462 61.8782 84.3894 61.8154C84.4326 61.7526 84.4972 61.7077 84.5712 61.6893L86.3034 61.2554C86.3435 61.2446 86.3853 61.2419 86.4264 61.2474C86.4675 61.2529 86.5071 61.2666 86.5429 61.2876C86.5787 61.3086 86.6099 61.3365 86.6348 61.3697C86.6597 61.4029 86.6777 61.4407 86.6878 61.4809C86.6979 61.5211 86.6998 61.563 86.6936 61.604C86.6873 61.645 86.673 61.6843 86.6513 61.7197C86.6297 61.7551 86.6012 61.7859 86.5676 61.8101C86.534 61.8344 86.4958 61.8517 86.4554 61.8611L84.7229 62.295C84.698 62.3013 84.6724 62.3045 84.6467 62.3046Z" fill="#0F1011"/>
<path d="M86.4517 68.7286C86.4517 68.7286 88.9077 68.965 90.622 68.3481C90.622 68.3481 90.622 69.9643 88.683 70.1399C86.7441 70.3156 86.4517 68.7286 86.4517 68.7286Z" fill="white"/>
<path d="M79.9748 58.8792C80.575 69.25 78.511 77.1971 78.511 77.1971C78.511 77.1971 72.2568 69.6845 71.3119 61.6626C70.4253 54.1436 75.9315 49.6469 79.6715 48.7747C93.8846 45.4593 94.8717 55.8265 94.8717 55.8265C93.9528 59.363 78.4367 61.5573 78.4367 61.5573" fill="#0F1011"/>
<path d="M82.7649 66.3902C82.8292 67.1326 82.5968 67.8702 82.1186 68.4417C81.6404 69.0132 80.9553 69.372 80.2132 69.4397C79.4711 69.5074 78.7324 69.2784 78.1587 68.8029C77.585 68.3273 77.223 67.6439 77.1519 66.9021C77.1118 66.5324 77.1465 66.1584 77.254 65.8024C77.3615 65.4464 77.5395 65.1156 77.7775 64.8298C78.0155 64.5441 78.3085 64.3091 78.6392 64.139C78.9699 63.9688 79.3314 63.867 79.7023 63.8395C81.7103 63.756 82.6235 64.8403 82.7649 66.3902Z" fill="#E98862"/>
<g opacity="0.15">
<path d="M89.0777 67.1552C89.023 67.1551 88.9701 67.1355 88.9286 67.0999C88.8871 67.0643 88.8597 67.015 88.8513 66.961C88.843 66.9069 88.8542 66.8517 88.8829 66.8052C88.9117 66.7586 88.9561 66.7239 89.0082 66.7073L90.3565 66.2795L89.3915 64.1822C89.3769 64.1546 89.3681 64.1244 89.3655 64.0933C89.363 64.0622 89.3668 64.0309 89.3768 64.0013C89.3868 63.9718 89.4026 63.9445 89.4235 63.9213C89.4443 63.8981 89.4697 63.8794 89.498 63.8663C89.5264 63.8533 89.5571 63.8461 89.5883 63.8453C89.6194 63.8445 89.6505 63.8501 89.6794 63.8616C89.7084 63.8732 89.7347 63.8906 89.7567 63.9127C89.7787 63.9348 89.796 63.9612 89.8075 63.9902L90.8809 66.3233C90.8946 66.3529 90.9018 66.385 90.9021 66.4175C90.9023 66.45 90.8957 66.4822 90.8826 66.512C90.8694 66.5417 90.8501 66.5683 90.8259 66.59C90.8017 66.6118 90.7731 66.6281 90.7421 66.6379L89.1465 67.144C89.1242 67.1513 89.101 67.155 89.0777 67.1552Z" fill="black"/>
</g>
<path d="M124.339 85.7984C124.339 85.7984 125.071 80.3527 128.935 81.1104C131.373 81.5884 143.125 82.4664 143.17 83.553C143.28 86.2406 132.512 85.5831 131.243 87.9194L124.339 85.7984Z" fill="#E98862"/>
<path d="M127.534 81.1174C127.534 81.1174 133.175 80.0088 134.47 80.4877C135.617 80.9117 132.922 82.5355 132.922 82.5355L127.534 81.1174Z" fill="#E98862"/>
<path d="M110.553 116.775C110.48 116.775 110.408 116.775 110.334 116.769C109.561 116.732 108.81 116.494 108.156 116.079C107.502 115.665 106.967 115.088 106.603 114.404L92.2461 87.4621L100.634 83.7433L110.977 103.581L124.746 82.8794L132.198 87.8359L114.278 114.778C113.87 115.392 113.316 115.895 112.666 116.244C112.016 116.592 111.29 116.775 110.553 116.775Z" fill="#0CBC8B"/>
<path d="M101.335 120.899H64.6732C65.6452 118.052 66.1812 115.075 66.263 112.068C66.2694 111.803 66.2726 111.533 66.2726 111.258C66.2514 109.733 66.0751 108.213 65.7466 106.724C64.535 100.844 61.6512 94.4692 61.8153 89.0687C61.8915 86.4949 62.6626 84.1413 64.6341 82.1681C66.7254 80.0785 70.3342 78.7289 74.7352 78.7241C75.0641 81.2902 90.6464 81.2995 90.7651 78.783C91.3605 78.7923 91.8228 78.8015 92.1089 78.815C97.6739 79.0556 100.302 81.5298 101.391 85.1927C102.84 90.0596 101.571 97.0238 100.867 103.637C100.654 105.623 100.494 107.578 100.473 109.433C100.388 113.274 100.677 117.114 101.335 120.899Z" fill="#0CBC8B"/>
<path d="M90.7649 78.7823C90.6462 81.2981 89.278 84.9991 85.0559 85.2775C79.4291 85.6483 75.0649 81.2885 74.7354 78.7222H74.7491C80.2892 78.7228 87.5352 78.7318 90.7649 78.7823Z" fill="#E98862"/>
<path d="M82.6805 116.583L81.4934 120.899H64.6736C64.6723 120.903 64.6706 120.907 64.6688 120.911L64.6253 120.899L57.4518 118.926C56.8743 118.767 56.3345 118.493 55.8645 118.122C55.3945 117.751 55.0038 117.289 54.7156 116.764C54.4274 116.238 54.2476 115.661 54.1867 115.065C54.1259 114.469 54.1853 113.867 54.3613 113.294L61.8164 89.0678L62.6774 86.2676L71.2317 88.8989L65.7477 106.723L64.2724 111.52L66.2641 112.067L82.6805 116.583Z" fill="#0CBC8B"/>
<path d="M92.8807 116.854C94.9687 116.854 96.6613 115.162 96.6613 113.074C96.6613 110.986 94.9687 109.293 92.8807 109.293C90.7927 109.293 89.1001 110.986 89.1001 113.074C89.1001 115.162 90.7927 116.854 92.8807 116.854Z" fill="#FD5D76"/>
<path d="M94.7418 114.24H93.8232C93.7044 114.24 93.5904 114.193 93.5064 114.109C93.4224 114.025 93.3752 113.911 93.3752 113.792V113.171C93.375 113.058 93.4176 112.949 93.4946 112.866C93.2929 112.822 93.0869 112.802 92.8806 112.804C92.6626 112.801 92.4449 112.824 92.2327 112.874C92.3166 112.959 92.3636 113.072 92.3635 113.191V113.792C92.3635 113.911 92.3163 114.025 92.2323 114.109C92.1483 114.193 92.0344 114.24 91.9156 114.24H91.0197C90.9009 114.24 90.787 114.193 90.703 114.109C90.619 114.025 90.5718 113.911 90.5718 113.792C90.5718 112.63 91.4568 111.907 92.8819 111.907C94.307 111.907 95.1923 112.63 95.1923 113.792C95.1923 113.851 95.1806 113.91 95.1579 113.964C95.1353 114.019 95.102 114.068 95.0602 114.11C95.0183 114.152 94.9686 114.185 94.914 114.207C94.8593 114.229 94.8008 114.241 94.7418 114.24Z" fill="white"/>
<path d="M82.7826 115.747C84.259 115.747 85.4559 114.55 85.4559 113.074C85.4559 111.597 84.259 110.4 82.7826 110.4C81.3062 110.4 80.1094 111.597 80.1094 113.074C80.1094 114.55 81.3062 115.747 82.7826 115.747Z" fill="#8DDBE0"/>
<path d="M82.783 113.932C82.6183 113.932 82.4604 113.866 82.3439 113.75C82.2274 113.634 82.1619 113.476 82.1616 113.311V112.123C82.1616 111.959 82.2271 111.8 82.3436 111.684C82.4601 111.567 82.6182 111.502 82.783 111.502C82.9478 111.502 83.1058 111.567 83.2223 111.684C83.3389 111.8 83.4043 111.959 83.4043 112.123V113.311C83.4041 113.476 83.3385 113.634 83.222 113.75C83.1056 113.866 82.9477 113.932 82.783 113.932Z" fill="white"/>
<path d="M82.7823 114.58C82.7658 114.58 82.7494 114.577 82.7341 114.571C82.7188 114.564 82.7049 114.555 82.6932 114.543C82.6815 114.532 82.6722 114.518 82.6658 114.502C82.6595 114.487 82.6563 114.471 82.6562 114.454V113.32C82.6562 113.286 82.6695 113.254 82.6932 113.231C82.7168 113.207 82.7489 113.194 82.7823 113.194C82.8157 113.194 82.8478 113.207 82.8715 113.231C82.8951 113.254 82.9084 113.286 82.9084 113.32V114.454C82.9084 114.471 82.9052 114.487 82.8989 114.502C82.8925 114.518 82.8833 114.532 82.8715 114.543C82.8598 114.555 82.8459 114.564 82.8306 114.571C82.8153 114.577 82.7989 114.58 82.7823 114.58Z" fill="white"/>
<path d="M83.3506 114.644H82.2164C82.183 114.644 82.1509 114.631 82.1273 114.607C82.1036 114.584 82.0903 114.552 82.0903 114.518C82.0903 114.485 82.1036 114.453 82.1273 114.429C82.1509 114.405 82.183 114.392 82.2164 114.392H83.3506C83.3841 114.392 83.4161 114.405 83.4398 114.429C83.4634 114.453 83.4767 114.485 83.4767 114.518C83.4767 114.552 83.4634 114.584 83.4398 114.607C83.4161 114.631 83.3841 114.644 83.3506 114.644Z" fill="white"/>
<path d="M102.979 115.747C104.455 115.747 105.652 114.55 105.652 113.074C105.652 111.597 104.455 110.4 102.979 110.4C101.503 110.4 100.306 111.597 100.306 113.074C100.306 114.55 101.503 115.747 102.979 115.747Z" fill="#0CBC8B"/>
<path d="M103.749 112.201H101.594V113.947H103.749V112.201Z" fill="white"/>
<path d="M104.365 113.805L103.601 113.041L104.365 112.277" fill="white"/>
<path d="M276.111 43.4971H159.919V120.898H276.111V43.4971Z" fill="#F3F5FD"/>
<path d="M219.487 83.2461V55.6831H186.007V83.2461H219.487Z" fill="#DEE8F5"/>
<path d="M217.18 80.9379V57.9912H188.316V80.9379H217.18Z" fill="white"/>
<path d="M207.312 74.6447V62.373H192.956V74.6447H207.312Z" fill="#C1D8ED"/>
<path d="M208.101 78.4263C210.551 78.4263 212.538 76.44 212.538 73.9898C212.538 71.5395 210.551 69.5532 208.101 69.5532C205.651 69.5532 203.665 71.5395 203.665 73.9898C203.665 76.44 205.651 78.4263 208.101 78.4263Z" fill="#DEE8F5"/>
<path d="M201.177 78.427V68.5093H199.219V78.427H201.177Z" fill="#F3F5FD"/>
<path d="M200.815 120.665C200.277 120.484 199.792 120.173 199.403 119.76C199.014 119.347 198.733 118.845 198.583 118.298C198.297 117.195 198.334 116.034 198.69 114.952C198.95 114.066 199.343 113.21 199.439 112.291C199.762 109.234 196.796 106.11 198.192 103.37C198.643 102.484 199.516 101.792 199.672 100.811C199.8 99.9985 199.401 99.2107 199.202 98.4109C199.047 97.8651 199.018 97.2911 199.118 96.7326C199.218 96.1741 199.445 95.6458 199.78 95.1879C200.492 94.3087 201.838 93.9244 202.819 94.4875C204.103 95.2234 204.214 97.0421 203.884 98.4848C203.554 99.9275 202.943 101.412 203.346 102.836C203.73 104.193 204.981 105.216 205.205 106.608C205.391 107.766 204.826 108.895 204.578 110.041C204.188 111.843 204.585 113.71 204.602 115.553C204.619 117.396 204.099 119.461 200.815 120.665Z" fill="#8DDBE0"/>
<path d="M199.136 120.42C197.841 120.026 196.807 119.3 196.549 117.971C196.336 116.874 196.597 115.642 195.997 114.7C195.184 113.423 194.35 113.279 193.337 112.153C191.78 110.423 191.725 109.658 191.828 106.452C191.872 105.097 190 103.568 190.659 102.266C191.24 101.118 193.005 101.114 194.006 101.92C195.007 102.726 195.446 104.021 195.882 105.231C196.319 106.441 196.868 107.72 197.974 108.377C198.637 108.77 199.505 108.953 199.871 109.631C200.165 110.175 200.017 110.842 199.899 111.45C199.601 112.979 199.675 114.844 200.959 115.727C201.538 116.125 202.296 116.262 202.772 116.779C203.242 117.291 203.318 118.048 203.286 118.742" fill="#DEE8F5"/>
<path d="M212.501 101.353C212.501 103.289 211.048 104.121 210.309 104.998C209.244 106.267 208.68 107.882 208.722 109.538C208.773 111.387 209.56 113.355 208.719 115.003C208.101 116.212 206.783 116.859 205.746 117.735C204.756 118.582 204.003 119.671 203.561 120.896H200.051C199.78 120.276 199.661 119.6 199.704 118.924C199.747 118.248 199.952 117.593 200.301 117.012C201.088 115.768 202.55 114.91 202.857 113.47C203.132 112.187 202.371 110.863 202.601 109.573C202.848 108.169 204.143 107.247 205.174 106.262C205.442 106.022 205.673 105.744 205.858 105.436C206.309 104.62 206.185 103.622 206.338 102.7C206.633 100.941 208.085 99.3761 209.848 99.085C211.394 98.829 212.501 99.7185 212.501 101.353Z" fill="#F3F5FD"/>
<path d="M205.669 118.868H196.349V120.897H205.669V118.868Z" fill="#0CBC8B"/>
<path d="M269.873 113.114H244.158L245.902 94.143C245.944 93.6891 246.153 93.2672 246.49 92.9599C246.827 92.6527 247.266 92.4824 247.722 92.4824H269.767C270.021 92.4824 270.273 92.5353 270.505 92.6379C270.738 92.7405 270.946 92.8905 271.118 93.0783C271.289 93.2661 271.419 93.4875 271.5 93.7284C271.581 93.9694 271.611 94.2246 271.587 94.4777L269.873 113.114Z" fill="#C1D8ED"/>
<path d="M247.041 104.246H229.558V119.883H247.041V104.246Z" fill="#C1D8ED"/>
<path d="M264.889 113.114H240.123L241.866 94.143C241.908 93.6891 242.118 93.2672 242.455 92.96C242.791 92.6528 243.231 92.4825 243.687 92.4824H264.782C265.036 92.4824 265.288 92.5353 265.52 92.6379C265.753 92.7405 265.962 92.8905 266.133 93.0783C266.304 93.2661 266.434 93.4875 266.515 93.7284C266.596 93.9694 266.626 94.2246 266.603 94.4777L264.889 113.114Z" fill="#DEE8F5"/>
<g opacity="0.48">
<path d="M264.89 113.114H240.124L241.867 94.1435C241.909 93.6896 242.119 93.2677 242.456 92.9605C242.792 92.6533 243.232 92.483 243.688 92.4829H264.783C265.037 92.4829 265.289 92.5358 265.521 92.6384C265.754 92.741 265.962 92.891 266.134 93.0788C266.305 93.2665 266.435 93.488 266.516 93.7289C266.597 93.9699 266.627 94.2251 266.604 94.4782L264.89 113.114Z" fill="#C1D8ED"/>
</g>
<path d="M273.632 106.839V119.919C273.633 120.254 273.568 120.587 273.44 120.898H256.149V104.247H271.04C271.728 104.247 272.387 104.52 272.873 105.006C273.359 105.492 273.632 106.151 273.632 106.839Z" fill="#C1D8ED"/>
<path d="M258.992 107.093V119.667C258.993 120.094 258.896 120.515 258.711 120.899H226.99C226.806 120.515 226.711 120.094 226.712 119.667V107.093C226.737 106.355 227.047 105.655 227.578 105.141C228.109 104.628 228.819 104.341 229.558 104.341C230.297 104.341 231.006 104.628 231.537 105.141C232.069 105.655 232.379 106.355 232.404 107.093V116.823H253.304V107.093C253.304 106.339 253.603 105.615 254.137 105.082C254.67 104.548 255.394 104.249 256.148 104.249C256.902 104.249 257.626 104.548 258.159 105.082C258.693 105.615 258.992 106.339 258.992 107.093Z" fill="#DEE8F5"/>
<path d="M230.914 111.206H253.343V117.292H230.914C230.431 117.292 229.969 117.1 229.628 116.759C229.287 116.418 229.095 115.956 229.095 115.473V113.024C229.095 112.542 229.287 112.08 229.628 111.739C229.969 111.398 230.431 111.206 230.914 111.206Z" fill="#F3F5FD"/>
<g opacity="0.15">
<path d="M230.914 111.206H253.343V117.291H230.914C230.431 117.291 229.969 117.1 229.628 116.759C229.287 116.418 229.095 115.955 229.095 115.473V113.024C229.095 112.542 229.287 112.079 229.628 111.738C229.969 111.397 230.431 111.206 230.914 111.206Z" fill="#C1D8ED"/>
</g>
<path d="M171.845 118.869H189.328V104.246H171.845V118.869Z" fill="#C1D8ED"/>
<path d="M178.761 113.113H159.919V92.4819H175.197C175.653 92.4816 176.092 92.6517 176.429 92.959C176.766 93.2663 176.976 93.6884 177.017 94.1425L178.761 113.113Z" fill="#DEE8F5"/>
<g opacity="0.48">
<path d="M178.761 113.113H159.919V92.4819H175.197C175.653 92.4816 176.092 92.6517 176.429 92.959C176.766 93.2663 176.976 93.6884 177.017 94.1425L178.761 113.113Z" fill="#C1D8ED"/>
</g>
<path d="M162.741 104.247V120.898H159.922V120.069C159.903 119.935 159.893 119.801 159.893 119.666V107.093C159.893 106.958 159.903 106.823 159.922 106.69V104.249L162.741 104.247Z" fill="#C1D8ED"/>
<path d="M192.172 107.092V119.667C192.173 120.093 192.078 120.514 191.894 120.899H160.173C159.988 120.514 159.892 120.093 159.892 119.667V107.092C159.891 106.958 159.901 106.823 159.92 106.689C160.027 105.981 160.397 105.339 160.957 104.891C161.516 104.444 162.224 104.223 162.938 104.274C163.653 104.325 164.322 104.643 164.812 105.166C165.303 105.688 165.578 106.376 165.584 107.092V116.822H186.483V107.092C186.483 106.338 186.783 105.615 187.316 105.081C187.85 104.548 188.573 104.248 189.328 104.248C190.082 104.248 190.806 104.548 191.339 105.081C191.872 105.615 192.172 106.338 192.172 107.092Z" fill="#DEE8F5"/>
<path d="M187.974 117.291H165.545V111.205H187.974C188.456 111.205 188.918 111.397 189.259 111.738C189.6 112.079 189.792 112.541 189.792 113.024V115.473C189.792 115.955 189.6 116.417 189.259 116.758C188.918 117.099 188.456 117.291 187.974 117.291Z" fill="#F3F5FD"/>
<g opacity="0.15">
<path d="M187.973 117.291H165.544V111.205H187.973C188.455 111.205 188.917 111.397 189.258 111.738C189.599 112.079 189.791 112.541 189.791 113.024V115.473C189.791 115.955 189.599 116.417 189.258 116.758C188.917 117.099 188.455 117.291 187.973 117.291Z" fill="#C1D8ED"/>
</g>
<path d="M228.135 82.8814C228.135 82.8814 224.25 80.9559 224.82 70.5041L216.867 69.2534C216.867 69.2534 218.012 78.5789 214.091 81.6569L228.135 82.8814Z" fill="#E98862"/>
<g opacity="0.15">
<path d="M215.658 79.6573L222.094 74.4487L216.93 74.5367C216.781 76.2798 216.425 78.1561 215.658 79.6573Z" fill="black"/>
</g>
<path d="M229.197 66.3363C228.736 69.5154 227.092 72.5585 224.329 73.6569C221.049 74.9611 218.597 75.1102 214.777 75.2148C209.565 75.3575 209.588 69.9166 209.292 64.4425C208.994 58.9462 209.27 53.0344 211.278 51.0615C215.285 47.1235 227.421 49.2157 229.064 55.5729C229.914 58.8624 229.636 63.3108 229.197 66.3363Z" fill="#E98862"/>
<path d="M224.528 73.3517C224.706 73.8732 224.828 74.0995 225.294 73.8051C227.124 72.6488 231.245 70.1291 232.424 61.0794C233.48 52.9704 228.409 49.7769 224.405 48.6971C220.953 47.7666 212.957 47.775 209.269 50.1369C206.091 52.1731 209.446 56.6151 209.446 56.6151C210.876 56.6419 211.198 57.8629 214.567 57.7695C217.172 57.6981 218.834 56.4874 221.276 56.5216C223.511 56.5536 224.007 57.9029 223.952 58.7757C223.616 64.0838 223.895 71.5075 224.528 73.3517Z" fill="#0F1011"/>
<path d="M216.718 64.2386C217.115 64.2386 217.436 63.9172 217.436 63.5209C217.436 63.1245 217.115 62.8032 216.718 62.8032C216.322 62.8032 216 63.1245 216 63.5209C216 63.9172 216.322 64.2386 216.718 64.2386Z" fill="#0F1011"/>
<path d="M211.045 63.9295C211.442 63.9295 211.763 63.6082 211.763 63.2118C211.763 62.8155 211.442 62.4941 211.045 62.4941C210.649 62.4941 210.328 62.8155 210.328 63.2118C210.328 63.6082 210.649 63.9295 211.045 63.9295Z" fill="#0F1011"/>
<path d="M209.75 61.7166C209.662 61.7162 209.577 61.6814 209.515 61.6196C209.452 61.5578 209.416 61.4739 209.414 61.3859C209.412 61.2979 209.445 61.2126 209.505 61.1485C209.566 61.0843 209.649 61.0462 209.737 61.0424L211.637 60.9666C211.681 60.9648 211.725 60.9718 211.767 60.9871C211.809 61.0024 211.847 61.0257 211.879 61.0558C211.912 61.0859 211.938 61.122 211.957 61.1622C211.975 61.2025 211.986 61.2459 211.987 61.2902C211.989 61.3345 211.982 61.3787 211.967 61.4202C211.952 61.4618 211.928 61.4999 211.898 61.5325C211.868 61.565 211.832 61.5914 211.792 61.6099C211.752 61.6285 211.708 61.639 211.664 61.6407L209.764 61.7162L209.75 61.7166Z" fill="#0F1011"/>
<path d="M218.224 62.1781C218.2 62.1782 218.177 62.1757 218.153 62.1707L216.267 61.7711C216.223 61.7624 216.182 61.7452 216.144 61.7203C216.107 61.6954 216.076 61.6633 216.051 61.6261C216.026 61.5888 216.009 61.547 216.001 61.5031C215.993 61.4592 215.993 61.4141 216.002 61.3703C216.012 61.3266 216.03 61.2852 216.055 61.2485C216.08 61.2117 216.113 61.1804 216.15 61.1563C216.188 61.1322 216.23 61.1158 216.274 61.1081C216.318 61.1004 216.363 61.1015 216.407 61.1114L218.295 61.511C218.376 61.5283 218.448 61.5751 218.497 61.6425C218.546 61.7098 218.569 61.7929 218.56 61.8758C218.551 61.9586 218.512 62.0353 218.451 62.0911C218.389 62.147 218.308 62.1779 218.225 62.1781H218.224Z" fill="#0F1011"/>
<path d="M220.502 65.1751C220.458 65.9812 220.736 66.7718 221.275 67.3729C221.814 67.974 222.569 68.3363 223.376 68.3802C224.182 68.4241 224.972 68.146 225.573 67.607C226.174 67.0681 226.537 66.3124 226.581 65.5062C226.672 63.8277 225.388 62.3105 223.708 62.3018C221.536 62.2903 220.593 63.4966 220.502 65.1751Z" fill="#E98862"/>
<g opacity="0.15">
<path d="M213.638 67.5885C213.616 67.5885 213.594 67.5855 213.572 67.5795L211.83 67.0964C211.796 67.087 211.765 67.0705 211.738 67.048C211.711 67.0255 211.689 66.9976 211.673 66.966C211.658 66.9344 211.65 66.8999 211.649 66.8648C211.648 66.8297 211.654 66.7948 211.667 66.7623L212.734 64.2027C212.759 64.1421 212.808 64.094 212.868 64.069C212.929 64.044 212.997 64.0441 213.058 64.0693C213.118 64.0945 213.166 64.1427 213.191 64.2034C213.216 64.264 213.216 64.3322 213.191 64.3927L212.231 66.6942L213.703 67.1025C213.761 67.1187 213.81 67.1551 213.843 67.2051C213.876 67.2551 213.89 67.3152 213.882 67.3744C213.874 67.4337 213.844 67.488 213.799 67.5275C213.755 67.5669 213.697 67.5888 213.637 67.5891L213.638 67.5885Z" fill="black"/>
</g>
<path d="M216.543 69.1821C216.543 69.1821 213.902 69.534 212.028 68.936C212.028 68.936 212.092 70.6801 214.191 70.7947C216.29 70.9092 216.543 69.1821 216.543 69.1821Z" fill="white"/>
<path d="M173.806 83.4333C173.806 83.4333 174.357 79.3397 175.047 79.2629C176.199 79.1349 177.205 84.676 177.698 85.8931L172.285 87.6071" fill="#E98862"/>
<path d="M168.713 74.8195C167.052 75.342 167.457 80.581 169.323 85.1861C171.189 89.7913 174.01 92.9966 175.623 92.3429C177.237 91.6893 177.031 87.4252 175.166 82.8188C173.302 78.2123 172.286 73.6952 168.713 74.8195Z" fill="#E98862"/>
<path d="M184.588 118.308C183.567 118.308 182.571 118 181.728 117.423C180.886 116.847 180.237 116.03 179.867 115.078L168.714 86.3916L178.155 82.7207L186.209 103.437L203.583 82.7473L211.342 89.26L188.467 116.5C187.991 117.066 187.398 117.521 186.728 117.833C186.058 118.146 185.327 118.308 184.588 118.308Z" fill="#262626"/>
<path d="M237.852 112.308C237.844 115.222 238.266 118.12 239.103 120.91H202.442C202.962 117.45 203.188 113.951 203.118 110.453C202.969 97.5641 196.194 80.0202 211.609 79.3585C211.902 79.3441 212.372 79.3345 212.976 79.3265C213.096 81.882 228.919 81.8725 229.254 79.2642C233.723 79.269 237.391 80.64 239.515 82.7645C240.505 83.7383 241.265 84.921 241.74 86.2261C243.681 91.5627 240.795 98.429 239.04 104.974C238.36 107.5 237.852 109.984 237.852 112.308Z" fill="#262626"/>
<path d="M212.976 79.3266C213.097 81.8818 214.486 85.64 218.774 85.9235C224.488 86.2997 228.921 81.8725 229.255 79.2661H229.241C223.615 79.2661 216.256 79.2754 212.976 79.3266Z" fill="#E98862"/>
<path d="M254.484 120.911H244.266L243.467 114.941L239.041 104.973L232.53 90.3188L241.74 86.2233L241.788 86.2041L253.019 111.492C253.213 111.931 253.344 112.396 253.407 112.873L254.484 120.911Z" fill="#262626"/>
<path d="M217.917 116.854C220.005 116.854 221.697 115.162 221.697 113.074C221.697 110.986 220.005 109.293 217.917 109.293C215.829 109.293 214.136 110.986 214.136 113.074C214.136 115.162 215.829 116.854 217.917 116.854Z" fill="#FD5D76"/>
<path d="M219.778 114.241H218.861C218.742 114.241 218.628 114.194 218.544 114.11C218.46 114.026 218.413 113.912 218.413 113.793V113.171C218.413 113.058 218.456 112.949 218.533 112.867C218.331 112.823 218.125 112.802 217.919 112.805C217.701 112.801 217.483 112.825 217.27 112.875C217.312 112.917 217.345 112.966 217.368 113.02C217.39 113.075 217.402 113.133 217.402 113.192V113.793C217.402 113.912 217.354 114.026 217.27 114.11C217.186 114.194 217.072 114.241 216.954 114.241H216.058C215.939 114.241 215.825 114.194 215.741 114.11C215.657 114.026 215.61 113.912 215.61 113.793C215.61 112.63 216.495 111.908 217.92 111.908C219.345 111.908 220.23 112.63 220.23 113.793C220.23 113.852 220.219 113.911 220.196 113.965C220.173 114.02 220.14 114.069 220.098 114.111C220.056 114.153 220.006 114.186 219.951 114.208C219.896 114.23 219.837 114.241 219.778 114.241Z" fill="white"/>
<path d="M207.818 115.747C209.294 115.747 210.491 114.55 210.491 113.074C210.491 111.597 209.294 110.4 207.818 110.4C206.341 110.4 205.145 111.597 205.145 113.074C205.145 114.55 206.341 115.747 207.818 115.747Z" fill="#8DDBE0"/>
<path d="M207.818 113.933C207.654 113.932 207.496 113.867 207.379 113.75C207.263 113.634 207.197 113.476 207.197 113.311V112.124C207.197 111.959 207.262 111.801 207.379 111.684C207.495 111.568 207.653 111.502 207.818 111.502C207.983 111.502 208.141 111.568 208.258 111.684C208.374 111.801 208.44 111.959 208.44 112.124V113.311C208.439 113.476 208.374 113.634 208.257 113.75C208.141 113.867 207.983 113.932 207.818 113.933Z" fill="white"/>
<path d="M207.818 114.581C207.802 114.581 207.785 114.578 207.77 114.572C207.755 114.565 207.741 114.556 207.729 114.544C207.717 114.533 207.708 114.519 207.702 114.503C207.696 114.488 207.692 114.472 207.692 114.455V113.321C207.692 113.287 207.706 113.255 207.729 113.232C207.753 113.208 207.785 113.195 207.818 113.195C207.852 113.195 207.884 113.208 207.908 113.232C207.931 113.255 207.945 113.287 207.945 113.321V114.455C207.945 114.489 207.931 114.521 207.908 114.544C207.884 114.568 207.852 114.581 207.818 114.581Z" fill="white"/>
<path d="M208.386 114.645H207.252C207.218 114.645 207.186 114.631 207.162 114.608C207.139 114.584 207.125 114.552 207.125 114.519C207.125 114.485 207.139 114.453 207.162 114.43C207.186 114.406 207.218 114.393 207.252 114.393H208.386C208.419 114.393 208.451 114.406 208.475 114.43C208.499 114.453 208.512 114.485 208.512 114.519C208.512 114.552 208.499 114.584 208.475 114.608C208.451 114.631 208.419 114.645 208.386 114.645Z" fill="white"/>
<path d="M228.014 115.747C229.49 115.747 230.687 114.551 230.687 113.074C230.687 111.598 229.49 110.401 228.014 110.401C226.538 110.401 225.341 111.598 225.341 113.074C225.341 114.551 226.538 115.747 228.014 115.747Z" fill="#0CBC8B"/>
<path d="M228.784 112.201H226.629V113.947H228.784V112.201Z" fill="white"/>
<path d="M229.4 113.805L228.636 113.041L229.4 112.277" fill="white"/>
<path d="M276.112 128.491H159.919V205.892H276.112V128.491Z" fill="#F3F5FD"/>
<path d="M166.986 204.884C167.894 205.141 168.778 205.478 169.626 205.892H163.854C163.864 205.819 163.882 205.747 163.908 205.678C164.026 205.408 164.212 205.174 164.448 205C164.685 204.825 164.963 204.716 165.255 204.683C165.471 204.652 165.689 204.647 165.905 204.667C165.908 204.667 165.908 204.667 165.908 204.664C166.242 204.698 166.572 204.763 166.894 204.859C166.926 204.868 166.958 204.873 166.986 204.884Z" fill="#8DDBE0"/>
<path d="M190.4 203.246C190.043 204.175 189.586 205.062 189.037 205.892H172.169C172.045 205.7 171.903 205.519 171.747 205.352C171.482 205.074 171.192 204.822 170.88 204.6C170.467 204.299 170.025 204.027 169.593 203.752C167.986 202.727 166.462 201.576 165.037 200.309C164.02 199.404 163.028 198.399 162.545 197.126C162.415 196.84 162.343 196.531 162.333 196.218C162.323 195.904 162.375 195.592 162.487 195.299C162.922 194.368 164.161 194.108 165.172 194.3C166.944 194.639 168.362 195.938 169.619 197.234C170.659 198.313 171.827 199.503 173.324 199.57C173.58 199.593 173.836 199.542 174.063 199.423C174.262 199.271 174.407 199.06 174.477 198.819C174.546 198.579 174.535 198.323 174.447 198.089C174.257 197.626 173.969 197.21 173.603 196.87C171.625 194.748 169.683 192.544 168.4 189.946C167.117 187.348 166.547 184.282 167.44 181.528C167.677 180.709 168.112 179.962 168.707 179.352C169.007 179.05 169.37 178.818 169.77 178.673C170.17 178.527 170.597 178.472 171.02 178.51C172.166 178.661 173.027 179.627 173.609 180.625C175.605 184.052 175.481 188.25 176.044 192.173C176.201 193.273 176.431 194.4 177.084 195.305C177.144 195.392 177.223 195.465 177.314 195.519C177.852 195.83 178.335 195.199 178.539 194.668C178.888 193.747 179.122 192.765 179.391 191.811C179.633 190.85 180.003 189.926 180.491 189.063C180.636 188.83 180.794 188.607 180.965 188.394C181.509 187.732 182.283 187.175 183.14 187.178C184.193 187.188 185.092 188.064 185.396 189.069C185.7 190.074 185.521 191.165 185.191 192.163C184.54 194.005 183.524 195.696 182.203 197.135C181.525 197.906 180.757 198.684 180.552 199.692C180.49 200.034 180.516 200.386 180.628 200.715C180.74 201.044 180.934 201.339 181.192 201.573C181.313 201.678 181.453 201.758 181.606 201.807C181.758 201.857 181.919 201.875 182.078 201.861C182.42 201.804 182.746 201.675 183.035 201.483C183.163 201.41 183.288 201.339 183.416 201.266C183.918 200.981 184.42 200.695 184.923 200.408C186.199 199.679 187.738 198.936 189.069 199.564C189.398 199.731 189.687 199.967 189.916 200.256C190.146 200.544 190.311 200.879 190.4 201.237C190.589 201.893 190.589 202.59 190.4 203.246Z" fill="#8DDBE0"/>
<path d="M250.702 146.174C254.279 146.174 257.178 143.274 257.178 139.698C257.178 136.121 254.279 133.222 250.702 133.222C247.125 133.222 244.226 136.121 244.226 139.698C244.226 143.274 247.125 146.174 250.702 146.174Z" fill="#C1D8ED"/>
<path d="M249.382 146.174C252.959 146.174 255.858 143.274 255.858 139.698C255.858 136.121 252.959 133.222 249.382 133.222C245.806 133.222 242.906 136.121 242.906 139.698C242.906 143.274 245.806 146.174 249.382 146.174Z" fill="#DEE8F5"/>
<path d="M249.382 145.22C252.432 145.22 254.904 142.748 254.904 139.698C254.904 136.648 252.432 134.176 249.382 134.176C246.333 134.176 243.86 136.648 243.86 139.698C243.86 142.748 246.333 145.22 249.382 145.22Z" fill="#F3F5FD"/>
<path d="M249.382 140.207C249.335 140.207 249.289 140.194 249.249 140.171C249.209 140.147 249.176 140.114 249.153 140.074C249.13 140.034 249.118 139.989 249.118 139.943V135.863C249.118 135.793 249.146 135.725 249.195 135.676C249.245 135.626 249.312 135.599 249.382 135.599C249.452 135.599 249.519 135.626 249.569 135.676C249.618 135.725 249.646 135.793 249.646 135.863V139.492L251.918 138.215C251.948 138.197 251.982 138.185 252.017 138.18C252.051 138.175 252.087 138.178 252.121 138.187C252.155 138.196 252.187 138.211 252.215 138.233C252.243 138.255 252.266 138.282 252.283 138.312C252.3 138.343 252.311 138.377 252.315 138.412C252.319 138.447 252.316 138.482 252.306 138.516C252.296 138.55 252.28 138.581 252.257 138.609C252.235 138.636 252.207 138.659 252.176 138.675L249.512 140.173C249.472 140.195 249.428 140.207 249.382 140.207Z" fill="#DEE8F5"/>
<path d="M257.429 194.541L257.129 196.006L255.103 205.893H254.179L256.214 196.006L256.604 194.103L257.429 194.541Z" fill="#C1D8ED"/>
<path d="M269.754 205.892H268.833L266.804 196.006L266.497 194.512L267.326 194.073L267.723 196.006L269.754 205.892Z" fill="#C1D8ED"/>
<path d="M270.556 192.7H253.374C252.94 192.7 252.587 193.052 252.587 193.487V195.219C252.587 195.653 252.94 196.005 253.374 196.005H270.556C270.99 196.005 271.342 195.653 271.342 195.219V193.487C271.342 193.052 270.99 192.7 270.556 192.7Z" fill="#DEE8F5"/>
<path d="M266.985 180.941C266.29 180.713 265.576 180.968 264.893 181.488C265.792 179.216 266.164 177.164 264.626 177.073C263.549 177.009 262.725 177.833 262.098 179.008C261.878 176.943 261.309 175.404 260.036 175.914C258.638 176.475 258.426 178.395 258.638 180.404C258.022 179.378 257.358 178.805 256.757 179.408C254.96 181.205 259.37 186.268 259.37 186.268H260.466L261.09 186.947C260.964 187.214 260.895 187.373 260.895 187.373L261.688 188.989C261.688 188.989 269.873 181.887 266.985 180.941Z" fill="#8DDBE0"/>
<path d="M265.022 192.607H258.823L257.786 185.371H266.059L265.022 192.607Z" fill="#C1D8ED"/>
<path d="M242.992 201.471H212.048L214.64 177.998C214.774 177.227 215.176 176.529 215.775 176.025C216.374 175.522 217.131 175.246 217.913 175.246H242.111C242.596 175.246 243.074 175.352 243.514 175.557C243.953 175.761 244.342 176.06 244.654 176.431C244.966 176.802 245.193 177.236 245.319 177.704C245.445 178.172 245.467 178.662 245.384 179.14L242.992 201.471Z" fill="#C1D8ED"/>
<path d="M238.765 190.419C238.765 190.419 238.612 195.868 238.295 201.47C238.212 202.968 238.116 204.475 238.007 205.892H190.577V193.932C190.576 193.001 190.946 192.108 191.604 191.449C192.262 190.79 193.155 190.42 194.087 190.419H238.765Z" fill="#F3F5FD"/>
<path d="M226.016 190.419V205.892H198.083V193.932C198.083 193.471 198.174 193.014 198.351 192.588C198.527 192.161 198.786 191.774 199.112 191.448C199.439 191.122 199.826 190.863 200.252 190.686C200.678 190.51 201.135 190.419 201.597 190.419H226.016Z" fill="#DEE8F5"/>
<path d="M236.776 201.471H205.832L208.424 177.998C208.558 177.227 208.96 176.529 209.559 176.025C210.158 175.522 210.915 175.246 211.697 175.246H235.896C236.381 175.246 236.86 175.352 237.299 175.557C237.739 175.761 238.128 176.06 238.44 176.431C238.752 176.802 238.979 177.236 239.105 177.704C239.231 178.172 239.253 178.662 239.17 179.14L236.776 201.471Z" fill="#DEE8F5"/>
<path d="M232.292 204.036V205.892H191.801V204.036C191.801 203.699 191.868 203.365 191.997 203.054C192.125 202.742 192.314 202.46 192.553 202.221C192.791 201.983 193.074 201.794 193.385 201.665C193.697 201.536 194.03 201.47 194.367 201.47H229.726C230.063 201.47 230.397 201.536 230.708 201.665C231.019 201.794 231.302 201.983 231.54 202.221C231.779 202.46 231.968 202.742 232.097 203.054C232.226 203.365 232.292 203.699 232.292 204.036Z" fill="white"/>
<path d="M245.567 190.419V205.892H225.067V193.932C225.067 193.471 225.158 193.014 225.335 192.588C225.511 192.161 225.77 191.774 226.096 191.448C226.423 191.122 226.81 190.863 227.236 190.686C227.662 190.51 228.119 190.419 228.581 190.419H245.567Z" fill="#F3F5FD"/>
<path d="M250.076 193.715V205.892H232.574V193.932C232.574 193.471 232.665 193.014 232.842 192.588C233.018 192.161 233.277 191.774 233.603 191.448C233.929 191.122 234.317 190.863 234.743 190.686C235.169 190.51 235.626 190.419 236.087 190.419H246.78C247.654 190.419 248.493 190.766 249.111 191.384C249.729 192.002 250.076 192.84 250.076 193.715Z" fill="#DEE8F5"/>
<path d="M183.773 160.118H183.406V169.176H183.773V160.118Z" fill="#C1D8ED"/>
<path d="M183.59 170.378C184.065 170.378 184.449 169.993 184.449 169.518C184.449 169.043 184.065 168.658 183.59 168.658C183.115 168.658 182.73 169.043 182.73 169.518C182.73 169.993 183.115 170.378 183.59 170.378Z" fill="#C1D8ED"/>
<path d="M180.563 154.446L180.541 165.562L180.493 189.062L180.458 205.892H179.363L179.392 191.811L179.446 165.562L179.469 154.446H180.563Z" fill="#C1D8ED"/>
<path d="M188.055 165.562H171.512L174.619 150.054H184.948L188.055 165.562Z" fill="#DEE8F5"/>
<path d="M189.933 205.014C189.173 205.014 188.425 204.829 187.752 204.475C187.08 204.122 186.504 203.61 186.073 202.984C185.642 202.359 185.37 201.638 185.279 200.883C185.188 200.129 185.283 199.364 185.553 198.654L194.786 174.44L201.298 176.923L205.142 171.688L212.702 177.238L193.714 203.1C193.278 203.694 192.709 204.176 192.052 204.509C191.395 204.842 190.669 205.015 189.933 205.014Z" fill="#2F80ED"/>
<path d="M244.729 205.035C244.203 205.438 243.601 205.729 242.959 205.891H240.569C240.158 205.787 239.762 205.629 239.392 205.423L238.083 204.693C238.231 205.102 238.369 205.499 238.495 205.891H199.952C200.665 202.771 201.945 198.321 201.845 189.891C201.702 177.504 195.19 164.66 210.008 164.022C210.289 164.008 210.741 164.001 211.32 163.99C211.436 166.445 226.646 166.438 226.968 163.931C231.264 163.935 234.786 165.253 236.827 167.294C238.167 168.554 239.08 170.201 239.439 172.006L246.486 199.982C246.718 200.904 246.676 201.873 246.363 202.771C246.051 203.669 245.483 204.456 244.729 205.035Z" fill="#2F80ED"/>
<path d="M211.319 163.991C211.435 166.447 212.77 170.06 216.892 170.332C222.385 170.694 226.645 166.438 226.966 163.933H226.953C221.545 163.933 214.471 163.942 211.319 163.991Z" fill="#E98862"/>
<path d="M205.894 172.358C206.126 172.671 205.93 173.117 204.675 174.438C203.893 175.264 202.937 176.412 202.232 177.278L195.841 174.84C196.297 172.955 197.025 170.356 197.704 169.766C198.792 168.82 202.826 170.642 202.826 170.642C202.826 170.642 203.263 169.302 203.835 167.918C204.492 166.323 205.326 164.667 205.871 164.939C206.398 165.203 206.01 166.85 205.407 168.619C204.634 170.896 203.505 173.371 203.505 173.371C203.505 173.371 205.322 171.596 205.894 172.358Z" fill="#E98862"/>
<path d="M206.546 186.399L211.959 185.535C212.172 185.501 212.375 185.422 212.555 185.304C212.736 185.186 212.889 185.031 213.006 184.85C213.122 184.669 213.199 184.464 213.231 184.251C213.263 184.038 213.25 183.82 213.192 183.613L209.786 171.39C209.685 171.028 209.455 170.716 209.138 170.513C208.822 170.31 208.442 170.23 208.07 170.29L202.657 171.154C202.445 171.188 202.241 171.266 202.061 171.384C201.88 171.502 201.727 171.657 201.61 171.839C201.494 172.02 201.417 172.224 201.385 172.437C201.353 172.651 201.366 172.868 201.424 173.076L204.83 185.298C204.931 185.66 205.162 185.973 205.478 186.176C205.794 186.379 206.174 186.458 206.546 186.399Z" fill="#C1D8ED"/>
<path d="M215.263 183.195L212.07 187.527C212.07 187.527 203.489 185.807 202.684 179.196C202.591 178.434 202.672 176.329 203.614 176.611C206.069 177.347 209.127 181.116 211.27 181.617C210.781 180.742 210.185 179.506 210.569 179.279C211.582 178.684 214.303 182.273 215.263 183.195Z" fill="#E98862"/>
<path d="M207.121 138.825C207.121 138.825 203.679 151.156 201.745 157.555C201.654 157.858 201.634 158.178 201.689 158.49C201.743 158.802 201.87 159.097 202.059 159.351C202.248 159.606 202.494 159.812 202.777 159.954C203.06 160.096 203.372 160.17 203.689 160.17H215.766C216.288 160.169 216.789 159.968 217.167 159.608C217.544 159.248 217.769 158.757 217.794 158.236L218.608 141.07L207.121 138.825Z" fill="#0F1011"/>
<path d="M225.63 166.253C225.63 166.253 222.117 164.395 222.893 154.834L215.638 153.496C215.638 153.496 216.461 162.066 212.793 164.79L225.63 166.253Z" fill="#E98862"/>
<g opacity="0.15">
<path d="M214.278 162.999L220.3 158.383L215.568 158.337C215.432 159.958 214.994 161.539 214.278 162.999Z" fill="black"/>
</g>
<path d="M227.006 151.125C226.506 154.026 224.926 156.774 222.366 157.713C219.579 158.823 216.562 159.233 213.579 158.908C205.637 158.265 207.192 140.207 210.959 136.697C214.726 133.186 225.792 135.398 227.143 141.262C227.843 144.296 227.481 148.366 227.006 151.125Z" fill="#E98862"/>
<path d="M215.643 148.9C216.006 148.9 216.301 148.606 216.301 148.242C216.301 147.879 216.006 147.584 215.643 147.584C215.279 147.584 214.985 147.879 214.985 148.242C214.985 148.606 215.279 148.9 215.643 148.9Z" fill="#0F1011"/>
<path d="M210.452 148.479C210.816 148.479 211.11 148.185 211.11 147.821C211.11 147.458 210.816 147.164 210.452 147.164C210.089 147.164 209.794 147.458 209.794 147.821C209.794 148.185 210.089 148.479 210.452 148.479Z" fill="#0F1011"/>
<path d="M209.311 146.421C209.231 146.419 209.154 146.386 209.098 146.329C209.042 146.272 209.01 146.195 209.009 146.114C209.009 146.034 209.04 145.956 209.095 145.898C209.151 145.84 209.227 145.806 209.307 145.803L211.05 145.779H211.054C211.135 145.781 211.211 145.814 211.268 145.872C211.324 145.929 211.356 146.006 211.356 146.087C211.357 146.167 211.326 146.244 211.27 146.302C211.215 146.361 211.139 146.395 211.059 146.398L209.316 146.421H209.311Z" fill="#0F1011"/>
<path d="M217.061 147.049C217.037 147.049 217.013 147.046 216.989 147.041L215.27 146.629C215.23 146.621 215.191 146.604 215.157 146.581C215.123 146.557 215.094 146.527 215.072 146.492C215.05 146.457 215.035 146.418 215.028 146.377C215.021 146.336 215.023 146.294 215.032 146.254C215.042 146.214 215.06 146.176 215.084 146.142C215.109 146.109 215.14 146.081 215.176 146.06C215.211 146.039 215.251 146.025 215.292 146.019C215.333 146.014 215.374 146.017 215.414 146.027L217.133 146.439C217.207 146.457 217.271 146.501 217.314 146.563C217.357 146.625 217.376 146.701 217.368 146.776C217.359 146.851 217.323 146.92 217.266 146.971C217.21 147.021 217.137 147.049 217.061 147.049Z" fill="#0F1011"/>
<path d="M215.343 153.423C215.343 153.423 212.915 153.681 211.211 153.088C211.211 153.088 211.226 154.688 213.148 154.844C215.07 154.999 215.343 153.423 215.343 153.423Z" fill="white"/>
<g opacity="0.15">
<path d="M212.727 151.895C212.781 151.895 212.834 151.875 212.875 151.84C212.916 151.804 212.943 151.755 212.951 151.701C212.959 151.647 212.948 151.592 212.919 151.546C212.89 151.5 212.845 151.466 212.793 151.45L211.455 151.041L212.389 148.955C212.412 148.901 212.413 148.839 212.391 148.784C212.37 148.729 212.327 148.685 212.273 148.66C212.219 148.636 212.157 148.634 212.102 148.655C212.046 148.675 212.001 148.717 211.975 148.77L210.831 151.324L212.66 151.885C212.682 151.891 212.704 151.895 212.727 151.895Z" fill="black"/>
</g>
<path d="M206.707 140.303C206.707 140.303 207.869 130.899 222.938 133.208C226.695 133.784 232.019 136.717 232.881 146.33C233.275 150.739 234.796 154.897 235.955 157.528C236.092 157.837 236.15 158.175 236.123 158.512C236.097 158.849 235.986 159.174 235.802 159.458C235.618 159.741 235.366 159.974 235.069 160.136C234.772 160.297 234.439 160.382 234.101 160.382L223.509 160.386C222.971 160.387 222.455 160.174 222.075 159.794C221.694 159.415 221.479 158.9 221.478 158.362C221.478 158.333 221.478 158.303 221.48 158.273C221.556 156.47 221.617 153.418 221.514 148.752C220.963 146.089 222.43 144.212 220.301 144.824C212.393 147.092 207.3 140.455 206.707 140.303Z" fill="#0F1011"/>
<path d="M218.969 151.075C218.909 151.812 219.144 152.543 219.623 153.107C220.103 153.67 220.786 154.021 221.523 154.08C222.26 154.14 222.991 153.905 223.555 153.426C224.119 152.946 224.469 152.263 224.529 151.526C224.6 150.802 224.38 150.079 223.918 149.517C223.457 148.955 222.791 148.599 222.067 148.528C222.035 148.525 222.005 148.523 221.974 148.521C219.986 148.456 219.093 149.54 218.969 151.075Z" fill="#E98862"/>
<path d="M218.017 201.867C220.105 201.867 221.798 200.174 221.798 198.086C221.798 195.998 220.105 194.306 218.017 194.306C215.929 194.306 214.236 195.998 214.236 198.086C214.236 200.174 215.929 201.867 218.017 201.867Z" fill="#FD5D76"/>
<path d="M219.878 199.254H218.959C218.841 199.254 218.727 199.206 218.643 199.122C218.559 199.038 218.511 198.924 218.511 198.806V198.183C218.511 198.07 218.554 197.961 218.631 197.878C218.429 197.835 218.223 197.814 218.017 197.817C217.799 197.813 217.581 197.837 217.369 197.887C217.453 197.971 217.5 198.085 217.5 198.203V198.805C217.5 198.924 217.453 199.038 217.369 199.122C217.285 199.206 217.171 199.253 217.052 199.253H216.156C216.037 199.253 215.923 199.206 215.839 199.122C215.755 199.038 215.708 198.924 215.708 198.805C215.708 197.642 216.593 196.919 218.018 196.919C219.443 196.919 220.329 197.642 220.329 198.805C220.329 198.864 220.317 198.923 220.294 198.977C220.272 199.032 220.239 199.081 220.197 199.123C220.155 199.165 220.105 199.198 220.05 199.22C219.996 199.243 219.937 199.254 219.878 199.254Z" fill="white"/>
<path d="M207.918 200.76C209.395 200.76 210.592 199.563 210.592 198.086C210.592 196.61 209.395 195.413 207.918 195.413C206.442 195.413 205.245 196.61 205.245 198.086C205.245 199.563 206.442 200.76 207.918 200.76Z" fill="#8DDBE0"/>
<path d="M207.918 198.945C207.753 198.945 207.595 198.879 207.479 198.763C207.362 198.646 207.297 198.488 207.296 198.323V197.136C207.296 196.971 207.362 196.813 207.478 196.697C207.595 196.58 207.753 196.515 207.918 196.515C208.083 196.515 208.241 196.58 208.357 196.697C208.474 196.813 208.539 196.971 208.539 197.136V198.323C208.539 198.488 208.473 198.646 208.357 198.763C208.24 198.879 208.082 198.945 207.918 198.945Z" fill="white"/>
<path d="M207.918 199.594C207.884 199.593 207.853 199.58 207.829 199.556C207.805 199.533 207.792 199.501 207.792 199.468V198.334C207.792 198.3 207.805 198.268 207.828 198.244C207.852 198.221 207.884 198.208 207.918 198.208C207.951 198.208 207.983 198.221 208.007 198.244C208.03 198.268 208.044 198.3 208.044 198.334V199.468C208.044 199.501 208.03 199.533 208.007 199.557C207.983 199.581 207.951 199.594 207.918 199.594Z" fill="white"/>
<path d="M208.485 199.657H207.351C207.317 199.657 207.285 199.644 207.262 199.62C207.238 199.597 207.225 199.565 207.225 199.531C207.225 199.498 207.238 199.466 207.262 199.442C207.285 199.419 207.317 199.405 207.351 199.405H208.485C208.518 199.405 208.55 199.419 208.574 199.442C208.598 199.466 208.611 199.498 208.611 199.531C208.611 199.565 208.598 199.597 208.574 199.62C208.55 199.644 208.518 199.657 208.485 199.657Z" fill="white"/>
<path d="M228.115 200.761C229.591 200.761 230.788 199.564 230.788 198.087C230.788 196.611 229.591 195.414 228.115 195.414C226.638 195.414 225.441 196.611 225.441 198.087C225.441 199.564 226.638 200.761 228.115 200.761Z" fill="#0CBC8B"/>
<path d="M228.886 197.214H226.73V198.96H228.886V197.214Z" fill="white"/>
<path d="M229.502 198.818L228.738 198.054L229.502 197.29" fill="white"/>
<path d="M151.075 128.491H34.8828V205.892H151.075V128.491Z" fill="#F3F5FD"/>
<path d="M65.6243 148.471H48.7817V165.314H65.6243V148.471Z" fill="#DEE8F5"/>
<path d="M64.4627 149.632H49.9424V164.153H64.4627V149.632Z" fill="white"/>
<path d="M52.8779 152.939V158.448L58.3562 152.97L52.8779 152.939Z" fill="#F3F5FD"/>
<path d="M57.801 160.845C59.4995 160.845 60.8764 159.468 60.8764 157.77C60.8764 156.071 59.4995 154.694 57.801 154.694C56.1025 154.694 54.7256 156.071 54.7256 157.77C54.7256 159.468 56.1025 160.845 57.801 160.845Z" fill="#C1D8ED"/>
<path d="M84.9887 134.775H68.5947V154.689H84.9887V134.775Z" fill="#DEE8F5"/>
<path d="M83.6157 136.148H69.9673V153.316H83.6157V136.148Z" fill="white"/>
<path d="M79.8716 138.908H72.5728V147.447H79.8716V138.908Z" fill="#DEE8F5"/>
<path d="M79.4823 145.278H79.4819C78.0246 145.278 76.8433 146.459 76.8433 147.917V147.917C76.8433 149.374 78.0246 150.556 79.4819 150.556H79.4823C80.9396 150.556 82.121 149.374 82.121 147.917V147.917C82.121 146.459 80.9396 145.278 79.4823 145.278Z" fill="#C1D8ED"/>
<path d="M82.1204 142.632H76.2217V143.797H82.1204V142.632Z" fill="#F3F5FD"/>
<path d="M85.584 158.439H71.8335V172.189H85.584V158.439Z" fill="#DEE8F5"/>
<path d="M84.4633 159.559H72.9541V171.068H84.4633V159.559Z" fill="white"/>
<path d="M82.7699 160.945H79.8413V169.584H82.7699V160.945Z" fill="#DEE8F5"/>
<path d="M78.4054 160.945L74.5103 164.84H82.2577L78.4054 160.945Z" fill="#C1D8ED"/>
<path d="M81.3333 166.504H75.4346V167.669H81.3333V166.504Z" fill="#F3F5FD"/>
<path d="M141.124 202.469C141.124 202.469 140.58 182.325 135.35 181.989C130.12 181.652 139.637 203.776 139.637 203.776" fill="#DEE8F5"/>
<path d="M141.358 201.093C141.358 201.093 147.876 186.599 143.536 183.663C139.197 180.726 139.415 201.468 139.415 201.468" fill="#C1D8ED"/>
<path d="M142.721 199.845H136.859V205.892H142.721V199.845Z" fill="#C1D8ED"/>
<path d="M66.3769 183.994H38.8062V205.892H66.3769V183.994Z" fill="#C1D8ED"/>
<path d="M73.6987 183.994H46.1279V205.892H73.6987V183.994Z" fill="#DEE8F5"/>
<g opacity="0.53">
<path d="M72.2159 185.896H47.6118V193.706H72.2159V185.896Z" fill="#F3F5FD"/>
</g>
<g opacity="0.53">
<path d="M72.2159 195.617H47.6118V203.426H72.2159V195.617Z" fill="#F3F5FD"/>
</g>
<path d="M59.913 190.893C60.5164 190.893 61.0056 190.404 61.0056 189.801C61.0056 189.197 60.5164 188.708 59.913 188.708C59.3095 188.708 58.8203 189.197 58.8203 189.801C58.8203 190.404 59.3095 190.893 59.913 190.893Z" fill="white"/>
<path d="M59.913 200.614C60.5164 200.614 61.0056 200.124 61.0056 199.521C61.0056 198.917 60.5164 198.428 59.913 198.428C59.3095 198.428 58.8203 198.917 58.8203 199.521C58.8203 200.124 59.3095 200.614 59.913 200.614Z" fill="white"/>
<path d="M84.6616 166.754C84.6616 166.754 88.1405 164.91 87.3637 155.437L94.5515 154.104C94.5515 154.104 93.7439 162.598 97.3802 165.294L84.6616 166.754Z" fill="#E98862"/>
<g opacity="0.15">
<path d="M95.9074 163.519L89.936 158.951L94.626 158.902C94.8051 160.481 95.1741 162.175 95.9074 163.519Z" fill="black"/>
</g>
<path d="M83.2857 151.764C83.7832 154.638 85.3517 157.36 87.887 158.289C90.8968 159.39 93.126 159.465 96.5959 159.465C101.331 159.465 101.175 154.527 101.308 149.55C101.441 144.554 101.044 139.194 99.1725 137.453C95.4367 133.978 84.4727 136.179 83.1392 141.991C82.4493 144.998 82.8122 149.028 83.2857 151.764Z" fill="#E98862"/>
<path d="M103.846 140.341C103.846 140.341 105.785 139.908 105.254 137.973C104.902 136.691 103.259 136.976 103.259 136.976C103.259 136.976 104.815 136.691 104.815 135.333C104.815 134.476 104.157 133.027 102.173 133.856C99.8458 134.828 97.1911 134.703 95.1728 134.363C93.9953 134.165 92.847 133.89 91.7051 133.874H91.699C90.358 133.851 89.0212 134.03 87.7334 134.405C84.1253 135.484 78.6646 138.72 79.8254 146.054C81.1212 154.24 84.9623 157.37 86.6523 158.374C86.7523 158.435 86.8647 158.471 86.9809 158.482C87.0972 158.492 87.2143 158.476 87.3234 158.434C87.4325 158.393 87.5307 158.327 87.6107 158.242C87.6907 158.157 87.7502 158.055 87.785 157.944C88.2649 156.41 89.091 152.55 88.8591 144.59C99.9501 144.046 103.141 143.881 103.141 143.881C103.141 143.881 105.752 143.978 105.752 142.071C105.752 140.164 103.846 140.341 103.846 140.341Z" fill="#0F1011"/>
<path d="M94.5419 149.55C94.9018 149.55 95.1936 149.258 95.1936 148.898C95.1936 148.538 94.9018 148.247 94.5419 148.247C94.1819 148.247 93.8901 148.538 93.8901 148.898C93.8901 149.258 94.1819 149.55 94.5419 149.55Z" fill="#0F1011"/>
<path d="M99.685 149.128C100.045 149.128 100.337 148.836 100.337 148.476C100.337 148.117 100.045 147.825 99.685 147.825C99.325 147.825 99.0332 148.117 99.0332 148.476C99.0332 148.836 99.325 149.128 99.685 149.128Z" fill="#0F1011"/>
<path d="M100.813 147.088H100.809L99.0817 147.067C99.0005 147.066 98.923 147.032 98.8663 146.974C98.8096 146.916 98.7783 146.838 98.7793 146.756C98.7803 146.675 98.8136 146.598 98.8717 146.541C98.9299 146.484 99.0081 146.453 99.0894 146.454L100.817 146.476C100.897 146.479 100.972 146.512 101.027 146.57C101.082 146.627 101.113 146.704 101.112 146.784C101.112 146.863 101.08 146.94 101.025 146.996C100.969 147.053 100.893 147.086 100.814 147.088L100.813 147.088Z" fill="#0F1011"/>
<path d="M93.1346 147.716C93.0595 147.717 92.987 147.689 92.9308 147.639C92.8746 147.59 92.8386 147.521 92.8298 147.446C92.8209 147.372 92.8398 147.297 92.8828 147.235C92.9258 147.173 92.9899 147.13 93.063 147.112L94.7658 146.704C94.8049 146.694 94.8454 146.693 94.8852 146.699C94.9249 146.705 94.963 146.719 94.9973 146.74C95.0316 146.761 95.0614 146.789 95.0851 146.821C95.1087 146.854 95.1257 146.891 95.1352 146.93C95.1446 146.969 95.1462 147.01 95.1399 147.049C95.1337 147.089 95.1196 147.127 95.0986 147.161C95.0776 147.196 95.0501 147.226 95.0176 147.249C94.9851 147.273 94.9482 147.29 94.9091 147.299L93.2066 147.709C93.183 147.714 93.1588 147.717 93.1346 147.716Z" fill="#0F1011"/>
<path d="M91.1494 150.492C91.2093 151.223 90.9765 151.947 90.5024 152.506C90.0282 153.065 89.3514 153.413 88.6209 153.473C87.8904 153.533 87.166 153.3 86.6071 152.826C86.0482 152.352 85.7006 151.675 85.6407 150.944C85.6047 150.581 85.6422 150.215 85.7508 149.867C85.8593 149.519 86.0368 149.196 86.2726 148.918C86.5085 148.64 86.7978 148.412 87.1235 148.249C87.4492 148.085 87.8045 147.988 88.1683 147.964C90.1389 147.9 91.0249 148.971 91.1494 150.492Z" fill="#E98862"/>
<g opacity="0.15">
<path d="M97.4375 152.513C97.3827 152.515 97.3291 152.496 97.287 152.461C97.2449 152.426 97.2171 152.377 97.209 152.322C97.2009 152.268 97.213 152.213 97.2429 152.167C97.2729 152.121 97.3187 152.088 97.3716 152.073L98.6972 151.666L97.7693 149.601C97.7449 149.546 97.743 149.484 97.7643 149.429C97.7855 149.373 97.828 149.328 97.8824 149.303C97.9368 149.279 97.9988 149.277 98.0545 149.298C98.1103 149.32 98.1554 149.362 98.1798 149.417L99.2117 151.714C99.2249 151.743 99.2317 151.775 99.2318 151.807C99.2318 151.839 99.225 151.87 99.2118 151.899C99.1986 151.928 99.1794 151.954 99.1553 151.975C99.1313 151.996 99.1031 152.012 99.0725 152.021L97.5031 152.503C97.4818 152.51 97.4597 152.513 97.4375 152.513Z" fill="black"/>
</g>
<path d="M94.8433 154.031C94.8433 154.031 97.2497 154.285 98.9362 153.696C98.9362 153.696 98.923 155.281 97.0186 155.437C95.1143 155.593 94.8433 154.031 94.8433 154.031Z" fill="white"/>
<path d="M140.586 205.891H125.698C121.878 202.881 118.499 200.196 117.354 199.233L108.797 186.443C108.467 188.926 108.269 191.425 108.202 193.93C108.107 197.942 108.445 201.953 109.209 205.893H73.4782C74.7019 202.628 75.3314 199.17 75.3372 195.683C75.3372 193.485 74.854 191.14 74.2141 188.75L70.0259 198.176L68.9892 205.893H59.3169L60.6191 196.221C60.6798 195.769 60.8048 195.328 60.9903 194.912L71.6129 170.992L71.6672 171.014C72.1148 169.778 72.8318 168.657 73.7662 167.732C75.7723 165.726 79.2406 164.427 83.4705 164.423C83.7872 166.89 98.758 166.897 98.8732 164.481C99.4427 164.491 99.8875 164.497 100.163 164.51C104.156 164.683 106.571 166.052 107.976 168.199L108.072 168.135L124.443 192.591L140.586 205.891Z" fill="#9EBCEA"/>
<path d="M98.872 164.479C98.7578 166.896 97.4434 170.452 93.3863 170.72C87.9791 171.076 83.7876 166.887 83.4702 164.421H83.4837C88.8065 164.421 95.7687 164.429 98.872 164.479Z" fill="#E98862"/>
<path d="M120.874 144.955L119.043 146.012L122.63 152.226L124.461 151.169L120.874 144.955Z" fill="#DEE8F5"/>
<path d="M119.505 145.003H117.391V152.178H119.505V145.003Z" fill="#DEE8F5"/>
<path d="M131.818 143.055H129.704V152.178H131.818V143.055Z" fill="#DEE8F5"/>
<path d="M129.644 145.003H127.53V152.178H129.644V145.003Z" fill="#C1D8ED"/>
<path d="M133.932 144.081H131.818V152.178H133.932V144.081Z" fill="#C1D8ED"/>
<path d="M127.496 143.828H124.12V152.177H127.496V143.828Z" fill="white"/>
<path d="M137.319 149.795C137.319 149.795 137.309 146.226 139.101 145.481C140.894 144.736 138.21 149.795 138.21 149.795H137.319Z" fill="#DEE8F5"/>
<path d="M138.21 149.794C138.21 149.794 139.146 143.114 137.233 143.114C135.32 143.114 137.319 149.794 137.319 149.794" fill="#DEE8F5"/>
<path d="M137.637 150.088C137.637 150.088 136.739 144.134 135.138 144.612C133.537 145.089 137.008 150.275 137.008 150.275L137.637 150.088Z" fill="#DEE8F5"/>
<path d="M139.402 148.003H135.227V152.178H139.402V148.003Z" fill="#C1D8ED"/>
<path d="M141.103 152.178H116.333V153.105H141.103V152.178Z" fill="#DEE8F5"/>
<path d="M92.8797 201.849C94.9677 201.849 96.6603 200.157 96.6603 198.069C96.6603 195.981 94.9677 194.288 92.8797 194.288C90.7918 194.288 89.0991 195.981 89.0991 198.069C89.0991 200.157 90.7918 201.849 92.8797 201.849Z" fill="#FD5D76"/>
<path d="M94.7408 199.235H93.8222C93.7034 199.235 93.5895 199.188 93.5055 199.104C93.4215 199.02 93.3743 198.906 93.3743 198.787V198.166C93.3741 198.053 93.4168 197.944 93.4936 197.861C93.2919 197.817 93.0859 197.797 92.8796 197.799C92.6616 197.796 92.444 197.819 92.2317 197.869C92.3156 197.953 92.3627 198.067 92.3626 198.186V198.787C92.3626 198.906 92.3154 199.02 92.2314 199.104C92.1474 199.188 92.0334 199.235 91.9146 199.235H91.0187C90.8999 199.235 90.786 199.188 90.702 199.104C90.618 199.02 90.5708 198.906 90.5708 198.787C90.5708 197.624 91.4558 196.902 92.8809 196.902C94.306 196.902 95.1913 197.624 95.1913 198.787C95.1913 198.846 95.1796 198.905 95.157 198.959C95.1343 199.014 95.1011 199.063 95.0592 199.105C95.0173 199.147 94.9676 199.18 94.913 199.202C94.8584 199.224 94.7998 199.236 94.7408 199.235Z" fill="white"/>
<path d="M82.7826 200.741C84.259 200.741 85.4559 199.544 85.4559 198.068C85.4559 196.591 84.259 195.395 82.7826 195.395C81.3062 195.395 80.1094 196.591 80.1094 198.068C80.1094 199.544 81.3062 200.741 82.7826 200.741Z" fill="#8DDBE0"/>
<path d="M82.783 198.926C82.6182 198.926 82.4603 198.86 82.3438 198.744C82.2273 198.628 82.1618 198.47 82.1616 198.305V197.117C82.1616 196.953 82.2271 196.795 82.3436 196.678C82.4601 196.562 82.6182 196.496 82.783 196.496C82.9478 196.496 83.1058 196.562 83.2223 196.678C83.3389 196.795 83.4043 196.953 83.4043 197.117V198.305C83.4042 198.47 83.3386 198.628 83.2222 198.744C83.1057 198.86 82.9477 198.926 82.783 198.926Z" fill="white"/>
<path d="M82.7823 199.576C82.749 199.575 82.7173 199.562 82.6937 199.538C82.6702 199.515 82.6567 199.483 82.6562 199.45V198.316C82.6562 198.282 82.6695 198.25 82.6932 198.226C82.7168 198.203 82.7489 198.189 82.7823 198.189C82.8157 198.189 82.8478 198.203 82.8715 198.226C82.8951 198.25 82.9084 198.282 82.9084 198.316V199.45C82.9084 199.483 82.8951 199.515 82.8715 199.539C82.8478 199.563 82.8157 199.576 82.7823 199.576Z" fill="white"/>
<path d="M83.3506 199.639H82.2164C82.183 199.639 82.1509 199.626 82.1273 199.602C82.1036 199.578 82.0903 199.546 82.0903 199.513C82.0903 199.479 82.1036 199.447 82.1273 199.424C82.1509 199.4 82.183 199.387 82.2164 199.387H83.3506C83.3841 199.387 83.4161 199.4 83.4398 199.424C83.4634 199.447 83.4767 199.479 83.4767 199.513C83.4767 199.546 83.4634 199.578 83.4398 199.602C83.4161 199.626 83.3841 199.639 83.3506 199.639Z" fill="white"/>
<path d="M102.979 200.742C104.455 200.742 105.652 199.545 105.652 198.068C105.652 196.592 104.455 195.395 102.979 195.395C101.503 195.395 100.306 196.592 100.306 198.068C100.306 199.545 101.503 200.742 102.979 200.742Z" fill="#0CBC8B"/>
<path d="M103.749 197.195H101.594V198.941H103.749V197.195Z" fill="white"/>
<path d="M104.365 198.799L103.601 198.035L104.365 197.271" fill="white"/>
</svg>
