<svg width="49" height="49" viewBox="0 0 49 49" fill="none" xmlns="http://www.w3.org/2000/svg">
<path d="M43.6406 45.9375H5.35938C3.24778 45.9375 1.53125 44.2194 1.53125 42.1094V25.2656C1.53125 24.843 1.87425 24.5 2.29688 24.5C2.7195 24.5 3.0625 24.843 3.0625 25.2656V42.1094C3.0625 43.3757 4.09303 44.4062 5.35938 44.4062H43.6406C44.907 44.4062 45.9375 43.3757 45.9375 42.1094V25.2656C45.9375 24.843 46.2805 24.5 46.7031 24.5C47.1258 24.5 47.4688 24.843 47.4688 25.2656V42.1094C47.4688 44.2194 45.7522 45.9375 43.6406 45.9375Z" fill="#1C55E9"/>
<path d="M32.9219 9.1875C32.4993 9.1875 32.1562 8.8445 32.1562 8.42188C32.1562 6.31181 30.4397 4.59375 28.3281 4.59375H20.6719C18.5603 4.59375 16.8438 6.31181 16.8438 8.42188C16.8438 8.8445 16.5007 9.1875 16.0781 9.1875C15.6555 9.1875 15.3125 8.8445 15.3125 8.42188C15.3125 5.46656 17.7166 3.0625 20.6719 3.0625H28.3281C31.2834 3.0625 33.6875 5.46656 33.6875 8.42188C33.6875 8.8445 33.3445 9.1875 32.9219 9.1875Z" fill="#1C55E9"/>
<path d="M22.2031 30.625H17.6094C9.58869 30.625 3.0625 24.0988 3.0625 16.0781V11.4844C3.0625 11.0618 2.7195 10.7188 2.29688 10.7188C1.87425 10.7188 1.53125 11.0618 1.53125 11.4844V16.0781C1.53125 24.9441 8.74344 32.1562 17.6094 32.1562H22.2031V30.625Z" fill="#1C55E9"/>
<path d="M46.7031 10.7188H9.95312C9.5305 10.7188 9.1875 11.0618 9.1875 11.4844C9.1875 11.907 9.5305 12.25 9.95312 12.25H45.9375V16.0781C45.9375 24.0988 39.4113 30.625 31.3906 30.625H26.7969V32.1562H31.3906C40.2566 32.1562 47.4688 24.9441 47.4688 16.0781V11.4844C47.4688 11.0618 47.1258 10.7188 46.7031 10.7188Z" fill="#1C55E9"/>
<path d="M26.7969 36.75H22.2031C21.7805 36.75 21.4375 36.407 21.4375 35.9844V29.8594C21.4375 29.4368 21.7805 29.0938 22.2031 29.0938H26.7969C27.2195 29.0938 27.5625 29.4368 27.5625 29.8594V35.9844C27.5625 36.407 27.2195 36.75 26.7969 36.75ZM22.9688 35.2188H26.0312V30.625H22.9688V35.2188Z" fill="#1C55E9"/>
<path d="M6.89062 12.25C7.31347 12.25 7.65625 11.9072 7.65625 11.4844C7.65625 11.0615 7.31347 10.7188 6.89062 10.7188C6.46778 10.7188 6.125 11.0615 6.125 11.4844C6.125 11.9072 6.46778 12.25 6.89062 12.25Z" fill="#1C55E9"/>
</svg>
