<svg width="49" height="49" viewBox="0 0 49 49" fill="none" xmlns="http://www.w3.org/2000/svg">
<path d="M45.1719 10.7188H2.29688C1.87425 10.7188 1.53125 10.3758 1.53125 9.95312V5.35938C1.53125 4.09303 2.56178 3.0625 3.82812 3.0625H43.6406C44.907 3.0625 45.9375 4.09303 45.9375 5.35938V9.95312C45.9375 10.3758 45.5945 10.7188 45.1719 10.7188ZM3.0625 9.1875H44.4062V5.35938C44.4062 4.93828 44.0617 4.59375 43.6406 4.59375H3.82812C3.40703 4.59375 3.0625 4.93828 3.0625 5.35938V9.1875Z" fill="#1C55E9"/>
<path d="M11.4844 7.65625C11.9072 7.65625 12.25 7.31347 12.25 6.89062C12.25 6.46778 11.9072 6.125 11.4844 6.125C11.0615 6.125 10.7188 6.46778 10.7188 6.89062C10.7188 7.31347 11.0615 7.65625 11.4844 7.65625Z" fill="#1C55E9"/>
<path d="M8.42188 7.65625C8.84472 7.65625 9.1875 7.31347 9.1875 6.89062C9.1875 6.46778 8.84472 6.125 8.42188 6.125C7.99903 6.125 7.65625 6.46778 7.65625 6.89062C7.65625 7.31347 7.99903 7.65625 8.42188 7.65625Z" fill="#1C55E9"/>
<path d="M5.35938 7.65625C5.78222 7.65625 6.125 7.31347 6.125 6.89062C6.125 6.46778 5.78222 6.125 5.35938 6.125C4.93653 6.125 4.59375 6.46778 4.59375 6.89062C4.59375 7.31347 4.93653 7.65625 5.35938 7.65625Z" fill="#1C55E9"/>
<path d="M45.1719 35.2188C44.7492 35.2188 44.4062 34.8757 44.4062 34.4531V5.35938C44.4062 4.93675 44.0617 4.59375 43.6406 4.59375H3.82812C3.40703 4.59375 3.0625 4.93675 3.0625 5.35938V34.4531C3.0625 34.8757 2.7195 35.2188 2.29688 35.2188C1.87425 35.2188 1.53125 34.8757 1.53125 34.4531V5.35938C1.53125 4.09303 2.56178 3.0625 3.82812 3.0625H43.6406C44.907 3.0625 45.9375 4.09303 45.9375 5.35938V34.4531C45.9375 34.8757 45.5945 35.2188 45.1719 35.2188Z" fill="#1C55E9"/>
<path d="M45.1719 45.9375H35.9844C35.5618 45.9375 35.2188 45.5945 35.2188 45.1719V39.0469C35.2188 38.6243 35.5618 38.2812 35.9844 38.2812H45.1719C45.5945 38.2812 45.9375 38.6243 45.9375 39.0469V45.1719C45.9375 45.5945 45.5945 45.9375 45.1719 45.9375ZM36.75 44.4062H44.4062V39.8125H36.75V44.4062Z" fill="#1C55E9"/>
<path d="M28.3281 45.9375H19.1406C18.718 45.9375 18.375 45.5945 18.375 45.1719V39.0469C18.375 38.6243 18.718 38.2812 19.1406 38.2812H28.3281C28.7507 38.2812 29.0938 38.6243 29.0938 39.0469V45.1719C29.0938 45.5945 28.7507 45.9375 28.3281 45.9375ZM19.9062 44.4062H27.5625V39.8125H19.9062V44.4062Z" fill="#1C55E9"/>
<path d="M11.4844 45.9375H2.29688C1.87425 45.9375 1.53125 45.5945 1.53125 45.1719V39.0469C1.53125 38.6243 1.87425 38.2812 2.29688 38.2812H11.4844C11.907 38.2812 12.25 38.6243 12.25 39.0469V45.1719C12.25 45.5945 11.907 45.9375 11.4844 45.9375ZM3.0625 44.4062H10.7188V39.8125H3.0625V44.4062Z" fill="#1C55E9"/>
<path d="M37.5156 26.0312H9.95312C9.5305 26.0312 9.1875 25.6882 9.1875 25.2656V16.0781C9.1875 15.6555 9.5305 15.3125 9.95312 15.3125H37.5156C37.9382 15.3125 38.2812 15.6555 38.2812 16.0781V25.2656C38.2812 25.6882 37.9382 26.0312 37.5156 26.0312ZM10.7188 24.5H36.75V16.8438H10.7188V24.5Z" fill="#1C55E9"/>
<path d="M23.7344 29.0938C23.3118 29.0938 22.9688 28.7508 22.9688 28.3281V25.2656C22.9688 24.843 23.3118 24.5 23.7344 24.5C24.157 24.5 24.5 24.843 24.5 25.2656V28.3281C24.5 28.7508 24.157 29.0938 23.7344 29.0938Z" fill="#1C55E9"/>
<path d="M23.7344 36.75C23.3118 36.75 22.9688 36.407 22.9688 35.9844V31.3906C22.9688 30.968 23.3118 30.625 23.7344 30.625C24.157 30.625 24.5 30.968 24.5 31.3906V35.9844C24.5 36.407 24.157 36.75 23.7344 36.75Z" fill="#1C55E9"/>
<path d="M40.5781 36.75C40.1555 36.75 39.8125 36.407 39.8125 35.9844V32.1562H7.65625V35.9844C7.65625 36.407 7.31325 36.75 6.89062 36.75C6.468 36.75 6.125 36.407 6.125 35.9844V31.3906C6.125 30.968 6.468 30.625 6.89062 30.625H40.5781C41.0008 30.625 41.3438 30.968 41.3438 31.3906V35.9844C41.3438 36.407 41.0008 36.75 40.5781 36.75Z" fill="#1C55E9"/>
</svg>
