<svg width="117" height="117" viewBox="0 0 117 117" fill="none" xmlns="http://www.w3.org/2000/svg">
<g clip-path="url(#clip0_353_1675)">
<path d="M99.8638 99.8657C122.71 77.0201 122.71 39.9799 99.8638 17.1343C77.0182 -5.71142 39.978 -5.71141 17.1323 17.1343C-5.71332 39.9799 -5.71332 77.0201 17.1323 99.8657C39.978 122.711 77.0182 122.711 99.8638 99.8657Z" fill="#1C55E9" fill-opacity="0.08"/>
<path d="M92.3465 55.4444C92.3465 37.3382 77.8823 22.6561 60.0407 22.6561C42.1992 22.6561 27.7039 37.3538 27.7039 55.4444C27.6778 62.1125 29.6861 68.6299 33.4608 74.1269C37.2354 79.6239 42.5968 83.8388 48.8294 86.2092V88.5802C48.5273 88.5928 48.2377 88.7042 48.005 88.8974C47.7724 89.0907 47.6097 89.355 47.5419 89.6497C47.4742 89.9444 47.5051 90.2532 47.6299 90.5286C47.7547 90.804 47.9665 91.0309 48.2328 91.1742C48.0216 91.2956 47.8461 91.4705 47.7241 91.6814C47.602 91.8923 47.5378 92.1316 47.5378 92.3752C47.5378 92.6188 47.602 92.8581 47.7241 93.069C47.8461 93.2799 48.0216 93.4548 48.2328 93.5762C48.0216 93.697 47.846 93.8714 47.7239 94.0819C47.6018 94.2923 47.5376 94.5313 47.5376 94.7747C47.5376 94.9932 47.5893 95.2087 47.6885 95.4035C47.7877 95.5982 47.9315 95.7667 48.1083 95.8953C47.9321 96.0244 47.7887 96.193 47.6896 96.3876C47.5905 96.5823 47.5384 96.7975 47.5376 97.0159C47.5376 97.3832 47.6836 97.7356 47.9433 97.9954C48.2031 98.2551 48.5554 98.4011 48.9228 98.4011H52.2898V99.2986C52.2898 99.9987 52.4278 100.692 52.6959 101.339C52.964 101.986 53.3569 102.573 53.8522 103.068C54.3475 103.563 54.9355 103.955 55.5826 104.223C56.2296 104.49 56.923 104.627 57.6231 104.627H62.7748C63.4749 104.627 64.1683 104.49 64.8154 104.223C65.4624 103.955 66.0504 103.563 66.5457 103.068C67.041 102.573 67.4339 101.986 67.702 101.339C67.9701 100.692 68.1081 99.9987 68.1081 99.2986V98.4011H71.4751C71.8421 98.3997 72.1936 98.2533 72.4531 97.9939C72.7126 97.7344 72.8589 97.3828 72.8603 97.0159C72.8595 96.7975 72.8074 96.5823 72.7083 96.3876C72.6092 96.193 72.4658 96.0244 72.2896 95.8953C72.4664 95.7667 72.6103 95.5982 72.7095 95.4035C72.8086 95.2087 72.8603 94.9932 72.8603 94.7747C72.8604 94.5307 72.7955 94.2912 72.6725 94.0806C72.5494 93.8699 72.3725 93.6959 72.1599 93.5762C72.3725 93.4559 72.5493 93.2813 72.6724 93.0703C72.7954 92.8593 72.8602 92.6195 72.8602 92.3752C72.8602 92.1309 72.7954 91.8911 72.6724 91.6801C72.5493 91.469 72.3725 91.2945 72.1599 91.1742C72.4324 91.0271 72.6475 90.7926 72.7706 90.5084C72.8936 90.2243 72.9176 89.907 72.8385 89.6076C72.7595 89.3082 72.5821 89.0441 72.3348 88.8578C72.0875 88.6714 71.7847 88.5736 71.4751 88.5802H71.1949V86.2144C77.4337 83.8485 82.8016 79.6347 86.5813 74.1362C90.361 68.6377 92.3723 62.1166 92.3465 55.4444Z" fill="#1C55E9"/>
<path d="M45.5973 29.1307C40.7984 31.7247 36.4249 35.6936 35.1694 41.2084C34.9775 42.0644 36.2952 42.4276 36.4872 41.5716C37.6701 36.3836 41.7841 32.7519 46.2873 30.3084C47.0604 29.8882 46.3703 28.7105 45.5973 29.1307Z" fill="white"/>
<path d="M67.3351 64.7619C66.5206 62.8268 63.9369 61.535 62.09 62.9721L62.0122 63.0395C61.3326 62.1472 60.3053 61.5557 59.1743 62.225C58.534 62.6381 58.0331 63.2348 57.7373 63.937L57.6491 63.8903C56.1912 63.1588 54.9357 63.8903 54.4948 65.3637C54.1073 66.9474 54.2401 68.6137 54.8735 70.1159C55.5305 71.6237 56.2701 73.0941 57.0888 74.5206C57.8818 76.0444 58.3333 77.7228 58.4117 79.4388C58.4126 81.3327 58.3156 83.2254 58.1212 85.1093C57.9906 86.5898 58.0692 88.0813 58.3546 89.5399C58.6919 91.0703 60.1756 91.9212 61.5764 90.9873C61.9494 90.735 62.2504 90.39 62.4496 89.9861C62.6488 89.5822 62.7394 89.1334 62.7126 88.6838C62.7478 88.6088 62.7689 88.5279 62.7748 88.4452C63.0861 85.4154 62.5673 82.3337 63.0757 79.3195C63.5323 76.6321 65.0627 74.3909 66.256 71.9888C67.3351 69.8254 68.3364 67.1328 67.3351 64.7619ZM66.2041 68.295C65.732 70.4013 64.5647 72.2534 63.5686 74.1419C62.5065 76.0262 61.8327 78.1043 61.5868 80.2533C61.496 81.3438 61.4648 82.4383 61.4934 83.5321C61.3412 83.4343 61.1713 83.3674 60.9932 83.3354C60.8151 83.3033 60.6325 83.3067 60.4558 83.3454C60.2223 83.3765 59.937 83.4076 59.6568 83.4647C59.7734 82.1677 59.8202 80.8654 59.7969 79.5633C59.7682 78.2966 59.5514 77.0413 59.1536 75.8383C58.7238 74.712 58.2033 73.6224 57.5972 72.5803C56.9298 71.4706 56.382 70.2932 55.963 69.068C55.6309 67.9733 55.33 66.3495 55.963 65.2911C56.3209 64.6945 56.8242 64.8501 57.2755 65.26C57.2133 65.5142 57.1614 65.7788 57.1251 66.0071C56.8809 67.6082 57.1043 69.2457 57.7684 70.723C57.9967 71.2418 58.6867 71.0809 58.9513 70.723C59.5585 69.8496 59.8718 68.8055 59.8457 67.742C59.8196 66.6786 59.4554 65.6511 58.806 64.8086C58.9537 64.4335 59.1584 64.0835 59.413 63.771C60.1289 62.8994 60.7411 63.4442 61.1406 64.1653C60.8414 64.8502 60.6658 65.5826 60.6218 66.3287C60.5388 67.3663 60.8812 68.8501 62.1782 68.793C62.3293 68.7892 62.4751 68.7366 62.5939 68.6431C62.7126 68.5496 62.7979 68.4202 62.8371 68.2742C63.2082 66.9466 63.1409 65.5346 62.6451 64.2483C62.8074 64.0475 63.017 63.8902 63.2552 63.7905C63.4934 63.6909 63.7527 63.6521 64.0096 63.6776C66.3027 63.9267 66.5932 66.5777 66.2041 68.295Z" fill="white"/>
<path d="M71.5061 88.0405H48.518C47.7759 88.0405 47.1743 88.6421 47.1743 89.3842V90.0275C47.1743 90.7696 47.7759 91.3712 48.518 91.3712H71.5061C72.2482 91.3712 72.8498 90.7696 72.8498 90.0275V89.3842C72.8498 88.6421 72.2482 88.0405 71.5061 88.0405Z" fill="#0D216D"/>
<path d="M71.5061 93.3531H48.518C47.7759 93.3531 47.1743 93.9547 47.1743 94.6968V95.0548C47.1743 95.7969 47.7759 96.3985 48.518 96.3985H71.5061C72.2482 96.3985 72.8498 95.7969 72.8498 95.0548V94.6968C72.8498 93.9547 72.2482 93.3531 71.5061 93.3531Z" fill="#0D216D"/>
<path d="M29.7271 26.1528C28.8263 26.0636 27.9924 25.6374 27.3925 24.9595C26.6937 24.1789 26.1638 23.2622 25.8361 22.2669C25.6182 21.6755 25.4366 21.0685 25.255 20.4615C25.2434 20.4054 25.2128 20.3551 25.1684 20.3189C25.124 20.2828 25.0685 20.2631 25.0112 20.2631C24.9539 20.2631 24.8984 20.2828 24.854 20.3189C24.8096 20.3551 24.779 20.4054 24.7674 20.4615C24.4864 21.3239 24.1395 22.1634 23.7298 22.9725C23.4288 23.653 23.005 24.272 22.4795 24.7987L22.412 24.861C21.8273 25.2568 21.1304 25.4533 20.425 25.4213C20.1397 25.4213 20.0722 25.9089 20.3576 25.9401C21.3484 26.1828 22.256 26.6868 22.9859 27.3994C23.7159 28.112 24.2414 29.0072 24.508 29.9919C24.6741 30.5683 24.7528 31.1664 24.7414 31.7662C24.7318 31.835 24.7499 31.9048 24.7917 31.9603C24.8336 32.0157 24.8957 32.0523 24.9645 32.0619C25.0333 32.0715 25.1031 32.0534 25.1586 32.0116C25.214 31.9698 25.2506 31.9076 25.2602 31.8388C25.888 29.9919 26.6143 27.9374 28.373 27.0192C28.7953 26.7915 29.2681 26.6737 29.7479 26.6768C30.0591 26.7079 30.054 26.1683 29.7271 26.1528Z" fill="white"/>
<path d="M44.8866 16.9804C44.3153 16.9251 43.7866 16.6543 43.408 16.223C42.9678 15.731 42.634 15.1535 42.4274 14.5265C42.2926 14.153 42.1784 13.7691 42.0643 13.3903C42.0553 13.3559 42.0352 13.3254 42.007 13.3036C41.9788 13.2818 41.9442 13.27 41.9086 13.27C41.873 13.27 41.8384 13.2818 41.8103 13.3036C41.7821 13.3254 41.762 13.3559 41.753 13.3903C41.5786 13.9332 41.3635 14.4621 41.1097 14.9727C40.9199 15.4033 40.6526 15.7955 40.3211 16.1296L40.2744 16.1659C39.901 16.4205 39.4547 16.5461 39.0034 16.5239C38.8218 16.5239 38.7803 16.83 38.9567 16.8663C39.5857 17.0173 40.1624 17.335 40.6262 17.786C41.0899 18.237 41.4236 18.8046 41.5922 19.4292C41.6995 19.7928 41.7502 20.1707 41.7426 20.5498C41.741 20.5895 41.7541 20.6284 41.7794 20.659C41.8047 20.6896 41.8405 20.7098 41.8798 20.7156C41.9192 20.7214 41.9592 20.7124 41.9923 20.6904C42.0254 20.6684 42.0492 20.635 42.0591 20.5965C42.4534 19.4292 42.9151 18.127 44.015 17.5459C44.2832 17.4034 44.5828 17.3303 44.8866 17.3332C45.0941 17.3332 45.0941 16.9908 44.8866 16.9804Z" fill="white"/>
<path d="M52.3989 47.8905V40.1604C52.4044 39.7953 52.2651 39.4428 52.0112 39.1803C51.7574 38.9177 51.4099 38.7665 51.0448 38.7596H43.6208C43.6555 40.6976 42.9191 42.5699 41.5736 43.965C40.2281 45.3602 38.3837 46.1638 36.4458 46.1993C36.2434 46.1993 36.0463 46.1993 35.8439 46.1993C35.7246 47.7557 35.5949 49.2602 35.4652 50.7958C35.0606 55.574 34.796 60.3366 34.6818 65.1303C34.5833 69.4675 32.259 73.2703 31.8647 77.5815C33.3534 78.0713 34.8885 78.4068 36.4458 78.5828C38.3837 78.5474 40.2281 77.7437 41.5736 76.3486C42.9191 74.9535 43.6555 73.0811 43.6208 71.1432H51.05C51.4151 71.1364 51.7626 70.9851 52.0164 70.7226C52.2702 70.46 52.4096 70.1076 52.4041 69.7424V62.0123C53.838 61.4728 55.0734 60.5089 55.9453 59.2492C56.8173 57.9895 57.2845 56.4939 57.2845 54.9618C57.2845 53.4297 56.8173 51.9341 55.9453 50.6744C55.0734 49.4147 53.838 48.4508 52.4041 47.9113L52.3989 47.8905Z" fill="#26485F"/>
<path d="M54.4737 54.8892C54.477 53.3101 53.9846 51.7697 53.066 50.4852C52.1473 49.2007 50.8487 48.237 49.3532 47.7298V39.9114C49.3518 39.5362 49.2021 39.1768 48.9368 38.9115C48.6715 38.6461 48.3121 38.4965 47.9368 38.4951H40.1289C40.0773 40.4608 39.2602 42.3287 37.8517 43.7008C36.4431 45.0728 34.5545 45.8407 32.5881 45.8407C30.6217 45.8407 28.7331 45.0728 27.3245 43.7008C25.916 42.3287 25.0989 40.4608 25.0473 38.4951H17.2394C16.8633 38.4951 16.5025 38.6442 16.2361 38.9096C15.9696 39.1751 15.8192 39.5353 15.8179 39.9114V47.5638C17.4626 47.9604 18.926 48.8989 19.9728 50.2281C21.0195 51.5573 21.5887 53.2 21.5887 54.8918C21.5887 56.5837 21.0195 58.2264 19.9728 59.5556C18.926 60.8848 17.4626 61.8232 15.8179 62.2199V69.867C15.8179 70.244 15.9676 70.6056 16.2342 70.8722C16.5008 71.1388 16.8624 71.2885 17.2394 71.2885H25.0473C25.0989 73.2542 25.916 75.1221 27.3245 76.4942C28.7331 77.8663 30.6217 78.6341 32.5881 78.6341C34.5545 78.6341 36.4431 77.8663 37.8517 76.4942C39.2602 75.1221 40.0773 73.2542 40.1289 71.2885H47.9368C48.313 71.2872 48.6732 71.1368 48.9387 70.8703C49.2041 70.6039 49.3532 70.2431 49.3532 69.867V62.0331C50.8462 61.5268 52.143 60.5654 53.0614 59.284C53.9799 58.0027 54.4738 56.4657 54.4737 54.8892Z" fill="#FFBB0E"/>
</g>
<defs>
<clipPath id="clip0_353_1675">
<rect width="117" height="117" fill="white"/>
</clipPath>
</defs>
</svg>
