<svg width="312" height="293" viewBox="0 0 312 293" fill="none" xmlns="http://www.w3.org/2000/svg">
<g clip-path="url(#clip0_153_10525)">
<g opacity="0.7">
<path d="M265.34 2.54492H210.464V67.5227H265.34V2.54492Z" fill="#F4F4F4"/>
<path d="M265.34 67.5225H267.12V2.54472H265.34V67.5225Z" fill="#F4F4F4"/>
<path opacity="0.05" d="M265.34 67.5225H267.12V2.54472H265.34V67.5225Z" fill="#292A2E"/>
<path opacity="0.05" d="M255.344 15.542H220.46V54.5255H255.344V15.542Z" fill="#292A2E"/>
<path opacity="0.03" d="M255.344 15.542H253.526V54.5255H255.344V15.542Z" fill="#292A2E"/>
<path d="M310.22 85.0684H265.34V130.31H310.22V85.0684Z" fill="#F4F4F4"/>
<path opacity="0.05" d="M302.045 93.3105H273.516V122.07H302.045V93.3105Z" fill="#292A2E"/>
<path d="M310.22 130.311H312V85.0684H310.22V130.311Z" fill="#F4F4F4"/>
<path opacity="0.05" d="M310.22 130.311H312V85.0684H310.22V130.311Z" fill="#292A2E"/>
<path opacity="0.03" d="M302.044 93.3105H300.226V122.07H302.044V93.3105Z" fill="#292A2E"/>
</g>
<g opacity="0.7">
<path d="M152.98 0.00195312H23.7859V129.054H152.98V0.00195312Z" fill="#F4F4F4"/>
<path d="M23.786 0.00195312H22.3052V129.054H23.786V0.00195312Z" fill="#F4F4F4"/>
<path opacity="0.05" d="M23.786 0.00195312H22.3052V129.054H23.786V0.00195312Z" fill="#292A2E"/>
<path opacity="0.05" d="M55.084 88.9292V55.165H82.7722V74.7812H125.662V109.514H143.89V129.054H125.662H122.15H30.0007V88.9292H55.084Z" fill="#292A2E"/>
<path opacity="0.34" d="M79.2182 58.8311H59.0552V62.497H79.2182V58.8311Z" fill="#FFFFFA"/>
<path opacity="0.34" d="M79.2182 66.4277H59.0552V70.0937H79.2182V66.4277Z" fill="#FFFFFA"/>
<path opacity="0.34" d="M79.2182 74.0244H59.0552V77.6904H79.2182V74.0244Z" fill="#FFFFFA"/>
<path opacity="0.34" d="M37.2924 92.4883H33.5762V96.1542H37.2924V92.4883Z" fill="#FFFFFA"/>
<path opacity="0.34" d="M37.2924 100.085H33.5762V103.751H37.2924V100.085Z" fill="#FFFFFA"/>
<path opacity="0.34" d="M37.2924 107.682H33.5762V111.348H37.2924V107.682Z" fill="#FFFFFA"/>
<path opacity="0.34" d="M44.1676 92.4883H40.4514V96.1542H44.1676V92.4883Z" fill="#FFFFFA"/>
<path opacity="0.34" d="M44.1676 100.085H40.4514V103.751H44.1676V100.085Z" fill="#FFFFFA"/>
<path opacity="0.34" d="M44.1676 107.682H40.4514V111.348H44.1676V107.682Z" fill="#FFFFFA"/>
<path opacity="0.34" d="M50.8571 92.4883H47.1409V96.1542H50.8571V92.4883Z" fill="#FFFFFA"/>
<path opacity="0.34" d="M50.8571 100.085H47.1409V103.751H50.8571V100.085Z" fill="#FFFFFA"/>
<path opacity="0.34" d="M50.8571 107.682H47.1409V111.348H50.8571V107.682Z" fill="#FFFFFA"/>
<path d="M23.7859 63.8041H49.7819V0.00195312H51.9318V63.8041H122.15V0.00195312H124.3V63.8041H152.98V65.9517H124.3V129.054H122.15V65.9517H51.9318V129.054H49.7819V65.9517H23.7859V63.8041Z" fill="white"/>
<path d="M158.127 128.898H18.6392V133.19H158.127V128.898Z" fill="#F4F4F4"/>
<path opacity="0.1" d="M158.127 128.898H18.6392V133.19H158.127V128.898Z" fill="#292A2E"/>
<path opacity="0.1" d="M18.6392 128.898H16.6255V133.19H18.6392V128.898Z" fill="#292A2E"/>
<path opacity="0.1" d="M18.6392 128.898H16.6255V133.19H18.6392V128.898Z" fill="#292A2E"/>
</g>
<path d="M98.3506 16.0264H249.569C251.747 16.0264 253.836 16.8907 255.377 18.4293C256.917 19.9679 257.782 22.0547 257.782 24.2305V205.148C257.782 207.371 256.898 209.503 255.324 211.075C253.751 212.647 251.616 213.531 249.391 213.531H98.5295C96.3038 213.531 94.1694 212.647 92.5956 211.075C91.0218 209.503 90.1377 207.371 90.1377 205.148V24.2296C90.1379 22.0539 91.0033 19.9675 92.5435 18.4291C94.0837 16.8907 96.1725 16.0265 98.3506 16.0264Z" fill="white"/>
<path d="M249.391 213.849H98.5296C96.2193 213.849 94.0037 212.932 92.3702 211.301C90.7366 209.669 89.8188 207.456 89.8188 205.148V23.9112C89.819 21.7355 90.6844 19.649 92.2246 18.1106C93.7648 16.5723 95.8536 15.708 98.0317 15.708H249.888C252.066 15.708 254.155 16.5723 255.696 18.1108C257.236 19.6494 258.101 21.736 258.101 23.9119V205.148C258.101 207.456 257.184 209.669 255.55 211.301C253.916 212.932 251.701 213.849 249.391 213.849ZM90.4567 24.2161V205.148C90.4567 206.207 90.6655 207.255 91.0711 208.234C91.4768 209.212 92.0715 210.101 92.8211 210.85C93.5708 211.599 94.4607 212.193 95.4402 212.598C96.4196 213.003 97.4694 213.212 98.5296 213.212H249.391C251.532 213.212 253.585 212.362 255.099 210.85C256.613 209.338 257.463 207.287 257.463 205.148V24.1365C257.463 23.1132 257.261 22.0999 256.869 21.1546C256.477 20.2092 255.902 19.3503 255.178 18.6268C254.454 17.9033 253.593 17.3294 252.647 16.938C251.701 16.5465 250.686 16.3451 249.662 16.3452H98.3369C96.2471 16.3452 94.2428 17.1744 92.765 18.6505C91.2872 20.1265 90.4569 22.1285 90.4567 24.2161Z" fill="#292A2E"/>
<path d="M122.658 55.3004H104.333C103.311 55.2992 102.332 54.8935 101.61 54.1722C100.888 53.4509 100.482 52.473 100.48 51.4528V33.147C100.481 32.1268 100.888 31.1487 101.61 30.4272C102.332 29.7058 103.311 29.3 104.333 29.2988H122.658C123.68 29.2999 124.659 29.7057 125.381 30.4271C126.104 31.1485 126.51 32.1267 126.511 33.147V51.4528C126.51 52.473 126.103 53.451 125.381 54.1723C124.659 54.8936 123.68 55.2993 122.658 55.3004ZM104.333 29.9354C103.48 29.9364 102.663 30.275 102.061 30.877C101.458 31.4789 101.119 32.2951 101.118 33.1464V51.4528C101.119 52.3041 101.458 53.1203 102.061 53.7222C102.663 54.3242 103.48 54.6628 104.333 54.6638H122.658C123.511 54.6629 124.328 54.3243 124.93 53.7224C125.533 53.1204 125.872 52.3042 125.873 51.4528V33.147C125.872 32.2956 125.533 31.4795 124.93 30.8775C124.328 30.2755 123.511 29.9369 122.658 29.936L104.333 29.9354Z" fill="#292A2E"/>
<path d="M122.658 91.5676H104.333C103.311 91.5664 102.332 91.1606 101.61 90.4392C100.888 89.7178 100.481 88.7397 100.48 87.7194V69.4139C100.481 68.3936 100.888 67.4154 101.61 66.694C102.332 65.9725 103.311 65.5666 104.333 65.5654H122.658C123.68 65.5666 124.659 65.9725 125.381 66.6939C126.104 67.4154 126.51 68.3936 126.511 69.4139V87.7194C126.51 88.7397 126.104 89.7179 125.381 90.4393C124.659 91.1607 123.68 91.5665 122.658 91.5676ZM104.333 66.2036C103.48 66.2046 102.663 66.5432 102.061 67.1453C101.458 67.7473 101.119 68.5635 101.118 69.4149V87.7204C101.119 88.5717 101.458 89.3879 102.061 89.9899C102.663 90.5919 103.48 90.9305 104.333 90.9314H122.658C123.511 90.9305 124.328 90.5919 124.93 89.9899C125.533 89.3879 125.872 88.5717 125.873 87.7204V69.4139C125.872 68.5625 125.533 67.7463 124.93 67.1443C124.328 66.5423 123.511 66.2036 122.658 66.2026L104.333 66.2036Z" fill="#292A2E"/>
<path d="M122.658 127.835H104.333C103.311 127.834 102.332 127.428 101.61 126.706C100.888 125.985 100.481 125.007 100.48 123.987V105.681C100.481 104.661 100.888 103.683 101.61 102.961C102.332 102.24 103.311 101.834 104.333 101.833H122.658C123.68 101.834 124.659 102.24 125.381 102.961C126.104 103.683 126.51 104.661 126.511 105.681V123.987C126.51 125.007 126.104 125.985 125.381 126.707C124.659 127.428 123.68 127.834 122.658 127.835ZM104.333 102.47C103.48 102.471 102.663 102.81 102.061 103.412C101.458 104.014 101.119 104.83 101.118 105.681V123.987C101.119 124.838 101.458 125.654 102.061 126.256C102.663 126.858 103.48 127.197 104.333 127.198H122.658C123.511 127.197 124.328 126.858 124.93 126.256C125.533 125.654 125.872 124.838 125.873 123.987V105.681C125.872 104.83 125.533 104.014 124.93 103.412C124.328 102.81 123.511 102.471 122.658 102.47H104.333Z" fill="#292A2E"/>
<path d="M122.658 163.604H104.333C103.311 163.603 102.332 163.197 101.61 162.475C100.888 161.754 100.481 160.776 100.48 159.756V141.45C100.481 140.43 100.888 139.452 101.61 138.73C102.332 138.009 103.311 137.603 104.333 137.602H122.658C123.68 137.603 124.659 138.009 125.381 138.73C126.104 139.452 126.51 140.43 126.511 141.45V159.756C126.51 160.776 126.104 161.754 125.381 162.475C124.659 163.197 123.68 163.603 122.658 163.604ZM104.333 138.239C103.48 138.24 102.663 138.578 102.061 139.18C101.458 139.782 101.119 140.599 101.118 141.45V159.756C101.119 160.607 101.458 161.423 102.061 162.025C102.663 162.627 103.48 162.966 104.333 162.967H122.658C123.511 162.966 124.328 162.627 124.93 162.025C125.533 161.423 125.872 160.607 125.873 159.756V141.45C125.872 140.599 125.533 139.782 124.931 139.18C124.328 138.578 123.511 138.24 122.658 138.239H104.333Z" fill="#292A2E"/>
<path d="M122.658 199.371H104.333C103.311 199.37 102.332 198.964 101.61 198.243C100.888 197.521 100.481 196.543 100.48 195.523V177.218C100.481 176.197 100.888 175.219 101.61 174.498C102.332 173.776 103.311 173.37 104.333 173.369H122.658C123.68 173.37 124.659 173.776 125.381 174.498C126.104 175.219 126.51 176.197 126.511 177.218V195.523C126.51 196.543 126.103 197.522 125.381 198.243C124.659 198.964 123.68 199.37 122.658 199.371ZM104.333 174.006C103.48 174.007 102.663 174.346 102.061 174.948C101.458 175.55 101.119 176.366 101.118 177.217V195.523C101.119 196.374 101.458 197.19 102.061 197.792C102.663 198.394 103.48 198.733 104.333 198.734H122.658C123.511 198.733 124.328 198.394 124.93 197.792C125.533 197.19 125.872 196.374 125.873 195.523V177.218C125.872 176.366 125.533 175.55 124.93 174.948C124.328 174.346 123.511 174.007 122.658 174.006L104.333 174.006Z" fill="#292A2E"/>
<path d="M110.236 85.8899C109.906 85.8902 109.589 85.7626 109.352 85.5341L104.01 80.4049C103.889 80.2889 103.793 80.1503 103.725 79.997C103.658 79.8437 103.622 79.6786 103.619 79.5113C103.615 79.344 103.645 79.1777 103.706 79.0218C103.767 78.866 103.858 78.7236 103.974 78.603C104.091 78.4823 104.229 78.3857 104.383 78.3186C104.536 78.2515 104.701 78.2153 104.869 78.2119C105.036 78.2086 105.203 78.2383 105.359 78.2993C105.515 78.3603 105.657 78.4513 105.778 78.5673L110.214 82.8271L121.332 71.6193C121.571 71.3832 121.894 71.2508 122.23 71.251C122.566 71.2511 122.889 71.3837 123.127 71.62C123.366 71.8563 123.502 72.1772 123.505 72.5129C123.508 72.8486 123.379 73.172 123.145 73.4129L111.142 85.5111C111.023 85.6312 110.882 85.7265 110.727 85.7915C110.571 85.8565 110.404 85.89 110.236 85.8899Z" fill="#0CBC8B"/>
<path d="M110.236 122.157C109.906 122.157 109.589 122.03 109.352 121.801L104.01 116.672C103.766 116.438 103.625 116.116 103.619 115.779C103.612 115.441 103.74 115.114 103.974 114.87C104.209 114.627 104.531 114.486 104.869 114.479C105.207 114.472 105.534 114.6 105.778 114.835L110.214 119.093L121.332 107.886C121.571 107.646 121.894 107.51 122.233 107.509C122.571 107.507 122.896 107.64 123.137 107.878C123.377 108.116 123.513 108.439 123.514 108.777C123.516 109.115 123.383 109.44 123.145 109.68L111.142 121.778C111.023 121.898 110.882 121.994 110.727 122.059C110.571 122.124 110.404 122.157 110.236 122.157Z" fill="#0CBC8B"/>
<path opacity="0.5" d="M244.004 36.6318H136.527C136.035 36.6318 135.637 37.0299 135.637 37.521C135.637 38.0121 136.035 38.4102 136.527 38.4102H244.004C244.495 38.4102 244.894 38.0121 244.894 37.521C244.894 37.0299 244.495 36.6318 244.004 36.6318Z" fill="#262626"/>
<path opacity="0.5" d="M205.732 46.1895H136.527C136.035 46.1895 135.637 46.5875 135.637 47.0786C135.637 47.5697 136.035 47.9678 136.527 47.9678H205.732C206.223 47.9678 206.622 47.5697 206.622 47.0786C206.622 46.5875 206.223 46.1895 205.732 46.1895Z" fill="#262626"/>
<path opacity="0.5" d="M244.004 72.8984H136.527C136.035 72.8984 135.637 73.2965 135.637 73.7876C135.637 74.2787 136.035 74.6768 136.527 74.6768H244.004C244.495 74.6768 244.894 74.2787 244.894 73.7876C244.894 73.2965 244.495 72.8984 244.004 72.8984Z" fill="#262626"/>
<path opacity="0.5" d="M205.732 82.4561H136.527C136.035 82.4561 135.637 82.8541 135.637 83.3452C135.637 83.8363 136.035 84.2344 136.527 84.2344H205.732C206.223 84.2344 206.622 83.8363 206.622 83.3452C206.622 82.8541 206.223 82.4561 205.732 82.4561Z" fill="#262626"/>
<path opacity="0.5" d="M244.004 109.166H136.527C136.035 109.166 135.637 109.564 135.637 110.055C135.637 110.546 136.035 110.944 136.527 110.944H244.004C244.495 110.944 244.894 110.546 244.894 110.055C244.894 109.564 244.495 109.166 244.004 109.166Z" fill="#262626"/>
<path opacity="0.5" d="M205.732 118.723H136.527C136.035 118.723 135.637 119.121 135.637 119.612C135.637 120.103 136.035 120.501 136.527 120.501H205.732C206.223 120.501 206.622 120.103 206.622 119.612C206.622 119.121 206.223 118.723 205.732 118.723Z" fill="#262626"/>
<path opacity="0.5" d="M244.004 144.935H136.527C136.035 144.935 135.637 145.333 135.637 145.824C135.637 146.315 136.035 146.713 136.527 146.713H244.004C244.495 146.713 244.894 146.315 244.894 145.824C244.894 145.333 244.495 144.935 244.004 144.935Z" fill="#262626"/>
<path opacity="0.5" d="M205.732 154.492H136.527C136.035 154.492 135.637 154.89 135.637 155.381C135.637 155.872 136.035 156.271 136.527 156.271H205.732C206.223 156.271 206.622 155.872 206.622 155.381C206.622 154.89 206.223 154.492 205.732 154.492Z" fill="#262626"/>
<path opacity="0.5" d="M244.004 180.702H136.527C136.035 180.702 135.637 181.1 135.637 181.591C135.637 182.082 136.035 182.48 136.527 182.48H244.004C244.495 182.48 244.894 182.082 244.894 181.591C244.894 181.1 244.495 180.702 244.004 180.702Z" fill="#262626"/>
<path opacity="0.5" d="M205.732 190.26H136.527C136.035 190.26 135.637 190.658 135.637 191.149C135.637 191.64 136.035 192.038 136.527 192.038H205.732C206.223 192.038 206.622 191.64 206.622 191.149C206.622 190.658 206.223 190.26 205.732 190.26Z" fill="#262626"/>
<path d="M109.315 48.8176C109.408 48.5894 109.573 48.3977 109.785 48.2718C109.997 48.1459 110.245 48.0927 110.49 48.1202C110.49 48.1005 110.473 48.0527 110.507 48.053L109.71 47.5496C109.471 47.4064 109.293 47.1818 109.208 46.9173C109.122 46.6528 109.135 46.3664 109.245 46.1109C109.361 45.862 109.566 45.6652 109.819 45.5586C110.073 45.4519 110.357 45.4432 110.616 45.534C110.614 45.5231 110.62 45.5123 110.621 45.5021L110.294 45.2953C110.069 45.1594 109.899 44.9504 109.812 44.7035C109.724 44.4567 109.725 44.1872 109.813 43.9407C109.872 43.7874 109.964 43.649 110.083 43.5355C110.202 43.422 110.344 43.3363 110.5 43.2845C110.656 43.2327 110.822 43.2161 110.985 43.2359C111.148 43.2558 111.305 43.3115 111.444 43.3991L112.201 43.877C112.203 43.8726 112.201 43.8678 112.203 43.8636C112.205 43.8595 112.214 43.8576 112.217 43.8528C112.04 43.6751 111.928 43.4423 111.9 43.1927C111.872 42.9431 111.929 42.6913 112.063 42.4787C112.374 41.9075 113.172 41.9738 113.661 42.2825L115.129 43.3749C115.355 43.5435 115.536 43.7653 115.655 44.0207C115.775 44.276 115.83 44.557 115.814 44.8385C115.684 47.275 115.19 53.6314 113.628 52.6438L109.782 50.2181C109.559 50.0698 109.392 49.8515 109.308 49.5979C109.223 49.3442 109.226 49.0696 109.315 48.8176Z" fill="#E98862"/>
<path d="M110.236 49.26C109.906 49.2603 109.589 49.1327 109.352 48.9042L104.01 43.775C103.888 43.6595 103.789 43.5208 103.721 43.367C103.652 43.2133 103.614 43.0474 103.61 42.8791C103.606 42.7108 103.635 42.5433 103.696 42.3864C103.758 42.2295 103.849 42.0862 103.966 41.9648C104.083 41.8434 104.222 41.7464 104.377 41.6793C104.532 41.6121 104.698 41.5763 104.867 41.5738C105.035 41.5712 105.202 41.6021 105.359 41.6646C105.515 41.727 105.658 41.8199 105.778 41.9377L110.214 46.1965L121.333 34.9897C121.45 34.8708 121.591 34.7763 121.745 34.7116C121.9 34.6468 122.065 34.6131 122.233 34.6123C122.4 34.6115 122.567 34.6438 122.722 34.7071C122.877 34.7704 123.018 34.8636 123.137 34.9814C123.256 35.0992 123.35 35.2393 123.415 35.3936C123.48 35.5479 123.514 35.7135 123.515 35.8808C123.515 36.0482 123.483 36.214 123.42 36.369C123.356 36.5239 123.263 36.6648 123.145 36.7837L111.142 48.8819C111.024 49.0018 110.882 49.097 110.727 49.1619C110.571 49.2268 110.404 49.2602 110.236 49.26Z" fill="#0CBC8B"/>
<path d="M106.56 46.1499C106.587 45.9643 106.651 45.7861 106.749 45.6262C106.847 45.4662 106.977 45.3279 107.13 45.2197C107.283 45.1114 107.457 45.0355 107.641 44.9966C107.824 44.9576 108.014 44.9564 108.198 44.9931C108.552 45.0765 108.86 45.2909 109.062 45.593C109.264 45.895 109.343 46.2622 109.284 46.6204L109.246 48.5768C109.238 48.9907 109.381 49.3931 109.65 49.7083C109.919 50.0235 110.293 50.2296 110.704 50.2876C111.106 50.3446 111.515 50.2556 111.857 50.0367C112.199 49.8179 112.451 49.4838 112.567 49.0952L113.566 45.7555L112.48 44.1348C112.86 43.5231 113.179 41.9414 113.838 42.4126C114.395 42.7585 115.66 43.5951 116.006 44.3878C116.013 44.391 116.661 51.1918 116.308 51.7588L113.19 60.0917C111.694 62.4977 104.474 60.6359 104.474 60.6359L106.56 46.1499Z" fill="#E98862"/>
<path d="M110.214 46.1965L121.332 34.9897C121.45 34.8708 121.591 34.7763 121.745 34.7116C121.9 34.6468 122.065 34.6131 122.233 34.6123C122.4 34.6115 122.566 34.6438 122.722 34.7071C122.877 34.7704 123.018 34.8636 123.137 34.9814C123.256 35.0992 123.35 35.2393 123.415 35.3936C123.48 35.5479 123.514 35.7135 123.515 35.8808C123.515 36.0482 123.483 36.214 123.42 36.369C123.356 36.5239 123.263 36.6648 123.145 36.7837L111.142 48.8819" fill="#0CBC8B"/>
<path d="M53.4687 104.118L98.4662 100.336C101.779 100.423 104.664 97.671 105.879 94.5833L117.668 57.6728L102.247 51.6172L91.84 83.2344L52.2664 86.001L53.4687 104.118Z" fill="#2F80ED"/>
<path d="M27.3416 277.902C27.3416 277.902 28.7816 285.357 35.7704 285.774C42.7592 286.191 41.2436 291.751 41.2436 291.751H14.5364V278.422L27.3416 277.902Z" fill="#2F80ED"/>
<path d="M19.1041 141.888C19.1041 141.888 19.188 139.647 19.1702 144.732C19.1041 163.697 18.7747 185.359 17.9697 198.035C16.6758 218.413 13.3579 282.66 13.3579 282.66L30.9076 282.513L47.917 141.118L19.1041 141.888Z" fill="#262626"/>
<path d="M38.9224 164.253C38.9224 164.253 39.6495 178.016 39.7835 181.247C40.0954 188.719 40.2038 196.455 40.2038 205.227L42.9709 182.232C42.9709 182.232 40.9466 175.025 38.9224 164.253Z" fill="#0A0A0A"/>
<path d="M58.5847 277.902C58.5847 277.902 60.0247 285.357 67.0135 285.774C74.0024 286.191 72.4868 291.751 72.4868 291.751H45.7795V278.422L58.5847 277.902Z" fill="#2F80ED"/>
<path d="M67.082 143.361C67.082 143.361 68.6365 208.179 68.4088 211.347L61.8824 282.168L44.6226 282.487L46.3047 208.784C46.3047 208.784 45.1183 188.454 40.2006 169.575C37.6846 159.886 36.1703 149.965 35.6816 139.967L67.082 143.361Z" fill="#262626"/>
<path d="M18.9129 141.887L18.8555 141.89C18.8555 141.89 18.8972 140.784 18.9129 141.887Z" fill="#333333"/>
<path d="M69.5525 109.295C69.1908 113.542 67.43 138.13 67.082 143.361H19.1232C18.8525 138.643 17.6357 118.01 16.6084 108.783C15.6277 99.9777 13.7036 95.5694 15.1139 92.9663C17.4185 88.7119 23.7162 86.2537 28.0103 85.6729C30.6326 85.3183 52.988 85.0635 53.0416 85.0635C54.7976 85.0635 65.0227 85.888 67.283 87.6268C71.3727 90.7731 70.1846 101.888 69.5525 109.295Z" fill="#2F80ED"/>
<path d="M70.215 102.835C70.2557 102.835 70.295 102.82 70.3246 102.792C70.3543 102.764 70.3721 102.726 70.3745 102.685L70.7613 96.5776C70.7638 96.5354 70.7494 96.494 70.7213 96.4625C70.6931 96.4309 70.6536 96.4118 70.6114 96.4094C70.5694 96.4074 70.5282 96.422 70.4967 96.45C70.4653 96.4779 70.446 96.5171 70.443 96.5591L70.0562 102.667C70.0537 102.709 70.0682 102.75 70.0963 102.782C70.1244 102.813 70.1639 102.832 70.2061 102.835L70.215 102.835Z" fill="#0C0C0C"/>
<path d="M8.75473 143.084C7.34431 143.083 5.95488 142.743 4.70466 142.09C3.45444 141.438 2.38044 140.494 1.57403 139.338C0.767628 138.182 0.252691 136.849 0.0730348 135.452C-0.106621 134.054 0.0543213 132.634 0.542168 131.312C1.0362 129.97 12.6518 99.2449 14.8623 93.5518L31.2361 100.178C29.9922 103.379 25.4879 115.512 21.8687 125.286L27.8812 124.633L29.7738 142.023L9.70164 143.032C9.38717 143.067 9.07107 143.084 8.75473 143.084Z" fill="#2F80ED"/>
<path d="M58.7553 84.4827C58.7017 84.4757 57.2304 90.0056 45.7498 89.1448C37.8019 88.55 35.8628 83.1462 35.6816 83.1462C36.5386 82.9643 37.9304 82.7754 38.3109 82.5728C39.5624 81.9009 40.4743 81.0834 40.9329 79.3283C41.2917 77.9562 41.4751 72.6731 41.4751 70.0225L53.7053 72.7677C53.5346 75.7576 52.3415 82.6894 56.5234 83.9162C57.219 84.1188 57.9685 84.3052 58.7553 84.4827Z" fill="#E98862"/>
<path d="M53.2819 78.6457C48.4605 79.0257 42.2668 76.9922 41.0903 70.5667L40.0289 64.7685C38.8523 58.343 41.2772 52.5167 47.3341 51.4103C53.3906 50.3038 58.8715 54.6859 60.0477 61.1114L60.5178 63.6783C60.9691 66.1441 61.8842 77.9677 53.2819 78.6457Z" fill="#E98862"/>
<path d="M57.7523 72.7459C56.8871 68.4024 56.49 65.5042 56.5362 62.4471C57.7552 60.3126 57.4347 57.8595 57.1575 56.8005C57.9971 57.333 58.9841 57.5858 59.9766 57.5224C59.9766 57.5224 57.9606 49.4406 51.1086 47.2659C49.8485 46.7763 46.6314 46.1576 42.3599 46.7428C38.7269 47.2404 29.7713 49.9538 28.4917 60.0252V60.0309C28.4496 60.3651 27.5898 69.6445 25.8764 74.0967C23.5721 80.0817 20.3366 81.9412 20.4185 88.8472C20.5241 97.7296 36.8717 98.9122 46.7306 98.2476C56.5895 97.5831 62.0949 94.3447 62.167 87.9433C62.2455 80.7704 59.4841 81.4366 57.7523 72.7459Z" fill="#0A0A0A"/>
<path d="M18.1022 108.961L17.7834 108.972L18.9618 143.368L19.2806 143.357L18.1022 108.961Z" fill="#0C0C0C"/>
<path d="M304.739 291.974H4.80699C4.74778 291.974 4.691 291.951 4.64913 291.909C4.60726 291.867 4.58374 291.81 4.58374 291.751C4.58374 291.692 4.60726 291.635 4.64913 291.594C4.691 291.552 4.74778 291.528 4.80699 291.528H304.739C304.798 291.528 304.855 291.552 304.897 291.594C304.939 291.635 304.962 291.692 304.962 291.751C304.962 291.81 304.939 291.867 304.897 291.909C304.855 291.951 304.798 291.974 304.739 291.974Z" fill="#292A2E"/>
<path d="M255.89 231.137C255.876 231.137 255.862 231.135 255.848 231.132C255.807 231.121 255.772 231.094 255.751 231.057C255.73 231.021 255.724 230.977 255.735 230.937L261.945 207.695C261.951 207.674 261.96 207.655 261.972 207.638C261.985 207.621 262.001 207.607 262.019 207.596C262.037 207.586 262.058 207.579 262.079 207.576C262.1 207.573 262.121 207.574 262.141 207.58C262.162 207.585 262.181 207.595 262.198 207.607C262.214 207.62 262.228 207.637 262.239 207.655C262.249 207.673 262.256 207.694 262.258 207.715C262.261 207.736 262.259 207.757 262.254 207.777L256.043 231.019C256.034 231.053 256.014 231.083 255.986 231.104C255.959 231.125 255.925 231.137 255.89 231.137Z" fill="white"/>
</g>
<defs>
<clipPath id="clip0_153_10525">
<rect width="312" height="292" fill="white" transform="translate(0 0.00195312)"/>
</clipPath>
</defs>
</svg>
