<svg width="302" height="302" viewBox="0 0 302 302" fill="none" xmlns="http://www.w3.org/2000/svg">
<path d="M156.033 181.201C154.698 181.201 153.418 180.671 152.474 179.727C151.53 178.783 151 177.503 151 176.168V115.768C151 114.433 151.53 113.153 152.474 112.209C153.418 111.265 154.698 110.734 156.033 110.734C157.368 110.734 158.649 111.265 159.592 112.209C160.536 113.153 161.067 114.433 161.067 115.768V176.168C161.067 177.503 160.536 178.783 159.592 179.727C158.649 180.671 157.368 181.201 156.033 181.201Z" fill="#E6F0FD"/>
<path d="M135.904 181.204C134.57 181.204 133.289 180.674 132.345 179.73C131.401 178.786 130.871 177.506 130.871 176.171V105.704C130.871 104.369 131.401 103.089 132.345 102.145C133.289 101.201 134.57 100.671 135.904 100.671C137.239 100.671 138.52 101.201 139.464 102.145C140.407 103.089 140.938 104.369 140.938 105.704V176.171C140.938 177.506 140.407 178.786 139.464 179.73C138.52 180.674 137.239 181.204 135.904 181.204Z" fill="#E6F0FD"/>
<path d="M115.758 181.203C114.423 181.203 113.143 180.673 112.199 179.729C111.255 178.785 110.725 177.505 110.725 176.17V110.736C110.725 109.402 111.255 108.121 112.199 107.177C113.143 106.233 114.423 105.703 115.758 105.703C117.093 105.703 118.373 106.233 119.317 107.177C120.261 108.121 120.791 109.402 120.791 110.736V176.17C120.791 177.505 120.261 178.785 119.317 179.729C118.373 180.673 117.093 181.203 115.758 181.203Z" fill="#E6F0FD"/>
<path d="M95.629 181.197C94.2941 181.197 93.0139 180.666 92.0699 179.722C91.126 178.778 90.5957 177.498 90.5957 176.163V135.897C90.5957 134.562 91.126 133.281 92.0699 132.338C93.0139 131.394 94.2941 130.863 95.629 130.863C96.964 130.863 98.2442 131.394 99.1881 132.338C100.132 133.281 100.662 134.562 100.662 135.897V176.163C100.662 177.498 100.132 178.778 99.1881 179.722C98.2442 180.666 96.964 181.197 95.629 181.197Z" fill="#E6F0FD"/>
<path d="M75.5021 181.203C74.1672 181.203 72.8869 180.673 71.943 179.729C70.999 178.785 70.4688 177.505 70.4688 176.17V145.97C70.4688 144.635 70.999 143.355 71.943 142.411C72.8869 141.467 74.1672 140.937 75.5021 140.937C76.837 140.937 78.1173 141.467 79.0612 142.411C80.0051 143.355 80.5354 144.635 80.5354 145.97V176.17C80.5354 177.505 80.0051 178.785 79.0612 179.729C78.1173 180.673 76.837 181.203 75.5021 181.203Z" fill="#E6F0FD"/>
<path d="M55.3732 181.204C54.0383 181.204 52.758 180.674 51.8141 179.73C50.8701 178.786 50.3398 177.506 50.3398 176.171V140.938C50.3398 139.603 50.8701 138.322 51.8141 137.379C52.758 136.435 54.0383 135.904 55.3732 135.904C56.7081 135.904 57.9883 136.435 58.9323 137.379C59.8762 138.322 60.4065 139.603 60.4065 140.938V176.171C60.4065 177.506 59.8762 178.786 58.9323 179.73C57.9883 180.674 56.7081 181.204 55.3732 181.204Z" fill="#E6F0FD"/>
<path d="M15.0978 181.198C13.7629 181.198 12.4826 180.668 11.5387 179.724C10.5947 178.78 10.0645 177.5 10.0645 176.165V166.098C10.0645 164.763 10.5947 163.483 11.5387 162.539C12.4826 161.595 13.7629 161.065 15.0978 161.065C16.4327 161.065 17.713 161.595 18.6569 162.539C19.6008 163.483 20.1311 164.763 20.1311 166.098V176.165C20.1311 177.5 19.6008 178.78 18.6569 179.724C17.713 180.668 16.4327 181.198 15.0978 181.198Z" fill="#E6F0FD"/>
<path d="M35.2267 181.203C33.8918 181.203 32.6115 180.673 31.6676 179.729C30.7237 178.785 30.1934 177.505 30.1934 176.17V145.97C30.1934 144.635 30.7237 143.355 31.6676 142.411C32.6115 141.467 33.8918 140.937 35.2267 140.937C36.5616 140.937 37.8419 141.467 38.7858 142.411C39.7297 143.355 40.26 144.635 40.26 145.97V176.17C40.26 177.505 39.7297 178.785 38.7858 179.729C37.8419 180.673 36.5616 181.203 35.2267 181.203Z" fill="#E6F0FD"/>
<path d="M10.0623 145.972C9.40216 145.98 8.74766 145.85 8.14086 145.59C7.53406 145.33 6.98839 144.946 6.53896 144.462C6.05746 144.01 5.6737 143.465 5.41136 142.859C5.14902 142.253 5.01367 141.599 5.01367 140.939C5.01367 140.279 5.14902 139.625 5.41136 139.019C5.6737 138.413 6.05746 137.868 6.53896 137.416L46.8056 97.149C47.2575 96.6675 47.8033 96.2837 48.4093 96.0214C49.0153 95.759 49.6686 95.6237 50.329 95.6237C50.9893 95.6237 51.6426 95.759 52.2486 96.0214C52.8546 96.2837 53.4004 96.6675 53.8523 97.149L70.4623 113.658L122.306 61.9156C122.758 61.4341 123.303 61.0504 123.909 60.788C124.515 60.5257 125.169 60.3903 125.829 60.3903C126.489 60.3903 127.143 60.5257 127.749 60.788C128.355 61.0504 128.9 61.4341 129.352 61.9156L150.996 83.4583L197.806 36.749C198.74 35.8145 200.007 35.2896 201.329 35.2896C202.65 35.2896 203.918 35.8145 204.852 36.749C205.787 37.6834 206.312 38.9508 206.312 40.2723C206.312 41.5938 205.787 42.8612 204.852 43.7956L154.519 94.129C154.067 94.6105 153.521 94.9942 152.915 95.2566C152.309 95.5189 151.656 95.6543 150.996 95.6543C150.335 95.6543 149.682 95.5189 149.076 95.2566C148.47 94.9942 147.924 94.6105 147.472 94.129L125.829 72.5863L73.9856 124.329C73.5337 124.81 72.988 125.194 72.382 125.457C71.776 125.719 71.1226 125.854 70.4623 125.854C69.802 125.854 69.1486 125.719 68.5426 125.457C67.9366 125.194 67.3909 124.81 66.939 124.329L50.329 107.82L13.5856 144.462C13.1362 144.946 12.5905 145.33 11.9837 145.59C11.3769 145.85 10.7224 145.98 10.0623 145.972Z" fill="#E6F0FD"/>
<path d="M201.33 80.5385H200.726C199.398 80.3623 198.192 79.6742 197.365 78.621C196.537 77.5678 196.154 76.2329 196.297 74.9012L200.525 41.0772L166.701 45.3052C165.366 45.4654 164.022 45.0887 162.965 44.258C161.908 43.4274 161.224 42.2107 161.063 40.8758C160.903 39.5409 161.28 38.197 162.111 37.1398C162.941 36.0826 164.158 35.3987 165.493 35.2385L205.759 30.2052C206.517 30.1207 207.284 30.2131 208.001 30.4751C208.717 30.7371 209.362 31.1616 209.887 31.7152C210.447 32.2348 210.876 32.8798 211.138 33.5972C211.401 34.3147 211.489 35.0841 211.397 35.8425L206.363 76.1092C206.195 77.3282 205.594 78.4459 204.67 79.2589C203.746 80.0719 202.561 80.526 201.33 80.5385V80.5385Z" fill="#E6F0FD"/>
<path d="M186.233 211.397H5.03333C3.69841 211.397 2.41816 210.867 1.47423 209.923C0.530296 208.979 0 207.699 0 206.364C0 205.029 0.530296 203.749 1.47423 202.805C2.41816 201.861 3.69841 201.331 5.03333 201.331H186.233C187.568 201.331 188.849 201.861 189.792 202.805C190.736 203.749 191.267 205.029 191.267 206.364C191.267 207.699 190.736 208.979 189.792 209.923C188.849 210.867 187.568 211.397 186.233 211.397Z" fill="#E6F0FD"/>
<path d="M246.629 166.1C245.294 166.1 244.014 165.57 243.07 164.626C242.126 163.682 241.596 162.402 241.596 161.067V15.1C241.596 13.7651 241.065 12.4848 240.121 11.5409C239.177 10.597 237.897 10.0667 236.562 10.0667H25.1622C23.8273 10.0667 22.5471 9.53637 21.6031 8.59244C20.6592 7.64851 20.1289 6.36826 20.1289 5.03333C20.1289 3.69841 20.6592 2.41816 21.6031 1.47423C22.5471 0.530296 23.8273 0 25.1622 0L236.562 0C240.567 0 244.408 1.59089 247.24 4.42269C250.071 7.25449 251.662 11.0952 251.662 15.1V161.067C251.662 162.402 251.132 163.682 250.188 164.626C249.244 165.57 247.964 166.1 246.629 166.1Z" fill="#E6F0FD"/>
<path d="M217.446 248.753C216.748 248.758 216.056 248.617 215.414 248.34C214.773 248.063 214.197 247.655 213.722 247.143C207.974 240.783 204.407 232.755 203.538 224.227C202.669 215.699 204.544 207.117 208.89 199.729C209.579 198.603 210.682 197.793 211.962 197.473C213.243 197.152 214.597 197.348 215.735 198.017C216.311 198.34 216.816 198.776 217.22 199.298C217.625 199.82 217.92 200.418 218.089 201.056C218.258 201.695 218.297 202.361 218.204 203.015C218.111 203.668 217.888 204.297 217.547 204.863C214.333 210.432 212.981 216.882 213.687 223.274C214.393 229.665 217.121 235.664 221.473 240.398C222.114 241.128 222.531 242.028 222.672 242.989C222.813 243.95 222.673 244.932 222.268 245.815C221.864 246.699 221.212 247.446 220.392 247.968C219.573 248.489 218.619 248.762 217.648 248.753H217.446Z" fill="#E6F0FD"/>
<path d="M213.206 207.376C212.548 207.373 211.897 207.237 211.292 206.978C210.687 206.718 210.14 206.34 209.683 205.866L186.227 182.411C183.032 179.485 180.485 175.922 178.751 171.951C177.017 167.981 176.135 163.691 176.161 159.358C177.136 148.457 182.122 138.306 190.153 130.87C191.084 130.006 192.307 129.527 193.576 129.527C194.845 129.527 196.068 130.006 196.999 130.87L255.184 187.243C255.66 187.706 256.04 188.258 256.303 188.867C256.565 189.477 256.705 190.132 256.715 190.796C256.724 191.46 256.603 192.119 256.357 192.735C256.112 193.352 255.747 193.914 255.285 194.39C254.822 194.866 254.27 195.246 253.661 195.509C253.051 195.772 252.396 195.912 251.732 195.921C251.068 195.93 250.409 195.809 249.792 195.564C249.176 195.318 248.613 194.954 248.137 194.491L193.777 141.641C189.457 146.565 186.814 152.734 186.227 159.258C186.242 162.217 186.888 165.139 188.12 167.829C189.352 170.52 191.144 172.917 193.375 174.861L216.83 198.316C217.759 199.274 218.278 200.556 218.278 201.89C218.278 203.224 217.759 204.506 216.83 205.464C216.39 206.014 215.841 206.468 215.217 206.797C214.594 207.126 213.909 207.323 213.206 207.376V207.376Z" fill="#E6F0FD"/>
<path d="M201.324 261.731C201.314 260.751 201.025 259.795 200.49 258.974C199.955 258.154 199.196 257.504 198.304 257.1C191.948 254.122 186.353 249.738 181.94 244.279C177.528 238.82 174.415 232.43 172.835 225.592C172.67 224.931 172.376 224.309 171.97 223.761C171.565 223.214 171.055 222.752 170.471 222.401C169.887 222.05 169.239 221.818 168.565 221.718C167.891 221.618 167.204 221.651 166.543 221.817C165.882 221.982 165.26 222.276 164.713 222.681C164.165 223.087 163.703 223.596 163.353 224.181C163.002 224.765 162.77 225.412 162.67 226.086C162.57 226.76 162.603 227.447 162.768 228.108C164.683 235.897 168.207 243.199 173.114 249.545C178.02 255.89 184.2 261.139 191.257 264.952V281.864H201.324V261.731Z" fill="#E6F0FD"/>
<path d="M291.931 185.628C291.639 177.936 288.645 170.593 283.475 164.891L246.631 127.241V141.637L276.227 171.837C279.561 175.695 281.541 180.539 281.864 185.628V281.865H291.931V185.628Z" fill="#E6F0FD"/>
<path d="M302 296.967C302 298.301 301.469 299.582 300.526 300.526C299.582 301.47 298.301 302 296.966 302C295.632 302 294.351 301.47 293.407 300.526C292.463 299.582 291.933 298.301 291.933 296.967V281.867H181.2V296.967C181.2 298.301 180.669 299.582 179.726 300.526C178.782 301.47 177.501 302 176.166 302C174.832 302 173.551 301.47 172.607 300.526C171.663 299.582 171.133 298.301 171.133 296.967V276.833C171.106 276.182 171.211 275.532 171.441 274.922C171.672 274.312 172.024 273.756 172.475 273.286C172.927 272.815 173.469 272.441 174.068 272.186C174.668 271.931 175.313 271.799 175.965 271.8H296.765C297.439 271.786 298.11 271.906 298.738 272.152C299.366 272.398 299.939 272.765 300.425 273.232C300.911 273.699 301.301 274.258 301.571 274.876C301.841 275.494 301.987 276.159 302 276.833V296.967Z" fill="#E6F0FD"/>
<path d="M5.03333 10.0667C7.81317 10.0667 10.0667 7.81317 10.0667 5.03333C10.0667 2.2535 7.81317 0 5.03333 0C2.2535 0 0 2.2535 0 5.03333C0 7.81317 2.2535 10.0667 5.03333 10.0667Z" fill="#E6F0FD"/>
<path d="M226.502 120.797C225.167 120.797 223.887 120.267 222.943 119.323C221.999 118.379 221.469 117.099 221.469 115.764V95.6305C221.469 94.2956 221.999 93.0153 222.943 92.0714C223.887 91.1275 225.167 90.5972 226.502 90.5972C227.837 90.5972 229.117 91.1275 230.061 92.0714C231.005 93.0153 231.535 94.2956 231.535 95.6305V115.764C231.535 117.099 231.005 118.379 230.061 119.323C229.117 120.267 227.837 120.797 226.502 120.797Z" fill="#E6F0FD"/>
</svg>
