<svg width="77" height="70" viewBox="0 0 77 70" fill="none" xmlns="http://www.w3.org/2000/svg">
<path d="M65.8501 50.3751C63.9254 50.3749 62.0418 49.8193 60.4251 48.7751L60.1251 48.6001C59.847 48.4207 59.6513 48.1384 59.581 47.8151C59.5107 47.4917 59.5715 47.1537 59.7501 46.8751C59.8365 46.7347 59.9504 46.6133 60.0849 46.518C60.2194 46.4227 60.3717 46.3556 60.5328 46.3206C60.6939 46.2856 60.8603 46.2834 61.0222 46.3143C61.1841 46.3451 61.3382 46.4083 61.4751 46.5001L61.7751 46.6751C62.9894 47.4594 64.4045 47.8761 65.8501 47.8751C66.8596 47.8931 67.8628 47.7122 68.8024 47.3425C69.742 46.9729 70.5996 46.4217 71.3262 45.7207C72.0528 45.0196 72.6343 44.1823 73.0373 43.2565C73.4403 42.3307 73.657 41.3346 73.6751 40.3251C73.6931 39.3155 73.5122 38.3123 73.1425 37.3727C72.7729 36.4331 72.2218 35.5755 71.5207 34.8489C70.8196 34.1223 69.9823 33.5409 69.0565 33.1379C68.1307 32.7348 67.1346 32.5181 66.1251 32.5001H65.1501C64.9517 32.4944 64.7575 32.4415 64.5836 32.3458C64.4097 32.2502 64.2611 32.1145 64.1501 31.9501C64.0381 31.7826 63.9683 31.5906 63.9465 31.3904C63.9248 31.1902 63.9517 30.9876 64.0251 30.8001L64.3751 29.9001C65.164 27.913 65.4537 25.7628 65.2187 23.6378C64.9837 21.5128 64.2312 19.4779 63.0271 17.7112C61.8231 15.9446 60.2041 14.5001 58.3122 13.5045C56.4202 12.5088 54.313 11.9922 52.1751 12.0001C50.1341 12 48.1217 12.4795 46.3001 13.4001L45.6501 13.7501C45.4936 13.8287 45.3225 13.8743 45.1476 13.8839C44.9727 13.8936 44.7977 13.8671 44.6335 13.8061C44.4694 13.7451 44.3195 13.6509 44.1933 13.5295C44.0671 13.408 43.9673 13.2618 43.9001 13.1001L43.6251 12.5001C42.4669 9.54669 40.4439 7.01189 37.821 5.22757C35.198 3.44325 32.0974 2.49259 28.9251 2.50006C27.3401 2.4922 25.7633 2.7283 24.2501 3.20006C23.9483 3.31437 23.6135 3.30497 23.3186 3.1739C23.0237 3.04283 22.7925 2.80068 22.6751 2.50006C22.6087 2.33666 22.5777 2.16108 22.5841 1.98485C22.5904 1.80862 22.634 1.63572 22.7119 1.47752C22.7898 1.31932 22.9003 1.1794 23.0362 1.06695C23.172 0.9545 23.3301 0.872064 23.5001 0.825059C25.2559 0.275567 27.0853 -0.00263872 28.9251 5.86748e-05C32.4907 -0.00897484 35.9811 1.02527 38.9662 2.97537C41.9513 4.92547 44.3008 7.70623 45.7251 10.9751C48.4951 9.71117 51.5745 9.28555 54.5836 9.75066C57.5926 10.2158 60.3998 11.5513 62.659 13.5925C64.9182 15.6338 66.5307 18.2915 67.2976 21.2382C68.0645 24.1848 67.9524 27.2914 66.9751 30.1751C69.5724 30.432 71.9702 31.682 73.668 33.6643C75.3659 35.6466 76.2327 38.2079 76.0876 40.8139C75.9424 43.4199 74.7966 45.8691 72.8891 47.6506C70.9816 49.4321 68.4599 50.4081 65.8501 50.3751Z" fill="#1C55E9"/>
<path d="M13.875 50.3751C10.6432 50.3775 7.52877 49.1644 5.15005 46.9767C2.77133 44.7891 1.30232 41.7868 1.03472 38.5662C0.767118 35.3456 1.7205 32.142 3.70555 29.5918C5.69061 27.0416 8.56214 25.3311 11.75 24.8001C10.6973 22 10.3452 18.985 10.7243 16.0176C11.1034 13.0503 12.2022 10.2206 13.925 7.77509C14.1172 7.49993 14.411 7.31242 14.7415 7.25382C15.072 7.19521 15.4123 7.27031 15.6875 7.46259C15.9626 7.65488 16.1501 7.94859 16.2087 8.27912C16.2673 8.60966 16.1922 8.94993 16 9.22509C14.4459 11.4243 13.4787 13.9837 13.19 16.661C12.9012 19.3384 13.3005 22.0451 14.35 24.5251L14.7 25.3501C14.7745 25.5316 14.8062 25.728 14.7924 25.9238C14.7787 26.1195 14.7199 26.3095 14.6207 26.4789C14.5215 26.6482 14.3846 26.7924 14.2205 26.9001C14.0565 27.0079 13.8698 27.0763 13.675 27.1001H12.775C10.1597 27.4149 7.76204 28.7128 6.06845 30.7303C4.37486 32.7479 3.51212 35.3342 3.65524 37.9644C3.79837 40.5947 4.93663 43.0721 6.83914 44.894C8.74165 46.7159 11.2659 47.7459 13.9 47.7751C14.5375 47.78 15.174 47.7214 15.8 47.6001C16.1247 47.5417 16.4594 47.614 16.731 47.8013C17.0026 47.9886 17.1892 48.2758 17.25 48.6001C17.2826 48.7594 17.2832 48.9237 17.2517 49.0833C17.2202 49.2428 17.1572 49.3945 17.0664 49.5295C16.9757 49.6645 16.859 49.78 16.7231 49.8694C16.5872 49.9588 16.4348 50.0202 16.275 50.0501C15.4874 50.2359 14.6836 50.3447 13.875 50.3751Z" fill="#1C55E9"/>
<path d="M39.2248 70.0001C33.6248 70.0001 27.9998 69.5251 24.4998 66.1251C23.2624 64.787 22.3132 63.2089 21.7111 61.4886C21.109 59.7684 20.8669 57.9428 20.9998 56.1251V42.5001H17.2498C17.0275 42.5032 16.8083 42.4469 16.6149 42.337C16.4216 42.2272 16.261 42.0677 16.1498 41.8751C16.0448 41.6835 15.9897 41.4686 15.9897 41.2501C15.9897 41.0316 16.0448 40.8167 16.1498 40.6251L23.6498 28.1251C23.7651 27.9444 23.924 27.7957 24.1118 27.6927C24.2997 27.5897 24.5106 27.5356 24.7248 27.5356C24.9391 27.5356 25.15 27.5897 25.3378 27.6927C25.5257 27.7957 25.6846 27.9444 25.7998 28.1251L33.2998 40.6251C33.4137 40.8171 33.4751 41.0356 33.478 41.2588C33.4809 41.482 33.4251 41.702 33.3163 41.8969C33.2074 42.0918 33.0494 42.2547 32.8578 42.3693C32.6663 42.4839 32.448 42.5463 32.2248 42.5501H27.2248C27.0574 42.5468 26.8922 42.5106 26.7388 42.4435C26.5853 42.3764 26.4466 42.2798 26.3305 42.159C26.2145 42.0383 26.1233 41.8959 26.0623 41.7399C26.0012 41.584 25.9715 41.4175 25.9748 41.2501C25.9747 41.0882 26.0073 40.928 26.0707 40.779C26.1341 40.6301 26.227 40.4955 26.3438 40.3834C26.4606 40.2713 26.5988 40.1839 26.7503 40.1267C26.9017 40.0694 27.0631 40.0433 27.2248 40.0501H30.0248L24.7498 31.1251L19.4498 40.0001H22.2498C22.4116 39.9933 22.573 40.0194 22.7244 40.0767C22.8758 40.1339 23.0141 40.2213 23.1309 40.3334C23.2477 40.4455 23.3406 40.5801 23.404 40.729C23.4674 40.878 23.5 41.0382 23.4998 41.2001V56.2001C23.376 57.6706 23.5562 59.1509 24.0293 60.5487C24.5025 61.9466 25.2583 63.2321 26.2498 64.3251C29.8498 67.8501 36.6748 67.6751 43.2748 67.5001C44.6248 67.5001 43.4748 67.5001 44.7498 67.5001C45.0814 67.5001 45.3993 67.6318 45.6337 67.8662C45.8682 68.1006 45.9998 68.4186 45.9998 68.7501C45.9998 69.0816 45.8682 69.3995 45.6337 69.634C45.3993 69.8684 45.0814 70.0001 44.7498 70.0001H39.2248Z" fill="#1C55E9"/>
<path d="M52.2501 70C52.0343 70.0013 51.822 69.9467 51.6336 69.8415C51.4452 69.7364 51.2872 69.5843 51.1751 69.4L43.6751 56.9C43.57 56.7039 43.5151 56.4849 43.5151 56.2625C43.5151 56.0401 43.57 55.8211 43.6751 55.625C43.7878 55.4393 43.9452 55.2848 44.133 55.1756C44.3208 55.0665 44.5329 55.0061 44.7501 55H49.7501C50.0816 55 50.3995 55.1317 50.6339 55.3661C50.8684 55.6005 51.0001 55.9185 51.0001 56.25C51.0001 56.5815 50.8684 56.8995 50.6339 57.1339C50.3995 57.3683 50.0816 57.5 49.7501 57.5H46.9501L52.2501 66.325L57.5501 57.5H54.7501C54.4185 57.5 54.1006 57.3683 53.8662 57.1339C53.6318 56.8995 53.5001 56.5815 53.5001 56.25V41.25C53.6338 39.8329 53.4814 38.4033 53.0519 37.0463C52.6225 35.6892 51.9247 34.4322 51.0001 33.35C47.6001 30 41.2501 30 35.1501 30H32.2001C32.0359 29.9936 31.8746 29.9548 31.7253 29.886C31.5761 29.8171 31.442 29.7196 31.3305 29.5988C31.2191 29.4781 31.1325 29.3365 31.0758 29.1823C31.0191 29.0281 30.9934 28.8642 31.0001 28.7C31.0253 28.3728 31.1733 28.0673 31.4144 27.8448C31.6556 27.6222 31.9719 27.499 32.3001 27.5C34.0251 27.5 33.3251 27.5 35.1501 27.5C41.8001 27.5 48.6251 27.5 52.6501 31.575C53.8318 32.8785 54.7378 34.4076 55.3135 36.0703C55.8892 37.7329 56.1227 39.4948 56.0001 41.25V55H59.7501C59.9715 55.0019 60.1887 55.0603 60.3812 55.1697C60.5737 55.279 60.7351 55.4358 60.8501 55.625C60.9551 55.8211 61.0101 56.0401 61.0101 56.2625C61.0101 56.4849 60.9551 56.7039 60.8501 56.9L53.3501 69.4C53.2357 69.588 53.0738 69.7424 52.8807 69.8478C52.6875 69.9531 52.47 70.0056 52.2501 70Z" fill="#1C55E9"/>
<path d="M27.25 55C26.9185 55 26.6005 54.8683 26.3661 54.6339C26.1317 54.3995 26 54.0815 26 53.75V41.25C26 40.9185 26.1317 40.6005 26.3661 40.3661C26.6005 40.1317 26.9185 40 27.25 40C27.5815 40 27.8995 40.1317 28.1339 40.3661C28.3683 40.6005 28.5 40.9185 28.5 41.25V53.75C28.5 54.0815 28.3683 54.3995 28.1339 54.6339C27.8995 54.8683 27.5815 55 27.25 55Z" fill="#1C55E9"/>
<path d="M49.75 57.5C49.4185 57.5 49.1005 57.3683 48.8661 57.1339C48.6317 56.8995 48.5 56.5815 48.5 56.25V43.75C48.5 43.4185 48.6317 43.1005 48.8661 42.8661C49.1005 42.6317 49.4185 42.5 49.75 42.5C50.0815 42.5 50.3995 42.6317 50.6339 42.8661C50.8683 43.1005 51 43.4185 51 43.75V56.25C51 56.5815 50.8683 56.8995 50.6339 57.1339C50.3995 57.3683 50.0815 57.5 49.75 57.5Z" fill="#1C55E9"/>
<path d="M27.25 60C27.9404 60 28.5 59.4404 28.5 58.75C28.5 58.0596 27.9404 57.5 27.25 57.5C26.5596 57.5 26 58.0596 26 58.75C26 59.4404 26.5596 60 27.25 60Z" fill="#1C55E9"/>
<path d="M49.75 40C50.4404 40 51 39.4404 51 38.75C51 38.0596 50.4404 37.5 49.75 37.5C49.0596 37.5 48.5 38.0596 48.5 38.75C48.5 39.4404 49.0596 40 49.75 40Z" fill="#1C55E9"/>
<path d="M19.75 5C20.4404 5 21 4.44036 21 3.75C21 3.05964 20.4404 2.5 19.75 2.5C19.0596 2.5 18.5 3.05964 18.5 3.75C18.5 4.44036 19.0596 5 19.75 5Z" fill="#1C55E9"/>
</svg>
