<svg width="70" height="70" viewBox="0 0 70 70" fill="none" xmlns="http://www.w3.org/2000/svg">
<path d="M36.1667 42C35.8572 42 35.5605 41.877 35.3417 41.6583C35.1229 41.4395 35 41.1427 35 40.8333V26.8333C35 26.5239 35.1229 26.2271 35.3417 26.0083C35.5605 25.7895 35.8572 25.6666 36.1667 25.6666C36.4761 25.6666 36.7728 25.7895 36.9916 26.0083C37.2104 26.2271 37.3333 26.5239 37.3333 26.8333V40.8333C37.3333 41.1427 37.2104 41.4395 36.9916 41.6583C36.7728 41.877 36.4761 42 36.1667 42Z" fill="#1C55E9"/>
<path d="M31.5002 42C31.1907 42 30.894 41.8771 30.6752 41.6583C30.4564 41.4395 30.3335 41.1428 30.3335 40.8334V24.5C30.3335 24.1906 30.4564 23.8939 30.6752 23.6751C30.894 23.4563 31.1907 23.3334 31.5002 23.3334C31.8096 23.3334 32.1063 23.4563 32.3251 23.6751C32.5439 23.8939 32.6668 24.1906 32.6668 24.5V40.8334C32.6668 41.1428 32.5439 41.4395 32.3251 41.6583C32.1063 41.8771 31.8096 42 31.5002 42Z" fill="#1C55E9"/>
<path d="M26.8332 42C26.5238 42 26.227 41.8771 26.0082 41.6583C25.7894 41.4395 25.6665 41.1428 25.6665 40.8333V25.6667C25.6665 25.3572 25.7894 25.0605 26.0082 24.8417C26.227 24.6229 26.5238 24.5 26.8332 24.5C27.1426 24.5 27.4393 24.6229 27.6581 24.8417C27.8769 25.0605 27.9998 25.3572 27.9998 25.6667V40.8333C27.9998 41.1428 27.8769 41.4395 27.6581 41.6583C27.4393 41.8771 27.1426 42 26.8332 42Z" fill="#1C55E9"/>
<path d="M22.1667 42C21.8572 42 21.5605 41.8771 21.3417 41.6583C21.1229 41.4395 21 41.1428 21 40.8334V31.5C21 31.1906 21.1229 30.8939 21.3417 30.6751C21.5605 30.4563 21.8572 30.3334 22.1667 30.3334C22.4761 30.3334 22.7728 30.4563 22.9916 30.6751C23.2104 30.8939 23.3333 31.1906 23.3333 31.5V40.8334C23.3333 41.1428 23.2104 41.4395 22.9916 41.6583C22.7728 41.8771 22.4761 42 22.1667 42Z" fill="#1C55E9"/>
<path d="M17.5002 42C17.1907 42 16.894 41.877 16.6752 41.6583C16.4564 41.4395 16.3335 41.1427 16.3335 40.8333V33.8333C16.3335 33.5239 16.4564 33.2271 16.6752 33.0083C16.894 32.7895 17.1907 32.6666 17.5002 32.6666C17.8096 32.6666 18.1063 32.7895 18.3251 33.0083C18.5439 33.2271 18.6668 33.5239 18.6668 33.8333V40.8333C18.6668 41.1427 18.5439 41.4395 18.3251 41.6583C18.1063 41.877 17.8096 42 17.5002 42Z" fill="#1C55E9"/>
<path d="M12.8332 42C12.5238 42 12.227 41.8771 12.0082 41.6583C11.7894 41.4395 11.6665 41.1428 11.6665 40.8333V32.6667C11.6665 32.3572 11.7894 32.0605 12.0082 31.8417C12.227 31.6229 12.5238 31.5 12.8332 31.5C13.1426 31.5 13.4393 31.6229 13.6581 31.8417C13.8769 32.0605 13.9998 32.3572 13.9998 32.6667V40.8333C13.9998 41.1428 13.8769 41.4395 13.6581 41.6583C13.4393 41.8771 13.1426 42 12.8332 42Z" fill="#1C55E9"/>
<path d="M3.50016 42C3.19074 42 2.894 41.8771 2.6752 41.6583C2.45641 41.4395 2.3335 41.1428 2.3335 40.8334V38.5C2.3335 38.1906 2.45641 37.8939 2.6752 37.6751C2.894 37.4563 3.19074 37.3334 3.50016 37.3334C3.80958 37.3334 4.10633 37.4563 4.32512 37.6751C4.54391 37.8939 4.66683 38.1906 4.66683 38.5V40.8334C4.66683 41.1428 4.54391 41.4395 4.32512 41.6583C4.10633 41.8771 3.80958 42 3.50016 42Z" fill="#1C55E9"/>
<path d="M8.16667 42C7.85725 42 7.5605 41.877 7.34171 41.6583C7.12292 41.4395 7 41.1427 7 40.8333V33.8333C7 33.5239 7.12292 33.2271 7.34171 33.0083C7.5605 32.7895 7.85725 32.6666 8.16667 32.6666C8.47609 32.6666 8.77283 32.7895 8.99162 33.0083C9.21042 33.2271 9.33333 33.5239 9.33333 33.8333V40.8333C9.33333 41.1427 9.21042 41.4395 8.99162 41.6583C8.77283 41.877 8.47609 42 8.16667 42Z" fill="#1C55E9"/>
<path d="M2.3333 33.8335C2.18029 33.8354 2.02858 33.8052 1.88793 33.7449C1.74728 33.6847 1.6208 33.5956 1.51663 33.4835C1.40502 33.3788 1.31607 33.2523 1.25527 33.1118C1.19446 32.9714 1.16309 32.8199 1.16309 32.6669C1.16309 32.5138 1.19446 32.3624 1.25527 32.2219C1.31607 32.0814 1.40502 31.9549 1.51663 31.8502L10.85 22.5169C10.9547 22.4053 11.0812 22.3163 11.2217 22.2555C11.3621 22.1947 11.5136 22.1633 11.6666 22.1633C11.8197 22.1633 11.9711 22.1947 12.1116 22.2555C12.252 22.3163 12.3786 22.4053 12.4833 22.5169L16.3333 26.3435L28.35 14.3502C28.4547 14.2386 28.5812 14.1496 28.7217 14.0888C28.8621 14.028 29.0136 13.9967 29.1666 13.9967C29.3197 13.9967 29.4711 14.028 29.6116 14.0888C29.752 14.1496 29.8786 14.2386 29.9833 14.3502L35 19.3435L45.85 8.51686C46.0666 8.30027 46.3603 8.17859 46.6666 8.17859C46.9729 8.17859 47.2667 8.30027 47.4833 8.51686C47.6999 8.73346 47.8216 9.02722 47.8216 9.33353C47.8216 9.63984 47.6999 9.9336 47.4833 10.1502L35.8166 21.8169C35.7119 21.9285 35.5854 22.0174 35.4449 22.0782C35.3045 22.139 35.153 22.1704 35 22.1704C34.8469 22.1704 34.6955 22.139 34.555 22.0782C34.4145 22.0174 34.288 21.9285 34.1833 21.8169L29.1666 16.8235L17.15 28.8169C17.0452 28.9285 16.9187 29.0174 16.7783 29.0782C16.6378 29.139 16.4864 29.1704 16.3333 29.1704C16.1802 29.1704 16.0288 29.139 15.8883 29.0782C15.7479 29.0174 15.6214 28.9285 15.5166 28.8169L11.6666 24.9902L3.14996 33.4835C3.04579 33.5956 2.91931 33.6847 2.77866 33.7449C2.63801 33.8052 2.48631 33.8354 2.3333 33.8335Z" fill="#1C55E9"/>
<path d="M46.6664 18.6669H46.5264C46.2187 18.626 45.939 18.4665 45.7472 18.2224C45.5554 17.9783 45.4666 17.6689 45.4997 17.3602L46.4797 9.5202L38.6397 10.5002C38.3303 10.5373 38.0188 10.45 37.7738 10.2575C37.5287 10.0649 37.3702 9.78295 37.3331 9.47353C37.296 9.16411 37.3833 8.85262 37.5758 8.60757C37.7683 8.36252 38.0503 8.204 38.3597 8.16687L47.6931 7.0002C47.8687 6.98062 48.0466 7.00204 48.2125 7.06277C48.3785 7.1235 48.5282 7.22188 48.6497 7.3502C48.7796 7.47064 48.879 7.62014 48.9398 7.78644C49.0006 7.95274 49.0212 8.13109 48.9997 8.30687L47.8331 17.6402C47.7939 17.9227 47.6546 18.1818 47.4405 18.3703C47.2263 18.5587 46.9516 18.664 46.6664 18.6669Z" fill="#1C55E9"/>
<path d="M43.1667 49H1.16667C0.857247 49 0.560501 48.877 0.341709 48.6583C0.122916 48.4395 0 48.1427 0 47.8333C0 47.5239 0.122916 47.2271 0.341709 47.0083C0.560501 46.7895 0.857247 46.6666 1.16667 46.6666H43.1667C43.4761 46.6666 43.7728 46.7895 43.9916 47.0083C44.2104 47.2271 44.3333 47.5239 44.3333 47.8333C44.3333 48.1427 44.2104 48.4395 43.9916 48.6583C43.7728 48.877 43.4761 49 43.1667 49Z" fill="#1C55E9"/>
<path d="M57.1665 38.5C56.8571 38.5 56.5603 38.3771 56.3415 38.1583C56.1228 37.9395 55.9998 37.6427 55.9998 37.3333V3.5C55.9998 3.19058 55.8769 2.89383 55.6581 2.67504C55.4393 2.45625 55.1426 2.33333 54.8332 2.33333H5.83317C5.52375 2.33333 5.22701 2.21042 5.00821 1.99162C4.78942 1.77283 4.6665 1.47609 4.6665 1.16667C4.6665 0.857247 4.78942 0.560501 5.00821 0.341709C5.22701 0.122916 5.52375 0 5.83317 0L54.8332 0C55.7614 0 56.6517 0.368749 57.308 1.02513C57.9644 1.6815 58.3332 2.57174 58.3332 3.5V37.3333C58.3332 37.6427 58.2103 37.9395 57.9915 38.1583C57.7727 38.3771 57.4759 38.5 57.1665 38.5Z" fill="#1C55E9"/>
<path d="M50.3999 57.6569C50.238 57.658 50.0776 57.6254 49.929 57.5611C49.7803 57.4968 49.6467 57.4023 49.5366 57.2836C48.2044 55.8095 47.3775 53.9487 47.176 51.9721C46.9746 49.9955 47.4092 48.0061 48.4166 46.2936C48.5762 46.0327 48.832 45.8449 49.1288 45.7707C49.4255 45.6965 49.7396 45.7418 50.0032 45.8969C50.1367 45.9718 50.2538 46.0728 50.3476 46.1938C50.4413 46.3148 50.5098 46.4534 50.5489 46.6014C50.5881 46.7494 50.5972 46.9037 50.5756 47.0552C50.554 47.2068 50.5022 47.3524 50.4232 47.4836C49.6783 48.7745 49.3648 50.2696 49.5285 51.751C49.6921 53.2325 50.3244 54.6231 51.3332 55.7202C51.4819 55.8894 51.5784 56.098 51.6111 56.3208C51.6438 56.5437 51.6113 56.7712 51.5176 56.976C51.4238 57.1807 51.2728 57.354 51.0828 57.4748C50.8927 57.5956 50.6718 57.6589 50.4466 57.6569H50.3999Z" fill="#1C55E9"/>
<path d="M49.4203 48.0669C49.2677 48.066 49.1168 48.0346 48.9766 47.9745C48.8363 47.9144 48.7095 47.8268 48.6036 47.7169L43.167 42.2803C42.4263 41.6021 41.836 40.7762 41.4341 39.8559C41.0322 38.9355 40.8276 37.9412 40.8336 36.9369C41.0597 34.4101 42.2154 32.0571 44.077 30.3336C44.2927 30.1335 44.5761 30.0223 44.8703 30.0223C45.1645 30.0223 45.4479 30.1335 45.6636 30.3336L59.1503 43.4003C59.2606 43.5075 59.3487 43.6354 59.4096 43.7767C59.4705 43.918 59.5029 44.0699 59.5051 44.2238C59.5072 44.3776 59.4791 44.5304 59.4222 44.6733C59.3653 44.8163 59.2809 44.9466 59.1736 45.0569C59.0664 45.1672 58.9385 45.2553 58.7972 45.3162C58.6559 45.3771 58.504 45.4095 58.3501 45.4117C58.1963 45.4139 58.0435 45.3857 57.9006 45.3288C57.7576 45.272 57.6273 45.1875 57.517 45.0803L44.917 32.8303C43.9156 33.9715 43.3028 35.4014 43.167 36.9136C43.1705 37.5995 43.32 38.2768 43.6057 38.9004C43.8913 39.524 44.3065 40.0796 44.8236 40.5303L50.2603 45.9669C50.4755 46.1889 50.5959 46.486 50.5959 46.7953C50.5959 47.1045 50.4755 47.4016 50.2603 47.6236C50.1582 47.7512 50.031 47.8564 49.8864 47.9327C49.7419 48.009 49.5832 48.0547 49.4203 48.0669Z" fill="#1C55E9"/>
<path d="M46.6664 60.6665C46.6643 60.4394 46.5973 60.2177 46.4732 60.0275C46.3492 59.8374 46.1733 59.6866 45.9664 59.5931C44.4933 58.9028 43.1963 57.8866 42.1736 56.6214C41.1509 55.3561 40.4292 53.875 40.0631 52.2898C40.0248 52.1366 39.9567 51.9924 39.8627 51.8656C39.7686 51.7387 39.6506 51.6315 39.5151 51.5503C39.3797 51.469 39.2296 51.4152 39.0734 51.392C38.9172 51.3688 38.758 51.3765 38.6048 51.4148C38.4515 51.4531 38.3074 51.5212 38.1805 51.6152C38.0536 51.7093 37.9465 51.8273 37.8652 51.9628C37.784 52.0982 37.7302 52.2483 37.7069 52.4045C37.6837 52.5607 37.6915 52.7199 37.7298 52.8731C38.1736 54.6786 38.9905 56.3711 40.1277 57.8419C41.265 59.3127 42.6975 60.5292 44.3331 61.4131V65.3331H46.6664V60.6665Z" fill="#1C55E9"/>
<path d="M67.6665 43.0264C67.599 41.2435 66.9049 39.5415 65.7065 38.2197L57.1665 29.493V32.8297L64.0265 39.8297C64.7994 40.724 65.2583 41.8467 65.3332 43.0264V65.333H67.6665V43.0264Z" fill="#1C55E9"/>
<path d="M69.9998 68.8336C69.9998 69.143 69.8769 69.4397 69.6581 69.6585C69.4393 69.8773 69.1426 70.0002 68.8332 70.0002C68.5237 70.0002 68.227 69.8773 68.0082 69.6585C67.7894 69.4397 67.6665 69.143 67.6665 68.8336V65.3336H41.9998V68.8336C41.9998 69.143 41.8769 69.4397 41.6581 69.6585C41.4393 69.8773 41.1426 70.0002 40.8332 70.0002C40.5237 70.0002 40.227 69.8773 40.0082 69.6585C39.7894 69.4397 39.6665 69.143 39.6665 68.8336V64.1669C39.6602 64.0159 39.6845 63.8653 39.738 63.7239C39.7914 63.5826 39.8729 63.4536 39.9776 63.3446C40.0822 63.2356 40.2078 63.1489 40.3468 63.0897C40.4859 63.0305 40.6354 63.0001 40.7865 63.0002H68.7865C68.9428 62.9971 69.0981 63.0249 69.2437 63.0818C69.3893 63.1388 69.5222 63.2239 69.6349 63.3322C69.7475 63.4405 69.8378 63.57 69.9004 63.7132C69.963 63.8565 69.9968 64.0106 69.9998 64.1669V68.8336Z" fill="#1C55E9"/>
<path d="M1.16667 2.33333C1.811 2.33333 2.33333 1.811 2.33333 1.16667C2.33333 0.522334 1.811 0 1.16667 0C0.522334 0 0 0.522334 0 1.16667C0 1.811 0.522334 2.33333 1.16667 2.33333Z" fill="#1C55E9"/>
<path d="M52.5002 28C52.1907 28 51.894 27.8771 51.6752 27.6583C51.4564 27.4395 51.3335 27.1428 51.3335 26.8333V22.1667C51.3335 21.8572 51.4564 21.5605 51.6752 21.3417C51.894 21.1229 52.1907 21 52.5002 21C52.8096 21 53.1063 21.1229 53.3251 21.3417C53.5439 21.5605 53.6668 21.8572 53.6668 22.1667V26.8333C53.6668 27.1428 53.5439 27.4395 53.3251 27.6583C53.1063 27.8771 52.8096 28 52.5002 28Z" fill="#1C55E9"/>
</svg>
