<svg width="302" height="302" viewBox="0 0 302 302" fill="none" xmlns="http://www.w3.org/2000/svg">
<path d="M261.651 100.628C255.68 100.628 249.843 98.8574 244.878 95.5401C239.914 92.2228 236.044 87.5077 233.759 81.9912C231.474 76.4748 230.876 70.4046 232.041 64.5483C233.206 58.692 236.081 53.3126 240.303 49.0905C244.526 44.8684 249.905 41.993 255.761 40.8282C261.617 39.6633 267.688 40.2611 273.204 42.5461C278.721 44.8311 283.436 48.7007 286.753 53.6654C290.07 58.6301 291.841 64.467 291.841 70.438C291.841 78.4449 288.66 86.1239 282.998 91.7856C277.337 97.4473 269.658 100.628 261.651 100.628ZM261.651 50.3114C257.67 50.3114 253.779 51.4918 250.469 53.7033C247.159 55.9149 244.58 59.0582 243.056 62.7359C241.533 66.4136 241.134 70.4604 241.911 74.3646C242.688 78.2687 244.604 81.855 247.419 84.6697C250.234 87.4845 253.82 89.4014 257.724 90.178C261.629 90.9546 265.675 90.556 269.353 89.0326C273.031 87.5093 276.174 84.9296 278.386 81.6198C280.597 78.31 281.778 74.4187 281.778 70.438C281.778 65.1001 279.657 59.9808 275.883 56.2063C272.108 52.4319 266.989 50.3114 261.651 50.3114Z" fill="#E6F0FD"/>
<path d="M168.563 301.901H167.356C166.063 301.59 164.946 300.781 164.249 299.649C163.551 298.518 163.33 297.157 163.632 295.863L181.746 216.664C182.806 212.282 185.306 208.382 188.846 205.591C192.386 202.799 196.761 201.276 201.269 201.267H241.522V186.172C241.522 184.838 242.052 183.558 242.996 182.614C243.94 181.671 245.22 181.141 246.554 181.141C247.888 181.141 249.168 181.671 250.112 182.614C251.056 183.558 251.586 184.838 251.586 186.172V206.299C251.586 207.633 251.056 208.913 250.112 209.857C249.168 210.8 247.888 211.331 246.554 211.331H201.269C198.97 211.264 196.718 211.986 194.887 213.378C193.056 214.769 191.757 216.746 191.206 218.979L173.092 297.976C172.857 299.029 172.291 299.979 171.475 300.686C170.66 301.393 169.639 301.818 168.563 301.901Z" fill="#E6F0FD"/>
<path d="M187.683 301.893C187.053 302.035 186.4 302.035 185.771 301.893C185.156 301.65 184.596 301.287 184.125 300.824C183.654 300.361 183.28 299.808 183.027 299.198C182.773 298.587 182.645 297.933 182.65 297.272C182.654 296.611 182.792 295.958 183.053 295.352L208.413 234.972C208.791 234.053 209.432 233.266 210.255 232.711C211.079 232.156 212.049 231.857 213.042 231.852H266.68C270.018 231.853 273.322 231.189 276.401 229.899C279.48 228.61 282.272 226.721 284.613 224.342C286.955 221.963 288.799 219.142 290.04 216.043C291.28 212.944 291.891 209.629 291.838 206.291V135.848C291.838 131.844 290.248 128.005 287.417 125.174C284.586 122.343 280.747 120.753 276.743 120.753C271.616 120.772 266.562 121.971 261.972 124.257C257.383 126.543 253.381 129.855 250.277 133.936L221.395 159.799C220.48 160.606 219.294 161.038 218.074 161.006H186.173C184.839 161.006 183.559 161.536 182.615 162.48C181.672 163.424 181.141 164.703 181.141 166.038C181.141 167.372 181.672 168.652 182.615 169.596C183.559 170.539 184.839 171.07 186.173 171.07H221.395C222.611 171.082 223.791 170.653 224.716 169.862C225.725 169.049 227.01 168.657 228.302 168.767C229.594 168.878 230.793 169.483 231.649 170.457C232.506 171.43 232.954 172.696 232.899 173.992C232.845 175.287 232.293 176.511 231.357 177.409C228.589 179.802 225.054 181.123 221.395 181.133H186.173C182.17 181.133 178.33 179.543 175.499 176.712C172.668 173.881 171.078 170.041 171.078 166.038C171.078 162.034 172.668 158.195 175.499 155.364C178.33 152.533 182.17 150.943 186.173 150.943H215.759L243.031 127.093C247.015 121.955 252.128 117.804 257.974 114.959C263.82 112.115 270.242 110.654 276.743 110.69C283.415 110.69 289.815 113.34 294.533 118.058C299.251 122.776 301.901 129.176 301.901 135.848V206.291C301.901 215.633 298.191 224.591 291.585 231.197C284.98 237.802 276.021 241.513 266.68 241.513H216.363L192.312 298.773C191.958 299.708 191.323 300.511 190.493 301.069C189.664 301.628 188.682 301.916 187.683 301.893Z" fill="#E6F0FD"/>
<path d="M221.395 181.139H186.173C182.17 181.139 178.33 179.549 175.499 176.718C172.668 173.887 171.078 170.048 171.078 166.044C171.078 162.041 172.668 158.201 175.499 155.37C178.33 152.54 182.17 150.949 186.173 150.949H217.571C218.905 150.949 220.185 151.479 221.129 152.423C222.072 153.367 222.602 154.646 222.602 155.981C222.602 157.315 222.072 158.595 221.129 159.539C220.185 160.482 218.905 161.013 217.571 161.013H186.173C184.839 161.013 183.559 161.543 182.615 162.486C181.672 163.43 181.141 164.71 181.141 166.044C181.141 167.379 181.672 168.659 182.615 169.602C183.559 170.546 184.839 171.076 186.173 171.076H221.395C222.611 171.088 223.791 170.659 224.716 169.868L263.761 141.792C264.856 141.018 266.213 140.71 267.534 140.936C268.855 141.163 270.032 141.905 270.806 142.999C271.58 144.093 271.887 145.45 271.661 146.771C271.434 148.093 270.692 149.27 269.598 150.044L231.458 177.718C228.643 180.066 225.057 181.285 221.395 181.139Z" fill="#E6F0FD"/>
<path d="M40.2545 100.628C34.2834 100.628 28.4465 98.8574 23.4818 95.5401C18.5171 92.2228 14.6476 87.5077 12.3625 81.9912C10.0775 76.4748 9.47967 70.4046 10.6446 64.5483C11.8094 58.692 14.6848 53.3126 18.9069 49.0905C23.1291 44.8684 28.5084 41.993 34.3647 40.8282C40.221 39.6633 46.2912 40.2611 51.8077 42.5461C57.3242 44.8311 62.0392 48.7007 65.3565 53.6654C68.6738 58.6301 70.4444 64.467 70.4444 70.438C70.4444 78.4449 67.2637 86.1239 61.602 91.7856C55.9403 97.4473 48.2613 100.628 40.2545 100.628ZM40.2545 50.3114C36.2738 50.3114 32.3825 51.4918 29.0727 53.7033C25.7629 55.9149 23.1832 59.0582 21.6598 62.7359C20.1365 66.4136 19.7379 70.4604 20.5145 74.3646C21.2911 78.2687 23.208 81.855 26.0228 84.6697C28.8375 87.4845 32.4237 89.4014 36.3279 90.178C40.2321 90.9546 44.2789 90.556 47.9566 89.0326C51.6343 87.5093 54.7776 84.9296 56.9892 81.6198C59.2007 78.31 60.3811 74.4187 60.3811 70.438C60.3811 65.1001 58.2606 59.9808 54.4861 56.2063C50.7117 52.4319 45.5924 50.3114 40.2545 50.3114Z" fill="#E6F0FD"/>
<path d="M133.345 301.901C132.216 301.883 131.126 301.486 130.25 300.775C129.374 300.063 128.763 299.077 128.514 297.976L110.702 218.878C110.132 216.664 108.824 214.71 106.995 213.338C105.166 211.966 102.924 211.258 100.639 211.331H55.3539C54.0194 211.331 52.7396 210.8 51.796 209.857C50.8524 208.913 50.3223 207.633 50.3223 206.299V186.172C50.3223 184.838 50.8524 183.558 51.796 182.614C52.7396 181.671 54.0194 181.141 55.3539 181.141C56.6884 181.141 57.9682 181.671 58.9119 182.614C59.8555 183.558 60.3856 184.838 60.3856 186.172V201.267H100.639C105.12 201.265 109.474 202.759 113.011 205.511C116.547 208.264 119.064 212.118 120.162 216.463L138.276 295.762C138.578 297.056 138.357 298.417 137.659 299.549C136.961 300.68 135.845 301.489 134.552 301.8L133.345 301.901Z" fill="#E6F0FD"/>
<path d="M114.219 301.892C113.219 301.915 112.237 301.628 111.408 301.069C110.579 300.51 109.944 299.708 109.59 298.773L85.5383 241.512H35.2216C25.8803 241.512 16.9215 237.801 10.3162 231.196C3.71084 224.591 0 215.632 0 206.291L0 135.847C0 129.175 2.6506 122.776 7.3687 118.058C12.0868 113.34 18.4859 110.689 25.1583 110.689C31.8239 110.704 38.3962 112.256 44.365 115.223C50.3338 118.189 55.5385 122.492 59.5749 127.797L86.1421 150.942H115.728C119.732 150.942 123.571 152.533 126.402 155.363C129.233 158.194 130.823 162.034 130.823 166.037C130.823 170.041 129.233 173.88 126.402 176.711C123.571 179.542 119.732 181.132 115.728 181.132H80.5066C76.8126 181.147 73.2381 179.824 70.4433 177.409C69.515 176.451 68.9958 175.17 68.9958 173.836C68.9958 172.503 69.515 171.221 70.4433 170.264C71.4008 169.336 72.6821 168.816 74.0158 168.816C75.3494 168.816 76.6307 169.336 77.5883 170.264C78.4553 170.825 79.4743 171.107 80.5066 171.069H115.728C117.063 171.069 118.343 170.539 119.286 169.595C120.23 168.652 120.76 167.372 120.76 166.037C120.76 164.703 120.23 163.423 119.286 162.479C118.343 161.536 117.063 161.006 115.728 161.006H84.3307C83.1109 161.037 81.9245 160.606 81.0098 159.798L52.2287 134.64C49.0988 130.388 45.0248 126.921 40.3274 124.511C35.63 122.101 30.4374 120.815 25.1583 120.752C21.1549 120.752 17.3154 122.343 14.4846 125.174C11.6537 128.004 10.0633 131.844 10.0633 135.847V206.291C10.0633 212.963 12.7139 219.362 17.432 224.08C22.1501 228.798 28.5492 231.449 35.2216 231.449H88.8592C89.8526 231.454 90.8223 231.753 91.646 232.308C92.4698 232.863 93.1108 233.65 93.4883 234.569L118.848 294.948C119.11 295.555 119.247 296.208 119.252 296.869C119.256 297.529 119.128 298.184 118.875 298.794C118.621 299.405 118.248 299.958 117.776 300.421C117.305 300.884 116.745 301.247 116.131 301.49C115.532 301.768 114.878 301.906 114.219 301.892Z" fill="#E6F0FD"/>
<path d="M115.724 181.139H80.5019C76.8079 181.154 73.2333 179.831 70.4385 177.416L32.1979 150.043C31.6561 149.66 31.195 149.174 30.8411 148.613C30.4872 148.051 30.2473 147.426 30.1352 146.771C30.023 146.117 30.0408 145.447 30.1876 144.8C30.3343 144.153 30.607 143.541 30.9903 142.999C31.3735 142.457 31.8597 141.996 32.4212 141.642C32.9826 141.288 33.6082 141.049 34.2624 140.936C34.9165 140.824 35.5863 140.842 36.2335 140.989C36.8808 141.136 37.4928 141.408 38.0346 141.792L76.6778 169.566C77.7169 170.533 79.0826 171.072 80.5019 171.076H115.724C117.058 171.076 118.338 170.546 119.281 169.602C120.225 168.658 120.755 167.379 120.755 166.044C120.755 164.71 120.225 163.43 119.281 162.486C118.338 161.543 117.058 161.013 115.724 161.013H84.3259C82.9915 161.013 81.7116 160.482 80.768 159.539C79.8244 158.595 79.2943 157.315 79.2943 155.981C79.2943 154.646 79.8244 153.367 80.768 152.423C81.7116 151.479 82.9915 150.949 84.3259 150.949H115.724C119.727 150.949 123.566 152.54 126.397 155.37C129.228 158.201 130.819 162.041 130.819 166.044C130.819 170.048 129.228 173.887 126.397 176.718C123.566 179.549 119.727 181.139 115.724 181.139Z" fill="#E6F0FD"/>
<path d="M206.29 171.076H95.5938V181.139H206.29V171.076Z" fill="#E6F0FD"/>
<path d="M150.952 120.757C141.509 120.846 132.176 118.718 123.705 114.545C115.233 110.372 107.859 104.27 102.173 96.7298C96.4883 89.1893 92.6511 80.4204 90.9701 71.1276C89.2892 61.8349 89.8113 52.2774 92.4947 43.2232C95.1781 34.1689 99.9478 25.8702 106.421 18.994C112.893 12.1177 120.889 6.85563 129.765 3.63044C138.64 0.40526 148.149 -0.69307 157.526 0.423699C166.903 1.54047 175.888 4.8412 183.758 10.0607C184.313 10.4241 184.791 10.8933 185.165 11.4415C185.539 11.9896 185.801 12.606 185.936 13.2555C186.072 13.9049 186.078 14.5747 185.955 15.2266C185.831 15.8785 185.581 16.4997 185.217 17.0547C184.854 17.6097 184.385 18.0878 183.837 18.4615C183.288 18.8352 182.672 19.0973 182.022 19.2328C181.373 19.3683 180.703 19.3745 180.051 19.2512C179.4 19.1278 178.778 18.8773 178.223 18.5139C171.665 14.1423 164.172 11.3725 156.347 10.4276C148.522 9.48273 140.585 10.3892 133.175 13.074C125.765 15.7588 119.089 20.1468 113.685 25.8845C108.282 31.6222 104.302 38.549 102.066 46.1067C99.8296 53.6645 99.4003 61.6418 100.812 69.3959C102.224 77.1499 105.438 84.4639 110.195 90.7482C114.952 97.0326 121.118 102.112 128.197 105.576C135.277 109.041 143.071 110.794 150.952 110.694C164.296 110.694 177.095 105.393 186.531 95.9566C195.967 86.5204 201.268 73.7221 201.268 60.3773C201.233 57.7468 200.998 55.1227 200.564 52.5279C200.389 51.2106 200.731 49.8768 201.52 48.8069C202.308 47.7371 203.48 47.0148 204.79 46.7918C205.445 46.6918 206.112 46.7219 206.755 46.8803C207.398 47.0387 208.003 47.3223 208.535 47.715C209.068 48.1076 209.518 48.6015 209.86 49.1683C210.202 49.7352 210.428 50.3639 210.527 51.0184C211.049 54.111 211.318 57.241 211.332 60.3773C211.332 76.3911 204.97 91.749 193.647 103.072C182.323 114.396 166.965 120.757 150.952 120.757Z" fill="#E6F0FD"/>
<path d="M150.948 80.504C150.288 80.512 149.634 80.3819 149.027 80.1219C148.421 79.862 147.875 79.4779 147.426 78.9945L122.268 53.8362C121.333 52.902 120.809 51.6351 120.809 50.314C120.809 48.9929 121.333 47.726 122.268 46.7918C123.202 45.8577 124.469 45.3329 125.79 45.3329C127.111 45.3329 128.378 45.8577 129.312 46.7918L150.948 68.3274L207.806 11.5702C208.258 11.0889 208.803 10.7052 209.409 10.443C210.015 10.1807 210.668 10.0454 211.328 10.0454C211.988 10.0454 212.641 10.1807 213.247 10.443C213.853 10.7052 214.398 11.0889 214.85 11.5702C215.331 12.0219 215.715 12.5675 215.977 13.1733C216.24 13.7791 216.375 14.4322 216.375 15.0924C216.375 15.7525 216.24 16.4056 215.977 17.0114C215.715 17.6172 215.331 18.1628 214.85 18.6145L154.47 78.9945C154.021 79.4779 153.475 79.862 152.869 80.1219C152.262 80.3819 151.608 80.512 150.948 80.504Z" fill="#E6F0FD"/>
</svg>
