<svg width="43" height="48" viewBox="0 0 43 48" fill="none" xmlns="http://www.w3.org/2000/svg">
<path d="M19.3078 25.6807L0 14.5205V27.9123L15.4459 36.8402V41.304L0 32.376V36.8402L19.3078 48.0001V34.6079L3.85893 25.6796L3.86156 21.2158L19.3059 30.1441L19.3078 25.6807Z" fill="#2F80ED"/>
<path d="M42.4758 14.5205L23.168 25.6804V39.0721L38.6138 30.1441V34.6087L23.168 43.5363V48.0001L42.4758 36.8402L42.4739 23.4473L38.9678 25.4747L27.0378 32.3719V27.9168L42.4825 18.9843L42.4758 14.5205Z" fill="#2F80ED"/>
<path d="M40.5531 11.1501L21.2367 0L9.65205 6.69607L25.1095 15.6222L21.2371 17.8548L5.79835 8.93318L1.92969 11.161L21.2375 22.3212L32.8217 15.6132L17.3886 6.6893L21.2513 4.47313L36.6934 13.3857L40.5531 11.1501Z" fill="#2F80ED"/>
</svg>
