<svg width="89" height="749" viewBox="0 0 89 749" fill="none" xmlns="http://www.w3.org/2000/svg">
<path d="M70 13L70 37.61L88.8806 37.61L70 13Z" fill="url(#paint0_linear_0_1)"/>
<path d="M78.9975 37.9948C78.9975 17.4687 62.3578 0.828979 41.8316 0.828979C21.3055 0.828979 4.66577 17.4687 4.66577 37.9948C4.66577 58.521 21.3055 75.1607 41.8316 75.1607C62.3578 75.1607 78.9975 58.521 78.9975 37.9948Z" fill="url(#paint1_linear_0_1)"/>
<path d="M62.7478 58.7478C74.2994 47.1962 74.2994 28.4675 62.7478 16.9159C51.1963 5.36436 32.4675 5.36435 20.9159 16.9159C9.36439 28.4675 9.36439 47.1962 20.9159 58.7478C32.4675 70.2993 51.1963 70.2993 62.7478 58.7478Z" fill="white"/>
<path d="M31.6487 30.0089V23.9875L39.2321 19.8258H46.8155V59.5147H39.2321V25.8472L31.6487 30.0089Z" fill="#5080F0"/>
<path d="M70 682L70 706.61L88.8806 706.61L70 682Z" fill="url(#paint2_linear_0_1)"/>
<path d="M78.9975 706.995C78.9975 686.469 62.3578 669.829 41.8316 669.829C21.3055 669.829 4.66577 686.469 4.66577 706.995C4.66577 727.521 21.3055 744.161 41.8316 744.161C62.3578 744.161 78.9975 727.521 78.9975 706.995Z" fill="url(#paint3_linear_0_1)"/>
<path d="M62.7478 727.748C74.2994 716.196 74.2994 697.468 62.7478 685.916C51.1963 674.364 32.4675 674.364 20.9159 685.916C9.36439 697.468 9.36439 716.196 20.9159 727.748C32.4675 739.299 51.1963 739.299 62.7478 727.748Z" fill="white"/>
<path d="M43.4971 139C43.1691 139 42.8443 138.941 42.5413 138.826C42.2383 138.711 41.9631 138.543 41.7314 138.331C41.4997 138.119 41.3161 137.867 41.1911 137.59C41.0661 137.313 41.0021 137.017 41.0029 136.717V135.578C40.9867 135.27 41.0392 134.961 41.1574 134.672C41.2756 134.382 41.4569 134.118 41.6904 133.894C41.9238 133.67 42.2046 133.492 42.5157 133.37C42.8267 133.249 43.1616 133.186 43.5 133.186C43.8384 133.186 44.1733 133.249 44.4843 133.37C44.7954 133.492 45.0762 133.67 45.3096 133.894C45.5431 134.118 45.7244 134.382 45.8426 134.672C45.9608 134.961 46.0133 135.27 45.9971 135.578V136.717C45.9971 137.323 45.7338 137.903 45.2649 138.331C44.7961 138.759 44.1602 139 43.4971 139ZM43.4971 126.452C42.8356 126.452 42.2012 126.212 41.7334 125.785C41.2657 125.358 41.0029 124.779 41.0029 124.175V123.031C41.0337 122.445 41.3102 121.892 41.7751 121.487C42.2401 121.083 42.8577 120.857 43.5 120.857C44.1423 120.857 44.76 121.083 45.2249 121.487C45.6898 121.892 45.9663 122.445 45.9971 123.031V124.175C45.9971 124.474 45.9324 124.771 45.8067 125.047C45.681 125.324 45.4968 125.575 45.2646 125.787C45.0323 125.999 44.7567 126.166 44.4534 126.28C44.1501 126.394 43.8252 126.453 43.4971 126.452ZM43.4971 113.904C42.8356 113.904 42.2012 113.664 41.7334 113.237C41.2657 112.81 41.0029 112.231 41.0029 111.627V110.483C41.0337 109.897 41.3102 109.344 41.7751 108.94C42.2401 108.535 42.8577 108.309 43.5 108.309C44.1423 108.309 44.76 108.535 45.2249 108.94C45.6898 109.344 45.9663 109.897 45.9971 110.483V111.627C45.9971 111.926 45.9324 112.223 45.8067 112.5C45.681 112.776 45.4968 113.028 45.2646 113.239C45.0323 113.451 44.7567 113.618 44.4534 113.732C44.1501 113.847 43.8252 113.905 43.4971 113.904ZM43.4971 101.362C43.1691 101.362 42.8443 101.303 42.5413 101.188C42.2383 101.073 41.9631 100.905 41.7314 100.693C41.4997 100.481 41.3161 100.229 41.1911 99.9521C41.0661 99.6752 41.0021 99.3785 41.0029 99.0789V97.9349C41.0337 97.349 41.3102 96.7965 41.7751 96.3918C42.2401 95.9872 42.8577 95.7614 43.5 95.7614C44.1423 95.7614 44.76 95.9872 45.2249 96.3918C45.6898 96.7965 45.9663 97.349 45.9971 97.9349V99.0789C45.9971 99.6844 45.7338 100.265 45.2649 100.693C44.7961 101.121 44.1602 101.362 43.4971 101.362ZM43.4971 88.8139C43.1691 88.8139 42.8443 88.7549 42.5413 88.6401C42.2383 88.5253 41.9631 88.357 41.7314 88.145C41.4997 87.9329 41.3161 87.6812 41.1911 87.4043C41.0661 87.1274 41.0021 86.8306 41.0029 86.5311V85.3923C40.9867 85.0836 41.0392 84.7752 41.1574 84.4856C41.2756 84.1961 41.4569 83.9315 41.6904 83.7078C41.9238 83.4841 42.2046 83.3061 42.5157 83.1844C42.8267 83.0627 43.1616 83 43.5 83C43.8384 83 44.1733 83.0627 44.4843 83.1844C44.7954 83.3061 45.0762 83.4841 45.3096 83.7078C45.5431 83.9315 45.7244 84.1961 45.8426 84.4856C45.9608 84.7752 46.0133 85.0836 45.9971 85.3923V86.5311C45.9971 87.1365 45.7338 87.7172 45.2649 88.1453C44.7961 88.5734 44.1602 88.8139 43.4971 88.8139Z" fill="#1C55E9"/>
<path d="M44.4971 267C44.1691 267 43.8443 266.941 43.5413 266.826C43.2383 266.711 42.9631 266.543 42.7314 266.331C42.4997 266.119 42.3161 265.867 42.1911 265.59C42.0661 265.313 42.0021 265.017 42.0029 264.717V263.578C41.9867 263.27 42.0392 262.961 42.1574 262.672C42.2756 262.382 42.4569 262.118 42.6904 261.894C42.9238 261.67 43.2046 261.492 43.5157 261.37C43.8267 261.249 44.1616 261.186 44.5 261.186C44.8384 261.186 45.1733 261.249 45.4843 261.37C45.7954 261.492 46.0762 261.67 46.3096 261.894C46.5431 262.118 46.7244 262.382 46.8426 262.672C46.9608 262.961 47.0133 263.27 46.9971 263.578V264.717C46.9971 265.323 46.7338 265.903 46.2649 266.331C45.7961 266.759 45.1602 267 44.4971 267ZM44.4971 254.452C43.8356 254.452 43.2012 254.212 42.7334 253.785C42.2657 253.358 42.0029 252.779 42.0029 252.175V251.031C42.0337 250.445 42.3102 249.892 42.7751 249.487C43.2401 249.083 43.8577 248.857 44.5 248.857C45.1423 248.857 45.76 249.083 46.2249 249.487C46.6898 249.892 46.9663 250.445 46.9971 251.031V252.175C46.9971 252.474 46.9324 252.771 46.8067 253.047C46.681 253.324 46.4968 253.575 46.2646 253.787C46.0323 253.999 45.7567 254.166 45.4534 254.28C45.1501 254.394 44.8252 254.453 44.4971 254.452ZM44.4971 241.904C43.8356 241.904 43.2012 241.664 42.7334 241.237C42.2657 240.81 42.0029 240.231 42.0029 239.627V238.483C42.0337 237.897 42.3102 237.344 42.7751 236.94C43.2401 236.535 43.8577 236.309 44.5 236.309C45.1423 236.309 45.76 236.535 46.2249 236.94C46.6898 237.344 46.9663 237.897 46.9971 238.483V239.627C46.9971 239.926 46.9324 240.223 46.8067 240.5C46.681 240.776 46.4968 241.028 46.2646 241.239C46.0323 241.451 45.7567 241.618 45.4534 241.732C45.1501 241.847 44.8252 241.905 44.4971 241.904ZM44.4971 229.362C44.1691 229.362 43.8443 229.303 43.5413 229.188C43.2383 229.073 42.9631 228.905 42.7314 228.693C42.4997 228.481 42.3161 228.229 42.1911 227.952C42.0661 227.675 42.0021 227.378 42.0029 227.079V225.935C42.0337 225.349 42.3102 224.796 42.7751 224.392C43.2401 223.987 43.8577 223.761 44.5 223.761C45.1423 223.761 45.76 223.987 46.2249 224.392C46.6898 224.796 46.9663 225.349 46.9971 225.935V227.079C46.9971 227.684 46.7338 228.265 46.2649 228.693C45.7961 229.121 45.1602 229.362 44.4971 229.362ZM44.4971 216.814C44.1691 216.814 43.8443 216.755 43.5413 216.64C43.2383 216.525 42.9631 216.357 42.7314 216.145C42.4997 215.933 42.3161 215.681 42.1911 215.404C42.0661 215.127 42.0021 214.831 42.0029 214.531V213.392C41.9867 213.084 42.0392 212.775 42.1574 212.486C42.2756 212.196 42.4569 211.931 42.6904 211.708C42.9238 211.484 43.2046 211.306 43.5157 211.184C43.8267 211.063 44.1616 211 44.5 211C44.8384 211 45.1733 211.063 45.4843 211.184C45.7954 211.306 46.0762 211.484 46.3096 211.708C46.5431 211.931 46.7244 212.196 46.8426 212.486C46.9608 212.775 47.0133 213.084 46.9971 213.392V214.531C46.9971 215.137 46.7338 215.717 46.2649 216.145C45.7961 216.573 45.1602 216.814 44.4971 216.814Z" fill="#1C55E9"/>
<path d="M44.4971 395C44.1691 395 43.8443 394.941 43.5413 394.826C43.2383 394.711 42.9631 394.543 42.7314 394.331C42.4997 394.119 42.3161 393.867 42.1911 393.59C42.0661 393.313 42.0021 393.017 42.0029 392.717V391.578C41.9867 391.27 42.0392 390.961 42.1574 390.672C42.2756 390.382 42.4569 390.118 42.6904 389.894C42.9238 389.67 43.2046 389.492 43.5157 389.37C43.8267 389.249 44.1616 389.186 44.5 389.186C44.8384 389.186 45.1733 389.249 45.4843 389.37C45.7954 389.492 46.0762 389.67 46.3096 389.894C46.5431 390.118 46.7244 390.382 46.8426 390.672C46.9608 390.961 47.0133 391.27 46.9971 391.578V392.717C46.9971 393.323 46.7338 393.903 46.2649 394.331C45.7961 394.759 45.1602 395 44.4971 395ZM44.4971 382.452C43.8356 382.452 43.2012 382.212 42.7334 381.785C42.2657 381.358 42.0029 380.779 42.0029 380.175V379.031C42.0337 378.445 42.3102 377.892 42.7751 377.487C43.2401 377.083 43.8577 376.857 44.5 376.857C45.1423 376.857 45.76 377.083 46.2249 377.487C46.6898 377.892 46.9663 378.445 46.9971 379.031V380.175C46.9971 380.474 46.9324 380.771 46.8067 381.047C46.681 381.324 46.4968 381.575 46.2646 381.787C46.0323 381.999 45.7567 382.166 45.4534 382.28C45.1501 382.394 44.8252 382.453 44.4971 382.452ZM44.4971 369.904C43.8356 369.904 43.2012 369.664 42.7334 369.237C42.2657 368.81 42.0029 368.231 42.0029 367.627V366.483C42.0337 365.897 42.3102 365.344 42.7751 364.94C43.2401 364.535 43.8577 364.309 44.5 364.309C45.1423 364.309 45.76 364.535 46.2249 364.94C46.6898 365.344 46.9663 365.897 46.9971 366.483V367.627C46.9971 367.926 46.9324 368.223 46.8067 368.5C46.681 368.776 46.4968 369.028 46.2646 369.239C46.0323 369.451 45.7567 369.618 45.4534 369.732C45.1501 369.847 44.8252 369.905 44.4971 369.904ZM44.4971 357.362C44.1691 357.362 43.8443 357.303 43.5413 357.188C43.2383 357.073 42.9631 356.905 42.7314 356.693C42.4997 356.481 42.3161 356.229 42.1911 355.952C42.0661 355.675 42.0021 355.378 42.0029 355.079V353.935C42.0337 353.349 42.3102 352.796 42.7751 352.392C43.2401 351.987 43.8577 351.761 44.5 351.761C45.1423 351.761 45.76 351.987 46.2249 352.392C46.6898 352.796 46.9663 353.349 46.9971 353.935V355.079C46.9971 355.684 46.7338 356.265 46.2649 356.693C45.7961 357.121 45.1602 357.362 44.4971 357.362ZM44.4971 344.814C44.1691 344.814 43.8443 344.755 43.5413 344.64C43.2383 344.525 42.9631 344.357 42.7314 344.145C42.4997 343.933 42.3161 343.681 42.1911 343.404C42.0661 343.127 42.0021 342.831 42.0029 342.531V341.392C41.9867 341.084 42.0392 340.775 42.1574 340.486C42.2756 340.196 42.4569 339.931 42.6904 339.708C42.9238 339.484 43.2046 339.306 43.5157 339.184C43.8267 339.063 44.1616 339 44.5 339C44.8384 339 45.1733 339.063 45.4843 339.184C45.7954 339.306 46.0762 339.484 46.3096 339.708C46.5431 339.931 46.7244 340.196 46.8426 340.486C46.9608 340.775 47.0133 341.084 46.9971 341.392V342.531C46.9971 343.137 46.7338 343.717 46.2649 344.145C45.7961 344.573 45.1602 344.814 44.4971 344.814Z" fill="#1C55E9"/>
<path d="M43.4971 527C43.1691 527 42.8443 526.941 42.5413 526.826C42.2383 526.711 41.9631 526.543 41.7314 526.331C41.4997 526.119 41.3161 525.867 41.1911 525.59C41.0661 525.313 41.0021 525.017 41.0029 524.717V523.578C40.9867 523.27 41.0392 522.961 41.1574 522.672C41.2756 522.382 41.4569 522.118 41.6904 521.894C41.9238 521.67 42.2046 521.492 42.5157 521.37C42.8267 521.249 43.1616 521.186 43.5 521.186C43.8384 521.186 44.1733 521.249 44.4843 521.37C44.7954 521.492 45.0762 521.67 45.3096 521.894C45.5431 522.118 45.7244 522.382 45.8426 522.672C45.9608 522.961 46.0133 523.27 45.9971 523.578V524.717C45.9971 525.323 45.7338 525.903 45.2649 526.331C44.7961 526.759 44.1602 527 43.4971 527ZM43.4971 514.452C42.8356 514.452 42.2012 514.212 41.7334 513.785C41.2657 513.358 41.0029 512.779 41.0029 512.175V511.031C41.0337 510.445 41.3102 509.892 41.7751 509.487C42.2401 509.083 42.8577 508.857 43.5 508.857C44.1423 508.857 44.76 509.083 45.2249 509.487C45.6898 509.892 45.9663 510.445 45.9971 511.031V512.175C45.9971 512.474 45.9324 512.771 45.8067 513.047C45.681 513.324 45.4968 513.575 45.2646 513.787C45.0323 513.999 44.7567 514.166 44.4534 514.28C44.1501 514.394 43.8252 514.453 43.4971 514.452ZM43.4971 501.904C42.8356 501.904 42.2012 501.664 41.7334 501.237C41.2657 500.81 41.0029 500.231 41.0029 499.627V498.483C41.0337 497.897 41.3102 497.344 41.7751 496.94C42.2401 496.535 42.8577 496.309 43.5 496.309C44.1423 496.309 44.76 496.535 45.2249 496.94C45.6898 497.344 45.9663 497.897 45.9971 498.483V499.627C45.9971 499.926 45.9324 500.223 45.8067 500.5C45.681 500.776 45.4968 501.028 45.2646 501.239C45.0323 501.451 44.7567 501.618 44.4534 501.732C44.1501 501.847 43.8252 501.905 43.4971 501.904ZM43.4971 489.362C43.1691 489.362 42.8443 489.303 42.5413 489.188C42.2383 489.073 41.9631 488.905 41.7314 488.693C41.4997 488.481 41.3161 488.229 41.1911 487.952C41.0661 487.675 41.0021 487.378 41.0029 487.079V485.935C41.0337 485.349 41.3102 484.796 41.7751 484.392C42.2401 483.987 42.8577 483.761 43.5 483.761C44.1423 483.761 44.76 483.987 45.2249 484.392C45.6898 484.796 45.9663 485.349 45.9971 485.935V487.079C45.9971 487.684 45.7338 488.265 45.2649 488.693C44.7961 489.121 44.1602 489.362 43.4971 489.362ZM43.4971 476.814C43.1691 476.814 42.8443 476.755 42.5413 476.64C42.2383 476.525 41.9631 476.357 41.7314 476.145C41.4997 475.933 41.3161 475.681 41.1911 475.404C41.0661 475.127 41.0021 474.831 41.0029 474.531V473.392C40.9867 473.084 41.0392 472.775 41.1574 472.486C41.2756 472.196 41.4569 471.931 41.6904 471.708C41.9238 471.484 42.2046 471.306 42.5157 471.184C42.8267 471.063 43.1616 471 43.5 471C43.8384 471 44.1733 471.063 44.4843 471.184C44.7954 471.306 45.0762 471.484 45.3096 471.708C45.5431 471.931 45.7244 472.196 45.8426 472.486C45.9608 472.775 46.0133 473.084 45.9971 473.392V474.531C45.9971 475.137 45.7338 475.717 45.2649 476.145C44.7961 476.573 44.1602 476.814 43.4971 476.814Z" fill="#1C55E9"/>
<path d="M44.4971 657C44.1691 657 43.8443 656.941 43.5413 656.826C43.2383 656.711 42.9631 656.543 42.7314 656.331C42.4997 656.119 42.3161 655.867 42.1911 655.59C42.0661 655.313 42.0021 655.017 42.0029 654.717V653.578C41.9867 653.27 42.0392 652.961 42.1574 652.672C42.2756 652.382 42.4569 652.118 42.6904 651.894C42.9238 651.67 43.2046 651.492 43.5157 651.37C43.8267 651.249 44.1616 651.186 44.5 651.186C44.8384 651.186 45.1733 651.249 45.4843 651.37C45.7954 651.492 46.0762 651.67 46.3096 651.894C46.5431 652.118 46.7244 652.382 46.8426 652.672C46.9608 652.961 47.0133 653.27 46.9971 653.578V654.717C46.9971 655.323 46.7338 655.903 46.2649 656.331C45.7961 656.759 45.1602 657 44.4971 657ZM44.4971 644.452C43.8356 644.452 43.2012 644.212 42.7334 643.785C42.2657 643.358 42.0029 642.779 42.0029 642.175V641.031C42.0337 640.445 42.3102 639.892 42.7751 639.487C43.2401 639.083 43.8577 638.857 44.5 638.857C45.1423 638.857 45.76 639.083 46.2249 639.487C46.6898 639.892 46.9663 640.445 46.9971 641.031V642.175C46.9971 642.474 46.9324 642.771 46.8067 643.047C46.681 643.324 46.4968 643.575 46.2646 643.787C46.0323 643.999 45.7567 644.166 45.4534 644.28C45.1501 644.394 44.8252 644.453 44.4971 644.452ZM44.4971 631.904C43.8356 631.904 43.2012 631.664 42.7334 631.237C42.2657 630.81 42.0029 630.231 42.0029 629.627V628.483C42.0337 627.897 42.3102 627.344 42.7751 626.94C43.2401 626.535 43.8577 626.309 44.5 626.309C45.1423 626.309 45.76 626.535 46.2249 626.94C46.6898 627.344 46.9663 627.897 46.9971 628.483V629.627C46.9971 629.926 46.9324 630.223 46.8067 630.5C46.681 630.776 46.4968 631.028 46.2646 631.239C46.0323 631.451 45.7567 631.618 45.4534 631.732C45.1501 631.847 44.8252 631.905 44.4971 631.904ZM44.4971 619.362C44.1691 619.362 43.8443 619.303 43.5413 619.188C43.2383 619.073 42.9631 618.905 42.7314 618.693C42.4997 618.481 42.3161 618.229 42.1911 617.952C42.0661 617.675 42.0021 617.378 42.0029 617.079V615.935C42.0337 615.349 42.3102 614.796 42.7751 614.392C43.2401 613.987 43.8577 613.761 44.5 613.761C45.1423 613.761 45.76 613.987 46.2249 614.392C46.6898 614.796 46.9663 615.349 46.9971 615.935V617.079C46.9971 617.684 46.7338 618.265 46.2649 618.693C45.7961 619.121 45.1602 619.362 44.4971 619.362ZM44.4971 606.814C44.1691 606.814 43.8443 606.755 43.5413 606.64C43.2383 606.525 42.9631 606.357 42.7314 606.145C42.4997 605.933 42.3161 605.681 42.1911 605.404C42.0661 605.127 42.0021 604.831 42.0029 604.531V603.392C41.9867 603.084 42.0392 602.775 42.1574 602.486C42.2756 602.196 42.4569 601.931 42.6904 601.708C42.9238 601.484 43.2046 601.306 43.5157 601.184C43.8267 601.063 44.1616 601 44.5 601C44.8384 601 45.1733 601.063 45.4843 601.184C45.7954 601.306 46.0762 601.484 46.3096 601.708C46.5431 601.931 46.7244 602.196 46.8426 602.486C46.9608 602.775 47.0133 603.084 46.9971 603.392V604.531C46.9971 605.137 46.7338 605.717 46.2649 606.145C45.7961 606.573 45.1602 606.814 44.4971 606.814Z" fill="#1C55E9"/>
<path d="M59.8848 156.465L59.8848 170.956L70.9999 170.956L59.8848 156.465Z" fill="url(#paint4_linear_0_1)"/>
<path d="M64.1873 171.094C64.1873 157.787 53.4002 147 40.0937 147C26.7871 147 16 157.787 16 171.094C16 184.4 26.7871 195.187 40.0937 195.187C53.4002 195.187 64.1873 184.4 64.1873 171.094Z" fill="url(#paint5_linear_0_1)"/>
<path d="M40.0922 190.163C50.6819 190.163 59.2666 181.578 59.2666 170.989C59.2666 160.399 50.6819 151.814 40.0922 151.814C29.5024 151.814 20.9177 160.399 20.9177 170.989C20.9177 181.578 29.5024 190.163 40.0922 190.163Z" fill="#050F2B"/>
<path d="M41.8566 168.58C42.38 167.843 42.6393 166.95 42.5925 166.047C42.5925 164.451 42.5511 163.266 40.5474 163.266C38.1358 163.266 38.5023 164.821 38.5023 166.618H34.3352V164.901C34.3352 161.753 37.8816 160.172 40.5888 160.172C44.0643 160.172 46.7625 161.931 46.7625 165.648C46.7625 167.815 46.597 168.388 45.3706 170.188L39.2382 179.054H46.7625V182.163H34.3352V179.208L41.8566 168.58Z" fill="white"/>
<path d="M59.8848 288.465L59.8848 302.955L70.9999 302.955L59.8848 288.465Z" fill="url(#paint6_linear_0_1)"/>
<path d="M64.1873 303.094C64.1873 289.787 53.4002 279 40.0937 279C26.7871 279 16 289.787 16 303.094C16 316.4 26.7871 327.187 40.0937 327.187C53.4002 327.187 64.1873 316.4 64.1873 303.094Z" fill="url(#paint7_linear_0_1)"/>
<path d="M40.0922 322.163C50.6819 322.163 59.2666 313.579 59.2666 302.989C59.2666 292.399 50.6819 283.814 40.0922 283.814C29.5024 283.814 20.9177 292.399 20.9177 302.989C20.9177 313.579 29.5024 322.163 40.0922 322.163Z" fill="#050F2B"/>
<path d="M39.2056 301.67C39.2132 301.585 39.2518 301.505 39.3145 301.445C39.3772 301.385 39.4598 301.349 39.5477 301.342C41.076 301.342 42.6452 301.382 42.6452 299.448V296.605C42.6452 295.45 41.5296 295.039 40.5219 295.039C38.2908 295.039 38.3577 296.439 38.3986 298.044C38.3919 298.13 38.3542 298.21 38.2923 298.271C38.2303 298.331 38.148 298.369 38.0603 298.376H34.4087C34.3209 298.369 34.2387 298.331 34.1767 298.271C34.1147 298.21 34.077 298.13 34.0703 298.044V296.565C34.0703 293.433 37.8892 291.907 40.6074 291.907C44.8949 291.907 46.9772 294.011 46.9772 298.088C46.9772 300.642 46.9772 301.382 44.9395 302.417C44.8844 302.442 44.837 302.48 44.8023 302.528C44.7677 302.576 44.747 302.633 44.7424 302.691C44.7379 302.75 44.7496 302.809 44.7764 302.861C44.8032 302.914 44.8441 302.959 44.8949 302.991C47.059 304.106 46.9772 305.177 46.9772 307.728C46.9772 312.057 45.2332 314.28 40.481 314.28C35.7288 314.28 34.1596 312.303 34.0703 308.1C34.0779 308.015 34.1159 307.936 34.1778 307.876C34.2397 307.816 34.3215 307.779 34.4087 307.771H38.0603C38.1475 307.779 38.2292 307.816 38.2911 307.876C38.353 307.936 38.3911 308.015 38.3986 308.1C38.3577 309.665 38.3168 311.109 40.5219 311.109C41.6672 311.109 42.6452 310.531 42.6452 309.337V306.205C42.6452 304.145 41.2433 304.145 39.5477 304.145C39.4598 304.139 39.3772 304.102 39.3145 304.042C39.2518 303.982 39.2132 303.902 39.2056 303.817V301.67Z" fill="white"/>
<path d="M59.8848 418.465L59.8848 432.955L70.9999 432.955L59.8848 418.465Z" fill="url(#paint8_linear_0_1)"/>
<path d="M64.1873 433.094C64.1873 419.787 53.4002 409 40.0937 409C26.7871 409 16 419.787 16 433.094C16 446.4 26.7871 457.187 40.0937 457.187C53.4002 457.187 64.1873 446.4 64.1873 433.094Z" fill="url(#paint9_linear_0_1)"/>
<path d="M40.0922 452.163C50.6819 452.163 59.2666 443.579 59.2666 432.989C59.2666 422.399 50.6819 413.814 40.0922 413.814C29.5024 413.814 20.9177 422.399 20.9177 432.989C20.9177 443.579 29.5024 452.163 40.0922 452.163Z" fill="#050F2B"/>
<path d="M32.6749 440.97C32.5897 440.964 32.5095 440.926 32.4495 440.865C32.3895 440.803 32.3539 440.721 32.3494 440.634V437.872L38.3305 422.12C38.3507 422.059 38.3891 422.005 38.4405 421.967C38.4918 421.929 38.5536 421.909 38.6172 421.908H42.373C42.429 421.905 42.4849 421.916 42.5355 421.94C42.5861 421.965 42.6298 422.002 42.6627 422.048C42.6956 422.094 42.7165 422.148 42.7236 422.205C42.7307 422.261 42.7238 422.318 42.7034 422.372L36.7222 437.492C36.7043 437.545 36.6993 437.602 36.7074 437.657C36.7156 437.713 36.7367 437.765 36.7691 437.811C36.8015 437.856 36.8441 437.893 36.8935 437.918C36.9428 437.943 36.9974 437.956 37.0526 437.956H40.376C40.4618 437.95 40.5425 437.913 40.6033 437.851C40.6641 437.789 40.7007 437.707 40.7064 437.62V431.878C40.7058 431.834 40.7139 431.79 40.7302 431.749C40.7466 431.708 40.7709 431.67 40.8017 431.639C40.8325 431.608 40.8692 431.583 40.9096 431.567C40.95 431.55 40.9933 431.542 41.0368 431.542H44.5837C44.6273 431.542 44.6705 431.55 44.7109 431.567C44.7513 431.583 44.788 431.608 44.8188 431.639C44.8496 431.67 44.8739 431.708 44.8903 431.749C44.9067 431.79 44.9148 431.834 44.9141 431.878V437.62C44.9198 437.707 44.9564 437.789 45.0172 437.851C45.078 437.913 45.1588 437.95 45.2445 437.956H46.6098C46.6531 437.954 46.6963 437.962 46.7367 437.978C46.777 437.994 46.8138 438.018 46.8446 438.049C46.8755 438.08 46.8999 438.117 46.9163 438.158C46.9328 438.198 46.9409 438.242 46.9402 438.286V440.634C46.9345 440.721 46.8979 440.803 46.8371 440.865C46.7763 440.927 46.6956 440.964 46.6098 440.97H45.2445C45.2009 440.969 45.1577 440.977 45.1173 440.994C45.0769 441.011 45.0402 441.035 45.0094 441.067C44.9786 441.098 44.9543 441.135 44.9379 441.176C44.9215 441.217 44.9134 441.261 44.9141 441.305V443.945C44.9084 444.032 44.8718 444.114 44.811 444.175C44.7502 444.237 44.6695 444.274 44.5837 444.28H41.0368C40.9511 444.274 40.8703 444.237 40.8095 444.175C40.7488 444.114 40.7121 444.032 40.7064 443.945V441.305C40.7071 441.261 40.699 441.217 40.6826 441.176C40.6662 441.135 40.6419 441.098 40.6111 441.067C40.5803 441.035 40.5436 441.011 40.5032 440.994C40.4629 440.977 40.4196 440.969 40.376 440.97H32.6749Z" fill="white"/>
<path d="M59.8848 549.465L59.8848 563.955L70.9999 563.955L59.8848 549.465Z" fill="url(#paint10_linear_0_1)"/>
<path d="M64.1873 564.094C64.1873 550.787 53.4002 540 40.0937 540C26.7871 540 16 550.787 16 564.094C16 577.4 26.7871 588.187 40.0937 588.187C53.4002 588.187 64.1873 577.4 64.1873 564.094Z" fill="url(#paint11_linear_0_1)"/>
<path d="M40.0922 583.163C50.6819 583.163 59.2666 574.579 59.2666 563.989C59.2666 553.399 50.6819 544.814 40.0922 544.814C29.5024 544.814 20.9177 553.399 20.9177 563.989C20.9177 574.579 29.5024 583.163 40.0922 583.163Z" fill="#050F2B"/>
<path d="M38.6305 555.868C38.5866 555.868 38.5431 555.877 38.5027 555.894C38.4622 555.911 38.4255 555.936 38.3948 555.967C38.3641 555.998 38.34 556.036 38.3238 556.076C38.3077 556.117 38.2998 556.161 38.3008 556.205V561.228C38.2987 561.287 38.3127 561.346 38.3411 561.398C38.3696 561.449 38.4115 561.493 38.4624 561.523C38.5134 561.553 38.5715 561.569 38.6307 561.569C38.6899 561.569 38.748 561.553 38.7989 561.523C39.738 561.042 40.7816 560.8 41.8366 560.821C44.3692 560.821 46.6984 561.943 46.6984 564.771V570.495C46.6984 573.779 43.1906 575.28 40.3844 575.28C36.6451 575.28 34.1967 573.575 34.0704 569.878C34.0695 569.834 34.0773 569.791 34.0934 569.75C34.1096 569.709 34.1337 569.672 34.1644 569.64C34.1952 569.609 34.2318 569.584 34.2723 569.567C34.3128 569.55 34.3562 569.541 34.4001 569.541H38.0061C38.0882 569.539 38.1681 569.569 38.2294 569.623C38.2906 569.678 38.3287 569.754 38.3358 569.836C38.3779 571.239 38.7497 572.074 40.4966 572.074C41.577 572.074 42.4891 571.576 42.4891 570.418V565.22C42.4891 564.181 41.4086 563.641 40.4966 563.641C40.0856 563.615 39.6748 563.697 39.3054 563.879C38.936 564.061 38.621 564.337 38.392 564.68C38.3606 564.73 38.3173 564.771 38.2659 564.801C38.2144 564.83 38.1565 564.846 38.0973 564.848H34.8982C34.8123 564.84 34.732 564.802 34.6717 564.74C34.6113 564.678 34.5747 564.597 34.5685 564.511V553.237C34.5685 553.15 34.6032 553.066 34.6651 553.004C34.7269 552.942 34.8108 552.907 34.8982 552.907H46.3687C46.4125 552.906 46.4562 552.914 46.497 552.93C46.5378 552.947 46.575 552.971 46.6063 553.001C46.6377 553.032 46.6626 553.069 46.6796 553.109C46.6966 553.15 46.7054 553.193 46.7054 553.237V555.566C46.6987 555.653 46.6609 555.734 46.599 555.794C46.537 555.855 46.4552 555.891 46.3687 555.896L38.6305 555.868Z" fill="white"/>
<path d="M41.904 701.667C41.8539 701.774 41.8373 701.893 41.8564 702.009C41.8754 702.125 41.9292 702.233 42.0108 702.319C42.0925 702.405 42.1983 702.465 42.3148 702.492C42.4313 702.518 42.5532 702.51 42.6649 702.468C43.3829 702.336 44.1113 702.266 44.8417 702.259C52.9115 702.259 53 707.968 53 714.06C53 721.91 50.2747 726 41.5323 726C32.79 726 30.0647 721.84 30.0647 714.06C29.8112 711.285 30.3056 708.494 31.4981 705.966L41.4438 686.298C41.4906 686.201 41.5667 686.121 41.6618 686.068C41.7568 686.015 41.8661 685.992 41.9748 686.002H49.2305C49.3293 686 49.427 686.023 49.5138 686.07C49.6007 686.116 49.6737 686.184 49.7255 686.267C49.7774 686.35 49.8064 686.444 49.8096 686.541C49.8128 686.638 49.7901 686.735 49.7437 686.82L41.904 701.667ZM45.3372 710.109C45.3372 708.177 43.2312 707.289 41.5677 707.289C39.9042 707.289 37.7983 708.177 37.7983 710.109V717.454C37.7983 719.386 39.9042 720.274 41.5677 720.274C43.2312 720.274 45.3372 719.386 45.3372 717.454V710.109Z" fill="#5080F0"/>
<defs>
<linearGradient id="paint0_linear_0_1" x1="85.5127" y1="39.3506" x2="67.6697" y2="23.1944" gradientUnits="userSpaceOnUse">
<stop stop-color="#CCDAFF"/>
<stop offset="1" stop-color="#344CCB"/>
</linearGradient>
<linearGradient id="paint1_linear_0_1" x1="4.66577" y1="37.9948" x2="108.444" y2="70.6957" gradientUnits="userSpaceOnUse">
<stop stop-color="#BFD1FF"/>
<stop offset="1" stop-color="#F1F7FF"/>
</linearGradient>
<linearGradient id="paint2_linear_0_1" x1="85.5127" y1="708.351" x2="67.6697" y2="692.194" gradientUnits="userSpaceOnUse">
<stop stop-color="#CCDAFF"/>
<stop offset="1" stop-color="#344CCB"/>
</linearGradient>
<linearGradient id="paint3_linear_0_1" x1="4.66577" y1="706.995" x2="108.444" y2="739.696" gradientUnits="userSpaceOnUse">
<stop stop-color="#BFD1FF"/>
<stop offset="1" stop-color="#F1F7FF"/>
</linearGradient>
<linearGradient id="paint4_linear_0_1" x1="69.0172" y1="171.98" x2="58.5115" y2="162.469" gradientUnits="userSpaceOnUse">
<stop stop-color="#CCDAFF"/>
<stop offset="1" stop-color="#344CCB"/>
</linearGradient>
<linearGradient id="paint5_linear_0_1" x1="16" y1="171.094" x2="83.2766" y2="192.293" gradientUnits="userSpaceOnUse">
<stop stop-color="#BFD1FF"/>
<stop offset="1" stop-color="#F1F7FF"/>
</linearGradient>
<linearGradient id="paint6_linear_0_1" x1="69.0172" y1="303.98" x2="58.5115" y2="294.469" gradientUnits="userSpaceOnUse">
<stop stop-color="#CCDAFF"/>
<stop offset="1" stop-color="#344CCB"/>
</linearGradient>
<linearGradient id="paint7_linear_0_1" x1="16" y1="303.094" x2="83.2766" y2="324.293" gradientUnits="userSpaceOnUse">
<stop stop-color="#BFD1FF"/>
<stop offset="1" stop-color="#F1F7FF"/>
</linearGradient>
<linearGradient id="paint8_linear_0_1" x1="69.0172" y1="433.98" x2="58.5115" y2="424.469" gradientUnits="userSpaceOnUse">
<stop stop-color="#CCDAFF"/>
<stop offset="1" stop-color="#344CCB"/>
</linearGradient>
<linearGradient id="paint9_linear_0_1" x1="16" y1="433.094" x2="83.2766" y2="454.293" gradientUnits="userSpaceOnUse">
<stop stop-color="#BFD1FF"/>
<stop offset="1" stop-color="#F1F7FF"/>
</linearGradient>
<linearGradient id="paint10_linear_0_1" x1="69.0172" y1="564.98" x2="58.5115" y2="555.469" gradientUnits="userSpaceOnUse">
<stop stop-color="#CCDAFF"/>
<stop offset="1" stop-color="#344CCB"/>
</linearGradient>
<linearGradient id="paint11_linear_0_1" x1="16" y1="564.094" x2="83.2766" y2="585.293" gradientUnits="userSpaceOnUse">
<stop stop-color="#BFD1FF"/>
<stop offset="1" stop-color="#F1F7FF"/>
</linearGradient>
</defs>
</svg>
