<svg width="1440" height="1472" viewBox="0 0 1440 1472" fill="none" xmlns="http://www.w3.org/2000/svg">
<mask id="mask0_124_3085" style="mask-type:alpha" maskUnits="userSpaceOnUse" x="0" y="92" width="1440" height="899">
<rect x="0.00012207" y="92" width="1440" height="899" fill="#D9D9D9"/>
</mask>
<g mask="url(#mask0_124_3085)">
<g style="mix-blend-mode:overlay" opacity="0.75">
<g style="mix-blend-mode:overlay">
<path d="M889.105 742.567L855.642 785.409L915.217 771.855L889.105 742.567Z" fill="white"/>
</g>
<g style="mix-blend-mode:overlay">
<path d="M849.988 479.324L840.174 507.72L862.077 498.247L849.988 479.324Z" fill="white"/>
<path d="M849.988 479.324L840.174 507.72L862.077 498.247L849.988 479.324Z" stroke="white" stroke-miterlimit="10"/>
</g>
<g style="mix-blend-mode:overlay">
<path d="M1298.05 729.211L1291.8 677.993L1324.19 702.05L1298.05 729.211Z" fill="white"/>
</g>
<g style="mix-blend-mode:overlay">
<path d="M1104.32 844.079L1094.9 866.033L1118.94 864.989L1104.32 844.079Z" fill="white"/>
</g>
<g style="mix-blend-mode:overlay">
<path d="M898.415 916.097L860.783 946.389L853.496 904.563L898.415 916.097Z" fill="white"/>
</g>
<g style="mix-blend-mode:overlay">
<path d="M689.523 749.767L690.552 767.533L706.235 763.365L689.523 749.767Z" fill="white"/>
</g>
<g style="mix-blend-mode:overlay">
<path d="M1286.97 296.451L1279.12 338.769L1307.32 341.923L1286.97 296.451Z" fill="white"/>
</g>
<g style="mix-blend-mode:overlay">
<path d="M1070.64 359.033L1070.63 379.433L1097.26 376.311L1070.64 359.033Z" fill="white"/>
</g>
<g style="mix-blend-mode:overlay">
<path d="M627.068 313.321L630.18 355.646L655.276 343.13L627.068 313.321Z" fill="white"/>
</g>
<g style="mix-blend-mode:overlay">
<path d="M93.0889 327.831L151.589 344.496L118.319 372.414L93.0889 327.831Z" fill="white"/>
</g>
<g style="mix-blend-mode:overlay">
<path d="M324.24 542.585L356.288 541.211L345.828 562.812L324.24 542.585Z" fill="white"/>
</g>
<g style="mix-blend-mode:overlay">
<path d="M433.082 268.604L446.299 293.003L460.953 272.11L433.082 268.604Z" fill="white"/>
</g>
</g>
<g style="mix-blend-mode:overlay">
<path d="M530.95 335.746L737.68 -4.35555L739.814 -6.02499L738.664 -6.02564L739.314 -7.06479L736.697 -5.84113L342.485 12.7205L340.817 9.87942L340.982 12.6454L-80.8826 -28.2282L-81.8657 -28.9527L-81.8659 -28.6557L-82.5709 -28.9531L-82.1821 -27.3008L-165.396 406.557L-150.173 394.815L-151.569 403.52L-150.419 403.28L200.847 459.799L201.014 461.043L357.781 297.037L531.765 337.083L530.95 335.746ZM457.386 213.357L354.59 166.316L414.413 139.675L457.386 213.357ZM416.121 138.915L730.645 -1.07393L459.724 213.673L416.121 138.915ZM281.583 238.743L349.651 170.304L356.447 293.992L281.583 238.743ZM349.412 166.016L349.411 167.872L280.062 237.629L164.187 152.174L220.754 108.584L349.412 166.016ZM222.314 107.211L341.129 15.4856L349.284 163.992L222.314 107.211ZM162.647 150.948L161.646 150.224L161.645 150.502L-73.7598 -22.9709L218.732 107.654L162.647 150.948ZM160.939 152.265L160.791 152.376L160.346 152.079L159.398 153.452L92.6576 205.037L-76.7661 -22.8983L160.939 152.265ZM156.018 158.407L109.123 227.155L93.7516 206.486L156.018 158.407ZM160.771 154.697L162.089 153.658L184.258 328.161L110.384 228.771L160.771 154.697ZM352.326 165.219L352.122 165.219L351.195 164.81L350.185 146.247L343.095 17.4729L413.542 138.06L352.326 165.219ZM220.403 106.356L-75.651 -25.8677L339.571 14.3709L220.403 106.356ZM-79.234 -23.0854L91.1724 206.132L-4.64106 280.106L-79.234 -23.0854ZM-6.23766 281.386L-147.609 390.529L-81.0342 -22.678L-6.23766 281.386ZM92.285 207.655L108.028 228.825L15.9465 363.798L-4.15971 282.111L92.285 207.655ZM16.576 366.342L16.5761 366.212L109.233 230.367L184.201 331.316L16.576 366.342ZM186.391 330.779L164.074 154.569L278.688 239.02L187.708 330.52L186.391 330.779ZM280.209 240.135L355.259 295.439L190.937 329.817L280.209 240.135ZM351.397 168.542L352.529 167.41L457.496 215.436L358.303 294.085L351.397 168.542ZM461.022 215.011L733.484 -0.960946L529.893 333.926L461.022 215.902L461.356 215.159L461.022 215.011ZM415.175 137.299L343.542 14.5217L732.094 -3.8204L415.175 137.299ZM-162.647 402.103L-92.0521 34.025L-149.781 392.143L-162.647 402.103ZM-5.73772 283.316L14.7758 366.712L-149.304 401.071L-148.038 393.164L-5.73772 283.316ZM-145.333 402.132L184.812 333.006L200.607 457.775L-145.333 402.132ZM186.871 334.047L188.728 332.191L354.849 297.425L202.463 456.83L186.871 334.047ZM359.638 295.441L459.203 216.383L527.981 334.277L359.638 295.441Z" fill="url(#paint0_linear_124_3085)"/>
</g>
<path d="M357.795 306.689C363.923 306.693 368.894 301.726 368.898 295.595C368.901 289.464 363.936 284.492 357.807 284.488C351.678 284.485 346.707 289.452 346.704 295.582C346.7 301.713 351.666 306.686 357.795 306.689Z" fill="#465785"/>
<path d="M279.593 247.021C284.359 247.024 288.224 243.162 288.227 238.394C288.229 233.627 284.368 229.761 279.603 229.758C274.837 229.755 270.972 233.617 270.969 238.385C270.966 243.152 274.827 247.019 279.593 247.021Z" fill="#465785"/>
<path d="M198.602 329.301C198.6 331.578 197.924 333.802 196.659 335.694C195.394 337.586 193.596 339.06 191.493 339.93C189.391 340.8 187.077 341.027 184.846 340.581C182.614 340.136 180.565 339.039 178.957 337.428C177.348 335.818 176.254 333.766 175.811 331.534C175.369 329.301 175.598 326.987 176.47 324.884C177.342 322.782 178.817 320.985 180.71 319.722C182.603 318.458 184.828 317.785 187.103 317.786C190.153 317.792 193.076 319.008 195.231 321.167C197.386 323.325 198.599 326.25 198.602 329.301Z" fill="#465785"/>
<path d="M527.771 346.195C535.59 346.199 541.933 339.862 541.937 332.039C541.942 324.217 535.606 317.872 527.787 317.868C519.967 317.863 513.624 324.201 513.62 332.023C513.615 339.845 519.951 346.19 527.771 346.195Z" fill="#465785"/>
<path d="M199.059 470.898C205.403 470.902 210.549 465.76 210.553 459.415C210.556 453.069 205.416 447.921 199.072 447.918C192.729 447.914 187.583 453.056 187.579 459.401C187.576 465.747 192.716 470.895 199.059 470.898Z" fill="#465785"/>
<path d="M351.279 179.363C357.623 179.367 362.769 174.226 362.772 167.88C362.776 161.534 357.636 156.386 351.292 156.383C344.948 156.379 339.803 161.521 339.799 167.867C339.796 174.213 344.935 179.36 351.279 179.363Z" fill="#465785"/>
<path d="M14.1204 377.237C19.5624 377.24 23.9765 372.829 23.9796 367.386C23.9827 361.942 19.5736 357.526 14.1316 357.523C8.68959 357.52 4.27545 361.931 4.27236 367.374C4.26926 372.818 8.67839 377.234 14.1204 377.237Z" fill="#465785"/>
<path d="M170.347 152.865C170.346 154.492 169.863 156.082 168.958 157.434C168.053 158.786 166.767 159.84 165.264 160.461C163.76 161.082 162.106 161.243 160.511 160.923C158.916 160.603 157.452 159.817 156.304 158.665C155.156 157.512 154.375 156.045 154.061 154.448C153.747 152.852 153.913 151.198 154.539 149.696C155.165 148.194 156.222 146.911 157.577 146.011C158.932 145.11 160.523 144.632 162.15 144.637C164.327 144.643 166.413 145.512 167.949 147.055C169.486 148.597 170.349 150.687 170.347 152.865Z" fill="#465785"/>
<g style="mix-blend-mode:overlay">
<path d="M1892.27 889.486L1890.6 888.705L1487 462.516L1487 462.237L1486.4 461.977L1486.07 461.643L1485.83 461.754L1242.03 358.406L1240.59 355.881L1240.47 358.981L1175.41 554.484L909.528 430.241L907.858 429.46L929.843 536.822L929.082 536.71L928.748 537.118C919.463 548.454 703.87 810.457 693.654 828.216L691.798 827.992L692.855 829.162C684.537 837.251 598.721 920.605 516.86 997.686L416.954 991.003L474.658 1037.24C420.815 1087.33 375.625 1127.43 366.159 1130.77L366.659 1132.63L545.16 1093.75L654.262 1181.16L655.578 1182.2L668.504 1066.9L864.432 1024.32L732.496 1183.07L731.734 1183.97L1345.43 1470.86L1305.62 1154.28L1890.42 890.32L1892.27 889.486ZM1307.98 1010.13L1286.24 999.998L1272.35 889.468L1325.42 956.212L1307.98 1010.13ZM1326.79 957.958L1403.69 1054.7L1309.67 1010.91L1326.79 957.958ZM1242.29 362.397L1339.1 531.151L1233.8 580.932L1242.29 362.397ZM1094.77 912.849L1020.17 968.94L999.706 868.578L1094.77 912.849ZM999.169 866.387L998.947 865.329L999.708 864.531L1185.32 781.81L1184.56 780.12L1002.31 861.229L1123.72 715.153L1123.85 715.153L1123.98 714.8L1128.86 708.919L1186.18 781.105L1168.58 857.314L1096.38 911.624L999.169 866.387ZM1161.19 603.203L1230.21 584.179L1128.9 706.097L1127.49 704.333L1161.19 603.203ZM1126.12 702.606L1067.59 628.823L1159.04 603.648L1126.12 702.606ZM1231.03 586.091L1186.72 778.766L1130.07 707.509L1231.03 586.091ZM1127.67 707.544L1125.59 710.068L1126.8 706.356L1127.67 707.544ZM1187.66 782.962L1217.55 820.55L1170.96 855.589L1187.66 782.962ZM1168.02 860.116L1150.39 936.733L1098.44 912.572L1168.02 860.116ZM1170.32 858.391L1218.7 821.961L1270.12 886.645L1284.26 999.05L1152.11 937.514L1170.32 858.391ZM1220.19 820.867L1258.25 792.283L1269.68 883.155L1220.19 820.867ZM1219.04 819.418L1188.2 780.623L1232.55 587.744L1257.99 790.093L1219.04 819.418ZM1234.02 583.865L1417.9 669.86L1259.69 788.85L1234.02 583.865ZM1417.42 667.502L1235.72 582.604L1237.4 582.141L1236.08 581.936L1340.02 532.748L1417.42 667.502ZM1341.81 531.951L1484.49 464.5L1419.11 666.798L1341.81 531.951ZM1228.41 582.693L1161.9 601.032L1170.82 574.27L1228.41 582.693ZM1171.51 572.414L1176.62 557.028L1227 580.65L1171.51 572.414ZM1159.84 601.569L1066.42 627.3L1004.75 549.709L1169.04 573.934L1159.84 601.569ZM1064.48 627.837L956.533 657.476L932.273 538.939L1002.06 549.225L1064.48 627.837ZM1065.74 629.416L1125.5 704.61L1122.42 713.89L998.559 862.897L956.922 659.37L1065.74 629.416ZM996.74 863.713L995.255 864.362L799.666 702.754L955.029 659.963L996.74 863.713ZM995.402 866.608L868.387 1019.44L696.548 830.426L994.846 866.385L995.402 866.608ZM865.417 1020.96L682.783 953.193L694.914 831.372L865.417 1020.96ZM869.685 1020.83L997.183 867.426L997.573 867.612L1018.58 970.22L901.489 1058.29L869.832 1023L871.428 1022.67L869.685 1020.83ZM1018.95 972.206L1076.31 1252.74L902.639 1059.59L1018.95 972.206ZM1020.6 970.982L1096.71 913.759L1149.98 938.589L1078.02 1251.55L1020.6 970.982ZM1151.68 939.37L1284.53 1001.24L1303.62 1153.06L1079.28 1254.39L1151.68 939.37ZM1286.52 1002.15L1307.41 1011.89L1293.24 1055.67L1286.52 1002.15ZM1271.91 885.903L1259.95 790.948L1417.05 672.792L1326.09 954.097L1271.91 885.903ZM1420.26 668.803L1486.35 464.446L1886.08 886.568L1420.26 668.803ZM1483.67 462.792L1340.75 530.335L1243.66 361.062L1483.67 462.792ZM1240.3 365.626L1231.94 580.95L1177.12 555.339L1240.3 365.626ZM1169.54 572.171L1002.97 547.611L912.328 433.584L1174.84 556.247L1169.54 572.171ZM910.88 434.697L1000.33 547.201L931.847 537.12L910.88 434.697ZM929.898 538.659L930.287 538.659L954.714 657.976L797.532 701.38L796.586 701.639C841.896 645.809 893.297 583.133 929.842 538.696L929.898 538.659ZM990.208 862.67L742.603 768.787L741.953 770.532L987.647 863.615L695.639 828.458C701.081 819.681 744.684 765.373 796.103 702.14L990.208 862.67ZM692.965 831.687L680.89 953.08L519.421 997.855C597.475 924.409 678.576 845.786 692.965 831.687ZM680.685 954.918L666.76 1065.36L545.57 1091.72L477.479 1037.17C490.475 1025.07 504.029 1012.42 517.657 999.599L680.685 954.918ZM422.724 993.252L515.115 999.43C501.858 1011.9 488.713 1024.2 476.125 1035.98L422.724 993.252ZM372.154 1129.44C388.267 1118.59 428.89 1082.26 476.123 1038.54L543.25 1092.32L372.154 1129.44ZM654.059 1178.64L547.425 1093.19L666.537 1067.27L654.059 1178.64ZM682.541 955.049L863.004 1022.66L668.672 1064.93L682.541 955.049ZM1343.17 1467.76L734.667 1183.27L867.345 1023.71L867.717 1023.71L1077.11 1256.34L1077.28 1257.23L1077.72 1257.05L1078.46 1257.87L1078.76 1256.57L1303.87 1155.01L1343.17 1467.76ZM1305.38 1152.28L1293.8 1060.03L1309.1 1012.69L1410.04 1059.67L1327.48 955.805L1419.63 670.826L1419.81 670.696L1887.88 889.427L1305.38 1152.28Z" fill="url(#paint1_linear_124_3085)"/>
</g>
<path d="M996.49 879.213C1003.9 879.217 1009.91 873.212 1009.91 865.799C1009.92 858.387 1003.91 852.375 996.505 852.371C989.095 852.367 983.085 858.372 983.081 865.784C983.077 873.196 989.08 879.209 996.49 879.213Z" fill="#465785"/>
<path d="M1198.31 778.996C1198.31 781.198 1197.66 783.351 1196.43 785.182C1195.21 787.013 1193.47 788.44 1191.44 789.282C1189.4 790.123 1187.16 790.343 1185 789.912C1182.84 789.481 1180.86 788.419 1179.3 786.86C1177.75 785.302 1176.69 783.317 1176.26 781.156C1175.83 778.995 1176.05 776.756 1176.9 774.721C1177.74 772.687 1179.17 770.948 1181 769.725C1182.83 768.502 1184.98 767.85 1187.19 767.852C1190.14 767.853 1192.97 769.028 1195.06 771.118C1197.14 773.208 1198.32 776.042 1198.31 778.996Z" fill="#465785"/>
<path d="M1138.21 707.625C1138.22 709.657 1137.61 711.644 1136.49 713.334C1135.36 715.024 1133.76 716.342 1131.88 717.12C1130 717.898 1127.94 718.102 1125.95 717.705C1123.96 717.309 1122.13 716.33 1120.69 714.892C1119.25 713.454 1118.28 711.623 1117.88 709.63C1117.49 707.637 1117.7 705.571 1118.48 703.695C1119.26 701.819 1120.57 700.217 1122.27 699.091C1123.96 697.966 1125.94 697.367 1127.97 697.372C1130.69 697.374 1133.3 698.455 1135.22 700.378C1137.14 702.3 1138.21 704.907 1138.21 707.625Z" fill="#465785"/>
<path d="M1073.11 627.508C1073.1 629.035 1072.65 630.528 1071.8 631.797C1070.95 633.067 1069.75 634.056 1068.34 634.639C1066.92 635.223 1065.37 635.375 1063.88 635.076C1062.38 634.777 1061 634.041 1059.92 632.961C1058.84 631.88 1058.11 630.504 1057.81 629.006C1057.52 627.507 1057.67 625.955 1058.26 624.544C1058.84 623.133 1059.83 621.928 1061.1 621.08C1062.37 620.232 1063.86 619.78 1065.39 619.781C1067.44 619.782 1069.4 620.597 1070.85 622.046C1072.29 623.495 1073.11 625.46 1073.11 627.508Z" fill="#465785"/>
<path d="M1247.66 583.927C1248.92 576.207 1243.68 568.929 1235.96 567.671C1228.25 566.413 1220.97 571.652 1219.71 579.373C1218.45 587.093 1223.69 594.371 1231.41 595.629C1239.13 596.887 1246.4 591.648 1247.66 583.927Z" fill="#465785"/>
<path d="M1430.22 669.867C1430.22 672.026 1429.58 674.137 1428.38 675.932C1427.18 677.726 1425.47 679.124 1423.48 679.949C1421.48 680.773 1419.29 680.987 1417.17 680.563C1415.05 680.139 1413.11 679.097 1411.59 677.568C1410.06 676.038 1409.03 674.091 1408.61 671.973C1408.19 669.854 1408.41 667.659 1409.24 665.665C1410.07 663.671 1411.47 661.969 1413.27 660.773C1415.07 659.577 1417.18 658.941 1419.34 658.946C1420.77 658.946 1422.19 659.23 1423.51 659.779C1424.83 660.329 1426.03 661.134 1427.05 662.148C1428.06 663.162 1428.86 664.366 1429.4 665.691C1429.95 667.015 1430.23 668.434 1430.22 669.867Z" fill="#465785"/>
<path d="M1340.82 543.923C1346.94 543.927 1351.92 538.96 1351.92 532.829C1351.92 526.698 1346.96 521.726 1340.83 521.722C1334.7 521.719 1329.73 526.686 1329.72 532.816C1329.72 538.947 1334.69 543.92 1340.82 543.923Z" fill="#465785"/>
<path d="M1253.85 361.476C1253.85 364.046 1253.09 366.558 1251.66 368.694C1250.23 370.83 1248.2 372.494 1245.83 373.476C1243.45 374.458 1240.84 374.714 1238.32 374.211C1235.8 373.709 1233.49 372.47 1231.67 370.652C1229.86 368.833 1228.62 366.517 1228.12 363.996C1227.62 361.475 1227.88 358.863 1228.86 356.489C1229.85 354.115 1231.51 352.087 1233.65 350.66C1235.79 349.234 1238.3 348.473 1240.87 348.475C1244.31 348.477 1247.62 349.847 1250.05 352.286C1252.49 354.724 1253.85 358.03 1253.85 361.476Z" fill="#465785"/>
<path d="M1296.54 998.89C1296.54 1001 1295.92 1003.07 1294.75 1004.82C1293.58 1006.58 1291.91 1007.95 1289.96 1008.76C1288.01 1009.57 1285.86 1009.78 1283.79 1009.37C1281.72 1008.96 1279.82 1007.95 1278.33 1006.45C1276.83 1004.96 1275.82 1003.06 1275.41 1000.99C1274.99 998.915 1275.2 996.768 1276.01 994.817C1276.82 992.866 1278.19 991.199 1279.95 990.026C1281.7 988.853 1283.77 988.228 1285.88 988.229C1287.28 988.228 1288.66 988.502 1289.96 989.037C1291.25 989.572 1292.43 990.358 1293.42 991.348C1294.41 992.338 1295.19 993.514 1295.73 994.808C1296.27 996.102 1296.54 997.489 1296.54 998.89Z" fill="white"/>
<path d="M962.452 659.317C962.455 660.695 962.049 662.042 961.286 663.189C960.523 664.336 959.437 665.23 958.165 665.759C956.894 666.288 955.494 666.428 954.143 666.161C952.792 665.893 951.551 665.231 950.576 664.258C949.602 663.285 948.938 662.044 948.668 660.693C948.399 659.342 948.537 657.941 949.064 656.669C949.59 655.396 950.483 654.308 951.628 653.543C952.773 652.778 954.12 652.37 955.497 652.371C957.339 652.372 959.106 653.104 960.41 654.406C961.713 655.708 962.448 657.474 962.452 659.317Z" fill="#465785"/>
<path d="M908.557 441.657C914.9 441.66 920.046 436.519 920.05 430.173C920.053 423.827 914.914 418.68 908.57 418.676C902.226 418.672 897.08 423.814 897.076 430.16C897.073 436.506 902.213 441.653 908.557 441.657Z" fill="#465785"/>
<path d="M807.424 699.956C807.408 701.923 806.81 703.841 805.705 705.468C804.599 707.095 803.037 708.358 801.215 709.097C799.392 709.836 797.392 710.018 795.466 709.62C793.54 709.222 791.776 708.262 790.395 706.861C789.014 705.46 788.08 703.682 787.71 701.75C787.339 699.818 787.549 697.82 788.314 696.007C789.078 694.195 790.363 692.65 792.005 691.568C793.647 690.485 795.573 689.914 797.539 689.926C798.847 689.934 800.14 690.2 801.345 690.709C802.55 691.217 803.643 691.959 804.561 692.89C805.479 693.822 806.204 694.925 806.696 696.138C807.187 697.35 807.435 698.648 807.424 699.956Z" fill="#465785"/>
<path d="M704.417 828.463C704.419 830.433 703.837 832.359 702.745 833.997C701.653 835.635 700.099 836.913 698.28 837.667C696.461 838.421 694.46 838.619 692.529 838.234C690.598 837.85 688.825 836.901 687.433 835.508C686.042 834.114 685.095 832.339 684.713 830.407C684.331 828.475 684.531 826.473 685.287 824.655C686.043 822.836 687.321 821.283 688.961 820.193C690.6 819.102 692.526 818.522 694.495 818.527C697.128 818.528 699.652 819.576 701.513 821.439C703.374 823.303 704.418 825.829 704.417 828.463Z" fill="#465785"/>
<path d="M680.717 963.847C685.8 963.849 689.924 959.73 689.926 954.645C689.929 949.56 685.811 945.435 680.728 945.432C675.644 945.429 671.521 949.549 671.518 954.634C671.515 959.719 675.634 963.844 680.717 963.847Z" fill="#465785"/>
<path d="M428.885 992.662C428.884 994.259 428.41 995.821 427.521 997.149C426.633 998.477 425.37 999.511 423.894 1000.12C422.417 1000.73 420.793 1000.89 419.227 1000.57C417.661 1000.26 416.223 999.489 415.095 998.357C413.968 997.225 413.201 995.784 412.893 994.216C412.585 992.649 412.748 991.025 413.363 989.55C413.977 988.075 415.015 986.816 416.346 985.931C417.676 985.047 419.239 984.578 420.836 984.582C421.896 984.583 422.944 984.792 423.922 985.199C424.9 985.606 425.789 986.201 426.536 986.952C427.284 987.702 427.876 988.593 428.279 989.573C428.683 990.552 428.888 991.602 428.885 992.662Z" fill="white"/>
<path d="M747.666 773.82C746.562 774.938 745.15 775.703 743.61 776.016C742.07 776.329 740.471 776.177 739.018 775.579C737.565 774.982 736.322 773.965 735.447 772.659C734.573 771.353 734.106 769.816 734.107 768.244C734.108 766.672 734.576 765.136 735.452 763.831C736.328 762.525 737.572 761.51 739.026 760.914C740.48 760.318 742.079 760.168 743.618 760.483C745.158 760.798 746.569 761.564 747.673 762.683C749.136 764.167 749.956 766.168 749.955 768.253C749.954 770.338 749.131 772.338 747.666 773.82Z" fill="#465785"/>
<g style="mix-blend-mode:overlay">
<g style="mix-blend-mode:overlay">
<path d="M1145.13 329.672L1140.12 413.703L1191.15 397.025L1145.13 329.672ZM1146.64 335.241L1188.23 396.114L1142.15 411.142L1146.64 335.241Z" fill="white"/>
</g>
<g style="mix-blend-mode:overlay">
<path d="M973.238 422.982L1026.95 412.933L996.755 379.354L973.238 422.982ZM1023.35 411.724L976.728 420.441L997.162 382.547L1023.35 411.724Z" fill="white"/>
</g>
<g style="mix-blend-mode:overlay">
<path d="M834.508 357.117L864.112 346.683L836.288 325.765L834.508 357.117ZM837.938 329.274L860.196 345.994L836.495 354.333L837.938 329.274Z" fill="white"/>
</g>
<g style="mix-blend-mode:overlay">
<path d="M354.208 380.493L413.183 378.262L342.889 346.461L354.208 380.493ZM355.527 378.637L345.931 349.971L405.186 376.772L355.527 378.637Z" fill="white"/>
</g>
<g style="mix-blend-mode:overlay">
<path d="M481.918 507.442L508.195 441.559L433.973 432.792L481.918 507.442ZM481.531 503.414L437.683 435.096L505.596 443.117L481.531 503.414Z" fill="white"/>
</g>
<g style="mix-blend-mode:overlay">
<path d="M649.225 215.099L624.195 242.465L669.748 249.229L649.225 215.099ZM648.907 218.18L666.038 246.795L627.907 241.056L648.907 218.18Z" fill="white"/>
</g>
<g style="mix-blend-mode:overlay">
<path d="M677.861 177.34L695.768 177.35L688.97 156.278L677.861 177.34ZM680.942 175.485L688.596 161.029L693.264 175.492L680.942 175.485Z" fill="white"/>
</g>
<g style="mix-blend-mode:overlay">
<path d="M228.934 375.614L262.695 365.238L244.889 350.378L228.934 375.614ZM258.873 364.493L233.186 372.368L245.333 353.181L258.873 364.493Z" fill="white"/>
</g>
<g style="mix-blend-mode:overlay">
<path d="M554.981 269.787L556.642 188.372L519.526 192.379L554.981 269.787ZM553.297 261.637L522.327 193.958L554.729 190.45L553.297 261.637Z" fill="white"/>
</g>
<g style="mix-blend-mode:overlay">
<path d="M609.791 869.879L671.916 907.207L642.722 816.511L609.791 869.879ZM612.371 869.249L642.182 820.91L668.634 903.065L612.371 869.249Z" fill="white"/>
</g>
<g style="mix-blend-mode:overlay">
<path d="M794.645 655.843L859.591 661.096L821.533 623.745L794.645 655.843ZM854.637 658.829L798.376 654.268L821.662 626.437L854.637 658.829Z" fill="white"/>
</g>
</g>
<g style="mix-blend-mode:overlay" opacity="0.75">
<g style="mix-blend-mode:overlay">
<path d="M1011.14 340.195C1011.14 341.127 1010.86 342.039 1010.34 342.814C1009.83 343.589 1009.09 344.193 1008.23 344.549C1007.37 344.906 1006.42 344.998 1005.5 344.816C1004.59 344.634 1003.75 344.184 1003.09 343.524C1002.43 342.865 1001.98 342.024 1001.8 341.109C1001.62 340.195 1001.72 339.247 1002.07 338.385C1002.43 337.524 1003.03 336.788 1003.81 336.27C1004.59 335.753 1005.5 335.477 1006.43 335.477C1007.68 335.478 1008.88 335.975 1009.76 336.86C1010.64 337.745 1011.14 338.944 1011.14 340.195Z" fill="white"/>
</g>
<g style="mix-blend-mode:overlay">
<path d="M1097.21 459.398C1097.21 460.64 1096.84 461.854 1096.15 462.885C1095.46 463.917 1094.48 464.721 1093.33 465.194C1092.19 465.668 1090.92 465.791 1089.71 465.546C1088.49 465.302 1087.37 464.702 1086.5 463.822C1085.62 462.942 1085.03 461.822 1084.79 460.604C1084.55 459.385 1084.67 458.123 1085.15 456.978C1085.63 455.832 1086.44 454.854 1087.47 454.167C1088.51 453.48 1089.72 453.116 1090.96 453.121C1091.79 453.121 1092.6 453.284 1093.36 453.6C1094.12 453.916 1094.81 454.379 1095.39 454.962C1095.97 455.545 1096.43 456.237 1096.74 456.998C1097.06 457.76 1097.22 458.575 1097.21 459.398Z" fill="white"/>
</g>
<g style="mix-blend-mode:overlay">
<path d="M760.147 592.488C760.15 593.421 759.876 594.334 759.36 595.112C758.844 595.889 758.109 596.496 757.248 596.855C756.386 597.214 755.438 597.31 754.523 597.13C753.607 596.949 752.766 596.501 752.105 595.842C751.445 595.183 750.994 594.343 750.811 593.428C750.629 592.512 750.721 591.563 751.078 590.701C751.435 589.839 752.039 589.101 752.815 588.583C753.591 588.065 754.503 587.788 755.436 587.789C756.683 587.789 757.879 588.284 758.762 589.165C759.644 590.046 760.143 591.24 760.147 592.488Z" fill="white"/>
</g>
<g style="mix-blend-mode:overlay">
<path d="M902.752 631.773C906.216 631.775 909.025 628.968 909.027 625.503C909.029 622.037 906.223 619.227 902.759 619.225C899.295 619.223 896.485 622.03 896.483 625.495C896.481 628.961 899.288 631.771 902.752 631.773Z" fill="white"/>
</g>
<g style="mix-blend-mode:overlay">
<path d="M264.821 607.948C264.82 608.881 264.543 609.793 264.024 610.569C263.505 611.344 262.767 611.948 261.904 612.304C261.042 612.66 260.093 612.751 259.178 612.567C258.264 612.383 257.424 611.932 256.766 611.27C256.108 610.609 255.661 609.767 255.482 608.851C255.303 607.935 255.399 606.986 255.759 606.125C256.119 605.264 256.727 604.53 257.505 604.014C258.282 603.499 259.196 603.226 260.129 603.23C260.747 603.23 261.359 603.353 261.929 603.59C262.5 603.828 263.018 604.176 263.454 604.614C263.89 605.052 264.235 605.572 264.47 606.145C264.704 606.717 264.824 607.329 264.821 607.948Z" fill="white"/>
</g>
<g style="mix-blend-mode:overlay">
<path d="M430.794 932.556C430.793 933.489 430.516 934.4 429.998 935.175C429.48 935.951 428.743 936.554 427.882 936.911C427.02 937.267 426.072 937.36 425.158 937.178C424.244 936.995 423.404 936.546 422.746 935.886C422.087 935.226 421.638 934.386 421.457 933.471C421.276 932.556 421.37 931.608 421.727 930.747C422.084 929.886 422.689 929.15 423.464 928.632C424.239 928.114 425.151 927.838 426.083 927.839C427.333 927.84 428.532 928.337 429.415 929.222C430.299 930.106 430.794 931.306 430.794 932.556Z" fill="white"/>
</g>
<g style="mix-blend-mode:overlay">
<path d="M490.479 692.685C494.803 692.687 498.311 689.182 498.314 684.856C498.316 680.529 494.812 677.02 490.487 677.018C486.163 677.015 482.655 680.521 482.652 684.847C482.65 689.173 486.154 692.682 490.479 692.685Z" fill="white"/>
</g>
<g style="mix-blend-mode:overlay">
<path d="M749.41 187.943C749.413 188.876 749.139 189.79 748.623 190.567C748.107 191.345 747.371 191.951 746.51 192.311C745.649 192.67 744.701 192.765 743.785 192.585C742.87 192.405 742.029 191.957 741.368 191.297C740.707 190.638 740.257 189.798 740.074 188.883C739.891 187.968 739.984 187.019 740.341 186.156C740.697 185.294 741.302 184.557 742.078 184.038C742.854 183.52 743.766 183.243 744.699 183.244C745.946 183.245 747.141 183.739 748.024 184.62C748.907 185.501 749.405 186.696 749.41 187.943Z" fill="white"/>
</g>
<g style="mix-blend-mode:overlay">
<path d="M1217.26 222.717C1219.42 222.718 1221.18 220.965 1221.18 218.802C1221.18 216.639 1219.43 214.885 1217.27 214.883C1215.1 214.882 1213.35 216.635 1213.35 218.798C1213.35 220.961 1215.1 222.716 1217.26 222.717Z" fill="white"/>
</g>
<g style="mix-blend-mode:overlay">
<path d="M1005.39 702.389C1007.55 702.39 1009.3 700.637 1009.3 698.474C1009.3 696.311 1007.55 694.556 1005.39 694.555C1003.23 694.554 1001.47 696.307 1001.47 698.47C1001.47 700.633 1003.22 702.387 1005.39 702.389Z" fill="white"/>
</g>
<g style="mix-blend-mode:overlay">
<path d="M1025.86 533.052C1028.02 533.053 1029.77 531.301 1029.78 529.137C1029.78 526.974 1028.02 525.22 1025.86 525.219C1023.7 525.217 1021.95 526.97 1021.94 529.133C1021.94 531.296 1023.7 533.051 1025.86 533.052Z" fill="white"/>
</g>
</g>
</g>
<defs>
<linearGradient id="paint0_linear_124_3085" x1="287.339" y1="-28.743" x2="287.061" y2="461.092" gradientUnits="userSpaceOnUse">
<stop stop-color="#000AFF" stop-opacity="0"/>
<stop offset="1" stop-color="white"/>
</linearGradient>
<linearGradient id="paint1_linear_124_3085" x1="1129.59" y1="355.818" x2="1049" y2="1006.5" gradientUnits="userSpaceOnUse">
<stop stop-color="white"/>
<stop offset="1" stop-color="#0029FF" stop-opacity="0"/>
</linearGradient>
</defs>
</svg>
