<svg width="100" height="100" viewBox="0 0 100 100" fill="none" xmlns="http://www.w3.org/2000/svg">
<path fill-rule="evenodd" clip-rule="evenodd" d="M49.9999 64.077C65.3412 64.077 77.7777 57.7743 77.7777 50C77.7777 42.2257 65.3412 35.923 49.9999 35.923C34.659 35.923 22.2222 42.2257 22.2222 50C22.2222 57.7743 34.659 64.077 49.9999 64.077Z" fill="#6E81B6"/>
<path fill-rule="evenodd" clip-rule="evenodd" d="M55.6297 54.5499L57.0075 47.4585C57.3186 45.8579 57.0599 44.6642 56.2393 43.9098C55.4443 43.1799 54.0947 42.8248 52.1136 42.8248H49.7274L50.4099 39.3114C50.4227 39.246 50.4209 39.1786 50.4045 39.114C50.3882 39.0494 50.3577 38.9892 50.3154 38.9377C50.273 38.8863 50.2198 38.8449 50.1595 38.8164C50.0993 38.788 50.0335 38.7733 49.9669 38.7733H46.6734C46.4571 38.7733 46.2714 38.9268 46.23 39.139L44.7665 46.6674C44.6335 45.8203 44.3057 45.0921 43.781 44.4912C42.815 43.3854 41.287 42.8248 39.2391 42.8248H32.8557C32.6394 42.8248 32.4537 42.9783 32.4124 43.1903L29.4508 58.4291C29.4249 58.5618 29.4595 58.6982 29.5455 58.8023C29.6311 58.9068 29.7588 58.9669 29.8942 58.9669H33.2135C33.4298 58.9669 33.6155 58.8134 33.6568 58.6008L34.3733 54.915H36.8441C38.1407 54.915 39.2303 54.7746 40.0808 54.4978C40.9504 54.215 41.7509 53.7353 42.4563 53.075C43.0263 52.5513 43.4972 51.9648 43.8596 51.3324L43.2681 54.3769C43.2423 54.5096 43.2769 54.6466 43.3628 54.7501C43.4485 54.8545 43.5765 54.9147 43.7115 54.9147H47.0049C47.2213 54.9147 47.407 54.7612 47.4483 54.5492L49.0737 46.1844H51.3336C52.2966 46.1844 52.5788 46.3762 52.6557 46.4585C52.7252 46.5338 52.8697 46.7988 52.7074 47.6342L51.3974 54.3766C51.3849 54.4419 51.3869 54.5093 51.4034 54.5738C51.4198 54.6383 51.4503 54.6983 51.4927 54.7497C51.535 54.8011 51.5882 54.8425 51.6484 54.8709C51.7085 54.8994 51.7742 54.9142 51.8408 54.9143H55.1867C55.2913 54.9145 55.3928 54.8783 55.4737 54.8118C55.5546 54.7453 55.6097 54.6527 55.6297 54.5499ZM40.3606 48.6905C40.1537 49.7536 39.7641 50.5118 39.2018 50.9441C38.6308 51.3844 37.7175 51.6075 36.4871 51.6075H35.0159L36.0796 46.133H37.9818C39.3791 46.133 39.9421 46.4317 40.1681 46.6819C40.4815 47.0292 40.548 47.7242 40.3606 48.6905ZM69.5025 44.4912C68.5368 43.3854 67.0088 42.8248 64.9608 42.8248H58.5775C58.3609 42.8248 58.1754 42.9783 58.1341 43.1903L55.1729 58.4291C55.1467 58.5618 55.1813 58.6982 55.2673 58.8023C55.3533 58.9064 55.4812 58.9669 55.6156 58.9669H58.9352C59.1519 58.9669 59.3373 58.8134 59.3786 58.6008L60.0951 54.915H62.5663C63.8631 54.915 64.9518 54.7746 65.8026 54.4978C66.6726 54.215 67.473 53.7353 68.178 53.075C68.7665 52.5345 69.2506 51.9269 69.6173 51.2709C69.9841 50.6149 70.2472 49.8833 70.4007 49.096C70.7779 47.1542 70.4759 45.605 69.5025 44.4912ZM66.2708 48.6905C66.0636 49.7536 65.674 50.5118 65.1123 50.9441C64.541 51.3844 63.6277 51.6075 62.3976 51.6075H60.9261L61.9895 46.133H63.892C65.2894 46.133 65.8523 46.4317 66.0787 46.6819C66.3914 47.0292 66.4583 47.7242 66.2708 48.6905Z" fill="white"/>
<path fill-rule="evenodd" clip-rule="evenodd" d="M37.8873 45.6813C39.1483 45.6813 39.989 45.9141 40.4092 46.3796C40.8291 46.8452 40.9292 47.6446 40.7095 48.7769C40.4798 49.9562 40.0377 50.798 39.3827 51.3025C38.7277 51.807 37.7308 52.0589 36.3926 52.0589H34.3732L35.6127 45.6813H37.8873ZM29.7993 58.5151H33.1186L33.9063 54.4639H36.7497C38.0042 54.4639 39.0364 54.3319 39.8466 54.0682C40.6568 53.8046 41.3934 53.3629 42.0561 52.7425C42.6124 52.2316 43.0625 51.6673 43.4071 51.0506C43.7514 50.4339 43.9959 49.7537 44.1407 49.0097C44.492 47.2032 44.227 45.7962 43.3463 44.7885C42.4659 43.7805 41.0649 43.2766 39.1446 43.2766H32.7612L29.7993 58.5151ZM46.5786 39.2251H49.8721L49.0847 43.2766H52.0191C53.8645 43.2766 55.1386 43.5984 55.8392 44.2423C56.5399 44.8863 56.7499 45.9299 56.4697 47.3725L55.0919 54.4639H51.746L53.056 47.7212C53.2048 46.954 53.1504 46.431 52.8914 46.1519C52.6325 45.8731 52.0812 45.7334 51.2388 45.7334H48.6068L46.9101 54.4639H43.6167L46.5786 39.2251ZM63.7976 45.6813C65.0586 45.6813 65.899 45.9141 66.3195 46.3796C66.7394 46.8452 66.8391 47.6446 66.6195 48.7769C66.3904 49.9562 65.9483 50.798 65.293 51.3025C64.6384 51.807 63.6411 52.0589 62.3035 52.0589H60.2841L61.5233 45.6813H63.7976ZM55.7089 58.5151H59.0286L59.8159 54.4639H62.6593C63.9142 54.4639 64.9464 54.3319 65.7565 54.0682C66.5667 53.8046 67.3033 53.3629 67.9661 52.7425C68.5223 52.2316 68.9724 51.6673 69.3167 51.0506C69.661 50.4339 69.9059 49.7537 70.051 49.0097C70.402 47.2032 70.137 45.7962 69.2566 44.7885C68.3755 43.7805 66.9748 43.2766 65.0545 43.2766H58.6712L55.7089 58.5151Z" fill="black"/>
</svg>
