<svg width="96" height="100" viewBox="0 0 96 100" fill="none" xmlns="http://www.w3.org/2000/svg">
<g filter="url(#filter0_d_34_28519)">
<path d="M43 20.8868C46.094 19.1004 49.906 19.1004 53 20.8868L62.9186 26.6132C66.0126 28.3996 67.9186 31.7008 67.9186 35.2735V46.7265C67.9186 50.2992 66.0126 53.6004 62.9186 55.3868L53 61.1132C49.906 62.8996 46.094 62.8996 43 61.1133L33.0814 55.3868C29.9874 53.6004 28.0814 50.2992 28.0814 46.7265V35.2735C28.0814 31.7008 29.9874 28.3996 33.0814 26.6132L43 20.8868Z" fill="#1C55E9"/>
<path d="M43.5 21.7528C46.2846 20.1451 49.7154 20.1451 52.5 21.7528L62.4186 27.4793C65.2032 29.087 66.9186 32.0581 66.9186 35.2735V46.7265C66.9186 49.9419 65.2032 52.913 62.4186 54.5207L52.5 60.2472C49.7154 61.8549 46.2846 61.8549 43.5 60.2472L33.5814 54.5207C30.7968 52.913 29.0814 49.9419 29.0814 46.7265V35.2735C29.0814 32.0581 30.7968 29.087 33.5814 27.4793L43.5 21.7528Z" stroke="white" stroke-width="2"/>
</g>
<defs>
<filter id="filter0_d_34_28519" x="0.081543" y="0.546875" width="95.8369" height="98.9062" filterUnits="userSpaceOnUse" color-interpolation-filters="sRGB">
<feFlood flood-opacity="0" result="BackgroundImageFix"/>
<feColorMatrix in="SourceAlpha" type="matrix" values="0 0 0 0 0 0 0 0 0 0 0 0 0 0 0 0 0 0 127 0" result="hardAlpha"/>
<feOffset dy="9"/>
<feGaussianBlur stdDeviation="14"/>
<feComposite in2="hardAlpha" operator="out"/>
<feColorMatrix type="matrix" values="0 0 0 0 0.210347 0 0 0 0 0.423283 0 0 0 0 0.970833 0 0 0 0.54 0"/>
<feBlend mode="normal" in2="BackgroundImageFix" result="effect1_dropShadow_34_28519"/>
<feBlend mode="normal" in="SourceGraphic" in2="effect1_dropShadow_34_28519" result="shape"/>
</filter>
</defs>
</svg>
