<svg width="45" height="42" viewBox="0 0 45 42" fill="none" xmlns="http://www.w3.org/2000/svg">
<path d="M40.3906 41.125H3.67188C1.64647 41.125 0 39.4771 0 37.4531V21.2969C0 20.8915 0.329 20.5625 0.734375 20.5625C1.13975 20.5625 1.46875 20.8915 1.46875 21.2969V37.4531C1.46875 38.6678 2.45722 39.6562 3.67188 39.6562H40.3906C41.6053 39.6562 42.5938 38.6678 42.5938 37.4531V21.2969C42.5938 20.8915 42.9227 20.5625 43.3281 20.5625C43.7335 20.5625 44.0625 20.8915 44.0625 21.2969V37.4531C44.0625 39.4771 42.416 41.125 40.3906 41.125Z" fill="#1C55E9"/>
<path d="M30.1094 5.875C29.704 5.875 29.375 5.546 29.375 5.14062C29.375 3.11669 27.7285 1.46875 25.7031 1.46875H18.3594C16.334 1.46875 14.6875 3.11669 14.6875 5.14062C14.6875 5.546 14.3585 5.875 13.9531 5.875C13.5477 5.875 13.2188 5.546 13.2188 5.14062C13.2188 2.30594 15.5247 0 18.3594 0H25.7031C28.5378 0 30.8438 2.30594 30.8438 5.14062C30.8438 5.546 30.5147 5.875 30.1094 5.875Z" fill="#1C55E9"/>
<path d="M19.8281 26.4375H15.4219C7.72856 26.4375 1.46875 20.1777 1.46875 12.4844V8.07812C1.46875 7.67275 1.13975 7.34375 0.734375 7.34375C0.329 7.34375 0 7.67275 0 8.07812V12.4844C0 20.9884 6.91781 27.9062 15.4219 27.9062H19.8281V26.4375Z" fill="#1C55E9"/>
<path d="M43.3281 7.34375H8.07812C7.67275 7.34375 7.34375 7.67275 7.34375 8.07812C7.34375 8.4835 7.67275 8.8125 8.07812 8.8125H42.5938V12.4844C42.5938 20.1777 36.3339 26.4375 28.6406 26.4375H24.2344V27.9062H28.6406C37.1447 27.9062 44.0625 20.9884 44.0625 12.4844V8.07812C44.0625 7.67275 43.7335 7.34375 43.3281 7.34375Z" fill="#1C55E9"/>
<path d="M24.2344 32.3125H19.8281C19.4227 32.3125 19.0938 31.9835 19.0938 31.5781V25.7031C19.0938 25.2977 19.4227 24.9688 19.8281 24.9688H24.2344C24.6398 24.9688 24.9688 25.2977 24.9688 25.7031V31.5781C24.9688 31.9835 24.6398 32.3125 24.2344 32.3125ZM20.5625 30.8438H23.5V26.4375H20.5625V30.8438Z" fill="#1C55E9"/>
<path d="M5.14062 8.8125C5.54621 8.8125 5.875 8.48371 5.875 8.07812C5.875 7.67254 5.54621 7.34375 5.14062 7.34375C4.73504 7.34375 4.40625 7.67254 4.40625 8.07812C4.40625 8.48371 4.73504 8.8125 5.14062 8.8125Z" fill="#1C55E9"/>
</svg>
