<svg width="78" height="70" viewBox="0 0 78 70" fill="none" xmlns="http://www.w3.org/2000/svg">
<path d="M76.4816 20.7407C76.1378 20.7407 75.8081 20.6042 75.5649 20.3611C75.3218 20.118 75.1853 19.7882 75.1853 19.4444V2.59259H37.5927C37.2489 2.59259 36.9192 2.45602 36.6761 2.21292C36.433 1.96981 36.2964 1.6401 36.2964 1.2963C36.2964 0.952497 36.433 0.622779 36.6761 0.379676C36.9192 0.136574 37.2489 0 37.5927 0L76.4816 0C76.8254 0 77.1551 0.136574 77.3982 0.379676C77.6413 0.622779 77.7779 0.952497 77.7779 1.2963V19.4444C77.7779 19.7882 77.6413 20.118 77.3982 20.3611C77.1551 20.6042 76.8254 20.7407 76.4816 20.7407Z" fill="#1C55E9"/>
<path d="M1.2963 20.7407C0.952497 20.7407 0.622779 20.6042 0.379676 20.3611C0.136574 20.118 0 19.7882 0 19.4444V1.2963C0 0.952497 0.136574 0.622779 0.379676 0.379676C0.622779 0.136574 0.952497 0 1.2963 0L37.5926 0C37.9364 0 38.2661 0.136574 38.5092 0.379676C38.7523 0.622779 38.8889 0.952497 38.8889 1.2963C38.8889 1.6401 38.7523 1.96981 38.5092 2.21292C38.2661 2.45602 37.9364 2.59259 37.5926 2.59259H2.59259V19.4444C2.59259 19.7882 2.45602 20.118 2.21292 20.3611C1.96981 20.6042 1.6401 20.7407 1.2963 20.7407Z" fill="#1C55E9"/>
<path d="M69.9998 14.2593C69.9998 14.5157 69.9238 14.7663 69.7814 14.9795C69.6389 15.1927 69.4365 15.3588 69.1996 15.4569C68.9627 15.555 68.7021 15.5807 68.4506 15.5307C68.1992 15.4807 67.9682 15.3572 67.7869 15.1759C67.6056 14.9946 67.4822 14.7637 67.4321 14.5122C67.3821 14.2607 67.4078 14.0001 67.5059 13.7632C67.604 13.5264 67.7702 13.3239 67.9833 13.1815C68.1965 13.039 68.4471 12.963 68.7035 12.963C69.0473 12.963 69.377 13.0996 69.6201 13.3427C69.8632 13.5858 69.9998 13.9155 69.9998 14.2593Z" fill="#1C55E9"/>
<path d="M64.8148 14.2593C64.8148 14.5157 64.7387 14.7663 64.5963 14.9795C64.4539 15.1927 64.2514 15.3588 64.0145 15.4569C63.7777 15.555 63.517 15.5807 63.2656 15.5307C63.0141 15.4807 62.7831 15.3572 62.6018 15.1759C62.4206 14.9946 62.2971 14.7637 62.2471 14.5122C62.1971 14.2607 62.2227 14.0001 62.3208 13.7632C62.419 13.5264 62.5851 13.3239 62.7983 13.1815C63.0115 13.039 63.2621 12.963 63.5185 12.963C63.8623 12.963 64.192 13.0996 64.4351 13.3427C64.6782 13.5858 64.8148 13.9155 64.8148 14.2593Z" fill="#1C55E9"/>
<path d="M72.5926 9.07413C72.5926 9.33051 72.5166 9.58114 72.3741 9.79431C72.2317 10.0075 72.0292 10.1736 71.7924 10.2717C71.5555 10.3699 71.2949 10.3955 71.0434 10.3455C70.7919 10.2955 70.561 10.172 70.3797 9.99075C70.1984 9.80946 70.0749 9.57848 70.0249 9.32702C69.9749 9.07557 70.0006 8.81492 70.0987 8.57806C70.1968 8.34119 70.3629 8.13874 70.5761 7.9963C70.7893 7.85386 71.0399 7.77783 71.2963 7.77783C71.6401 7.77783 71.9698 7.91441 72.2129 8.15751C72.456 8.40061 72.5926 8.73033 72.5926 9.07413Z" fill="#1C55E9"/>
<path d="M67.4075 9.07413C67.4075 9.33051 67.3315 9.58114 67.1891 9.79431C67.0466 10.0075 66.8442 10.1736 66.6073 10.2717C66.3704 10.3699 66.1098 10.3955 65.8583 10.3455C65.6069 10.2955 65.3759 10.172 65.1946 9.99075C65.0133 9.80946 64.8899 9.57848 64.8398 9.32702C64.7898 9.07557 64.8155 8.81492 64.9136 8.57806C65.0117 8.34119 65.1779 8.13874 65.3911 7.9963C65.6042 7.85386 65.8549 7.77783 66.1112 7.77783C66.455 7.77783 66.7848 7.91441 67.0279 8.15751C67.271 8.40061 67.4075 8.73033 67.4075 9.07413Z" fill="#1C55E9"/>
<path d="M62.222 9.07413C62.222 9.33051 62.146 9.58114 62.0035 9.79431C61.8611 10.0075 61.6586 10.1736 61.4218 10.2717C61.1849 10.3699 60.9243 10.3955 60.6728 10.3455C60.4213 10.2955 60.1904 10.172 60.0091 9.99075C59.8278 9.80946 59.7043 9.57848 59.6543 9.32702C59.6043 9.07557 59.63 8.81492 59.7281 8.57806C59.8262 8.34119 59.9923 8.13874 60.2055 7.9963C60.4187 7.85386 60.6693 7.77783 60.9257 7.77783C61.2695 7.77783 61.5992 7.91441 61.8423 8.15751C62.0854 8.40061 62.222 8.73033 62.222 9.07413Z" fill="#1C55E9"/>
<path d="M57.0369 9.07413C57.0369 9.33051 56.9609 9.58114 56.8185 9.79431C56.676 10.0075 56.4736 10.1736 56.2367 10.2717C55.9998 10.3699 55.7392 10.3955 55.4877 10.3455C55.2363 10.2955 55.0053 10.172 54.824 9.99075C54.6427 9.80946 54.5193 9.57848 54.4692 9.32702C54.4192 9.07557 54.4449 8.81492 54.543 8.57806C54.6411 8.34119 54.8073 8.13874 55.0205 7.9963C55.2336 7.85386 55.4842 7.77783 55.7406 7.77783C56.0844 7.77783 56.4142 7.91441 56.6573 8.15751C56.9004 8.40061 57.0369 8.73033 57.0369 9.07413Z" fill="#1C55E9"/>
<path d="M51.8519 9.07413C51.8519 9.33051 51.7758 9.58114 51.6334 9.79431C51.491 10.0075 51.2885 10.1736 51.0516 10.2717C50.8148 10.3699 50.5541 10.3955 50.3027 10.3455C50.0512 10.2955 49.8202 10.172 49.639 9.99075C49.4577 9.80946 49.3342 9.57848 49.2842 9.32702C49.2342 9.07557 49.2598 8.81492 49.358 8.57806C49.4561 8.34119 49.6222 8.13874 49.8354 7.9963C50.0486 7.85386 50.2992 7.77783 50.5556 7.77783C50.8994 7.77783 51.2291 7.91441 51.4722 8.15751C51.7153 8.40061 51.8519 8.73033 51.8519 9.07413Z" fill="#1C55E9"/>
<path d="M46.6668 9.07413C46.6668 9.33051 46.5908 9.58114 46.4483 9.79431C46.3059 10.0075 46.1035 10.1736 45.8666 10.2717C45.6297 10.3699 45.3691 10.3955 45.1176 10.3455C44.8662 10.2955 44.6352 10.172 44.4539 9.99075C44.2726 9.80946 44.1491 9.57848 44.0991 9.32702C44.0491 9.07557 44.0748 8.81492 44.1729 8.57806C44.271 8.34119 44.4372 8.13874 44.6503 7.9963C44.8635 7.85386 45.1141 7.77783 45.3705 7.77783C45.7143 7.77783 46.044 7.91441 46.2871 8.15751C46.5302 8.40061 46.6668 8.73033 46.6668 9.07413Z" fill="#1C55E9"/>
<path d="M41.4813 9.07413C41.4813 9.33051 41.4052 9.58114 41.2628 9.79431C41.1204 10.0075 40.9179 10.1736 40.681 10.2717C40.4442 10.3699 40.1835 10.3955 39.9321 10.3455C39.6806 10.2955 39.4496 10.172 39.2683 9.99075C39.0871 9.80946 38.9636 9.57848 38.9136 9.32702C38.8636 9.07557 38.8892 8.81492 38.9873 8.57806C39.0855 8.34119 39.2516 8.13874 39.4648 7.9963C39.678 7.85386 39.9286 7.77783 40.185 7.77783C40.5288 7.77783 40.8585 7.91441 41.1016 8.15751C41.3447 8.40061 41.4813 8.73033 41.4813 9.07413Z" fill="#1C55E9"/>
<path d="M36.2962 9.07413C36.2962 9.33051 36.2202 9.58114 36.0777 9.79431C35.9353 10.0075 35.7328 10.1736 35.496 10.2717C35.2591 10.3699 34.9985 10.3955 34.747 10.3455C34.4956 10.2955 34.2646 10.172 34.0833 9.99075C33.902 9.80946 33.7785 9.57848 33.7285 9.32702C33.6785 9.07557 33.7042 8.81492 33.8023 8.57806C33.9004 8.34119 34.0666 8.13874 34.2797 7.9963C34.4929 7.85386 34.7435 7.77783 34.9999 7.77783C35.3437 7.77783 35.6734 7.91441 35.9165 8.15751C36.1596 8.40061 36.2962 8.73033 36.2962 9.07413Z" fill="#1C55E9"/>
<path d="M31.1111 9.07413C31.1111 9.33051 31.0351 9.58114 30.8927 9.79431C30.7502 10.0075 30.5478 10.1736 30.3109 10.2717C30.0741 10.3699 29.8134 10.3955 29.562 10.3455C29.3105 10.2955 29.0795 10.172 28.8982 9.99075C28.7169 9.80946 28.5935 9.57848 28.5435 9.32702C28.4934 9.07557 28.5191 8.81492 28.6172 8.57806C28.7153 8.34119 28.8815 8.13874 29.0947 7.9963C29.3078 7.85386 29.5585 7.77783 29.8149 7.77783C30.1587 7.77783 30.4884 7.91441 30.7315 8.15751C30.9746 8.40061 31.1111 8.73033 31.1111 9.07413Z" fill="#1C55E9"/>
<path d="M25.9261 9.07413C25.9261 9.33051 25.8501 9.58114 25.7076 9.79431C25.5652 10.0075 25.3627 10.1736 25.1259 10.2717C24.889 10.3699 24.6284 10.3955 24.3769 10.3455C24.1254 10.2955 23.8945 10.172 23.7132 9.99075C23.5319 9.80946 23.4084 9.57848 23.3584 9.32702C23.3084 9.07557 23.3341 8.81492 23.4322 8.57806C23.5303 8.34119 23.6964 8.13874 23.9096 7.9963C24.1228 7.85386 24.3734 7.77783 24.6298 7.77783C24.9736 7.77783 25.3033 7.91441 25.5464 8.15751C25.7895 8.40061 25.9261 8.73033 25.9261 9.07413Z" fill="#1C55E9"/>
<path d="M20.7405 9.07413C20.7405 9.33051 20.6645 9.58114 20.5221 9.79431C20.3796 10.0075 20.1772 10.1736 19.9403 10.2717C19.7035 10.3699 19.4428 10.3955 19.1914 10.3455C18.9399 10.2955 18.7089 10.172 18.5276 9.99075C18.3463 9.80946 18.2229 9.57848 18.1729 9.32702C18.1228 9.07557 18.1485 8.81492 18.2466 8.57806C18.3447 8.34119 18.5109 8.13874 18.7241 7.9963C18.9372 7.85386 19.1879 7.77783 19.4442 7.77783C19.788 7.77783 20.1178 7.91441 20.3609 8.15751C20.604 8.40061 20.7405 8.73033 20.7405 9.07413Z" fill="#1C55E9"/>
<path d="M15.5555 9.07413C15.5555 9.33051 15.4795 9.58114 15.337 9.79431C15.1946 10.0075 14.9921 10.1736 14.7553 10.2717C14.5184 10.3699 14.2577 10.3955 14.0063 10.3455C13.7548 10.2955 13.5239 10.172 13.3426 9.99075C13.1613 9.80946 13.0378 9.57848 12.9878 9.32702C12.9378 9.07557 12.9635 8.81492 13.0616 8.57806C13.1597 8.34119 13.3258 8.13874 13.539 7.9963C13.7522 7.85386 14.0028 7.77783 14.2592 7.77783C14.603 7.77783 14.9327 7.91441 15.1758 8.15751C15.4189 8.40061 15.5555 8.73033 15.5555 9.07413Z" fill="#1C55E9"/>
<path d="M10.3704 9.07413C10.3704 9.33051 10.2944 9.58114 10.152 9.79431C10.0095 10.0075 9.80707 10.1736 9.5702 10.2717C9.33333 10.3699 9.07269 10.3955 8.82123 10.3455C8.56978 10.2955 8.3388 10.172 8.15751 9.99075C7.97622 9.80946 7.85276 9.57848 7.80274 9.32702C7.75272 9.07557 7.77839 8.81492 7.87651 8.57806C7.97462 8.34119 8.14077 8.13874 8.35395 7.9963C8.56712 7.85386 8.81775 7.77783 9.07413 7.77783C9.41793 7.77783 9.74765 7.91441 9.99075 8.15751C10.2339 8.40061 10.3704 8.73033 10.3704 9.07413Z" fill="#1C55E9"/>
<path d="M54.4446 24.6297C54.4446 24.8861 54.3686 25.1367 54.2262 25.3499C54.0837 25.563 53.8813 25.7292 53.6444 25.8273C53.4076 25.9254 53.1469 25.9511 52.8955 25.9011C52.644 25.851 52.413 25.7276 52.2317 25.5463C52.0504 25.365 51.927 25.134 51.877 24.8826C51.8269 24.6311 51.8526 24.3705 51.9507 24.1336C52.0488 23.8967 52.215 23.6943 52.4282 23.5518C52.6413 23.4094 52.892 23.3334 53.1483 23.3334C53.4921 23.3334 53.8219 23.4699 54.065 23.713C54.3081 23.9562 54.4446 24.2859 54.4446 24.6297Z" fill="#1C55E9"/>
<path d="M51.8519 19.4445C51.8519 19.7009 51.7758 19.9515 51.6334 20.1647C51.491 20.3778 51.2885 20.544 51.0516 20.6421C50.8148 20.7402 50.5541 20.7659 50.3027 20.7159C50.0512 20.6659 49.8202 20.5424 49.639 20.3611C49.4577 20.1798 49.3342 19.9488 49.2842 19.6974C49.2342 19.4459 49.2598 19.1853 49.358 18.9484C49.4561 18.7116 49.6222 18.5091 49.8354 18.3667C50.0486 18.2242 50.2992 18.1482 50.5556 18.1482C50.8994 18.1482 51.2291 18.2848 51.4722 18.5279C51.7153 18.771 51.8519 19.1007 51.8519 19.4445Z" fill="#1C55E9"/>
<path d="M46.6668 19.4445C46.6668 19.7009 46.5908 19.9515 46.4483 20.1647C46.3059 20.3778 46.1035 20.544 45.8666 20.6421C45.6297 20.7402 45.3691 20.7659 45.1176 20.7159C44.8662 20.6659 44.6352 20.5424 44.4539 20.3611C44.2726 20.1798 44.1491 19.9488 44.0991 19.6974C44.0491 19.4459 44.0748 19.1853 44.1729 18.9484C44.271 18.7116 44.4372 18.5091 44.6503 18.3667C44.8635 18.2242 45.1141 18.1482 45.3705 18.1482C45.7143 18.1482 46.044 18.2848 46.2871 18.5279C46.5302 18.771 46.6668 19.1007 46.6668 19.4445Z" fill="#1C55E9"/>
<path d="M41.4813 19.4445C41.4813 19.7009 41.4052 19.9515 41.2628 20.1647C41.1204 20.3778 40.9179 20.544 40.681 20.6421C40.4442 20.7402 40.1835 20.7659 39.9321 20.7159C39.6806 20.6659 39.4496 20.5424 39.2683 20.3611C39.0871 20.1798 38.9636 19.9488 38.9136 19.6974C38.8636 19.4459 38.8892 19.1853 38.9873 18.9484C39.0855 18.7116 39.2516 18.5091 39.4648 18.3667C39.678 18.2242 39.9286 18.1482 40.185 18.1482C40.5288 18.1482 40.8585 18.2848 41.1016 18.5279C41.3447 18.771 41.4813 19.1007 41.4813 19.4445Z" fill="#1C55E9"/>
<path d="M36.2962 19.4445C36.2962 19.7009 36.2202 19.9515 36.0777 20.1647C35.9353 20.3778 35.7328 20.544 35.496 20.6421C35.2591 20.7402 34.9985 20.7659 34.747 20.7159C34.4956 20.6659 34.2646 20.5424 34.0833 20.3611C33.902 20.1798 33.7785 19.9488 33.7285 19.6974C33.6785 19.4459 33.7042 19.1853 33.8023 18.9484C33.9004 18.7116 34.0666 18.5091 34.2797 18.3667C34.4929 18.2242 34.7435 18.1482 34.9999 18.1482C35.3437 18.1482 35.6734 18.2848 35.9165 18.5279C36.1596 18.771 36.2962 19.1007 36.2962 19.4445Z" fill="#1C55E9"/>
<path d="M31.1111 19.4445C31.1111 19.7009 31.0351 19.9515 30.8927 20.1647C30.7502 20.3778 30.5478 20.544 30.3109 20.6421C30.0741 20.7402 29.8134 20.7659 29.562 20.7159C29.3105 20.6659 29.0795 20.5424 28.8982 20.3611C28.7169 20.1798 28.5935 19.9488 28.5435 19.6974C28.4934 19.4459 28.5191 19.1853 28.6172 18.9484C28.7153 18.7116 28.8815 18.5091 29.0947 18.3667C29.3078 18.2242 29.5585 18.1482 29.8149 18.1482C30.1587 18.1482 30.4884 18.2848 30.7315 18.5279C30.9746 18.771 31.1111 19.1007 31.1111 19.4445Z" fill="#1C55E9"/>
<path d="M25.9261 19.4445C25.9261 19.7009 25.8501 19.9515 25.7076 20.1647C25.5652 20.3778 25.3627 20.544 25.1259 20.6421C24.889 20.7402 24.6284 20.7659 24.3769 20.7159C24.1254 20.6659 23.8945 20.5424 23.7132 20.3611C23.5319 20.1798 23.4084 19.9488 23.3584 19.6974C23.3084 19.4459 23.3341 19.1853 23.4322 18.9484C23.5303 18.7116 23.6964 18.5091 23.9096 18.3667C24.1228 18.2242 24.3734 18.1482 24.6298 18.1482C24.9736 18.1482 25.3033 18.2848 25.5464 18.5279C25.7895 18.771 25.9261 19.1007 25.9261 19.4445Z" fill="#1C55E9"/>
<path d="M54.4446 14.2593C54.4446 14.5157 54.3686 14.7663 54.2262 14.9795C54.0837 15.1927 53.8813 15.3588 53.6444 15.4569C53.4076 15.555 53.1469 15.5807 52.8955 15.5307C52.644 15.4807 52.413 15.3572 52.2317 15.1759C52.0504 14.9946 51.927 14.7637 51.877 14.5122C51.8269 14.2607 51.8526 14.0001 51.9507 13.7632C52.0488 13.5264 52.215 13.3239 52.4282 13.1815C52.6413 13.039 52.892 12.963 53.1483 12.963C53.4921 12.963 53.8219 13.0996 54.065 13.3427C54.3081 13.5858 54.4446 13.9155 54.4446 14.2593Z" fill="#1C55E9"/>
<path d="M49.2591 14.2593C49.2591 14.5157 49.1831 14.7663 49.0406 14.9795C48.8982 15.1927 48.6957 15.3588 48.4589 15.4569C48.222 15.555 47.9614 15.5807 47.7099 15.5307C47.4584 15.4807 47.2275 15.3572 47.0462 15.1759C46.8649 14.9946 46.7414 14.7637 46.6914 14.5122C46.6414 14.2607 46.6671 14.0001 46.7652 13.7632C46.8633 13.5264 47.0294 13.3239 47.2426 13.1815C47.4558 13.039 47.7064 12.963 47.9628 12.963C48.3066 12.963 48.6363 13.0996 48.8794 13.3427C49.1225 13.5858 49.2591 13.9155 49.2591 14.2593Z" fill="#1C55E9"/>
<path d="M44.074 14.2593C44.074 14.5157 43.998 14.7663 43.8556 14.9795C43.7131 15.1927 43.5107 15.3588 43.2738 15.4569C43.0369 15.555 42.7763 15.5807 42.5248 15.5307C42.2734 15.4807 42.0424 15.3572 41.8611 15.1759C41.6798 14.9946 41.5564 14.7637 41.5064 14.5122C41.4563 14.2607 41.482 14.0001 41.5801 13.7632C41.6782 13.5264 41.8444 13.3239 42.0576 13.1815C42.2707 13.039 42.5214 12.963 42.7777 12.963C43.1215 12.963 43.4513 13.0996 43.6944 13.3427C43.9375 13.5858 44.074 13.9155 44.074 14.2593Z" fill="#1C55E9"/>
<path d="M38.889 14.2593C38.889 14.5157 38.813 14.7663 38.6705 14.9795C38.5281 15.1927 38.3256 15.3588 38.0888 15.4569C37.8519 15.555 37.5912 15.5807 37.3398 15.5307C37.0883 15.4807 36.8574 15.3572 36.6761 15.1759C36.4948 14.9946 36.3713 14.7637 36.3213 14.5122C36.2713 14.2607 36.2969 14.0001 36.3951 13.7632C36.4932 13.5264 36.6593 13.3239 36.8725 13.1815C37.0857 13.039 37.3363 12.963 37.5927 12.963C37.9365 12.963 38.2662 13.0996 38.5093 13.3427C38.7524 13.5858 38.889 13.9155 38.889 14.2593Z" fill="#1C55E9"/>
<path d="M33.7039 14.2593C33.7039 14.5157 33.6279 14.7663 33.4855 14.9795C33.343 15.1927 33.1406 15.3588 32.9037 15.4569C32.6668 15.555 32.4062 15.5807 32.1547 15.5307C31.9033 15.4807 31.6723 15.3572 31.491 15.1759C31.3097 14.9946 31.1863 14.7637 31.1362 14.5122C31.0862 14.2607 31.1119 14.0001 31.21 13.7632C31.3081 13.5264 31.4743 13.3239 31.6874 13.1815C31.9006 13.039 32.1512 12.963 32.4076 12.963C32.7514 12.963 33.0811 13.0996 33.3242 13.3427C33.5673 13.5858 33.7039 13.9155 33.7039 14.2593Z" fill="#1C55E9"/>
<path d="M28.5184 24.6297C28.5184 24.8861 28.4423 25.1367 28.2999 25.3499C28.1575 25.563 27.955 25.7292 27.7181 25.8273C27.4813 25.9254 27.2206 25.9511 26.9692 25.9011C26.7177 25.851 26.4867 25.7276 26.3055 25.5463C26.1242 25.365 26.0007 25.134 25.9507 24.8826C25.9007 24.6311 25.9263 24.3705 26.0245 24.1336C26.1226 23.8967 26.2887 23.6943 26.5019 23.5518C26.7151 23.4094 26.9657 23.3334 27.2221 23.3334C27.5659 23.3334 27.8956 23.4699 28.1387 23.713C28.3818 23.9562 28.5184 24.2859 28.5184 24.6297Z" fill="#1C55E9"/>
<path d="M28.5184 14.2593C28.5184 14.5157 28.4423 14.7663 28.2999 14.9795C28.1575 15.1927 27.955 15.3588 27.7181 15.4569C27.4813 15.555 27.2206 15.5807 26.9692 15.5307C26.7177 15.4807 26.4867 15.3572 26.3055 15.1759C26.1242 14.9946 26.0007 14.7637 25.9507 14.5122C25.9007 14.2607 25.9263 14.0001 26.0245 13.7632C26.1226 13.5264 26.2887 13.3239 26.5019 13.1815C26.7151 13.039 26.9657 12.963 27.2221 12.963C27.5659 12.963 27.8956 13.0996 28.1387 13.3427C28.3818 13.5858 28.5184 13.9155 28.5184 14.2593Z" fill="#1C55E9"/>
<path d="M23.3333 14.2593C23.3333 14.5157 23.2573 14.7663 23.1149 14.9795C22.9724 15.1927 22.77 15.3588 22.5331 15.4569C22.2962 15.555 22.0356 15.5807 21.7841 15.5307C21.5327 15.4807 21.3017 15.3572 21.1204 15.1759C20.9391 14.9946 20.8156 14.7637 20.7656 14.5122C20.7156 14.2607 20.7413 14.0001 20.8394 13.7632C20.9375 13.5264 21.1037 13.3239 21.3168 13.1815C21.53 13.039 21.7806 12.963 22.037 12.963C22.3808 12.963 22.7105 13.0996 22.9536 13.3427C23.1967 13.5858 23.3333 13.9155 23.3333 14.2593Z" fill="#1C55E9"/>
<path d="M18.1483 14.2593C18.1483 14.5157 18.0722 14.7663 17.9298 14.9795C17.7874 15.1927 17.5849 15.3588 17.348 15.4569C17.1112 15.555 16.8505 15.5807 16.5991 15.5307C16.3476 15.4807 16.1166 15.3572 15.9353 15.1759C15.7541 14.9946 15.6306 14.7637 15.5806 14.5122C15.5306 14.2607 15.5562 14.0001 15.6543 13.7632C15.7525 13.5264 15.9186 13.3239 16.1318 13.1815C16.345 13.039 16.5956 12.963 16.852 12.963C17.1958 12.963 17.5255 13.0996 17.7686 13.3427C18.0117 13.5858 18.1483 13.9155 18.1483 14.2593Z" fill="#1C55E9"/>
<path d="M12.9632 14.2593C12.9632 14.5157 12.8872 14.7663 12.7447 14.9795C12.6023 15.1927 12.3998 15.3588 12.163 15.4569C11.9261 15.555 11.6655 15.5807 11.414 15.5307C11.1626 15.4807 10.9316 15.3572 10.7503 15.1759C10.569 14.9946 10.4455 14.7637 10.3955 14.5122C10.3455 14.2607 10.3712 14.0001 10.4693 13.7632C10.5674 13.5264 10.7335 13.3239 10.9467 13.1815C11.1599 13.039 11.4105 12.963 11.6669 12.963C12.0107 12.963 12.3404 13.0996 12.5835 13.3427C12.8266 13.5858 12.9632 13.9155 12.9632 14.2593Z" fill="#1C55E9"/>
<path d="M7.77765 14.2593C7.77765 14.5157 7.70163 14.7663 7.55919 14.9795C7.41675 15.1927 7.21429 15.3588 6.97743 15.4569C6.74056 15.555 6.47992 15.5807 6.22846 15.5307C5.977 15.4807 5.74603 15.3572 5.56474 15.1759C5.38345 14.9946 5.25999 14.7637 5.20997 14.5122C5.15995 14.2607 5.18562 14.0001 5.28373 13.7632C5.38185 13.5264 5.548 13.3239 5.76117 13.1815C5.97435 13.039 6.22497 12.963 6.48136 12.963C6.82515 12.963 7.15487 13.0996 7.39798 13.3427C7.64108 13.5858 7.77765 13.9155 7.77765 14.2593Z" fill="#1C55E9"/>
<path d="M47.9632 25.926H32.4076C32.0638 25.926 31.7341 25.7894 31.491 25.5463C31.2479 25.3032 31.1113 24.9735 31.1113 24.6297C31.1113 24.2859 31.2479 23.9562 31.491 23.713C31.7341 23.4699 32.0638 23.3334 32.4076 23.3334H47.9632C48.307 23.3334 48.6367 23.4699 48.8798 23.713C49.1229 23.9562 49.2595 24.2859 49.2595 24.6297C49.2595 24.9735 49.1229 25.3032 48.8798 25.5463C48.6367 25.7894 48.307 25.926 47.9632 25.926Z" fill="#1C55E9"/>
<path d="M55.7406 50.5553C51.0999 50.5553 48.6888 42.4146 48.274 40.7813L45.6814 28.8035C45.614 28.4847 45.6668 28.1523 45.8294 27.87C45.9921 27.5877 46.2533 27.3754 46.5629 27.2738L47.9888 26.8331C49.0599 26.522 50.2079 26.6139 51.2158 27.0916C52.2237 27.5693 53.0218 28.3996 53.4592 29.4257C53.5994 29.7386 53.61 30.0944 53.4885 30.4151C53.367 30.7358 53.1234 30.9953 52.811 31.1368C52.6566 31.2099 52.4891 31.251 52.3184 31.2579C52.1477 31.2647 51.9774 31.237 51.8177 31.1765C51.6579 31.116 51.512 31.0239 51.3887 30.9057C51.2654 30.7875 51.1672 30.6457 51.0999 30.4887C50.901 30.0576 50.5513 29.7142 50.1168 29.5232C49.6822 29.3321 49.1927 29.3067 48.7406 29.4516H48.4814L50.8147 40.2109C51.6444 43.322 53.7962 47.9887 55.7666 47.9887C56.1104 47.9887 56.4401 48.1252 56.6832 48.3683C56.9263 48.6114 57.0629 48.9412 57.0629 49.285C57.0629 49.6288 56.9263 49.9585 56.6832 50.2016C56.4401 50.4447 56.1104 50.5813 55.7666 50.5813L55.7406 50.5553Z" fill="#1C55E9"/>
<path d="M76.4817 70C76.1379 70 75.8082 69.8634 75.5651 69.6203C75.322 69.3772 75.1854 69.0475 75.1854 68.7037V54.4444H54.4446V68.7037C54.4446 69.0475 54.3081 69.3772 54.065 69.6203C53.8219 69.8634 53.4921 70 53.1483 70C52.8045 70 52.4748 69.8634 52.2317 69.6203C51.9886 69.3772 51.8521 69.0475 51.8521 68.7037V53.1481C51.8521 52.8043 51.9886 52.4746 52.2317 52.2315C52.4748 51.9884 52.8045 51.8518 53.1483 51.8518H76.4817C76.8255 51.8518 77.1552 51.9884 77.3983 52.2315C77.6414 52.4746 77.778 52.8043 77.778 53.1481V68.7037C77.778 69.0475 77.6414 69.3772 77.3983 69.6203C77.1552 69.8634 76.8255 70 76.4817 70Z" fill="#1C55E9"/>
<path d="M22.037 50.5557C21.6932 50.5557 21.3635 50.4192 21.1204 50.1761C20.8773 49.933 20.7407 49.6032 20.7407 49.2594C20.7407 48.9156 20.8773 48.5859 21.1204 48.3428C21.3635 48.0997 21.6932 47.9631 22.037 47.9631C24.0074 47.9631 26.1592 43.2705 27.0148 40.1854L29.3222 29.478H29.0629C28.6107 29.3387 28.1235 29.3669 27.6903 29.5573C27.2571 29.7477 26.9069 30.0876 26.7037 30.515C26.6364 30.672 26.5382 30.8138 26.4149 30.932C26.2916 31.0502 26.1457 31.1423 25.9859 31.2028C25.8262 31.2633 25.6559 31.291 25.4852 31.2842C25.3145 31.2774 25.147 31.2362 24.9926 31.1631C24.6802 31.0217 24.4365 30.7622 24.3151 30.4415C24.1936 30.1207 24.2041 29.765 24.3444 29.452C24.7772 28.4223 25.5746 27.5884 26.584 27.11C27.5934 26.6316 28.7437 26.5424 29.8148 26.8594L31.2407 27.3002C31.5503 27.4017 31.8115 27.614 31.9741 27.8963C32.1368 28.1786 32.1895 28.511 32.1222 28.8298L29.5296 40.7557C29.0889 42.415 26.6778 50.5557 22.037 50.5557Z" fill="#1C55E9"/>
<path d="M77.7777 45.3704V28.5185C77.7777 27.4871 77.3679 26.498 76.6386 25.7687C75.9093 25.0393 74.9202 24.6296 73.8888 24.6296C73.446 24.6271 73.0066 24.7062 72.5925 24.863V23.3333C72.5925 22.3019 72.1828 21.3128 71.4535 20.5835C70.7241 19.8542 69.735 19.4444 68.7036 19.4444C68.2141 19.4437 67.7293 19.5407 67.2777 19.7296C67.0512 18.9053 66.5612 18.1777 65.8823 17.6581C65.2035 17.1384 64.3733 16.8553 63.5184 16.8518C63.0756 16.8493 62.6362 16.9284 62.2221 17.0852V14.2593C62.2221 13.2279 61.8124 12.2387 61.0831 11.5094C60.3538 10.7801 59.3646 10.3704 58.3332 10.3704C57.3018 10.3704 56.3127 10.7801 55.5834 11.5094C54.8541 12.2387 54.4443 13.2279 54.4443 14.2593V35C54.4443 35.3438 54.5809 35.6735 54.824 35.9166C55.0671 36.1597 55.3968 36.2963 55.7406 36.2963C56.0844 36.2963 56.4142 36.1597 56.6573 35.9166C56.9004 35.6735 57.0369 35.3438 57.0369 35V14.2593C57.0369 13.9155 57.1735 13.5857 57.4166 13.3426C57.6597 13.0995 57.9894 12.963 58.3332 12.963C58.677 12.963 59.0067 13.0995 59.2498 13.3426C59.4929 13.5857 59.6295 13.9155 59.6295 14.2593V29.8148C59.6295 30.1586 59.7661 30.4883 60.0092 30.7314C60.2523 30.9745 60.582 31.1111 60.9258 31.1111C61.2696 31.1111 61.5993 30.9745 61.8424 30.7314C62.0855 30.4883 62.2221 30.1586 62.2221 29.8148V20.7407C62.2221 20.3969 62.3587 20.0672 62.6018 19.8241C62.8449 19.581 63.1746 19.4444 63.5184 19.4444C63.8622 19.4444 64.1919 19.581 64.435 19.8241C64.6781 20.0672 64.8147 20.3969 64.8147 20.7407V29.8148C64.8147 30.1586 64.9513 30.4883 65.1944 30.7314C65.4375 30.9745 65.7672 31.1111 66.111 31.1111C66.4548 31.1111 66.7845 30.9745 67.0276 30.7314C67.2707 30.4883 67.4073 30.1586 67.4073 29.8148V23.3333C67.4073 22.9895 67.5439 22.6598 67.787 22.4167C68.0301 22.1736 68.3598 22.037 68.7036 22.037C69.0474 22.037 69.3771 22.1736 69.6202 22.4167C69.8633 22.6598 69.9999 22.9895 69.9999 23.3333V31.1111C69.9999 31.4549 70.1365 31.7846 70.3796 32.0277C70.6227 32.2708 70.9524 32.4074 71.2962 32.4074C71.64 32.4074 71.9697 32.2708 72.2128 32.0277C72.4559 31.7846 72.5925 31.4549 72.5925 31.1111V28.5185C72.5925 28.1747 72.7291 27.845 72.9722 27.6019C73.2153 27.3588 73.545 27.2222 73.8888 27.2222C74.2326 27.2222 74.5623 27.3588 74.8054 27.6019C75.0485 27.845 75.1851 28.1747 75.1851 28.5185V45.3704C75.1555 46.8559 74.6863 48.2994 73.8369 49.5185C73.1029 50.5943 72.673 51.8483 72.5925 53.1481H75.1851C75.2769 52.304 75.5899 51.4991 76.0925 50.8148C77.166 49.1998 77.7511 47.3095 77.7777 45.3704Z" fill="#1C55E9"/>
<path d="M3.94074 49.5185C3.09134 48.2994 2.62221 46.8559 2.59259 45.3704V28.5185C2.59259 28.1747 2.72917 27.845 2.97227 27.6019C3.21537 27.3588 3.54509 27.2222 3.88889 27.2222C4.23269 27.2222 4.56241 27.3588 4.80551 27.6019C5.04861 27.845 5.18519 28.1747 5.18519 28.5185V31.1111C5.18519 31.4549 5.32176 31.7846 5.56486 32.0277C5.80796 32.2708 6.13768 32.4074 6.48148 32.4074C6.82528 32.4074 7.155 32.2708 7.3981 32.0277C7.6412 31.7846 7.77778 31.4549 7.77778 31.1111V23.3333C7.77778 22.9895 7.91435 22.6598 8.15745 22.4167C8.40056 22.1736 8.73028 22.037 9.07407 22.037C9.41787 22.037 9.74759 22.1736 9.99069 22.4167C10.2338 22.6598 10.3704 22.9895 10.3704 23.3333V29.8148C10.3704 30.1586 10.5069 30.4883 10.75 30.7314C10.9932 30.9745 11.3229 31.1111 11.6667 31.1111C12.0105 31.1111 12.3402 30.9745 12.5833 30.7314C12.8264 30.4883 12.963 30.1586 12.963 29.8148V20.7407C12.963 20.3969 13.0995 20.0672 13.3426 19.8241C13.5857 19.581 13.9155 19.4444 14.2593 19.4444C14.6031 19.4444 14.9328 19.581 15.1759 19.8241C15.419 20.0672 15.5556 20.3969 15.5556 20.7407V29.8148C15.5556 30.1586 15.6921 30.4883 15.9352 30.7314C16.1783 30.9745 16.5081 31.1111 16.8519 31.1111C17.1957 31.1111 17.5254 30.9745 17.7685 30.7314C18.0116 30.4883 18.1481 30.1586 18.1481 29.8148V14.2593C18.1481 13.9155 18.2847 13.5857 18.5278 13.3426C18.7709 13.0995 19.1006 12.963 19.4444 12.963C19.7882 12.963 20.118 13.0995 20.3611 13.3426C20.6042 13.5857 20.7407 13.9155 20.7407 14.2593V35C20.7407 35.3438 20.8773 35.6735 21.1204 35.9166C21.3635 36.1597 21.6932 36.2963 22.037 36.2963C22.3808 36.2963 22.7106 36.1597 22.9537 35.9166C23.1968 35.6735 23.3333 35.3438 23.3333 35V14.2593C23.3333 13.2279 22.9236 12.2387 22.1943 11.5094C21.465 10.7801 20.4758 10.3704 19.4444 10.3704C18.413 10.3704 17.4239 10.7801 16.6946 11.5094C15.9653 12.2387 15.5556 13.2279 15.5556 14.2593V17.0852C15.1415 16.9284 14.702 16.8493 14.2593 16.8518C13.4044 16.8553 12.5741 17.1384 11.8953 17.6581C11.2165 18.1777 10.7265 18.9053 10.5 19.7296C10.0484 19.5407 9.56362 19.4437 9.07407 19.4444C8.04268 19.4444 7.05352 19.8542 6.32421 20.5835C5.59491 21.3128 5.18519 22.3019 5.18519 23.3333V24.863C4.77109 24.7062 4.33165 24.6271 3.88889 24.6296C2.85749 24.6296 1.86834 25.0393 1.13903 25.7687C0.409721 26.498 0 27.4871 0 28.5185L0 45.3704C0.0265911 47.3095 0.611686 49.1998 1.68519 50.8148C2.1878 51.4991 2.50082 52.304 2.59259 53.1481H5.18519C5.10468 51.8483 4.67474 50.5943 3.94074 49.5185Z" fill="#1C55E9"/>
<path d="M24.6296 70C24.2858 70 23.9561 69.8634 23.713 69.6203C23.4699 69.3772 23.3333 69.0475 23.3333 68.7037V54.4444H2.59259V68.7037C2.59259 69.0475 2.45602 69.3772 2.21292 69.6203C1.96981 69.8634 1.6401 70 1.2963 70C0.952497 70 0.622779 69.8634 0.379676 69.6203C0.136574 69.3772 0 69.0475 0 68.7037V53.1481C0 52.8043 0.136574 52.4746 0.379676 52.2315C0.622779 51.9884 0.952497 51.8518 1.2963 51.8518H24.6296C24.9734 51.8518 25.3031 51.9884 25.5463 52.2315C25.7894 52.4746 25.9259 52.8043 25.9259 53.1481V68.7037C25.9259 69.0475 25.7894 69.3772 25.5463 69.6203C25.3031 69.8634 24.9734 70 24.6296 70Z" fill="#1C55E9"/>
</svg>
