<svg width="44" height="43" viewBox="0 0 44 43" fill="none" xmlns="http://www.w3.org/2000/svg">
<path d="M42.3281 8.28125H1.20312C0.79775 8.28125 0.46875 7.95225 0.46875 7.54688V3.14062C0.46875 1.92597 1.45722 0.9375 2.67188 0.9375H40.8594C42.074 0.9375 43.0625 1.92597 43.0625 3.14062V7.54688C43.0625 7.95225 42.7335 8.28125 42.3281 8.28125ZM1.9375 6.8125H41.5938V3.14062C41.5938 2.73672 41.2633 2.40625 40.8594 2.40625H2.67188C2.26797 2.40625 1.9375 2.73672 1.9375 3.14062V6.8125Z" fill="#1C55E9"/>
<path d="M10.0156 5.34375C10.4212 5.34375 10.75 5.01496 10.75 4.60938C10.75 4.20379 10.4212 3.875 10.0156 3.875C9.61004 3.875 9.28125 4.20379 9.28125 4.60938C9.28125 5.01496 9.61004 5.34375 10.0156 5.34375Z" fill="#1C55E9"/>
<path d="M7.07812 5.34375C7.48371 5.34375 7.8125 5.01496 7.8125 4.60938C7.8125 4.20379 7.48371 3.875 7.07812 3.875C6.67254 3.875 6.34375 4.20379 6.34375 4.60938C6.34375 5.01496 6.67254 5.34375 7.07812 5.34375Z" fill="#1C55E9"/>
<path d="M4.14062 5.34375C4.54621 5.34375 4.875 5.01496 4.875 4.60938C4.875 4.20379 4.54621 3.875 4.14062 3.875C3.73504 3.875 3.40625 4.20379 3.40625 4.60938C3.40625 5.01496 3.73504 5.34375 4.14062 5.34375Z" fill="#1C55E9"/>
<path d="M42.3281 31.7812C41.9227 31.7812 41.5938 31.4522 41.5938 31.0469V3.14062C41.5938 2.73525 41.2633 2.40625 40.8594 2.40625H2.67188C2.26797 2.40625 1.9375 2.73525 1.9375 3.14062V31.0469C1.9375 31.4522 1.6085 31.7812 1.20312 31.7812C0.79775 31.7812 0.46875 31.4522 0.46875 31.0469V3.14062C0.46875 1.92597 1.45722 0.9375 2.67188 0.9375H40.8594C42.074 0.9375 43.0625 1.92597 43.0625 3.14062V31.0469C43.0625 31.4522 42.7335 31.7812 42.3281 31.7812Z" fill="#1C55E9"/>
<path d="M42.3281 42.0625H33.5156C33.1102 42.0625 32.7812 41.7335 32.7812 41.3281V35.4531C32.7812 35.0477 33.1102 34.7188 33.5156 34.7188H42.3281C42.7335 34.7188 43.0625 35.0477 43.0625 35.4531V41.3281C43.0625 41.7335 42.7335 42.0625 42.3281 42.0625ZM34.25 40.5938H41.5938V36.1875H34.25V40.5938Z" fill="#1C55E9"/>
<path d="M26.1719 42.0625H17.3594C16.954 42.0625 16.625 41.7335 16.625 41.3281V35.4531C16.625 35.0477 16.954 34.7188 17.3594 34.7188H26.1719C26.5772 34.7188 26.9062 35.0477 26.9062 35.4531V41.3281C26.9062 41.7335 26.5772 42.0625 26.1719 42.0625ZM18.0938 40.5938H25.4375V36.1875H18.0938V40.5938Z" fill="#1C55E9"/>
<path d="M10.0156 42.0625H1.20312C0.79775 42.0625 0.46875 41.7335 0.46875 41.3281V35.4531C0.46875 35.0477 0.79775 34.7188 1.20312 34.7188H10.0156C10.421 34.7188 10.75 35.0477 10.75 35.4531V41.3281C10.75 41.7335 10.421 42.0625 10.0156 42.0625ZM1.9375 40.5938H9.28125V36.1875H1.9375V40.5938Z" fill="#1C55E9"/>
<path d="M34.9844 22.9688H8.54688C8.1415 22.9688 7.8125 22.6397 7.8125 22.2344V13.4219C7.8125 13.0165 8.1415 12.6875 8.54688 12.6875H34.9844C35.3897 12.6875 35.7188 13.0165 35.7188 13.4219V22.2344C35.7188 22.6397 35.3897 22.9688 34.9844 22.9688ZM9.28125 21.5H34.25V14.1562H9.28125V21.5Z" fill="#1C55E9"/>
<path d="M21.7656 25.9062C21.3602 25.9062 21.0312 25.5773 21.0312 25.1719V22.2344C21.0312 21.829 21.3602 21.5 21.7656 21.5C22.171 21.5 22.5 21.829 22.5 22.2344V25.1719C22.5 25.5773 22.171 25.9062 21.7656 25.9062Z" fill="#1C55E9"/>
<path d="M21.7656 33.25C21.3602 33.25 21.0312 32.921 21.0312 32.5156V28.1094C21.0312 27.704 21.3602 27.375 21.7656 27.375C22.171 27.375 22.5 27.704 22.5 28.1094V32.5156C22.5 32.921 22.171 33.25 21.7656 33.25Z" fill="#1C55E9"/>
<path d="M37.9219 33.25C37.5165 33.25 37.1875 32.921 37.1875 32.5156V28.8438H6.34375V32.5156C6.34375 32.921 6.01475 33.25 5.60938 33.25C5.204 33.25 4.875 32.921 4.875 32.5156V28.1094C4.875 27.704 5.204 27.375 5.60938 27.375H37.9219C38.3273 27.375 38.6562 27.704 38.6562 28.1094V32.5156C38.6562 32.921 38.3273 33.25 37.9219 33.25Z" fill="#1C55E9"/>
</svg>
