<svg width="49" height="49" viewBox="0 0 49 49" fill="none" xmlns="http://www.w3.org/2000/svg">
<path d="M48.1833 34.8119C47.7325 34.8119 47.3667 34.4406 47.3667 33.9831V2.48657C47.3667 2.02904 46.9992 1.65771 46.55 1.65771H2.45C2.00083 1.65771 1.63333 2.02904 1.63333 2.48657V30.6677C1.63333 31.1252 1.26747 31.4965 0.816667 31.4965C0.365867 31.4965 0 31.1252 0 30.6677V2.48657C0 1.11564 1.09923 0 2.45 0H46.55C47.9008 0 49 1.11564 49 2.48657V33.9831C49 34.4406 48.6341 34.8119 48.1833 34.8119Z" fill="#1C55E9"/>
<path d="M34.3002 48.0735H15.5169C15.0661 48.0735 14.7002 47.7021 14.7002 47.2446C14.7002 46.7871 15.0661 46.4158 15.5169 46.4158H17.1502C18.501 46.4158 19.6002 45.3001 19.6002 43.9292V42.2715C19.6002 41.8139 19.9661 41.4426 20.4169 41.4426C20.8677 41.4426 21.2335 41.8139 21.2335 42.2715V43.9292C21.2335 44.8625 20.9281 45.7228 20.4152 46.4158H28.5852C28.0723 45.7228 27.7669 44.8625 27.7669 43.9292V38.9561C27.7669 38.4985 28.1327 38.1272 28.5835 38.1272C29.0343 38.1272 29.4002 38.4985 29.4002 38.9561V43.9292C29.4002 45.3001 30.4994 46.4158 31.8502 46.4158H34.3002C34.751 46.4158 35.1169 46.7871 35.1169 47.2446C35.1169 47.7021 34.751 48.0735 34.3002 48.0735Z" fill="#1C55E9"/>
<path d="M46.55 39.7851H2.45C1.09923 39.7851 0 38.6695 0 37.2986V33.9832C0 33.5256 0.365867 33.1543 0.816667 33.1543H48.1833C48.6341 33.1543 49 33.5256 49 33.9832V37.2986C49 38.6695 47.9008 39.7851 46.55 39.7851ZM1.63333 34.812V37.2986C1.63333 37.7561 2.00083 38.1274 2.45 38.1274H46.55C46.9992 38.1274 47.3667 37.7561 47.3667 37.2986V34.812H1.63333Z" fill="#1C55E9"/>
<path d="M5.71706 31.4961C5.26626 31.4961 4.90039 31.1248 4.90039 30.6672V29.0095C4.90039 28.552 5.26626 28.1807 5.71706 28.1807C6.16786 28.1807 6.53372 28.552 6.53372 29.0095V30.6672C6.53372 31.1248 6.16786 31.4961 5.71706 31.4961Z" fill="#1C55E9"/>
<path d="M8.98366 31.4961C8.53286 31.4961 8.16699 31.1248 8.16699 30.6672V25.6941C8.16699 25.2366 8.53286 24.8652 8.98366 24.8652C9.43446 24.8652 9.80033 25.2366 9.80033 25.6941V30.6672C9.80033 31.1248 9.43446 31.4961 8.98366 31.4961Z" fill="#1C55E9"/>
<path d="M12.2503 31.4961C11.7995 31.4961 11.4336 31.1247 11.4336 30.6672V20.7209C11.4336 20.2634 11.7995 19.8921 12.2503 19.8921C12.7011 19.8921 13.0669 20.2634 13.0669 20.7209V30.6672C13.0669 31.1247 12.7011 31.4961 12.2503 31.4961Z" fill="#1C55E9"/>
<path d="M15.5169 31.4961C15.0661 31.4961 14.7002 31.1247 14.7002 30.6672V22.3787C14.7002 21.9211 15.0661 21.5498 15.5169 21.5498C15.9677 21.5498 16.3335 21.9211 16.3335 22.3787V30.6672C16.3335 31.1247 15.9677 31.4961 15.5169 31.4961Z" fill="#1C55E9"/>
<path d="M18.7835 31.4961C18.3327 31.4961 17.9668 31.1247 17.9668 30.6672V20.7209C17.9668 20.2634 18.3327 19.8921 18.7835 19.8921C19.2343 19.8921 19.6001 20.2634 19.6001 20.7209V30.6672C19.6001 31.1247 19.2343 31.4961 18.7835 31.4961Z" fill="#1C55E9"/>
<path d="M22.0501 31.4961C21.5993 31.4961 21.2334 31.1247 21.2334 30.6672V20.7209C21.2334 20.2634 21.5993 19.8921 22.0501 19.8921C22.5009 19.8921 22.8667 20.2634 22.8667 20.7209V30.6672C22.8667 31.1247 22.5009 31.4961 22.0501 31.4961Z" fill="#1C55E9"/>
<path d="M25.3167 31.4961C24.8659 31.4961 24.5 31.1247 24.5 30.6672V22.3787C24.5 21.9211 24.8659 21.5498 25.3167 21.5498C25.7675 21.5498 26.1333 21.9211 26.1333 22.3787V30.6672C26.1333 31.1247 25.7675 31.4961 25.3167 31.4961Z" fill="#1C55E9"/>
<path d="M28.5833 31.4961C28.1325 31.4961 27.7666 31.1247 27.7666 30.6672V17.4055C27.7666 16.948 28.1325 16.5767 28.5833 16.5767C29.0341 16.5767 29.3999 16.948 29.3999 17.4055V30.6672C29.3999 31.1247 29.0341 31.4961 28.5833 31.4961Z" fill="#1C55E9"/>
<path d="M31.8508 31.4961C31.4 31.4961 31.0342 31.1247 31.0342 30.6672V18.2344C31.0342 17.7768 31.4 17.4055 31.8508 17.4055C32.3016 17.4055 32.6675 17.7768 32.6675 18.2344V30.6672C32.6675 31.1247 32.3016 31.4961 31.8508 31.4961Z" fill="#1C55E9"/>
<path d="M35.1174 31.4961C34.6666 31.4961 34.3008 31.1247 34.3008 30.6672V19.8921C34.3008 19.4346 34.6666 19.0632 35.1174 19.0632C35.5682 19.0632 35.9341 19.4346 35.9341 19.8921V30.6672C35.9341 31.1247 35.5682 31.4961 35.1174 31.4961Z" fill="#1C55E9"/>
<path d="M38.384 31.4961C37.9332 31.4961 37.5674 31.1247 37.5674 30.6672V18.2344C37.5674 17.7768 37.9332 17.4055 38.384 17.4055C38.8348 17.4055 39.2007 17.7768 39.2007 18.2344V30.6672C39.2007 31.1247 38.8348 31.4961 38.384 31.4961Z" fill="#1C55E9"/>
<path d="M44.9173 31.4961C44.4665 31.4961 44.1006 31.1247 44.1006 30.6672V17.4055C44.1006 16.948 44.4665 16.5767 44.9173 16.5767C45.3681 16.5767 45.7339 16.948 45.7339 17.4055V30.6672C45.7339 31.1247 45.3681 31.4961 44.9173 31.4961Z" fill="#1C55E9"/>
<path d="M41.6507 31.4961C41.1999 31.4961 40.834 31.1247 40.834 30.6672V21.5498C40.834 21.0923 41.1999 20.7209 41.6507 20.7209C42.1015 20.7209 42.4673 21.0923 42.4673 21.5498V30.6672C42.4673 31.1247 42.1015 31.4961 41.6507 31.4961Z" fill="#1C55E9"/>
<path d="M18.784 9.94604H13.884C13.4332 9.94604 13.0674 9.57471 13.0674 9.11719C13.0674 8.65966 13.4332 8.28833 13.884 8.28833H18.784C19.2348 8.28833 19.6007 8.65966 19.6007 9.11719C19.6007 9.57471 19.2348 9.94604 18.784 9.94604Z" fill="#1C55E9"/>
<path d="M18.784 6.63061H13.884C13.4332 6.63061 13.0674 6.25928 13.0674 5.80176C13.0674 5.34423 13.4332 4.9729 13.884 4.9729H18.784C19.2348 4.9729 19.6007 5.34423 19.6007 5.80176C19.6007 6.25928 19.2348 6.63061 18.784 6.63061Z" fill="#1C55E9"/>
<path d="M10.6171 6.63086H5.71706C5.26626 6.63086 4.90039 6.25953 4.90039 5.802C4.90039 5.34447 5.26626 4.97314 5.71706 4.97314H10.6171C11.0679 4.97314 11.4337 5.34447 11.4337 5.802C11.4337 6.25953 11.0679 6.63086 10.6171 6.63086Z" fill="#1C55E9"/>
<path d="M10.6171 9.94604H5.71706C5.26626 9.94604 4.90039 9.57471 4.90039 9.11719C4.90039 8.65966 5.26626 8.28833 5.71706 8.28833H10.6171C11.0679 8.28833 11.4337 8.65966 11.4337 9.11719C11.4337 9.57471 11.0679 9.94604 10.6171 9.94604Z" fill="#1C55E9"/>
<path d="M38.3831 4.97314C38.8341 4.97314 39.1997 4.60205 39.1997 4.14429C39.1997 3.68652 38.8341 3.31543 38.3831 3.31543C37.932 3.31543 37.5664 3.68652 37.5664 4.14429C37.5664 4.60205 37.932 4.97314 38.3831 4.97314Z" fill="#1C55E9"/>
<path d="M41.6497 4.97314C42.1007 4.97314 42.4663 4.60205 42.4663 4.14429C42.4663 3.68652 42.1007 3.31543 41.6497 3.31543C41.1986 3.31543 40.833 3.68652 40.833 4.14429C40.833 4.60205 41.1986 4.97314 41.6497 4.97314Z" fill="#1C55E9"/>
<path d="M44.9163 4.97314C45.3673 4.97314 45.7329 4.60205 45.7329 4.14429C45.7329 3.68652 45.3673 3.31543 44.9163 3.31543C44.4652 3.31543 44.0996 3.68652 44.0996 4.14429C44.0996 4.60205 44.4652 4.97314 44.9163 4.97314Z" fill="#1C55E9"/>
</svg>
