<svg
  width="134"
  height="248"
  viewBox="0 0 134 248"
  fill="none"
  xmlns="http://www.w3.org/2000/svg"
>
<path
    opacity="0.15"
    d="M134 198.128V139.873C134 136.231 133.037 132.653 131.208 129.499C129.379 126.345 126.749 123.726 123.581 121.905L72.9211 92.7805C69.7527 90.959 66.1585 90 62.4998 90C58.8411 90 55.2469 90.959 52.0785 92.7805L1.41873 121.904C-1.74907 123.726 -4.37958 126.345 -6.20844 129.499C-8.03729 132.653 -9.00006 136.231 -9 139.873V198.128C-9.00008 201.77 -8.03749 205.347 -6.20891 208.501C-4.38033 211.655 -1.75018 214.274 1.41724 216.096L52.077 245.22C55.2454 247.041 58.8396 248 62.4983 248C66.157 248 69.7513 247.041 72.9197 245.22L123.579 216.095C126.747 214.274 129.378 211.655 131.207 208.501C133.036 205.348 134 201.77 134 198.128Z"
    fill="#596BB5"
  />
<path
    opacity="0.1"
    d="M45 52.6953V24.3052C45 22.5304 44.5354 20.7868 43.6529 19.2496C42.7704 17.7125 41.5011 16.436 39.9726 15.5485L15.5284 1.35504C13.9996 0.46734 12.2653 0 10.4999 0C8.73452 0 7.00024 0.46734 5.47143 1.35504L-18.9728 15.5483C-20.5013 16.4358 -21.7706 17.7123 -22.653 19.2495C-23.5355 20.7866 -24 22.5302 -24 24.3051V52.6953C-24 54.47 -23.5356 56.2135 -22.6533 57.7506C-21.7709 59.2876 -20.5018 60.5641 -18.9735 61.4517L5.47072 75.645C6.99953 76.5327 8.7338 77 10.4992 77C12.2646 77 13.9989 76.5327 15.5277 75.645L39.9719 61.4515C41.5005 60.5641 42.7698 59.2877 43.6525 57.7507C44.5351 56.2137 44.9998 54.4702 45 52.6953Z"
    fill="#596BB5"
  />
<path
    opacity="0.1"
    d="M98 47.0055V32.9948C98 32.1189 97.7643 31.2584 97.3167 30.4998C96.8691 29.7412 96.2252 29.1113 95.4499 28.6733L83.0506 21.6687C82.2751 21.2306 81.3954 21 80.5 21C79.6045 21 78.7248 21.2306 77.9493 21.6687L65.55 28.6732C64.7747 29.1112 64.1309 29.7412 63.6833 30.4997C63.2356 31.2583 63 32.1188 63 32.9947V47.0055C63 47.8813 63.2356 48.7417 63.6831 49.5003C64.1307 50.2588 64.7744 50.8888 65.5497 51.3268L77.9489 58.3313C78.7244 58.7694 79.6041 59 80.4996 59C81.3951 59 82.2748 58.7694 83.0503 58.3313L95.4495 51.3267C96.2249 50.8888 96.8688 50.2589 97.3165 49.5004C97.7642 48.7418 97.9999 47.8814 98 47.0055Z"
    fill="#596BB5"
  />
</svg>
