<svg width="49" height="42" viewBox="0 0 49 42" fill="none" xmlns="http://www.w3.org/2000/svg">
<path d="M48.1833 8.36665H0.816667C0.365867 8.36665 0 7.99183 0 7.52999V2.51C0 1.12615 1.09923 0 2.45 0H46.55C47.9008 0 49 1.12615 49 2.51V7.52999C49 7.99183 48.6341 8.36665 48.1833 8.36665ZM1.63333 6.69332H47.3667V2.51C47.3667 2.04983 46.9992 1.67333 46.55 1.67333H2.45C2.00083 1.67333 1.63333 2.04983 1.63333 2.51V6.69332Z" fill="#1C55E9"/>
<path d="M8.98327 18.4067H4.08327C3.63247 18.4067 3.2666 18.0319 3.2666 17.5701C3.2666 17.1082 3.63247 16.7334 4.08327 16.7334H8.98327C9.43407 16.7334 9.79993 17.1082 9.79993 17.5701C9.79993 18.0319 9.43407 18.4067 8.98327 18.4067Z" fill="#1C55E9"/>
<path d="M13.8833 15.06H4.08327C3.63247 15.06 3.2666 14.6852 3.2666 14.2234C3.2666 13.7615 3.63247 13.3867 4.08327 13.3867H13.8833C14.3341 13.3867 14.6999 13.7615 14.6999 14.2234C14.6999 14.6852 14.3341 15.06 13.8833 15.06Z" fill="#1C55E9"/>
<path d="M10.6165 5.01989C11.0675 5.01989 11.4331 4.6453 11.4331 4.18322C11.4331 3.72115 11.0675 3.34656 10.6165 3.34656C10.1654 3.34656 9.7998 3.72115 9.7998 4.18322C9.7998 4.6453 10.1654 5.01989 10.6165 5.01989Z" fill="#1C55E9"/>
<path d="M7.34987 5.01989C7.8009 5.01989 8.16654 4.6453 8.16654 4.18322C8.16654 3.72115 7.8009 3.34656 7.34987 3.34656C6.89884 3.34656 6.5332 3.72115 6.5332 4.18322C6.5332 4.6453 6.89884 5.01989 7.34987 5.01989Z" fill="#1C55E9"/>
<path d="M4.08327 5.01989C4.5343 5.01989 4.89993 4.6453 4.89993 4.18322C4.89993 3.72115 4.5343 3.34656 4.08327 3.34656C3.63224 3.34656 3.2666 3.72115 3.2666 4.18322C3.2666 4.6453 3.63224 5.01989 4.08327 5.01989Z" fill="#1C55E9"/>
<path d="M46.55 41.8333H41.65C41.1992 41.8333 40.8333 41.4584 40.8333 40.9966C40.8333 40.5348 41.1992 40.1599 41.65 40.1599H46.55C46.9992 40.1599 47.3667 39.7851 47.3667 39.3233V2.51C47.3667 2.04816 46.9992 1.67333 46.55 1.67333H2.45C2.00083 1.67333 1.63333 2.04816 1.63333 2.51V39.3233C1.63333 39.7851 2.00083 40.1599 2.45 40.1599H20.4167C20.8675 40.1599 21.2333 40.5348 21.2333 40.9966C21.2333 41.4584 20.8675 41.8333 20.4167 41.8333H2.45C1.09923 41.8333 0 40.7071 0 39.3233V2.51C0 1.12615 1.09923 0 2.45 0H46.55C47.9008 0 49 1.12615 49 2.51V39.3233C49 40.7071 47.9008 41.8333 46.55 41.8333Z" fill="#1C55E9"/>
<path d="M37.6013 41.8357C37.3808 41.8357 37.1619 41.7453 37.0019 41.5663L34.9929 39.334C34.7675 39.0847 34.7119 38.7199 34.8524 38.4137C35.2542 37.5302 35.5466 36.6165 35.7197 35.6979C35.7834 35.3632 36.0366 35.1022 36.3632 35.0352L39.2003 34.4529V32.4784L36.3632 31.8961C36.0382 31.8291 35.785 31.5681 35.7197 31.2334C35.5482 30.3148 35.2542 29.4011 34.8524 28.5159C34.7119 28.2081 34.7675 27.8449 34.9929 27.5956L36.9594 25.4102L35.8275 23.8122L33.1897 25.0555C32.8875 25.1961 32.5331 25.1408 32.2913 24.9082C31.5939 24.2423 30.836 23.6733 30.0373 23.2199C29.7482 23.0559 29.5849 22.7279 29.6225 22.3916L29.9606 19.4482L28.1263 18.8374L26.707 21.4277C26.5436 21.7239 26.2153 21.8845 25.8952 21.8477C24.9789 21.7323 24.0234 21.7323 23.1071 21.8477C22.7821 21.8912 22.4587 21.7239 22.2937 21.4277L20.876 18.8374L19.0417 19.4482L19.3798 22.3916C19.4174 22.7279 19.2541 23.0559 18.965 23.2199C18.1663 23.6733 17.4084 24.2423 16.711 24.9082C16.4709 25.1408 16.1148 25.1961 15.8126 25.0555L13.1748 23.8122L12.0429 25.4119L14.0094 27.5973C14.2348 27.8466 14.2904 28.2114 14.1499 28.5176C13.7481 29.4011 13.4557 30.3148 13.2826 31.2334C13.2189 31.5681 12.9657 31.8291 12.6391 31.8961L9.80033 32.4784V34.4529L12.6374 35.0352C12.9625 35.1022 13.2156 35.3632 13.281 35.6979C13.3806 36.2216 13.5194 36.7571 13.7007 37.2859C13.8477 37.7226 13.6223 38.1978 13.196 38.3501C12.7697 38.5024 12.3059 38.2715 12.1556 37.8347C12.0135 37.4164 11.8926 36.9914 11.793 36.5697L8.82359 35.9589C8.44139 35.8803 8.16699 35.5372 8.16699 35.139V31.7923C8.16699 31.3941 8.44139 31.051 8.82359 30.9724L11.793 30.3633C11.9547 29.6772 12.1703 28.9962 12.4431 28.3285L10.3851 26.0428C10.1205 25.7499 10.0943 25.3065 10.3246 24.9835L12.2454 22.2744C12.4757 21.9531 12.8922 21.8377 13.2467 22.0067L16.0054 23.3069C16.5395 22.835 17.1046 22.4116 17.691 22.0418L17.3365 18.9612C17.2924 18.5663 17.526 18.1915 17.8968 18.0677L21.0034 17.0319C21.3692 16.9097 21.7776 17.0687 21.9687 17.4184L23.4501 20.1259C24.1426 20.064 24.8499 20.064 25.5424 20.1259L27.0255 17.4184C27.2149 17.0704 27.6249 16.9097 27.9891 17.0319L31.0957 18.066C31.4665 18.1898 31.7001 18.563 31.656 18.9596L31.3015 22.0418C31.8879 22.4116 32.453 22.835 32.9871 23.3069L35.7458 22.0067C36.1003 21.8377 36.52 21.9531 36.7471 22.2744L38.6679 24.9819C38.8982 25.3048 38.872 25.7483 38.6074 26.0411L36.5494 28.3269C36.8222 28.9928 37.0394 29.6756 37.1995 30.3616L40.1689 30.9707C40.5593 31.051 40.8337 31.3941 40.8337 31.7923V35.139C40.8337 35.5372 40.5593 35.8803 40.1771 35.9589L37.2077 36.568C37.046 37.2541 36.8304 37.9351 36.5576 38.6028L38.204 40.4317C38.5111 40.7714 38.4898 41.3002 38.1583 41.6148C37.9998 41.762 37.8006 41.8357 37.6013 41.8357ZM24.5003 41.8323C24.0495 41.8323 23.6837 41.4575 23.6837 40.9956C23.6837 40.5338 24.0495 40.159 24.5003 40.159C28.1035 40.159 31.0337 37.157 31.0337 33.4657C31.0337 29.7743 28.1035 26.7723 24.5003 26.7723C20.8972 26.7723 17.967 29.7743 17.967 33.4657C17.967 34.8144 18.3557 36.1145 19.0924 37.224C19.3455 37.6055 19.2508 38.1259 18.8768 38.3869C18.5076 38.6463 17.9997 38.5509 17.7432 38.166C16.822 36.7772 16.3337 35.1524 16.3337 33.4657C16.3337 28.8523 19.9972 25.099 24.5003 25.099C29.0034 25.099 32.667 28.8523 32.667 33.4657C32.667 38.079 29.0034 41.8323 24.5003 41.8323Z" fill="#1C55E9"/>
</svg>
