<svg width="73" height="71" viewBox="0 0 73 71" fill="none" xmlns="http://www.w3.org/2000/svg">
<path d="M6.0687 12.0768C5.7468 12.0768 5.43809 11.9496 5.21047 11.7232C4.98285 11.4967 4.85498 11.1896 4.85498 10.8694V8.45438C4.85498 7.49364 5.2386 6.57225 5.92145 5.89291C6.6043 5.21356 7.53045 4.83191 8.49615 4.83191H54.6176C54.9395 4.83191 55.2482 4.95913 55.4758 5.18557C55.7034 5.41202 55.8313 5.71915 55.8313 6.0394C55.8313 6.35964 55.7034 6.66677 55.4758 6.89322C55.2482 7.11967 54.9395 7.24689 54.6176 7.24689H8.49615C8.17425 7.24689 7.86553 7.3741 7.63792 7.60055C7.4103 7.827 7.28242 8.13413 7.28242 8.45438V10.8694C7.28242 11.1896 7.15455 11.4967 6.92693 11.7232C6.69932 11.9496 6.3906 12.0768 6.0687 12.0768Z" fill="#1C55E9"/>
<path d="M20.6332 12.0285C21.3035 12.0285 21.8469 11.4879 21.8469 10.821C21.8469 10.1541 21.3035 9.61353 20.6332 9.61353C19.9628 9.61353 19.4194 10.1541 19.4194 10.821C19.4194 11.4879 19.9628 12.0285 20.6332 12.0285Z" fill="#1C55E9"/>
<path d="M15.7782 12.0285C16.4485 12.0285 16.9919 11.4879 16.9919 10.821C16.9919 10.1541 16.4485 9.61353 15.7782 9.61353C15.1079 9.61353 14.5645 10.1541 14.5645 10.821C14.5645 11.4879 15.1079 12.0285 15.7782 12.0285Z" fill="#1C55E9"/>
<path d="M10.9232 12.0285C11.5935 12.0285 12.1369 11.4879 12.1369 10.821C12.1369 10.1541 11.5935 9.61353 10.9232 9.61353C10.2529 9.61353 9.70947 10.1541 9.70947 10.821C9.70947 11.4879 10.2529 12.0285 10.9232 12.0285Z" fill="#1C55E9"/>
<path d="M15.7782 21.6887C16.4485 21.6887 16.9919 21.148 16.9919 20.4812C16.9919 19.8143 16.4485 19.2737 15.7782 19.2737C15.1079 19.2737 14.5645 19.8143 14.5645 20.4812C14.5645 21.148 15.1079 21.6887 15.7782 21.6887Z" fill="#1C55E9"/>
<path d="M10.9232 21.6887C11.5935 21.6887 12.1369 21.148 12.1369 20.4812C12.1369 19.8143 11.5935 19.2737 10.9232 19.2737C10.2529 19.2737 9.70947 19.8143 9.70947 20.4812C9.70947 21.148 10.2529 21.6887 10.9232 21.6887Z" fill="#1C55E9"/>
<path d="M6.0687 21.6887C6.73902 21.6887 7.28242 21.148 7.28242 20.4812C7.28242 19.8143 6.73902 19.2737 6.0687 19.2737C5.39838 19.2737 4.85498 19.8143 4.85498 20.4812C4.85498 21.148 5.39838 21.6887 6.0687 21.6887Z" fill="#1C55E9"/>
<path d="M64.3271 70.0365H57.0448C56.7229 70.0365 56.4142 69.9093 56.1865 69.6828C55.9589 69.4564 55.8311 69.1493 55.8311 68.829C55.8311 68.5088 55.9589 68.2016 56.1865 67.9752C56.4142 67.7487 56.7229 67.6215 57.0448 67.6215H64.3271C64.649 67.6215 64.9577 67.4943 65.1853 67.2679C65.413 67.0414 65.5408 66.7343 65.5408 66.414V47.0942C65.5408 46.774 65.6687 46.4668 65.8963 46.2404C66.1239 46.0139 66.4327 45.8867 66.7546 45.8867C67.0765 45.8867 67.3852 46.0139 67.6128 46.2404C67.8404 46.4668 67.9683 46.774 67.9683 47.0942V66.414C67.9683 67.3748 67.5847 68.2962 66.9018 68.9755C66.219 69.6548 65.2928 70.0365 64.3271 70.0365Z" fill="#1C55E9"/>
<path d="M25.488 70.0364H3.641C3.15872 70.0365 2.68124 69.9412 2.23628 69.7561C1.79132 69.5711 1.38775 69.2999 1.04899 68.9584C0.710235 68.6169 0.443048 68.2118 0.262943 67.7668C0.0828385 67.3217 -0.00659495 66.8454 -0.000164582 66.3657V18.0661C0.0126 17.1138 0.401849 16.2047 1.08332 15.5358C1.76479 14.8669 2.68366 14.4919 3.641 14.4919H49.7624C50.0843 14.4919 50.3931 14.6192 50.6207 14.8456C50.8483 15.0721 50.9762 15.3792 50.9762 15.6994C50.9762 16.0197 50.8483 16.3268 50.6207 16.5533C50.3931 16.7797 50.0843 16.9069 49.7624 16.9069H3.641C3.3191 16.9069 3.01039 17.0341 2.78277 17.2606C2.55515 17.487 2.42728 17.7942 2.42728 18.1144V66.414C2.42728 66.7342 2.55515 67.0413 2.78277 67.2678C3.01039 67.4942 3.3191 67.6215 3.641 67.6215H25.488C25.8099 67.6215 26.1186 67.7487 26.3462 67.9751C26.5738 68.2016 26.7017 68.5087 26.7017 68.8289C26.7017 69.1492 26.5738 69.4563 26.3462 69.6828C26.1186 69.9092 25.8099 70.0364 25.488 70.0364Z" fill="#1C55E9"/>
<path d="M32.7701 70.0364H30.3426C30.0207 70.0364 29.712 69.9092 29.4844 69.6827C29.2568 69.4563 29.1289 69.1491 29.1289 68.8289C29.1289 68.5086 29.2568 68.2015 29.4844 67.9751C29.712 67.7486 30.0207 67.6214 30.3426 67.6214H32.7701C40.4408 67.6214 58.2582 64.168 58.2582 32.5559V16.9069H54.6171C54.4043 16.9107 54.1944 16.8564 54.0104 16.75C53.8264 16.6436 53.6752 16.489 53.5733 16.3031C53.4667 16.1196 53.4107 15.9113 53.4107 15.6994C53.4107 15.4874 53.4667 15.2792 53.5733 15.0956L62.0693 0.605765C62.1812 0.431241 62.3355 0.287584 62.5179 0.188065C62.7004 0.0885463 62.9051 0.036377 63.1131 0.036377C63.3212 0.036377 63.5259 0.0885463 63.7083 0.188065C63.8908 0.287584 64.0451 0.431241 64.1569 0.605765L72.653 15.0956C72.7595 15.2792 72.8156 15.4874 72.8156 15.6994C72.8156 15.9113 72.7595 16.1196 72.653 16.3031C72.551 16.489 72.3998 16.6436 72.2158 16.75C72.0318 16.8564 71.822 16.9107 71.6092 16.9069H67.968V32.6042C67.968 32.9245 67.8401 33.2316 67.6125 33.458C67.3849 33.6845 67.0762 33.8117 66.7543 33.8117C66.4324 33.8117 66.1237 33.6845 65.8961 33.458C65.6684 33.2316 65.5406 32.9245 65.5406 32.6042V15.6994C65.5406 15.3791 65.6684 15.072 65.8961 14.8456C66.1237 14.6191 66.4324 14.4919 66.7543 14.4919H69.4973L63.1131 3.55204L56.729 14.4919H59.472C59.7939 14.4919 60.1026 14.6191 60.3302 14.8456C60.5578 15.072 60.6857 15.3791 60.6857 15.6994V32.6042C60.6857 66.3415 41.2661 70.0364 32.7701 70.0364Z" fill="#1C55E9"/>
<path d="M66.7542 38.5933C67.4246 38.5933 67.968 38.0527 67.968 37.3858C67.968 36.719 67.4246 36.1783 66.7542 36.1783C66.0839 36.1783 65.5405 36.719 65.5405 37.3858C65.5405 38.0527 66.0839 38.5933 66.7542 38.5933Z" fill="#1C55E9"/>
<path d="M1.21372 26.5668H52.1901C52.512 26.5668 52.8207 26.4396 53.0483 26.2132C53.2759 25.9867 53.4038 25.6796 53.4038 25.3593C53.4038 25.0391 53.2759 24.732 53.0483 24.5055C52.8207 24.2791 52.512 24.1519 52.1901 24.1519H2.42744L0 25.3593C0 25.6796 0.127874 25.9867 0.355491 26.2132C0.583108 26.4396 0.891823 26.5668 1.21372 26.5668Z" fill="#1C55E9"/>
<path d="M30.0998 65.2064H25.7304C25.4539 65.2077 25.1854 65.115 24.9691 64.9437C24.7528 64.7725 24.6017 64.5329 24.5409 64.2646L23.837 61.0044C22.8232 60.7129 21.8459 60.3078 20.924 59.7969L18.1082 61.6081C17.8729 61.7601 17.592 61.8263 17.3132 61.7955C17.0344 61.7647 16.7749 61.6387 16.5789 61.4391L13.4961 58.3238C13.3087 58.1261 13.1909 57.8732 13.1603 57.6033C13.1297 57.3333 13.1878 57.0607 13.3261 56.8265L15.1467 54.0009C14.6452 53.0894 14.2463 52.1257 13.9573 51.1271L10.6559 50.4026C10.3841 50.3463 10.1407 50.1972 9.96778 49.9811C9.79488 49.7649 9.70342 49.4954 9.70925 49.2193V44.8723C9.708 44.5973 9.80116 44.3301 9.97331 44.1149C10.1455 43.8998 10.3863 43.7495 10.6559 43.689L13.933 42.9886C14.2365 41.9838 14.6433 41.0127 15.1467 40.0907L13.3261 37.2893C13.1859 37.0513 13.1267 36.7747 13.1573 36.5005C13.1879 36.2264 13.3067 35.9694 13.4961 35.7679L16.5789 32.7008C16.7802 32.5089 17.0407 32.3902 17.3182 32.3639C17.5958 32.3376 17.8741 32.4052 18.1082 32.5559L20.924 34.343C21.8467 33.8399 22.824 33.4429 23.837 33.1597L24.5409 29.8995C24.601 29.6288 24.7511 29.3862 24.9669 29.2109C25.1828 29.0356 25.4518 28.9378 25.7304 28.9335H30.0998C30.3784 28.9378 30.6474 29.0356 30.8632 29.2109C31.0791 29.3862 31.2292 29.6288 31.2892 29.8995L31.9932 33.1597C33.0062 33.4429 33.9834 33.8399 34.9061 34.343L37.722 32.5559C37.956 32.4052 38.2344 32.3376 38.5119 32.3639C38.7895 32.3902 39.05 32.5089 39.2512 32.7008L42.3341 35.7679C42.5234 35.9694 42.6423 36.2264 42.6729 36.5005C42.7035 36.7747 42.6443 37.0513 42.504 37.2893L40.6834 40.0907C41.1809 41.0125 41.5796 41.9838 41.8729 42.9886L45.1742 43.689C45.4439 43.7495 45.6847 43.8998 45.8568 44.1149C46.029 44.3301 46.1222 44.5973 46.1209 44.8723V49.2193C46.1267 49.4954 46.0353 49.7649 45.8624 49.9811C45.6895 50.1972 45.446 50.3463 45.1742 50.4026L41.8729 51.1271C41.5838 52.1257 41.1849 53.0894 40.6834 54.0009L42.504 56.8265C42.6423 57.0607 42.7005 57.3333 42.6699 57.6033C42.6392 57.8732 42.5214 58.1261 42.3341 58.3238L39.2512 61.3908C39.0552 61.5904 38.7958 61.7164 38.517 61.7472C38.2382 61.778 37.9572 61.7118 37.722 61.5598L34.9061 59.7486C33.9842 60.2595 33.007 60.6646 31.9932 60.9561L31.2892 64.2163C31.2382 64.4935 31.0914 64.7442 30.8742 64.925C30.657 65.1059 30.383 65.2054 30.0998 65.2064ZM26.7014 62.7915H29.1288L29.7842 59.7486C29.8394 59.5266 29.9545 59.3237 30.117 59.162C30.2796 59.0003 30.4835 58.8858 30.7066 58.8309C31.9759 58.535 33.189 58.0376 34.2993 57.3578C34.4931 57.2405 34.7156 57.1784 34.9425 57.1784C35.1694 57.1784 35.3919 57.2405 35.5858 57.3578L38.2074 59.0482L39.9309 57.3578L38.2317 54.7254C38.1138 54.5326 38.0515 54.3112 38.0515 54.0855C38.0515 53.8597 38.1138 53.6384 38.2317 53.4455C38.9095 52.3382 39.4092 51.1322 39.7125 49.8713C39.7676 49.6493 39.8827 49.4465 40.0453 49.2847C40.2078 49.123 40.4117 49.0085 40.6349 48.9536L43.6935 48.3016V45.8866L40.6349 45.2346C40.4105 45.1822 40.2053 45.0685 40.0423 44.9064C39.8794 44.7443 39.7651 44.5401 39.7125 44.3169C39.4051 43.0573 38.9057 41.852 38.2317 40.7427C38.1138 40.5499 38.0515 40.3285 38.0515 40.1027C38.0515 39.877 38.1138 39.6556 38.2317 39.4628L39.9309 36.8546L38.2074 35.1641L35.5858 36.8305C35.3919 36.9477 35.1694 37.0098 34.9425 37.0098C34.7156 37.0098 34.4931 36.9477 34.2993 36.8305C33.1862 36.1561 31.974 35.6591 30.7066 35.3573C30.4797 35.3104 30.2716 35.1985 30.1077 35.0355C29.9438 34.8725 29.8314 34.6654 29.7842 34.4396L29.1288 31.3968H26.7014L26.0459 34.4396C25.9988 34.6654 25.8863 34.8725 25.7225 35.0355C25.5586 35.1985 25.3504 35.3104 25.1235 35.3573C23.8561 35.6591 22.6439 36.1561 21.5309 36.8305C21.337 36.9477 21.1145 37.0098 20.8876 37.0098C20.6607 37.0098 20.4382 36.9477 20.2444 36.8305L17.6227 35.1641L15.8992 36.8546L17.5984 39.4628C17.7185 39.6593 17.7819 39.8849 17.7819 40.1148C17.7819 40.3448 17.7185 40.5703 17.5984 40.7669C16.9081 41.8678 16.4076 43.0759 16.1177 44.341C16.0564 44.5575 15.9388 44.754 15.7769 44.9109C15.615 45.0677 15.4144 45.1794 15.1953 45.2346L12.1367 45.8866V48.3016L15.1953 48.9536C15.4185 49.0085 15.6223 49.123 15.7849 49.2847C15.9474 49.4465 16.0625 49.6493 16.1177 49.8713C16.4151 51.1341 16.9151 52.341 17.5984 53.4455C17.7163 53.6384 17.7787 53.8597 17.7787 54.0855C17.7787 54.3112 17.7163 54.5326 17.5984 54.7254L15.8992 57.3578L17.6227 59.0482L20.2444 57.3578C20.4419 57.2384 20.6686 57.1752 20.8998 57.1752C21.1309 57.1752 21.3576 57.2384 21.5552 57.3578C22.6554 58.0402 23.8609 58.5378 25.1235 58.8309C25.3467 58.8858 25.5506 59.0003 25.7131 59.162C25.8757 59.3237 25.9908 59.5266 26.0459 59.7486L26.7014 62.7915ZM27.9151 55.5465C26.2347 55.5465 24.5921 55.0508 23.1949 54.122C21.7978 53.1933 20.7088 51.8732 20.0657 50.3287C19.4227 48.7842 19.2545 47.0847 19.5823 45.4451C19.9101 43.8055 20.7193 42.2994 21.9075 41.1173C23.0957 39.9352 24.6095 39.1302 26.2576 38.8041C27.9057 38.478 29.6139 38.6453 31.1664 39.2851C32.7188 39.9248 34.0457 41.0082 34.9793 42.3982C35.9129 43.7882 36.4111 45.4224 36.4111 47.0941C36.4111 47.4144 36.2833 47.7215 36.0556 47.9479C35.828 48.1744 35.5193 48.3016 35.1974 48.3016C34.8755 48.3016 34.5668 48.1744 34.3392 47.9479C34.1116 47.7215 33.9837 47.4144 33.9837 47.0941C33.9837 45.9 33.6278 44.7327 32.9609 43.7399C32.2941 42.747 31.3463 41.9732 30.2374 41.5162C29.1285 41.0593 27.9083 40.9397 26.7312 41.1727C25.554 41.4056 24.4726 41.9806 23.6239 42.825C22.7752 43.6693 22.1972 44.7451 21.9631 45.9163C21.7289 47.0874 21.8491 48.3013 22.3084 49.4045C22.7677 50.5077 23.5456 51.4507 24.5435 52.1141C25.5415 52.7775 26.7148 53.1315 27.9151 53.1315C28.3107 53.1684 28.7089 53.1684 29.1045 53.1315C29.2595 53.0965 29.42 53.0934 29.5762 53.1223C29.7325 53.1513 29.8811 53.2117 30.0129 53.3C30.1448 53.3882 30.2572 53.5023 30.3431 53.6353C30.429 53.7683 30.4866 53.9174 30.5124 54.0734C30.5444 54.2288 30.5452 54.3889 30.5149 54.5446C30.4846 54.7004 30.4237 54.8486 30.3358 54.9809C30.2479 55.1132 30.1346 55.227 30.0025 55.3158C29.8704 55.4045 29.722 55.4665 29.5657 55.4982C29.0181 55.5631 28.4657 55.5793 27.9151 55.5465Z" fill="#1C55E9"/>
<path d="M33.9842 53.2763C34.6546 53.2763 35.198 52.7357 35.198 52.0688C35.198 51.4019 34.6546 50.8613 33.9842 50.8613C33.3139 50.8613 32.7705 51.4019 32.7705 52.0688C32.7705 52.7357 33.3139 53.2763 33.9842 53.2763Z" fill="#1C55E9"/>
</svg>
