<svg width="75" height="70" viewBox="0 0 75 70" fill="none" xmlns="http://www.w3.org/2000/svg">
<path d="M48.75 15C47.2666 15 45.8166 14.5601 44.5832 13.736C43.3499 12.9119 42.3886 11.7406 41.8209 10.3701C41.2532 8.99968 41.1047 7.49168 41.3941 6.03683C41.6835 4.58197 42.3978 3.2456 43.4467 2.1967C44.4956 1.14781 45.832 0.433503 47.2868 0.144114C48.7417 -0.145275 50.2497 0.00324965 51.6201 0.570907C52.9906 1.13856 54.1619 2.09986 54.986 3.33323C55.8101 4.5666 56.25 6.01664 56.25 7.5C56.25 9.48913 55.4598 11.3968 54.0533 12.8033C52.6468 14.2098 50.7391 15 48.75 15ZM48.75 2.5C47.7611 2.5 46.7944 2.79325 45.9722 3.34266C45.1499 3.89206 44.509 4.67296 44.1306 5.58659C43.7522 6.50022 43.6532 7.50555 43.8461 8.47546C44.039 9.44536 44.5152 10.3363 45.2145 11.0355C45.9137 11.7348 46.8046 12.211 47.7746 12.4039C48.7445 12.5969 49.7498 12.4978 50.6634 12.1194C51.5771 11.741 52.3579 11.1001 52.9074 10.2779C53.4568 9.45561 53.75 8.48891 53.75 7.5C53.75 6.17392 53.2232 4.90215 52.2855 3.96447C51.3479 3.02679 50.0761 2.5 48.75 2.5Z" fill="#1C55E9"/>
<path d="M45 35H43.25C42.9185 35 42.6005 34.8683 42.3661 34.6339C42.1317 34.3995 42 34.0815 42 33.75C42 33.4185 42.1317 33.1005 42.3661 32.8661C42.6005 32.6317 42.9185 32.5 43.25 32.5H45C45.3315 32.5 45.6495 32.6317 45.8839 32.8661C46.1183 33.1005 46.25 33.4185 46.25 33.75C46.25 34.0815 46.1183 34.3995 45.8839 34.6339C45.6495 34.8683 45.3315 35 45 35Z" fill="#1C55E9"/>
<path d="M66.25 40H48.75C48.5503 39.9971 48.3539 39.9482 48.1762 39.8572C47.9984 39.7661 47.844 39.6354 47.725 39.475C47.6091 39.3144 47.5347 39.1276 47.5086 38.9314C47.4824 38.7351 47.5052 38.5353 47.575 38.35L52.575 23.35C52.6582 23.1037 52.816 22.8895 53.0266 22.7372C53.2372 22.5848 53.4901 22.5019 53.75 22.5H71.25C71.4497 22.5029 71.646 22.5518 71.8238 22.6428C72.0015 22.7339 72.1559 22.8646 72.275 23.025C72.3909 23.1856 72.4652 23.3723 72.4914 23.5686C72.5176 23.7649 72.4947 23.9647 72.425 24.15L67.425 39.15C67.3418 39.3963 67.1839 39.6105 66.9733 39.7628C66.7628 39.9152 66.5099 39.9981 66.25 40ZM50.475 37.5H65.35L69.525 25H54.65L50.475 37.5Z" fill="#1C55E9"/>
<path d="M18.75 15C17.2666 15 15.8166 14.5601 14.5832 13.736C13.3499 12.9119 12.3886 11.7406 11.8209 10.3701C11.2532 8.99968 11.1047 7.49168 11.3941 6.03683C11.6835 4.58197 12.3978 3.2456 13.4467 2.1967C14.4956 1.14781 15.832 0.433503 17.2868 0.144114C18.7417 -0.145275 20.2497 0.00324965 21.6201 0.570907C22.9906 1.13856 24.1619 2.09986 24.986 3.33323C25.8101 4.5666 26.25 6.01664 26.25 7.5C26.25 9.48913 25.4598 11.3968 24.0533 12.8033C22.6468 14.2098 20.7391 15 18.75 15ZM18.75 2.5C17.7611 2.5 16.7944 2.79325 15.9722 3.34266C15.1499 3.89206 14.509 4.67296 14.1306 5.58659C13.7522 6.50022 13.6531 7.50555 13.8461 8.47546C14.039 9.44536 14.5152 10.3363 15.2145 11.0355C15.9137 11.7348 16.8046 12.211 17.7746 12.4039C18.7445 12.5969 19.7498 12.4978 20.6634 12.1194C21.577 11.741 22.3579 11.1001 22.9073 10.2779C23.4568 9.45561 23.75 8.48891 23.75 7.5C23.75 6.17392 23.2232 4.90215 22.2855 3.96447C21.3479 3.02679 20.0761 2.5 18.75 2.5Z" fill="#1C55E9"/>
<path d="M5.74965 40C4.79404 40.006 3.85382 39.7594 3.0241 39.2853C2.19439 38.8112 1.50464 38.1263 1.02465 37.3C0.546043 36.4761 0.293945 35.5403 0.293945 34.5875C0.293945 33.6347 0.546043 32.6989 1.02465 31.875L6.72465 20.825C7.26265 19.8207 8.0629 18.9812 9.04023 18.3956C10.0175 17.8101 11.1354 17.5006 12.2746 17.5H24.9996C26.1906 17.4992 27.3647 17.782 28.4246 18.325C28.7197 18.4775 28.9421 18.741 29.0429 19.0574C29.1437 19.3739 29.1146 19.7174 28.9621 20.0125C28.8096 20.3076 28.5462 20.5299 28.2297 20.6307C27.9132 20.7315 27.5697 20.7025 27.2746 20.55C26.5737 20.1808 25.7919 19.9918 24.9996 20H12.2746C11.5913 20.0012 10.9211 20.1879 10.3355 20.5401C9.74994 20.8923 9.27095 21.3969 8.94965 22L3.12465 33.05C2.87252 33.5067 2.74383 34.0212 2.75126 34.5427C2.75869 35.0643 2.90199 35.5749 3.16702 36.0242C3.43205 36.4735 3.80965 36.8459 4.26255 37.1047C4.71546 37.3635 5.22801 37.4998 5.74965 37.5C6.08117 37.5 6.39911 37.6317 6.63353 37.8661C6.86795 38.1005 6.99965 38.4185 6.99965 38.75C6.99965 39.0815 6.86795 39.3995 6.63353 39.6339C6.39911 39.8683 6.08117 40 5.74965 40Z" fill="#1C55E9"/>
<path d="M15.0001 34.9998H7.00012C6.78462 35.0019 6.57268 34.9448 6.38749 34.8345C6.2023 34.7243 6.05099 34.5652 5.95012 34.3748C5.83469 34.1914 5.77344 33.979 5.77344 33.7623C5.77344 33.5456 5.83469 33.3332 5.95012 33.1498L10.0001 25.6498C10.0786 25.5051 10.1849 25.3773 10.313 25.2737C10.441 25.1702 10.5882 25.093 10.7462 25.0465C10.9042 25.0001 11.0698 24.9853 11.2335 25.003C11.3972 25.0207 11.5558 25.0706 11.7001 25.1498C11.8452 25.2279 11.9731 25.3345 12.076 25.4632C12.179 25.5919 12.2549 25.74 12.2992 25.8988C12.3436 26.0575 12.3554 26.2235 12.3341 26.3869C12.3128 26.5503 12.2587 26.7078 12.1751 26.8498L9.12512 32.4998H15.0001C15.3316 32.4998 15.6496 32.6315 15.884 32.8659C16.1184 33.1003 16.2501 33.4183 16.2501 33.7498C16.2501 34.0813 16.1184 34.3993 15.884 34.6337C15.6496 34.8681 15.3316 34.9998 15.0001 34.9998Z" fill="#1C55E9"/>
<path d="M38.0252 23.75L38.9502 22C39.2751 21.3763 39.7689 20.8565 40.3752 20.5C40.9546 20.1718 41.6093 19.9995 42.2752 20H55.0002C55.7924 19.9918 56.5742 20.1808 57.2752 20.55C57.5702 20.7025 57.9138 20.7315 58.2303 20.6307C58.5467 20.5299 58.8102 20.3076 58.9627 20.0125C59.1152 19.7174 59.1442 19.3739 59.0434 19.0574C58.9426 18.741 58.7202 18.4775 58.4252 18.325C57.3652 17.782 56.1912 17.4992 55.0002 17.5H42.2752C41.1685 17.4994 40.0814 17.7928 39.1252 18.35C38.072 18.9299 37.2051 19.7968 36.6252 20.85L35.2002 23.75H38.0252Z" fill="#1C55E9"/>
<path d="M36.2502 39.9999H18.7502C18.5505 39.997 18.3542 39.9481 18.1764 39.8571C17.9987 39.766 17.8443 39.6352 17.7252 39.4749C17.5968 39.3211 17.5089 39.1375 17.4696 38.941C17.4303 38.7445 17.4408 38.5413 17.5002 38.3499L22.5002 23.3499C22.5872 23.0911 22.7565 22.868 22.9822 22.7145C23.2079 22.561 23.4777 22.4856 23.7502 22.4999H41.2502C41.4499 22.5028 41.6463 22.5516 41.8241 22.6427C42.0018 22.7337 42.1562 22.8645 42.2752 23.0249C42.3911 23.1855 42.4655 23.3722 42.4917 23.5685C42.5178 23.7648 42.495 23.9645 42.4252 24.1499L37.4252 39.1499C37.3421 39.3961 37.1842 39.6103 36.9736 39.7627C36.763 39.915 36.5102 39.9979 36.2502 39.9999ZM20.4752 37.4999H35.4752L39.6502 24.9999H24.6502L20.4752 37.4999Z" fill="#1C55E9"/>
<path d="M68.75 70H1.25C0.918479 70 0.600537 69.8683 0.366116 69.6339C0.131696 69.3995 0 69.0815 0 68.75C0 68.4185 0.131696 68.1005 0.366116 67.8661C0.600537 67.6317 0.918479 67.5 1.25 67.5H67.5V45H1.25C0.918479 45 0.600537 44.8683 0.366116 44.6339C0.131696 44.3995 0 44.0815 0 43.75C0 43.4185 0.131696 43.1005 0.366116 42.8661C0.600537 42.6317 0.918479 42.5 1.25 42.5H68.75C69.0815 42.5 69.3995 42.6317 69.6339 42.8661C69.8683 43.1005 70 43.4185 70 43.75V68.75C70 69.0815 69.8683 69.3995 69.6339 69.6339C69.3995 69.8683 69.0815 70 68.75 70Z" fill="#1C55E9"/>
<path d="M73.75 40H6.25C5.91848 40 5.60054 39.8683 5.36612 39.6339C5.1317 39.3995 5 39.0815 5 38.75C5 38.4185 5.1317 38.1005 5.36612 37.8661C5.60054 37.6317 5.91848 37.5 6.25 37.5H73.75C74.0815 37.5 74.3995 37.6317 74.6339 37.8661C74.8683 38.1005 75 38.4185 75 38.75C75 39.0815 74.8683 39.3995 74.6339 39.6339C74.3995 39.8683 74.0815 40 73.75 40Z" fill="#1C55E9"/>
<path d="M61.25 30C61.9404 30 62.5 29.4404 62.5 28.75C62.5 28.0596 61.9404 27.5 61.25 27.5C60.5596 27.5 60 28.0596 60 28.75C60 29.4404 60.5596 30 61.25 30Z" fill="#1C55E9"/>
<path d="M31.25 30C31.9404 30 32.5 29.4404 32.5 28.75C32.5 28.0596 31.9404 27.5 31.25 27.5C30.5596 27.5 30 28.0596 30 28.75C30 29.4404 30.5596 30 31.25 30Z" fill="#1C55E9"/>
</svg>
