<svg width="1095" height="654" viewBox="0 0 1095 654" fill="none" xmlns="http://www.w3.org/2000/svg">
<path d="M950.57 589.57C949.999 589.57 949.434 589.457 948.907 589.239C948.38 589.02 947.901 588.699 947.498 588.295C947.095 587.891 946.775 587.412 946.558 586.884C946.34 586.356 946.229 585.791 946.23 585.22V583.05C946.202 582.462 946.293 581.874 946.499 581.322C946.705 580.771 947.02 580.266 947.426 579.84C947.833 579.414 948.321 579.075 948.862 578.843C949.404 578.611 949.986 578.491 950.575 578.491C951.164 578.491 951.747 578.611 952.288 578.843C952.829 579.075 953.318 579.414 953.724 579.84C954.13 580.266 954.446 580.771 954.651 581.322C954.857 581.874 954.948 582.462 954.92 583.05V585.22C954.92 586.374 954.462 587.48 953.646 588.296C952.83 589.112 951.724 589.57 950.57 589.57ZM950.57 565.66C949.419 565.66 948.315 565.203 947.501 564.389C946.687 563.575 946.23 562.471 946.23 561.32V559.14C946.284 558.024 946.765 556.971 947.574 556.2C948.383 555.429 949.458 554.999 950.575 554.999C951.693 554.999 952.767 555.429 953.576 556.2C954.385 556.971 954.867 558.024 954.92 559.14V561.32C954.92 561.891 954.808 562.456 954.589 562.983C954.37 563.51 954.05 563.989 953.645 564.392C953.241 564.796 952.762 565.115 952.234 565.332C951.706 565.55 951.141 565.661 950.57 565.66ZM950.57 541.75C949.419 541.75 948.315 541.293 947.501 540.479C946.687 539.665 946.23 538.561 946.23 537.41V535.23C946.284 534.114 946.765 533.061 947.574 532.29C948.383 531.519 949.458 531.088 950.575 531.088C951.693 531.088 952.767 531.519 953.576 532.29C954.385 533.061 954.867 534.114 954.92 535.23V537.41C954.92 537.981 954.808 538.546 954.589 539.073C954.37 539.6 954.05 540.079 953.645 540.482C953.241 540.885 952.762 541.205 952.234 541.422C951.706 541.64 951.141 541.751 950.57 541.75ZM950.57 517.85C949.999 517.85 949.434 517.737 948.907 517.519C948.38 517.3 947.901 516.979 947.498 516.575C947.095 516.171 946.775 515.692 946.558 515.164C946.34 514.636 946.229 514.071 946.23 513.5V511.32C946.284 510.204 946.765 509.151 947.574 508.38C948.383 507.609 949.458 507.178 950.575 507.178C951.693 507.178 952.767 507.609 953.576 508.38C954.385 509.151 954.867 510.204 954.92 511.32V513.5C954.92 514.654 954.462 515.76 953.646 516.576C952.83 517.392 951.724 517.85 950.57 517.85ZM950.57 493.94C949.999 493.94 949.434 493.827 948.907 493.609C948.38 493.39 947.901 493.069 947.498 492.665C947.095 492.261 946.775 491.782 946.558 491.254C946.34 490.726 946.229 490.161 946.23 489.59V487.42C946.202 486.832 946.293 486.244 946.499 485.692C946.705 485.141 947.02 484.636 947.426 484.21C947.833 483.784 948.321 483.445 948.862 483.213C949.404 482.981 949.986 482.861 950.575 482.861C951.164 482.861 951.747 482.981 952.288 483.213C952.829 483.445 953.318 483.784 953.724 484.21C954.13 484.636 954.446 485.141 954.651 485.692C954.857 486.244 954.948 486.832 954.92 487.42V489.59C954.92 490.744 954.462 491.85 953.646 492.666C952.83 493.482 951.724 493.94 950.57 493.94Z" fill="#1C55E9"/>
<path d="M24.4898 71.6C44.4031 71.6 64.2965 71.8166 84.1698 72.25C104.043 72.6833 123.93 73.35 143.83 74.25C163.7 75.25 183.58 76.46 203.42 78.45C213.34 79.45 223.25 80.64 233.13 82.29C238.07 83.13 243 84.07 247.91 85.29C250.36 85.9 252.81 86.58 255.25 87.39C257.747 88.1817 260.173 89.1853 262.5 90.39C263.751 91.0638 264.924 91.8719 266 92.8C267.322 93.9087 268.28 95.3895 268.75 97.05C268.861 97.529 268.921 98.0183 268.93 98.51C268.93 98.89 268.93 99.25 268.93 99.62C268.876 100.357 268.766 101.089 268.6 101.81C268.279 103.201 267.782 104.545 267.12 105.81C265.837 108.223 264.191 110.426 262.24 112.34C260.4 114.19 258.417 115.891 256.31 117.43C252.193 120.419 247.876 123.122 243.39 125.52C238.97 127.93 234.47 130.15 229.95 132.29C211.87 140.81 193.36 148.12 175.95 157.29C171.61 159.58 167.34 162 163.26 164.64C159.204 167.203 155.395 170.135 151.88 173.4C148.49 176.65 145.59 180.4 144.17 184.4C143.461 186.4 143.155 188.521 143.27 190.64C143.27 191.17 143.36 191.7 143.44 192.22C143.507 192.626 143.614 193.025 143.76 193.41C144.109 194.232 144.603 194.984 145.22 195.63C146.74 197.135 148.514 198.36 150.46 199.25C152.564 200.268 154.744 201.121 156.98 201.8C161.575 203.232 166.258 204.364 171 205.19C180.64 206.84 190.48 207.78 200.33 208.49C220.05 209.86 239.9 210.25 259.74 210.44C279.58 210.63 299.46 210.49 319.33 210.35C359.08 210.05 398.86 209.55 438.69 210.14C458.61 210.45 478.54 211.02 498.47 212.2C518.4 213.38 538.33 215.12 558.18 218.4C568.176 219.993 578.06 222.228 587.77 225.09C592.705 226.568 597.542 228.358 602.25 230.45C607.156 232.594 611.775 235.342 616 238.63C620.571 242.127 624.113 246.795 626.25 252.14C627.286 254.933 627.837 257.882 627.88 260.86C627.909 263.611 627.692 266.358 627.23 269.07C626.292 274.493 624.378 279.701 621.58 284.44C618.831 289.055 615.467 293.273 611.58 296.98C603.97 304.35 595.2 309.98 586.23 314.77C577.261 319.467 568.021 323.628 558.56 327.23C539.78 334.48 520.67 340.33 501.62 346.1C482.57 351.87 463.54 357.45 444.89 363.88C435.58 367.1 426.36 370.54 417.39 374.41C408.469 378.169 399.85 382.609 391.61 387.69C383.55 392.79 376.07 398.75 370.61 405.95C365.064 412.921 361.999 421.542 361.9 430.45C361.882 439.692 363.778 448.837 367.47 457.31C371.287 465.88 376.471 473.773 382.82 480.68C389.281 487.746 396.444 494.135 404.2 499.75C408.07 502.62 412.1 505.32 416.2 507.9C420.3 510.48 424.5 512.9 428.77 515.3C437.3 520.01 446.1 524.3 455.07 528.23C464.04 532.16 473.17 535.8 482.4 539.23C500.87 546 519.76 551.75 538.81 556.9C557.86 562.05 577.14 566.52 596.5 570.55C635.24 578.55 674.39 584.84 713.69 589.97C752.99 595.1 792.46 599.08 831.99 602.19C851.763 603.743 871.546 605.077 891.34 606.19C911.12 607.28 930.99 608.19 950.68 608.69H950.75C952.622 608.789 954.382 609.614 955.656 610.99C956.929 612.367 957.615 614.186 957.569 616.06C957.522 617.935 956.745 619.717 955.405 621.028C954.064 622.339 952.265 623.075 950.39 623.08H950.34C930.34 622.45 910.44 621.41 890.52 620.2C870.6 618.99 850.74 617.52 830.88 615.84C791.16 612.47 751.5 608.23 711.97 602.84C672.44 597.45 633.05 590.92 593.97 582.56C574.44 578.37 554.97 573.72 535.68 568.39C516.39 563.06 497.17 557 478.35 550C468.94 546.48 459.6 542.73 450.35 538.6C441.1 534.47 432.08 530.01 423.23 525.07C418.81 522.58 414.43 520.01 410.15 517.26C405.87 514.51 401.64 511.65 397.54 508.57C389.215 502.471 381.539 495.535 374.63 487.87C367.554 480.057 361.792 471.148 357.57 461.49C353.358 451.646 351.234 441.036 351.33 430.33C351.39 424.759 352.405 419.239 354.33 414.01C356.235 408.843 358.934 404.005 362.33 399.67C369 391.09 377.43 384.57 386.15 379.1C394.865 373.79 403.975 369.156 413.4 365.24C422.71 361.29 432.16 357.83 441.65 354.61C460.65 348.18 479.8 342.68 498.84 337.04C517.88 331.4 536.84 325.7 555.21 318.72C564.367 315.304 573.312 311.347 582 306.87C590.54 302.35 598.71 297.15 605.44 290.68C608.785 287.528 611.685 283.935 614.06 280C616.356 276.17 617.939 271.955 618.73 267.56C619.105 265.373 619.292 263.159 619.29 260.94C619.277 258.934 618.919 256.944 618.23 255.06C616.639 251.13 614.021 247.701 610.65 245.13C607.016 242.276 603.043 239.885 598.82 238.01C594.451 236.055 589.962 234.381 585.38 233C576.026 230.196 566.504 227.992 556.87 226.4C537.37 223.239 517.721 221.083 498 219.94C478.25 218.66 458.42 217.94 438.58 217.56C398.9 216.74 359.15 217.01 319.38 217.08C299.49 217.08 279.6 217.08 259.69 216.84C239.78 216.6 219.85 216.03 199.91 214.53C189.91 213.75 179.91 212.75 170.01 211C164.978 210.141 160.008 208.955 155.13 207.45C152.618 206.659 150.168 205.683 147.8 204.53C145.231 203.313 142.901 201.647 140.92 199.61C139.826 198.447 138.958 197.091 138.36 195.61C138.064 194.832 137.852 194.024 137.73 193.2C137.621 192.494 137.547 191.783 137.51 191.07C137.364 188.211 137.789 185.353 138.76 182.66C140.68 177.32 144.2 173.06 147.96 169.47C151.746 165.981 155.851 162.854 160.22 160.13C164.5 157.39 168.91 154.93 173.37 152.62C191.24 143.4 209.83 136.2 227.76 127.87C232.24 125.78 236.67 123.63 240.99 121.31C245.286 119.043 249.425 116.491 253.38 113.67C255.295 112.284 257.1 110.753 258.78 109.09C260.393 107.527 261.762 105.73 262.84 103.76C263.33 102.838 263.7 101.856 263.94 100.84C264.051 100.346 264.127 99.8446 264.17 99.34C264.17 99.1 264.17 98.83 264.17 98.6C264.18 98.4702 264.18 98.3398 264.17 98.21C263.924 97.4726 263.469 96.8228 262.86 96.34C262.06 95.6371 261.18 95.0297 260.24 94.53C258.167 93.424 256.002 92.5005 253.77 91.77C251.5 90.99 249.16 90.32 246.77 89.72C242.04 88.51 237.21 87.54 232.35 86.72C222.63 85.02 212.8 83.72 202.95 82.72C183.24 80.6 163.43 79.22 143.6 78.11C123.77 77 104 76.18 84.0898 75.6C64.1798 75.02 44.3498 74.65 24.4898 74.52C24.1026 74.52 23.7312 74.3662 23.4574 74.0924C23.1836 73.8186 23.0298 73.4472 23.0298 73.06C23.0298 72.6728 23.1836 72.3014 23.4574 72.0276C23.7312 71.7538 24.1026 71.6 24.4898 71.6Z" fill="url(#paint0_linear_114_2470)"/>
<path d="M1035.82 399.33H949.01V465.93L1035.82 399.33Z" fill="url(#paint1_linear_114_2470)"/>
<path d="M1077.63 303.65C1077.63 231.245 1018.93 172.55 946.53 172.55C874.125 172.55 815.43 231.245 815.43 303.65C815.43 376.055 874.125 434.75 946.53 434.75C1018.93 434.75 1077.63 376.055 1077.63 303.65Z" fill="url(#paint2_linear_114_2470)"/>
<path d="M405.72 278.42H356.69V316.03L405.72 278.42Z" fill="url(#paint3_linear_114_2470)"/>
<path d="M661.79 145.37H622.65V175.4L661.79 145.37Z" fill="url(#paint4_linear_114_2470)"/>
<path d="M169.92 131.06H139.65V154.28L169.92 131.06Z" fill="url(#paint5_linear_114_2470)"/>
<path d="M289.31 59.74H266.79V77.03L289.31 59.74Z" fill="url(#paint6_linear_114_2470)"/>
<path d="M39.69 42.49H24.21V54.37L39.69 42.49Z" fill="url(#paint7_linear_114_2470)"/>
<g filter="url(#filter0_d_114_2470)">
<path d="M961.219 626.59C967.167 620.642 967.167 610.999 961.219 605.052C955.272 599.104 945.629 599.104 939.681 605.052C933.733 610.999 933.733 620.642 939.681 626.59C945.629 632.538 955.272 632.538 961.219 626.59Z" fill="#275BED"/>
<path d="M962.987 628.358C969.911 621.434 969.911 610.208 962.987 603.284C956.063 596.36 944.837 596.36 937.913 603.284C930.989 610.208 930.989 621.434 937.913 628.358C944.837 635.282 956.063 635.282 962.987 628.358Z" stroke="white" stroke-width="5"/>
</g>
<path d="M357.5 397.86C356.503 397.86 355.546 397.464 354.841 396.759C354.136 396.054 353.74 395.097 353.74 394.1V392.22C353.714 391.709 353.791 391.198 353.969 390.719C354.146 390.239 354.419 389.8 354.771 389.43C355.124 389.059 355.547 388.763 356.017 388.562C356.487 388.36 356.993 388.256 357.505 388.256C358.016 388.256 358.522 388.36 358.992 388.562C359.462 388.763 359.886 389.059 360.238 389.43C360.591 389.8 360.864 390.239 361.041 390.719C361.218 391.198 361.296 391.709 361.27 392.22V394.1C361.27 394.595 361.172 395.084 360.983 395.541C360.793 395.998 360.515 396.413 360.165 396.762C359.815 397.112 359.399 397.388 358.942 397.577C358.484 397.765 357.994 397.861 357.5 397.86ZM357.5 377.17C356.502 377.167 355.545 376.769 354.841 376.062C354.136 375.355 353.74 374.398 353.74 373.4V371.52C353.79 370.555 354.208 369.646 354.909 368.98C355.609 368.315 356.539 367.944 357.505 367.944C358.471 367.944 359.401 368.315 360.101 368.98C360.802 369.646 361.22 370.555 361.27 371.52V373.4C361.27 374.4 360.873 375.359 360.166 376.066C359.459 376.773 358.5 377.17 357.5 377.17ZM357.5 356.47C356.503 356.47 355.546 356.074 354.841 355.369C354.136 354.664 353.74 353.707 353.74 352.71V350.83C353.714 350.319 353.791 349.808 353.969 349.329C354.146 348.849 354.419 348.41 354.771 348.04C355.124 347.669 355.547 347.374 356.017 347.172C356.487 346.97 356.993 346.866 357.505 346.866C358.016 346.866 358.522 346.97 358.992 347.172C359.462 347.374 359.886 347.669 360.238 348.04C360.591 348.41 360.864 348.849 361.041 349.329C361.218 349.808 361.296 350.319 361.27 350.83V352.71C361.27 353.205 361.172 353.694 360.983 354.151C360.793 354.608 360.515 355.023 360.165 355.372C359.815 355.722 359.399 355.998 358.942 356.187C358.484 356.375 357.994 356.471 357.5 356.47ZM357.5 335.78C356.502 335.777 355.545 335.379 354.841 334.672C354.136 333.966 353.74 333.008 353.74 332.01V330.13C353.79 329.165 354.208 328.256 354.909 327.591C355.609 326.925 356.539 326.554 357.505 326.554C358.471 326.554 359.401 326.925 360.101 327.591C360.802 328.256 361.22 329.165 361.27 330.13V332C361.271 332.496 361.175 332.987 360.986 333.446C360.797 333.904 360.519 334.321 360.169 334.672C359.819 335.023 359.403 335.302 358.945 335.492C358.487 335.682 357.996 335.78 357.5 335.78Z" fill="#1C55E9"/>
<g filter="url(#filter1_d_114_2470)">
<path d="M362.446 432.129C369.171 429.343 372.365 421.633 369.579 414.908C366.794 408.183 359.084 404.99 352.359 407.775C345.634 410.561 342.44 418.271 345.226 424.996C348.011 431.721 355.721 434.915 362.446 432.129Z" fill="#275BED"/>
<path d="M363.403 434.439C371.403 431.125 375.203 421.952 371.889 413.952C368.575 405.951 359.403 402.152 351.402 405.466C343.401 408.78 339.602 417.952 342.916 425.953C346.23 433.953 355.402 437.753 363.403 434.439Z" stroke="white" stroke-width="5"/>
</g>
<path d="M622.74 240.28C621.944 240.28 621.181 239.964 620.619 239.401C620.056 238.839 619.74 238.076 619.74 237.28V235.79C619.74 234.994 620.056 234.231 620.619 233.669C621.181 233.106 621.944 232.79 622.74 232.79C623.536 232.79 624.299 233.106 624.861 233.669C625.424 234.231 625.74 234.994 625.74 235.79V237.28C625.74 238.076 625.424 238.839 624.861 239.401C624.299 239.964 623.536 240.28 622.74 240.28ZM622.74 223.91C621.944 223.91 621.181 223.594 620.619 223.031C620.056 222.469 619.74 221.706 619.74 220.91V219.42C619.74 218.624 620.056 217.861 620.619 217.299C621.181 216.736 621.944 216.42 622.74 216.42C623.536 216.42 624.299 216.736 624.861 217.299C625.424 217.861 625.74 218.624 625.74 219.42V220.91C625.74 221.706 625.424 222.469 624.861 223.031C624.299 223.594 623.536 223.91 622.74 223.91ZM622.74 207.54C621.944 207.54 621.181 207.224 620.619 206.661C620.056 206.099 619.74 205.336 619.74 204.54V203.05C619.74 202.254 620.056 201.491 620.619 200.929C621.181 200.366 621.944 200.05 622.74 200.05C623.536 200.05 624.299 200.366 624.861 200.929C625.424 201.491 625.74 202.254 625.74 203.05V204.54C625.74 205.336 625.424 206.099 624.861 206.661C624.299 207.224 623.536 207.54 622.74 207.54ZM622.74 191.17C621.944 191.17 621.181 190.854 620.619 190.291C620.056 189.729 619.74 188.966 619.74 188.17V186.7C619.74 185.904 620.056 185.141 620.619 184.579C621.181 184.016 621.944 183.7 622.74 183.7C623.536 183.7 624.299 184.016 624.861 184.579C625.424 185.141 625.74 185.904 625.74 186.7V188.19C625.735 188.982 625.416 189.74 624.854 190.298C624.292 190.857 623.532 191.17 622.74 191.17Z" fill="#1C55E9"/>
<g filter="url(#filter2_d_114_2470)">
<path d="M622.65 265.28C628.405 265.28 633.07 260.615 633.07 254.86C633.07 249.105 628.405 244.44 622.65 244.44C616.895 244.44 612.23 249.105 612.23 254.86C612.23 260.615 616.895 265.28 622.65 265.28Z" fill="#275BED"/>
<path d="M622.65 267.78C629.786 267.78 635.57 261.995 635.57 254.86C635.57 247.724 629.786 241.94 622.65 241.94C615.515 241.94 609.73 247.724 609.73 254.86C609.73 261.995 615.515 267.78 622.65 267.78Z" stroke="white" stroke-width="5"/>
</g>
<path d="M139.7 188.47C139.396 188.471 139.095 188.413 138.815 188.297C138.534 188.181 138.279 188.011 138.064 187.796C137.849 187.582 137.679 187.326 137.563 187.046C137.448 186.765 137.389 186.464 137.39 186.16V185C137.39 184.387 137.634 183.8 138.067 183.367C138.5 182.933 139.088 182.69 139.7 182.69C140.313 182.69 140.9 182.933 141.334 183.367C141.767 183.8 142.01 184.387 142.01 185V186.15C142.013 186.455 141.955 186.757 141.84 187.039C141.725 187.321 141.555 187.577 141.34 187.793C141.125 188.009 140.87 188.18 140.588 188.296C140.307 188.412 140.005 188.471 139.7 188.47ZM139.7 175.76C139.396 175.761 139.095 175.703 138.815 175.587C138.534 175.471 138.279 175.301 138.064 175.086C137.849 174.872 137.679 174.616 137.563 174.336C137.448 174.055 137.389 173.754 137.39 173.45V172.3C137.39 171.687 137.634 171.1 138.067 170.667C138.5 170.233 139.088 169.99 139.7 169.99C140.313 169.99 140.9 170.233 141.334 170.667C141.767 171.1 142.01 171.687 142.01 172.3V173.45C142.011 173.754 141.953 174.055 141.837 174.336C141.721 174.616 141.551 174.872 141.337 175.086C141.122 175.301 140.867 175.471 140.586 175.587C140.305 175.703 140.004 175.761 139.7 175.76ZM139.7 165.05C139.396 165.051 139.095 164.993 138.815 164.877C138.534 164.761 138.279 164.591 138.064 164.376C137.849 164.162 137.679 163.906 137.563 163.626C137.448 163.345 137.389 163.044 137.39 162.74V161.59C137.39 160.977 137.634 160.39 138.067 159.957C138.5 159.523 139.088 159.28 139.7 159.28C140.313 159.28 140.9 159.523 141.334 159.957C141.767 160.39 142.01 160.977 142.01 161.59V162.74C142.011 163.044 141.953 163.345 141.837 163.626C141.721 163.906 141.551 164.162 141.337 164.376C141.122 164.591 140.867 164.761 140.586 164.877C140.305 164.993 140.004 165.051 139.7 165.05Z" fill="#1C55E9"/>
<g filter="url(#filter3_d_114_2470)">
<path d="M139.64 194.71C143.782 194.71 147.14 191.352 147.14 187.21C147.14 183.068 143.782 179.71 139.64 179.71C135.498 179.71 132.14 183.068 132.14 187.21C132.14 191.352 135.498 194.71 139.64 194.71Z" fill="#275BED"/>
<path d="M139.64 197.21C145.163 197.21 149.64 192.733 149.64 187.21C149.64 181.687 145.163 177.21 139.64 177.21C134.117 177.21 129.64 181.687 129.64 187.21C129.64 192.733 134.117 197.21 139.64 197.21Z" stroke="white" stroke-width="5"/>
</g>
<path d="M266.84 91.87C266.378 91.87 265.936 91.6867 265.61 91.3604C265.283 91.0341 265.1 90.5915 265.1 90.13V89.26C265.133 88.8226 265.33 88.4139 265.652 88.1157C265.974 87.8175 266.396 87.6518 266.835 87.6518C267.274 87.6518 267.696 87.8175 268.018 88.1157C268.34 88.4139 268.537 88.8226 268.57 89.26V90.13C268.571 90.358 268.528 90.5841 268.441 90.7951C268.355 91.0062 268.228 91.1981 268.067 91.3598C267.906 91.5215 267.715 91.6498 267.504 91.7374C267.294 91.8249 267.068 91.87 266.84 91.87ZM266.84 84.31C266.612 84.3113 266.386 84.2675 266.175 84.1812C265.964 84.0948 265.772 83.9676 265.61 83.8069C265.448 83.6461 265.32 83.4549 265.233 83.2444C265.145 83.0338 265.1 82.808 265.1 82.58V81.71C265.082 81.4711 265.113 81.231 265.192 81.0048C265.271 80.7786 265.396 80.5711 265.559 80.3953C265.722 80.2196 265.919 80.0794 266.139 79.9836C266.358 79.8877 266.595 79.8382 266.835 79.8382C267.075 79.8382 267.312 79.8877 267.531 79.9836C267.751 80.0794 267.948 80.2196 268.111 80.3953C268.274 80.5711 268.399 80.7786 268.478 81.0048C268.557 81.231 268.588 81.4711 268.57 81.71V82.58C268.571 82.8076 268.527 83.0331 268.441 83.2436C268.355 83.4541 268.227 83.6453 268.066 83.8063C267.905 83.9672 267.714 84.0946 267.504 84.181C267.293 84.2675 267.068 84.3113 266.84 84.31Z" fill="#1C55E9"/>
<g filter="url(#filter4_d_114_2470)">
<path d="M260.7 99.79C260.698 98.5851 261.053 97.4067 261.721 96.4039C262.389 95.401 263.34 94.6189 264.452 94.1565C265.565 93.694 266.79 93.572 267.972 93.8058C269.154 94.0397 270.24 94.6189 271.093 95.4702C271.945 96.3215 272.526 97.4066 272.762 98.5882C272.998 99.7698 272.878 100.995 272.417 102.108C271.957 103.222 271.176 104.173 270.174 104.843C269.173 105.513 267.995 105.87 266.79 105.87C265.177 105.87 263.629 105.23 262.487 104.09C261.345 102.95 260.703 101.403 260.7 99.79Z" fill="#275BED"/>
<path d="M259.641 95.0179C258.699 96.4324 258.197 98.0946 258.2 99.7941C258.204 102.07 259.11 104.251 260.721 105.859C262.331 107.467 264.514 108.37 266.79 108.37C268.49 108.37 270.151 107.866 271.564 106.921C272.977 105.977 274.078 104.634 274.727 103.064C275.377 101.494 275.546 99.7656 275.214 98.099C274.881 96.4323 274.062 94.9018 272.859 93.701C271.656 92.5002 270.124 91.6832 268.457 91.3533C266.79 91.0235 265.062 91.1956 263.493 91.8479C261.924 92.5003 260.583 93.6035 259.641 95.0179Z" stroke="white" stroke-width="5"/>
</g>
<path d="M24.5299 65.71C24.1577 65.7073 23.8016 65.5576 23.5393 65.2935C23.2771 65.0294 23.1299 64.6722 23.1299 64.3V63.6C23.1299 63.2287 23.2774 62.8726 23.5399 62.61C23.8025 62.3475 24.1586 62.2 24.5299 62.2C24.9012 62.2 25.2573 62.3475 25.5198 62.61C25.7824 62.8726 25.9299 63.2287 25.9299 63.6V64.3C25.9312 64.4847 25.896 64.6678 25.8262 64.8388C25.7564 65.0098 25.6535 65.1653 25.5234 65.2964C25.3933 65.4275 25.2385 65.5315 25.068 65.6025C24.8974 65.6735 24.7146 65.71 24.5299 65.71ZM24.5299 60C24.1586 60 23.8025 59.8525 23.5399 59.5899C23.2774 59.3274 23.1299 58.9713 23.1299 58.6V57.89C23.1299 57.5187 23.2774 57.1626 23.5399 56.9C23.8025 56.6375 24.1586 56.49 24.5299 56.49C24.9012 56.49 25.2573 56.6375 25.5198 56.9C25.7824 57.1626 25.9299 57.5187 25.9299 57.89V58.6C25.9299 58.9713 25.7824 59.3274 25.5198 59.5899C25.2573 59.8525 24.9012 60 24.5299 60Z" fill="#1C55E9"/>
<path d="M1020.31 376.855C1061.06 336.107 1061.06 270.043 1020.31 229.296C979.563 188.548 913.499 188.548 872.751 229.296C832.004 270.043 832.004 336.107 872.751 376.855C913.499 417.602 979.563 417.602 1020.31 376.855Z" fill="white"/>
<path d="M436.68 215.505C436.68 170.48 400.18 133.98 355.155 133.98C310.13 133.98 273.63 170.48 273.63 215.505C273.63 260.53 310.13 297.03 355.155 297.03C400.18 297.03 436.68 260.53 436.68 215.505Z" fill="url(#paint8_linear_114_2470)"/>
<path d="M355.15 280.03C390.982 280.03 420.03 250.982 420.03 215.15C420.03 179.318 390.982 150.27 355.15 150.27C319.318 150.27 290.27 179.318 290.27 215.15C290.27 250.982 319.318 280.03 355.15 280.03Z" fill="white"/>
<path d="M687.78 94.625C687.78 58.7293 658.681 29.63 622.785 29.63C586.889 29.63 557.79 58.7293 557.79 94.625C557.79 130.521 586.889 159.62 622.785 159.62C658.681 159.62 687.78 130.521 687.78 94.625Z" fill="url(#paint9_linear_114_2470)"/>
<path d="M670.573 114.122C681.506 87.7269 668.972 57.4664 642.577 46.5333C616.182 35.6001 585.922 48.1344 574.989 74.5294C564.055 100.924 576.59 131.185 602.985 142.118C629.38 153.051 659.64 140.517 670.573 114.122Z" fill="white"/>
<path d="M139.64 142.9C133.745 142.9 127.908 141.738 122.462 139.482C117.016 137.225 112.068 133.917 107.902 129.747C103.735 125.578 100.43 120.628 98.1769 115.18C95.9238 109.733 94.7661 103.895 94.77 98C94.77 86.0997 99.4974 74.6869 107.912 66.2721C116.327 57.8574 127.74 53.13 139.64 53.13C151.539 53.1327 162.949 57.8612 171.361 66.2757C179.774 74.6901 184.5 86.1015 184.5 98C184.504 103.894 183.347 109.731 181.094 115.178C178.842 120.625 175.538 125.574 171.372 129.744C167.206 133.913 162.26 137.221 156.815 139.479C151.37 141.736 145.534 142.899 139.64 142.9Z" fill="url(#paint10_linear_114_2470)"/>
<path d="M139.64 133.55C159.362 133.55 175.35 117.562 175.35 97.84C175.35 78.1179 159.362 62.13 139.64 62.13C119.918 62.13 103.93 78.1179 103.93 97.84C103.93 117.562 119.918 133.55 139.64 133.55Z" fill="white"/>
<path d="M302.01 34.275C302.01 15.3454 286.664 0 267.735 0C248.805 0 233.46 15.3454 233.46 34.275C233.46 53.2046 248.805 68.55 267.735 68.55C286.664 68.55 302.01 53.2046 302.01 34.275Z" fill="url(#paint11_linear_114_2470)"/>
<path d="M267.73 61.4C282.796 61.4 295.01 49.1864 295.01 34.12C295.01 19.0537 282.796 6.84003 267.73 6.84003C252.664 6.84003 240.45 19.0537 240.45 34.12C240.45 49.1864 252.664 61.4 267.73 61.4Z" fill="white"/>
<path d="M24.08 48.16C17.6936 48.16 11.5687 45.623 7.05287 41.1071C2.53699 36.5913 0 30.4664 0 24.08H0C0 17.6936 2.53699 11.5687 7.05287 7.05287C11.5687 2.53699 17.6936 0 24.08 0V0C30.4664 0 36.5913 2.53699 41.1071 7.05287C45.623 11.5687 48.16 17.6936 48.16 24.08C48.16 30.4664 45.623 36.5913 41.1071 41.1071C36.5913 45.623 30.4664 48.16 24.08 48.16Z" fill="url(#paint12_linear_114_2470)"/>
<path d="M24.0799 43.13C34.6617 43.13 43.2399 34.5518 43.2399 23.97C43.2399 13.3882 34.6617 4.81 24.0799 4.81C13.4981 4.81 4.91992 13.3882 4.91992 23.97C4.91992 34.5518 13.4981 43.13 24.0799 43.13Z" fill="white"/>
<g filter="url(#filter5_d_114_2470)">
<path d="M24.4901 77.97C27.2018 77.97 29.4001 75.7717 29.4001 73.06C29.4001 70.3483 27.2018 68.15 24.4901 68.15C21.7784 68.15 19.5801 70.3483 19.5801 73.06C19.5801 75.7717 21.7784 77.97 24.4901 77.97Z" fill="#275BED"/>
<path d="M24.4901 80.47C28.5825 80.47 31.9001 77.1524 31.9001 73.06C31.9001 68.9676 28.5825 65.65 24.4901 65.65C20.3977 65.65 17.0801 68.9676 17.0801 73.06C17.0801 77.1524 20.3976 80.47 24.4901 80.47Z" stroke="white" stroke-width="5"/>
</g>
<path d="M910.61 275.48V254.24L937.36 239.56H964.11V379.56H937.36V260.8L910.61 275.48Z" fill="#5080F0"/>
<path d="M361.12 207C362.891 204.505 363.768 201.485 363.61 198.43C363.61 193.03 363.47 189.02 356.69 189.02C348.53 189.02 349.77 194.28 349.77 200.36H335.67V194.55C335.67 183.9 347.67 178.55 356.83 178.55C368.59 178.55 377.72 184.5 377.72 197.08C377.72 204.41 377.16 206.35 373.01 212.44L352.26 242.44H377.72V252.96H335.67V242.96L361.12 207Z" fill="#5080F0"/>
<path d="M619 90.52C619.021 90.2839 619.124 90.0628 619.293 89.8962C619.461 89.7295 619.684 89.6281 619.92 89.61C624.03 89.61 628.25 89.72 628.25 84.36V76.48C628.25 73.28 625.25 72.14 622.54 72.14C616.54 72.14 616.72 76.02 616.83 80.47C616.812 80.7063 616.71 80.9286 616.544 81.0971C616.377 81.2656 616.156 81.3694 615.92 81.39H606.1C605.864 81.3694 605.643 81.2656 605.476 81.0971C605.309 80.9286 605.208 80.7063 605.19 80.47V76.37C605.19 67.69 615.46 63.46 622.77 63.46C634.3 63.46 639.9 69.29 639.9 80.59C639.9 87.67 639.9 89.72 634.42 92.59C634.272 92.6576 634.144 92.7637 634.051 92.8973C633.958 93.0309 633.902 93.1871 633.89 93.3496C633.878 93.512 633.909 93.6748 633.981 93.8208C634.054 93.9669 634.164 94.091 634.3 94.18C640.12 97.27 639.9 100.24 639.9 107.31C639.9 119.31 635.21 125.47 622.43 125.47C609.65 125.47 605.43 119.99 605.19 108.34C605.21 108.105 605.313 107.886 605.479 107.719C605.646 107.553 605.865 107.45 606.1 107.43H615.92C616.154 107.45 616.374 107.553 616.541 107.719C616.707 107.886 616.81 108.105 616.83 108.34C616.72 112.68 616.61 116.68 622.54 116.68C625.62 116.68 628.25 115.08 628.25 111.77V103.09C628.25 97.38 624.48 97.38 619.92 97.38C619.684 97.362 619.461 97.2606 619.293 97.0939C619.124 96.9272 619.021 96.7061 619 96.47V90.52Z" fill="#5080F0"/>
<path d="M123.15 113.68C122.975 113.668 122.81 113.592 122.686 113.467C122.563 113.342 122.489 113.176 122.48 113V107.4L134.79 75.47C134.831 75.3459 134.911 75.2379 135.016 75.1608C135.122 75.0838 135.249 75.0416 135.38 75.04H143.11C143.225 75.0338 143.34 75.0566 143.444 75.1063C143.549 75.156 143.639 75.231 143.706 75.3246C143.774 75.4181 143.817 75.5271 143.832 75.6416C143.846 75.7561 143.832 75.8725 143.79 75.98L131.48 106.63C131.443 106.738 131.433 106.852 131.449 106.965C131.466 107.077 131.51 107.184 131.576 107.276C131.643 107.368 131.731 107.443 131.832 107.494C131.934 107.545 132.046 107.571 132.16 107.57H139C139.176 107.558 139.343 107.483 139.468 107.358C139.593 107.233 139.668 107.066 139.68 106.89V95.25C139.679 95.1603 139.695 95.0713 139.729 94.9882C139.763 94.9051 139.813 94.8296 139.876 94.7662C139.94 94.7028 140.015 94.6527 140.098 94.619C140.181 94.5853 140.27 94.5687 140.36 94.57H147.66C147.75 94.5687 147.839 94.5853 147.922 94.619C148.005 94.6527 148.08 94.7028 148.144 94.7662C148.207 94.8296 148.257 94.9051 148.291 94.9882C148.325 95.0713 148.341 95.1603 148.34 95.25V106.89C148.352 107.066 148.427 107.233 148.552 107.358C148.677 107.483 148.843 107.558 149.02 107.57H151.83C151.919 107.567 152.008 107.583 152.091 107.615C152.174 107.648 152.25 107.697 152.313 107.76C152.377 107.822 152.427 107.897 152.461 107.98C152.495 108.062 152.511 108.151 152.51 108.24V113C152.498 113.176 152.423 113.343 152.298 113.468C152.173 113.593 152.006 113.668 151.83 113.68H149.02C148.93 113.679 148.841 113.695 148.758 113.729C148.675 113.763 148.6 113.813 148.536 113.876C148.473 113.94 148.423 114.015 148.389 114.098C148.355 114.181 148.339 114.27 148.34 114.36V119.71C148.328 119.886 148.253 120.053 148.128 120.178C148.003 120.303 147.836 120.378 147.66 120.39H140.36C140.183 120.378 140.017 120.303 139.892 120.178C139.767 120.053 139.692 119.886 139.68 119.71V114.36C139.681 114.27 139.665 114.181 139.631 114.098C139.597 114.015 139.547 113.94 139.484 113.876C139.42 113.813 139.345 113.763 139.262 113.729C139.179 113.695 139.09 113.679 139 113.68H123.15Z" fill="#5080F0"/>
<path d="M265.89 24.75C265.827 24.75 265.765 24.7625 265.708 24.7867C265.65 24.811 265.598 24.8465 265.554 24.8912C265.51 24.9359 265.476 24.9889 265.453 25.0471C265.43 25.1053 265.419 25.1675 265.42 25.23V32.39C265.417 32.4743 265.437 32.5579 265.478 32.6319C265.518 32.7059 265.578 32.7676 265.65 32.8106C265.723 32.8536 265.806 32.8762 265.89 32.8761C265.975 32.876 266.057 32.8532 266.13 32.81C267.469 32.1244 268.956 31.7808 270.46 31.81C274.07 31.81 277.39 33.41 277.39 37.44V45.6C277.39 50.28 272.39 52.42 268.39 52.42C263.06 52.42 259.57 49.99 259.39 44.72C259.389 44.6575 259.4 44.5953 259.423 44.5371C259.446 44.4789 259.48 44.4259 259.524 44.3812C259.568 44.3365 259.62 44.301 259.678 44.2767C259.735 44.2525 259.797 44.24 259.86 44.24H265C265.117 44.237 265.231 44.2788 265.318 44.3569C265.406 44.4349 265.46 44.5433 265.47 44.66C265.53 46.66 266.06 47.85 268.55 47.85C270.09 47.85 271.39 47.14 271.39 45.49V38.08C271.39 36.6 269.85 35.83 268.55 35.83C267.964 35.7922 267.379 35.909 266.852 36.1688C266.326 36.4285 265.876 36.8221 265.55 37.31C265.505 37.3817 265.444 37.4411 265.37 37.483C265.297 37.5249 265.214 37.5479 265.13 37.55H260.57C260.448 37.5385 260.333 37.484 260.247 37.3961C260.161 37.3082 260.109 37.1927 260.1 37.07V21C260.1 20.8754 260.15 20.7558 260.238 20.6677C260.326 20.5795 260.445 20.53 260.57 20.53H276.92C276.983 20.5287 277.045 20.5399 277.103 20.5629C277.161 20.5859 277.214 20.6203 277.259 20.6641C277.304 20.7079 277.339 20.7601 277.363 20.8178C277.388 20.8755 277.4 20.9374 277.4 21V24.32C277.39 24.4432 277.337 24.5588 277.248 24.6452C277.16 24.7317 277.043 24.7831 276.92 24.79L265.89 24.75Z" fill="#5080F0"/>
<path d="M24.06 22C24.0317 22.0614 24.0224 22.1298 24.0331 22.1965C24.0439 22.2632 24.0743 22.3252 24.1204 22.3745C24.1666 22.4239 24.2264 22.4584 24.2922 22.4736C24.358 22.4888 24.4269 22.4841 24.49 22.46C24.8957 22.3842 25.3073 22.3441 25.72 22.34C30.28 22.34 30.33 25.62 30.33 29.12C30.33 33.63 28.79 35.98 23.85 35.98C18.91 35.98 17.37 33.59 17.37 29.12C17.2268 27.5258 17.5062 25.9219 18.18 24.47L23.8 13.17C23.8265 13.1142 23.8695 13.068 23.9232 13.0376C23.9768 13.0072 24.0386 12.994 24.1 13H28.2C28.2559 12.9987 28.311 13.0121 28.3601 13.0387C28.4092 13.0653 28.4504 13.1044 28.4797 13.1519C28.5091 13.1994 28.5254 13.2538 28.5272 13.3096C28.529 13.3654 28.5162 13.4207 28.49 13.47L24.06 22ZM26 26.85C26 25.74 24.81 25.23 23.87 25.23C22.93 25.23 21.74 25.74 21.74 26.85V31.07C21.74 32.18 22.93 32.69 23.87 32.69C24.81 32.69 26 32.18 26 31.07V26.85Z" fill="#5080F0"/>
<defs>
<filter id="filter0_d_114_2470" x="917.22" y="586.591" width="66.46" height="66.46" filterUnits="userSpaceOnUse" color-interpolation-filters="sRGB">
<feFlood flood-opacity="0" result="BackgroundImageFix"/>
<feColorMatrix in="SourceAlpha" type="matrix" values="0 0 0 0 0 0 0 0 0 0 0 0 0 0 0 0 0 0 127 0" result="hardAlpha"/>
<feOffset dy="4"/>
<feGaussianBlur stdDeviation="6.5"/>
<feComposite in2="hardAlpha" operator="out"/>
<feColorMatrix type="matrix" values="0 0 0 0 0.15375 0 0 0 0 0.232675 0 0 0 0 0.5125 0 0 0 0.25 0"/>
<feBlend mode="normal" in2="BackgroundImageFix" result="effect1_dropShadow_114_2470"/>
<feBlend mode="normal" in="SourceGraphic" in2="effect1_dropShadow_114_2470" result="shape"/>
</filter>
<filter id="filter1_d_114_2470" x="326.218" y="392.767" width="62.3696" height="62.3695" filterUnits="userSpaceOnUse" color-interpolation-filters="sRGB">
<feFlood flood-opacity="0" result="BackgroundImageFix"/>
<feColorMatrix in="SourceAlpha" type="matrix" values="0 0 0 0 0 0 0 0 0 0 0 0 0 0 0 0 0 0 127 0" result="hardAlpha"/>
<feOffset dy="4"/>
<feGaussianBlur stdDeviation="6.5"/>
<feComposite in2="hardAlpha" operator="out"/>
<feColorMatrix type="matrix" values="0 0 0 0 0.15375 0 0 0 0 0.232675 0 0 0 0 0.5125 0 0 0 0.25 0"/>
<feBlend mode="normal" in2="BackgroundImageFix" result="effect1_dropShadow_114_2470"/>
<feBlend mode="normal" in="SourceGraphic" in2="effect1_dropShadow_114_2470" result="shape"/>
</filter>
<filter id="filter2_d_114_2470" x="594.23" y="230.44" width="56.8401" height="56.84" filterUnits="userSpaceOnUse" color-interpolation-filters="sRGB">
<feFlood flood-opacity="0" result="BackgroundImageFix"/>
<feColorMatrix in="SourceAlpha" type="matrix" values="0 0 0 0 0 0 0 0 0 0 0 0 0 0 0 0 0 0 127 0" result="hardAlpha"/>
<feOffset dy="4"/>
<feGaussianBlur stdDeviation="6.5"/>
<feComposite in2="hardAlpha" operator="out"/>
<feColorMatrix type="matrix" values="0 0 0 0 0.15375 0 0 0 0 0.232675 0 0 0 0 0.5125 0 0 0 0.25 0"/>
<feBlend mode="normal" in2="BackgroundImageFix" result="effect1_dropShadow_114_2470"/>
<feBlend mode="normal" in="SourceGraphic" in2="effect1_dropShadow_114_2470" result="shape"/>
</filter>
<filter id="filter3_d_114_2470" x="114.14" y="165.71" width="51" height="51" filterUnits="userSpaceOnUse" color-interpolation-filters="sRGB">
<feFlood flood-opacity="0" result="BackgroundImageFix"/>
<feColorMatrix in="SourceAlpha" type="matrix" values="0 0 0 0 0 0 0 0 0 0 0 0 0 0 0 0 0 0 127 0" result="hardAlpha"/>
<feOffset dy="4"/>
<feGaussianBlur stdDeviation="6.5"/>
<feComposite in2="hardAlpha" operator="out"/>
<feColorMatrix type="matrix" values="0 0 0 0 0.15375 0 0 0 0 0.232675 0 0 0 0 0.5125 0 0 0 0.25 0"/>
<feBlend mode="normal" in2="BackgroundImageFix" result="effect1_dropShadow_114_2470"/>
<feBlend mode="normal" in="SourceGraphic" in2="effect1_dropShadow_114_2470" result="shape"/>
</filter>
<filter id="filter4_d_114_2470" x="242.7" y="79.69" width="48.1799" height="48.18" filterUnits="userSpaceOnUse" color-interpolation-filters="sRGB">
<feFlood flood-opacity="0" result="BackgroundImageFix"/>
<feColorMatrix in="SourceAlpha" type="matrix" values="0 0 0 0 0 0 0 0 0 0 0 0 0 0 0 0 0 0 127 0" result="hardAlpha"/>
<feOffset dy="4"/>
<feGaussianBlur stdDeviation="6.5"/>
<feComposite in2="hardAlpha" operator="out"/>
<feColorMatrix type="matrix" values="0 0 0 0 0.15375 0 0 0 0 0.232675 0 0 0 0 0.5125 0 0 0 0.25 0"/>
<feBlend mode="normal" in2="BackgroundImageFix" result="effect1_dropShadow_114_2470"/>
<feBlend mode="normal" in="SourceGraphic" in2="effect1_dropShadow_114_2470" result="shape"/>
</filter>
<filter id="filter5_d_114_2470" x="1.58008" y="54.15" width="45.8198" height="45.82" filterUnits="userSpaceOnUse" color-interpolation-filters="sRGB">
<feFlood flood-opacity="0" result="BackgroundImageFix"/>
<feColorMatrix in="SourceAlpha" type="matrix" values="0 0 0 0 0 0 0 0 0 0 0 0 0 0 0 0 0 0 127 0" result="hardAlpha"/>
<feOffset dy="4"/>
<feGaussianBlur stdDeviation="6.5"/>
<feComposite in2="hardAlpha" operator="out"/>
<feColorMatrix type="matrix" values="0 0 0 0 0.15375 0 0 0 0 0.232675 0 0 0 0 0.5125 0 0 0 0.25 0"/>
<feBlend mode="normal" in2="BackgroundImageFix" result="effect1_dropShadow_114_2470"/>
<feBlend mode="normal" in="SourceGraphic" in2="effect1_dropShadow_114_2470" result="shape"/>
</filter>
<linearGradient id="paint0_linear_114_2470" x1="1002.5" y1="646.5" x2="-281.5" y2="-53.0001" gradientUnits="userSpaceOnUse">
<stop stop-color="#1C54DE"/>
<stop offset="1" stop-color="white"/>
</linearGradient>
<linearGradient id="paint1_linear_114_2470" x1="942.87" y1="454.05" x2="999.86" y2="391.11" gradientUnits="userSpaceOnUse">
<stop stop-color="#CCDAFF"/>
<stop offset="1" stop-color="#344CCB"/>
</linearGradient>
<linearGradient id="paint2_linear_114_2470" x1="815.43" y1="303.65" x2="1181.5" y2="419" gradientUnits="userSpaceOnUse">
<stop stop-color="#BFD1FF"/>
<stop offset="1" stop-color="#F1F7FF"/>
</linearGradient>
<linearGradient id="paint3_linear_114_2470" x1="353.222" y1="309.321" x2="385.405" y2="273.773" gradientUnits="userSpaceOnUse">
<stop stop-color="#CCDAFF"/>
<stop offset="1" stop-color="#344CCB"/>
</linearGradient>
<linearGradient id="paint4_linear_114_2470" x1="619.882" y1="170.043" x2="645.579" y2="141.665" gradientUnits="userSpaceOnUse">
<stop stop-color="#CCDAFF"/>
<stop offset="1" stop-color="#344CCB"/>
</linearGradient>
<linearGradient id="paint5_linear_114_2470" x1="137.509" y1="150.138" x2="157.378" y2="128.192" gradientUnits="userSpaceOnUse">
<stop stop-color="#CCDAFF"/>
<stop offset="1" stop-color="#344CCB"/>
</linearGradient>
<linearGradient id="paint6_linear_114_2470" x1="265.197" y1="73.9458" x2="279.993" y2="57.6169" gradientUnits="userSpaceOnUse">
<stop stop-color="#CCDAFF"/>
<stop offset="1" stop-color="#344CCB"/>
</linearGradient>
<linearGradient id="paint7_linear_114_2470" x1="23.1151" y1="52.2509" x2="33.2812" y2="41.027" gradientUnits="userSpaceOnUse">
<stop stop-color="#CCDAFF"/>
<stop offset="1" stop-color="#344CCB"/>
</linearGradient>
<linearGradient id="paint8_linear_114_2470" x1="273.63" y1="215.505" x2="501.272" y2="287.236" gradientUnits="userSpaceOnUse">
<stop stop-color="#BFD1FF"/>
<stop offset="1" stop-color="#F1F7FF"/>
</linearGradient>
<linearGradient id="paint9_linear_114_2470" x1="557.79" y1="94.625" x2="739.275" y2="151.812" gradientUnits="userSpaceOnUse">
<stop stop-color="#BFD1FF"/>
<stop offset="1" stop-color="#F1F7FF"/>
</linearGradient>
<linearGradient id="paint10_linear_114_2470" x1="94.77" y1="98.015" x2="220.056" y2="137.476" gradientUnits="userSpaceOnUse">
<stop stop-color="#BFD1FF"/>
<stop offset="1" stop-color="#F1F7FF"/>
</linearGradient>
<linearGradient id="paint11_linear_114_2470" x1="233.46" y1="34.275" x2="329.166" y2="64.4323" gradientUnits="userSpaceOnUse">
<stop stop-color="#BFD1FF"/>
<stop offset="1" stop-color="#F1F7FF"/>
</linearGradient>
<linearGradient id="paint12_linear_114_2470" x1="3.15712e-07" y1="24.08" x2="67.2385" y2="45.2671" gradientUnits="userSpaceOnUse">
<stop stop-color="#BFD1FF"/>
<stop offset="1" stop-color="#F1F7FF"/>
</linearGradient>
</defs>
</svg>
