<svg width="80" height="80" viewBox="0 0 80 80" fill="none" xmlns="http://www.w3.org/2000/svg">
<g clip-path="url(#clip0_270_10174)">
<path d="M10.0078 34.1895H12.0649V38.7599H16.4035V34.1895H18.4633V45.4083H16.4035V40.742H12.0649V45.4083H10.0078V34.1895ZM24.9803 41.7542C24.9803 42.6933 24.2151 43.4575 23.2762 43.4575C22.337 43.4575 21.5723 42.6933 21.5723 41.7542V36.9241H19.6214V41.7542C19.6214 43.7692 21.261 45.4083 23.2762 45.4083C25.2909 45.4083 26.9305 43.7692 26.9305 41.7542V36.9241H24.9803V41.7542ZM32.3766 36.9807C31.4088 36.9807 30.7334 37.2615 30.081 37.9018V34.1895H28.1238V41.0694C28.1238 43.6447 29.9857 45.4083 32.0775 45.4083C34.403 45.4083 36.4406 43.6132 36.4406 41.1946C36.4406 38.8066 34.5617 36.9807 32.3766 36.9807ZM32.4252 43.5976C31.099 43.5976 30.0848 42.49 30.0848 41.1946C30.0848 39.8989 31.099 38.791 32.4252 38.791C33.5489 38.791 34.5637 39.8989 34.5637 41.1946C34.5637 42.49 33.5489 43.5976 32.4252 43.5976ZM39.7278 37.4737C39.7278 36.4899 40.3834 36.178 41.101 36.178C41.6788 36.178 42.4434 36.6149 42.9423 37.1457L44.2217 35.6475C43.5823 34.7893 42.2872 34.1961 41.2259 34.1961C39.1032 34.1961 37.5738 35.4291 37.5738 37.4737C37.5738 41.266 42.2403 40.0639 42.2403 42.187C42.2403 42.8417 41.6007 43.4197 40.8676 43.4197C39.7122 43.4197 39.3375 42.8579 38.8071 42.2646L37.3866 43.7314C38.2924 44.8396 39.4156 45.4017 40.758 45.4017C42.7711 45.4017 44.3942 44.1532 44.3942 42.2021C44.3942 37.9885 39.7278 39.2996 39.7278 37.4737ZM49.5467 36.8707C47.4552 36.8707 45.593 38.6333 45.593 41.2091V48.1068H47.5501V44.3768C48.2025 45.0167 48.8777 45.298 49.8458 45.298C52.0308 45.298 53.9099 43.4723 53.9099 41.0843C53.9099 38.6654 51.8718 36.8707 49.5467 36.8707ZM49.8945 43.4879C48.5684 43.4879 47.5541 42.3788 47.5541 41.0843C47.5541 39.7886 48.5684 38.6807 49.8945 38.6807C51.018 38.6807 52.0329 39.7886 52.0329 41.0843C52.0329 42.3788 51.018 43.4879 49.8945 43.4879ZM68.3163 43.5976C67.1619 43.5976 66.8342 43.0985 66.8342 42.3334V38.947H68.6286V37.2305H66.8342V34.9673L64.8528 35.8567V42.7548C64.8528 44.5186 66.0696 45.4083 67.7388 45.4083C67.9885 45.4083 68.3322 45.3922 68.5197 45.3459L69.0036 43.567C68.7851 43.5821 68.5355 43.5976 68.3163 43.5976Z" fill="#45535E"/>
<path d="M63.1548 39.0468C62.7796 38.4013 62.2518 37.8838 61.592 37.4942C61.0989 37.2071 60.5876 37.0249 60.0115 36.9467V34.8956C60.5876 34.6509 60.9452 34.1094 60.9452 33.4777C60.9452 32.6167 60.2547 31.919 59.3944 31.919C58.5334 31.919 57.8308 32.6167 57.8308 33.4777C57.8308 34.1094 58.1677 34.6509 58.7439 34.8956V36.9476C58.283 37.0142 57.805 37.1579 57.3685 37.3787C56.4769 36.7016 53.5535 34.4803 51.8433 33.1829C51.8839 33.0366 51.9151 32.8859 51.9151 32.7269C51.9151 31.7732 51.1428 31.0002 50.1888 31.0002C49.2348 31.0002 48.4629 31.7732 48.4629 32.7269C48.4629 33.6804 49.2356 34.4536 50.1896 34.4536C50.5151 34.4536 50.816 34.3585 51.0758 34.202L51.4367 34.4758L56.3958 38.0489C56.1337 38.2896 55.8895 38.5634 55.6942 38.8706C55.2983 39.4969 55.0565 40.186 55.0565 40.9376V41.0945C55.0565 41.6221 55.1567 42.1203 55.3275 42.5882C55.4779 42.9968 55.6977 43.3683 55.97 43.7042L54.3242 45.3541C54.0856 45.2654 53.8266 45.2471 53.578 45.3017C53.3294 45.3562 53.1017 45.4811 52.9223 45.6616C52.798 45.7852 52.6995 45.9323 52.6325 46.0943C52.5655 46.2563 52.5313 46.43 52.5319 46.6053C52.532 46.9617 52.6708 47.2967 52.9229 47.5487C53.0465 47.6731 53.1936 47.7717 53.3555 47.8388C53.5175 47.906 53.6912 47.9403 53.8665 47.9398C54.0418 47.9403 54.2156 47.9059 54.3776 47.8388C54.5396 47.7717 54.6867 47.6731 54.8103 47.5487C54.9345 47.4251 55.033 47.278 55.1 47.1161C55.1671 46.9542 55.2014 46.7806 55.201 46.6053C55.201 46.4674 55.1797 46.3328 55.1396 46.2049L56.8407 44.5035C57.074 44.6646 57.3259 44.8002 57.5967 44.9172C58.1308 45.1481 58.7203 45.2888 59.3655 45.2888H59.4837C60.197 45.2888 60.8698 45.1213 61.5023 44.7786C62.1688 44.4164 62.6905 43.9211 63.0846 43.2888C63.4808 42.6548 63.6989 41.9543 63.6989 41.1837V41.1452C63.6989 40.3871 63.5234 39.6876 63.1548 39.0468ZM61.0762 42.6159C60.6145 43.129 60.0837 43.4451 59.4837 43.4451H59.3848C59.0421 43.4451 58.7069 43.3504 58.3787 43.1781C58.0088 42.9884 57.7277 42.7179 57.4976 42.3753C57.2597 42.039 57.1307 41.6719 57.1307 41.2826V41.1644C57.1307 40.7817 57.2041 40.4189 57.3891 40.0762C57.587 39.7015 57.8542 39.4102 58.2096 39.1786C58.5585 38.9486 58.9312 38.8358 59.3462 38.8358H59.3848C59.7612 38.8358 60.1175 38.91 60.4537 39.0821C60.7963 39.2655 61.0762 39.5161 61.2932 39.8458C61.5039 40.1756 61.6293 40.5313 61.6696 40.9189C61.676 40.9994 61.6792 41.0819 61.6792 41.1607C61.6792 41.6866 61.4782 42.1737 61.0762 42.6159Z" fill="#F8761F"/>
</g>
<defs>
<clipPath id="clip0_270_10174">
<rect width="59" height="17.1696" fill="white" transform="translate(10 31)"/>
</clipPath>
</defs>
</svg>
