<svg
  width="89"
  height="27"
  viewBox="0 0 89 27"
  fill="none"
  xmlns="http://www.w3.org/2000/svg"
>
<path
    d="M0.0117188 5.28418H3.09741V12.1397H9.60531V5.28418H12.695V22.1123H9.60531V15.1128H3.09741V22.1123H0.0117188V5.28418ZM22.4704 16.6311C22.4704 18.0399 21.3227 19.1862 19.9143 19.1862C18.5054 19.1862 17.3584 18.0399 17.3584 16.6311V9.38604H14.4321V16.6311C14.4321 19.6537 16.8916 22.1123 19.9143 22.1123C22.9364 22.1123 25.3957 19.6537 25.3957 16.6311V9.38604H22.4704V16.6311ZM33.5648 9.47091C32.1133 9.47091 31.1 9.89214 30.1215 10.8527V5.28418H27.1857V15.6041C27.1857 19.4669 29.9786 22.1123 33.1163 22.1123C36.6046 22.1123 39.6609 19.4197 39.6609 15.7918C39.6609 12.2099 36.8426 9.47091 33.5648 9.47091ZM33.6378 19.3964C31.6485 19.3964 30.1272 17.735 30.1272 15.7918C30.1272 13.8483 31.6485 12.1864 33.6378 12.1864C35.3234 12.1864 36.8455 13.8483 36.8455 15.7918C36.8455 17.735 35.3234 19.3964 33.6378 19.3964ZM44.5917 10.2105C44.5917 8.73475 45.575 8.26685 46.6515 8.26685C47.5182 8.26685 48.665 8.92229 49.4135 9.71843L51.3326 7.47123C50.3735 6.18385 48.4308 5.29403 46.8389 5.29403C43.6549 5.29403 41.3606 7.14351 41.3606 10.2105C41.3606 15.899 48.3605 14.0958 48.3605 17.2804C48.3605 18.2625 47.401 19.1295 46.3013 19.1295C44.5684 19.1295 44.0063 18.2867 43.2106 17.3969L41.0799 19.597C42.4385 21.2593 44.1235 22.1025 46.137 22.1025C49.1566 22.1025 51.5914 20.2297 51.5914 17.303C51.5914 10.9826 44.5917 12.9493 44.5917 10.2105ZM59.3201 9.30601C56.1827 9.30601 53.3895 11.9499 53.3895 15.8136V26.1601H56.3251V20.5652C57.3038 21.525 58.3165 21.9469 59.7686 21.9469C63.0462 21.9469 65.8648 19.2083 65.8648 15.6264C65.8648 11.9979 62.8077 9.30601 59.3201 9.30601ZM59.8417 19.2318C57.8526 19.2318 56.3312 17.5682 56.3312 15.6264C56.3312 13.6829 57.8526 12.0209 59.8417 12.0209C61.527 12.0209 63.0493 13.6829 63.0493 15.6264C63.0493 17.5682 61.527 19.2318 59.8417 19.2318ZM87.4745 19.3964C85.7429 19.3964 85.2513 18.6476 85.2513 17.5001V12.4204H87.9429V9.84564H85.2513V6.45091L82.2792 7.78495V18.1322C82.2792 20.7778 84.1045 22.1123 86.6082 22.1123C86.9827 22.1123 87.4983 22.0881 87.7796 22.0188L88.5053 19.3504C88.1776 19.373 87.8032 19.3964 87.4745 19.3964Z"
    fill="white"
  />
<path
    d="M79.7312 12.5703C79.1684 11.602 78.3767 10.8257 77.387 10.2413C76.6474 9.81078 75.8804 9.53751 75.0162 9.42015V6.34345C75.8804 5.97649 76.4168 5.16428 76.4168 4.21672C76.4168 2.9252 75.3811 1.87861 74.0906 1.87861C72.7991 1.87861 71.7452 2.9252 71.7452 4.21672C71.7452 5.16428 72.2506 5.97649 73.1149 6.34345V9.42153C72.4235 9.52144 71.7065 9.73698 71.0518 10.0682C69.7144 9.0525 65.3293 5.7205 62.764 3.77441C62.8249 3.55506 62.8717 3.32898 62.8717 3.09045C62.8717 1.65995 61.7133 0.500488 60.2823 0.500488C58.8513 0.500488 57.6934 1.65995 57.6934 3.09045C57.6934 4.52076 58.8525 5.68058 60.2835 5.68058C60.7716 5.68058 61.2231 5.5378 61.6127 5.30308L62.1541 5.71376L69.5927 11.0734C69.1995 11.4345 68.8333 11.8452 68.5403 12.306C67.9465 13.2455 67.5837 14.2791 67.5837 15.4066V15.6418C67.5837 16.4333 67.7341 17.1805 67.9903 17.8825C68.2158 18.4954 68.5456 19.0526 68.9541 19.5565L66.4853 22.0313C66.1275 21.8982 65.7389 21.8708 65.366 21.9526C64.9931 22.0344 64.6516 22.2218 64.3824 22.4925C64.196 22.678 64.0483 22.8986 63.9477 23.1416C63.8472 23.3846 63.7959 23.6451 63.7968 23.9081C63.797 24.4427 64.0053 24.9452 64.3834 25.3232C64.5688 25.5098 64.7894 25.6577 65.0323 25.7584C65.2752 25.8591 65.5357 25.9106 65.7987 25.9099C66.0618 25.9105 66.3224 25.859 66.5654 25.7583C66.8084 25.6576 67.029 25.5098 67.2145 25.3232C67.4008 25.1377 67.5485 24.9172 67.6491 24.6743C67.7497 24.4314 67.8011 24.171 67.8005 23.9081C67.8005 23.7012 67.7685 23.4993 67.7084 23.3075L70.2601 20.7554C70.61 20.997 70.9878 21.2004 71.394 21.3759C72.1952 21.7223 73.0794 21.9333 74.0472 21.9333H74.2246C75.2945 21.9333 76.3038 21.682 77.2525 21.1679C78.2523 20.6247 79.0348 19.8818 79.6259 18.9334C80.2202 17.9824 80.5474 16.9316 80.5474 15.7756V15.7179C80.5474 14.5807 80.2841 13.5315 79.7312 12.5703ZM76.6133 17.9239C75.9207 18.6936 75.1246 19.1677 74.2246 19.1677H74.0763C73.5622 19.1677 73.0594 19.0257 72.5671 18.7673C72.0123 18.4828 71.5905 18.0769 71.2453 17.563C70.8886 17.0587 70.695 16.508 70.695 15.9241V15.7467C70.695 15.1727 70.8051 14.6284 71.0827 14.1144C71.3795 13.5524 71.7803 13.1155 72.3134 12.768C72.8368 12.423 73.3958 12.2538 74.0184 12.2538H74.0763C74.6408 12.2538 75.1752 12.3651 75.6796 12.6232C76.1935 12.8984 76.6133 13.2743 76.9388 13.7688C77.2549 14.2635 77.443 14.7971 77.5035 15.3784C77.513 15.4992 77.5178 15.623 77.5178 15.7412C77.5178 16.5301 77.2164 17.2607 76.6133 17.9239Z"
    fill="#F8761F"
  />
</svg>
