<svg
  width="120"
  height="120"
  viewBox="0 0 120 120"
  fill="none"
  xmlns="http://www.w3.org/2000/svg"
>
<g clip-path="url(#clip0_688_16129)">
<path
      d="M107.482 58.7215V57.0422H105.397V54.4318L105.326 54.4532L103.368 55.0526L103.329 55.0643V57.0422H100.238V55.9404C100.238 55.4274 100.353 55.0347 100.579 54.773C100.803 54.5142 101.125 54.3827 101.534 54.3827C101.829 54.3827 102.133 54.4521 102.44 54.5888L102.517 54.6231V52.8548L102.481 52.8418C102.195 52.7387 101.805 52.687 101.323 52.687C100.715 52.687 100.162 52.8192 99.6801 53.0816C99.205 53.3371 98.8137 53.724 98.5528 54.1961C98.288 54.6723 98.1537 55.2223 98.1537 55.831V57.0424H96.7017V58.7217H98.1537V65.7956H100.238V58.7215H103.329V63.2169C103.329 65.0683 104.203 66.0067 105.925 66.0067C106.223 66.005 106.519 65.972 106.81 65.9083C107.12 65.8417 107.33 65.7751 107.454 65.7041L107.482 65.6878V63.9931L107.397 64.0492C107.284 64.1247 107.143 64.1863 106.978 64.2319C106.812 64.2786 106.673 64.3021 106.566 64.3021C106.163 64.3021 105.864 64.1933 105.679 63.9787C105.492 63.7624 105.397 63.3836 105.397 62.854V58.7215H107.482ZM92.0469 64.3022C91.2903 64.3022 90.6939 64.0512 90.2734 63.5572C89.8506 63.0604 89.6362 62.3525 89.6362 61.4528C89.6362 60.5246 89.8506 59.7983 90.2738 59.2927C90.6943 58.7907 91.2851 58.5358 92.0299 58.5358C92.7525 58.5358 93.3278 58.7791 93.74 59.2597C94.1541 59.7425 94.3643 60.4631 94.3643 61.402C94.3643 62.3525 94.1666 63.0828 93.7769 63.5712C93.3899 64.0561 92.8079 64.3022 92.0469 64.3022ZM92.1397 56.8313C90.6963 56.8313 89.5498 57.2542 88.7326 58.0884C87.9156 58.9227 87.5015 60.0771 87.5015 61.5201C87.5015 62.8906 87.9058 63.9929 88.7032 64.7961C89.5006 65.5994 90.5859 66.0064 91.9284 66.0064C93.3276 66.0064 94.4512 65.5776 95.2684 64.7319C96.0852 63.8871 96.4992 62.7436 96.4992 61.3341C96.4992 59.9424 96.1107 58.8319 95.3445 58.0341C94.5776 57.2359 93.4992 56.8313 92.1397 56.8313ZM84.1406 56.8313C83.1588 56.8313 82.3466 57.0825 81.7262 57.5776C81.1022 58.0757 80.7856 58.7291 80.7856 59.5196C80.7856 59.9305 80.8538 60.2954 80.9885 60.605C81.1237 60.9157 81.3331 61.1891 81.6113 61.4186C81.8873 61.6463 82.3134 61.8848 82.8783 62.1273C83.3529 62.3227 83.707 62.4881 83.9319 62.6183C84.1518 62.746 84.3079 62.8743 84.3959 62.9993C84.4815 63.1214 84.525 63.2889 84.525 63.4953C84.525 64.0835 84.0847 64.3696 83.1785 64.3696C82.8423 64.3696 82.4589 64.2995 82.0389 64.1611C81.622 64.0247 81.2284 63.8252 80.8721 63.5694L80.7856 63.5074V65.514L80.8173 65.529C81.1123 65.6651 81.4841 65.7798 81.9224 65.8702C82.3599 65.9605 82.7571 66.0065 83.1025 66.0065C84.1679 66.0065 85.0259 65.7542 85.6517 65.2561C86.282 64.7545 86.6013 64.0859 86.6013 63.2678C86.6013 62.678 86.4294 62.1718 86.0903 61.7638C85.7541 61.3591 85.17 60.9875 84.3555 60.6591C83.7065 60.3986 83.2906 60.1824 83.1192 60.0164C82.9538 59.8561 82.8699 59.6293 82.8699 59.3423C82.8699 59.0876 82.9736 58.8837 83.1864 58.7185C83.4008 58.5525 83.6992 58.4681 84.0733 58.4681C84.4207 58.4681 84.776 58.5229 85.1294 58.6303C85.4826 58.7379 85.7925 58.8821 86.0515 59.0581L86.1366 59.1163V57.2126L86.1039 57.1987C85.8652 57.0961 85.5501 57.0084 85.1678 56.9376C84.7866 56.8671 84.441 56.8313 84.1406 56.8313ZM75.3516 64.3022C74.5952 64.3022 73.9986 64.0512 73.5783 63.5572C73.1553 63.0604 72.9414 62.3525 72.9414 61.4528C72.9414 60.5246 73.1555 59.7983 73.5788 59.2927C73.999 58.7907 74.5896 58.5358 75.3348 58.5358C76.0574 58.5358 76.6327 58.7791 77.0449 59.2597C77.459 59.7425 77.6692 60.4631 77.6692 61.402C77.6692 62.3525 77.4715 63.0828 77.0818 63.5712C76.6946 64.0561 76.1128 64.3022 75.3516 64.3022ZM75.4446 56.8313C74.0009 56.8313 72.8543 57.2542 72.0375 58.0884C71.2207 58.9227 70.8062 60.0771 70.8062 61.5201C70.8062 62.8911 71.2108 63.9929 72.0081 64.7961C72.8055 65.5994 73.8906 66.0064 75.2335 66.0064C76.6322 66.0064 77.7563 65.5776 78.5735 64.7319C79.3901 63.8871 79.8043 62.7436 79.8043 61.3341C79.8043 59.9424 79.4156 58.8319 78.6492 58.0341C77.8822 57.2359 76.8039 56.8313 75.4446 56.8313ZM67.6421 58.5581V57.0422H65.5831V65.7953H67.6419V61.3176C67.6419 60.5561 67.8146 59.9307 68.1553 59.4583C68.4915 58.9915 68.9398 58.7549 69.4868 58.7549C69.6723 58.7549 69.8805 58.7855 70.1059 58.8461C70.3291 58.9061 70.4908 58.9714 70.5861 59.04L70.6727 59.1029V57.0273L70.6391 57.0129C70.4476 56.9314 70.1762 56.8904 69.8331 56.8904C69.3156 56.8904 68.8526 57.0565 68.4561 57.3838C68.1079 57.6716 67.8562 58.0662 67.6639 58.5581H67.6421ZM61.8959 56.8313C60.9514 56.8313 60.1086 57.034 59.392 57.4332C58.674 57.8333 58.1185 58.4048 57.7406 59.1312C57.3645 59.8561 57.1735 60.7027 57.1735 61.6469C57.1735 62.4738 57.3587 63.2328 57.7246 63.9015C58.0909 64.5715 58.6093 65.0957 59.2653 65.4594C59.9207 65.8225 60.678 66.0065 61.5162 66.0065C62.4947 66.0065 63.3302 65.8109 64.0002 65.4253L64.0271 65.4096V63.5233L63.9407 63.5865C63.6325 63.8099 63.2931 63.9866 62.9333 64.1109C62.5693 64.2379 62.2377 64.3021 61.9468 64.3021C61.1388 64.3021 60.4904 64.0494 60.0195 63.5511C59.5477 63.0519 59.3084 62.3512 59.3084 61.4694C59.3084 60.5821 59.5579 59.8633 60.0495 59.3328C60.5398 58.8041 61.1895 58.5359 61.9808 58.5359C62.6575 58.5359 63.3169 58.7651 63.9407 59.2177L64.0271 59.2804V57.2928L63.9993 57.2772C63.7643 57.1457 63.4443 57.0372 63.0467 56.9549C62.651 56.8729 62.2638 56.8313 61.8959 56.8313ZM55.7555 57.0422H53.6963V65.7953H55.7555V57.0422ZM54.747 53.3134C54.4081 53.3134 54.1126 53.4289 53.8698 53.6573C53.6258 53.8867 53.502 54.1754 53.502 54.5159C53.502 54.8512 53.6244 55.1344 53.8657 55.3577C54.1057 55.5801 54.4022 55.693 54.747 55.693C55.0916 55.693 55.3892 55.5801 55.6321 55.358C55.8763 55.1344 56.0004 54.8512 56.0004 54.5159C56.0004 54.1873 55.8797 53.9014 55.6421 53.6666C55.4047 53.4322 55.1034 53.3134 54.747 53.3134ZM49.6097 56.3966V65.7951H51.711V53.5814H48.8028L45.1061 62.6533L41.5188 53.5814H38.4922V65.7953H40.4669V56.3956H40.5348L44.3228 65.7953H45.8129L49.5418 56.3964H49.6097V56.3966Z"
      fill="white"
    />
<path d="M21.6859 59.1859H12V49.5H21.6859V59.1859Z" fill="#F1511B" />
<path d="M32.3812 59.1859H22.6953V49.5H32.3812V59.1859Z" fill="#80CC28" />
<path d="M21.6857 69.8841H12V60.1982H21.6857V69.8841Z" fill="#00ADEF" />
<path d="M32.3812 69.8841H22.6953V60.1982H32.3812V69.8841Z" fill="#FBBC09" />
</g>
<defs>
<clipPath id="clip0_688_16129">
<rect
        width="95.4819"
        height="20.5134"
        fill="white"
        transform="translate(12 49.5)"
      />
</clipPath>
</defs>
</svg>
