<svg width="80" height="80" viewBox="0 0 80 80" fill="none" xmlns="http://www.w3.org/2000/svg">
<g clip-path="url(#clip0_270_10668)">
<path d="M71.6543 39.1477V38.0281H70.2641V36.2879L70.2173 36.3022L68.9115 36.7017L68.8859 36.7096V38.0281H66.825V37.2936C66.825 36.9516 66.9015 36.6898 67.0523 36.5154C67.202 36.3428 67.4161 36.2552 67.6891 36.2552C67.8855 36.2552 68.0887 36.3014 68.2933 36.3925L68.3445 36.4154V35.2366L68.3204 35.2279C68.1296 35.1591 67.87 35.1247 67.5483 35.1247C67.1428 35.1247 66.7744 35.2128 66.4531 35.3878C66.1364 35.5581 65.8754 35.816 65.7015 36.1307C65.525 36.4482 65.4355 36.8149 65.4355 37.2207V38.0283H64.4675V39.1478H65.4355V43.8638H66.825V39.1477H68.8859V42.1446C68.8859 43.3789 69.468 44.0045 70.6163 44.0045C70.8147 44.0033 71.0125 43.9813 71.2063 43.9389C71.4127 43.8945 71.5532 43.8501 71.636 43.8027L71.6543 43.7919V42.6621L71.5978 42.6995C71.5223 42.7498 71.4285 42.7909 71.3183 42.8213C71.2077 42.8524 71.1153 42.8681 71.0438 42.8681C70.7748 42.8681 70.5759 42.7956 70.4523 42.6525C70.3275 42.5083 70.2641 42.2558 70.2641 41.9027V39.1477H71.6543ZM61.3642 42.8682C60.8599 42.8682 60.4623 42.7008 60.1819 42.3715C59.9001 42.0403 59.7571 41.5684 59.7571 40.9685C59.7571 40.3498 59.9001 39.8655 60.1822 39.5285C60.4625 39.1938 60.8564 39.0239 61.3529 39.0239C61.8347 39.0239 62.2182 39.1861 62.493 39.5065C62.7691 39.8284 62.9092 40.3087 62.9092 40.9347C62.9092 41.5684 62.7774 42.0552 62.5176 42.3808C62.2596 42.7041 61.8716 42.8682 61.3642 42.8682ZM61.4262 37.8875C60.4639 37.8875 59.6995 38.1695 59.1548 38.7256C58.6101 39.2818 58.334 40.0514 58.334 41.0134C58.334 41.9271 58.6035 42.6619 59.1351 43.1974C59.6667 43.733 60.3903 44.0043 61.2853 44.0043C62.2181 44.0043 62.9671 43.7184 63.5119 43.1546C64.0565 42.5914 64.3325 41.8291 64.3325 40.8895C64.3325 39.9616 64.0735 39.2213 63.5627 38.6894C63.0514 38.1573 62.3325 37.8875 61.4262 37.8875ZM56.0934 37.8875C55.4389 37.8875 54.8974 38.055 54.4838 38.3851C54.0678 38.7171 53.8567 39.1528 53.8567 39.6798C53.8567 39.9537 53.9022 40.197 53.992 40.4033C54.0821 40.6105 54.2217 40.7927 54.4072 40.9458C54.5912 41.0976 54.8753 41.2566 55.2519 41.4182C55.5683 41.5485 55.8044 41.6588 55.9543 41.7455C56.1009 41.8307 56.2049 41.9162 56.2636 41.9995C56.3207 42.081 56.3497 42.1926 56.3497 42.3302C56.3497 42.7224 56.0561 42.9131 55.452 42.9131C55.2279 42.9131 54.9723 42.8663 54.6923 42.7741C54.4143 42.6832 54.152 42.5501 53.9144 42.3796L53.8567 42.3383V43.676L53.8779 43.686C54.0745 43.7767 54.3224 43.8532 54.6146 43.9135C54.9063 43.9737 55.1711 44.0044 55.4013 44.0044C56.1116 44.0044 56.6836 43.8362 57.1008 43.5041C57.521 43.1697 57.7339 42.724 57.7339 42.1786C57.7339 41.7853 57.6192 41.4479 57.3932 41.1759C57.1691 40.9061 56.7797 40.6583 56.2366 40.4394C55.804 40.2657 55.5268 40.1216 55.4125 40.011C55.3022 39.9041 55.2463 39.7529 55.2463 39.5616C55.2463 39.3917 55.3154 39.2558 55.4573 39.1457C55.6002 39.035 55.7991 38.9787 56.0485 38.9787C56.2802 38.9787 56.517 39.0153 56.7526 39.0869C56.9881 39.1586 57.1947 39.2547 57.3674 39.3721L57.4241 39.4109V38.1418L57.4023 38.1325C57.2432 38.0641 57.0331 38.0056 56.7782 37.9584C56.5241 37.9114 56.2937 37.8875 56.0934 37.8875ZM50.2341 42.8682C49.7298 42.8682 49.3321 42.7008 49.0519 42.3715C48.7699 42.0403 48.6273 41.5684 48.6273 40.9685C48.6273 40.3498 48.77 39.8655 49.0522 39.5285C49.3323 39.1938 49.7261 39.0239 50.2229 39.0239C50.7046 39.0239 51.0882 39.1861 51.3629 39.5065C51.639 39.8284 51.7791 40.3087 51.7791 40.9347C51.7791 41.5684 51.6474 42.0552 51.3875 42.3808C51.1294 42.7041 50.7415 42.8682 50.2341 42.8682ZM50.2961 37.8875C49.3336 37.8875 48.5692 38.1695 48.0247 38.7256C47.4802 39.2818 47.2038 40.0514 47.2038 41.0134C47.2038 41.9274 47.4736 42.6619 48.0051 43.1974C48.5367 43.733 49.2601 44.0043 50.1554 44.0043C51.0878 44.0043 51.8372 43.7184 52.382 43.1546C52.9264 42.5914 53.2025 41.8291 53.2025 40.8895C53.2025 39.9616 52.9434 39.2213 52.4325 38.6894C51.9211 38.1573 51.2023 37.8875 50.2961 37.8875ZM45.0944 39.0388V38.0281H43.7217V43.8635H45.0943V40.8784C45.0943 40.3708 45.2094 39.9538 45.4365 39.6389C45.6607 39.3277 45.9596 39.1699 46.3242 39.1699C46.4479 39.1699 46.5866 39.1903 46.737 39.2307C46.8858 39.2708 46.9936 39.3143 47.0571 39.36L47.1148 39.4019V38.0182L47.0924 38.0086C46.9647 37.9543 46.7838 37.9269 46.5551 37.9269C46.2101 37.9269 45.9014 38.0377 45.6371 38.2559C45.405 38.4477 45.2371 38.7108 45.1089 39.0388H45.0944ZM41.2636 37.8875C40.6339 37.8875 40.0721 38.0227 39.5943 38.2889C39.1157 38.5555 38.7453 38.9366 38.4934 39.4208C38.2427 39.9041 38.1154 40.4685 38.1154 41.0979C38.1154 41.6492 38.2388 42.1552 38.4827 42.601C38.7269 43.0477 39.0725 43.3972 39.5099 43.6396C39.9468 43.8817 40.4517 44.0044 41.0105 44.0044C41.6628 44.0044 42.2198 43.874 42.6665 43.6169L42.6844 43.6064V42.3489L42.6268 42.391C42.4214 42.5399 42.1951 42.6577 41.9552 42.7406C41.7125 42.8253 41.4915 42.8681 41.2976 42.8681C40.7589 42.8681 40.3266 42.6996 40.0127 42.3674C39.6981 42.0346 39.5386 41.5675 39.5386 40.9796C39.5386 40.3881 39.705 39.9089 40.0327 39.5552C40.3595 39.2028 40.7927 39.024 41.3202 39.024C41.7713 39.024 42.211 39.1768 42.6268 39.4785L42.6844 39.5203V38.1952L42.6659 38.1848C42.5092 38.0971 42.2959 38.0248 42.0308 37.97C41.767 37.9153 41.5089 37.8875 41.2636 37.8875ZM37.17 38.0281H35.7972V43.8635H37.17V38.0281ZM36.4977 35.5423C36.2718 35.5423 36.0747 35.6193 35.9129 35.7716C35.7502 35.9245 35.6677 36.1169 35.6677 36.3439C35.6677 36.5675 35.7492 36.7563 35.9101 36.9051C36.0701 37.0535 36.2678 37.1287 36.4977 37.1287C36.7274 37.1287 36.9258 37.0535 37.0877 36.9054C37.2506 36.7563 37.3332 36.5675 37.3332 36.3439C37.3332 36.1249 37.2528 35.9343 37.0944 35.7778C36.9362 35.6215 36.7353 35.5423 36.4977 35.5423ZM33.0728 37.5977V43.8634H34.4737V35.721H32.5349L30.0704 41.7689L27.6789 35.721H25.6611V43.8635H26.9776V37.5971H27.0228L29.5482 43.8635H30.5416L33.0276 37.5976H33.0728V37.5977Z" fill="#706D6E"/>
<path d="M14.4572 39.4572H8V33H14.4572V39.4572Z" fill="#F1511B"/>
<path d="M21.5871 39.4572H15.1299V33H21.5871V39.4572Z" fill="#80CC28"/>
<path d="M14.4571 46.5894H8V40.1322H14.4571V46.5894Z" fill="#00ADEF"/>
<path d="M21.5871 46.5894H15.1299V40.1322H21.5871V46.5894Z" fill="#FBBC09"/>
</g>
<defs>
<clipPath id="clip0_270_10668">
<rect width="63.6546" height="13.6756" fill="white" transform="translate(8 33)"/>
</clipPath>
</defs>
</svg>
