<svg width="80" height="80" viewBox="0 0 80 80" fill="none" xmlns="http://www.w3.org/2000/svg">
<path d="M36.6493 29.0704C37.9381 27.7276 39.7323 26.8948 41.7165 26.8948C44.3544 26.8948 46.6558 28.3658 47.8813 30.5493C48.9776 30.0597 50.165 29.8073 51.3656 29.8087C56.1233 29.8087 59.9803 33.6993 59.9803 38.4985C59.9803 43.2983 56.1233 47.1891 51.3656 47.1891C50.7958 47.1894 50.2273 47.1327 49.6688 47.0199C48.5894 48.945 46.5329 50.2456 44.1723 50.2456C43.2176 50.2468 42.2753 50.03 41.4173 49.6116C40.3232 52.185 37.7742 53.9895 34.8032 53.9895C31.7095 53.9895 29.073 52.0319 28.0608 49.2864C27.6186 49.3805 27.1603 49.4294 26.6902 49.4294C23.0068 49.4294 20.0205 46.4125 20.0205 42.6904C20.0179 41.5108 20.3244 40.3511 20.9096 39.3268C21.4948 38.3026 22.3381 37.4496 23.3557 36.8529C22.9332 35.8803 22.7157 34.831 22.7169 33.7706C22.7169 29.49 26.192 26.02 30.4786 26.02C32.9951 26.02 35.2317 27.2165 36.6495 29.0704" fill="#00A1E0"/>
<path d="M25.8078 40.5243C25.7828 40.5898 25.8169 40.6034 25.825 40.6149C25.9 40.6695 25.9763 40.7087 26.0532 40.7524C26.4608 40.9688 26.8455 41.0321 27.248 41.0321C28.0677 41.0321 28.5766 40.5962 28.5766 39.8941V39.8806C28.5766 39.2317 28.0022 38.9959 27.4631 38.8259L27.3931 38.8029C26.9867 38.6709 26.6361 38.5571 26.6361 38.2895V38.2754C26.6361 38.0465 26.841 37.8779 27.1586 37.8779C27.5116 37.8779 27.9305 37.9951 28.2003 38.1443C28.2003 38.1443 28.2794 38.1956 28.3085 38.1187C28.3244 38.0778 28.461 37.7101 28.4753 37.6703C28.4906 37.627 28.4633 37.5951 28.4355 37.5781C28.1275 37.3906 27.7017 37.2626 27.2611 37.2626L27.1791 37.2632C26.4289 37.2632 25.9052 37.7164 25.9052 38.3659V38.3795C25.9052 39.0643 26.483 39.2862 27.0242 39.441L27.1114 39.4679C27.5058 39.589 27.8458 39.6932 27.8458 39.971V39.9846C27.8458 40.2385 27.6249 40.4276 27.2685 40.4276C27.1302 40.4276 26.6891 40.4248 26.2125 40.1235C26.155 40.0899 26.1214 40.0656 26.0771 40.0388C26.0536 40.024 25.9952 39.9982 25.9696 40.0757L25.8078 40.5243ZM37.8078 40.5243C37.7828 40.5898 37.8168 40.6034 37.825 40.6149C37.9 40.6695 37.9762 40.7087 38.0531 40.7524C38.4606 40.9688 38.8454 41.0321 39.2479 41.0321C40.0676 41.0321 40.5765 40.5962 40.5765 39.8941V39.8806C40.5765 39.2317 40.0021 38.9959 39.4631 38.8259L39.3931 38.8029C38.9867 38.6709 38.6359 38.5571 38.6359 38.2895V38.2754C38.6359 38.0465 38.8409 37.8779 39.1585 37.8779C39.5115 37.8779 39.9304 37.9951 40.2003 38.1443C40.2003 38.1443 40.2793 38.1956 40.3084 38.1187C40.3243 38.0778 40.4609 37.7101 40.4751 37.6703C40.4906 37.627 40.4632 37.5951 40.4353 37.5781C40.1274 37.3906 39.7015 37.2626 39.261 37.2626L39.179 37.2632C38.4287 37.2632 37.9051 37.7164 37.9051 38.3659V38.3795C37.9051 39.0643 38.4828 39.2862 39.0242 39.441L39.1112 39.4679C39.5057 39.589 39.8462 39.6932 39.8462 39.971V39.9846C39.8462 40.2385 39.6246 40.4276 39.2684 40.4276C38.8944 40.4303 38.5277 40.3247 38.2125 40.1235C38.155 40.0899 38.1207 40.0666 38.0776 40.0388C38.0628 40.0291 37.9932 40.0023 37.9693 40.0757L37.8078 40.5243ZM45.9998 39.1495C45.9998 39.5463 45.9257 39.8588 45.7801 40.0796C45.636 40.2984 45.418 40.4046 45.114 40.4046C44.8094 40.4046 44.5926 40.2988 44.4509 40.0796C44.3074 39.8593 44.2346 39.5463 44.2346 39.1495C44.2346 38.7534 44.3074 38.4413 44.4509 38.2229C44.5926 38.0065 44.8094 37.9012 45.114 37.9012C45.418 37.9012 45.6358 38.0065 45.7805 38.2228C45.9258 38.4415 45.9998 38.7534 45.9998 39.1495ZM46.684 38.414C46.6168 38.187 46.5121 37.9867 46.3726 37.8198C46.233 37.6524 46.0566 37.5182 45.8471 37.4203C45.6382 37.3229 45.3912 37.2734 45.114 37.2734C44.8362 37.2734 44.5891 37.3229 44.3802 37.4203C44.1709 37.5181 43.9943 37.6524 43.8543 37.8198C43.7154 37.9871 43.6105 38.1876 43.5429 38.414C43.4763 38.6401 43.4429 38.8871 43.4429 39.1495C43.4429 39.412 43.4763 39.6596 43.5429 39.8849C43.6107 40.1115 43.7148 40.3118 43.8549 40.4793C43.9978 40.6494 44.1774 40.7848 44.3802 40.8754C44.5896 40.9706 44.8362 41.0188 45.114 41.0188C45.3912 41.0188 45.6377 40.9704 45.8471 40.8754C46.05 40.7848 46.2296 40.6494 46.3726 40.4793C46.5121 40.3124 46.6168 40.1121 46.684 39.8849C46.7512 39.659 46.7847 39.4115 46.7847 39.1495C46.7847 38.8877 46.7512 38.6401 46.684 38.414ZM52.3025 40.2988C52.2799 40.2323 52.2155 40.2573 52.2155 40.2573C52.116 40.2954 52.01 40.3307 51.8974 40.3484C51.7732 40.3668 51.6478 40.3757 51.5222 40.3751C51.191 40.3751 50.9278 40.2766 50.7394 40.082C50.5505 39.8873 50.4446 39.5726 50.4457 39.1467C50.4469 38.7592 50.5404 38.4676 50.7082 38.2456C50.875 38.0248 51.1288 37.9115 51.4675 37.9115C51.7499 37.9115 51.965 37.9438 52.1905 38.0151C52.1905 38.0151 52.2446 38.0385 52.2702 37.9678C52.3299 37.8017 52.3744 37.6826 52.4382 37.4999C52.4563 37.4481 52.4119 37.4259 52.396 37.4196C52.3072 37.3849 52.0977 37.3285 51.9394 37.3046C51.7914 37.282 51.6185 37.2699 51.426 37.2699C51.1385 37.2699 50.8824 37.3189 50.6632 37.4168C50.4446 37.5142 50.2591 37.6485 50.1122 37.8159C49.9654 37.9831 49.8538 38.1835 49.7793 38.4101C49.7052 38.636 49.6677 38.8843 49.6677 39.1467C49.6677 39.7142 49.8208 40.1731 50.123 40.5088C50.4258 40.8459 50.8808 41.0171 51.4738 41.0171C51.8244 41.0171 52.1842 40.946 52.4425 40.8441C52.4425 40.8441 52.4922 40.8202 52.4707 40.7627L52.3025 40.2987V40.2988ZM53.4999 38.7695C53.5322 38.5492 53.5931 38.3659 53.6871 38.2231C53.8288 38.0062 54.045 37.8871 54.3491 37.8871C54.653 37.8871 54.8539 38.0067 54.998 38.2231C55.0936 38.3659 55.1352 38.5571 55.1516 38.7695H53.4999ZM55.8034 38.2851C55.7453 38.0659 55.6013 37.8445 55.5069 37.7432C55.3577 37.5826 55.212 37.4704 55.0674 37.4079C54.8574 37.3189 54.6316 37.2732 54.4036 37.2735C54.1145 37.2735 53.8521 37.322 53.6392 37.422C53.4258 37.5223 53.2464 37.6589 53.1058 37.8292C52.9652 37.9987 52.8594 38.2009 52.7922 38.4303C52.7244 38.6584 52.6903 38.9073 52.6903 39.1696C52.6903 39.4367 52.7257 39.6852 52.7957 39.909C52.8661 40.1345 52.9789 40.3332 53.1316 40.4976C53.2835 40.6632 53.4792 40.7931 53.7138 40.8835C53.9466 40.9735 54.2294 41.0202 54.5544 41.0196C55.2233 41.0173 55.5758 40.8682 55.7208 40.7879C55.7464 40.7738 55.7709 40.7487 55.7402 40.677L55.5888 40.2529C55.5661 40.1896 55.5017 40.2131 55.5017 40.2131C55.3361 40.2745 55.1005 40.3849 54.5511 40.3838C54.1919 40.3832 53.9255 40.2773 53.7588 40.1116C53.5874 39.9421 53.5038 39.6929 53.4889 39.341L55.8052 39.3432C55.8052 39.3432 55.8661 39.3421 55.8723 39.2829C55.8745 39.2579 55.952 38.807 55.8034 38.2851ZM34.9504 38.7695C34.9834 38.5492 35.0437 38.3659 35.1378 38.2231C35.2795 38.0062 35.4958 37.8871 35.7997 37.8871C36.1037 37.8871 36.3047 38.0067 36.4492 38.2231C36.5443 38.3659 36.5859 38.5571 36.6023 38.7695H34.9504ZM37.2536 38.2851C37.1954 38.0659 37.052 37.8445 36.9575 37.7432C36.8084 37.5826 36.6626 37.4704 36.5181 37.4079C36.3081 37.3189 36.0824 37.2732 35.8543 37.2735C35.5658 37.2735 35.3028 37.322 35.09 37.422C34.8764 37.5223 34.6972 37.6589 34.5565 37.8292C34.4159 37.9987 34.3101 38.2009 34.2429 38.4303C34.1758 38.6584 34.1411 38.9073 34.1411 39.1696C34.1411 39.4367 34.1762 39.6852 34.2464 39.909C34.3169 40.1345 34.4297 40.3332 34.5822 40.4976C34.7342 40.6632 34.93 40.7931 35.1645 40.8835C35.3973 40.9735 35.6801 41.0202 36.0051 41.0196C36.674 41.0173 37.0264 40.8682 37.1715 40.7879C37.1972 40.7738 37.2215 40.7487 37.1909 40.677L37.0401 40.2529C37.0167 40.1896 36.9525 40.2131 36.9525 40.2131C36.7868 40.2745 36.5517 40.3849 36.0012 40.3838C35.6426 40.3832 35.3762 40.2773 35.2095 40.1116C35.0381 39.9421 34.9544 39.6929 34.9397 39.341L37.2557 39.3432C37.2557 39.3432 37.3167 39.3421 37.3229 39.2829C37.3253 39.2579 37.4026 38.807 37.2536 38.2851ZM29.9441 40.286C29.8534 40.2138 29.8409 40.1956 29.8103 40.1488C29.7647 40.0777 29.7414 39.9763 29.7414 39.8477C29.7414 39.644 29.8086 39.4977 29.948 39.3993C29.9464 39.3998 30.1472 39.2256 30.6198 39.2318C30.9516 39.2365 31.2481 39.2854 31.2481 39.2854V40.3385H31.2487C31.2487 40.3385 30.9544 40.4016 30.6231 40.4215C30.1517 40.4499 29.9424 40.2856 29.9441 40.286ZM30.8656 38.6587C30.7717 38.6518 30.65 38.6478 30.5042 38.6478C30.3055 38.6478 30.1136 38.6728 29.9339 38.7212C29.7604 38.7662 29.5965 38.8422 29.45 38.9456C29.3102 39.0453 29.1952 39.176 29.1141 39.3274C29.0322 39.4801 28.9906 39.6599 28.9906 39.8613C28.9906 40.0663 29.0258 40.2445 29.0964 40.3902C29.1653 40.5343 29.2692 40.6588 29.3988 40.7523C29.5274 40.8462 29.6863 40.9151 29.8706 40.9566C30.0522 40.9982 30.2581 41.0191 30.4836 41.0191C30.7211 41.0191 30.9578 40.9999 31.1872 40.9606C31.3824 40.9269 31.5769 40.8894 31.7706 40.8479C31.8475 40.8296 31.933 40.8063 31.933 40.8063C31.9905 40.7921 31.9858 40.7306 31.9858 40.7306L31.9847 38.6126C31.9847 38.1481 31.8606 37.8037 31.6164 37.5903C31.3734 37.3773 31.0153 37.2698 30.5525 37.2698C30.3791 37.2698 30.0994 37.2937 29.9322 37.3273C29.9322 37.3273 29.4259 37.4251 29.2177 37.5879C29.2177 37.5879 29.1722 37.6164 29.1972 37.6801L29.3613 38.1207C29.3816 38.1776 29.4369 38.1582 29.4369 38.1582C29.4369 38.1582 29.4545 38.1515 29.475 38.1395C29.9206 37.897 30.4842 37.9045 30.4842 37.9045C30.7347 37.9045 30.927 37.9545 31.0569 38.0542C31.1833 38.1509 31.2475 38.2971 31.2475 38.6057V38.7035C31.0483 38.6751 30.8656 38.6587 30.8656 38.6587ZM49.5468 37.4651C49.5501 37.4574 49.5519 37.4491 49.5519 37.4406C49.552 37.4322 49.5503 37.4239 49.547 37.4161C49.5438 37.4084 49.539 37.4013 49.533 37.3955C49.5269 37.3896 49.5198 37.385 49.5119 37.382C49.4727 37.3667 49.2757 37.3251 49.1236 37.3154C48.8329 37.2978 48.6711 37.3467 48.5266 37.4117C48.3832 37.4765 48.2238 37.5812 48.1349 37.7003V37.4184C48.1349 37.3792 48.1071 37.3479 48.0683 37.3479H47.4746C47.436 37.3479 47.408 37.3792 47.408 37.4184V40.8731C47.408 40.9118 47.4399 40.9437 47.4787 40.9437H48.0871C48.0963 40.9436 48.1055 40.9418 48.114 40.9382C48.1225 40.9346 48.1302 40.9294 48.1367 40.9229C48.1432 40.9163 48.1484 40.9085 48.1519 40.9C48.1553 40.8914 48.1571 40.8823 48.1571 40.8731V39.1471C48.1571 38.9156 48.1827 38.6843 48.234 38.5393C48.284 38.3957 48.3524 38.2809 48.4366 38.1982C48.5171 38.119 48.6153 38.0601 48.723 38.0263C48.8305 37.9934 48.9496 37.9826 49.0338 37.9826C49.155 37.9826 49.2882 38.0138 49.2882 38.0138C49.3325 38.019 49.3577 37.9917 49.3725 37.9513C49.4122 37.8454 49.525 37.5282 49.5466 37.4651" fill="white"/>
<path d="M43.8352 35.864C43.7601 35.8413 43.6836 35.823 43.6063 35.8093C43.5023 35.7923 43.397 35.7843 43.2916 35.7856C42.8726 35.7856 42.5424 35.9038 42.3108 36.1373C42.0802 36.3695 41.9237 36.7231 41.8452 37.188L41.8166 37.3446H41.2907C41.2907 37.3446 41.2269 37.3423 41.2133 37.4118L41.1274 37.894C41.1212 37.9395 41.141 37.9685 41.2024 37.9685H41.7143L41.1951 40.8669C41.1548 41.1004 41.108 41.2922 41.0562 41.4379C41.0055 41.5813 40.9562 41.689 40.8946 41.7676C40.8352 41.8426 40.7796 41.8985 40.6827 41.9308C40.603 41.9577 40.5109 41.9702 40.4101 41.9702C40.3543 41.9702 40.2798 41.961 40.2246 41.9497C40.1814 41.9413 40.1393 41.9276 40.0993 41.9091C40.0993 41.9091 40.0396 41.8865 40.0157 41.9463C39.9969 41.9958 39.8602 42.3708 39.8438 42.4171C39.8279 42.4632 39.8505 42.499 39.8796 42.5097C39.9479 42.5336 39.9985 42.5496 40.0913 42.5718C40.2201 42.6021 40.3288 42.6036 40.4307 42.6036C40.6435 42.6036 40.8382 42.5735 40.9993 42.5155C41.161 42.4569 41.3021 42.3549 41.4274 42.2171C41.5623 42.068 41.6471 41.9121 41.7279 41.6986C41.8082 41.488 41.8771 41.2262 41.9316 40.9212L42.4537 37.9685H43.2165C43.2165 37.9685 43.2807 37.9707 43.2938 37.9007L43.3804 37.4191C43.386 37.373 43.3668 37.3446 43.3046 37.3446H42.564C42.568 37.328 42.6016 37.0674 42.6865 36.8221C42.7229 36.7179 42.7911 36.6331 42.8486 36.5751C42.9029 36.5199 42.9694 36.4785 43.0429 36.4543C43.1163 36.4304 43.1999 36.419 43.2916 36.419C43.361 36.419 43.4299 36.427 43.4816 36.4377C43.5535 36.4532 43.5813 36.4612 43.6001 36.4668C43.6758 36.4896 43.686 36.4674 43.7008 36.4309L43.8779 35.9449C43.8961 35.8926 43.8511 35.8702 43.8352 35.864ZM33.4881 40.8733C33.4881 40.9119 33.4601 40.9433 33.4215 40.9433H32.8073C32.7686 40.9433 32.7412 40.9121 32.7412 40.8733V35.9301C32.7412 35.8915 32.7686 35.8601 32.8073 35.8601H33.4214C33.4601 35.8601 33.4881 35.8913 33.4881 35.9301V40.8733Z" fill="white"/>
</svg>
