<svg
  width="120"
  height="120"
  viewBox="0 0 120 120"
  fill="none"
  xmlns="http://www.w3.org/2000/svg"
>
<path
    d="M54.9725 43.6055C56.9056 41.5913 59.597 40.342 62.5733 40.342C66.5302 40.342 69.9823 42.5484 71.8205 45.8238C73.4649 45.0893 75.246 44.7107 77.047 44.7129C84.1834 44.7129 89.969 50.5488 89.969 57.7476C89.969 64.9473 84.1834 70.7834 77.047 70.7834C76.1922 70.7839 75.3396 70.6989 74.5017 70.5296C72.8827 73.4173 69.7978 75.3682 66.2569 75.3682C64.825 75.3701 63.4115 75.0448 62.1244 74.4171C60.4834 78.2773 56.6598 80.9841 52.2034 80.9841C47.5628 80.9841 43.608 78.0476 42.0897 73.9294C41.4264 74.0705 40.739 74.1439 40.0338 74.1439C34.5087 74.1439 30.0293 69.6186 30.0293 64.0353C30.0253 62.2659 30.4851 60.5264 31.3629 58.9901C32.2407 57.4537 33.5057 56.1742 35.032 55.2791C34.3983 53.8202 34.0721 52.2463 34.0739 50.6557C34.0739 44.2348 39.2866 39.0298 45.7164 39.0298C49.4912 39.0298 52.8461 40.8246 54.9728 43.6055"
    fill="#00A1E0"
  />
<path
    d="M38.7127 60.7866C38.6752 60.8848 38.7263 60.9052 38.7385 60.9225C38.851 61.0043 38.9654 61.0632 39.0807 61.1288C39.6922 61.4534 40.2692 61.5483 40.873 61.5483C42.1025 61.5483 42.8658 60.8944 42.8658 59.8414V59.821C42.8658 58.8476 42.0043 58.4939 41.1957 58.2389L41.0907 58.2045C40.4811 58.0065 39.9552 57.8358 39.9552 57.4343V57.4133C39.9552 57.0699 40.2624 56.817 40.7389 56.817C41.2684 56.817 41.8967 56.9928 42.3015 57.2166C42.3015 57.2166 42.4201 57.2935 42.4637 57.1782C42.4876 57.1168 42.6924 56.5653 42.714 56.5055C42.7369 56.4406 42.6959 56.3928 42.6542 56.3672C42.1923 56.086 41.5536 55.894 40.8927 55.894L40.7696 55.895C39.6444 55.895 38.8588 56.5747 38.8588 57.549V57.5693C38.8588 58.5966 39.7255 58.9294 40.5373 59.1617L40.6681 59.202C41.2597 59.3836 41.7697 59.54 41.7697 59.9567V59.9771C41.7697 60.3579 41.4383 60.6415 40.9037 60.6415C40.6962 60.6415 40.0346 60.6373 39.3198 60.1854C39.2335 60.135 39.1831 60.0985 39.1166 60.0584C39.0814 60.0361 38.9938 59.9975 38.9553 60.1137L38.7127 60.7866ZM56.7126 60.7866C56.6751 60.8848 56.7262 60.9052 56.7384 60.9225C56.8509 61.0043 56.9653 61.0632 57.0806 61.1288C57.6918 61.4534 58.2691 61.5483 58.8729 61.5483C60.1024 61.5483 60.8657 60.8944 60.8657 59.8414V59.821C60.8657 58.8476 60.0042 58.4939 59.1956 58.2389L59.0906 58.2045C58.481 58.0065 57.9548 57.8358 57.9548 57.4343V57.4133C57.9548 57.0699 58.2623 56.817 58.7388 56.817C59.2682 56.817 59.8966 56.9928 60.3014 57.2166C60.3014 57.2166 60.42 57.2935 60.4635 57.1782C60.4875 57.1168 60.6923 56.5653 60.7136 56.5055C60.7368 56.4406 60.6958 56.3928 60.6539 56.3672C60.1921 56.086 59.5532 55.894 58.8925 55.894L58.7695 55.895C57.644 55.895 56.8586 56.5747 56.8586 57.549V57.5693C56.8586 58.5966 57.7251 58.9294 58.5372 59.1617L58.6678 59.202C59.2596 59.3836 59.7703 59.54 59.7703 59.9567V59.9771C59.7703 60.3579 59.4379 60.6415 58.9036 60.6415C58.3426 60.6455 57.7925 60.4871 57.3197 60.1854C57.2334 60.135 57.1821 60.1001 57.1174 60.0584C57.0951 60.0439 56.9908 60.0035 56.955 60.1137L56.7126 60.7866ZM69.0006 58.7243C69.0006 59.3196 68.8895 59.7884 68.6711 60.1196C68.455 60.4477 68.128 60.6071 67.6719 60.6071C67.2151 60.6071 66.8898 60.4484 66.6773 60.1196C66.4621 59.7891 66.3529 59.3196 66.3529 58.7243C66.3529 58.1302 66.4621 57.6622 66.6773 57.3345C66.8898 57.0099 67.2151 56.8519 67.6719 56.8519C68.128 56.8519 68.4547 57.0099 68.6718 57.3343C68.8897 57.6624 69.0006 58.1302 69.0006 58.7243ZM70.0269 57.6211C69.9261 57.2806 69.7691 56.9801 69.5598 56.7298C69.3505 56.4788 69.0859 56.2775 68.7716 56.1305C68.4583 55.9845 68.0877 55.9102 67.6719 55.9102C67.2552 55.9102 66.8847 55.9845 66.5713 56.1305C66.2573 56.2772 65.9924 56.4788 65.7824 56.7298C65.5741 56.9808 65.4168 57.2815 65.3153 57.6211C65.2155 57.9603 65.1653 58.3308 65.1653 58.7243C65.1653 59.1181 65.2155 59.4896 65.3153 59.8275C65.417 60.1674 65.5731 60.4678 65.7834 60.7191C65.9977 60.9742 66.2671 61.1773 66.5713 61.3132C66.8854 61.456 67.2552 61.5284 67.6719 61.5284C68.0877 61.5284 68.4576 61.4557 68.7716 61.3132C69.0759 61.1774 69.3454 60.9742 69.5598 60.7191C69.7691 60.4688 69.9261 60.1683 70.0269 59.8275C70.1277 59.4886 70.1781 59.1174 70.1781 58.7243C70.1781 58.3318 70.1277 57.9603 70.0269 57.6211ZM78.4548 60.4484C78.4208 60.3485 78.3242 60.386 78.3242 60.386C78.1749 60.4432 78.016 60.4962 77.847 60.5227C77.6607 60.5503 77.4726 60.5637 77.2843 60.5628C76.7874 60.5628 76.3927 60.4151 76.1101 60.1231C75.8267 59.831 75.6678 59.359 75.6695 58.7201C75.6713 58.1389 75.8115 57.7015 76.0632 57.3685C76.3135 57.0373 76.6942 56.8674 77.2023 56.8674C77.6258 56.8674 77.9485 56.9159 78.2867 57.0228C78.2867 57.0228 78.3678 57.0579 78.4062 56.9518C78.4958 56.7026 78.5626 56.524 78.6582 56.2501C78.6854 56.1722 78.6188 56.139 78.5949 56.1296C78.4618 56.0776 78.1475 55.9929 77.9101 55.9571C77.6881 55.9231 77.4287 55.9051 77.1399 55.9051C76.7087 55.9051 76.3245 55.9784 75.9957 56.1254C75.6678 56.2714 75.3896 56.4729 75.1693 56.724C74.949 56.9747 74.7817 57.2754 74.6699 57.6153C74.5588 57.9542 74.5025 58.3266 74.5025 58.7201C74.5025 59.5714 74.7322 60.2597 75.1855 60.7634C75.6397 61.2689 76.3222 61.5258 77.2116 61.5258C77.7376 61.5258 78.2773 61.4192 78.6648 61.2664C78.6648 61.2664 78.7393 61.2305 78.707 61.1442L78.4548 60.4482V60.4484ZM80.2508 58.1543C80.2993 57.8239 80.3907 57.549 80.5316 57.3347C80.7441 57.0094 81.0685 56.8308 81.5246 56.8308C81.9804 56.8308 82.2819 57.0101 82.4979 57.3347C82.6414 57.549 82.7037 57.8358 82.7283 58.1543H80.2508ZM83.7061 57.4278C83.619 57.099 83.4029 56.7668 83.2613 56.615C83.0375 56.374 82.819 56.2058 82.602 56.112C82.2871 55.9785 81.9484 55.9099 81.6064 55.9104C81.1728 55.9104 80.779 55.9831 80.4598 56.1331C80.1397 56.2836 79.8706 56.4884 79.6597 56.7439C79.4487 56.9982 79.2901 57.3015 79.1893 57.6455C79.0876 57.9877 79.0365 58.3611 79.0365 58.7546C79.0365 59.1551 79.0895 59.528 79.1945 59.8636C79.3002 60.2018 79.4694 60.5 79.6984 60.7465C79.9262 60.9949 80.2198 61.1897 80.5716 61.3254C80.9208 61.4604 81.3451 61.5305 81.8326 61.5296C82.8359 61.526 83.3647 61.3024 83.5822 61.182C83.6206 61.1609 83.6574 61.1232 83.6112 61.0156L83.3841 60.3795C83.3501 60.2846 83.2536 60.3197 83.2536 60.3197C83.0051 60.4118 82.6517 60.5775 81.8276 60.5759C81.2888 60.575 80.8892 60.416 80.6391 60.1676C80.382 59.9133 80.2566 59.5395 80.2344 59.0117L83.7087 59.015C83.7087 59.015 83.8001 59.0133 83.8095 58.9245C83.8128 58.887 83.929 58.2106 83.7061 57.4278ZM52.4266 58.1543C52.4761 57.8239 52.5666 57.549 52.7077 57.3347C52.9202 57.0094 53.2446 56.8308 53.7005 56.8308C54.1566 56.8308 54.458 57.0101 54.6748 57.3347C54.8175 57.549 54.8798 57.8358 54.9044 58.1543H52.4266ZM55.8813 57.4278C55.7941 57.099 55.579 56.7668 55.4372 56.615C55.2136 56.374 54.9949 56.2058 54.7781 56.112C54.4632 55.9785 54.1246 55.9099 53.7825 55.9104C53.3496 55.9104 52.9552 55.9831 52.6359 56.1331C52.3155 56.2836 52.0467 56.4884 51.8358 56.7439C51.6249 56.9982 51.4662 57.3015 51.3654 57.6455C51.2646 57.9877 51.2126 58.3611 51.2126 58.7546C51.2126 59.1551 51.2653 59.528 51.3706 59.8636C51.4763 60.2018 51.6455 60.5 51.8742 60.7465C52.1023 60.9949 52.3959 61.1897 52.7477 61.3254C53.097 61.4604 53.5212 61.5305 54.0087 61.5296C55.012 61.526 55.5405 61.3024 55.7583 61.182C55.7967 61.1609 55.8333 61.1232 55.7873 61.0156L55.5612 60.3795C55.526 60.2846 55.4297 60.3197 55.4297 60.3197C55.1812 60.4118 54.8285 60.5775 54.0028 60.5759C53.4649 60.575 53.0653 60.416 52.8152 60.1676C52.5581 59.9133 52.4325 59.5395 52.4105 59.0117L55.8846 59.015C55.8846 59.015 55.976 59.0133 55.9854 58.9245C55.9889 58.887 56.1049 58.2106 55.8813 57.4278ZM44.9171 60.4292C44.7811 60.3209 44.7624 60.2935 44.7165 60.2234C44.648 60.1168 44.6131 59.9646 44.6131 59.7718C44.6131 59.4661 44.7139 59.2468 44.9229 59.0991C44.9206 59.0998 45.2218 58.8385 45.9307 58.8479C46.4283 58.8549 46.8732 58.9282 46.8732 58.9282V60.5079H46.8741C46.8741 60.5079 46.4325 60.6026 45.9357 60.6324C45.2286 60.675 44.9145 60.4285 44.9171 60.4292ZM46.2994 57.9882C46.1586 57.9779 45.976 57.9718 45.7573 57.9718C45.4592 57.9718 45.1714 58.0093 44.9018 58.0819C44.6416 58.1494 44.3957 58.2635 44.176 58.4185C43.9662 58.5681 43.7938 58.7641 43.6721 58.9913C43.5493 59.2203 43.4869 59.49 43.4869 59.7921C43.4869 60.0996 43.5397 60.3668 43.6456 60.5855C43.7489 60.8017 43.9048 60.9884 44.0991 61.1285C44.292 61.2694 44.5304 61.3728 44.8069 61.4351C45.0793 61.4974 45.3882 61.5289 45.7264 61.5289C46.0826 61.5289 46.4377 61.5 46.7818 61.441C47.0746 61.3905 47.3664 61.3342 47.6569 61.272C47.7722 61.2446 47.9004 61.2096 47.9004 61.2096C47.9867 61.1883 47.9796 61.096 47.9796 61.096L47.978 57.919C47.978 57.2222 47.7919 56.7057 47.4256 56.3855C47.0611 56.0661 46.5239 55.9048 45.8297 55.9048C45.5696 55.9048 45.15 55.9407 44.8993 55.9911C44.8993 55.9911 44.1399 56.1378 43.8275 56.382C43.8275 56.382 43.7593 56.4247 43.7968 56.5203L44.0429 57.1812C44.0733 57.2665 44.1563 57.2375 44.1563 57.2375C44.1563 57.2375 44.1828 57.2274 44.2135 57.2093C44.8819 56.8456 45.7273 56.8568 45.7273 56.8568C46.103 56.8568 46.3915 56.9318 46.5863 57.0814C46.7759 57.2265 46.8722 57.4458 46.8722 57.9087V58.0554C46.5734 58.0128 46.2994 57.9882 46.2994 57.9882ZM74.3211 56.1978C74.3261 56.1862 74.3288 56.1737 74.3288 56.1611C74.3289 56.1485 74.3264 56.136 74.3215 56.1243C74.3167 56.1127 74.3095 56.1021 74.3004 56.0933C74.2914 56.0845 74.2806 56.0777 74.2689 56.0731C74.21 56.0501 73.9145 55.9878 73.6864 55.9733C73.2503 55.9468 73.0077 56.0201 72.7909 56.1176C72.5757 56.2149 72.3367 56.3719 72.2033 56.5505V56.1277C72.2033 56.0689 72.1616 56.022 72.1035 56.022H71.2129C71.155 56.022 71.113 56.0689 71.113 56.1277V61.3097C71.113 61.3678 71.1608 61.4156 71.2189 61.4156H72.1316C72.1455 61.4156 72.1592 61.4128 72.1719 61.4074C72.1847 61.4021 72.1963 61.3943 72.206 61.3844C72.2158 61.3746 72.2235 61.3629 72.2288 61.3501C72.234 61.3373 72.2367 61.3236 72.2366 61.3097V58.7208C72.2366 58.3735 72.275 58.0266 72.3519 57.8091C72.4269 57.5937 72.5296 57.4215 72.6559 57.2975C72.7766 57.1786 72.9239 57.0903 73.0855 57.0397C73.2467 56.9902 73.4253 56.974 73.5517 56.974C73.7335 56.974 73.9332 57.0209 73.9332 57.0209C73.9998 57.0286 74.0375 56.9876 74.0598 56.9272C74.1193 56.7683 74.2885 56.2925 74.3209 56.1978"
    fill="white"
  />
<path
    d="M65.7523 53.7961C65.6396 53.762 65.5249 53.7346 65.409 53.714C65.253 53.6885 65.095 53.6765 64.9369 53.6784C64.3083 53.6784 63.8131 53.8558 63.4658 54.206C63.1198 54.5543 62.885 55.0847 62.7673 55.7821L62.7244 56.017H61.9355C61.9355 56.017 61.8399 56.0135 61.8195 56.1178L61.6906 56.8411C61.6813 56.9093 61.711 56.9528 61.8031 56.9528H62.5709L61.7921 61.3005C61.7316 61.6506 61.6616 61.9384 61.5838 62.1569C61.5078 62.372 61.4338 62.5335 61.3414 62.6514C61.2523 62.7639 61.1689 62.8478 61.0236 62.8963C60.9041 62.9366 60.7658 62.9554 60.6146 62.9554C60.5309 62.9554 60.4192 62.9416 60.3364 62.9247C60.2715 62.912 60.2084 62.8915 60.1484 62.8637C60.1484 62.8637 60.0589 62.8298 60.0231 62.9195C59.9949 62.9938 59.7899 63.5563 59.7652 63.6257C59.7413 63.6948 59.7753 63.7485 59.8189 63.7647C59.9213 63.8005 59.9973 63.8244 60.1365 63.8577C60.3296 63.9032 60.4927 63.9055 60.6456 63.9055C60.9648 63.9055 61.2568 63.8603 61.4984 63.7734C61.741 63.6855 61.9527 63.5324 62.1406 63.3257C62.3429 63.1021 62.4702 62.8682 62.5913 62.548C62.7118 62.2321 62.8152 61.8393 62.8969 61.3818L63.68 56.9528H64.8242C64.8242 56.9528 64.9205 56.9561 64.9402 56.8511L65.0701 56.1288C65.0785 56.0596 65.0497 56.017 64.9564 56.017H63.8455C63.8516 55.9921 63.9019 55.6012 64.0292 55.2332C64.0838 55.0769 64.1862 54.9497 64.2725 54.8627C64.3538 54.78 64.4537 54.7179 64.5638 54.6815C64.674 54.6457 64.7994 54.6286 64.9369 54.6286C65.041 54.6286 65.1444 54.6405 65.2219 54.6567C65.3297 54.6799 65.3715 54.6918 65.3996 54.7003C65.5133 54.7345 65.5285 54.7012 65.5508 54.6464L65.8163 53.9175C65.8437 53.839 65.7762 53.8054 65.7523 53.7961ZM50.2316 61.3101C50.2316 61.368 50.1897 61.4151 50.1318 61.4151H49.2105C49.1523 61.4151 49.1113 61.3682 49.1113 61.3101V53.8952C49.1113 53.8373 49.1523 53.7902 49.2105 53.7902H50.1316C50.1897 53.7902 50.2316 53.8371 50.2316 53.8952V61.3101Z"
    fill="white"
  />
</svg>
