<svg
  width="60"
  height="30"
  viewBox="0 0 60 30"
  fill="none"
  xmlns="http://www.w3.org/2000/svg"
>
<path
    d="M0 0.155762V29.8464H30.3225L60 0.155762H0ZM8.16563 5.68326H8.175C10.3331 5.68326 12.96 6.29076 14.8631 7.26576L12.8138 10.8414C10.7231 9.82701 9.67875 9.73888 8.48812 9.66951C6.72 9.57201 5.83125 10.2076 5.81062 10.8901C5.80125 11.7226 7.49062 12.4726 9.0825 12.9901C11.4844 13.7533 14.55 14.777 15.0206 17.7376L19.425 6.09764H24.54L29.6981 20.0326L29.6775 6.09764H35.6044C41.25 6.09764 43.905 8.01014 43.905 12.3958C43.905 16.3314 41.1825 18.6864 36.5625 18.6864H34.6575L34.6294 23.9195L25.665 23.9101L25.0406 21.6358C24.0477 21.9611 23.0086 22.1232 21.9637 22.1158C20.8895 22.122 19.8213 21.9542 18.8006 21.6189L17.91 23.912L12.9094 23.9214L13.1344 22.7683C13.0617 22.8335 12.9867 22.896 12.9094 22.9558C11.5819 24.0283 9.8925 24.5289 7.8225 24.5664H7.28437C5.02462 24.5931 2.7991 24.0129 0.84 22.8864L2.66438 19.2639C4.63688 20.4358 5.88 20.6889 7.54875 20.6608C8.41688 20.6401 9.04125 20.4826 9.45187 20.0626C9.69575 19.8143 9.83587 19.4825 9.84375 19.1345C9.86062 18.197 8.51438 17.7601 6.88313 17.2501C5.55562 16.8395 4.04062 16.2751 2.86875 15.4051C1.47375 14.3908 0.79875 13.1008 0.838125 11.2858C0.846605 9.99994 1.35417 8.76767 2.25375 7.84889C3.55313 6.50076 5.64375 5.68889 8.16375 5.68889L8.16563 5.68326ZM34.6481 9.85326V14.6214H35.9587C37.6856 14.6214 39.0731 14.0439 39.0731 12.2083C39.0731 10.4308 37.6856 9.85326 35.9587 9.85326H34.6481ZM21.9319 11.777L20.0662 17.6739C20.6687 17.899 21.3075 18.0115 21.9506 18.0058C22.6256 18.0058 23.2613 17.8876 23.805 17.6926L21.9694 11.7658L21.9319 11.777Z"
    fill="white"
  />
</svg>
