<svg width="80" height="80" viewBox="0 0 80 80" fill="none" xmlns="http://www.w3.org/2000/svg">
<path d="M20 30.1038V49.8975H40.215L60 30.1038H20ZM25.4437 33.7888H25.45C26.8888 33.7888 28.64 34.1938 29.9088 34.8438L28.5425 37.2275C27.1488 36.5513 26.4525 36.4925 25.6588 36.4463C24.48 36.3813 23.8875 36.805 23.8737 37.26C23.8675 37.815 24.9937 38.315 26.055 38.66C27.6562 39.1688 29.7 39.8513 30.0138 41.825L32.95 34.065H36.36L39.7987 43.355L39.785 34.065H43.7362C47.5 34.065 49.27 35.34 49.27 38.2638C49.27 40.8875 47.455 42.4575 44.375 42.4575H43.105L43.0863 45.9463L37.11 45.94L36.6937 44.4238C36.0318 44.6407 35.3391 44.7487 34.6425 44.7438C33.9263 44.7479 33.2142 44.6361 32.5338 44.4125L31.94 45.9413L28.6063 45.9475L28.7563 45.1788C28.7078 45.2223 28.6578 45.264 28.6063 45.3038C27.7213 46.0188 26.595 46.3525 25.215 46.3775H24.8562C23.3497 46.3953 21.8661 46.0085 20.56 45.2575L21.7763 42.8425C23.0912 43.6238 23.92 43.7925 25.0325 43.7738C25.6112 43.76 26.0275 43.655 26.3012 43.375C26.4638 43.2095 26.5572 42.9882 26.5625 42.7563C26.5738 42.1313 25.6762 41.84 24.5887 41.5C23.7037 41.2263 22.6937 40.85 21.9125 40.27C20.9825 39.5938 20.5325 38.7338 20.5587 37.5238C20.5644 36.6665 20.9028 35.845 21.5025 35.2325C22.3688 34.3338 23.7625 33.7925 25.4425 33.7925L25.4437 33.7888ZM43.0988 36.5688V39.7475H43.9725C45.1237 39.7475 46.0488 39.3625 46.0488 38.1388C46.0488 36.9538 45.1237 36.5688 43.9725 36.5688H43.0988ZM34.6212 37.8513L33.3775 41.7825C33.7792 41.9326 34.205 42.0076 34.6337 42.0038C35.0837 42.0038 35.5075 41.925 35.87 41.795L34.6462 37.8438L34.6212 37.8513Z" fill="black"/>
</svg>
