<svg
  width="120"
  height="120"
  viewBox="0 0 120 120"
  fill="none"
  xmlns="http://www.w3.org/2000/svg"
>
<path
    d="M23.3603 52.644L15.1445 55.8151V57.9291L23.3603 61.1481L31.5281 57.9291V55.8151L23.3603 52.644ZM15.1445 63.7426V65.8085L23.3603 69.0276L31.5281 65.8085V63.7426L23.3603 66.9136L15.1445 63.7426Z"
    fill="white"
  />
<path
    d="M15.1445 59.7551V61.8691L23.3603 65.0882L31.5281 61.8691V59.7551L23.3603 62.9741L15.1445 59.7551ZM40.4165 62.9261C40.4165 62.5898 40.2724 62.3015 39.9841 62.1574C39.6958 61.9652 39.2154 61.821 38.5427 61.6769C37.8701 61.5328 37.3416 61.3406 36.9092 61.1484C35.9483 60.668 35.4678 59.9953 35.4678 59.1305C35.4678 58.3618 35.8041 57.7372 36.4287 57.2567C37.0533 56.7763 37.8701 56.488 38.831 56.488C39.888 56.488 40.7048 56.7282 41.3294 57.2567C41.954 57.7852 42.2903 58.4098 42.2903 59.2266H40.3685C40.3685 58.8422 40.2243 58.5539 39.9361 58.3137C39.6478 58.0735 39.3115 57.9294 38.831 57.9294C38.3986 57.9294 38.0623 58.0254 37.774 58.2176C37.4857 58.4098 37.3896 58.6981 37.3896 58.9864C37.3896 59.2746 37.5338 59.5149 37.774 59.659C38.0142 59.8031 38.5427 59.9953 39.3115 60.1395C40.0802 60.2836 40.6567 60.5238 41.0892 60.716C41.5216 60.9562 41.8579 61.2445 42.0501 61.5328C42.2423 61.8691 42.3864 62.2535 42.3864 62.7339C42.3864 63.5026 42.0501 64.1272 41.4255 64.6077C40.8009 65.0882 39.9361 65.3284 38.8791 65.3284C38.1584 65.3284 37.5338 65.1842 37.0053 64.944C36.4287 64.7038 35.9963 64.3194 35.708 63.887C35.4198 63.4546 35.2276 62.9741 35.2276 62.4456H37.1014C37.1494 62.9261 37.2936 63.2624 37.6299 63.5026C37.9662 63.7429 38.3506 63.887 38.8791 63.887C39.4076 63.887 39.7919 63.7909 40.0322 63.5987C40.2724 63.5026 40.4165 63.2144 40.4165 62.9261ZM49.2569 64.4155C48.6804 65.0882 47.8636 65.4245 46.8066 65.4245C45.8457 65.4245 45.173 65.1362 44.6926 64.6077C44.2121 64.0792 43.9719 63.2624 43.9719 62.2054V56.6321H45.8937V62.2054C45.8937 63.3105 46.3261 63.839 47.239 63.839C48.1999 63.839 48.8245 63.5026 49.1608 62.83V56.6321H51.0826V65.2803H49.2569V64.4155ZM52.8123 60.8601C52.8123 59.5149 53.1486 58.4579 53.7732 57.6411C54.3978 56.8243 55.2626 56.4399 56.2716 56.4399C57.2805 56.4399 58.0493 56.7763 58.5778 57.4489L58.6738 56.5841H60.4035V64.9921C60.4035 66.1452 60.0672 67.01 59.3465 67.6826C58.6258 68.3553 57.6649 68.6435 56.4637 68.6435C55.8392 68.6435 55.2146 68.4994 54.59 68.2592C53.9654 68.0189 53.533 67.6346 53.1966 67.2022L54.1095 66.0491C54.6861 66.7697 55.4548 67.1061 56.3196 67.1061C56.9442 67.1061 57.4727 66.9139 57.8571 66.5776C58.2414 66.2412 58.4336 65.7127 58.4336 65.0401V64.5116C57.8571 65.1362 57.1364 65.4245 56.1755 65.4245C55.1665 65.4245 54.3497 65.0401 53.6771 64.2233C53.1006 63.4066 52.8123 62.3015 52.8123 60.8601ZM54.7341 61.0523C54.7341 61.9171 54.9263 62.5898 55.2626 63.1183C55.5989 63.5987 56.1274 63.887 56.752 63.887C57.5208 63.887 58.0973 63.5507 58.4817 62.8781V59.0824C58.0973 58.4098 57.5208 58.1215 56.752 58.1215C56.1274 58.1215 55.5989 58.3618 55.2626 58.8903C54.9263 59.3227 54.7341 60.0434 54.7341 61.0523ZM67.6103 65.2803C67.5142 65.1362 67.4662 64.8479 67.3701 64.4636C66.7455 65.0882 65.9768 65.4245 65.112 65.4245C64.2471 65.4245 63.5265 65.1842 62.998 64.7038C62.4694 64.2233 62.1812 63.5987 62.1812 62.8781C62.1812 61.9652 62.5175 61.2445 63.1901 60.764C63.8628 60.2836 64.8717 60.0434 66.1209 60.0434H67.3221V59.4668C67.3221 59.0344 67.1779 58.65 66.9377 58.4098C66.6975 58.1696 66.3131 58.0254 65.7846 58.0254C65.3522 58.0254 64.9678 58.1215 64.6795 58.3618C64.3913 58.602 64.2471 58.8422 64.2471 59.2266H62.3253C62.3253 58.7461 62.4694 58.3137 62.8058 57.8813C63.1421 57.4489 63.5265 57.1606 64.103 56.9204C64.6315 56.6802 65.2561 56.5841 65.9287 56.5841C66.9377 56.5841 67.7545 56.8243 68.331 57.3528C68.9076 57.8813 69.2439 58.602 69.2439 59.5149V63.4066C69.2439 64.1753 69.34 64.7999 69.5802 65.2803V65.4245H67.6103V65.2803ZM65.4483 63.887C65.8326 63.887 66.217 63.7909 66.5533 63.5987C66.8896 63.4066 67.1299 63.1663 67.3221 62.83V61.1965H66.265C65.5444 61.1965 65.0159 61.3406 64.6315 61.5808C64.2471 61.821 64.103 62.2054 64.103 62.6378C64.103 63.0222 64.2471 63.3105 64.4874 63.5507C64.7276 63.7429 65.0639 63.887 65.4483 63.887ZM75.8261 58.3618C75.5859 58.3137 75.2976 58.3137 75.0574 58.3137C74.1445 58.3137 73.568 58.65 73.2797 59.3227V65.2323H71.3579V56.5841H73.2317L73.2797 57.545C73.7602 56.7763 74.3848 56.4399 75.2496 56.4399C75.5379 56.4399 75.7781 56.488 75.9222 56.536L75.8261 58.3618ZM80.4865 64.6077C81.1592 64.6077 81.7357 64.4155 82.1681 64.0311C82.6006 63.6468 82.8408 63.1663 82.8888 62.5898H83.8017C83.7536 63.1183 83.6095 63.5987 83.3212 64.0311C83.033 64.4636 82.6006 64.7999 82.1201 65.0401C81.6396 65.2803 81.0631 65.4245 80.4865 65.4245C79.3335 65.4245 78.4686 65.0401 77.796 64.2233C77.1234 63.4546 76.787 62.3496 76.787 61.0523V60.764C76.787 59.8992 76.9312 59.1785 77.2194 58.5059C77.5077 57.8333 77.9401 57.3528 78.5167 56.9684C79.0932 56.6321 79.7178 56.4399 80.4865 56.4399C81.4475 56.4399 82.2162 56.7282 82.8408 57.3048C83.4654 57.8813 83.8017 58.602 83.8497 59.5149H82.9369C82.8888 58.8422 82.6486 58.3137 82.2162 57.8813C81.7838 57.4489 81.2072 57.2567 80.5346 57.2567C79.6698 57.2567 78.9971 57.545 78.5167 58.1696C78.0362 58.7942 77.796 59.659 77.796 60.8121V61.1004C77.796 62.2054 78.0362 63.0702 78.5167 63.6948C78.9491 64.3194 79.6217 64.6077 80.4865 64.6077ZM89.7594 57.4489C89.5672 57.4009 89.3269 57.4009 89.1348 57.4009C88.5582 57.4009 88.0297 57.545 87.5973 57.8813C87.1649 58.2176 86.8766 58.6981 86.7325 59.3227V65.2803H85.7716V56.6321H86.6844V58.0254C87.2129 57.0165 87.9817 56.488 89.1348 56.488C89.423 56.488 89.6152 56.536 89.7594 56.5841V57.4489ZM92.1136 56.6321L92.1616 58.0254C92.498 57.4969 92.8823 57.1126 93.3628 56.8724C93.8432 56.6321 94.3717 56.488 94.9483 56.488C96.2935 56.488 97.1584 57.0645 97.5427 58.1696C97.831 57.6411 98.2634 57.2087 98.7919 56.9204C99.3204 56.6321 99.897 56.488 100.522 56.488C102.395 56.488 103.308 57.4969 103.356 59.5149V65.2803H102.395V59.5629C102.395 58.7942 102.203 58.2176 101.915 57.8333C101.579 57.4489 101.05 57.2567 100.329 57.2567C99.6567 57.2567 99.0802 57.4969 98.5997 57.9294C98.1193 58.3618 97.8791 58.8903 97.831 59.5149V65.2323H96.8701V59.4668C96.8701 58.7461 96.6779 58.1696 96.3416 57.7852C96.0053 57.4009 95.4768 57.2567 94.7561 57.2567C94.1315 57.2567 93.651 57.4489 93.2186 57.7852C92.7862 58.1215 92.4499 58.65 92.2577 59.3227V65.2803H91.2968V56.6321H92.1136Z"
    fill="white"
  />
</svg>
