<svg width="80" height="80" viewBox="0 0 80 80" fill="none" xmlns="http://www.w3.org/2000/svg">
<g clip-path="url(#clip0_270_12129)">
<path d="M15.5729 35.0961L10.0957 37.2101V38.6194L15.5729 40.7655L21.0181 38.6194V37.2101L15.5729 35.0961ZM10.0957 42.4951V43.8724L15.5729 46.0185L21.0181 43.8724V42.4951L15.5729 44.6091L10.0957 42.4951Z" fill="#101820"/>
<path d="M10.0957 39.8366V41.2459L15.5729 43.392L21.0181 41.2459V39.8366L15.5729 41.9826L10.0957 39.8366ZM26.9437 41.9506C26.9437 41.7264 26.8476 41.5342 26.6554 41.4381C26.4632 41.31 26.1429 41.2139 25.6945 41.1178C25.2461 41.0217 24.8937 40.8936 24.6055 40.7655C23.9649 40.4452 23.6446 39.9967 23.6446 39.4202C23.6446 38.9077 23.8688 38.4913 24.2852 38.171C24.7016 37.8507 25.2461 37.6585 25.8867 37.6585C26.5914 37.6585 27.1359 37.8187 27.5523 38.171C27.9687 38.5233 28.1929 38.9397 28.1929 39.4843H26.9117C26.9117 39.228 26.8156 39.0358 26.6234 38.8757C26.4312 38.7155 26.207 38.6194 25.8867 38.6194C25.5984 38.6194 25.3742 38.6835 25.182 38.8116C24.9898 38.9397 24.9258 39.1319 24.9258 39.3241C24.9258 39.5163 25.0219 39.6764 25.182 39.7725C25.3422 39.8686 25.6945 39.9967 26.207 40.0928C26.7195 40.1889 27.1038 40.3491 27.3921 40.4772C27.6804 40.6374 27.9046 40.8295 28.0327 41.0217C28.1609 41.2459 28.2569 41.5022 28.2569 41.8225C28.2569 42.335 28.0327 42.7514 27.6163 43.0717C27.1999 43.392 26.6234 43.5521 25.9187 43.5521C25.4383 43.5521 25.0219 43.456 24.6695 43.2959C24.2852 43.1357 23.9969 42.8795 23.8047 42.5912C23.6125 42.3029 23.4844 41.9826 23.4844 41.6303H24.7336C24.7656 41.9506 24.8617 42.1748 25.0859 42.335C25.3101 42.4951 25.5664 42.5912 25.9187 42.5912C26.2711 42.5912 26.5273 42.5271 26.6875 42.399C26.8476 42.335 26.9437 42.1428 26.9437 41.9506ZM32.8373 42.9435C32.4529 43.392 31.9084 43.6162 31.2037 43.6162C30.5631 43.6162 30.1147 43.424 29.7944 43.0717C29.4741 42.7193 29.3139 42.1748 29.3139 41.4701V37.7546H30.5952V41.4701C30.5952 42.2068 30.8834 42.5592 31.492 42.5592C32.1326 42.5592 32.549 42.335 32.7732 41.8865V37.7546H34.0544V43.5201H32.8373V42.9435ZM35.2075 40.5733C35.2075 39.6764 35.4318 38.9718 35.8481 38.4273C36.2645 37.8827 36.8411 37.6265 37.5137 37.6265C38.1864 37.6265 38.6989 37.8507 39.0512 38.2991L39.1152 37.7226H40.2683V43.3279C40.2683 44.0966 40.0441 44.6732 39.5637 45.1216C39.0832 45.57 38.4426 45.7622 37.6418 45.7622C37.2255 45.7622 36.8091 45.6661 36.3927 45.506C35.9763 45.3458 35.688 45.0896 35.4638 44.8013L36.0724 44.0326C36.4567 44.513 36.9692 44.7372 37.5458 44.7372C37.9622 44.7372 38.3145 44.6091 38.5707 44.3849C38.827 44.1607 38.9551 43.8084 38.9551 43.3599V43.0076C38.5707 43.424 38.0903 43.6162 37.4497 43.6162C36.777 43.6162 36.2325 43.3599 35.7841 42.8154C35.3997 42.2709 35.2075 41.5342 35.2075 40.5733ZM36.4888 40.7014C36.4888 41.278 36.6169 41.7264 36.8411 42.0787C37.0653 42.399 37.4176 42.5912 37.834 42.5912C38.3465 42.5912 38.7309 42.367 38.9871 41.9186V39.3882C38.7309 38.9397 38.3465 38.7476 37.834 38.7476C37.4176 38.7476 37.0653 38.9077 36.8411 39.26C36.6169 39.5483 36.4888 40.0288 36.4888 40.7014ZM45.0729 43.5201C45.0088 43.424 44.9768 43.2318 44.9128 42.9756C44.4964 43.392 43.9839 43.6162 43.4073 43.6162C42.8308 43.6162 42.3503 43.456 41.998 43.1357C41.6457 42.8154 41.4535 42.399 41.4535 41.9186C41.4535 41.31 41.6777 40.8295 42.1261 40.5092C42.5745 40.1889 43.2472 40.0288 44.08 40.0288H44.8807V39.6444C44.8807 39.3561 44.7846 39.0999 44.6245 38.9397C44.4643 38.7796 44.2081 38.6835 43.8557 38.6835C43.5675 38.6835 43.3112 38.7476 43.119 38.9077C42.9269 39.0679 42.8308 39.228 42.8308 39.4843H41.5496C41.5496 39.164 41.6456 38.8757 41.8699 38.5874C42.0941 38.2991 42.3503 38.107 42.7347 37.9468C43.087 37.7866 43.5034 37.7226 43.9518 37.7226C44.6245 37.7226 45.169 37.8827 45.5534 38.2351C45.9377 38.5874 46.1619 39.0679 46.1619 39.6764V42.2709C46.1619 42.7834 46.226 43.1998 46.3862 43.5201V43.6162H45.0729V43.5201ZM43.6315 42.5912C43.8878 42.5912 44.144 42.5271 44.3682 42.399C44.5924 42.2709 44.7526 42.1108 44.8807 41.8865V40.7975H44.1761C43.6956 40.7975 43.3433 40.8936 43.087 41.0537C42.8308 41.2139 42.7347 41.4701 42.7347 41.7584C42.7347 42.0147 42.8308 42.2068 42.9909 42.367C43.1511 42.4951 43.3753 42.5912 43.6315 42.5912ZM50.5501 38.9077C50.3899 38.8757 50.1978 38.8757 50.0376 38.8757C49.429 38.8757 49.0447 39.0999 48.8525 39.5483V43.4881H47.5713V37.7226H48.8205L48.8525 38.3632C49.1728 37.8507 49.5892 37.6265 50.1657 37.6265C50.3579 37.6265 50.5181 37.6585 50.6142 37.6906L50.5501 38.9077ZM53.6571 43.0717C54.1055 43.0717 54.4898 42.9435 54.7781 42.6873C55.0664 42.4311 55.2265 42.1108 55.2586 41.7264H55.8671C55.8351 42.0787 55.739 42.399 55.5468 42.6873C55.3547 42.9756 55.0664 43.1998 54.7461 43.3599C54.4258 43.5201 54.0414 43.6162 53.6571 43.6162C52.8883 43.6162 52.3118 43.3599 51.8633 42.8154C51.4149 42.3029 51.1907 41.5662 51.1907 40.7014V40.5092C51.1907 39.9327 51.2868 39.4522 51.479 39.0038C51.6712 38.5554 51.9594 38.2351 52.3438 37.9788C52.7282 37.7546 53.1446 37.6265 53.6571 37.6265C54.2977 37.6265 54.8101 37.8187 55.2265 38.203C55.6429 38.5874 55.8671 39.0679 55.8992 39.6764H55.2906C55.2586 39.228 55.0984 38.8757 54.8101 38.5874C54.5219 38.2991 54.1375 38.171 53.6891 38.171C53.1125 38.171 52.6641 38.3632 52.3438 38.7796C52.0235 39.196 51.8633 39.7725 51.8633 40.5413V40.7334C51.8633 41.4701 52.0235 42.0467 52.3438 42.4631C52.6321 42.8795 53.0805 43.0717 53.6571 43.0717ZM59.8389 38.2991C59.7108 38.2671 59.5506 38.2671 59.4225 38.2671C59.0382 38.2671 58.6858 38.3632 58.3976 38.5874C58.1093 38.8116 57.9171 39.1319 57.821 39.5483V43.5201H57.1804V37.7546H57.789V38.6835C58.1413 38.0109 58.6538 37.6585 59.4225 37.6585C59.6147 37.6585 59.7428 37.6906 59.8389 37.7226V38.2991ZM61.4084 37.7546L61.4404 38.6835C61.6647 38.3312 61.9209 38.0749 62.2412 37.9148C62.5615 37.7546 62.9138 37.6585 63.2982 37.6585C64.1951 37.6585 64.7716 38.0429 65.0278 38.7796C65.22 38.4273 65.5083 38.139 65.8606 37.9468C66.213 37.7546 66.5973 37.6585 67.0137 37.6585C68.2629 37.6585 68.8715 38.3312 68.9035 39.6764V43.5201H68.2629V39.7085C68.2629 39.196 68.1348 38.8116 67.9426 38.5554C67.7184 38.2991 67.3661 38.171 66.8856 38.171C66.4372 38.171 66.0528 38.3312 65.7325 38.6194C65.4122 38.9077 65.2521 39.26 65.22 39.6764V43.4881H64.5794V39.6444C64.5794 39.164 64.4513 38.7796 64.2271 38.5233C64.0029 38.2671 63.6505 38.171 63.1701 38.171C62.7537 38.171 62.4334 38.2991 62.1451 38.5233C61.8568 38.7476 61.6326 39.0999 61.5045 39.5483V43.5201H60.8639V37.7546H61.4084Z" fill="#101820"/>
</g>
<defs>
<clipPath id="clip0_270_12129">
<rect width="59" height="11.1145" fill="white" transform="translate(10 35)"/>
</clipPath>
</defs>
</svg>
