<svg
  width="120"
  height="120"
  viewBox="0 0 120 120"
  fill="none"
  xmlns="http://www.w3.org/2000/svg"
>
<g clip-path="url(#clip0_688_16075)">
<path
      d="M97.5 52.0225V69.8054L95.0391 72.2077V54.8056L97.5 52.0225Z"
      fill="#E79225"
    />
<path
      d="M81.3711 52.0371L78.8223 54.8056L78.9541 54.9814L94.9353 54.9228L95.0818 54.8056L97.4988 52.0225L81.3711 52.0371Z"
      fill="#FFF16D"
    />
<path
      d="M78.8223 54.8057H95.0818V72.2224H78.8223V54.8057Z"
      fill="url(#paint0_linear_688_16075)"
    />
<path
      d="M92.6073 61.0751C92.285 60.2695 91.8016 59.5371 91.1717 58.9072C90.5712 58.292 89.8973 57.8232 89.1356 57.5156C88.3886 57.208 87.5829 57.0469 86.704 57.0469C85.8251 57.0469 85.0048 57.208 84.2578 57.5156C83.4961 57.8232 82.8222 58.292 82.2217 58.9072C81.5918 59.5371 81.123 60.2695 80.8008 61.0751C80.4785 61.8808 80.332 62.7597 80.332 63.7265C80.332 64.664 80.4932 65.5429 80.8154 66.3632C81.1377 67.1835 81.6064 67.9159 82.2363 68.5604C82.8222 69.161 83.4961 69.6151 84.2431 69.9227C84.9902 70.2303 85.8251 70.3914 86.7187 70.3914C87.5829 70.3914 88.3886 70.2303 89.1356 69.9227C89.8827 69.6151 90.5712 69.161 91.1717 68.5604C91.8016 67.9159 92.285 67.1835 92.6073 66.3778C92.9295 65.5722 93.0907 64.6786 93.0907 63.7411C93.0907 62.7597 92.9295 61.8808 92.6073 61.0751ZM89.2528 66.8173C88.6229 67.5643 87.788 67.9452 86.704 67.9452C85.62 67.9452 84.7705 67.5643 84.1406 66.8173C83.5107 66.0702 83.2031 65.0302 83.2031 63.7118C83.2031 62.3642 83.5253 61.3242 84.1406 60.5625C84.7705 59.8007 85.6054 59.4345 86.704 59.4345C87.788 59.4345 88.6229 59.8154 89.2528 60.5625C89.868 61.3242 90.1903 62.3642 90.1903 63.7118C90.1903 65.0302 89.8827 66.0702 89.2528 66.8173Z"
      fill="white"
    />
<path
      d="M77.2265 50.5723V50.6602L79.3066 66.6414L78.0908 70.0105L77.9297 69.8933L75.791 54.5712L75.835 54.3662L77.168 50.6602L77.2265 50.5723Z"
      fill="#009ADA"
    />
<path
      d="M61.2148 52.7988L77.2254 50.5723L75.8777 54.4101L75.6873 54.6152L60.7168 56.8124L60.79 54.0732L61.2148 52.7988Z"
      fill="#91C9ED"
    />
<path
      d="M75.8797 54.4102L78.0916 70.0105L62.3154 72.2224L60.1914 57.1494L61.1142 56.4316L75.8797 54.4102Z"
      fill="url(#paint1_linear_688_16075)"
    />
<path
      d="M73.1971 57.3984C73.1239 56.915 72.9628 56.5488 72.6991 56.2998C72.4794 56.1094 72.2157 56.0068 71.9081 56.0068C71.8349 56.0068 71.747 56.0068 71.6591 56.0215C71.2489 56.0801 70.9413 56.2705 70.7509 56.5781C70.6044 56.7978 70.5458 57.0762 70.5458 57.3984C70.5458 57.5156 70.5605 57.6474 70.5751 57.7793L71.1464 61.8368L66.6054 62.5107L66.0341 58.4531C65.9609 57.9843 65.7998 57.6181 65.5361 57.3691C65.3164 57.164 65.0527 57.0615 64.7597 57.0615C64.6865 57.0615 64.6133 57.0615 64.54 57.0762C64.1152 57.1348 63.793 57.3252 63.5879 57.6328C63.4414 57.8525 63.3828 58.1308 63.3828 58.4531C63.3828 58.5703 63.3975 58.7021 63.4121 58.8486L64.9648 69.41C65.0381 69.8934 65.1992 70.2596 65.4922 70.5086C65.7119 70.699 65.9756 70.7869 66.2978 70.7869C66.3857 70.7869 66.4736 70.7869 66.5615 70.7723C66.957 70.7137 67.2499 70.5232 67.4404 70.2156C67.5722 69.9959 67.6308 69.7322 67.6308 69.4246C67.6308 69.3074 67.6162 69.1756 67.6015 69.0438L66.9716 64.869L71.5126 64.1952L72.1425 68.37C72.2157 68.8533 72.3768 69.2196 72.6552 69.4539C72.8749 69.6444 73.1385 69.7469 73.4462 69.7469C73.5194 69.7469 73.6073 69.7469 73.6952 69.7322C74.1053 69.6737 74.4129 69.4832 74.6034 69.1756C74.7352 68.9559 74.8084 68.6922 74.8084 68.37C74.8084 68.2528 74.7938 68.1209 74.7791 67.9891L73.1971 57.3984Z"
      fill="white"
    />
<path
      d="M46.2314 46.5L40.5332 60.035L41.3096 65.9822L41.3535 65.9675L47.7548 51.5683L47.7255 51.2607L46.3486 46.6904L46.2314 46.5Z"
      fill="#66BF6B"
    />
<path
      d="M46.2305 46.5L47.7099 51.4658L47.7392 51.5683L61.8308 57.8817L61.8748 57.8524L60.6736 53.1064L46.2305 46.5Z"
      fill="#98D0A0"
    />
<path
      d="M47.7099 51.4658L61.8747 57.8525L55.4734 72.3689L41.3086 65.9822L47.7099 51.4658Z"
      fill="url(#paint2_linear_688_16075)"
    />
<path
      d="M57.5838 59.0244C57.2762 58.2041 56.8514 57.5009 56.2948 56.915C55.7381 56.3291 55.0643 55.8603 54.2733 55.5234C53.4823 55.1865 52.6913 55.0254 51.8857 55.0254H51.8417C51.0214 55.0254 50.2158 55.2158 49.4248 55.5674C48.5898 55.9336 47.872 56.4316 47.2568 57.0908C46.6416 57.7353 46.1435 58.5263 45.7627 59.4345C45.3818 60.3281 45.1768 61.2362 45.1328 62.1298V62.4374C45.1328 63.2284 45.2646 64.0048 45.543 64.7665C45.8359 65.5721 46.2607 66.2606 46.8174 66.8465C47.374 67.4325 48.0625 67.9012 48.8828 68.2381C49.6591 68.575 50.4501 68.7361 51.2558 68.7361H51.2704C52.0761 68.7361 52.8817 68.5604 53.6727 68.2235C54.5077 67.8573 55.2401 67.3446 55.8553 66.6854C56.4706 66.0409 56.9833 65.2645 57.3641 64.3563C57.745 63.4481 57.95 62.5546 57.994 61.661V61.3974C58.0086 60.5917 57.8768 59.8007 57.5838 59.0244ZM54.7567 63.2431C54.2294 64.5028 53.5116 65.3671 52.6474 65.8358C52.1786 66.0848 51.6952 66.2166 51.2118 66.2166C50.787 66.2166 50.3329 66.1141 49.8788 65.9237C48.8828 65.4989 48.2675 64.8251 48.0039 63.8583C47.916 63.536 47.872 63.1991 47.872 62.8476C47.872 62.1444 48.0478 61.3681 48.3994 60.5331C48.9414 59.2441 49.6591 58.3652 50.5234 57.8818C50.9921 57.6181 51.4755 57.5009 51.9589 57.5009C52.3983 57.5009 52.8378 57.6035 53.3065 57.7939C54.288 58.2187 54.9032 58.8925 55.1669 59.8593C55.2548 60.1669 55.2987 60.5038 55.2987 60.8554C55.2987 61.5878 55.1229 62.3788 54.7567 63.2431Z"
      fill="white"
    />
<path
      d="M39.4043 48.7998L41.7187 64.2976L40.664 69.7468L40.5175 69.5564L38.2617 54.5859V54.2929L39.2578 49.0635L39.4043 48.7998Z"
      fill="#760D16"
    />
<path
      d="M22.5 56.8124L23.5986 51.334L39.4041 48.7998L38.3348 54.3808V54.747L22.6904 56.9589L22.5 56.8124Z"
      fill="#EF463E"
    />
<path
      d="M38.3348 54.3809L40.6638 69.7469L25.0195 72.1931L22.5 56.8125L38.3348 54.3809Z"
      fill="url(#paint3_linear_688_16075)"
    />
<path
      d="M36.6503 67.3006C36.5331 67.1542 36.3573 67.0516 36.1522 66.9784C35.9471 66.9051 35.6981 66.8758 35.3905 66.8758C35.1122 66.8758 34.7899 66.9051 34.4384 66.9637L30.3076 67.6668C30.3515 67.3446 30.5126 66.9344 30.791 66.4217C31.0986 65.8505 31.5673 65.162 32.1679 64.371C32.373 64.0927 32.5341 63.8876 32.6513 63.7411C32.7245 63.6386 32.8417 63.5067 32.9882 63.3163C33.9403 62.0712 34.5116 61.0605 34.746 60.2695C34.8778 59.8154 34.9511 59.3613 34.9804 58.9072C34.995 58.7754 34.995 58.6582 34.995 58.541C34.995 58.2187 34.9657 57.8965 34.9071 57.5742C34.8632 57.2812 34.7899 57.0469 34.6874 56.8564C34.5849 56.666 34.4677 56.5195 34.3212 56.4316C34.1601 56.3291 33.911 56.2852 33.6034 56.2852C33.3544 56.2852 33.0468 56.3145 32.6806 56.373L27.9053 57.1933C27.334 57.2959 26.8945 57.457 26.6309 57.7207C26.4111 57.9258 26.3086 58.1894 26.3086 58.4824C26.3086 58.5556 26.3086 58.6435 26.3232 58.7314C26.3965 59.1416 26.6016 59.4345 26.9385 59.581C27.1435 59.6689 27.3779 59.7128 27.6709 59.7128C27.8613 59.7128 28.081 59.6982 28.3154 59.6543L32.2997 58.9511C32.2997 59.0244 32.3144 59.0976 32.3144 59.1562C32.3144 59.4052 32.2704 59.6543 32.1825 59.8886C32.0654 60.2255 31.7724 60.6943 31.289 61.2949C31.1572 61.456 30.9521 61.7197 30.6738 62.0566C29.5898 63.3603 28.8281 64.4735 28.3593 65.3964C28.0224 66.0409 27.8027 66.6561 27.6709 67.286C27.5976 67.6522 27.5537 67.9891 27.5537 68.326C27.5537 68.5604 27.5683 68.7948 27.6123 69.0145C27.6709 69.3367 27.7441 69.6004 27.8467 69.8055C27.9492 70.0106 28.0957 70.1717 28.2568 70.2596C28.4179 70.3475 28.6377 70.3768 28.9599 70.3768C29.3554 70.3768 29.8974 70.3182 30.5859 70.201L34.9218 69.4539C35.6835 69.3221 36.2255 69.1317 36.5331 68.8827C36.7821 68.6776 36.9139 68.3993 36.9139 68.077C36.9139 67.9891 36.8993 67.9012 36.8846 67.8133C36.8553 67.6229 36.7821 67.4471 36.6503 67.3006Z"
      fill="white"
    />
</g>
<defs>
<linearGradient
      id="paint0_linear_688_16075"
      x1="86.9514"
      y1="55.0549"
      x2="86.9514"
      y2="71.6966"
      gradientUnits="userSpaceOnUse"
    >
<stop offset="0.00562" stop-color="#FFE513" />
<stop offset="1" stop-color="#FDB924" />
</linearGradient>
<linearGradient
      id="paint1_linear_688_16075"
      x1="60.9991"
      y1="56.8137"
      x2="77.2534"
      y2="69.9964"
      gradientUnits="userSpaceOnUse"
    >
<stop offset="0.00562" stop-color="#008CD2" />
<stop offset="1" stop-color="#00649D" />
</linearGradient>
<linearGradient
      id="paint2_linear_688_16075"
      x1="51.5921"
      y1="57.2725"
      x2="51.5921"
      y2="71.8524"
      gradientUnits="userSpaceOnUse"
    >
<stop stop-color="#26A146" />
<stop offset="1" stop-color="#008A52" />
</linearGradient>
<linearGradient
      id="paint3_linear_688_16075"
      x1="30.4438"
      y1="55.8429"
      x2="32.8584"
      y2="70.9965"
      gradientUnits="userSpaceOnUse"
    >
<stop stop-color="#D92231" />
<stop offset="1" stop-color="#BA2234" />
</linearGradient>
<clipPath id="clip0_688_16075">
<rect
        width="75"
        height="25.9274"
        fill="white"
        transform="translate(22.5 46.5)"
      />
</clipPath>
</defs>
</svg>
