<svg width="80" height="80" viewBox="0 0 80 80" fill="none" xmlns="http://www.w3.org/2000/svg">
<g clip-path="url(#clip0_270_10195)">
<path d="M65 34.6816V46.5369L63.3594 48.1384V36.537L65 34.6816Z" fill="#E79225"/>
<path d="M54.248 34.6913L52.5488 36.537L52.6367 36.6542L63.2909 36.6151L63.3885 36.537L64.9998 34.6816L54.248 34.6913Z" fill="#FFF16D"/>
<path d="M52.5488 36.537H63.3885V48.1482H52.5488V36.537Z" fill="url(#paint0_linear_270_10195)"/>
<path d="M61.7382 40.7167C61.5233 40.1796 61.2011 39.6913 60.7812 39.2714C60.3808 38.8612 59.9316 38.5487 59.4238 38.3437C58.9257 38.1386 58.3886 38.0312 57.8027 38.0312C57.2167 38.0312 56.6699 38.1386 56.1718 38.3437C55.664 38.5487 55.2148 38.8612 54.8144 39.2714C54.3945 39.6913 54.082 40.1796 53.8672 40.7167C53.6523 41.2538 53.5547 41.8397 53.5547 42.4842C53.5547 43.1092 53.6621 43.6951 53.877 44.242C54.0918 44.7889 54.4043 45.2772 54.8242 45.7068C55.2148 46.1072 55.664 46.41 56.1621 46.615C56.6601 46.8201 57.2167 46.9275 57.8124 46.9275C58.3886 46.9275 58.9257 46.8201 59.4238 46.615C59.9218 46.41 60.3808 46.1072 60.7812 45.7068C61.2011 45.2772 61.5233 44.7889 61.7382 44.2518C61.953 43.7147 62.0604 43.119 62.0604 42.494C62.0604 41.8397 61.953 41.2538 61.7382 40.7167ZM59.5019 44.5447C59.082 45.0428 58.5253 45.2967 57.8027 45.2967C57.08 45.2967 56.5136 45.0428 56.0937 44.5447C55.6738 44.0467 55.4687 43.3534 55.4687 42.4745C55.4687 41.576 55.6836 40.8827 56.0937 40.3749C56.5136 39.8671 57.0703 39.6229 57.8027 39.6229C58.5253 39.6229 59.082 39.8768 59.5019 40.3749C59.912 40.8827 60.1269 41.576 60.1269 42.4745C60.1269 43.3534 59.9218 44.0467 59.5019 44.5447Z" fill="white"/>
<path d="M51.4844 33.7148V33.7734L52.8711 44.4276L52.0605 46.6736L51.9531 46.5955L50.5273 36.3808L50.5566 36.2441L51.4453 33.7734L51.4844 33.7148Z" fill="#009ADA"/>
<path d="M40.8105 35.1992L51.4842 33.7148L50.5858 36.2734L50.4589 36.4101L40.4785 37.8749L40.5273 36.0488L40.8105 35.1992Z" fill="#91C9ED"/>
<path d="M50.5858 36.2734L52.0604 46.6736L41.543 48.1482L40.127 38.0995L40.7422 37.621L50.5858 36.2734Z" fill="url(#paint1_linear_270_10195)"/>
<path d="M48.7987 38.2655C48.7499 37.9433 48.6425 37.6991 48.4667 37.5331C48.3202 37.4062 48.1445 37.3378 47.9394 37.3378C47.8906 37.3378 47.832 37.3378 47.7734 37.3476C47.4999 37.3866 47.2949 37.5136 47.1679 37.7187C47.0703 37.8651 47.0312 38.0507 47.0312 38.2655C47.0312 38.3436 47.041 38.4315 47.0507 38.5194L47.4316 41.2245L44.4043 41.6737L44.0234 38.9686C43.9746 38.6561 43.8672 38.412 43.6914 38.246C43.5449 38.1093 43.3691 38.0409 43.1738 38.0409C43.125 38.0409 43.0762 38.0409 43.0273 38.0507C42.7441 38.0897 42.5293 38.2167 42.3926 38.4218C42.2949 38.5683 42.2559 38.7538 42.2559 38.9686C42.2559 39.0468 42.2656 39.1347 42.2754 39.2323L43.3105 46.2732C43.3594 46.5955 43.4668 46.8396 43.6621 47.0056C43.8086 47.1326 43.9844 47.1912 44.1992 47.1912C44.2578 47.1912 44.3164 47.1912 44.375 47.1814C44.6386 47.1424 44.8339 47.0154 44.9609 46.8103C45.0488 46.6638 45.0879 46.4881 45.0879 46.283C45.0879 46.2049 45.0781 46.117 45.0683 46.0291L44.6484 43.2459L47.6757 42.7967L48.0956 45.5799C48.1445 45.9021 48.2519 46.1463 48.4374 46.3025C48.5839 46.4295 48.7597 46.4978 48.9648 46.4978C49.0136 46.4978 49.0722 46.4978 49.1308 46.4881C49.4042 46.449 49.6093 46.3221 49.7362 46.117C49.8241 45.9705 49.8729 45.7947 49.8729 45.5799C49.8729 45.5018 49.8632 45.4139 49.8534 45.326L48.7987 38.2655Z" fill="white"/>
<path d="M30.8203 31L27.0215 40.0233L27.5391 43.9881L27.5684 43.9783L31.8359 34.3789L31.8163 34.1738L30.8984 31.127L30.8203 31Z" fill="#66BF6B"/>
<path d="M30.8203 31L31.8066 34.3105L31.8262 34.3789L41.2206 38.5878L41.2499 38.5683L40.4491 35.4042L30.8203 31Z" fill="#98D0A0"/>
<path d="M31.8066 34.3105L41.2498 38.5683L36.9823 48.2459L27.5391 43.9881L31.8066 34.3105Z" fill="url(#paint2_linear_270_10195)"/>
<path d="M38.3886 39.3495C38.1835 38.8026 37.9003 38.3339 37.5292 37.9433C37.1581 37.5527 36.7089 37.2402 36.1816 37.0156C35.6542 36.791 35.1269 36.6835 34.5898 36.6835H34.5605C34.0136 36.6835 33.4765 36.8105 32.9492 37.0449C32.3925 37.289 31.914 37.621 31.5039 38.0605C31.0937 38.4901 30.7617 39.0175 30.5078 39.6229C30.2539 40.2186 30.1172 40.8241 30.0879 41.4198V41.6249C30.0879 42.1522 30.1758 42.6698 30.3613 43.1776C30.5566 43.7147 30.8398 44.1737 31.2109 44.5643C31.582 44.9549 32.041 45.2674 32.5879 45.492C33.1054 45.7166 33.6328 45.824 34.1699 45.824H34.1796C34.7167 45.824 35.2538 45.7069 35.7812 45.4822C36.3378 45.2381 36.8261 44.8963 37.2362 44.4569C37.6464 44.0272 37.9882 43.5096 38.2421 42.9042C38.496 42.2987 38.6327 41.703 38.662 41.1073V40.9315C38.6718 40.3944 38.5839 39.8671 38.3886 39.3495ZM36.5038 42.162C36.1523 43.0018 35.6738 43.578 35.0976 43.8905C34.7851 44.0565 34.4628 44.1444 34.1406 44.1444C33.8574 44.1444 33.5546 44.076 33.2519 43.9491C32.5879 43.6659 32.1777 43.2166 32.0019 42.5721C31.9433 42.3573 31.914 42.1327 31.914 41.8983C31.914 41.4296 32.0312 40.912 32.2656 40.3554C32.6269 39.496 33.1054 38.9101 33.6816 38.5878C33.9941 38.412 34.3164 38.3339 34.6386 38.3339C34.9316 38.3339 35.2245 38.4023 35.537 38.5292C36.1913 38.8124 36.6015 39.2616 36.7773 39.9061C36.8359 40.1112 36.8651 40.3358 36.8651 40.5702C36.8651 41.0585 36.748 41.5858 36.5038 42.162Z" fill="white"/>
<path d="M26.2695 32.5332L27.8125 42.8651L27.1094 46.4978L27.0117 46.3709L25.5078 36.3905V36.1952L26.1719 32.709L26.2695 32.5332Z" fill="#760D16"/>
<path d="M15 37.8749L15.7324 34.2226L26.2694 32.5332L25.5565 36.2538V36.498L15.127 37.9726L15 37.8749Z" fill="#EF463E"/>
<path d="M25.5565 36.2538L27.1092 46.4979L16.6797 48.1287L15 37.8749L25.5565 36.2538Z" fill="url(#paint3_linear_270_10195)"/>
<path d="M24.4335 44.867C24.3554 44.7693 24.2382 44.701 24.1015 44.6522C23.9648 44.6033 23.7987 44.5838 23.5937 44.5838C23.4081 44.5838 23.1933 44.6033 22.9589 44.6424L20.205 45.1111C20.2343 44.8963 20.3418 44.6229 20.5273 44.2811C20.7324 43.9002 21.0449 43.4412 21.4453 42.9139C21.582 42.7284 21.6894 42.5916 21.7675 42.494C21.8164 42.4256 21.8945 42.3377 21.9921 42.2108C22.6269 41.3807 23.0077 40.7069 23.164 40.1796C23.2519 39.8768 23.3007 39.5741 23.3202 39.2714C23.33 39.1835 23.33 39.1054 23.33 39.0272C23.33 38.8124 23.3105 38.5976 23.2714 38.3827C23.2421 38.1874 23.1933 38.0312 23.1249 37.9042C23.0566 37.7772 22.9784 37.6796 22.8808 37.621C22.7734 37.5526 22.6074 37.5233 22.4023 37.5233C22.2363 37.5233 22.0312 37.5429 21.7871 37.5819L18.6035 38.1288C18.2226 38.1972 17.9297 38.3046 17.7539 38.4804C17.6074 38.6171 17.5391 38.7929 17.5391 38.9882C17.5391 39.037 17.5391 39.0956 17.5488 39.1542C17.5977 39.4276 17.7344 39.6229 17.959 39.7206C18.0957 39.7792 18.2519 39.8085 18.4473 39.8085C18.5742 39.8085 18.7207 39.7987 18.8769 39.7694L21.5332 39.3007C21.5332 39.3495 21.5429 39.3983 21.5429 39.4374C21.5429 39.6034 21.5136 39.7694 21.455 39.9257C21.3769 40.1503 21.1816 40.4628 20.8593 40.8631C20.7714 40.9706 20.6347 41.1463 20.4492 41.371C19.7265 42.2401 19.2187 42.9823 18.9062 43.5975C18.6816 44.0272 18.5351 44.4373 18.4473 44.8572C18.3984 45.1014 18.3691 45.326 18.3691 45.5506C18.3691 45.7068 18.3789 45.8631 18.4082 46.0096C18.4473 46.2244 18.4961 46.4002 18.5644 46.5369C18.6328 46.6736 18.7305 46.781 18.8379 46.8396C18.9453 46.8982 19.0918 46.9178 19.3066 46.9178C19.5703 46.9178 19.9316 46.8787 20.3906 46.8006L23.2812 46.3025C23.789 46.2146 24.1503 46.0877 24.3554 45.9217C24.5214 45.785 24.6093 45.5994 24.6093 45.3846C24.6093 45.326 24.5995 45.2674 24.5898 45.2088C24.5702 45.0818 24.5214 44.9647 24.4335 44.867Z" fill="white"/>
</g>
<defs>
<linearGradient id="paint0_linear_270_10195" x1="57.9682" y1="36.7032" x2="57.9682" y2="47.7977" gradientUnits="userSpaceOnUse">
<stop offset="0.00562" stop-color="#FFE513"/>
<stop offset="1" stop-color="#FDB924"/>
</linearGradient>
<linearGradient id="paint1_linear_270_10195" x1="40.6654" y1="37.8758" x2="51.5016" y2="46.6642" gradientUnits="userSpaceOnUse">
<stop offset="0.00562" stop-color="#008CD2"/>
<stop offset="1" stop-color="#00649D"/>
</linearGradient>
<linearGradient id="paint2_linear_270_10195" x1="34.3947" y1="38.1816" x2="34.3947" y2="47.9015" gradientUnits="userSpaceOnUse">
<stop stop-color="#26A146"/>
<stop offset="1" stop-color="#008A52"/>
</linearGradient>
<linearGradient id="paint3_linear_270_10195" x1="20.2958" y1="37.2285" x2="21.9056" y2="47.3309" gradientUnits="userSpaceOnUse">
<stop stop-color="#D92231"/>
<stop offset="1" stop-color="#BA2234"/>
</linearGradient>
<clipPath id="clip0_270_10195">
<rect width="50" height="17.2849" fill="white" transform="translate(15 31)"/>
</clipPath>
</defs>
</svg>
